<svg xmlns="http://www.w3.org/2000/svg" viewBox="0 0 68.453 17.818">
  <title>A0_forum</title>
  <g id="Ebene_2" data-name="Ebene 2">
    <g id="Ebene_1-2" data-name="Ebene 1">
      <g>
        <path d="M12.7,17.788a22.781,22.781,0,0,0,1.081-2.381,1.216,1.216,0,0,0-.29-1.053C11.13,12.293,9.95,9.8,10.913,6.7c1.023-3.3,3.533-4.98,6.814-5.559a9.353,9.353,0,0,1,7.729,1.906,7.007,7.007,0,0,1-.018,11.293,9.425,9.425,0,0,1-7.458,1.9,1.737,1.737,0,0,0-1.5.405A5.012,5.012,0,0,1,12.7,17.788Z" fill="#8da6e8"/>
        <path d="M1.711,13.558a18.512,18.512,0,0,0,.871-1.92.981.981,0,0,0-.233-.849C.446,9.127-.5,7.12.271,4.618,1.1,1.959,3.12.6,5.764.136A7.541,7.541,0,0,1,12,1.673a5.649,5.649,0,0,1-.015,9.105,7.6,7.6,0,0,1-6.012,1.529,1.4,1.4,0,0,0-1.2.327A4.048,4.048,0,0,1,1.711,13.558Z" fill="#fff"/>
        <g>
          <path d="M40.463,4.649V5.933H36.617V8.5h3.246v1.29H36.617v3.534H34.991V4.649Z" fill="#fff"/>
          <path d="M43.889,7.073A3.394,3.394,0,0,1,45.14,7.3a2.706,2.706,0,0,1,.957.63,2.789,2.789,0,0,1,.612,1,4.123,4.123,0,0,1,0,2.634,2.85,2.85,0,0,1-.612,1,2.667,2.667,0,0,1-.957.636,3.644,3.644,0,0,1-2.505,0,2.674,2.674,0,0,1-.963-.636,2.863,2.863,0,0,1-.618-1,3.76,3.76,0,0,1-.219-1.32,3.75,3.75,0,0,1,.219-1.314,2.8,2.8,0,0,1,.618-1,2.713,2.713,0,0,1,.963-.63A3.418,3.418,0,0,1,43.889,7.073Zm0,5.2a1.3,1.3,0,0,0,1.137-.516,2.588,2.588,0,0,0,.368-1.512,2.619,2.619,0,0,0-.368-1.518,1.3,1.3,0,0,0-1.137-.522,1.316,1.316,0,0,0-1.152.525,2.6,2.6,0,0,0-.372,1.515,2.573,2.573,0,0,0,.372,1.509A1.321,1.321,0,0,0,43.889,12.275Z" fill="#fff"/>
          <path d="M48.082,13.325V7.17h.871a.466.466,0,0,1,.317.083.489.489,0,0,1,.121.288l.089.744a2.95,2.95,0,0,1,.774-.9,1.629,1.629,0,0,1,1-.33,1.283,1.283,0,0,1,.756.21l-.192,1.11a.225.225,0,0,1-.078.153.263.263,0,0,1-.161.045,1.01,1.01,0,0,1-.246-.042,1.655,1.655,0,0,0-.415-.042,1.257,1.257,0,0,0-.792.255,1.963,1.963,0,0,0-.558.747v3.834Z" fill="#fff"/>
          <path d="M54.34,7.17v3.911a1.315,1.315,0,0,0,.261.873.969.969,0,0,0,.783.309,1.565,1.565,0,0,0,.72-.171,2.517,2.517,0,0,0,.636-.471V7.17h1.482v6.155h-.906a.364.364,0,0,1-.378-.27l-.1-.492a4.291,4.291,0,0,1-.4.351,2.389,2.389,0,0,1-.435.27,2.439,2.439,0,0,1-.5.174,2.491,2.491,0,0,1-.573.063,2.186,2.186,0,0,1-.891-.171,1.785,1.785,0,0,1-.651-.483,2.115,2.115,0,0,1-.4-.741,3.136,3.136,0,0,1-.135-.945V7.17Z" fill="#fff"/>
          <path d="M59.807,13.325V7.17h.906a.363.363,0,0,1,.378.269l.095.456a3.388,3.388,0,0,1,.34-.329,2.071,2.071,0,0,1,.809-.43,1.936,1.936,0,0,1,.508-.063,1.439,1.439,0,0,1,.957.315,1.9,1.9,0,0,1,.561.837,1.858,1.858,0,0,1,.36-.525,1.949,1.949,0,0,1,.474-.357,2.22,2.22,0,0,1,.549-.2,2.63,2.63,0,0,1,.585-.066,2.462,2.462,0,0,1,.906.156,1.757,1.757,0,0,1,.666.456,2.008,2.008,0,0,1,.41.732,3.158,3.158,0,0,1,.142.99v3.918H66.971V9.407a1.317,1.317,0,0,0-.258-.885.951.951,0,0,0-.757-.3,1.143,1.143,0,0,0-.422.078,1.027,1.027,0,0,0-.343.225,1.05,1.05,0,0,0-.231.369,1.458,1.458,0,0,0-.084.51v3.918H63.389V9.407a1.341,1.341,0,0,0-.249-.9.93.93,0,0,0-.735-.282,1.184,1.184,0,0,0-.6.159,2.015,2.015,0,0,0-.52.435v4.506Z" fill="#fff"/>
        </g>
      </g>
    </g>
  </g>
</svg>
