<svg xmlns="http://www.w3.org/2000/svg" viewBox="0 0 96.586 20.923">
  <title>A0_lerngruppen</title>
  <g id="Ebene_2" data-name="Ebene 2">
    <g id="Ebene_1-2" data-name="Ebene 1">
      <g>
        <path d="M.705,9.441C.6,9.169.614,8.995,1.139,7.029,1.57,5.412,1.755,4.8,2.281,4.588a1.3,1.3,0,0,1,.824-.05,1.019,1.019,0,0,1,.471.336A1.458,1.458,0,0,1,3.63,6.106a18.748,18.748,0,0,0-.383,2.77c-.1,1.327.14,1.7-.158,1.9C2.573,11.115,1.11,10.471.705,9.441Z" fill="#fff"/>
        <path d="M.38,19.087a11.011,11.011,0,0,0,2.505-3.131A10.5,10.5,0,0,0,3.793,13.6a3.316,3.316,0,0,1,1.245,2.559c-.02.2-.073.446-.777,1.57-1.417,2.263-2.18,2.791-2.527,2.963-.064.032-.123.055-.13.058a1.638,1.638,0,0,1-1.17-.07.981.981,0,0,1-.054-1.59Z" fill="#fff"/>
        <path d="M7.314,8.722a4.633,4.633,0,0,0-.542,2.463,6.091,6.091,0,0,0,1.1,2.627c1.9,3.189,3.16,4.887,3.16,4.887a1.88,1.88,0,0,1,.4,1.106,1.131,1.131,0,0,1-.351.89,1.189,1.189,0,0,1-.8.227c-.9-.037-1.575-.981-1.885-1.425-2.511-3.6-3.767-5.4-4.073-6.562A14.5,14.5,0,0,1,4.064,8,3.385,3.385,0,0,1,5.03,5.319a2.515,2.515,0,0,1,1.027-.4A2.015,2.015,0,0,1,7.245,5.1c.586.329.523.884,1.044,1.983a5.483,5.483,0,0,0,1.1,1.69A8.114,8.114,0,0,0,11.5,10.333c.411.2.979.484.631,1.094a.848.848,0,0,1-.375.35c-.113.046-.387.115-.93-.187A28.689,28.689,0,0,1,7.314,8.722Z" fill="#fff"/>
        <ellipse cx="7.639" cy="1.95" rx="2.058" ry="1.95" fill="#fff"/>
        <path d="M14.734,12.505c-.083-.2-.071-.324.336-1.753.335-1.175.478-1.621.886-1.773a1.066,1.066,0,0,1,.638-.037.8.8,0,0,1,.366.244,1,1,0,0,1,.042.895,12.793,12.793,0,0,0-.3,2.013c-.082.965.108,1.238-.123,1.38C16.182,13.722,15.048,13.254,14.734,12.505Z" fill="#8da6e8"/>
        <path d="M14.482,19.515a8.1,8.1,0,0,0,1.941-2.275,7.338,7.338,0,0,0,.705-1.715,2.366,2.366,0,0,1,.964,1.86c-.015.142-.056.324-.6,1.141-1.1,1.645-1.689,2.029-1.958,2.153-.05.024-.1.041-.1.043a1.345,1.345,0,0,1-.907-.051.756.756,0,0,1-.336-.559A.74.74,0,0,1,14.482,19.515Z" fill="#8da6e8"/>
        <path d="M19.857,11.983a3.193,3.193,0,0,0-.42,1.79,4.263,4.263,0,0,0,.852,1.909c1.477,2.318,2.449,3.551,2.449,3.551a1.316,1.316,0,0,1,.31.8.794.794,0,0,1-.272.647.97.97,0,0,1-.618.165c-.7-.027-1.221-.713-1.461-1.035-1.947-2.616-2.92-3.923-3.158-4.769a9.935,9.935,0,0,1-.2-3.584,2.372,2.372,0,0,1,.75-1.952,2.032,2.032,0,0,1,.8-.292,1.661,1.661,0,0,1,.92.132c.455.239.406.642.81,1.441a3.972,3.972,0,0,0,.85,1.228A6.3,6.3,0,0,0,23.1,13.153c.319.145.759.352.49.8a.641.641,0,0,1-.291.255c-.088.033-.3.083-.721-.136A22.022,22.022,0,0,1,19.857,11.983Z" fill="#8da6e8"/>
        <ellipse cx="20.109" cy="7.061" rx="1.596" ry="1.417" fill="#8da6e8"/>
        <g>
          <path d="M30.887,15.248H34.36V16.58H29.273V7.9h1.614Z" fill="#fff"/>
          <path d="M37.709,10.328a2.989,2.989,0,0,1,1.071.186,2.345,2.345,0,0,1,.843.543,2.461,2.461,0,0,1,.551.876,3.286,3.286,0,0,1,.2,1.185,2.144,2.144,0,0,1-.015.279.446.446,0,0,1-.054.174.223.223,0,0,1-.105.09.451.451,0,0,1-.168.027h-3.8a2.125,2.125,0,0,0,.509,1.392,1.591,1.591,0,0,0,1.177.443,2.048,2.048,0,0,0,.621-.083,2.854,2.854,0,0,0,.456-.187c.13-.067.243-.129.342-.186a.584.584,0,0,1,.285-.084.321.321,0,0,1,.156.037.345.345,0,0,1,.114.1l.431.54a2.465,2.465,0,0,1-.551.483,3.2,3.2,0,0,1-.639.312,3.567,3.567,0,0,1-.678.165,5.011,5.011,0,0,1-.669.047,3.288,3.288,0,0,1-1.194-.212,2.664,2.664,0,0,1-.96-.63,2.968,2.968,0,0,1-.643-1.033,4.007,4.007,0,0,1-.233-1.424,3.385,3.385,0,0,1,.2-1.185,2.834,2.834,0,0,1,.585-.966,2.771,2.771,0,0,1,.93-.652A3.08,3.08,0,0,1,37.709,10.328Zm.03,1.062a1.372,1.372,0,0,0-1.014.365,1.819,1.819,0,0,0-.469,1.039h2.785a1.81,1.81,0,0,0-.079-.543,1.235,1.235,0,0,0-.239-.447,1.136,1.136,0,0,0-.408-.3A1.393,1.393,0,0,0,37.739,11.39Z" fill="#fff"/>
          <path d="M41.578,16.58V10.424h.87a.466.466,0,0,1,.318.084.483.483,0,0,1,.12.287l.09.745a2.925,2.925,0,0,1,.774-.9,1.622,1.622,0,0,1,1-.33,1.28,1.28,0,0,1,.756.21l-.192,1.109a.232.232,0,0,1-.078.154.264.264,0,0,1-.162.045,1.01,1.01,0,0,1-.246-.042,1.646,1.646,0,0,0-.414-.042,1.257,1.257,0,0,0-.792.255,1.963,1.963,0,0,0-.558.747V16.58Z" fill="#fff"/>
          <path d="M46.481,16.58V10.424h.906a.364.364,0,0,1,.378.269l.1.487a3.367,3.367,0,0,1,.392-.348,2.836,2.836,0,0,1,.438-.27,2.268,2.268,0,0,1,.495-.174,2.614,2.614,0,0,1,.577-.06,2.21,2.21,0,0,1,.894.171,1.775,1.775,0,0,1,.651.48,2.126,2.126,0,0,1,.4.738,3.159,3.159,0,0,1,.134.945V16.58H50.362V12.662a1.32,1.32,0,0,0-.26-.873.97.97,0,0,0-.784-.309,1.539,1.539,0,0,0-.719.174,2.624,2.624,0,0,0-.637.473V16.58Z" fill="#fff"/>
          <path d="M55.432,10.315a3.275,3.275,0,0,1,.744.082,2.535,2.535,0,0,1,.636.237h1.77v.552a.3.3,0,0,1-.072.215.422.422,0,0,1-.246.109l-.552.1a1.922,1.922,0,0,1,.093.329,1.98,1.98,0,0,1,.033.367,1.831,1.831,0,0,1-.183.825,1.859,1.859,0,0,1-.5.627,2.34,2.34,0,0,1-.762.4,3.157,3.157,0,0,1-.957.141,3.375,3.375,0,0,1-.678-.067c-.192.118-.288.248-.288.394a.289.289,0,0,0,.171.274,1.378,1.378,0,0,0,.45.124,4.987,4.987,0,0,0,.633.037q.354,0,.726.03a5.716,5.716,0,0,1,.726.1,2.132,2.132,0,0,1,.633.238,1.27,1.27,0,0,1,.45.442,1.366,1.366,0,0,1,.171.72,1.7,1.7,0,0,1-.2.794,2.125,2.125,0,0,1-.582.687,3.047,3.047,0,0,1-.932.484,3.979,3.979,0,0,1-1.261.184,4.793,4.793,0,0,1-1.217-.136,2.821,2.821,0,0,1-.855-.359,1.558,1.558,0,0,1-.508-.52,1.211,1.211,0,0,1-.168-.611,1.045,1.045,0,0,1,.264-.726,1.809,1.809,0,0,1,.732-.468,1.015,1.015,0,0,1-.366-.337.972.972,0,0,1-.138-.545.911.911,0,0,1,.048-.285,1.172,1.172,0,0,1,.147-.291,1.433,1.433,0,0,1,.249-.273,1.748,1.748,0,0,1,.354-.232,1.94,1.94,0,0,1-.735-.671,1.8,1.8,0,0,1-.267-.984,1.836,1.836,0,0,1,.183-.826,1.857,1.857,0,0,1,.51-.629,2.308,2.308,0,0,1,.774-.4A3.291,3.291,0,0,1,55.432,10.315Zm1.626,6.523a.419.419,0,0,0-.108-.3.709.709,0,0,0-.294-.181,2.239,2.239,0,0,0-.435-.095,4.412,4.412,0,0,0-.528-.031h-.576a2.447,2.447,0,0,1-.572-.065,1.345,1.345,0,0,0-.406.327.672.672,0,0,0-.153.435.6.6,0,0,0,.081.3.676.676,0,0,0,.258.243,1.533,1.533,0,0,0,.459.159,3.629,3.629,0,0,0,.69.057,3.523,3.523,0,0,0,.715-.064,1.718,1.718,0,0,0,.494-.178.761.761,0,0,0,.285-.27A.668.668,0,0,0,57.058,16.838Zm-1.626-3.486a1.366,1.366,0,0,0,.48-.076.939.939,0,0,0,.34-.206.872.872,0,0,0,.2-.318,1.169,1.169,0,0,0,.07-.408.969.969,0,0,0-.273-.723,1.391,1.391,0,0,0-1.639,0,.965.965,0,0,0-.273.723,1.147,1.147,0,0,0,.069.4.882.882,0,0,0,.2.32.892.892,0,0,0,.342.21A1.376,1.376,0,0,0,55.432,13.352Z" fill="#fff"/>
          <path d="M59.512,16.58V10.424h.87a.466.466,0,0,1,.318.084.483.483,0,0,1,.12.287l.09.745a2.925,2.925,0,0,1,.774-.9,1.622,1.622,0,0,1,1-.33,1.28,1.28,0,0,1,.756.21l-.192,1.109a.228.228,0,0,1-.078.154.264.264,0,0,1-.162.045,1.01,1.01,0,0,1-.246-.042,1.646,1.646,0,0,0-.414-.042,1.257,1.257,0,0,0-.792.255,1.963,1.963,0,0,0-.558.747V16.58Z" fill="#fff"/>
          <path d="M65.77,10.424v3.912a1.318,1.318,0,0,0,.261.873.967.967,0,0,0,.783.309,1.565,1.565,0,0,0,.72-.171,2.541,2.541,0,0,0,.636-.471V10.424h1.482V16.58h-.906a.364.364,0,0,1-.378-.27l-.1-.493a4.161,4.161,0,0,1-.4.352,2.374,2.374,0,0,1-.933.444,2.491,2.491,0,0,1-.573.063,2.169,2.169,0,0,1-.891-.172,1.771,1.771,0,0,1-.651-.482,2.124,2.124,0,0,1-.4-.741,3.136,3.136,0,0,1-.135-.945V10.424Z" fill="#fff"/>
          <path d="M71.236,18.589V10.424h.906a.443.443,0,0,1,.246.066.309.309,0,0,1,.132.2l.12.571a3.107,3.107,0,0,1,.855-.69,2.322,2.322,0,0,1,1.131-.264,2.006,2.006,0,0,1,.921.21,2.075,2.075,0,0,1,.72.608,2.936,2.936,0,0,1,.468.985,4.946,4.946,0,0,1,.165,1.341,4.206,4.206,0,0,1-.186,1.277,3.132,3.132,0,0,1-.531,1.021,2.392,2.392,0,0,1-1.929.917,2.2,2.2,0,0,1-.885-.158,2.166,2.166,0,0,1-.651-.441v2.519Zm2.88-7.109a1.5,1.5,0,0,0-.789.2,2.282,2.282,0,0,0-.609.549v2.759a1.423,1.423,0,0,0,.549.436,1.653,1.653,0,0,0,.639.123,1.436,1.436,0,0,0,.609-.126,1.182,1.182,0,0,0,.462-.384,1.9,1.9,0,0,0,.291-.652,3.706,3.706,0,0,0,.1-.926,4.115,4.115,0,0,0-.087-.915,1.768,1.768,0,0,0-.249-.609.986.986,0,0,0-.393-.343A1.24,1.24,0,0,0,74.116,11.48Z" fill="#fff"/>
          <path d="M78.022,18.589V10.424h.906a.443.443,0,0,1,.246.066.309.309,0,0,1,.132.2l.12.571a3.107,3.107,0,0,1,.855-.69,2.322,2.322,0,0,1,1.131-.264,2.006,2.006,0,0,1,.921.21,2.075,2.075,0,0,1,.72.608,2.936,2.936,0,0,1,.468.985,4.946,4.946,0,0,1,.165,1.341,4.206,4.206,0,0,1-.186,1.277,3.132,3.132,0,0,1-.531,1.021,2.392,2.392,0,0,1-1.929.917,2.2,2.2,0,0,1-.885-.158,2.166,2.166,0,0,1-.651-.441v2.519ZM80.9,11.48a1.5,1.5,0,0,0-.789.2,2.282,2.282,0,0,0-.609.549v2.759a1.423,1.423,0,0,0,.549.436,1.653,1.653,0,0,0,.639.123,1.436,1.436,0,0,0,.609-.126,1.182,1.182,0,0,0,.462-.384,1.9,1.9,0,0,0,.291-.652,3.706,3.706,0,0,0,.1-.926,4.115,4.115,0,0,0-.087-.915,1.768,1.768,0,0,0-.249-.609.986.986,0,0,0-.393-.343A1.24,1.24,0,0,0,80.9,11.48Z" fill="#fff"/>
          <path d="M87.352,10.328a2.989,2.989,0,0,1,1.071.186,2.345,2.345,0,0,1,.843.543,2.447,2.447,0,0,1,.551.876,3.286,3.286,0,0,1,.2,1.185A2.144,2.144,0,0,1,90,13.4a.446.446,0,0,1-.054.174.219.219,0,0,1-.105.09.451.451,0,0,1-.168.027h-3.8a2.125,2.125,0,0,0,.509,1.392,1.591,1.591,0,0,0,1.177.443,2.039,2.039,0,0,0,.621-.083,2.816,2.816,0,0,0,.456-.187q.2-.1.342-.186a.584.584,0,0,1,.285-.084.321.321,0,0,1,.156.037.345.345,0,0,1,.114.1l.432.54a2.492,2.492,0,0,1-.552.483,3.2,3.2,0,0,1-.639.312,3.567,3.567,0,0,1-.678.165,5.011,5.011,0,0,1-.669.047,3.288,3.288,0,0,1-1.194-.212,2.664,2.664,0,0,1-.96-.63,2.951,2.951,0,0,1-.642-1.033,3.984,3.984,0,0,1-.234-1.424,3.408,3.408,0,0,1,.2-1.185,2.834,2.834,0,0,1,.585-.966,2.771,2.771,0,0,1,.93-.652A3.08,3.08,0,0,1,87.352,10.328Zm.03,1.062a1.372,1.372,0,0,0-1.014.365,1.812,1.812,0,0,0-.468,1.039h2.784a1.842,1.842,0,0,0-.078-.543,1.253,1.253,0,0,0-.24-.447,1.136,1.136,0,0,0-.408-.3A1.39,1.39,0,0,0,87.382,11.39Z" fill="#fff"/>
          <path d="M91.222,16.58V10.424h.906a.364.364,0,0,1,.378.269l.1.487A3.376,3.376,0,0,1,93,10.832a2.744,2.744,0,0,1,.438-.27,2.232,2.232,0,0,1,.5-.174,2.6,2.6,0,0,1,.576-.06,2.207,2.207,0,0,1,.894.171,1.766,1.766,0,0,1,.651.48,2.11,2.11,0,0,1,.4.738,3.127,3.127,0,0,1,.135.945V16.58H95.1V12.662a1.315,1.315,0,0,0-.261-.873.967.967,0,0,0-.783-.309,1.543,1.543,0,0,0-.72.174,2.6,2.6,0,0,0-.636.473V16.58Z" fill="#fff"/>
        </g>
      </g>
    </g>
  </g>
</svg>
