<svg xmlns="http://www.w3.org/2000/svg" viewBox="0 0 230.91 107.903">
  <title>A_digital_hover_5</title>
  <g id="Ebene_2" data-name="Ebene 2">
    <g id="Ebene_1-2" data-name="Ebene 1">
      <g>
        <path d="M211.972,88.4h.659l.016.293.194,3.388.781,13.756.051.9h12.046l.051-.9h0l-.052.9h2.086l.051-.9.78-13.756.194-3.388.017-.3h1.063a1,1,0,0,0,0-2h-.957c0-.024,0-.049,0-.069v0a2.618,2.618,0,0,0-2.618-2.616h-1.851a2.373,2.373,0,0,1,.241.039,2.509,2.509,0,0,0-.381-.039h-9.359a2.615,2.615,0,0,0-2.466,2.687h-.554a1,1,0,0,0,0,2Zm14.67,2.088.12-2.088h0l-.12,2.1-.09,1.587h0Z" fill="#264677"/>
        <path d="M89.427,102.252a5.389,5.389,0,0,0,4.435,2.332h7.185l-.008,0h7.208v2.151H178.37c.009-.2.021-.4.046-.565a6.177,6.177,0,0,0,0-1.59h1.892a5.383,5.383,0,0,0,4.436-2.332l.675-.981.036.006.371-.539,1.5.266V101a1.2,1.2,0,0,0,1.36-1.617l-.026-.085a1.364,1.364,0,0,0,.473-.089,1.379,1.379,0,0,0,.761-1.8l-.078-.268a1.588,1.588,0,0,0,.6-.1,1.611,1.611,0,0,0,.879-2.1l-.033-.116.479.088h0a1.618,1.618,0,0,0,1.785-2.191l-.647-2.223-.551.817,0,.006,0-.008-.633.934-.014,0,.737-1.071-.012-.038.424-.615.4-.59a1.623,1.623,0,0,0-.155-2.05l-.008-.007c-.147-1.061-1.2-2.274-2.17-2.274H174.709c-.079-.227-.145-.457-.238-.679-1.047-2.466-2.447-4.61-3.142-7.132-.046-.165-.09-.325-.126-.5-.047-.194-.085-.392-.123-.589a44.5,44.5,0,0,0-1.864-7.061,10.884,10.884,0,0,0-1.16-2.5,3.225,3.225,0,0,0-.324-.423,2.834,2.834,0,0,0-.7-.6,13.484,13.484,0,0,0-2.181-.921,8.2,8.2,0,0,0-.362-1.557,4.3,4.3,0,0,0-3.167-2.135c-.223-.084-.449-.16-.678-.226-1.06-2.614-4.369-11.115-4.723-16.229-.323-4.651,5.427-4.652,5.5-11.086s-5.891-5.426-8.063-11.861c-1.087-3.22,1.034-4.762-.195-7.319-.875-1.819-2.87-2.832-5.052-3.4.877-1.821.728-4.205-2.969-6.643A10.364,10.364,0,0,0,139.624,3a12.274,12.274,0,0,0-1.435.048c-6.239.562-12.951,5.722-17.5,11.834-.129.177-.261.354-.387.533a35.18,35.18,0,0,0-3.536,5.974c-2.332,5.167-1.647,8.418-.491,10.267q.55.8,1.134,1.584c-.078.513-.143,1.024-.188,1.53a17.831,17.831,0,0,0,.062,4.006,5.781,5.781,0,0,0,.49,1.4,6.947,6.947,0,0,0,2.254,4.48c6.715,6.712,1.9,7.373,1.466,14.777-.144.018-.288.034-.43.062l0,0a.24.24,0,0,0-.15,0c-.174.062-.342.139-.512.21l-.1.042a10.482,10.482,0,0,0-5.184,4.8c-.118.216-.23.441-.338.667-.071.146-.137.291-.2.441-.122.273-.234.549-.338.832-1.447,3.907-3.419,8.055-3.607,12.149-.01.155-.014.306-.014.455v.01a33.02,33.02,0,0,1-.688,6.494H83.074a2.705,2.705,0,0,0-2.168,2.541,1.628,1.628,0,0,0,.035,1.786Zm70.236-41.226c-.286-.059-.567-.113-.834-.161l-.076-.015c-1.1-1.5-4.329-6.639-3.759-14.8C154.994,46.05,157.732,57.242,159.663,61.026Zm-7.65-31.005c.087-.064.176-.124.268-.179a1.726,1.726,0,0,1,1.143-.4,2.63,2.63,0,0,1,.281.009h0a2.547,2.547,0,0,0-1.421.39c-.094.056-.184.117-.273.182Zm3.438,3.118a3.974,3.974,0,0,0-.078-2.278,3.957,3.957,0,0,1,.078,2.278c-.424,1.708-2.349,2.8-3.513,2.368C153.1,35.939,155.027,34.847,155.451,33.139Zm-4.094,2.073v0a2.7,2.7,0,0,0,.572.3,2.722,2.722,0,0,1-.572-.29Z" fill="#264677"/>
        <path d="M221.727,82.2s-4.25-4.106.01-8.085a7.522,7.522,0,0,0,1.559-8.93c.987,8.363-6.1,5.815-6.1,10.915A6.054,6.054,0,0,0,221.727,82.2Z" fill="#264677"/>
        <path d="M224.71,78.505a3.392,3.392,0,0,1-.906,4.488,3.305,3.305,0,0,0,2.864-2.946c.572-2.834-3.121-2.105-1.707-6.654A4.785,4.785,0,0,0,224.71,78.505Z" fill="#264677"/>
        <g>
          <path d="M9.125,70.907c4.724,2.053,7.328,3.185,11.113,12.724,1.081,2.731,2.061,5.5,2.986,8.283-.317,2.222-.547,4.453-.664,6.577H20.14v0H17.172v0h0v8.248h19.8V98.491H32.421l2.619-9.752a21.174,21.174,0,0,1,1.385-3.618,9.453,9.453,0,0,1,5.149-3.089c1.566-.38,3.23-2.284,4.012-3.237s1.474-1.905,3.425-1.048,3.124,0,5.179-2.19S62.7,72.891,62.7,72.891s-10.464-1.519-13.4-.667-4.3,1.81-6.458,1.9-1.664,1.142-4.012,2.19-4.009,2.762-2.935,4.667a5.509,5.509,0,0,1,.258,3.689,21.628,21.628,0,0,0-1.56,3.968l-2.646,9.853H28.7c.829-5.182,3.85-21.36,5.243-27.264A15.157,15.157,0,0,1,35.6,69.355c1.271-1.34,1.937-3.821,2.283-5.818a7.458,7.458,0,0,1,3.49-2.555c3.815-.952,4.6-1.142,4.5-3.618s2.935-1.714,2.935-1.714c-2.153-1.143-7.827-.762-7.827-.762A20.569,20.569,0,0,1,47.2,53.71a1.081,1.081,0,0,0,.139-.009h0a1.337,1.337,0,0,0,1.178-1.479c-.2-1.524,3.814-.957,3.129-2.762s1.567-3.424,1.567-5.9,4.4-5.333,4.4-5.333c-3.419-1.429-9.387,0-9.387,0a17.249,17.249,0,0,1-5.773,3.524,10.754,10.754,0,0,0-4.1,2.557A2.088,2.088,0,0,0,38,46.921l2.01,3.3-2.975-1.645-.023-.012,0,0a1.679,1.679,0,0,0-2.273.682,16.66,16.66,0,0,0-.7,1.55,18.923,18.923,0,0,1-3.573,4.764,3.327,3.327,0,0,0-.911,2.57l-2.973,3.631a2.5,2.5,0,0,0-.17,2.941l2.635,4.089L25.537,66.15a.982.982,0,0,0-1.374.2l-1.282,1.762a27.415,27.415,0,0,0-2.239-6.735c-2.79-5.36-8.4-8.31-11.422-9.892-.673-.355-1.261-.661-1.644-.906a18.7,18.7,0,0,1-3.3-2.628.232.232,0,0,0-.324-.016l-.009.007a.216.216,0,0,0-.008.3,18.6,18.6,0,0,0,3.387,2.7c.4.256.965.551,1.679.926,2.975,1.558,8.51,4.46,11.231,9.7a27.662,27.662,0,0,1,2.287,7.037l-.561.771a1.857,1.857,0,0,0-.269,1.7A12.588,12.588,0,0,0,23.4,74.1c.146,1.188.268,2.323.374,3.331a37.8,37.8,0,0,0,.623,4.532,15.459,15.459,0,0,1,.3,2.053c-.5,2.16-.956,4.517-1.325,6.917-.848-2.5-1.736-5-2.71-7.456C16.81,73.766,14.147,72.606,9.31,70.506c-.961-.416-2.04-.887-3.227-1.469a24.235,24.235,0,0,1-4.7-3.285.232.232,0,0,0-.324.011l-.007.009a.216.216,0,0,0,.018.3A24.207,24.207,0,0,0,5.879,69.43C7.075,70.016,8.163,70.489,9.125,70.907ZM27.4,76.69c1.239-1.962,5.266-3.435,5.266-3.435.18-.344.375-.679.581-1.007-1.488,6.659-4.233,21.4-5,26.243H25.929c-.182-4.864-.425-11.031-.768-14.461a55.609,55.609,0,0,1,1.873-6.469C27.15,77.269,27.28,76.982,27.4,76.69Zm-3.167.7c-.084-.8-.182-1.7-.29-2.619a12.614,12.614,0,0,0,2.781,2.362c-.037.093-.08.185-.117.279a51.723,51.723,0,0,0-1.6,5.337,8.683,8.683,0,0,0-.165-.9A37.47,37.47,0,0,1,24.232,77.387Zm.6,8.116c.253,3.241.448,7.931.6,11.968q-.82-2.82-1.745-5.607C24,89.686,24.394,87.529,24.831,85.5ZM23.55,92.889q.906,2.785,1.708,5.6H23.011C23.112,96.678,23.3,94.788,23.55,92.889Z" fill="#264677"/>
          <path d="M70.431,86.781c.083.045.166.093.25.135l.464-1.611-.091.091-.745,1.316-.048-.03.048.028.745-1.316-1.1,1.1h0l-1.607,1.617-.2.346h0L66,92.269H63.963l.737-6.351a.393.393,0,0,0,.193-.3L65,84.658a.4.4,0,0,0-.192-.394h0l.019-.159a.747.747,0,0,0-.654-.827l-.181-.021h0l-.108-.013a.747.747,0,0,0-.827.655l-.018.151h0v0a.408.408,0,0,0-.3.343l-.108.964a.4.4,0,0,0,.113.325l-.763,6.586h-.589l-2.024-8.041h0l-.108-.431-1.041-2h0l-.777-1.487v.13l.368,1.462h0l-.369-1.463L57.407,82c.075-.014.149-.029.223-.045l.179-.042h0c-.06.015-.108.027-.183.043L57.4,82l-.051,2.279.1.386a2.518,2.518,0,0,0,.52.035,2.571,2.571,0,0,1-.525-.035l1.915,7.6h-.506L56.88,86.422a2.517,2.517,0,0,1-.825.463l-.012,0v0l.015,0a2.534,2.534,0,0,0,.823-.462L56.738,86l-1.19-1.909-.006,0-.9-1.415.007.129.01.029.09,1.52h0l.13,2.276.126.374h0l1.779,5.265H54.85v.005h0l1.59,14.464H66.924l1.59-14.47H68.26l1.582-2.8a2.54,2.54,0,0,1-.894-.3l-.016-.009-1.759,3.112h0l1.762-3.117h0l1.378-2.439.064.037-.062-.035-1.378,2.44a2.642,2.642,0,0,0,.449.2,2.507,2.507,0,0,0,.46.108l.216-.386.625-2.159-.138-.073C70.507,86.825,70.469,86.8,70.431,86.781ZM60.412,92.27l-1.924-7.64h.005v0h.018a2.51,2.51,0,0,0,.579-.234,2.554,2.554,0,0,1-.578.236h-.018l1.924,7.642Zm2.781-8.232.7.08h0l-.7-.081Zm-.256,8.232h-.006l.742-6.379h.006Zm.779-6.6H63.71l.174-1.49h.006Z" fill="#264677"/>
          <path d="M18.136,91.322a10.873,10.873,0,0,0,3.988,2.088,2.658,2.658,0,0,0-1.07-3.241l.043.026c-1.25-1.785-3.989-1.292-4.774-1.107a.211.211,0,0,0-.1-.124c.13-.324.042-1.045-2.565-1.82C10.131,86.1,6.8,90.859,5.731,92.286s2.057,1.237,1.079,2.856a3.5,3.5,0,0,0,.2,3.429s1.567-3.619,4.208-3.619a2.946,2.946,0,0,0,3.129-1.9A3.361,3.361,0,0,0,18.136,91.322Z" fill="#264677"/>
        </g>
        <path d="M187.611,83.969c-2.995-.128-3.38,1.541-3.38,1.541l3,.042Z" fill="#264677"/>
        <path id="Pfad_2207" data-name="Pfad 2207" d="M154.921,42.042c.422,6.1,5.049,17.021,5.049,17.021l-.54.077c-1.861-1.474-5.436-16.09-5.436-16.09-.685,9.812,4.127,15.272,4.127,15.272l-26.187-6.015-1.111-13.233c2.572-2.05,18.627-2.946,19.53-6.861a2.739,2.739,0,0,0,.579.293c1.163.441,3.094-.656,3.519-2.367s-.216-3.345-1.422-3.642a1.612,1.612,0,0,0-.324-.046,2.63,2.63,0,0,0-.281-.009,1.726,1.726,0,0,0-1.143.4c-.093.056-.183.116-.271.181.008-.28.012-.556.012-.835s0-.576-.014-.863l.077-.041L151,25.251c-4.309-5.318-5.614-8.022-5.921-9.512a3.717,3.717,0,0,0-1-2,4.269,4.269,0,0,0-3-1l2-5c3.326.259,7.668,1.1,9.083,4.037,1.229,2.557-.892,4.1.195,7.319,2.172,6.435,8.139,5.427,8.063,11.861S154.6,37.391,154.921,42.042Z" fill="#0d1927"/>
        <path id="Pfad_2208" data-name="Pfad 2208" d="M162.881,60.771c-.789-2.074-3.218-2.578-5.052-2.906-5.686-1.018-9.477-3.215-11.491-9.228-1.241-3.7-.579-7.244.152-10.991a.228.228,0,0,0-.185-.264h0a.194.194,0,0,0-.059,0q-5.568.676-11.172.863-.014-1.045-.023-2.092c0-.3-.443-.241-.44.059q.007,1.025.017,2.05l-.447.018a.208.208,0,0,0-.283-.079h0a.214.214,0,0,0-.106.172c-.136,2.516-.071,5.041-.277,7.553a12.091,12.091,0,0,1-.677,3.884,8,8,0,0,1-2.931,3.181c-.957.669-6.543,3.078-6.543,3.078s5.859,5.816,6.895,6.031c3.058.638,6.18,1.079,9.271,1.519a32.528,32.528,0,0,0,8.428-.077,5.851,5.851,0,0,0,2.077,2.348,13.75,13.75,0,0,0,5.071,1.6c2.245.4,4.492.791,6.738,1.187a.226.226,0,0,0,.275-.158,23.52,23.52,0,0,0,.846-4.229A8.2,8.2,0,0,0,162.881,60.771Z" fill="#d1aba8"/>
        <path id="Pfad_2209" data-name="Pfad 2209" d="M162.881,60.771c-.789-2.074-3.217-2.578-5.052-2.906-5.686-1.017-9.477-3.215-11.491-9.227a13.683,13.683,0,0,1-.686-4.057,7.928,7.928,0,0,1-5.116,2.332c-2.989,0-5.519-1.984-6.9-3.338-.026.785-.059,1.572-.124,2.356a12.091,12.091,0,0,1-.677,3.884A7.989,7.989,0,0,1,129.9,53c-.957.669-6.543,3.078-6.543,3.078s5.859,5.816,6.895,6.031c3.058.638,6.18,1.079,9.271,1.519a32.528,32.528,0,0,0,8.428-.077,5.851,5.851,0,0,0,2.077,2.348,13.768,13.768,0,0,0,5.071,1.6c2.245.4,4.492.791,6.738,1.187a.226.226,0,0,0,.275-.159,23.52,23.52,0,0,0,.846-4.229A8.194,8.194,0,0,0,162.881,60.771Z" fill="#fff3e7"/>
        <path id="Pfad_2210" data-name="Pfad 2210" d="M158.185,58.2a18.616,18.616,0,0,1-5.947-1.352l-28.3,2.615-.239.13s6.366,5.251,7.42,5.371c3.1.354,6.258.506,9.371.659a32.639,32.639,0,0,0,8.386-.851,5.842,5.842,0,0,0,2.284,2.146,13.756,13.756,0,0,0,5.2,1.131c2.272.191,4.546.373,6.818.56a.224.224,0,0,0,.259-.183,23.306,23.306,0,0,0,.452-4.288,8.166,8.166,0,0,0-.4-3.509C162.506,58.64,160.042,58.362,158.185,58.2Z" fill="#fff0e2"/>
        <path id="Pfad_2211" data-name="Pfad 2211" d="M116.623,88.626a.78.78,0,0,1-.018.136c-.39,2.931-1.714,5.086-.616,8.017.052.141.108.282.179.432a1.1,1.1,0,0,0,.061.146c.283-.282.325,2.837.1,4.791a10.929,10.929,0,0,0,.23,3.865,4.491,4.491,0,0,0,.146.506h49.33a11.655,11.655,0,0,0,.221-2.379v-.451c-.019-.441-.028-.874-.024-1.311.01-1.7-1.072-3.827-1.295-5.588-.084-.686-.15-1.306-.2-1.874-.014-.165-.024-.329-.032-.483-.235-3.607.333-5.012.873-8.614.024-.151.042-.311.071-.475.074-.545.15-1.142.216-1.8a76.553,76.553,0,0,0,.258-9.482v-.474c-.01-1.17-.018-2.339,0-3.509.028-1.691.08-3.376.136-5.071a5.7,5.7,0,0,0-.014-.728,2.032,2.032,0,0,0-.094-.469c-.168-.5-.553-.789-1.338-1.165a14.145,14.145,0,0,0-6.042-1.1h-.056c-.794-.009-1.587.015-2.367.029a22.536,22.536,0,0,1-6.969-.545c-2.471-.738-13.071-1.856-15.921-2.367-3.068-.549-8.251-1.726-10.825-2.166a6.78,6.78,0,0,0-2.579,0,4.524,4.524,0,0,0-2.482,1.511,7.256,7.256,0,0,0-1.391,4.622c-.009.16-.009.324-.009.479-.015.845.019,1.677.028,2.432a47.233,47.233,0,0,0-.395,10.131l.028.465c.185,3.208.54,6.42.786,9.619a16.076,16.076,0,0,1,.033,2.54C116.647,88.4,116.637,88.513,116.623,88.626Z" fill="#5a79a6"/>
        <path id="Pfad_2212" data-name="Pfad 2212" d="M156.741,83.85c.01.49.024.975.038,1.465,0,.156,0,.312.014.472.076,2.861.188,5.722.362,8.577.01.16.024.325.033.481.052.866.118,1.725.183,2.588.16,1.961.338,3.921.587,5.878.014.127.028.249.047.377a.636.636,0,0,0,.014.076c.254,1.711,1.6,2.106,3.054,2.861.026.013.046.036.072.05H177.32c.009-.125.017-.248.022-.376.046-1.122-.043-2.333.074-3.125.263-1.833-.493-3.747-.948-5.5l-.216-.782c-.042-.166-.089-.335-.136-.5-.469-1.693-.963-3.394-1.311-5.114-.441-2.2-.272-4.251-.545-6.343-.014-.146-.037-.288-.06-.433a10.876,10.876,0,0,0-.729-2.587c-1.047-2.466-2.447-4.61-3.142-7.132-.046-.165-.09-.325-.126-.5-.047-.194-.085-.392-.123-.589a44.523,44.523,0,0,0-1.864-7.061,10.884,10.884,0,0,0-1.16-2.5,3.225,3.225,0,0,0-.324-.423,2.813,2.813,0,0,0-.7-.6,13.509,13.509,0,0,0-7.256-1.566h-.056c-.3.01-.437,1.556-.136,1.546a30.485,30.485,0,0,1,3.512.07,7.342,7.342,0,0,1-.775,1.528c-.118.179-.244.353-.371.527-1.5,2.008-3.621,3.554-4.1,6.255a16.932,16.932,0,0,0-.225,2.057c-.009.156-.014.311-.018.471-.032,1.061,0,2.121.01,3.173C156.653,79.4,156.689,81.621,156.741,83.85Z" fill="#56739e"/>
        <path id="Pfad_2213" data-name="Pfad 2213" d="M123.376,91.238c-.009-1.028-.032-2.05-.08-3.072,0-.154-.013-.31-.023-.465a91.719,91.719,0,0,0-1.241-11.211c-.023-.154-.051-.314-.084-.469-.118-.681-.243-1.367-.381-2.05-.629-3.166-1.295-6.332-1.662-9.544-.024-.216-.047-.432-.066-.639-.014-.16-.028-.315-.043-.475-.108-1.282-.15-2.559-.16-3.851a4.227,4.227,0,0,0-.432-2.2c.262-.108.54-.216.821-.314a.251.251,0,0,0,.148-.324v0a.252.252,0,0,0-.113-.13.24.24,0,0,0-.15,0,10.494,10.494,0,0,0-5.8,5.054c-.118.216-.23.441-.338.667-.071.146-.137.291-.2.441-.122.273-.234.549-.338.832-1.447,3.907-3.419,8.055-3.607,12.149-.01.155-.014.306-.014.455v.01a33.076,33.076,0,0,1-.963,7.769A31.04,31.04,0,0,0,108,87.41c-.024.155-.043.31-.062.469q-.162,1.282-.324,2.59c-.249,1.949,16.65,9.238,16.786,7.712.014-.15.028-.3.032-.441.014-.169.024-.324.028-.479C124.56,94.31,123.4,94.2,123.376,91.238Z" fill="#5a7db0"/>
        <g id="Gruppe_1612" data-name="Gruppe 1612">
          <g id="Gruppe_1611" data-name="Gruppe 1611">
            <path id="Pfad_2214" data-name="Pfad 2214" d="M135.868,107.865a.237.237,0,0,1-.065-.009,72.775,72.775,0,0,1-8.562-2.974,9.951,9.951,0,0,1-2.982-2,.236.236,0,0,1,.364-.3,9.932,9.932,0,0,0,2.832,1.883,73.8,73.8,0,0,0,8.478,2.94.235.235,0,0,1-.065.461Z" fill="#17253d"/>
          </g>
        </g>
        <g id="Gruppe_1614" data-name="Gruppe 1614">
          <g id="Gruppe_1613" data-name="Gruppe 1613">
            <path id="Pfad_2215" data-name="Pfad 2215" d="M137.434,107.874a.231.231,0,0,1-.139-.045l-5.934-4.33a.234.234,0,1,1,.276-.379l5.935,4.33a.234.234,0,0,1-.138.424Z" fill="#17253d"/>
          </g>
        </g>
        <g id="Gruppe_1616" data-name="Gruppe 1616">
          <g id="Gruppe_1615" data-name="Gruppe 1615">
            <path id="Pfad_2216" data-name="Pfad 2216" d="M164.079,81.371a.234.234,0,0,1-.236-.232.237.237,0,0,1,.095-.19l5.261-3.971a.235.235,0,0,1,.307.356.15.15,0,0,1-.024.018h0l-5.261,3.971A.23.23,0,0,1,164.079,81.371Z" fill="#1a2a45"/>
          </g>
        </g>
        <g id="Gruppe_1618" data-name="Gruppe 1618">
          <g id="Gruppe_1617" data-name="Gruppe 1617">
            <path id="Pfad_2217" data-name="Pfad 2217" d="M163.126,103.44a.234.234,0,0,1-.231-.237.237.237,0,0,1,.069-.163,10.1,10.1,0,0,1,6.627-2.466h.043a12.811,12.811,0,0,1,6.619,1.71.235.235,0,0,1-.259.392,12.581,12.581,0,0,0-6.366-1.631,9.876,9.876,0,0,0-6.343,2.334A.232.232,0,0,1,163.126,103.44Z" fill="#1a2a45"/>
          </g>
        </g>
        <g id="Gruppe_1620" data-name="Gruppe 1620">
          <g id="Gruppe_1619" data-name="Gruppe 1619">
            <path id="Pfad_2218" data-name="Pfad 2218" d="M163.137,101.014a.224.224,0,0,1-.068-.01.237.237,0,0,1-.157-.292c.038-.123.465-1.243,3.987-2.716,3.453-1.445,4.166-1.488,4.239-1.488h0a.235.235,0,0,1,0,.469h0a19.414,19.414,0,0,0-4.057,1.452c-3.327,1.391-3.715,2.407-3.718,2.418A.233.233,0,0,1,163.137,101.014Z" fill="#17253d"/>
          </g>
        </g>
        <g id="Gruppe_1622" data-name="Gruppe 1622">
          <g id="Gruppe_1621" data-name="Gruppe 1621">
            <path id="Pfad_2219" data-name="Pfad 2219" d="M162.8,105.359a.229.229,0,0,1-.2-.108c-.051-.09-1.244-2.207-1.062-3.216a37.825,37.825,0,0,0,.087-7.026,15.153,15.153,0,0,1,.954-7.263c.653-1.427.023-7.324.016-7.384l-.011-.081,4.936-6.467a.235.235,0,0,1,.316-.048.208.208,0,0,1,.058.289l-.008.01L163.047,80.4c.079.755.6,6.066-.058,7.516a14.766,14.766,0,0,0-.917,7.067,38.155,38.155,0,0,1-.093,7.121,6.852,6.852,0,0,0,1.013,2.941.207.207,0,0,1-.076.283h0l-.013.006A.229.229,0,0,1,162.8,105.359Z" fill="#1a2a45"/>
          </g>
        </g>
        <path id="Pfad_2220" data-name="Pfad 2220" d="M143.837,11.651c-17.057-5.815-23.982,22.7-23.982,22.7a46.9,46.9,0,0,1-4.58-5.691c-1.156-1.849-1.841-5.1.491-10.267a35.18,35.18,0,0,1,3.536-5.974c.126-.179.258-.356.387-.533C124.238,5.774,130.95.614,137.189.052A12.274,12.274,0,0,1,138.624,0a10.364,10.364,0,0,1,5.521,1.727C151.9,6.846,144.055,11.728,143.837,11.651Z" fill="#1b2c48"/>
        <path id="Pfad_2221" data-name="Pfad 2221" d="M138.626.008c-2.3,7.293-13.786,17.2-22.86,18.389a35.246,35.246,0,0,1,3.536-5.974c.126-.179.258-.356.387-.533,7-2.148,14.26-7.089,17.5-11.834A12.315,12.315,0,0,1,138.626.008Z" fill="#2b4f86"/>
        <path id="Pfad_2222" data-name="Pfad 2222" d="M151.024,26.189c0,.279,0,.556-.012.835v.021a26.356,26.356,0,0,1-.656,5.151v.017a16.622,16.622,0,0,1-5.281,9.353,9.275,9.275,0,0,1-5.893,2.09c-6.016,0-9.8-5.014-11.215-11.464a27.548,27.548,0,0,1-.616-5.111c-.01-.3-.014-.594-.014-.891,0-9.051,5.3-15.581,11.845-15.581a9.867,9.867,0,0,1,5.4,1.63c3.115,2.02,5.431,5.787,6.182,10.55a21.413,21.413,0,0,1,.242,2.463v.074C151.019,25.612,151.024,25.9,151.024,26.189Z" fill="#fff3e7"/>
        <g id="Gruppe_1625" data-name="Gruppe 1625">
          <g id="Gruppe_1624" data-name="Gruppe 1624">
            <g id="Gruppe_1623" data-name="Gruppe 1623">
              <path id="Pfad_2223" data-name="Pfad 2223" d="M148.219,23.406l-6.143.545c-.279.025-.36-.137-.126-.255a9.041,9.041,0,0,1,6.554-.611C148.732,23.153,148.537,23.377,148.219,23.406Z" fill="#1b2b47"/>
            </g>
          </g>
        </g>
        <g id="Gruppe_1626" data-name="Gruppe 1626">
          <ellipse id="Ellipse_89" data-name="Ellipse 89" cx="134.428" cy="27.925" rx="1.473" ry="0.859" fill="#1b2b47"/>
        </g>
        <g id="Gruppe_1627" data-name="Gruppe 1627">
          <path id="Pfad_2224" data-name="Pfad 2224" d="M138.812,37.51a7.825,7.825,0,0,1-3.548-1.444.152.152,0,0,1-.03-.214v0l.012-.015a.187.187,0,0,1,.25-.011,7.216,7.216,0,0,0,6.823.944.188.188,0,0,1,.235.087.155.155,0,0,1-.072.207h0l-.016.008A7.213,7.213,0,0,1,138.812,37.51Z" fill="#d1aba8"/>
        </g>
        <g id="Gruppe_1630" data-name="Gruppe 1630">
          <g id="Gruppe_1629" data-name="Gruppe 1629">
            <g id="Gruppe_1628" data-name="Gruppe 1628">
              <path id="Pfad_2225" data-name="Pfad 2225" d="M130.32,23.3l5.24.4c.237.017.31-.135.108-.24a7.058,7.058,0,0,0-5.59-.451C129.888,23.082,130.053,23.287,130.32,23.3Z" fill="#1b2b47"/>
            </g>
          </g>
        </g>
        <g id="Gruppe_1631" data-name="Gruppe 1631">
          <path id="Pfad_2226" data-name="Pfad 2226" d="M127.934,32.192a2.666,2.666,0,0,1-.612.315c-1.166.441-3.092-.656-3.519-2.367s.216-3.345,1.42-3.642a2.541,2.541,0,0,1,2.1.583A27.467,27.467,0,0,0,127.934,32.192Z" fill="none" stroke="#1a1a1a" stroke-miterlimit="10" stroke-width="0.179"/>
          <path id="Pfad_2227" data-name="Pfad 2227" d="M124.6,28.26s1.511-.894,2.132.552c0,0-1.744,1.057-1.129,2.266" fill="none" stroke="#1a1a1a" stroke-miterlimit="10" stroke-width="0.179"/>
        </g>
        <g id="Gruppe_1633" data-name="Gruppe 1633">
          <path id="Pfad_2228" data-name="Pfad 2228" d="M154.451,30.139c-.425,1.711-2.355,2.805-3.519,2.367a2.712,2.712,0,0,1-.6-.311.186.186,0,0,0,.008-.041c.166-.719.3-1.456.4-2.205.029-.186.052-.372.073-.562.083-.706.139-1.424.164-2.146,0-.065.006-.132.009-.2a3.327,3.327,0,0,1,.3-.2h0a2.545,2.545,0,0,1,1.423-.39,1.612,1.612,0,0,1,.324.046C154.238,26.8,154.873,28.427,154.451,30.139Z" fill="#d1aba8"/>
          <g id="Gruppe_1632" data-name="Gruppe 1632">
            <path id="Pfad_2229" data-name="Pfad 2229" d="M152.648,31.179a.112.112,0,0,1-.047-.011.109.109,0,0,1-.045-.14c.563-1.1-1.073-2.116-1.09-2.127l-.076-.046.035-.083a1.368,1.368,0,0,1,.82-.824,2,2,0,0,1,1.46.223.108.108,0,0,1-.062.207h0a.11.11,0,0,1-.046-.028,1.823,1.823,0,0,0-1.3-.2,1.135,1.135,0,0,0-.657.628c.341.232,1.662,1.227,1.09,2.349A.108.108,0,0,1,152.648,31.179Z" fill="#9b7f7d"/>
          </g>
        </g>
        <path id="Pfad_2230" data-name="Pfad 2230" d="M116.227,31.779a29.588,29.588,0,0,1,1.1-5.57c6.815-3.692,13.38-12.9,14.15-19.085q.432-.172.863-.318l.013.065C133.688,14.5,124.947,30.533,116.227,31.779Z" fill="#2c3149"/>
        <path id="Pfad_2232" data-name="Pfad 2232" d="M144.223,16.229s-7.116-3.44-14.518,5.627c2.359-4.818,6.706-6.916,9.711-8.032,3.853-1.427,4.686,1.812,4.8,2.334Z" fill="#d1aba8"/>
        <path id="Pfad_2233" data-name="Pfad 2233" d="M151.025,26.189c0,.279,0,.556-.012.835v.02a26.356,26.356,0,0,1-.656,5.151v.017a16.622,16.622,0,0,1-5.281,9.353,19.326,19.326,0,0,0,4.7-15.054c-1.527-1.25-3.957-6.246-3.957-6.246l4.954,2.524a21.639,21.639,0,0,1,.242,2.463v.074C151.019,25.612,151.025,25.9,151.025,26.189Z" fill="#d1aba8"/>
        <path id="Pfad_2234" data-name="Pfad 2234" d="M144.146,15.65l.971-3.608c3.635,2.356,6.65,8.433,6.894,14.35C146.193,24.106,144.146,15.65,144.146,15.65Z" fill="#1b2c48"/>
        <path id="Pfad_2235" data-name="Pfad 2235" d="M141.11,32.44A2.877,2.877,0,0,1,139.9,33.6c-.677.3-1.322.031-1.68-.836l.69-.3c.167.406.35.481.662.344a2.188,2.188,0,0,0,.885-.863Z" fill="#d1aba8"/>
        <g id="Gruppe_1634" data-name="Gruppe 1634">
          <ellipse id="Ellipse_90" data-name="Ellipse 90" cx="144.537" cy="27.925" rx="1.473" ry="0.859" fill="#1b2b47"/>
        </g>
        <g id="Gruppe_1635" data-name="Gruppe 1635">
          <ellipse id="Ellipse_91" data-name="Ellipse 91" cx="133.967" cy="27.457" rx="1.931" ry="0.536" fill="#1b2b47"/>
        </g>
        <g id="Gruppe_1636" data-name="Gruppe 1636">
          <ellipse id="Ellipse_92" data-name="Ellipse 92" cx="144.995" cy="27.457" rx="1.931" ry="0.536" fill="#1b2b47"/>
        </g>
        <g id="Gruppe_1641" data-name="Gruppe 1641">
          <path id="Pfad_2236" data-name="Pfad 2236" d="M152.893,56.077s-2.222,6.246-11.938,7.218" fill="none" stroke="#1a1a1a" stroke-linecap="round" stroke-miterlimit="10" stroke-width="0.179"/>
          <g id="Gruppe_1638" data-name="Gruppe 1638">
            <g id="Gruppe_1637" data-name="Gruppe 1637">
              <path id="Pfad_2237" data-name="Pfad 2237" d="M140.019,64.612c-3.884,0-9.319-10.655-9.55-11.114a.162.162,0,0,1,.082-.213h.009a.191.191,0,0,1,.243.082c.055.108,5.565,10.918,9.212,10.918h.054c3.561-.108,9.337-10.358,9.4-10.466a.19.19,0,0,1,.246-.072.158.158,0,0,1,.089.2h0l-.009.017c-.24.432-5.934,10.531-9.711,10.643Z" fill="#1b2b47"/>
            </g>
          </g>
          <g id="Gruppe_1640" data-name="Gruppe 1640">
            <g id="Gruppe_1639" data-name="Gruppe 1639">
              <path id="Pfad_2238" data-name="Pfad 2238" d="M139.733,61.75a3.962,3.962,0,0,1-.92-.108c-3.814-.892-7.723-7.03-7.888-7.291a.159.159,0,0,1,.053-.218l.016-.009a.194.194,0,0,1,.249.062c.04.063,3.992,6.276,7.661,7.134,3.629.85,8.687-4.473,8.74-4.532a.2.2,0,0,1,.258-.019.155.155,0,0,1,.037.216h0l-.015.017C147.721,57.222,143.416,61.75,139.733,61.75Z" fill="#172b42"/>
            </g>
          </g>
          <path id="Pfad_2239" data-name="Pfad 2239" d="M140.577,64.447a.961.961,0,1,1-.931-.721A.847.847,0,0,1,140.577,64.447Z" fill="#fff"/>
          <path id="Pfad_2240" data-name="Pfad 2240" d="M143.141,63.37a.607.607,0,1,1-.607-.622A.615.615,0,0,1,143.141,63.37Z" fill="#fff"/>
          <path id="Pfad_2241" data-name="Pfad 2241" d="M143.753,60.422a.607.607,0,1,1-.607-.623.615.615,0,0,1,.607.623Z" fill="#fff"/>
          <path id="Pfad_2242" data-name="Pfad 2242" d="M137.151,62.124a.607.607,0,1,1-.608-.623.615.615,0,0,1,.608.622Z" fill="#fff"/>
        </g>
        <g id="Gruppe_1642" data-name="Gruppe 1642">
          <path id="Pfad_2245" data-name="Pfad 2245" d="M142.748,63.6c-.077,5.736-13.72,3.643-13.72,3.643l.883,1.144a.849.849,0,0,1-.837,1.351c-2.938-.6-8.052-2.812-8.572-10.944-.62-9.692,5.892-9.768-1.475-17.132A7.141,7.141,0,0,1,117,38.39c-.519-1.81-.18-3.629.082-3.651.344-.029.825,3.031,1,3,.063-.011.05-.421,0-1,1.255,1.214,2.275,2.25,3,3a82.3,82.3,0,0,1,7,8c.168.236.748,1.045,1.572,2.154.364.49.815,1.08,1.428,1.846l4,5q2.967.858,2.97.845a.117.117,0,0,0-.031-.012C140.18,58.449,142.8,60.214,142.748,63.6Z" fill="#1b2c48"/>
          <path id="Pfad_2243" data-name="Pfad 2243" d="M144.222,16.228l-.012-.071c-.108-.522-.942-3.76-4.8-2.334-3,1.116-7.352,3.214-9.711,8.032a17.406,17.406,0,0,0-1.66,7.04c-.371,9.346,5.644,6.474,4.084,16.712-1.073,7.033,3.05,8.949,5.55,9.3a.469.469,0,0,1,.1.9l-2.551.96a13.28,13.28,0,0,1,2.79.8,2.267,2.267,0,0,1,.851,2.923c-1.162,3.021-9.148,1.472-9.148,1.472l.905-1.051a.8.8,0,0,0-.477-1.308,9.106,9.106,0,0,1-5.467-2.99c-1.861-2.325,1.084-7.908.7-10.077s-2.871-4.344-7.054-7.367a5.829,5.829,0,0,1-2.039-3.389,17.831,17.831,0,0,1-.062-4.006c.677-7.624,5.367-16.309,7.993-19.5a18.541,18.541,0,0,1,8.114-5.467c3.339-1.139,6.906-1.237,9.716.432C147.552,10.491,144.222,16.228,144.222,16.228Z" fill="#2b4f86"/>
          <path id="Pfad_2244" data-name="Pfad 2244" d="M116.33,31.919a29.43,29.43,0,0,1,1.1-5.57c6.814-3.691,13.379-12.9,14.15-19.084.285-.114.572-.221.864-.324l.011.065C133.79,14.645,125.049,30.679,116.33,31.919Z" fill="#6880c0"/>
        </g>
        <g id="Gruppe_1651" data-name="Gruppe 1651">
          <g id="Gruppe_1644" data-name="Gruppe 1644">
            <path id="Pfad_2246" data-name="Pfad 2246" d="M63.669,102.7l.007.027a.362.362,0,0,1-.136.064l-.683.173.216.843-.181.046a.746.746,0,0,1-.9-.539l-.044-.176Z" fill="#efcec5"/>
            <g id="Gruppe_1643" data-name="Gruppe 1643">
              <path id="Pfad_2247" data-name="Pfad 2247" d="M57.488,81.629l4.99,19.819-.987.249L56.447,81.665A2.554,2.554,0,0,0,57.488,81.629Z" fill="#5e7fb0"/>
              <path id="Pfad_2248" data-name="Pfad 2248" d="M56.809,78.912l.684,2.717a2.572,2.572,0,0,1-1.041.036l-.1-.386L56.4,79l.223-.045C56.7,78.939,56.749,78.927,56.809,78.912Z" fill="#fdf2ec"/>
              <path id="Pfad_2249" data-name="Pfad 2249" d="M56.441,77.446l.369,1.465-.18.042c-.074.016-.148.031-.223.045Z" fill="#343a56"/>
              <path id="Pfad_2250" data-name="Pfad 2250" d="M58.368,81.229,63.4,101.216l-.917.231-4.99-19.819h.018A2.525,2.525,0,0,0,58.368,81.229Z" fill="#263f66"/>
              <path id="Pfad_2251" data-name="Pfad 2251" d="M58.259,80.8l.108.432a2.535,2.535,0,0,1-.857.4h-.018l-.684-2.717.108-.026c.108-.026.2-.053.3-.082Z" fill="#cea9a6"/>
              <path id="Pfad_2252" data-name="Pfad 2252" d="M57.219,78.8c-.1.029-.2.056-.3.082-.036.01-.072.018-.108.026l-.369-1.465v-.13Z" fill="#09060f"/>
            </g>
            <path id="Pfad_2253" data-name="Pfad 2253" d="M63.669,102.7l.007.027a.362.362,0,0,1-.136.064l-1.422.358a.413.413,0,0,1-.5-.3l-.236-.942a.406.406,0,0,1,.294-.493h0l.739-.187.422,1.676Z" fill="#2c3149"/>
            <path id="Pfad_2254" data-name="Pfad 2254" d="M63.676,102.724l.038.148a.746.746,0,0,1-.539.905l-.108.026-.216-.843.684-.173A.382.382,0,0,0,63.676,102.724Z" fill="#e2beb5"/>
            <path id="Pfad_2255" data-name="Pfad 2255" d="M63.105,101.059l-.684.172.422,1.676.014.055.683-.173a.362.362,0,0,0,.136-.064.4.4,0,0,0,.16-.432l-.237-.942A.407.407,0,0,0,63.105,101.059Z" fill="#191e30"/>
          </g>
          <g id="Gruppe_1646" data-name="Gruppe 1646">
            <path id="Pfad_2256" data-name="Pfad 2256" d="M62.864,104.405l.01.027a.382.382,0,0,1-.13.074l-.668.226.278.824-.177.059a.744.744,0,0,1-.944-.467h0l-.058-.171Z" fill="#efcec5"/>
            <g id="Gruppe_1645" data-name="Gruppe 1645">
              <path id="Pfad_2257" data-name="Pfad 2257" d="M55.04,83.89l6.542,19.361-.965.324-6.612-19.57A2.522,2.522,0,0,0,55.04,83.89Z" fill="#5e7fb0"/>
              <path id="Pfad_2258" data-name="Pfad 2258" d="M54.143,81.236l.9,2.654a2.556,2.556,0,0,1-1.035.118l-.127-.377-.13-2.277c.073-.019.146-.041.216-.063Z" fill="#fdf2ec"/>
              <path id="Pfad_2259" data-name="Pfad 2259" d="M53.659,79.8l.484,1.432c-.059.02-.119.039-.177.056l-.215.063Z" fill="#343a56"/>
              <path id="Pfad_2260" data-name="Pfad 2260" d="M55.88,83.422l6.6,19.53-.9.3L55.038,83.891l.017-.006A2.517,2.517,0,0,0,55.88,83.422Z" fill="#263f66"/>
              <path id="Pfad_2261" data-name="Pfad 2261" d="M55.738,83l.142.42a2.534,2.534,0,0,1-.823.462l-.017.006-.9-2.654.108-.035q.15-.049.3-.108Z" fill="#cea9a6"/>
              <path id="Pfad_2262" data-name="Pfad 2262" d="M54.544,81.1l-.3.108-.108.035-.485-1.432-.007-.129Z" fill="#09060f"/>
            </g>
            <path id="Pfad_2263" data-name="Pfad 2263" d="M62.864,104.405l.01.027a.382.382,0,0,1-.13.074l-1.39.469a.386.386,0,0,1-.172.019.4.4,0,0,1-.343-.274l-.311-.921a.407.407,0,0,1,.254-.515h0l.723-.244.553,1.636Z" fill="#2c3149"/>
            <path id="Pfad_2264" data-name="Pfad 2264" d="M62.873,104.43l.048.145a.745.745,0,0,1-.467.945l-.1.034-.278-.824.668-.225A.364.364,0,0,0,62.873,104.43Z" fill="#e2beb5"/>
            <path id="Pfad_2265" data-name="Pfad 2265" d="M62.171,102.813l-.668.227.553,1.636.018.054.668-.226a.386.386,0,0,0,.131-.074.4.4,0,0,0,.124-.44l-.311-.92a.405.405,0,0,0-.513-.257Z" fill="#191e30"/>
          </g>
          <g id="Gruppe_1648" data-name="Gruppe 1648">
            <path id="Pfad_2266" data-name="Pfad 2266" d="M57.874,105.666l-.013.025a.381.381,0,0,1-.142-.049l-.614-.346-.432.755-.163-.093a.745.745,0,0,1-.283-1.014h0l.089-.157Z" fill="#efcec5"/>
            <g id="Gruppe_1647" data-name="Gruppe 1647">
              <path id="Pfad_2267" data-name="Pfad 2267" d="M67.932,86.152,57.877,103.943l-.887-.5L67.153,85.459A2.571,2.571,0,0,0,67.932,86.152Z" fill="#5e7fb0"/>
              <path id="Pfad_2268" data-name="Pfad 2268" d="M69.31,83.712l-1.378,2.44a2.571,2.571,0,0,1-.779-.693l.2-.346,1.609-1.619.192.121Z" fill="#fdf2ec"/>
              <path id="Pfad_2269" data-name="Pfad 2269" d="M70.054,82.394l-.745,1.316-.159-.094-.192-.121Z" fill="#343a56"/>
              <path id="Pfad_2270" data-name="Pfad 2270" d="M68.842,86.469,58.7,104.414l-.824-.466L67.932,86.157l.016.009A2.54,2.54,0,0,0,68.842,86.469Z" fill="#263f66"/>
              <path id="Pfad_2271" data-name="Pfad 2271" d="M69.059,86.078l-.216.386a2.55,2.55,0,0,1-.893-.3l-.016-.009,1.378-2.44.095.055c.093.052.184.1.277.149Z" fill="#cea9a6"/>
              <path id="Pfad_2272" data-name="Pfad 2272" d="M69.681,83.916c-.093-.047-.184-.1-.277-.149l-.095-.055.745-1.316.091-.091Z" fill="#09060f"/>
            </g>
            <path id="Pfad_2273" data-name="Pfad 2273" d="M57.874,105.666l-.013.025a.386.386,0,0,1-.143-.049l-1.277-.722a.362.362,0,0,1-.128-.115.4.4,0,0,1-.025-.438l.478-.846a.406.406,0,0,1,.553-.153l.664.374-.85,1.5Z" fill="#2c3149"/>
            <path id="Pfad_2274" data-name="Pfad 2274" d="M57.86,105.691l-.076.133a.745.745,0,0,1-1.013.284h0l-.093-.052.432-.755.614.346A.4.4,0,0,0,57.86,105.691Z" fill="#e2beb5"/>
            <path id="Pfad_2275" data-name="Pfad 2275" d="M58.6,104.089l-.614-.347-.85,1.5-.028.05.614.346a.406.406,0,0,0,.553-.153l.478-.846A.406.406,0,0,0,58.6,104.089Z" fill="#191e30"/>
          </g>
          <g id="Gruppe_1650" data-name="Gruppe 1650">
            <path id="Pfad_2276" data-name="Pfad 2276" d="M62.037,81.078v-.029a.427.427,0,0,1,.151-.011l.7.081.1-.863.186.022a.747.747,0,0,1,.654.827l-.022.179Z" fill="#fad7cd"/>
            <g id="Gruppe_1649" data-name="Gruppe 1649">
              <path id="Pfad_2277" data-name="Pfad 2277" d="M60.345,102.966l2.36-20.3,1.011.118L61.332,103.3A2.547,2.547,0,0,0,60.345,102.966Z" fill="#5e7fb0"/>
              <path id="Pfad_2278" data-name="Pfad 2278" d="M60.021,105.749l.324-2.783a2.548,2.548,0,0,1,.986.337l-.046.395-.856,2.113-.223-.037Z" fill="#fdefe7"/>
              <path id="Pfad_2279" data-name="Pfad 2279" d="M59.848,107.249l.174-1.5.184.025.223.036Z" fill="#2c3149"/>
              <path id="Pfad_2280" data-name="Pfad 2280" d="M59.385,103.03l2.374-20.474.94.108-2.359,20.3h-.018A2.551,2.551,0,0,0,59.385,103.03Z" fill="#45618f"/>
              <path id="Pfad_2281" data-name="Pfad 2281" d="M59.334,103.472l.051-.441a2.541,2.541,0,0,1,.943-.066h.017l-.324,2.782-.108-.013c-.108-.012-.209-.023-.313-.03Z" fill="#f7ad83"/>
              <path id="Pfad_2282" data-name="Pfad 2282" d="M59.6,105.706c.108.008.208.018.313.03l.108.013-.174,1.5-.048.12Z" fill="#030205"/>
            </g>
            <path id="Pfad_2283" data-name="Pfad 2283" d="M62.037,81.078v-.029a.427.427,0,0,1,.151-.011l1.457.169a.383.383,0,0,1,.164.057.4.4,0,0,1,.192.394l-.108.965a.4.4,0,0,1-.439.357h-.01l-.754-.087.2-1.716Z" fill="#343a56"/>
            <path id="Pfad_2284" data-name="Pfad 2284" d="M62.04,81.049l.018-.151a.747.747,0,0,1,.827-.655h0l.108.013-.1.863-.7-.081A.416.416,0,0,0,62.04,81.049Z" fill="#fff4ee"/>
            <path id="Pfad_2285" data-name="Pfad 2285" d="M61.984,82.811l.7.081.2-1.716.006-.057-.7-.081a.409.409,0,0,0-.451.357l-.108.964A.407.407,0,0,0,61.984,82.811Z" fill="#1e243a"/>
          </g>
          <path id="Pfad_2286" data-name="Pfad 2286" d="M67.514,89.269l-1.655,15.063-.354,3.231H55.86L53.85,89.27Z" fill="#e7ecfa"/>
          <path id="Pfad_2287" data-name="Pfad 2287" d="M65.859,104.331l-.355,3.237H55.86L53.849,89.275h3.069C57.085,93.9,58.251,105.64,65.859,104.331Z" fill="#353b58" opacity="0.18" style="isolation: isolate"/>
        </g>
        <g id="Gruppe_1653" data-name="Gruppe 1653">
          <g id="Gruppe_1652" data-name="Gruppe 1652">
            <path id="Pfad_2288" data-name="Pfad 2288" d="M227.956,83.47l-.012.226h-2l.012-.226a2.616,2.616,0,0,0-2.465-2.759h1.851a2.618,2.618,0,0,1,2.618,2.616v0A1.373,1.373,0,0,1,227.956,83.47Z" fill="#324968"/>
            <path id="Pfad_2289" data-name="Pfad 2289" d="M225.961,83.47l-.012.226H211.535l-.012-.226a2.618,2.618,0,0,1,2.469-2.759h9.359a2.617,2.617,0,0,1,2.618,2.616v0C225.966,83.37,225.965,83.423,225.961,83.47Z" fill="#35588e"/>
            <path id="Pfad_2290" data-name="Pfad 2290" d="M227.944,83.7l-.114,2-.194,3.388-.78,13.756-.189,3.307a.932.932,0,0,1-.932.879H213.743a.935.935,0,0,1-.933-.879l-.041-.714h10.974a.931.931,0,0,0,.93-.883l.188-3.3.781-13.756.194-3.388.024-.4Z" fill="#627fa5"/>
            <path id="Pfad_2291" data-name="Pfad 2291" d="M225.86,83.7l-.024.4-.194,3.388-.781,13.756-.188,3.3a.932.932,0,0,1-.93.883H212.769l-.147-2.59-.781-13.756-.194-3.388-.108-2Z" fill="#fffdfa"/>
            <path id="Pfad_2292" data-name="Pfad 2292" d="M227.636,89.083l-.78,13.756h-2.084l.09-1.594.69-12.162Z" fill="#4c6c9e"/>
            <path id="Pfad_2293" data-name="Pfad 2293" d="M225.552,89.083l-.69,12.162-.09,1.594H212.623l-.78-13.756Z" fill="#c0cbe7"/>
            <path id="Pfad_2294" data-name="Pfad 2294" d="M229.91,84.4a1,1,0,0,1-1,1H210.972a1,1,0,0,1,0-2h17.943A1,1,0,0,1,229.91,84.4Z" fill="#3e67a6"/>
            <circle id="Ellipse_93" data-name="Ellipse 93" cx="219.64" cy="95.462" r="3.589" fill="#fefffd"/>
          </g>
          <path id="Pfad_2295" data-name="Pfad 2295" d="M220.727,79.195a6.054,6.054,0,0,1-4.531-6.1c0-5.1,7.087-2.552,6.1-10.915a7.522,7.522,0,0,1-1.559,8.93C216.477,75.089,220.727,79.195,220.727,79.195Z" fill="#f7f7f7"/>
          <path id="Pfad_2296" data-name="Pfad 2296" d="M222.8,79.993a3.305,3.305,0,0,0,2.864-2.946c.572-2.834-3.121-2.105-1.707-6.654a4.785,4.785,0,0,0-.251,5.112A3.392,3.392,0,0,1,222.8,79.993Z" fill="#f7f7f7"/>
        </g>
        <g id="Gruppe_1673" data-name="Gruppe 1673">
          <g id="Gruppe_1671" data-name="Gruppe 1671">
            <g id="Gruppe_1655" data-name="Gruppe 1655">
              <g id="Gruppe_1654" data-name="Gruppe 1654">
                <path id="Pfad_2297" data-name="Pfad 2297" d="M25.01,102.988a.227.227,0,0,1-.225-.2c-.071-.582-.159-2.952-.267-5.952-.231-6.3-.578-15.812-1.121-17.875a37.8,37.8,0,0,1-.623-4.532C22.3,69.918,21.587,63.1,19.232,58.573c-2.721-5.24-8.256-8.142-11.231-9.7-.714-.375-1.278-.67-1.679-.926a18.6,18.6,0,0,1-3.387-2.7.216.216,0,0,1,.008-.3l.009-.007a.232.232,0,0,1,.324.016,18.661,18.661,0,0,0,3.3,2.628c.383.245.971.551,1.644.906,3.021,1.582,8.632,4.532,11.422,9.892,2.389,4.6,3.112,11.466,3.59,16.01a37.47,37.47,0,0,0,.611,4.462c.555,2.111.9,11.653,1.135,17.969.108,2.99.2,5.352.264,5.915a.223.223,0,0,1-.194.246h0Z" fill="#6880c0"/>
              </g>
            </g>
            <g id="Gruppe_1657" data-name="Gruppe 1657">
              <g id="Gruppe_1656" data-name="Gruppe 1656">
                <path id="Pfad_2298" data-name="Pfad 2298" d="M26.219,102.272A.226.226,0,0,1,26,102.1a156.556,156.556,0,0,0-6.759-21.466C15.453,71.092,12.849,69.96,8.125,67.907c-.962-.418-2.05-.891-3.246-1.477A24.248,24.248,0,0,1,.07,63.072a.216.216,0,0,1-.018-.3l.007-.009a.232.232,0,0,1,.324-.011,24.235,24.235,0,0,0,4.7,3.285c1.187.582,2.266,1.053,3.227,1.469,4.837,2.1,7.5,3.26,11.354,12.969a157.226,157.226,0,0,1,6.78,21.534.223.223,0,0,1-.174.263h0A.209.209,0,0,1,26.219,102.272Z" fill="#6880c0"/>
              </g>
            </g>
            <g id="Gruppe_1658" data-name="Gruppe 1658">
              <path id="Pfad_2299" data-name="Pfad 2299" d="M16.8,88.052a10.878,10.878,0,0,0,4.329,2.358s.99-2-1.541-3.571C19.58,86.838,18.263,85.874,16.8,88.052Z" fill="#2b4f86"/>
            </g>
            <g id="Gruppe_1660" data-name="Gruppe 1660">
              <g id="Gruppe_1659" data-name="Gruppe 1659">
                <path id="Pfad_2300" data-name="Pfad 2300" d="M26.089,74.363a12.606,12.606,0,0,1-5.4-6.282,1.857,1.857,0,0,1,.269-1.7l2.205-3.031a.982.982,0,0,1,1.374-.2h0l3.509,2.639L25.411,61.7a2.5,2.5,0,0,1,.17-2.941l4.225-5.16,7.435,3.9s-.293,6.38-2.641,8.856a15.027,15.027,0,0,0-2.935,3.9S26.676,72.073,26.089,74.363Z" fill="#6880c0"/>
              </g>
            </g>
            <g id="Gruppe_1662" data-name="Gruppe 1662">
              <g id="Gruppe_1661" data-name="Gruppe 1661">
                <path id="Pfad_2301" data-name="Pfad 2301" d="M34.8,82.933s1.174-3.047.1-4.952.587-3.619,2.935-4.667,1.859-2.1,4.012-2.19,3.522-1.048,6.458-1.9,13.4.667,13.4.667-6.457.476-8.512,2.666-3.228,3.047-5.179,2.19-2.643.095-3.425,1.048-2.446,2.857-4.012,3.237A9.455,9.455,0,0,0,34.8,82.933Z" fill="#e7ecfa"/>
              </g>
            </g>
            <g id="Gruppe_1664" data-name="Gruppe 1664">
              <g id="Gruppe_1663" data-name="Gruppe 1663">
                <path id="Pfad_2302" data-name="Pfad 2302" d="M20.1,87.2s-1.566-1.048-2.837.952-2.446,2.1-3.913,1.905a2.946,2.946,0,0,1-3.129,1.9c-2.641,0-4.208,3.619-4.208,3.619a3.5,3.5,0,0,1-.2-3.429c.978-1.619-2.152-1.429-1.079-2.856s4.4-6.19,7.925-5.142,2.446,2,2.446,2S18.63,85.1,20.1,87.2Z" fill="#e7ecfa"/>
              </g>
            </g>
            <g id="Gruppe_1665" data-name="Gruppe 1665">
              <path id="Pfad_2303" data-name="Pfad 2303" d="M6.9,92.682H6.879a.223.223,0,0,1-.2-.241h0c.562-5.686,8.332-6.5,8.416-6.513a.225.225,0,0,1,.249.2v0a.222.222,0,0,1-.2.242h0c-.074.008-7.476.792-8,6.116A.224.224,0,0,1,6.9,92.682Z" fill="#2b4f86"/>
            </g>
            <g id="Gruppe_1666" data-name="Gruppe 1666">
              <path id="Pfad_2304" data-name="Pfad 2304" d="M22.151,103.986a.226.226,0,0,1-.222-.177c-1.568-7.562,1.175-22.7,3.677-29.4a94.993,94.993,0,0,1,6.328-12.963.233.233,0,0,1,.311-.081.215.215,0,0,1,.089.291h0l-.006.012a94.666,94.666,0,0,0-6.294,12.893c-2.482,6.651-5.213,21.676-3.66,29.163a.215.215,0,0,1-.161.258H22.2A.228.228,0,0,1,22.151,103.986Z" fill="#2b4f86"/>
            </g>
            <g id="Gruppe_1667" data-name="Gruppe 1667">
              <path id="Pfad_2305" data-name="Pfad 2305" d="M29.636,101.487a.224.224,0,0,1-.057-.008.214.214,0,0,1-.166-.254v-.017L33.6,85.638a21.655,21.655,0,0,1,8.524-11.977,22.5,22.5,0,0,1,14.37-3.95.223.223,0,0,1,.2.244v0h0a.226.226,0,0,1-.256.191,22,22,0,0,0-14.045,3.871,21.167,21.167,0,0,0-8.348,11.72l-4.185,15.582A.226.226,0,0,1,29.636,101.487Z" fill="#2b4f86"/>
            </g>
            <g id="Gruppe_1669" data-name="Gruppe 1669">
              <g id="Gruppe_1668" data-name="Gruppe 1668">
                <path id="Pfad_2306" data-name="Pfad 2306" d="M33.134,66.555s.2-4.855-2.544-8c-.547-.628-.993-1.172-1.355-1.64a3.337,3.337,0,0,1,.23-4.357,18.9,18.9,0,0,0,3.573-4.764,16.66,16.66,0,0,1,.7-1.55,1.677,1.677,0,0,1,2.273-.681h0l.023.012,2.975,1.645L37,43.921a2.088,2.088,0,0,1,.353-2.613,10.766,10.766,0,0,1,4.1-2.557,17.249,17.249,0,0,0,5.773-3.524s5.968-1.429,9.387,0c0,0-4.4,2.857-4.4,5.333s-2.252,4.095-1.567,5.9-3.327,1.238-3.129,2.762h0A1.337,1.337,0,0,1,46.336,50.7h0a1.081,1.081,0,0,1-.139.009,20.594,20.594,0,0,0-6.215,1.178s5.674-.381,7.827.762c0,0-3.033-.762-2.935,1.714s-.685,2.666-4.5,3.618S33.134,66.555,33.134,66.555Z" fill="#e7ecfa"/>
              </g>
            </g>
            <g id="Gruppe_1670" data-name="Gruppe 1670">
              <path id="Pfad_2307" data-name="Pfad 2307" d="M26.63,102.487h-.024a.222.222,0,0,1-.2-.24h0c0-.02.225-2.114.661-5.575.417-3.323,4.676-26.226,5.853-30.175,1.766-5.926,5.447-16.995,10.25-24.553,4.7-7.4,11.5-6.961,11.573-6.955a.221.221,0,1,1-.036.441h0c-.065,0-6.6-.411-11.15,6.747-4.774,7.513-8.44,18.539-10.2,24.443-1.174,3.938-5.422,26.789-5.839,30.1-.431,3.453-.657,5.546-.659,5.566A.226.226,0,0,1,26.63,102.487Z" fill="#2b4f86"/>
            </g>
          </g>
          <g id="Gruppe_1672" data-name="Gruppe 1672">
            <rect id="Rechteck_324" data-name="Rechteck 324" x="16.171" y="95.491" width="19.802" height="12.412" fill="#c1cff1"/>
            <path id="Pfad_2308" data-name="Pfad 2308" d="M35.972,105.344V107.9h-19.8V95.487H19.14C18.994,98.782,20.122,107.276,35.972,105.344Z" fill="#2c3149" opacity="0.27" style="isolation: isolate"/>
          </g>
        </g>
        <g id="Gruppe_1676" data-name="Gruppe 1676">
          <g id="Gruppe_1675" data-name="Gruppe 1675">
            <path id="Pfad_2309" data-name="Pfad 2309" d="M133.163,69.348l-.021-.016a.38.38,0,0,1,.062-.122l.39-.51-.629-.48.108-.136a.679.679,0,0,1,.952-.126h0l.13.1Z" fill="#1d213d"/>
            <g id="Gruppe_1674" data-name="Gruppe 1674">
              <path id="Pfad_2310" data-name="Pfad 2310" d="M149.5,80.871l-14.781-11.3.562-.737L150.22,80.26A2.336,2.336,0,0,0,149.5,80.871Z" fill="#1d213d"/>
              <path id="Pfad_2311" data-name="Pfad 2311" d="M151.523,82.42,149.5,80.871a2.334,2.334,0,0,1,.722-.615l.288.216,1.254,1.654-.133.159Z" fill="#404559"/>
              <path id="Pfad_2312" data-name="Pfad 2312" d="M152.616,83.257l-1.092-.836.107-.132.134-.159Z" fill="#1c203a"/>
              <path id="Pfad_2313" data-name="Pfad 2313" d="M149.094,81.655l-14.907-11.4.523-.684,14.782,11.3-.011.014A2.375,2.375,0,0,0,149.094,81.655Z" fill="#050829"/>
              <path id="Pfad_2314" data-name="Pfad 2314" d="M149.418,81.893l-.324-.245a2.361,2.361,0,0,1,.387-.767l.011-.014,2.026,1.549-.062.079c-.057.077-.115.153-.168.231Z" fill="#343a56"/>
              <path id="Pfad_2315" data-name="Pfad 2315" d="M151.292,82.731c.054-.078.108-.154.17-.231l.062-.079,1.093.836.071.094Z" fill="#040724"/>
            </g>
            <path id="Pfad_2316" data-name="Pfad 2316" d="M133.163,69.348l-.021-.016a.38.38,0,0,1,.062-.122l.811-1.061a.38.38,0,0,1,.121-.108.368.368,0,0,1,.4.033l.7.54a.37.37,0,0,1,.069.518l-.422.551-1.25-.955Z" fill="#404559"/>
            <path id="Pfad_2317" data-name="Pfad 2317" d="M133.142,69.331l-.108-.084a.679.679,0,0,1-.127-.952h0l.059-.077.629.48-.389.51A.353.353,0,0,0,133.142,69.331Z" fill="#040727"/>
            <path id="Pfad_2318" data-name="Pfad 2318" d="M134.5,70.2l.39-.51-1.25-.955L133.6,68.7l-.388.51a.35.35,0,0,0-.061.122.367.367,0,0,0,.129.4l.7.539a.372.372,0,0,0,.521-.074Z" fill="#343a56"/>
          </g>
          <path id="Pfad_2319" data-name="Pfad 2319" d="M149.383,80.043a.775.775,0,0,1-.194-.058l-.349-.162-.473-1.581a1.8,1.8,0,0,0-1.187-1.271l-3.752-1.219s-.531.114-1.133-1.088l4.627.555,2.266,2.153Z" fill="#d1aba8"/>
          <path id="Pfad_2320" data-name="Pfad 2320" d="M148.023,80.675a2.085,2.085,0,0,1-.181.863l-.613,1.4h0c-.145,0-.34-.087-.494-.47l-.05.054-.089-.193.16-.367a1.206,1.206,0,0,0-.585-1.57l-3.115-1.487s-.462-.117-.715-.856l4.4.922a1.581,1.581,0,0,1,1.178,1.06A2.1,2.1,0,0,1,148.023,80.675Z" fill="#d1aba8"/>
          <path id="Pfad_2321" data-name="Pfad 2321" d="M145.392,83.387a1.465,1.465,0,0,1-.324.023s-.018.023-.05.058l-.067-.2s.094-.371-1.132-.856a19.737,19.737,0,0,1-1.829-.81s-.254-.047-.624-.6l3.745,1.442a.621.621,0,0,1,.355.8A.588.588,0,0,1,145.392,83.387Z" fill="#c4a19e"/>
          <path id="Pfad_2322" data-name="Pfad 2322" d="M144.405,83.964a1.16,1.16,0,0,1-.4.138,24.567,24.567,0,0,1-3.377-.557l-2.292.719a8.934,8.934,0,0,1-4.893.135l-.3-.076a3.046,3.046,0,0,0-2.463.432l-17.945,12.21L111.669,95.3l18.636-11.472a4.027,4.027,0,0,1,3.082-.475,11.729,11.729,0,0,0,7.2-.593Z" fill="#c4a19e"/>
          <path id="Pfad_2323" data-name="Pfad 2323" d="M149.788,77.111v2.85a.585.585,0,0,1-.406.082l-.2-2.672-2.266-2.153-4.627-.555c.6,1.2,1.133,1.088,1.133,1.088l3.753,1.219a1.8,1.8,0,0,1,1.187,1.271l.287,1.141.54.6a1.25,1.25,0,0,1-.443-.371v.508a1.719,1.719,0,0,1-.231.863l-1.089,1.888a.378.378,0,0,1-.2.054l.614-1.4a2.115,2.115,0,0,0,.078-1.51,1.585,1.585,0,0,0-1.179-1.06l-4.4-.922c.254.739.715.856.715.856l3.115,1.487a1.205,1.205,0,0,1,.584,1.57l-.16.367.09.193-.332.358a1.66,1.66,0,0,1-.96.515.621.621,0,0,0-.139-.867.64.64,0,0,0-.141-.076l-3.745-1.441c.371.556.624.6.624.6a19.737,19.737,0,0,0,1.829.81c1.226.484,1.132.856,1.132.856l.067.2a2.415,2.415,0,0,1-.273.262,1.949,1.949,0,0,1-.341.235,1.153,1.153,0,0,1-.4.138,24.592,24.592,0,0,1-3.377-.557l-2.292.719a8.94,8.94,0,0,1-4.892.135l-1.63-.414-19.084,12.98-1.066-1.666-4.348-6.8,19.156-7.7,5.274-2.359,6.15-4.309a6.5,6.5,0,0,1,4.368-1.146l4.266.423a2.344,2.344,0,0,1,1.657.95l1.281,1.763A1.691,1.691,0,0,1,149.788,77.111Z" fill="#fff3e7"/>
        </g>
        <g id="Gruppe_1678" data-name="Gruppe 1678">
          <g id="Gruppe_1677" data-name="Gruppe 1677">
            <rect id="Rechteck_325" data-name="Rechteck 325" x="107.247" y="101.587" width="57.674" height="3.13" fill="#14283d"/>
            <path id="Rechteck_326" data-name="Rechteck 326" d="M105.173,104.717H166.99a1.951,1.951,0,0,1,1.951,1.949v1.18H103.222v-1.178A1.952,1.952,0,0,1,105.173,104.717Z" fill="#253d63"/>
            <path id="Pfad_2324" data-name="Pfad 2324" d="M178.5,99.808H93.465A5.272,5.272,0,0,1,89.1,97.476l-9.018-11.66c-.732-1.079.7-3.222,1.99-3.222H189.892c1.3,0,2.722,2.142,1.991,3.222l-9.018,11.66A5.277,5.277,0,0,1,178.5,99.808Z" fill="#14283d"/>
            <path id="Pfad_2325" data-name="Pfad 2325" d="M192.225,86.925l-.4.59-6.06,8.8-2.021,2.937a5.381,5.381,0,0,1-4.436,2.332H92.862a5.389,5.389,0,0,1-4.435-2.332L79.941,86.921a1.63,1.63,0,0,1,1.342-2.551h109.6a1.6,1.6,0,0,1,1.187.5A1.623,1.623,0,0,1,192.225,86.925Z" fill="#253d63"/>
            <path id="Pfad_2326" data-name="Pfad 2326" d="M151.713,84.375l-33.9,17.213H100.039l33.9-17.213Z" fill="#fff" opacity="0.09" style="isolation: isolate"/>
            <path id="Pfad_2327" data-name="Pfad 2327" d="M163.846,84.375l-33.9,17.213h-5.7l33.9-17.213Z" fill="#fff" opacity="0.09" style="isolation: isolate"/>
          </g>
        </g>
        <g id="Gruppe_1679" data-name="Gruppe 1679">
          <path id="Pfad_2328" data-name="Pfad 2328" d="M183.231,82.51s.385-1.669,3.38-1.541l-.385,1.583Z" fill="#d1aba8"/>
          <path id="Pfad_2329" data-name="Pfad 2329" d="M191.413,88.168l-6.958,10.109-2.027-.357-2.606-.462H179.8s.008-.013.012-.018c.724-1,2.447-1.167,3.856-1.119.282.008.549.026.8.048l-.729-.133-3.621-.66.01-.015h0a.072.072,0,0,1,.018-.025c.963-1.325,3.429-1.366,5.08-1.225q.8.069,1.6.216l.057-.082-1.541-.283-5.226-.952a1.422,1.422,0,0,1,.108-.144h0c1.351-1.669,4.855-1.474,6.643-1.247l-4.532-.83a2.6,2.6,0,0,1,.568-.588h0c1.511-1.14,4.339-1.019,5.989-.829.77.09,1.284.194,1.284.194l.635-.933.551-.817Z" fill="#0d1927"/>
          <path id="Pfad_2330" data-name="Pfad 2330" d="M186.329,98l-6-1.061h-.023s.008-.013.013-.017c1.322-1.815,5.968-.891,5.968-.891l.417-.6.486-.7.5,1.645A1.2,1.2,0,0,1,186.33,98Z" fill="#fff3e7"/>
          <path id="Pfad_2331" data-name="Pfad 2331" d="M186.8,95.927a.692.692,0,0,1-.55.81.7.7,0,0,1-.292-.008c-4.507-1.071-5.523.072-5.629.216l-.013.015v-.038c1.322-1.815,5.968-.891,5.968-.891l.417-.6Z" fill="#d1aba8"/>
          <path id="Pfad_2332" data-name="Pfad 2332" d="M187.373,96.29l-6.753-1.232.01-.015h0a.09.09,0,0,1,.017-.026c1.5-2.066,6.677-1.007,6.677-1.007l.406-.6.608-.9.555,1.9a1.378,1.378,0,0,1-1.524,1.874Z" fill="#fff0e2"/>
          <path id="Pfad_2333" data-name="Pfad 2333" d="M187.857,94.022a.689.689,0,0,1-.842.8c-4.957-1.2-6.182-.022-6.36.193,1.5-2.066,6.677-1.007,6.677-1.007l.406-.6Z" fill="#d1aba8"/>
          <path id="Pfad_2334" data-name="Pfad 2334" d="M188.516,94.129l-7.893-1.441a1.374,1.374,0,0,1,.108-.143l0,0c1.848-2.282,7.729-1.079,7.729-1.079l.5-.737.685-1.011.647,2.223a1.609,1.609,0,0,1-1.782,2.194Z" fill="#fff3e7"/>
          <path id="Pfad_2335" data-name="Pfad 2335" d="M188.232,92.213c-5.611-1.013-7.172.026-7.5.324,1.848-2.282,7.729-1.079,7.729-1.079l.5-.737.144.54a.761.761,0,0,1-.527.939.753.753,0,0,1-.35.014Z" fill="#d1aba8"/>
          <path id="Pfad_2336" data-name="Pfad 2336" d="M180.633,95.042h0l0,.008Z" fill="#ec685a"/>
          <path id="Pfad_2337" data-name="Pfad 2337" d="M190.743,91.908l-7.893-1.443a2.569,2.569,0,0,1,.567-.587h0c2.21-1.67,7.272-.634,7.272-.634l.635-.934.551-.817.647,2.223a1.618,1.618,0,0,1-1.785,2.191Z" fill="#fff3e7"/>
          <path id="Pfad_2338" data-name="Pfad 2338" d="M190.3,89.726c-4.357-.755-6.18-.233-6.884.149,2.21-1.67,7.272-.633,7.272-.633l.633-.934.062.236a.951.951,0,0,1-1.083,1.183Z" fill="#d1aba8"/>
        </g>
      </g>
    </g>
  </g>
</svg>
