<svg xmlns="http://www.w3.org/2000/svg" viewBox="0 0 233.376 128.748">
  <title>A_praxis_5</title>
  <g id="Ebene_2" data-name="Ebene 2">
    <g id="Ebene_1-2" data-name="Ebene 1">
      <g>
        <path d="M2.171,88.688h.311v2.938h-.3a.172.172,0,0,0-.171.171v.611a.171.171,0,0,0,.171.171h8.5c-.509.446-.432,1.648-.143,2.3H5.7a.414.414,0,0,0-.414.414v5.1a.413.413,0,0,0,.418.41H7.136c-.594.441-.606,5.073-.076,5.685a37.168,37.168,0,0,0,5.005.126c.645,0,1.333,0,2.062,0h2.066c2.688-.01,5.722-.019,8.727-.01,3.993.012,7.948.072,10.953.109-3.115,0-6.9.025-10.639.033-8.072.014-15.887-.055-16.2.111-.643.339-.526,4.606,0,4.9a4.528,4.528,0,0,0,.826.046.412.412,0,0,0-.129.3v4.1a.405.405,0,0,0,.052.187c-2.622,0-4.371.021-4.516.066-.643.205-.525,2.775,0,2.951.055.019.492.027,1.2.03v.352a.171.171,0,0,0,.171.171h.3v3.924h-.3a.172.172,0,0,0-.171.171v.611a.171.171,0,0,0,.171.171H9.013a2.063,2.063,0,0,0-.327,1.094H43.373a1.959,1.959,0,0,0-.352-1.094h1.441a.414.414,0,0,0,.414-.414v-5.1a.414.414,0,0,0-.418-.41H39.614c.289-.652.37-1.853-.133-2.3h8.492a.171.171,0,0,0,.171-.171v-.611a.172.172,0,0,0-.171-.171h-.3v-2.939h.311a.171.171,0,0,0,.171-.171v-.7a.172.172,0,0,0-.171-.171H42.244a3.557,3.557,0,0,0,.851-.072c.539-.519.877-4.314-.117-4.75a16.8,16.8,0,0,0-2.575-.127,3.2,3.2,0,0,0,.717-.054c.521-.345.64-5.334.026-5.87h2.378a.171.171,0,0,0,.171-.171v-.611a.172.172,0,0,0-.171-.171h-.3V95.926h.3a.171.171,0,0,0,.171-.171v-.347c.706,0,1.142-.011,1.2-.03.526-.176.643-2.751,0-2.951-.144-.046-1.9-.062-4.52-.068a.4.4,0,0,0,.055-.194v-4.1a.414.414,0,0,0-.129-.3,4.544,4.544,0,0,0,.827-.046c.526-.294.642-4.561,0-4.9-.314-.164-8.129-.1-16.206-.111-8.475-.018-17.235-.11-17.744.113-.992.436-.656,4.231-.116,4.75a3.749,3.749,0,0,0,.9.074H2.171A.172.172,0,0,0,2,87.817v.7A.171.171,0,0,0,2.171,88.688Z" fill="#264677" fill-rule="evenodd"/>
        <path d="M186.836,121.133l-.958,2.232,0,.006a.6.6,0,0,0,.326.783c.038.016,1.861.759,4.436,1.776h3.281c-3.007-1.165-5.6-2.208-6.7-2.654l.644-1.5a25.376,25.376,0,0,0,22.482,1.693l.45,2.461h14.551l2.693-15.153H223.8A25.35,25.35,0,0,0,226.248,99.9h0a25.308,25.308,0,0,0-4.928-15.038c0-.078,0-.166,0-.242,1.48-.8,4.659-2.394,6.151-2.154a1.111,1.111,0,0,1,.075.263c.016-.073.033-.153.052-.241,1.859.425.573,1.375,2.3,1.792a6.068,6.068,0,0,1,3.474,2.947,8.638,8.638,0,0,0-3.715-4.749l-.015-.008a4.385,4.385,0,0,0-1.952-.546c.074-.4.146-.85.184-1.266a10.326,10.326,0,0,1,1.587-.59c2.326-.64,3.638,1.591,3.719,1.734-.084-.148-1.626-2.809-4.019-2.575a9.5,9.5,0,0,0-1.372.224c-.323-.672-1.286-.828-1.914-1.5,1.148-2.011,2-4.4,1.844-5.93-.24-2.4-1.441-1.261-1.441-1.261l-2.762,2.943a9.747,9.747,0,0,1,6.727-6.547,6.224,6.224,0,0,0-4.477,1,3.079,3.079,0,0,0-1.529-3.823,3.755,3.755,0,0,0-3.582.167l-.31-1.545a3.789,3.789,0,0,0,1.969-.9c1.982-1.682,1.563-3.124,1.563-3.124l-.761.349c.894-1.171,2.79-4.15,2.742-5.873-.059-2.162,2.883-3.484,2.883-3.484-1.329.134-2.2,1-3.189,2.108a6.307,6.307,0,0,0,.187-1.027s-3.063-.841-4.323.961c-.176.25-.341.48-.5.7a7.538,7.538,0,0,0-.762-3.521,11.8,11.8,0,0,1-1.566,2.939,12.475,12.475,0,0,0-1.519,4.614c-.25.031-.5.08-.7.125.148-1.385.215-2.5.415-3.417.3-1.381,2.462-2.4,2.582-3.844a5.172,5.172,0,0,1,1.081-2.582,8.693,8.693,0,0,0-3,1.741,10.758,10.758,0,0,0-1.464,3.419,11.049,11.049,0,0,0-.7-2.759,3.764,3.764,0,0,0-.688,1.766,34.8,34.8,0,0,0-2.314-4.468s-.173,2.174-.138,4.32l-1.655-2.515.481,2.341-1.562-1.021a22.653,22.653,0,0,0,2.171,7.5c-.713-.945-1.452-1.874-2.05-2.513-1.741-1.862-3.363-4.084-5.1-4.5a9.507,9.507,0,0,1-2.943-1.261s-.48,1.081,1.382,1.982c.1.05.206.1.311.162a4.546,4.546,0,0,0-2.173.559s1.863.18,3.964,2.583c1.535,1.754,2.4,2.1,3.2,2.251.036.07.072.139.107.211a4.379,4.379,0,0,0,.243.434,12.138,12.138,0,0,1-3.426.046c-1.322-.3-3.363,1.561-3.363,1.561a4.8,4.8,0,0,1,2.282-.6c1.142.06,1.081-.78,2.343-.48a12.982,12.982,0,0,1,3.86,1.676c.449.6.966,1.214,1.493,1.8-.895-.445-3.492-1.916-3.492-1.916s-2.4.18-2.823.241-4.323,5.224-4.323,5.224,1.442-1.141,2.7-1.922.721-2.582,1.8-2.823a6.873,6.873,0,0,1,3.424.541,7.391,7.391,0,0,1,1.644,1.008.424.424,0,0,0-.192.069,4.183,4.183,0,0,0-3.975,2.647c-1.081,3-.24,4.325-.24,4.325s-.961-2.4,2.1-3.9a6.3,6.3,0,0,0,2.434-1.856,21.281,21.281,0,0,0,2.3,2.474,2.213,2.213,0,0,1-.712-.2v.182l-3-.242s-.18.6,1.381,1.021l-.24.781-3.242.18a4.851,4.851,0,0,0,2.462,1.021s-2.162,2.041-2.1,3.3l3.543-2.582s1.073.257,1.731.337c.025.068.05.136.076.2-.5.448-1.5,1.762.055,4.265a12.212,12.212,0,0,1,.685-3.089.931.931,0,0,0,.1.085l.07-.318a.5.5,0,0,1,.05-.041c.6-.421-.06,3.062.421,4.143l-1.982-.9s0,2.642,1.5,3.9c.8.671,1.871,1.682,2.7,2.482-.05,0-.1-.016-.146-.02a25.322,25.322,0,0,0-8.685-4.395l1.222-2.851a.6.6,0,0,0-1.1-.472l-1.3,3.022a25.422,25.422,0,0,0-19.726,46Zm13.988,3.337a24.459,24.459,0,0,1-12.622-3.488l1.084-2.527a21.76,21.76,0,0,0,20.347,1.122l.556,3.041A24.5,24.5,0,0,1,200.824,124.47Zm22.365-34.7v.006A24.462,24.462,0,0,1,225.4,99.9c0,.34-.012.677-.026,1.014l-.031-.014.031.014a24.41,24.41,0,0,1-2.513,9.864h-3.079c-.011-.209-.023-.464-.038-.762a21.576,21.576,0,0,0,1.5-3.573,10.767,10.767,0,0,1,.034,2.473,10.329,10.329,0,0,0,.619-5.079,21.971,21.971,0,0,0,.316-2.482c.513-.282,1-.56,1.229-.711.47-.313,1.526.1,1.9.256a14.189,14.189,0,0,0-1.96-.766,2.778,2.778,0,0,0-1.122.342c.006-.216.016-.431.016-.649a21.86,21.86,0,0,0-.165-2.637,15.167,15.167,0,0,0,1.084-7.411l0-.006a11.916,11.916,0,0,1-1.834,3.8,21.686,21.686,0,0,0-1.061-2.806,10.59,10.59,0,0,0,.962-3.479c.013-.329.022-.644.031-.961A24.646,24.646,0,0,1,223.189,89.772Zm3.413-8.426a7.428,7.428,0,0,1,.537.6,13.059,13.059,0,0,0-5.7,2.02h0c.183-.341.406-.722.663-1.117a16.3,16.3,0,0,0,1.734-.232A10.49,10.49,0,0,0,226.6,81.346Zm-2.827-.541A9.9,9.9,0,0,0,225,79.362c.063.128.13.268.212.421v0a3.262,3.262,0,0,0,.493.645c-.26.162-.532.329-.854.5a15.094,15.094,0,0,1-1.966.834A10.108,10.108,0,0,1,223.775,80.805Zm-.6-9.968v0a3.7,3.7,0,0,1-.842-1.8l1.489.924C223.6,70.229,223.386,70.518,223.175,70.837Zm.364-4.318,0-.005a6.487,6.487,0,0,1,1.878,1.917A8.426,8.426,0,0,0,224.2,69.52c-.068.074-.137.153-.2.232-.2-.646-.879-1.949-3.163-2.217-.073-.009-.141-.018-.206-.028-.164-.322-.274-.513-.274-.513a1.623,1.623,0,0,0-.394.325C218.876,66.75,222.191,65.581,223.539,66.519ZM220.9,55.17c.18-1.741.719-1.5,2.341-1.682h0a6.772,6.772,0,0,0,1.225-.206,13.911,13.911,0,0,1-1.825,1.648,9.071,9.071,0,0,0-2.788,2.892,2.4,2.4,0,0,0-.356-.579A2.6,2.6,0,0,0,220.9,55.17ZM219.159,64.3l1.075.478a9.042,9.042,0,0,0-1.794,1.444h0ZM217.3,84.733l.115.1a4.554,4.554,0,0,0,.6,2.032c.012.026.019.053.031.078a21.805,21.805,0,0,0-2.054-2.4C216.471,84.611,216.927,84.679,217.3,84.733Zm-3.367-3.518a10.3,10.3,0,0,0,1.216,1.492c0,.168,0,.342-.006.525-.166.019-.332.032-.5.059a21.761,21.761,0,0,0-3.172-2.255,3.9,3.9,0,0,1,.657-.182c.646-.115,1.143-.213,1.533-.292A2.472,2.472,0,0,0,213.931,81.215Zm-6.538-4.979a24.45,24.45,0,0,1,5.4,2.225,4.371,4.371,0,0,0-3.853,1.306,21.672,21.672,0,0,0-2.671-.918Zm-6.569-.908v0a24.77,24.77,0,0,1,5.394.607l-1.124,2.62a21.745,21.745,0,0,0-21.541,7.662c-.057.033-.108.074-.166.105a1.674,1.674,0,0,0-.323.283.177.177,0,0,0,0,.239,21.752,21.752,0,0,0,5.2,30.949l-1.087,2.535a24.571,24.571,0,0,1,13.645-45Z" fill="#264677" fill-rule="evenodd"/>
        <path d="M78.246,122.357c.26.178.494.324.494.324a22.155,22.155,0,0,0,4.313,1.9c.166.057.336.114.508.176,1.02.339,2.1.646,3.184.939-.007.027-.01.053-.017.08h56.647q-.523-5.945-1.555-11.826c1.169-.222,1.873-.447,1.974-.669.99-2.178.7-5.3-.207-10.1A90.482,90.482,0,0,1,142.2,91.962c.515.371,8.431,5.954,13,3.006,1.628-1.05,2.419-3.372,4-8.016a28.764,28.764,0,0,0,2-9.018c.1-3.227-.576-3.472-1-8.016-.5-5.358.3-6.558,0-11.023a36.372,36.372,0,0,0-2.35-10.539c.161-.252.324-.516.485-.788A66.671,66.671,0,0,0,161.6,40.38c.476-1.2,2.189-4.043,1.663-4.676-.937-1.125-1.626.255-2.152,1.176-.409.59-.745,1.246-1.158,1.824.519-1.646,1.023-3.3,1.5-4.958.189-.658.7-1.735.184-2.38a1.849,1.849,0,0,0-.726-.5c.286-.811.573-1.462.065-1.99-.925-.96-1.906.225-2.333,1.022-.572,1.067-1.083,2.169-1.638,3.246-.316.615-1.982,3.817-1.982,3.817q.27-1.383.6-2.752c.163-.7.342-1.384.547-2.067.25-.835,1.371-2.767-.023-3.224-.954-.313-2,2.036-2.31,2.725a67.375,67.375,0,0,0-2.428,6.341,13.074,13.074,0,0,1-1.126,3.133,10.439,10.439,0,0,1-1.172-4.651c-.058-.562-.188-1.244-.821-1.427a.814.814,0,0,0-1.028.484,3.517,3.517,0,0,0-.042,1.441q.048,1.12.1,2.24c.062,1.442.081,2.894.206,4.333a7.782,7.782,0,0,0,2.711,5.427c-.042.682-.115,1.89-.21,3.448-.391.067-.78.143-1.172.2a.163.163,0,0,0-.071.028.186.186,0,0,0-.219.146l0,.021a10.95,10.95,0,0,0-.142,2.712,12.475,12.475,0,0,0,.237,1.328,2.886,2.886,0,0,1-.115,1.894,6.473,6.473,0,0,0-.907,2.051,5.746,5.746,0,0,0-.066.642,9.5,9.5,0,0,0,.066,1.518c.038.339.124.675.148,1.01.062,1.032-.053,1.271-.423,1.684a22.532,22.532,0,0,0-3.1-4.8c-.119-.149-.243-.291-.371-.434a7.467,7.467,0,0,1-1.79-3.941,11.686,11.686,0,0,0-.338-1.289c-.242-.8-.55-1.575-.859-2.355a4.859,4.859,0,0,0-2-2.257c-.18-.119-.366-.223-.546-.324-.148-.081-.3-.152-.443-.223a10.149,10.149,0,0,0-1.367-.537c-.062-.019-.119-.038-.176-.053-.394-.12-.641-.172-.641-.172v.007a14.461,14.461,0,0,0-2.1-.407l-.1.025a25.339,25.339,0,0,1-4.762-1.411c-.337-.138-.659-.276-.978-.424a22.675,22.675,0,0,1-4.643-2.746,6.718,6.718,0,0,0,.5-4.07c-.131-1.395,3.68-3.748,5.16-13.436a55.44,55.44,0,0,0,.657-6.583c.148-4.19.126-8.618-1.982-12.377a10.331,10.331,0,0,0-8.7-5.343,17.743,17.743,0,0,0-11.924.282,16.093,16.093,0,0,0-7.851,6.754,9.764,9.764,0,0,0-1.073,2.923,9.621,9.621,0,0,0-.583,2.3,21.073,21.073,0,0,1-.538,4.1,12.942,12.942,0,0,1-1.734,3.239c-1.2,1.738-2.628,3.427-3.215,5.5-.8,2.827.834,5.755-.914,8.378-1.277,1.914-3.226,3.533-3.428,6-.088,1.081.956,1.545.828,2.576-.11.886-.91,1.435-.511,2.405.027.063.062.114.092.172A5.425,5.425,0,0,0,90.268,49.8c.391.258.841.407,1.227.67.042.029.079.063.119.094-3.412.951-6.741,2.477-7.9,6.117-.033.1-.062.2-.092.3-.812,2.85-1.881,5.561-2.16,8.538-.076.809-.119,1.621-.156,2.434a30.106,30.106,0,0,0-3.165,2.8c-.19.2-.379.4-.565.61,0,0-.8.894-1.5,1.894C74.342,75.707,74.119,119.53,78.246,122.357Z" fill="#264677" fill-rule="evenodd"/>
        <g id="Gruppe_2210" data-name="Gruppe 2210">
          <path id="Pfad_2987" data-name="Pfad 2987" d="M96.7,126.321s-5.4-.8-10.847-2.175c-.172-.042-.342-.09-.514-.133-1.292-.338-2.573-.7-3.78-1.1-.172-.062-.342-.119-.508-.176a22.14,22.14,0,0,1-4.313-1.9,5.407,5.407,0,0,1-.494-.324,4.355,4.355,0,0,1-1.3-1.3c-2.446-4.256-4.056-43.057-.874-47.7a17.608,17.608,0,0,1,1.5-1.891c.186-.209.375-.409.565-.609a30.232,30.232,0,0,1,3.528-3.082c.176-.128.342-.252.5-.371a33.561,33.561,0,0,1,3.083-2l13.317,2.76Z" fill="#637795"/>
        </g>
        <path d="M141.567,126.18c-.019-.244-.036-.476-.056-.733a136.973,136.973,0,0,0-1.8-13.966c.283-.07.5-.341.28-.621a2.206,2.206,0,0,0-.5-.469c-.053-.261-.1-.524-.159-.785-.119-.559-1.03-.323-.912.236.011.053.021.105.031.157a16.691,16.691,0,0,0-3.08.132,80.256,80.256,0,0,1-9.343-.271c-6.053-.458-12.135-1.225-18.214-.7-2.621.224-5.18.758-7.758,1.235a36.649,36.649,0,0,1-5.3.685c-1.6.06-3.154-.445-4.711-.416a1.725,1.725,0,0,0-1.9,1.479,14.24,14.24,0,0,0-.544,4.3,32.9,32.9,0,0,0-3.3,9.737Z" fill="#7693bc"/>
        <g id="Gruppe_2257" data-name="Gruppe 2257">
          <path id="Pfad_3069" data-name="Pfad 3069" d="M41.1,127.52a37.029,37.029,0,0,1-5.007.126H34.031c-.281,0-.57,0-.86,0H31.965c-2.688-.01-5.721-.018-8.727-.01-8.045.024-15.95.244-16.2.076-.528-.351-.645-5.493,0-5.9.314-.2,8.129-.117,16.2-.135,3-.01,6.039-.019,8.727-.024h4.128a44.571,44.571,0,0,1,4.889.154C41.619,122.051,41.642,126.892,41.1,127.52Z" fill="#24324f"/>
          <path id="Pfad_3070" data-name="Pfad 3070" d="M36.093,121.644v6H34.031v-6C34.76,121.64,35.452,121.644,36.093,121.644Z" fill="#fff"/>
          <path id="Pfad_3071" data-name="Pfad 3071" d="M33.171,121.64v6H31.965v-5.993Z" fill="#fff"/>
        </g>
        <path id="Pfad_2989" data-name="Pfad 2989" d="M100.011,100.393a60.437,60.437,0,0,0-2.267-11.7c-.38-1.448-.745-2.877-1.057-4.29-.069-.317-.131-.639-.186-.955a38.191,38.191,0,0,1-.278-9.127c.054-.867.118-1.735.176-2.608.049-.755.1-1.506.151-2.262q.314-4.761.629-9.517c.025-.4.054-.8.078-1.2.079-1.18.215-2.389.307-3.593a24.026,24.026,0,0,0,.073-3,3.113,3.113,0,0,0-1.566-2.968.258.258,0,0,0-.155-.015c-.039-.01-.78-1.594-.829-1.594-.712.171-1.419.327-2.116.488-4.315.98-9.711,2.076-11.261,6.917-.033.1-.062.2-.092.3-.812,2.844-1.881,5.55-2.16,8.521-.242,2.553-.157,5.137-.563,7.675-.418,2.615-1.26,5.144-1.631,7.769-.411,2.91-.087,5.831-.614,8.747-.576,3.192-1.633,6.279-1.7,9.551a7.476,7.476,0,0,0,1.262,4.553,10.482,10.482,0,0,0,5.7,3.686,51.883,51.883,0,0,0,7.341,1.292c.834.122,1.672.22,2.511.3a61.379,61.379,0,0,0,7.289.278.25.25,0,0,0,.233-.18,18.572,18.572,0,0,0,.5-2.2A22.278,22.278,0,0,0,100.011,100.393Z" fill="#213759"/>
        <g id="Gruppe_2211" data-name="Gruppe 2211">
          <path id="Pfad_2990" data-name="Pfad 2990" d="M112.59,117.46c-11.861,0-21.489-.867-21.6-.878a.236.236,0,0,1-.215-.257.238.238,0,0,1,.258-.216,265.144,265.144,0,0,0,27.8.791c13.51-.379,20.339-1.88,20.406-1.9a.238.238,0,0,1,.1.464c-.068.015-6.933,1.525-20.5,1.906C116.724,117.434,114.623,117.46,112.59,117.46Z" fill="#253448"/>
        </g>
        <g id="Gruppe_2212" data-name="Gruppe 2212">
          <path id="Pfad_2991" data-name="Pfad 2991" d="M95.282,116.9h-.024a.237.237,0,0,1-.212-.259h0l.237-2.374a.24.24,0,0,1,.26-.213.237.237,0,0,1,.211.259h0l-.237,2.375A.237.237,0,0,1,95.282,116.9Z" fill="#253448"/>
        </g>
        <g id="Gruppe_2213" data-name="Gruppe 2213">
          <path id="Pfad_2992" data-name="Pfad 2992" d="M96.512,116.9h-.019a.237.237,0,0,1-.218-.256l.19-2.374a.238.238,0,0,1,.476.017l0,.021-.19,2.374A.237.237,0,0,1,96.512,116.9Z" fill="#253448"/>
        </g>
        <g id="Gruppe_2214" data-name="Gruppe 2214">
          <path id="Pfad_2993" data-name="Pfad 2993" d="M138.306,115.474a.234.234,0,0,1-.236-.218l-.2-2.493a.237.237,0,0,1,.216-.256h0a.246.246,0,0,1,.255.218l.2,2.494a.237.237,0,0,1-.216.256h-.021Z" fill="#253448"/>
        </g>
        <g id="Gruppe_2215" data-name="Gruppe 2215">
          <path id="Pfad_2994" data-name="Pfad 2994" d="M137.236,115.831a.237.237,0,0,1-.235-.216L136.764,113a.237.237,0,0,1,.214-.257h0a.244.244,0,0,1,.258.215l.237,2.612a.237.237,0,0,1-.214.258h-.024Z" fill="#253448"/>
        </g>
        <g id="Gruppe_2216" data-name="Gruppe 2216">
          <path id="Pfad_2995" data-name="Pfad 2995" d="M118.784,116.648a1.438,1.438,0,1,1,1.129-1.691,1.4,1.4,0,0,1,.028.281A1.3,1.3,0,0,1,118.784,116.648Zm0-2.345c-.377,0-.683.419-.683.934s.306.936.683.936.683-.42.683-.936S119.16,114.3,118.784,114.3Z" fill="#253448"/>
        </g>
        <path id="Pfad_2996" data-name="Pfad 2996" d="M155.755,45.878s3.282,24.5-.794,27.781-8.477,1.888-7.927-6.825,1.245-20.184,1.245-20.184Z" fill="#efd3c7"/>
        <path id="Pfad_2997" data-name="Pfad 2997" d="M125.492,6.226a10.335,10.335,0,0,0-8.7-5.332,17.779,17.779,0,0,0-11.924.281,16.088,16.088,0,0,0-7.851,6.741,9.729,9.729,0,0,0-1.073,2.917,9.594,9.594,0,0,0-.583,2.29,20.982,20.982,0,0,1-.538,4.093,12.882,12.882,0,0,1-1.734,3.232c-1.2,1.735-2.628,3.42-3.215,5.484-.8,2.822.834,5.744-.914,8.361-1.277,1.91-3.226,3.526-3.428,5.985-.088,1.079.956,1.542.828,2.571-.11.884-.91,1.432-.511,2.4.927,2.245,4.319.93,6.037,1.376a25.933,25.933,0,0,0,3.337,1.006,9.767,9.767,0,0,0,3.6-.472,13,13,0,0,1,2.681-.491,16.211,16.211,0,0,0,2.444-.023,4.86,4.86,0,0,0,1.461-.59c.206-.111.4-.242.615-.342a9.411,9.411,0,0,1,1.269-.3c.9-.314.582-1.234.474-1.991-.045-.314-.094-.628-.144-.941.421.078.841.162,1.257.259a9.117,9.117,0,0,0,3.242.493,4.386,4.386,0,0,0,2.687-1.681,8.733,8.733,0,0,0,1.878-.011c.957-.1,2.488,3.019,3.134,2.484,1.111-.921,2.2-1.663,1.841-5.462-.131-1.392,3.68-3.741,5.16-13.409a55.265,55.265,0,0,0,.657-6.57C127.622,14.4,127.6,9.977,125.492,6.226Z" fill="#17253d"/>
        <path id="Pfad_2998" data-name="Pfad 2998" d="M137.5,50.735c-.85-2.1-3.542-3.12-5.508-3.453a25.252,25.252,0,0,1-5.216-1.5c-.337-.138-.659-.275-.978-.423-3.078-1.387-5.3-3.077-5.895-3.975-.95-1.425-1.016-9.5-.237-13.289a.235.235,0,0,0-.2-.265.229.229,0,0,0-.064,0q-5.964.677-11.964.859c-.01-.7-.019-1.41-.028-2.113,0-.3-.47-.243-.47.056,0,.694.014,1.382.024,2.076-.162,0-.324.01-.48.018-.119-.151-.7-1.472-.708-1.234-.142,2.545.219,6.426,0,8.966a11.582,11.582,0,0,1-.722,3.933,8.243,8.243,0,0,1-3.134,3.215c-1.026.674-7,3.106-7,3.106s6.283,5.884,7.39,6.1c3.277.651,6.621,1.1,9.931,1.548a37.052,37.052,0,0,0,9.028-.067,6.053,6.053,0,0,0,2.228,2.375,15.352,15.352,0,0,0,5.433,1.629c2.4.408,4.811.8,7.214,1.206a.241.241,0,0,0,.294-.162,22.286,22.286,0,0,0,.9-4.275C137.452,53.969,137.928,51.8,137.5,50.735Z" fill="#efd3c7"/>
        <path id="Pfad_2999" data-name="Pfad 2999" d="M124.1,17.619c-.27-6.127-.484-6.763-.893-7.439-2.256-3.733-7.584-3.986-8-4-2.6-.087-4.584.854-7,2a10.067,10.067,0,0,0-3,2,9.455,9.455,0,0,0-2,3c-1.758,4-.674,8.384-.048,10.914a19.148,19.148,0,0,0,2.46,6.059,11.238,11.238,0,0,0,5.046,4.349,10.342,10.342,0,0,0,8.646-.537c3.718-2.221,4.484-6.491,4.9-8.785A52.568,52.568,0,0,0,124.1,17.619Z" fill="#efd3c7"/>
        <path id="Pfad_3000" data-name="Pfad 3000" d="M103.023,17.521s-1.874-1.109-2.3,1.918.552,5.11,2.13,5.248,2.012-2.213,2.012-2.213Z" fill="#ffa18a"/>
        <path id="Pfad_3001" data-name="Pfad 3001" d="M120.246,17.633c1.175-.23.968,2.6.1,2.618a.7.7,0,0,1-.542-.273C119.346,19.427,119.354,17.807,120.246,17.633Z" fill="#17253d"/>
        <path id="Pfad_3002" data-name="Pfad 3002" d="M109.279,17.633c1.175-.23.968,2.6.1,2.618a.7.7,0,0,1-.542-.273C108.379,19.427,108.387,17.807,109.279,17.633Z" fill="#17253d"/>
        <path id="Pfad_3003" data-name="Pfad 3003" d="M111.719,26.862a10.76,10.76,0,0,0,3.325.589,11.9,11.9,0,0,0,3.839-.159,3.884,3.884,0,0,1-7.163-.431Z" fill="#fff"/>
        <g id="Gruppe_2217" data-name="Gruppe 2217">
          <path id="Pfad_3004" data-name="Pfad 3004" d="M102.74,22.586a.223.223,0,0,1-.125-.037,1.6,1.6,0,0,1-.6-1.132,3.057,3.057,0,0,1,.384-1.72.238.238,0,0,1,.413.235,2.6,2.6,0,0,0-.328,1.408,1.216,1.216,0,0,0,.387.81.24.24,0,0,1,.065.328A.234.234,0,0,1,102.74,22.586Z" fill="#f2795c"/>
        </g>
        <path id="Pfad_3005" data-name="Pfad 3005" d="M112.118,14.4a8.941,8.941,0,0,0-2.9-.138,16.762,16.762,0,0,0-1.758.24,3.125,3.125,0,0,0-1.525.51c-.35.356.677.244.915.251.793.026,1.588-.044,2.583-.056.769-.009,1.545.085,2.313.077.322,0,.686.035.9-.2C112.991,14.711,112.529,14.506,112.118,14.4Z" fill="#253448"/>
        <path id="Pfad_3006" data-name="Pfad 3006" d="M118.6,15.085c.173.236.469.2.729.2.623.007,1.25-.085,1.873-.077.806.01,1.45.08,2.091.054.193-.007,1.024.1.741-.25-.4-.5-1.4-.6-2.1-.686a7.051,7.051,0,0,0-2.9.074C118.7,14.505,118.33,14.709,118.6,15.085Z" fill="#253448"/>
        <path id="Pfad_3007" data-name="Pfad 3007" d="M103.9,18.434s-1.763-1.317-2.473,1.821.073,5.406,1.632,5.681,2.213-2.156,2.213-2.156Z" fill="#efd3c7"/>
        <g id="Gruppe_2218" data-name="Gruppe 2218">
          <path id="Pfad_3008" data-name="Pfad 3008" d="M106.809,19.882a.308.308,0,0,1-.068-.007l-3.061-.591a.357.357,0,0,1-.283-.418.353.353,0,0,1,.411-.283h.007l3.062.59a.357.357,0,0,1-.068.707Z" fill="#17253d"/>
        </g>
        <path id="Pfad_3009" data-name="Pfad 3009" d="M124.494,11.339l-.166-.085c-1.033-6.532-8.7-9.666-14.613-8.17a11.872,11.872,0,0,0-7.721,6.243,12.327,12.327,0,0,0-1.208,4.364c-.071.834.161,1.737.059,2.545s-1.038,1.34-1.331,2.093c-.837,2.153.238,4.761,1.658,6.841.108-.086.217-.171.323-.254a3.508,3.508,0,0,0,1.35-1.992c.3-1.1.2-2.358.835-3.357.563-.891,1.581-1.129,2.3-1.827.862-.831.841-2.18,1.6-3.1a8.384,8.384,0,0,1,3-1.893c1.377-.652,3.107-.947,4.262-1.951a14.208,14.208,0,0,0,1.586-1.527,4.356,4.356,0,0,0,.624-.929,4.153,4.153,0,0,0,.357-1.2,27.936,27.936,0,0,0,6.485,4.431.2.2,0,0,0,.225.172.2.2,0,0,0,.075-.027l.051.026C124.528,11.886,124.768,11.475,124.494,11.339Z" fill="#17253d"/>
        <path id="Pfad_3010" data-name="Pfad 3010" d="M126.5,55.053c-.081.6-1.031.6-.95,0a45.151,45.151,0,0,0,.247-9.694c.318.148.641.285.978.423A44.834,44.834,0,0,1,126.5,55.053Z" fill="#17253d"/>
        <path id="Pfad_3011" data-name="Pfad 3011" d="M141.2,91.332c.047,2.4.372,9.988.392,10.051.536,1.842.757,8.87.207,10.077-.907,1.99-50.139,4.22-53.043,1.72s2.405-22.356,1.864-24.792c-.137-.622-.261-1.282-.374-1.976-.253-1.519-.447-3.178-.589-4.882-.214-2.569-.309-5.239-.29-7.671.01-1.752.081-3.382.2-4.768.029-.342.063-.665.1-.973.233-1.981.769-5.557,1.353-9.142.257-1.572.523-3.15.775-4.593a43.618,43.618,0,0,1,1.315-6.326.086.086,0,0,0,.047-.014c.423-.289,1.758-3.847,1.758-3.847s7.827,5.941,20.389,5.761c5.737-.085,16.338-2.792,16.338-2.792a14.636,14.636,0,0,1,2.921.627,10.149,10.149,0,0,1,1.367.537c.148.071.294.141.443.222.18.1.366.2.546.323a4.548,4.548,0,0,1,1.9,2.27,10.634,10.634,0,0,1,.413,2.2c.142,1.406.194,3.168.219,5.035.056,4.347-.025,9.275.584,11.684.028.114.057.223.091.323a13.815,13.815,0,0,1,.313,4.394C140.226,79.154,141.181,90.522,141.2,91.332Z" fill="#213759"/>
        <path id="Pfad_3012" data-name="Pfad 3012" d="M160.187,73.736c-.061-.228-.123-.456-.18-.684-.038-.147-.067-.3-.1-.441a17.487,17.487,0,0,1-.175-4.726c.127-1.743.384-3.5.475-5.215a18.071,18.071,0,0,0-.4-4.707c-.047-.218-.095-.441-.146-.665a18.1,18.1,0,0,1-.736-3.951,5.289,5.289,0,0,1,.042-.665,5.255,5.255,0,0,0-.447-2.98c-.761-1.547-1.174-1.5-2.677-.982a50.727,50.727,0,0,1-8.983,2.19.176.176,0,0,0-.071.028.186.186,0,0,0-.219.146l0,.02a10.915,10.915,0,0,0-.142,2.707,12.376,12.376,0,0,0,.237,1.325,2.873,2.873,0,0,1-.115,1.89,6.482,6.482,0,0,0-.907,2.047,5.777,5.777,0,0,0-.066.641,9.467,9.467,0,0,0,.066,1.515c.038.338.124.674.148,1.008.062,1.03-.053,1.268-.423,1.681a22.522,22.522,0,0,0-3.1-4.792c-.119-.148-.243-.29-.371-.433a7.446,7.446,0,0,1-1.79-3.933,11.693,11.693,0,0,0-.338-1.286c-.242-.794-.55-1.572-.859-2.351a4.857,4.857,0,0,0-2-2.252c-.18-.119-.366-.223-.546-.323-.148-.081-.3-.152-.443-.223a10.279,10.279,0,0,0-1.367-.536c-.062-.019-.119-.038-.176-.053-.394-.119-.641-.171-.641-.171a48.621,48.621,0,0,1,.693,5.039,11.108,11.108,0,0,1-.095,3.063c-.137.579-.271,1.164-.394,1.748a32.027,32.027,0,0,0-.655,4.464,50.033,50.033,0,0,0,.3,6.36,18.91,18.91,0,0,1,0,2.246,19.269,19.269,0,0,1-.873,4.588c-.02.067-.043.134-.062.2-.546,1.724-1.14,3.514-.509,5.305.618,1.766-1.552,4.507-.9,6.288a6.133,6.133,0,0,0,.29.665,13.4,13.4,0,0,0,4.492,4.408c.988.683,2,1.343,2.922,2.013.246.18.489.36.722.546a18.02,18.02,0,0,0,9.227,3.453,7.4,7.4,0,0,0,5.5-1.358c2.052-1.738,2.616-4.331,2.968-6.725a15.672,15.672,0,0,1,.38-1.794,33.787,33.787,0,0,1,1.853-4.736c.109-.237.218-.479.323-.726A13.544,13.544,0,0,0,160.187,73.736Z" fill="#213759"/>
        <path id="Pfad_3013" data-name="Pfad 3013" d="M96.517,56.766s3.715,13.114,1.666,24.118-14.855,34.033-14.925,34.353,0,7.127,0,7.127,14.485-21.771,17.414-32.3,2.984-18.442,2.363-23.429a106.487,106.487,0,0,0-2.2-11.133Z" fill="#e3e3e3"/>
        <path id="Pfad_3014" data-name="Pfad 3014" d="M111.469,54.584a22.616,22.616,0,0,0-1.757-2.3,6.069,6.069,0,0,1-1.374-3.718,10.274,10.274,0,0,0-1.6-5.209,14.389,14.389,0,0,1-1.2-4.568c-.158-2.515-.163-3.8-.274-5.039a.23.23,0,0,0-.068-.415c-4-.863-7.818,3.861-11.233,5.727-1.782.974-3.72,1.582-5.5,2.528-1.207.641-2.565,1.727-2.6,3.229-.033,1.382,1.369,2.593,2.415,3.283.391.258.841.407,1.227.669a2.745,2.745,0,0,1,.27.213,11.971,11.971,0,0,1,1.627,2.408c1.028,2.071.979,4.322,2.438,6.207.583.754,1.246,1.448,1.763,2.251a19.854,19.854,0,0,1,1.07,2.715,9.243,9.243,0,0,0,4.362,4,.243.243,0,0,0,.329-.1.239.239,0,0,0,.029-.108c.014-1.056-.724-1.978-1.057-2.956a11.279,11.279,0,0,1-.339-1.248,11.755,11.755,0,0,0,.782,1.163,3.9,3.9,0,0,0,1.557,1.269A7.842,7.842,0,0,1,103.36,65a4.234,4.234,0,0,1,1.126,1.246c.514.63,1.439,1.2,2.12.442a1.862,1.862,0,0,0,.375-1.076,10.789,10.789,0,0,1,.6-2.744,12.24,12.24,0,0,0,.834-5,11.344,11.344,0,0,0-.487-2.673,3.651,3.651,0,0,0,1.04,1.061c1.4.893,1.95,2.478,2.687,3.919a.24.24,0,0,0,.434-.057A6.949,6.949,0,0,0,111.469,54.584Z" fill="#17253d"/>
        <path id="Pfad_3015" data-name="Pfad 3015" d="M126.891,68.688a4.188,4.188,0,0,0-1.3,1.276l-.011-.02a2.049,2.049,0,0,0-.333-1.463.824.824,0,0,0-.714-.369.521.521,0,0,0-.646.316,3.4,3.4,0,0,0,1.177,3.9c1.41.827,2.3-2.211,2.525-3.1a.48.48,0,0,0-.7-.539Z" fill="#637795"/>
        <path id="Pfad_3016" data-name="Pfad 3016" d="M132.794,54.215c-.053-.422-.641-.7-.885-.24-.058.112-.111.227-.165.341a1.13,1.13,0,0,0-.887-.455c-1.147.053-.764,1.379-.489,2.024.232.541.808,2.328,1.7,1.59a2.767,2.767,0,0,0,.638-1.418A5.141,5.141,0,0,0,132.794,54.215Z" fill="#637795"/>
        <path id="Pfad_3017" data-name="Pfad 3017" d="M113.057,63.56a.861.861,0,0,0-.753.549,2.587,2.587,0,0,0-.161.356,1.4,1.4,0,0,0-.592-.579.539.539,0,0,0-.443.017.839.839,0,0,0-.577.406,1.215,1.215,0,0,0,.053,1.068,7.232,7.232,0,0,0,.524,1.163,1.281,1.281,0,0,0,1.631.638C113.514,66.785,114.229,63.64,113.057,63.56Z" fill="#637795"/>
        <path id="Pfad_3018" data-name="Pfad 3018" d="M90.231,60.138a.481.481,0,0,0-.492-.47.491.491,0,0,0-.222.06,2.08,2.08,0,0,0-.542.383,1.357,1.357,0,0,0-.931-1.188.484.484,0,0,0-.585.331c-.416,1.14-.187,2.928,1,3.564C90.057,63.676,90.266,61.069,90.231,60.138Z" fill="#637795"/>
        <path id="Pfad_3019" data-name="Pfad 3019" d="M137.672,103.687a.481.481,0,0,0-.492-.47.5.5,0,0,0-.222.06,2.1,2.1,0,0,0-.542.383,1.357,1.357,0,0,0-.931-1.188.484.484,0,0,0-.585.332c-.417,1.139-.187,2.928,1,3.563C137.5,107.225,137.706,104.619,137.672,103.687Z" fill="#637795"/>
        <path id="Pfad_3020" data-name="Pfad 3020" d="M98.105,75.057a.484.484,0,0,0-.585-.331,1.319,1.319,0,0,0-.951.763.431.431,0,0,0-.046.039.461.461,0,0,0-.23-.372c-.78-.369-1.4.3-1.329,1.081A2.974,2.974,0,0,0,96.191,78.4a.927.927,0,0,0,.953.1.417.417,0,0,0,.406-.223A4.774,4.774,0,0,0,98.105,75.057Z" fill="#637595"/>
        <path id="Pfad_3021" data-name="Pfad 3021" d="M85.763,89.161a.477.477,0,0,0-.59-.327.49.49,0,0,0-.2.118,3.448,3.448,0,0,0-.656,1.04c-.03-.108-.055-.311-.081-.388a1.124,1.124,0,0,0-.3-.477.776.776,0,0,0-1.023-.082c-.37.311-.253.884-.2,1.3a2.639,2.639,0,0,0,.49,1.329,1.51,1.51,0,0,0,2.082.355C86.053,91.4,85.923,90.029,85.763,89.161Z" fill="#637795"/>
        <path id="Pfad_3022" data-name="Pfad 3022" d="M111.539,83.378a.916.916,0,0,0-.706.491,2.086,2.086,0,0,0-.732-.665.481.481,0,0,0-.714.41,2.9,2.9,0,0,0,.3,1.539,2.511,2.511,0,0,0,.758,1.146,1.281,1.281,0,0,0,1.733-.533,1.265,1.265,0,0,0,.125-.354C112.462,84.825,112.486,83.307,111.539,83.378Z" fill="#a18bbc"/>
        <path id="Pfad_3023" data-name="Pfad 3023" d="M129.6,87.732a.481.481,0,0,0-.6-.327.5.5,0,0,0-.1.043,3.594,3.594,0,0,0-.974.981,1.607,1.607,0,0,0-.735-1.367.484.484,0,0,0-.65.169,1.966,1.966,0,0,0-.139,1.91c.208.517.6,1.367,1.216,1.484.647.122,1.181-.514,1.531-.966A2.016,2.016,0,0,0,129.6,87.732Z" fill="#637795"/>
        <path id="Pfad_3024" data-name="Pfad 3024" d="M154.325,59.243a.782.782,0,0,0-1.013-.446.81.81,0,0,0-.187.1c-.01.007-.014.013-.022.018a1.1,1.1,0,0,0-.771-.664.883.883,0,0,0-1.051.673.9.9,0,0,0-.017.114,2.811,2.811,0,0,0,.522,1.731c.278.463.612,1.06,1.215,1.1a1.094,1.094,0,0,0,1.027-.86A3.029,3.029,0,0,0,154.325,59.243Z" fill="#637795"/>
        <g id="Gruppe_2219" data-name="Gruppe 2219">
          <path id="Pfad_3025" data-name="Pfad 3025" d="M88.6,109.266l1.2,2.479s27.047,2.352,27.26,2.145,6.149-35.284,6.149-35.284l-2.79-.217Z" fill="#81a9e3"/>
          <path id="Pfad_3026" data-name="Pfad 3026" d="M122.415,78.826l-6.2,34.037-25.637-2.118-1.234-2.531,31.324-31.5Z" fill="#fff"/>
          <path id="Pfad_3027" data-name="Pfad 3027" d="M121.48,76.072,115.1,111.529l-26.5-2.262,5.646-33.4Z" fill="#4d72ab"/>
        </g>
        <path id="Pfad_3028" data-name="Pfad 3028" d="M143.228,73.377a2.342,2.342,0,0,0-.6.257.854.854,0,0,0-.968-.722.945.945,0,0,0-.157.038c-.745.342-.545,1.843-.449,2.484a1.314,1.314,0,0,0,.467,1,.928.928,0,0,0,1.051-.134,3.642,3.642,0,0,0,1.243-2.335.483.483,0,0,0-.587-.588Z" fill="#637795"/>
        <path id="Pfad_3029" data-name="Pfad 3029" d="M152.334,84.714c-.491-.133-.855.293-1.119.823a2.4,2.4,0,0,0-.955-1.044.478.478,0,0,0-.653.174.506.506,0,0,0-.047.11,3.5,3.5,0,0,0,.555,2.927c.758.73,1.8.129,2.275-.606C152.732,86.568,153.267,84.968,152.334,84.714Z" fill="#637795"/>
        <path id="Pfad_3030" data-name="Pfad 3030" d="M117.6,103.119a.48.48,0,0,0-.793-.209,2.6,2.6,0,0,0-.6.852c-.2-.634-.724-1.257-1.464-.9-1.065.517.043,1.9.436,2.491.425.641,1.262,1.26,1.954.563A3.343,3.343,0,0,0,117.6,103.119Z" fill="#a18bbc"/>
        <g id="Gruppe_2232" data-name="Gruppe 2232">
          <g id="Gruppe_2220" data-name="Gruppe 2220">
            <path id="Pfad_3031" data-name="Pfad 3031" d="M117.349,6.557a.238.238,0,0,1-.217-.142,7.65,7.65,0,0,0-1.846-2.549,4.214,4.214,0,0,1-1.049-1.11,2.585,2.585,0,0,0-.836-.838,12.409,12.409,0,0,0-3.409-1,.235.235,0,0,1-.2-.268v0a.24.24,0,0,1,.271-.2,12.485,12.485,0,0,1,3.595,1.075,3.014,3.014,0,0,1,.969.967,3.749,3.749,0,0,0,.945,1,7.97,7.97,0,0,1,1.994,2.735.238.238,0,0,1-.123.313A.207.207,0,0,1,117.349,6.557Z" fill="#09111a"/>
          </g>
          <g id="Gruppe_2221" data-name="Gruppe 2221">
            <path id="Pfad_3032" data-name="Pfad 3032" d="M125.314,13.175a.238.238,0,0,1-.237-.228,3.3,3.3,0,0,0-.654-1.621,10.118,10.118,0,0,0-3.242-2.579,13.473,13.473,0,0,1-2.847-2.27.238.238,0,0,1,.353-.317,13.364,13.364,0,0,0,2.74,2.182,10.751,10.751,0,0,1,3.382,2.706,3.692,3.692,0,0,1,.744,1.881.237.237,0,0,1-.228.246h-.011Z" fill="#09111a"/>
          </g>
          <g id="Gruppe_2222" data-name="Gruppe 2222">
            <path id="Pfad_3033" data-name="Pfad 3033" d="M122.731,7.629a.234.234,0,0,1-.182-.085,7.283,7.283,0,0,0-2.091-1.606c-1.321-.667-3.181-1.439-3.2-1.447a.238.238,0,0,1,.157-.449l.025.011c.018.007,1.895.787,3.231,1.462a7.618,7.618,0,0,1,2.241,1.725.237.237,0,0,1-.028.334.241.241,0,0,1-.154.056Z" fill="#09111a"/>
          </g>
          <g id="Gruppe_2223" data-name="Gruppe 2223">
            <path id="Pfad_3034" data-name="Pfad 3034" d="M105.756,15.857a.2.2,0,0,1-.069-.011.236.236,0,0,1-.159-.294v0a7.12,7.12,0,0,1,1.625-2.786,12.272,12.272,0,0,1,4.089-2.058l.775-.3c2.243-.86,3.3-3.671,3.3-3.7a.238.238,0,0,1,.447.163c-.045.124-1.134,3.042-3.581,3.979l-.777.3a12.025,12.025,0,0,0-3.937,1.964,6.77,6.77,0,0,0-1.491,2.573A.236.236,0,0,1,105.756,15.857Z" fill="#09111a"/>
          </g>
          <g id="Gruppe_2224" data-name="Gruppe 2224">
            <path id="Pfad_3035" data-name="Pfad 3035" d="M110.655,9.353a.238.238,0,0,1-.142-.429,14.005,14.005,0,0,0,2.318-2.28,6.3,6.3,0,0,0,1.337-2.418.235.235,0,0,1,.272-.189h.006a.238.238,0,0,1,.189.276A6.6,6.6,0,0,1,113.2,6.942a14.4,14.4,0,0,1-2.406,2.365A.232.232,0,0,1,110.655,9.353Z" fill="#09111a"/>
          </g>
          <g id="Gruppe_2225" data-name="Gruppe 2225">
            <path id="Pfad_3036" data-name="Pfad 3036" d="M90.455,34.3a.237.237,0,0,1-.193-.376,8.785,8.785,0,0,0,.876-2.263,8.661,8.661,0,0,0,.23-2.815,20.848,20.848,0,0,1,.079-2.914c.2-1.964.8-2.32,1.691-2.858a7.945,7.945,0,0,0,1.277-.9c1.6-1.407,3.124-5.677,3.139-5.719a.238.238,0,0,1,.448.159c-.064.18-1.584,4.428-3.272,5.916a8.527,8.527,0,0,1-1.347.955c-.826.5-1.283.773-1.463,2.5a20.435,20.435,0,0,0-.077,2.853A9.154,9.154,0,0,1,91.6,31.8a8.875,8.875,0,0,1-.946,2.408A.232.232,0,0,1,90.455,34.3Z" fill="#09111a"/>
          </g>
          <g id="Gruppe_2226" data-name="Gruppe 2226">
            <path id="Pfad_3037" data-name="Pfad 3037" d="M98.253,18.668a.237.237,0,0,1-.233-.242.243.243,0,0,1,.033-.117c.154-.3,1.171-4.125,1.775-6.469a.237.237,0,0,1,.459.12c-.377,1.465-1.628,6.273-1.83,6.6A.237.237,0,0,1,98.253,18.668Z" fill="#09111a"/>
          </g>
          <g id="Gruppe_2227" data-name="Gruppe 2227">
            <path id="Pfad_3038" data-name="Pfad 3038" d="M107.633,54.446a.237.237,0,0,1-.237-.222c0-.032-.2-3.184-.513-5.445a9.58,9.58,0,0,0-.776-2.982c-.182-.457-.409-1.027-.716-1.877a15.921,15.921,0,0,1-1.043-4.948.238.238,0,0,1,.238-.237h0a.237.237,0,0,1,.237.237h0a15.8,15.8,0,0,0,1.015,4.787c.3.843.53,1.408.711,1.862a10.048,10.048,0,0,1,.8,3.093c.314,2.278.515,5.448.517,5.479a.236.236,0,0,1-.222.251Z" fill="#09111a"/>
          </g>
          <g id="Gruppe_2228" data-name="Gruppe 2228">
            <path id="Pfad_3039" data-name="Pfad 3039" d="M103.912,43.563a.234.234,0,0,1-.216-.14,12.986,12.986,0,0,1-.892-4.44,24.749,24.749,0,0,1,.72-6.053.237.237,0,0,1,.46.117,24.821,24.821,0,0,0-.7,5.915,12.79,12.79,0,0,0,.85,4.266.238.238,0,0,1-.119.314A.214.214,0,0,1,103.912,43.563Z" fill="#09111a"/>
          </g>
          <g id="Gruppe_2229" data-name="Gruppe 2229">
            <path id="Pfad_3040" data-name="Pfad 3040" d="M102.486,62.718a.228.228,0,0,1-.17-.072,10.072,10.072,0,0,1-2.254-3.687,14.224,14.224,0,0,0-2.464-4.1.237.237,0,0,1,.362-.307,14.347,14.347,0,0,1,2.563,4.288,9.8,9.8,0,0,0,2.135,3.478.238.238,0,0,1-.009.336.236.236,0,0,1-.161.064Z" fill="#09111a"/>
          </g>
          <g id="Gruppe_2230" data-name="Gruppe 2230">
            <path id="Pfad_3041" data-name="Pfad 3041" d="M95.363,51.675a.237.237,0,0,1-.238-.235h0a9.205,9.205,0,0,0-1.219-3.761A19.554,19.554,0,0,0,92.8,45.892a9.368,9.368,0,0,1-2.1-5.936,14.1,14.1,0,0,1,1.335-6.007.238.238,0,0,1,.418.228,13.881,13.881,0,0,0-1.278,5.789,8.854,8.854,0,0,0,2.021,5.659,20.08,20.08,0,0,1,1.137,1.831A9.431,9.431,0,0,1,95.6,51.438a.235.235,0,0,1-.235.237h0Z" fill="#09111a"/>
          </g>
          <g id="Gruppe_2231" data-name="Gruppe 2231">
            <path id="Pfad_3042" data-name="Pfad 3042" d="M97.341,47.805a.238.238,0,0,1-.232-.19,7.631,7.631,0,0,0-.988-2.449c-.709-.985-1.4-2.086-1.409-2.1a.237.237,0,0,1,.4-.252c.008.011.694,1.1,1.393,2.072a7.984,7.984,0,0,1,1.069,2.632.237.237,0,0,1-.186.279h0A.185.185,0,0,1,97.341,47.805Z" fill="#09111a"/>
          </g>
        </g>
        <path id="Pfad_3043" data-name="Pfad 3043" d="M161.268,34.035c-.937-1.123-1.626.254-2.152,1.174-.409.588-.745,1.243-1.158,1.82.519-1.643,1.023-3.29,1.5-4.948.189-.657.7-1.732.184-2.375a1.857,1.857,0,0,0-.726-.5c.286-.81.573-1.459.065-1.986-.925-.958-1.906.224-2.333,1.02-.572,1.064-1.083,2.164-1.638,3.24-.316.614-1.982,3.808-1.982,3.808q.27-1.378.6-2.746c.163-.694.342-1.381.547-2.062.25-.834,1.371-2.761-.023-3.218-.954-.312-2,2.032-2.31,2.72a67.134,67.134,0,0,0-2.428,6.328,13.03,13.03,0,0,1-1.126,3.127,10.4,10.4,0,0,1-1.172-4.642c-.058-.561-.188-1.241-.821-1.424a.814.814,0,0,0-1.028.483,3.5,3.5,0,0,0-.042,1.438q.048,1.117.1,2.236c.062,1.439.081,2.888.206,4.324a7.772,7.772,0,0,0,3.006,5.671.272.272,0,0,0,.137.359l.019.008c1.532.552,6.008.485,6.008.485s.868-1.2,1.638-2.5A66.368,66.368,0,0,0,159.6,38.7C160.081,37.506,161.794,34.667,161.268,34.035Z" fill="#efd3c7"/>
        <path id="Pfad_3044" data-name="Pfad 3044" d="M121.237,99.173c-.518-1.078-2.063-.953-3.044-1.049-.343-.033-.683-.078-1.024-.12a1.337,1.337,0,0,0,.634-.3c1.369-1.322-1.977-1.546-2.492-1.586a28.246,28.246,0,0,1-4.432-.544,5.87,5.87,0,0,0-2.913.432,20.732,20.732,0,0,0-2.392,1.536l-2.946-.67a69.475,69.475,0,0,1-.941,7.344c-.06.281-.127.559-.193.837,2.256.236,3.746.386,3.746.386a46.3,46.3,0,0,0,7.928,2.282c1.585.181,5.773.92,6.337-.956a1.173,1.173,0,0,0,1.089-1.247,1.511,1.511,0,0,0-.664-1.207,1.869,1.869,0,0,0,1.035-1.049,2.051,2.051,0,0,0-.89-1.973C120.793,100.748,121.754,100.24,121.237,99.173Z" fill="#efd3c7"/>
        <g id="Gruppe_2233" data-name="Gruppe 2233">
          <path id="Pfad_3045" data-name="Pfad 3045" d="M115.666,35.592a9.7,9.7,0,0,1-1.823-.178c-3.233-.611-7.644-4.452-7.83-4.615a.237.237,0,0,1,.313-.357c.044.039,4.5,3.919,7.6,4.507,3.146.595,4.794-.589,4.81-.6a.24.24,0,0,1,.333.05.236.236,0,0,1-.046.331h0A5.834,5.834,0,0,1,115.666,35.592Z" fill="#d5b4a8"/>
        </g>
        <g id="Gruppe_2234" data-name="Gruppe 2234">
          <path id="Pfad_3046" data-name="Pfad 3046" d="M152,45.582a.236.236,0,0,1-.236-.227,7.4,7.4,0,0,0-.721-2.747,10.681,10.681,0,0,0-2.541-2.532.237.237,0,1,1,.276-.386,10.932,10.932,0,0,1,2.681,2.691,7.7,7.7,0,0,1,.778,2.952.235.235,0,0,1-.223.248H152Z" fill="#d5b4a8"/>
        </g>
        <g id="Gruppe_2235" data-name="Gruppe 2235">
          <path id="Pfad_3047" data-name="Pfad 3047" d="M155.484,36.714a.235.235,0,0,1-.237-.236.221.221,0,0,1,.019-.095l2.888-6.729a.237.237,0,1,1,.436.188L155.7,36.571A.237.237,0,0,1,155.484,36.714Z" fill="#d5b4a8"/>
        </g>
        <g id="Gruppe_2236" data-name="Gruppe 2236">
          <path id="Pfad_3048" data-name="Pfad 3048" d="M119.29,101.4h-.006l-2.544-.075a.239.239,0,0,1-.231-.245h0a.243.243,0,0,1,.244-.231l2.545.077a.238.238,0,1,1-.008.475Z" fill="#d5b4a8"/>
        </g>
        <g id="Gruppe_2237" data-name="Gruppe 2237">
          <path id="Pfad_3049" data-name="Pfad 3049" d="M116.209,98.126h0L112.039,98a.237.237,0,0,1-.231-.244h0a.249.249,0,0,1,.245-.23l4.17.126a.238.238,0,0,1-.014.475Z" fill="#d5b4a8"/>
        </g>
        <g id="Gruppe_2238" data-name="Gruppe 2238">
          <path id="Pfad_3050" data-name="Pfad 3050" d="M119.332,104.349h-.013l-2.63-.148a.238.238,0,0,1-.223-.251.233.233,0,0,1,.242-.223h.008l2.63.149a.238.238,0,0,1-.014.475Z" fill="#d5b4a8"/>
        </g>
        <g id="Gruppe_2239" data-name="Gruppe 2239">
          <path id="Pfad_3051" data-name="Pfad 3051" d="M118.805,106.7h-.016l-3.5-.234a.238.238,0,0,1-.221-.252.243.243,0,0,1,.253-.221l3.494.233a.238.238,0,0,1-.015.475Z" fill="#d5b4a8"/>
        </g>
        <path id="Pfad_3052" data-name="Pfad 3052" d="M90.641,89.251a16.746,16.746,0,0,1,5.487,2.636c2.086,1.741,2.123,1.028,4,1.5s3.939.791,3.781,1.82-1.231,11.685-1.7,12.134-.956-.363-3.366-.353-3.28.645-5.209.488-6.541-.709-6.541-.709Z" fill="#213759"/>
        <path id="Pfad_3053" data-name="Pfad 3053" d="M99.641,98.053a.483.483,0,0,0-.811-.336,2.9,2.9,0,0,0-.324.332c-.126-.521-.422-.953-1.02-.862-1,.149-.857,1.38-.6,2.067.244.651.889,1.85,1.751,1.4C99.471,100.224,99.714,98.891,99.641,98.053Z" fill="#637795"/>
        <path id="Pfad_3054" data-name="Pfad 3054" d="M101.12,81.572l-.8,6.048,10.641.3.953-6.21Z" fill="#fff"/>
        <g id="Gruppe_2240" data-name="Gruppe 2240">
          <path id="Pfad_3055" data-name="Pfad 3055" d="M93.068,89.488a.121.121,0,0,1-.038,0,.237.237,0,0,1-.2-.27v0l2.059-12.8a.238.238,0,0,1,.469.076L93.3,89.292A.237.237,0,0,1,93.068,89.488Z" fill="#253448"/>
        </g>
        <g id="Gruppe_2241" data-name="Gruppe 2241">
          <path id="Pfad_3056" data-name="Pfad 3056" d="M89.718,109.219a.224.224,0,0,1-.052,0,.237.237,0,0,1-.18-.284l.33-1.475a.238.238,0,0,1,.464.1l-.33,1.476A.237.237,0,0,1,89.718,109.219Z" fill="#253448"/>
        </g>
        <g id="Gruppe_2243" data-name="Gruppe 2243">
          <g id="Gruppe_2242" data-name="Gruppe 2242">
            <path id="Pfad_3057" data-name="Pfad 3057" d="M108.76,82.763h-.005l-5.066-.119a.238.238,0,0,1-.232-.243h0a.247.247,0,0,1,.243-.231l5.066.119a.238.238,0,0,1-.005.475Z" fill="#c6d1ec"/>
          </g>
        </g>
        <g id="Gruppe_2245" data-name="Gruppe 2245">
          <g id="Gruppe_2244" data-name="Gruppe 2244">
            <path id="Pfad_3058" data-name="Pfad 3058" d="M110.733,85.081h0l-9.292-.2a.238.238,0,0,1,0-.475h0l9.292.2a.238.238,0,0,1,0,.475Z" fill="#c6d1ec"/>
          </g>
        </g>
        <g id="Gruppe_2247" data-name="Gruppe 2247">
          <g id="Gruppe_2246" data-name="Gruppe 2246">
            <path id="Pfad_3059" data-name="Pfad 3059" d="M110.435,86.458h0l-9.194-.2a.238.238,0,0,1,0-.476h0l9.193.2a.238.238,0,1,1,0,.476h0Z" fill="#c6d1ec"/>
          </g>
        </g>
        <g id="Gruppe_2248" data-name="Gruppe 2248">
          <path id="Pfad_3060" data-name="Pfad 3060" d="M83.222,114.722a.236.236,0,0,1-.237-.229l-.265-7.6a.238.238,0,0,1,.229-.245h0a.23.23,0,0,1,.245.214v.015l.265,7.6a.237.237,0,0,1-.229.245h-.009Z" fill="#253448"/>
        </g>
        <g id="Gruppe_2249" data-name="Gruppe 2249">
          <path id="Pfad_3061" data-name="Pfad 3061" d="M82.223,109.619a23.475,23.475,0,0,1-4.363-.406,25.351,25.351,0,0,1-4.679-1.491.238.238,0,1,1,.2-.433,24.956,24.956,0,0,0,4.582,1.46,23.818,23.818,0,0,0,4.419.393h0a.238.238,0,0,1,0,.476Z" fill="#253448"/>
        </g>
        <g id="Gruppe_2250" data-name="Gruppe 2250">
          <path id="Pfad_3062" data-name="Pfad 3062" d="M141.272,93.232a.236.236,0,0,1-.236-.224c-.011-.176-.953-17.579-1.148-22.616s-.681-12.649-.685-12.726a.237.237,0,0,1,.221-.252.233.233,0,0,1,.252.21v.012c0,.077.49,7.7.686,12.737s1.137,22.433,1.147,22.608a.237.237,0,0,1-.224.25Z" fill="#53647d"/>
        </g>
        <g id="Gruppe_2251" data-name="Gruppe 2251">
          <path id="Pfad_3063" data-name="Pfad 3063" d="M144.741,87.473a.128.128,0,0,1-.039,0,.237.237,0,0,1-.2-.27v0c.006-.04.649-3.967.646-4.789v-.556c.006-1.544.021-5.16-.227-8.671a30.923,30.923,0,0,1,.519-7.806.238.238,0,0,1,.464.1,30.376,30.376,0,0,0-.509,7.672c.249,3.529.234,7.157.228,8.706v.55c0,.862-.626,4.706-.653,4.869A.236.236,0,0,1,144.741,87.473Z" fill="#53647d"/>
        </g>
        <g id="Gruppe_2252" data-name="Gruppe 2252">
          <path id="Pfad_3064" data-name="Pfad 3064" d="M90.641,89.488a.228.228,0,0,1-.073-.012l-6.139-2.014a.237.237,0,1,1,.148-.451l6.14,2.014a.237.237,0,0,1-.075.463Z" fill="#53647d"/>
        </g>
        <g id="Gruppe_2253" data-name="Gruppe 2253">
          <path id="Pfad_3065" data-name="Pfad 3065" d="M110.027,23.1a3.574,3.574,0,1,1,3.574-3.574h0A3.578,3.578,0,0,1,110.027,23.1Zm0-6.435a2.861,2.861,0,1,0,2.861,2.862h0A2.866,2.866,0,0,0,110.027,16.665Z" fill="#17253d"/>
        </g>
        <g id="Gruppe_2254" data-name="Gruppe 2254">
          <path id="Pfad_3066" data-name="Pfad 3066" d="M120.568,23.1a3.574,3.574,0,1,1,3.574-3.574h0A3.578,3.578,0,0,1,120.568,23.1Zm0-6.435a2.861,2.861,0,1,0,2.86,2.862h0A2.865,2.865,0,0,0,120.568,16.665Z" fill="#17253d"/>
        </g>
        <g id="Gruppe_2255" data-name="Gruppe 2255">
          <path id="Pfad_3067" data-name="Pfad 3067" d="M113.244,19.883a.356.356,0,0,1-.074-.7,11.808,11.808,0,0,1,2.129-.233,11.61,11.61,0,0,1,2.128.233.359.359,0,1,1-.156.7h0a10.388,10.388,0,0,0-1.942-.217H115.3a11.386,11.386,0,0,0-1.983.217A.314.314,0,0,1,113.244,19.883Z" fill="#17253d"/>
        </g>
        <path id="Pfad_3068" data-name="Pfad 3068" d="M3.267,113.454c-.643.205-.525,2.775,0,2.951.253.084,8.16-.027,16.205-.039,8.737-.013,17.662.065,17.86-.05.539-.313.876-2.6-.117-2.863-.508-.135-9.268-.079-17.743-.068C11.4,113.4,3.581,113.355,3.267,113.454Z" fill="#28497c"/>
        <g id="Gruppe_2256" data-name="Gruppe 2256">
          <path id="Rechteck_425" data-name="Rechteck 425" d="M35.276,115.916h7.182a.414.414,0,0,1,.418.41v5.1a.414.414,0,0,1-.414.414H35.276v-5.92Z" fill="#637795"/>
          <rect id="Rechteck_426" data-name="Rechteck 426" x="4.93" y="116.831" width="32.098" height="4.051" fill="#fff"/>
          <rect id="Rechteck_427" data-name="Rechteck 427" x="4.463" y="120.883" width="33.014" height="0.953" rx="0.171" fill="#637795"/>
          <rect id="Rechteck_428" data-name="Rechteck 428" x="4.463" y="115.916" width="33.014" height="1.042" rx="0.171" fill="#637795"/>
        </g>
        <g id="Gruppe_2258" data-name="Gruppe 2258">
          <path id="Rechteck_429" data-name="Rechteck 429" d="M15.331,113.611H8.149a.413.413,0,0,1-.418-.41v-4.1a.414.414,0,0,1,.414-.414h7.186v4.928Z" fill="#637795"/>
          <rect id="Rechteck_430" data-name="Rechteck 430" x="13.578" y="108.809" width="32.098" height="3.849" fill="#fff"/>
          <rect id="Rechteck_431" data-name="Rechteck 431" x="13.13" y="112.658" width="33.014" height="0.953" rx="0.171" fill="#637795"/>
          <rect id="Rechteck_432" data-name="Rechteck 432" x="13.144" y="108.677" width="33.014" height="1.042" rx="0.171" fill="#637795"/>
        </g>
        <path id="Pfad_3072" data-name="Pfad 3072" d="M7.034,103.853c-.643.339-.526,4.606,0,4.9.251.139,8.159-.045,16.2-.065,8.737-.022,17.663.108,17.861-.083.539-.519.877-4.314-.117-4.75-.508-.223-9.269-.131-17.744-.113C15.162,103.756,7.347,103.687,7.034,103.853Z" fill="#8db0e3"/>
        <g id="Gruppe_2260" data-name="Gruppe 2260">
          <g id="Gruppe_2259" data-name="Gruppe 2259">
            <path id="Pfad_3073" data-name="Pfad 3073" d="M36.5,108.054H11.312a1.2,1.2,0,0,1-1.2-1.2v-1.261a1.2,1.2,0,0,1,1.2-1.2H36.5a1.2,1.2,0,0,1,1.2,1.2v1.261A1.2,1.2,0,0,1,36.5,108.054Zm-25.188-3.213a.758.758,0,0,0-.756.756v1.261a.757.757,0,0,0,.756.756H36.5a.756.756,0,0,0,.756-.756V105.6a.756.756,0,0,0-.756-.756Z" fill="#e2e7f5"/>
          </g>
        </g>
        <g id="Gruppe_2264" data-name="Gruppe 2264">
          <g id="Gruppe_2261" data-name="Gruppe 2261">
            <path id="Pfad_3074" data-name="Pfad 3074" d="M198.824,122.328A25.425,25.425,0,1,1,224.248,96.9h0A25.453,25.453,0,0,1,198.824,122.328Zm0-50A24.571,24.571,0,1,0,223.4,96.9a24.572,24.572,0,0,0-24.571-24.571Z" fill="#7d9bc7"/>
          </g>
          <g id="Gruppe_2262" data-name="Gruppe 2262">
            <path id="Pfad_3075" data-name="Pfad 3075" d="M198.891,126.779a.569.569,0,0,1-.2-.035c-6.317-2.256-14.408-5.557-14.489-5.59a.6.6,0,0,1-.326-.783l0-.006,21.98-51.25a.6.6,0,0,1,1.1.472l-21.74,50.689c1.946.788,8.546,3.439,13.875,5.342a.6.6,0,0,1-.2,1.161Z" fill="#7d9bc7"/>
          </g>
          <circle id="Ellipse_117" data-name="Ellipse 117" cx="198.52" cy="96.826" r="21.752" fill="#c6d5ec"/>
          <path id="Pfad_3076" data-name="Pfad 3076" d="M211.317,101.562a2.106,2.106,0,0,0-.762-.326,5.8,5.8,0,0,0-2.177-.043,15.522,15.522,0,0,1-16.552,6.11c.024.019.049.038.077.057q1.972,1.35,3.949,2.69a3.727,3.727,0,0,0,1.7.717,2.052,2.052,0,0,1,1.042.492,3.653,3.653,0,0,1,1.315,2.838,1.3,1.3,0,0,0,.55.972c.164.14.384.328.657.117.07-.055.167.08.243.109.252.1.417.419.759.3.159-.056.222.043.225.2,0,.064-.1.132.035.215.136-.375.43-.343.726-.279a.817.817,0,0,0,.52-.056c.213-.092.436-.169.652-.261.275-.115.551-.227.821-.36a4.555,4.555,0,0,0,.776-.343,2.119,2.119,0,0,1,.5-.31,2.3,2.3,0,0,0,1.216-1.091,3.748,3.748,0,0,0,.46-2.081.621.621,0,0,1,.181-.539q.427-.382.815-.806a8.135,8.135,0,0,0,1.348-1.651c.172-.3.463-.54.457-.935a9.532,9.532,0,0,0-.059-1,3.083,3.083,0,0,1,.215-1.949,5.5,5.5,0,0,0,.7-1.435A1.179,1.179,0,0,0,211.317,101.562ZM196.749,83.979h0l.009-.006Zm-.069-1.54h0l.008-.007Zm-1,.565a.48.48,0,0,1,.009-.05.047.047,0,0,0-.053-.04.047.047,0,0,0-.04.053.046.046,0,0,0,.05.04l.032,0Zm-.415-.027a.031.031,0,0,1-.006.021l.018-.011Zm-.184,1.736v.007l.005-.007Zm-.07.069h0l.006,0Zm-.4.265-.008.007.011-.007ZM193.6,86.318v.007l.008-.007Zm-1.664,1.816h.031c0-.042-.009-.086-.012-.133-.068.095-.043.131-.017.134Zm-2.886-1.471v-.008h-.01Zm-6.248-4.372a6.869,6.869,0,0,1-1.419,1.036,1.674,1.674,0,0,0-.323.283c-.141.166.077.267.069.419,0,.085.185.008.247-.047.42-.368,1-.41,1.443-.729.111-.081.14-.07.235.032a15.652,15.652,0,0,1,2.3-2.565,4.409,4.409,0,0,0-1.037.388,5.475,5.475,0,0,0-1.513,1.188Zm-1.868,5.2c-.173.217-.345.436-.521.651a5.027,5.027,0,0,0-1.054,1.631c-.2.646-.391,1.3-.642,1.921a.723.723,0,0,0,.056.668,2.907,2.907,0,0,1,.067,2.352c-.092.243-.08.367.091.5s.281.27.215.48c-.121.4.161.644.333.927a.224.224,0,0,0,.29.087c.12-.059.046-.153.055-.234a2.6,2.6,0,0,0-.225-.949,4.366,4.366,0,0,1-.244-1.473c.012-.135,0-.3.168-.36.091.251-.095.535.062.755a8.037,8.037,0,0,1,.855,1.828,2.493,2.493,0,0,1,.343,1.1,1.15,1.15,0,0,0,.647,1.248c.043.024.085.044.129.067a15.56,15.56,0,0,1-.624-11.2Z" fill="#728eb8"/>
          <path id="Pfad_3077" data-name="Pfad 3077" d="M208.2,101.222c-.255.044-.5.085-.653-.21-.036-.068-.15-.152-.211-.14a2.952,2.952,0,0,0-1.427.341c.027-.325-.187-.33-.407-.306a1.378,1.378,0,0,0-.76.318,3.353,3.353,0,0,1,.134-.4c.159-.314.24-.6-.161-.806-.059-.032-.082-.129-.135-.188a2.357,2.357,0,0,0-1.237-.942,2.933,2.933,0,0,0-1.938.28.708.708,0,0,1-.876-.126c-.323-.278-.6-.685-1.128-.591-.041.008-.136-.042-.136-.068-.008-.3-.25-.228-.415-.272-.129-.036-.332-.015-.379-.094-.162-.275-.369-.128-.545-.084a8.706,8.706,0,0,1-1.177.436c-.422.044-.809.347-1.278.06-.36-.222-.8-.373-1.048.212-.021.055-.092.091-.145.132-.07.056-.139.19-.241.077s0-.231.084-.275c.141-.079.194-.149.071-.272s-.212-.057-.311.038a17.121,17.121,0,0,0-1.717,2,.483.483,0,0,1-.528.231,1.591,1.591,0,0,0-.911.112,2.57,2.57,0,0,1-.849.27,1.276,1.276,0,0,1-1.059-.893,1.773,1.773,0,0,1,.116-1.23c.181-.335.023-.584-.364-.593a2.391,2.391,0,0,0-.267.016,9.383,9.383,0,0,0-1.227.16c-.1.022-.271.1-.293-.087a1.482,1.482,0,0,1,.111-.909,3.926,3.926,0,0,0,.377-.984c.15-.518,0-.687-.553-.617a1.135,1.135,0,0,0-.627.263,6,6,0,0,0-.676.774c-.261.323-.425.724-.808.955a.467.467,0,0,1-.528-.006c-.176-.094-.156-.275-.158-.433a.984.984,0,0,0,0-.188,6.118,6.118,0,0,1,.2-3.178,1.6,1.6,0,0,1,1.608-1.193,1.956,1.956,0,0,0,1.486-.529,1.309,1.309,0,0,1,.309-.2,1.164,1.164,0,0,1,1.353.406c.159.291.287.6.445.893a.566.566,0,0,0,.5.311c.128,0,.243-.22.234-.368a3.176,3.176,0,0,0-.288-1.41.4.4,0,0,1,.03-.516h0a3.221,3.221,0,0,1,1.333-1.793c.043-.161.258-.111.313-.257a1.61,1.61,0,0,0,.56-.5,2.337,2.337,0,0,0-.025-.713h-.031c-.026,0-.051-.036.02-.132a1.114,1.114,0,0,0,.012.133,1.082,1.082,0,0,0,.161,0l.1-.147c.08-.177-.017-.446.268-.518a4.427,4.427,0,0,0,.776-.912c.093-.106.158-.251.331-.241.082-.12.274-.084.336-.229a.765.765,0,0,1,.557-.929l.043-.01c0-.05-.006-.106.069-.1a.807.807,0,0,1,.4-.265c0-.049.029-.065.07-.069.02-.069.049-.11.123-.038a.986.986,0,0,0,1.049-.489c.1-.154.2-.225.372-.17.043-.014.084-.025.126-.038.041-.07.086-.14.127-.21-.084-.2-.119-.49-.4-.114a.573.573,0,0,1-.538.186c-.222-.03-.346-.135-.328-.365.014-.158.043-.315.067-.47h-.035a.37.37,0,0,1,0-.094c-.134-.107-.255.064-.381.06h0l.012.01-.018.011a.027.027,0,0,1,.006-.021h0a5.093,5.093,0,0,1,.96-.339l.462-.2c0-.051.047-.054.085-.065a1.15,1.15,0,0,0,.49-.806c0-.331-.445-.655-.88-.664a.553.553,0,0,1-.5-.237.432.432,0,0,0-.217-.241c-.171-.117-.313-.323-.521-.328s-.254.246-.368.386-.439.1-.444-.043c-.016-.36-.253-.279-.462-.279s-.422-.012-.63,0c-.111.009-.287-.056-.3.158-.062.19.055.419-.127.58a.362.362,0,0,0-.041.287,1.254,1.254,0,0,1-.4.98c-.049.357.021.747-.3,1.026a.286.286,0,0,1-.33.076c-.128-.064-.109-.185-.1-.314a4.455,4.455,0,0,0-.039-.588,1.892,1.892,0,0,1-.969-.134c-.1-.006-.2-.015-.3-.021-.118-.006-.27.041-.313-.114a.364.364,0,0,1,.094-.328,8.214,8.214,0,0,1,1.217-1.11c.153-.085.282-.313.49-.059.063.074.167.022.232-.049a.712.712,0,0,1,.506-.17c.164-.19-.047-.147-.118-.181-.159-.077-.26-.182-.09-.323a.337.337,0,0,0,.135-.384.176.176,0,0,1,.041-.187,1.138,1.138,0,0,1,.964-.053c.047.032.109.084.059.126-.148.135-.094.46-.414.438-.093,0-.157.078-.193.164a.075.075,0,0,0,.031.1l.014,0a.248.248,0,0,0,.275-.057.41.41,0,0,1,.488-.06,1,1,0,0,0,.338.129c.223,0,.487.061.651-.118a.284.284,0,0,0,.043-.4.291.291,0,0,0-.043-.043c-.174-.135.207-.232.1-.427a.214.214,0,0,0-.177-.109c-.184-.044-.438,0-.541-.085-.293-.243-.607-.176-.929-.2-.646-.053-.673-.09-.618-.724.015-.17-.024-.206-.164-.185a1.949,1.949,0,0,0-.954.489c.152.128.3.079.447.094-.142.257-.3.138-.421.052a2.324,2.324,0,0,1-.632.787c-.111.09-.2.1-.078.267a.214.214,0,0,1-.145.336c-.136.017-.206-.2-.194-.214.178-.277-.125-.234-.237-.327.126-.135.3-.088.4-.151.166-.1.032-.254,0-.438-.133.173-.206.352-.447.228-.069-.036-.284.074-.339.218-.044.115.12.072.166.14a.192.192,0,0,1,.038.181c-.031.088-.1.077-.163.061a1.037,1.037,0,0,0-1.2.519c.063.12.264-.074.262.087-.007.477.292.229.447.179.276-.091.524-.268.775-.218-.437.156-.867.524-1.483.3a1.532,1.532,0,0,0-1.168.169c-.507.269-1.063.06-1.57.237-.021.008-.094.036-.085-.047.022-.22-.132-.126-.212-.1s-.164.043-.246.065a15.652,15.652,0,0,0-2.3,2.565l.011.01c.178.192.044.289-.065.377a1.411,1.411,0,0,0-.487.806c-.115.492-.571.809-.612,1.324,0,.012-.032.029-.052.035-.372.082-.328.378-.3.633a.467.467,0,0,1-.1.392c-.174.208-.343.419-.513.63a15.56,15.56,0,0,0,.624,11.2,7.267,7.267,0,0,0,2.106.574.459.459,0,0,0,.252-.07,1.864,1.864,0,0,1,1.3-.009,4.529,4.529,0,0,0,1.339.472,2.081,2.081,0,0,1,1.185.6.529.529,0,0,1,.256.4c.018.177.146.375.346.316a.52.52,0,0,1,.533.174c.421.425.993.318,1.487.474.114.036.333-.021.229-.265a.6.6,0,0,1,.351-.633.324.324,0,0,1,.4.221.306.306,0,0,1,.013.09c0,.068.073.135.124.191a2.327,2.327,0,0,1,.617,1.194c.063.359.2.776-.108,1.093-.246.255-.167.685-.518.875-.08.044-.05.162-.061.251a4.762,4.762,0,0,1-.082.492.659.659,0,0,0,.382.849.614.614,0,0,0,.073.022c.076.029.069.079.051.128a2.842,2.842,0,0,1-.147.334.585.585,0,0,0,.105.821l.032.023a15.522,15.522,0,0,0,16.552-6.11A1.123,1.123,0,0,0,208.2,101.222ZM191.62,85.982c.112-.031.246-.214.358.009a.463.463,0,0,1-.552.214l-.094.015c.025-.166.168-.2.288-.237Zm-.053-6.9c.041-.05.319-.084.047-.222-.041-.019.024-.058.072-.047.1.024.185-.087.328,0-.28.166-.385.369-.084.671a2.264,2.264,0,0,0-.264-.076c-.271-.042-.242-.158-.1-.325ZM189.6,86.209a.643.643,0,0,0-.222.434.873.873,0,0,1-.5.794c-.206-.322,0-.542.18-.768l0,0h.012a.038.038,0,0,0,.032-.02c.078-.094.192-.177.221-.284a.7.7,0,0,1,.563-.529.963.963,0,0,1-.281.375Zm1.04.665c-.1.331-.271.394-.578.209.29-.063.434-.395.782-.382-.068.054-.137.111-.2.17Zm.192-1.188c.016,0,.051.014.054.028.046.2-.082.355-.147.522-.041.1-.153.22-.288.176-.113-.039-.142-.152-.087-.278.067-.162.027-.286-.191-.31.213-.265.452-.093.66-.141Zm-2.209-.073.1-.018c.073-.076.129-.184.264-.14-.013-.058.021-.071.07-.066-.006-.1.082-.1.14-.135l-.009.012a1.372,1.372,0,0,1,.434-.3c.236-.053.459-.082.606.18a.175.175,0,0,1-.02.24c-.116.1-.29.072-.425.167a.251.251,0,0,1-.356.009.218.218,0,0,1-.044-.056c-.086-.121-.189.024-.271.085-.13.1-.224.248-.419.237-.23-.015-.165-.111-.069-.22Zm-.458-1.684a.83.83,0,0,1-.14.588c-.17-.288-.148-.4.14-.593Zm-.522-1.884c-.231.047-.371.191-.565.2.2-.032.241-.419.565-.2Zm6.672,17.671a.275.275,0,0,1-.245-.263c-.008-.11-.008-.222.12-.283a.383.383,0,0,1,.254.319c.018.094-.008.231-.131.222Z" fill="#7d9bc7"/>
          <g id="Gruppe_2263" data-name="Gruppe 2263">
            <path id="Pfad_3092" data-name="Pfad 3092" d="M189.03,125.473h18.408v2.332H189.03Z" fill="#7d9bc7"/>
            <path id="Pfad_3078" data-name="Pfad 3078" d="M207.439,127.323v.481H189.03v-2.332h2.759C191.655,126.091,192.7,127.687,207.439,127.323Z" fill="#566a9e"/>
          </g>
        </g>
        <g id="Gruppe_2265" data-name="Gruppe 2265">
          <path id="Pfad_3079" data-name="Pfad 3079" d="M213.825,109.616c-1.054-12.122-.644-32.1-.64-32.3l.787.016c0,.2-.413,20.133.637,32.213Z" fill="#001b44"/>
          <path id="Pfad_3080" data-name="Pfad 3080" d="M217.022,108.432c0-.1-.533-10.272-.533-13.86s.846-10.413.854-10.482l.782.1c-.009.068-.849,6.83-.849,10.384s.527,13.716.532,13.818Z" fill="#002944"/>
          <path id="Pfad_3081" data-name="Pfad 3081" d="M227.646,79.472a4.385,4.385,0,0,0-1.952-.546c.074-.4.146-.85.184-1.266a10.326,10.326,0,0,1,1.587-.59c2.326-.64,3.638,1.591,3.719,1.734-.084-.148-1.626-2.808-4.019-2.575a9.5,9.5,0,0,0-1.372.224c-.323-.672-1.286-.827-1.914-1.5,1.148-2.011,2-4.4,1.844-5.93-.24-2.4-1.441-1.261-1.441-1.261l-2.762,2.943a9.743,9.743,0,0,1,6.727-6.546,6.214,6.214,0,0,0-4.477,1,3.078,3.078,0,0,0-1.529-3.823,3.749,3.749,0,0,0-3.582.167l-.31-1.546a3.789,3.789,0,0,0,1.969-.9c1.982-1.682,1.563-3.124,1.563-3.124l-.761.349c.894-1.171,2.79-4.15,2.742-5.873-.059-2.162,2.883-3.484,2.883-3.484-1.329.134-2.2,1-3.189,2.108a6.288,6.288,0,0,0,.187-1.027s-3.063-.841-4.323.961c-.176.25-.341.481-.5.7a7.538,7.538,0,0,0-.762-3.521,11.779,11.779,0,0,1-1.566,2.939,12.475,12.475,0,0,0-1.519,4.614c-.25.031-.5.08-.7.125.148-1.385.215-2.5.415-3.417.3-1.381,2.462-2.4,2.582-3.843a5.164,5.164,0,0,1,1.081-2.582,8.675,8.675,0,0,0-3,1.74,10.753,10.753,0,0,0-1.464,3.42,11.038,11.038,0,0,0-.7-2.759,3.756,3.756,0,0,0-.688,1.765,34.845,34.845,0,0,0-2.314-4.467s-.173,2.174-.138,4.32l-1.655-2.516.481,2.341-1.562-1.021a22.653,22.653,0,0,0,2.171,7.5c-.713-.945-1.452-1.874-2.05-2.513-1.741-1.862-3.363-4.084-5.1-4.5a9.507,9.507,0,0,1-2.943-1.261s-.48,1.081,1.382,1.982c.1.05.206.1.311.162a4.546,4.546,0,0,0-2.173.559s1.863.18,3.964,2.583c1.535,1.754,2.4,2.1,3.2,2.251.036.07.072.139.107.211a4.379,4.379,0,0,0,.243.434,12.138,12.138,0,0,1-3.426.046c-1.322-.3-3.363,1.561-3.363,1.561a4.8,4.8,0,0,1,2.282-.6c1.142.06,1.081-.78,2.343-.48a12.982,12.982,0,0,1,3.86,1.676c.449.6.966,1.214,1.493,1.8-.895-.445-3.492-1.916-3.492-1.916s-2.4.18-2.823.241-4.323,5.224-4.323,5.224,1.442-1.141,2.7-1.922.721-2.582,1.8-2.823a6.873,6.873,0,0,1,3.424.541,7.391,7.391,0,0,1,1.644,1.008.424.424,0,0,0-.192.069,4.183,4.183,0,0,0-3.975,2.647c-1.081,3-.24,4.325-.24,4.325s-.961-2.4,2.1-3.9a6.3,6.3,0,0,0,2.434-1.856,21.281,21.281,0,0,0,2.3,2.474,2.213,2.213,0,0,1-.712-.2v.182l-3-.242s-.18.6,1.381,1.021l-.24.781-3.242.18a4.851,4.851,0,0,0,2.462,1.021s-2.162,2.041-2.1,3.3l3.543-2.582s1.073.257,1.731.337c.025.068.05.136.076.2-.5.448-1.5,1.762.055,4.265a12.212,12.212,0,0,1,.685-3.089.931.931,0,0,0,.1.085l.07-.318a.5.5,0,0,1,.05-.041c.6-.421-.06,3.062.421,4.143l-1.982-.9s0,2.642,1.5,3.9c.8.671,1.871,1.682,2.7,2.482a2.236,2.236,0,0,1-1.856-1.04s-4.565-1.5-6.126,1.5A10.3,10.3,0,0,0,205.5,83.2s1.261-4.744,4.625-5.345c.646-.115,1.143-.213,1.533-.292a2.472,2.472,0,0,0,.269.653,10.35,10.35,0,0,0,1.671,1.963,9.767,9.767,0,0,0-3.653.981c-1.081.841-3.6,3.783-3.483,5.344a7.288,7.288,0,0,1,2.7-3.483c1.861-1.081.721-2.1,2.7-1.8,1.181.179,2.532.38,3.432.513l.115.1a4.562,4.562,0,0,0,.6,2.033,12.842,12.842,0,0,1,1.2,5.765,10.6,10.6,0,0,0,2.043-5.345c.039-.954.059-1.868.068-2.664,1.48-.8,4.659-2.394,6.151-2.153a1.085,1.085,0,0,1,.075.263c.016-.073.033-.154.052-.241,1.859.424.573,1.375,2.3,1.791a6.068,6.068,0,0,1,3.474,2.947,8.638,8.638,0,0,0-3.715-4.749m-4.444-2.7a3.262,3.262,0,0,0,.493.645c-.26.162-.532.329-.854.5a15.094,15.094,0,0,1-1.966.834,10.108,10.108,0,0,1,.885-.954A9.9,9.9,0,0,0,223,76.362c.063.128.13.268.212.421m-2.041-8.948a3.7,3.7,0,0,1-.842-1.8l1.489.924c-.219.27-.436.559-.647.878m.36-4.323a6.5,6.5,0,0,1,1.878,1.917A8.426,8.426,0,0,0,222.2,66.52c-.068.074-.137.153-.2.232-.2-.646-.879-1.949-3.163-2.217-.073-.009-.141-.018-.206-.028-.164-.322-.274-.513-.274-.513a1.623,1.623,0,0,0-.394.325c-1.086-.569,2.229-1.738,3.577-.8m-5.1-.3.72-1.922,1.075.478a9.042,9.042,0,0,0-1.794,1.444m4.8-12.732a6.772,6.772,0,0,0,1.225-.206,13.911,13.911,0,0,1-1.825,1.648,9.071,9.071,0,0,0-2.788,2.892,2.4,2.4,0,0,0-.356-.579,2.6,2.6,0,0,0,1.4-2.072c.18-1.741.719-1.5,2.341-1.682m-1.8,30.477c.183-.342.406-.722.663-1.118a16.556,16.556,0,0,0,1.734-.231,10.525,10.525,0,0,0,2.768-1.27,7.275,7.275,0,0,1,.537.6,13.045,13.045,0,0,0-5.7,2.019" fill="#728eb8"/>
          <path id="Pfad_3082" data-name="Pfad 3082" d="M217.181,99.112s.19-.255,2.417-3.945,1.592-8.4,1.592-8.4a11.91,11.91,0,0,1-2.164,4.263c-1.845,2.545-2.036,4.2-2.036,4.39a5.545,5.545,0,0,1-.382-3.945c.636-2.1-1.273-5.091-1.273-5.091a29.715,29.715,0,0,1-1.972,5.344,5.062,5.062,0,0,0-.48,2.08,10.765,10.765,0,0,0-.919-1.762c-1.145-1.718-1.909-3.181-1.909-3.181a9.254,9.254,0,0,0,1.16,7.924,3.8,3.8,0,0,0-3.9-1.5c2.354.573,3.626,2.482,2.227,1.781s-3.372.446-3.372.446a20.544,20.544,0,0,1-2.037,1.081c-1.781.891-1.208,0-2.29,1.337a2.461,2.461,0,0,0-.127,2.8,21.786,21.786,0,0,1,4.835-4.39c2.991-1.972,5.918,2.037,6.109,2.354s1.654.255,2.291.891.127,3.945.127,3.945a6.186,6.186,0,0,0,1.018-3.754,1.2,1.2,0,0,1,2.036-.637c1.591,1.082,1.146,4.772,1.146,4.772s1.208-3.055.572-5.282c-.372-1.306-.745-1.56-.99-1.548.63-.336,2.133-1.143,2.582-1.442.573-.382,2.036.318,2.036.318a14.248,14.248,0,0,0-2.1-.828c-.637-.127-4.2,1.972-4.2,1.972" fill="#728eb8"/>
          <path id="Pfad_3083" data-name="Pfad 3083" d="M206.025,107.777l3.261,17.846a3.808,3.808,0,0,0,3.748,3.125h6.085a3.808,3.808,0,0,0,3.751-3.143l3.168-17.828Z" fill="#354761"/>
        </g>
        <path id="Pfad_3084" data-name="Pfad 3084" d="M42.892,89.427c.643.2.526,2.775,0,2.951-.251.084-8.159-.027-16.2-.039-8.737-.013-17.663.065-17.86-.05-.54-.314-.877-2.6.117-2.863.508-.135,9.268-.079,17.744-.068C34.764,89.365,42.579,89.327,42.892,89.427Z" fill="#496287"/>
        <g id="Gruppe_2266" data-name="Gruppe 2266">
          <path id="Rechteck_434" data-name="Rechteck 434" d="M10.882,97.8H3.7a.413.413,0,0,1-.418-.41V92.3a.414.414,0,0,1,.414-.414h7.186V97.8Z" fill="#7d9bc7"/>
          <rect id="Rechteck_435" data-name="Rechteck 435" x="9.129" y="92.8" width="32.098" height="4.051" fill="#fff"/>
          <rect id="Rechteck_436" data-name="Rechteck 436" x="8.681" y="96.851" width="33.014" height="0.953" rx="0.171" fill="#7d9bc7"/>
          <rect id="Rechteck_437" data-name="Rechteck 437" x="8.681" y="91.884" width="33.014" height="1.042" rx="0.171" fill="#7d9bc7"/>
        </g>
        <g id="Gruppe_2267" data-name="Gruppe 2267">
          <path id="Pfad_3085" data-name="Pfad 3085" d="M5.06,103.489a37.168,37.168,0,0,0,5.005.126c.645,0,1.333,0,2.062,0h2.066c2.688-.01,5.722-.019,8.727-.01,8.045.024,15.949.243,16.2.074.529-.35.645-5.492,0-5.9-.313-.2-8.129-.116-16.2-.136-3-.009-6.039-.018-8.727-.023H10.065a44.073,44.073,0,0,0-4.889.154C4.541,98.02,4.518,102.863,5.06,103.489Z" fill="#24324f"/>
          <path id="Pfad_3086" data-name="Pfad 3086" d="M10.062,97.613v6c.645,0,1.333,0,2.062,0v-6C11.4,97.609,10.707,97.613,10.062,97.613Z" fill="#fff"/>
          <path id="Pfad_3087" data-name="Pfad 3087" d="M12.988,97.609v6h1.206V97.616Z" fill="#fff"/>
        </g>
        <g id="Gruppe_2268" data-name="Gruppe 2268">
          <path id="Rechteck_438" data-name="Rechteck 438" d="M30.827,84.651h7.182a.414.414,0,0,1,.418.41v4.1a.414.414,0,0,1-.414.414H30.827V84.651Z" fill="#c6d1ec"/>
          <rect id="Rechteck_439" data-name="Rechteck 439" x="0.482" y="84.777" width="32.098" height="3.849" fill="#fff"/>
          <rect id="Rechteck_440" data-name="Rechteck 440" x="0.015" y="88.627" width="33.014" height="0.953" rx="0.171" fill="#c6d1ec"/>
          <rect id="Rechteck_441" data-name="Rechteck 441" y="84.646" width="33.014" height="1.042" rx="0.171" fill="#c6d1ec"/>
        </g>
        <path id="Pfad_3088" data-name="Pfad 3088" d="M39.125,79.82c.642.339.526,4.606,0,4.9-.252.139-8.16-.045-16.2-.065-8.737-.022-17.663.108-17.861-.083-.54-.519-.876-4.314.116-4.75.509-.223,9.269-.131,17.744-.113C31,79.72,38.811,79.656,39.125,79.82Z" fill="#28497c"/>
        <g id="Gruppe_2269" data-name="Gruppe 2269">
          <path id="Pfad_3089" data-name="Pfad 3089" d="M8.462,82.828V81.571a1.2,1.2,0,0,1,1.2-1.2H34.844a1.2,1.2,0,0,1,1.2,1.2v1.261a1.2,1.2,0,0,1-1.2,1.2H9.655A1.2,1.2,0,0,1,8.462,82.828Zm1.2-2.018a.757.757,0,0,0-.756.756v1.261a.757.757,0,0,0,.756.756H34.844a.757.757,0,0,0,.756-.756V81.571a.758.758,0,0,0-.756-.756Z" fill="#496287"/>
        </g>
        <g id="Gruppe_2270" data-name="Gruppe 2270">
          <path id="Pfad_3090" data-name="Pfad 3090" d="M116.909,23.783a1.04,1.04,0,0,1-.873.379c-.643.016-1.042-.388-1.376-.148s-.29.637.365.917,1.419.313,1.707-.044A.9.9,0,0,0,116.909,23.783Z" fill="#d5b4a8" fill-rule="evenodd"/>
        </g>
      </g>
    </g>
  </g>
</svg>
