<svg xmlns="http://www.w3.org/2000/svg" viewBox="0 0 232.57 152.726">
  <title>A_studium_3</title>
  <g id="Ebene_2" data-name="Ebene 2">
    <g id="Ebene_1-2" data-name="Ebene 1">
      <g>
        <g>
          <path d="M70.47,101.513c-.064-.235-.128-.472-.191-.706v0h0c-.043-.151-.085-.3-.116-.451l-.012,0h0c-.425-1.527-.871-3.062-1.186-4.613-.4-1.981-.247-3.832-.5-5.723h0a3.245,3.245,0,0,0-.056-.385h0v-.008a9.812,9.812,0,0,0-.661-2.334c-.948-2.222-2.214-4.156-2.843-6.43h0a3.258,3.258,0,0,1-.1-.448l-.012,0v0c-.043-.174-.078-.353-.111-.531A40.376,40.376,0,0,0,63,73.507a9.887,9.887,0,0,0-1.049-2.252h0a2.842,2.842,0,0,0-.3-.378h0l0,0a2.57,2.57,0,0,0-.632-.544c-.29-.154-.587-.293-.887-.423a7.085,7.085,0,0,0-.162-.875c-.757-1.879-3.085-2.338-4.845-2.635a16.428,16.428,0,0,1-6.772-2.449,7.423,7.423,0,0,0,.016-3.5c-.032-.159-.07-.317-.11-.474-.34-1.308-1.058-2.477-1.393-3.77a11.1,11.1,0,0,0-.7-2.212h.009l-1.238-3.527a10.3,10.3,0,0,0,1.279-2.848c.171-.171.353-.331.513-.513a4.742,4.742,0,0,0,.355-.529c-.087.464-.126.968-.169,1.182a20.868,20.868,0,0,0-.38,2.805,5.589,5.589,0,0,0,0,.66l2.049.014c-.04-.916-.13-1.9-.258-2.832a10.675,10.675,0,0,0-.339-2.436,1.108,1.108,0,0,0,.125-.092.868.868,0,0,0,.053-1.225c-.006-.006-.014-.01-.02-.016a4.848,4.848,0,0,1,.269-.417,10.645,10.645,0,0,0,2.539-4.483,11.416,11.416,0,0,0-.405-5.719,15.74,15.74,0,0,0-6.3-8.85,11.383,11.383,0,0,0-5.473-2.221,8.811,8.811,0,0,0-4.7,1,8.971,8.971,0,0,0-3.474.837,13.156,13.156,0,0,0-3.13,2.532,9.31,9.31,0,0,0-2.632,7.7,13.407,13.407,0,0,1,.1,2.327,21.552,21.552,0,0,0-.382,2.422,4.869,4.869,0,0,0,.874,2.455c.168.3.352.59.534.881a3.078,3.078,0,0,0,.748,1.408,1.041,1.041,0,0,0,.277,1.454,10.906,10.906,0,0,0-.312,1.722,21.178,21.178,0,0,0-.379,2.8,5.3,5.3,0,0,0,0,.667l2.05.008c-.043-.917-.131-1.9-.26-2.832a10.6,10.6,0,0,0-.34-2.44,1.1,1.1,0,0,0,.126-.093c.012-.011.016-.026.028-.037.244.287.5.564.76.839a17.718,17.718,0,0,0,1.579,3.324,10.064,10.064,0,0,0,1.721,2.046c-.025,1.2-.056,2.4-.158,3.595a10.4,10.4,0,0,1-.647,3.524,7.4,7.4,0,0,1-2.806,2.875c-.736.484-4.318,1.975-5.714,2.549-.321-.061-.625-.117-.89-.163a6.114,6.114,0,0,0-2.335,0h0l-.006-.007a.205.205,0,0,0-.134,0,9.5,9.5,0,0,0-5.251,4.577c-.1.2-.206.4-.309.6-.063.133-.123.265-.183.4-.11.246-.213.5-.307.752-1.311,3.537-3.1,7.29-3.266,11-.008.139-.011.277-.011.41v.009a30,30,0,0,1-.873,7.035,28.1,28.1,0,0,0-.591,3.2c-.021.141-.038.281-.053.425-.1.77-.192,1.555-.291,2.346a38.259,38.259,0,0,0-.206,5.319v.373c0,.321,0,.633.009.952.013,1.046.03,2.09-.022,3.147-.067,1.293.369,2.3-.226,3.434a5.845,5.845,0,0,0-.617,2.024c-.021.137-.033.271-.045.411-.176,2.163.4,4.493-.155,6.585a.1.1,0,0,1-.041-.009,2.516,2.516,0,0,0-1.322-.064,1.172,1.172,0,0,0-.476.331,1.1,1.1,0,0,0-.236.4,4.16,4.16,0,0,0,.033,2.082,5.126,5.126,0,0,1,.147.8l-.313-.1-.09,22.767H63.461c-.121-1.927-.232-3.407-.322-4.066-.35-2.555-1.816-12.961-1.973-15.661-.031-.419-.087-.835-.135-1.252.066.04.12.072.149.088.735.392,4.79-1.393,3.76-4.129a6.463,6.463,0,0,1-.25-2.918,4.635,4.635,0,0,0,2.31-.055c1.254-.562,2.818-3.114,3.711-4.128a3,3,0,0,0,.531-1.691c.013-.148.022-.3.026-.45.041-1.013-.039-2.106.067-2.819C71.567,104.815,70.884,103.087,70.47,101.513Z" fill="#264677"/>
          <path d="M75.858,109.444c0,.9-.08,1.431.634,2.106a5.135,5.135,0,0,1,1.368,2.133c-1.154,9.471-2.6,20.926-2.4,21.443.263.668,2.24.4,4.085.8,1.642.353,3.663,2.184,4.088,2.583.027,1.775.06,3.48.1,5.038h53.827c.02-1.947.032-3.8.031-5.513A10.865,10.865,0,0,1,141.744,136c2.24-.266,3.031.267,3.031-4.948a74.87,74.87,0,0,0-1.969-8.721c3.483-.732,7.366-2.256,7.8-5.427.247-1.794-.428-6.506-1.482-12.18a9.24,9.24,0,0,0,1.093-1.509c1.571-2.7.456-5.546-.071-9.95v0h.01a66.775,66.775,0,0,1,7.977.924c.023.16.062.318.074.48.041.544.624,4.1,1.241,8.7v0h0c.914,6.739,1.917,15.709,1.48,20.719-.2,2.27-.608,4.693,2.089,5.352a5.707,5.707,0,0,0,1.583.14,35.745,35.745,0,0,0-.664,7.369c.063,1.319.072,2.646.052,3.958,0,.147,0,.29-.008.441-.013.735-.042,1.466-.062,2.2h67.988c.444-.342.692-.6.661-.742-.279-1.276-5.313-25.578-6.235-26.216h0l-4.143-5.493c.778-.691,1.52-1.418,2.612-2.282,4.294-3.381,3.389-8.1,2.216-12.776-.743-2.962-2.465-5.48-4.013-8.067-2.189-3.664-8.287-15.915-9.212-18.319-1-2.592-2.12-5.442-4.21-7.429a8.12,8.12,0,0,0-1.283-.975c-2.484-2.227-9.307-4.495-10.45-4.018-.233.1-.527.225-.848.366a13.642,13.642,0,0,1-3.269-1.359,7.756,7.756,0,0,1-3.768-5.725c-.229-1.467-.4-2.94-.538-4.417a18.008,18.008,0,0,0,1.762-5.247c.076-.276.14-.554.207-.832a1.138,1.138,0,0,0,.3.032c1.41-.137,2.269-2.1,1.858-4.955-.249-1.726-.957-2.02-1.478-1.986a7.233,7.233,0,0,0,.122-.758c.027-.253.021-.5.027-.758l0,0V31.51c.006-.269.006-.536-.011-.8-.02-1.294-.066-3.726-.153-5.261a16.255,16.255,0,0,0-.839-5.473c-.873-2.009-3.546-2.66-5.572-1.964a2.518,2.518,0,0,0-2.312-1.652c-2.053-.271-3.824.74-5.489,1.8a4.6,4.6,0,0,1-.719.308s-.045-.193-.06-.3c-.236-.33-.261-.66-.666-.842a1.533,1.533,0,0,0-1.225.066,5.036,5.036,0,0,0-1.67,1.378.951.951,0,0,0-.55-.453c-.923-.274-1.974.527-2.488,1.211a7.207,7.207,0,0,0-1.24,3.582,28.5,28.5,0,0,0,1.194,11.023.206.206,0,0,0,.091.1,9.5,9.5,0,0,0,.3,1c-.518.042-1.168.438-1.184,2.165-.025,2.88,1.095,4.714,2.51,4.658a1.067,1.067,0,0,0,.283-.07c.134.46.267.919.421,1.373l.088.25a11.741,11.741,0,0,0,4.21,6.027c.129.08.266.141.4.213.08.576.15,1.154.2,1.738a9.941,9.941,0,0,1-.513,4.955,7.411,7.411,0,0,1-3.076,2.817,2.4,2.4,0,0,0-1.033-.246c-.028-.01-.047-.031-.082-.029a20.828,20.828,0,0,0-5.541,1.1,3.848,3.848,0,0,0-.326-.609c-.57-.567-3.479,1.347-3.414,1.63.006.029.082.233.209.569-2.6,1.407-4.046,2.174-6.638,3.769-2.71,1.664-9.33,5.992-12.637,8.037-1.679-5.277-3.159-10.616-4.4-16.015a12.026,12.026,0,0,0-6.524-8.941A12.315,12.315,0,0,0,134,47.287c.057-.558.236-1.287-.251-1.739a1.666,1.666,0,0,0-1.6-.219l-.071.013c-.012,0-.017.012-.029.015a1.53,1.53,0,0,0-2.582-.513c-.062.073-.1.159-.16.237a1.26,1.26,0,0,0-1.771-.2,2,2,0,0,0-.175.144c-.285-.587-.726-1.331-1.458-1.268-.625.053-.912.74-1.079,1.255a5.317,5.317,0,0,0-.282,1.615c-1.119-.072-2.095-.1-2.772-.109a.6.6,0,0,0-.136-.322,5.158,5.158,0,0,0-2.922-.762,4.764,4.764,0,0,1-2.176-2.375,26.136,26.136,0,0,1-.757-5.859,14.469,14.469,0,0,0,2.466-5.265c.161-.581.3-1.168.436-1.755.015,0,.027.007.043.007,1.413-.069,2.364-1.992,2.09-4.859-.116-1.208-.488-1.731-.879-1.937l.117-.079a1.7,1.7,0,0,0,1.5-.626c.758-.848.419-1.745.616-2.733.152-.758.591-.771.971-1.352a2.284,2.284,0,0,0,.331-1.232,4.591,4.591,0,0,0-.4-1.706,3.257,3.257,0,0,0,.965-2.325,2.909,2.909,0,0,0-.857-1.713,3.479,3.479,0,0,1-.974-1.347c-.139-.477-.084-1-.191-1.484A2.734,2.734,0,0,0,119.58,6.5a9.591,9.591,0,0,0-.822-1.775,3.2,3.2,0,0,0-2.266-1.351c-1.344-.17-2.1.536-3.231,1.1-1.681.845-3.522-.288-5.236-.5a6.375,6.375,0,0,0-3.217.33,4.372,4.372,0,0,0-1.321.836,20.188,20.188,0,0,1-1.922,1.692,1.721,1.721,0,0,0-.815,2,1.533,1.533,0,0,0-.152-.057,3.725,3.725,0,0,0-2.212.049,4.778,4.778,0,0,0-2.9,3.2c-.126.4-.159.821-.278,1.226a4.219,4.219,0,0,1-1.048,1.572,2.8,2.8,0,0,0-.688,1.943c.015,1.364.5,3.117,1.849,3.716.2.371.168.755.342,1.129a1.47,1.47,0,0,0,.8.726,1.369,1.369,0,0,0,.3.574,2.2,2.2,0,0,0,1.113.588,2.534,2.534,0,0,0-.722,1.835c-.274,2.867.677,4.79,2.09,4.859a1.18,1.18,0,0,0,.469-.072,22.534,22.534,0,0,0,1.619,4.369c.307.517.622,1.043.963,1.547a43.677,43.677,0,0,1-.822,6.864c-.3.838-1.7,1.773-3.366,2.591h0s-7.4.191-11.332,1.443a13.154,13.154,0,0,0-7.368,4.077c-1.745,1.935-4.387,13.083-3.972,16.168s-.64,10.9-1.432,15.017.264,7.394,0,10.034-1.52,9.138-.3,11.036a14.643,14.643,0,0,1,1.818,4.057A8.5,8.5,0,0,1,75.858,109.444Zm134.867,9.138c.985-.931,3.721-1.81,4.758-2.687a30.215,30.215,0,0,1,2.9-2.1l3.153,4.183c-3.612,1.421-8.248,3.486-10.282,4.261-.01-.08-.02-.161-.031-.241a20.577,20.577,0,0,0-.429-2.346c-.061-.316-.131-.632-.2-.948C210.637,118.661,210.685,118.625,210.725,118.582Z" fill="#264677"/>
        </g>
        <path d="M59.363,143.9c-.188-3.358-.366-6.113-.5-7.086-.352-2.568-1.825-13.025-1.983-15.739a31.926,31.926,0,0,0-1.748-8.31c-.48-1.449-.954-2.9-1.293-4.377-.083-.25-.174-.5-.251-.75a.219.219,0,0,0-.2-.162,18.065,18.065,0,0,1-5.048-1.3,7.967,7.967,0,0,0-3.872-.917c-1.679.128-3.338.441-5.023.541-1.651.1-3.3.13-4.944.134-3.3.008-6.6-.076-9.891.146a42.994,42.994,0,0,0-4.567.542,31.962,31.962,0,0,1-4.258.587c.11-.206.215-.406.332-.606.134-.239-.222-.465-.352-.221-.157.28-.311.561-.459.843-.149,0-.3-.009-.45-.016-.035.145-.069.287-.1.43.1,0,.215.008.322.01-.207.387-.4.773-.6,1.169-1.207,5.13-2.285,10.292-3.031,15.513-.768,5.37-.869,10.76-1.381,16.15-.109,1.136-.22,2.278-.319,3.419Z" fill="#476593"/>
        <path d="M107.022,143.9l3.817-31.012-31.526,1.959s0,19.8.334,29.053Z" fill="#c5d0eb"/>
        <path d="M105.638,143.9h27.977c.134-8.966.075-16.262-.193-19.188-.722-7.848-2.125-15.6-4.6-15.06s-12.172-1.021-14.637.565a84.521,84.521,0,0,0-9.038,6.906c-.373.618-.068,20.351-.068,20.351S105.288,140,105.638,143.9Z" fill="#c5d0eb"/>
        <path d="M160.161,134.265c.064,1.326.073,2.659.052,3.978,0,.148,0,.291-.008.443-.031,1.741-.089,3.475-.145,5.21h48.419c-.369-2.689-.8-5.311-1.3-7.6-.1-.413-.184-.825-.274-1.211-.029-.143-.065-.282-.095-.421-.893-3.868-1.635-6.521-2.27-10.832-.36-2.451-1-2.783-2.443-4.494a.138.138,0,0,1-.017-.025.663.663,0,0,0-.332-.443c-1.316-1.953-1.371-4.669-1.4-6.985a.2.2,0,0,0-.134-.257h0a.207.207,0,0,0-.259.136l-.006.025a.211.211,0,0,0,0,.1c0,.472.016.949.035,1.437a16.176,16.176,0,0,0,.449,3.471,10.017,10.017,0,0,0,.319,1,7.512,7.512,0,0,0,.39.833,4.649,4.649,0,0,0-.521-.1c-.161-.021-.322-.044-.423-.061h-.013a38.308,38.308,0,0,0-4.909-.5,51.467,51.467,0,0,0-6.331.221l-.432.039c-1.584.147-3.166.325-4.746.485l-8.554.869-.436.043-9.411.955-.466.044-3.026.309a17.326,17.326,0,0,0-.135-2.576c-.039-.273-.423-.156-.385.117a16.586,16.586,0,0,1,.133,2.5l-.569.06c-.252.026-.257.46,0,.435.184-.021.368-.038.553-.055C161.3,125.774,159.955,129.874,160.161,134.265Z" fill="#a4b2c8"/>
        <path id="Pfad_2749" data-name="Pfad 2749" d="M222.866,113.805,198.515,81.511l-2.656,4.249,23.377,31.016s1.387.774,1.922.249A19.377,19.377,0,0,0,222.866,113.805Z" fill="#4d72aa"/>
        <path id="Pfad_2750" data-name="Pfad 2750" d="M169.306,56.011a20.915,20.915,0,0,0-8.771,2.514c-2.845,1.542-4.295,2.3-7.017,3.975-3.568,2.19-13.9,8.991-14.621,9.184a2.036,2.036,0,0,0-1.351.787c-.325.536.64,2.6.655,3.185.028,1.033.1,2.054.222,3.074a34.311,34.311,0,0,0,1.069,5.339c.326,1.146.628,2.84,1.828,3.418,1.336.64,3.651,2.987,5,2.876,1.8-.157,13.662,1.823,13.662,1.823s-1.383-7.413.143-7.739a4.738,4.738,0,0,0,3.119-1.72,8.526,8.526,0,0,0,.658-2.579q.332-1.639.61-3.291.6-3.508.958-7.047t.487-7.094c.029-.794,1.967-6.2,3.4-6.28C169.626,56.42,169.581,55.993,169.306,56.011Z" fill="#213759"/>
        <path id="Pfad_2751" data-name="Pfad 2751" d="M196.264,55.2s-1.947-.412-2.869-.682a13.734,13.734,0,0,1-3.292-1.368,7.8,7.8,0,0,1-3.787-5.754,73.757,73.757,0,0,1-.775-7.4,3.134,3.134,0,0,0-.065-.911.214.214,0,0,0-.42.057c.021.3.042.607.063.912-.181,2.213-3.05,3.491-4.924,4.036a47,47,0,0,1-6.15,1.25c-.13-.712-.274-1.421-.449-2.125a.215.215,0,0,0-.413.111c.171.687.31,1.379.443,2.075l-.1.014c-.271.041-.156.454.11.413l.066-.008c.149.877.261,1.76.332,2.655a9.99,9.99,0,0,1-.516,4.979c-1.174,2.58-6.631,4.464-6.631,4.464a.587.587,0,0,0-.1.042,7.642,7.642,0,0,0,1.6,2.393,43.113,43.113,0,0,0,5.476,2.708,47.971,47.971,0,0,0,6.014,2.138c1.679.442,3.224-.523,4.7-1.238a56.938,56.938,0,0,0,10.463-6.541A8.655,8.655,0,0,0,196.264,55.2Z" fill="#735f5f"/>
        <path id="Pfad_2752" data-name="Pfad 2752" d="M169.205,40.459a11.792,11.792,0,0,0,4.231,6.057,8.2,8.2,0,0,0,7.619.516,9.815,9.815,0,0,0,4.557-3.739,18.087,18.087,0,0,0,1.934-5.607,24.945,24.945,0,0,0,.672-10.018,10.083,10.083,0,0,0-4.148-7.46c-2.424-1.96-5.854-2.035-8.874-1.244a10.353,10.353,0,0,0-5.874,3.542c-2.077,2.876-2.206,6.513-1.88,9.912a34.941,34.941,0,0,0,1.674,7.79Z" fill="#735f5f"/>
        <path id="Pfad_2753" data-name="Pfad 2753" d="M172.3,32.2c-.966-.192-.8,2.135-.093,2.153a.587.587,0,0,0,.442-.221C173.035,33.679,173.033,32.345,172.3,32.2Z" fill="#09111a"/>
        <path id="Pfad_2754" data-name="Pfad 2754" d="M182.442,31.323c-.921-.183-.766,2.034-.089,2.054a.564.564,0,0,0,.425-.213C183.142,32.734,183.141,31.462,182.442,31.323Z" fill="#09111a"/>
        <g id="Gruppe_1897" data-name="Gruppe 1897">
          <path id="Pfad_2755" data-name="Pfad 2755" d="M177.074,39.3a3.047,3.047,0,0,1-.458-.031.728.728,0,0,1-.523-.317c-.3-.456-.082-1.251.061-1.778.028-.1.053-.2.068-.27a12.693,12.693,0,0,0,.191-2.545.214.214,0,1,1,.425-.042h0a.131.131,0,0,1,0,.028,12.823,12.823,0,0,1-.2,2.646c-.018.079-.045.178-.075.293-.1.4-.31,1.135-.111,1.431a.293.293,0,0,0,.221.13,5.6,5.6,0,0,0,2.013-.234A.221.221,0,0,1,178.9,39a.236.236,0,0,1-.089.027A6.745,6.745,0,0,1,177.074,39.3Z" fill="#524444"/>
        </g>
        <path id="Pfad_2756" data-name="Pfad 2756" d="M174.927,41.078a27.578,27.578,0,0,0,3.12-.207c2.1-.264,3.1-.5,3.1-.5s-.358,1.824-2.964,2.1A3.582,3.582,0,0,1,174.927,41.078Z" fill="#fff"/>
        <g id="Gruppe_1898" data-name="Gruppe 1898">
          <path id="Pfad_2757" data-name="Pfad 2757" d="M178.365,48.231a8.394,8.394,0,0,1-4.377-1.136.214.214,0,0,1,.237-.356,8.532,8.532,0,0,0,5.6.946c3.077-.473,5.057-3.509,5.428-4.118l.194.091.18.11c-.393.651-2.476,3.833-5.739,4.334A10.229,10.229,0,0,1,178.365,48.231Z" fill="#524444"/>
        </g>
        <path id="Pfad_2758" data-name="Pfad 2758" d="M187.836,30.092s1.676-1.055,2.089,1.811-.45,4.842-1.867,4.979-1.832-2.09-1.832-2.09Z" fill="#735f5f"/>
        <path id="Pfad_2759" data-name="Pfad 2759" d="M167.713,32.142s-1.8-.819-1.826,2.075,1.1,4.738,2.522,4.681,1.532-2.324,1.532-2.324Z" fill="#735f5f"/>
        <path id="Pfad_2760" data-name="Pfad 2760" d="M174.465,30.135a1.326,1.326,0,0,0-.867-.163,12.427,12.427,0,0,0-1.982.332,3.27,3.27,0,0,0-1.558.619c-.392.366-.442.758.111.826A9.03,9.03,0,0,0,171.8,31.5q.68-.078,1.364-.111c.43-.021,1.094.091,1.445-.234a.751.751,0,0,0-.147-1.017Z" fill="#09111a"/>
        <path id="Pfad_2761" data-name="Pfad 2761" d="M179.989,29.724a.663.663,0,0,0,.11.879c.4.268,1.033.06,1.465.016q.679-.069,1.365-.094a9.015,9.015,0,0,0,1.651.007c.532-.143.43-.525-.012-.826a3.268,3.268,0,0,0-1.633-.38,12.352,12.352,0,0,0-2.008-.031,1.333,1.333,0,0,0-.833.288A.69.69,0,0,0,179.989,29.724Z" fill="#09111a"/>
        <path id="Pfad_2762" data-name="Pfad 2762" d="M187.654,23.858a10.734,10.734,0,0,0-7.6-6.04,12.222,12.222,0,0,0-5.245.455,11.465,11.465,0,0,0-4.536,2.181,25.143,25.143,0,0,0-1.939,2.2,7.154,7.154,0,0,0-1.4,2.054,9.751,9.751,0,0,0-.185,5.323.215.215,0,0,0-.139.245c.131.682.62,3.044,1.529,3.108a.215.215,0,0,0,.184-.1c.537-.826.244-2.117.1-3.013q-.274-1.651-.413-3.3a7.643,7.643,0,0,1,1.379-2.294c.847-.842,1.727-.275,2.683-.2a1.592,1.592,0,0,0,1.04-.251c.332-.207.553-.568.9-.753a2.838,2.838,0,0,1,1.445-.16,20.147,20.147,0,0,0,4.379-.472,9,9,0,0,1,2.521-.145,6.273,6.273,0,0,0,1.549-.012c.084,0,.174.008.268.008a3.744,3.744,0,0,1,.615.075,38,38,0,0,1,.854,4.6c.155.9.443,3.43,1.585,3.723,1.059.277,1.261-1.276,1.335-1.945A9.883,9.883,0,0,0,187.654,23.858Z" fill="#09111a"/>
        <g id="Gruppe_1899" data-name="Gruppe 1899">
          <path id="Pfad_2763" data-name="Pfad 2763" d="M187.992,34.566a.2.2,0,0,1-.12-.039.213.213,0,0,1-.061-.3l0,0h0a2.2,2.2,0,0,0,.31-.978,1.72,1.72,0,0,0-.183-.953.213.213,0,1,1,.36-.228h0a2.1,2.1,0,0,1,.248,1.217,2.6,2.6,0,0,1-.385,1.187A.213.213,0,0,1,187.992,34.566Z" fill="#524444"/>
        </g>
        <g id="Gruppe_1900" data-name="Gruppe 1900">
          <path id="Pfad_2764" data-name="Pfad 2764" d="M168.144,36.744a.213.213,0,0,1-.157-.068,2.592,2.592,0,0,1-.543-1.123,2.1,2.1,0,0,1,.079-1.238.214.214,0,1,1,.4.156l-.009.019a1.694,1.694,0,0,0-.051.969,2.219,2.219,0,0,0,.443.928.215.215,0,0,1-.014.3.218.218,0,0,1-.146.056Z" fill="#524444"/>
        </g>
        <path id="Pfad_2765" data-name="Pfad 2765" d="M188.428,22.207a16.364,16.364,0,0,0-.843-5.5c-.878-2.019-3.564-2.674-5.6-1.974a2.531,2.531,0,0,0-2.323-1.66c-2.064-.273-3.843.743-5.517,1.811a4.738,4.738,0,0,1-.722.309s-.045-.194-.061-.3c-.237-.332-.262-.664-.669-.847a1.539,1.539,0,0,0-1.231.067,5.051,5.051,0,0,0-1.678,1.385.955.955,0,0,0-.553-.456c-.928-.275-1.984.53-2.5,1.217a7.247,7.247,0,0,0-1.247,3.6,28.651,28.651,0,0,0,1.2,11.078.213.213,0,0,0,.413-.084.2.2,0,0,0,.1-.12,11,11,0,0,0,.121-3.619,4.04,4.04,0,0,1,.61-2.213,6.541,6.541,0,0,1,1.627-1.445,3.1,3.1,0,0,0,.413-.508,4.783,4.783,0,0,1,1.341-1.009,14.071,14.071,0,0,1,4.107-1.641,13.17,13.17,0,0,1,4.614.391,27.861,27.861,0,0,1,3.849.758,4.374,4.374,0,0,1,3.1,3.066c.425,1.394.664,2.864.985,4.286.054.245.63-.42.63-.42S188.551,24.387,188.428,22.207Z" fill="#09111a"/>
        <path id="Pfad_2766" data-name="Pfad 2766" d="M207.806,123.557c-.538,3.727-2.877,2.585-5.778,2.585H190.2c-5.563,0-11.118.179-16.675.257-2.786.038-5.572.052-8.359,0-1.952-.03-3.982.8-5.926.316-2.717-.664-2.307-3.1-2.1-5.379.443-5.029-.568-14.053-1.487-20.821-.62-4.622-1.206-8.194-1.247-8.741a7.608,7.608,0,0,0-.179-1.154,15.246,15.246,0,0,0-.817-2.453c-1.892-4.747,50.636-12.749,50.779-8.6.26,3.634.911,7.23,1.311,10.853.06.562.119,1.135.167,1.7a62.429,62.429,0,0,1,.084,8.409c-.068,1.521-.179,3.042-.3,4.563-.31,4,1.052,7.908,1.8,11.787A20.564,20.564,0,0,1,207.806,123.557Z" fill="#7692bb"/>
        <g id="Gruppe_1901" data-name="Gruppe 1901">
          <path id="Pfad_2767" data-name="Pfad 2767" d="M167.915,22.269a.216.216,0,0,1-.213-.207,12.425,12.425,0,0,1,.237-3.36,18.1,18.1,0,0,1,1.155-2.745.214.214,0,1,1,.379.2,18.05,18.05,0,0,0-1.125,2.668,12.252,12.252,0,0,0-.221,3.209.213.213,0,0,1-.2.221h0Z" fill="#0e1b29"/>
        </g>
        <g id="Gruppe_1902" data-name="Gruppe 1902">
          <path id="Pfad_2768" data-name="Pfad 2768" d="M169.569,19.472a.2.2,0,0,1-.049,0,.214.214,0,0,1-.161-.256s.178-.786.376-1.563a10.633,10.633,0,0,1,.819-1.944.215.215,0,0,1,.375.206h0a10.591,10.591,0,0,0-.781,1.847c-.2.774-.374,1.549-.374,1.549A.214.214,0,0,1,169.569,19.472Z" fill="#0e1b29"/>
        </g>
        <g id="Gruppe_1903" data-name="Gruppe 1903">
          <path id="Pfad_2769" data-name="Pfad 2769" d="M172.454,20.4a.214.214,0,0,1-.214-.214,14.837,14.837,0,0,1,.222-2.351,5.809,5.809,0,0,1,.885-2.152.213.213,0,1,1,.346.25h0a5.494,5.494,0,0,0-.818,1.98,14.577,14.577,0,0,0-.206,2.275.214.214,0,0,1-.212.214Z" fill="#0e1b29"/>
        </g>
        <g id="Gruppe_1904" data-name="Gruppe 1904">
          <path id="Pfad_2770" data-name="Pfad 2770" d="M181.527,20.4a.214.214,0,0,1-.214-.2,20.421,20.421,0,0,1,0-2.213,21.1,21.1,0,0,1,.508-2.8.214.214,0,1,1,.425.046v.021a.249.249,0,0,1-.009.037,21.12,21.12,0,0,0-.5,2.722,20.591,20.591,0,0,0,0,2.166.217.217,0,0,1-.2.222Z" fill="#0e1b29"/>
        </g>
        <path id="Pfad_2771" data-name="Pfad 2771" d="M205,67.172c.449-3.485,2.593-5.3.315-8.386-1.777-2.405-9.822-5.159-11.073-4.636s-3.873,1.718-6.639,3.034c-2.469,1.176-5.149,2.624-7.951,2.624a15.493,15.493,0,0,1-7.238-2.379c-.515-.282-2.812-2-3.508-1.172a7.787,7.787,0,0,0-3.558,1.865,6.95,6.95,0,0,1-2.938,1.651c-.885.292-2.256.332-2.987.928-1.286,1.047-1.48,3.431-1.549,5-.1,2.466-5.334,4.571-5.262,7.037.154,5.019-1.495,10.891.4,15.637a24.481,24.481,0,0,1,1.335,2.914c8.057-1.777,16.161,1.27,24.256-.442,2.278-.479,4.448-1.328,6.764-1.637a32.844,32.844,0,0,1,7.161-.022c4.324.377,8.63.885,12.962,1.232-.4-3.623-1.051-7.217-1.311-10.853A61.693,61.693,0,0,1,205,67.172Z" fill="#213759"/>
        <path id="Pfad_2772" data-name="Pfad 2772" d="M207.247,116.883c-.752-3.879-2.116-7.784-1.8-11.787.119-1.521.231-3.042.3-4.563-5.443.315-10.869,1.024-16.328.751-7.082-.359-13.963-3.251-21.1-2.739a18.894,18.894,0,0,0-4.717.954,16.951,16.951,0,0,1-5.222,1.166,24.625,24.625,0,0,1-2.729-.146c.919,6.772,1.927,15.787,1.487,20.821-.206,2.282-.611,4.717,2.1,5.379,1.945.479,3.973-.346,5.927-.316,2.786.047,5.572.035,8.358,0,5.558-.078,11.113-.257,16.675-.257h11.839c2.9,0,5.239,1.141,5.778-2.585A20.574,20.574,0,0,0,207.247,116.883Z" fill="#e1e6f4"/>
        <path id="Pfad_2773" data-name="Pfad 2773" d="M194.349,113.751l4.806-2.975,3.525,5.3L200.013,118l-5.665-1.238Z" fill="#735f5f"/>
        <path id="Pfad_2774" data-name="Pfad 2774" d="M223.553,93.15c-.746-2.977-2.477-5.507-4.033-8.107-2.2-3.682-8.328-15.994-9.257-18.41-1-2.6-2.131-5.469-4.231-7.466-2.551-2.425-6.122-2.579-9.206-3.942-.25-.11-.466.258-.215.369,2.491,1.106,5.358,1.341,7.7,2.774l.056.038a1.191,1.191,0,0,0-.162.111c-.269.213-.3.531-.489.79-.544.759-1.117.6-1.848.911a4.98,4.98,0,0,0-2.711,4c-.345,2.381.251,4.943.54,7.3l1.022,8.359c.567,4.638,1.341,9.052,3.845,13.087a29.121,29.121,0,0,0,1.8,2.516c1.018,1.312-.413,3.043-1.148,4.231a55.585,55.585,0,0,1-4.467,6.114c-.9,1.082-1.817,2.143-2.747,3.2q-.7.791-1.4,1.572c-.272.3-.713.656-.744,1.107a1.144,1.144,0,0,0,.23.641,22.014,22.014,0,0,0,1.445,2.1l2.655,3.839a.214.214,0,0,0,.293.076h0a.21.21,0,0,0,.041-.031c.877-1.059,2.463-.511,3.651-.739a6.237,6.237,0,0,0,3.009-1.783c.989-.936,3.739-1.819,4.781-2.7a30.266,30.266,0,0,1,4.1-2.87c2.33-1.391,3.13-2.559,5.262-4.246C225.642,102.592,224.732,97.851,223.553,93.15Z" fill="#213759"/>
        <g id="Gruppe_1906" data-name="Gruppe 1906">
          <g id="Gruppe_1905" data-name="Gruppe 1905">
            <path id="Pfad_2775" data-name="Pfad 2775" d="M154.722,90.336a.212.212,0,0,1-.207-.179,115.583,115.583,0,0,0-2.843-12.493c-1.828-6.21-3.045-9.515-3.057-9.552a.214.214,0,1,1,.388-.181.185.185,0,0,1,.012.033h0c.012.034,1.238,3.355,3.067,9.58a116.048,116.048,0,0,1,2.854,12.547.214.214,0,0,1-.177.244h0A.229.229,0,0,1,154.722,90.336Z" fill="#09111a"/>
          </g>
        </g>
        <g id="Gruppe_1908" data-name="Gruppe 1908">
          <g id="Gruppe_1907" data-name="Gruppe 1907">
            <path id="Pfad_2776" data-name="Pfad 2776" d="M154.721,84.667a.213.213,0,0,1-.207-.17,52.975,52.975,0,0,1-.929-8.49,30.17,30.17,0,0,0-2.256-9.2,2.752,2.752,0,0,1-.235-.693.213.213,0,1,1,.426-.023h0c.015.06.111.31.207.563A30.672,30.672,0,0,1,154.013,76a52.436,52.436,0,0,0,.921,8.409.215.215,0,0,1-.164.253h0A.2.2,0,0,1,154.721,84.667Z" fill="#09111a"/>
          </g>
        </g>
        <g id="Gruppe_1910" data-name="Gruppe 1910">
          <g id="Gruppe_1909" data-name="Gruppe 1909">
            <path id="Pfad_2777" data-name="Pfad 2777" d="M179.111,61.365c-5.786,0-10.592-4.29-10.643-4.334a.213.213,0,1,1,.278-.324l.009.008c.051.045,5.109,4.553,11,4.2,5.943-.349,14.358-5.046,14.446-5.09a.212.212,0,0,1,.3.054l0,.005a.216.216,0,0,1-.058.3h0l-.03.016c-.084.047-8.587,4.792-14.627,5.147C179.56,61.351,179.332,61.365,179.111,61.365Z" fill="#09111a"/>
          </g>
        </g>
        <g id="Gruppe_1912" data-name="Gruppe 1912">
          <g id="Gruppe_1911" data-name="Gruppe 1911">
            <path id="Pfad_2778" data-name="Pfad 2778" d="M203.428,87.613a.237.237,0,0,1-.07-.01.211.211,0,0,1-.132-.269h0c.033-.1,3.482-10.146,3.833-15.4a58.4,58.4,0,0,0,0-8.794.212.212,0,0,1,.188-.234h0a.223.223,0,0,1,.235.192,59.363,59.363,0,0,1,0,8.866c-.355,5.311-3.819,15.405-3.856,15.507A.221.221,0,0,1,203.428,87.613Z" fill="#09111a"/>
          </g>
        </g>
        <g id="Gruppe_1914" data-name="Gruppe 1914">
          <g id="Gruppe_1913" data-name="Gruppe 1913">
            <path id="Pfad_2779" data-name="Pfad 2779" d="M205.43,83.369a.192.192,0,0,1-.071-.011.215.215,0,0,1-.13-.274c1.727-4.836,4.324-12.158,4.4-12.5a.2.2,0,0,1,.2-.2h.014a.22.22,0,0,1,.212.228h0c0,.206-2.4,6.978-4.418,12.622A.214.214,0,0,1,205.43,83.369Z" fill="#09111a"/>
          </g>
        </g>
        <g id="Gruppe_1916" data-name="Gruppe 1916">
          <g id="Gruppe_1915" data-name="Gruppe 1915">
            <path id="Pfad_2780" data-name="Pfad 2780" d="M207.429,96.48a.214.214,0,0,1-.072-.413,24.115,24.115,0,0,1,7.775-1.414,20.365,20.365,0,0,1,5.077.729.213.213,0,0,1-.081.418.2.2,0,0,1-.054-.018,20.594,20.594,0,0,0-4.962-.708,24.125,24.125,0,0,0-7.611,1.39A.251.251,0,0,1,207.429,96.48Z" fill="#09111a"/>
          </g>
        </g>
        <g id="Gruppe_1918" data-name="Gruppe 1918">
          <g id="Gruppe_1917" data-name="Gruppe 1917">
            <path id="Pfad_2781" data-name="Pfad 2781" d="M207.431,97.585a.216.216,0,0,1-.179-.335v0h0c.058-.087.169-.25,2.932-.361,1.534-.06,4.737-.062,9.522,0h.435a.214.214,0,0,1,0,.428H219.7c-4.778-.059-7.974-.057-9.5,0a12.853,12.853,0,0,0-2.655.231A.2.2,0,0,1,207.431,97.585Z" fill="#09111a"/>
          </g>
        </g>
        <g id="Gruppe_1920" data-name="Gruppe 1920">
          <g id="Gruppe_1919" data-name="Gruppe 1919">
            <path id="Pfad_2782" data-name="Pfad 2782" d="M181.258,142.919a.166.166,0,0,1-.138-.11,22.834,22.834,0,0,1-.9-6.9,59.041,59.041,0,0,1,.826-8.026.166.166,0,0,1,.192-.127.163.163,0,0,1,.135.185h0a58.8,58.8,0,0,0-.819,7.976,22.529,22.529,0,0,0,.885,6.8.156.156,0,0,1-.1.2h0A.2.2,0,0,1,181.258,142.919Z" fill="#17253d"/>
          </g>
        </g>
        <g id="Gruppe_1922" data-name="Gruppe 1922">
          <g id="Gruppe_1921" data-name="Gruppe 1921">
            <path id="Pfad_2783" data-name="Pfad 2783" d="M183.235,143.466a.214.214,0,0,1-.023-.427c.074-.007,1.829-.244,2.271-2.765.471-2.674.464-12.68.464-12.78a.214.214,0,0,1,.214-.214h0a.214.214,0,0,1,.214.214c0,.413.007,10.143-.472,12.854a3.4,3.4,0,0,1-2.646,3.117Z" fill="#17253d"/>
          </g>
        </g>
        <path id="Pfad_2784" data-name="Pfad 2784" d="M207.274,119.643c2.827-.987,14.667-6.48,15.593-5.839s5.985,25.064,6.266,26.346-21.5,12.035-22.713,12.393-8.547.213-9.044-.641-5.875-27.275-5.3-27.844S200.54,121.993,207.274,119.643Z" fill="#4d72aa"/>
        <path id="Pfad_2785" data-name="Pfad 2785" d="M192.07,124.056S172.818,88.045,169.537,81.21s-9.493-22.786-9.558-23.07,2.858-2.208,3.431-1.638,10.1,24.067,14.628,32.826,18.183,34.352,18.226,34.728S192.07,124.056,192.07,124.056Z" fill="#4d72aa"/>
        <g id="Gruppe_1926" data-name="Gruppe 1926">
          <path id="Pfad_2786" data-name="Pfad 2786" d="M196.014,113.751s-4.883-2.342-6.522-2.425c-1.972-.1-4.59,2.822-5.242,3.863-.5.8.247,1.291.886,1.932a1.754,1.754,0,0,0-.148.756,1.447,1.447,0,0,0,.344.894,1.306,1.306,0,0,0,.849.424l.024.081a1.884,1.884,0,0,0,.3,1.355.767.767,0,0,0,.885.338,1.086,1.086,0,0,0,.59,1.019,2.434,2.434,0,0,0,1.261.183,2.732,2.732,0,0,0,.722.039,27.636,27.636,0,0,0,5.814-1.539l4.231-2.661Z" fill="#735f5f"/>
          <g id="Gruppe_1923" data-name="Gruppe 1923">
            <path id="Pfad_2787" data-name="Pfad 2787" d="M185.428,117.233a.214.214,0,0,1-.215-.212.221.221,0,0,1,.052-.139,8.383,8.383,0,0,1,1.4-1.328l.911-.588a.214.214,0,0,1,.252.345l-.012.008-.009.007-.911.588a8.051,8.051,0,0,0-1.3,1.245A.217.217,0,0,1,185.428,117.233Z" fill="#524444"/>
          </g>
          <g id="Gruppe_1924" data-name="Gruppe 1924">
            <path id="Pfad_2788" data-name="Pfad 2788" d="M186.547,119.274a.208.208,0,0,1-.16-.071.215.215,0,0,1,.016-.3,13.765,13.765,0,0,1,1.975-1.516l.537-.244a.214.214,0,1,1,.176.391h0l-.537.242a13.118,13.118,0,0,0-1.866,1.445A.2.2,0,0,1,186.547,119.274Z" fill="#524444"/>
          </g>
          <g id="Gruppe_1925" data-name="Gruppe 1925">
            <path id="Pfad_2789" data-name="Pfad 2789" d="M187.613,120.936a.214.214,0,0,1-.208-.22h0a.21.21,0,0,1,.1-.174l2.123-1.37a.214.214,0,1,1,.244.351l-.013.009-2.123,1.37A.233.233,0,0,1,187.613,120.936Z" fill="#524444"/>
          </g>
        </g>
        <g id="Gruppe_1928" data-name="Gruppe 1928">
          <g id="Gruppe_1927" data-name="Gruppe 1927">
            <path id="Pfad_2790" data-name="Pfad 2790" d="M206.347,151.276a.222.222,0,0,1-.051-.006.214.214,0,0,1-.157-.258c0-.287-.82-3.237-1.422-5.393-.235-.843-.46-1.651-.64-2.312-.706-2.579-4.627-18.709-4.666-18.871a.214.214,0,0,1,.413-.1c.039.162,3.96,16.279,4.663,18.86.179.664.405,1.466.64,2.308,1.2,4.294,1.476,5.4,1.424,5.61A.213.213,0,0,1,206.347,151.276Z" fill="#17253d"/>
          </g>
        </g>
        <g id="Gruppe_1930" data-name="Gruppe 1930">
          <g id="Gruppe_1929" data-name="Gruppe 1929">
            <path id="Pfad_2791" data-name="Pfad 2791" d="M215.493,130.943c-2.484,0-13.794-4.747-15.142-5.318a.214.214,0,1,1,.154-.4l.013.006h0c5.521,2.334,14.108,5.661,15.151,5.262,1.023-.39,4.835-9.479,7-15.115a.213.213,0,0,1,.4.139h0v.015c-.58,1.51-5.7,14.775-7.245,15.361A1.008,1.008,0,0,1,215.493,130.943Z" fill="#17253d"/>
          </g>
        </g>
        <g id="Gruppe_1932" data-name="Gruppe 1932">
          <g id="Gruppe_1931" data-name="Gruppe 1931">
            <path id="Pfad_2792" data-name="Pfad 2792" d="M218.668,115.361a.214.214,0,0,1-.038-.423l3.935-.753a.214.214,0,1,1,.1.416l-.02,0h0l-3.935.753A.3.3,0,0,1,218.668,115.361Z" fill="#17253d"/>
          </g>
        </g>
        <g id="Gruppe_1934" data-name="Gruppe 1934">
          <g id="Gruppe_1933" data-name="Gruppe 1933">
            <path id="Pfad_2793" data-name="Pfad 2793" d="M193.147,126.241c-.156,0-.488-.141-1-1.471a.213.213,0,0,1,.392-.168h0v.014a4.194,4.194,0,0,0,.631,1.189c.479-.1,2.665-.634,3.233-.855-.169-.4-.62-1.4-.664-1.492a.214.214,0,1,1,.382-.191h0c.036.069.693,1.527.75,1.7l.03.093-.052.1a18.391,18.391,0,0,1-3.641,1.076A.314.314,0,0,1,193.147,126.241Z" fill="#17253d"/>
          </g>
        </g>
        <path id="Pfad_2794" data-name="Pfad 2794" d="M138.479,70.913s9.1,37.305,8.288,43.209-13.517,6.131-13.517,6.131l-4.832-47.411Z" fill="#476593"/>
        <path id="Pfad_2795" data-name="Pfad 2795" d="M117.649,43.893c-1.336-.848-4.427-1.847-5.12-3.984s-.9-7.016-.816-10.641l.11-.023c.24-.058.154-.473-.084-.413h-.014l.023-.844c.012-.373-.691-.266-.213.392l-.184.532a37.887,37.887,0,0,1-12.737.737c-.026-.7-.05-1.38-.056-2.035a.191.191,0,0,0-.378-.051.241.241,0,0,0,0,.038c.006.647.03,1.32.054,2.008l-.023.014c-.317-.142-.36.37-.095.4.044.007.089.008.133.013a43.817,43.817,0,0,1-.86,9.708c-.553,1.549-4.85,3.431-7.65,4.3a.189.189,0,0,0-.1.076l-.026-.016c-.213-.133-.413.228-.207.362,2.359,1.479,3.818,4.085,5.845,6.006,2.044,1.936,4.813,2.512,6.8,4.513a.2.2,0,0,0,.228.039C108.779,51.86,117.666,43.905,117.649,43.893Z" fill="#e2cac0"/>
        <path id="Pfad_2796" data-name="Pfad 2796" d="M115.681,19.957q.063-.981.1-1.96c.111-3.1.032-6.1-1.835-8.713A10.766,10.766,0,0,0,107.8,5.548c-3.159-.832-6.75-.75-9.294,1.327a10.731,10.731,0,0,0-4.361,7.9c-.494,3.86.1,6.294,1.038,10.112a22.681,22.681,0,0,0,2.063,6.405c.959,1.61,1.952,3.336,3.763,4.084,2.634,1.086,7.12,1.429,9.417-.125,2.141-1.445,3.133-4.158,3.819-6.521A41,41,0,0,0,115.681,19.957Z" fill="#e2cac0"/>
        <path id="Pfad_2797" data-name="Pfad 2797" d="M114.828,20.182s1.724-.973,2,1.908-.68,4.814-2.1,4.883S113,24.8,113,24.8Z" fill="#e2cac0"/>
        <path id="Pfad_2798" data-name="Pfad 2798" d="M95.049,20.182s-1.724-.973-2,1.908.68,4.814,2.1,4.883,1.73-2.175,1.73-2.175Z" fill="#e2cac0"/>
        <path id="Pfad_2799" data-name="Pfad 2799" d="M100.448,19.724c-1.041-.275-1.023,2.271-.25,2.345a.646.646,0,0,0,.5-.213C101.149,21.393,101.241,19.933,100.448,19.724Z" fill="#17253d"/>
        <path id="Pfad_2800" data-name="Pfad 2800" d="M110.254,19.724c-1.041-.275-1.022,2.271-.25,2.345a.646.646,0,0,0,.5-.213C110.955,21.393,111.045,19.933,110.254,19.724Z" fill="#17253d"/>
        <path id="Pfad_2801" data-name="Pfad 2801" d="M102.791,17.389c-.658-1.3-3.234-.576-4.334-.43-.393.052-1.881.561-1.341,1.169.319.361,1.7.08,2.177.064l2.488-.084a1.381,1.381,0,0,0,.789-.19C102.823,17.724,102.869,17.546,102.791,17.389Z" fill="#17253d"/>
        <path id="Pfad_2802" data-name="Pfad 2802" d="M107.665,17.917a1.385,1.385,0,0,0,.79.19l2.488.084c.472.016,1.858.3,2.177-.064.536-.606-.95-1.116-1.341-1.17-1.106-.146-3.676-.874-4.334.43C107.365,17.546,107.409,17.724,107.665,17.917Z" fill="#17253d"/>
        <g id="Gruppe_1935" data-name="Gruppe 1935">
          <path id="Pfad_2803" data-name="Pfad 2803" d="M105.244,27.425a.214.214,0,0,1,0-.427h0c.014,0,1.438-.012,1.608-.794a1.782,1.782,0,0,0-.231-1.092,8.362,8.362,0,0,1-.481-1.445,25.152,25.152,0,0,1-.433-3.459.214.214,0,0,1,.2-.221h0a.212.212,0,0,1,.221.2V20.2a25.413,25.413,0,0,0,.421,3.388,7.989,7.989,0,0,0,.459,1.381,2.135,2.135,0,0,1,.253,1.347C107.014,27.416,105.312,27.425,105.244,27.425Z" fill="#c1a093"/>
        </g>
        <path id="Pfad_2804" data-name="Pfad 2804" d="M101.686,29.135a37.593,37.593,0,0,0,3.812.137c2.574-.041,3.818-.176,3.818-.176s-.657,1.915-3.856,1.915A4.465,4.465,0,0,1,101.686,29.135Z" fill="#fff"/>
        <g id="Gruppe_1936" data-name="Gruppe 1936">
          <path id="Pfad_2805" data-name="Pfad 2805" d="M105.822,37.341a10.786,10.786,0,0,1-3.828-.649c-1.285-.511-3.451-3.226-3.54-3.341a.214.214,0,0,1,.322-.282h0l.013.016c.022.027,2.184,2.741,3.365,3.209a10.344,10.344,0,0,0,6.594.147,8.861,8.861,0,0,0,2.414-2.213.214.214,0,0,1,.34.259,9.087,9.087,0,0,1-2.579,2.343A8.022,8.022,0,0,1,105.822,37.341Z" fill="#c1a093"/>
        </g>
        <g id="Gruppe_1937" data-name="Gruppe 1937">
          <path id="Pfad_2806" data-name="Pfad 2806" d="M115.024,25.209a.213.213,0,0,1-.213-.213h0a.209.209,0,0,1,.08-.167h0a1.77,1.77,0,0,0,.324-.908,2.237,2.237,0,0,0-.111-1.233.214.214,0,1,1,.383-.191h0a2.622,2.622,0,0,1,.154,1.493,1.878,1.878,0,0,1-.478,1.174A.225.225,0,0,1,115.024,25.209Z" fill="#c1a093"/>
        </g>
        <g id="Gruppe_1938" data-name="Gruppe 1938">
          <path id="Pfad_2807" data-name="Pfad 2807" d="M95.05,25.208a.211.211,0,0,1-.13-.045,1.885,1.885,0,0,1-.479-1.174A2.613,2.613,0,0,1,94.6,22.5a.214.214,0,0,1,.383.191h0a2.228,2.228,0,0,0-.111,1.233,1.707,1.707,0,0,0,.332.913.214.214,0,0,1,.019.3.218.218,0,0,1-.162.072Z" fill="#c1a093"/>
        </g>
        <g id="Gruppe_1940" data-name="Gruppe 1940">
          <g id="Gruppe_1939" data-name="Gruppe 1939">
            <path id="Pfad_2808" data-name="Pfad 2808" d="M104.424,19.179a1.023,1.023,0,0,0-.3-.124,18.734,18.734,0,0,0-6.6-.3c-.481.058-1.811.236-1.811.236l-.029.943a2.442,2.442,0,0,1,.79,1.636c.318,1.917,2.774,3.3,4.8,2.792a3.9,3.9,0,0,0,2.49-1.815,9.965,9.965,0,0,0,.812-3.187A.351.351,0,0,0,104.424,19.179ZM103,22.785a3.291,3.291,0,0,1-1.753,1.135,3.783,3.783,0,0,1-3.366-.911,2.68,2.68,0,0,1-.663-1.328,7.268,7.268,0,0,1-.2-1.707c.133-.457.639-.543,1.053-.619a15.2,15.2,0,0,1,3.233-.12c.47.03.938.081,1.4.145.319.043.865.066,1.053.366a1.746,1.746,0,0,1,.018,1.142,5.276,5.276,0,0,1-.78,1.9Z" fill="#17253d"/>
            <path id="Pfad_2809" data-name="Pfad 2809" d="M106.046,19.358a10.031,10.031,0,0,0,.812,3.188,3.9,3.9,0,0,0,2.491,1.814c2.023.506,4.477-.875,4.8-2.791a2.439,2.439,0,0,1,.79-1.636l-.029-.943s-1.328-.179-1.811-.236a18.733,18.733,0,0,0-6.6.3,1.051,1.051,0,0,0-.3.124A.342.342,0,0,0,106.046,19.358Zm.8,1.53a1.753,1.753,0,0,1,.017-1.142c.19-.3.734-.323,1.054-.366.465-.064.928-.111,1.4-.145a15.213,15.213,0,0,1,3.234.12c.412.074.919.161,1.053.62a7.475,7.475,0,0,1-.2,1.7,2.7,2.7,0,0,1-.664,1.328,3.778,3.778,0,0,1-3.365.911,3.293,3.293,0,0,1-1.754-1.135,5.239,5.239,0,0,1-.779-1.9Z" fill="#17253d"/>
            <path id="Pfad_2810" data-name="Pfad 2810" d="M104.117,19.059a4.005,4.005,0,0,0,1.162.221,3.584,3.584,0,0,0,1.386-.27l-.156,1.29a2.307,2.307,0,0,0-1.173-.278,1.819,1.819,0,0,0-1.217.553Z" fill="#17253d"/>
          </g>
        </g>
        <path id="Pfad_2811" data-name="Pfad 2811" d="M96.307,19.8l-2.1-.786-.237.693,2.693,1.828Z" fill="#17253d"/>
        <path id="Pfad_2812" data-name="Pfad 2812" d="M114.253,19.8l2.1-.786.237.693L113.9,21.534Z" fill="#17253d"/>
        <path id="Pfad_2813" data-name="Pfad 2813" d="M120.063,10.041a2.927,2.927,0,0,0-.861-1.722,3.486,3.486,0,0,1-.979-1.353c-.14-.48-.084-1-.192-1.492a2.746,2.746,0,0,0-2.446-2.306,9.688,9.688,0,0,0-.826-1.784A3.214,3.214,0,0,0,112.482.026c-1.351-.171-2.115.539-3.247,1.106-1.69.849-3.54-.29-5.262-.507a6.4,6.4,0,0,0-3.233.332,4.385,4.385,0,0,0-1.328.84,20.238,20.238,0,0,1-1.931,1.7A1.729,1.729,0,0,0,96.662,5.5c-.051-.02-.1-.042-.153-.057a3.746,3.746,0,0,0-2.223.049,4.8,4.8,0,0,0-2.912,3.22c-.127.4-.16.825-.28,1.232a4.24,4.24,0,0,1-1.053,1.58,2.807,2.807,0,0,0-.691,1.953c.015,1.371.5,3.132,1.858,3.734.2.373.169.759.343,1.135a1.479,1.479,0,0,0,.8.729,1.384,1.384,0,0,0,.3.577c.473.533,1.835.977,2.3.278a5.644,5.644,0,0,0,.664-2.29c.11-.949,1.1-1.09,1.813-1.542a4.251,4.251,0,0,0,.885-.664c.385-.43.266-.7.413-1.193.16-.515.332-.509.671-.8a3.2,3.2,0,0,0,.939-1.383,2,2,0,0,1,.4.31c.755.764.47,1.953,1.327,2.7a2.382,2.382,0,0,0,2.032.5,1.889,1.889,0,0,1,.953-.038,2.659,2.659,0,0,0,1.362-.2,2.518,2.518,0,0,1,2.147-.055,13.442,13.442,0,0,0,1.689.576,2.425,2.425,0,0,0,2.131-.207c.4.235.826.429,1.127.625.594.386.595.8.768,1.439a1.176,1.176,0,0,0,.222.553.873.873,0,0,0,.383.231c0,.787.111,1.631.628,1.659a.613.613,0,0,0,.374-.1,1.722,1.722,0,0,0,1.682-.619c.762-.852.421-1.754.619-2.747.153-.761.594-.774.976-1.358a2.3,2.3,0,0,0,.332-1.238,4.62,4.62,0,0,0-.4-1.715A3.269,3.269,0,0,0,120.063,10.041Z" fill="#96abdf"/>
        <path id="Pfad_2814" data-name="Pfad 2814" d="M94.006,42.348s10.04,8.271,10.792,8.17,11.2-7.236,12-7.135,8.52,5.522,8.52,5.522,2.616,43.563,4.2,47.481,4.563,22.811,3.9,24.156-13.831,2.367-22.572,1.62-16.291-.207-20.926-1.284-11.076.6-11.606-.29S86.74,44.13,87.535,43.867,94.006,42.348,94.006,42.348Z" fill="#fff"/>
        <path id="Pfad_2815" data-name="Pfad 2815" d="M94,42.348s-6.072,44.788-6.6,50.164-.928,8.583-2.383,10.81-4.231,12.05-4.73,15.006-.739,17.592-.739,17.592-2.346-2.284-4.2-2.683-3.841-.133-4.105-.805,2.252-19.754,3.31-29.1S78.8,47.5,80.384,45.077,94,42.348,94,42.348Z" fill="#1e365c"/>
        <path id="Pfad_2816" data-name="Pfad 2816" d="M81.115,120.688c.068.242.861,2.441.8,2.5a3.127,3.127,0,0,0-.241,1.28,17.952,17.952,0,0,0,.243,3.418q.1.81.245,1.615a10.892,10.892,0,0,1,.365,1.76c2.817-2.331,5.778-4.486,8.552-6.878a43.758,43.758,0,0,0-2.224-5.643c-1.172-2.452-2.662-11.643-2.662-11.643l-10.734,1.689a82.2,82.2,0,0,1,4.824,9.544C80.592,119.105,80.882,119.883,81.115,120.688Z" fill="#e2cac0"/>
        <path id="Pfad_2817" data-name="Pfad 2817" d="M82.625,43.8a13.22,13.22,0,0,0-7.414,4.1C73.457,49.84,70.8,61.044,71.219,64.144S70.576,75.1,69.78,79.236s.265,7.43,0,10.083-1.528,9.184-.3,11.091a14.715,14.715,0,0,1,1.827,4.077,8.54,8.54,0,0,1,.339,2.136c0,.9-.08,1.438.637,2.116a5.183,5.183,0,0,1,1.528,2.633c.332.027.709.038,1.135.032,4.9-.082,12.716-3.256,12.716-3.256Z" fill="#1e365c"/>
        <g id="Gruppe_1941" data-name="Gruppe 1941">
          <path id="Pfad_2818" data-name="Pfad 2818" d="M96.069,72.692a36.124,36.124,0,0,1-3.287,2.374c0,.781-.05,1.569-.111,2.352C93.857,75.883,94.941,74.272,96.069,72.692Z" fill="#96abdf"/>
          <path id="Pfad_2819" data-name="Pfad 2819" d="M100.555,92.087c.3-.023.607-.057.911-.094a60.108,60.108,0,0,0,2.754-12.757c-2.7,2.159-4.746,4.945-7.124,7.444-1.673,1.754-3.453,3.431-5.009,5.292a31.649,31.649,0,0,1,4.2-.026A23.594,23.594,0,0,0,100.555,92.087Z" fill="#96abdf"/>
          <path id="Pfad_2820" data-name="Pfad 2820" d="M115.028,67.7A55.366,55.366,0,0,0,109.716,79a16.082,16.082,0,0,0,5.009-2.123c1.327-.737,2.683-1.427,3.951-2.271.784-.515,1.549-1.061,2.323-1.6q-.132-2.558-.265-5.116a.222.222,0,0,0-.214-.213Q117.771,67.635,115.028,67.7Z" fill="#96abdf"/>
          <path id="Pfad_2821" data-name="Pfad 2821" d="M117.751,84.05a67.1,67.1,0,0,0-7.365,7.524c1.135,0,2.27,0,3.421.023a16.243,16.243,0,0,0,2.148-.14C116.616,89,117.723,86.6,117.751,84.05Z" fill="#96abdf"/>
          <path id="Pfad_2822" data-name="Pfad 2822" d="M120.969,88.358c.023-1.3.516-2.424.34-3.746a17.1,17.1,0,0,1-.23-3.9,31.8,31.8,0,0,0,.087-4.095c-.039-.928-.088-1.851-.134-2.777-1.119.786-2.238,1.575-3.417,2.27-2.536,1.484-5.409,3.391-8.4,3.672a.353.353,0,0,1-.349-.359h0a.344.344,0,0,1,.01-.084c1.125-4.194,3.276-7.927,5.376-11.688-1.094-.071-2.188-.09-3.282-.176-1.549,1.114-3.083,2.239-4.537,3.473-1.969,1.677-4.276,4.055-6.957,4.444-.264.037-.6-.236-.4-.516,1.681-2.323,3.241-4.734,4.843-7.113a35.483,35.483,0,0,1-5.034.353,33.6,33.6,0,0,0-6,.186c-.375.053-.746.111-1.12.168a12.9,12.9,0,0,0,.682,3.5,11.908,11.908,0,0,1,.3,2.271,58.96,58.96,0,0,0,4.991-3.818.354.354,0,0,1,.5.5h0c-1.982,2.516-3.679,5.274-5.693,7.756-.057.628-.111,1.25-.148,1.858-.163,2.765-.385,5.547-.464,8.32-.021.723-.054,1.486-.037,2.242,1.481-1.7,3.13-3.272,4.686-4.91,2.593-2.728,4.791-5.768,7.856-8.018a.353.353,0,0,1,.482.13h0a.346.346,0,0,1,.046.172A57.136,57.136,0,0,1,102.21,91.9a21.394,21.394,0,0,1,2.756-.27c1.516-.013,3.016-.037,4.52-.047a68.73,68.73,0,0,1,8.34-8.548.355.355,0,0,1,.6.249c.222,2.813-1,5.448-1.735,8.1a10.8,10.8,0,0,1,1.911-.047c1.238.332,3,.8,2.941-.865C121.516,89.316,120.951,89.537,120.969,88.358Z" fill="#96abdf"/>
          <path id="Pfad_2823" data-name="Pfad 2823" d="M106.574,69.918c1.067-.885,2.181-1.72,3.31-2.536a14.728,14.728,0,0,0-3.873.056c-.365.066-.752.13-1.144.19-1.549,2.289-3.055,4.614-4.648,6.871C102.642,73.73,104.708,71.475,106.574,69.918Z" fill="#96abdf"/>
        </g>
        <path id="Pfad_2824" data-name="Pfad 2824" d="M116.794,43.382s1.939,11.527,5.1,27.786c2.323,11.94,5.247,31.535,6.913,38.948.775,3.455,3.612,25.481,3.879,25.749s2.922-2.284,5.173-2.552,3.046.268,3.046-4.973c0-1.924-4.117-16.581-4.893-20.071s-2.434-39.147-2.523-42.632c-.132-5.511-.53-16.266-3.045-19.352S116.794,43.382,116.794,43.382Z" fill="#1e365c"/>
        <path id="Pfad_2825" data-name="Pfad 2825" d="M124.82,43.957s9.819.744,11.578,10.525a202.766,202.766,0,0,0,7.018,23.789,39.747,39.747,0,0,1,2.889,12.094c.529,4.426,1.65,7.29.071,10-2.883,4.945-7.908,4.437-11.176,2.957-2.591-1.173-8.476-19.411-8.476-19.411Z" fill="#1e365c"/>
        <path id="Pfad_2826" data-name="Pfad 2826" d="M132.687,83.877l-3.7,10.179-6.361-7.272-2.307-2.64-.207-.235,4.2-6.584.261.2,2.619,2.05Z" fill="#e2cac0"/>
        <g id="Gruppe_1942" data-name="Gruppe 1942">
          <path id="Pfad_2827" data-name="Pfad 2827" d="M100.128,11.534a.217.217,0,0,1-.207-.176A6.631,6.631,0,0,0,98.653,8.35a16.715,16.715,0,0,1-1.936-2.063.214.214,0,0,1,.3-.3.176.176,0,0,1,.029.037h0a16.725,16.725,0,0,0,1.874,2c.973.826,1.4,3.161,1.414,3.259a.214.214,0,0,1-.174.248h0Z" fill="#3f577c"/>
        </g>
        <g id="Gruppe_1943" data-name="Gruppe 1943">
          <path id="Pfad_2828" data-name="Pfad 2828" d="M93.275,17.837h-.042a.215.215,0,0,1-.167-.252,5.964,5.964,0,0,1,1.165-2.569,3.771,3.771,0,0,1,1.06-.648,2.612,2.612,0,0,0,1.41-1.149,17.255,17.255,0,0,1,1.9-2.64.214.214,0,1,1,.323.282h0a16.966,16.966,0,0,0-1.842,2.558,3.038,3.038,0,0,1-1.607,1.336,3.356,3.356,0,0,0-.944.57,5.641,5.641,0,0,0-1.042,2.344A.216.216,0,0,1,93.275,17.837Z" fill="#3f577c"/>
        </g>
        <g id="Gruppe_1944" data-name="Gruppe 1944">
          <path id="Pfad_2829" data-name="Pfad 2829" d="M91.659,16.59h-.02a.214.214,0,0,1-.194-.231h0A5.135,5.135,0,0,1,92.662,13.4,4.52,4.52,0,0,1,94.306,12.4a.213.213,0,0,1,.1.412,4.307,4.307,0,0,0-1.466.916,4.787,4.787,0,0,0-1.064,2.67A.215.215,0,0,1,91.659,16.59Z" fill="#3f577c"/>
        </g>
        <g id="Gruppe_1945" data-name="Gruppe 1945">
          <path id="Pfad_2830" data-name="Pfad 2830" d="M116.876,7.386a.207.207,0,0,1-.142-.053,7.341,7.341,0,0,0-5.865-1.708.214.214,0,0,1-.054-.425h.016a7.742,7.742,0,0,1,6.2,1.815.213.213,0,0,1,.016.3A.2.2,0,0,1,116.876,7.386Z" fill="#3f577c"/>
        </g>
        <g id="Gruppe_1946" data-name="Gruppe 1946">
          <path id="Pfad_2831" data-name="Pfad 2831" d="M113.237,15.077h-.013a.213.213,0,0,1-.2-.222,2.873,2.873,0,0,0-.967-2.544,5.3,5.3,0,0,0-1.408-.629,6.476,6.476,0,0,1-1.31-.553,13.53,13.53,0,0,1-1.2-.862,9.624,9.624,0,0,0-1.565-1.059c-2.024-1.016-5.9.193-5.937.207a.214.214,0,0,1-.151-.4l.023-.008c.164-.053,4.078-1.273,6.257-.178A9.994,9.994,0,0,1,108.4,9.936a13.278,13.278,0,0,0,1.165.835,6.09,6.09,0,0,0,1.223.51,5.631,5.631,0,0,1,1.52.687,3.19,3.19,0,0,1,1.145,2.92A.216.216,0,0,1,113.237,15.077Z" fill="#3f577c"/>
        </g>
        <g id="Gruppe_1947" data-name="Gruppe 1947">
          <path id="Pfad_2832" data-name="Pfad 2832" d="M115.724,13.581a.214.214,0,0,1-.179-.1,8.265,8.265,0,0,0-1.411-1.719,6.112,6.112,0,0,0-3.109-1.124.214.214,0,0,1,.069-.422h0a6.449,6.449,0,0,1,3.319,1.228,8.569,8.569,0,0,1,1.487,1.8.214.214,0,0,1-.058.3l0,0h0A.22.22,0,0,1,115.724,13.581Z" fill="#3f577c"/>
        </g>
        <path id="Pfad_2833" data-name="Pfad 2833" d="M81.753,54.318q-.332-1.428-.677-2.857c-.064-.267-.476-.154-.413.111l.677,2.857C81.405,54.705,81.816,54.582,81.753,54.318Z" fill="#4d72aa"/>
        <path id="Pfad_2834" data-name="Pfad 2834" d="M79.048,68.509a13.318,13.318,0,0,1-1.07-3.75c-.036-.268-.464-.272-.427,0a14.093,14.093,0,0,0,1.127,3.966C78.8,68.979,79.16,68.758,79.048,68.509Z" fill="#4d72aa"/>
        <path id="Pfad_2835" data-name="Pfad 2835" d="M87.486,61.433a12.856,12.856,0,0,1-.413-3.08.214.214,0,1,0-.427,0h0a13.287,13.287,0,0,0,.43,3.192.214.214,0,0,0,.41-.11Z" fill="#4d72aa"/>
        <path id="Pfad_2836" data-name="Pfad 2836" d="M83.8,83.069a19.679,19.679,0,0,1-1.021-3.7c-.047-.271-.459-.156-.412.11a19.676,19.676,0,0,0,1.02,3.7C83.486,83.438,83.9,83.329,83.8,83.069Z" fill="#4d72aa"/>
        <path id="Pfad_2837" data-name="Pfad 2837" d="M74.9,80.911a3.776,3.776,0,0,1-.5-2.051c.01-.274-.413-.274-.427,0a4.212,4.212,0,0,0,.553,2.27.215.215,0,0,0,.381-.2l-.013-.022h0Z" fill="#4d72aa"/>
        <path id="Pfad_2838" data-name="Pfad 2838" d="M81.068,93.621l-.874-2.987a.214.214,0,0,0-.412.111q.443,1.491.874,2.987a.214.214,0,0,0,.412-.111Z" fill="#4d72aa"/>
        <path id="Pfad_2839" data-name="Pfad 2839" d="M74.124,100.872l-.894-2.836c-.082-.262-.5-.149-.412.111q.443,1.417.893,2.836C73.794,101.247,74.207,101.136,74.124,100.872Z" fill="#4d72aa"/>
        <path id="Pfad_2840" data-name="Pfad 2840" d="M83.472,103.823a6.324,6.324,0,0,1-.655-2.462c-.016-.273-.443-.275-.427,0a6.851,6.851,0,0,0,.713,2.683C83.225,104.285,83.6,104.068,83.472,103.823Z" fill="#4d72aa"/>
        <path id="Pfad_2841" data-name="Pfad 2841" d="M91.461,48.054A37.558,37.558,0,0,0,89.879,44.3c-.119-.248-.488-.031-.368.221a36.85,36.85,0,0,1,1.538,3.651C91.14,48.416,91.553,48.309,91.461,48.054Z" fill="#4d72aa"/>
        <path id="Pfad_2842" data-name="Pfad 2842" d="M87.7,74.216a28.349,28.349,0,0,0-1.8-3.436c-.145-.234-.515-.02-.369.215a28.362,28.362,0,0,1,1.8,3.437C87.441,74.687,87.811,74.469,87.7,74.216Z" fill="#4d72aa"/>
        <path id="Pfad_2843" data-name="Pfad 2843" d="M75.617,127.342l-1.837-2.434c-.163-.221-.533,0-.369.215l1.839,2.434C75.412,127.775,75.782,127.562,75.617,127.342Z" fill="#4d72aa"/>
        <path id="Pfad_2844" data-name="Pfad 2844" d="M76.194,117.936a11.681,11.681,0,0,1-.937-1.961c-.094-.255-.507-.145-.413.111a12.3,12.3,0,0,0,.98,2.064.216.216,0,0,0,.37-.222Z" fill="#4d72aa"/>
        <path id="Pfad_2845" data-name="Pfad 2845" d="M76.643,55.683a15.413,15.413,0,0,1-1.064-3.236c-.057-.268-.469-.155-.412.111A15.886,15.886,0,0,0,76.273,55.9C76.39,56.148,76.754,55.932,76.643,55.683Z" fill="#4d72aa"/>
        <path id="Pfad_2846" data-name="Pfad 2846" d="M127.6,48.658a5.106,5.106,0,0,1-1.088-1.9c-.083-.261-.5-.15-.413.11a5.594,5.594,0,0,0,1.2,2.087C127.484,49.165,127.785,48.863,127.6,48.658Z" fill="#4d72aa"/>
        <path id="Pfad_2847" data-name="Pfad 2847" d="M122.069,48.847q-.713-1.423-1.426-2.849c-.123-.245-.492-.029-.368.216l1.424,2.849C121.826,49.312,122.2,49.094,122.069,48.847Z" fill="#4d72aa"/>
        <path id="Pfad_2848" data-name="Pfad 2848" d="M134.6,60.389a22.833,22.833,0,0,1-1.667-3.378c-.1-.253-.515-.142-.412.111a23.472,23.472,0,0,0,1.708,3.48.215.215,0,0,0,.371-.215Z" fill="#4d72aa"/>
        <path id="Pfad_2849" data-name="Pfad 2849" d="M126.96,63.276q-.514-1.919-1.038-3.834a.214.214,0,0,0-.413.111h0q.516,1.919,1.038,3.833a.214.214,0,0,0,.419-.087l-.006-.023Z" fill="#4d72aa"/>
        <path id="Pfad_2850" data-name="Pfad 2850" d="M127.673,74.526l-1.016-3.27c-.081-.261-.494-.149-.413.111l1.016,3.27C127.348,74.9,127.755,74.79,127.673,74.526Z" fill="#4d72aa"/>
        <path id="Pfad_2851" data-name="Pfad 2851" d="M134.592,72.923a22.159,22.159,0,0,1-1.549-3.8c-.08-.263-.493-.151-.413.111a22.784,22.784,0,0,0,1.592,3.9C134.349,73.384,134.718,73.168,134.592,72.923Z" fill="#4d72aa"/>
        <path id="Pfad_2852" data-name="Pfad 2852" d="M141.9,85.494a21.882,21.882,0,0,1-1.051-3.835c-.049-.27-.46-.156-.413.11a21.835,21.835,0,0,0,1.051,3.841C141.579,85.866,141.992,85.756,141.9,85.494Z" fill="#4d72aa"/>
        <path id="Pfad_2853" data-name="Pfad 2853" d="M137.34,92.76l-1.48-3.679c-.1-.252-.516-.143-.413.11l1.48,3.68C137.03,93.126,137.443,93.015,137.34,92.76Z" fill="#4d72aa"/>
        <path id="Pfad_2854" data-name="Pfad 2854" d="M135.059,102.73l-1.417-3.707c-.1-.254-.51-.144-.412.111q.708,1.857,1.416,3.707C134.741,103.1,135.159,102.989,135.059,102.73Z" fill="#4d72aa"/>
        <path id="Pfad_2855" data-name="Pfad 2855" d="M133.136,114.38a24.852,24.852,0,0,1-1.21-3.1c-.082-.263-.494-.15-.413.11a25.793,25.793,0,0,0,1.254,3.209C132.885,114.845,133.254,114.628,133.136,114.38Z" fill="#4d72aa"/>
        <path id="Pfad_2856" data-name="Pfad 2856" d="M137.557,121.587a4.231,4.231,0,0,1-1.079-2.194c-.046-.271-.457-.156-.412.11a4.642,4.642,0,0,0,1.188,2.382C137.445,122.091,137.745,121.787,137.557,121.587Z" fill="#4d72aa"/>
        <path id="Pfad_2857" data-name="Pfad 2857" d="M135.166,130.46a10.859,10.859,0,0,1-1.415-3.371c-.062-.268-.474-.155-.413.11a11.162,11.162,0,0,0,1.459,3.472C134.945,130.906,135.314,130.693,135.166,130.46Z" fill="#4d72aa"/>
        <g id="Gruppe_1949" data-name="Gruppe 1949">
          <g id="Gruppe_1948" data-name="Gruppe 1948">
            <path id="Pfad_2858" data-name="Pfad 2858" d="M85.494,95.8a.215.215,0,0,1-.211-.184c-.025-.182-.627-4.478.009-6.274a13.09,13.09,0,0,0,.516-4.839c0-.607.008-1.305.021-2.122q.13-2.943.553-5.865A116.439,116.439,0,0,0,87.5,60.706c-.053-14.052-7.679-14.866-7.755-14.872a.214.214,0,1,1,.016-.428l.02,0h0c.08.008,8.093.833,8.151,15.3A116.751,116.751,0,0,1,86.81,76.57a57.813,57.813,0,0,0-.553,5.816c-.012.817-.016,1.512-.021,2.12a13.319,13.319,0,0,1-.542,4.98c-.6,1.7,0,6.028.01,6.071a.215.215,0,0,1-.182.242h-.028Z" fill="#17253d"/>
          </g>
        </g>
        <g id="Gruppe_1950" data-name="Gruppe 1950">
          <path id="Pfad_2859" data-name="Pfad 2859" d="M72.865,109.188a.213.213,0,0,1-.056-.419l13.8-3.763a.214.214,0,0,1,.111.413l-13.8,3.761A.2.2,0,0,1,72.865,109.188Z" fill="#17253d"/>
        </g>
        <g id="Gruppe_1951" data-name="Gruppe 1951">
          <path id="Pfad_2860" data-name="Pfad 2860" d="M74.139,110.125a.213.213,0,0,1-.038-.423l1.583-.294a.214.214,0,0,1,.079.421h0l-1.583.293A.139.139,0,0,1,74.139,110.125Z" fill="#17253d"/>
        </g>
        <g id="Gruppe_1953" data-name="Gruppe 1953">
          <g id="Gruppe_1952" data-name="Gruppe 1952">
            <path id="Pfad_2861" data-name="Pfad 2861" d="M89.923,65.472a.214.214,0,0,1-.213-.192s-.427-4.273-.928-8.97a104.329,104.329,0,0,1,0-12.946.213.213,0,1,1,.426.023h0a103.931,103.931,0,0,0,0,12.873c.5,4.7.928,8.976.928,8.976a.214.214,0,0,1-.191.235h-.022Z" fill="#17253d"/>
          </g>
        </g>
        <g id="Gruppe_1955" data-name="Gruppe 1955">
          <g id="Gruppe_1954" data-name="Gruppe 1954">
            <path id="Pfad_2862" data-name="Pfad 2862" d="M122.025,66.827h-.008a.214.214,0,0,1-.207-.218h0c0-.041.16-4.2.443-9.747A73.5,73.5,0,0,0,121.33,44a.214.214,0,0,1,.421-.071,73.865,73.865,0,0,1,.928,12.957c-.282,5.548-.443,9.7-.443,9.737A.214.214,0,0,1,122.025,66.827Z" fill="#17253d"/>
          </g>
        </g>
        <g id="Gruppe_1957" data-name="Gruppe 1957">
          <g id="Gruppe_1956" data-name="Gruppe 1956">
            <path id="Pfad_2863" data-name="Pfad 2863" d="M134.145,82.6a.222.222,0,0,1-.207-.161,56.887,56.887,0,0,1-1.462-7.875c-.152-2.932-.663-8.307-2.4-11.365-1.825-3.22-1.454-16.393-1.438-16.952a.231.231,0,0,1,.221-.207.213.213,0,0,1,.207.219h0c0,.136-.383,13.61,1.384,16.73,1.77,3.135,2.3,8.585,2.454,11.557a57.575,57.575,0,0,0,1.445,7.792.211.211,0,0,1-.15.257h0A.315.315,0,0,1,134.145,82.6Z" fill="#17253d"/>
          </g>
        </g>
        <g id="Gruppe_1958" data-name="Gruppe 1958">
          <path id="Pfad_2864" data-name="Pfad 2864" d="M143.187,85.969a.2.2,0,0,1-.131-.044,16.62,16.62,0,0,0-3.9-2.092,15.144,15.144,0,0,0-5.969-.292.214.214,0,0,1-.081-.42h.017a15.289,15.289,0,0,1,6.182.31,16.79,16.79,0,0,1,4.008,2.154.214.214,0,0,1,.038.3A.208.208,0,0,1,143.187,85.969Z" fill="#17253d"/>
        </g>
        <g id="Gruppe_1959" data-name="Gruppe 1959">
          <path id="Pfad_2865" data-name="Pfad 2865" d="M137.358,103.865a.224.224,0,0,1-.068-.01c-.213-.072-5.226-1.766-6.181-3.492a15.6,15.6,0,0,1-1.365-3.54l-1.106-1.6a.214.214,0,1,1,.352-.242l1.161,1.71a15.3,15.3,0,0,0,1.328,3.471c.875,1.582,5.891,3.274,5.942,3.293a.212.212,0,0,1,.124.273v0a.21.21,0,0,1-.191.136Z" fill="#17253d"/>
        </g>
        <g id="Gruppe_1960" data-name="Gruppe 1960">
          <path id="Pfad_2866" data-name="Pfad 2866" d="M129.834,95.315a.214.214,0,0,1-.21-.218.211.211,0,0,1,.01-.061l.412-1.284a.214.214,0,0,1,.412.111v.017l-.413,1.285A.223.223,0,0,1,129.834,95.315Z" fill="#17253d"/>
        </g>
        <g id="Gruppe_1961" data-name="Gruppe 1961">
          <path id="Pfad_2867" data-name="Pfad 2867" d="M130.8,96.48a.224.224,0,0,1-.073-.013.214.214,0,0,1-.127-.274l4.486-12.281a.214.214,0,1,1,.415.106.325.325,0,0,1-.015.04L131,96.339A.216.216,0,0,1,130.8,96.48Z" fill="#17253d"/>
        </g>
        <path id="Pfad_2868" data-name="Pfad 2868" d="M114.708,42.3s-2.407,23.957-1.973,31.369c.784,13.348,10.769,24.26,14.948,29.039s9.006,7.112,9.156,7.006a7.3,7.3,0,0,0,0-3.08c-.276-.694-5.837-4.8-8.821-8.119-2.4-2.67-11.225-12.757-12.2-25.049-.58-7.276,2.948-29.543,1.834-30.4A5.183,5.183,0,0,0,114.708,42.3Z" fill="#17253d"/>
        <g id="Gruppe_1965" data-name="Gruppe 1965">
          <path id="Pfad_2869" data-name="Pfad 2869" d="M124.319,77.326s-3.28-5.342-4.823-6.45c-1.858-1.328-6.236-.134-7.525.47-.989.466-.572,1.409-.355,2.434a2.065,2.065,0,0,0-.619.643,1.649,1.649,0,0,0-.229,1.084,1.512,1.512,0,0,0,.561.945l-.026.094a2.195,2.195,0,0,0-.56,1.5.885.885,0,0,0,.654.885,1.255,1.255,0,0,0-.065,1.363,2.81,2.81,0,0,0,1.106.968,3.212,3.212,0,0,0,.681.5,31.755,31.755,0,0,0,6.62,2.15l5.785.069Z" fill="#e2cac0"/>
          <g id="Gruppe_1962" data-name="Gruppe 1962">
            <path id="Pfad_2870" data-name="Pfad 2870" d="M111.972,74.081a.214.214,0,0,1-.062-.413,9.6,9.6,0,0,1,2.183-.413h1.253a.214.214,0,1,1,0,.427h-1.253a9.429,9.429,0,0,0-2.058.395A.444.444,0,0,1,111.972,74.081Z" fill="#c1a093"/>
          </g>
          <g id="Gruppe_1963" data-name="Gruppe 1963">
            <path id="Pfad_2871" data-name="Pfad 2871" d="M111.784,76.767a.213.213,0,0,1-.035-.423,15.859,15.859,0,0,1,2.861-.236l.676.1a.214.214,0,0,1-.064.423l-.675-.1a14.805,14.805,0,0,0-2.732.236Z" fill="#c1a093"/>
          </g>
          <g id="Gruppe_1964" data-name="Gruppe 1964">
            <path id="Pfad_2872" data-name="Pfad 2872" d="M114.709,79.051h-2.925a.214.214,0,1,1,0-.427h2.925a.214.214,0,1,1,0,.427Z" fill="#c1a093"/>
          </g>
        </g>
        <g id="Gruppe_1966" data-name="Gruppe 1966">
          <path id="Pfad_2873" data-name="Pfad 2873" d="M104.713,53.16c-1.116,0-8.928-6.631-10.482-7.961a.214.214,0,0,1,.264-.337l.015.013h0c4.456,3.81,9.543,7.856,10.2,7.856h0c.744,0,5.547-3.3,8.4-5.373a.213.213,0,0,1,.259.339l-.008.007c-.767.554-7.524,5.448-8.647,5.455Z" fill="#849dc3"/>
        </g>
        <g id="Gruppe_1968" data-name="Gruppe 1968">
          <g id="Gruppe_1967" data-name="Gruppe 1967">
            <path id="Pfad_2874" data-name="Pfad 2874" d="M125.539,120.17a.215.215,0,0,1-.207-.161,49.729,49.729,0,0,0-2.528-7.039c-1.7-3.808-2.889-11.271-2.9-11.35a.214.214,0,0,1,.422-.068c.01.075,1.19,7.485,2.869,11.24a50.21,50.21,0,0,1,2.551,7.109.214.214,0,0,1-.154.259A.191.191,0,0,1,125.539,120.17Z" fill="#c5d0eb"/>
          </g>
        </g>
        <g id="Gruppe_1970" data-name="Gruppe 1970">
          <g id="Gruppe_1969" data-name="Gruppe 1969">
            <path id="Pfad_2875" data-name="Pfad 2875" d="M121.541,120.811a.214.214,0,0,1-.207-.179l-1.425-8.8a.212.212,0,0,1,.174-.244h0a.206.206,0,0,1,.244.161v.016l1.424,8.8a.214.214,0,0,1-.176.245h-.035Z" fill="#c5d0eb"/>
          </g>
        </g>
        <g id="Gruppe_1972" data-name="Gruppe 1972">
          <g id="Gruppe_1971" data-name="Gruppe 1971">
            <path id="Pfad_2876" data-name="Pfad 2876" d="M80.452,133.334a.213.213,0,0,1-.215-.211h0a.217.217,0,0,1,.071-.16l1.638-1.495a.214.214,0,0,1,.332.269.447.447,0,0,1-.045.042l-1.638,1.5A.207.207,0,0,1,80.452,133.334Z" fill="#17253d"/>
          </g>
        </g>
        <g id="Gruppe_1974" data-name="Gruppe 1974">
          <g id="Gruppe_1973" data-name="Gruppe 1973">
            <path id="Pfad_2877" data-name="Pfad 2877" d="M91.417,124.219A.214.214,0,0,1,91.2,124a.218.218,0,0,1,.067-.154l1.211-1.136a.213.213,0,0,1,.293.31h0l-1.21,1.135A.207.207,0,0,1,91.417,124.219Z" fill="#17253d"/>
          </g>
        </g>
        <g id="Gruppe_1976" data-name="Gruppe 1976">
          <g id="Gruppe_1975" data-name="Gruppe 1975">
            <path id="Pfad_2878" data-name="Pfad 2878" d="M105.458,142.854a.163.163,0,0,1-.169-.145,90.7,90.7,0,0,1,0-9.811,80.694,80.694,0,0,0-.147-9.933.158.158,0,0,1,.154-.161h0a.161.161,0,0,1,.179.14,81.029,81.029,0,0,1,.147,9.978,89.983,89.983,0,0,0,0,9.772.161.161,0,0,1-.161.159h0Z" fill="#17253d"/>
          </g>
        </g>
        <g id="Gruppe_1978" data-name="Gruppe 1978">
          <g id="Gruppe_1977" data-name="Gruppe 1977">
            <path id="Pfad_2879" data-name="Pfad 2879" d="M107.208,140.111c-.233,0-.385-.011-.412-.014a.213.213,0,0,1-.2-.225v-.005h0a.223.223,0,0,1,.23-.2c.024,0,2.51.188,3.383-1.083.671-.977.619-9.921.413-15.7a.211.211,0,0,1,.2-.221h0a.205.205,0,0,1,.221.188h0v.018c.052,1.484.48,14.549-.488,15.954C109.78,139.973,108.009,140.111,107.208,140.111Z" fill="#17253d"/>
          </g>
        </g>
        <path id="Pfad_2880" data-name="Pfad 2880" d="M127.2,79.579l-4.571,7.207-2.307-2.64,4.26-6.618Z" fill="#476593"/>
        <circle id="Ellipse_100" data-name="Ellipse 100" cx="123.996" cy="81.508" r="2.822" fill="#fff"/>
        <g id="Gruppe_1982" data-name="Gruppe 1982">
          <path id="Pfad_2881" data-name="Pfad 2881" d="M129.825,42.41a1.674,1.674,0,0,0-1.606-.221l-.071.014c-.012,0-.017.012-.029.015a1.538,1.538,0,0,0-2.595-.516c-.062.073-.1.16-.161.238a1.266,1.266,0,0,0-1.779-.2h0a1.882,1.882,0,0,0-.176.145c-.287-.59-.73-1.338-1.466-1.274-.628.053-.916.743-1.084,1.261a5.342,5.342,0,0,0-.3,1.858c.017.465.047,1.15.459,1.445a1,1,0,0,0,1.247-.03c-.042.233-.267,2.732.421,3.13.808.466,1.445-.028,1.844-.664.162.61.553,1.064,1.37.643a2.82,2.82,0,0,0,1.238-1.73c.165.9.563,1.53,1.207,1.327,1.239-.388,1.609-2.672,1.734-3.694C130.135,43.6,130.315,42.864,129.825,42.41Z" fill="#735f5f"/>
          <g id="Gruppe_1979" data-name="Gruppe 1979">
            <path id="Pfad_2882" data-name="Pfad 2882" d="M122.346,45.089a.213.213,0,0,1-.214-.211.225.225,0,0,1,.007-.058l.736-2.707a.214.214,0,1,1,.417.094l0,.017-.737,2.707A.213.213,0,0,1,122.346,45.089Z" fill="#524444"/>
          </g>
          <g id="Gruppe_1980" data-name="Gruppe 1980">
            <path id="Pfad_2883" data-name="Pfad 2883" d="M124.47,47.287h-.034a.213.213,0,0,1-.176-.244h0l.761-4.673a.213.213,0,1,1,.421.068h0l-.761,4.674A.215.215,0,0,1,124.47,47.287Z" fill="#524444"/>
          </g>
          <g id="Gruppe_1981" data-name="Gruppe 1981">
            <path id="Pfad_2884" data-name="Pfad 2884" d="M127.209,46.041h-.042A.213.213,0,0,1,127,45.79h0l.643-3.224a.214.214,0,0,1,.42.084h0l-.643,3.224A.215.215,0,0,1,127.209,46.041Z" fill="#524444"/>
          </g>
        </g>
        <g id="Gruppe_1987" data-name="Gruppe 1987">
          <g id="Gruppe_1983" data-name="Gruppe 1983">
            <path id="Pfad_2885" data-name="Pfad 2885" d="M33.034,133.617a2.7,2.7,0,0,1-2.212-1.38c-.885-1.373-.376-15.994-.31-17.658a.205.205,0,0,1,.2-.207h.016a.211.211,0,0,1,.207.215v0h0c-.237,6.476-.369,16.458.245,17.411a2.275,2.275,0,0,0,1.881,1.185.213.213,0,1,1,.028.426h0Z" fill="#17253d"/>
          </g>
          <g id="Gruppe_1984" data-name="Gruppe 1984">
            <path id="Pfad_2886" data-name="Pfad 2886" d="M43.87,113.261H23.335a.214.214,0,0,1,0-.427H43.87a.214.214,0,0,1,.029.427A.141.141,0,0,1,43.87,113.261Z" fill="#17253d"/>
          </g>
          <g id="Gruppe_1985" data-name="Gruppe 1985">
            <path id="Pfad_2887" data-name="Pfad 2887" d="M34.892,142.851a.214.214,0,0,1-.221-.191c-.141-1.839-.529-8.712-.6-11.064-.072-2.292-.036-17.523-.036-17.672a.213.213,0,0,1,.219-.207h0a.212.212,0,0,1,.221.2h0c0,.153-.041,15.38.032,17.659.074,2.353.464,9.217.6,11.053a.207.207,0,0,1-.192.221h-.024Z" fill="#17253d"/>
          </g>
          <circle id="Ellipse_101" data-name="Ellipse 101" cx="34.077" cy="110.939" r="1.004" fill="#17253d"/>
          <g id="Gruppe_1986" data-name="Gruppe 1986">
            <path id="Pfad_2888" data-name="Pfad 2888" d="M46.635,117.956a.213.213,0,0,1-.12-.037l-3.254-2.206a.213.213,0,0,1,.238-.353l3.258,2.211a.214.214,0,0,1-.12.391Z" fill="#17253d"/>
          </g>
        </g>
        <path id="Pfad_2889" data-name="Pfad 2889" d="M41.815,50.9l-1.623-4.623-1.651,1.6s-.06,2.279-.044,2.385S41.815,50.9,41.815,50.9Z" fill="#17253d"/>
        <path id="Pfad_2890" data-name="Pfad 2890" d="M55.681,66.008c-.761-1.888-3.1-2.349-4.869-2.648-5.479-.929-9.135-2.935-11.081-8.41-1.2-3.37-.566-6.59.136-10a.214.214,0,0,0-.18-.242.225.225,0,0,0-.058,0q-5.365.609-10.762.774-.016-.951-.024-1.9c0-.274-.426-.221-.425.053q.011.928.021,1.865l-.432.015c-.1-.135-.363-.13-.376.084-.127,2.288-.062,4.586-.258,6.873a10.449,10.449,0,0,1-.65,3.542A7.449,7.449,0,0,1,23.9,58.9C22.981,59.51,17.6,61.7,17.6,61.7s5.651,5.3,6.649,5.5c2.948.584,5.956.988,8.933,1.391a33.325,33.325,0,0,0,8.12-.06,5.469,5.469,0,0,0,2,2.138,13.869,13.869,0,0,0,4.886,1.462q3.244.553,6.493,1.085a.221.221,0,0,0,.267-.143,20.447,20.447,0,0,0,.81-3.846A7.061,7.061,0,0,0,55.681,66.008Z" fill="#ffefe1"/>
        <path id="Pfad_2891" data-name="Pfad 2891" d="M29.113,152.543l2.353-.774s.642-26.095.482-26.314S14.5,120.22,14.5,120.22l-.5,2.865Z" fill="#17253d"/>
        <path id="Pfad_2892" data-name="Pfad 2892" d="M14.5,121.078,31,126.415l-.1,24.453-2.639.88L12.215,122.7Z" fill="#fff"/>
        <path id="Pfad_2893" data-name="Pfad 2893" d="M.1,118.016l29.116,9.515-.1,25.007L0,143.551Z" fill="#17253d"/>
        <path id="Pfad_2894" data-name="Pfad 2894" d="M46.209,30.822a15.815,15.815,0,0,0-6.333-8.894,11.457,11.457,0,0,0-5.5-2.232,8.857,8.857,0,0,0-4.721,1,9.04,9.04,0,0,0-3.492.841,13.241,13.241,0,0,0-3.145,2.545,9.355,9.355,0,0,0-2.645,7.738,13.545,13.545,0,0,1,.1,2.339,21.73,21.73,0,0,0-.384,2.434,4.9,4.9,0,0,0,.879,2.467,22.292,22.292,0,0,0,3.663,4.849c.8.716,1.912,1.246,2.676,2.039-.017.123-.038.244-.051.369-.023.251.332.274.413.067a2.8,2.8,0,0,1,.339.651c.09.257.507.154.412-.1a3.274,3.274,0,0,0-.664-1.107c.024-.135.053-.27.083-.4a10.46,10.46,0,0,0,1.557.929,6.986,6.986,0,0,0,2.339.682,31.286,31.286,0,0,0,3.292-.274,24.2,24.2,0,0,0,2.961.11,4.929,4.929,0,0,0,2.236-1,11.52,11.52,0,0,0,2.147-1.9c.712-.874,1-2,1.694-2.9a10.7,10.7,0,0,0,2.551-4.505A11.462,11.462,0,0,0,46.209,30.822Z" fill="#17253d"/>
        <path id="Pfad_2895" data-name="Pfad 2895" d="M43.417,36.277q.135-.959.176-1.926c.05-3.1.179-5.461-1.779-8.172a10.359,10.359,0,0,0-5.873-3.542c-3.018-.791-6.448-.722-8.874,1.239a10.08,10.08,0,0,0-4.148,7.46,24.927,24.927,0,0,0,.671,10.018A17.776,17.776,0,0,0,25.8,46.8a10.107,10.107,0,0,0,4.537,3.913A8.5,8.5,0,0,0,38.092,50a10.358,10.358,0,0,0,3.866-5.865A40.158,40.158,0,0,0,43.417,36.277Z" fill="#ffefe1"/>
        <g id="Gruppe_1988" data-name="Gruppe 1988">
          <path id="Pfad_2896" data-name="Pfad 2896" d="M33.166,42.752a.216.216,0,0,1-.123-.039c-1.141-.812-1.125-1.089-1.118-1.179a3.03,3.03,0,0,1,.221-.714c.124-.32.278-.722.4-1.145a7.814,7.814,0,0,0,.166-1.977.215.215,0,0,1,.206-.221h0a.22.22,0,0,1,.221.207,8.086,8.086,0,0,1-.182,2.11,12.482,12.482,0,0,1-.406,1.187,3.7,3.7,0,0,0-.2.588,5.314,5.314,0,0,0,.939.8.213.213,0,0,1,.052.3l0,0a.21.21,0,0,1-.175.089Z" fill="#e5ceb7"/>
        </g>
        <path id="Pfad_2897" data-name="Pfad 2897" d="M29.9,44.746a21.035,21.035,0,0,0,3.258.266,26.1,26.1,0,0,0,3.284-.148s-1.16,2.721-3.559,2.434A3.6,3.6,0,0,1,29.9,44.746Z" fill="#dfb3b3"/>
        <g id="Gruppe_1989" data-name="Gruppe 1989">
          <path id="Pfad_2898" data-name="Pfad 2898" d="M33.81,51.953c-.111,0-.222,0-.332-.008a8.969,8.969,0,0,1-5.533-2.579.216.216,0,0,1,.31-.3h0A8.674,8.674,0,0,0,33.5,51.51a6.222,6.222,0,0,0,4.844-2.056.214.214,0,0,1,.332.268A6.578,6.578,0,0,1,33.81,51.953Z" fill="#e5ceb7"/>
        </g>
        <path id="Pfad_2899" data-name="Pfad 2899" d="M29.986,33.942a1.09,1.09,0,0,0-.54-.272,4.63,4.63,0,0,0-4.211.849.2.2,0,0,0-.065.11c-.007.084.11.154.221.166a.937.937,0,0,0,.332-.051,7.478,7.478,0,0,1,2.786-.358,4.263,4.263,0,0,0,1.076.055c.227-.038.456-.158.465-.332A.239.239,0,0,0,29.986,33.942Z" fill="#17253d"/>
        <path id="Pfad_2900" data-name="Pfad 2900" d="M36.224,33.887a1.113,1.113,0,0,1,.554-.25,4.7,4.7,0,0,1,4.181.958.188.188,0,0,1,.06.11c0,.082-.11.146-.228.154a.9.9,0,0,1-.332-.06,7.611,7.611,0,0,0-2.766-.433,4.363,4.363,0,0,1-1.077.021c-.221-.044-.45-.168-.452-.332A.226.226,0,0,1,36.224,33.887Z" fill="#17253d"/>
        <path id="Pfad_2901" data-name="Pfad 2901" d="M42.749,36.013s1.8-.775,1.838,1.969-1.069,4.5-2.49,4.448-1.549-2.2-1.549-2.2Z" fill="#ffefe1"/>
        <path id="Pfad_2902" data-name="Pfad 2902" d="M23.474,35.445s-1.686-1-2.071,1.725.5,4.6,1.917,4.723S25.13,39.9,25.13,39.9Z" fill="#ffefe1"/>
        <path id="Pfad_2903" data-name="Pfad 2903" d="M42.038,25.851C39.715,23.126,34.97,20.005,31.2,21.38a1.086,1.086,0,0,0-.68-.143,7,7,0,0,0-2.1.871,18.254,18.254,0,0,0-2.665.961,5.1,5.1,0,0,0-1.266,1.677,20.445,20.445,0,0,0-2.712,7.773.173.173,0,0,0-.1.174c0,.176.01.349.023.522v.049a.191.191,0,0,0,.016.1,9.457,9.457,0,0,0,.286,1.687c.031.119.575.229.7.215a2.539,2.539,0,0,0,1.571-.664c.734-.568.531-1.141.826-1.94a10.886,10.886,0,0,1,.834-1.525,2.09,2.09,0,0,0,.574.878.5.5,0,0,0,.436.074c.64-.182,1.445-.206,1.869-.766a10.217,10.217,0,0,1,.7-1.549c.353-.467.838-.819,1.229-1.251a3.537,3.537,0,0,0,.811-2.624,3.359,3.359,0,0,0,.752,1.088,4.839,4.839,0,0,0,1.445.9c.81.344,2.027.36,2.563,1.093.4.544.391,1.238.912,1.717a10.229,10.229,0,0,0,1.743,1.018,6.809,6.809,0,0,1,2.013,1.734,4.1,4.1,0,0,1,.752,2.15c.035.477-.249,1.3.118,1.7.575.619,1.519-.24,1.659-.816a20.088,20.088,0,0,0,.576-3.832A10.12,10.12,0,0,0,42.038,25.851Z" fill="#17253d"/>
        <path id="Pfad_2904" data-name="Pfad 2904" d="M56.952,69.048a5.258,5.258,0,0,0-.014-.664,1.881,1.881,0,0,0-.086-.427c-.154-.452-.5-.722-1.217-1.06a12.844,12.844,0,0,0-5.494-1h-.052c-.722-.009-1.445.013-2.153.026a20.458,20.458,0,0,1-6.34-.5c-2.247-.67-11.889-1.688-14.483-2.153-2.786-.5-7.507-1.568-9.847-1.969a6.171,6.171,0,0,0-2.346,0,4.113,4.113,0,0,0-2.256,1.371,6.591,6.591,0,0,0-1.265,4.2c-.008.143-.008.289-.008.436-.012.768.019,1.524.026,2.212a43,43,0,0,0-.36,9.217l.025.421c.168,2.918.487,5.84.714,8.75a14.393,14.393,0,0,1,.03,2.312c-.009.1-.017.206-.03.309a.579.579,0,0,1-.017.124c-.355,2.667-1.559,4.628-.559,7.294a3.99,3.99,0,0,0,.162.389.694.694,0,0,0,.055.132c.255-.256.289,2.579.089,4.357a9.978,9.978,0,0,0,.207,3.516,4.123,4.123,0,0,0,.132.462,5.112,5.112,0,0,0,.936,1.747c.4,1.624,1.781,1.992,3.2,2.132.36.039.723.06,1.073.082h.046c1.833.119,3.3.79,5.136.36,1.187-.282,2.38-.574,3.567-.867h0c.516-.124,1.038-.252,1.555-.381,1.008-.244,3.524-1.206,4.457-.833,1.341.533,3.016.427,4.437.794a36.391,36.391,0,0,0,3.58,1.094,10.609,10.609,0,0,0,3.166-.133h0c.3-.046.595-.094.886-.135a37.785,37.785,0,0,1,4.824-.343c1.15-.017,3.849-.342,5.456-.243a4.058,4.058,0,0,1,.752.1c.432.1.923-.573,1.309-1.593a11.409,11.409,0,0,0,.687-3.952v-.41c-.016-.4-.024-.795-.021-1.192.008-1.542-.973-3.481-1.174-5.084q-.111-.928-.179-1.7c-.013-.149-.022-.3-.03-.443-.214-3.281.3-4.559.8-7.836.022-.135.038-.281.064-.432.068-.5.138-1.038.207-1.636a70.818,70.818,0,0,0,.236-8.63v-.433c-.009-1.063-.019-2.128,0-3.191C56.852,72.122,56.9,70.588,56.952,69.048Z" fill="#c5d0eb"/>
        <path id="Pfad_2905" data-name="Pfad 2905" d="M15.184,144.1a24.97,24.97,0,0,1-.53-3.781,4.12,4.12,0,0,0-.56-2.167,16.983,16.983,0,0,0-1.624-1.683s.182-6.783.235-8.379q.155-4.785.367-9.57a.231.231,0,0,0,.01-.245c.007-.166.013-.332.021-.494a.214.214,0,0,0-.427-.007c-.007.128-.01.256-.017.383-2.6-.14-5.12.561-7.682.864-.039-.787-.083-1.573-.119-2.36-.012-.274-.442-.283-.427-.008.038.805.082,1.612.122,2.417-.406.041-.813.069-1.223.081-.273.008-.282.435-.007.427.419-.011.835-.042,1.251-.084.3,5.975,1.469,17.975,1.469,17.975a38.084,38.084,0,0,0-.568,6.767c.111,1.348.01,2.645,1.761,2.689.362.009.478.4.736.572.212.142.791.138.9.31.6,1,1.682.172,2.545.685.682.406,1.312,1.594,2.263.881.787-.591.443-1.819.358-2.626-.029-.282-.047-.562-.068-.844a1.106,1.106,0,0,0,.342.463C15.6,147.255,15.242,144.52,15.184,144.1Z" fill="#ffefe1"/>
        <path id="Pfad_2906" data-name="Pfad 2906" d="M17.935,92.91c-.008-.937-.03-1.867-.072-2.794,0-.141-.013-.282-.022-.423a83.359,83.359,0,0,0-1.128-10.2c-.021-.141-.046-.286-.076-.427-.1-.62-.221-1.244-.346-1.867-.572-2.876-1.184-5.754-1.511-8.682-.022-.191-.044-.389-.06-.581-.013-.145-.026-.286-.038-.432-.1-1.166-.136-2.323-.146-3.509a3.868,3.868,0,0,0-.4-2c.238-.1.487-.2.746-.285a.23.23,0,0,0,.132-.3v0a.227.227,0,0,0-.1-.116.208.208,0,0,0-.135,0,9.54,9.54,0,0,0-5.277,4.6c-.1.2-.207.4-.31.606-.064.133-.124.266-.184.4q-.166.37-.309.756C7.381,71.211,5.587,74.982,5.416,78.71c-.008.14-.011.278-.011.412v.009a30.142,30.142,0,0,1-.877,7.07,27.943,27.943,0,0,0-.594,3.221c-.022.141-.039.282-.054.427-.1.774-.193,1.563-.292,2.358a38.478,38.478,0,0,0-.207,5.345v.375c0,.322,0,.636.009.957.013,1.051.03,2.1-.022,3.162-.068,1.3.371,2.311-.227,3.451a5.859,5.859,0,0,0-.62,2.034c-.022.138-.034.273-.046.413-.176,2.174.4,4.516-.155,6.618a.1.1,0,0,1-.042-.009,2.518,2.518,0,0,0-1.328-.064,1.174,1.174,0,0,0-.478.332,1.1,1.1,0,0,0-.238.4,4.169,4.169,0,0,0,.034,2.093,5.174,5.174,0,0,1-.043,2.877c-.816,2.539,3.64,3.1,5.038,3.178.982.06,1.969.111,2.956.175l6.123.363a.221.221,0,0,0,.221-.207c.207-1.521.355-3.045.458-4.575.013-.142.021-.282.024-.427.022-.282.039-.569.052-.85.132-.381.266-.765.393-1.149a.181.181,0,0,0,.042-.12c.035-.1.073-.213.111-.319a42,42,0,0,0,1.438-5.5q.174-.91.282-1.833c.132-1.1.412-2.655.7-4.294q.039-.224.078-.453c.31-1.76.606-3.567.73-4.952.013-.136.026-.273.03-.4.013-.154.022-.3.026-.437C19.012,95.7,17.96,95.6,17.935,92.91Z" fill="#c5d0eb"/>
        <path id="Pfad_2907" data-name="Pfad 2907" d="M42.325,110.335s13.831,9.172,14.57,9.566,4.814-1.4,3.779-4.149c-.978-2.587.664-6.585.664-6.585l-11.1-1.256Z" fill="#c5d0eb"/>
        <path id="Pfad_2908" data-name="Pfad 2908" d="M66.231,98.652c-.064-.236-.128-.474-.192-.709-.038-.149-.081-.3-.124-.457-.427-1.535-.876-3.078-1.192-4.636-.4-1.992-.248-3.853-.5-5.754-.012-.132-.034-.26-.054-.393a9.81,9.81,0,0,0-.664-2.345c-.953-2.234-2.226-4.178-2.858-6.464-.043-.149-.081-.3-.111-.453-.043-.175-.078-.355-.111-.534a40.537,40.537,0,0,0-1.7-6.4,9.94,9.94,0,0,0-1.054-2.263,3.105,3.105,0,0,0-.3-.385,2.6,2.6,0,0,0-.636-.546,12.32,12.32,0,0,0-6.6-1.418h-.056c-.274.008-.4,1.41-.125,1.4a27.782,27.782,0,0,1,3.2.065,6.712,6.712,0,0,1-.7,1.384c-.1.162-.221.319-.332.479-1.363,1.819-3.294,3.221-3.73,5.669a15.518,15.518,0,0,0-.206,1.863c-.008.141-.013.282-.017.427-.03.962,0,1.922.008,2.877q.051,3.03.11,6.057c.008.443.023.886.035,1.328,0,.141,0,.282.014.427.068,2.594.17,5.187.332,7.775.008.146.022.292.029.436q.07,1.172.168,2.346c.145,1.776.31,3.553.533,5.327.013.111.026.222.043.343a.314.314,0,0,0,.013.068c.23,1.549,1.452,1.91,2.777,2.594a2.917,2.917,0,0,1,1.217,1.512c.265.59.482,1.238.76,1.813a2.464,2.464,0,0,0,1.223,1.327,26.917,26.917,0,0,0,4.99,1.407,4.641,4.641,0,0,0,2.323-.055c1.26-.565,2.832-3.129,3.73-4.148a3.027,3.027,0,0,0,.533-1.7c.013-.149.022-.3.026-.452.042-1.018-.039-2.116.068-2.833C67.334,101.971,66.647,100.234,66.231,98.652Z" fill="#c5d0eb"/>
        <path id="Pfad_2909" data-name="Pfad 2909" d="M48.925,118.978c1.527,1.1,3.131,2.078,4.747,3.039.516.31,1.059.595,1.608.867.832-2.173,1.582-4.377,2.232-6.615a.19.19,0,0,0-.021-.167c.738-.975,1.476-1.951,2.2-2.939q.774-1.064,1.548-2.137a15.85,15.85,0,0,0,1.4-1.992c.861-1.754-3.588-2.254-4.537-2.3-2.528-.132-3.964,2.715-5.387,4.45a35.456,35.456,0,0,0-3.922,5.881c-.207.392-.479.826-.714,1.281C48.362,118.571,48.652,118.778,48.925,118.978Z" fill="#ffefe1"/>
        <path id="Pfad_2910" data-name="Pfad 2910" d="M25.834,110.265l-10.193,6s-1.536-2.146-1-2.491,1.465-4.537,2.719-4.838S25.834,110.265,25.834,110.265Z" fill="#c5d0eb"/>
        <g id="Gruppe_1991" data-name="Gruppe 1991">
          <g id="Gruppe_1990" data-name="Gruppe 1990">
            <path id="Pfad_2911" data-name="Pfad 2911" d="M23.9,48.048c-.043-.921-.131-1.909-.261-2.846-.058-.413-.058-3.1-.818-2.779-.45.184-.515,1.709-.6,2.129a21.224,21.224,0,0,0-.381,2.818,5.349,5.349,0,0,0,0,.67Z" fill="#213759"/>
            <path id="Pfad_2912" data-name="Pfad 2912" d="M22.56,41.181c-1.074.3-.238,2.467.864,1.476a.87.87,0,0,0-.737-1.5A.917.917,0,0,0,22.56,41.181Z" fill="#213759"/>
          </g>
        </g>
        <g id="Gruppe_1993" data-name="Gruppe 1993">
          <g id="Gruppe_1992" data-name="Gruppe 1992">
            <path id="Pfad_2913" data-name="Pfad 2913" d="M44.236,48.128c-.041-.921-.131-1.909-.26-2.846-.058-.413-.057-3.1-.818-2.779-.45.184-.516,1.709-.6,2.129a21.226,21.226,0,0,0-.382,2.818,5.657,5.657,0,0,0,0,.664Z" fill="#213759"/>
            <path id="Pfad_2914" data-name="Pfad 2914" d="M42.9,41.263c-1.073.3-.237,2.468.865,1.478a.871.871,0,0,0-.738-1.5A.785.785,0,0,0,42.9,41.263Z" fill="#213759"/>
          </g>
        </g>
        <g id="Gruppe_1994" data-name="Gruppe 1994">
          <path id="Pfad_2915" data-name="Pfad 2915" d="M11.223,148.087a.214.214,0,0,1-.207-.178l-.346-2.063a.213.213,0,0,1,.42-.072l.347,2.064a.214.214,0,0,1-.175.247H11.23Z" fill="#e5ceb7"/>
        </g>
        <g id="Gruppe_1995" data-name="Gruppe 1995">
          <path id="Pfad_2916" data-name="Pfad 2916" d="M13.905,145.321a.212.212,0,0,1-.207-.178l-.729-4.346a.219.219,0,0,1,.176-.246.206.206,0,0,1,.243.16h0v.016l.729,4.347a.216.216,0,0,1-.177.246h-.035Z" fill="#e5ceb7"/>
        </g>
        <g id="Gruppe_1996" data-name="Gruppe 1996">
          <path id="Pfad_2917" data-name="Pfad 2917" d="M57.672,68.244c-.249.051-.5.1-.74.14q-2.4.465-4.819.838c-2.27.354-4.559.646-6.866.832a101.564,101.564,0,0,1-16.9-.034,133.991,133.991,0,0,1-13.633-2.086q-1.379-.255-2.761-.516c-.191-.034-.38-.072-.573-.1q-1.187-.22-2.374-.406c.06-.136.12-.268.184-.4q1.107.172,2.2.374c.493.089.984.183,1.475.278.6.11,1.209.234,1.812.349a129.16,129.16,0,0,0,15.111,2.2A101.061,101.061,0,0,0,47.1,69.464c1.8-.184,3.581-.427,5.353-.713q2.2-.354,4.4-.787c.176-.03.351-.065.526-.1A2.794,2.794,0,0,1,57.672,68.244Z" fill="#8397b4"/>
          <path id="Pfad_2918" data-name="Pfad 2918" d="M60.65,77.9c-1.273-.227-2.545-.443-3.824-.62a34.613,34.613,0,0,0-4.08-.321,40.1,40.1,0,0,0-4.584.221c-1.3.133-2.593.31-3.883.516a146.7,146.7,0,0,1-15.934,2.042,109.536,109.536,0,0,1-11.63-.243c-1.533-.094-3.068-.191-4.6-.278-.343-.022-.688-.037-1.032-.052-1.889-.084-3.786-.11-5.67-.024v-.009c0-.135,0-.273.013-.412,1.872-.09,3.757-.065,5.631.025.812.03,1.625.076,2.434.129l3.153.2A106.229,106.229,0,0,0,30,79.219c5.482-.359,10.826-1.512,16.266-2.234.64-.084,1.285-.162,1.93-.227a37.5,37.5,0,0,1,6.6-.128c.683.056,1.362.128,2.042.222,1.238.162,2.476.372,3.715.594A3.289,3.289,0,0,0,60.65,77.9Z" fill="#8397b4"/>
          <path id="Pfad_2919" data-name="Pfad 2919" d="M64.226,87.1a59.164,59.164,0,0,1-7.058.842c-.282.012-.559.026-.842.034-2.666.086-5.331.008-7.993-.1-4.055-.171-8.106-.419-12.16-.286-6.2.2-12.2,1.688-18.311,2.529-.739.1-1.483.2-2.226.278-1.282.138-2.573.236-3.863.265a31.276,31.276,0,0,1-5.8-.358c-.7-.111-1.4-.265-2.088-.443.016-.145.033-.286.053-.427a23.549,23.549,0,0,0,2.342.484,31.709,31.709,0,0,0,5.542.31,50.849,50.849,0,0,0,5.2-.423c.273-.034.547-.072.82-.11,6.955-.958,13.732-2.58,20.8-2.572,3.221,0,6.45.189,9.677.325,2.692.111,5.383.192,8.071.1,1.418-.047,2.838-.141,4.255-.3,1.167-.132,2.34-.325,3.525-.535A3.309,3.309,0,0,1,64.226,87.1Z" fill="#8397b4"/>
          <path id="Pfad_2920" data-name="Pfad 2920" d="M66.043,97.942c-.594-.124-1.182-.24-1.77-.36a85.677,85.677,0,0,0-8.7-1.327,47.039,47.039,0,0,0-6.87-.167c-.87.038-1.738.111-2.609.221-5.807.7-11.421,2.5-17.232,3.137a46.885,46.885,0,0,1-9.985-.206c-2.49-.266-4.995-.62-7.485-.893a54.709,54.709,0,0,0-7.99-.4v-.375a54.951,54.951,0,0,1,7.832.389l.885.1c2.27.27,4.537.565,6.788.775a48.036,48.036,0,0,0,11.867-.073c5.8-.867,11.44-2.656,17.3-3.077.2-.013.4-.026.6-.035a44.774,44.774,0,0,1,6.87.163,94.385,94.385,0,0,1,10.383,1.675C65.958,97.644,66,97.79,66.043,97.942Z" fill="#8397b4"/>
          <path id="Pfad_2921" data-name="Pfad 2921" d="M67.026,106.466c0,.154-.012.3-.026.452a46.072,46.072,0,0,0-10.052-2.277c-.193-.025-.39-.049-.581-.069-2.3-.249-4.611-.368-6.914-.406-3.675-.064-7.351.078-11.023.207-3.166.111-6.328.214-9.493.176-2.975-.034-5.964-.362-8.938-.171a13.348,13.348,0,0,0-1.94.266,33.68,33.68,0,0,0-6.2,2.166l-.176.072A16.7,16.7,0,0,1,3.7,108.1c-.413-.035-.826-.081-1.226-.135.012-.142.024-.278.046-.413a20.313,20.313,0,0,0,3.529.191,16.75,16.75,0,0,0,5.675-1.387c.965-.385,1.926-.808,2.926-1.2a16.34,16.34,0,0,1,3.473-.953,25.312,25.312,0,0,1,4.667-.282c3.175.076,6.336.249,9.516.206,3.1-.047,6.187-.179,9.286-.279,2.573-.081,5.182-.132,7.8-.081,2.52.043,5.044.184,7.545.474A46.578,46.578,0,0,1,67.026,106.466Z" fill="#8397b4"/>
          <path id="Pfad_2922" data-name="Pfad 2922" d="M15.041,118.7c0,.146-.012.286-.024.427h-2a17.9,17.9,0,0,1-7.507-1.542c-1.76-.782-3.508-1.6-5.275-2.353a1.147,1.147,0,0,1,.238-.4c1.3.559,2.589,1.149,3.867,1.747A24.594,24.594,0,0,0,8.705,118.3a19,19,0,0,0,4.5.4Q14.128,118.7,15.041,118.7Z" fill="#8397b4"/>
        </g>
        <g id="Gruppe_2023" data-name="Gruppe 2023">
          <g id="Gruppe_2022" data-name="Gruppe 2022">
            <g id="Gruppe_1998" data-name="Gruppe 1998">
              <g id="Gruppe_1997" data-name="Gruppe 1997">
                <path id="Pfad_2923" data-name="Pfad 2923" d="M15.432,110.436a.253.253,0,0,1-.082-.015,4.115,4.115,0,0,1-2.063-2.374c-.67-1.808-.3-4.219,1.365-8.9a12.475,12.475,0,0,0-.389-8.641,11.455,11.455,0,0,1-.375-1.229,41.114,41.114,0,0,1,.442-6.66,36.612,36.612,0,0,0,.369-4.77,65.361,65.361,0,0,0-6.734-4.1.213.213,0,0,1,.206-.373c1.1.619,6.568,3.714,6.9,4.271.17.286.047,1.6-.316,5.022A43.339,43.339,0,0,0,14.3,89.2a10.941,10.941,0,0,0,.359,1.177,12.852,12.852,0,0,1,.386,8.922c-1.606,4.513-1.991,6.926-1.368,8.607a3.733,3.733,0,0,0,1.823,2.128.214.214,0,0,1-.082.413Z" fill="#17253d"/>
              </g>
            </g>
            <g id="Gruppe_2000" data-name="Gruppe 2000">
              <g id="Gruppe_1999" data-name="Gruppe 1999">
                <path id="Pfad_2924" data-name="Pfad 2924" d="M29.3,108.037a.2.2,0,0,1-.059-.009,66.144,66.144,0,0,1-7.789-2.7,9.091,9.091,0,0,1-2.713-1.823.214.214,0,0,1,.332-.271h0a9.04,9.04,0,0,0,2.58,1.714,67.317,67.317,0,0,0,7.711,2.675.213.213,0,0,1,.146.263h0A.226.226,0,0,1,29.3,108.037Z" fill="#17253d"/>
              </g>
            </g>
            <g id="Gruppe_2002" data-name="Gruppe 2002">
              <g id="Gruppe_2001" data-name="Gruppe 2001">
                <path id="Pfad_2925" data-name="Pfad 2925" d="M30.722,108.041A.2.2,0,0,1,30.6,108l-5.4-3.939a.214.214,0,0,1,.252-.345l5.4,3.94a.213.213,0,0,1,.048.3l0,0a.21.21,0,0,1-.174.088Z" fill="#17253d"/>
              </g>
            </g>
            <g id="Gruppe_2004" data-name="Gruppe 2004">
              <g id="Gruppe_2003" data-name="Gruppe 2003">
                <path id="Pfad_2926" data-name="Pfad 2926" d="M39.264,109.288a.213.213,0,0,1-.064-.415c.045-.015,4.579-1.413,6.9-2.385a14.048,14.048,0,0,0,4.485-3.9.213.213,0,1,1,.357.233h0l-.007.01-.008.011a14.152,14.152,0,0,1-4.661,4.038c-2.336.982-6.891,2.385-6.937,2.4A.282.282,0,0,1,39.264,109.288Z" fill="#17253d"/>
              </g>
            </g>
            <g id="Gruppe_2006" data-name="Gruppe 2006">
              <g id="Gruppe_2005" data-name="Gruppe 2005">
                <path id="Pfad_2927" data-name="Pfad 2927" d="M54.962,83.933a.213.213,0,0,1-.213-.213h0a.209.209,0,0,1,.083-.17l4.786-3.612a.216.216,0,0,1,.3.055v0a.212.212,0,0,1-.04.285L55.093,83.89A.208.208,0,0,1,54.962,83.933Z" fill="#17253d"/>
              </g>
            </g>
            <g id="Gruppe_2008" data-name="Gruppe 2008">
              <g id="Gruppe_2007" data-name="Gruppe 2007">
                <path id="Pfad_2928" data-name="Pfad 2928" d="M13.953,116.7h-.037c-1.033-.184-10.127-1.794-10.486-1.9a.216.216,0,0,1,.125-.413c.274.081,6.389,1.174,10.435,1.891a.213.213,0,0,1-.038.423Z" fill="#17253d"/>
              </g>
            </g>
            <g id="Gruppe_2009" data-name="Gruppe 2009">
              <path id="Pfad_2929" data-name="Pfad 2929" d="M6.18,119.194H6.166L1.4,118.885a.214.214,0,0,1-.2-.222h0a.221.221,0,0,1,.227-.2l4.768.31a.214.214,0,0,1-.013.427Z" fill="#17253d"/>
            </g>
            <g id="Gruppe_2011" data-name="Gruppe 2011">
              <g id="Gruppe_2010" data-name="Gruppe 2010">
                <path id="Pfad_2930" data-name="Pfad 2930" d="M13.368,120.434h0L4.613,120.4a.211.211,0,0,1-.213-.211h0a.213.213,0,0,1,.213-.213h0l8.756.037a.214.214,0,0,1,0,.427Z" fill="#17253d"/>
              </g>
            </g>
            <g id="Gruppe_2013" data-name="Gruppe 2013">
              <g id="Gruppe_2012" data-name="Gruppe 2012">
                <path id="Pfad_2931" data-name="Pfad 2931" d="M54.093,104.01a.218.218,0,0,1-.154-.067.214.214,0,0,1,0-.3h0a9.19,9.19,0,0,1,6.029-2.244h.039a11.661,11.661,0,0,1,6.021,1.556.215.215,0,0,1-.221.368l-.016-.012A11.463,11.463,0,0,0,60,101.828a8.979,8.979,0,0,0-5.77,2.122A.225.225,0,0,1,54.093,104.01Z" fill="#17253d"/>
              </g>
            </g>
            <g id="Gruppe_2015" data-name="Gruppe 2015">
              <g id="Gruppe_2014" data-name="Gruppe 2014">
                <path id="Pfad_2932" data-name="Pfad 2932" d="M54.1,101.805a.186.186,0,0,1-.062-.008.214.214,0,0,1-.142-.266h0c.035-.11.421-1.135,3.627-2.47a15.9,15.9,0,0,1,3.856-1.355h0a.214.214,0,0,1,0,.428h0a17.534,17.534,0,0,0-3.692,1.321c-3.026,1.265-3.379,2.191-3.382,2.2A.222.222,0,0,1,54.1,101.805Z" fill="#17253d"/>
              </g>
            </g>
            <g id="Gruppe_2017" data-name="Gruppe 2017">
              <g id="Gruppe_2016" data-name="Gruppe 2016">
                <path id="Pfad_2933" data-name="Pfad 2933" d="M53.839,108.549a.213.213,0,0,1-.189-.11c-.047-.09-1.176-2.2-1-3.209a40,40,0,0,0,.082-7.016,15.9,15.9,0,0,1,.9-7.251c.619-1.423.021-7.31.014-7.369l-.008-.082,4.667-6.455a.214.214,0,0,1,.346.251L54.08,83.632c.074.753.572,6.054-.055,7.5a15.454,15.454,0,0,0-.867,7.054,40.6,40.6,0,0,1-.087,7.111,7.081,7.081,0,0,0,.958,2.936.212.212,0,0,1-.086.287h0A.2.2,0,0,1,53.839,108.549Z" fill="#17253d"/>
              </g>
            </g>
            <g id="Gruppe_2019" data-name="Gruppe 2019">
              <g id="Gruppe_2018" data-name="Gruppe 2018">
                <path id="Pfad_2934" data-name="Pfad 2934" d="M13.965,113.259a.223.223,0,0,1-.088-.021.206.206,0,0,1-.1-.272h0c.029-.066.332-.684,2.324-1.891s8.341-2.987,8.61-3.06a.214.214,0,0,1,.11.412h0c-.065.02-6.571,1.837-8.5,3.014-1.85,1.127-2.147,1.694-2.15,1.7A.221.221,0,0,1,13.965,113.259Z" fill="#17253d"/>
              </g>
            </g>
            <g id="Gruppe_2021" data-name="Gruppe 2021">
              <g id="Gruppe_2020" data-name="Gruppe 2020">
                <path id="Pfad_2935" data-name="Pfad 2935" d="M52.2,110.055a.181.181,0,0,1-.052-.007s-1.328-.326-3.09-.722a21.768,21.768,0,0,0-5.159-.019.214.214,0,1,1-.066-.423l.019,0a21.806,21.806,0,0,1,5.3.025c1.764.4,3.1.723,3.1.723a.213.213,0,0,1-.05.421Z" fill="#17253d"/>
              </g>
            </g>
          </g>
        </g>
        <path id="Pfad_2936" data-name="Pfad 2936" d="M44.023,57.385c-.033-.16-.071-.319-.111-.477-.342-1.314-1.063-2.489-1.4-3.789A11.21,11.21,0,0,0,41.268,49.8c-.491-.886-2.114-.647-2.114-.647a50.438,50.438,0,0,1-1.042,5.8,17.448,17.448,0,0,1-1.428,3.42,7.8,7.8,0,0,0-.8,3.227,8.891,8.891,0,0,1-.1,2.093,3.934,3.934,0,0,1-1.25,1.717,2.839,2.839,0,0,0-1.069,1.9c-.1.75-.376,1.793.172,2.434a1.784,1.784,0,0,0,1.636.5c.091-.1.182-.2.273-.31.7-1.479,1.384-2.963,2.226-4.369.177-.3.021,1.608-.184,2.048-.287.619-.8,1.181-1.123,1.8-.31.6-.58,1.179.261,1.151a6.957,6.957,0,0,0,2.979-.945,10.166,10.166,0,0,0,3.16-3.108c.515-.813.1-1.373,0-2.25a3.018,3.018,0,0,1,.171-1.754c.274-.516.761-.869.938-1.445A7.479,7.479,0,0,0,44.023,57.385Z" fill="#17253d"/>
        <g id="Gruppe_2025" data-name="Gruppe 2025">
          <g id="Gruppe_2024" data-name="Gruppe 2024">
            <path id="Pfad_2937" data-name="Pfad 2937" d="M5.027,144.535a.235.235,0,0,1-.074-.013L.417,142.871a.214.214,0,0,1,.147-.4h0L5.1,144.122a.213.213,0,0,1,.121.276h0a.218.218,0,0,1-.194.137Z" fill="#17253d"/>
          </g>
        </g>
        <g id="Gruppe_2027" data-name="Gruppe 2027">
          <g id="Gruppe_2026" data-name="Gruppe 2026">
            <path id="Pfad_2938" data-name="Pfad 2938" d="M28.151,151.471a.216.216,0,0,1-.062-.009l-13.1-4.006a.216.216,0,0,1,.109-.418h.016l13.1,4a.214.214,0,0,1-.062.413Z" fill="#17253d"/>
          </g>
        </g>
        <g id="Gruppe_2036" data-name="Gruppe 2036">
          <g id="Gruppe_2035" data-name="Gruppe 2035">
            <g id="Gruppe_2028" data-name="Gruppe 2028">
              <path id="Pfad_2939" data-name="Pfad 2939" d="M31.319,25.384a.218.218,0,0,1-.159-.069,5.073,5.073,0,0,1-1.046-2.051,7.956,7.956,0,0,0-.554-1.66.215.215,0,0,1,.368-.222l.009.016a8.334,8.334,0,0,1,.589,1.76,4.772,4.772,0,0,0,.948,1.865.213.213,0,0,1-.011.3.217.217,0,0,1-.147.057Z" fill="#0a111c"/>
            </g>
            <g id="Gruppe_2029" data-name="Gruppe 2029">
              <path id="Pfad_2940" data-name="Pfad 2940" d="M26.086,30.513h-.035a.213.213,0,0,1-.176-.244h0a9.3,9.3,0,0,1,1.364-3.36,6.371,6.371,0,0,1,2.721-2.251.214.214,0,1,1,.154.4h0a6.067,6.067,0,0,0-2.521,2.089,9.036,9.036,0,0,0-1.3,3.19A.211.211,0,0,1,26.086,30.513Z" fill="#0a111c"/>
            </g>
            <g id="Gruppe_2030" data-name="Gruppe 2030">
              <path id="Pfad_2941" data-name="Pfad 2941" d="M21.662,34.5a.213.213,0,0,1-.082-.412,4.021,4.021,0,0,0,2.109-2.074c.479-1.484.649-2.039,1.224-4.088a7.051,7.051,0,0,1,2.876-3.509.214.214,0,0,1,.222.364,6.74,6.74,0,0,0-2.684,3.257c-.577,2.057-.747,2.613-1.229,4.1a4.372,4.372,0,0,1-2.353,2.339A.219.219,0,0,1,21.662,34.5Z" fill="#0a111c"/>
            </g>
            <g id="Gruppe_2031" data-name="Gruppe 2031">
              <path id="Pfad_2942" data-name="Pfad 2942" d="M43.784,35.32a.213.213,0,0,1-.213-.213h0a11.847,11.847,0,0,0-.172-1.981,3.787,3.787,0,0,0-2.344-2.458,7.223,7.223,0,0,1-2.49-2.332,11.715,11.715,0,0,0-1.418-1.616,5.771,5.771,0,0,0-3.68-1.015.207.207,0,0,1-.228-.182v-.015a.214.214,0,0,1,.2-.229h0a6.094,6.094,0,0,1,4,1.122,12.135,12.135,0,0,1,1.472,1.674,6.8,6.8,0,0,0,2.334,2.212,4.205,4.205,0,0,1,2.579,2.749,11.926,11.926,0,0,1,.182,2.075A.234.234,0,0,1,43.784,35.32Z" fill="#0a111c"/>
            </g>
            <g id="Gruppe_2032" data-name="Gruppe 2032">
              <path id="Pfad_2943" data-name="Pfad 2943" d="M45.205,35.313a.233.233,0,0,1-.053-.006.215.215,0,0,1-.154-.26,6.31,6.31,0,0,0-.164-3.529,6.07,6.07,0,0,0-2.747-2.379.214.214,0,0,1,.169-.392,6.376,6.376,0,0,1,2.969,2.6,6.622,6.622,0,0,1,.192,3.809A.214.214,0,0,1,45.205,35.313Z" fill="#0a111c"/>
            </g>
            <g id="Gruppe_2033" data-name="Gruppe 2033">
              <path id="Pfad_2944" data-name="Pfad 2944" d="M38.049,65.225h-.032a.213.213,0,0,1-.176-.244h0a18.385,18.385,0,0,1,1.413-4.734,11.43,11.43,0,0,0,1.085-4.6,15.924,15.924,0,0,0-.39-2.9.214.214,0,1,1,.391-.174l.009.024h0a.248.248,0,0,1,.012.054,15.728,15.728,0,0,1,.4,3.009,11.906,11.906,0,0,1-1.135,4.8,18.328,18.328,0,0,0-1.364,4.6A.214.214,0,0,1,38.049,65.225Z" fill="#0a111c"/>
            </g>
            <g id="Gruppe_2034" data-name="Gruppe 2034">
              <path id="Pfad_2945" data-name="Pfad 2945" d="M41.467,57.321a.161.161,0,0,1-.049-.007.212.212,0,0,1-.16-.253h0a11.515,11.515,0,0,0,.172-2.232,10.54,10.54,0,0,0-.871-3.405.214.214,0,1,1,.391-.175h0a10.821,10.821,0,0,1,.907,3.58,11.6,11.6,0,0,1-.183,2.323A.22.22,0,0,1,41.467,57.321Z" fill="#0a111c"/>
            </g>
          </g>
        </g>
        <g id="Gruppe_2037" data-name="Gruppe 2037">
          <path id="Pfad_2946" data-name="Pfad 2946" d="M42.837,40.631a.214.214,0,0,1-.213-.214.234.234,0,0,1,.028-.1,2.745,2.745,0,0,0,.332-1.135,2.2,2.2,0,0,0-.079-.646.223.223,0,0,1,.1-.28.205.205,0,0,1,.275.089h0a2.182,2.182,0,0,1,.119.817,3.132,3.132,0,0,1-.39,1.359A.219.219,0,0,1,42.837,40.631Z" fill="#e5ceb7"/>
        </g>
        <g id="Gruppe_2038" data-name="Gruppe 2038">
          <path id="Pfad_2947" data-name="Pfad 2947" d="M23.253,40.18a.211.211,0,0,1-.185-.11,3.115,3.115,0,0,1-.387-1.358A2.182,2.182,0,0,1,22.8,37.9a.214.214,0,1,1,.383.192h0a2.338,2.338,0,0,0-.075.639,2.745,2.745,0,0,0,.332,1.135.213.213,0,0,1-.082.29h0A.205.205,0,0,1,23.253,40.18Z" fill="#e5ceb7"/>
        </g>
        <path id="Pfad_2948" data-name="Pfad 2948" d="M37.1,36.292c2-.125,2.063,1.39.57,1.4a3.157,3.157,0,0,1-.979-.146C35.814,37.258,35.585,36.389,37.1,36.292Z" fill="#17253d"/>
        <path id="Pfad_2949" data-name="Pfad 2949" d="M28.345,36.306c1.992-.207,2.118,1.3.628,1.378a3.174,3.174,0,0,1-.985-.1C27.1,37.323,26.831,36.463,28.345,36.306Z" fill="#17253d"/>
      </g>
    </g>
  </g>
</svg>
