<svg xmlns="http://www.w3.org/2000/svg" viewBox="0 0 290.862 99.621">
  <title>A_teachUOS</title>
  <g id="Ebene_2" data-name="Ebene 2">
    <g id="Ebene_1-2" data-name="Ebene 1">
      <g id="Gruppe_2369" data-name="Gruppe 2369">
        <g id="teach_UOS" data-name="teach UOS" style="isolation: isolate">
          <g style="isolation: isolate">
            <path d="M7.361,26.8A4.4,4.4,0,0,1,4.041,25.6a4.813,4.813,0,0,1-1.162-3.474V10.962H.684A.722.722,0,0,1,.2,10.791.664.664,0,0,1,0,10.26V8.981L2.988,8.6,3.726,2.97a.79.79,0,0,1,.243-.442.713.713,0,0,1,.494-.171H6.084V8.64h5.273v2.322H6.084V21.905a2.325,2.325,0,0,0,.558,1.71,1.95,1.95,0,0,0,1.44.559,2.542,2.542,0,0,0,.873-.135,3.782,3.782,0,0,0,.639-.3c.179-.107.333-.206.459-.3a.6.6,0,0,1,.333-.134.554.554,0,0,1,.45.3l.935,1.531a5.947,5.947,0,0,1-2,1.214A6.786,6.786,0,0,1,7.361,26.8Z" fill="#aebde8"/>
            <path d="M29.7,23.958a6.068,6.068,0,0,1-1.422,1.251,8.82,8.82,0,0,1-1.772.873,11.352,11.352,0,0,1-1.953.513,11.947,11.947,0,0,1-2,.171,9.28,9.28,0,0,1-3.484-.639,7.662,7.662,0,0,1-2.754-1.872A8.586,8.586,0,0,1,14.508,21.2a12.408,12.408,0,0,1-.649-4.177,10.619,10.619,0,0,1,.586-3.563,8.366,8.366,0,0,1,1.683-2.871A7.712,7.712,0,0,1,18.81,8.685a8.8,8.8,0,0,1,3.563-.694,8.206,8.206,0,0,1,3.033.55,6.851,6.851,0,0,1,2.412,1.584,7.264,7.264,0,0,1,1.594,2.556,9.758,9.758,0,0,1,.576,3.465,2.087,2.087,0,0,1-.162,1.007.67.67,0,0,1-.612.252H17.027a10.7,10.7,0,0,0,.478,3.007,6.038,6.038,0,0,0,1.179,2.133,4.739,4.739,0,0,0,1.8,1.277,6.182,6.182,0,0,0,2.34.424,6.862,6.862,0,0,0,2.078-.279,9.841,9.841,0,0,0,1.5-.6,11.481,11.481,0,0,0,1.053-.6,1.393,1.393,0,0,1,.729-.28.707.707,0,0,1,.612.307Zm-2.592-8.551a6.349,6.349,0,0,0-.314-2.043,4.609,4.609,0,0,0-.918-1.6,4.1,4.1,0,0,0-1.467-1.044,4.954,4.954,0,0,0-1.963-.369A4.926,4.926,0,0,0,18.8,11.69a6.279,6.279,0,0,0-1.665,3.717Z" fill="#aebde8"/>
            <path d="M33.768,10.854a10.4,10.4,0,0,1,3.257-2.178,10.061,10.061,0,0,1,3.871-.72,6.9,6.9,0,0,1,2.717.5,5.567,5.567,0,0,1,2,1.4,5.938,5.938,0,0,1,1.225,2.179,9.1,9.1,0,0,1,.414,2.808V26.514H45.828a1.39,1.39,0,0,1-.721-.154,1.035,1.035,0,0,1-.395-.6l-.36-1.729a17.9,17.9,0,0,1-1.4,1.18,7.93,7.93,0,0,1-1.439.863,7.752,7.752,0,0,1-1.612.54,8.809,8.809,0,0,1-1.9.19,6.56,6.56,0,0,1-2-.3,4.585,4.585,0,0,1-1.629-.892,4.162,4.162,0,0,1-1.1-1.5,5.244,5.244,0,0,1-.406-2.15,4.011,4.011,0,0,1,.6-2.079,5.207,5.207,0,0,1,1.926-1.774,12.659,12.659,0,0,1,3.473-1.268,26.483,26.483,0,0,1,5.256-.568V14.85a4.869,4.869,0,0,0-.918-3.213,3.308,3.308,0,0,0-2.681-1.089,5.743,5.743,0,0,0-1.989.3,7.43,7.43,0,0,0-1.386.666q-.587.369-1.008.666a1.454,1.454,0,0,1-.837.3.92.92,0,0,1-.558-.171,1.568,1.568,0,0,1-.4-.423Zm10.349,7.452a26.87,26.87,0,0,0-3.77.35,10.767,10.767,0,0,0-2.538.73,3.5,3.5,0,0,0-1.422,1.061,2.288,2.288,0,0,0-.442,1.368,3,3,0,0,0,.235,1.243,2.324,2.324,0,0,0,.638.855,2.554,2.554,0,0,0,.955.485,4.329,4.329,0,0,0,1.178.154,6.55,6.55,0,0,0,1.549-.171,5.824,5.824,0,0,0,1.322-.5,7.406,7.406,0,0,0,1.189-.775,10.081,10.081,0,0,0,1.106-1.025Z" fill="#aebde8"/>
            <path d="M65.142,11.52a1.449,1.449,0,0,1-.288.3.65.65,0,0,1-.4.109,1.078,1.078,0,0,1-.594-.225q-.324-.225-.8-.495a6.4,6.4,0,0,0-1.17-.5,6.313,6.313,0,0,0-4.078.252A4.57,4.57,0,0,0,56.1,12.348a6.235,6.235,0,0,0-1.044,2.177,10.776,10.776,0,0,0-.352,2.863,10.455,10.455,0,0,0,.379,2.943,6.273,6.273,0,0,0,1.07,2.159,4.588,4.588,0,0,0,1.674,1.332,5.13,5.13,0,0,0,2.205.459A5.659,5.659,0,0,0,61.955,24a5.744,5.744,0,0,0,1.252-.621q.495-.342.828-.621a1.03,1.03,0,0,1,.656-.28.708.708,0,0,1,.613.307l.9,1.17a6.38,6.38,0,0,1-1.349,1.26,8.424,8.424,0,0,1-1.629.873A8.929,8.929,0,0,1,61.4,26.6a11.583,11.583,0,0,1-1.944.162,7.965,7.965,0,0,1-3.177-.63,7.265,7.265,0,0,1-2.547-1.827,8.577,8.577,0,0,1-1.692-2.944,11.98,11.98,0,0,1-.611-3.977,12.028,12.028,0,0,1,.566-3.762,8.544,8.544,0,0,1,1.656-2.98A7.566,7.566,0,0,1,56.33,8.693a9.027,9.027,0,0,1,3.664-.7,8.652,8.652,0,0,1,3.393.621,8.148,8.148,0,0,1,2.6,1.755Z" fill="#aebde8"/>
            <path d="M73.188,10.71a9.682,9.682,0,0,1,2.591-1.981,7.011,7.011,0,0,1,3.276-.738,6.6,6.6,0,0,1,2.637.5,5.1,5.1,0,0,1,1.908,1.4,6.218,6.218,0,0,1,1.162,2.187,9.549,9.549,0,0,1,.395,2.825V26.514H81.936V14.9a4.91,4.91,0,0,0-.946-3.213,3.513,3.513,0,0,0-2.871-1.142,5.381,5.381,0,0,0-2.654.683,8.752,8.752,0,0,0-2.277,1.855V26.514H69.965V0h3.223Z" fill="#aebde8"/>
          </g>
          <g style="isolation: isolate">
            <path d="M104.585,22.607a6.4,6.4,0,0,0,2.511-.467,5.137,5.137,0,0,0,1.863-1.315,5.78,5.78,0,0,0,1.161-2.052,8.413,8.413,0,0,0,.405-2.7V.485h4.842V16.073a12.01,12.01,0,0,1-.747,4.293A9.526,9.526,0,0,1,109.085,26a13.092,13.092,0,0,1-9.018,0,9.533,9.533,0,0,1-5.535-5.635,12.01,12.01,0,0,1-.747-4.293V.485h4.842V16.056a8.45,8.45,0,0,0,.405,2.7,5.818,5.818,0,0,0,1.17,2.06,5.171,5.171,0,0,0,1.872,1.324A6.4,6.4,0,0,0,104.585,22.607Z" fill="#fff"/>
            <path d="M145.985,13.5a14.553,14.553,0,0,1-.945,5.3,12.431,12.431,0,0,1-2.673,4.22,12.133,12.133,0,0,1-4.158,2.782,15.045,15.045,0,0,1-10.782,0,12.228,12.228,0,0,1-4.167-2.782,12.474,12.474,0,0,1-2.691-4.22,14.43,14.43,0,0,1-.954-5.3,14.436,14.436,0,0,1,.954-5.3,12.493,12.493,0,0,1,2.691-4.22A12.243,12.243,0,0,1,127.427,1.2a14.027,14.027,0,0,1,5.382-1,14.652,14.652,0,0,1,3.726.459,13.139,13.139,0,0,1,3.2,1.3,11.811,11.811,0,0,1,2.618,2.033,12.365,12.365,0,0,1,1.972,2.674,13.109,13.109,0,0,1,1.233,3.2A15.258,15.258,0,0,1,145.985,13.5Zm-4.95,0a11.952,11.952,0,0,0-.576-3.844,8.264,8.264,0,0,0-1.638-2.888,7.036,7.036,0,0,0-2.583-1.819,9.647,9.647,0,0,0-6.858,0,7.1,7.1,0,0,0-2.592,1.819,8.141,8.141,0,0,0-1.647,2.888,11.951,11.951,0,0,0-.577,3.844,11.945,11.945,0,0,0,.577,3.843,8.053,8.053,0,0,0,1.647,2.88,7.135,7.135,0,0,0,2.592,1.808,9.632,9.632,0,0,0,6.858,0,7.068,7.068,0,0,0,2.583-1.808,8.173,8.173,0,0,0,1.638-2.88A11.945,11.945,0,0,0,141.035,13.5Z" fill="#fff"/>
            <path d="M164.435,5.22a1.682,1.682,0,0,1-.459.549,1.021,1.021,0,0,1-.6.17,1.553,1.553,0,0,1-.819-.278q-.441-.279-1.053-.621a8.588,8.588,0,0,0-1.431-.621,5.991,5.991,0,0,0-1.935-.279,5.776,5.776,0,0,0-1.764.243,3.7,3.7,0,0,0-1.269.675,2.69,2.69,0,0,0-.765,1.035,3.4,3.4,0,0,0-.252,1.323,2.3,2.3,0,0,0,.513,1.529,4.255,4.255,0,0,0,1.359,1.044,12.611,12.611,0,0,0,1.926.775q1.08.342,2.214.728a21.074,21.074,0,0,1,2.214.9,7.638,7.638,0,0,1,1.926,1.3,5.9,5.9,0,0,1,1.359,1.917,6.657,6.657,0,0,1,.513,2.754,8.974,8.974,0,0,1-.6,3.3,7.629,7.629,0,0,1-1.764,2.682,8.324,8.324,0,0,1-2.835,1.8,10.437,10.437,0,0,1-3.834.657,12.363,12.363,0,0,1-2.448-.243,12.889,12.889,0,0,1-2.313-.694,12.387,12.387,0,0,1-2.079-1.079,10.071,10.071,0,0,1-1.728-1.4l1.422-2.322a1.518,1.518,0,0,1,.468-.423,1.17,1.17,0,0,1,.612-.171,1.717,1.717,0,0,1,.972.369q.522.369,1.242.818a9.7,9.7,0,0,0,1.683.82,6.472,6.472,0,0,0,2.313.369,4.743,4.743,0,0,0,3.2-.982,3.519,3.519,0,0,0,1.134-2.816,2.614,2.614,0,0,0-.513-1.674,4.157,4.157,0,0,0-1.359-1.09,10.214,10.214,0,0,0-1.926-.747q-1.08-.3-2.2-.666a18.683,18.683,0,0,1-2.2-.863,7.117,7.117,0,0,1-1.926-1.315,5.974,5.974,0,0,1-1.359-2.024,7.724,7.724,0,0,1-.513-3A7.2,7.2,0,0,1,151.781,2.5,8.069,8.069,0,0,1,154.445.828,9.783,9.783,0,0,1,158.081.2a12.142,12.142,0,0,1,4.248.721,9.56,9.56,0,0,1,3.312,2.016Z" fill="#fff"/>
          </g>
        </g>
        <g id="Gruppe_2324" data-name="Gruppe 2324">
          <g id="Gruppe_2296" data-name="Gruppe 2296">
            <g id="_LEHRER" data-name=" LEHRER" style="isolation: isolate">
              <g style="isolation: isolate">
                <path d="M194.771,84.587a2.562,2.562,0,0,1,.332.649,7.152,7.152,0,0,1,.19.737A9.248,9.248,0,0,1,195.4,88a6.356,6.356,0,0,1-.43,1.97,4.041,4.041,0,0,1-.219.948q-.18.517-.389,1c-.139.322-.272.613-.4.876a5.247,5.247,0,0,0-.25.573q.351.3,1.035.939a15.35,15.35,0,0,0,1.594,1.291c.059-.089.215-.278.465-.568s.55-.6.9-.932.712-.647,1.1-.948a3.706,3.706,0,0,1,1.087-.623.725.725,0,0,1,.151.012l.155.036a1.646,1.646,0,0,1,.181.06.353.353,0,0,0,.219.069c.041-.011.1.045.179.173a.5.5,0,0,1-.111.323,1.234,1.234,0,0,1-.312.3,2.5,2.5,0,0,1-.407.224,1.244,1.244,0,0,1-.368.108,6.7,6.7,0,0,0-.483.494q-.3.327-.627.719c-.22.263-.435.527-.645.8s-.392.5-.542.7a2.7,2.7,0,0,0,.462.4c.232.172.481.344.746.513s.52.327.757.473.4.241.49.284a1.049,1.049,0,0,1,.272.1c.045.03.037.089-.021.177a.378.378,0,0,1-.282.087.808.808,0,0,0-.333.069,1.717,1.717,0,0,0-.356.23c-.141.113-.254.157-.34.131A3.523,3.523,0,0,1,198,98.7q-.409-.228-.821-.493t-.746-.5c-.224-.158-.371-.265-.444-.326q-1.047.645-2.268,1.316a8.921,8.921,0,0,1-2.3.915.372.372,0,0,1-.348-.094.227.227,0,0,0-.293-.05.39.39,0,0,1-.333.067.339.339,0,0,1-.205-.2,1.777,1.777,0,0,1-.1-.3,2,2,0,0,1-.053-.309,6.165,6.165,0,0,1,.1-1.476,8.9,8.9,0,0,1,.38-1.4,10.763,10.763,0,0,1,.552-1.278c.207-.4.414-.772.618-1.107a15.579,15.579,0,0,1-1.168-1.166,9.654,9.654,0,0,1-1.107-1.472,6.077,6.077,0,0,1-.708-1.632,2.977,2.977,0,0,1,.03-1.671,5.666,5.666,0,0,0,.442-.98,7.421,7.421,0,0,1,.36-.9,2.992,2.992,0,0,1,.523-.76,2.241,2.241,0,0,1,.956-.55l.423-.036a1.619,1.619,0,0,1,1.118-.562,3.083,3.083,0,0,1,1.382.167,1.394,1.394,0,0,1,.453.287A2.57,2.57,0,0,1,194.771,84.587Zm-.14,1.568a1.173,1.173,0,0,0-.616-.886,1.834,1.834,0,0,0-1.188-.235q-.248.046-.725.177a3.543,3.543,0,0,0-.966.435,3.775,3.775,0,0,0-.907.819,2.562,2.562,0,0,0-.524,1.326,9.074,9.074,0,0,0,1.043,2.456,8.9,8.9,0,0,0,1.741,2.119q.283-.5.62-1.234t.642-1.562c.2-.552.386-1.126.552-1.716A9.864,9.864,0,0,0,194.631,86.155Zm.616,10.487q-.705-.591-1.351-1.112t-1-.816q-.223.323-.5.784t-.532.95q-.258.487-.482.934a5.127,5.127,0,0,0-.322.756,4.288,4.288,0,0,0,.835-.187q.515-.157,1.109-.386c.4-.151.793-.312,1.187-.479S194.94,96.77,195.247,96.642Z" fill="#56739e"/>
                <path d="M211.979,94.275q1.207-.257,2.273-.551c.711-.2,1.383-.406,2.016-.628s1.243-.464,1.832-.725,1.17-.532,1.748-.817a1.631,1.631,0,0,1,.656-.234c.133-.011.2.042.19.159.04.081.077.123.112.128s.059.109.077.308a1.012,1.012,0,0,1-.1.535,3.2,3.2,0,0,1-.239.423,2.783,2.783,0,0,1-.751.6,14.558,14.558,0,0,1-1.318.706q-.771.369-1.642.746t-1.707.7c-.559.216-1.068.407-1.531.573s-.824.285-1.085.359a.457.457,0,0,1-.436-.1,1.213,1.213,0,0,0-.343-.209.611.611,0,0,1-.426-.414,2.66,2.66,0,0,0-.271-.655,2.669,2.669,0,0,1-.342-.759,6.829,6.829,0,0,1-.171-.8c-.093-.679-.153-1.358-.179-2.042s-.054-1.389-.084-2.113-.079-1.475-.147-2.246-.18-1.595-.34-2.469c.025-.084.087-.1.184-.039a1.092,1.092,0,0,0,.3.123c.085.027.162.049.231.068a.36.36,0,0,1,.189.146,4.718,4.718,0,0,1,.521,1.523q.235,1.1.392,2.463t.256,2.775Q211.936,93.226,211.979,94.275Z" fill="#56739e"/>
                <path d="M230.873,87.352a3.244,3.244,0,0,1,.368.055.2.2,0,0,1,.152.15l-.372.634a1.1,1.1,0,0,1-.368.234c-.153.063-.3.118-.424.163-.38.065-.8.128-1.264.185s-.944.121-1.44.189-1,.134-1.5.194-.98.119-1.427.176q.09,1.046.182,1.94c.061.6.123,1.078.189,1.439a13.87,13.87,0,0,0,1.416-.449c.535-.2,1.108-.423,1.722-.678s1.25-.527,1.911-.82,1.3-.591,1.929-.9c.226-.1.439-.192.642-.269s.408-.157.618-.243a.279.279,0,0,1-.012.139.58.58,0,0,1-.068.095.946.946,0,0,1-.193.367c-.092.093-.182.177-.267.25s-.16.14-.222.195a.777.777,0,0,0-.184.318.9.9,0,0,1-.329.4,20.862,20.862,0,0,1-3.119,1.931q-1.587.791-3.384,1.474a1.128,1.128,0,0,1-.669.1.8.8,0,0,1-.464-.423,1.2,1.2,0,0,0-.153-.313,1.383,1.383,0,0,0-.376-.293.4.4,0,0,1-.155-.325c-.013-.159-.037-.327-.07-.508-.067-.4-.131-.88-.189-1.452s-.108-1.183-.148-1.831l-.647.056a1.39,1.39,0,0,1-.329-.034,1.086,1.086,0,0,1-.32-.211c-.011-.116.012-.193.068-.231a.554.554,0,0,0,.148-.164,1.482,1.482,0,0,0,.117-.236.342.342,0,0,1,.172-.19c.082-.024.184-.05.307-.078s.266-.065.429-.113q-.032-.926-.074-1.851c-.028-.615-.05-1.192-.063-1.726l-.349.031a.909.909,0,0,1-.416-.027.521.521,0,0,1-.173-.109.527.527,0,0,1-.086-.118c-.02-.041-.072-.065-.156-.075-.135-.005-.2-.023-.206-.057s-.04-.064-.108-.091c-.072-.043-.047-.1.071-.182a1.184,1.184,0,0,0,.351-.432.93.93,0,0,0,.188-.292c.019-.069.116-.153.292-.251a2.607,2.607,0,0,1,.934-.233c.462-.057.986-.1,1.569-.126s1.181-.035,1.792-.03,1.136.03,1.575.075a4.954,4.954,0,0,1,.743.174,2.962,2.962,0,0,1,.655.306c0,.05-.031.083-.1.1a.263.263,0,0,0-.156.077.779.779,0,0,1-.191.128.943.943,0,0,0-.166.1,1,1,0,0,1-.193.093c-.258.1-.53.2-.815.283a9.262,9.262,0,0,1-.959.222c-.355.064-.768.123-1.241.171s-1.015.1-1.63.156q.039.725.1,1.6t.144,1.8q1.185-.23,2.633-.443t2.718-.351a1.153,1.153,0,0,1,.534.079A1.123,1.123,0,0,0,230.873,87.352Z" fill="#56739e"/>
                <path d="M241.339,81.919a.478.478,0,0,1,.139-.288.73.73,0,0,0,.165-.266l.17-.2a1.078,1.078,0,0,1,.1-.1.116.116,0,0,1,.191.036,1.579,1.579,0,0,1,.14.312l.141.74q.2,1.114.343,2.355t.308,2.508q.16,1.265.393,2.488a13.252,13.252,0,0,0,.655,2.313.264.264,0,0,1,.041.186c-.012.059-.027.073-.047.04a.27.27,0,0,0-.148-.123.922.922,0,0,1-.255-.191c-.179-.119-.333-.213-.465-.287a1.231,1.231,0,0,1-.367-.319,7.33,7.33,0,0,1-.807-2.049,22.071,22.071,0,0,1-.482-2.656q-1.167.453-2.624,1.133a27.659,27.659,0,0,1-2.873,1.154c.062.329.121.668.176,1.014a9.03,9.03,0,0,0,.229,1.034,2.04,2.04,0,0,1,.081.5,3.241,3.241,0,0,0,.089.595q.073.269.176.574a2.237,2.237,0,0,1,.115.454,10.458,10.458,0,0,1-1.692-2.551,13.912,13.912,0,0,1-.961-2.814,17.752,17.752,0,0,1-.409-2.95q-.079-1.5-.055-2.932a.14.14,0,0,1,.063-.143.5.5,0,0,0,.117-.1c.031-.036.044-.062.042-.078s.014-.043.044-.079c.088-.143.167-.2.236-.173a.452.452,0,0,1,.19.16q.144.213.276.44c.089.151.181.3.278.44a3.3,3.3,0,0,1,.232.507.884.884,0,0,1-.06.608,14.6,14.6,0,0,1,.315,1.729q.121.966.27,2.084a12.209,12.209,0,0,0,1.405-.575c.465-.224.928-.449,1.385-.673s.916-.427,1.376-.61a6.548,6.548,0,0,1,1.41-.387q-.039-.725-.052-1.452C241.328,82.84,241.329,82.371,241.339,81.919Z" fill="#56739e"/>
                <path d="M254.069,82.009a5.33,5.33,0,0,1-.2,2.051,4.761,4.761,0,0,1-.392.974,9.292,9.292,0,0,1-.581.955c-.215.312-.441.608-.675.887s-.451.537-.648.772q.767.159,1.7.34c.622.121,1.242.274,1.86.453a16.326,16.326,0,0,1,1.787.635,6.805,6.805,0,0,1,1.506.859.741.741,0,0,1,.249.266,1.012,1.012,0,0,1,.079.332,1.477,1.477,0,0,0,.034.248c.012.032-.012.1-.07.208a.636.636,0,0,0-.063.281.228.228,0,0,1-.094.209.237.237,0,0,1-.254-.028,18.436,18.436,0,0,0-3.5-1.376q-2-.579-3.96-.957a.929.929,0,0,0-.368.106q-.168.09-.408.213c-.129.06-.3.134-.52.22s-.339.1-.362.031a1.262,1.262,0,0,1,.162-.742,5.345,5.345,0,0,0,.339-.708c.109-.293.18-.482.214-.57a1.4,1.4,0,0,1,.163-.29c.059-.089.128-.2.209-.332a4.072,4.072,0,0,1,.371-.5,12.741,12.741,0,0,0,.959-1.227,7.5,7.5,0,0,0,.631-1.108,8.652,8.652,0,0,0,.4-1.052c.1-.344.208-.686.311-1.03a22.349,22.349,0,0,0-2.89.516q-1.276.324-2.617.793.234.933.411,2.11c.12.784.235,1.59.35,2.417s.232,1.647.354,2.466a18.1,18.1,0,0,0,.473,2.253,1.231,1.231,0,0,1,.129.618.411.411,0,0,0-.015.126.138.138,0,0,1-.04.1,20.783,20.783,0,0,1-1.782-4.725,15.878,15.878,0,0,1-.416-5.2c-.115.028-.27.074-.465.142s-.4.143-.619.229-.429.172-.631.256-.376.151-.522.2l-.567.125a.314.314,0,0,1,.008-.339.653.653,0,0,0,.138-.3,1.451,1.451,0,0,1,.643-.961,1.338,1.338,0,0,0,.347-.33,1.122,1.122,0,0,1,.325-.305,10.189,10.189,0,0,1,1.478-.605,16.05,16.05,0,0,1,1.7-.463A12.683,12.683,0,0,1,250.506,81a8.518,8.518,0,0,1,1.7.04,1.5,1.5,0,0,1,.489.145,3.964,3.964,0,0,0,.469.2l.421.214C253.936,81.62,254.1,81.756,254.069,82.009Z" fill="#56739e"/>
                <path d="M267.483,84.148c.168.02.291.039.369.056a.2.2,0,0,1,.151.15l-.372.635a1.113,1.113,0,0,1-.368.233c-.154.063-.295.118-.425.163q-.569.1-1.264.185c-.464.058-.943.12-1.438.189s-1,.134-1.5.194l-1.428.176q.093,1.045.183,1.941t.188,1.438a14.094,14.094,0,0,0,1.416-.448q.8-.3,1.723-.679t1.911-.82q.99-.437,1.929-.9.338-.153.641-.269c.2-.076.409-.157.619-.243a.285.285,0,0,1-.012.14.706.706,0,0,1-.068.094.953.953,0,0,1-.193.367c-.093.093-.182.177-.268.25s-.159.14-.22.195a.761.761,0,0,0-.186.318.9.9,0,0,1-.329.405,20.877,20.877,0,0,1-3.118,1.93q-1.589.791-3.385,1.474a1.121,1.121,0,0,1-.669.1A.812.812,0,0,1,260.9,91a1.147,1.147,0,0,0-.153-.312,1.328,1.328,0,0,0-.376-.294.4.4,0,0,1-.154-.326c-.014-.158-.037-.326-.071-.507-.067-.4-.13-.88-.189-1.453s-.107-1.182-.148-1.831l-.647.057a1.454,1.454,0,0,1-.329-.034,1.056,1.056,0,0,1-.319-.211c-.01-.116.011-.193.067-.231a.536.536,0,0,0,.149-.165,1.561,1.561,0,0,0,.118-.235.342.342,0,0,1,.17-.19c.082-.024.185-.05.307-.078s.267-.065.43-.113q-.032-.926-.073-1.851t-.064-1.725l-.349.03a.933.933,0,0,1-.417-.026.543.543,0,0,1-.172-.11.446.446,0,0,1-.085-.119c-.021-.041-.074-.064-.158-.074-.134-.005-.2-.023-.206-.057s-.039-.064-.108-.091c-.07-.043-.047-.105.072-.182a1.2,1.2,0,0,0,.352-.432.941.941,0,0,0,.187-.292c.019-.069.116-.153.291-.251a2.636,2.636,0,0,1,.934-.233c.463-.058.986-.1,1.57-.126s1.181-.035,1.791-.03,1.136.03,1.575.075a5.094,5.094,0,0,1,.744.174,2.955,2.955,0,0,1,.654.306c0,.05-.03.083-.105.1a.276.276,0,0,0-.156.077.789.789,0,0,1-.189.128.938.938,0,0,0-.167.1,1.033,1.033,0,0,1-.193.093,8.3,8.3,0,0,1-.816.284,8.965,8.965,0,0,1-.959.221c-.354.065-.768.123-1.239.171s-1.017.1-1.631.156c.025.483.06,1.015.1,1.6s.091,1.18.145,1.794q1.185-.23,2.634-.443t2.716-.351a1.158,1.158,0,0,1,.535.079A1.1,1.1,0,0,0,267.483,84.148Z" fill="#56739e"/>
                <path d="M279.224,79.809a5.315,5.315,0,0,1-.2,2.049,4.677,4.677,0,0,1-.392.976,9.511,9.511,0,0,1-.581.955q-.324.466-.675.887t-.649.771q.768.16,1.7.341c.621.121,1.24.274,1.859.452a16.521,16.521,0,0,1,1.786.635,6.845,6.845,0,0,1,1.506.859.733.733,0,0,1,.249.267,1,1,0,0,1,.08.331,1.477,1.477,0,0,0,.034.248c.011.033-.012.1-.07.208a.639.639,0,0,0-.063.281.225.225,0,0,1-.095.209.235.235,0,0,1-.253-.028,18.436,18.436,0,0,0-3.5-1.376q-2-.577-3.961-.957a.952.952,0,0,0-.366.105q-.169.093-.409.213c-.128.061-.3.135-.52.221s-.339.1-.361.032a1.245,1.245,0,0,1,.161-.742,5.474,5.474,0,0,0,.34-.708c.108-.294.178-.483.213-.57a1.417,1.417,0,0,1,.163-.29c.059-.089.128-.2.209-.332a4.13,4.13,0,0,1,.371-.5,13.052,13.052,0,0,0,.96-1.227,7.574,7.574,0,0,0,.629-1.109,8.487,8.487,0,0,0,.4-1.051c.1-.344.208-.687.311-1.031a22.521,22.521,0,0,0-2.89.516q-1.278.324-2.616.794.231.933.41,2.11t.349,2.417q.173,1.239.354,2.464a17.87,17.87,0,0,0,.474,2.255,1.212,1.212,0,0,1,.128.616.439.439,0,0,0-.013.126.146.146,0,0,1-.041.106,20.75,20.75,0,0,1-1.781-4.727,15.838,15.838,0,0,1-.417-5.195,4.552,4.552,0,0,0-.465.141c-.195.067-.4.143-.619.229s-.429.173-.631.256-.375.151-.522.2l-.566.125a.31.31,0,0,1,.008-.34.639.639,0,0,0,.136-.3,1.45,1.45,0,0,1,.644-.961,1.36,1.36,0,0,0,.348-.33,1.113,1.113,0,0,1,.325-.306,10.24,10.24,0,0,1,1.477-.605,16.593,16.593,0,0,1,1.7-.463,12.7,12.7,0,0,1,1.76-.255,8.51,8.51,0,0,1,1.7.039,1.476,1.476,0,0,1,.491.146,4.232,4.232,0,0,0,.468.2l.42.213C279.089,79.42,279.252,79.555,279.224,79.809Z" fill="#56739e"/>
              </g>
            </g>
            <g id="LEHRERINNEN" style="isolation: isolate">
              <g style="isolation: isolate">
                <path d="M160.743,77.157q1.256-.267,2.363-.571t2.1-.653q.987-.348,1.9-.754t1.819-.851a1.707,1.707,0,0,1,.683-.243c.138-.012.2.043.2.166.042.083.081.128.116.134s.062.111.08.318a1.056,1.056,0,0,1-.107.558,3.334,3.334,0,0,1-.249.438,2.868,2.868,0,0,1-.781.631,15.182,15.182,0,0,1-1.37.733q-.8.384-1.708.776t-1.775.729q-.871.338-1.593.6c-.481.173-.857.3-1.129.373a.473.473,0,0,1-.452-.1,1.18,1.18,0,0,0-.359-.217.64.64,0,0,1-.442-.432,2.812,2.812,0,0,0-.281-.681,2.771,2.771,0,0,1-.357-.79,7.242,7.242,0,0,1-.177-.833q-.144-1.058-.186-2.124t-.087-2.2q-.048-1.132-.153-2.336t-.355-2.565c.028-.089.091-.1.193-.043a1.092,1.092,0,0,0,.31.129c.09.027.17.051.242.071a.376.376,0,0,1,.2.152,4.859,4.859,0,0,1,.543,1.584q.243,1.14.407,2.561T160.6,74.6Q160.7,76.066,160.743,77.157Z" fill="#56739e"/>
                <path d="M180.393,69.958a3.671,3.671,0,0,1,.382.058.205.205,0,0,1,.158.156l-.386.659a1.141,1.141,0,0,1-.384.243c-.159.066-.307.123-.441.169q-.593.105-1.315.194t-1.5.2c-.515.071-1.037.139-1.561.2s-1.021.125-1.486.183q.1,1.088.191,2.018t.195,1.5a14.41,14.41,0,0,0,1.473-.468q.834-.309,1.792-.7t1.987-.852q1.029-.456,2.007-.933c.233-.106.456-.2.666-.28s.426-.162.643-.251a.279.279,0,0,1-.012.144.568.568,0,0,1-.071.1,1,1,0,0,1-.2.384c-.1.095-.189.182-.277.26s-.166.143-.231.2a.794.794,0,0,0-.192.329.938.938,0,0,1-.342.422,21.582,21.582,0,0,1-3.243,2.006q-1.651.825-3.52,1.535a1.191,1.191,0,0,1-.7.1.838.838,0,0,1-.482-.441,1.286,1.286,0,0,0-.158-.324A1.441,1.441,0,0,0,173,76.45a.419.419,0,0,1-.159-.338c-.015-.163-.039-.34-.072-.528-.072-.412-.137-.915-.2-1.51s-.112-1.23-.154-1.9l-.673.059a1.481,1.481,0,0,1-.343-.037,1.049,1.049,0,0,1-.332-.218c-.01-.12.013-.2.071-.241a.6.6,0,0,0,.154-.17,1.566,1.566,0,0,0,.122-.246.363.363,0,0,1,.179-.2c.085-.024.191-.052.319-.08s.276-.067.446-.117c-.021-.643-.046-1.283-.077-1.925s-.052-1.239-.065-1.8l-.363.031a.955.955,0,0,1-.433-.027.57.57,0,0,1-.18-.114.555.555,0,0,1-.089-.122c-.021-.042-.076-.068-.164-.078-.138,0-.21-.025-.214-.06s-.04-.066-.112-.095c-.073-.046-.049-.108.075-.189a1.246,1.246,0,0,0,.366-.449,1.01,1.01,0,0,0,.195-.305c.019-.071.12-.156.3-.262a2.781,2.781,0,0,1,.97-.24q.723-.09,1.633-.131t1.863-.032c.636.007,1.182.031,1.638.078a5.345,5.345,0,0,1,.774.181,3.1,3.1,0,0,1,.68.319c0,.052-.032.085-.109.1a.277.277,0,0,0-.162.079.829.829,0,0,1-.2.135,1.044,1.044,0,0,0-.173.106.951.951,0,0,1-.2.1,8.417,8.417,0,0,1-.847.3,9.625,9.625,0,0,1-1,.232c-.368.066-.8.126-1.29.177s-1.056.106-1.7.162q.039.754.107,1.661t.149,1.866q1.232-.238,2.739-.462t2.827-.365a1.2,1.2,0,0,1,.555.083A1.145,1.145,0,0,0,180.393,69.958Z" fill="#56739e"/>
                <path d="M191.277,64.308a.5.5,0,0,1,.144-.3.736.736,0,0,0,.171-.276c.095-.111.154-.182.178-.21a.791.791,0,0,1,.108-.1.12.12,0,0,1,.2.036,1.634,1.634,0,0,1,.147.326l.146.77q.2,1.157.358,2.449t.319,2.608c.111.876.248,1.74.409,2.586a13.864,13.864,0,0,0,.68,2.408.266.266,0,0,1,.043.191c-.012.063-.029.077-.048.044a.28.28,0,0,0-.155-.129.958.958,0,0,1-.266-.2c-.185-.124-.345-.222-.482-.3a1.272,1.272,0,0,1-.381-.332,7.55,7.55,0,0,1-.839-2.131,22.822,22.822,0,0,1-.5-2.762q-1.212.471-2.729,1.178a28.758,28.758,0,0,1-2.987,1.2c.064.342.125.694.183,1.053a9,9,0,0,0,.238,1.076,2.172,2.172,0,0,1,.084.515,3.277,3.277,0,0,0,.093.619c.051.186.112.386.182.6a2.171,2.171,0,0,1,.12.471,10.884,10.884,0,0,1-1.759-2.651,14.47,14.47,0,0,1-1-2.927,18.436,18.436,0,0,1-.426-3.068q-.084-1.558-.058-3.049a.148.148,0,0,1,.066-.15.437.437,0,0,0,.121-.1.147.147,0,0,0,.046-.083c0-.017.013-.044.044-.082.092-.147.173-.206.246-.178a.469.469,0,0,1,.2.165q.15.223.288.457c.092.159.188.311.288.459a3.2,3.2,0,0,1,.242.527.92.92,0,0,1-.062.631,15.277,15.277,0,0,1,.327,1.8q.126,1.007.28,2.167a12.437,12.437,0,0,0,1.462-.6c.485-.234.964-.466,1.44-.7s.953-.443,1.431-.633a6.889,6.889,0,0,1,1.466-.4c-.026-.5-.045-1-.054-1.508S191.267,64.778,191.277,64.308Z" fill="#56739e"/>
                <path d="M204.517,64.4a5.569,5.569,0,0,1-.2,2.133,4.924,4.924,0,0,1-.408,1.014,9.929,9.929,0,0,1-.6.993q-.337.485-.7.922l-.673.8q.8.166,1.766.354c.646.128,1.29.283,1.933.472a16.5,16.5,0,0,1,1.858.659,7.117,7.117,0,0,1,1.567.894.783.783,0,0,1,.26.276,1.073,1.073,0,0,1,.082.346,1.253,1.253,0,0,0,.036.258c.011.034-.014.106-.073.215a.652.652,0,0,0-.066.293.233.233,0,0,1-.1.217.25.25,0,0,1-.263-.028,19.032,19.032,0,0,0-3.636-1.432q-2.074-.6-4.12-1a1,1,0,0,0-.381.111c-.116.063-.258.137-.425.22-.134.064-.313.141-.541.23s-.352.1-.376.034a1.3,1.3,0,0,1,.168-.772,5.768,5.768,0,0,0,.354-.735c.112-.306.186-.505.221-.594a1.573,1.573,0,0,1,.17-.3c.062-.092.133-.207.218-.345a4.324,4.324,0,0,1,.386-.516,13.656,13.656,0,0,0,1-1.275,7.837,7.837,0,0,0,.656-1.154,9.05,9.05,0,0,0,.413-1.092c.109-.359.216-.715.324-1.073a23.875,23.875,0,0,0-3.007.536q-1.328.339-2.72.827.242.969.427,2.193t.363,2.514q.179,1.289.368,2.564a19.024,19.024,0,0,0,.492,2.345,1.257,1.257,0,0,1,.135.639.439.439,0,0,0-.015.134.144.144,0,0,1-.043.107,21.669,21.669,0,0,1-1.852-4.913,16.514,16.514,0,0,1-.434-5.405c-.12.029-.28.077-.483.148s-.417.149-.645.238l-.655.266c-.21.089-.39.157-.543.2l-.589.129a.324.324,0,0,1,.008-.352.681.681,0,0,0,.143-.312,1.5,1.5,0,0,1,.67-1,1.446,1.446,0,0,0,.36-.344,1.174,1.174,0,0,1,.338-.318,10.705,10.705,0,0,1,1.537-.629,17.221,17.221,0,0,1,1.772-.483,13.069,13.069,0,0,1,1.831-.264,8.8,8.8,0,0,1,1.764.041,1.525,1.525,0,0,1,.509.152,4.1,4.1,0,0,0,.488.2l.438.223C204.377,64,204.547,64.139,204.517,64.4Z" fill="#56739e"/>
                <path d="M218.467,66.627a3.4,3.4,0,0,1,.383.058.2.2,0,0,1,.157.156l-.386.659a1.141,1.141,0,0,1-.384.243c-.159.066-.306.123-.441.169q-.592.1-1.315.193c-.481.061-.98.125-1.5.2s-1.037.139-1.561.2-1.021.125-1.486.183q.1,1.087.191,2.018t.2,1.5a14.664,14.664,0,0,0,1.473-.468q.836-.309,1.792-.7t1.987-.852q1.031-.456,2.007-.933c.233-.106.456-.2.666-.28s.426-.162.644-.251a.271.271,0,0,1-.013.143.574.574,0,0,1-.07.1,1,1,0,0,1-.2.384c-.095.095-.189.182-.277.26s-.166.143-.23.2a.8.8,0,0,0-.193.329.943.943,0,0,1-.342.422,21.582,21.582,0,0,1-3.243,2.006q-1.65.824-3.519,1.535a1.184,1.184,0,0,1-.7.1.841.841,0,0,1-.482-.44,1.286,1.286,0,0,0-.158-.324,1.441,1.441,0,0,0-.394-.307.422.422,0,0,1-.159-.338c-.015-.163-.038-.34-.072-.528q-.107-.618-.2-1.51t-.155-1.9l-.673.058a1.422,1.422,0,0,1-.342-.036,1.027,1.027,0,0,1-.332-.218c-.011-.121.012-.2.07-.241a.582.582,0,0,0,.154-.17,1.484,1.484,0,0,0,.122-.246.359.359,0,0,1,.179-.2c.085-.024.191-.052.319-.08s.277-.067.447-.117c-.022-.643-.047-1.283-.078-1.925s-.051-1.239-.065-1.795l-.362.031a.96.96,0,0,1-.434-.027.582.582,0,0,1-.18-.114.518.518,0,0,1-.088-.122c-.021-.042-.077-.068-.164-.078-.139-.005-.21-.025-.214-.06s-.04-.066-.113-.095c-.073-.046-.048-.108.076-.189a1.235,1.235,0,0,0,.365-.449.99.99,0,0,0,.2-.3c.02-.071.12-.156.3-.262a2.788,2.788,0,0,1,.971-.24c.481-.06,1.026-.1,1.632-.131s1.228-.037,1.864-.032,1.181.031,1.637.078a5.314,5.314,0,0,1,.774.181,3.082,3.082,0,0,1,.68.319c0,.052-.032.085-.109.1a.277.277,0,0,0-.162.079.845.845,0,0,1-.2.135,1,1,0,0,0-.173.106,1,1,0,0,1-.2.1,8.275,8.275,0,0,1-.848.294,9.363,9.363,0,0,1-1,.233c-.368.066-.8.126-1.29.177s-1.056.106-1.694.162q.037.755.106,1.661t.149,1.866q1.233-.239,2.74-.462t2.826-.365a1.211,1.211,0,0,1,.556.083A1.138,1.138,0,0,0,218.467,66.627Z" fill="#56739e"/>
                <path d="M230.677,62.113a5.545,5.545,0,0,1-.2,2.132,4.9,4.9,0,0,1-.407,1.014,9.648,9.648,0,0,1-.6.993c-.224.323-.458.632-.7.923l-.673.8q.8.165,1.766.353t1.933.472a16.657,16.657,0,0,1,1.859.659,7.1,7.1,0,0,1,1.565.894.768.768,0,0,1,.26.277,1.041,1.041,0,0,1,.082.345,1.526,1.526,0,0,0,.036.258c.012.034-.013.106-.072.215a.659.659,0,0,0-.067.293.235.235,0,0,1-.1.218.251.251,0,0,1-.263-.029A19.032,19.032,0,0,0,231.45,70.5q-2.076-.6-4.12-1a.99.99,0,0,0-.381.11q-.174.094-.425.221c-.133.063-.313.141-.541.23s-.352.1-.376.033a1.308,1.308,0,0,1,.168-.772,5.839,5.839,0,0,0,.354-.735c.111-.306.186-.5.222-.594a1.434,1.434,0,0,1,.169-.3c.061-.093.133-.208.217-.345a4.268,4.268,0,0,1,.387-.517,13.523,13.523,0,0,0,1-1.274,7.656,7.656,0,0,0,.655-1.155,8.622,8.622,0,0,0,.413-1.093q.164-.535.325-1.072a24.123,24.123,0,0,0-3.007.536q-1.327.339-2.721.827.243.969.428,2.194t.363,2.513q.177,1.288.367,2.564a18.668,18.668,0,0,0,.494,2.346,1.262,1.262,0,0,1,.133.639.452.452,0,0,0-.013.133.149.149,0,0,1-.044.108,21.583,21.583,0,0,1-1.852-4.914,16.454,16.454,0,0,1-.433-5.4,5.036,5.036,0,0,0-.484.147c-.2.069-.417.149-.644.238s-.446.18-.656.266-.39.157-.544.2l-.588.13a.321.321,0,0,1,.008-.353.671.671,0,0,0,.143-.312,1.506,1.506,0,0,1,.67-1,1.428,1.428,0,0,0,.36-.344,1.188,1.188,0,0,1,.338-.318,10.959,10.959,0,0,1,1.537-.63,17.4,17.4,0,0,1,1.772-.481,13.207,13.207,0,0,1,1.83-.265,8.814,8.814,0,0,1,1.765.041,1.548,1.548,0,0,1,.509.152,4.029,4.029,0,0,0,.488.205l.437.223Q230.721,61.718,230.677,62.113Z" fill="#56739e"/>
                <path d="M239.6,69.216a1.69,1.69,0,0,1,.021.688.929.929,0,0,0,.094.632,1.735,1.735,0,0,1,.12.616,4.9,4.9,0,0,1,0,.7.473.473,0,0,1-.308-.089,2.514,2.514,0,0,1-.324-.273,4.681,4.681,0,0,0-.436-.366,1.118,1.118,0,0,1-.368-.477,22.365,22.365,0,0,1-.762-2.74q-.309-1.446-.519-2.941t-.349-2.958q-.143-1.463-.257-2.783a.888.888,0,0,1,.056-.554.122.122,0,0,1,.141-.025,1.123,1.123,0,0,0,.227.045.7.7,0,0,1,.24.071.945.945,0,0,1,.166.1.391.391,0,0,0,.164.09c.053.014.093.063.117.146q.432,2.548.939,5.061T239.6,69.216Z" fill="#56739e"/>
                <path d="M252.557,58.92a3.142,3.142,0,0,1,.032.676q-.017.419-.035.786a1.48,1.48,0,0,0,.079.606,5.778,5.778,0,0,1,.154.574q-.111.506-.205,1.231c-.062.485-.113.993-.154,1.528s-.076,1.064-.109,1.588a13.14,13.14,0,0,0-.02,1.412c.133.318.256.587.371.8s.215.421.3.613a3.684,3.684,0,0,1,.211.621,5.818,5.818,0,0,1,.125.825l-.2.239a2.531,2.531,0,0,1-.2.188.255.255,0,0,1-.294.078.62.62,0,0,0-.3-.052c-.156.013-.235,0-.238-.031s-.051-.091-.145-.169a5.018,5.018,0,0,1-.76-.784c-.207-.268-.4-.538-.58-.81s-.349-.547-.5-.829a8.571,8.571,0,0,0-.53-.842q-.361-.541-.881-1.267a16.714,16.714,0,0,0-1.128-1.4,9.105,9.105,0,0,0-1.291-1.192A3.015,3.015,0,0,0,244.9,62.7a16.73,16.73,0,0,0-.343,3.985,14.451,14.451,0,0,0,.557,3.539.908.908,0,0,1,.028.311c-.013.053-.032.142-.055.266-.024.141-.048.312-.072.515a1.566,1.566,0,0,1-.106.44c.038.24.068.464.085.671a.708.708,0,0,1-.089.476,8.291,8.291,0,0,1-1.381-2.814,15.682,15.682,0,0,1-.544-3.228,21.2,21.2,0,0,1,.04-3.279q.144-1.617.367-2.968a.185.185,0,0,1,.051-.162c.04-.038.075-.075.107-.112s.059-.071.083-.1a.294.294,0,0,1,.11-.076,1.656,1.656,0,0,0,.228-.085.664.664,0,0,1,.229-.059.211.211,0,0,1,.224.164,1.7,1.7,0,0,0,.128.275,1.6,1.6,0,0,1,.176.52,2.063,2.063,0,0,1,.073.529,4.186,4.186,0,0,1,2.078.641,8.2,8.2,0,0,1,1.661,1.38,13.448,13.448,0,0,1,1.306,1.649q.57.847.989,1.466-.024-.575.021-1.412c.029-.56.066-1.127.111-1.707s.093-1.126.143-1.644.089-.925.115-1.223a1.757,1.757,0,0,1,.181-.616,2.668,2.668,0,0,1,.3-.443,1.726,1.726,0,0,0,.194-.3.526.526,0,0,1,.279-.259.585.585,0,0,1,.188-.069A1.141,1.141,0,0,0,252.557,58.92Z" fill="#56739e"/>
                <path d="M265.248,57.81a3.267,3.267,0,0,1,.032.675c-.01.28-.022.541-.035.786a1.5,1.5,0,0,0,.079.607c.072.228.123.42.155.573q-.114.507-.206,1.232c-.062.485-.114.993-.154,1.528s-.076,1.063-.108,1.588a13.424,13.424,0,0,0-.021,1.412c.132.317.256.587.371.8s.214.421.3.613a3.713,3.713,0,0,1,.211.621,5.413,5.413,0,0,1,.124.824c-.109.132-.177.211-.2.24s-.093.09-.205.188a.254.254,0,0,1-.294.077.636.636,0,0,0-.305-.052c-.155.014-.234,0-.237-.031s-.052-.091-.146-.169a5.005,5.005,0,0,1-.759-.783c-.207-.269-.4-.538-.58-.811s-.349-.546-.5-.829a8.4,8.4,0,0,0-.532-.841q-.36-.543-.881-1.267a16.3,16.3,0,0,0-1.126-1.4,9.12,9.12,0,0,0-1.292-1.193,3,3,0,0,0-1.345-.612,16.677,16.677,0,0,0-.344,3.984,14.443,14.443,0,0,0,.558,3.539.906.906,0,0,1,.027.312c-.013.053-.031.142-.055.266-.023.14-.048.312-.073.514a1.519,1.519,0,0,1-.1.441c.038.24.066.463.085.671a.72.72,0,0,1-.089.476,8.311,8.311,0,0,1-1.382-2.814,15.692,15.692,0,0,1-.543-3.228,21.2,21.2,0,0,1,.039-3.279q.145-1.617.367-2.968a.188.188,0,0,1,.051-.162c.04-.038.075-.075.107-.112l.083-.1a.288.288,0,0,1,.111-.076,1.724,1.724,0,0,0,.227-.085.7.7,0,0,1,.23-.06.212.212,0,0,1,.223.164,1.756,1.756,0,0,0,.128.276,1.6,1.6,0,0,1,.176.519,2.123,2.123,0,0,1,.073.53,4.2,4.2,0,0,1,2.078.64,8.244,8.244,0,0,1,1.662,1.381,13.624,13.624,0,0,1,1.305,1.648q.57.849.989,1.466c-.015-.383-.008-.852.021-1.412s.066-1.127.111-1.706.093-1.126.144-1.644.088-.925.114-1.223a1.735,1.735,0,0,1,.182-.616,2.617,2.617,0,0,1,.3-.444,1.834,1.834,0,0,0,.194-.3.518.518,0,0,1,.278-.259.565.565,0,0,1,.189-.069A1.135,1.135,0,0,0,265.248,57.81Z" fill="#56739e"/>
                <path d="M276.925,61.513a3.788,3.788,0,0,1,.383.056.206.206,0,0,1,.157.158l-.385.659a1.2,1.2,0,0,1-.384.243c-.16.065-.307.122-.442.169q-.591.1-1.314.193t-1.5.2q-.772.107-1.561.2c-.526.063-1.02.125-1.486.181q.1,1.089.191,2.02t.2,1.5a14.714,14.714,0,0,0,1.473-.467q.836-.309,1.792-.7t1.987-.852q1.03-.457,2.006-.933.351-.16.667-.28c.21-.08.426-.162.644-.251a.281.281,0,0,1-.014.143.671.671,0,0,1-.069.1,1.059,1.059,0,0,1-.2.384c-.1.094-.189.181-.277.258s-.167.145-.23.2a.8.8,0,0,0-.194.33.936.936,0,0,1-.342.422,21.524,21.524,0,0,1-3.243,2q-1.65.825-3.519,1.536a1.182,1.182,0,0,1-.7.1.844.844,0,0,1-.482-.44,1.278,1.278,0,0,0-.158-.325,1.453,1.453,0,0,0-.393-.306.424.424,0,0,1-.16-.339c-.015-.163-.038-.339-.072-.527q-.107-.618-.2-1.51c-.062-.6-.112-1.231-.154-1.905l-.674.059a1.459,1.459,0,0,1-.341-.036,1.055,1.055,0,0,1-.333-.219c-.01-.12.012-.2.07-.24a.6.6,0,0,0,.155-.17,1.566,1.566,0,0,0,.122-.246.367.367,0,0,1,.178-.2c.085-.024.191-.051.319-.08s.278-.067.447-.116q-.031-.964-.077-1.925c-.031-.642-.052-1.239-.065-1.8l-.363.032a.968.968,0,0,1-.433-.027.571.571,0,0,1-.181-.115.516.516,0,0,1-.087-.123c-.022-.041-.077-.066-.165-.077-.139,0-.21-.024-.213-.059s-.041-.067-.113-.095c-.074-.046-.049-.108.075-.189a1.238,1.238,0,0,0,.365-.45.969.969,0,0,0,.195-.3c.021-.072.121-.158.3-.262a2.707,2.707,0,0,1,.97-.24q.723-.09,1.633-.131t1.864-.032c.635.006,1.181.031,1.637.078a5.437,5.437,0,0,1,.773.18,3.133,3.133,0,0,1,.68.32c.005.051-.032.085-.108.1a.283.283,0,0,0-.163.079.851.851,0,0,1-.2.136.894.894,0,0,0-.173.106,1.013,1.013,0,0,1-.2.1,8.634,8.634,0,0,1-.849.295,9.855,9.855,0,0,1-1,.233c-.369.066-.8.126-1.29.176s-1.057.107-1.695.163c.026.5.061,1.056.106,1.661s.094,1.226.149,1.865q1.233-.237,2.74-.462t2.826-.364a1.2,1.2,0,0,1,.556.083A1.153,1.153,0,0,0,276.925,61.513Z" fill="#56739e"/>
                <path d="M290.112,55.635a3.119,3.119,0,0,1,.033.675q-.015.418-.036.787a1.478,1.478,0,0,0,.08.6,5.9,5.9,0,0,1,.155.574q-.113.505-.206,1.232t-.154,1.527c-.041.534-.076,1.064-.108,1.588a13.161,13.161,0,0,0-.021,1.412c.132.319.256.587.371.8s.214.422.3.613a3.715,3.715,0,0,1,.211.621,5.428,5.428,0,0,1,.124.825c-.109.132-.176.21-.2.239a2.428,2.428,0,0,1-.206.188.25.25,0,0,1-.293.077.611.611,0,0,0-.305-.05c-.155.013-.234,0-.237-.033s-.052-.09-.145-.169a5.018,5.018,0,0,1-.761-.782c-.206-.268-.4-.539-.579-.81s-.349-.547-.5-.83a8.263,8.263,0,0,0-.53-.841q-.361-.544-.881-1.268a16.527,16.527,0,0,0-1.127-1.4,9.128,9.128,0,0,0-1.292-1.194,3.024,3.024,0,0,0-1.346-.612,16.786,16.786,0,0,0-.343,3.985,14.483,14.483,0,0,0,.558,3.539.927.927,0,0,1,.027.311c-.012.053-.031.142-.055.266-.023.14-.047.312-.073.515a1.553,1.553,0,0,1-.1.441c.038.239.066.463.085.67a.724.724,0,0,1-.089.477A8.311,8.311,0,0,1,281.08,66.8a15.623,15.623,0,0,1-.543-3.229,21.328,21.328,0,0,1,.039-3.279q.145-1.617.366-2.968a.191.191,0,0,1,.052-.162c.039-.037.075-.075.108-.112l.082-.1a.291.291,0,0,1,.111-.076,1.524,1.524,0,0,0,.227-.084.649.649,0,0,1,.23-.06.211.211,0,0,1,.223.164,1.791,1.791,0,0,0,.129.276,1.587,1.587,0,0,1,.175.518,2.193,2.193,0,0,1,.074.53,4.2,4.2,0,0,1,2.078.64,8.238,8.238,0,0,1,1.66,1.381,13.448,13.448,0,0,1,1.306,1.649q.57.849.99,1.465-.024-.572.02-1.411t.111-1.707c.045-.577.093-1.126.143-1.643s.089-.925.115-1.224a1.748,1.748,0,0,1,.182-.616,2.623,2.623,0,0,1,.3-.443,1.823,1.823,0,0,0,.195-.3.521.521,0,0,1,.277-.258.583.583,0,0,1,.19-.07A1.084,1.084,0,0,0,290.112,55.635Z" fill="#56739e"/>
              </g>
            </g>
          </g>
          <g id="FÜR_ALLE_ANGEHENDEN_LEHRERINNEN_UND_LEHRER" data-name="FÜR ALLE ANGEHENDEN LEHRERINNEN UND LEHRER">
            <g id="FUR_ALLE_ANGEHENDEN" data-name="FUR ALLE ANGEHENDEN" style="isolation: isolate">
              <g style="isolation: isolate">
                <path d="M123.059,49.725c.006.09-.049.143-.168.157s-.251.026-.4.037a.576.576,0,0,0-.292.1.43.43,0,0,1-.275.079q-.389.063-.921.124c-.355.043-.714.076-1.075.1q.123.538.3,1.327t.378,1.746q.543-.056,1.149-.149l1.231-.188q.624-.095,1.216-.179t1.1-.12a.573.573,0,0,1-.309.235,1.536,1.536,0,0,0-.41.208c-.12.076-.25.165-.391.265a2.78,2.78,0,0,1-.425.253,11.123,11.123,0,0,1-1.589.562q-.813.22-1.3.355c.1.427.2.854.3,1.285s.2.858.311,1.282a.623.623,0,0,1,.028.271.849.849,0,0,0,.01.271c.018.09.039.171.06.244a1.135,1.135,0,0,1,.043.243,4.22,4.22,0,0,1-.282-.372,2.955,2.955,0,0,1-.234-.41,16.4,16.4,0,0,1-.627-1.762q-.277-.954-.507-1.909t-.4-1.847c-.109-.594-.2-1.129-.266-1.6a4.653,4.653,0,0,1-.7-.062,1.427,1.427,0,0,1-.507-.177.244.244,0,0,0-.215-.028,1.576,1.576,0,0,1-.312.047c-.035-.008-.057-.046-.067-.115a.341.341,0,0,0-.053-.148.216.216,0,0,1-.035-.126.406.406,0,0,1,.115-.188,6.53,6.53,0,0,1,2.455-.478,11.845,11.845,0,0,1,2.542.263.383.383,0,0,1,.185.091,1,1,0,0,0,.136.111c.047.03.089.057.125.084A.211.211,0,0,1,123.059,49.725Z" fill="#97ace0"/>
                <path d="M128.189,49.963c-.148.453-.284.917-.4,1.391a13.9,13.9,0,0,0-.414,2.842,8.058,8.058,0,0,0,.05,1.326c-.019.071-.034.124-.048.166a.256.256,0,0,0-.019.095.366.366,0,0,0,.06.133.354.354,0,0,1,.047.183,1.947,1.947,0,0,0,1.006.238,3.436,3.436,0,0,0,1.152-.219,3.733,3.733,0,0,0,.994-.529,3.121,3.121,0,0,0,.908-1.028,4.273,4.273,0,0,0,.436-1.207,5.9,5.9,0,0,0,.113-1.293c-.007-.444-.026-.874-.055-1.293a.125.125,0,0,1,.036-.1.133.133,0,0,0,.035-.1.323.323,0,0,1,.011-.1.226.226,0,0,0,.01-.086.174.174,0,0,1,.012-.086c0-.023.022-.05.07-.083s.076-.019.08.038c.1.5.186,1.031.247,1.585a6.74,6.74,0,0,1-.02,1.655,5.558,5.558,0,0,1-.46,1.583,3.82,3.82,0,0,1-1.073,1.355,6.587,6.587,0,0,1-1.16.719,7.193,7.193,0,0,1-1.4.535.727.727,0,0,1-.565-.046,1.38,1.38,0,0,0-.356-.2,1.69,1.69,0,0,1-.327-.164,1.172,1.172,0,0,1-.215-.275,4.17,4.17,0,0,1-.562-1.691,7.322,7.322,0,0,1,.027-1.8,9.757,9.757,0,0,1,.4-1.725q.272-.828.535-1.477c.05-.095.089-.143.117-.145a.351.351,0,0,0,.14-.079,1.385,1.385,0,0,0,.186-.141c.08-.067.143-.1.19-.09.022,0,.059,0,.111,0a.361.361,0,0,1,.111.018c.024.01.022.021-.006.035S128.166,49.941,128.189,49.963Z" fill="#97ace0"/>
                <path d="M140.191,49.7a3.6,3.6,0,0,1-.158,1.393,3.187,3.187,0,0,1-.277.658,6.848,6.848,0,0,1-.406.643c-.151.209-.307.408-.471.594s-.313.361-.449.519c.345.077.73.16,1.151.25s.841.2,1.259.33a11.286,11.286,0,0,1,1.209.453,4.6,4.6,0,0,1,1.014.6.509.509,0,0,1,.166.183.669.669,0,0,1,.05.227.872.872,0,0,0,.02.169c.008.022-.009.069-.049.139a.435.435,0,0,0-.047.192.152.152,0,0,1-.066.14.161.161,0,0,1-.173-.021,12.418,12.418,0,0,0-2.36-.977q-1.353-.417-2.684-.7a.641.641,0,0,0-.252.068c-.076.04-.17.087-.279.14-.089.04-.207.089-.357.145s-.231.062-.246.017a.852.852,0,0,1,.118-.5,3.607,3.607,0,0,0,.24-.477c.077-.2.127-.326.152-.385a.9.9,0,0,1,.114-.2c.041-.06.09-.135.146-.224a2.845,2.845,0,0,1,.258-.333,8.64,8.64,0,0,0,.666-.822,5.189,5.189,0,0,0,.443-.747,5.991,5.991,0,0,0,.282-.711c.075-.233.149-.465.225-.7a15.5,15.5,0,0,0-1.973.318c-.582.137-1.178.308-1.789.509.1.424.183.905.254,1.439s.142,1.085.211,1.649.138,1.123.211,1.681a12.476,12.476,0,0,0,.3,1.54.817.817,0,0,1,.081.42.263.263,0,0,0-.011.085.1.1,0,0,1-.029.071,14.112,14.112,0,0,1-1.157-3.235,10.809,10.809,0,0,1-.222-3.54c-.078.018-.184.048-.318.091s-.274.093-.424.149-.293.113-.431.167-.258.1-.358.127l-.386.078a.209.209,0,0,1,.009-.23.445.445,0,0,0,.1-.2.993.993,0,0,1,.449-.645.9.9,0,0,0,.241-.221.724.724,0,0,1,.224-.2,6.919,6.919,0,0,1,1.012-.4,11.813,11.813,0,0,1,1.165-.3,8.564,8.564,0,0,1,1.2-.152,5.7,5.7,0,0,1,1.155.047.983.983,0,0,1,.331.1,2.485,2.485,0,0,0,.317.139l.282.15C140.1,49.433,140.214,49.528,140.191,49.7Z" fill="#97ace0"/>
                <path d="M156.17,51.938a.229.229,0,0,1-.137.12.736.736,0,0,0-.172.088.95.95,0,0,0-.16.149.933.933,0,0,1-.16.147q.3.9.484,1.569t.242,1.006c.038.225.073.472.1.743s.053.519.068.745a2.678,2.678,0,0,1,0,.417,1.893,1.893,0,0,1-.054.32,2.463,2.463,0,0,1-.369-.52c-.1-.186-.2-.371-.3-.559-.234-.562-.459-1.155-.68-1.775s-.436-1.254-.652-1.9c-.318.012-.657.03-1.02.055l-1.086.076q-.541.039-1.025.081c-.322.028-.6.056-.838.084-.019.069-.035.15-.051.241a2.9,2.9,0,0,0-.136.5q-.05.269-.079.569t-.076.627a6.328,6.328,0,0,1-.125.657.765.765,0,0,0,.423-.175.777.777,0,0,1,.423-.175,1.707,1.707,0,0,0-.239.358,2.067,2.067,0,0,0-.161.506.39.39,0,0,1-.088.185,1.239,1.239,0,0,0-.11.153c-.019.047-.039.1-.058.149a.236.236,0,0,1-.076.116.552.552,0,0,1-.2.091.116.116,0,0,1-.121-.035,1.143,1.143,0,0,1-.209-.42c-.038-.15-.075-.31-.109-.477a7.658,7.658,0,0,1,.035-1.2c.045-.492.109-1.019.2-1.583a.844.844,0,0,1-.28-.107,1.037,1.037,0,0,0-.247-.112.945.945,0,0,0-.312-.072.456.456,0,0,1-.263-.108l1.015-.346a.964.964,0,0,0,.219-.049q.147-.81.3-1.556c.1-.494.2-.917.3-1.265q.108-.4.267-.921a7.291,7.291,0,0,1,.39-1.009,3.923,3.923,0,0,1,.537-.848,1.452,1.452,0,0,1,.69-.475,2.132,2.132,0,0,1,.235-.067,1.876,1.876,0,0,1,.254-.035.222.222,0,0,1,.213.113,2.52,2.52,0,0,0,.224.3q.1.147.18.252a1.519,1.519,0,0,1,.193.438q.493,1.21.938,2.433t.793,2.3l1.049.148Zm-3.843-5.205a7.577,7.577,0,0,0-.482.9c-.148.322-.292.692-.435,1.105s-.279.883-.412,1.41-.269,1.118-.4,1.776q.876-.163,1.756-.243a14.919,14.919,0,0,1,1.753-.054q-.453-1.35-.884-2.623A22.342,22.342,0,0,0,152.327,46.733Z" fill="#97ace0"/>
                <path d="M159.346,54.188c.55-.108,1.067-.223,1.552-.349s.946-.259,1.379-.4.851-.3,1.254-.472.8-.349,1.2-.537a1.116,1.116,0,0,1,.451-.151c.09-.006.133.031.127.111.026.055.05.086.074.089s.039.075.049.21a.686.686,0,0,1-.077.363,2.231,2.231,0,0,1-.167.284,1.877,1.877,0,0,1-.518.4,10.081,10.081,0,0,1-.905.464c-.353.16-.728.324-1.125.488s-.788.317-1.17.457-.732.265-1.048.373-.565.184-.743.231a.313.313,0,0,1-.294-.073.816.816,0,0,0-.233-.146.423.423,0,0,1-.285-.287,1.767,1.767,0,0,0-.176-.448,1.878,1.878,0,0,1-.224-.523,4.891,4.891,0,0,1-.106-.545q-.083-.693-.1-1.392c-.01-.465-.022-.943-.033-1.438s-.036-1-.073-1.529-.105-1.086-.2-1.682c.019-.059.062-.067.126-.026a.753.753,0,0,0,.2.088c.057.02.11.035.157.049a.263.263,0,0,1,.126.1,3.2,3.2,0,0,1,.337,1.043q.147.748.238,1.68t.14,1.892Q159.33,53.472,159.346,54.188Z" fill="#97ace0"/>
                <path d="M168.254,53.563q.823-.162,1.552-.348t1.379-.4q.649-.217,1.253-.472c.4-.171.8-.349,1.2-.536a1.082,1.082,0,0,1,.45-.151c.09-.007.132.03.126.11.027.056.053.086.076.089s.039.075.048.21a.677.677,0,0,1-.077.363,1.936,1.936,0,0,1-.168.285,1.9,1.9,0,0,1-.516.4c-.252.147-.554.3-.906.464s-.728.323-1.125.487-.787.317-1.17.457-.731.265-1.048.373-.564.184-.743.231a.311.311,0,0,1-.3-.073.836.836,0,0,0-.231-.146.419.419,0,0,1-.285-.287,1.767,1.767,0,0,0-.176-.448,1.788,1.788,0,0,1-.224-.522,4.489,4.489,0,0,1-.106-.546q-.084-.693-.1-1.392c-.011-.465-.022-.943-.033-1.437s-.036-1-.073-1.53-.1-1.086-.2-1.682c.019-.058.061-.066.127-.026a.705.705,0,0,0,.2.088c.058.02.111.035.157.049a.248.248,0,0,1,.126.1,3.182,3.182,0,0,1,.338,1.043q.145.747.238,1.679t.141,1.893C168.221,52.527,168.243,53.087,168.254,53.563Z" fill="#97ace0"/>
                <path d="M181.44,49.057a1.952,1.952,0,0,1,.25.042.135.135,0,0,1,.1.1l-.26.427a.751.751,0,0,1-.254.154c-.1.042-.2.077-.29.106-.258.041-.546.078-.862.112s-.643.07-.98.111-.68.078-1.024.115-.668.069-.973.1q.051.713.1,1.323t.111.981a9.827,9.827,0,0,0,.97-.289q.547-.194,1.179-.442c.421-.165.856-.343,1.309-.535s.893-.387,1.323-.587c.154-.068.3-.126.439-.177s.28-.1.424-.157a.175.175,0,0,1-.01.095.4.4,0,0,1-.047.062.663.663,0,0,1-.136.25c-.064.061-.125.116-.184.166s-.111.093-.153.13a.517.517,0,0,0-.13.214.617.617,0,0,1-.229.272,14.03,14.03,0,0,1-2.143,1.274q-1.089.52-2.32.965a.77.77,0,0,1-.457.058.558.558,0,0,1-.309-.293.856.856,0,0,0-.1-.216.911.911,0,0,0-.253-.2.277.277,0,0,1-.1-.224c-.008-.106-.022-.223-.041-.347-.043-.269-.08-.6-.114-.989s-.058-.806-.078-1.247l-.441.03a.886.886,0,0,1-.224-.027.755.755,0,0,1-.215-.146.168.168,0,0,1,.049-.158.357.357,0,0,0,.1-.108,1.19,1.19,0,0,0,.083-.159.23.23,0,0,1,.119-.128c.056-.015.126-.031.21-.05s.18-.041.293-.071c-.007-.419-.017-.84-.03-1.26s-.019-.812-.021-1.174l-.238.017a.65.65,0,0,1-.283-.024.4.4,0,0,1-.117-.077.3.3,0,0,1-.056-.081c-.013-.027-.049-.044-.107-.052-.092-.006-.136-.019-.138-.042s-.026-.044-.073-.063-.031-.071.051-.123a.8.8,0,0,0,.244-.29.687.687,0,0,0,.131-.2c.014-.045.08-.1.2-.168a1.775,1.775,0,0,1,.637-.147c.316-.034.674-.056,1.07-.067s.8-.01,1.219,0,.772.034,1.07.07a3.251,3.251,0,0,1,.5.127,2.029,2.029,0,0,1,.442.216c0,.034-.022.055-.073.064a.182.182,0,0,0-.107.051.585.585,0,0,1-.13.086.622.622,0,0,0-.115.067.579.579,0,0,1-.132.061,5.229,5.229,0,0,1-.559.184,6.4,6.4,0,0,1-.654.139c-.242.041-.523.074-.846.1s-.692.057-1.111.086q.018.493.051,1.087c.022.4.049.8.078,1.222q.807-.142,1.8-.269t1.852-.207a.786.786,0,0,1,.364.06A.767.767,0,0,0,181.44,49.057Z" fill="#97ace0"/>
                <path d="M196.3,49.124a.23.23,0,0,1-.137.119.787.787,0,0,0-.173.089.938.938,0,0,0-.159.148.906.906,0,0,1-.161.148q.3.9.485,1.568c.122.447.2.783.241,1.006s.074.473.1.743.053.52.069.745a2.809,2.809,0,0,1,0,.417,1.992,1.992,0,0,1-.054.321,2.393,2.393,0,0,1-.369-.52c-.1-.186-.2-.372-.3-.559q-.351-.844-.68-1.776t-.652-1.9c-.318.012-.658.029-1.02.054l-1.086.077q-.543.038-1.025.081c-.322.028-.6.055-.838.084-.02.068-.035.15-.052.241a2.941,2.941,0,0,0-.135.5c-.034.179-.059.368-.08.568s-.045.41-.075.627a6.622,6.622,0,0,1-.125.658.781.781,0,0,0,.423-.174.761.761,0,0,1,.423-.176,1.679,1.679,0,0,0-.24.357,2.114,2.114,0,0,0-.16.506.4.4,0,0,1-.089.186,1.469,1.469,0,0,0-.11.152c-.019.048-.038.1-.057.15a.254.254,0,0,1-.077.116.541.541,0,0,1-.2.091.115.115,0,0,1-.121-.036,1.136,1.136,0,0,1-.209-.42c-.039-.15-.076-.309-.11-.476a7.675,7.675,0,0,1,.036-1.2c.045-.493.109-1.02.195-1.583a.842.842,0,0,1-.28-.108,1,1,0,0,0-.247-.111.94.94,0,0,0-.312-.072.463.463,0,0,1-.263-.109l1.016-.345a.9.9,0,0,0,.218-.049c.1-.54.2-1.06.3-1.555s.2-.918.3-1.267c.072-.265.161-.573.267-.921a7.592,7.592,0,0,1,.39-1.008,3.912,3.912,0,0,1,.537-.848,1.464,1.464,0,0,1,.691-.476,2.3,2.3,0,0,1,.235-.067,2.039,2.039,0,0,1,.253-.034.221.221,0,0,1,.213.112,2.543,2.543,0,0,0,.225.3,3.011,3.011,0,0,0,.18.252,1.528,1.528,0,0,1,.192.437q.493,1.211.939,2.433t.792,2.306l1.05.147Zm-3.844-5.205a7.629,7.629,0,0,0-.482.9q-.222.486-.434,1.106t-.412,1.409q-.2.791-.4,1.776.875-.163,1.756-.242a14.909,14.909,0,0,1,1.752-.054q-.453-1.351-.883-2.623A22.01,22.01,0,0,0,192.451,43.919Z" fill="#97ace0"/>
                <path d="M204.469,44.356a2.148,2.148,0,0,1,.013.442c-.009.183-.02.353-.032.515a1,1,0,0,0,.045.4,3.636,3.636,0,0,1,.095.377c-.053.22-.1.487-.149.8s-.085.648-.117,1-.062.7-.09,1.038a8.63,8.63,0,0,0-.029.922c.084.211.161.386.233.529s.136.278.191.4a2.357,2.357,0,0,1,.131.409,3.7,3.7,0,0,1,.072.541c-.074.083-.117.136-.134.154a1.667,1.667,0,0,1-.136.12.163.163,0,0,1-.193.048.406.406,0,0,0-.2-.037c-.1.007-.153,0-.154-.024s-.034-.06-.094-.113a3.215,3.215,0,0,1-.488-.519q-.2-.267-.37-.537t-.32-.548a5.469,5.469,0,0,0-.338-.556c-.152-.239-.34-.52-.561-.839a11.262,11.262,0,0,0-.722-.93,5.907,5.907,0,0,0-.832-.794,1.966,1.966,0,0,0-.873-.416,11.055,11.055,0,0,0-.269,2.6,9.406,9.406,0,0,0,.326,2.32.6.6,0,0,1,.013.2q-.013.052-.039.174c-.016.093-.034.2-.053.336a.933.933,0,0,1-.074.286c.023.158.039.306.049.441a.476.476,0,0,1-.064.311,5.423,5.423,0,0,1-.872-1.857,10.278,10.278,0,0,1-.319-2.117,14.016,14.016,0,0,1,.063-2.144c.075-.7.166-1.351.273-1.937a.129.129,0,0,1,.034-.1.837.837,0,0,0,.073-.073l.055-.064a.211.211,0,0,1,.074-.049,1.2,1.2,0,0,0,.15-.05.39.39,0,0,1,.15-.038.137.137,0,0,1,.144.109,1.153,1.153,0,0,0,.081.183,1.023,1.023,0,0,1,.109.341,1.312,1.312,0,0,1,.041.347,2.741,2.741,0,0,1,1.353.442,5.43,5.43,0,0,1,1.071.921,8.848,8.848,0,0,1,.835,1.093q.363.563.631.971c-.007-.25,0-.558.028-.923s.057-.737.094-1.114.072-.736.111-1.074.069-.6.089-.8a1.141,1.141,0,0,1,.125-.4,1.84,1.84,0,0,1,.2-.288,1.168,1.168,0,0,0,.131-.2.338.338,0,0,1,.184-.167.381.381,0,0,1,.125-.043A.764.764,0,0,0,204.469,44.356Z" fill="#97ace0"/>
                <path d="M212.291,44.558a.288.288,0,0,1-.04.164.766.766,0,0,0-.071.183.665.665,0,0,1-.08.211,1.234,1.234,0,0,0-.118.145.513.513,0,0,0-.06.115.256.256,0,0,1-.046.08.2.2,0,0,1-.188-.021,5.181,5.181,0,0,0-.43-.294,3.3,3.3,0,0,0-.53-.26,2.218,2.218,0,0,0-.582-.139,1.215,1.215,0,0,0-.6.093,4.671,4.671,0,0,0-.95.545,3.536,3.536,0,0,0-.892.9,2.286,2.286,0,0,0-.417,1.352,2.46,2.46,0,0,0,.371,1.276,2.752,2.752,0,0,0,1.012.945,2.853,2.853,0,0,0,1.525.345,1.825,1.825,0,0,0,.751-.352,2.524,2.524,0,0,0,.538-.591,3.737,3.737,0,0,0,.368-.717,6.086,6.086,0,0,0,.223-.707c-.567.189-1.136.35-1.7.487a4.155,4.155,0,0,1-1.735.044c-.061-.028-.078-.042-.055-.037s.06-.048.108-.153a.785.785,0,0,0,.048-.183.279.279,0,0,1,.149-.189c.4-.1.814-.213,1.236-.352s.857-.261,1.3-.372a8.115,8.115,0,0,1,1.366-.216,4.767,4.767,0,0,1,1.424.122.431.431,0,0,0,.164.033.624.624,0,0,1,.182.029.608.608,0,0,1,.158.082.2.2,0,0,1,.079.157c0,.045-.046.072-.148.078-.294.021-.631.053-1.007.1a4.876,4.876,0,0,0-1,.215c.007.273.021.573.039.9s.051.665.1,1.008a6.389,6.389,0,0,0,.242,1.014,3.127,3.127,0,0,0,.465.905.277.277,0,0,1,.045.167.61.61,0,0,1-.018.224.1.1,0,0,0-.01.095.068.068,0,0,1-.012.077.109.109,0,0,1-.114.067.277.277,0,0,1-.139-.033,2.544,2.544,0,0,1-.713-1.04,5.3,5.3,0,0,1-.314-1.206,3.952,3.952,0,0,1-2.153,1.4,2.005,2.005,0,0,1-.483.043,1.809,1.809,0,0,1-.479-.13,1.552,1.552,0,0,0-.353-.059.553.553,0,0,1-.321-.1,4.377,4.377,0,0,1-.864-.758,4.235,4.235,0,0,1-.628-.945,4.459,4.459,0,0,1-.366-1.073,3.856,3.856,0,0,1-.056-1.164,2.665,2.665,0,0,1,.279-1.376,3.348,3.348,0,0,1,.822-1.038,4.061,4.061,0,0,1,1.112-.667,3.57,3.57,0,0,1,1.15-.258,5.5,5.5,0,0,1,.8.038,2.44,2.44,0,0,1,.756.211l.494.229A1.033,1.033,0,0,1,212.291,44.558Z" fill="#97ace0"/>
                <path d="M221.734,46.23a2.446,2.446,0,0,1,.25.042.138.138,0,0,1,.1.105l-.26.427a.761.761,0,0,1-.254.154q-.157.063-.291.105-.389.061-.861.113t-.982.11c-.338.042-.678.079-1.023.115l-.974.1q.051.712.1,1.323c.034.406.071.734.111.981a10.012,10.012,0,0,0,.969-.289q.549-.193,1.18-.442c.42-.165.857-.345,1.308-.535s.9-.387,1.325-.587c.154-.068.3-.126.439-.177s.279-.1.423-.157a.182.182,0,0,1-.011.095.336.336,0,0,1-.047.062.639.639,0,0,1-.136.249c-.063.062-.125.117-.184.166l-.152.131a.5.5,0,0,0-.129.214.638.638,0,0,1-.229.272,14.169,14.169,0,0,1-2.144,1.274q-1.09.52-2.32.965a.759.759,0,0,1-.456.057.549.549,0,0,1-.31-.293.848.848,0,0,0-.1-.215.911.911,0,0,0-.253-.2.274.274,0,0,1-.1-.224c-.008-.107-.022-.223-.042-.347-.041-.269-.08-.6-.112-.989s-.059-.806-.08-1.247l-.44.03a.99.99,0,0,1-.224-.027.755.755,0,0,1-.215-.146c-.006-.079.01-.132.049-.158a.364.364,0,0,0,.1-.109,1.231,1.231,0,0,0,.082-.158.23.23,0,0,1,.119-.128c.055-.015.125-.033.209-.05s.182-.041.294-.071q-.011-.63-.029-1.26c-.011-.419-.02-.812-.023-1.174l-.236.017a.671.671,0,0,1-.284-.024.407.407,0,0,1-.116-.077.316.316,0,0,1-.057-.081c-.014-.027-.049-.044-.106-.052-.092-.006-.138-.019-.14-.042s-.026-.044-.073-.063-.03-.072.052-.123a.786.786,0,0,0,.244-.29.666.666,0,0,0,.131-.2c.014-.047.081-.1.2-.169a1.779,1.779,0,0,1,.637-.146c.316-.034.672-.056,1.069-.068s.8-.009,1.22,0,.771.035,1.07.071a3.266,3.266,0,0,1,.5.127,2.006,2.006,0,0,1,.442.216c0,.034-.022.055-.073.064a.177.177,0,0,0-.107.051.546.546,0,0,1-.13.085.685.685,0,0,0-.115.068.625.625,0,0,1-.132.061,5.526,5.526,0,0,1-.558.184,6.384,6.384,0,0,1-.656.139c-.24.041-.522.074-.844.1s-.693.058-1.111.087c.012.328.028.691.051,1.087s.047.8.076,1.222c.539-.1,1.139-.184,1.8-.271s1.277-.155,1.853-.206a.806.806,0,0,1,.362.06A.747.747,0,0,0,221.734,46.23Z" fill="#97ace0"/>
                <path d="M229.172,42.641a.321.321,0,0,1,.1-.2.518.518,0,0,0,.116-.179l.117-.136a.444.444,0,0,1,.072-.064.08.08,0,0,1,.13.024,1.131,1.131,0,0,1,.093.216l.086.506q.12.756.206,1.6c.057.564.116,1.134.181,1.709s.14,1.14.237,1.7a9.015,9.015,0,0,0,.419,1.582.181.181,0,0,1,.024.127c-.009.039-.018.049-.031.028a.186.186,0,0,0-.1-.087.632.632,0,0,1-.171-.133c-.12-.083-.223-.149-.312-.2a.805.805,0,0,1-.245-.222,4.936,4.936,0,0,1-.526-1.4,15.052,15.052,0,0,1-.3-1.813q-.8.3-1.8.74a19.027,19.027,0,0,1-1.967.752c.038.225.074.455.107.692a6.313,6.313,0,0,0,.144.706,1.38,1.38,0,0,1,.049.338,2.221,2.221,0,0,0,.054.405c.032.122.07.253.113.393a1.423,1.423,0,0,1,.072.309,7.061,7.061,0,0,1-1.119-1.753,9.436,9.436,0,0,1-.621-1.927,11.985,11.985,0,0,1-.244-2.01q-.039-1.023,0-2a.1.1,0,0,1,.044-.1.3.3,0,0,0,.081-.066c.02-.024.031-.041.03-.052a.109.109,0,0,1,.03-.054c.062-.095.116-.133.163-.113a.315.315,0,0,1,.127.11c.064.1.124.2.184.3s.119.2.183.3a2.114,2.114,0,0,1,.152.346.6.6,0,0,1-.048.413,9.811,9.811,0,0,1,.193,1.181q.071.659.16,1.42a8.371,8.371,0,0,0,.962-.374c.32-.149.636-.294.949-.442s.629-.28.945-.4a4.6,4.6,0,0,1,.963-.247c-.012-.328-.019-.657-.019-.986S229.159,42.947,229.172,42.641Z" fill="#97ace0"/>
                <path d="M238.021,45.088a1.943,1.943,0,0,1,.25.043.136.136,0,0,1,.1.1l-.26.428a.777.777,0,0,1-.254.154c-.105.041-.2.077-.291.1-.258.042-.546.078-.861.112s-.643.071-.981.112-.679.079-1.024.114-.669.07-.973.1q.049.712.1,1.324t.111.98a9.229,9.229,0,0,0,.969-.289q.549-.193,1.18-.44T237.4,47.4q.681-.285,1.325-.586c.154-.069.3-.126.439-.176s.279-.1.423-.158a.178.178,0,0,1-.011.094.308.308,0,0,1-.047.063.657.657,0,0,1-.135.249c-.064.061-.125.116-.185.166l-.152.131a.5.5,0,0,0-.129.214.634.634,0,0,1-.229.271,14.094,14.094,0,0,1-2.144,1.275q-1.091.519-2.32.964a.76.76,0,0,1-.456.058.553.553,0,0,1-.31-.293.823.823,0,0,0-.1-.216.911.911,0,0,0-.253-.2.276.276,0,0,1-.1-.224c-.008-.106-.022-.222-.042-.346-.041-.27-.079-.6-.112-.99s-.059-.8-.08-1.247l-.44.031a.876.876,0,0,1-.224-.028.723.723,0,0,1-.215-.145c0-.079.01-.132.049-.157a.409.409,0,0,0,.1-.11,1.129,1.129,0,0,0,.082-.159.23.23,0,0,1,.119-.128c.056-.015.125-.031.21-.049s.182-.042.293-.072c-.007-.419-.017-.84-.028-1.26s-.02-.811-.024-1.174l-.236.017a.637.637,0,0,1-.283-.023.381.381,0,0,1-.117-.078.285.285,0,0,1-.057-.081c-.014-.027-.049-.044-.106-.051-.092-.006-.137-.019-.139-.041s-.027-.045-.074-.065-.03-.071.052-.123a.778.778,0,0,0,.244-.29.632.632,0,0,0,.131-.2c.014-.046.081-.1.2-.168a1.753,1.753,0,0,1,.637-.148q.474-.05,1.069-.066t1.22,0c.415.012.772.034,1.07.07a3.385,3.385,0,0,1,.5.127,2.052,2.052,0,0,1,.442.216c0,.034-.022.056-.073.064a.192.192,0,0,0-.107.051.552.552,0,0,1-.13.086.623.623,0,0,0-.115.068.62.62,0,0,1-.132.06,5.287,5.287,0,0,1-.558.185,6.677,6.677,0,0,1-.656.138c-.24.041-.522.075-.844.1s-.693.057-1.111.087c.012.328.028.69.051,1.087s.047.8.076,1.221q.809-.141,1.8-.269t1.853-.207a.778.778,0,0,1,.362.06A.747.747,0,0,0,238.021,45.088Z" fill="#97ace0"/>
                <path d="M246.967,41.375a2.015,2.015,0,0,1,.013.442c-.008.183-.019.354-.031.514a.984.984,0,0,0,.045.4,3.464,3.464,0,0,1,.094.376c-.052.22-.1.489-.148.8s-.085.648-.118,1-.06.7-.088,1.039a8.637,8.637,0,0,0-.029.922c.082.211.16.387.233.53s.136.277.191.4a2.415,2.415,0,0,1,.13.409,3.625,3.625,0,0,1,.072.54l-.134.154a1.483,1.483,0,0,1-.136.12.161.161,0,0,1-.193.048.4.4,0,0,0-.2-.037c-.1.007-.154,0-.156-.023s-.033-.061-.092-.114a3.14,3.14,0,0,1-.489-.519q-.2-.267-.37-.537c-.116-.179-.221-.362-.321-.548a5.517,5.517,0,0,0-.336-.556c-.154-.239-.342-.52-.562-.84a11.419,11.419,0,0,0-.722-.929,5.836,5.836,0,0,0-.831-.793,1.973,1.973,0,0,0-.873-.417,10.95,10.95,0,0,0-.27,2.6,9.478,9.478,0,0,0,.325,2.322.558.558,0,0,1,.014.2c-.008.035-.022.093-.039.174s-.034.2-.053.336a.959.959,0,0,1-.074.286c.023.158.038.3.048.439a.483.483,0,0,1-.062.313,5.411,5.411,0,0,1-.873-1.858,10.259,10.259,0,0,1-.319-2.116,14.154,14.154,0,0,1,.063-2.145q.114-1.056.273-1.937a.123.123,0,0,1,.035-.106.815.815,0,0,0,.072-.072c.02-.025.04-.046.055-.063a.175.175,0,0,1,.075-.049,1.157,1.157,0,0,0,.148-.052.441.441,0,0,1,.151-.037.136.136,0,0,1,.144.108.93.93,0,0,0,.082.183,1.074,1.074,0,0,1,.109.342,1.466,1.466,0,0,1,.041.347,2.729,2.729,0,0,1,1.352.443,5.363,5.363,0,0,1,1.07.921,8.71,8.71,0,0,1,.836,1.093c.242.374.452.7.631.969-.006-.249,0-.557.029-.922s.056-.737.092-1.115.073-.734.112-1.073.069-.6.089-.8a1.149,1.149,0,0,1,.125-.4,1.79,1.79,0,0,1,.2-.288,1.1,1.1,0,0,0,.132-.2.34.34,0,0,1,.185-.167.374.374,0,0,1,.125-.044A.725.725,0,0,0,246.967,41.375Z" fill="#97ace0"/>
                <path d="M253.381,41.164a2.024,2.024,0,0,1,.409.5,3.069,3.069,0,0,1,.284.646,2.8,2.8,0,0,1,.127.716,2.464,2.464,0,0,1-.062.694,6.9,6.9,0,0,1-2.292,4.509,1.2,1.2,0,0,1-.443.245,1.136,1.136,0,0,0-.412.207,1.672,1.672,0,0,1-.254.154.789.789,0,0,1-.293.071.242.242,0,0,1-.027-.151,1.265,1.265,0,0,1,.039-.156.466.466,0,0,0,0-.162.283.283,0,0,1,.014-.163l.112-.23a.617.617,0,0,0,.063-.191.248.248,0,0,0-.123-.17.557.557,0,0,1-.177-.219,7.817,7.817,0,0,1-.459-1.2c-.134-.449-.256-.919-.364-1.406s-.2-.974-.29-1.462-.16-.948-.223-1.374l-.4.2c-.054.026-.1-.011-.127-.111a.624.624,0,0,1-.019-.289l.062-.328a.516.516,0,0,0,.02-.2.249.249,0,0,1,.088-.2,3.132,3.132,0,0,1,.479-.341,1.518,1.518,0,0,1,.745-.206,2.513,2.513,0,0,1,.879-.334,2.737,2.737,0,0,1,.938-.007,2.937,2.937,0,0,1,1.705.964Zm.06.865a1.414,1.414,0,0,0-.742-.724,2.668,2.668,0,0,0-1.018-.193,3.424,3.424,0,0,0-1.021.158,2.384,2.384,0,0,0-.726.339c.06.372.126.787.2,1.249s.157.936.253,1.423.211.977.342,1.469a10.278,10.278,0,0,0,.462,1.364,7.046,7.046,0,0,0,1.1-1.041,5.749,5.749,0,0,0,.8-1.215,4.356,4.356,0,0,0,.347-2.829Z" fill="#97ace0"/>
                <path d="M261.689,43.428a1.808,1.808,0,0,1,.25.043.133.133,0,0,1,.1.1l-.26.428a.767.767,0,0,1-.254.154c-.1.041-.2.076-.29.105-.259.042-.547.078-.862.112s-.643.07-.981.111-.679.079-1.024.115-.668.07-.973.1c.034.475.067.915.1,1.322s.07.735.111.981a9.551,9.551,0,0,0,.969-.289q.548-.193,1.18-.441t1.308-.536q.681-.285,1.323-.587c.155-.067.3-.126.44-.175s.28-.1.423-.158a.171.171,0,0,1-.01.094.308.308,0,0,1-.047.063.657.657,0,0,1-.135.249c-.065.061-.126.116-.185.166s-.109.093-.152.13a.5.5,0,0,0-.13.214.63.63,0,0,1-.229.272,14.135,14.135,0,0,1-2.143,1.275q-1.09.519-2.321.964a.767.767,0,0,1-.456.058.552.552,0,0,1-.309-.293.891.891,0,0,0-.1-.216.911.911,0,0,0-.253-.2.279.279,0,0,1-.1-.224c-.007-.106-.022-.222-.041-.347-.042-.269-.079-.6-.113-.989s-.059-.8-.079-1.247l-.441.03a.833.833,0,0,1-.223-.027.7.7,0,0,1-.215-.145c-.005-.08.01-.131.049-.158a.387.387,0,0,0,.1-.109,1.48,1.48,0,0,0,.083-.159.229.229,0,0,1,.118-.128c.056-.015.126-.031.21-.049s.182-.041.293-.072c-.006-.419-.016-.84-.028-1.26s-.021-.812-.023-1.174l-.237.017a.622.622,0,0,1-.283-.024.364.364,0,0,1-.117-.077.291.291,0,0,1-.056-.08c-.014-.028-.049-.045-.107-.053-.091-.005-.137-.018-.138-.041s-.027-.045-.074-.063-.031-.072.051-.124a.786.786,0,0,0,.244-.29.665.665,0,0,0,.131-.2c.015-.046.081-.1.2-.168a1.76,1.76,0,0,1,.638-.148c.315-.033.672-.056,1.069-.066s.8-.011,1.219,0,.773.034,1.07.069a3.323,3.323,0,0,1,.5.127,2.012,2.012,0,0,1,.442.217c0,.034-.022.054-.073.063a.185.185,0,0,0-.106.051.556.556,0,0,1-.131.086.612.612,0,0,0-.114.067.545.545,0,0,1-.133.061,5.065,5.065,0,0,1-.558.184,6.362,6.362,0,0,1-.655.139c-.241.041-.523.074-.845.1s-.692.057-1.111.087c.012.328.028.691.051,1.087s.048.8.077,1.222q.808-.142,1.8-.27t1.852-.207a.784.784,0,0,1,.363.06A.734.734,0,0,0,261.689,43.428Z" fill="#97ace0"/>
                <path d="M270.635,39.715a2.082,2.082,0,0,1,.013.442c-.009.183-.02.354-.031.514a.96.96,0,0,0,.045.4,3.792,3.792,0,0,1,.094.377c-.053.22-.1.489-.149.8s-.085.647-.117,1-.061.7-.089,1.039a8.362,8.362,0,0,0-.028.922c.082.211.16.387.232.529s.136.278.191.405a2.387,2.387,0,0,1,.131.409,3.763,3.763,0,0,1,.072.54c-.074.084-.118.136-.134.154a1.649,1.649,0,0,1-.136.12.164.164,0,0,1-.194.048.4.4,0,0,0-.2-.037c-.1.007-.153,0-.155-.023s-.034-.061-.093-.114a3.172,3.172,0,0,1-.488-.519c-.132-.178-.255-.357-.371-.537s-.221-.362-.32-.548a5.294,5.294,0,0,0-.338-.556c-.152-.239-.34-.52-.56-.839a11.143,11.143,0,0,0-.723-.929,5.844,5.844,0,0,0-.831-.794,1.953,1.953,0,0,0-.873-.417,10.951,10.951,0,0,0-.269,2.6,9.407,9.407,0,0,0,.325,2.32.555.555,0,0,1,.013.2c-.008.035-.021.092-.039.173s-.033.2-.052.336a.99.99,0,0,1-.074.287c.023.158.038.3.048.44a.469.469,0,0,1-.063.311,5.378,5.378,0,0,1-.872-1.857,10.2,10.2,0,0,1-.319-2.116,13.9,13.9,0,0,1,.063-2.145q.112-1.056.273-1.937a.123.123,0,0,1,.035-.106.957.957,0,0,0,.071-.072c.021-.025.04-.046.056-.063a.173.173,0,0,1,.073-.049,1.137,1.137,0,0,0,.15-.052.409.409,0,0,1,.15-.037.137.137,0,0,1,.145.108,1.009,1.009,0,0,0,.081.184,1.013,1.013,0,0,1,.108.341,1.378,1.378,0,0,1,.042.346,2.757,2.757,0,0,1,1.353.444,5.359,5.359,0,0,1,1.07.921,8.8,8.8,0,0,1,.836,1.092c.241.374.451.7.63.97-.006-.249,0-.557.029-.922s.056-.737.093-1.114.072-.735.111-1.074.069-.6.09-.8a1.129,1.129,0,0,1,.125-.4,1.739,1.739,0,0,1,.2-.289,1.11,1.11,0,0,0,.131-.2.342.342,0,0,1,.186-.167.386.386,0,0,1,.124-.043A.879.879,0,0,0,270.635,39.715Z" fill="#97ace0"/>
              </g>
            </g>
          </g>
        </g>
      </g>
    </g>
  </g>
</svg>
