<svg xmlns="http://www.w3.org/2000/svg" viewBox="0 0 75 66">
  <title>B1_faq_hover</title>
  <g id="Ebene_2" data-name="Ebene 2">
    <g id="Ebene_1-2" data-name="Ebene 1">
      <g>
        <path id="Rechteck_57" data-name="Rechteck 57" d="M15,0H60A14.926,14.926,0,0,1,75,14.85v36.3A14.926,14.926,0,0,1,60,66H15A14.926,14.926,0,0,1,0,51.15V14.85A14.926,14.926,0,0,1,15,0Z" fill="#36578a"/>
        <g id="FAQ" style="isolation: isolate">
          <g style="isolation: isolate">
            <path d="M29.272,27.763V29.8H23.183v4.066h5.139V35.9H23.183v5.6H20.608V27.763Z" fill="#fff"/>
            <path d="M41.955,41.5H39.979a.86.86,0,0,1-.546-.166.944.944,0,0,1-.309-.413l-1.026-2.8H32.407l-1.026,2.8a.9.9,0,0,1-.3.4.843.843,0,0,1-.546.18H28.55l5.4-13.737h2.613Zm-8.892-5.186h4.379L35.77,31.743q-.114-.3-.251-.716c-.092-.276-.183-.576-.271-.9q-.133.483-.262.9t-.251.732Z" fill="#fff"/>
            <path d="M56.062,34.632a7.957,7.957,0,0,1-.19,1.762,7.242,7.242,0,0,1-.546,1.572,6.63,6.63,0,0,1-.869,1.345,6.236,6.236,0,0,1-1.169,1.078l3.486,3.8H54.666a2.563,2.563,0,0,1-.822-.123,1.613,1.613,0,0,1-.67-.456L51.16,41.386a7.4,7.4,0,0,1-.993.2,8.211,8.211,0,0,1-1.059.067,7.426,7.426,0,0,1-2.845-.528,6.433,6.433,0,0,1-2.2-1.468,6.591,6.591,0,0,1-1.42-2.227,8.019,8.019,0,0,1,0-5.6,6.581,6.581,0,0,1,1.42-2.227,6.419,6.419,0,0,1,2.2-1.468,7.426,7.426,0,0,1,2.845-.527,7.343,7.343,0,0,1,2.841.531,6.5,6.5,0,0,1,2.194,1.468,6.586,6.586,0,0,1,1.416,2.223A7.628,7.628,0,0,1,56.062,34.632Zm-2.622,0a6.406,6.406,0,0,0-.3-2.028,4.3,4.3,0,0,0-.86-1.526,3.707,3.707,0,0,0-1.363-.959,5.1,5.1,0,0,0-3.625,0,3.732,3.732,0,0,0-1.372.959,4.3,4.3,0,0,0-.869,1.526,6.916,6.916,0,0,0,0,4.056,4.251,4.251,0,0,0,.869,1.52,3.758,3.758,0,0,0,1.372.955,5.114,5.114,0,0,0,3.625,0,3.733,3.733,0,0,0,1.363-.955,4.25,4.25,0,0,0,.86-1.52A6.406,6.406,0,0,0,53.44,34.632Z" fill="#fff"/>
          </g>
        </g>
      </g>
    </g>
  </g>
</svg>
