<svg xmlns="http://www.w3.org/2000/svg" viewBox="0 0 75 66">
  <title>B2_fachschaften</title>
  <g id="Ebene_2" data-name="Ebene 2">
    <g id="Ebene_1-2" data-name="Ebene 1">
      <g>
        <path id="Rechteck_57-2" data-name="Rechteck 57-2" d="M15,0H60A14.926,14.926,0,0,1,75,14.85v36.3A14.926,14.926,0,0,1,60,66H15A14.926,14.926,0,0,1,0,51.15V14.85A14.926,14.926,0,0,1,15,0Z" fill="#48679a"/>
        <g id="_Fach-_schaften" data-name=" Fach- schaften" style="isolation: isolate">
          <g style="isolation: isolate">
            <path d="M27.381,22.463V23.8H23.375v2.675h3.381v1.344H23.375V31.5H21.682V22.463Z" fill="#fff"/>
            <path d="M33.95,31.5h-.694a.74.74,0,0,1-.343-.065.424.424,0,0,1-.188-.266l-.138-.456a5.025,5.025,0,0,1-.478.384,2.9,2.9,0,0,1-.484.278,2.512,2.512,0,0,1-.531.169,3.241,3.241,0,0,1-.625.056,2.428,2.428,0,0,1-.75-.11,1.609,1.609,0,0,1-.591-.329,1.475,1.475,0,0,1-.384-.546,1.924,1.924,0,0,1-.138-.758,1.5,1.5,0,0,1,.191-.718,1.8,1.8,0,0,1,.634-.64,4.075,4.075,0,0,1,1.182-.473,7.562,7.562,0,0,1,1.831-.188V27.46a1.437,1.437,0,0,0-.272-.961.992.992,0,0,0-.791-.311,1.9,1.9,0,0,0-.625.088,2.409,2.409,0,0,0-.434.2c-.123.073-.237.139-.341.2a.681.681,0,0,1-.343.087.44.44,0,0,1-.269-.081.619.619,0,0,1-.181-.2l-.282-.493a3.814,3.814,0,0,1,2.669-1.013,2.555,2.555,0,0,1,1,.185,2.126,2.126,0,0,1,.747.512,2.195,2.195,0,0,1,.466.784,3.022,3.022,0,0,1,.159,1Zm-3-.963a2.009,2.009,0,0,0,.438-.043,1.622,1.622,0,0,0,.378-.129,2.057,2.057,0,0,0,.343-.211,2.993,2.993,0,0,0,.335-.3V28.781a6.325,6.325,0,0,0-1.128.085,3.023,3.023,0,0,0-.729.217.948.948,0,0,0-.39.309.689.689,0,0,0-.115.384.68.68,0,0,0,.24.586A1.04,1.04,0,0,0,30.95,30.537Z" fill="#fff"/>
            <path d="M40.287,26.444a.761.761,0,0,1-.134.137.315.315,0,0,1-.191.05.422.422,0,0,1-.231-.071c-.075-.048-.165-.1-.269-.163a1.966,1.966,0,0,0-.372-.162,1.7,1.7,0,0,0-.534-.073,1.626,1.626,0,0,0-.712.148,1.336,1.336,0,0,0-.51.422,1.912,1.912,0,0,0-.3.665,3.554,3.554,0,0,0-.1.884,3.425,3.425,0,0,0,.11.913,1.925,1.925,0,0,0,.315.671,1.36,1.36,0,0,0,.5.414,1.525,1.525,0,0,0,.663.14,1.627,1.627,0,0,0,.6-.091,1.837,1.837,0,0,0,.385-.2c.1-.072.194-.14.271-.2a.415.415,0,0,1,.26-.09.315.315,0,0,1,.282.144l.443.562a2.812,2.812,0,0,1-.556.5,2.982,2.982,0,0,1-.622.325,3.149,3.149,0,0,1-.666.172,4.771,4.771,0,0,1-.681.05,2.843,2.843,0,0,1-1.119-.222,2.6,2.6,0,0,1-.915-.647,3.1,3.1,0,0,1-.619-1.04,4.022,4.022,0,0,1-.228-1.4,4.063,4.063,0,0,1,.2-1.309,2.965,2.965,0,0,1,.6-1.044,2.742,2.742,0,0,1,.975-.691,3.367,3.367,0,0,1,1.337-.25,3.19,3.19,0,0,1,1.26.232,3.077,3.077,0,0,1,.971.662Z" fill="#fff"/>
            <path d="M42.056,31.5V22.213H43.6v3.568a3.31,3.31,0,0,1,.825-.575,2.4,2.4,0,0,1,1.056-.219,2.294,2.294,0,0,1,.931.179,1.824,1.824,0,0,1,.678.5,2.2,2.2,0,0,1,.413.769,3.258,3.258,0,0,1,.141.984V31.5H46.1V27.419a1.37,1.37,0,0,0-.272-.909,1.008,1.008,0,0,0-.816-.322,1.609,1.609,0,0,0-.75.181,2.67,2.67,0,0,0-.662.493V31.5Z" fill="#fff"/>
            <path d="M49.275,27.081h3.237v1.288H49.275Z" fill="#fff"/>
          </g>
          <g style="isolation: isolate">
            <path d="M17.334,40.338a.43.43,0,0,1-.131.141.351.351,0,0,1-.175.04.551.551,0,0,1-.241-.063c-.085-.041-.184-.088-.3-.14a2.777,2.777,0,0,0-.384-.141,1.87,1.87,0,0,0-.51-.063,1.185,1.185,0,0,0-.719.2.6.6,0,0,0-.262.506.479.479,0,0,0,.135.346,1.179,1.179,0,0,0,.356.247,3.268,3.268,0,0,0,.5.191q.28.086.575.184c.2.067.387.143.575.229a2.007,2.007,0,0,1,.5.324,1.5,1.5,0,0,1,.356.473,1.486,1.486,0,0,1,.134.662,2.132,2.132,0,0,1-.168.853A1.877,1.877,0,0,1,17.09,45a2.311,2.311,0,0,1-.8.444,3.472,3.472,0,0,1-1.1.159,3.539,3.539,0,0,1-.647-.059,3.862,3.862,0,0,1-.606-.166,3.282,3.282,0,0,1-.538-.25,2.668,2.668,0,0,1-.434-.312l.356-.588a.494.494,0,0,1,.163-.162.457.457,0,0,1,.237-.057.492.492,0,0,1,.272.082c.086.054.185.112.3.175a2.718,2.718,0,0,0,.4.175,1.752,1.752,0,0,0,.578.081,1.493,1.493,0,0,0,.472-.066.98.98,0,0,0,.325-.172.647.647,0,0,0,.188-.247.744.744,0,0,0,.059-.29.518.518,0,0,0-.135-.369,1.167,1.167,0,0,0-.356-.25,3.42,3.42,0,0,0-.506-.19c-.189-.057-.383-.118-.581-.185a5.2,5.2,0,0,1-.582-.234,1.99,1.99,0,0,1-.506-.341,1.535,1.535,0,0,1-.356-.506,1.758,1.758,0,0,1-.134-.725,1.853,1.853,0,0,1,.156-.75,1.752,1.752,0,0,1,.459-.622,2.277,2.277,0,0,1,.756-.425,3.16,3.16,0,0,1,1.047-.16,3.226,3.226,0,0,1,1.207.219,2.759,2.759,0,0,1,.906.575Z" fill="#fff"/>
            <path d="M23.809,40.444a.764.764,0,0,1-.135.137.31.31,0,0,1-.19.05.428.428,0,0,1-.232-.071c-.074-.048-.164-.1-.268-.163a2,2,0,0,0-.372-.162,1.7,1.7,0,0,0-.534-.073,1.63,1.63,0,0,0-.713.148,1.344,1.344,0,0,0-.51.422,1.893,1.893,0,0,0-.3.665,3.554,3.554,0,0,0-.1.884,3.469,3.469,0,0,0,.109.913,1.943,1.943,0,0,0,.315.671,1.368,1.368,0,0,0,.5.414,1.528,1.528,0,0,0,.663.14,1.629,1.629,0,0,0,.6-.091,1.853,1.853,0,0,0,.384-.2c.1-.072.2-.14.272-.2a.413.413,0,0,1,.26-.09.313.313,0,0,1,.281.144l.443.562a2.812,2.812,0,0,1-.556.5,2.975,2.975,0,0,1-.621.325,3.165,3.165,0,0,1-.666.172,4.774,4.774,0,0,1-.682.05,2.838,2.838,0,0,1-1.118-.222,2.611,2.611,0,0,1-.916-.647,3.1,3.1,0,0,1-.618-1.04,4,4,0,0,1-.229-1.4,4.091,4.091,0,0,1,.2-1.309,3,3,0,0,1,.6-1.044,2.76,2.76,0,0,1,.975-.691,3.372,3.372,0,0,1,1.338-.25,3.182,3.182,0,0,1,1.259.232,3.07,3.07,0,0,1,.972.662Z" fill="#fff"/>
            <path d="M25.578,45.5V36.213h1.543v3.568a3.31,3.31,0,0,1,.825-.575A2.4,2.4,0,0,1,29,38.987a2.3,2.3,0,0,1,.932.179,1.824,1.824,0,0,1,.678.5,2.184,2.184,0,0,1,.412.769,3.258,3.258,0,0,1,.141.984V45.5H29.621V41.419a1.365,1.365,0,0,0-.272-.909,1.006,1.006,0,0,0-.815-.322,1.6,1.6,0,0,0-.75.181,2.674,2.674,0,0,0-.663.493V45.5Z" fill="#fff"/>
            <path d="M38.021,45.5h-.693a.744.744,0,0,1-.344-.065.424.424,0,0,1-.188-.266l-.137-.456a5.154,5.154,0,0,1-.478.384,2.954,2.954,0,0,1-.485.278,2.476,2.476,0,0,1-.531.169,3.234,3.234,0,0,1-.625.056,2.428,2.428,0,0,1-.75-.11,1.6,1.6,0,0,1-.59-.329,1.489,1.489,0,0,1-.385-.546,1.943,1.943,0,0,1-.137-.758,1.5,1.5,0,0,1,.19-.718,1.811,1.811,0,0,1,.634-.64,4.075,4.075,0,0,1,1.182-.473,7.562,7.562,0,0,1,1.831-.188V41.46a1.437,1.437,0,0,0-.272-.961.991.991,0,0,0-.79-.311,1.892,1.892,0,0,0-.625.088,2.389,2.389,0,0,0-.435.2c-.122.073-.236.139-.34.2a.687.687,0,0,1-.344.087.44.44,0,0,1-.269-.081.63.63,0,0,1-.181-.2l-.281-.493a3.81,3.81,0,0,1,2.668-1.013,2.555,2.555,0,0,1,1,.185,2.126,2.126,0,0,1,.747.512,2.181,2.181,0,0,1,.466.784,3.022,3.022,0,0,1,.159,1Zm-3-.963a2,2,0,0,0,.438-.043,1.622,1.622,0,0,0,.378-.129,2.065,2.065,0,0,0,.344-.211,3.078,3.078,0,0,0,.334-.3V42.781a6.325,6.325,0,0,0-1.128.085,3,3,0,0,0-.728.217.952.952,0,0,0-.391.309.689.689,0,0,0-.115.384.68.68,0,0,0,.24.586A1.042,1.042,0,0,0,35.021,44.537Z" fill="#fff"/>
            <path d="M40.127,45.5V40.25l-.556-.088a.585.585,0,0,1-.291-.125.327.327,0,0,1-.109-.261v-.632h.956v-.475a2.776,2.776,0,0,1,.166-.987,2,2,0,0,1,1.228-1.213,2.9,2.9,0,0,1,1-.162,2.765,2.765,0,0,1,.825.118l-.031.775a.224.224,0,0,1-.169.225,1.354,1.354,0,0,1-.362.044,1.794,1.794,0,0,0-.491.06.819.819,0,0,0-.366.206.929.929,0,0,0-.228.387,1.96,1.96,0,0,0-.078.6v.425H43.29v1.1H41.671V45.5Z" fill="#fff"/>
            <path d="M46.652,45.6a1.685,1.685,0,0,1-1.281-.472,1.81,1.81,0,0,1-.45-1.3V40.244h-.65a.3.3,0,0,1-.306-.325v-.612L45,39.138l.325-1.75a.308.308,0,0,1,.116-.194.37.37,0,0,1,.228-.069h.8v2.019h1.687v1.1H46.465v3.475a.683.683,0,0,0,.15.469.51.51,0,0,0,.4.169.716.716,0,0,0,.24-.035,1.191,1.191,0,0,0,.169-.072c.048-.025.091-.049.128-.072a.215.215,0,0,1,.113-.034.174.174,0,0,1,.112.034.511.511,0,0,1,.094.1l.462.75a2.306,2.306,0,0,1-.774.425A2.884,2.884,0,0,1,46.652,45.6Z" fill="#fff"/>
            <path d="M52.346,38.987a3.1,3.1,0,0,1,1.116.2,2.444,2.444,0,0,1,.878.565,2.605,2.605,0,0,1,.575.912,3.465,3.465,0,0,1,.206,1.235,2.129,2.129,0,0,1-.016.291.45.45,0,0,1-.056.18.221.221,0,0,1-.109.094.446.446,0,0,1-.175.028H50.8a2.214,2.214,0,0,0,.531,1.451,1.66,1.66,0,0,0,1.226.463,2.135,2.135,0,0,0,.647-.088,3.116,3.116,0,0,0,.475-.194c.135-.071.254-.135.356-.194a.6.6,0,0,1,.3-.087.335.335,0,0,1,.163.037.367.367,0,0,1,.119.107l.45.562a2.6,2.6,0,0,1-.575.5,3.18,3.18,0,0,1-.666.325,3.636,3.636,0,0,1-.706.172,5.116,5.116,0,0,1-.7.05,3.427,3.427,0,0,1-1.244-.222,2.792,2.792,0,0,1-1-.656,3.08,3.08,0,0,1-.668-1.075,4.15,4.15,0,0,1-.244-1.485,3.521,3.521,0,0,1,.213-1.234,2.94,2.94,0,0,1,.609-1.006,2.855,2.855,0,0,1,.969-.679A3.2,3.2,0,0,1,52.346,38.987Zm.031,1.107a1.427,1.427,0,0,0-1.056.381,1.887,1.887,0,0,0-.488,1.082h2.9a1.91,1.91,0,0,0-.081-.567,1.285,1.285,0,0,0-.25-.464,1.177,1.177,0,0,0-.424-.317A1.471,1.471,0,0,0,52.377,40.094Z" fill="#fff"/>
            <path d="M56.69,45.5V39.088h.943a.38.38,0,0,1,.394.281l.106.506a3.565,3.565,0,0,1,.41-.362A2.825,2.825,0,0,1,59,39.232a2.372,2.372,0,0,1,.516-.182,2.742,2.742,0,0,1,.6-.063,2.294,2.294,0,0,1,.931.179,1.824,1.824,0,0,1,.678.5,2.2,2.2,0,0,1,.413.769,3.291,3.291,0,0,1,.14.984V45.5H60.733V41.419a1.365,1.365,0,0,0-.272-.909,1.006,1.006,0,0,0-.815-.322,1.6,1.6,0,0,0-.75.181,2.692,2.692,0,0,0-.663.493V45.5Z" fill="#fff"/>
          </g>
        </g>
      </g>
    </g>
  </g>
</svg>
