<svg xmlns="http://www.w3.org/2000/svg" viewBox="0 0 75 66">
  <title>B3_praktika</title>
  <g id="Ebene_2" data-name="Ebene 2">
    <g id="Ebene_1-2" data-name="Ebene 1">
      <g>
        <path id="Rechteck_57-3" data-name="Rechteck 57-3" d="M15,0H60A14.926,14.926,0,0,1,75,14.85v36.3A14.926,14.926,0,0,1,60,66H15A14.926,14.926,0,0,1,0,51.15V14.85A14.926,14.926,0,0,1,15,0Z" fill="#48679a"/>
        <g id="Praktika" style="isolation: isolate">
          <g style="isolation: isolate">
            <path d="M14.454,35.192V38.5H12.705V29.1h3.062a5.366,5.366,0,0,1,1.631.221,3.146,3.146,0,0,1,1.138.618,2.418,2.418,0,0,1,.663.949,3.542,3.542,0,0,1-.013,2.46,2.6,2.6,0,0,1-.682.978,3.174,3.174,0,0,1-1.138.637,5.055,5.055,0,0,1-1.6.228Zm0-1.366h1.313a2.633,2.633,0,0,0,.838-.12,1.545,1.545,0,0,0,.592-.344,1.42,1.42,0,0,0,.351-.546,2.088,2.088,0,0,0,.117-.718,1.9,1.9,0,0,0-.117-.683,1.347,1.347,0,0,0-.351-.52,1.56,1.56,0,0,0-.592-.328,2.762,2.762,0,0,0-.838-.114H14.454Z" fill="#fff"/>
            <path d="M21.006,38.5V31.831h.942a.508.508,0,0,1,.345.091.528.528,0,0,1,.13.313l.1.8a3.146,3.146,0,0,1,.838-.974,1.762,1.762,0,0,1,1.079-.359,1.392,1.392,0,0,1,.819.228l-.208,1.2a.251.251,0,0,1-.084.166.291.291,0,0,1-.176.048,1.127,1.127,0,0,1-.267-.045,1.784,1.784,0,0,0-.448-.046,1.367,1.367,0,0,0-.858.276,2.139,2.139,0,0,0-.605.81V38.5Z" fill="#fff"/>
            <path d="M31.679,38.5h-.722a.771.771,0,0,1-.357-.068.44.44,0,0,1-.2-.277l-.143-.474a5.551,5.551,0,0,1-.5.4,2.962,2.962,0,0,1-.5.289,2.569,2.569,0,0,1-.553.176,3.31,3.31,0,0,1-.649.058,2.559,2.559,0,0,1-.781-.114,1.681,1.681,0,0,1-.614-.342,1.541,1.541,0,0,1-.4-.568,2,2,0,0,1-.144-.789,1.576,1.576,0,0,1,.2-.747,1.889,1.889,0,0,1,.66-.665,4.25,4.25,0,0,1,1.229-.492,7.818,7.818,0,0,1,1.9-.2V34.3a1.491,1.491,0,0,0-.282-1,1.032,1.032,0,0,0-.822-.324,1.953,1.953,0,0,0-.651.092,2.579,2.579,0,0,0-.452.2c-.127.076-.245.144-.353.2a.73.73,0,0,1-.358.091.476.476,0,0,1-.28-.084.679.679,0,0,1-.188-.208l-.292-.514a3.964,3.964,0,0,1,2.775-1.054,2.679,2.679,0,0,1,1.043.193,2.216,2.216,0,0,1,.777.533,2.3,2.3,0,0,1,.485.815,3.151,3.151,0,0,1,.165,1.04Zm-3.12-1a2.089,2.089,0,0,0,.455-.045,1.733,1.733,0,0,0,.393-.133,2.291,2.291,0,0,0,.358-.221,3.327,3.327,0,0,0,.347-.311V35.673a6.517,6.517,0,0,0-1.173.088,3.138,3.138,0,0,0-.757.226.971.971,0,0,0-.407.321.807.807,0,0,0,.13,1.008A1.082,1.082,0,0,0,28.559,37.5Z" fill="#fff"/>
            <path d="M35.208,28.841v5.531h.3a.57.57,0,0,0,.253-.045.662.662,0,0,0,.2-.169l1.657-2.047a.991.991,0,0,1,.235-.206.637.637,0,0,1,.324-.074h1.47l-2.075,2.477a2.765,2.765,0,0,1-.226.25,1.459,1.459,0,0,1-.254.2,1.18,1.18,0,0,1,.24.228c.069.087.139.179.208.279L39.759,38.5h-1.45a.7.7,0,0,1-.319-.065.609.609,0,0,1-.234-.221l-1.7-2.528a.524.524,0,0,0-.2-.2.735.735,0,0,0-.293-.044h-.364V38.5H33.6V28.841Z" fill="#fff"/>
            <path d="M43.269,38.6a1.751,1.751,0,0,1-1.333-.491,1.883,1.883,0,0,1-.468-1.355V33.033h-.676a.329.329,0,0,1-.225-.084.323.323,0,0,1-.093-.253v-.637l1.072-.176.338-1.819a.318.318,0,0,1,.12-.2.38.38,0,0,1,.237-.072h.832v2.1h1.755v1.143H43.073v3.615a.707.707,0,0,0,.156.487.531.531,0,0,0,.417.176.755.755,0,0,0,.25-.036,1.413,1.413,0,0,0,.175-.075c.05-.026.094-.05.133-.075a.229.229,0,0,1,.117-.035.187.187,0,0,1,.117.035.564.564,0,0,1,.1.108l.481.78a2.428,2.428,0,0,1-.806.441A2.991,2.991,0,0,1,43.269,38.6Z" fill="#fff"/>
            <path d="M48.384,29.888a.936.936,0,0,1-.084.39,1.091,1.091,0,0,1-.225.318,1.062,1.062,0,0,1-.328.218,1.011,1.011,0,0,1-.4.081.975.975,0,0,1-.394-.081,1.042,1.042,0,0,1-.321-.218,1.052,1.052,0,0,1-.218-.318.949.949,0,0,1-.081-.39,1.008,1.008,0,0,1,.081-.4,1.042,1.042,0,0,1,.218-.326,1.057,1.057,0,0,1,.321-.217.975.975,0,0,1,.394-.081,1.011,1.011,0,0,1,.4.081,1.039,1.039,0,0,1,.553.543A.993.993,0,0,1,48.384,29.888Zm-.24,1.943V38.5H46.538V31.831Z" fill="#fff"/>
            <path d="M51.906,28.841v5.531h.3a.57.57,0,0,0,.253-.045.649.649,0,0,0,.2-.169l1.658-2.047a.968.968,0,0,1,.234-.206.637.637,0,0,1,.324-.074h1.47l-2.074,2.477a2.93,2.93,0,0,1-.227.25,1.459,1.459,0,0,1-.254.2,1.18,1.18,0,0,1,.24.228c.07.087.139.179.208.279L56.457,38.5h-1.45a.7.7,0,0,1-.319-.065.616.616,0,0,1-.234-.221l-1.7-2.528a.524.524,0,0,0-.2-.2.733.733,0,0,0-.292-.044h-.365V38.5H50.3V28.841Z" fill="#fff"/>
            <path d="M63,38.5H62.28a.771.771,0,0,1-.357-.068.435.435,0,0,1-.194-.277l-.144-.474a5.551,5.551,0,0,1-.5.4,2.962,2.962,0,0,1-.5.289,2.551,2.551,0,0,1-.553.176,3.31,3.31,0,0,1-.649.058,2.552,2.552,0,0,1-.78-.114,1.677,1.677,0,0,1-.615-.342,1.553,1.553,0,0,1-.4-.568,2,2,0,0,1-.144-.789,1.566,1.566,0,0,1,.2-.747,1.872,1.872,0,0,1,.66-.665,4.243,4.243,0,0,1,1.228-.492,7.827,7.827,0,0,1,1.905-.2V34.3a1.491,1.491,0,0,0-.283-1,1.032,1.032,0,0,0-.822-.324,1.947,1.947,0,0,0-.65.092,2.514,2.514,0,0,0-.452.2c-.127.076-.246.144-.354.2a.726.726,0,0,1-.357.091.477.477,0,0,1-.281-.084.692.692,0,0,1-.188-.208l-.292-.514a3.964,3.964,0,0,1,2.775-1.054,2.675,2.675,0,0,1,1.043.193,2.22,2.22,0,0,1,.778.533,2.3,2.3,0,0,1,.484.815A3.151,3.151,0,0,1,63,34.288Zm-3.12-1a2.089,2.089,0,0,0,.455-.045,1.717,1.717,0,0,0,.393-.133,2.2,2.2,0,0,0,.358-.221,3.438,3.438,0,0,0,.348-.311V35.673a6.5,6.5,0,0,0-1.173.088,3.134,3.134,0,0,0-.758.226.967.967,0,0,0-.406.321.807.807,0,0,0,.13,1.008A1.079,1.079,0,0,0,59.882,37.5Z" fill="#fff"/>
          </g>
        </g>
      </g>
    </g>
  </g>
</svg>
