<svg xmlns="http://www.w3.org/2000/svg" viewBox="0 0 75 66">
  <title>B4_kcl</title>
  <g id="Ebene_2" data-name="Ebene 2">
    <g id="Ebene_1-2" data-name="Ebene 1">
      <g>
        <path id="Rechteck_57-6" data-name="Rechteck 57-6" d="M15,0H60A14.926,14.926,0,0,1,75,14.85v36.3A14.926,14.926,0,0,1,60,66H15A14.926,14.926,0,0,1,0,51.15V14.85A14.926,14.926,0,0,1,15,0Z" fill="#48679a"/>
        <g id="KCL" style="isolation: isolate">
          <g style="isolation: isolate">
            <path d="M25.249,33.52h.6a1.543,1.543,0,0,0,.6-.1,1,1,0,0,0,.408-.318l3.791-4.8a1.371,1.371,0,0,1,.5-.423,1.6,1.6,0,0,1,.66-.119h2.2l-4.626,5.71a4.212,4.212,0,0,1-.418.446,1.924,1.924,0,0,1-.428.3,1.9,1.9,0,0,1,.566.322,3.084,3.084,0,0,1,.489.533L34.36,41.5H32.1a1.413,1.413,0,0,1-.68-.128A1.079,1.079,0,0,1,31.044,41l-3.885-5.072a1.138,1.138,0,0,0-.428-.356,1.636,1.636,0,0,0-.674-.11h-.808V41.5H22.694V27.754h2.555Z" fill="#fff"/>
            <path d="M45.028,38.261a.481.481,0,0,1,.361.161L46.4,39.515A5.526,5.526,0,0,1,44.339,41.1a7.073,7.073,0,0,1-2.93.552,6.926,6.926,0,0,1-2.75-.523,6.066,6.066,0,0,1-2.086-1.454,6.353,6.353,0,0,1-1.325-2.223,8.343,8.343,0,0,1-.461-2.821A7.6,7.6,0,0,1,35.3,31.8a6.4,6.4,0,0,1,3.672-3.667,7.639,7.639,0,0,1,2.864-.517,6.763,6.763,0,0,1,2.674.489,6.243,6.243,0,0,1,1.962,1.3l-.855,1.187a.8.8,0,0,1-.2.2.55.55,0,0,1-.327.085.741.741,0,0,1-.447-.171,5.726,5.726,0,0,0-.579-.37,4.83,4.83,0,0,0-.888-.371,5.126,5.126,0,0,0-3.145.167,3.959,3.959,0,0,0-1.4.964,4.432,4.432,0,0,0-.912,1.524,5.851,5.851,0,0,0-.328,2.02,6.012,6.012,0,0,0,.328,2.062,4.513,4.513,0,0,0,.888,1.519,3.78,3.78,0,0,0,1.32.945,4.074,4.074,0,0,0,1.634.329,7.135,7.135,0,0,0,.946-.058,3.96,3.96,0,0,0,.778-.181,3.412,3.412,0,0,0,.675-.317,4.18,4.18,0,0,0,.632-.481.919.919,0,0,1,.2-.137A.516.516,0,0,1,45.028,38.261Z" fill="#fff"/>
            <path d="M50.88,39.391h5.5V41.5H48.325V27.763H50.88Z" fill="#fff"/>
          </g>
        </g>
      </g>
    </g>
  </g>
</svg>
