<svg xmlns="http://www.w3.org/2000/svg" viewBox="0 0 75 66">
  <title>B5_beratung_hover</title>
  <g id="Ebene_2" data-name="Ebene 2">
    <g id="Ebene_1-2" data-name="Ebene 1">
      <g>
        <path id="Rechteck_57-5" data-name="Rechteck 57-5" d="M15,0H60A14.926,14.926,0,0,1,75,14.85v36.3A14.926,14.926,0,0,1,60,66H15A14.926,14.926,0,0,1,0,51.15V14.85A14.926,14.926,0,0,1,15,0Z" fill="#36578a"/>
        <g id="Beratung" style="isolation: isolate">
          <g style="isolation: isolate">
            <path d="M11.141,37.5V28.1h3.243a6.091,6.091,0,0,1,1.576.176,3,3,0,0,1,1.073.5,1.921,1.921,0,0,1,.614.786,2.645,2.645,0,0,1,.2,1.04,2.049,2.049,0,0,1-.1.633,1.846,1.846,0,0,1-.3.566,2.242,2.242,0,0,1-.52.477,3.143,3.143,0,0,1-.751.365q1.936.435,1.937,2.092a2.663,2.663,0,0,1-.228,1.106,2.434,2.434,0,0,1-.663.874,3.154,3.154,0,0,1-1.072.575,4.678,4.678,0,0,1-1.456.208Zm1.748-5.33h1.4a2.341,2.341,0,0,0,1.352-.325,1.178,1.178,0,0,0,.462-1.033,1.229,1.229,0,0,0-.416-1.047,2.179,2.179,0,0,0-1.3-.312h-1.5Zm0,1.209v2.756h1.775a2.445,2.445,0,0,0,.815-.117,1.4,1.4,0,0,0,.527-.312,1.135,1.135,0,0,0,.286-.455,1.7,1.7,0,0,0,.088-.553,1.462,1.462,0,0,0-.1-.548,1.017,1.017,0,0,0-.3-.416,1.4,1.4,0,0,0-.533-.264,2.94,2.94,0,0,0-.787-.091Z" fill="#fff"/>
            <path d="M22.6,30.727a3.229,3.229,0,0,1,1.161.2,2.537,2.537,0,0,1,.913.588,2.683,2.683,0,0,1,.6.949,3.584,3.584,0,0,1,.214,1.283,2.3,2.3,0,0,1-.016.3.485.485,0,0,1-.058.188.235.235,0,0,1-.114.1.479.479,0,0,1-.182.029H21a2.294,2.294,0,0,0,.552,1.508,1.721,1.721,0,0,0,1.274.482,2.189,2.189,0,0,0,.673-.092,3.143,3.143,0,0,0,.494-.2c.141-.074.264-.141.37-.2a.629.629,0,0,1,.309-.09.346.346,0,0,1,.169.038.373.373,0,0,1,.124.111l.468.585a2.686,2.686,0,0,1-.6.523,3.381,3.381,0,0,1-.692.338,3.863,3.863,0,0,1-.735.179,5.367,5.367,0,0,1-.725.052,3.556,3.556,0,0,1-1.293-.231,2.9,2.9,0,0,1-1.04-.682,3.207,3.207,0,0,1-.7-1.118,4.331,4.331,0,0,1-.253-1.544,3.688,3.688,0,0,1,.221-1.285,3.092,3.092,0,0,1,.633-1.045,2.994,2.994,0,0,1,1.008-.706A3.326,3.326,0,0,1,22.6,30.727Zm.033,1.151a1.484,1.484,0,0,0-1.1.4,1.952,1.952,0,0,0-.507,1.124h3.016a2,2,0,0,0-.084-.588,1.366,1.366,0,0,0-.26-.485A1.233,1.233,0,0,0,23.257,32,1.51,1.51,0,0,0,22.633,31.878Z" fill="#fff"/>
            <path d="M27.118,37.5V30.831h.942a.51.51,0,0,1,.345.091.528.528,0,0,1,.13.313l.1.8a3.162,3.162,0,0,1,.839-.974,1.762,1.762,0,0,1,1.079-.359,1.394,1.394,0,0,1,.819.228l-.208,1.2a.248.248,0,0,1-.085.166.286.286,0,0,1-.175.048,1.112,1.112,0,0,1-.267-.045,1.8,1.8,0,0,0-.448-.046,1.367,1.367,0,0,0-.858.276,2.129,2.129,0,0,0-.605.81V37.5Z" fill="#fff"/>
            <path d="M37.791,37.5h-.722a.773.773,0,0,1-.358-.068.439.439,0,0,1-.194-.277l-.143-.474a5.42,5.42,0,0,1-.5.4,2.993,2.993,0,0,1-.5.289,2.587,2.587,0,0,1-.553.176,3.328,3.328,0,0,1-.65.058,2.552,2.552,0,0,1-.78-.114,1.681,1.681,0,0,1-.614-.342,1.543,1.543,0,0,1-.4-.568,2.02,2.02,0,0,1-.143-.789,1.565,1.565,0,0,1,.2-.747,1.872,1.872,0,0,1,.66-.665,4.243,4.243,0,0,1,1.228-.492,7.832,7.832,0,0,1,1.9-.2V33.3a1.491,1.491,0,0,0-.283-1,1.031,1.031,0,0,0-.822-.324,1.951,1.951,0,0,0-.65.092,2.546,2.546,0,0,0-.452.2c-.127.076-.246.144-.354.2a.723.723,0,0,1-.357.091.474.474,0,0,1-.28-.084.682.682,0,0,1-.189-.208l-.292-.514a3.966,3.966,0,0,1,2.775-1.054,2.684,2.684,0,0,1,1.044.193,2.225,2.225,0,0,1,.777.533,2.288,2.288,0,0,1,.484.815,3.15,3.15,0,0,1,.166,1.04Zm-3.121-1a2.083,2.083,0,0,0,.455-.045,1.725,1.725,0,0,0,.394-.133,2.237,2.237,0,0,0,.357-.221,3.333,3.333,0,0,0,.348-.311V34.673a6.51,6.51,0,0,0-1.173.088,3.134,3.134,0,0,0-.758.226.973.973,0,0,0-.406.321.807.807,0,0,0,.13,1.008A1.081,1.081,0,0,0,34.67,36.5Z" fill="#fff"/>
            <path d="M41.885,37.6a1.75,1.75,0,0,1-1.332-.491,1.883,1.883,0,0,1-.468-1.355V32.033h-.676a.325.325,0,0,1-.224-.084.321.321,0,0,1-.095-.253v-.637l1.073-.176.338-1.819a.318.318,0,0,1,.12-.2.38.38,0,0,1,.237-.072h.832v2.1h1.755v1.143H41.69v3.615a.707.707,0,0,0,.156.487.53.53,0,0,0,.416.176.757.757,0,0,0,.251-.036,1.413,1.413,0,0,0,.175-.075c.05-.026.094-.05.133-.075a.229.229,0,0,1,.117-.035.187.187,0,0,1,.117.035.6.6,0,0,1,.1.108l.481.78a2.438,2.438,0,0,1-.806.441A3,3,0,0,1,41.885,37.6Z" fill="#fff"/>
            <path d="M46.52,30.831V35.07a1.42,1.42,0,0,0,.283.945,1.047,1.047,0,0,0,.848.335,1.692,1.692,0,0,0,.78-.186,2.723,2.723,0,0,0,.689-.51V30.831h1.606V37.5h-.982a.394.394,0,0,1-.41-.293l-.11-.532a4.562,4.562,0,0,1-.429.38,2.622,2.622,0,0,1-.471.293,2.687,2.687,0,0,1-.54.188,2.727,2.727,0,0,1-.62.068,2.378,2.378,0,0,1-.966-.185,1.94,1.94,0,0,1-.7-.523,2.283,2.283,0,0,1-.432-.8,3.381,3.381,0,0,1-.146-1.023V30.831Z" fill="#fff"/>
            <path d="M52.766,37.5V30.831h.982a.4.4,0,0,1,.409.292l.111.528a3.573,3.573,0,0,1,.425-.377,2.878,2.878,0,0,1,.475-.293,2.431,2.431,0,0,1,.536-.189,2.839,2.839,0,0,1,.624-.065,2.4,2.4,0,0,1,.969.185,1.921,1.921,0,0,1,.705.521,2.288,2.288,0,0,1,.429.8,3.415,3.415,0,0,1,.146,1.024V37.5h-1.6V33.256a1.428,1.428,0,0,0-.283-.946,1.049,1.049,0,0,0-.848-.335,1.676,1.676,0,0,0-.78.188,2.779,2.779,0,0,0-.689.514V37.5Z" fill="#fff"/>
            <path d="M62.79,30.714a3.524,3.524,0,0,1,.806.088,2.758,2.758,0,0,1,.689.257H66.2v.6a.335.335,0,0,1-.078.235.462.462,0,0,1-.267.117l-.6.11a2.12,2.12,0,0,1,.136.754,1.99,1.99,0,0,1-.2.894,2.038,2.038,0,0,1-.546.68,2.522,2.522,0,0,1-.826.431,3.348,3.348,0,0,1-1.036.153,3.785,3.785,0,0,1-.735-.071.525.525,0,0,0-.312.425.314.314,0,0,0,.185.3,1.536,1.536,0,0,0,.488.135,5.4,5.4,0,0,0,.686.039c.255,0,.517.01.786.032a6.249,6.249,0,0,1,.786.114,2.326,2.326,0,0,1,.686.258,1.373,1.373,0,0,1,.488.479,1.484,1.484,0,0,1,.185.78,1.837,1.837,0,0,1-.218.86,2.32,2.32,0,0,1-.63.744,3.3,3.3,0,0,1-1.011.525,4.338,4.338,0,0,1-1.365.2A5.222,5.222,0,0,1,61.49,39.7a3.083,3.083,0,0,1-.927-.389,1.7,1.7,0,0,1-.549-.563,1.323,1.323,0,0,1-.182-.663,1.132,1.132,0,0,1,.286-.786,1.96,1.96,0,0,1,.793-.508,1.1,1.1,0,0,1-.4-.363,1.058,1.058,0,0,1-.15-.592.981.981,0,0,1,.052-.308,1.267,1.267,0,0,1,.159-.316,1.642,1.642,0,0,1,.27-.3,1.837,1.837,0,0,1,.383-.25,2.112,2.112,0,0,1-.8-.727,1.948,1.948,0,0,1-.289-1.067,1.982,1.982,0,0,1,.2-.893A2.018,2.018,0,0,1,60.9,31.3a2.541,2.541,0,0,1,.838-.433A3.591,3.591,0,0,1,62.79,30.714Zm1.761,7.066a.46.46,0,0,0-.117-.325.773.773,0,0,0-.318-.2,2.423,2.423,0,0,0-.472-.1,4.711,4.711,0,0,0-.572-.033h-.624a2.637,2.637,0,0,1-.62-.071,1.484,1.484,0,0,0-.439.353.727.727,0,0,0-.166.472.64.64,0,0,0,.088.328.729.729,0,0,0,.279.264,1.681,1.681,0,0,0,.5.172,3.877,3.877,0,0,0,.748.061,3.694,3.694,0,0,0,.773-.069,1.851,1.851,0,0,0,.537-.192.825.825,0,0,0,.309-.292A.729.729,0,0,0,64.551,37.78ZM62.79,34a1.514,1.514,0,0,0,.52-.081,1.03,1.03,0,0,0,.367-.225.922.922,0,0,0,.221-.344,1.258,1.258,0,0,0,.075-.442,1.046,1.046,0,0,0-.3-.783,1.507,1.507,0,0,0-1.775,0,1.046,1.046,0,0,0-.3.783,1.24,1.24,0,0,0,.075.436.972.972,0,0,0,.221.348,1.012,1.012,0,0,0,.371.227A1.517,1.517,0,0,0,62.79,34Z" fill="#fff"/>
          </g>
        </g>
      </g>
    </g>
  </g>
</svg>
