<svg xmlns="http://www.w3.org/2000/svg" viewBox="0 0 75 66">
  <title>B6_po_hover</title>
  <g id="Ebene_2" data-name="Ebene 2">
    <g id="Ebene_1-2" data-name="Ebene 1">
      <g>
        <path id="Rechteck_57-8" data-name="Rechteck 57-8" d="M15,0H60A14.926,14.926,0,0,1,75,14.85v36.3A14.926,14.926,0,0,1,60,66H15A14.926,14.926,0,0,1,0,51.15V14.85A14.926,14.926,0,0,1,15,0Z" fill="#36578a"/>
        <g id="Prüfungs-_ordnung" data-name="Prüfungs- ordnung" style="isolation: isolate">
          <g style="isolation: isolate">
            <path d="M13.955,29.446V32.5H12.341V23.824h2.826a4.919,4.919,0,0,1,1.506.2,2.9,2.9,0,0,1,1.05.569,2.232,2.232,0,0,1,.612.876,3.263,3.263,0,0,1-.012,2.271,2.4,2.4,0,0,1-.63.9,2.947,2.947,0,0,1-1.05.588,4.706,4.706,0,0,1-1.476.209Zm0-1.26h1.212a2.4,2.4,0,0,0,.774-.111,1.438,1.438,0,0,0,.546-.318,1.3,1.3,0,0,0,.324-.5,1.929,1.929,0,0,0,.108-.663,1.757,1.757,0,0,0-.108-.63,1.242,1.242,0,0,0-.324-.479,1.429,1.429,0,0,0-.546-.3,2.592,2.592,0,0,0-.774-.105H13.955Z" fill="#fff"/>
            <path d="M20,32.5V26.344h.87a.466.466,0,0,1,.318.084.486.486,0,0,1,.12.288l.09.744a2.925,2.925,0,0,1,.774-.9,1.628,1.628,0,0,1,1-.329,1.28,1.28,0,0,1,.756.21l-.192,1.109a.229.229,0,0,1-.078.153.258.258,0,0,1-.162.045.964.964,0,0,1-.246-.042,1.646,1.646,0,0,0-.414-.042,1.257,1.257,0,0,0-.792.255,1.963,1.963,0,0,0-.558.747V32.5Z" fill="#fff"/>
            <path d="M26.561,26.344v3.912a1.315,1.315,0,0,0,.261.873.968.968,0,0,0,.783.31,1.566,1.566,0,0,0,.72-.172,2.493,2.493,0,0,0,.636-.471V26.344h1.482V32.5h-.906a.364.364,0,0,1-.378-.269l-.1-.493a4.149,4.149,0,0,1-.4.351,2.394,2.394,0,0,1-.435.271,2.46,2.46,0,0,1-1.071.236,2.186,2.186,0,0,1-.891-.171,1.782,1.782,0,0,1-.651-.482,2.119,2.119,0,0,1-.4-.742,3.136,3.136,0,0,1-.135-.945V26.344Zm.954-1.6a.765.765,0,0,1-.066.316.8.8,0,0,1-.183.255.916.916,0,0,1-.27.17.835.835,0,0,1-.321.063.776.776,0,0,1-.309-.063.9.9,0,0,1-.261-.17.82.82,0,0,1-.18-.255.765.765,0,0,1-.066-.316.82.82,0,0,1,.066-.327.86.86,0,0,1,.441-.447.746.746,0,0,1,.309-.066.8.8,0,0,1,.321.066.886.886,0,0,1,.27.18.847.847,0,0,1,.183.267A.82.82,0,0,1,27.515,24.748Zm2.244,0a.765.765,0,0,1-.066.316.82.82,0,0,1-.18.255.876.876,0,0,1-.267.17.835.835,0,0,1-.321.063.813.813,0,0,1-.318-.063.809.809,0,0,1-.438-.425.765.765,0,0,1-.066-.316.82.82,0,0,1,.066-.327.9.9,0,0,1,.177-.267.823.823,0,0,1,.261-.18.781.781,0,0,1,.318-.066.8.8,0,0,1,.321.066.849.849,0,0,1,.267.18.873.873,0,0,1,.18.267A.82.82,0,0,1,29.759,24.748Z" fill="#fff"/>
            <path d="M32.591,32.5V27.46l-.534-.084a.55.55,0,0,1-.279-.12A.314.314,0,0,1,31.673,27V26.4h.918v-.456a2.668,2.668,0,0,1,.159-.949,1.922,1.922,0,0,1,1.179-1.164,2.778,2.778,0,0,1,.96-.156,2.651,2.651,0,0,1,.792.114l-.03.744a.215.215,0,0,1-.162.216,1.257,1.257,0,0,1-.348.042,1.777,1.777,0,0,0-.471.057.793.793,0,0,0-.351.2.9.9,0,0,0-.219.372,1.878,1.878,0,0,0-.075.573V26.4h1.6v1.055H34.073V32.5Z" fill="#fff"/>
            <path d="M38.189,26.344v3.912a1.315,1.315,0,0,0,.261.873.968.968,0,0,0,.783.31,1.566,1.566,0,0,0,.72-.172,2.493,2.493,0,0,0,.636-.471V26.344h1.482V32.5h-.906a.364.364,0,0,1-.378-.269l-.1-.493a4.149,4.149,0,0,1-.4.351,2.394,2.394,0,0,1-.435.271,2.46,2.46,0,0,1-1.071.236,2.186,2.186,0,0,1-.891-.171,1.782,1.782,0,0,1-.651-.482,2.119,2.119,0,0,1-.4-.742,3.136,3.136,0,0,1-.135-.945V26.344Z" fill="#fff"/>
            <path d="M43.955,32.5V26.344h.906a.364.364,0,0,1,.378.27l.1.486a3.471,3.471,0,0,1,.393-.348,2.738,2.738,0,0,1,.438-.269,2.184,2.184,0,0,1,.5-.175,2.6,2.6,0,0,1,.576-.06,2.207,2.207,0,0,1,.894.171,1.769,1.769,0,0,1,.651.481,2.105,2.105,0,0,1,.4.737,3.136,3.136,0,0,1,.135.945V32.5H47.837V28.582a1.315,1.315,0,0,0-.261-.873.967.967,0,0,0-.783-.308,1.542,1.542,0,0,0-.72.173,2.606,2.606,0,0,0-.636.474V32.5Z" fill="#fff"/>
            <path d="M53.207,26.237a3.22,3.22,0,0,1,.744.081,2.474,2.474,0,0,1,.635.236h1.77v.553a.3.3,0,0,1-.071.215.428.428,0,0,1-.246.108l-.552.1a2,2,0,0,1,.093.33,1.969,1.969,0,0,1,.033.366,1.814,1.814,0,0,1-.687,1.452,2.331,2.331,0,0,1-.762.4,3.127,3.127,0,0,1-.957.141,3.449,3.449,0,0,1-.678-.066.485.485,0,0,0-.288.393.289.289,0,0,0,.171.275,1.4,1.4,0,0,0,.45.124,4.975,4.975,0,0,0,.633.037c.235,0,.478.009.726.029a5.93,5.93,0,0,1,.726.105,2.133,2.133,0,0,1,.633.239,1.27,1.27,0,0,1,.45.442,1.362,1.362,0,0,1,.171.719,1.7,1.7,0,0,1-.2.795,2.125,2.125,0,0,1-.583.686,3.025,3.025,0,0,1-.932.485,4,4,0,0,1-1.26.183,4.851,4.851,0,0,1-1.218-.135,2.807,2.807,0,0,1-.855-.36,1.559,1.559,0,0,1-.507-.518,1.223,1.223,0,0,1-.168-.613,1.038,1.038,0,0,1,.264-.725,1.8,1.8,0,0,1,.732-.469,1.023,1.023,0,0,1-.367-.336.984.984,0,0,1-.137-.546.892.892,0,0,1,.048-.285,1.155,1.155,0,0,1,.147-.291,1.4,1.4,0,0,1,.249-.273,1.718,1.718,0,0,1,.354-.231,1.935,1.935,0,0,1-.735-.672,1.792,1.792,0,0,1-.267-.984,1.807,1.807,0,0,1,.693-1.454,2.314,2.314,0,0,1,.773-.4A3.3,3.3,0,0,1,53.207,26.237Zm1.626,6.522a.426.426,0,0,0-.108-.3.714.714,0,0,0-.294-.18A2.1,2.1,0,0,0,54,32.183a4.219,4.219,0,0,0-.528-.03h-.576a2.449,2.449,0,0,1-.573-.067,1.34,1.34,0,0,0-.405.327.672.672,0,0,0-.153.435.6.6,0,0,0,.081.3.674.674,0,0,0,.258.242,1.533,1.533,0,0,0,.459.159,3.541,3.541,0,0,0,.69.058,3.437,3.437,0,0,0,.714-.065,1.685,1.685,0,0,0,.495-.178.774.774,0,0,0,.285-.269A.673.673,0,0,0,54.833,32.759Zm-1.626-3.486a1.389,1.389,0,0,0,.48-.076.928.928,0,0,0,.339-.207.831.831,0,0,0,.2-.318,1.165,1.165,0,0,0,.07-.408.965.965,0,0,0-.273-.723,1.394,1.394,0,0,0-1.638,0,.965.965,0,0,0-.273.723,1.147,1.147,0,0,0,.069.4.86.86,0,0,0,.2.321.908.908,0,0,0,.341.21A1.406,1.406,0,0,0,53.207,29.273Z" fill="#fff"/>
            <path d="M61.241,27.544a.378.378,0,0,1-.126.135.326.326,0,0,1-.168.039.529.529,0,0,1-.231-.06c-.082-.04-.177-.085-.285-.134a2.489,2.489,0,0,0-.369-.136,1.767,1.767,0,0,0-.489-.06,1.139,1.139,0,0,0-.69.186.577.577,0,0,0-.252.486.464.464,0,0,0,.129.333,1.181,1.181,0,0,0,.342.238,3.472,3.472,0,0,0,.483.182q.27.081.552.177c.188.064.372.138.552.22a1.921,1.921,0,0,1,.483.311,1.374,1.374,0,0,1,.471,1.089,2.043,2.043,0,0,1-.162.819,1.8,1.8,0,0,1-.474.648,2.239,2.239,0,0,1-.771.427,3.6,3.6,0,0,1-1.674.095,3.665,3.665,0,0,1-.582-.159,3.056,3.056,0,0,1-.516-.24,2.5,2.5,0,0,1-.417-.3l.342-.563a.477.477,0,0,1,.156-.157.437.437,0,0,1,.228-.053.478.478,0,0,1,.261.077q.123.078.285.168a2.651,2.651,0,0,0,.381.169,1.706,1.706,0,0,0,.555.077,1.44,1.44,0,0,0,.453-.063.94.94,0,0,0,.312-.165.619.619,0,0,0,.18-.237.709.709,0,0,0,.057-.278.5.5,0,0,0-.129-.355,1.129,1.129,0,0,0-.342-.24,3.42,3.42,0,0,0-.486-.183c-.182-.053-.368-.113-.558-.176a5.382,5.382,0,0,1-.558-.226,1.876,1.876,0,0,1-.486-.327,1.48,1.48,0,0,1-.342-.486,1.693,1.693,0,0,1-.129-.7,1.773,1.773,0,0,1,.15-.72,1.7,1.7,0,0,1,.441-.6,2.171,2.171,0,0,1,.726-.407,3,3,0,0,1,1.005-.154,3.1,3.1,0,0,1,1.158.21,2.615,2.615,0,0,1,.87.552Z" fill="#fff"/>
            <path d="M62.939,28.258h3.108v1.236H62.939Z" fill="#fff"/>
          </g>
          <g style="isolation: isolate">
            <path d="M14.747,38.326a3.141,3.141,0,0,1,1.2.222,2.537,2.537,0,0,1,.912.63,2.789,2.789,0,0,1,.576.987,4.269,4.269,0,0,1,0,2.589,2.793,2.793,0,0,1-.576.984,2.5,2.5,0,0,1-.912.627,3.414,3.414,0,0,1-2.406,0,2.533,2.533,0,0,1-.915-.627,2.805,2.805,0,0,1-.582-.984,4.209,4.209,0,0,1,0-2.589,2.8,2.8,0,0,1,.582-.987,2.566,2.566,0,0,1,.915-.63A3.141,3.141,0,0,1,14.747,38.326Zm0,5.424a1.562,1.562,0,0,0,1.344-.6,3.429,3.429,0,0,0,0-3.375,1.555,1.555,0,0,0-1.344-.607,1.865,1.865,0,0,0-.792.156,1.475,1.475,0,0,0-.561.451,1.986,1.986,0,0,0-.336.722,3.876,3.876,0,0,0-.111.969,3.834,3.834,0,0,0,.111.966,1.982,1.982,0,0,0,.336.718,1.5,1.5,0,0,0,.561.446A1.865,1.865,0,0,0,14.747,43.75Z" fill="#fff"/>
            <path d="M19.919,44.5V38.422h.612a.343.343,0,0,1,.24.066.408.408,0,0,1,.09.228l.072.948a2.78,2.78,0,0,1,.771-.993,1.828,1.828,0,0,1,1.533-.3,1.59,1.59,0,0,1,.378.159l-.138.8a.18.18,0,0,1-.186.15.933.933,0,0,1-.258-.057,1.627,1.627,0,0,0-.486-.057,1.372,1.372,0,0,0-.933.325,2.42,2.42,0,0,0-.627.941V44.5Z" fill="#fff"/>
            <path d="M29.993,44.5a.271.271,0,0,1-.287-.221l-.1-.739a3.166,3.166,0,0,1-.891.759,2.283,2.283,0,0,1-1.149.285,2.186,2.186,0,0,1-.947-.2,1.95,1.95,0,0,1-.726-.591,2.8,2.8,0,0,1-.462-.971,4.967,4.967,0,0,1-.163-1.338,4.217,4.217,0,0,1,.18-1.251,3.044,3.044,0,0,1,.519-1.006,2.376,2.376,0,0,1,1.929-.911,2.207,2.207,0,0,1,.955.188,2.3,2.3,0,0,1,.708.531V35.662h1.067V44.5Zm-2.07-.78a1.729,1.729,0,0,0,.915-.239,2.659,2.659,0,0,0,.724-.679v-2.94a1.7,1.7,0,0,0-.645-.555,1.869,1.869,0,0,0-.778-.158,1.535,1.535,0,0,0-1.307.6,2.827,2.827,0,0,0-.457,1.729,4.332,4.332,0,0,0,.1,1.016,1.97,1.97,0,0,0,.3.7,1.184,1.184,0,0,0,.486.4A1.636,1.636,0,0,0,27.923,43.72Z" fill="#fff"/>
            <path d="M33.383,44.5V38.422h.636a.272.272,0,0,1,.288.222l.084.66a3.437,3.437,0,0,1,.885-.708,2.3,2.3,0,0,1,1.131-.27,2.195,2.195,0,0,1,.879.165,1.7,1.7,0,0,1,.636.468,2.063,2.063,0,0,1,.387.73,3.161,3.161,0,0,1,.132.941V44.5H37.373V40.63a1.638,1.638,0,0,0-.315-1.071,1.178,1.178,0,0,0-.963-.381,1.8,1.8,0,0,0-.885.228,2.9,2.9,0,0,0-.759.619V44.5Z" fill="#fff"/>
            <path d="M41.939,38.422V42.3a1.613,1.613,0,0,0,.318,1.068,1.184,1.184,0,0,0,.96.378,1.849,1.849,0,0,0,.882-.221,2.765,2.765,0,0,0,.762-.619V38.422h1.068V44.5h-.636a.272.272,0,0,1-.288-.221l-.084-.655a3.324,3.324,0,0,1-.888.7,2.327,2.327,0,0,1-1.128.267,2.195,2.195,0,0,1-.879-.165,1.743,1.743,0,0,1-.639-.465A1.967,1.967,0,0,1,41,43.24a3.241,3.241,0,0,1-.129-.942V38.422Z" fill="#fff"/>
            <path d="M48.647,44.5V38.422h.636a.272.272,0,0,1,.288.222l.084.66a3.437,3.437,0,0,1,.885-.708,2.3,2.3,0,0,1,1.131-.27,2.195,2.195,0,0,1,.879.165,1.7,1.7,0,0,1,.636.468,2.063,2.063,0,0,1,.387.73,3.161,3.161,0,0,1,.132.941V44.5H52.637V40.63a1.638,1.638,0,0,0-.315-1.071,1.178,1.178,0,0,0-.963-.381,1.8,1.8,0,0,0-.885.228,2.9,2.9,0,0,0-.759.619V44.5Z" fill="#fff"/>
            <path d="M58.325,38.321a3.024,3.024,0,0,1,.741.086,2.331,2.331,0,0,1,.627.255h1.65v.4q0,.2-.252.252l-.69.1a1.849,1.849,0,0,1,.2.871,1.869,1.869,0,0,1-.171.806,1.831,1.831,0,0,1-.474.621,2.128,2.128,0,0,1-.72.4,2.87,2.87,0,0,1-.915.138,3.075,3.075,0,0,1-.8-.1,1.029,1.029,0,0,0-.291.267.489.489,0,0,0-.1.279.378.378,0,0,0,.174.338,1.2,1.2,0,0,0,.462.165,3.884,3.884,0,0,0,.654.05h.747a4.11,4.11,0,0,1,.747.066,2.258,2.258,0,0,1,.654.219,1.22,1.22,0,0,1,.462.419,1.248,1.248,0,0,1,.174.692,1.624,1.624,0,0,1-.2.766,2.071,2.071,0,0,1-.561.659,2.876,2.876,0,0,1-.894.461,3.835,3.835,0,0,1-1.194.174,4.6,4.6,0,0,1-1.167-.133,2.705,2.705,0,0,1-.831-.355,1.54,1.54,0,0,1-.495-.512,1.225,1.225,0,0,1-.165-.611,1.1,1.1,0,0,1,.285-.765,1.955,1.955,0,0,1,.783-.5,1.076,1.076,0,0,1-.411-.322.86.86,0,0,1-.153-.536.839.839,0,0,1,.048-.272,1.074,1.074,0,0,1,.147-.279,1.6,1.6,0,0,1,.243-.263,1.619,1.619,0,0,1,.336-.222,1.891,1.891,0,0,1-.7-.669,1.828,1.828,0,0,1-.255-.974,1.875,1.875,0,0,1,.171-.808,1.794,1.794,0,0,1,.477-.618,2.182,2.182,0,0,1,.729-.393A2.975,2.975,0,0,1,58.325,38.321Zm1.9,6.488a.537.537,0,0,0-.126-.373.811.811,0,0,0-.342-.218,2.41,2.41,0,0,0-.5-.113,4.514,4.514,0,0,0-.594-.036h-.636a2.317,2.317,0,0,1-.618-.082,1.756,1.756,0,0,0-.555.4.8.8,0,0,0-.213.559.734.734,0,0,0,.1.381.9.9,0,0,0,.321.307,1.879,1.879,0,0,0,.543.2,3.483,3.483,0,0,0,.771.075,3.372,3.372,0,0,0,.774-.08,1.917,1.917,0,0,0,.579-.225,1.109,1.109,0,0,0,.363-.35A.826.826,0,0,0,60.221,44.809Zm-1.9-3.279a1.707,1.707,0,0,0,.573-.089,1.187,1.187,0,0,0,.417-.252,1.043,1.043,0,0,0,.252-.388,1.4,1.4,0,0,0,.084-.5,1.182,1.182,0,0,0-.339-.888,1.632,1.632,0,0,0-1.968,0,1.182,1.182,0,0,0-.339.888,1.354,1.354,0,0,0,.087.5,1.075,1.075,0,0,0,.255.388,1.192,1.192,0,0,0,.414.252A1.661,1.661,0,0,0,58.325,41.53Z" fill="#fff"/>
          </g>
        </g>
      </g>
    </g>
  </g>
</svg>
