<svg xmlns="http://www.w3.org/2000/svg" viewBox="0 0 75 66">
  <title>B7_erfahrungen</title>
  <g id="Ebene_2" data-name="Ebene 2">
    <g id="Ebene_1-2" data-name="Ebene 1">
      <g>
        <path id="Rechteck_57-7" data-name="Rechteck 57-7" d="M15,0H60A14.926,14.926,0,0,1,75,14.85v36.3A14.926,14.926,0,0,1,60,66H15A14.926,14.926,0,0,1,0,51.15V14.85A14.926,14.926,0,0,1,15,0Z" fill="#48679a"/>
        <g id="Erfahrungen_und_Tipps" data-name="Erfahrungen und Tipps" style="isolation: isolate">
          <g style="isolation: isolate">
            <path d="M15.049,22.977v.83H11.437v2.5h2.924v.8H11.437v2.567h3.612V30.5H10.414V22.977Z" fill="#fff"/>
            <path d="M16.367,30.5V25.182H16.9a.3.3,0,0,1,.211.057.367.367,0,0,1,.078.2l.063.829a2.44,2.44,0,0,1,.675-.869,1.588,1.588,0,0,1,1.342-.263,1.406,1.406,0,0,1,.33.14l-.121.7a.157.157,0,0,1-.163.131.828.828,0,0,1-.225-.05,1.432,1.432,0,0,0-.425-.05,1.21,1.21,0,0,0-.817.283,2.135,2.135,0,0,0-.548.824V30.5Z" fill="#fff"/>
            <path d="M20.809,30.5V25.98l-.588-.069a.445.445,0,0,1-.181-.081.189.189,0,0,1-.071-.16v-.383h.84v-.514a2.39,2.39,0,0,1,.128-.812,1.667,1.667,0,0,1,.368-.6,1.561,1.561,0,0,1,.574-.37,2.146,2.146,0,0,1,.757-.126,2.014,2.014,0,0,1,.661.106l-.021.467a.12.12,0,0,1-.089.126,1.027,1.027,0,0,1-.236.021h-.163a1.426,1.426,0,0,0-.438.063.817.817,0,0,0-.339.2.926.926,0,0,0-.218.373,1.834,1.834,0,0,0-.076.572v.488h1.538v.677H21.748V30.5Z" fill="#fff"/>
            <path d="M28.042,30.5h-.414a.484.484,0,0,1-.221-.042.234.234,0,0,1-.11-.179l-.105-.493q-.21.189-.409.339a2.349,2.349,0,0,1-.42.252,2.14,2.14,0,0,1-.47.154,2.625,2.625,0,0,1-.554.053,1.879,1.879,0,0,1-.58-.087,1.307,1.307,0,0,1-.47-.26,1.259,1.259,0,0,1-.318-.44,1.56,1.56,0,0,1-.118-.63,1.177,1.177,0,0,1,.173-.608,1.521,1.521,0,0,1,.559-.519,3.666,3.666,0,0,1,1.011-.372,6.863,6.863,0,0,1,1.528-.144v-.418a1.446,1.446,0,0,0-.265-.943.963.963,0,0,0-.785-.32,1.657,1.657,0,0,0-.575.087,2.143,2.143,0,0,0-.4.194q-.171.108-.294.2a.431.431,0,0,1-.244.086.283.283,0,0,1-.166-.049.393.393,0,0,1-.113-.124l-.168-.3a3.063,3.063,0,0,1,.951-.636,2.928,2.928,0,0,1,1.128-.21,2.013,2.013,0,0,1,.793.148,1.618,1.618,0,0,1,.583.409,1.743,1.743,0,0,1,.357.635,2.666,2.666,0,0,1,.12.819Zm-2.425-.572a1.925,1.925,0,0,0,.452-.05,1.8,1.8,0,0,0,.386-.141,2.082,2.082,0,0,0,.346-.224,2.973,2.973,0,0,0,.323-.3v-1.1a6.314,6.314,0,0,0-1.1.082,3.07,3.07,0,0,0-.735.214,1.036,1.036,0,0,0-.413.312.672.672,0,0,0-.128.4.876.876,0,0,0,.068.364A.688.688,0,0,0,25,29.74a.714.714,0,0,0,.273.143A1.239,1.239,0,0,0,25.617,29.928Z" fill="#fff"/>
            <path d="M29.46,30.5V22.767H30.4V25.9a2.87,2.87,0,0,1,.756-.58,2.026,2.026,0,0,1,.955-.218,1.922,1.922,0,0,1,.769.144,1.492,1.492,0,0,1,.557.41,1.815,1.815,0,0,1,.339.637,2.782,2.782,0,0,1,.115.824V30.5h-.934V27.113a1.429,1.429,0,0,0-.276-.936,1.03,1.03,0,0,0-.843-.334,1.572,1.572,0,0,0-.774.2,2.557,2.557,0,0,0-.664.541V30.5Z" fill="#fff"/>
            <path d="M35.3,30.5V25.182h.535a.3.3,0,0,1,.211.057.374.374,0,0,1,.079.2l.063.829a2.427,2.427,0,0,1,.674-.869,1.588,1.588,0,0,1,1.342-.263,1.406,1.406,0,0,1,.33.14l-.12.7a.158.158,0,0,1-.163.131.833.833,0,0,1-.226-.05,1.432,1.432,0,0,0-.425-.05,1.21,1.21,0,0,0-.817.283,2.146,2.146,0,0,0-.548.824V30.5Z" fill="#fff"/>
            <path d="M40.338,25.182v3.391a1.415,1.415,0,0,0,.278.935,1.037,1.037,0,0,0,.841.331,1.613,1.613,0,0,0,.771-.194A2.4,2.4,0,0,0,42.9,29.1V25.182h.935V30.5h-.557a.238.238,0,0,1-.252-.194l-.074-.572a2.925,2.925,0,0,1-.777.617,2.043,2.043,0,0,1-.986.233,1.922,1.922,0,0,1-.769-.144,1.523,1.523,0,0,1-.56-.407,1.726,1.726,0,0,1-.338-.635,2.813,2.813,0,0,1-.113-.825V25.182Z" fill="#fff"/>
            <path d="M45.368,30.5V25.182h.556a.238.238,0,0,1,.252.194l.074.577a2.973,2.973,0,0,1,.774-.619,2.019,2.019,0,0,1,.99-.236,1.925,1.925,0,0,1,.769.144,1.5,1.5,0,0,1,.556.41,1.8,1.8,0,0,1,.339.637,2.782,2.782,0,0,1,.115.824V30.5h-.934V27.113a1.429,1.429,0,0,0-.276-.936,1.027,1.027,0,0,0-.842-.334,1.573,1.573,0,0,0-.775.2,2.573,2.573,0,0,0-.664.541V30.5Z" fill="#fff"/>
            <path d="M53,25.093a2.629,2.629,0,0,1,.648.076,2.06,2.06,0,0,1,.549.223h1.443v.346c0,.116-.073.19-.22.221l-.6.084a1.721,1.721,0,0,1,.029,1.467,1.6,1.6,0,0,1-.415.544,1.865,1.865,0,0,1-.63.347,2.547,2.547,0,0,1-.8.12,2.716,2.716,0,0,1-.7-.089.879.879,0,0,0-.254.233.428.428,0,0,0-.087.244.331.331,0,0,0,.152.3,1.045,1.045,0,0,0,.4.144,3.389,3.389,0,0,0,.573.044h.653a3.632,3.632,0,0,1,.654.058,1.965,1.965,0,0,1,.572.191,1.067,1.067,0,0,1,.4.367,1.086,1.086,0,0,1,.153.605,1.414,1.414,0,0,1-.171.67,1.816,1.816,0,0,1-.491.578,2.538,2.538,0,0,1-.782.4,3.375,3.375,0,0,1-1.045.151,4.033,4.033,0,0,1-1.021-.115,2.373,2.373,0,0,1-.727-.311,1.326,1.326,0,0,1-.433-.449,1.067,1.067,0,0,1-.144-.533.964.964,0,0,1,.249-.67,1.708,1.708,0,0,1,.685-.439.936.936,0,0,1-.36-.281.754.754,0,0,1-.133-.468.709.709,0,0,1,.042-.239.9.9,0,0,1,.128-.244,1.378,1.378,0,0,1,.213-.23,1.4,1.4,0,0,1,.294-.2,1.639,1.639,0,0,1-.617-.585,1.6,1.6,0,0,1-.224-.853,1.648,1.648,0,0,1,.15-.706,1.561,1.561,0,0,1,.418-.541,1.907,1.907,0,0,1,.638-.344A2.614,2.614,0,0,1,53,25.093Zm1.659,5.677a.467.467,0,0,0-.111-.326.712.712,0,0,0-.3-.191,2.219,2.219,0,0,0-.435-.1,4.114,4.114,0,0,0-.52-.032h-.557a2,2,0,0,1-.541-.071,1.537,1.537,0,0,0-.485.348.7.7,0,0,0-.186.488.648.648,0,0,0,.091.334.782.782,0,0,0,.281.268,1.637,1.637,0,0,0,.475.179,3.036,3.036,0,0,0,.675.066,2.96,2.96,0,0,0,.677-.07,1.693,1.693,0,0,0,.507-.2.958.958,0,0,0,.317-.3A.72.72,0,0,0,54.655,30.77ZM53,27.9a1.455,1.455,0,0,0,.5-.08,1.015,1.015,0,0,0,.365-.22.911.911,0,0,0,.221-.338,1.263,1.263,0,0,0,.073-.434,1.031,1.031,0,0,0-.3-.776,1.427,1.427,0,0,0-1.722,0,1.031,1.031,0,0,0-.3.776,1.2,1.2,0,0,0,.076.434.928.928,0,0,0,.223.338,1.02,1.02,0,0,0,.362.22A1.422,1.422,0,0,0,53,27.9Z" fill="#fff"/>
            <path d="M58.676,25.1a2.394,2.394,0,0,1,.883.16,1.977,1.977,0,0,1,.7.462,2.1,2.1,0,0,1,.459.746,2.88,2.88,0,0,1,.165,1.01.6.6,0,0,1-.047.294.193.193,0,0,1-.178.074H57.117a2.94,2.94,0,0,0,.137.877,1.8,1.8,0,0,0,.346.622,1.386,1.386,0,0,0,.525.372,1.791,1.791,0,0,0,.683.124,1.979,1.979,0,0,0,.606-.082,2.779,2.779,0,0,0,.439-.176,3.116,3.116,0,0,0,.307-.176.416.416,0,0,1,.212-.081.207.207,0,0,1,.179.089l.262.342a1.716,1.716,0,0,1-.415.364,2.511,2.511,0,0,1-.517.255,3.283,3.283,0,0,1-.569.15,3.511,3.511,0,0,1-.583.049,2.689,2.689,0,0,1-1.016-.186,2.222,2.222,0,0,1-.8-.546,2.491,2.491,0,0,1-.528-.89,3.613,3.613,0,0,1-.189-1.217,3.091,3.091,0,0,1,.171-1.04,2.456,2.456,0,0,1,.49-.837,2.262,2.262,0,0,1,.783-.557A2.565,2.565,0,0,1,58.676,25.1Zm.021.687a1.433,1.433,0,0,0-1.065.392,1.841,1.841,0,0,0-.483,1.084h2.893a1.877,1.877,0,0,0-.09-.6,1.325,1.325,0,0,0-.263-.468,1.173,1.173,0,0,0-.422-.3A1.4,1.4,0,0,0,58.7,25.785Z" fill="#fff"/>
            <path d="M62.073,30.5V25.182h.557a.238.238,0,0,1,.252.194l.073.577a2.989,2.989,0,0,1,.774-.619,2.024,2.024,0,0,1,.99-.236,1.922,1.922,0,0,1,.769.144,1.5,1.5,0,0,1,.557.41,1.813,1.813,0,0,1,.338.637,2.781,2.781,0,0,1,.116.824V30.5h-.935V27.113a1.429,1.429,0,0,0-.275-.936,1.03,1.03,0,0,0-.843-.334,1.569,1.569,0,0,0-.774.2,2.541,2.541,0,0,0-.664.541V30.5Z" fill="#fff"/>
          </g>
          <g style="isolation: isolate">
            <path d="M11.075,39.182v3.391a1.41,1.41,0,0,0,.278.935,1.036,1.036,0,0,0,.84.331,1.614,1.614,0,0,0,.772-.194,2.4,2.4,0,0,0,.667-.541V39.182h.934V44.5H14.01a.236.236,0,0,1-.252-.194l-.074-.572a2.941,2.941,0,0,1-.777.617,2.044,2.044,0,0,1-.987.233,1.928,1.928,0,0,1-.769-.144,1.528,1.528,0,0,1-.559-.407,1.727,1.727,0,0,1-.339-.635,2.848,2.848,0,0,1-.112-.825V39.182Z" fill="#fff"/>
            <path d="M16.1,44.5V39.182h.557a.238.238,0,0,1,.252.194l.073.577a2.994,2.994,0,0,1,.775-.619,2.018,2.018,0,0,1,.989-.236,1.93,1.93,0,0,1,.77.144,1.5,1.5,0,0,1,.556.41,1.815,1.815,0,0,1,.339.637,2.782,2.782,0,0,1,.115.824V44.5H19.6V41.113a1.429,1.429,0,0,0-.276-.936,1.029,1.029,0,0,0-.842-.334,1.573,1.573,0,0,0-.775.2,2.557,2.557,0,0,0-.664.541V44.5Z" fill="#fff"/>
            <path d="M25.686,44.5a.236.236,0,0,1-.252-.194l-.084-.646a2.8,2.8,0,0,1-.78.664,2,2,0,0,1-1.006.249,1.921,1.921,0,0,1-.829-.175,1.717,1.717,0,0,1-.635-.517,2.476,2.476,0,0,1-.405-.851,4.4,4.4,0,0,1-.141-1.17,3.673,3.673,0,0,1,.157-1.095,2.67,2.67,0,0,1,.455-.88,2.083,2.083,0,0,1,1.688-.8,1.926,1.926,0,0,1,.834.166,2.017,2.017,0,0,1,.62.464v-2.95h.934V44.5Zm-1.811-.682a1.513,1.513,0,0,0,.8-.21,2.326,2.326,0,0,0,.633-.593V40.442a1.485,1.485,0,0,0-.565-.486,1.621,1.621,0,0,0-.68-.138,1.344,1.344,0,0,0-1.144.53,2.475,2.475,0,0,0-.4,1.512,3.815,3.815,0,0,0,.089.889,1.7,1.7,0,0,0,.263.61,1.023,1.023,0,0,0,.425.348A1.436,1.436,0,0,0,23.875,43.818Z" fill="#fff"/>
          </g>
          <g style="isolation: isolate">
            <path d="M36.771,35.824v1.327h-2.61V44.5H32.547V37.151H29.925V35.824Z" fill="#fff"/>
            <path d="M39.512,36.55a.859.859,0,0,1-.077.36,1.013,1.013,0,0,1-.207.294.976.976,0,0,1-.3.2.927.927,0,0,1-.372.076.9.9,0,0,1-.363-.076.94.94,0,0,1-.3-.2.963.963,0,0,1-.2-.294.873.873,0,0,1-.075-.36.93.93,0,0,1,.075-.372.948.948,0,0,1,.5-.5.894.894,0,0,1,.363-.075.926.926,0,0,1,.372.075.958.958,0,0,1,.511.5A.914.914,0,0,1,39.512,36.55Zm-.221,1.794V44.5H37.809V38.344Z" fill="#fff"/>
            <path d="M40.964,46.51V38.344h.907a.442.442,0,0,1,.245.066.308.308,0,0,1,.133.2l.119.57a3.126,3.126,0,0,1,.855-.69,2.333,2.333,0,0,1,1.131-.263,2.006,2.006,0,0,1,.921.21,2.065,2.065,0,0,1,.721.608,2.929,2.929,0,0,1,.467.984,4.951,4.951,0,0,1,.165,1.341,4.229,4.229,0,0,1-.186,1.279,3.132,3.132,0,0,1-.531,1.019,2.453,2.453,0,0,1-.834.675,2.427,2.427,0,0,1-1.095.243,2.2,2.2,0,0,1-.885-.159,2.166,2.166,0,0,1-.651-.441v2.52Zm2.88-7.109a1.513,1.513,0,0,0-.789.194,2.282,2.282,0,0,0-.609.549V42.9a1.406,1.406,0,0,0,.55.435,1.645,1.645,0,0,0,.638.123,1.433,1.433,0,0,0,.609-.126,1.185,1.185,0,0,0,.463-.384A1.91,1.91,0,0,0,45,42.3a3.765,3.765,0,0,0,.1-.927,4.115,4.115,0,0,0-.087-.915,1.748,1.748,0,0,0-.249-.609.991.991,0,0,0-.393-.342A1.222,1.222,0,0,0,43.844,39.4Z" fill="#fff"/>
            <path d="M47.75,46.51V38.344h.907a.442.442,0,0,1,.245.066.308.308,0,0,1,.133.2l.119.57a3.141,3.141,0,0,1,.855-.69,2.337,2.337,0,0,1,1.132-.263,2.009,2.009,0,0,1,.921.21,2.062,2.062,0,0,1,.72.608,2.95,2.95,0,0,1,.468.984,4.991,4.991,0,0,1,.165,1.341,4.229,4.229,0,0,1-.186,1.279,3.153,3.153,0,0,1-.532,1.019,2.453,2.453,0,0,1-.834.675,2.422,2.422,0,0,1-1.094.243,2.2,2.2,0,0,1-.886-.159,2.179,2.179,0,0,1-.651-.441v2.52ZM50.63,39.4a1.516,1.516,0,0,0-.789.194,2.3,2.3,0,0,0-.609.549V42.9a1.406,1.406,0,0,0,.55.435,1.645,1.645,0,0,0,.638.123,1.43,1.43,0,0,0,.609-.126,1.185,1.185,0,0,0,.463-.384,1.91,1.91,0,0,0,.291-.651,3.718,3.718,0,0,0,.1-.927,4.115,4.115,0,0,0-.087-.915,1.748,1.748,0,0,0-.249-.609.985.985,0,0,0-.393-.342A1.222,1.222,0,0,0,50.63,39.4Z" fill="#fff"/>
            <path d="M58.19,39.544a.378.378,0,0,1-.126.135.326.326,0,0,1-.168.039.529.529,0,0,1-.231-.06c-.082-.04-.177-.085-.285-.134a2.489,2.489,0,0,0-.369-.136,1.767,1.767,0,0,0-.489-.06,1.139,1.139,0,0,0-.69.186A.577.577,0,0,0,55.58,40a.464.464,0,0,0,.129.333,1.181,1.181,0,0,0,.342.238,3.472,3.472,0,0,0,.483.182q.27.081.552.177c.188.064.372.138.552.22a1.921,1.921,0,0,1,.483.311,1.374,1.374,0,0,1,.471,1.089,2.043,2.043,0,0,1-.162.819,1.8,1.8,0,0,1-.474.648,2.239,2.239,0,0,1-.771.427,3.6,3.6,0,0,1-1.674.095,3.665,3.665,0,0,1-.582-.159,3.056,3.056,0,0,1-.516-.24,2.5,2.5,0,0,1-.417-.3l.342-.563a.477.477,0,0,1,.156-.157.437.437,0,0,1,.228-.053.478.478,0,0,1,.261.077q.123.078.285.168a2.651,2.651,0,0,0,.381.169,1.706,1.706,0,0,0,.555.077,1.44,1.44,0,0,0,.453-.063.94.94,0,0,0,.312-.165.619.619,0,0,0,.18-.237.709.709,0,0,0,.057-.278.5.5,0,0,0-.129-.355,1.129,1.129,0,0,0-.342-.24,3.42,3.42,0,0,0-.486-.183c-.182-.053-.368-.113-.558-.176a5.382,5.382,0,0,1-.558-.226,1.876,1.876,0,0,1-.486-.327,1.48,1.48,0,0,1-.342-.486,1.693,1.693,0,0,1-.129-.7,1.773,1.773,0,0,1,.15-.72,1.7,1.7,0,0,1,.441-.6,2.171,2.171,0,0,1,.726-.407,3,3,0,0,1,1-.154,3.1,3.1,0,0,1,1.158.21,2.615,2.615,0,0,1,.87.552Z" fill="#fff"/>
          </g>
        </g>
      </g>
    </g>
  </g>
</svg>
