<svg xmlns="http://www.w3.org/2000/svg" viewBox="0 0 75 66">
  <title>B8_ausland_hover</title>
  <g id="Ebene_2" data-name="Ebene 2">
    <g id="Ebene_1-2" data-name="Ebene 1">
      <g>
        <path id="Rechteck_57-4" data-name="Rechteck 57-4" d="M15,0H60A14.926,14.926,0,0,1,75,14.85v36.3A14.926,14.926,0,0,1,60,66H15A14.926,14.926,0,0,1,0,51.15V14.85A14.926,14.926,0,0,1,15,0Z" fill="#36578a"/>
        <g id="_...ins_Ausland" data-name=" ...ins Ausland" style="isolation: isolate">
          <g style="isolation: isolate">
            <path d="M13.865,29.84a.766.766,0,0,1,.057-.294.754.754,0,0,1,.156-.24.734.734,0,0,1,.237-.162.75.75,0,0,1,.588,0,.77.77,0,0,1,.24.162.729.729,0,0,1,.159.24.766.766,0,0,1,.057.294.756.756,0,0,1-.057.3.737.737,0,0,1-.159.237.714.714,0,0,1-.24.159.787.787,0,0,1-.588,0,.682.682,0,0,1-.237-.159.751.751,0,0,1-.213-.534Z" fill="#fff"/>
            <path d="M16.708,29.84a.767.767,0,0,1,.058-.294.737.737,0,0,1,.156-.24.723.723,0,0,1,.237-.162.75.75,0,0,1,.588,0,.781.781,0,0,1,.24.162.745.745,0,0,1,.159.24.766.766,0,0,1,.057.294.737.737,0,0,1-.216.534.724.724,0,0,1-.24.159.787.787,0,0,1-.588,0,.673.673,0,0,1-.237-.159.746.746,0,0,1-.156-.237A.756.756,0,0,1,16.708,29.84Z" fill="#fff"/>
            <path d="M19.553,29.84a.766.766,0,0,1,.057-.294.754.754,0,0,1,.156-.24A.734.734,0,0,1,20,29.144a.75.75,0,0,1,.588,0,.77.77,0,0,1,.24.162.729.729,0,0,1,.159.24.766.766,0,0,1,.057.294.756.756,0,0,1-.057.3.737.737,0,0,1-.159.237.714.714,0,0,1-.24.159.787.787,0,0,1-.588,0,.682.682,0,0,1-.237-.159.751.751,0,0,1-.213-.534Z" fill="#fff"/>
            <path d="M24.173,22.514a.68.68,0,0,1-.063.291.838.838,0,0,1-.168.24.78.78,0,0,1-.243.165.733.733,0,0,1-.294.06.708.708,0,0,1-.291-.06.767.767,0,0,1-.24-.165.812.812,0,0,1-.166-.24.708.708,0,0,1-.06-.291.751.751,0,0,1,.06-.3.789.789,0,0,1,.406-.411.708.708,0,0,1,.291-.06.733.733,0,0,1,.294.06.8.8,0,0,1,.243.165.814.814,0,0,1,.168.246A.72.72,0,0,1,24.173,22.514Zm-.24,1.908V30.5H22.865V24.422Z" fill="#fff"/>
            <path d="M26.117,30.5V24.422h.636a.273.273,0,0,1,.288.222l.084.66a3.437,3.437,0,0,1,.885-.708,2.3,2.3,0,0,1,1.131-.27,2.195,2.195,0,0,1,.879.165,1.7,1.7,0,0,1,.636.468,2.045,2.045,0,0,1,.386.73,3.128,3.128,0,0,1,.133.941V30.5H30.107V26.63a1.638,1.638,0,0,0-.315-1.071,1.178,1.178,0,0,0-.963-.381,1.8,1.8,0,0,0-.885.228,2.9,2.9,0,0,0-.759.619V30.5Z" fill="#fff"/>
            <path d="M36.568,25.424a.236.236,0,0,1-.222.132.414.414,0,0,1-.2-.066c-.077-.044-.17-.092-.28-.147a2.482,2.482,0,0,0-.393-.149,1.872,1.872,0,0,0-.54-.07,1.593,1.593,0,0,0-.486.07,1.145,1.145,0,0,0-.369.188.86.86,0,0,0-.234.279.762.762,0,0,0-.081.345.575.575,0,0,0,.136.391,1.17,1.17,0,0,0,.356.269,3.112,3.112,0,0,0,.5.2q.282.087.579.186c.2.066.392.14.58.22a2.072,2.072,0,0,1,.5.3,1.37,1.37,0,0,1,.357.441,1.353,1.353,0,0,1,.136.627,1.986,1.986,0,0,1-.151.777,1.687,1.687,0,0,1-.444.618,2.131,2.131,0,0,1-.72.411,2.954,2.954,0,0,1-.984.15,3.05,3.05,0,0,1-1.152-.207,2.938,2.938,0,0,1-.876-.53l.252-.409a.387.387,0,0,1,.114-.12.321.321,0,0,1,.175-.042.415.415,0,0,1,.228.084q.119.084.291.186a2.147,2.147,0,0,0,.414.186,1.878,1.878,0,0,0,.609.084,1.659,1.659,0,0,0,.545-.081,1.15,1.15,0,0,0,.391-.218.876.876,0,0,0,.23-.319.988.988,0,0,0,.075-.384.639.639,0,0,0-.135-.417,1.135,1.135,0,0,0-.356-.282,3,3,0,0,0-.508-.2q-.285-.087-.581-.183c-.2-.064-.392-.136-.582-.218a2.037,2.037,0,0,1-.508-.31,1.39,1.39,0,0,1-.357-.459,1.5,1.5,0,0,1-.134-.663,1.629,1.629,0,0,1,.564-1.232,2.072,2.072,0,0,1,.677-.388,2.717,2.717,0,0,1,.918-.144,2.9,2.9,0,0,1,1.077.189,2.581,2.581,0,0,1,.826.519Z" fill="#fff"/>
          </g>
          <g style="isolation: isolate">
            <path d="M22.193,42.5h-1.3a.565.565,0,0,1-.359-.109.612.612,0,0,1-.2-.272l-.675-1.843H15.912l-.675,1.843a.586.586,0,0,1-.2.262.549.549,0,0,1-.359.119H13.375l3.549-9.037h1.719Zm-5.85-3.412h2.882l-1.1-3.007q-.076-.2-.166-.471c-.061-.182-.12-.378-.178-.591q-.088.319-.172.593c-.056.184-.112.344-.166.482Z" fill="#fff"/>
            <path d="M25.074,36.088v4.074a1.369,1.369,0,0,0,.272.91,1.009,1.009,0,0,0,.816.322,1.638,1.638,0,0,0,.75-.178,2.611,2.611,0,0,0,.662-.491V36.088h1.544V42.5h-.944a.379.379,0,0,1-.393-.281l-.107-.513a4.357,4.357,0,0,1-.412.366,2.48,2.48,0,0,1-.453.282,2.575,2.575,0,0,1-1.116.246,2.273,2.273,0,0,1-.928-.178,1.852,1.852,0,0,1-.678-.5,2.191,2.191,0,0,1-.416-.772,3.293,3.293,0,0,1-.14-.985V36.088Z" fill="#fff"/>
            <path d="M35.2,37.338a.43.43,0,0,1-.131.141.351.351,0,0,1-.175.04.551.551,0,0,1-.241-.063c-.085-.041-.184-.088-.3-.14a2.729,2.729,0,0,0-.384-.141,1.87,1.87,0,0,0-.51-.063,1.179,1.179,0,0,0-.718.2.6.6,0,0,0-.263.506.479.479,0,0,0,.135.346,1.179,1.179,0,0,0,.356.247,3.35,3.35,0,0,0,.5.191c.188.057.379.118.575.184a6.09,6.09,0,0,1,.575.229,1.989,1.989,0,0,1,.5.324,1.5,1.5,0,0,1,.356.473,1.486,1.486,0,0,1,.135.662,2.116,2.116,0,0,1-.169.853,1.886,1.886,0,0,1-.493.675,2.325,2.325,0,0,1-.8.444,3.472,3.472,0,0,1-1.1.159,3.528,3.528,0,0,1-.646-.059,3.845,3.845,0,0,1-.607-.166,3.233,3.233,0,0,1-.537-.25,2.625,2.625,0,0,1-.434-.312l.356-.588a.491.491,0,0,1,.162-.162.462.462,0,0,1,.237-.057.49.49,0,0,1,.272.082c.086.054.185.112.3.175a2.718,2.718,0,0,0,.4.175,1.752,1.752,0,0,0,.578.081,1.493,1.493,0,0,0,.472-.066.98.98,0,0,0,.325-.172.637.637,0,0,0,.188-.247.744.744,0,0,0,.059-.29.522.522,0,0,0-.134-.369,1.179,1.179,0,0,0-.356-.25,3.393,3.393,0,0,0-.507-.19c-.189-.057-.383-.118-.581-.185a5.108,5.108,0,0,1-.581-.234,1.979,1.979,0,0,1-.507-.341,1.55,1.55,0,0,1-.356-.506,1.774,1.774,0,0,1-.134-.725,1.853,1.853,0,0,1,.156-.75,1.752,1.752,0,0,1,.459-.622,2.272,2.272,0,0,1,.757-.425,3.156,3.156,0,0,1,1.047-.16,3.224,3.224,0,0,1,1.206.219,2.748,2.748,0,0,1,.906.575Z" fill="#fff"/>
            <path d="M39.124,33.213V42.5H37.58V33.213Z" fill="#fff"/>
            <path d="M46.518,42.5h-.694a.747.747,0,0,1-.344-.065.423.423,0,0,1-.187-.266l-.138-.456a5.154,5.154,0,0,1-.478.384,2.946,2.946,0,0,1-.484.278,2.512,2.512,0,0,1-.531.169,3.241,3.241,0,0,1-.625.056,2.428,2.428,0,0,1-.75-.11,1.609,1.609,0,0,1-.591-.329,1.475,1.475,0,0,1-.384-.546,1.924,1.924,0,0,1-.138-.758,1.5,1.5,0,0,1,.191-.718A1.8,1.8,0,0,1,42,39.5a4.075,4.075,0,0,1,1.182-.473,7.562,7.562,0,0,1,1.831-.188V38.46a1.437,1.437,0,0,0-.272-.961.992.992,0,0,0-.791-.311,1.9,1.9,0,0,0-.625.088,2.409,2.409,0,0,0-.434.2c-.123.073-.237.139-.341.2a.681.681,0,0,1-.343.087.44.44,0,0,1-.269-.081.633.633,0,0,1-.182-.2l-.281-.493a3.814,3.814,0,0,1,2.669-1.013,2.555,2.555,0,0,1,1,.185,2.126,2.126,0,0,1,.747.512,2.193,2.193,0,0,1,.465.784,3,3,0,0,1,.16,1Zm-3-.963a2.009,2.009,0,0,0,.438-.043,1.6,1.6,0,0,0,.377-.129,2.025,2.025,0,0,0,.344-.211,3.083,3.083,0,0,0,.335-.3V39.781a6.325,6.325,0,0,0-1.128.085,3.023,3.023,0,0,0-.729.217.948.948,0,0,0-.39.309.69.69,0,0,0-.116.384.677.677,0,0,0,.241.586A1.04,1.04,0,0,0,43.518,41.537Z" fill="#fff"/>
            <path d="M48.662,42.5V36.088h.943a.38.38,0,0,1,.394.281l.106.506a3.483,3.483,0,0,1,.41-.362,2.782,2.782,0,0,1,.456-.281,2.345,2.345,0,0,1,.515-.182,2.755,2.755,0,0,1,.6-.063,2.3,2.3,0,0,1,.932.179,1.824,1.824,0,0,1,.678.5,2.184,2.184,0,0,1,.412.769,3.258,3.258,0,0,1,.141.984V42.5H52.705V38.419a1.365,1.365,0,0,0-.272-.909,1.006,1.006,0,0,0-.815-.322,1.6,1.6,0,0,0-.75.181,2.674,2.674,0,0,0-.663.493V42.5Z" fill="#fff"/>
            <path d="M60.905,42.5a.379.379,0,0,1-.393-.281l-.125-.619a3.8,3.8,0,0,1-.419.406,2.612,2.612,0,0,1-.472.313,2.49,2.49,0,0,1-.544.2,2.608,2.608,0,0,1-.628.072,2.091,2.091,0,0,1-1.716-.854,3.024,3.024,0,0,1-.487-1.027,5.174,5.174,0,0,1-.172-1.4,4.386,4.386,0,0,1,.194-1.326,3.234,3.234,0,0,1,.556-1.062,2.6,2.6,0,0,1,.869-.7,2.505,2.505,0,0,1,1.138-.253,2.235,2.235,0,0,1,.918.172,2.388,2.388,0,0,1,.681.459V33.213h1.544V42.5Zm-2.056-1.131a1.583,1.583,0,0,0,.819-.2,2.44,2.44,0,0,0,.637-.569V37.725a1.5,1.5,0,0,0-.572-.449,1.676,1.676,0,0,0-.665-.132,1.483,1.483,0,0,0-.634.132,1.224,1.224,0,0,0-.482.4,1.95,1.95,0,0,0-.3.675,3.871,3.871,0,0,0-.106.966,4.318,4.318,0,0,0,.09.953,1.889,1.889,0,0,0,.26.638.991.991,0,0,0,.412.356A1.331,1.331,0,0,0,58.849,41.369Z" fill="#fff"/>
          </g>
        </g>
      </g>
    </g>
  </g>
</svg>
