<svg xmlns="http://www.w3.org/2000/svg" viewBox="0 0 91 31">
  <title>B9_back_hover</title>
  <g id="Ebene_2" data-name="Ebene 2">
    <g id="Ebene_1-2" data-name="Ebene 1">
      <g>
        <rect id="Rechteck_461" data-name="Rechteck 461" width="91" height="31" rx="15" fill="#36578a"/>
        <g id="ZURÜCK">
          <g id="ZURÜCK-2" style="isolation: isolate">
            <g style="isolation: isolate">
              <path d="M29.484,12.047v.545a.8.8,0,0,1-.143.462l-4.08,5.763h4.125V20H23.341v-.583a.611.611,0,0,1,.038-.212.876.876,0,0,1,.1-.189l4.091-5.792H23.6V12.047Z" fill="#fff"/>
              <path d="M33.9,18.807a1.939,1.939,0,0,0,.767-.144,1.583,1.583,0,0,0,.572-.4,1.753,1.753,0,0,0,.358-.627,2.594,2.594,0,0,0,.124-.825V12.047H37.2V16.81a3.675,3.675,0,0,1-.228,1.312,2.928,2.928,0,0,1-1.7,1.721,3.981,3.981,0,0,1-2.75,0,2.911,2.911,0,0,1-1.691-1.721,3.675,3.675,0,0,1-.229-1.312V12.047h1.48v4.758a2.571,2.571,0,0,0,.124.825,1.813,1.813,0,0,0,.354.629,1.542,1.542,0,0,0,.57.4A1.939,1.939,0,0,0,33.9,18.807Z" fill="#fff"/>
              <path d="M40.347,16.893V20h-1.48V12.047h2.425a5.064,5.064,0,0,1,1.395.168,2.63,2.63,0,0,1,.951.47,1.822,1.822,0,0,1,.545.723,2.538,2.538,0,0,1,.055,1.686,2.212,2.212,0,0,1-.341.649,2.307,2.307,0,0,1-.55.512,2.877,2.877,0,0,1-.745.351,1.465,1.465,0,0,1,.483.457L45.077,20H43.746a.645.645,0,0,1-.328-.077.664.664,0,0,1-.228-.22l-1.672-2.547a.592.592,0,0,0-.206-.2.728.728,0,0,0-.333-.06Zm0-1.062h.924a2.318,2.318,0,0,0,.729-.1,1.412,1.412,0,0,0,.511-.289,1.164,1.164,0,0,0,.3-.437,1.539,1.539,0,0,0,.1-.556,1.127,1.127,0,0,0-.4-.929,1.9,1.9,0,0,0-1.219-.325h-.945Z" fill="#fff"/>
              <path d="M49.053,18.807a1.947,1.947,0,0,0,.768-.144,1.591,1.591,0,0,0,.572-.4,1.767,1.767,0,0,0,.357-.627,2.566,2.566,0,0,0,.124-.825V12.047h1.48V16.81a3.675,3.675,0,0,1-.229,1.312,2.96,2.96,0,0,1-.657,1.039,2.991,2.991,0,0,1-1.04.682,3.981,3.981,0,0,1-2.75,0,2.919,2.919,0,0,1-1.691-1.721,3.675,3.675,0,0,1-.228-1.312V12.047h1.479v4.758a2.6,2.6,0,0,0,.124.825,1.8,1.8,0,0,0,.355.629,1.546,1.546,0,0,0,.569.4A1.942,1.942,0,0,0,49.053,18.807Zm-.45-7.976a.67.67,0,0,1-.061.281.748.748,0,0,1-.407.385.774.774,0,0,1-.292.055.682.682,0,0,1-.272-.055.723.723,0,0,1-.228-.154.756.756,0,0,1-.157-.231.683.683,0,0,1-.058-.281.7.7,0,0,1,.058-.283.779.779,0,0,1,.157-.236.767.767,0,0,1,.228-.163.638.638,0,0,1,.272-.06.723.723,0,0,1,.292.06.806.806,0,0,1,.242.163.784.784,0,0,1,.165.236A.689.689,0,0,1,48.6,10.831Zm2.376,0a.684.684,0,0,1-.059.281.736.736,0,0,1-.156.231.706.706,0,0,1-.234.154.751.751,0,0,1-.289.055.736.736,0,0,1-.679-.44.683.683,0,0,1-.058-.281.7.7,0,0,1,.058-.283.752.752,0,0,1,.16-.236.778.778,0,0,1,.236-.163.688.688,0,0,1,.283-.06.7.7,0,0,1,.289.06.746.746,0,0,1,.234.163.758.758,0,0,1,.156.236A.7.7,0,0,1,50.979,10.831Z" fill="#fff"/>
              <path d="M59.438,18.124a.274.274,0,0,1,.208.094l.583.633a3.194,3.194,0,0,1-1.19.918,4.118,4.118,0,0,1-1.7.319,4,4,0,0,1-1.592-.3,3.489,3.489,0,0,1-1.208-.841,3.7,3.7,0,0,1-.767-1.287,4.828,4.828,0,0,1-.267-1.634,4.376,4.376,0,0,1,.3-1.641,3.732,3.732,0,0,1,.836-1.284,3.775,3.775,0,0,1,1.289-.839,4.431,4.431,0,0,1,1.658-.3,3.932,3.932,0,0,1,1.549.283,3.624,3.624,0,0,1,1.135.751l-.5.688a.452.452,0,0,1-.112.115.32.32,0,0,1-.19.05.432.432,0,0,1-.259-.1,3.326,3.326,0,0,0-.335-.214,2.813,2.813,0,0,0-.514-.215,2.685,2.685,0,0,0-.789-.1,2.654,2.654,0,0,0-1.032.2,2.287,2.287,0,0,0-.808.558,2.554,2.554,0,0,0-.528.882,3.385,3.385,0,0,0-.19,1.169,3.471,3.471,0,0,0,.19,1.194,2.631,2.631,0,0,0,.514.88,2.207,2.207,0,0,0,.764.548,2.376,2.376,0,0,0,.947.189,4.133,4.133,0,0,0,.547-.033,2.31,2.31,0,0,0,.451-.1,2.041,2.041,0,0,0,.39-.183,2.369,2.369,0,0,0,.366-.279.547.547,0,0,1,.116-.08A.3.3,0,0,1,59.438,18.124Z" fill="#fff"/>
              <path d="M62.985,15.38h.347a.909.909,0,0,0,.346-.058.582.582,0,0,0,.237-.184l2.194-2.778a.807.807,0,0,1,.288-.244.93.93,0,0,1,.383-.069h1.276l-2.679,3.306a2.479,2.479,0,0,1-.242.258,1.089,1.089,0,0,1-.247.17,1.085,1.085,0,0,1,.327.188,1.739,1.739,0,0,1,.284.307L68.259,20H66.95a.805.805,0,0,1-.393-.074.617.617,0,0,1-.217-.217l-2.25-2.938a.661.661,0,0,0-.247-.206.967.967,0,0,0-.391-.063h-.467V20h-1.48V12.041h1.48Z" fill="#fff"/>
            </g>
          </g>
        </g>
      </g>
    </g>
  </g>
</svg>
