<svg xmlns="http://www.w3.org/2000/svg" xmlns:xlink="http://www.w3.org/1999/xlink" viewBox="0 0 264.036 162.094">
  <defs>
    <clipPath id="clip-path" transform="translate(-17.201 -52.67)">
      <path d="M300,62.131a150,150,0,0,1-300,0C0-20.71,300-20.71,300,62.131Z" fill="none"/>
    </clipPath>
  </defs>
  <title>B_digital</title>
  <g id="Ebene_2" data-name="Ebene 2">
    <g id="Ebene_1-2" data-name="Ebene 1">
      <g id="Gruppe_1174" data-name="Gruppe 1174">
        <g clip-path="url(#clip-path)">
          <g id="Gruppe_1173" data-name="Gruppe 1173">
            <g id="Gruppe_1172" data-name="Gruppe 1172">
              <g id="Gruppe_1110" data-name="Gruppe 1110">
                <path id="Pfad_1329" data-name="Pfad 1329" d="M150.326,191.845H150.3a.251.251,0,0,1-.225-.274c.061-.606,1.494-14.868,2.152-16.514s5.817-9.385,6.036-9.714a.251.251,0,1,1,.418.279c-.054.08-5.353,8.032-5.989,9.622-.505,1.265-1.606,11.266-2.118,16.377A.25.25,0,0,1,150.326,191.845Z" transform="translate(-17.201 -52.67)" fill="#382823"/>
              </g>
              <g id="Gruppe_1117" data-name="Gruppe 1117">
                <path id="Pfad_1336" data-name="Pfad 1336" d="M152.3,176a.251.251,0,0,1-.178-.428l4.583-4.614a.251.251,0,0,1,.356.354l-4.583,4.614A.252.252,0,0,1,152.3,176Z" transform="translate(-17.201 -52.67)" fill="#382823"/>
              </g>
              <rect id="Rechteck_235" data-name="Rechteck 235" x="11.063" y="116.467" width="241.594" height="45.627" fill="#ececec"/>
              <path id="Rechteck_236" data-name="Rechteck 236" d="M20.6,160.373H277.837a3.4,3.4,0,0,1,3.4,3.4v2.509a3.4,3.4,0,0,1-3.4,3.4H20.6a3.4,3.4,0,0,1-3.4-3.4h0v-2.509a3.4,3.4,0,0,1,3.4-3.4Z" transform="translate(-17.201 -52.67)" fill="#f5f5f5"/>
              <path id="Pfad_1415" data-name="Pfad 1415" d="M28.264,169.8v39.6H63.91V182.339h.564c-1.758-3.326,12.007-11.908,205.384-9.958V169.8Z" transform="translate(-17.201 -52.67)" fill="#494949" opacity="0.15" style="isolation: isolate"/>
            </g>
          </g>
          <g id="Gruppe_1680" data-name="Gruppe 1680">
            <path id="Pfad_2207" data-name="Pfad 2207" d="M185.357,94.712c.422,6.1,5.049,17.021,5.049,17.021l-.54.077c-1.861-1.474-5.436-16.09-5.436-16.09-.685,9.812,4.127,15.272,4.127,15.272l-26.187-6.015-1.111-13.233c2.572-2.05,18.627-2.946,19.53-6.861a2.762,2.762,0,0,0,.579.293c1.163.441,3.094-.656,3.519-2.367s-.216-3.345-1.422-3.642a1.622,1.622,0,0,0-.324-.046,2.646,2.646,0,0,0-.281-.009,1.726,1.726,0,0,0-1.143.4h0c-.093.056-.183.116-.271.181.008-.28.012-.556.012-.835s0-.576-.014-.863l.077-.041-.081-.033c-.244-5.921-2.788-10.656-6.423-13.014l.674-4.719c11.475,4.258,4.934,5.142,7.106,11.577s8.139,5.427,8.063,11.861S185.034,90.061,185.357,94.712Z" transform="translate(-17.201 -52.67)" fill="#09111a"/>
            <path id="Pfad_2208" data-name="Pfad 2208" d="M193.317,113.441c-.789-2.074-3.218-2.578-5.052-2.906-5.686-1.018-9.477-3.215-11.491-9.228-1.241-3.7-.579-7.244.152-10.991a.229.229,0,0,0-.186-.264h0a.194.194,0,0,0-.059,0q-5.568.676-11.172.863-.014-1.047-.023-2.092c0-.3-.443-.241-.44.059q.006,1.024.017,2.05l-.447.018a.208.208,0,0,0-.284-.079h0a.211.211,0,0,0-.106.172c-.136,2.516-.071,5.041-.277,7.553a12.119,12.119,0,0,1-.677,3.884,8.01,8.01,0,0,1-2.931,3.181c-.957.669-6.543,3.078-6.543,3.078s5.859,5.816,6.9,6.031c3.058.638,6.18,1.079,9.271,1.519a32.572,32.572,0,0,0,8.428-.077,5.851,5.851,0,0,0,2.077,2.348,13.768,13.768,0,0,0,5.071,1.6c2.245.4,4.492.791,6.738,1.187a.226.226,0,0,0,.275-.158,23.537,23.537,0,0,0,.846-4.229A8.211,8.211,0,0,0,193.317,113.441Z" transform="translate(-17.201 -52.67)" fill="#c4a19e"/>
            <path id="Pfad_2209" data-name="Pfad 2209" d="M193.317,113.441c-.789-2.074-3.217-2.578-5.052-2.906-5.686-1.017-9.477-3.215-11.491-9.227a13.619,13.619,0,0,1-.686-4.057,7.935,7.935,0,0,1-5.116,2.332c-2.989,0-5.519-1.984-6.9-3.338-.026.785-.059,1.572-.124,2.356a12.119,12.119,0,0,1-.677,3.884,8,8,0,0,1-2.931,3.181c-.957.669-6.543,3.078-6.543,3.078s5.859,5.816,6.9,6.031c3.058.638,6.18,1.079,9.271,1.519a32.573,32.573,0,0,0,8.428-.077,5.844,5.844,0,0,0,2.077,2.348,13.762,13.762,0,0,0,5.071,1.6c2.245.4,4.492.791,6.738,1.187a.226.226,0,0,0,.275-.159,23.537,23.537,0,0,0,.846-4.229A8.209,8.209,0,0,0,193.317,113.441Z" transform="translate(-17.201 -52.67)" fill="#fff0e2"/>
            <path id="Pfad_2210" data-name="Pfad 2210" d="M188.621,110.873a18.63,18.63,0,0,1-5.947-1.352l-28.3,2.615-.239.13s6.366,5.251,7.42,5.371c3.1.354,6.258.506,9.371.659a32.639,32.639,0,0,0,8.386-.851,5.835,5.835,0,0,0,2.284,2.146,13.752,13.752,0,0,0,5.2,1.131c2.272.191,4.546.373,6.818.56a.226.226,0,0,0,.259-.183,23.49,23.49,0,0,0,.452-4.288,8.179,8.179,0,0,0-.4-3.509C192.942,111.31,190.478,111.032,188.621,110.873Z" transform="translate(-17.201 -52.67)" fill="#fff0e2"/>
            <path id="Pfad_2211" data-name="Pfad 2211" d="M147.059,141.3a.78.78,0,0,1-.018.136c-.39,2.931-1.714,5.086-.616,8.017.052.141.108.282.179.432a.979.979,0,0,0,.061.146c.283-.282.325,2.837.1,4.791a10.932,10.932,0,0,0,.23,3.865,4.291,4.291,0,0,0,.146.506h49.33a11.662,11.662,0,0,0,.221-2.379v-.451c-.019-.441-.028-.874-.024-1.311.01-1.7-1.072-3.827-1.3-5.588-.083-.686-.15-1.306-.2-1.874-.015-.165-.025-.329-.032-.483-.235-3.607.333-5.012.873-8.614.024-.151.042-.311.071-.475.074-.545.15-1.142.216-1.8a76.753,76.753,0,0,0,.258-9.482v-.474c-.01-1.17-.018-2.339,0-3.509.028-1.691.08-3.376.136-5.071a5.894,5.894,0,0,0-.014-.728,2.075,2.075,0,0,0-.094-.469c-.168-.5-.553-.789-1.338-1.165a14.13,14.13,0,0,0-6.042-1.1h-.056c-.794-.009-1.587.015-2.367.029a22.592,22.592,0,0,1-6.969-.545c-2.471-.738-13.071-1.856-15.921-2.367-3.068-.549-8.251-1.726-10.825-2.166a6.78,6.78,0,0,0-2.579,0,4.521,4.521,0,0,0-2.482,1.511,7.25,7.25,0,0,0-1.391,4.622c-.009.16-.009.324-.009.479-.015.845.019,1.677.028,2.432a47.166,47.166,0,0,0-.395,10.131l.027.465c.186,3.208.541,6.42.786,9.619a15.839,15.839,0,0,1,.033,2.54C147.083,141.071,147.073,141.183,147.059,141.3Z" transform="translate(-17.201 -52.67)" fill="#56739e"/>
            <path id="Pfad_2212" data-name="Pfad 2212" d="M187.177,136.52c.01.49.024.975.038,1.465,0,.156,0,.312.014.472.076,2.861.188,5.722.362,8.577.01.16.024.325.033.481.052.866.118,1.725.183,2.588.16,1.961.338,3.921.587,5.878.014.127.028.249.047.377a.507.507,0,0,0,.014.076c.254,1.711,1.6,2.106,3.054,2.861.026.013.046.036.072.05h16.175c.009-.125.017-.248.022-.376.046-1.122-.043-2.333.074-3.125.263-1.833-.493-3.747-.948-5.5l-.216-.782c-.042-.166-.089-.335-.136-.5-.469-1.693-.963-3.394-1.311-5.114-.441-2.2-.272-4.251-.545-6.343-.014-.146-.037-.288-.06-.433a10.876,10.876,0,0,0-.729-2.587c-1.047-2.466-2.447-4.61-3.142-7.132-.046-.165-.09-.325-.126-.5-.047-.194-.085-.392-.123-.589a44.6,44.6,0,0,0-1.864-7.061,10.926,10.926,0,0,0-1.16-2.5,3.246,3.246,0,0,0-.324-.423,2.831,2.831,0,0,0-.7-.6,13.5,13.5,0,0,0-7.256-1.566h-.056c-.3.01-.437,1.556-.136,1.546a30.489,30.489,0,0,1,3.512.07,7.342,7.342,0,0,1-.775,1.528c-.118.179-.244.353-.371.527-1.5,2.008-3.621,3.554-4.1,6.255a16.889,16.889,0,0,0-.225,2.057c-.009.156-.014.311-.018.471-.032,1.061,0,2.121.01,3.173C187.089,132.065,187.125,134.291,187.177,136.52Z" transform="translate(-17.201 -52.67)" fill="#4f6a91"/>
            <path id="Pfad_2213" data-name="Pfad 2213" d="M153.812,143.908c-.009-1.028-.032-2.05-.08-3.072,0-.154-.013-.31-.023-.465a91.916,91.916,0,0,0-1.241-11.211c-.023-.154-.051-.314-.084-.469-.118-.681-.243-1.367-.381-2.05-.629-3.166-1.295-6.332-1.662-9.544-.024-.216-.047-.432-.066-.639-.014-.16-.028-.315-.043-.475-.108-1.282-.15-2.559-.16-3.851a4.237,4.237,0,0,0-.432-2.2c.262-.108.54-.216.821-.314a.252.252,0,0,0,.147-.325h0a.261.261,0,0,0-.113-.13.24.24,0,0,0-.15,0,10.483,10.483,0,0,0-5.8,5.054c-.118.216-.23.441-.338.667-.071.146-.137.291-.2.441-.122.273-.234.549-.338.832-1.447,3.907-3.419,8.055-3.607,12.149-.01.155-.014.306-.014.455v.01a33.141,33.141,0,0,1-.963,7.769,31.04,31.04,0,0,0-.647,3.541c-.024.155-.043.31-.062.469q-.162,1.281-.324,2.59c-.249,1.949,16.65,9.238,16.786,7.712.014-.15.028-.3.032-.441.014-.169.024-.324.028-.479C155,146.98,153.84,146.867,153.812,143.908Z" transform="translate(-17.201 -52.67)" fill="#5576a6"/>
            <g id="Gruppe_1612" data-name="Gruppe 1612">
              <g id="Gruppe_1611" data-name="Gruppe 1611">
                <path id="Pfad_2214" data-name="Pfad 2214" d="M166.3,160.535a.237.237,0,0,1-.065-.009,72.894,72.894,0,0,1-8.562-2.974,9.957,9.957,0,0,1-2.982-2,.236.236,0,0,1,.364-.3,9.9,9.9,0,0,0,2.832,1.883,73.738,73.738,0,0,0,8.478,2.94.235.235,0,0,1-.065.461Z" transform="translate(-17.201 -52.67)" fill="#17253d"/>
              </g>
            </g>
            <g id="Gruppe_1614" data-name="Gruppe 1614">
              <g id="Gruppe_1613" data-name="Gruppe 1613">
                <path id="Pfad_2215" data-name="Pfad 2215" d="M167.87,160.544a.238.238,0,0,1-.139-.045l-5.934-4.33a.234.234,0,1,1,.276-.379l5.935,4.33a.234.234,0,0,1-.138.424Z" transform="translate(-17.201 -52.67)" fill="#17253d"/>
              </g>
            </g>
            <g id="Gruppe_1616" data-name="Gruppe 1616">
              <g id="Gruppe_1615" data-name="Gruppe 1615">
                <path id="Pfad_2216" data-name="Pfad 2216" d="M194.515,134.041a.234.234,0,0,1-.141-.422l5.261-3.971a.235.235,0,0,1,.307.355l-.024.019h0l-5.261,3.971A.236.236,0,0,1,194.515,134.041Z" transform="translate(-17.201 -52.67)" fill="#17253d"/>
              </g>
            </g>
            <g id="Gruppe_1618" data-name="Gruppe 1618">
              <g id="Gruppe_1617" data-name="Gruppe 1617">
                <path id="Pfad_2217" data-name="Pfad 2217" d="M193.562,156.11a.234.234,0,0,1-.231-.237.229.229,0,0,1,.069-.163,10.094,10.094,0,0,1,6.627-2.466h.043a12.814,12.814,0,0,1,6.619,1.71.235.235,0,0,1-.259.392,12.581,12.581,0,0,0-6.366-1.631,9.876,9.876,0,0,0-6.343,2.334A.241.241,0,0,1,193.562,156.11Z" transform="translate(-17.201 -52.67)" fill="#17253d"/>
              </g>
            </g>
            <g id="Gruppe_1620" data-name="Gruppe 1620">
              <g id="Gruppe_1619" data-name="Gruppe 1619">
                <path id="Pfad_2218" data-name="Pfad 2218" d="M193.573,153.684a.26.26,0,0,1-.068-.01.235.235,0,0,1-.157-.292c.038-.123.465-1.243,3.987-2.716,3.453-1.445,4.166-1.488,4.239-1.488h0a.235.235,0,0,1,0,.469h0a19.414,19.414,0,0,0-4.057,1.452c-3.327,1.391-3.715,2.407-3.718,2.418A.234.234,0,0,1,193.573,153.684Z" transform="translate(-17.201 -52.67)" fill="#17253d"/>
              </g>
            </g>
            <g id="Gruppe_1622" data-name="Gruppe 1622">
              <g id="Gruppe_1621" data-name="Gruppe 1621">
                <path id="Pfad_2219" data-name="Pfad 2219" d="M193.233,158.029a.228.228,0,0,1-.2-.108c-.051-.09-1.244-2.207-1.062-3.216a37.826,37.826,0,0,0,.087-7.026,15.151,15.151,0,0,1,.954-7.263c.653-1.427.023-7.324.016-7.384l-.011-.081,4.936-6.467a.235.235,0,0,1,.316-.048.21.21,0,0,1,.058.289l-.008.01-4.836,6.335c.079.755.6,6.066-.058,7.516a14.74,14.74,0,0,0-.917,7.067,38.243,38.243,0,0,1-.093,7.121,6.839,6.839,0,0,0,1.013,2.941.206.206,0,0,1-.077.282l0,0-.013.006A.232.232,0,0,1,193.233,158.029Z" transform="translate(-17.201 -52.67)" fill="#17253d"/>
              </g>
            </g>
            <path id="Pfad_2220" data-name="Pfad 2220" d="M174.273,64.321c-17.057-5.815-23.982,22.7-23.982,22.7a46.809,46.809,0,0,1-4.58-5.691c-1.156-1.849-1.841-5.1.491-10.267a35.18,35.18,0,0,1,3.536-5.974c.126-.179.258-.356.387-.533,4.549-6.112,11.261-11.272,17.5-11.834a11.845,11.845,0,0,1,1.435-.048,10.366,10.366,0,0,1,5.521,1.727C182.336,59.516,174.491,64.4,174.273,64.321Z" transform="translate(-17.201 -52.67)" fill="#17253d"/>
            <path id="Pfad_2221" data-name="Pfad 2221" d="M169.062,52.678c-2.3,7.293-13.786,17.2-22.86,18.389a35.18,35.18,0,0,1,3.536-5.974c.126-.179.258-.356.387-.533,7-2.148,14.26-7.089,17.5-11.834A11.878,11.878,0,0,1,169.062,52.678Z" transform="translate(-17.201 -52.67)" fill="#28497c"/>
            <path id="Pfad_2222" data-name="Pfad 2222" d="M181.46,78.859c0,.279,0,.556-.012.835v.021a26.442,26.442,0,0,1-.656,5.151v.017a16.637,16.637,0,0,1-5.281,9.353,9.277,9.277,0,0,1-5.893,2.09c-6.016,0-9.8-5.014-11.215-11.464a27.474,27.474,0,0,1-.616-5.111c-.01-.3-.014-.594-.014-.891,0-9.051,5.3-15.581,11.845-15.581a9.859,9.859,0,0,1,5.4,1.63c3.115,2.02,5.431,5.787,6.182,10.55a21.869,21.869,0,0,1,.242,2.463V78C181.455,78.282,181.46,78.569,181.46,78.859Z" transform="translate(-17.201 -52.67)" fill="#fff0e2"/>
            <g id="Gruppe_1625" data-name="Gruppe 1625">
              <g id="Gruppe_1624" data-name="Gruppe 1624">
                <g id="Gruppe_1623" data-name="Gruppe 1623">
                  <path id="Pfad_2223" data-name="Pfad 2223" d="M178.655,76.076l-6.143.545c-.279.025-.36-.137-.126-.255a9.041,9.041,0,0,1,6.554-.611C179.168,75.823,178.973,76.047,178.655,76.076Z" transform="translate(-17.201 -52.67)" fill="#17253d"/>
                </g>
              </g>
            </g>
            <g id="Gruppe_1626" data-name="Gruppe 1626">
              <ellipse id="Ellipse_89" data-name="Ellipse 89" cx="147.663" cy="27.925" rx="1.473" ry="0.859" fill="#17253d"/>
            </g>
            <g id="Gruppe_1627" data-name="Gruppe 1627">
              <path id="Pfad_2224" data-name="Pfad 2224" d="M169.248,90.18a7.821,7.821,0,0,1-3.548-1.444.152.152,0,0,1-.031-.214l0,0,.012-.015a.187.187,0,0,1,.25-.011,7.216,7.216,0,0,0,6.823.944.185.185,0,0,1,.234.087.154.154,0,0,1-.071.207h0l-.016.008A7.213,7.213,0,0,1,169.248,90.18Z" transform="translate(-17.201 -52.67)" fill="#c4a19e"/>
            </g>
            <g id="Gruppe_1630" data-name="Gruppe 1630">
              <g id="Gruppe_1629" data-name="Gruppe 1629">
                <g id="Gruppe_1628" data-name="Gruppe 1628">
                  <path id="Pfad_2225" data-name="Pfad 2225" d="M160.756,75.974l5.24.4c.237.017.31-.135.108-.24a7.059,7.059,0,0,0-5.59-.451C160.324,75.752,160.489,75.957,160.756,75.974Z" transform="translate(-17.201 -52.67)" fill="#17253d"/>
                </g>
              </g>
            </g>
            <g id="Gruppe_1631" data-name="Gruppe 1631">
              <path id="Pfad_2226" data-name="Pfad 2226" d="M158.37,84.862a2.769,2.769,0,0,1-.612.315c-1.166.441-3.092-.656-3.519-2.367s.215-3.345,1.42-3.642a2.541,2.541,0,0,1,2.1.583A27.383,27.383,0,0,0,158.37,84.862Z" transform="translate(-17.201 -52.67)" fill="none" stroke="#1a1a1a" stroke-miterlimit="10" stroke-width="0.179"/>
              <path id="Pfad_2227" data-name="Pfad 2227" d="M155.037,80.93s1.511-.894,2.132.552c0,0-1.744,1.057-1.129,2.266" transform="translate(-17.201 -52.67)" fill="none" stroke="#1a1a1a" stroke-miterlimit="10" stroke-width="0.179"/>
            </g>
            <g id="Gruppe_1633" data-name="Gruppe 1633">
              <path id="Pfad_2228" data-name="Pfad 2228" d="M184.887,82.809c-.425,1.711-2.355,2.805-3.519,2.367a2.69,2.69,0,0,1-.6-.311.186.186,0,0,0,.008-.041c.166-.719.3-1.456.4-2.2.029-.186.052-.372.073-.562.083-.706.139-1.424.164-2.146,0-.065.006-.132.009-.2a3.191,3.191,0,0,1,.3-.2h0a2.535,2.535,0,0,1,1.423-.39,1.622,1.622,0,0,1,.324.046C184.674,79.468,185.309,81.1,184.887,82.809Z" transform="translate(-17.201 -52.67)" fill="#c4a19e"/>
              <g id="Gruppe_1632" data-name="Gruppe 1632">
                <path id="Pfad_2229" data-name="Pfad 2229" d="M183.084,83.849a.1.1,0,0,1-.047-.011.107.107,0,0,1-.045-.14c.563-1.1-1.073-2.116-1.09-2.127l-.076-.046.035-.083a1.366,1.366,0,0,1,.819-.824,2,2,0,0,1,1.46.223.107.107,0,0,1,.073.134.109.109,0,0,1-.135.073h0a.121.121,0,0,1-.046-.028,1.823,1.823,0,0,0-1.3-.2,1.141,1.141,0,0,0-.657.628c.341.232,1.662,1.227,1.09,2.349A.106.106,0,0,1,183.084,83.849Z" transform="translate(-17.201 -52.67)" fill="#917775"/>
              </g>
            </g>
            <path id="Pfad_2230" data-name="Pfad 2230" d="M146.663,84.449a29.509,29.509,0,0,1,1.1-5.57c6.815-3.692,13.38-12.9,14.15-19.085.288-.115.575-.221.863-.318l.013.065C164.124,67.173,155.383,83.2,146.663,84.449Z" transform="translate(-17.201 -52.67)" fill="#2c3149"/>
            <path id="Pfad_2232" data-name="Pfad 2232" d="M174.659,68.9s-7.116-3.44-14.518,5.627c2.359-4.818,6.706-6.916,9.711-8.032,3.853-1.427,4.686,1.812,4.8,2.334Z" transform="translate(-17.201 -52.67)" fill="#c4a19e"/>
            <path id="Pfad_2233" data-name="Pfad 2233" d="M181.461,78.859c0,.279,0,.556-.012.835v.02a26.442,26.442,0,0,1-.656,5.151v.017a16.631,16.631,0,0,1-5.281,9.353,19.327,19.327,0,0,0,4.7-15.054c-1.527-1.25-3.957-6.246-3.957-6.246l4.954,2.524a21.869,21.869,0,0,1,.242,2.463V78C181.455,78.282,181.461,78.569,181.461,78.859Z" transform="translate(-17.201 -52.67)" fill="#c4a19e"/>
            <path id="Pfad_2234" data-name="Pfad 2234" d="M174.582,68.32l.971-3.608c3.635,2.356,6.65,8.433,6.894,14.35C176.629,76.776,174.582,68.32,174.582,68.32Z" transform="translate(-17.201 -52.67)" fill="#17253d"/>
            <path id="Pfad_2235" data-name="Pfad 2235" d="M171.546,85.11a2.888,2.888,0,0,1-1.212,1.164c-.677.3-1.322.031-1.681-.836l.69-.3c.167.406.35.481.662.344a2.195,2.195,0,0,0,.885-.863Z" transform="translate(-17.201 -52.67)" fill="#c4a19e"/>
            <g id="Gruppe_1634" data-name="Gruppe 1634">
              <ellipse id="Ellipse_90" data-name="Ellipse 90" cx="157.772" cy="27.925" rx="1.473" ry="0.859" fill="#17253d"/>
            </g>
            <g id="Gruppe_1635" data-name="Gruppe 1635">
              <ellipse id="Ellipse_91" data-name="Ellipse 91" cx="147.202" cy="27.457" rx="1.931" ry="0.536" fill="#17253d"/>
            </g>
            <g id="Gruppe_1636" data-name="Gruppe 1636">
              <ellipse id="Ellipse_92" data-name="Ellipse 92" cx="158.23" cy="27.457" rx="1.931" ry="0.536" fill="#17253d"/>
            </g>
            <g id="Gruppe_1641" data-name="Gruppe 1641">
              <path id="Pfad_2236" data-name="Pfad 2236" d="M183.329,108.747s-2.222,6.246-11.938,7.218" transform="translate(-17.201 -52.67)" fill="none" stroke="#1a1a1a" stroke-linecap="round" stroke-miterlimit="10" stroke-width="0.179"/>
              <g id="Gruppe_1638" data-name="Gruppe 1638">
                <g id="Gruppe_1637" data-name="Gruppe 1637">
                  <path id="Pfad_2237" data-name="Pfad 2237" d="M170.455,117.282c-3.884,0-9.319-10.655-9.55-11.114a.161.161,0,0,1,.082-.213H161a.191.191,0,0,1,.243.082c.055.108,5.565,10.918,9.212,10.918h.054c3.561-.108,9.337-10.358,9.4-10.466a.19.19,0,0,1,.246-.072.158.158,0,0,1,.089.2h0l-.009.017c-.24.432-5.934,10.531-9.711,10.643Z" transform="translate(-17.201 -52.67)" fill="#17253d"/>
                </g>
              </g>
              <g id="Gruppe_1640" data-name="Gruppe 1640">
                <g id="Gruppe_1639" data-name="Gruppe 1639">
                  <path id="Pfad_2238" data-name="Pfad 2238" d="M170.169,114.42a4.066,4.066,0,0,1-.92-.108c-3.814-.892-7.723-7.03-7.888-7.291a.158.158,0,0,1,.053-.218l.016-.009a.193.193,0,0,1,.249.062c.04.063,3.992,6.276,7.661,7.134,3.629.85,8.687-4.473,8.74-4.532a.2.2,0,0,1,.258-.019.154.154,0,0,1,.036.216h0l-.015.017C178.157,109.892,173.852,114.42,170.169,114.42Z" transform="translate(-17.201 -52.67)" fill="#122133"/>
                </g>
              </g>
              <path id="Pfad_2239" data-name="Pfad 2239" d="M171.013,117.117a.96.96,0,1,1-1.169-.691.947.947,0,0,1,.238-.03A.847.847,0,0,1,171.013,117.117Z" transform="translate(-17.201 -52.67)" fill="#fff"/>
              <path id="Pfad_2240" data-name="Pfad 2240" d="M173.577,116.04a.607.607,0,1,1-.607-.622A.615.615,0,0,1,173.577,116.04Z" transform="translate(-17.201 -52.67)" fill="#fff"/>
              <path id="Pfad_2241" data-name="Pfad 2241" d="M174.189,113.092a.607.607,0,1,1-.607-.623.615.615,0,0,1,.607.623Z" transform="translate(-17.201 -52.67)" fill="#fff"/>
              <path id="Pfad_2242" data-name="Pfad 2242" d="M167.587,114.794a.607.607,0,1,1-.608-.623.616.616,0,0,1,.608.622Z" transform="translate(-17.201 -52.67)" fill="#fff"/>
            </g>
            <g id="Gruppe_1642" data-name="Gruppe 1642">
              <path id="Pfad_2243" data-name="Pfad 2243" d="M174.658,68.9l-.012-.071c-.108-.522-.942-3.76-4.8-2.334-3,1.116-7.352,3.214-9.711,8.032a17.386,17.386,0,0,0-1.66,7.04c-.371,9.346,5.644,6.474,4.084,16.712-1.073,7.033,3.05,8.949,5.55,9.3a.469.469,0,0,1,.1.9l-2.551.96a13.3,13.3,0,0,1,2.79.8,2.268,2.268,0,0,1,.851,2.923c-1.162,3.021-9.148,1.472-9.148,1.472l.905-1.051a.8.8,0,0,0-.477-1.308,9.108,9.108,0,0,1-5.467-2.99c-1.861-2.325,1.083-7.908.7-10.077s-2.871-4.344-7.053-7.367a5.833,5.833,0,0,1-2.039-3.389,17.772,17.772,0,0,1-.062-4.006c.677-7.624,5.366-16.309,7.993-19.5a18.535,18.535,0,0,1,8.114-5.467c3.339-1.139,6.906-1.237,9.716.432C177.988,63.161,174.658,68.9,174.658,68.9Z" transform="translate(-17.201 -52.67)" fill="#28497c"/>
              <path id="Pfad_2244" data-name="Pfad 2244" d="M146.766,84.589a29.352,29.352,0,0,1,1.1-5.57c6.814-3.691,13.379-12.9,14.15-19.084.285-.114.572-.221.864-.324l.011.065C164.226,67.315,155.485,83.349,146.766,84.589Z" transform="translate(-17.201 -52.67)" fill="#647bb8"/>
              <path id="Pfad_2245" data-name="Pfad 2245" d="M173.184,116.265c-.077,5.736-13.72,3.643-13.72,3.643l.883,1.144a.849.849,0,0,1-.837,1.351c-2.938-.6-8.052-2.812-8.572-10.944-.62-9.692,5.892-9.768-1.475-17.132a10,10,0,0,1-2.735-5.872,5.821,5.821,0,0,0,2.037,3.391c4.187,3.021,6.67,5.194,7.058,7.364s-2.562,7.751-.7,10.079a9.116,9.116,0,0,0,5.467,2.99.8.8,0,0,1,.478,1.308l-.907,1.05s7.984,1.553,9.148-1.472a2.267,2.267,0,0,0-.851-2.923C170.616,111.119,173.232,112.884,173.184,116.265Z" transform="translate(-17.201 -52.67)" fill="#17253d"/>
            </g>
            <g id="Gruppe_1651" data-name="Gruppe 1651">
              <g id="Gruppe_1644" data-name="Gruppe 1644">
                <path id="Pfad_2246" data-name="Pfad 2246" d="M94.105,155.367l.007.027a.386.386,0,0,1-.136.064l-.683.173.216.843-.181.046a.746.746,0,0,1-.9-.539l-.044-.176Z" transform="translate(-17.201 -52.67)" fill="#efcec5"/>
                <g id="Gruppe_1643" data-name="Gruppe 1643">
                  <path id="Pfad_2247" data-name="Pfad 2247" d="M87.924,134.3l4.99,19.819-.987.249-5.044-20.032A2.573,2.573,0,0,0,87.924,134.3Z" transform="translate(-17.201 -52.67)" fill="#5978a6"/>
                  <path id="Pfad_2248" data-name="Pfad 2248" d="M87.245,131.582l.684,2.717a2.573,2.573,0,0,1-1.041.036l-.1-.386.051-2.279.223-.045C87.137,131.609,87.185,131.6,87.245,131.582Z" transform="translate(-17.201 -52.67)" fill="#fff0e2"/>
                  <path id="Pfad_2249" data-name="Pfad 2249" d="M86.877,130.116l.369,1.465-.18.042c-.074.016-.148.031-.223.045Z" transform="translate(-17.201 -52.67)" fill="#2c3149"/>
                  <path id="Pfad_2250" data-name="Pfad 2250" d="M88.8,133.9l5.032,19.987-.917.231L87.929,134.3h.018A2.544,2.544,0,0,0,88.8,133.9Z" transform="translate(-17.201 -52.67)" fill="#213759"/>
                  <path id="Pfad_2251" data-name="Pfad 2251" d="M88.7,133.469l.108.432a2.544,2.544,0,0,1-.857.395h-.018l-.684-2.717.108-.026c.108-.026.2-.053.3-.082Z" transform="translate(-17.201 -52.67)" fill="#c4a19e"/>
                  <path id="Pfad_2252" data-name="Pfad 2252" d="M87.655,131.474c-.1.029-.2.056-.3.082-.036.01-.072.018-.108.026l-.369-1.465v-.13Z" transform="translate(-17.201 -52.67)" fill="#030205"/>
                </g>
                <path id="Pfad_2253" data-name="Pfad 2253" d="M94.105,155.367l.007.027a.386.386,0,0,1-.136.064l-1.422.358a.413.413,0,0,1-.5-.3l-.236-.942a.405.405,0,0,1,.294-.493h0l.739-.187.422,1.676Z" transform="translate(-17.201 -52.67)" fill="#2c3149"/>
                <path id="Pfad_2254" data-name="Pfad 2254" d="M94.112,155.394l.038.148a.747.747,0,0,1-.539.905l-.108.026-.216-.843.684-.173A.416.416,0,0,0,94.112,155.394Z" transform="translate(-17.201 -52.67)" fill="#e2beb5"/>
                <path id="Pfad_2255" data-name="Pfad 2255" d="M93.541,153.729l-.684.172.422,1.676.014.055.683-.173a.386.386,0,0,0,.136-.064.4.4,0,0,0,.16-.432l-.237-.942A.407.407,0,0,0,93.541,153.729Z" transform="translate(-17.201 -52.67)" fill="#191e30"/>
              </g>
              <g id="Gruppe_1646" data-name="Gruppe 1646">
                <path id="Pfad_2256" data-name="Pfad 2256" d="M93.3,157.075l.01.027a.392.392,0,0,1-.13.074l-.668.226.278.824-.177.059a.746.746,0,0,1-.944-.467h0l-.058-.171Z" transform="translate(-17.201 -52.67)" fill="#efcec5"/>
                <g id="Gruppe_1645" data-name="Gruppe 1645">
                  <path id="Pfad_2257" data-name="Pfad 2257" d="M85.476,136.56l6.542,19.361-.965.324-6.612-19.57A2.524,2.524,0,0,0,85.476,136.56Z" transform="translate(-17.201 -52.67)" fill="#5978a6"/>
                  <path id="Pfad_2258" data-name="Pfad 2258" d="M84.579,133.906l.9,2.654a2.56,2.56,0,0,1-1.035.118l-.127-.377-.13-2.277c.073-.019.146-.041.216-.063Z" transform="translate(-17.201 -52.67)" fill="#fdefe7"/>
                  <path id="Pfad_2259" data-name="Pfad 2259" d="M84.1,132.474l.484,1.432c-.059.02-.119.039-.177.056l-.215.063Z" transform="translate(-17.201 -52.67)" fill="#2c3149"/>
                  <path id="Pfad_2260" data-name="Pfad 2260" d="M86.316,136.092l6.6,19.53-.9.3-6.542-19.361.017-.006A2.538,2.538,0,0,0,86.316,136.092Z" transform="translate(-17.201 -52.67)" fill="#213759"/>
                  <path id="Pfad_2261" data-name="Pfad 2261" d="M86.174,135.669l.142.42a2.563,2.563,0,0,1-.823.462l-.017.006-.9-2.654.108-.035q.15-.049.3-.108Z" transform="translate(-17.201 -52.67)" fill="#c4a19e"/>
                  <path id="Pfad_2262" data-name="Pfad 2262" d="M84.98,133.765l-.3.108-.108.035-.485-1.432-.007-.129Z" transform="translate(-17.201 -52.67)" fill="#030205"/>
                </g>
                <path id="Pfad_2263" data-name="Pfad 2263" d="M93.3,157.075l.01.027a.442.442,0,0,1-.13.074l-1.39.469a.407.407,0,0,1-.515-.255l-.311-.921a.406.406,0,0,1,.254-.515h0l.723-.244.553,1.636Z" transform="translate(-17.201 -52.67)" fill="#2c3149"/>
                <path id="Pfad_2264" data-name="Pfad 2264" d="M93.309,157.1l.048.145a.747.747,0,0,1-.467.945l-.1.034-.278-.824.668-.225A.39.39,0,0,0,93.309,157.1Z" transform="translate(-17.201 -52.67)" fill="#e2beb5"/>
                <path id="Pfad_2265" data-name="Pfad 2265" d="M92.607,155.483l-.668.227.553,1.636.018.054.668-.226a.4.4,0,0,0,.131-.074.4.4,0,0,0,.124-.44l-.312-.92a.406.406,0,0,0-.513-.258Z" transform="translate(-17.201 -52.67)" fill="#191e30"/>
              </g>
              <g id="Gruppe_1648" data-name="Gruppe 1648">
                <path id="Pfad_2266" data-name="Pfad 2266" d="M88.31,158.336l-.013.025a.393.393,0,0,1-.142-.049l-.614-.346-.432.755-.163-.093a.744.744,0,0,1-.283-1.014h0l.089-.157Z" transform="translate(-17.201 -52.67)" fill="#efcec5"/>
                <g id="Gruppe_1647" data-name="Gruppe 1647">
                  <path id="Pfad_2267" data-name="Pfad 2267" d="M98.368,138.822,88.313,156.613l-.887-.5,10.163-17.984A2.574,2.574,0,0,0,98.368,138.822Z" transform="translate(-17.201 -52.67)" fill="#5978a6"/>
                  <path id="Pfad_2268" data-name="Pfad 2268" d="M99.746,136.382l-1.378,2.44a2.561,2.561,0,0,1-.779-.693l.2-.346,1.609-1.619.192.121Z" transform="translate(-17.201 -52.67)" fill="#fdefe7"/>
                  <path id="Pfad_2269" data-name="Pfad 2269" d="M100.49,135.064l-.745,1.316-.159-.094-.192-.121Z" transform="translate(-17.201 -52.67)" fill="#2c3149"/>
                  <path id="Pfad_2270" data-name="Pfad 2270" d="M99.278,139.139,89.136,157.084l-.824-.466,10.056-17.791.016.009A2.547,2.547,0,0,0,99.278,139.139Z" transform="translate(-17.201 -52.67)" fill="#213759"/>
                  <path id="Pfad_2271" data-name="Pfad 2271" d="M99.5,138.748l-.216.386a2.564,2.564,0,0,1-.893-.3l-.016-.009,1.378-2.44.095.055c.093.052.184.1.277.149Z" transform="translate(-17.201 -52.67)" fill="#c4a19e"/>
                  <path id="Pfad_2272" data-name="Pfad 2272" d="M100.117,136.586c-.093-.047-.184-.1-.277-.149l-.095-.055.745-1.316.091-.091Z" transform="translate(-17.201 -52.67)" fill="#030205"/>
                </g>
                <path id="Pfad_2273" data-name="Pfad 2273" d="M88.31,158.336l-.013.025a.38.38,0,0,1-.143-.049l-1.277-.722a.363.363,0,0,1-.128-.115.4.4,0,0,1-.025-.438l.478-.846a.406.406,0,0,1,.553-.153l.664.374-.85,1.5Z" transform="translate(-17.201 -52.67)" fill="#2c3149"/>
                <path id="Pfad_2274" data-name="Pfad 2274" d="M88.3,158.361l-.076.133a.744.744,0,0,1-1.014.283h0l-.093-.052.432-.755.614.346A.409.409,0,0,0,88.3,158.361Z" transform="translate(-17.201 -52.67)" fill="#e2beb5"/>
                <path id="Pfad_2275" data-name="Pfad 2275" d="M89.031,156.759l-.614-.347-.85,1.5-.028.05.614.346a.406.406,0,0,0,.553-.153l.478-.846A.406.406,0,0,0,89.031,156.759Z" transform="translate(-17.201 -52.67)" fill="#191e30"/>
              </g>
              <g id="Gruppe_1650" data-name="Gruppe 1650">
                <path id="Pfad_2276" data-name="Pfad 2276" d="M92.473,133.748v-.029a.4.4,0,0,1,.151-.011l.7.081.1-.863.186.022a.747.747,0,0,1,.654.827l-.022.179Z" transform="translate(-17.201 -52.67)" fill="#efcec5"/>
                <g id="Gruppe_1649" data-name="Gruppe 1649">
                  <path id="Pfad_2277" data-name="Pfad 2277" d="M90.781,155.636l2.36-20.3,1.011.118-2.384,20.519A2.558,2.558,0,0,0,90.781,155.636Z" transform="translate(-17.201 -52.67)" fill="#5978a6"/>
                  <path id="Pfad_2278" data-name="Pfad 2278" d="M90.457,158.419l.324-2.783a2.548,2.548,0,0,1,.986.337l-.046.395-.856,2.113-.223-.037Z" transform="translate(-17.201 -52.67)" fill="#fdefe7"/>
                  <path id="Pfad_2279" data-name="Pfad 2279" d="M90.284,159.919l.174-1.5.183.025.224.036Z" transform="translate(-17.201 -52.67)" fill="#2c3149"/>
                  <path id="Pfad_2280" data-name="Pfad 2280" d="M89.821,155.7,92.2,135.226l.94.108-2.359,20.3h-.018A2.528,2.528,0,0,0,89.821,155.7Z" transform="translate(-17.201 -52.67)" fill="#405a85"/>
                  <path id="Pfad_2281" data-name="Pfad 2281" d="M89.77,156.142l.051-.441a2.539,2.539,0,0,1,.943-.066h.017l-.324,2.782-.108-.013c-.108-.012-.209-.023-.313-.03Z" transform="translate(-17.201 -52.67)" fill="#f7ad83"/>
                  <path id="Pfad_2282" data-name="Pfad 2282" d="M90.035,158.376c.108.008.208.018.313.03l.108.013-.174,1.5-.048.12Z" transform="translate(-17.201 -52.67)" fill="#030205"/>
                </g>
                <path id="Pfad_2283" data-name="Pfad 2283" d="M92.473,133.748v-.029a.4.4,0,0,1,.151-.011l1.457.169a.375.375,0,0,1,.164.057.4.4,0,0,1,.192.394l-.108.965a.4.4,0,0,1-.439.357h-.01l-.754-.087.2-1.716Z" transform="translate(-17.201 -52.67)" fill="#2c3149"/>
                <path id="Pfad_2284" data-name="Pfad 2284" d="M92.476,133.719l.018-.151a.745.745,0,0,1,.827-.655h0l.108.013-.1.863-.7-.081A.4.4,0,0,0,92.476,133.719Z" transform="translate(-17.201 -52.67)" fill="#fff0e2"/>
                <path id="Pfad_2285" data-name="Pfad 2285" d="M92.42,135.481l.7.081.2-1.716.006-.057-.7-.081a.408.408,0,0,0-.451.357l-.108.964A.407.407,0,0,0,92.42,135.481Z" transform="translate(-17.201 -52.67)" fill="#191e30"/>
              </g>
              <path id="Pfad_2286" data-name="Pfad 2286" d="M97.95,141.939,96.3,157l-.354,3.231H86.3l-2.01-18.293Z" transform="translate(-17.201 -52.67)" fill="#e2e7f5"/>
              <path id="Pfad_2287" data-name="Pfad 2287" d="M96.3,157l-.355,3.237H86.3l-2.011-18.293h3.069C87.521,146.568,88.687,158.31,96.3,157Z" transform="translate(-17.201 -52.67)" fill="#2c3149" opacity="0.2" style="isolation: isolate"/>
            </g>
            <g id="Gruppe_1653" data-name="Gruppe 1653">
              <g id="Gruppe_1652" data-name="Gruppe 1652">
                <path id="Pfad_2288" data-name="Pfad 2288" d="M258.392,136.14l-.012.226h-2l.012-.226a2.616,2.616,0,0,0-2.465-2.759h1.851A2.617,2.617,0,0,1,258.4,136v0A1.373,1.373,0,0,1,258.392,136.14Z" transform="translate(-17.201 -52.67)" fill="#2d425e"/>
                <path id="Pfad_2289" data-name="Pfad 2289" d="M256.4,136.14l-.012.226H241.971l-.012-.226a2.618,2.618,0,0,1,2.469-2.759h9.359A2.617,2.617,0,0,1,256.4,136v0C256.4,136.04,256.4,136.093,256.4,136.14Z" transform="translate(-17.201 -52.67)" fill="#325386"/>
                <path id="Pfad_2290" data-name="Pfad 2290" d="M258.38,136.368l-.114,2-.194,3.388-.78,13.756-.189,3.307a.934.934,0,0,1-.932.879H244.179a.935.935,0,0,1-.933-.879l-.041-.714h10.974a.933.933,0,0,0,.93-.883l.188-3.3.781-13.756.194-3.388.024-.4Z" transform="translate(-17.201 -52.67)" fill="#5c779b"/>
                <path id="Pfad_2291" data-name="Pfad 2291" d="M256.3,136.368l-.024.4-.194,3.388-.781,13.756-.188,3.3a.932.932,0,0,1-.93.883H243.205l-.147-2.59-.781-13.756-.194-3.388-.108-2Z" transform="translate(-17.201 -52.67)" fill="#fffcf7"/>
                <path id="Pfad_2292" data-name="Pfad 2292" d="M258.072,141.753l-.78,13.756h-2.084l.09-1.594.69-12.162Z" transform="translate(-17.201 -52.67)" fill="#476594"/>
                <path id="Pfad_2293" data-name="Pfad 2293" d="M255.988,141.753l-.69,12.162-.09,1.594H243.059l-.78-13.756Z" transform="translate(-17.201 -52.67)" fill="#bac4df"/>
                <path id="Pfad_2294" data-name="Pfad 2294" d="M260.346,137.068a1,1,0,0,1-1,1H241.408a1,1,0,0,1,0-2h17.943A1,1,0,0,1,260.346,137.068Z" transform="translate(-17.201 -52.67)" fill="#3b629e"/>
                <circle id="Ellipse_93" data-name="Ellipse 93" cx="232.875" cy="95.462" r="3.589" fill="#fefffd"/>
              </g>
              <path id="Pfad_2295" data-name="Pfad 2295" d="M251.163,131.865a6.053,6.053,0,0,1-4.531-6.1c0-5.1,7.087-2.552,6.1-10.915a7.524,7.524,0,0,1-1.559,8.93C246.913,127.759,251.163,131.865,251.163,131.865Z" transform="translate(-17.201 -52.67)" fill="#f2f2f2"/>
              <path id="Pfad_2296" data-name="Pfad 2296" d="M253.24,132.663a3.307,3.307,0,0,0,2.864-2.946c.572-2.834-3.121-2.105-1.707-6.654a4.783,4.783,0,0,0-.251,5.112A3.393,3.393,0,0,1,253.24,132.663Z" transform="translate(-17.201 -52.67)" fill="#f2f2f2"/>
            </g>
            <g id="Gruppe_1673" data-name="Gruppe 1673">
              <g id="Gruppe_1671" data-name="Gruppe 1671">
                <g id="Gruppe_1655" data-name="Gruppe 1655">
                  <g id="Gruppe_1654" data-name="Gruppe 1654">
                    <path id="Pfad_2297" data-name="Pfad 2297" d="M55.446,155.658a.226.226,0,0,1-.225-.2c-.071-.582-.159-2.952-.267-5.952-.231-6.3-.578-15.812-1.121-17.875a37.4,37.4,0,0,1-.623-4.532c-.475-4.511-1.187-11.329-3.542-15.856-2.721-5.24-8.256-8.142-11.231-9.7-.714-.375-1.278-.67-1.679-.926a18.568,18.568,0,0,1-3.387-2.7.216.216,0,0,1,.008-.305l.009-.007a.231.231,0,0,1,.324.016,18.67,18.67,0,0,0,3.3,2.628c.383.245.971.551,1.644.906,3.021,1.582,8.632,4.532,11.422,9.892,2.389,4.6,3.112,11.466,3.59,16.01a37.064,37.064,0,0,0,.611,4.462c.555,2.111.9,11.653,1.135,17.969.108,2.99.2,5.352.264,5.915a.223.223,0,0,1-.194.246h0Z" transform="translate(-17.201 -52.67)" fill="#647bb8"/>
                  </g>
                </g>
                <g id="Gruppe_1657" data-name="Gruppe 1657">
                  <g id="Gruppe_1656" data-name="Gruppe 1656">
                    <path id="Pfad_2298" data-name="Pfad 2298" d="M56.655,154.942a.227.227,0,0,1-.222-.175A156.833,156.833,0,0,0,49.674,133.3c-3.785-9.539-6.389-10.671-11.113-12.724-.962-.418-2.05-.891-3.246-1.477a24.248,24.248,0,0,1-4.809-3.358.216.216,0,0,1-.018-.3l.007-.009a.232.232,0,0,1,.324-.011,24.235,24.235,0,0,0,4.7,3.285c1.187.582,2.266,1.053,3.227,1.469,4.837,2.1,7.5,3.26,11.354,12.969a157.226,157.226,0,0,1,6.78,21.534.224.224,0,0,1-.175.263h0A.209.209,0,0,1,56.655,154.942Z" transform="translate(-17.201 -52.67)" fill="#647bb8"/>
                  </g>
                </g>
                <g id="Gruppe_1658" data-name="Gruppe 1658">
                  <path id="Pfad_2299" data-name="Pfad 2299" d="M47.231,140.722a10.877,10.877,0,0,0,4.329,2.358s.99-2-1.541-3.571C50.016,139.508,48.7,138.544,47.231,140.722Z" transform="translate(-17.201 -52.67)" fill="#28497c"/>
                </g>
                <g id="Gruppe_1660" data-name="Gruppe 1660">
                  <g id="Gruppe_1659" data-name="Gruppe 1659">
                    <path id="Pfad_2300" data-name="Pfad 2300" d="M56.525,127.033a12.605,12.605,0,0,1-5.4-6.282,1.853,1.853,0,0,1,.269-1.7l2.2-3.031a.982.982,0,0,1,1.374-.2h0l3.509,2.639-2.635-4.089a2.492,2.492,0,0,1,.17-2.941l4.225-5.16,7.435,3.9s-.293,6.38-2.641,8.856a15,15,0,0,0-2.935,3.9S57.112,124.743,56.525,127.033Z" transform="translate(-17.201 -52.67)" fill="#647bb8"/>
                  </g>
                </g>
                <g id="Gruppe_1662" data-name="Gruppe 1662">
                  <g id="Gruppe_1661" data-name="Gruppe 1661">
                    <path id="Pfad_2301" data-name="Pfad 2301" d="M65.233,135.6s1.174-3.047.1-4.952.587-3.619,2.935-4.667,1.859-2.1,4.012-2.19,3.522-1.048,6.458-1.9,13.4.667,13.4.667-6.457.476-8.512,2.666-3.228,3.047-5.179,2.19-2.643.095-3.425,1.048-2.446,2.857-4.012,3.237A9.449,9.449,0,0,0,65.233,135.6Z" transform="translate(-17.201 -52.67)" fill="#e2e7f5"/>
                  </g>
                </g>
                <g id="Gruppe_1664" data-name="Gruppe 1664">
                  <g id="Gruppe_1663" data-name="Gruppe 1663">
                    <path id="Pfad_2302" data-name="Pfad 2302" d="M50.533,139.865s-1.566-1.048-2.837.952-2.446,2.1-3.913,1.905a2.947,2.947,0,0,1-3.129,1.9c-2.641,0-4.208,3.619-4.208,3.619a3.5,3.5,0,0,1-.2-3.429c.978-1.619-2.152-1.429-1.079-2.856s4.4-6.19,7.925-5.142,2.446,2,2.446,2S49.066,137.77,50.533,139.865Z" transform="translate(-17.201 -52.67)" fill="#e2e7f5"/>
                  </g>
                </g>
                <g id="Gruppe_1665" data-name="Gruppe 1665">
                  <path id="Pfad_2303" data-name="Pfad 2303" d="M37.337,145.352h-.022a.222.222,0,0,1-.2-.241h0c.562-5.686,8.332-6.5,8.416-6.513a.224.224,0,0,1,.248.2v0a.223.223,0,0,1-.2.242h0c-.074.008-7.476.792-8,6.116A.225.225,0,0,1,37.337,145.352Z" transform="translate(-17.201 -52.67)" fill="#28497c"/>
                </g>
                <g id="Gruppe_1666" data-name="Gruppe 1666">
                  <path id="Pfad_2304" data-name="Pfad 2304" d="M52.587,156.656a.226.226,0,0,1-.222-.177c-1.568-7.562,1.175-22.705,3.677-29.4a94.877,94.877,0,0,1,6.328-12.963.233.233,0,0,1,.311-.081.216.216,0,0,1,.089.291h0l-.006.012a94.432,94.432,0,0,0-6.294,12.893c-2.482,6.651-5.213,21.676-3.66,29.163a.216.216,0,0,1-.161.258h-.017A.228.228,0,0,1,52.587,156.656Z" transform="translate(-17.201 -52.67)" fill="#28497c"/>
                </g>
                <g id="Gruppe_1667" data-name="Gruppe 1667">
                  <path id="Pfad_2305" data-name="Pfad 2305" d="M60.072,154.157a.261.261,0,0,1-.057-.008.216.216,0,0,1-.167-.255h0v-.015l4.182-15.57a21.645,21.645,0,0,1,8.524-11.977,22.492,22.492,0,0,1,14.37-3.95.223.223,0,0,1,.2.244v0h0a.226.226,0,0,1-.256.191,21.988,21.988,0,0,0-14.045,3.871,21.162,21.162,0,0,0-8.348,11.72l-4.185,15.582A.228.228,0,0,1,60.072,154.157Z" transform="translate(-17.201 -52.67)" fill="#28497c"/>
                </g>
                <g id="Gruppe_1669" data-name="Gruppe 1669">
                  <g id="Gruppe_1668" data-name="Gruppe 1668">
                    <path id="Pfad_2306" data-name="Pfad 2306" d="M63.57,119.225s.2-4.855-2.544-8c-.547-.628-.993-1.172-1.355-1.64a3.335,3.335,0,0,1,.23-4.357,18.94,18.94,0,0,0,3.573-4.764,16.543,16.543,0,0,1,.7-1.55,1.678,1.678,0,0,1,2.273-.682l0,0,.023.012,2.975,1.645-2.01-3.3a2.087,2.087,0,0,1,.353-2.613,10.754,10.754,0,0,1,4.1-2.557A17.249,17.249,0,0,0,77.659,87.9s5.968-1.429,9.387,0c0,0-4.4,2.857-4.4,5.333s-2.252,4.095-1.567,5.9-3.327,1.238-3.129,2.762h0a1.337,1.337,0,0,1-1.179,1.479h0a1.093,1.093,0,0,1-.139.009,20.563,20.563,0,0,0-6.215,1.178s5.674-.381,7.827.762c0,0-3.033-.762-2.935,1.714s-.686,2.666-4.5,3.618S63.57,119.225,63.57,119.225Z" transform="translate(-17.201 -52.67)" fill="#e2e7f5"/>
                  </g>
                </g>
                <g id="Gruppe_1670" data-name="Gruppe 1670">
                  <path id="Pfad_2307" data-name="Pfad 2307" d="M57.066,155.157h-.024a.221.221,0,0,1-.2-.24h0c0-.02.225-2.114.661-5.575.417-3.323,4.676-26.226,5.853-30.175,1.766-5.926,5.447-17,10.25-24.553,4.7-7.4,11.505-6.961,11.573-6.955a.221.221,0,0,1-.036.441h0c-.065,0-6.6-.411-11.15,6.747-4.774,7.513-8.44,18.539-10.2,24.443-1.174,3.938-5.422,26.789-5.839,30.1-.431,3.453-.657,5.546-.659,5.566A.226.226,0,0,1,57.066,155.157Z" transform="translate(-17.201 -52.67)" fill="#28497c"/>
                </g>
              </g>
              <g id="Gruppe_1672" data-name="Gruppe 1672">
                <rect id="Rechteck_324" data-name="Rechteck 324" x="29.406" y="95.491" width="19.802" height="12.412" fill="#bbc8e9"/>
                <path id="Pfad_2308" data-name="Pfad 2308" d="M66.408,158.014v2.558h-19.8V148.157h2.968C49.43,151.452,50.558,159.946,66.408,158.014Z" transform="translate(-17.201 -52.67)" fill="#2c3149" opacity="0.3" style="isolation: isolate"/>
              </g>
            </g>
            <g id="Gruppe_1676" data-name="Gruppe 1676">
              <g id="Gruppe_1675" data-name="Gruppe 1675">
                <path id="Pfad_2309" data-name="Pfad 2309" d="M163.6,122.018l-.021-.016a.37.37,0,0,1,.062-.122l.39-.51-.629-.48.108-.136a.679.679,0,0,1,.952-.126h0l.13.1Z" transform="translate(-17.201 -52.67)" fill="#171a30"/>
                <g id="Gruppe_1674" data-name="Gruppe 1674">
                  <path id="Pfad_2310" data-name="Pfad 2310" d="M179.933,133.541l-14.781-11.3.562-.737,14.942,11.426A2.314,2.314,0,0,0,179.933,133.541Z" transform="translate(-17.201 -52.67)" fill="#171a30"/>
                  <path id="Pfad_2311" data-name="Pfad 2311" d="M181.959,135.09l-2.026-1.549a2.32,2.32,0,0,1,.722-.615l.288.216L182.2,134.8l-.133.159Z" transform="translate(-17.201 -52.67)" fill="#2c3149"/>
                  <path id="Pfad_2312" data-name="Pfad 2312" d="M183.052,135.927l-1.092-.836.107-.132.134-.159Z" transform="translate(-17.201 -52.67)" fill="#171a30"/>
                  <path id="Pfad_2313" data-name="Pfad 2313" d="M179.53,134.325l-14.907-11.4.523-.684,14.782,11.3-.011.014A2.356,2.356,0,0,0,179.53,134.325Z" transform="translate(-17.201 -52.67)" fill="#03051a"/>
                  <path id="Pfad_2314" data-name="Pfad 2314" d="M179.854,134.563l-.324-.245a2.361,2.361,0,0,1,.387-.767l.011-.014,2.026,1.549-.062.079c-.057.077-.115.153-.168.231Z" transform="translate(-17.201 -52.67)" fill="#2c3149"/>
                  <path id="Pfad_2315" data-name="Pfad 2315" d="M181.728,135.4c.054-.078.108-.154.17-.231l.062-.079,1.093.836.071.094Z" transform="translate(-17.201 -52.67)" fill="#03051a"/>
                </g>
                <path id="Pfad_2316" data-name="Pfad 2316" d="M163.6,122.018l-.021-.016a.37.37,0,0,1,.062-.122l.811-1.061a.363.363,0,0,1,.521-.075l.7.54a.371.371,0,0,1,.069.518l-.422.551-1.25-.955Z" transform="translate(-17.201 -52.67)" fill="#373b4c"/>
                <path id="Pfad_2317" data-name="Pfad 2317" d="M163.578,122l-.108-.084a.679.679,0,0,1-.127-.952h0l.059-.077.629.48-.389.51A.322.322,0,0,0,163.578,122Z" transform="translate(-17.201 -52.67)" fill="#03051a"/>
                <path id="Pfad_2318" data-name="Pfad 2318" d="M164.933,122.867l.39-.51-1.25-.955-.041-.032-.388.51a.312.312,0,0,0-.061.122.367.367,0,0,0,.129.4l.7.539a.373.373,0,0,0,.521-.074Z" transform="translate(-17.201 -52.67)" fill="#2c3149"/>
              </g>
              <path id="Pfad_2319" data-name="Pfad 2319" d="M179.819,132.713a.775.775,0,0,1-.194-.058l-.349-.162-.473-1.581a1.8,1.8,0,0,0-1.187-1.271l-3.752-1.219s-.531.114-1.133-1.088l4.627.555,2.266,2.153Z" transform="translate(-17.201 -52.67)" fill="#c4a19e"/>
              <path id="Pfad_2320" data-name="Pfad 2320" d="M178.459,133.345a2.121,2.121,0,0,1-.181.863l-.613,1.4h0c-.145,0-.34-.087-.494-.47l-.05.054-.089-.193.16-.367a1.206,1.206,0,0,0-.585-1.57l-3.115-1.487s-.462-.117-.715-.856l4.4.922a1.582,1.582,0,0,1,1.178,1.06A2.1,2.1,0,0,1,178.459,133.345Z" transform="translate(-17.201 -52.67)" fill="#c4a19e"/>
              <path id="Pfad_2321" data-name="Pfad 2321" d="M175.828,136.057a1.533,1.533,0,0,1-.324.023s-.018.023-.05.058l-.067-.2s.094-.371-1.132-.856a19.886,19.886,0,0,1-1.829-.81s-.254-.047-.624-.6l3.745,1.442a.622.622,0,0,1,.355.8A.588.588,0,0,1,175.828,136.057Z" transform="translate(-17.201 -52.67)" fill="#c4a19e"/>
              <path id="Pfad_2322" data-name="Pfad 2322" d="M174.841,136.634a1.168,1.168,0,0,1-.4.138,24.542,24.542,0,0,1-3.377-.557l-2.292.719a8.944,8.944,0,0,1-4.893.135l-.3-.076a3.042,3.042,0,0,0-2.463.432l-17.945,12.21-1.066-1.666L160.741,136.5a4.021,4.021,0,0,1,3.082-.475,11.73,11.73,0,0,0,7.2-.593Z" transform="translate(-17.201 -52.67)" fill="#c4a19e"/>
              <path id="Pfad_2323" data-name="Pfad 2323" d="M180.224,129.781v2.85a.592.592,0,0,1-.406.082l-.2-2.672-2.266-2.153-4.627-.555c.6,1.2,1.133,1.088,1.133,1.088l3.753,1.219a1.8,1.8,0,0,1,1.187,1.271l.287,1.141.54.6a1.262,1.262,0,0,1-.443-.371v.508a1.732,1.732,0,0,1-.231.863l-1.089,1.888a.393.393,0,0,1-.2.054l.613-1.4a2.105,2.105,0,0,0,.078-1.51,1.584,1.584,0,0,0-1.179-1.06l-4.4-.922c.254.739.715.856.715.856l3.115,1.487a1.205,1.205,0,0,1,.585,1.57l-.16.367.09.193-.332.358a1.665,1.665,0,0,1-.96.515.621.621,0,0,0-.14-.867.576.576,0,0,0-.14-.076l-3.745-1.441c.371.556.624.6.624.6q.894.45,1.829.81c1.226.484,1.132.856,1.132.856l.067.2a2.6,2.6,0,0,1-.273.262,1.949,1.949,0,0,1-.341.235,1.16,1.16,0,0,1-.4.138,24.567,24.567,0,0,1-3.377-.557l-2.292.719a8.944,8.944,0,0,1-4.893.135l-1.63-.414-19.084,12.98-1.066-1.666-4.347-6.8,19.155-7.7,5.274-2.359,6.15-4.309a6.5,6.5,0,0,1,4.368-1.146l4.266.423a2.342,2.342,0,0,1,1.657.95l1.281,1.763A1.692,1.692,0,0,1,180.224,129.781Z" transform="translate(-17.201 -52.67)" fill="#fff0e2"/>
            </g>
            <g id="Gruppe_1678" data-name="Gruppe 1678">
              <g id="Gruppe_1677" data-name="Gruppe 1677">
                <rect id="Rechteck_325" data-name="Rechteck 325" x="120.482" y="101.587" width="57.674" height="3.13" fill="#112133"/>
                <path id="Rechteck_326" data-name="Rechteck 326" d="M135.609,157.387h61.817a1.95,1.95,0,0,1,1.951,1.949v1.18H133.658v-1.178A1.95,1.95,0,0,1,135.609,157.387Z" transform="translate(-17.201 -52.67)" fill="#213759"/>
                <path id="Pfad_2324" data-name="Pfad 2324" d="M208.935,152.478H123.9a5.269,5.269,0,0,1-4.363-2.332l-9.018-11.66c-.732-1.079.7-3.222,1.99-3.222H220.328c1.295,0,2.722,2.142,1.991,3.222l-9.018,11.66A5.277,5.277,0,0,1,208.935,152.478Z" transform="translate(-17.201 -52.67)" fill="#112133"/>
                <path id="Pfad_2325" data-name="Pfad 2325" d="M222.661,139.6l-.4.59-6.06,8.8-2.021,2.937a5.386,5.386,0,0,1-4.436,2.332H123.3a5.389,5.389,0,0,1-4.435-2.332l-8.486-12.331a1.63,1.63,0,0,1,1.342-2.551h109.6a1.6,1.6,0,0,1,1.187.5A1.623,1.623,0,0,1,222.661,139.6Z" transform="translate(-17.201 -52.67)" fill="#213759"/>
                <path id="Pfad_2326" data-name="Pfad 2326" d="M182.149,137.045l-33.9,17.213H130.475l33.9-17.213Z" transform="translate(-17.201 -52.67)" fill="#fff" opacity="0.07" style="isolation: isolate"/>
                <path id="Pfad_2327" data-name="Pfad 2327" d="M194.282,137.045l-33.9,17.213h-5.7l33.9-17.213Z" transform="translate(-17.201 -52.67)" fill="#fff" opacity="0.07" style="isolation: isolate"/>
              </g>
            </g>
            <g id="Gruppe_1679" data-name="Gruppe 1679">
              <path id="Pfad_2328" data-name="Pfad 2328" d="M213.667,135.18s.385-1.669,3.38-1.541l-.385,1.583Z" transform="translate(-17.201 -52.67)" fill="#c4a19e"/>
              <path id="Pfad_2329" data-name="Pfad 2329" d="M221.849,140.838l-6.958,10.109-2.027-.357-2.606-.462h-.023s.008-.013.012-.018c.724-1,2.447-1.167,3.856-1.119.282.008.549.026.8.048l-.729-.133-3.621-.66.01-.015h.005a.064.064,0,0,1,.018-.025c.963-1.325,3.429-1.366,5.08-1.225q.8.068,1.6.216l.057-.082-1.541-.283-5.226-.952a1.422,1.422,0,0,1,.108-.144h0c1.351-1.669,4.855-1.474,6.643-1.247l-4.532-.83a2.557,2.557,0,0,1,.568-.588h0c1.511-1.14,4.339-1.019,5.989-.829.77.09,1.284.194,1.284.194l.635-.933.551-.817Z" transform="translate(-17.201 -52.67)" fill="#09111a"/>
              <path id="Pfad_2330" data-name="Pfad 2330" d="M216.765,150.674l-6-1.061h-.023c.005,0,.008-.013.013-.017,1.322-1.815,5.968-.891,5.968-.891l.417-.6.486-.7.5,1.645a1.2,1.2,0,0,1-1.36,1.617Z" transform="translate(-17.201 -52.67)" fill="#fff0e2"/>
              <path id="Pfad_2331" data-name="Pfad 2331" d="M217.24,148.6a.694.694,0,0,1-.55.81.7.7,0,0,1-.292-.008c-4.507-1.071-5.523.072-5.629.216l-.013.015v-.038c1.322-1.815,5.968-.891,5.968-.891l.417-.6Z" transform="translate(-17.201 -52.67)" fill="#c4a19e"/>
              <path id="Pfad_2332" data-name="Pfad 2332" d="M217.809,148.96l-6.753-1.232.01-.015h0a.065.065,0,0,1,.017-.026c1.5-2.066,6.677-1.007,6.677-1.007l.406-.6.608-.9.555,1.9a1.38,1.38,0,0,1-1.524,1.874Z" transform="translate(-17.201 -52.67)" fill="#fff0e2"/>
              <path id="Pfad_2333" data-name="Pfad 2333" d="M218.293,146.692a.691.691,0,0,1-.842.8c-4.957-1.2-6.182-.022-6.36.193,1.5-2.066,6.677-1.007,6.677-1.007l.406-.6Z" transform="translate(-17.201 -52.67)" fill="#c4a19e"/>
              <path id="Pfad_2334" data-name="Pfad 2334" d="M218.952,146.8l-7.893-1.441a1.374,1.374,0,0,1,.108-.143l0,0c1.848-2.282,7.729-1.079,7.729-1.079l.5-.737.685-1.011.647,2.223a1.611,1.611,0,0,1-1.782,2.194Z" transform="translate(-17.201 -52.67)" fill="#fff0e2"/>
              <path id="Pfad_2335" data-name="Pfad 2335" d="M218.668,144.883c-5.611-1.013-7.172.026-7.5.324,1.848-2.282,7.729-1.079,7.729-1.079l.5-.737.144.54a.762.762,0,0,1-.877.953Z" transform="translate(-17.201 -52.67)" fill="#c4a19e"/>
              <path id="Pfad_2336" data-name="Pfad 2336" d="M211.069,147.712h.005l-.005.008Z" transform="translate(-17.201 -52.67)" fill="#ec685a"/>
              <path id="Pfad_2337" data-name="Pfad 2337" d="M221.179,144.578l-7.893-1.443a2.548,2.548,0,0,1,.567-.587h0c2.21-1.67,7.272-.634,7.272-.634l.635-.934.551-.817.647,2.223a1.618,1.618,0,0,1-1.785,2.191Z" transform="translate(-17.201 -52.67)" fill="#fff0e2"/>
              <path id="Pfad_2338" data-name="Pfad 2338" d="M220.738,142.4c-4.357-.755-6.18-.233-6.884.149,2.21-1.67,7.272-.633,7.272-.633l.633-.934.062.236a.951.951,0,0,1-1.083,1.183Z" transform="translate(-17.201 -52.67)" fill="#c4a19e"/>
            </g>
          </g>
        </g>
      </g>
    </g>
  </g>
</svg>
