<svg xmlns="http://www.w3.org/2000/svg" xmlns:xlink="http://www.w3.org/1999/xlink" viewBox="0 0 264.036 181.535">
  <defs>
    <clipPath id="clip-path" transform="translate(-17.201 -33.229)">
      <path d="M300,62.131a150,150,0,0,1-300,0C0-20.71,300-20.71,300,62.131Z" fill="none"/>
    </clipPath>
  </defs>
  <title>B_praxis</title>
  <g id="Ebene_2" data-name="Ebene 2">
    <g id="Ebene_1-2" data-name="Ebene 1">
      <g id="Gruppe_1174" data-name="Gruppe 1174">
        <g clip-path="url(#clip-path)">
          <g>
            <g id="Gruppe_2210" data-name="Gruppe 2210">
              <path id="Pfad_2987" data-name="Pfad 2987" d="M132.016,159.55s-5.4-.8-10.847-2.175c-.172-.042-.342-.09-.514-.133-1.292-.338-2.573-.7-3.78-1.1-.172-.062-.342-.119-.508-.176a22.14,22.14,0,0,1-4.313-1.9,5.407,5.407,0,0,1-.494-.324,4.355,4.355,0,0,1-1.3-1.3c-2.446-4.256-4.056-43.057-.874-47.706a17.6,17.6,0,0,1,1.5-1.89c.186-.209.375-.409.565-.609a30.232,30.232,0,0,1,3.528-3.082c.176-.128.342-.252.5-.371a33.561,33.561,0,0,1,3.083-2l13.317,2.76Z" transform="translate(-17.201 -33.229)" fill="#637795"/>
            </g>
            <path id="Pfad_2988" data-name="Pfad 2988" d="M176.944,160.235c-.038-.5-.077-1.012-.119-1.559a136.973,136.973,0,0,0-1.8-13.966c.283-.07.5-.341.28-.621a2.184,2.184,0,0,0-.5-.469c-.053-.261-.1-.524-.159-.785-.119-.559-1.03-.323-.912.236.011.053.021.1.031.157a16.691,16.691,0,0,0-3.08.132,80.478,80.478,0,0,1-9.343-.271c-6.053-.458-12.135-1.225-18.214-.7-2.621.224-5.18.758-7.758,1.235a36.93,36.93,0,0,1-5.3.685c-1.6.06-3.154-.445-4.711-.416a1.724,1.724,0,0,0-1.9,1.479,14.233,14.233,0,0,0-.544,4.3c-1.577,3.219-3.178,7.175-3.392,10.564Z" transform="translate(-17.201 -33.229)" fill="#7693bc"/>
            <path id="Pfad_2989" data-name="Pfad 2989" d="M135.325,133.622a60.437,60.437,0,0,0-2.267-11.7c-.38-1.448-.745-2.877-1.057-4.29-.069-.317-.131-.639-.186-.955a38.191,38.191,0,0,1-.278-9.127c.054-.867.118-1.735.176-2.608.049-.755.1-1.506.151-2.262q.314-4.761.629-9.517c.025-.4.054-.8.078-1.2.079-1.18.215-2.389.307-3.593a24.026,24.026,0,0,0,.073-3,3.113,3.113,0,0,0-1.566-2.968.25.25,0,0,0-.155-.015c-.039-.01-.78-1.594-.829-1.594-.712.171-1.419.327-2.116.488-4.315.98-9.711,2.076-11.261,6.917-.033.1-.062.2-.092.3-.812,2.844-1.881,5.55-2.16,8.521-.242,2.553-.157,5.137-.563,7.675-.418,2.615-1.26,5.144-1.631,7.769-.411,2.91-.087,5.831-.614,8.747-.576,3.192-1.633,6.279-1.7,9.551a7.478,7.478,0,0,0,1.262,4.553,10.487,10.487,0,0,0,5.7,3.686,51.883,51.883,0,0,0,7.341,1.292c.834.122,1.672.22,2.511.3a61.379,61.379,0,0,0,7.289.278.251.251,0,0,0,.233-.18,18.572,18.572,0,0,0,.5-2.2A22.278,22.278,0,0,0,135.325,133.622Z" transform="translate(-17.201 -33.229)" fill="#213759"/>
            <g id="Gruppe_2211" data-name="Gruppe 2211">
              <path id="Pfad_2990" data-name="Pfad 2990" d="M147.9,150.689c-11.861,0-21.489-.867-21.6-.878a.237.237,0,0,1,.043-.473,265.144,265.144,0,0,0,27.8.791c13.51-.379,20.339-1.88,20.406-1.895a.238.238,0,0,1,.1.464c-.068.015-6.933,1.525-20.5,1.906C152.038,150.663,149.937,150.689,147.9,150.689Z" transform="translate(-17.201 -33.229)" fill="#253448"/>
            </g>
            <g id="Gruppe_2212" data-name="Gruppe 2212">
              <path id="Pfad_2991" data-name="Pfad 2991" d="M130.6,150.13h-.024a.237.237,0,0,1-.212-.259h0l.237-2.374a.24.24,0,0,1,.26-.213.236.236,0,0,1,.211.259h0l-.237,2.375A.238.238,0,0,1,130.6,150.13Z" transform="translate(-17.201 -33.229)" fill="#253448"/>
            </g>
            <g id="Gruppe_2213" data-name="Gruppe 2213">
              <path id="Pfad_2992" data-name="Pfad 2992" d="M131.826,150.13h-.019a.237.237,0,0,1-.218-.256l.19-2.374a.238.238,0,0,1,.475.017v.021l-.19,2.374A.238.238,0,0,1,131.826,150.13Z" transform="translate(-17.201 -33.229)" fill="#253448"/>
            </g>
            <g id="Gruppe_2214" data-name="Gruppe 2214">
              <path id="Pfad_2993" data-name="Pfad 2993" d="M173.62,148.7a.235.235,0,0,1-.236-.218l-.2-2.494a.237.237,0,0,1,.216-.256h0a.246.246,0,0,1,.255.218l.2,2.494a.237.237,0,0,1-.216.256h-.021Z" transform="translate(-17.201 -33.229)" fill="#253448"/>
            </g>
            <g id="Gruppe_2215" data-name="Gruppe 2215">
              <path id="Pfad_2994" data-name="Pfad 2994" d="M172.55,149.06a.237.237,0,0,1-.235-.216l-.237-2.612a.237.237,0,0,1,.214-.258h0a.243.243,0,0,1,.258.215l.237,2.612a.237.237,0,0,1-.214.258h-.024Z" transform="translate(-17.201 -33.229)" fill="#253448"/>
            </g>
            <g id="Gruppe_2216" data-name="Gruppe 2216">
              <path id="Pfad_2995" data-name="Pfad 2995" d="M154.1,149.877a1.438,1.438,0,1,1,1.129-1.691,1.4,1.4,0,0,1,.028.281A1.3,1.3,0,0,1,154.1,149.877Zm0-2.345c-.377,0-.683.419-.683.934s.306.936.683.936.683-.42.683-.936S154.474,147.532,154.1,147.532Z" transform="translate(-17.201 -33.229)" fill="#253448"/>
            </g>
            <path id="Pfad_2996" data-name="Pfad 2996" d="M191.069,79.107s3.282,24.5-.794,27.781-8.477,1.888-7.927-6.826,1.245-20.184,1.245-20.184Z" transform="translate(-17.201 -33.229)" fill="#efd3c7"/>
            <path id="Pfad_2997" data-name="Pfad 2997" d="M160.806,39.455a10.335,10.335,0,0,0-8.705-5.332,17.779,17.779,0,0,0-11.924.281,16.088,16.088,0,0,0-7.851,6.741,9.729,9.729,0,0,0-1.073,2.917,9.594,9.594,0,0,0-.583,2.29,20.982,20.982,0,0,1-.538,4.093,12.882,12.882,0,0,1-1.734,3.232c-1.2,1.735-2.628,3.42-3.215,5.484-.8,2.822.834,5.744-.914,8.361-1.277,1.91-3.226,3.526-3.428,5.985-.088,1.079.956,1.542.828,2.571-.11.884-.91,1.432-.511,2.4.927,2.245,4.319.93,6.037,1.376a25.933,25.933,0,0,0,3.337,1.006,9.767,9.767,0,0,0,3.6-.472,12.931,12.931,0,0,1,2.681-.491,16.211,16.211,0,0,0,2.444-.023,4.886,4.886,0,0,0,1.461-.59c.206-.111.4-.242.615-.342a9.411,9.411,0,0,1,1.269-.3c.9-.314.582-1.234.474-1.991-.045-.314-.094-.628-.144-.941.421.078.841.162,1.257.259a9.117,9.117,0,0,0,3.242.493,4.386,4.386,0,0,0,2.687-1.681A8.67,8.67,0,0,0,152,74.764c.957-.1,2.488,3.019,3.134,2.484,1.111-.92,2.2-1.663,1.841-5.462-.131-1.392,3.68-3.741,5.16-13.409a55.245,55.245,0,0,0,.657-6.57C162.936,47.626,162.914,43.206,160.806,39.455Z" transform="translate(-17.201 -33.229)" fill="#17253d"/>
            <path id="Pfad_2998" data-name="Pfad 2998" d="M172.814,83.964c-.85-2.1-3.542-3.12-5.508-3.453a25.252,25.252,0,0,1-5.216-1.5c-.337-.138-.659-.275-.978-.423-3.078-1.387-5.3-3.077-5.895-3.975-.95-1.425-1.016-9.5-.237-13.289a.235.235,0,0,0-.2-.265.229.229,0,0,0-.064,0q-5.964.677-11.964.859c-.01-.7-.019-1.41-.028-2.113,0-.3-.47-.243-.47.056,0,.694.014,1.382.024,2.076-.162,0-.324.01-.48.018-.119-.151-.7-1.472-.708-1.234-.142,2.545.219,6.426,0,8.966a11.582,11.582,0,0,1-.722,3.933,8.243,8.243,0,0,1-3.134,3.215c-1.026.674-7,3.106-7,3.106s6.283,5.884,7.39,6.1c3.277.651,6.621,1.1,9.931,1.548a37.052,37.052,0,0,0,9.028-.067A6.06,6.06,0,0,0,158.81,89.9a15.352,15.352,0,0,0,5.433,1.629c2.4.408,4.811.8,7.214,1.206a.242.242,0,0,0,.294-.162,22.286,22.286,0,0,0,.9-4.275C172.766,87.2,173.242,85.032,172.814,83.964Z" transform="translate(-17.201 -33.229)" fill="#efd3c7"/>
            <path id="Pfad_2999" data-name="Pfad 2999" d="M159.411,50.848c-.27-6.128-.484-6.763-.893-7.439-2.256-3.733-7.584-3.986-8-4-2.6-.088-4.584.854-7,2a10.029,10.029,0,0,0-3,2,9.444,9.444,0,0,0-2,3c-1.758,4-.674,8.383-.048,10.914a19.134,19.134,0,0,0,2.46,6.059,11.244,11.244,0,0,0,5.046,4.349,10.342,10.342,0,0,0,8.646-.537c3.718-2.221,4.484-6.491,4.9-8.785A52.57,52.57,0,0,0,159.411,50.848Z" transform="translate(-17.201 -33.229)" fill="#efd3c7"/>
            <path id="Pfad_3000" data-name="Pfad 3000" d="M138.337,50.75s-1.874-1.109-2.3,1.918.552,5.11,2.13,5.248,2.012-2.213,2.012-2.213Z" transform="translate(-17.201 -33.229)" fill="#ffa18a"/>
            <path id="Pfad_3001" data-name="Pfad 3001" d="M155.56,50.862c1.175-.23.968,2.6.1,2.618a.705.705,0,0,1-.542-.273C154.66,52.656,154.668,51.036,155.56,50.862Z" transform="translate(-17.201 -33.229)" fill="#17253d"/>
            <path id="Pfad_3002" data-name="Pfad 3002" d="M144.593,50.862c1.175-.23.968,2.6.1,2.618a.705.705,0,0,1-.542-.273C143.693,52.656,143.7,51.036,144.593,50.862Z" transform="translate(-17.201 -33.229)" fill="#17253d"/>
            <path id="Pfad_3003" data-name="Pfad 3003" d="M147.033,60.091a10.76,10.76,0,0,0,3.325.589,11.926,11.926,0,0,0,3.839-.159,3.885,3.885,0,0,1-7.163-.431Z" transform="translate(-17.201 -33.229)" fill="#fff"/>
            <g id="Gruppe_2217" data-name="Gruppe 2217">
              <path id="Pfad_3004" data-name="Pfad 3004" d="M138.054,55.815a.231.231,0,0,1-.125-.037,1.607,1.607,0,0,1-.6-1.132,3.055,3.055,0,0,1,.384-1.72.238.238,0,0,1,.413.235,2.6,2.6,0,0,0-.328,1.408,1.218,1.218,0,0,0,.387.81.239.239,0,0,1,.065.328A.236.236,0,0,1,138.054,55.815Z" transform="translate(-17.201 -33.229)" fill="#f2795c"/>
            </g>
            <path id="Pfad_3005" data-name="Pfad 3005" d="M147.432,47.632a8.913,8.913,0,0,0-2.9-.138,16.5,16.5,0,0,0-1.758.24,3.125,3.125,0,0,0-1.525.51c-.35.356.677.244.915.251.793.026,1.588-.044,2.583-.056.769-.009,1.545.084,2.313.077.322,0,.686.035.9-.2C148.305,47.94,147.843,47.735,147.432,47.632Z" transform="translate(-17.201 -33.229)" fill="#253448"/>
            <path id="Pfad_3006" data-name="Pfad 3006" d="M153.914,48.314c.173.236.469.2.729.2.623.008,1.25-.085,1.873-.077.806.011,1.45.081,2.091.055.193-.008,1.024.1.741-.25-.4-.5-1.4-.6-2.1-.686a7.034,7.034,0,0,0-2.9.074C154.014,47.734,153.644,47.938,153.914,48.314Z" transform="translate(-17.201 -33.229)" fill="#253448"/>
            <path id="Pfad_3007" data-name="Pfad 3007" d="M139.214,51.663s-1.763-1.317-2.473,1.821.073,5.406,1.632,5.681,2.213-2.156,2.213-2.156Z" transform="translate(-17.201 -33.229)" fill="#efd3c7"/>
            <g id="Gruppe_2218" data-name="Gruppe 2218">
              <path id="Pfad_3008" data-name="Pfad 3008" d="M142.123,53.111a.308.308,0,0,1-.068-.007l-3.061-.591a.358.358,0,0,1-.283-.418.352.352,0,0,1,.411-.283h.007l3.062.59a.357.357,0,0,1-.068.707Z" transform="translate(-17.201 -33.229)" fill="#17253d"/>
            </g>
            <path id="Pfad_3009" data-name="Pfad 3009" d="M159.808,44.568l-.166-.085c-1.033-6.532-8.7-9.667-14.613-8.171a11.873,11.873,0,0,0-7.721,6.244,12.321,12.321,0,0,0-1.208,4.363c-.071.835.161,1.737.059,2.545s-1.038,1.34-1.331,2.093c-.837,2.154.238,4.762,1.658,6.841.108-.086.217-.17.323-.254a3.5,3.5,0,0,0,1.35-1.992c.3-1.1.2-2.358.835-3.357.563-.891,1.581-1.129,2.3-1.827.862-.831.841-2.18,1.6-3.1a8.4,8.4,0,0,1,3-1.893c1.377-.651,3.107-.947,4.262-1.95a14.3,14.3,0,0,0,1.586-1.527,4.381,4.381,0,0,0,.624-.929,4.153,4.153,0,0,0,.357-1.2,27.936,27.936,0,0,0,6.485,4.431.2.2,0,0,0,.225.171.182.182,0,0,0,.075-.026l.051.026C159.842,45.115,160.082,44.7,159.808,44.568Z" transform="translate(-17.201 -33.229)" fill="#17253d"/>
            <path id="Pfad_3010" data-name="Pfad 3010" d="M161.814,88.282c-.081.6-1.031.6-.95,0a45.151,45.151,0,0,0,.247-9.694c.318.148.641.285.978.423A44.834,44.834,0,0,1,161.814,88.282Z" transform="translate(-17.201 -33.229)" fill="#17253d"/>
            <path id="Pfad_3011" data-name="Pfad 3011" d="M176.509,124.561c.047,2.4.372,9.988.392,10.051.536,1.842.757,8.87.207,10.077-.907,1.99-50.139,4.22-53.043,1.72s2.405-22.356,1.864-24.792c-.137-.622-.261-1.282-.374-1.976-.253-1.519-.447-3.178-.589-4.882-.214-2.569-.309-5.239-.29-7.671.01-1.752.081-3.382.2-4.768.029-.342.063-.665.1-.973.233-1.981.769-5.557,1.353-9.142.257-1.572.523-3.15.775-4.593a43.591,43.591,0,0,1,1.315-6.326.086.086,0,0,0,.047-.014c.423-.289,1.758-3.847,1.758-3.847s7.827,5.941,20.389,5.761c5.737-.085,16.338-2.792,16.338-2.792a14.636,14.636,0,0,1,2.921.627,10.279,10.279,0,0,1,1.367.536c.148.071.294.142.443.223.18.1.366.2.546.323a4.548,4.548,0,0,1,1.9,2.27,10.621,10.621,0,0,1,.413,2.2c.142,1.406.194,3.168.219,5.035.056,4.346-.025,9.275.584,11.683.028.114.057.223.091.323a13.817,13.817,0,0,1,.313,4.394C175.54,112.383,176.5,123.751,176.509,124.561Z" transform="translate(-17.201 -33.229)" fill="#213759"/>
            <path id="Pfad_3012" data-name="Pfad 3012" d="M195.5,106.965c-.061-.228-.123-.456-.18-.684-.038-.147-.067-.3-.1-.441a17.487,17.487,0,0,1-.175-4.726c.127-1.743.384-3.5.475-5.215a18.068,18.068,0,0,0-.4-4.707c-.047-.218-.095-.441-.146-.665a18.127,18.127,0,0,1-.736-3.951,5.289,5.289,0,0,1,.042-.665,5.254,5.254,0,0,0-.447-2.98c-.761-1.547-1.174-1.5-2.677-.982a50.727,50.727,0,0,1-8.983,2.19.163.163,0,0,0-.071.028.186.186,0,0,0-.219.146l0,.02a10.913,10.913,0,0,0-.142,2.707,12.376,12.376,0,0,0,.237,1.325,2.874,2.874,0,0,1-.115,1.89,6.472,6.472,0,0,0-.907,2.047,5.729,5.729,0,0,0-.066.641,9.467,9.467,0,0,0,.066,1.515c.038.338.124.674.148,1.008.062,1.03-.053,1.268-.423,1.681a22.5,22.5,0,0,0-3.1-4.792c-.119-.148-.243-.29-.371-.433a7.45,7.45,0,0,1-1.79-3.933,11.635,11.635,0,0,0-.338-1.286c-.242-.794-.55-1.572-.859-2.351a4.852,4.852,0,0,0-2-2.252c-.18-.119-.366-.223-.546-.323-.148-.081-.3-.152-.443-.223a10.279,10.279,0,0,0-1.367-.536c-.062-.019-.119-.038-.176-.053-.394-.119-.641-.171-.641-.171a48.621,48.621,0,0,1,.693,5.039,11.109,11.109,0,0,1-.095,3.063c-.137.579-.271,1.164-.394,1.748a32.027,32.027,0,0,0-.655,4.464,50.042,50.042,0,0,0,.3,6.36,18.91,18.91,0,0,1,0,2.246,19.269,19.269,0,0,1-.873,4.588c-.02.067-.043.134-.062.2-.546,1.724-1.14,3.514-.509,5.305.618,1.766-1.552,4.507-.9,6.288a6.22,6.22,0,0,0,.29.665,13.4,13.4,0,0,0,4.492,4.408c.988.683,2,1.343,2.922,2.013.246.18.489.36.722.546a18.029,18.029,0,0,0,9.227,3.453,7.4,7.4,0,0,0,5.5-1.358c2.052-1.738,2.616-4.331,2.968-6.725a15.672,15.672,0,0,1,.38-1.794,33.787,33.787,0,0,1,1.853-4.736c.109-.237.218-.479.323-.726A13.544,13.544,0,0,0,195.5,106.965Z" transform="translate(-17.201 -33.229)" fill="#213759"/>
            <path id="Pfad_3013" data-name="Pfad 3013" d="M131.831,90s3.715,13.114,1.666,24.118-14.855,34.033-14.925,34.353,0,7.127,0,7.127,14.485-21.771,17.414-32.3,2.984-18.443,2.363-23.429a106.746,106.746,0,0,0-2.2-11.133Z" transform="translate(-17.201 -33.229)" fill="#e3e3e3"/>
            <path id="Pfad_3014" data-name="Pfad 3014" d="M146.783,87.813a22.506,22.506,0,0,0-1.757-2.3,6.072,6.072,0,0,1-1.374-3.719,10.27,10.27,0,0,0-1.6-5.208,14.389,14.389,0,0,1-1.2-4.568c-.158-2.515-.163-3.8-.274-5.039a.23.23,0,0,0-.068-.415c-4-.863-7.818,3.861-11.233,5.726-1.782.974-3.72,1.582-5.5,2.529-1.207.64-2.565,1.726-2.6,3.229-.033,1.382,1.369,2.593,2.415,3.282.391.258.841.407,1.227.669a3.081,3.081,0,0,1,.27.213,12.028,12.028,0,0,1,1.627,2.408c1.028,2.071.979,4.322,2.438,6.207.583.754,1.246,1.448,1.763,2.251a19.905,19.905,0,0,1,1.07,2.715,9.238,9.238,0,0,0,4.362,4,.241.241,0,0,0,.358-.205c.014-1.056-.724-1.978-1.057-2.956a11.22,11.22,0,0,1-.339-1.248,11.525,11.525,0,0,0,.782,1.163,3.9,3.9,0,0,0,1.557,1.269,8.129,8.129,0,0,1,1.034.407,4.234,4.234,0,0,1,1.126,1.246c.514.63,1.439,1.2,2.12.442a1.86,1.86,0,0,0,.375-1.076,10.8,10.8,0,0,1,.6-2.744,12.235,12.235,0,0,0,.834-5,11.362,11.362,0,0,0-.487-2.673,3.626,3.626,0,0,0,1.04,1.061c1.4.893,1.95,2.478,2.687,3.919a.24.24,0,0,0,.434-.057A6.947,6.947,0,0,0,146.783,87.813Z" transform="translate(-17.201 -33.229)" fill="#17253d"/>
            <path id="Pfad_3015" data-name="Pfad 3015" d="M162.205,101.917a4.188,4.188,0,0,0-1.3,1.276l-.011-.02a2.052,2.052,0,0,0-.333-1.464.823.823,0,0,0-.714-.368.52.52,0,0,0-.646.315,3.4,3.4,0,0,0,1.177,3.9c1.41.827,2.3-2.211,2.525-3.1a.48.48,0,0,0-.7-.539Z" transform="translate(-17.201 -33.229)" fill="#637795"/>
            <path id="Pfad_3016" data-name="Pfad 3016" d="M168.108,87.444c-.053-.422-.641-.7-.885-.24-.058.112-.111.227-.165.341a1.13,1.13,0,0,0-.887-.455c-1.147.053-.764,1.379-.489,2.024.232.541.808,2.328,1.7,1.59a2.767,2.767,0,0,0,.638-1.418A5.142,5.142,0,0,0,168.108,87.444Z" transform="translate(-17.201 -33.229)" fill="#637795"/>
            <path id="Pfad_3017" data-name="Pfad 3017" d="M148.371,96.789a.862.862,0,0,0-.753.548,2.6,2.6,0,0,0-.161.357,1.4,1.4,0,0,0-.592-.579.539.539,0,0,0-.443.017.839.839,0,0,0-.577.406,1.216,1.216,0,0,0,.053,1.068,7.272,7.272,0,0,0,.524,1.163,1.281,1.281,0,0,0,1.631.638C148.828,100.014,149.543,96.869,148.371,96.789Z" transform="translate(-17.201 -33.229)" fill="#637795"/>
            <path id="Pfad_3018" data-name="Pfad 3018" d="M125.545,93.367a.481.481,0,0,0-.714-.41,2.08,2.08,0,0,0-.542.383,1.357,1.357,0,0,0-.931-1.188.484.484,0,0,0-.585.331c-.416,1.14-.187,2.928,1,3.564C125.371,96.905,125.58,94.3,125.545,93.367Z" transform="translate(-17.201 -33.229)" fill="#637795"/>
            <path id="Pfad_3019" data-name="Pfad 3019" d="M172.986,136.916a.481.481,0,0,0-.714-.41,2.08,2.08,0,0,0-.542.383,1.357,1.357,0,0,0-.931-1.188.484.484,0,0,0-.585.332c-.417,1.139-.187,2.928,1,3.563C172.812,140.454,173.02,137.848,172.986,136.916Z" transform="translate(-17.201 -33.229)" fill="#637795"/>
            <path id="Pfad_3020" data-name="Pfad 3020" d="M133.419,108.286a.484.484,0,0,0-.585-.331,1.314,1.314,0,0,0-.951.763.431.431,0,0,0-.046.039.458.458,0,0,0-.23-.372c-.78-.369-1.4.3-1.329,1.081a2.975,2.975,0,0,0,1.227,2.162.927.927,0,0,0,.953.1.419.419,0,0,0,.406-.223A4.774,4.774,0,0,0,133.419,108.286Z" transform="translate(-17.201 -33.229)" fill="#637595"/>
            <path id="Pfad_3021" data-name="Pfad 3021" d="M121.077,122.39a.478.478,0,0,0-.793-.209,3.448,3.448,0,0,0-.656,1.04c-.03-.108-.055-.311-.081-.388a1.124,1.124,0,0,0-.3-.477.776.776,0,0,0-1.023-.082c-.37.311-.253.884-.2,1.3a2.639,2.639,0,0,0,.49,1.329,1.511,1.511,0,0,0,2.082.355C121.367,124.625,121.237,123.258,121.077,122.39Z" transform="translate(-17.201 -33.229)" fill="#637795"/>
            <path id="Pfad_3022" data-name="Pfad 3022" d="M146.853,116.607a.916.916,0,0,0-.706.491,2.086,2.086,0,0,0-.732-.665.481.481,0,0,0-.714.41,2.906,2.906,0,0,0,.3,1.539,2.511,2.511,0,0,0,.758,1.146,1.282,1.282,0,0,0,1.733-.533,1.265,1.265,0,0,0,.125-.354C147.776,118.054,147.8,116.536,146.853,116.607Z" transform="translate(-17.201 -33.229)" fill="#a18bbc"/>
            <path id="Pfad_3023" data-name="Pfad 3023" d="M164.911,120.961a.481.481,0,0,0-.6-.328.56.56,0,0,0-.1.044,3.6,3.6,0,0,0-.974.98,1.609,1.609,0,0,0-.735-1.367.485.485,0,0,0-.65.169,1.966,1.966,0,0,0-.139,1.91c.208.517.6,1.367,1.216,1.484.647.122,1.181-.514,1.531-.966A2.013,2.013,0,0,0,164.911,120.961Z" transform="translate(-17.201 -33.229)" fill="#637795"/>
            <path id="Pfad_3024" data-name="Pfad 3024" d="M189.639,92.472a.782.782,0,0,0-1.013-.446.742.742,0,0,0-.187.1c-.01.006-.014.013-.022.018a1.1,1.1,0,0,0-.771-.664.883.883,0,0,0-1.051.673.87.87,0,0,0-.017.114A2.813,2.813,0,0,0,187.1,94c.278.463.612,1.06,1.215,1.1a1.094,1.094,0,0,0,1.027-.86A3.031,3.031,0,0,0,189.639,92.472Z" transform="translate(-17.201 -33.229)" fill="#637795"/>
            <g id="Gruppe_2219" data-name="Gruppe 2219">
              <path id="Pfad_3025" data-name="Pfad 3025" d="M123.912,142.5l1.2,2.479s27.047,2.352,27.26,2.145,6.149-35.284,6.149-35.284l-2.79-.217Z" transform="translate(-17.201 -33.229)" fill="#81a9e3"/>
              <path id="Pfad_3026" data-name="Pfad 3026" d="M157.729,112.055l-6.2,34.037-25.637-2.118-1.234-2.531,31.324-31.5Z" transform="translate(-17.201 -33.229)" fill="#fff"/>
              <path id="Pfad_3027" data-name="Pfad 3027" d="M156.794,109.3l-6.377,35.457-26.5-2.262,5.646-33.4Z" transform="translate(-17.201 -33.229)" fill="#4d72ab"/>
            </g>
            <path id="Pfad_3028" data-name="Pfad 3028" d="M178.542,106.606a2.308,2.308,0,0,0-.6.257.855.855,0,0,0-1.125-.684c-.745.342-.545,1.843-.449,2.484a1.316,1.316,0,0,0,.467,1,.93.93,0,0,0,1.051-.134,3.642,3.642,0,0,0,1.243-2.335.482.482,0,0,0-.345-.588A.5.5,0,0,0,178.542,106.606Z" transform="translate(-17.201 -33.229)" fill="#637795"/>
            <path id="Pfad_3029" data-name="Pfad 3029" d="M187.648,117.943c-.491-.133-.855.293-1.119.823a2.4,2.4,0,0,0-.955-1.044.478.478,0,0,0-.653.174.506.506,0,0,0-.047.11,3.5,3.5,0,0,0,.555,2.927c.758.73,1.8.129,2.275-.606C188.046,119.8,188.581,118.2,187.648,117.943Z" transform="translate(-17.201 -33.229)" fill="#637795"/>
            <path id="Pfad_3030" data-name="Pfad 3030" d="M152.916,136.348a.479.479,0,0,0-.595-.324.472.472,0,0,0-.2.115,2.6,2.6,0,0,0-.6.852c-.2-.634-.724-1.257-1.464-.9-1.065.517.043,1.9.436,2.491.425.641,1.262,1.26,1.954.563A3.343,3.343,0,0,0,152.916,136.348Z" transform="translate(-17.201 -33.229)" fill="#a18bbc"/>
            <g id="Gruppe_2232" data-name="Gruppe 2232">
              <g id="Gruppe_2220" data-name="Gruppe 2220">
                <path id="Pfad_3031" data-name="Pfad 3031" d="M152.663,39.786a.238.238,0,0,1-.217-.142A7.64,7.64,0,0,0,150.6,37.1a4.214,4.214,0,0,1-1.049-1.11,2.585,2.585,0,0,0-.836-.838,12.409,12.409,0,0,0-3.409-1,.236.236,0,0,1-.2-.269v0a.24.24,0,0,1,.271-.2,12.454,12.454,0,0,1,3.595,1.075,2.994,2.994,0,0,1,.969.967,3.749,3.749,0,0,0,.945,1,7.961,7.961,0,0,1,1.994,2.735.238.238,0,0,1-.123.313A.221.221,0,0,1,152.663,39.786Z" transform="translate(-17.201 -33.229)" fill="#09111a"/>
              </g>
              <g id="Gruppe_2221" data-name="Gruppe 2221">
                <path id="Pfad_3032" data-name="Pfad 3032" d="M160.628,46.4a.239.239,0,0,1-.237-.228,3.3,3.3,0,0,0-.654-1.621,10.118,10.118,0,0,0-3.242-2.579,13.473,13.473,0,0,1-2.847-2.27.238.238,0,0,1,.353-.318,13.3,13.3,0,0,0,2.74,2.182,10.765,10.765,0,0,1,3.382,2.706,3.7,3.7,0,0,1,.744,1.882.237.237,0,0,1-.228.246h-.011Z" transform="translate(-17.201 -33.229)" fill="#09111a"/>
              </g>
              <g id="Gruppe_2222" data-name="Gruppe 2222">
                <path id="Pfad_3033" data-name="Pfad 3033" d="M158.045,40.858a.237.237,0,0,1-.182-.085,7.283,7.283,0,0,0-2.091-1.606c-1.321-.667-3.181-1.439-3.2-1.447a.238.238,0,0,1,.157-.449l.025.01c.018.008,1.9.788,3.231,1.462a7.618,7.618,0,0,1,2.241,1.725.236.236,0,0,1-.028.334.23.23,0,0,1-.154.056Z" transform="translate(-17.201 -33.229)" fill="#09111a"/>
              </g>
              <g id="Gruppe_2223" data-name="Gruppe 2223">
                <path id="Pfad_3034" data-name="Pfad 3034" d="M141.07,49.086a.231.231,0,0,1-.069-.011.236.236,0,0,1-.159-.3v-.005a7.12,7.12,0,0,1,1.625-2.786,12.27,12.27,0,0,1,4.089-2.057l.775-.3c2.243-.86,3.3-3.671,3.305-3.7a.238.238,0,0,1,.447.163c-.045.124-1.134,3.042-3.581,3.979l-.777.3a12.025,12.025,0,0,0-3.937,1.964,6.77,6.77,0,0,0-1.491,2.573A.236.236,0,0,1,141.07,49.086Z" transform="translate(-17.201 -33.229)" fill="#09111a"/>
              </g>
              <g id="Gruppe_2224" data-name="Gruppe 2224">
                <path id="Pfad_3035" data-name="Pfad 3035" d="M145.969,42.582a.238.238,0,0,1-.142-.429,14.084,14.084,0,0,0,2.318-2.28,6.3,6.3,0,0,0,1.337-2.418.234.234,0,0,1,.272-.189h.006a.237.237,0,0,1,.189.276,6.6,6.6,0,0,1-1.435,2.628,14.4,14.4,0,0,1-2.406,2.365A.232.232,0,0,1,145.969,42.582Z" transform="translate(-17.201 -33.229)" fill="#09111a"/>
              </g>
              <g id="Gruppe_2225" data-name="Gruppe 2225">
                <path id="Pfad_3036" data-name="Pfad 3036" d="M125.769,67.53a.246.246,0,0,1-.138-.044.239.239,0,0,1-.055-.332,8.8,8.8,0,0,0,.876-2.263,8.661,8.661,0,0,0,.23-2.815,20.844,20.844,0,0,1,.079-2.914c.2-1.964.8-2.32,1.691-2.858a7.945,7.945,0,0,0,1.277-.9c1.6-1.407,3.124-5.677,3.139-5.719a.238.238,0,0,1,.448.159c-.064.18-1.584,4.428-3.272,5.916a8.527,8.527,0,0,1-1.347.955c-.826.5-1.283.773-1.463,2.5a20.435,20.435,0,0,0-.077,2.853,9.156,9.156,0,0,1-.248,2.959,8.875,8.875,0,0,1-.946,2.408A.236.236,0,0,1,125.769,67.53Z" transform="translate(-17.201 -33.229)" fill="#09111a"/>
              </g>
              <g id="Gruppe_2226" data-name="Gruppe 2226">
                <path id="Pfad_3037" data-name="Pfad 3037" d="M133.567,51.9a.238.238,0,0,1-.2-.359c.154-.3,1.171-4.125,1.775-6.469a.237.237,0,0,1,.459.12c-.377,1.465-1.628,6.273-1.83,6.6A.237.237,0,0,1,133.567,51.9Z" transform="translate(-17.201 -33.229)" fill="#09111a"/>
              </g>
              <g id="Gruppe_2227" data-name="Gruppe 2227">
                <path id="Pfad_3038" data-name="Pfad 3038" d="M142.947,87.675a.237.237,0,0,1-.237-.222c0-.032-.2-3.184-.513-5.445a9.58,9.58,0,0,0-.776-2.982c-.182-.457-.409-1.027-.716-1.877a15.921,15.921,0,0,1-1.043-4.948.238.238,0,0,1,.238-.237h0a.237.237,0,0,1,.237.237h0a15.8,15.8,0,0,0,1.015,4.787c.3.843.53,1.408.711,1.862a10.048,10.048,0,0,1,.8,3.093c.314,2.278.515,5.448.517,5.479a.236.236,0,0,1-.222.251Z" transform="translate(-17.201 -33.229)" fill="#09111a"/>
              </g>
              <g id="Gruppe_2228" data-name="Gruppe 2228">
                <path id="Pfad_3039" data-name="Pfad 3039" d="M139.226,76.792a.234.234,0,0,1-.216-.14,12.986,12.986,0,0,1-.892-4.44,24.744,24.744,0,0,1,.72-6.053.237.237,0,0,1,.46.117,24.821,24.821,0,0,0-.7,5.915,12.8,12.8,0,0,0,.85,4.266.238.238,0,0,1-.119.314A.227.227,0,0,1,139.226,76.792Z" transform="translate(-17.201 -33.229)" fill="#09111a"/>
              </g>
              <g id="Gruppe_2229" data-name="Gruppe 2229">
                <path id="Pfad_3040" data-name="Pfad 3040" d="M137.8,95.947a.236.236,0,0,1-.17-.072,10.08,10.08,0,0,1-2.254-3.687,14.224,14.224,0,0,0-2.464-4.1.237.237,0,0,1,.362-.307,14.347,14.347,0,0,1,2.563,4.288,9.822,9.822,0,0,0,2.135,3.478.237.237,0,0,1-.17.4Z" transform="translate(-17.201 -33.229)" fill="#09111a"/>
              </g>
              <g id="Gruppe_2230" data-name="Gruppe 2230">
                <path id="Pfad_3041" data-name="Pfad 3041" d="M130.677,84.9a.237.237,0,0,1-.238-.236h0a9.205,9.205,0,0,0-1.219-3.761,19.707,19.707,0,0,0-1.111-1.787,9.366,9.366,0,0,1-2.1-5.936,14.087,14.087,0,0,1,1.335-6.006.238.238,0,0,1,.418.228,13.877,13.877,0,0,0-1.278,5.789,8.856,8.856,0,0,0,2.021,5.659,20.08,20.08,0,0,1,1.137,1.831,9.427,9.427,0,0,1,1.274,3.982.235.235,0,0,1-.235.237h0Z" transform="translate(-17.201 -33.229)" fill="#09111a"/>
              </g>
              <g id="Gruppe_2231" data-name="Gruppe 2231">
                <path id="Pfad_3042" data-name="Pfad 3042" d="M132.655,81.034a.239.239,0,0,1-.232-.19,7.631,7.631,0,0,0-.988-2.449c-.709-.985-1.4-2.086-1.409-2.1a.237.237,0,0,1,.4-.252c.008.011.694,1.1,1.393,2.072a7.984,7.984,0,0,1,1.069,2.632.238.238,0,0,1-.186.279h0A.243.243,0,0,1,132.655,81.034Z" transform="translate(-17.201 -33.229)" fill="#09111a"/>
              </g>
            </g>
            <path id="Pfad_3043" data-name="Pfad 3043" d="M196.582,67.264c-.937-1.123-1.626.254-2.152,1.174-.409.588-.745,1.243-1.158,1.82.519-1.643,1.023-3.291,1.5-4.948.189-.657.7-1.732.184-2.375a1.847,1.847,0,0,0-.726-.5c.286-.81.573-1.459.065-1.986-.925-.958-1.906.224-2.333,1.02-.572,1.064-1.083,2.164-1.638,3.239-.316.614-1.982,3.809-1.982,3.809q.27-1.379.6-2.746c.163-.694.342-1.381.547-2.063.25-.833,1.371-2.761-.023-3.218-.954-.312-2,2.032-2.31,2.72a67.134,67.134,0,0,0-2.428,6.328,13.03,13.03,0,0,1-1.126,3.127,10.4,10.4,0,0,1-1.172-4.642c-.058-.561-.188-1.241-.821-1.424a.816.816,0,0,0-1.028.483,3.5,3.5,0,0,0-.042,1.438q.048,1.119.1,2.236c.062,1.439.081,2.888.206,4.324a7.772,7.772,0,0,0,3.006,5.671.273.273,0,0,0,.137.36l.019.007c1.532.552,6.008.486,6.008.486s.868-1.2,1.638-2.5a66.368,66.368,0,0,0,3.266-7.174C195.4,70.735,197.108,67.9,196.582,67.264Z" transform="translate(-17.201 -33.229)" fill="#efd3c7"/>
            <path id="Pfad_3044" data-name="Pfad 3044" d="M156.551,132.4c-.518-1.078-2.063-.953-3.044-1.049-.343-.033-.683-.078-1.024-.12a1.347,1.347,0,0,0,.634-.3c1.369-1.322-1.977-1.546-2.492-1.586a28.246,28.246,0,0,1-4.432-.544,5.858,5.858,0,0,0-2.913.432,20.468,20.468,0,0,0-2.392,1.536l-2.946-.67a69.475,69.475,0,0,1-.941,7.344c-.06.281-.127.559-.193.837,2.256.236,3.746.386,3.746.386a46.3,46.3,0,0,0,7.928,2.282c1.585.181,5.773.92,6.337-.956a1.173,1.173,0,0,0,1.089-1.247,1.51,1.51,0,0,0-.664-1.207,1.869,1.869,0,0,0,1.035-1.049,2.051,2.051,0,0,0-.89-1.973C156.107,133.977,157.068,133.469,156.551,132.4Z" transform="translate(-17.201 -33.229)" fill="#efd3c7"/>
            <g id="Gruppe_2233" data-name="Gruppe 2233">
              <path id="Pfad_3045" data-name="Pfad 3045" d="M150.98,68.821a9.786,9.786,0,0,1-1.823-.178c-3.233-.611-7.644-4.452-7.83-4.615a.237.237,0,1,1,.313-.357c.044.039,4.5,3.919,7.6,4.506,3.146.595,4.794-.588,4.81-.6a.24.24,0,0,1,.333.05.236.236,0,0,1-.046.331h0A5.834,5.834,0,0,1,150.98,68.821Z" transform="translate(-17.201 -33.229)" fill="#d5b4a8"/>
            </g>
            <g id="Gruppe_2234" data-name="Gruppe 2234">
              <path id="Pfad_3046" data-name="Pfad 3046" d="M187.309,78.811a.236.236,0,0,1-.236-.227,7.4,7.4,0,0,0-.721-2.747,10.681,10.681,0,0,0-2.541-2.532.237.237,0,1,1,.276-.386,10.914,10.914,0,0,1,2.681,2.691,7.7,7.7,0,0,1,.778,2.952.236.236,0,0,1-.223.248h-.014Z" transform="translate(-17.201 -33.229)" fill="#d5b4a8"/>
            </g>
            <g id="Gruppe_2236" data-name="Gruppe 2236">
              <path id="Pfad_3048" data-name="Pfad 3048" d="M154.6,134.627H154.6l-2.544-.076a.238.238,0,0,1-.231-.245h0a.244.244,0,0,1,.244-.231l2.545.077a.238.238,0,1,1-.008.475Z" transform="translate(-17.201 -33.229)" fill="#d5b4a8"/>
            </g>
            <g id="Gruppe_2237" data-name="Gruppe 2237">
              <path id="Pfad_3049" data-name="Pfad 3049" d="M151.523,131.355h0l-4.17-.126a.238.238,0,0,1-.231-.245h0a.247.247,0,0,1,.245-.23l4.17.126a.238.238,0,0,1-.014.475Z" transform="translate(-17.201 -33.229)" fill="#d5b4a8"/>
            </g>
            <g id="Gruppe_2238" data-name="Gruppe 2238">
              <path id="Pfad_3050" data-name="Pfad 3050" d="M154.646,137.578h-.013L152,137.43a.238.238,0,0,1-.223-.251.233.233,0,0,1,.242-.223h.008l2.63.149a.238.238,0,0,1-.014.475Z" transform="translate(-17.201 -33.229)" fill="#d5b4a8"/>
            </g>
            <g id="Gruppe_2239" data-name="Gruppe 2239">
              <path id="Pfad_3051" data-name="Pfad 3051" d="M154.119,139.926H154.1l-3.5-.234a.238.238,0,0,1-.221-.252.242.242,0,0,1,.253-.221l3.494.233a.238.238,0,0,1-.015.475Z" transform="translate(-17.201 -33.229)" fill="#d5b4a8"/>
            </g>
            <path id="Pfad_3052" data-name="Pfad 3052" d="M125.955,122.48a16.726,16.726,0,0,1,5.487,2.636c2.086,1.741,2.123,1.028,4,1.5s3.939.791,3.781,1.82-1.231,11.685-1.7,12.134-.956-.363-3.366-.353-3.28.645-5.209.488-6.541-.709-6.541-.709Z" transform="translate(-17.201 -33.229)" fill="#213759"/>
            <path id="Pfad_3053" data-name="Pfad 3053" d="M134.955,131.282a.482.482,0,0,0-.811-.336,2.9,2.9,0,0,0-.324.332c-.126-.521-.422-.953-1.02-.862-1,.149-.857,1.38-.6,2.067.244.651.889,1.85,1.751,1.4C134.785,133.453,135.028,132.12,134.955,131.282Z" transform="translate(-17.201 -33.229)" fill="#637795"/>
            <path id="Pfad_3054" data-name="Pfad 3054" d="M136.434,114.8l-.8,6.048,10.641.3.953-6.21Z" transform="translate(-17.201 -33.229)" fill="#fff"/>
            <g id="Gruppe_2240" data-name="Gruppe 2240">
              <path id="Pfad_3055" data-name="Pfad 3055" d="M128.382,122.717a.241.241,0,0,1-.038,0,.237.237,0,0,1-.2-.27v0l2.059-12.8a.238.238,0,0,1,.469.076l-2.059,12.8A.238.238,0,0,1,128.382,122.717Z" transform="translate(-17.201 -33.229)" fill="#253448"/>
            </g>
            <g id="Gruppe_2241" data-name="Gruppe 2241">
              <path id="Pfad_3056" data-name="Pfad 3056" d="M125.032,142.448a.3.3,0,0,1-.052,0,.238.238,0,0,1-.18-.284l.33-1.475a.238.238,0,0,1,.464.1l-.33,1.476A.237.237,0,0,1,125.032,142.448Z" transform="translate(-17.201 -33.229)" fill="#253448"/>
            </g>
            <g id="Gruppe_2243" data-name="Gruppe 2243">
              <g id="Gruppe_2242" data-name="Gruppe 2242">
                <path id="Pfad_3057" data-name="Pfad 3057" d="M144.074,115.992h-.005L139,115.873a.238.238,0,0,1-.232-.244h0a.247.247,0,0,1,.243-.231l5.066.119a.238.238,0,0,1-.005.475Z" transform="translate(-17.201 -33.229)" fill="#c6d1ec"/>
              </g>
            </g>
            <g id="Gruppe_2245" data-name="Gruppe 2245">
              <g id="Gruppe_2244" data-name="Gruppe 2244">
                <path id="Pfad_3058" data-name="Pfad 3058" d="M146.047,118.31h0l-9.292-.2a.238.238,0,0,1,0-.475h0l9.292.2a.238.238,0,0,1,0,.475Z" transform="translate(-17.201 -33.229)" fill="#c6d1ec"/>
              </g>
            </g>
            <g id="Gruppe_2247" data-name="Gruppe 2247">
              <g id="Gruppe_2246" data-name="Gruppe 2246">
                <path id="Pfad_3059" data-name="Pfad 3059" d="M145.749,119.687h0l-9.194-.2a.238.238,0,0,1,0-.476h0l9.193.2a.238.238,0,1,1,0,.476h0Z" transform="translate(-17.201 -33.229)" fill="#c6d1ec"/>
              </g>
            </g>
            <g id="Gruppe_2248" data-name="Gruppe 2248">
              <path id="Pfad_3060" data-name="Pfad 3060" d="M118.536,147.951a.237.237,0,0,1-.237-.229l-.265-7.6a.237.237,0,0,1,.229-.245h0a.23.23,0,0,1,.245.214v.015l.265,7.6a.237.237,0,0,1-.229.245h-.009Z" transform="translate(-17.201 -33.229)" fill="#253448"/>
            </g>
            <g id="Gruppe_2249" data-name="Gruppe 2249">
              <path id="Pfad_3061" data-name="Pfad 3061" d="M117.537,142.848a23.475,23.475,0,0,1-4.363-.406,25.427,25.427,0,0,1-4.679-1.491.238.238,0,1,1,.2-.433,24.956,24.956,0,0,0,4.582,1.46,23.818,23.818,0,0,0,4.419.393h0a.238.238,0,0,1,0,.476Z" transform="translate(-17.201 -33.229)" fill="#253448"/>
            </g>
            <g id="Gruppe_2250" data-name="Gruppe 2250">
              <path id="Pfad_3062" data-name="Pfad 3062" d="M176.586,126.461a.236.236,0,0,1-.236-.224c-.011-.176-.953-17.579-1.148-22.616s-.681-12.649-.685-12.726a.237.237,0,0,1,.221-.252.231.231,0,0,1,.252.21v.012c0,.077.49,7.7.686,12.737s1.137,22.433,1.147,22.608a.237.237,0,0,1-.224.25Z" transform="translate(-17.201 -33.229)" fill="#53647d"/>
            </g>
            <g id="Gruppe_2251" data-name="Gruppe 2251">
              <path id="Pfad_3063" data-name="Pfad 3063" d="M180.055,120.7a.254.254,0,0,1-.039,0,.237.237,0,0,1-.2-.27v0c.006-.04.649-3.967.646-4.789v-.556c.006-1.544.021-5.16-.227-8.671a30.923,30.923,0,0,1,.519-7.806.238.238,0,0,1,.464.1,30.376,30.376,0,0,0-.509,7.672c.249,3.529.234,7.157.228,8.706v.55c0,.862-.626,4.706-.653,4.869A.236.236,0,0,1,180.055,120.7Z" transform="translate(-17.201 -33.229)" fill="#53647d"/>
            </g>
            <g id="Gruppe_2252" data-name="Gruppe 2252">
              <path id="Pfad_3064" data-name="Pfad 3064" d="M125.955,122.717a.228.228,0,0,1-.073-.012l-6.139-2.014a.237.237,0,1,1,.148-.451l6.14,2.014a.237.237,0,0,1-.075.463Z" transform="translate(-17.201 -33.229)" fill="#53647d"/>
            </g>
            <g id="Gruppe_2253" data-name="Gruppe 2253">
              <path id="Pfad_3065" data-name="Pfad 3065" d="M145.341,56.329a3.574,3.574,0,1,1,3.574-3.574h0A3.578,3.578,0,0,1,145.341,56.329Zm0-6.435a2.861,2.861,0,1,0,2.861,2.861h0A2.865,2.865,0,0,0,145.341,49.894Z" transform="translate(-17.201 -33.229)" fill="#17253d"/>
            </g>
            <g id="Gruppe_2254" data-name="Gruppe 2254">
              <path id="Pfad_3066" data-name="Pfad 3066" d="M155.882,56.329a3.574,3.574,0,1,1,3.574-3.574h0A3.578,3.578,0,0,1,155.882,56.329Zm0-6.435a2.861,2.861,0,1,0,2.86,2.862h0A2.865,2.865,0,0,0,155.882,49.894Z" transform="translate(-17.201 -33.229)" fill="#17253d"/>
            </g>
            <g id="Gruppe_2255" data-name="Gruppe 2255">
              <path id="Pfad_3067" data-name="Pfad 3067" d="M148.558,53.112a.356.356,0,0,1-.074-.7,11.808,11.808,0,0,1,2.129-.233,11.61,11.61,0,0,1,2.128.233.359.359,0,1,1-.156.7h0a10.3,10.3,0,0,0-1.942-.217h-.027a11.386,11.386,0,0,0-1.983.217A.314.314,0,0,1,148.558,53.112Z" transform="translate(-17.201 -33.229)" fill="#17253d"/>
            </g>
            <g id="Gruppe_2270" data-name="Gruppe 2270">
              <path id="Pfad_3090" data-name="Pfad 3090" d="M152.223,57.012a1.04,1.04,0,0,1-.873.379c-.643.016-1.042-.388-1.376-.148s-.29.637.365.917,1.419.313,1.707-.044A.9.9,0,0,0,152.223,57.012Z" transform="translate(-17.201 -33.229)" fill="#d5b4a8" fill-rule="evenodd"/>
            </g>
          </g>
          <g id="Gruppe_1173" data-name="Gruppe 1173">
            <g id="Gruppe_1172" data-name="Gruppe 1172">
              <g id="Gruppe_1110" data-name="Gruppe 1110">
                <path id="Pfad_1329" data-name="Pfad 1329" d="M150.326,191.845H150.3a.251.251,0,0,1-.225-.274c.061-.606,1.494-14.868,2.152-16.514s5.817-9.385,6.036-9.714a.251.251,0,1,1,.418.279c-.054.08-5.353,8.032-5.989,9.622-.505,1.265-1.606,11.266-2.118,16.377A.25.25,0,0,1,150.326,191.845Z" transform="translate(-17.201 -33.229)" fill="#382823"/>
              </g>
              <g id="Gruppe_1117" data-name="Gruppe 1117">
                <path id="Pfad_1336" data-name="Pfad 1336" d="M152.3,176a.251.251,0,0,1-.178-.428l4.583-4.614a.251.251,0,0,1,.356.354l-4.583,4.614A.252.252,0,0,1,152.3,176Z" transform="translate(-17.201 -33.229)" fill="#382823"/>
              </g>
              <path id="Pfad_1409" data-name="Pfad 1409" d="M31.11,145.442c-.68.217-.556,2.935,0,3.121.267.089,8.629-.029,17.137-.041,9.239-.014,18.679.068,18.888-.053.57-.332.927-2.749-.124-3.027-.538-.142-9.8-.082-18.764-.072C39.71,145.382,31.442,145.337,31.11,145.442Z" transform="translate(-17.201 -33.229)" fill="#28497c"/>
              <g id="Gruppe_1157" data-name="Gruppe 1157">
                <path id="Rechteck_227" data-name="Rechteck 227" d="M64.96,148.044h7.5a.538.538,0,0,1,.538.538h0v5.184a.538.538,0,0,1-.538.538h-7.5v-6.26Z" transform="translate(-17.201 -33.229)" fill="#637795"/>
                <rect id="Rechteck_228" data-name="Rechteck 228" x="15.668" y="115.783" width="33.944" height="4.284" fill="#fff"/>
                <rect id="Rechteck_229" data-name="Rechteck 229" x="15.174" y="120.067" width="34.913" height="1.008" rx="0.222" fill="#637795"/>
                <rect id="Rechteck_230" data-name="Rechteck 230" x="15.174" y="114.815" width="34.913" height="1.102" rx="0.222" fill="#637795"/>
              </g>
              <g id="Gruppe_1158" data-name="Gruppe 1158">
                <path id="Pfad_1410" data-name="Pfad 1410" d="M71.118,160.316a39.146,39.146,0,0,1-5.294.133H63.643c-.3,0-.6,0-.909-.005H61.459c-2.843-.01-6.051-.02-9.23-.01-8.507.024-16.867.257-17.133.079-.559-.37-.682-5.808,0-6.239.331-.212,8.6-.123,17.133-.143,3.174-.01,6.387-.019,9.23-.025h2.184c.772,0,1.5,0,2.181,0a46.463,46.463,0,0,1,5.17.162C71.667,154.533,71.691,159.657,71.118,160.316Z" transform="translate(-17.201 -33.229)" fill="#24324f"/>
                <path id="Pfad_1411" data-name="Pfad 1411" d="M65.824,154.1v6.346H63.643V154.1C64.415,154.1,65.147,154.1,65.824,154.1Z" transform="translate(-17.201 -33.229)" fill="#fff"/>
                <path id="Pfad_1412" data-name="Pfad 1412" d="M62.734,154.1v6.342H61.458V154.1Z" transform="translate(-17.201 -33.229)" fill="#fff"/>
              </g>
              <g id="Gruppe_1159" data-name="Gruppe 1159">
                <path id="Rechteck_231" data-name="Rechteck 231" d="M43.868,145.606h-7.5a.538.538,0,0,1-.538-.538h0v-4.136a.538.538,0,0,1,.538-.538h7.5v5.212Z" transform="translate(-17.201 -33.229)" fill="#637795"/>
                <rect id="Rechteck_232" data-name="Rechteck 232" x="24.814" y="107.299" width="33.944" height="4.071" fill="#fff"/>
                <rect id="Rechteck_233" data-name="Rechteck 233" x="24.339" y="111.369" width="34.913" height="1.008" rx="0.222" fill="#637795"/>
                <rect id="Rechteck_234" data-name="Rechteck 234" x="24.354" y="107.16" width="34.913" height="1.102" rx="0.222" fill="#637795"/>
              </g>
              <path id="Pfad_1413" data-name="Pfad 1413" d="M35.094,135.287c-.68.36-.556,4.872,0,5.179.267.148,8.629-.047,17.137-.068,9.239-.022,18.679.114,18.888-.087.57-.55.927-4.562-.124-5.024-.538-.236-9.8-.138-18.764-.119C43.69,135.185,35.426,135.112,35.094,135.287Z" transform="translate(-17.201 -33.229)" fill="#8db0e3"/>
              <g id="Gruppe_1161" data-name="Gruppe 1161">
                <g id="Gruppe_1160" data-name="Gruppe 1160">
                  <path id="Pfad_1414" data-name="Pfad 1414" d="M66.256,139.731H39.618a1.266,1.266,0,0,1-1.265-1.264v-1.335a1.266,1.266,0,0,1,1.265-1.265H66.256a1.266,1.266,0,0,1,1.265,1.265v1.335A1.266,1.266,0,0,1,66.256,139.731Zm-26.638-3.4a.8.8,0,0,0-.8.8v1.335a.8.8,0,0,0,.8.8H66.256a.8.8,0,0,0,.8-.8v-1.335a.8.8,0,0,0-.8-.8Z" transform="translate(-17.201 -33.229)" fill="#e2e7f5"/>
                </g>
              </g>
              <rect id="Rechteck_235" data-name="Rechteck 235" x="11.063" y="135.908" width="241.594" height="45.627" fill="#ececec"/>
              <path id="Rechteck_236" data-name="Rechteck 236" d="M20.6,160.373H277.837a3.4,3.4,0,0,1,3.4,3.4v2.509a3.4,3.4,0,0,1-3.4,3.4H20.6a3.4,3.4,0,0,1-3.4-3.4h0v-2.509a3.4,3.4,0,0,1,3.4-3.4Z" transform="translate(-17.201 -33.229)" fill="#f5f5f5"/>
              <path id="Pfad_1415" data-name="Pfad 1415" d="M28.264,169.8v39.6H63.91V182.339h.564c-1.758-3.326,12.007-11.908,205.384-9.958V169.8Z" transform="translate(-17.201 -33.229)" fill="#494949" opacity="0.15" style="isolation: isolate"/>
              <g id="Gruppe_1165" data-name="Gruppe 1165">
                <g id="Gruppe_1162" data-name="Gruppe 1162">
                  <path id="Pfad_1416" data-name="Pfad 1416" d="M237.915,154.826A26.888,26.888,0,1,1,264.8,127.937h0A26.918,26.918,0,0,1,237.915,154.826Zm0-52.872A25.984,25.984,0,1,0,263.9,127.938,25.983,25.983,0,0,0,237.915,101.954Z" transform="translate(-17.201 -33.229)" fill="#28497c"/>
                </g>
                <g id="Gruppe_1163" data-name="Gruppe 1163">
                  <path id="Pfad_1417" data-name="Pfad 1417" d="M237.985,159.533a.667.667,0,0,1-.213-.037c-6.681-2.386-15.236-5.876-15.322-5.911a.633.633,0,0,1-.346-.826l0-.009,23.245-54.2a.633.633,0,1,1,1.162.5h0l-22.99,53.6c2.058.832,9.039,3.637,14.673,5.649a.633.633,0,0,1-.212,1.228Z" transform="translate(-17.201 -33.229)" fill="#28497c"/>
                </g>
                <circle id="Ellipse_74" data-name="Ellipse 74" cx="220.393" cy="94.629" r="23.004" fill="#c6d5ec"/>
                <path id="Pfad_1418" data-name="Pfad 1418" d="M251.128,132.865a2.188,2.188,0,0,0-.806-.345,6.1,6.1,0,0,0-2.3-.046,16.418,16.418,0,0,1-17.5,6.462c.025.02.053.039.082.06q2.086,1.428,4.176,2.846a3.966,3.966,0,0,0,1.8.759,2.149,2.149,0,0,1,1.1.52,3.855,3.855,0,0,1,1.39,3,1.372,1.372,0,0,0,.582,1.028c.173.148.406.347.7.123.075-.058.177.085.257.116.268.1.44.443.8.318.168-.06.235.045.239.205,0,.068-.106.139.036.228.145-.4.455-.363.768-.3a.864.864,0,0,0,.551-.06c.225-.1.461-.179.688-.276.291-.123.584-.24.869-.381a4.917,4.917,0,0,0,.82-.363,2.279,2.279,0,0,1,.533-.327,2.43,2.43,0,0,0,1.286-1.154,3.969,3.969,0,0,0,.486-2.2.657.657,0,0,1,.191-.57c.317-.262.578-.568.862-.854a8.662,8.662,0,0,0,1.425-1.745c.18-.316.489-.571.482-.99a9.774,9.774,0,0,0-.063-1.054,3.264,3.264,0,0,1,.228-2.061,5.8,5.8,0,0,0,.739-1.518A1.246,1.246,0,0,0,251.128,132.865Zm-15.407-18.6v.005l.01-.007Zm-.074-1.628h0l.009-.007Zm-1.059.6a.534.534,0,0,1,.009-.053.25.25,0,0,0-.043-.043.418.418,0,0,0,0,.1.2.2,0,0,1,.034,0Zm-.439-.029-.008.022.02-.011Zm-.2,1.835v.008l0-.008Zm-.074.075h0l.007-.005Zm-.419.28-.007.007.011-.007Zm-1.064,1.344,0,.007.009-.007Zm-1.76,1.92a.171.171,0,0,0,.032,0q-.007-.069-.012-.141c-.069.1-.042.136-.015.139Zm-3.054-1.555.006-.007h-.011Zm-6.606-4.623a7.361,7.361,0,0,1-1.5,1.095,1.686,1.686,0,0,0-.342.3c-.15.175.082.282.073.443,0,.09.195.007.261-.051.445-.389,1.059-.433,1.527-.772.117-.084.147-.074.249.035a16.422,16.422,0,0,1,2.435-2.712,4.6,4.6,0,0,0-1.1.411,5.743,5.743,0,0,0-1.6,1.249Zm-1.975,5.5c-.182.23-.365.461-.551.689a5.267,5.267,0,0,0-1.115,1.725c-.21.682-.413,1.369-.679,2.03a.762.762,0,0,0,.06.707,3.076,3.076,0,0,1,.07,2.488c-.1.256-.085.388.1.529s.3.285.228.508c-.129.418.169.681.352.981a.238.238,0,0,0,.307.092c.127-.063.049-.162.058-.247a2.74,2.74,0,0,0-.239-1,4.663,4.663,0,0,1-.258-1.557c.012-.143,0-.313.179-.382.1.266-.1.566.065.8a8.5,8.5,0,0,1,.9,1.933,2.622,2.622,0,0,1,.363,1.161,1.218,1.218,0,0,0,.684,1.321c.046.025.09.047.136.07A16.45,16.45,0,0,1,219,118Z" transform="translate(-17.201 -33.229)" fill="#728eb8"/>
                <path id="Pfad_1419" data-name="Pfad 1419" d="M247.83,132.506c-.269.047-.527.09-.69-.222-.038-.073-.159-.161-.224-.148a3.111,3.111,0,0,0-1.509.36c.029-.344-.2-.349-.43-.324a1.437,1.437,0,0,0-.8.336,3.218,3.218,0,0,1,.14-.419c.168-.332.253-.636-.169-.853-.063-.034-.087-.137-.143-.2a2.474,2.474,0,0,0-1.308-1,3.083,3.083,0,0,0-2.048.3.751.751,0,0,1-.927-.134c-.341-.294-.632-.724-1.192-.625-.044.007-.145-.046-.145-.073-.007-.314-.264-.24-.437-.287-.138-.038-.353-.017-.4-.1-.171-.291-.389-.136-.576-.089a9.291,9.291,0,0,1-1.245.461c-.446.046-.856.367-1.351.063-.382-.235-.847-.394-1.108.224-.023.058-.1.1-.154.14-.074.06-.146.2-.254.082s0-.244.089-.291c.15-.083.206-.157.076-.287s-.225-.061-.328.039a17.9,17.9,0,0,0-1.816,2.111.509.509,0,0,1-.559.244,1.672,1.672,0,0,0-.962.119,2.8,2.8,0,0,1-.9.286,1.354,1.354,0,0,1-1.12-.945,1.872,1.872,0,0,1,.123-1.3c.192-.354.025-.618-.384-.629a2.225,2.225,0,0,0-.282.018,9.815,9.815,0,0,0-1.3.168c-.1.024-.288.1-.311-.092a1.559,1.559,0,0,1,.117-.961,4.049,4.049,0,0,0,.4-1.041c.16-.547,0-.726-.585-.652a1.189,1.189,0,0,0-.663.278,6.4,6.4,0,0,0-.715.818c-.276.341-.45.766-.854,1.01a.5.5,0,0,1-.559-.007c-.186-.1-.164-.291-.166-.457a1.113,1.113,0,0,0,0-.2,6.449,6.449,0,0,1,.21-3.36,1.688,1.688,0,0,1,1.7-1.263,2.062,2.062,0,0,0,1.568-.556,1.376,1.376,0,0,1,.327-.206,1.228,1.228,0,0,1,1.431.428c.168.309.3.636.47.945a.6.6,0,0,0,.534.329c.136,0,.257-.233.247-.389a3.351,3.351,0,0,0-.305-1.492.423.423,0,0,1,.032-.546h0a3.4,3.4,0,0,1,1.41-1.9c.045-.17.273-.118.33-.271a1.73,1.73,0,0,0,.593-.535,2.439,2.439,0,0,0-.027-.753.171.171,0,0,1-.032,0c-.027,0-.054-.038.02-.139a1.2,1.2,0,0,0,.012.141,1.607,1.607,0,0,0,.17,0c.034-.051.068-.1.1-.156.085-.188-.018-.471.283-.547a4.7,4.7,0,0,0,.82-.964c.1-.112.167-.266.351-.255.087-.126.289-.089.356-.242a.808.808,0,0,1,.587-.98.431.431,0,0,1,.049-.011c0-.053-.008-.112.072-.111a.84.84,0,0,1,.419-.28c0-.053.031-.069.074-.075.022-.072.053-.115.131-.039a1.044,1.044,0,0,0,1.109-.517c.107-.162.208-.239.394-.181l.133-.039c.044-.075.09-.148.134-.223-.089-.213-.125-.518-.421-.121a.611.611,0,0,1-.569.2c-.235-.032-.367-.143-.346-.387.014-.166.045-.332.07-.5a.216.216,0,0,0-.036,0,.418.418,0,0,1,0-.1c-.141-.114-.269.067-.4.063h0l.012.01-.02.011.008-.022h-.006a5.241,5.241,0,0,1,1.016-.358l.488-.208c0-.054.051-.058.09-.068a1.222,1.222,0,0,0,.518-.853c0-.351-.469-.692-.931-.7a.589.589,0,0,1-.532-.252.449.449,0,0,0-.23-.254c-.181-.123-.331-.341-.551-.347s-.268.26-.389.408-.464.109-.469-.045c-.017-.382-.268-.3-.488-.3s-.446-.013-.667,0c-.118.009-.3-.06-.314.167-.066.2.057.442-.136.614a.381.381,0,0,0-.043.3,1.322,1.322,0,0,1-.421,1.035c-.051.377.021.789-.317,1.086a.3.3,0,0,1-.348.079c-.136-.067-.116-.195-.109-.332a4.447,4.447,0,0,0-.041-.621,2.02,2.02,0,0,1-1.025-.141c-.1-.007-.211-.016-.316-.022-.125-.007-.286.044-.331-.121a.382.382,0,0,1,.1-.347,8.587,8.587,0,0,1,1.287-1.175c.162-.09.3-.331.518-.063.067.08.176.024.246-.05a.744.744,0,0,1,.534-.181c.174-.2-.05-.155-.125-.192-.168-.081-.275-.193-.1-.341a.355.355,0,0,0,.143-.406.186.186,0,0,1,.043-.2,1.2,1.2,0,0,1,1.019-.056c.05.035.116.089.063.134-.157.143-.1.486-.44.462-.1,0-.166.083-.2.174a.079.079,0,0,0,.035.107l.013.006a.258.258,0,0,0,.291-.061.432.432,0,0,1,.515-.063,1.114,1.114,0,0,0,.358.138c.236,0,.515.065.688-.125a.3.3,0,0,0,.047-.422.348.348,0,0,0-.047-.047c-.184-.142.219-.246.1-.451a.22.22,0,0,0-.188-.116c-.194-.047-.463,0-.571-.09-.311-.257-.643-.186-.983-.215-.683-.056-.711-.1-.654-.767.016-.18-.025-.218-.174-.195a2.045,2.045,0,0,0-1.008.517c.161.135.319.083.472.1-.15.271-.315.146-.445.054a2.512,2.512,0,0,1-.668.833c-.117.094-.215.1-.083.282a.226.226,0,0,1-.056.314.22.22,0,0,1-.1.039c-.145.018-.218-.2-.206-.225.189-.293-.132-.247-.251-.345.133-.143.314-.094.428-.161.175-.1.034-.267,0-.462-.141.183-.218.372-.474.24-.072-.038-.3.08-.357.232-.047.121.126.075.174.148a.2.2,0,0,1,.04.191c-.033.094-.1.082-.172.065a1.1,1.1,0,0,0-1.272.549c.067.126.28-.08.278.092-.007.5.31.242.472.19.293-.1.554-.283.82-.231-.462.166-.918.554-1.568.318a1.615,1.615,0,0,0-1.235.179c-.537.283-1.124.063-1.661.251-.022.008-.1.039-.09-.05.024-.233-.14-.134-.224-.111l-.261.068a16.422,16.422,0,0,0-2.435,2.712l.011.01c.188.2.047.305-.068.4a1.481,1.481,0,0,0-.515.853c-.121.52-.6.856-.646,1.4,0,.013-.034.031-.054.036-.394.087-.347.4-.318.67a.491.491,0,0,1-.11.414c-.184.22-.363.443-.542.667a16.45,16.45,0,0,0,.66,11.842,7.757,7.757,0,0,0,2.227.607.5.5,0,0,0,.268-.075,1.961,1.961,0,0,1,1.371-.009,4.817,4.817,0,0,0,1.417.5,2.186,2.186,0,0,1,1.252.63.562.562,0,0,1,.271.425c.019.189.154.4.367.334a.549.549,0,0,1,.563.184c.445.45,1.05.336,1.572.5.121.038.353-.022.242-.28a.636.636,0,0,1,.37-.67.343.343,0,0,1,.438.328c0,.073.077.143.132.2a2.463,2.463,0,0,1,.653,1.263c.067.379.213.82-.114,1.156-.261.269-.177.725-.547.925-.085.047-.053.172-.065.266a5.127,5.127,0,0,1-.087.52.7.7,0,0,0,.413.9.539.539,0,0,0,.068.022c.081.031.074.083.054.136a3.086,3.086,0,0,1-.155.354.62.62,0,0,0,.115.87l.03.022a16.418,16.418,0,0,0,17.5-6.462A.577.577,0,0,1,247.83,132.506ZM230.3,116.39c.119-.033.26-.226.379.009a.493.493,0,0,1-.583.225l-.1.017c.026-.175.178-.215.3-.251Zm-.056-7.3c.043-.053.338-.089.051-.235-.044-.021.025-.061.075-.05.1.026.2-.092.347,0-.3.175-.407.39-.089.708a2.3,2.3,0,0,0-.281-.079c-.286-.041-.255-.164-.1-.345Zm-2.077,7.537a.667.667,0,0,0-.235.457.925.925,0,0,1-.533.84c-.218-.339,0-.573.189-.813l0-.005h.013a.038.038,0,0,0,.034-.022c.081-.1.2-.188.232-.3a.741.741,0,0,1,.6-.56,1.021,1.021,0,0,1-.295.4Zm1.1.7c-.105.351-.288.416-.612.221.307-.067.459-.418.827-.405l-.215.186Zm.2-1.257a.067.067,0,0,1,.058.029c.049.21-.087.375-.155.553-.043.107-.162.233-.305.186-.119-.041-.15-.161-.092-.294.07-.172.029-.3-.2-.327.224-.27.477-.092.695-.145Zm-2.335-.078.1-.019c.077-.08.137-.194.28-.146-.014-.063.022-.075.075-.07-.008-.105.086-.107.147-.143l-.009.012a1.454,1.454,0,0,1,.459-.316c.249-.056.486-.087.641.191a.186.186,0,0,1-.021.253c-.123.11-.307.075-.45.176a.267.267,0,0,1-.378.007.276.276,0,0,1-.045-.057c-.092-.128-.2.025-.288.09-.137.1-.236.261-.442.251-.238-.01-.169-.111-.068-.227Zm-.484-1.781a.884.884,0,0,1-.148.621c-.18-.3-.157-.413.149-.619Zm-.553-1.993c-.244.051-.392.2-.6.211.215-.026.26-.434.6-.209Zm7.06,18.689a.288.288,0,0,1-.259-.278c-.009-.115-.009-.234.126-.3a.4.4,0,0,1,.269.338C233.3,130.777,233.277,130.918,233.151,130.907Z" transform="translate(-17.201 -33.229)" fill="#7d9bc7"/>
                <g id="Gruppe_1164" data-name="Gruppe 1164">
                  <rect id="Rechteck_237" data-name="Rechteck 237" x="210.357" y="124.923" width="19.467" height="2.466" fill="#3c5d91"/>
                  <path id="Pfad_1420" data-name="Pfad 1420" d="M247.025,160.109v.508H227.558v-2.465h2.918C230.334,158.806,231.442,160.489,247.025,160.109Z" transform="translate(-17.201 -33.229)" fill="#28497c"/>
                </g>
              </g>
              <g id="Gruppe_1166" data-name="Gruppe 1166">
                <path id="Pfad_1421" data-name="Pfad 1421" d="M253.783,141.382c-1.115-12.82-.682-33.944-.677-34.155l.833.018c0,.211-.437,21.29.674,34.066Z" transform="translate(-17.201 -33.229)" fill="#001b44"/>
                <path id="Pfad_1422" data-name="Pfad 1422" d="M257.16,140.129c-.005-.108-.563-10.862-.563-14.656,0-3.81.9-11.012.9-11.084l.827.1c-.01.071-.9,7.223-.9,10.981s.556,14.5.562,14.613Z" transform="translate(-17.201 -33.229)" fill="#002944"/>
                <path id="Pfad_1423" data-name="Pfad 1423" d="M268.4,109.505a4.629,4.629,0,0,0-2.064-.577c.079-.426.153-.9.195-1.339a10.927,10.927,0,0,1,1.679-.625c2.46-.676,3.847,1.683,3.933,1.834-.09-.157-1.719-2.97-4.251-2.724a10.029,10.029,0,0,0-1.45.237c-.342-.711-1.36-.874-2.025-1.588,1.215-2.127,2.112-4.65,1.95-6.27-.254-2.54-1.525-1.334-1.525-1.334l-2.921,3.112a10.31,10.31,0,0,1,7.113-6.923,6.571,6.571,0,0,0-4.733,1.058,3.255,3.255,0,0,0-1.618-4.043,3.97,3.97,0,0,0-3.788.177l-.327-1.635a4.008,4.008,0,0,0,2.082-.955c2.1-1.778,1.651-3.3,1.651-3.3l-.8.367c.946-1.237,2.951-4.389,2.9-6.211-.064-2.286,3.048-3.683,3.048-3.683-1.406.14-2.326,1.06-3.373,2.229a6.675,6.675,0,0,0,.2-1.086s-3.239-.889-4.573,1.017c-.186.264-.36.509-.528.738a7.979,7.979,0,0,0-.806-3.723,12.485,12.485,0,0,1-1.651,3.111,13.159,13.159,0,0,0-1.607,4.88c-.264.032-.524.084-.737.132.155-1.466.226-2.64.439-3.615.317-1.461,2.6-2.54,2.731-4.065a5.471,5.471,0,0,1,1.143-2.731,9.192,9.192,0,0,0-3.176,1.842,11.347,11.347,0,0,0-1.547,3.616,11.709,11.709,0,0,0-.739-2.918,3.958,3.958,0,0,0-.729,1.867,36.931,36.931,0,0,0-2.446-4.725s-.182,2.3-.146,4.569l-1.759-2.664.508,2.477L247,74.954a23.9,23.9,0,0,0,2.3,7.929c-.754-1-1.536-1.982-2.168-2.657-1.842-1.969-3.556-4.319-5.4-4.764a10.1,10.1,0,0,1-3.112-1.333s-.508,1.143,1.461,2.1c.108.053.218.111.329.171a4.792,4.792,0,0,0-2.3.591s1.969.19,4.192,2.731c1.624,1.856,2.536,2.22,3.38,2.381.038.075.077.148.113.224a4.607,4.607,0,0,0,.257.46,12.934,12.934,0,0,1-3.623.048c-1.4-.318-3.557,1.651-3.557,1.651a5.044,5.044,0,0,1,2.413-.635c1.207.064,1.144-.826,2.477-.508a13.674,13.674,0,0,1,4.082,1.772c.475.634,1.021,1.283,1.58,1.905-.946-.469-3.693-2.025-3.693-2.025s-2.54.19-2.985.253-4.572,5.525-4.572,5.525,1.524-1.207,2.857-2.032.763-2.731,1.906-2.985a7.261,7.261,0,0,1,3.62.572,7.775,7.775,0,0,1,1.739,1.065.45.45,0,0,0-.2.074,4.42,4.42,0,0,0-4.2,2.8c-1.144,3.175-.254,4.573-.254,4.573s-1.016-2.54,2.223-4.128a6.681,6.681,0,0,0,2.575-1.962,22.656,22.656,0,0,0,2.434,2.617,2.387,2.387,0,0,1-.754-.21v.192l-3.174-.256s-.19.635,1.461,1.08L248.15,93l-3.43.191a5.138,5.138,0,0,0,2.6,1.079s-2.286,2.16-2.223,3.493l3.747-2.731s1.135.272,1.832.356c.025.073.052.145.079.215-.529.474-1.589,1.863.059,4.51a12.868,12.868,0,0,1,.724-3.266c.033.031.067.062.1.09l.075-.337a.367.367,0,0,1,.052-.044c.636-.445-.063,3.239.445,4.382l-2.1-.953s0,2.794,1.588,4.128c.846.71,1.978,1.779,2.853,2.625a2.366,2.366,0,0,1-1.963-1.1s-4.827-1.588-6.478,1.589a10.882,10.882,0,0,0-1.143,6.224s1.333-5.018,4.889-5.653c.683-.122,1.209-.225,1.622-.31a2.627,2.627,0,0,0,.283.69,11.022,11.022,0,0,0,1.768,2.075,10.318,10.318,0,0,0-3.863,1.037c-1.143.89-3.811,4-3.683,5.653a7.7,7.7,0,0,1,2.858-3.683c1.969-1.144.762-2.223,2.858-1.905,1.249.189,2.678.4,3.629.541l.122.1a4.811,4.811,0,0,0,.632,2.148,13.587,13.587,0,0,1,1.27,6.1,11.205,11.205,0,0,0,2.16-5.653c.042-1.009.063-1.975.072-2.817,1.566-.849,4.927-2.533,6.5-2.278a1.084,1.084,0,0,1,.079.279c.018-.078.036-.163.055-.254,1.967.449.606,1.453,2.434,1.895a6.406,6.406,0,0,1,3.675,3.117,9.128,9.128,0,0,0-3.929-5.022m-4.7-2.858a3.491,3.491,0,0,0,.521.682c-.275.171-.562.348-.9.525a16.176,16.176,0,0,1-2.08.882,10.4,10.4,0,0,1,.937-1.009,10.626,10.626,0,0,0,1.3-1.525c.066.135.139.282.225.446m-2.159-9.463a3.919,3.919,0,0,1-.889-1.9l1.574.976a11.3,11.3,0,0,0-.684.929m.381-4.573a6.872,6.872,0,0,1,1.987,2.028,8.77,8.77,0,0,0-1.283,1.152c-.073.078-.145.161-.217.245-.211-.683-.931-2.061-3.345-2.345-.077-.01-.149-.019-.218-.03-.174-.339-.29-.542-.29-.542a1.683,1.683,0,0,0-.417.344c-1.148-.6,2.357-1.839,3.782-.852m-5.4-.318.762-2.032,1.136.5a9.51,9.51,0,0,0-1.9,1.527m5.081-13.464a7.392,7.392,0,0,0,1.295-.218,14.83,14.83,0,0,1-1.93,1.742,9.561,9.561,0,0,0-2.948,3.059,2.59,2.59,0,0,0-.376-.613,2.745,2.745,0,0,0,1.482-2.191c.19-1.842.762-1.588,2.477-1.778m-1.9,32.228c.194-.361.428-.764.7-1.181a17.963,17.963,0,0,0,1.833-.245,11.176,11.176,0,0,0,2.927-1.344,8.129,8.129,0,0,1,.568.634,13.809,13.809,0,0,0-6.031,2.135" transform="translate(-17.201 -33.229)" fill="#3e5e91"/>
                <path id="Pfad_1424" data-name="Pfad 1424" d="M257.327,130.276s.2-.269,2.557-4.172,1.682-8.883,1.682-8.883a12.627,12.627,0,0,1-2.288,4.508c-1.952,2.692-2.154,4.441-2.154,4.643a5.874,5.874,0,0,1-.4-4.172c.673-2.22-1.346-5.382-1.346-5.382a31.626,31.626,0,0,1-2.086,5.652,5.314,5.314,0,0,0-.509,2.2,11.331,11.331,0,0,0-.972-1.863c-1.211-1.817-2.018-3.365-2.018-3.365-1.189,4.64.621,7.567,1.226,8.381a4.018,4.018,0,0,0-4.12-1.584c2.49.6,3.835,2.625,2.355,1.884s-3.567.471-3.567.471a22.162,22.162,0,0,1-2.153,1.144c-1.884.942-1.279,0-2.423,1.413a2.6,2.6,0,0,0-.134,2.961,22.96,22.96,0,0,1,5.114-4.643c3.162-2.086,6.258,2.154,6.46,2.489s1.749.269,2.422.942.135,4.172.135,4.172a6.549,6.549,0,0,0,1.076-3.97,1.267,1.267,0,0,1,2.154-.673c1.682,1.144,1.21,5.047,1.21,5.047s1.279-3.231.606-5.586c-.395-1.381-.789-1.651-1.048-1.638.667-.355,2.256-1.208,2.731-1.525.605-.4,2.153.337,2.153.337a14.967,14.967,0,0,0-2.22-.875c-.673-.134-4.441,2.087-4.441,2.087" transform="translate(-17.201 -33.229)" fill="#3e5e91"/>
                <path id="Pfad_1425" data-name="Pfad 1425" d="M245.526,139.432l3.449,18.873a4.029,4.029,0,0,0,3.963,3.305h6.436a4.029,4.029,0,0,0,3.967-3.325l3.35-18.854Z" transform="translate(-17.201 -33.229)" fill="#354761"/>
              </g>
              <path id="Pfad_1426" data-name="Pfad 1426" d="M73.015,120.028c.68.217.556,2.935,0,3.12-.267.089-8.63-.028-17.137-.041-9.24-.013-18.679.069-18.888-.053-.571-.331-.927-2.748.123-3.026.539-.142,9.8-.083,18.765-.072C64.418,119.966,72.683,119.923,73.015,120.028Z" transform="translate(-17.201 -33.229)" fill="#496287"/>
              <g id="Gruppe_1167" data-name="Gruppe 1167">
                <path id="Rechteck_238" data-name="Rechteck 238" d="M39.164,128.891h-7.5a.538.538,0,0,1-.538-.538h0v-5.184a.538.538,0,0,1,.538-.538h7.5v6.26Z" transform="translate(-17.201 -33.229)" fill="#7d9bc7"/>
                <rect id="Rechteck_239" data-name="Rechteck 239" x="20.11" y="90.37" width="33.944" height="4.284" fill="#fff"/>
                <rect id="Rechteck_240" data-name="Rechteck 240" x="19.635" y="94.654" width="34.913" height="1.008" rx="0.222" fill="#7d9bc7"/>
                <rect id="Rechteck_241" data-name="Rechteck 241" x="19.635" y="89.402" width="34.913" height="1.102" rx="0.222" fill="#7d9bc7"/>
              </g>
              <g id="Gruppe_1168" data-name="Gruppe 1168">
                <path id="Pfad_1427" data-name="Pfad 1427" d="M33.006,134.9a39.324,39.324,0,0,0,5.3.133c.682,0,1.409,0,2.18,0h.91c.415,0,.84,0,1.275,0,2.842-.01,6.051-.019,9.229-.01,8.508.025,16.867.257,17.134.079.559-.371.682-5.809,0-6.239-.332-.212-8.6-.124-17.134-.143-3.174-.011-6.387-.02-9.229-.025H38.3a46.242,46.242,0,0,0-5.171.163C32.458,129.114,32.437,134.24,33.006,134.9Z" transform="translate(-17.201 -33.229)" fill="#24324f"/>
                <path id="Pfad_1428" data-name="Pfad 1428" d="M38.3,128.688v6.347c.682,0,1.409,0,2.18,0v-6.346C39.709,128.684,38.977,128.688,38.3,128.688Z" transform="translate(-17.201 -33.229)" fill="#fff"/>
                <path id="Pfad_1429" data-name="Pfad 1429" d="M41.39,128.684v6.342c.415,0,.84,0,1.275-.005v-6.337Z" transform="translate(-17.201 -33.229)" fill="#fff"/>
              </g>
              <g id="Gruppe_1169" data-name="Gruppe 1169">
                <path id="Rechteck_242" data-name="Rechteck 242" d="M60.256,114.981h7.5a.538.538,0,0,1,.538.538h0v4.136a.538.538,0,0,1-.538.538h-7.5v-5.212Z" transform="translate(-17.201 -33.229)" fill="#c6d1ec"/>
                <rect id="Rechteck_243" data-name="Rechteck 243" x="10.964" y="81.886" width="33.944" height="4.071" fill="#fff"/>
                <rect id="Rechteck_244" data-name="Rechteck 244" x="10.469" y="85.957" width="34.913" height="1.008" rx="0.222" fill="#c6d1ec"/>
                <rect id="Rechteck_245" data-name="Rechteck 245" x="10.454" y="81.747" width="34.913" height="1.102" rx="0.222" fill="#c6d1ec"/>
              </g>
              <path id="Pfad_1430" data-name="Pfad 1430" d="M69.031,109.87c.679.359.556,4.871,0,5.179-.267.147-8.63-.047-17.138-.068-9.239-.023-18.678.114-18.888-.088-.57-.549-.926-4.561.124-5.023.538-.236,9.8-.138,18.764-.119C60.434,109.77,68.7,109.7,69.031,109.87Z" transform="translate(-17.201 -33.229)" fill="#28497c"/>
              <g id="Gruppe_1170" data-name="Gruppe 1170">
                <path id="Pfad_1431" data-name="Pfad 1431" d="M36.6,113.053v-1.334a1.266,1.266,0,0,1,1.265-1.265H64.506a1.267,1.267,0,0,1,1.265,1.265v1.334a1.267,1.267,0,0,1-1.265,1.265H37.869A1.267,1.267,0,0,1,36.6,113.053Zm1.265-2.134a.8.8,0,0,0-.8.8v1.334a.8.8,0,0,0,.8.8H64.506a.8.8,0,0,0,.8-.8v-1.334a.8.8,0,0,0-.8-.8Z" transform="translate(-17.201 -33.229)" fill="#496287"/>
              </g>
            </g>
          </g>
        </g>
      </g>
    </g>
  </g>
</svg>
