<svg xmlns="http://www.w3.org/2000/svg" xmlns:xlink="http://www.w3.org/1999/xlink" viewBox="0 0 243.549 194.46">
  <defs>
    <clipPath id="clip-path" transform="translate(-37.427 -33.063)">
      <path d="M300,62.132a150,150,0,0,1-300,0C0-20.711,300-20.711,300,62.132Z" fill="none"/>
    </clipPath>
  </defs>
  <title>B_studium1</title>
  <g id="Ebene_2" data-name="Ebene 2">
    <g id="Ebene_1-2" data-name="Ebene 1">
      <g clip-path="url(#clip-path)">
        <g id="Gruppe_844" data-name="Gruppe 844">
          <g id="Gruppe_843" data-name="Gruppe 843">
            <path id="Pfad_691" data-name="Pfad 691" d="M274.312,154.024,248.429,119.7l-2.822,4.517,24.845,32.961s1.476.825,2.044.265A20.563,20.563,0,0,0,274.312,154.024Z" transform="translate(-37.427 -33.063)" fill="#4d72ab"/>
            <g id="Gruppe_700" data-name="Gruppe 700">
              <path id="Pfad_692" data-name="Pfad 692" d="M263.132,226.928H240.5c-.031-.967-.064-1.939-.164-2.906a18.8,18.8,0,0,0-.989-4.137c-.055-.154-.109-.313-.169-.468a40.708,40.708,0,0,1-2.047-6.439,48.487,48.487,0,0,1-.327-5.4c0-.091-.009-.187-.018-.277a1.638,1.638,0,0,0-.018-.209,64.743,64.743,0,0,0-1.272-6.49,34.446,34.446,0,0,1-.582-5.232c-.322-1.23-.631-2.466-.9-3.71q-.823,7.718-1.648,15.431c-.013.09-.023.186-.032.277-.01.068-.014.14-.023.209-.4,3.814-.8,7.633-1.212,11.453-.014.159-.032.313-.05.472-.273,2.474-.554,4.954-.859,7.424h-19.9c-.286-2.116-.695-4.223-.994-6.335-.019-.145-.042-.29-.06-.435a31.223,31.223,0,0,1-.313-5.482,86.778,86.778,0,0,0-.14-9.473c-.01-.15-.018-.3-.033-.449-.213-3.12-.553-6.235-.939-9.337a50.9,50.9,0,0,1-.332-6.33v-.446c.023-2.869.186-5.731.236-8.61,0-.154.01-.3.01-.459.022-1.385.013-2.775-.055-4.169-.217-4.6,1.209-8.887,1.39-13.468-.2.018-.4.036-.59.059-.273.027-.269-.427,0-.454l.6-.063a17.12,17.12,0,0,0-.141-2.62c-.041-.287.368-.409.409-.123a18.053,18.053,0,0,1,.145,2.7l3.215-.323.5-.045,10-1,.463-.046,9.091-.908c1.676-.168,3.356-.354,5.041-.509l.458-.041a55.593,55.593,0,0,1,6.73-.232,41.106,41.106,0,0,1,5.218.517h.013c.109.018.268.037.45.064s.363.063.554.109a7.629,7.629,0,0,1-.413-.872,10.428,10.428,0,0,1-.34-1.049,16.792,16.792,0,0,1-.477-3.632c-.018-.5-.031-1-.036-1.5a.214.214,0,1,1,.427,0c.032,2.424.091,5.268,1.489,7.311a.692.692,0,0,1,.359.467.134.134,0,0,0,.018.028c1.54,1.789,2.216,2.139,2.6,4.7.672,4.513,1.462,7.279,2.412,11.334.031.146.068.29.1.44.1.409.191.832.29,1.268.809,3.632,1.449,8.038,1.94,12.315l.054.45c.3,2.615.54,5.167.74,7.461.163,1.867.291,3.738.409,5.6.013.154.023.309.027.463.263,4.192.468,8.383.8,12.57.118,1.5.35,2.988.6,4.473.027.154.05.309.077.463C262.614,223.192,262.95,225.053,263.132,226.928Z" transform="translate(-37.427 -33.063)" fill="#a5b3c9"/>
            </g>
            <path id="Pfad_693" data-name="Pfad 693" d="M217.387,92.6a22.227,22.227,0,0,0-9.318,2.671c-3.024,1.639-4.567,2.449-7.463,4.226-3.793,2.327-14.773,9.555-15.54,9.758a2.165,2.165,0,0,0-1.435.836c-.346.569.68,2.764.7,3.385q.044,1.638.237,3.268a36.415,36.415,0,0,0,1.137,5.675c.346,1.218.668,3.019,1.944,3.632,1.419.682,3.881,3.184,5.308,3.06,1.914-.167,14.521,1.938,14.521,1.938s-1.469-7.883.152-8.228c1.151-.246,2.681-.742,3.317-1.829a9.075,9.075,0,0,0,.7-2.738q.351-1.744.649-3.5.633-3.726,1.017-7.49t.519-7.54c.03-.843,2.089-6.58,3.61-6.674C217.725,93.029,217.678,92.578,217.387,92.6Z" transform="translate(-37.427 -33.063)" fill="#213759"/>
            <path id="Pfad_694" data-name="Pfad 694" d="M246.037,91.737s-2.07-.442-3.051-.724a14.551,14.551,0,0,1-3.5-1.453,8.3,8.3,0,0,1-4.026-6.116,78.63,78.63,0,0,1-.819-7.867,3.351,3.351,0,0,0-.069-.968.228.228,0,0,0-.446.061c.021.324.044.646.066.97-.191,2.351-3.242,3.71-5.233,4.289a50.011,50.011,0,0,1-6.537,1.329c-.139-.758-.292-1.512-.477-2.26a.228.228,0,0,0-.439.121c.182.731.335,1.466.47,2.2l-.106.016c-.288.042-.165.48.121.438l.068-.01c.159.932.279,1.872.354,2.818a10.623,10.623,0,0,1-.544,5.29c-1.248,2.737-7.048,4.745-7.048,4.745a.47.47,0,0,0-.109.044,8.1,8.1,0,0,0,1.7,2.543,46.148,46.148,0,0,0,5.821,2.879,51.107,51.107,0,0,0,6.392,2.272c1.785.474,3.428-.556,5-1.313a60.379,60.379,0,0,0,11.11-6.953A9.165,9.165,0,0,0,246.037,91.737Z" transform="translate(-37.427 -33.063)" fill="#735f5f"/>
            <path id="Pfad_695" data-name="Pfad 695" d="M217.276,76.065a12.538,12.538,0,0,0,4.492,6.438,8.72,8.72,0,0,0,8.1.548,10.419,10.419,0,0,0,4.844-3.973,19.2,19.2,0,0,0,2.056-5.961,26.449,26.449,0,0,0,.714-10.648,10.717,10.717,0,0,0-4.409-7.929c-2.575-2.087-6.221-2.163-9.428-1.321a11,11,0,0,0-6.242,3.768c-2.208,3.055-2.347,6.923-1.994,10.536a37.21,37.21,0,0,0,1.779,8.278Z" transform="translate(-37.427 -33.063)" fill="#735f5f"/>
            <path id="Pfad_696" data-name="Pfad 696" d="M220.568,67.288c-1.026-.2-.854,2.267-.1,2.289a.624.624,0,0,0,.474-.238C221.348,68.859,221.347,67.443,220.568,67.288Z" transform="translate(-37.427 -33.063)" fill="#09111a"/>
            <path id="Pfad_697" data-name="Pfad 697" d="M231.346,66.356c-.978-.194-.814,2.163-.094,2.182a.6.6,0,0,0,.453-.226C232.091,67.856,232.09,66.505,231.346,66.356Z" transform="translate(-37.427 -33.063)" fill="#09111a"/>
            <g id="Gruppe_701" data-name="Gruppe 701">
              <path id="Pfad_698" data-name="Pfad 698" d="M225.645,74.833a3.468,3.468,0,0,1-.488-.032.773.773,0,0,1-.554-.339c-.318-.484-.088-1.33.064-1.889.031-.111.057-.21.074-.287a13.5,13.5,0,0,0,.2-2.7.227.227,0,0,1,.453-.015,13.54,13.54,0,0,1-.211,2.814c-.017.082-.047.189-.08.31-.114.422-.327,1.208-.122,1.522a.313.313,0,0,0,.24.137,5.932,5.932,0,0,0,2.139-.247.227.227,0,0,1,.135.434A7.157,7.157,0,0,1,225.645,74.833Z" transform="translate(-37.427 -33.063)" fill="#524444"/>
            </g>
            <path id="Pfad_699" data-name="Pfad 699" d="M223.36,76.724a28.939,28.939,0,0,0,3.316-.22c2.228-.28,3.292-.528,3.292-.528s-.38,1.939-3.151,2.237A3.8,3.8,0,0,1,223.36,76.724Z" transform="translate(-37.427 -33.063)" fill="#fff"/>
            <g id="Gruppe_702" data-name="Gruppe 702">
              <path id="Pfad_700" data-name="Pfad 700" d="M227.014,84.329a8.92,8.92,0,0,1-4.652-1.2.227.227,0,0,1,.251-.379,9.058,9.058,0,0,0,5.952,1c3.268-.5,5.379-3.732,5.769-4.375l.207.1.193.12c-.42.691-2.632,4.074-6.1,4.607A10.588,10.588,0,0,1,227.014,84.329Z" transform="translate(-37.427 -33.063)" fill="#524444"/>
            </g>
            <path id="Pfad_701" data-name="Pfad 701" d="M237.078,65.047s1.78-1.122,2.219,1.924-.477,5.146-1.984,5.291-1.947-2.222-1.947-2.222Z" transform="translate(-37.427 -33.063)" fill="#735f5f"/>
            <path id="Pfad_702" data-name="Pfad 702" d="M215.692,67.228s-1.917-.872-1.94,2.205,1.167,5.035,2.681,4.975,1.629-2.465,1.629-2.465Z" transform="translate(-37.427 -33.063)" fill="#735f5f"/>
            <path id="Pfad_703" data-name="Pfad 703" d="M222.866,65.1a1.408,1.408,0,0,0-.92-.173,13.28,13.28,0,0,0-2.106.35,3.472,3.472,0,0,0-1.656.656c-.417.388-.465.8.118.872a9.439,9.439,0,0,0,1.737-.268q.723-.083,1.449-.118c.458-.022,1.163.1,1.537-.247a.757.757,0,0,0-.159-1.072Z" transform="translate(-37.427 -33.063)" fill="#09111a"/>
            <path id="Pfad_704" data-name="Pfad 704" d="M228.736,64.657a.713.713,0,0,0,.12.934c.421.285,1.1.063,1.556.018q.725-.073,1.451-.1a9.548,9.548,0,0,0,1.757.007c.568-.153.459-.558-.012-.88a3.463,3.463,0,0,0-1.734-.4,13.353,13.353,0,0,0-2.135-.034,1.415,1.415,0,0,0-.885.308A.761.761,0,0,0,228.736,64.657Z" transform="translate(-37.427 -33.063)" fill="#09111a"/>
            <path id="Pfad_705" data-name="Pfad 705" d="M236.887,58.423A11.408,11.408,0,0,0,228.81,52a13,13,0,0,0-5.576.483,12.22,12.22,0,0,0-4.825,2.318,27.037,27.037,0,0,0-2.06,2.337,7.62,7.62,0,0,0-1.487,2.182,10.376,10.376,0,0,0-.2,5.658.229.229,0,0,0-.147.261c.139.724.653,3.236,1.624,3.3a.228.228,0,0,0,.2-.113c.57-.874.26-2.249.1-3.2-.194-1.171-.34-2.338-.436-3.512a8.141,8.141,0,0,1,1.466-2.437c.9-.9,1.836-.294,2.857-.213a1.691,1.691,0,0,0,1.105-.268c.355-.219.584-.6.958-.8a3.02,3.02,0,0,1,1.538-.169,21.418,21.418,0,0,0,4.654-.5,9.6,9.6,0,0,1,2.68-.153,6.562,6.562,0,0,0,1.645-.012c.09,0,.183.008.286.011a3.769,3.769,0,0,1,.653.078,40.238,40.238,0,0,1,.908,4.893c.164.957.474,3.642,1.683,3.957,1.126.293,1.34-1.355,1.419-2.067A10.494,10.494,0,0,0,236.887,58.423Z" transform="translate(-37.427 -33.063)" fill="#09111a"/>
            <g id="Gruppe_703" data-name="Gruppe 703">
              <path id="Pfad_706" data-name="Pfad 706" d="M237.246,69.8a.236.236,0,0,1-.129-.039.229.229,0,0,1-.059-.316,2.318,2.318,0,0,0,.33-1.039,1.8,1.8,0,0,0-.194-1.012.227.227,0,1,1,.385-.241h0a2.227,2.227,0,0,1,.261,1.29,2.771,2.771,0,0,1-.408,1.261A.226.226,0,0,1,237.246,69.8Z" transform="translate(-37.427 -33.063)" fill="#524444"/>
            </g>
            <g id="Gruppe_704" data-name="Gruppe 704">
              <path id="Pfad_707" data-name="Pfad 707" d="M216.149,72.114a.226.226,0,0,1-.167-.074,2.754,2.754,0,0,1-.576-1.193,2.215,2.215,0,0,1,.083-1.313.227.227,0,0,1,.414.186,1.822,1.822,0,0,0-.053,1.029,2.352,2.352,0,0,0,.468.985.227.227,0,0,1-.168.38Z" transform="translate(-37.427 -33.063)" fill="#524444"/>
            </g>
            <path id="Pfad_708" data-name="Pfad 708" d="M237.709,56.665a17.379,17.379,0,0,0-.9-5.85c-.932-2.146-3.787-2.843-5.954-2.1a2.7,2.7,0,0,0-2.465-1.769c-2.2-.29-4.084.789-5.862,1.924a4.908,4.908,0,0,1-.77.334s-.047-.207-.065-.315c-.253-.349-.279-.711-.711-.9a1.633,1.633,0,0,0-1.308.071,5.348,5.348,0,0,0-1.783,1.473,1.022,1.022,0,0,0-.584-.486c-.99-.293-2.109.565-2.655,1.289a7.7,7.7,0,0,0-1.324,3.827,30.42,30.42,0,0,0,1.28,11.775.227.227,0,0,0,.441-.091.219.219,0,0,0,.108-.127c.428-1.281.125-2.532.13-3.847a4.289,4.289,0,0,1,.648-2.356,6.929,6.929,0,0,1,1.728-1.533c.241-.2.252-.322.442-.539a5.047,5.047,0,0,1,1.43-1.073,14.967,14.967,0,0,1,4.366-1.745,14.006,14.006,0,0,1,4.9.417,29.784,29.784,0,0,1,4.09.807,4.646,4.646,0,0,1,3.3,3.257c.451,1.482.707,3.045,1.047,4.555.059.261.668-.445.668-.445S237.839,58.98,237.709,56.665Z" transform="translate(-37.427 -33.063)" fill="#09111a"/>
            <path id="Pfad_709" data-name="Pfad 709" d="M258.31,164.389c-.572,3.96-3.056,2.747-6.14,2.747H239.592c-5.913,0-11.817.19-17.725.273-2.96.04-5.921.054-8.881,0-2.076-.032-4.233.845-6.3.336-2.888-.7-2.452-3.292-2.239-5.718.468-5.345-.6-14.931-1.58-22.128-.663-4.914-1.281-8.711-1.326-9.291a8.312,8.312,0,0,0-.19-1.226,16.393,16.393,0,0,0-.868-2.606c-2.012-5.046.24-10.808.077-16.144-.082-2.62,5.049-5.086,5.159-7.706.072-1.662.4-3.533,1.771-4.646a7.833,7.833,0,0,1,2.688-1.162,8.726,8.726,0,0,0,3.288-2.107,7.715,7.715,0,0,1,3.492-2.157c.74-.882,3.183.945,3.728,1.244,2.367,1.289,4.931,2.53,7.693,2.53,2.979,0,5.826-1.539,8.451-2.789,2.938-1.4,5.726-2.666,7.057-3.224s9.882,2.37,11.77,4.926c2.42,3.279.141,5.209-.336,8.915a65.834,65.834,0,0,0-.872,13.182c.277,3.864.968,7.683,1.394,11.534.064.6.127,1.2.177,1.807a66.744,66.744,0,0,1,.091,8.933c-.073,1.617-.191,3.233-.318,4.85-.332,4.255,1.118,8.405,1.917,12.529A21.864,21.864,0,0,1,258.31,164.389Z" transform="translate(-37.427 -33.063)" fill="#7693bc"/>
            <g id="Gruppe_705" data-name="Gruppe 705">
              <path id="Pfad_710" data-name="Pfad 710" d="M215.906,56.728a.226.226,0,0,1-.226-.213,13.148,13.148,0,0,1,.253-3.573,19.24,19.24,0,0,1,1.226-2.918.227.227,0,0,1,.4.211,19.309,19.309,0,0,0-1.194,2.835,13.067,13.067,0,0,0-.235,3.418.227.227,0,0,1-.212.24Z" transform="translate(-37.427 -33.063)" fill="#123"/>
            </g>
            <g id="Gruppe_706" data-name="Gruppe 706">
              <path id="Pfad_711" data-name="Pfad 711" d="M217.663,53.763a.294.294,0,0,1-.051,0,.228.228,0,0,1-.171-.272s.19-.836.4-1.662a11.472,11.472,0,0,1,.871-2.067.227.227,0,0,1,.4.216h0a11.243,11.243,0,0,0-.83,1.962c-.209.821-.4,1.65-.4,1.651A.228.228,0,0,1,217.663,53.763Z" transform="translate(-37.427 -33.063)" fill="#123"/>
            </g>
            <g id="Gruppe_707" data-name="Gruppe 707">
              <path id="Pfad_712" data-name="Pfad 712" d="M220.728,54.746a.227.227,0,0,1-.227-.226,15.643,15.643,0,0,1,.231-2.5,6.21,6.21,0,0,1,.947-2.287.227.227,0,1,1,.369.265h0a5.839,5.839,0,0,0-.869,2.1,15.445,15.445,0,0,0-.224,2.419.227.227,0,0,1-.225.229Z" transform="translate(-37.427 -33.063)" fill="#123"/>
            </g>
            <g id="Gruppe_708" data-name="Gruppe 708">
              <path id="Pfad_713" data-name="Pfad 713" d="M230.375,54.746a.226.226,0,0,1-.226-.213,21.531,21.531,0,0,1,0-2.356,22.69,22.69,0,0,1,.538-2.972.227.227,0,0,1,.441.11h0a22.526,22.526,0,0,0-.526,2.893,21.519,21.519,0,0,0,0,2.3.228.228,0,0,1-.214.24Z" transform="translate(-37.427 -33.063)" fill="#123"/>
            </g>
            <path id="Pfad_714" data-name="Pfad 714" d="M255.322,104.461c.477-3.706,2.756-5.636.336-8.915-1.889-2.556-10.439-5.481-11.77-4.926s-4.119,1.825-7.057,3.224c-2.625,1.249-5.472,2.789-8.451,2.789-2.761,0-5.326-1.24-7.693-2.53-.545-.3-2.988-2.125-3.728-1.244a8.263,8.263,0,0,0-3.78,1.981,7.369,7.369,0,0,1-3.123,1.76c-.939.309-2.4.349-3.178.989-1.367,1.112-1.574,3.65-1.646,5.311-.109,2.62-5.67,4.859-5.588,7.479.163,5.335-1.589,11.577.422,16.622a25.794,25.794,0,0,1,1.419,3.1c8.564-1.89,17.178,1.35,25.783-.466,2.42-.509,4.727-1.417,7.188-1.739a35.012,35.012,0,0,1,7.61-.023c4.6.4,9.173.945,13.777,1.308-.426-3.851-1.117-7.67-1.394-11.534A65.8,65.8,0,0,1,255.322,104.461Z" transform="translate(-37.427 -33.063)" fill="#213759"/>
            <path id="Pfad_715" data-name="Pfad 715" d="M257.71,157.295c-.8-4.124-2.248-8.274-1.917-12.529.127-1.616.246-3.233.319-4.85-5.785.336-11.553,1.09-17.356.8-7.529-.381-14.84-3.455-22.424-2.91a20.142,20.142,0,0,0-5.013,1.012,17.966,17.966,0,0,1-5.549,1.24,26.01,26.01,0,0,1-2.9-.154c.976,7.2,2.047,16.783,1.58,22.128-.213,2.426-.649,5.013,2.239,5.718,2.067.509,4.224-.368,6.3-.336,2.961.05,5.921.036,8.882,0,5.908-.082,11.811-.273,17.725-.273h12.569c3.083,0,5.568,1.212,6.14-2.747A21.87,21.87,0,0,0,257.71,157.295Z" transform="translate(-37.427 -33.063)" fill="#e2e7f5"/>
            <path id="Pfad_716" data-name="Pfad 716" d="M244,153.97l5.109-3.161,3.746,5.639-2.834,2.048L244,157.179Z" transform="translate(-37.427 -33.063)" fill="#875549"/>
            <path id="Pfad_717" data-name="Pfad 717" d="M275.042,132.071c-.793-3.162-2.634-5.853-4.288-8.617-2.341-3.913-8.851-17-9.839-19.567-1.065-2.769-2.265-5.813-4.5-7.936-2.712-2.577-6.506-2.737-9.785-4.19-.265-.117-.5.274-.23.392,2.649,1.174,5.7,1.421,8.189,2.948l.061.04a1.261,1.261,0,0,0-.174.117c-.285.225-.321.565-.519.84-.579.807-1.186.643-1.964.968a5.294,5.294,0,0,0-2.883,4.251c-.367,2.532.267,5.254.575,7.766l1.087,8.889c.6,4.93,1.424,9.623,4.086,13.911a31.255,31.255,0,0,0,1.916,2.673c1.083,1.395-.441,3.234-1.22,4.493a58.786,58.786,0,0,1-4.748,6.5c-.951,1.151-1.931,2.277-2.919,3.4q-.743.839-1.489,1.671c-.289.323-.758.7-.79,1.178a1.229,1.229,0,0,0,.244.682,23.427,23.427,0,0,0,1.539,2.226l2.822,4.082a.231.231,0,0,0,.316.078.215.215,0,0,0,.041-.032c.933-1.125,2.618-.543,3.882-.786a6.631,6.631,0,0,0,3.2-1.894c1.052-1,3.974-1.933,5.081-2.872a32.209,32.209,0,0,1,4.363-3.05c2.475-1.479,3.327-2.72,5.6-4.513C277.263,142.107,276.3,137.067,275.042,132.071Z" transform="translate(-37.427 -33.063)" fill="#213759"/>
            <g id="Gruppe_710" data-name="Gruppe 710">
              <g id="Gruppe_709" data-name="Gruppe 709">
                <path id="Pfad_718" data-name="Pfad 718" d="M201.883,129.081a.228.228,0,0,1-.224-.191,122.847,122.847,0,0,0-3.021-13.279c-1.943-6.6-3.237-10.118-3.25-10.153a.227.227,0,1,1,.426-.158c.013.035,1.311,3.566,3.259,10.182a122.881,122.881,0,0,1,3.034,13.335.226.226,0,0,1-.186.26h0A.147.147,0,0,1,201.883,129.081Z" transform="translate(-37.427 -33.063)" fill="#09111a"/>
              </g>
            </g>
            <g id="Gruppe_712" data-name="Gruppe 712">
              <g id="Gruppe_711" data-name="Gruppe 711">
                <path id="Pfad_719" data-name="Pfad 719" d="M201.883,123.054a.226.226,0,0,1-.222-.182,56.384,56.384,0,0,1-.989-9.023c-.061-3.664-1.76-8.107-2.4-9.779a2.945,2.945,0,0,1-.249-.736.227.227,0,0,1,.453-.025c.017.065.116.325.221.6.647,1.693,2.367,6.189,2.429,9.933a55.921,55.921,0,0,0,.98,8.94.227.227,0,0,1-.177.268A.238.238,0,0,1,201.883,123.054Z" transform="translate(-37.427 -33.063)" fill="#09111a"/>
              </g>
            </g>
            <g id="Gruppe_714" data-name="Gruppe 714">
              <g id="Gruppe_713" data-name="Gruppe 713">
                <path id="Pfad_720" data-name="Pfad 720" d="M227.81,98.286c-6.148,0-11.259-4.56-11.311-4.609a.227.227,0,0,1,.305-.337h0c.054.048,5.431,4.84,11.7,4.471,6.318-.371,15.262-5.362,15.351-5.413a.229.229,0,1,1,.223.4h0c-.09.051-9.126,5.093-15.547,5.47C228.287,98.279,228.048,98.286,227.81,98.286Z" transform="translate(-37.427 -33.063)" fill="#09111a"/>
              </g>
            </g>
            <g id="Gruppe_716" data-name="Gruppe 716">
              <g id="Gruppe_715" data-name="Gruppe 715">
                <path id="Pfad_721" data-name="Pfad 721" d="M253.651,126.192a.234.234,0,0,1-.074-.012.226.226,0,0,1-.141-.288h0c.038-.107,3.7-10.784,4.075-16.365a62.315,62.315,0,0,0,0-9.347.226.226,0,0,1,.2-.249.23.23,0,0,1,.249.2,62.809,62.809,0,0,1,0,9.424c-.376,5.641-4.062,16.375-4.1,16.482A.225.225,0,0,1,253.651,126.192Z" transform="translate(-37.427 -33.063)" fill="#09111a"/>
              </g>
            </g>
            <g id="Gruppe_718" data-name="Gruppe 718">
              <g id="Gruppe_717" data-name="Gruppe 717">
                <path id="Pfad_722" data-name="Pfad 722" d="M255.777,121.67a.229.229,0,0,1-.225-.231.263.263,0,0,1,.012-.069c1.836-5.141,4.6-12.924,4.674-13.3a.213.213,0,0,1,.215-.211h.01a.241.241,0,0,1,.225.244c0,.22-2.555,7.417-4.7,13.416A.226.226,0,0,1,255.777,121.67Z" transform="translate(-37.427 -33.063)" fill="#09111a"/>
              </g>
            </g>
            <g id="Gruppe_720" data-name="Gruppe 720">
              <g id="Gruppe_719" data-name="Gruppe 719">
                <path id="Pfad_723" data-name="Pfad 723" d="M257.906,135.611a.227.227,0,0,1-.077-.441,25.685,25.685,0,0,1,8.264-1.5,21.716,21.716,0,0,1,5.4.775.227.227,0,0,1-.132.434l-.013,0a21.872,21.872,0,0,0-5.275-.752,25.67,25.67,0,0,0-8.088,1.476A.211.211,0,0,1,257.906,135.611Z" transform="translate(-37.427 -33.063)" fill="#09111a"/>
              </g>
            </g>
            <g id="Gruppe_722" data-name="Gruppe 722">
              <g id="Gruppe_721" data-name="Gruppe 721">
                <path id="Pfad_724" data-name="Pfad 724" d="M257.906,136.79a.232.232,0,0,1-.128-.039.226.226,0,0,1-.06-.315h0c.063-.092.18-.265,3.118-.383,1.629-.065,5.033-.068,10.12,0l.461,0a.227.227,0,0,1,0,.454h0l-.467,0c-5.078-.062-8.475-.06-10.1,0a13.722,13.722,0,0,0-2.824.247A.232.232,0,0,1,257.906,136.79Z" transform="translate(-37.427 -33.063)" fill="#09111a"/>
              </g>
            </g>
            <g id="Gruppe_724" data-name="Gruppe 724">
              <g id="Gruppe_723" data-name="Gruppe 723">
                <path id="Pfad_725" data-name="Pfad 725" d="M233.557,189.568a.228.228,0,0,1-.207-.133,33.835,33.835,0,0,1-2.4-9.6,88.46,88.46,0,0,1-.271-11.5.231.231,0,0,1,.238-.216.227.227,0,0,1,.216.238h0a87.8,87.8,0,0,0,.269,11.434,33.334,33.334,0,0,0,2.365,9.453.227.227,0,0,1-.111.3A.244.244,0,0,1,233.557,189.568Z" transform="translate(-37.427 -33.063)" fill="#17253d"/>
              </g>
            </g>
            <g id="Gruppe_726" data-name="Gruppe 726">
              <g id="Gruppe_725" data-name="Gruppe 725">
                <path id="Pfad_726" data-name="Pfad 726" d="M232.192,185.552a.227.227,0,1,1-.025-.454c.078-.009,1.943-.26,2.416-2.939.5-2.842.494-13.476.494-13.584a.229.229,0,0,1,.227-.227h0a.227.227,0,0,1,.227.227c0,.439.008,10.782-.5,13.663-.534,3.027-2.791,3.31-2.814,3.312Z" transform="translate(-37.427 -33.063)" fill="#17253d"/>
              </g>
            </g>
            <path id="Pfad_727" data-name="Pfad 727" d="M257.739,160.23c3.005-1.049,15.589-6.888,16.573-6.206s6.358,26.641,6.661,28-22.853,12.79-24.141,13.168-9.084.227-9.614-.681-6.243-28.989-5.638-29.594S250.586,162.728,257.739,160.23Z" transform="translate(-37.427 -33.063)" fill="#4d72ab"/>
            <path id="Pfad_728" data-name="Pfad 728" d="M241.58,164.922s-20.459-38.276-23.949-45.541-10.093-24.219-10.158-24.522,3.038-2.346,3.643-1.74,10.735,25.581,15.547,34.89,19.328,36.513,19.374,36.913S241.58,164.922,241.58,164.922Z" transform="translate(-37.427 -33.063)" fill="#4d72ab"/>
            <g id="Gruppe_730" data-name="Gruppe 730">
              <path id="Pfad_729" data-name="Pfad 729" d="M245.769,153.969s-5.19-2.49-6.932-2.578c-2.095-.1-4.879,3-5.57,4.107-.532.852.261,1.371.937,2.053a1.91,1.91,0,0,0-.156.8,1.52,1.52,0,0,0,.364.952,1.4,1.4,0,0,0,.9.45l.027.086a2.006,2.006,0,0,0,.316,1.439.815.815,0,0,0,.946.36,1.156,1.156,0,0,0,.628,1.084,2.571,2.571,0,0,0,1.339.194,2.948,2.948,0,0,0,.773.042,29.294,29.294,0,0,0,6.18-1.636l4.5-2.828Z" transform="translate(-37.427 -33.063)" fill="#735f5f"/>
              <g id="Gruppe_727" data-name="Gruppe 727">
                <path id="Pfad_730" data-name="Pfad 730" d="M234.521,157.669a.226.226,0,0,1-.173-.373,8.949,8.949,0,0,1,1.487-1.411l.968-.625a.228.228,0,0,1,.246.383l-.967.624a8.714,8.714,0,0,0-1.386,1.322A.223.223,0,0,1,234.521,157.669Z" transform="translate(-37.427 -33.063)" fill="#524444"/>
              </g>
              <g id="Gruppe_728" data-name="Gruppe 728">
                <path id="Pfad_731" data-name="Pfad 731" d="M235.709,159.84a.227.227,0,0,1-.151-.4,14.642,14.642,0,0,1,2.1-1.611l.571-.258a.227.227,0,1,1,.2.407l-.012.006-.571.259a13.842,13.842,0,0,0-1.983,1.536A.227.227,0,0,1,235.709,159.84Z" transform="translate(-37.427 -33.063)" fill="#524444"/>
              </g>
              <g id="Gruppe_729" data-name="Gruppe 729">
                <path id="Pfad_732" data-name="Pfad 732" d="M236.847,161.6a.226.226,0,0,1-.123-.418l2.257-1.456a.227.227,0,0,1,.246.382l-2.257,1.456A.224.224,0,0,1,236.847,161.6Z" transform="translate(-37.427 -33.063)" fill="#524444"/>
              </g>
            </g>
            <g id="Gruppe_732" data-name="Gruppe 732">
              <g id="Gruppe_731" data-name="Gruppe 731">
                <path id="Pfad_733" data-name="Pfad 733" d="M256.754,193.854a.2.2,0,0,1-.055-.007.226.226,0,0,1-.166-.273h0c0-.3-.872-3.441-1.511-5.732-.25-.9-.489-1.754-.681-2.456-.749-2.748-4.918-19.885-4.96-20.057a.227.227,0,0,1,.441-.108h0c.042.173,4.209,17.3,4.956,20.046.191.7.431,1.559.681,2.453,1.273,4.564,1.57,5.734,1.514,5.962A.228.228,0,0,1,256.754,193.854Z" transform="translate(-37.427 -33.063)" fill="#17253d"/>
              </g>
            </g>
            <g id="Gruppe_734" data-name="Gruppe 734">
              <g id="Gruppe_733" data-name="Gruppe 733">
                <path id="Pfad_734" data-name="Pfad 734" d="M266.477,172.24c-2.64,0-14.661-5.046-16.093-5.652a.227.227,0,0,1,.177-.418c5.868,2.48,15,6.017,16.1,5.6S271.8,161.7,274.1,155.7a.227.227,0,0,1,.427.153l0,.009c-.616,1.6-6.062,15.7-7.7,16.328A1.015,1.015,0,0,1,266.477,172.24Z" transform="translate(-37.427 -33.063)" fill="#17253d"/>
              </g>
            </g>
            <g id="Gruppe_736" data-name="Gruppe 736">
              <g id="Gruppe_735" data-name="Gruppe 735">
                <path id="Pfad_735" data-name="Pfad 735" d="M269.847,155.679a.227.227,0,0,1-.043-.45l4.183-.8a.227.227,0,0,1,.085.446l-4.183.8A.2.2,0,0,1,269.847,155.679Z" transform="translate(-37.427 -33.063)" fill="#17253d"/>
              </g>
            </g>
            <g id="Gruppe_738" data-name="Gruppe 738">
              <g id="Gruppe_737" data-name="Gruppe 737">
                <path id="Pfad_736" data-name="Pfad 736" d="M242.725,167.244c-.167,0-.519-.149-1.065-1.563a.227.227,0,1,1,.424-.163,4.462,4.462,0,0,0,.668,1.265c.509-.1,2.833-.674,3.437-.909-.181-.424-.657-1.487-.707-1.588a.227.227,0,0,1,.406-.2c.037.074.736,1.625.8,1.809l.032.1-.055.1c-.2.347-3.834,1.137-3.87,1.143A.414.414,0,0,1,242.725,167.244Z" transform="translate(-37.427 -33.063)" fill="#17253d"/>
              </g>
            </g>
            <path id="Pfad_737" data-name="Pfad 737" d="M184.618,108.436s9.675,39.652,8.811,45.926-14.369,6.517-14.369,6.517l-5.136-50.388Z" transform="translate(-37.427 -33.063)" fill="#476594"/>
            <path id="Pfad_738" data-name="Pfad 738" d="M154.379,227.155H177.7c1.638-21.116,2.221-54.469,1.54-61.782-.764-8.219-2.26-16.339-4.891-15.777s-12.939-1.069-15.556.591-9.212,6.592-9.607,7.241-.074,21.321-.074,21.321S152.457,217.756,154.379,227.155Z" transform="translate(-37.427 -33.063)" fill="#c6d1ec"/>
            <path id="Pfad_739" data-name="Pfad 739" d="M125.164,227.155H149.39c.959-5.173,1.751-41.33,1.751-41.33l4.1-32.782-33.509,2.048s0,24.431.454,32.632C122.608,195.264,124.624,222.772,125.164,227.155Z" transform="translate(-37.427 -33.063)" fill="#c6d1ec"/>
            <path id="Pfad_740" data-name="Pfad 740" d="M162.48,79.717c-1.419-.9-4.7-1.963-5.44-4.234s-.952-7.461-.867-11.31l.116-.025c.255-.061.164-.5-.091-.441h-.014q.012-.45.025-.9c.012-.4-.735-.283-.227.416l-.2.567a40.263,40.263,0,0,1-13.539.783c-.026-.741-.052-1.467-.059-2.163a.2.2,0,0,0-.4-.014c.006.687.032,1.4.059,2.135l-.025.014c-.337-.15-.383.394-.1.429.047.006.094.009.141.015a46.472,46.472,0,0,1-.913,10.318c-.582,1.646-5.156,3.645-8.132,4.574a.192.192,0,0,0-.1.082l-.027-.018c-.225-.142-.445.242-.217.384,2.506,1.573,4.055,4.343,6.212,6.385,2.174,2.057,5.116,2.668,7.232,4.8a.211.211,0,0,0,.242.043C153.052,88.185,162.5,79.73,162.48,79.717Z" transform="translate(-37.427 -33.063)" fill="#e3cbc1"/>
            <path id="Pfad_741" data-name="Pfad 741" d="M160.388,54.277q.067-1.043.106-2.084c.122-3.3.034-6.485-1.95-9.261a11.461,11.461,0,0,0-6.532-3.971c-3.357-.883-7.177-.8-9.879,1.416a11.408,11.408,0,0,0-4.634,8.39c-.525,4.1.11,6.7,1.1,10.751.57,2.327.951,4.719,2.194,6.809,1.019,1.711,2.075,3.546,4,4.34,2.8,1.155,7.568,1.519,10.009-.132,2.276-1.54,3.33-4.42,4.06-6.931A43.4,43.4,0,0,0,160.388,54.277Z" transform="translate(-37.427 -33.063)" fill="#e3cbc1"/>
            <path id="Pfad_742" data-name="Pfad 742" d="M159.481,54.514s1.832-1.036,2.125,2.027-.723,5.117-2.235,5.19-1.839-2.313-1.839-2.313Z" transform="translate(-37.427 -33.063)" fill="#e3cbc1"/>
            <path id="Pfad_743" data-name="Pfad 743" d="M138.462,54.514s-1.832-1.036-2.125,2.027.722,5.117,2.235,5.19,1.838-2.313,1.838-2.313Z" transform="translate(-37.427 -33.063)" fill="#e3cbc1"/>
            <path id="Pfad_744" data-name="Pfad 744" d="M144.2,54.029c-1.106-.293-1.087,2.418-.265,2.491a.682.682,0,0,0,.534-.226C144.941,55.8,145.037,54.252,144.2,54.029Z" transform="translate(-37.427 -33.063)" fill="#17253d"/>
            <path id="Pfad_745" data-name="Pfad 745" d="M154.619,54.029c-1.106-.293-1.087,2.418-.265,2.491a.681.681,0,0,0,.534-.226C155.363,55.8,155.459,54.252,154.619,54.029Z" transform="translate(-37.427 -33.063)" fill="#17253d"/>
            <path id="Pfad_746" data-name="Pfad 746" d="M146.684,51.545c-.7-1.386-3.436-.612-4.606-.457-.417.055-2,.6-1.426,1.242.339.384,1.811.084,2.313.067l2.644-.089a1.472,1.472,0,0,0,.84-.2C146.722,51.9,146.769,51.713,146.684,51.545Z" transform="translate(-37.427 -33.063)" fill="#17253d"/>
            <path id="Pfad_747" data-name="Pfad 747" d="M151.87,52.107a1.468,1.468,0,0,0,.839.2l2.645.089c.5.018,1.975.318,2.313-.067.57-.645-1.01-1.187-1.426-1.242-1.17-.155-3.906-.929-4.606.457C151.549,51.713,151.6,51.9,151.87,52.107Z" transform="translate(-37.427 -33.063)" fill="#17253d"/>
            <g id="Gruppe_739" data-name="Gruppe 739">
              <path id="Pfad_748" data-name="Pfad 748" d="M149.292,62.215a.227.227,0,0,1,0-.454c.016,0,1.524-.012,1.709-.844a1.886,1.886,0,0,0-.246-1.161,8.808,8.808,0,0,1-.51-1.541,26.567,26.567,0,0,1-.46-3.676.227.227,0,0,1,.453-.025,26.906,26.906,0,0,0,.448,3.6,8.326,8.326,0,0,0,.489,1.466,2.271,2.271,0,0,1,.268,1.433C151.18,62.2,149.369,62.215,149.292,62.215Z" transform="translate(-37.427 -33.063)" fill="#c2a194"/>
            </g>
            <path id="Pfad_749" data-name="Pfad 749" d="M145.513,64.031a39.69,39.69,0,0,0,4.051.146c2.738-.043,4.059-.187,4.059-.187s-.7,2.036-4.1,2.036A4.743,4.743,0,0,1,145.513,64.031Z" transform="translate(-37.427 -33.063)" fill="#fff"/>
            <g id="Gruppe_740" data-name="Gruppe 740">
              <path id="Pfad_750" data-name="Pfad 750" d="M149.908,72.755a11.441,11.441,0,0,1-4.068-.69c-1.367-.543-3.668-3.429-3.765-3.552a.227.227,0,0,1,.355-.282c.024.03,2.322,2.914,3.577,3.412a10.983,10.983,0,0,0,7.008.156,9.4,9.4,0,0,0,2.566-2.353.227.227,0,0,1,.362.274,9.648,9.648,0,0,1-2.738,2.491A8.524,8.524,0,0,1,149.908,72.755Z" transform="translate(-37.427 -33.063)" fill="#c2a194"/>
            </g>
            <g id="Gruppe_741" data-name="Gruppe 741">
              <path id="Pfad_751" data-name="Pfad 751" d="M159.689,59.858a.227.227,0,0,1-.142-.4h0a1.857,1.857,0,0,0,.343-.966,2.376,2.376,0,0,0-.121-1.311.227.227,0,0,1,.406-.2,2.774,2.774,0,0,1,.163,1.585,1.992,1.992,0,0,1-.508,1.248A.231.231,0,0,1,159.689,59.858Z" transform="translate(-37.427 -33.063)" fill="#c2a194"/>
            </g>
            <g id="Gruppe_742" data-name="Gruppe 742">
              <path id="Pfad_752" data-name="Pfad 752" d="M138.458,59.857a.218.218,0,0,1-.138-.049,2,2,0,0,1-.509-1.248,2.782,2.782,0,0,1,.163-1.585.227.227,0,0,1,.407.2h0a2.357,2.357,0,0,0-.121,1.311,1.813,1.813,0,0,0,.349.971.229.229,0,0,1-.152.4Z" transform="translate(-37.427 -33.063)" fill="#c2a194"/>
            </g>
            <g id="Gruppe_744" data-name="Gruppe 744">
              <g id="Gruppe_743" data-name="Gruppe 743">
                <path id="Pfad_753" data-name="Pfad 753" d="M148.423,53.45a1.153,1.153,0,0,0-.318-.133,19.967,19.967,0,0,0-7.02-.324c-.511.061-1.923.253-1.923.253l-.031,1a2.6,2.6,0,0,1,.84,1.74c.339,2.038,2.948,3.5,5.1,2.968a4.139,4.139,0,0,0,2.647-1.93,10.633,10.633,0,0,0,.864-3.388A.38.38,0,0,0,148.423,53.45Zm-1.514,3.832a3.5,3.5,0,0,1-1.868,1.207,4.017,4.017,0,0,1-3.576-.968,2.868,2.868,0,0,1-.71-1.416,7.909,7.909,0,0,1-.211-1.814c.142-.487.68-.577,1.12-.656a16.328,16.328,0,0,1,3.437-.129c.5.033,1,.087,1.491.153.341.047.919.07,1.12.389a1.876,1.876,0,0,1,.019,1.216,5.518,5.518,0,0,1-.822,2.018Z" transform="translate(-37.427 -33.063)" fill="#17253d"/>
                <path id="Pfad_754" data-name="Pfad 754" d="M150.148,53.634a10.633,10.633,0,0,0,.864,3.388,4.139,4.139,0,0,0,2.647,1.93c2.15.536,4.759-.93,5.1-2.968a2.6,2.6,0,0,1,.839-1.74l-.032-1s-1.411-.191-1.923-.253a19.967,19.967,0,0,0-7.02.324,1.153,1.153,0,0,0-.318.133A.376.376,0,0,0,150.148,53.634ZM151,55.261a1.876,1.876,0,0,1,.019-1.216c.2-.318.78-.342,1.12-.389.5-.067.992-.12,1.491-.153a16.328,16.328,0,0,1,3.437.129c.44.079.977.169,1.12.656a7.909,7.909,0,0,1-.211,1.814,2.868,2.868,0,0,1-.71,1.416,4.016,4.016,0,0,1-3.576.968,3.5,3.5,0,0,1-1.867-1.207A5.542,5.542,0,0,1,151,55.264Z" transform="translate(-37.427 -33.063)" fill="#17253d"/>
                <path id="Pfad_755" data-name="Pfad 755" d="M148.1,53.317a4.294,4.294,0,0,0,1.234.24,3.782,3.782,0,0,0,1.474-.288l-.166,1.372a2.486,2.486,0,0,0-1.247-.3,1.938,1.938,0,0,0-1.295.593Z" transform="translate(-37.427 -33.063)" fill="#17253d"/>
              </g>
            </g>
            <path id="Pfad_756" data-name="Pfad 756" d="M139.794,54.1l-2.233-.834-.251.737,2.862,1.943Z" transform="translate(-37.427 -33.063)" fill="#17253d"/>
            <path id="Pfad_757" data-name="Pfad 757" d="M158.869,54.1l2.233-.834.251.737-2.862,1.943Z" transform="translate(-37.427 -33.063)" fill="#17253d"/>
            <path id="Pfad_758" data-name="Pfad 758" d="M165.044,43.737a3.106,3.106,0,0,0-.914-1.831,3.721,3.721,0,0,1-1.041-1.438c-.148-.511-.09-1.068-.2-1.587a2.92,2.92,0,0,0-2.6-2.446,10.238,10.238,0,0,0-.881-1.9,3.418,3.418,0,0,0-2.42-1.445c-1.437-.181-2.248.574-3.45,1.178-1.8.9-3.766-.308-5.591-.539a6.813,6.813,0,0,0-3.435.352,4.706,4.706,0,0,0-1.406.891,21.09,21.09,0,0,1-2.052,1.808,1.84,1.84,0,0,0-.872,2.133c-.054-.02-.106-.044-.163-.061a3.982,3.982,0,0,0-2.36.052,5.1,5.1,0,0,0-3.1,3.422c-.135.43-.171.881-.3,1.31a4.488,4.488,0,0,1-1.12,1.679,2.986,2.986,0,0,0-.734,2.076c.017,1.459.532,3.33,1.975,3.969.208.4.18.809.364,1.208a1.566,1.566,0,0,0,.855.775,1.465,1.465,0,0,0,.319.614c.5.568,1.951,1.039,2.443.3a6.013,6.013,0,0,0,.707-2.434c.122-1.01,1.168-1.159,1.926-1.639a4.471,4.471,0,0,0,.94-.707c.409-.458.281-.747.442-1.268.169-.549.358-.541.713-.856a3.418,3.418,0,0,0,1-1.47,2.3,2.3,0,0,1,.428.326c.8.812.5,2.076,1.41,2.87a2.531,2.531,0,0,0,2.159.532,2.015,2.015,0,0,1,1.014-.041,2.809,2.809,0,0,0,1.446-.208,2.681,2.681,0,0,1,2.282-.06,13.926,13.926,0,0,0,1.8.613,2.579,2.579,0,0,0,2.265-.215c.42.248.875.456,1.2.665.633.41.633.844.818,1.523a1.237,1.237,0,0,0,.24.59.927.927,0,0,0,.408.246c0,.836.119,1.735.667,1.762a.659.659,0,0,0,.4-.108,1.834,1.834,0,0,0,1.788-.653c.811-.9.448-1.867.66-2.919.162-.809.63-.824,1.038-1.444a2.439,2.439,0,0,0,.357-1.318,4.871,4.871,0,0,0-.422-1.821A3.476,3.476,0,0,0,165.044,43.737Z" transform="translate(-37.427 -33.063)" fill="#97ace0"/>
            <path id="Pfad_759" data-name="Pfad 759" d="M137.347,78.073s10.672,8.791,11.47,8.684,11.909-7.691,12.753-7.584,9.054,5.87,9.054,5.87,2.781,46.3,4.469,50.468,4.85,24.247,4.146,25.675-14.7,2.515-24,1.721-17.314-.223-22.241-1.365-11.773.635-12.336-.308,8.958-81.261,9.8-81.546S137.347,78.073,137.347,78.073Z" transform="translate(-37.427 -33.063)" fill="#fff"/>
            <path id="Pfad_760" data-name="Pfad 760" d="M137.347,78.073s-6.454,47.606-7.017,53.319-.985,9.122-2.534,11.489-4.5,12.808-5.027,15.95-.785,18.7-.785,18.7-2.493-2.428-4.463-2.857-4.082-.142-4.364-.857,2.393-21,3.519-30.923,4.5-59.346,6.194-61.918S137.347,78.073,137.347,78.073Z" transform="translate(-37.427 -33.063)" fill="#28497c"/>
            <path id="Pfad_761" data-name="Pfad 761" d="M123.647,161.341c.075.257.915,2.594.854,2.652-.2.208-.235,1.075-.256,1.361a19.2,19.2,0,0,0,.259,3.631q.1.862.26,1.718a11.389,11.389,0,0,1,.389,1.871c2.995-2.479,6.145-4.767,9.09-7.311a46.647,46.647,0,0,0-2.368-6c-1.246-2.605-2.83-12.375-2.83-12.375l-11.4,1.795a87.068,87.068,0,0,1,5.126,10.144C123.092,159.66,123.4,160.486,123.647,161.341Z" transform="translate(-37.427 -33.063)" fill="#e3cbc1"/>
            <path id="Pfad_762" data-name="Pfad 762" d="M125.257,79.615a14.046,14.046,0,0,0-7.878,4.358c-1.868,2.067-4.687,13.975-4.244,17.272s-.683,11.644-1.527,16.039.281,7.9,0,10.718-1.626,9.76-.32,11.789a15.632,15.632,0,0,1,1.94,4.333,8.955,8.955,0,0,1,.36,2.27c.005.957-.085,1.525.677,2.248a5.49,5.49,0,0,1,1.626,2.8c.355.029.754.041,1.2.034,5.209-.087,13.514-3.461,13.514-3.461Z" transform="translate(-37.427 -33.063)" fill="#28497c"/>
            <g id="Gruppe_745" data-name="Gruppe 745">
              <path id="Pfad_763" data-name="Pfad 763" d="M139.543,110.326a37.731,37.731,0,0,1-3.493,2.52c0,.83-.054,1.668-.121,2.5C137.186,113.719,138.345,112.005,139.543,110.326Z" transform="translate(-37.427 -33.063)" fill="#b2c3ed"/>
              <path id="Pfad_764" data-name="Pfad 764" d="M144.311,130.943c.323-.026.646-.061.968-.1a63.965,63.965,0,0,0,2.927-13.56c-2.874,2.3-5.048,5.256-7.573,7.912-1.776,1.869-3.669,3.65-5.323,5.625a33.462,33.462,0,0,1,4.467-.026A25.165,25.165,0,0,0,144.311,130.943Z" transform="translate(-37.427 -33.063)" fill="#b2c3ed"/>
              <path id="Pfad_765" data-name="Pfad 765" d="M159.692,105.026c-2.164,3.882-4.4,7.726-5.651,12.012a17.075,17.075,0,0,0,5.323-2.257c1.417-.783,2.848-1.516,4.2-2.411.833-.552,1.649-1.127,2.468-1.7l-.282-5.439a.233.233,0,0,0-.227-.227Q162.607,104.951,159.692,105.026Z" transform="translate(-37.427 -33.063)" fill="#b2c3ed"/>
              <path id="Pfad_766" data-name="Pfad 766" d="M162.592,122.4a71.307,71.307,0,0,0-7.829,7.995c1.208,0,2.417,0,3.637.026a17.264,17.264,0,0,0,2.283-.149C161.381,127.664,162.557,125.108,162.592,122.4Z" transform="translate(-37.427 -33.063)" fill="#b2c3ed"/>
              <path id="Pfad_767" data-name="Pfad 767" d="M166.008,126.978c.024-1.385.549-2.577.362-3.982a18.227,18.227,0,0,1-.245-4.14,33.834,33.834,0,0,0,.092-4.354c-.041-.984-.093-1.968-.142-2.952-1.189.836-2.378,1.675-3.633,2.408-2.7,1.577-5.747,3.6-8.922,3.9a.377.377,0,0,1-.373-.38.408.408,0,0,1,.013-.092c1.2-4.457,3.483-8.425,5.714-12.423-1.162-.076-2.325-.1-3.488-.188-1.644,1.184-3.277,2.38-4.818,3.691-2.094,1.783-4.545,4.311-7.4,4.724-.281.04-.636-.251-.421-.548,1.787-2.471,3.445-5.032,5.147-7.561a37.578,37.578,0,0,1-5.351.375,36.021,36.021,0,0,0-6.375.2c-.4.057-.794.119-1.189.178a13.7,13.7,0,0,0,.725,3.723,12.413,12.413,0,0,1,.322,2.412,62.36,62.36,0,0,0,5.3-4.055.373.373,0,0,1,.528.527h0c-2.106,2.675-3.91,5.606-6.051,8.245-.061.669-.119,1.328-.156,1.972-.174,2.946-.411,5.895-.494,8.845-.022.765-.058,1.578-.038,2.382,1.573-1.811,3.325-3.478,4.98-5.219,2.754-2.9,5.092-6.131,8.345-8.522a.376.376,0,0,1,.561.322,60.722,60.722,0,0,1-2.93,14.268,22.67,22.67,0,0,1,2.931-.287c1.609-.014,3.2-.039,4.8-.052a73.43,73.43,0,0,1,8.863-9.085.378.378,0,0,1,.534.016.382.382,0,0,1,.1.248c.232,2.99-1.054,5.792-1.846,8.612a11.507,11.507,0,0,1,2.033-.051c1.311.351,3.185.85,3.127-.921C166.589,128,165.987,128.225,166.008,126.978Z" transform="translate(-37.427 -33.063)" fill="#b2c3ed"/>
              <path id="Pfad_768" data-name="Pfad 768" d="M150.707,107.378c1.135-.946,2.32-1.829,3.519-2.7a15.677,15.677,0,0,0-4.117.06c-.389.07-.8.137-1.217.2-1.649,2.433-3.246,4.9-4.945,7.3C146.527,111.431,148.722,109.032,150.707,107.378Z" transform="translate(-37.427 -33.063)" fill="#b2c3ed"/>
            </g>
            <path id="Pfad_769" data-name="Pfad 769" d="M161.571,79.174s2.06,12.253,5.421,29.535c2.468,12.69,5.576,33.518,7.349,41.4.826,3.672,3.833,27.082,4.123,27.367s3.1-2.428,5.5-2.714,3.238.286,3.238-5.285c0-2.046-4.375-17.624-5.2-21.332s-2.593-41.609-2.682-45.314c-.141-5.856-.563-17.283-3.238-20.568S161.571,79.174,161.571,79.174Z" transform="translate(-37.427 -33.063)" fill="#28497c"/>
            <path id="Pfad_770" data-name="Pfad 770" d="M170.107,79.784s10.437.791,12.307,11.188c.8,4.465,5.49,20.664,7.461,25.281a42.186,42.186,0,0,1,3.076,12.855c.563,4.7,1.759,7.748.076,10.632-3.065,5.255-8.406,4.716-11.88,3.142-2.753-1.247-9.01-20.63-9.01-20.63Z" transform="translate(-37.427 -33.063)" fill="#28497c"/>
            <path id="Pfad_771" data-name="Pfad 771" d="M178.464,122.215l-3.932,10.821-6.762-7.729-2.452-2.806-.218-.25,4.469-7,.277.213,2.784,2.18Z" transform="translate(-37.427 -33.063)" fill="#e3cbc1"/>
            <g id="Gruppe_746" data-name="Gruppe 746">
              <path id="Pfad_772" data-name="Pfad 772" d="M143.856,45.323a.226.226,0,0,1-.223-.187c0-.025-.439-2.427-1.348-3.2a17.674,17.674,0,0,1-2.056-2.19.227.227,0,0,1,.347-.293l.01.013a17.631,17.631,0,0,0,1.992,2.124c1.035.876,1.483,3.359,1.5,3.464a.226.226,0,0,1-.183.262A.178.178,0,0,1,143.856,45.323Z" transform="translate(-37.427 -33.063)" fill="#3f577c"/>
            </g>
            <g id="Gruppe_747" data-name="Gruppe 747">
              <path id="Pfad_773" data-name="Pfad 773" d="M136.567,52.021a.177.177,0,0,1-.046,0,.227.227,0,0,1-.177-.267,6.327,6.327,0,0,1,1.235-2.736,4.013,4.013,0,0,1,1.125-.688,2.777,2.777,0,0,0,1.5-1.221,18.485,18.485,0,0,1,2.016-2.8.227.227,0,0,1,.342.3h0a18.354,18.354,0,0,0-1.957,2.719,3.224,3.224,0,0,1-1.708,1.42,3.6,3.6,0,0,0-1,.6,6.012,6.012,0,0,0-1.107,2.492A.227.227,0,0,1,136.567,52.021Z" transform="translate(-37.427 -33.063)" fill="#3f577c"/>
            </g>
            <g id="Gruppe_748" data-name="Gruppe 748">
              <path id="Pfad_774" data-name="Pfad 774" d="M134.854,50.7h-.02a.225.225,0,0,1-.206-.244v0a5.445,5.445,0,0,1,1.29-3.142,4.834,4.834,0,0,1,1.745-1.07.227.227,0,0,1,.106.441,4.607,4.607,0,0,0-1.557.975,5.091,5.091,0,0,0-1.132,2.837A.227.227,0,0,1,134.854,50.7Z" transform="translate(-37.427 -33.063)" fill="#3f577c"/>
            </g>
            <g id="Gruppe_749" data-name="Gruppe 749">
              <path id="Pfad_775" data-name="Pfad 775" d="M161.657,40.915a.226.226,0,0,1-.151-.058,7.809,7.809,0,0,0-6.236-1.817.227.227,0,0,1-.041-.452,8.235,8.235,0,0,1,6.58,1.93.227.227,0,0,1-.152.4Z" transform="translate(-37.427 -33.063)" fill="#3f577c"/>
            </g>
            <g id="Gruppe_750" data-name="Gruppe 750">
              <path id="Pfad_776" data-name="Pfad 776" d="M157.793,49.088h-.013a.227.227,0,0,1-.213-.24,3.056,3.056,0,0,0-1.028-2.708,5.579,5.579,0,0,0-1.5-.669,6.681,6.681,0,0,1-1.392-.587,13.913,13.913,0,0,1-1.28-.916,10.218,10.218,0,0,0-1.663-1.124c-2.152-1.08-6.268.2-6.311.217a.227.227,0,1,1-.137-.433c.176-.055,4.335-1.352,6.651-.189a10.77,10.77,0,0,1,1.738,1.17,13.877,13.877,0,0,0,1.238.888,6.441,6.441,0,0,0,1.3.544,5.993,5.993,0,0,1,1.616.73,3.393,3.393,0,0,1,1.217,3.1A.227.227,0,0,1,157.793,49.088Z" transform="translate(-37.427 -33.063)" fill="#3f577c"/>
            </g>
            <g id="Gruppe_751" data-name="Gruppe 751">
              <path id="Pfad_777" data-name="Pfad 777" d="M160.433,47.5a.226.226,0,0,1-.19-.1,8.8,8.8,0,0,0-1.5-1.826,6.511,6.511,0,0,0-3.3-1.2.227.227,0,0,1,.076-.448h0a6.847,6.847,0,0,1,3.53,1.3,9.075,9.075,0,0,1,1.58,1.919.226.226,0,0,1-.067.313h0A.223.223,0,0,1,160.433,47.5Z" transform="translate(-37.427 -33.063)" fill="#3f577c"/>
            </g>
            <path id="Pfad_778" data-name="Pfad 778" d="M124.324,90.8q-.359-1.518-.719-3.036c-.068-.284-.505-.164-.438.12q.359,1.519.719,3.037A.227.227,0,0,0,124.324,90.8Z" transform="translate(-37.427 -33.063)" fill="#f5ebe3"/>
            <path id="Pfad_779" data-name="Pfad 779" d="M121.45,105.882a14.2,14.2,0,0,1-1.137-3.986c-.038-.286-.492-.289-.454,0a14.952,14.952,0,0,0,1.2,4.215C121.177,106.376,121.569,106.146,121.45,105.882Z" transform="translate(-37.427 -33.063)" fill="#f5ebe3"/>
            <path id="Pfad_780" data-name="Pfad 780" d="M130.419,98.357a13.636,13.636,0,0,1-.44-3.272.227.227,0,0,0-.454,0,14.234,14.234,0,0,0,.457,3.393.227.227,0,0,0,.437-.121Z" transform="translate(-37.427 -33.063)" fill="#f5ebe3"/>
            <path id="Pfad_781" data-name="Pfad 781" d="M126.5,121.359a20.9,20.9,0,0,1-1.085-3.929c-.05-.287-.488-.166-.438.121a20.9,20.9,0,0,0,1.085,3.929C126.17,121.75,126.606,121.633,126.5,121.359Z" transform="translate(-37.427 -33.063)" fill="#f5ebe3"/>
            <path id="Pfad_782" data-name="Pfad 782" d="M117.044,119.064a4.013,4.013,0,0,1-.532-2.181c.012-.292-.443-.292-.453,0a4.461,4.461,0,0,0,.593,2.41.227.227,0,0,0,.392-.229Z" transform="translate(-37.427 -33.063)" fill="#f5ebe3"/>
            <path id="Pfad_783" data-name="Pfad 783" d="M123.593,132.572l-.928-3.173a.227.227,0,0,0-.438.12q.465,1.587.928,3.174a.227.227,0,1,0,.438-.121Z" transform="translate(-37.427 -33.063)" fill="#f5ebe3"/>
            <path id="Pfad_784" data-name="Pfad 784" d="M116.217,140.279l-.95-3.014c-.088-.278-.526-.159-.438.121q.476,1.507.949,3.014C115.866,140.678,116.305,140.559,116.217,140.279Z" transform="translate(-37.427 -33.063)" fill="#f5ebe3"/>
            <path id="Pfad_785" data-name="Pfad 785" d="M126.154,143.416a6.708,6.708,0,0,1-.7-2.617c-.018-.29-.472-.292-.454,0a7.3,7.3,0,0,0,.759,2.847C125.892,143.907,126.284,143.677,126.154,143.416Z" transform="translate(-37.427 -33.063)" fill="#f5ebe3"/>
            <path id="Pfad_786" data-name="Pfad 786" d="M134.644,84.134a40.315,40.315,0,0,0-1.68-3.99c-.127-.263-.519-.033-.392.229a39.289,39.289,0,0,1,1.634,3.882C134.305,84.527,134.743,84.41,134.644,84.134Z" transform="translate(-37.427 -33.063)" fill="#f5ebe3"/>
            <path id="Pfad_787" data-name="Pfad 787" d="M130.646,111.952a30.089,30.089,0,0,0-1.917-3.653c-.153-.249-.546-.021-.392.229a30.1,30.1,0,0,1,1.918,3.653C130.371,112.447,130.763,112.216,130.646,111.952Z" transform="translate(-37.427 -33.063)" fill="#f5ebe3"/>
            <path id="Pfad_788" data-name="Pfad 788" d="M117.809,168.413l-1.953-2.585c-.174-.23-.569,0-.392.23l1.953,2.585C117.586,168.872,117.981,168.646,117.809,168.413Z" transform="translate(-37.427 -33.063)" fill="#f5ebe3"/>
            <path id="Pfad_789" data-name="Pfad 789" d="M118.418,158.412a12.345,12.345,0,0,1-1-2.087c-.1-.272-.539-.154-.438.121a12.965,12.965,0,0,0,1.041,2.195.229.229,0,0,0,.4-.229Z" transform="translate(-37.427 -33.063)" fill="#f5ebe3"/>
            <path id="Pfad_790" data-name="Pfad 790" d="M118.9,92.249a16.391,16.391,0,0,1-1.132-3.44c-.061-.286-.5-.165-.439.121a17,17,0,0,0,1.178,3.548C118.626,92.742,119.017,92.513,118.9,92.249Z" transform="translate(-37.427 -33.063)" fill="#f5ebe3"/>
            <path id="Pfad_791" data-name="Pfad 791" d="M173.057,84.782a5.436,5.436,0,0,1-1.156-2.018c-.088-.277-.526-.159-.438.121a5.975,5.975,0,0,0,1.273,2.218C172.932,85.32,173.253,85,173.057,84.782Z" transform="translate(-37.427 -33.063)" fill="#f5ebe3"/>
            <path id="Pfad_792" data-name="Pfad 792" d="M167.18,84.985q-.757-1.515-1.514-3.027c-.131-.261-.522-.032-.392.229l1.515,3.027C166.919,85.473,167.31,85.246,167.18,84.985Z" transform="translate(-37.427 -33.063)" fill="#f5ebe3"/>
            <path id="Pfad_793" data-name="Pfad 793" d="M180.493,97.251a24.329,24.329,0,0,1-1.771-3.591c-.105-.268-.545-.152-.438.121a24.978,24.978,0,0,0,1.818,3.7.227.227,0,0,0,.391-.23Z" transform="translate(-37.427 -33.063)" fill="#f5ebe3"/>
            <path id="Pfad_794" data-name="Pfad 794" d="M172.376,100.318q-.554-2.038-1.1-4.076a.228.228,0,0,0-.439.121q.553,2.038,1.1,4.075a.228.228,0,1,0,.439-.12Z" transform="translate(-37.427 -33.063)" fill="#f5ebe3"/>
            <path id="Pfad_795" data-name="Pfad 795" d="M173.134,112.275q-.538-1.739-1.079-3.475c-.087-.278-.525-.16-.438.121L172.7,112.4C172.782,112.674,173.221,112.555,173.134,112.275Z" transform="translate(-37.427 -33.063)" fill="#f5ebe3"/>
            <path id="Pfad_796" data-name="Pfad 796" d="M180.487,110.574a23.592,23.592,0,0,1-1.645-4.037c-.085-.279-.524-.16-.439.121a24.309,24.309,0,0,0,1.691,4.145C180.23,111.062,180.622,110.832,180.487,110.574Z" transform="translate(-37.427 -33.063)" fill="#f5ebe3"/>
            <path id="Pfad_797" data-name="Pfad 797" d="M188.25,123.937a23.33,23.33,0,0,1-1.116-4.078c-.052-.287-.49-.165-.438.121a23.383,23.383,0,0,0,1.116,4.077C187.913,124.329,188.353,124.212,188.25,123.937Z" transform="translate(-37.427 -33.063)" fill="#f5ebe3"/>
            <path id="Pfad_798" data-name="Pfad 798" d="M183.408,131.657l-1.573-3.912c-.108-.268-.547-.151-.438.121q.786,1.955,1.573,3.911C183.074,132.045,183.517,131.928,183.408,131.657Z" transform="translate(-37.427 -33.063)" fill="#f5ebe3"/>
            <path id="Pfad_799" data-name="Pfad 799" d="M180.983,142.253l-1.5-3.939c-.1-.27-.542-.152-.438.121l1.5,3.939C180.648,142.644,181.087,142.527,180.983,142.253Z" transform="translate(-37.427 -33.063)" fill="#f5ebe3"/>
            <path id="Pfad_800" data-name="Pfad 800" d="M178.94,154.637a26.334,26.334,0,0,1-1.286-3.3c-.088-.278-.526-.159-.438.121a27.214,27.214,0,0,0,1.332,3.41C178.673,155.13,179.064,154.9,178.94,154.637Z" transform="translate(-37.427 -33.063)" fill="#f5ebe3"/>
            <path id="Pfad_801" data-name="Pfad 801" d="M183.641,162.3a4.5,4.5,0,0,1-1.147-2.331c-.05-.288-.488-.166-.438.12a4.929,4.929,0,0,0,1.264,2.532C183.519,162.831,183.839,162.51,183.641,162.3Z" transform="translate(-37.427 -33.063)" fill="#f5ebe3"/>
            <path id="Pfad_802" data-name="Pfad 802" d="M181.1,171.727a11.509,11.509,0,0,1-1.5-3.583c-.067-.284-.5-.164-.438.121a11.9,11.9,0,0,0,1.549,3.691C180.861,172.2,181.255,171.974,181.1,171.727Z" transform="translate(-37.427 -33.063)" fill="#f5ebe3"/>
            <g id="Gruppe_753" data-name="Gruppe 753">
              <g id="Gruppe_752" data-name="Gruppe 752">
                <path id="Pfad_803" data-name="Pfad 803" d="M128.3,134.884a.225.225,0,0,1-.224-.2c-.027-.193-.666-4.757.01-6.668.525-1.48.531-2.477.548-5.142,0-.646.009-1.388.022-2.257a62.237,62.237,0,0,1,.592-6.231,123.745,123.745,0,0,0,1.191-16.8c-.055-14.931-8.161-15.8-8.244-15.808a.227.227,0,1,1,.038-.453c.086.007,8.6.885,8.66,16.259a124.169,124.169,0,0,1-1.193,16.861q-.448,3.075-.589,6.182c-.013.868-.018,1.608-.022,2.253-.019,2.721-.025,3.739-.575,5.291-.639,1.806,0,6.407.011,6.453a.227.227,0,0,1-.193.256Z" transform="translate(-37.427 -33.063)" fill="#17253d"/>
              </g>
            </g>
            <g id="Gruppe_754" data-name="Gruppe 754">
              <path id="Pfad_804" data-name="Pfad 804" d="M114.883,149.119a.227.227,0,0,1-.06-.446l14.667-4a.227.227,0,1,1,.129.435l-.01,0-14.667,4A.233.233,0,0,1,114.883,149.119Z" transform="translate(-37.427 -33.063)" fill="#17253d"/>
            </g>
            <g id="Gruppe_755" data-name="Gruppe 755">
              <path id="Pfad_805" data-name="Pfad 805" d="M116.234,150.114a.227.227,0,0,1-.041-.45l1.682-.312a.227.227,0,1,1,.1.443l-.018,0-1.682.312A.2.2,0,0,1,116.234,150.114Z" transform="translate(-37.427 -33.063)" fill="#17253d"/>
            </g>
            <g id="Gruppe_757" data-name="Gruppe 757">
              <g id="Gruppe_756" data-name="Gruppe 756">
                <path id="Pfad_806" data-name="Pfad 806" d="M133.01,102.654a.226.226,0,0,1-.225-.2s-.454-4.541-.984-9.535a110.782,110.782,0,0,1,0-13.757.227.227,0,0,1,.454.027,109.964,109.964,0,0,0,0,13.682c.53,5,.984,9.538.984,9.538a.228.228,0,0,1-.2.249Z" transform="translate(-37.427 -33.063)" fill="#17253d"/>
              </g>
            </g>
            <g id="Gruppe_759" data-name="Gruppe 759">
              <g id="Gruppe_758" data-name="Gruppe 758">
                <path id="Pfad_807" data-name="Pfad 807" d="M167.128,104.093h-.009a.227.227,0,0,1-.218-.235c0-.044.17-4.46.469-10.36a77.983,77.983,0,0,0-.982-13.675.227.227,0,0,1,.448-.075,78.5,78.5,0,0,1,.987,13.772c-.3,5.9-.468,10.31-.469,10.354A.226.226,0,0,1,167.128,104.093Z" transform="translate(-37.427 -33.063)" fill="#17253d"/>
              </g>
            </g>
            <g id="Gruppe_761" data-name="Gruppe 761">
              <g id="Gruppe_760" data-name="Gruppe 760">
                <path id="Pfad_808" data-name="Pfad 808" d="M180.01,120.852a.228.228,0,0,1-.22-.171,60.065,60.065,0,0,1-1.553-8.37c-.161-3.116-.708-8.829-2.55-12.08-1.939-3.422-1.546-17.424-1.529-18.018a.247.247,0,0,1,.233-.22.227.227,0,0,1,.22.233c0,.145-.406,14.469,1.47,17.782,1.889,3.332,2.445,9.125,2.609,12.281a61.09,61.09,0,0,0,1.539,8.281.227.227,0,0,1-.162.276h0A.251.251,0,0,1,180.01,120.852Z" transform="translate(-37.427 -33.063)" fill="#17253d"/>
              </g>
            </g>
            <g id="Gruppe_762" data-name="Gruppe 762">
              <path id="Pfad_809" data-name="Pfad 809" d="M189.622,124.438a.232.232,0,0,1-.139-.046,17.706,17.706,0,0,0-4.141-2.225c-2.378-.887-6.305-.315-6.344-.309a.227.227,0,1,1-.071-.448h0c.166-.025,4.083-.594,6.57.332a17.779,17.779,0,0,1,4.26,2.291.226.226,0,0,1,.043.317.223.223,0,0,1-.182.089Z" transform="translate(-37.427 -33.063)" fill="#17253d"/>
            </g>
            <g id="Gruppe_763" data-name="Gruppe 763">
              <path id="Pfad_810" data-name="Pfad 810" d="M183.425,143.459a.222.222,0,0,1-.072-.012c-.227-.075-5.555-1.875-6.569-3.71a16.475,16.475,0,0,1-1.451-3.762l-1.176-1.706a.227.227,0,0,1,.367-.268l.007.011,1.234,1.818a16.364,16.364,0,0,0,1.416,3.688c.93,1.682,6.262,3.481,6.316,3.5a.228.228,0,0,1-.072.443Z" transform="translate(-37.427 -33.063)" fill="#17253d"/>
            </g>
            <g id="Gruppe_764" data-name="Gruppe 764">
              <path id="Pfad_811" data-name="Pfad 811" d="M175.431,134.365a.23.23,0,0,1-.069-.01.228.228,0,0,1-.146-.286l.439-1.365a.227.227,0,0,1,.432.139l-.439,1.365A.226.226,0,0,1,175.431,134.365Z" transform="translate(-37.427 -33.063)" fill="#17253d"/>
            </g>
            <g id="Gruppe_765" data-name="Gruppe 765">
              <path id="Pfad_812" data-name="Pfad 812" d="M176.452,135.61a.227.227,0,0,1-.213-.305l4.768-13.06a.227.227,0,0,1,.426.155l-4.768,13.06A.226.226,0,0,1,176.452,135.61Z" transform="translate(-37.427 -33.063)" fill="#17253d"/>
            </g>
            <path id="Pfad_813" data-name="Pfad 813" d="M159.354,78.019s-2.56,25.462-2.1,33.342c.833,14.188,11.446,25.785,15.888,30.867s9.571,7.56,9.732,7.446a7.787,7.787,0,0,0,0-3.274c-.294-.738-6.2-5.1-9.376-8.628-2.551-2.839-11.93-13.56-12.971-26.625-.617-7.733,3.134-31.4,1.951-32.314A5.517,5.517,0,0,0,159.354,78.019Z" transform="translate(-37.427 -33.063)" fill="#17253d"/>
            <g id="Gruppe_769" data-name="Gruppe 769">
              <path id="Pfad_814" data-name="Pfad 814" d="M169.569,115.253s-3.487-5.678-5.126-6.856c-1.971-1.417-6.627-.143-7.993.5-1.053.495-.607,1.5-.377,2.584a2.179,2.179,0,0,0-.655.683,1.748,1.748,0,0,0-.243,1.153,1.6,1.6,0,0,0,.6,1c-.01.034-.02.068-.028.1a2.326,2.326,0,0,0-.6,1.6.941.941,0,0,0,.7.943,1.338,1.338,0,0,0-.069,1.448,2.977,2.977,0,0,0,1.182,1.029,3.349,3.349,0,0,0,.725.526,33.951,33.951,0,0,0,7.038,2.285l6.148.072Z" transform="translate(-37.427 -33.063)" fill="#e3cbc1"/>
              <g id="Gruppe_766" data-name="Gruppe 766">
                <path id="Pfad_815" data-name="Pfad 815" d="M156.449,111.8a.227.227,0,0,1-.066-.445,10.352,10.352,0,0,1,2.321-.438h1.333a.227.227,0,0,1,0,.454H158.7a10.059,10.059,0,0,0-2.188.418A.219.219,0,0,1,156.449,111.8Z" transform="translate(-37.427 -33.063)" fill="#c2a194"/>
              </g>
              <g id="Gruppe_767" data-name="Gruppe 767">
                <path id="Pfad_816" data-name="Pfad 816" d="M156.244,114.659a.227.227,0,0,1-.036-.451,16.937,16.937,0,0,1,3.041-.251l.718.107a.227.227,0,0,1-.063.45h0l-.718-.107a16.022,16.022,0,0,0-2.9.25Z" transform="translate(-37.427 -33.063)" fill="#c2a194"/>
              </g>
              <g id="Gruppe_768" data-name="Gruppe 768">
                <path id="Pfad_817" data-name="Pfad 817" d="M159.353,117.087h-3.109a.227.227,0,1,1,0-.454h3.109a.227.227,0,0,1,0,.454Z" transform="translate(-37.427 -33.063)" fill="#c2a194"/>
              </g>
            </g>
            <g id="Gruppe_770" data-name="Gruppe 770">
              <path id="Pfad_818" data-name="Pfad 818" d="M148.731,89.567c-1.188,0-9.49-7.048-11.142-8.462a.227.227,0,0,1,.288-.351l.007.006c4.736,4.05,10.145,8.353,10.846,8.353h0c.79,0,5.9-3.5,8.927-5.711a.227.227,0,0,1,.267.367c-.815.593-8,5.791-9.19,5.8Z" transform="translate(-37.427 -33.063)" fill="#859ec4"/>
            </g>
            <g id="Gruppe_772" data-name="Gruppe 772">
              <g id="Gruppe_771" data-name="Gruppe 771">
                <path id="Pfad_819" data-name="Pfad 819" d="M170.864,160.789a.227.227,0,0,1-.219-.17,52.949,52.949,0,0,0-2.688-7.483c-1.808-4.046-3.07-11.98-3.082-12.06a.227.227,0,0,1,.445-.09l0,.019c.013.079,1.266,7.955,3.049,11.946a53.233,53.233,0,0,1,2.712,7.554.226.226,0,0,1-.164.276h0A.21.21,0,0,1,170.864,160.789Z" transform="translate(-37.427 -33.063)" fill="#c6d1ec"/>
              </g>
            </g>
            <g id="Gruppe_774" data-name="Gruppe 774">
              <g id="Gruppe_773" data-name="Gruppe 773">
                <path id="Pfad_820" data-name="Pfad 820" d="M166.612,161.47a.227.227,0,0,1-.224-.19l-1.514-9.356a.227.227,0,0,1,.187-.261h0a.224.224,0,0,1,.259.182v.006l1.514,9.356a.226.226,0,0,1-.188.26Z" transform="translate(-37.427 -33.063)" fill="#c6d1ec"/>
              </g>
            </g>
            <g id="Gruppe_776" data-name="Gruppe 776">
              <g id="Gruppe_775" data-name="Gruppe 775">
                <path id="Pfad_821" data-name="Pfad 821" d="M122.944,174.782a.227.227,0,0,1-.227-.227.224.224,0,0,1,.074-.168l1.74-1.59a.227.227,0,0,1,.306.335l-1.741,1.59A.221.221,0,0,1,122.944,174.782Z" transform="translate(-37.427 -33.063)" fill="#17253d"/>
              </g>
            </g>
            <g id="Gruppe_778" data-name="Gruppe 778">
              <g id="Gruppe_777" data-name="Gruppe 777">
                <path id="Pfad_822" data-name="Pfad 822" d="M134.6,165.093a.226.226,0,0,1-.155-.392l1.286-1.211a.227.227,0,1,1,.311.331l-1.287,1.211A.227.227,0,0,1,134.6,165.093Z" transform="translate(-37.427 -33.063)" fill="#17253d"/>
              </g>
            </g>
            <g id="Gruppe_780" data-name="Gruppe 780">
              <g id="Gruppe_779" data-name="Gruppe 779">
                <path id="Pfad_823" data-name="Pfad 823" d="M150.805,193.665a.227.227,0,0,1-.226-.217c0-.1-.44-9.61,0-14.788a137.18,137.18,0,0,0-.2-14.97.227.227,0,0,1,.45-.06l0,.03a136.941,136.941,0,0,1,.2,15.039c-.438,5.146,0,14.633,0,14.728a.227.227,0,0,1-.217.238Z" transform="translate(-37.427 -33.063)" fill="#17253d"/>
              </g>
            </g>
            <g id="Gruppe_782" data-name="Gruppe 782">
              <g id="Gruppe_781" data-name="Gruppe 781">
                <path id="Pfad_824" data-name="Pfad 824" d="M151.381,181.985c-.248,0-.411-.012-.437-.014a.225.225,0,0,1-.208-.242v0a.231.231,0,0,1,.245-.208c.026,0,2.667.2,3.595-1.151.715-1.038.654-10.546.439-16.684a.227.227,0,0,1,.218-.235.22.22,0,0,1,.234.2v.014c.055,1.578.511,15.462-.518,16.957C154.114,181.838,152.237,181.985,151.381,181.985Z" transform="translate(-37.427 -33.063)" fill="#17253d"/>
              </g>
            </g>
            <path id="Pfad_825" data-name="Pfad 825" d="M172.628,117.647l-4.859,7.661-2.452-2.806,4.527-7.034Z" transform="translate(-37.427 -33.063)" fill="#476594"/>
            <path id="Pfad_1214" data-name="Pfad 1214" d="M166.305,119.006a3,3,0,1,1,2.231,3.609A3,3,0,0,1,166.305,119.006Z" transform="translate(-37.427 -33.063)" fill="#fff"/>
            <g id="Gruppe_786" data-name="Gruppe 786">
              <path id="Pfad_826" data-name="Pfad 826" d="M175.418,78.141a1.774,1.774,0,0,0-1.705-.232l-.076.015c-.013,0-.019.011-.03.016a1.638,1.638,0,0,0-2.761-.545c-.064.078-.112.169-.17.253a1.344,1.344,0,0,0-1.89-.2l0,0a2.3,2.3,0,0,0-.188.154c-.306-.627-.776-1.421-1.559-1.353-.667.056-.974.789-1.152,1.339a5.728,5.728,0,0,0-.318,1.976c.019.493.05,1.221.489,1.541a1.065,1.065,0,0,0,1.325-.033c-.045.247-.285,2.9.447,3.326.859.5,1.531-.03,1.959-.707.174.648.585,1.132,1.456.684a2.992,2.992,0,0,0,1.31-1.838c.176.96.6,1.625,1.283,1.411,1.311-.412,1.711-2.84,1.844-3.926C175.754,79.4,175.941,78.619,175.418,78.141Z" transform="translate(-37.427 -33.063)" fill="#735f5f"/>
              <g id="Gruppe_783" data-name="Gruppe 783">
                <path id="Pfad_827" data-name="Pfad 827" d="M167.471,80.99a.247.247,0,0,1-.06-.008.227.227,0,0,1-.16-.278h0l.783-2.877a.227.227,0,0,1,.441.108l0,.011-.782,2.877A.228.228,0,0,1,167.471,80.99Z" transform="translate(-37.427 -33.063)" fill="#524444"/>
              </g>
              <g id="Gruppe_784" data-name="Gruppe 784">
                <path id="Pfad_828" data-name="Pfad 828" d="M169.728,83.323h-.037a.226.226,0,0,1-.188-.26l.81-4.967a.227.227,0,1,1,.448.074l-.81,4.967A.226.226,0,0,1,169.728,83.323Z" transform="translate(-37.427 -33.063)" fill="#524444"/>
              </g>
              <g id="Gruppe_785" data-name="Gruppe 785">
                <path id="Pfad_829" data-name="Pfad 829" d="M172.641,81.994a.338.338,0,0,1-.045,0,.227.227,0,0,1-.178-.267L173.1,78.3a.227.227,0,0,1,.446.089l-.683,3.427A.229.229,0,0,1,172.641,81.994Z" transform="translate(-37.427 -33.063)" fill="#524444"/>
              </g>
            </g>
            <path id="Pfad_830" data-name="Pfad 830" d="M102.522,224.537c-.34-3.471-.2-6.956-.46-10.433-.232-3.1-.321-6.2-.531-9.3-.211-3.123-1.1-23.639-1.533-26.761-.374-2.695-1.938-13.668-2.108-16.515a33.158,33.158,0,0,0-1.858-8.719c-.51-1.521-1.014-3.041-1.375-4.593-.09-.262-.184-.523-.268-.787a.231.231,0,0,0-.208-.171,19.245,19.245,0,0,1-5.365-1.365,8.567,8.567,0,0,0-4.118-.963c-1.784.136-3.549.46-5.339.568-1.749.106-3.5.135-5.253.14-3.5.01-7.013-.08-10.513.152a46.562,46.562,0,0,0-4.855.568,33.949,33.949,0,0,1-4.524.617c.118-.211.229-.426.349-.636.144-.252-.23-.489-.374-.237-.167.292-.326.589-.489.884-.159,0-.318-.01-.477-.017l-.111.451.342.011c-.218.406-.43.816-.638,1.226-1.283,5.383-2.43,10.8-3.223,16.28-.817,5.634-.924,11.29-1.469,16.947-.266,2.755-.577,5.509-.612,8.279-.035,2.811.544,34.383.6,35.746.008.186.018.369.027.554l23.82.47c.38-1.783.9-3.54,1.374-5.305.9-3.322.391-6.574.4-10.022.017-5.332.711-12.149.711-12.149s.322,13.428,1.361,18.682c.381,1.923-.4,3.7-.35,5.684.027,1.065-.013,2.133.015,3.2l27.182.5q.025-.653.052-1.306C102.647,225.654,102.577,225.1,102.522,224.537Z" transform="translate(-37.427 -33.063)" fill="#476594"/>
            <g id="Gruppe_791" data-name="Gruppe 791">
              <g id="Gruppe_787" data-name="Gruppe 787">
                <path id="Pfad_831" data-name="Pfad 831" d="M72.545,175.083a2.873,2.873,0,0,1-2.353-1.467c-.939-1.46-.4-17-.332-18.768a.223.223,0,0,1,.227-.219H70.1a.228.228,0,0,1,.219.235c-.253,6.883-.392,17.492.26,18.506a2.412,2.412,0,0,0,2,1.259.227.227,0,1,1,.029.454Z" transform="translate(-37.427 -33.063)" fill="#17253d"/>
              </g>
              <g id="Gruppe_788" data-name="Gruppe 788">
                <path id="Pfad_832" data-name="Pfad 832" d="M84.063,153.446H62.244a.227.227,0,0,1,0-.454H84.063a.227.227,0,0,1,0,.454Z" transform="translate(-37.427 -33.063)" fill="#17253d"/>
              </g>
              <g id="Gruppe_789" data-name="Gruppe 789">
                <path id="Pfad_833" data-name="Pfad 833" d="M74.446,186.443a.226.226,0,0,1-.226-.211c-.144-2.053-.546-9.722-.623-12.351-.074-2.548-.034-19.549-.033-19.72a.227.227,0,0,1,.227-.227h0a.227.227,0,0,1,.226.228h0c0,.171-.041,17.165.034,19.7.077,2.625.477,10.282.621,12.333a.227.227,0,0,1-.211.242h-.015Z" transform="translate(-37.427 -33.063)" fill="#17253d"/>
              </g>
              <circle id="Ellipse_57" data-name="Ellipse 57" cx="36.224" cy="117.916" r="1.067" fill="#17253d"/>
              <g id="Gruppe_790" data-name="Gruppe 790">
                <path id="Pfad_834" data-name="Pfad 834" d="M87,158.441a.222.222,0,0,1-.127-.04l-3.459-2.347a.227.227,0,0,1,.237-.387l.018.012,3.459,2.346a.227.227,0,0,1-.127.415Z" transform="translate(-37.427 -33.063)" fill="#17253d"/>
              </g>
            </g>
            <path id="Pfad_835" data-name="Pfad 835" d="M81.875,87.159,80.15,82.244,78.4,83.952s-.063,2.421-.047,2.535S81.875,87.159,81.875,87.159Z" transform="translate(-37.427 -33.063)" fill="#17253d"/>
            <path id="Pfad_836" data-name="Pfad 836" d="M96.614,103.227c-.81-2.006-3.3-2.5-5.176-2.815-5.824-.99-9.709-3.119-11.778-8.935-1.275-3.582-.6-7,.145-10.627a.228.228,0,0,0-.2-.257.218.218,0,0,0-.057,0q-5.7.65-11.44.825-.015-1.012-.025-2.023c0-.291-.453-.233-.45.056,0,.661.013,1.322.02,1.983l-.458.016c-.113-.144-.387-.137-.4.09-.136,2.433-.068,4.875-.276,7.3a11.12,11.12,0,0,1-.689,3.76,7.9,7.9,0,0,1-3,3.072c-.979.646-6.7,2.97-6.7,2.97s6.006,5.629,7.067,5.839c3.133.62,6.331,1.05,9.495,1.478a35.314,35.314,0,0,0,8.632-.064,5.8,5.8,0,0,0,2.13,2.272,14.723,14.723,0,0,0,5.194,1.556c2.3.389,4.6.769,6.9,1.154a.233.233,0,0,0,.282-.153,21.532,21.532,0,0,0,.862-4.088A7.51,7.51,0,0,0,96.614,103.227Z" transform="translate(-37.427 -33.063)" fill="#fff0e2"/>
            <path id="Pfad_837" data-name="Pfad 837" d="M68.376,195.2l2.5-.825s.683-27.736.513-27.963-18.545-5.564-18.545-5.564l-.536,3.044Z" transform="translate(-37.427 -33.063)" fill="#17253d"/>
            <path id="Pfad_838" data-name="Pfad 838" d="M52.842,161.755l17.541,5.674-.108,26-2.8.934L50.418,163.485Z" transform="translate(-37.427 -33.063)" fill="#fff"/>
            <path id="Pfad_839" data-name="Pfad 839" d="M37.54,158.5l30.946,10.119-.11,26.584-30.949-9.552Z" transform="translate(-37.427 -33.063)" fill="#17253d"/>
            <path id="Pfad_840" data-name="Pfad 840" d="M86.543,65.828a16.806,16.806,0,0,0-6.731-9.453A12.164,12.164,0,0,0,73.967,54a9.409,9.409,0,0,0-5.017,1.059,9.654,9.654,0,0,0-3.711.894,14.078,14.078,0,0,0-3.341,2.7,9.946,9.946,0,0,0-2.811,8.225,14.336,14.336,0,0,1,.108,2.485,23.79,23.79,0,0,0-.408,2.587,5.205,5.205,0,0,0,.935,2.622,23.66,23.66,0,0,0,3.892,5.154c.848.761,2.033,1.324,2.845,2.166-.018.131-.041.26-.053.392-.025.268.352.292.435.072a2.951,2.951,0,0,1,.36.691c.1.273.538.164.44-.112a3.517,3.517,0,0,0-.71-1.179c.024-.144.056-.287.089-.429a11.127,11.127,0,0,0,1.654.992,7.412,7.412,0,0,0,2.487.725,33.074,33.074,0,0,0,3.5-.291,25.639,25.639,0,0,0,3.147.118,5.217,5.217,0,0,0,2.376-1.067,12.092,12.092,0,0,0,2.283-2.02c.756-.927,1.067-2.13,1.8-3.082,1.2-1.555,2.3-2.8,2.712-4.789A12.2,12.2,0,0,0,86.543,65.828Z" transform="translate(-37.427 -33.063)" fill="#17253d"/>
            <path id="Pfad_841" data-name="Pfad 841" d="M83.579,71.622a19.714,19.714,0,0,0,.182-2.044c.054-3.287.191-5.8-1.89-8.686a11.01,11.01,0,0,0-6.242-3.769c-3.207-.841-6.854-.766-9.428,1.322a10.715,10.715,0,0,0-4.409,7.929,26.485,26.485,0,0,0,.714,10.648,18.907,18.907,0,0,0,2.352,5.793,10.757,10.757,0,0,0,4.825,4.159,9.028,9.028,0,0,0,8.239-.758,11.013,11.013,0,0,0,4.11-6.234A42.716,42.716,0,0,0,83.579,71.622Z" transform="translate(-37.427 -33.063)" fill="#fff0e2"/>
            <g id="Gruppe_792" data-name="Gruppe 792">
              <path id="Pfad_842" data-name="Pfad 842" d="M72.684,78.5a.232.232,0,0,1-.132-.042c-1.212-.863-1.194-1.157-1.188-1.254a3.216,3.216,0,0,1,.24-.76,12.615,12.615,0,0,0,.419-1.218,8.275,8.275,0,0,0,.176-2.1.227.227,0,1,1,.452-.042v.02a8.624,8.624,0,0,1-.192,2.243q-.184.641-.433,1.261a3.92,3.92,0,0,0-.212.624,5.631,5.631,0,0,0,1,.855.227.227,0,0,1-.131.412Z" transform="translate(-37.427 -33.063)" fill="#e6cfb8"/>
            </g>
            <path id="Pfad_843" data-name="Pfad 843" d="M69.221,80.623a22.069,22.069,0,0,0,3.463.282,27.687,27.687,0,0,0,3.491-.157s-1.235,2.893-3.783,2.582A3.83,3.83,0,0,1,69.221,80.623Z" transform="translate(-37.427 -33.063)" fill="#e0b4b4"/>
            <g id="Gruppe_793" data-name="Gruppe 793">
              <path id="Pfad_844" data-name="Pfad 844" d="M73.371,88.284c-.117,0-.236,0-.357-.01a9.522,9.522,0,0,1-5.879-2.739.227.227,0,0,1,.33-.312,9.226,9.226,0,0,0,5.573,2.6,6.607,6.607,0,0,0,5.148-2.185.227.227,0,0,1,.363.272l-.01.013A6.984,6.984,0,0,1,73.371,88.284Z" transform="translate(-37.427 -33.063)" fill="#e6cfb8"/>
            </g>
            <path id="Pfad_845" data-name="Pfad 845" d="M69.3,69.14a1.147,1.147,0,0,0-.573-.289c-1.558-.393-3.548-.1-4.476.9a.212.212,0,0,0-.068.118c-.007.089.116.164.238.175a.947.947,0,0,0,.35-.054,7.964,7.964,0,0,1,2.96-.379,4.522,4.522,0,0,0,1.144.059c.242-.039.484-.167.494-.35A.256.256,0,0,0,69.3,69.14Z" transform="translate(-37.427 -33.063)" fill="#17253d"/>
            <path id="Pfad_846" data-name="Pfad 846" d="M75.934,69.082a1.18,1.18,0,0,1,.582-.265c1.57-.336,3.549.008,4.445,1.018a.208.208,0,0,1,.065.117c0,.088-.122.157-.244.164a.941.941,0,0,1-.348-.063,8.092,8.092,0,0,0-2.946-.461,4.58,4.58,0,0,1-1.146.022c-.24-.046-.477-.178-.481-.358A.254.254,0,0,1,75.934,69.082Z" transform="translate(-37.427 -33.063)" fill="#17253d"/>
            <path id="Pfad_847" data-name="Pfad 847" d="M82.869,71.339s1.91-.828,1.954,2.095-1.133,4.782-2.647,4.725-1.645-2.339-1.645-2.339Z" transform="translate(-37.427 -33.063)" fill="#fff0e2"/>
            <path id="Pfad_848" data-name="Pfad 848" d="M62.378,70.737s-1.791-1.06-2.2,1.834.528,4.886,2.036,5.018,1.924-2.117,1.924-2.117Z" transform="translate(-37.427 -33.063)" fill="#fff0e2"/>
            <path id="Pfad_849" data-name="Pfad 849" d="M82.113,60.539c-2.467-2.9-7.512-6.213-11.517-4.751a1.153,1.153,0,0,0-.722-.152,7.488,7.488,0,0,0-2.238.925A19.37,19.37,0,0,0,64.8,57.584a5.424,5.424,0,0,0-1.346,1.782,21.677,21.677,0,0,0-2.882,8.261.183.183,0,0,0-.116.184c0,.188.012.372.024.556l-.006.051a.212.212,0,0,0,.018.111,10.171,10.171,0,0,0,.307,1.8c.033.127.612.243.74.229a2.7,2.7,0,0,0,1.67-.7c.779-.6.564-1.213.873-2.062a11.631,11.631,0,0,1,.887-1.621,2.2,2.2,0,0,0,.611.932.527.527,0,0,0,.464.08c.679-.195,1.531-.218,1.985-.816a11.182,11.182,0,0,1,.738-1.641c.375-.5.89-.871,1.306-1.33a3.764,3.764,0,0,0,.863-2.79,3.512,3.512,0,0,0,.8,1.157,5.183,5.183,0,0,0,1.539.957c.86.366,2.153.382,2.723,1.161.424.577.417,1.311.97,1.825a10.882,10.882,0,0,0,1.851,1.082,7.254,7.254,0,0,1,2.141,1.842,4.349,4.349,0,0,1,.8,2.284c.037.507-.264,1.387.126,1.808.611.661,1.615-.254,1.765-.866a21.318,21.318,0,0,0,.612-4.073A10.741,10.741,0,0,0,82.113,60.539Z" transform="translate(-37.427 -33.063)" fill="#17253d"/>
            <path id="Pfad_850" data-name="Pfad 850" d="M97.96,106.454a5.641,5.641,0,0,0-.014-.7,2.064,2.064,0,0,0-.09-.454c-.164-.482-.536-.763-1.295-1.126a13.628,13.628,0,0,0-5.839-1.067h-.054c-.768-.01-1.535.013-2.289.027a21.771,21.771,0,0,1-6.74-.527c-2.388-.713-12.638-1.794-15.394-2.289-2.966-.531-7.979-1.667-10.467-2.093a6.534,6.534,0,0,0-2.493,0,4.363,4.363,0,0,0-2.4,1.457,7.012,7.012,0,0,0-1.344,4.468c-.01.154-.01.309-.01.463-.013.818.019,1.621.027,2.353a45.659,45.659,0,0,0-.382,9.8l.027.45c.177,3.1.518,6.208.759,9.3a15.386,15.386,0,0,1,.032,2.457c-.009.109-.018.218-.032.326a1,1,0,0,1-.018.132c-.376,2.834-1.657,4.918-.6,7.752a4.044,4.044,0,0,0,.173.413.793.793,0,0,0,.059.141c.273-.273.309,2.743.1,4.632A10.616,10.616,0,0,0,49.9,146.1a4.643,4.643,0,0,0,.141.49,5.42,5.42,0,0,0,1,1.857c.426,1.726,1.893,2.121,3.405,2.266.382.041.768.064,1.14.087h.054c1.948.127,3.505.84,5.458.381,1.262-.3,2.53-.609,3.792-.922h0c.55-.132,1.1-.268,1.653-.4,1.072-.259,3.747-1.281,4.737-.885,1.431.568,3.206.453,4.713.845a38.835,38.835,0,0,0,3.806,1.162,11.306,11.306,0,0,0,3.365-.141h0c.317-.05.631-.1.945-.145a40.311,40.311,0,0,1,5.126-.363c1.222-.018,4.092-.364,5.8-.259a4.411,4.411,0,0,1,.8.109c.459.113.981-.609,1.389-1.694a12.106,12.106,0,0,0,.732-4.2v-.236c0-.077,0-.136,0-.2-.018-.426-.027-.845-.022-1.267.009-1.639-1.036-3.7-1.249-5.4-.082-.662-.146-1.262-.191-1.811-.013-.159-.022-.318-.032-.468-.227-3.488.323-4.846.845-8.329.023-.145.041-.3.069-.458.073-.527.145-1.1.213-1.739a74.614,74.614,0,0,0,.25-9.168v-.459c-.01-1.131-.018-2.261,0-3.392C97.856,109.719,97.906,108.089,97.96,106.454Z" transform="translate(-37.427 -33.063)" fill="#c6d1ec"/>
            <path id="Pfad_851" data-name="Pfad 851" d="M53.574,186.22c-.289-2.417-.482-1.592-.564-4.019a4.368,4.368,0,0,0-.595-2.3,18.023,18.023,0,0,0-1.727-1.79s.194-7.21.249-8.906q.167-5.085.391-10.17a.248.248,0,0,0,.011-.261c.008-.175.014-.349.022-.524a.227.227,0,0,0-.454-.009c-.007.136-.011.272-.018.408-2.763-.149-5.442.6-8.168.919-.041-.837-.088-1.673-.125-2.51-.013-.29-.467-.3-.455-.009.04.856.087,1.712.129,2.569-.432.043-.864.073-1.3.085-.291.009-.3.462-.009.454.446-.012.888-.045,1.331-.089.32,6.345,1.561,19.1,1.561,19.1a40.51,40.51,0,0,0-.6,7.192c.119,1.432.012,2.811,1.873,2.859.384.01.506.423.781.607.225.151.841.147.953.333.639,1.07,1.789.184,2.7.73.725.432,1.4,1.694,2.406.934.836-.628.465-1.932.38-2.79-.03-.3-.05-.6-.073-.9a1.2,1.2,0,0,0,.364.493C54.007,189.574,53.628,186.668,53.574,186.22Z" transform="translate(-37.427 -33.063)" fill="#fff0e2"/>
            <path id="Pfad_852" data-name="Pfad 852" d="M56.5,131.816c-.009-1-.032-1.985-.077-2.97,0-.15-.013-.3-.023-.449a88.647,88.647,0,0,0-1.2-10.84c-.023-.149-.05-.3-.083-.454-.113-.659-.236-1.322-.367-1.984-.609-3.061-1.258-6.122-1.607-9.228-.023-.2-.046-.413-.064-.618-.013-.154-.027-.3-.041-.459-.1-1.239-.145-2.475-.154-3.724a4.1,4.1,0,0,0-.422-2.125,7.968,7.968,0,0,1,.8-.3.244.244,0,0,0,.141-.313.249.249,0,0,0-.11-.127.225.225,0,0,0-.145,0,10.14,10.14,0,0,0-5.609,4.886c-.113.213-.223.426-.327.645-.068.14-.132.282-.2.427q-.178.394-.327.8c-1.4,3.778-3.306,7.788-3.488,11.747-.009.15-.013.3-.013.44v.01a32.044,32.044,0,0,1-.931,7.515,29.476,29.476,0,0,0-.632,3.425c-.023.15-.041.3-.058.454-.11.827-.2,1.662-.309,2.507a40.679,40.679,0,0,0-.223,5.681v.4c0,.34,0,.676.009,1.017.014,1.118.033,2.24-.022,3.361-.073,1.381.395,2.457-.241,3.669a6.2,6.2,0,0,0-.658,2.161c-.023.146-.037.291-.05.44-.187,2.311.426,4.8-.164,7.034a.1.1,0,0,1-.045-.008,2.7,2.7,0,0,0-1.418-.069,1.255,1.255,0,0,0-.508.35,1.231,1.231,0,0,0-.254.422,4.437,4.437,0,0,0,.036,2.225,5.5,5.5,0,0,1-.045,3.056c-.867,2.7,3.869,3.292,5.354,3.379,1.044.063,2.093.122,3.142.186q3.249.192,6.507.386a.23.23,0,0,0,.232-.223c.219-1.617.377-3.238.486-4.863.014-.15.023-.3.027-.454q.035-.45.056-.9c.14-.4.281-.813.417-1.222a.188.188,0,0,0,.045-.127c.036-.113.077-.226.118-.34a44.191,44.191,0,0,0,1.526-5.839q.183-.966.3-1.948c.141-1.168.436-2.824.74-4.564l.082-.481c.327-1.87.645-3.791.777-5.268.013-.145.027-.29.031-.426.013-.164.023-.318.027-.463C57.64,134.782,56.523,134.677,56.5,131.816Z" transform="translate(-37.427 -33.063)" fill="#c6d1ec"/>
            <path id="Pfad_853" data-name="Pfad 853" d="M82.412,150.336S97.106,160.085,97.9,160.5s5.117-1.492,4.017-4.41c-1.039-2.75.71-7,.71-7l-11.8-1.336Z" transform="translate(-37.427 -33.063)" fill="#c6d1ec"/>
            <path id="Pfad_854" data-name="Pfad 854" d="M107.827,137.918c-.068-.249-.136-.5-.2-.754-.041-.159-.086-.323-.132-.486-.454-1.63-.931-3.269-1.267-4.927-.427-2.12-.264-4.1-.527-6.112-.014-.14-.036-.277-.059-.417a10.484,10.484,0,0,0-.7-2.493c-1.012-2.375-2.366-4.441-3.038-6.871-.046-.159-.086-.318-.123-.481-.045-.187-.082-.377-.118-.569a43.162,43.162,0,0,0-1.8-6.8,10.485,10.485,0,0,0-1.121-2.407,3.069,3.069,0,0,0-.318-.409,2.729,2.729,0,0,0-.676-.582,13.092,13.092,0,0,0-7.016-1.507h-.054c-.291.009-.423,1.5-.132,1.489a29.221,29.221,0,0,1,3.4.068,7.183,7.183,0,0,1-.749,1.472c-.114.172-.236.34-.359.508-1.449,1.935-3.5,3.425-3.965,6.026a16.049,16.049,0,0,0-.218,1.98c-.009.15-.014.3-.019.454-.031,1.022,0,2.043.01,3.056.036,2.147.072,4.291.122,6.44.01.472.023.939.037,1.412,0,.149,0,.3.013.454.073,2.757.182,5.513.35,8.265.009.154.023.309.032.463.05.831.114,1.662.177,2.493.154,1.889.327,3.778.568,5.663.014.122.027.24.046.363a.36.36,0,0,0,.013.073c.246,1.648,1.545,2.03,2.952,2.756a3.1,3.1,0,0,1,1.29,1.608c.282.626.513,1.321.808,1.925a2.616,2.616,0,0,0,1.3,1.417,28.576,28.576,0,0,0,5.3,1.494,4.934,4.934,0,0,0,2.47-.059c1.341-.6,3.011-3.325,3.965-4.41a3.226,3.226,0,0,0,.568-1.808c.013-.159.023-.318.027-.481.046-1.081-.041-2.248.073-3.011C109,141.447,108.268,139.6,107.827,137.918Z" transform="translate(-37.427 -33.063)" fill="#c6d1ec"/>
            <path id="Pfad_855" data-name="Pfad 855" d="M89.439,159.52c1.622,1.165,3.327,2.21,5.042,3.232.552.329,1.124.632,1.708.921.884-2.311,1.682-4.652,2.374-7.03a.205.205,0,0,0-.022-.177c.784-1.038,1.569-2.075,2.336-3.124q.826-1.131,1.644-2.273a16.826,16.826,0,0,0,1.493-2.111c.914-1.86-3.814-2.4-4.83-2.448-2.687-.14-4.212,2.885-5.726,4.729a37.764,37.764,0,0,0-4.172,6.256c-.221.417-.509.882-.76,1.36C88.835,159.09,89.142,159.31,89.439,159.52Z" transform="translate(-37.427 -33.063)" fill="#fff0e2"/>
            <path id="Pfad_856" data-name="Pfad 856" d="M64.891,150.263l-10.834,6.374s-1.632-2.282-1.062-2.648,1.557-4.823,2.889-5.141S64.891,150.263,64.891,150.263Z" transform="translate(-37.427 -33.063)" fill="#c6d1ec"/>
            <g id="Gruppe_795" data-name="Gruppe 795">
              <g id="Gruppe_794" data-name="Gruppe 794">
                <path id="Pfad_857" data-name="Pfad 857" d="M62.833,84.128c-.045-.979-.14-2.029-.278-3.025-.061-.443-.06-3.287-.868-2.955-.478.2-.548,1.818-.635,2.262a22.454,22.454,0,0,0-.405,3,6.023,6.023,0,0,0,0,.711Z" transform="translate(-37.427 -33.063)" fill="#213759"/>
                <path id="Pfad_858" data-name="Pfad 858" d="M61.409,76.833c-1.139.314-.253,2.623.919,1.571a.925.925,0,0,0-.783-1.6A.784.784,0,0,0,61.409,76.833Z" transform="translate(-37.427 -33.063)" fill="#213759"/>
              </g>
            </g>
            <g id="Gruppe_797" data-name="Gruppe 797">
              <g id="Gruppe_796" data-name="Gruppe 796">
                <path id="Pfad_859" data-name="Pfad 859" d="M84.451,84.217c-.045-.978-.139-2.028-.278-3.025-.061-.442-.06-3.287-.868-2.954-.478.2-.548,1.817-.635,2.262a22.292,22.292,0,0,0-.405,3,6.023,6.023,0,0,0,0,.711Z" transform="translate(-37.427 -33.063)" fill="#213759"/>
                <path id="Pfad_860" data-name="Pfad 860" d="M83.026,76.923c-1.14.313-.254,2.622.919,1.57a.925.925,0,0,0-.783-1.6A.786.786,0,0,0,83.026,76.923Z" transform="translate(-37.427 -33.063)" fill="#213759"/>
              </g>
            </g>
            <g id="Gruppe_798" data-name="Gruppe 798">
              <path id="Pfad_861" data-name="Pfad 861" d="M49.362,190.464a.227.227,0,0,1-.224-.189l-.369-2.2a.227.227,0,1,1,.443-.1l0,.022.37,2.2a.227.227,0,0,1-.186.262h0A.231.231,0,0,1,49.362,190.464Z" transform="translate(-37.427 -33.063)" fill="#e6cfb8"/>
            </g>
            <g id="Gruppe_799" data-name="Gruppe 799">
              <path id="Pfad_862" data-name="Pfad 862" d="M52.211,187.523a.227.227,0,0,1-.224-.189l-.776-4.619a.228.228,0,0,1,.187-.262.225.225,0,0,1,.26.183v0l.776,4.62a.228.228,0,0,1-.187.261Z" transform="translate(-37.427 -33.063)" fill="#e6cfb8"/>
            </g>
            <g id="Gruppe_800" data-name="Gruppe 800">
              <path id="Pfad_863" data-name="Pfad 863" d="M98.732,105.6c-.263.054-.527.1-.786.15-1.7.326-3.411.626-5.122.889-2.416.377-4.845.686-7.3.886a107.816,107.816,0,0,1-17.96-.037,142.55,142.55,0,0,1-14.49-2.216q-1.464-.272-2.933-.553c-.2-.037-.4-.077-.609-.11-.84-.154-1.68-.3-2.525-.431.063-.146.127-.287.2-.427q1.171.184,2.339.395l1.566.3c.64.123,1.286.25,1.925.372a137.626,137.626,0,0,0,16.062,2.339,107.179,107.179,0,0,0,18.4-.263c1.907-.2,3.805-.454,5.69-.758,1.562-.25,3.119-.536,4.673-.836.186-.032.372-.068.558-.1A2.979,2.979,0,0,1,98.732,105.6Z" transform="translate(-37.427 -33.063)" fill="#8498b5"/>
              <path id="Pfad_864" data-name="Pfad 864" d="M101.9,115.859c-1.353-.24-2.706-.472-4.064-.654a36.187,36.187,0,0,0-4.337-.34,42.424,42.424,0,0,0-4.873.236c-1.381.14-2.756.332-4.128.545a156.127,156.127,0,0,1-16.938,2.168,116.657,116.657,0,0,1-12.361-.26c-1.631-.1-3.26-.2-4.9-.3-.363-.023-.731-.041-1.095-.054-2.007-.091-4.023-.123-6.025-.027v-.01c0-.145,0-.29.013-.44,1.99-.095,3.992-.068,5.985.027.863.032,1.726.082,2.584.137q1.675.108,3.351.209a113.128,113.128,0,0,0,14.191.159c5.826-.382,11.507-1.608,17.283-2.375.681-.091,1.367-.173,2.053-.241a39.814,39.814,0,0,1,7.016-.136c.726.059,1.449.136,2.171.236,1.317.173,2.633.395,3.946.632C101.811,115.541,101.851,115.7,101.9,115.859Z" transform="translate(-37.427 -33.063)" fill="#8498b5"/>
              <path id="Pfad_865" data-name="Pfad 865" d="M105.7,125.64a62.585,62.585,0,0,1-7.5.895c-.3.014-.595.027-.895.036-2.833.091-5.668.01-8.5-.109-4.31-.182-8.614-.445-12.924-.3-6.58.214-12.969,1.794-19.463,2.689-.785.113-1.576.209-2.366.3-1.362.145-2.733.249-4.1.281a33.32,33.32,0,0,1-6.167-.381c-.749-.123-1.489-.282-2.22-.468.018-.154.036-.3.059-.454a25.356,25.356,0,0,0,2.489.513,33.628,33.628,0,0,0,5.889.332,53.8,53.8,0,0,0,5.526-.45c.291-.036.582-.077.872-.117,7.393-1.018,14.6-2.739,22.111-2.734,3.425,0,6.857.2,10.286.345,2.86.122,5.722.2,8.578.1,1.507-.05,3.015-.15,4.523-.323,1.24-.141,2.489-.345,3.747-.568C105.662,125.362,105.684,125.5,105.7,125.64Z" transform="translate(-37.427 -33.063)" fill="#8498b5"/>
              <path id="Pfad_866" data-name="Pfad 866" d="M107.622,137.165c-.632-.132-1.258-.254-1.884-.381a90.8,90.8,0,0,0-9.251-1.417,50.262,50.262,0,0,0-7.3-.177c-.926.041-1.848.118-2.775.232-6.171.745-12.138,2.662-18.318,3.333a49.74,49.74,0,0,1-10.612-.219c-2.648-.281-5.309-.658-7.956-.949a58.212,58.212,0,0,0-8.492-.426v-.4a58.6,58.6,0,0,1,8.323.413l.945.11c2.416.286,4.818.6,7.216.826a51.023,51.023,0,0,0,12.611-.077c6.162-.922,12.16-2.82,18.391-3.27.213-.013.427-.027.64-.036a47.962,47.962,0,0,1,7.3.173,100.842,100.842,0,0,1,11.035,1.78C107.537,136.842,107.582,137.006,107.622,137.165Z" transform="translate(-37.427 -33.063)" fill="#8498b5"/>
              <path id="Pfad_867" data-name="Pfad 867" d="M108.673,146.225c0,.163-.014.322-.027.481a49.048,49.048,0,0,0-10.685-2.42c-.2-.027-.413-.05-.618-.073-2.443-.263-4.9-.39-7.353-.431-3.905-.068-7.815.082-11.716.218-3.365.118-6.725.227-10.09.186-3.161-.036-6.339-.386-9.5-.182a14.443,14.443,0,0,0-2.061.281,35.8,35.8,0,0,0-6.58,2.3l-.186.077a17.767,17.767,0,0,1-8.483,1.289c-.436-.036-.872-.086-1.3-.146.013-.149.027-.3.05-.44a21.292,21.292,0,0,0,3.751.2,17.761,17.761,0,0,0,6.03-1.475c1.026-.409,2.048-.859,3.111-1.281a17.419,17.419,0,0,1,3.691-1.013,26.84,26.84,0,0,1,4.954-.295c3.374.082,6.734.263,10.113.218,3.288-.049,6.576-.19,9.868-.295,2.734-.086,5.509-.141,8.292-.086,2.679.045,5.363.195,8.019.5A49.635,49.635,0,0,1,108.673,146.225Z" transform="translate(-37.427 -33.063)" fill="#8498b5"/>
              <path id="Pfad_868" data-name="Pfad 868" d="M53.42,159.23c0,.154-.013.3-.027.454H51.268a19.011,19.011,0,0,1-7.979-1.64c-1.871-.832-3.732-1.7-5.608-2.5a1.247,1.247,0,0,1,.254-.422c1.38.595,2.752,1.222,4.11,1.857a26.129,26.129,0,0,0,4.64,1.826,20.148,20.148,0,0,0,4.787.427C52.122,159.226,52.771,159.23,53.42,159.23Z" transform="translate(-37.427 -33.063)" fill="#8498b5"/>
            </g>
            <g id="Gruppe_827" data-name="Gruppe 827">
              <g id="Gruppe_826" data-name="Gruppe 826">
                <g id="Gruppe_802" data-name="Gruppe 802">
                  <g id="Gruppe_801" data-name="Gruppe 801">
                    <path id="Pfad_869" data-name="Pfad 869" d="M53.833,150.445a.228.228,0,0,1-.086-.018,4.373,4.373,0,0,1-2.19-2.524c-.712-1.922-.319-4.485,1.451-9.458a13.251,13.251,0,0,0-.413-9.184,12.145,12.145,0,0,1-.4-1.306,43.668,43.668,0,0,1,.475-7.079,38.929,38.929,0,0,0,.392-5.07,69.557,69.557,0,0,0-7.157-4.363.229.229,0,1,1,.223-.4c1.162.655,6.98,3.948,7.331,4.539.181.3.051,1.7-.337,5.337a46.184,46.184,0,0,0-.482,6.941,11.858,11.858,0,0,0,.383,1.25,13.647,13.647,0,0,1,.411,9.482c-1.707,4.8-2.115,7.362-1.454,9.148A3.966,3.966,0,0,0,53.918,150a.228.228,0,0,1-.087.438Z" transform="translate(-37.427 -33.063)" fill="#17253d"/>
                  </g>
                </g>
                <g id="Gruppe_804" data-name="Gruppe 804">
                  <g id="Gruppe_803" data-name="Gruppe 803">
                    <path id="Pfad_870" data-name="Pfad 870" d="M68.573,147.9a.228.228,0,0,1-.063-.009,70.208,70.208,0,0,1-8.278-2.875,9.644,9.644,0,0,1-2.884-1.938.227.227,0,1,1,.352-.288,9.6,9.6,0,0,0,2.739,1.821,71.525,71.525,0,0,0,8.2,2.843.227.227,0,0,1-.062.446Z" transform="translate(-37.427 -33.063)" fill="#17253d"/>
                  </g>
                </g>
                <g id="Gruppe_806" data-name="Gruppe 806">
                  <g id="Gruppe_805" data-name="Gruppe 805">
                    <path id="Pfad_871" data-name="Pfad 871" d="M70.088,147.9a.224.224,0,0,1-.134-.044l-5.734-4.187a.227.227,0,0,1,.268-.367l5.735,4.187a.227.227,0,0,1-.134.41Z" transform="translate(-37.427 -33.063)" fill="#17253d"/>
                  </g>
                </g>
                <g id="Gruppe_808" data-name="Gruppe 808">
                  <g id="Gruppe_807" data-name="Gruppe 807">
                    <path id="Pfad_872" data-name="Pfad 872" d="M79.164,149.225a.227.227,0,0,1-.067-.445c.048-.015,4.867-1.5,7.33-2.533,2.417-1.015,4.744-4.115,4.767-4.145a.227.227,0,1,1,.372.261l-.008.01c-.1.132-2.425,3.231-4.955,4.293-2.483,1.042-7.325,2.534-7.373,2.549A.211.211,0,0,1,79.164,149.225Z" transform="translate(-37.427 -33.063)" fill="#17253d"/>
                  </g>
                </g>
                <g id="Gruppe_810" data-name="Gruppe 810">
                  <g id="Gruppe_809" data-name="Gruppe 809">
                    <path id="Pfad_873" data-name="Pfad 873" d="M95.85,122.275a.227.227,0,0,1-.137-.408l5.087-3.839a.227.227,0,0,1,.274.362l-5.087,3.839A.228.228,0,0,1,95.85,122.275Z" transform="translate(-37.427 -33.063)" fill="#17253d"/>
                  </g>
                </g>
                <g id="Gruppe_812" data-name="Gruppe 812">
                  <g id="Gruppe_811" data-name="Gruppe 811">
                    <path id="Pfad_874" data-name="Pfad 874" d="M52.263,157.1a.267.267,0,0,1-.04,0c-1.1-.195-10.763-1.906-11.144-2.022a.227.227,0,0,1,.132-.435c.29.086,6.792,1.249,11.091,2.01a.227.227,0,0,1-.039.45Z" transform="translate(-37.427 -33.063)" fill="#17253d"/>
                  </g>
                </g>
                <g id="Gruppe_813" data-name="Gruppe 813">
                  <path id="Pfad_875" data-name="Pfad 875" d="M44,159.751h-.015l-5.069-.324a.227.227,0,0,1-.212-.241.23.23,0,0,1,.24-.212l5.07.325a.227.227,0,0,1-.014.453Z" transform="translate(-37.427 -33.063)" fill="#17253d"/>
                </g>
                <g id="Gruppe_815" data-name="Gruppe 815">
                  <g id="Gruppe_814" data-name="Gruppe 814">
                    <path id="Pfad_876" data-name="Pfad 876" d="M51.639,161.07h0l-9.307-.04a.227.227,0,0,1,0-.453h0l9.307.038a.228.228,0,0,1,0,.455Z" transform="translate(-37.427 -33.063)" fill="#17253d"/>
                  </g>
                </g>
                <g id="Gruppe_817" data-name="Gruppe 817">
                  <g id="Gruppe_816" data-name="Gruppe 816">
                    <path id="Pfad_877" data-name="Pfad 877" d="M94.929,143.614a.227.227,0,0,1-.158-.39,9.77,9.77,0,0,1,6.409-2.383h.041a12.389,12.389,0,0,1,6.4,1.652.227.227,0,1,1-.25.379,12.178,12.178,0,0,0-6.151-1.578,9.554,9.554,0,0,0-6.133,2.257A.227.227,0,0,1,94.929,143.614Z" transform="translate(-37.427 -33.063)" fill="#17253d"/>
                  </g>
                </g>
                <g id="Gruppe_819" data-name="Gruppe 819">
                  <g id="Gruppe_818" data-name="Gruppe 818">
                    <path id="Pfad_878" data-name="Pfad 878" d="M94.939,141.264a.211.211,0,0,1-.066-.01.226.226,0,0,1-.153-.281v0c.036-.118.448-1.2,3.854-2.626,3.34-1.4,4.029-1.439,4.1-1.439h0a.227.227,0,0,1,0,.454h0a18.793,18.793,0,0,0-3.923,1.4c-3.217,1.345-3.592,2.328-3.595,2.338A.226.226,0,0,1,94.939,141.264Z" transform="translate(-37.427 -33.063)" fill="#17253d"/>
                  </g>
                </g>
                <g id="Gruppe_821" data-name="Gruppe 821">
                  <g id="Gruppe_820" data-name="Gruppe 820">
                    <path id="Pfad_879" data-name="Pfad 879" d="M94.658,148.441a.226.226,0,0,1-.2-.12c-.051-.095-1.25-2.341-1.067-3.412a42.465,42.465,0,0,0,.088-7.454,16.876,16.876,0,0,1,.958-7.706c.656-1.514.022-7.77.016-7.833l-.009-.086,4.96-6.862a.227.227,0,0,1,.368.266l-4.859,6.721c.079.8.607,6.436-.06,7.974a16.45,16.45,0,0,0-.922,7.5,42.781,42.781,0,0,1-.093,7.558,7.531,7.531,0,0,0,1.019,3.121.228.228,0,0,1-.094.308.22.22,0,0,1-.106.027Z" transform="translate(-37.427 -33.063)" fill="#17253d"/>
                  </g>
                </g>
                <g id="Gruppe_823" data-name="Gruppe 823">
                  <g id="Gruppe_822" data-name="Gruppe 822">
                    <path id="Pfad_880" data-name="Pfad 880" d="M52.279,153.444a.229.229,0,0,1-.093-.02.224.224,0,0,1-.115-.293c.031-.07.357-.727,2.463-2.01s8.866-3.173,9.153-3.253a.227.227,0,0,1,.122.438c-.07.019-6.984,1.952-9.038,3.2-1.967,1.2-2.282,1.8-2.285,1.807A.234.234,0,0,1,52.279,153.444Z" transform="translate(-37.427 -33.063)" fill="#17253d"/>
                  </g>
                </g>
                <g id="Gruppe_825" data-name="Gruppe 825">
                  <g id="Gruppe_824" data-name="Gruppe 824">
                    <path id="Pfad_881" data-name="Pfad 881" d="M92.915,150.039a.248.248,0,0,1-.054-.006s-1.417-.346-3.285-.77a23.275,23.275,0,0,0-5.489-.019.227.227,0,0,1-.049-.451,23.121,23.121,0,0,1,5.638.027c1.874.425,3.293.771,3.293.771a.227.227,0,0,1-.054.447Z" transform="translate(-37.427 -33.063)" fill="#17253d"/>
                  </g>
                </g>
              </g>
            </g>
            <path id="Pfad_882" data-name="Pfad 882" d="M84.224,94.058q-.054-.254-.119-.506c-.364-1.4-1.129-2.646-1.492-4.029a11.906,11.906,0,0,0-1.324-3.529c-.52-.946-2.246-.687-2.246-.687a53.949,53.949,0,0,1-1.107,6.168,18.6,18.6,0,0,1-1.517,3.634,8.258,8.258,0,0,0-.855,3.43,9.369,9.369,0,0,1-.107,2.225,4.165,4.165,0,0,1-1.327,1.825,3.019,3.019,0,0,0-1.138,2.025c-.105.8-.4,1.9.183,2.585a1.9,1.9,0,0,0,1.74.525,4.183,4.183,0,0,0,.29-.331c.743-1.572,1.47-3.15,2.367-4.644.189-.314.022,1.709-.2,2.177-.3.659-.845,1.254-1.193,1.918-.334.636-.618,1.253.277,1.223a7.428,7.428,0,0,0,3.167-1,10.843,10.843,0,0,0,3.357-3.3c.551-.863.1-1.459,0-2.391a3.2,3.2,0,0,1,.182-1.868c.292-.548.81-.924,1-1.539A7.955,7.955,0,0,0,84.224,94.058Z" transform="translate(-37.427 -33.063)" fill="#17253d"/>
            <g id="Gruppe_829" data-name="Gruppe 829">
              <g id="Gruppe_828" data-name="Gruppe 828">
                <path id="Pfad_883" data-name="Pfad 883" d="M42.776,186.683a.229.229,0,0,1-.078-.014l-4.824-1.76a.227.227,0,0,1,.132-.434l.023.008,4.825,1.759a.227.227,0,0,1-.078.44Z" transform="translate(-37.427 -33.063)" fill="#17253d"/>
              </g>
            </g>
            <g id="Gruppe_831" data-name="Gruppe 831">
              <g id="Gruppe_830" data-name="Gruppe 830">
                <path id="Pfad_884" data-name="Pfad 884" d="M67.354,194.062a.245.245,0,0,1-.066-.01l-13.932-4.258a.227.227,0,0,1,.115-.439l.017.005,13.932,4.262a.227.227,0,0,1-.067.444Z" transform="translate(-37.427 -33.063)" fill="#17253d"/>
              </g>
            </g>
            <g id="Gruppe_840" data-name="Gruppe 840">
              <g id="Gruppe_839" data-name="Gruppe 839">
                <g id="Gruppe_832" data-name="Gruppe 832">
                  <path id="Pfad_885" data-name="Pfad 885" d="M70.722,60.044a.228.228,0,0,1-.168-.074,5.417,5.417,0,0,1-1.112-2.182,8.5,8.5,0,0,0-.585-1.763.227.227,0,0,1,.4-.213,8.747,8.747,0,0,1,.625,1.87,5.047,5.047,0,0,0,1.007,1.982.228.228,0,0,1-.016.321h0A.222.222,0,0,1,70.722,60.044Z" transform="translate(-37.427 -33.063)" fill="#0a111c"/>
                </g>
                <g id="Gruppe_833" data-name="Gruppe 833">
                  <path id="Pfad_886" data-name="Pfad 886" d="M65.158,65.493h-.037a.227.227,0,0,1-.188-.261,9.946,9.946,0,0,1,1.45-3.572,6.805,6.805,0,0,1,2.892-2.393.227.227,0,0,1,.18.417l-.016.006a6.456,6.456,0,0,0-2.679,2.224,9.644,9.644,0,0,0-1.379,3.391A.226.226,0,0,1,65.158,65.493Z" transform="translate(-37.427 -33.063)" fill="#0a111c"/>
                </g>
                <g id="Gruppe_834" data-name="Gruppe 834">
                  <path id="Pfad_887" data-name="Pfad 887" d="M60.462,69.731a.227.227,0,0,1-.086-.438,4.263,4.263,0,0,0,2.241-2.205c.509-1.576.69-2.167,1.3-4.344a7.494,7.494,0,0,1,3.052-3.727.228.228,0,0,1,.238.388h0a7.153,7.153,0,0,0-2.852,3.462c-.614,2.185-.8,2.777-1.307,4.36a4.645,4.645,0,0,1-2.5,2.487A.227.227,0,0,1,60.462,69.731Z" transform="translate(-37.427 -33.063)" fill="#0a111c"/>
                </g>
                <g id="Gruppe_835" data-name="Gruppe 835">
                  <path id="Pfad_888" data-name="Pfad 888" d="M83.971,70.6a.229.229,0,0,1-.227-.227,12.424,12.424,0,0,0-.182-2.1,4.026,4.026,0,0,0-2.491-2.613,7.662,7.662,0,0,1-2.647-2.481,12.5,12.5,0,0,0-1.508-1.717A6.131,6.131,0,0,0,73,60.388a.222.222,0,0,1-.242-.2v-.008a.227.227,0,0,1,.21-.243h0a6.482,6.482,0,0,1,4.247,1.191,13.03,13.03,0,0,1,1.564,1.779,7.243,7.243,0,0,0,2.481,2.348A4.459,4.459,0,0,1,84,68.174a12.639,12.639,0,0,1,.194,2.2A.249.249,0,0,1,83.971,70.6Z" transform="translate(-37.427 -33.063)" fill="#0a111c"/>
                </g>
                <g id="Gruppe_836" data-name="Gruppe 836">
                  <path id="Pfad_889" data-name="Pfad 889" d="M85.484,70.6a.21.21,0,0,1-.056-.008.227.227,0,0,1-.164-.275,6.688,6.688,0,0,0-.175-3.75,6.443,6.443,0,0,0-2.923-2.534.228.228,0,0,1,.18-.418h0A6.784,6.784,0,0,1,85.5,66.382a7.032,7.032,0,0,1,.2,4.049A.228.228,0,0,1,85.484,70.6Z" transform="translate(-37.427 -33.063)" fill="#0a111c"/>
                </g>
                <g id="Gruppe_837" data-name="Gruppe 837">
                  <path id="Pfad_890" data-name="Pfad 890" d="M77.873,102.393h-.037a.227.227,0,0,1-.188-.261,19.6,19.6,0,0,1,1.5-5.031A12.132,12.132,0,0,0,80.3,92.209a16.7,16.7,0,0,0-.415-3.083.227.227,0,0,1,.443-.1h0a16.839,16.839,0,0,1,.426,3.2,12.616,12.616,0,0,1-1.211,5.1,19.517,19.517,0,0,0-1.45,4.884A.228.228,0,0,1,77.873,102.393Z" transform="translate(-37.427 -33.063)" fill="#0a111c"/>
                </g>
                <g id="Gruppe_838" data-name="Gruppe 838">
                  <path id="Pfad_891" data-name="Pfad 891" d="M81.507,93.988a.222.222,0,0,1-.051-.006.227.227,0,0,1-.171-.271,12.087,12.087,0,0,0,.183-2.372,11.191,11.191,0,0,0-.926-3.617.227.227,0,1,1,.415-.185h0a11.474,11.474,0,0,1,.966,3.8,12.267,12.267,0,0,1-.194,2.472A.228.228,0,0,1,81.507,93.988Z" transform="translate(-37.427 -33.063)" fill="#0a111c"/>
                </g>
              </g>
            </g>
            <g id="Gruppe_841" data-name="Gruppe 841">
              <path id="Pfad_892" data-name="Pfad 892" d="M82.963,76.25a.227.227,0,0,1-.229-.225.238.238,0,0,1,.029-.113,2.894,2.894,0,0,0,.359-1.21,2.371,2.371,0,0,0-.083-.686.233.233,0,0,1,.114-.3.224.224,0,0,1,.3.1,2.329,2.329,0,0,1,.127.868,3.31,3.31,0,0,1-.416,1.446A.228.228,0,0,1,82.963,76.25Z" transform="translate(-37.427 -33.063)" fill="#e6cfb8"/>
            </g>
            <g id="Gruppe_842" data-name="Gruppe 842">
              <path id="Pfad_893" data-name="Pfad 893" d="M62.152,75.768a.226.226,0,0,1-.2-.116,3.323,3.323,0,0,1-.416-1.445,2.289,2.289,0,0,1,.127-.868.227.227,0,0,1,.406.2h0a2.549,2.549,0,0,0-.08.679,2.909,2.909,0,0,0,.359,1.209.227.227,0,0,1-.088.309h0A.219.219,0,0,1,62.152,75.768Z" transform="translate(-37.427 -33.063)" fill="#e6cfb8"/>
            </g>
            <path id="Pfad_894" data-name="Pfad 894" d="M76.87,71.641c2.125-.133,2.191,1.477.606,1.49a3.389,3.389,0,0,1-1.039-.154C75.5,72.664,75.255,71.741,76.87,71.641Z" transform="translate(-37.427 -33.063)" fill="#17253d"/>
            <path id="Pfad_895" data-name="Pfad 895" d="M67.56,71.652c2.117-.22,2.25,1.385.667,1.464a3.348,3.348,0,0,1-1.045-.111C66.232,72.731,65.951,71.82,67.56,71.652Z" transform="translate(-37.427 -33.063)" fill="#17253d"/>
          </g>
        </g>
      </g>
    </g>
  </g>
</svg>
