<svg xmlns="http://www.w3.org/2000/svg" viewBox="0 0 75 66">
  <title>C1_deutsch_hover</title>
  <g id="Ebene_2" data-name="Ebene 2">
    <g id="Ebene_1-2" data-name="Ebene 1">
      <g>
        <path id="Rechteck_57-3" data-name="Rechteck 57-3" d="M15,0H60A14.926,14.926,0,0,1,75,14.85v36.3A14.926,14.926,0,0,1,60,66H15A14.926,14.926,0,0,1,0,51.15V14.85A14.926,14.926,0,0,1,15,0Z" fill="#36578a"/>
        <g style="isolation: isolate">
          <path d="M21.478,33.727a5.1,5.1,0,0,1-.344,1.9,4.267,4.267,0,0,1-2.471,2.457,5.286,5.286,0,0,1-1.943.344H13.132v-9.4H16.72a5.205,5.205,0,0,1,1.943.349,4.26,4.26,0,0,1,2.471,2.453A5.1,5.1,0,0,1,21.478,33.727Zm-1.788,0a4.3,4.3,0,0,0-.208-1.387,2.919,2.919,0,0,0-.591-1.04,2.547,2.547,0,0,0-.933-.654,3.2,3.2,0,0,0-1.238-.227H14.894v6.617H16.72a3.2,3.2,0,0,0,1.238-.228,2.569,2.569,0,0,0,.933-.653,2.945,2.945,0,0,0,.591-1.04A4.307,4.307,0,0,0,19.69,33.727Z" fill="#fff"/>
          <path d="M25.839,31.653a3.229,3.229,0,0,1,1.161.2,2.537,2.537,0,0,1,.913.588,2.683,2.683,0,0,1,.6.949,3.584,3.584,0,0,1,.215,1.283,2.27,2.27,0,0,1-.017.3.479.479,0,0,1-.059.189.227.227,0,0,1-.113.1.476.476,0,0,1-.183.03H24.233a2.3,2.3,0,0,0,.553,1.507,1.722,1.722,0,0,0,1.275.482,2.161,2.161,0,0,0,.672-.092,3.1,3.1,0,0,0,.5-.2c.14-.073.263-.141.37-.2a.617.617,0,0,1,.308-.091.357.357,0,0,1,.169.038.384.384,0,0,1,.124.111l.468.585a2.669,2.669,0,0,1-.6.523,3.353,3.353,0,0,1-.691.339,3.85,3.85,0,0,1-.734.178,5.234,5.234,0,0,1-.726.052,3.573,3.573,0,0,1-1.293-.23,2.923,2.923,0,0,1-1.04-.683,3.205,3.205,0,0,1-.7-1.118,4.327,4.327,0,0,1-.254-1.544,3.7,3.7,0,0,1,.22-1.284,3.115,3.115,0,0,1,.634-1.046,2.991,2.991,0,0,1,1.008-.7A3.309,3.309,0,0,1,25.839,31.653Zm.033,1.151a1.484,1.484,0,0,0-1.1.4,1.952,1.952,0,0,0-.506,1.124h3.015a2.009,2.009,0,0,0-.084-.588,1.338,1.338,0,0,0-.26-.484,1.221,1.221,0,0,0-.442-.328A1.494,1.494,0,0,0,25.872,32.8Z" fill="#fff"/>
          <path d="M31.826,31.758V36a1.425,1.425,0,0,0,.282.945,1.048,1.048,0,0,0,.849.335,1.684,1.684,0,0,0,.779-.185,2.734,2.734,0,0,0,.69-.51V31.758h1.6v6.668H35.05a.393.393,0,0,1-.409-.293l-.112-.532a4.43,4.43,0,0,1-.428.38,2.622,2.622,0,0,1-.471.293,2.689,2.689,0,0,1-.54.189,2.728,2.728,0,0,1-.62.067,2.375,2.375,0,0,1-.966-.185,1.929,1.929,0,0,1-.705-.523,2.3,2.3,0,0,1-.433-.8A3.408,3.408,0,0,1,30.221,36V31.758Z" fill="#fff"/>
          <path d="M40.263,38.53a1.756,1.756,0,0,1-1.333-.49,1.886,1.886,0,0,1-.468-1.356V32.96h-.676a.33.33,0,0,1-.224-.084.324.324,0,0,1-.094-.254v-.637l1.072-.176.338-1.819a.329.329,0,0,1,.12-.2.384.384,0,0,1,.237-.072h.832v2.1h1.755V32.96H40.067v3.614a.7.7,0,0,0,.157.487.527.527,0,0,0,.416.176.755.755,0,0,0,.25-.036,1.513,1.513,0,0,0,.175-.074c.05-.027.094-.051.133-.076a.229.229,0,0,1,.117-.035.192.192,0,0,1,.118.035.6.6,0,0,1,.1.108l.481.78a2.448,2.448,0,0,1-.806.442A3.019,3.019,0,0,1,40.263,38.53Z" fill="#fff"/>
          <path d="M47.387,33.057a.437.437,0,0,1-.137.147.355.355,0,0,1-.182.042.582.582,0,0,1-.251-.065c-.088-.044-.191-.092-.308-.146a2.671,2.671,0,0,0-.4-.147,1.928,1.928,0,0,0-.53-.064,1.231,1.231,0,0,0-.747.2.625.625,0,0,0-.273.526.5.5,0,0,0,.14.361,1.265,1.265,0,0,0,.37.257,3.62,3.62,0,0,0,.524.2c.194.058.394.123.6.192a6.361,6.361,0,0,1,.6.238,2.08,2.08,0,0,1,.524.337,1.484,1.484,0,0,1,.51,1.18,2.2,2.2,0,0,1-.176.887,1.95,1.95,0,0,1-.513.7,2.411,2.411,0,0,1-.835.462,3.618,3.618,0,0,1-1.141.165,3.655,3.655,0,0,1-.673-.062,4.056,4.056,0,0,1-.63-.171,3.642,3.642,0,0,1-.559-.26,2.742,2.742,0,0,1-.452-.325l.371-.612a.515.515,0,0,1,.169-.169.47.47,0,0,1,.247-.058.514.514,0,0,1,.282.085c.089.055.192.117.309.181a2.64,2.64,0,0,0,.413.182,1.794,1.794,0,0,0,.6.085,1.577,1.577,0,0,0,.491-.068,1.014,1.014,0,0,0,.337-.179.663.663,0,0,0,.2-.257.772.772,0,0,0,.061-.3.541.541,0,0,0-.139-.384,1.227,1.227,0,0,0-.37-.259,3.707,3.707,0,0,0-.527-.2c-.2-.058-.4-.123-.6-.192a5.455,5.455,0,0,1-.6-.243,2.093,2.093,0,0,1-.527-.355,1.6,1.6,0,0,1-.37-.526,1.839,1.839,0,0,1-.14-.754,1.926,1.926,0,0,1,.162-.78,1.83,1.83,0,0,1,.479-.647,2.354,2.354,0,0,1,.786-.442,3.288,3.288,0,0,1,1.089-.166,3.325,3.325,0,0,1,1.254.228,2.838,2.838,0,0,1,.943.6Z" fill="#fff"/>
          <path d="M54.12,33.168a.83.83,0,0,1-.14.143.323.323,0,0,1-.2.052.44.44,0,0,1-.24-.075c-.078-.05-.171-.106-.279-.169a2.128,2.128,0,0,0-.387-.169,1.774,1.774,0,0,0-.556-.074,1.691,1.691,0,0,0-.741.152,1.417,1.417,0,0,0-.53.438,1.981,1.981,0,0,0-.315.693,3.738,3.738,0,0,0-.1.92,3.6,3.6,0,0,0,.114.949,2.008,2.008,0,0,0,.328.7,1.421,1.421,0,0,0,.52.43,1.569,1.569,0,0,0,.689.146,1.724,1.724,0,0,0,.62-.094A1.967,1.967,0,0,0,53.3,37c.108-.076.2-.146.282-.208a.425.425,0,0,1,.27-.094.326.326,0,0,1,.292.149l.462.585a2.89,2.89,0,0,1-.579.523,3.173,3.173,0,0,1-.646.339,3.343,3.343,0,0,1-.693.178,4.863,4.863,0,0,1-.709.052,2.976,2.976,0,0,1-1.163-.23,2.741,2.741,0,0,1-.952-.673,3.247,3.247,0,0,1-.643-1.083,4.161,4.161,0,0,1-.238-1.459,4.268,4.268,0,0,1,.211-1.362,3.107,3.107,0,0,1,.621-1.085,2.853,2.853,0,0,1,1.014-.718,3.484,3.484,0,0,1,1.392-.261,3.313,3.313,0,0,1,1.309.241,3.194,3.194,0,0,1,1.011.689Z" fill="#fff"/>
          <path d="M55.96,38.426V28.767h1.6v3.712a3.406,3.406,0,0,1,.858-.6,2.484,2.484,0,0,1,1.1-.228,2.4,2.4,0,0,1,.969.186,1.91,1.91,0,0,1,.7.52,2.282,2.282,0,0,1,.43.8,3.415,3.415,0,0,1,.146,1.024v4.244H60.165V34.182a1.43,1.43,0,0,0-.282-.946,1.051,1.051,0,0,0-.849-.335,1.682,1.682,0,0,0-.78.189,2.812,2.812,0,0,0-.689.513v4.823Z" fill="#fff"/>
        </g>
      </g>
    </g>
  </g>
</svg>
