<svg xmlns="http://www.w3.org/2000/svg" viewBox="0 0 75 66">
  <title>C1_kunst</title>
  <g id="Ebene_2" data-name="Ebene 2">
    <g id="Ebene_1-2" data-name="Ebene 1">
      <g>
        <path id="Rechteck_57-3" data-name="Rechteck 57-3" d="M15,0H60A14.926,14.926,0,0,1,75,14.85v36.3A14.926,14.926,0,0,1,60,66H15A14.926,14.926,0,0,1,0,51.15V14.85A14.926,14.926,0,0,1,15,0Z" fill="#48679a"/>
        <g style="isolation: isolate">
          <path d="M22.16,32.967h.41a1.072,1.072,0,0,0,.409-.068.717.717,0,0,0,.279-.219L25.852,29.4a.914.914,0,0,1,.341-.289,1.081,1.081,0,0,1,.452-.082h1.508l-3.165,3.906a3.248,3.248,0,0,1-.286.306,1.356,1.356,0,0,1-.293.2,1.241,1.241,0,0,1,.386.22,2.021,2.021,0,0,1,.335.364l3.263,4.4H26.846a.958.958,0,0,1-.465-.088.721.721,0,0,1-.256-.256l-2.659-3.47a.768.768,0,0,0-.292-.245,1.134,1.134,0,0,0-.462-.074H22.16v4.133H20.412v-9.4H22.16Z" fill="#fff"/>
          <path d="M31.13,31.758V36a1.423,1.423,0,0,0,.283.946,1.05,1.05,0,0,0,.848.334,1.677,1.677,0,0,0,.78-.186,2.706,2.706,0,0,0,.689-.51V31.758h1.605v6.668h-.981a.394.394,0,0,1-.409-.293l-.112-.531a4.555,4.555,0,0,1-.428.379,2.622,2.622,0,0,1-.471.293,2.752,2.752,0,0,1-.54.189,2.717,2.717,0,0,1-.62.066,2.378,2.378,0,0,1-.966-.183,1.954,1.954,0,0,1-.7-.524,2.33,2.33,0,0,1-.433-.8A3.429,3.429,0,0,1,29.525,36V31.758Z" fill="#fff"/>
          <path d="M37.376,38.426V31.758h.982a.394.394,0,0,1,.409.291l.11.527A3.963,3.963,0,0,1,39.3,32.2a2.947,2.947,0,0,1,.475-.293,2.427,2.427,0,0,1,.536-.187,2.838,2.838,0,0,1,.624-.066,2.4,2.4,0,0,1,.969.185,1.923,1.923,0,0,1,.705.522,2.285,2.285,0,0,1,.43.8,3.452,3.452,0,0,1,.145,1.024v4.244h-1.6V34.182a1.42,1.42,0,0,0-.283-.945,1.048,1.048,0,0,0-.848-.336,1.686,1.686,0,0,0-.781.189,2.787,2.787,0,0,0-.688.514v4.822Z" fill="#fff"/>
          <path d="M49.05,33.057a.421.421,0,0,1-.135.146.34.34,0,0,1-.183.043.575.575,0,0,1-.25-.064c-.089-.045-.191-.094-.309-.147a2.79,2.79,0,0,0-.4-.146,1.922,1.922,0,0,0-.529-.065,1.225,1.225,0,0,0-.747.2.618.618,0,0,0-.274.525.5.5,0,0,0,.14.361,1.222,1.222,0,0,0,.37.256,3.576,3.576,0,0,0,.523.2c.2.059.4.123.6.192s.4.148.6.238a2.05,2.05,0,0,1,.523.338,1.578,1.578,0,0,1,.37.49,1.55,1.55,0,0,1,.14.69,2.227,2.227,0,0,1-.175.886,1.953,1.953,0,0,1-.514.7,2.414,2.414,0,0,1-.836.462,3.952,3.952,0,0,1-1.813.1,4.109,4.109,0,0,1-.63-.172,3.514,3.514,0,0,1-.56-.26,2.72,2.72,0,0,1-.451-.326l.37-.611a.551.551,0,0,1,.169-.168.478.478,0,0,1,.247-.059.525.525,0,0,1,.284.084c.089.057.191.117.308.182a2.512,2.512,0,0,0,.413.182,1.824,1.824,0,0,0,.6.085,1.582,1.582,0,0,0,.491-.068,1,1,0,0,0,.338-.18.664.664,0,0,0,.2-.255.782.782,0,0,0,.062-.3.539.539,0,0,0-.14-.383,1.2,1.2,0,0,0-.371-.26,3.559,3.559,0,0,0-.526-.2c-.2-.059-.4-.123-.6-.191a5.739,5.739,0,0,1-.6-.245,2.06,2.06,0,0,1-.527-.353,1.589,1.589,0,0,1-.37-.527,1.835,1.835,0,0,1-.14-.754,1.9,1.9,0,0,1,.163-.78,1.813,1.813,0,0,1,.477-.646,2.358,2.358,0,0,1,.786-.443,3.608,3.608,0,0,1,2.344.062,2.854,2.854,0,0,1,.943.6Z" fill="#fff"/>
          <path d="M53.289,38.529a1.751,1.751,0,0,1-1.333-.49,1.882,1.882,0,0,1-.468-1.355V32.959h-.676a.306.306,0,0,1-.318-.338v-.636l1.072-.176L51.9,29.99a.325.325,0,0,1,.12-.2.387.387,0,0,1,.237-.07h.832v2.1h1.755v1.142H53.093v3.615a.7.7,0,0,0,.157.487.527.527,0,0,0,.416.176.755.755,0,0,0,.25-.036,1.229,1.229,0,0,0,.175-.074c.05-.027.094-.051.133-.076a.229.229,0,0,1,.117-.035.187.187,0,0,1,.117.035.621.621,0,0,1,.1.107l.481.782a2.464,2.464,0,0,1-.806.441A2.989,2.989,0,0,1,53.289,38.529Z" fill="#fff"/>
        </g>
      </g>
    </g>
  </g>
</svg>
