<svg xmlns="http://www.w3.org/2000/svg" viewBox="0 0 75 66">
  <title>C1_kunst_hover</title>
  <g id="Ebene_2" data-name="Ebene 2">
    <g id="Ebene_1-2" data-name="Ebene 1">
      <g>
        <path id="Rechteck_57-3" data-name="Rechteck 57-3" d="M15,0H60A14.926,14.926,0,0,1,75,14.85v36.3A14.926,14.926,0,0,1,60,66H15A14.926,14.926,0,0,1,0,51.15V14.85A14.926,14.926,0,0,1,15,0Z" fill="#36578a"/>
        <g style="isolation: isolate">
          <path d="M22.16,32.966h.41a1.053,1.053,0,0,0,.409-.068.7.7,0,0,0,.279-.218L25.852,29.4a.934.934,0,0,1,.341-.289,1.081,1.081,0,0,1,.452-.082h1.508l-3.165,3.907a3.128,3.128,0,0,1-.286.306,1.317,1.317,0,0,1-.293.2,1.285,1.285,0,0,1,.386.221,2.021,2.021,0,0,1,.335.364l3.263,4.4H26.846a.971.971,0,0,1-.465-.087.732.732,0,0,1-.256-.257l-2.659-3.471a.793.793,0,0,0-.292-.244,1.134,1.134,0,0,0-.462-.074H22.16v4.133H20.412V29.021H22.16Z" fill="#fff"/>
          <path d="M31.13,31.758V36a1.42,1.42,0,0,0,.283.945,1.044,1.044,0,0,0,.848.335,1.688,1.688,0,0,0,.78-.185,2.729,2.729,0,0,0,.689-.51V31.758h1.605v6.668h-.981a.393.393,0,0,1-.409-.293l-.112-.532a4.43,4.43,0,0,1-.428.38,2.622,2.622,0,0,1-.471.293,2.616,2.616,0,0,1-1.16.256,2.378,2.378,0,0,1-.966-.185,1.929,1.929,0,0,1-.7-.523,2.317,2.317,0,0,1-.433-.8A3.408,3.408,0,0,1,29.525,36V31.758Z" fill="#fff"/>
          <path d="M37.376,38.426V31.758h.982a.393.393,0,0,1,.409.292l.11.527A3.662,3.662,0,0,1,39.3,32.2a2.947,2.947,0,0,1,.475-.293,2.431,2.431,0,0,1,.536-.189,2.839,2.839,0,0,1,.624-.065,2.4,2.4,0,0,1,.969.186,1.919,1.919,0,0,1,.705.52,2.3,2.3,0,0,1,.43.8,3.447,3.447,0,0,1,.145,1.024v4.244h-1.6V34.182a1.424,1.424,0,0,0-.283-.946,1.047,1.047,0,0,0-.848-.335,1.686,1.686,0,0,0-.781.189,2.807,2.807,0,0,0-.688.513v4.823Z" fill="#fff"/>
          <path d="M49.05,33.057a.444.444,0,0,1-.135.147.359.359,0,0,1-.183.042.578.578,0,0,1-.25-.065c-.089-.044-.191-.092-.309-.146a2.671,2.671,0,0,0-.4-.147,1.925,1.925,0,0,0-.529-.064,1.225,1.225,0,0,0-.747.2.623.623,0,0,0-.274.526.5.5,0,0,0,.14.361,1.279,1.279,0,0,0,.37.257,3.7,3.7,0,0,0,.523.2c.2.058.4.123.6.192s.4.149.6.238a2.074,2.074,0,0,1,.523.337,1.582,1.582,0,0,1,.37.491,1.548,1.548,0,0,1,.14.689,2.232,2.232,0,0,1-.175.887,1.953,1.953,0,0,1-.514.7,2.4,2.4,0,0,1-.836.462,3.89,3.89,0,0,1-1.813.1,4,4,0,0,1-.63-.171,3.7,3.7,0,0,1-.56-.26,2.775,2.775,0,0,1-.451-.325l.37-.612a.544.544,0,0,1,.169-.169.478.478,0,0,1,.247-.058.518.518,0,0,1,.284.085c.089.055.191.117.308.181a2.6,2.6,0,0,0,.413.182,1.8,1.8,0,0,0,.6.085,1.582,1.582,0,0,0,.491-.068,1.02,1.02,0,0,0,.338-.179.67.67,0,0,0,.2-.257.774.774,0,0,0,.062-.3.542.542,0,0,0-.14-.384,1.232,1.232,0,0,0-.371-.259,3.559,3.559,0,0,0-.526-.2c-.2-.058-.4-.123-.6-.192a5.519,5.519,0,0,1-.6-.243,2.093,2.093,0,0,1-.527-.355,1.585,1.585,0,0,1-.37-.526,1.839,1.839,0,0,1-.14-.754,1.911,1.911,0,0,1,.163-.78,1.825,1.825,0,0,1,.477-.647,2.374,2.374,0,0,1,.786-.442,3.608,3.608,0,0,1,2.344.062,2.838,2.838,0,0,1,.943.6Z" fill="#fff"/>
          <path d="M53.289,38.53a1.755,1.755,0,0,1-1.333-.49,1.886,1.886,0,0,1-.468-1.356V32.96h-.676a.334.334,0,0,1-.225-.084.327.327,0,0,1-.093-.254v-.637l1.072-.176L51.9,29.99a.32.32,0,0,1,.12-.2.382.382,0,0,1,.237-.072h.832v2.1h1.755V32.96H53.093v3.614a.7.7,0,0,0,.157.487.527.527,0,0,0,.416.176.755.755,0,0,0,.25-.036,1.513,1.513,0,0,0,.175-.074c.05-.027.094-.051.133-.076a.229.229,0,0,1,.117-.035.187.187,0,0,1,.117.035.564.564,0,0,1,.1.108l.481.78a2.448,2.448,0,0,1-.806.442A3.019,3.019,0,0,1,53.289,38.53Z" fill="#fff"/>
        </g>
      </g>
    </g>
  </g>
</svg>
