<svg xmlns="http://www.w3.org/2000/svg" viewBox="0 0 792 1716">
  <title>kunst</title>
  <g id="Ebene_2" data-name="Ebene 2">
    <g id="Ebene_1-2" data-name="Ebene 1">
      <rect width="792" height="1716" fill="#fff"/>
      <g>
        <ellipse cx="440.159" cy="469.594" rx="34.667" ry="6.406" fill="#eff4fc"/>
        <path d="M398.976,247.764s3.792-.948,3.792,6.163.949,119.475.949,119.475,1.422,7.111-6.638,7.111H324.541a4.709,4.709,0,0,1-3.638-.083c-2.829-1.431-2.937-6.415-3-7.976-1.757-44.344-2.635-66.515-2.845-117.1,0-.88-.073-3.891,1.9-5.69a6.169,6.169,0,0,1,3.793-1.422C325.028,247.927,356.343,247.736,398.976,247.764Z" fill="#e6eaf5"/>
        <path d="M320.274,298.493c.192-6.478,1.167-8.54,1.423-13.749a49.529,49.529,0,0,0-1.423-14.223l.948-7.586c-.215-1.462-1.215-8.655.949-9.482.381-.146.97-.135,1.9.474a4.658,4.658,0,0,0,2.371.949,5.3,5.3,0,0,0,4.267-1.9,37.77,37.77,0,0,1,11.378.474c3.512.7,5.79,1.715,9.956,1.9a29.239,29.239,0,0,0,6.638-.474,107.6,107.6,0,0,0,10.9-.949c3.448-.48,6.383-1.068,7.586.475a3.179,3.179,0,0,1,.474,2.37,2.159,2.159,0,0,0,1.422-.948c.4-.756-.126-1.428,0-1.9.632-2.343,17.989-.808,18.016,1.423,0,.367-.463.52-.948.948-2.964,2.612-.383,9.973.474,12.8,2.346,7.743-.77,6.156.948,25.6.631,7.144,1.716,14.87.474,15.172-.618.15-1.7-1.569-1.9-1.423s1.136,1.522.948,2.371c-.473,2.14-10.654,1.2-23.231.948a234.668,234.668,0,0,0-26.55.474c-1.482.126-4.014.36-7.585.474-10.305.331-15.509.438-18.016-2.37C319.98,308.423,320.078,305.113,320.274,298.493Z" fill="#7f9cc4"/>
        <path d="M322.171,320.776s-1.9-5.452,5.452-5.452,12.09-.237,12.09-.237,12.9-.424,13.749,0c.948.474,12.326.948,12.326.948h3.319c.8.017,2.137.036,3.793,0a112.791,112.791,0,0,0,14.223-.948c2.151-.3,3.478-.575,5.215,0a7.864,7.864,0,0,1,4.02,3.058,8,8,0,0,1,1.195,4.054c.186,3.558.422,11.4.474,21.808a51.482,51.482,0,0,1,.475,8.06c-.123,6.226-1.257,6.227-.949,10.43.38,5.175,2.035,8.4.328,10.769a1.857,1.857,0,0,1-.8.61c-3.319,1.422-10.9,1.9-14.7,1.422a218.009,218.009,0,0,0-26.076-.474c-8.378.493-13.195,1.386-21.809,0a65.668,65.668,0,0,1-6.637-1.422c-1.932-.218-3.339-.822-3.793-1.422a1.894,1.894,0,0,1-.441-1.262,1.41,1.41,0,0,1,.053-.189,6.673,6.673,0,0,0-.086-2.342c-.371-1.445-.606-2.078-.948-3.319-.135-.489-.311-1.129-.474-1.9a22.573,22.573,0,0,1-.474-3.319c-.149-3.8,3.243-6.18,2.37-8.06-.048-.1-.348-.7-.948-1.9-.466-.928-.461-.913-.474-.949-.478-1.3.324-2.237.474-3.792a7.152,7.152,0,0,0-.474-2.845,30.982,30.982,0,0,1-.948-9.008c.275-3.52,1.421-3.8,1.422-7.112A15.156,15.156,0,0,0,322.171,320.776Z" fill="#345282"/>
        <path d="M615,427.776c-272.91-.567-467.349-.771-468,.635-.5,1.081,113.335,3.475,468,8.387Z" fill="#eff4fc"/>
        <g>
          <g>
            <g>
              <path d="M431.245,471.579a35.3,35.3,0,0,0,7.809,1.218,6.253,6.253,0,0,0,2.426-.06,2.185,2.185,0,0,0,1.176-.7c.426-.491.277-1.508.185-2.487a13.238,13.238,0,0,0-.268-1.579,2.8,2.8,0,0,0-.313-1.3,1.327,1.327,0,0,0-1.478-.587,2.672,2.672,0,0,0-1.6.548c-.694.611-1.266,1.116-2.4.619-.909-.4-.349-1.9-1.267-1.638a6.279,6.279,0,0,1-3.817,1.564,2.565,2.565,0,0,0-1.782,1.329,1.93,1.93,0,0,0-.117,1.455A1.8,1.8,0,0,0,431.245,471.579Z" fill="#a5b3c9"/>
              <path d="M430.645,471.318a1.173,1.173,0,0,0,.386.141c.714.131.653-.544,1.524-.879a8.88,8.88,0,0,1,2.786-.18c3.689.58,5.4.3,5.113-1.567-.059-.389-.1-1.465-.959-1.49-.455-.013-.911.641-1.944.582a1.731,1.731,0,0,1-1.457-.643,4.316,4.316,0,0,1-.466-1.144.463.463,0,0,0-.508-.2c.236-.153.316-.322.459-.339.863-.1.287,1.261,1.2,1.66,1.136.5,1.714,0,2.4-.619a2.722,2.722,0,0,1,1.342-.514c1.265-.194,1.448.147,1.741.553a2.639,2.639,0,0,1,.313,1.3,13.238,13.238,0,0,1,.268,1.579,10.006,10.006,0,0,1,.016,2.518c-.146.468-.892.833-2.27.789-.032,0-.649.009-1.533-.065a34.34,34.34,0,0,1-7.809-1.218,3.013,3.013,0,0,1-.6-.261Z" fill="#8e9aad"/>
              <path d="M431.082,470.132a41.2,41.2,0,0,0,8.275,1.026,6.988,6.988,0,0,0,2-.017c1-.168,1.359-.3,1.568-.618a4.073,4.073,0,0,1-.141,1.6c-.13.275-.3.4-1.106.642a9.779,9.779,0,0,1-2.622-.045,35,35,0,0,1-7.809-1.218c-1.143-.368-1.353-.821-1.447-1.524a6.4,6.4,0,0,1-.067-.656A2.192,2.192,0,0,0,431.082,470.132Z" fill="#2c3149" opacity="0.3"/>
              <g>
                <path d="M435.029,465.881c.1-.013.17.034.14.14a2.4,2.4,0,0,0-.053.874.21.21,0,0,1-.136.231l-.017,0a.179.179,0,0,1-.21-.159,1.707,1.707,0,0,1,.021-.83A.354.354,0,0,1,435.029,465.881Z" fill="#8e9aad"/>
                <path d="M434.066,466.441c.054-.191.212-.263.3-.2s.088.119.044.241a2.249,2.249,0,0,0-.123.6c-.031.171-.077.234-.167.237H434.1c-.1-.007-.172-.125-.169-.263A3.042,3.042,0,0,1,434.066,466.441Z" fill="#8e9aad"/>
                <path d="M433.434,466.644c.059-.109.214-.157.276-.073s.06.117,0,.226a2.243,2.243,0,0,0-.161.432c-.031.118-.109.19-.182.174a.109.109,0,0,1-.023-.009.279.279,0,0,1-.081-.31A1.631,1.631,0,0,1,433.434,466.644Z" fill="#8e9aad"/>
                <path d="M432.69,467.035c.1-.175.23-.3.358-.251.063.025.079.112,0,.189a1.1,1.1,0,0,0-.129.214c-.053.112-.141.166-.209.136a.11.11,0,0,1-.031-.022C432.613,467.234,432.618,467.16,432.69,467.035Z" fill="#8e9aad"/>
              </g>
            </g>
            <g>
              <path d="M465.743,471.579a34.156,34.156,0,0,1-7.809,1.218,6.959,6.959,0,0,1-2.426-.06,2.185,2.185,0,0,1-1.176-.7c-.426-.491-.277-1.508-.185-2.487a13.238,13.238,0,0,1,.268-1.579,2.787,2.787,0,0,1,.313-1.3,1.327,1.327,0,0,1,1.478-.587,2.672,2.672,0,0,1,1.6.548c.694.611,1.266,1.116,2.4.619.909-.4.348-1.9,1.267-1.638a6.279,6.279,0,0,0,3.817,1.564,2.565,2.565,0,0,1,1.782,1.329,1.934,1.934,0,0,1,.117,1.455A1.8,1.8,0,0,1,465.743,471.579Z" fill="#a5b3c9"/>
              <path d="M466.343,471.318a1.173,1.173,0,0,1-.386.141c-.714.131-.653-.544-1.524-.879a8.884,8.884,0,0,0-2.787-.18c-3.689.58-5.4.3-5.112-1.567.059-.389.1-1.465.959-1.49.455-.013.911.641,1.944.582a1.731,1.731,0,0,0,1.457-.643,4.316,4.316,0,0,0,.466-1.144.462.462,0,0,1,.508-.2c-.236-.153-.316-.322-.46-.339-.862-.1-.286,1.261-1.195,1.66-1.136.5-1.714,0-2.4-.619a2.722,2.722,0,0,0-1.342-.514c-1.265-.194-1.448.147-1.741.553a2.628,2.628,0,0,0-.313,1.3,13.238,13.238,0,0,0-.268,1.579,8.822,8.822,0,0,0,.1,2.62c.1.322.863.719,1.8.719.032,0,.86-.064,1.891-.1a31.964,31.964,0,0,0,7.809-1.218,3.013,3.013,0,0,0,.6-.261Z" fill="#8e9aad"/>
              <path d="M465.906,470.132a40.377,40.377,0,0,1-8.275,1.026,9.023,9.023,0,0,1-2.074,0c-1-.168-1.283-.318-1.492-.635a4.073,4.073,0,0,0,.141,1.6c.13.275.3.4,1.106.642a7.868,7.868,0,0,0,2.568.008,35.594,35.594,0,0,0,7.863-1.271c1.143-.368,1.353-.821,1.447-1.524a6.4,6.4,0,0,0,.067-.656A2.192,2.192,0,0,1,465.906,470.132Z" fill="#2c3149" opacity="0.3"/>
              <g>
                <path d="M461.959,465.881c-.1-.013-.171.034-.14.14a2.4,2.4,0,0,1,.053.874.21.21,0,0,0,.135.231l.017,0a.179.179,0,0,0,.211-.159,1.707,1.707,0,0,0-.021-.83A.354.354,0,0,0,461.959,465.881Z" fill="#8e9aad"/>
                <path d="M462.922,466.441c-.054-.191-.212-.263-.3-.2s-.088.119-.044.241a2.249,2.249,0,0,1,.123.6c.031.171.077.234.167.237h.013c.1-.007.171-.125.168-.263A2.892,2.892,0,0,0,462.922,466.441Z" fill="#8e9aad"/>
                <path d="M463.554,466.644c-.06-.109-.214-.157-.276-.073s-.06.117,0,.226a2.243,2.243,0,0,1,.161.432c.031.118.109.19.181.174a.117.117,0,0,0,.024-.009.279.279,0,0,0,.081-.31A1.67,1.67,0,0,0,463.554,466.644Z" fill="#8e9aad"/>
                <path d="M464.3,467.035c-.1-.175-.231-.3-.358-.251-.064.025-.079.112,0,.189a1.207,1.207,0,0,1,.129.214c.053.112.141.166.209.136a.126.126,0,0,0,.031-.022C464.375,467.234,464.37,467.16,464.3,467.035Z" fill="#8e9aad"/>
              </g>
            </g>
          </g>
          <g>
            <path d="M461,348.179a3.889,3.889,0,0,1,.153-.375A12.6,12.6,0,0,1,460,347.29c.012-.023.023-.046.035-.071a7.074,7.074,0,0,1-.761-.309c-.813-.446-1.14-.745-2.06-1.222a15.624,15.624,0,0,1-2.952-1.823,7.219,7.219,0,0,1-.621-3.528c.305-.925,1-2.872,1-2.872a.511.511,0,0,0,.381.17c.615-.023.587-.631.794-1.053a3.9,3.9,0,0,0,.66-2.085c0-1.4.26-2.459-1.049-1.326,0,0-.058-3.52-.095-4.946-.039-1.539-.117-4.294-4.517-5.644a11.1,11.1,0,0,0-2.395-.256,9.776,9.776,0,0,0-2.185.256,7.4,7.4,0,0,0-2.886,1.662,5.272,5.272,0,0,0-1.682,3.982c-.036,1.426-.07,4.946-.069,4.946-1.35-1.136-1.072.145-1.072,1.541,0,1.023.4,1.237.71,1.87.207.422.2,1.03.818,1.053a.513.513,0,0,0,.381-.17s.591,1.71.933,2.682a6.6,6.6,0,0,1-.557,3.718,24.632,24.632,0,0,1-3.035,1.823c-.967.513-1.274.776-2.087,1.222a7.244,7.244,0,0,1-.761.309c.012.025.023.048.035.071a12.491,12.491,0,0,1-1.158.514,4.4,4.4,0,0,1,.172.422c-.165.072-.325.278-.479.336a30.59,30.59,0,0,0,2.5,5.76,14.643,14.643,0,0,0,1.915,2.4,8.6,8.6,0,0,0,2.549,1.753,10.422,10.422,0,0,0,3.563.814,126.869,126.869,0,0,1,5.037,0,10.433,10.433,0,0,0,3.564-.814,8.61,8.61,0,0,0,2.549-1.753,14.691,14.691,0,0,0,1.914-2.4,30.519,30.519,0,0,0,2.5-5.76C461.4,348.492,461.206,348.27,461,348.179Z" fill="#fff0e2"/>
            <g>
              <path d="M442.494,336.491a4.88,4.88,0,0,1,.047,1.277c.185.535.574,1.659.828,2.379a8.644,8.644,0,0,1-.28,3.165l1.308-.133a11.426,11.426,0,0,0,.4-4.3C444.632,337.044,442.427,336.114,442.494,336.491Z" fill="#e0b8b5"/>
              <path d="M454.588,336.491a4.924,4.924,0,0,0-.046,1.277c-.185.535-.575,1.659-.828,2.379a8.624,8.624,0,0,0,.279,3.165l-1.256-.133a11.415,11.415,0,0,1-.4-4.3C452.5,337.044,454.655,336.114,454.588,336.491Z" fill="#e0b8b5"/>
            </g>
            <g>
              <path d="M442.984,338.984c-.089-.264-.336-1.517-.341-1.525a27.445,27.445,0,0,0-1.131-4.3.918.918,0,0,0-.406-.334,3.785,3.785,0,0,0,1.058,4.027.617.617,0,0,1,.272.612C442.583,337.7,442.862,338.674,442.984,338.984Zm-1.52-5.682a20.878,20.878,0,0,0,.593,2.892A1.96,1.96,0,0,1,441.464,333.3Z" fill="#e0b8b5"/>
              <path d="M454.636,337.405a.618.618,0,0,1,.272-.613,3.782,3.782,0,0,0,1.058-4.027.918.918,0,0,0-.406.334,27.36,27.36,0,0,0-1.13,4.3c0,.009-.253,1.262-.341,1.525C454.21,338.613,454.489,337.638,454.636,337.405Zm.379-1.272a20.749,20.749,0,0,0,.593-2.891A1.959,1.959,0,0,1,455.015,336.133Z" fill="#e0b8b5"/>
            </g>
            <path d="M438,354.322a14.643,14.643,0,0,0,1.915,2.4,8.6,8.6,0,0,0,2.549,1.753,10.422,10.422,0,0,0,3.563.814,126.869,126.869,0,0,1,5.037,0,10.433,10.433,0,0,0,3.564-.814,8.61,8.61,0,0,0,2.549-1.753,14.691,14.691,0,0,0,1.914-2.4,30.519,30.519,0,0,0,2.5-5.76c-.187-.07-.382-.292-.584-.383a3.889,3.889,0,0,1,.153-.375A12.6,12.6,0,0,1,460,347.29c.012-.023.023-.046.035-.071a7.074,7.074,0,0,1-.761-.309c-.813-.446-1.14-.745-2.06-1.222a15.624,15.624,0,0,1-2.952-1.823,3.2,3.2,0,0,1-.25-.537,23.663,23.663,0,0,0-5.535-.619,24.583,24.583,0,0,0-4.566.411c-.281.054-.554.113-.816.176a2.561,2.561,0,0,1-.283.569,24.632,24.632,0,0,1-3.035,1.823c-.967.513-1.274.776-2.087,1.222a7.244,7.244,0,0,1-.761.309c.012.025.023.048.035.071a12.491,12.491,0,0,1-1.158.514,4.4,4.4,0,0,1,.172.422c-.165.072-.325.278-.479.336A30.59,30.59,0,0,0,438,354.322Z" fill="#e0b8b5"/>
          </g>
          <path d="M456.7,326.788l.761.5a5.639,5.639,0,0,0-1.611-2.906c-1.271-1.11-1.567-.7-1.646-.878a4.461,4.461,0,0,1-.038-1.51l-1.695,1.207-.013-.007,1.708-1.585a3.284,3.284,0,0,0-2.373.119c-.974.374-1.081-.121-2.2-.238a4.173,4.173,0,0,0-2.685.519,3.8,3.8,0,0,1,1.337-.548c.645-.119,1.583-.267,1.583-.267a4.932,4.932,0,0,0-4.731.375,10.121,10.121,0,0,0-1.221,1.418,2.384,2.384,0,0,0-1.96.549,6.455,6.455,0,0,0-1.963,3.41l1.311-.742a3.492,3.492,0,0,0-.872.989,5.88,5.88,0,0,0-.206,2.968l.348-.469.052,3.116.741.168.488,1c.139.461.319,1.155.557,2.21a8.107,8.107,0,0,0,1.36,1.868,5.477,5.477,0,0,0,1.57,1.312,11.977,11.977,0,0,0,6.426,0,7.339,7.339,0,0,0,1.678-1.312,7.11,7.11,0,0,0,1.269-1.868,27.769,27.769,0,0,1,.8-3.047l.891-.562.27-3.618.331.947a2.934,2.934,0,0,0,.124-2.09A4.309,4.309,0,0,0,456.7,326.788Zm-9.791-4.774h0Z" fill="#28497c"/>
          <g>
            <path d="M463.958,403.481a56.146,56.146,0,0,0-.517-7.727c-.225-1.649-.559-2.834-1.007-5.06a.131.131,0,0,0-.039-.064c-.591-.188-6.543.055-13.36.055h-.646c-6.817,0-13.111-.254-13.757-.055a.122.122,0,0,0-.04.064c-.447,2.226-.749,3.411-.973,5.06a56.129,56.129,0,0,0-.518,7.727c-.013,1.069-.01,2.966,0,4.126-.015,1.958-.017,4.572.014,9.623,0,2.082.588,8.321.651,12.687.062,4.3-.7,10.493-.5,15.169.084,2.048.024,6.812.074,8.812-.028,2-.1,4.057-.055,5.615.015.465-.227,1.93-.218,2.372a3.36,3.36,0,0,0,.307,1.178,3.487,3.487,0,0,1,.3,1.617c.018.659-.354.823-.375,1.12-.038.545.492.934.7,1.293a5.677,5.677,0,0,0,3.07,1.662,16.779,16.779,0,0,0,2.187.273c3.624-.031,3.619-1.017,3.7-1.324a10.634,10.634,0,0,1,.55-1.485,2.49,2.49,0,0,0,.2-1.246,10.615,10.615,0,0,1-.331-1.5c-.054-.651.489-.555.516-1.544.037-1.353-.213-4.717-.129-6.347.135-2.618.423-12.331.432-13.2a80.031,80.031,0,0,1,.857-9.9c.2-1.464.243-5.235,1.081-12.42.092-.8,1.553-11.5,1.553-11.5h1.668l.024.093s1.384,10.644,1.472,11.4c.838,7.185.962,10.956,1.165,12.42a81.353,81.353,0,0,1,.829,9.9c.035,3.3.212,9.4.377,13.2-.017,1.632-.166,4.993-.129,6.347.028.989.57.893.516,1.544a10.478,10.478,0,0,1-.331,1.5,2.513,2.513,0,0,0,.205,1.246,10.521,10.521,0,0,1,.551,1.485c.082.307.077,1.293,3.7,1.324a16.779,16.779,0,0,0,2.187-.273,5.68,5.68,0,0,0,3.07-1.661c.212-.36.743-.749.7-1.294-.021-.3-.393-.461-.374-1.12a3.492,3.492,0,0,1,.3-1.617,3.36,3.36,0,0,0,.307-1.178c.009-.442-.233-1.907-.218-2.372.05-1.558-.026-3.611-.054-5.615.073-2.405.13-6.794.128-8.812,0-4.68-.567-10.872-.5-15.169.063-4.366.651-10.6.651-12.687.031-5.051.029-7.665.015-9.623C463.968,406.447,463.971,404.551,463.958,403.481Z" fill="#2d4466"/>
            <g>
              <g>
                <g>
                  <path d="M462.242,465.737c.2-.083,1.058-.566,1.423-.08,0,0-.03-.062-.2-.371a3.1,3.1,0,0,1,.166-2.223s-1.938,3.2-7.112,3.271A11.2,11.2,0,0,0,462.242,465.737Z" fill="#1c2d47"/>
                  <path d="M453.545,464.035s1.1,1.13,4.114.888a6.579,6.579,0,0,1-4.449-2.41s.063.137.26.506A1.368,1.368,0,0,1,453.545,464.035Z" fill="#1c2d47"/>
                  <path d="M461.323,467.067a12.757,12.757,0,0,1-5.814-.156c-1.866-.429-2.056-.816-2.069-.849a2.248,2.248,0,0,0,.131.353c.157.308.436,1.153.436,1.153-.034-.282.165-.41.5-.318a15.062,15.062,0,0,0,3.46.655,13.106,13.106,0,0,0,3.8-.437,5.825,5.825,0,0,1-1.771.66,13.194,13.194,0,0,1-3.412.278c-.818-.061-2.445-.3-2.574-.838a1.6,1.6,0,0,0,.257.69c.341.483,2.027.732,2.374.762a9.1,9.1,0,0,0,5.3-1.051,4.145,4.145,0,0,0,1.078-.893,7.588,7.588,0,0,0,.633-.9A4.484,4.484,0,0,1,461.323,467.067Z" fill="#1c2d47"/>
                  <path d="M453.44,466.062v0Z" fill="#1c2d47"/>
                </g>
                <g>
                  <path d="M433.339,465.657c.365-.486,1.221,0,1.424.08a11.2,11.2,0,0,0,5.721.6c-5.175-.073-7.113-3.271-7.113-3.271a3.113,3.113,0,0,1,.167,2.223C433.369,465.6,433.339,465.657,433.339,465.657Z" fill="#1c2d47"/>
                  <path d="M443.459,464.035a1.362,1.362,0,0,1,.076-1.016c.2-.369.259-.506.259-.506a6.578,6.578,0,0,1-4.448,2.41C442.356,465.165,443.459,464.035,443.459,464.035Z" fill="#1c2d47"/>
                  <path d="M443.564,466.06v0Z" fill="#1c2d47"/>
                  <path d="M441.5,466.911a12.757,12.757,0,0,1-5.814.156,4.482,4.482,0,0,1-2.323-.889,7.512,7.512,0,0,0,.634.9,4.14,4.14,0,0,0,1.077.893,9.1,9.1,0,0,0,5.3,1.05c.346-.029,2.032-.278,2.373-.761a1.573,1.573,0,0,0,.257-.69c-.128.538-1.756.777-2.574.838a13.187,13.187,0,0,1-3.411-.278,5.831,5.831,0,0,1-1.772-.66,13.106,13.106,0,0,0,3.8.437,15.086,15.086,0,0,0,3.461-.655c.334-.092.532.036.5.318,0,0,.279-.845.436-1.153a2.152,2.152,0,0,0,.131-.353C443.551,466.1,443.361,466.482,441.5,466.911Z" fill="#1c2d47"/>
                </g>
                <path d="M456.1,409.856a9.56,9.56,0,0,1-3.959-.717,5.251,5.251,0,0,1-3.012-3.039c-.248-.509-.387-8.391-.46-10.779-.054-1.741-.16-1.8-.225-.053-.089,2.408-.247,10.322-.495,10.832a5.253,5.253,0,0,1-3.013,3.039,9.578,9.578,0,0,1-3.918.718c-.623-.008-1.969,0-.08.255a11.718,11.718,0,0,0,4-.1c.711-.162,1.787.016,1.69.978-.187,1.874-2.431,4.943-3.5,7.72-.3.772,2.872-4.665,2.92-3.772.158,2.952-.285,1.06-.833,15.7l2.755-22.063h1.092l2.8,22.007c-.547-12.16-1.031-14.921-.949-15.527.172-1.28,2.733,5.088,2.433,4.053-1-3.451-2.754-6.092-2.893-7.827-.09-1.119.91-1.446,1.691-1.265a11.425,11.425,0,0,0,3.887.105C457.957,409.876,456.694,409.845,456.1,409.856Z" fill="#1c2d47"/>
                <g>
                  <path d="M439.623,435.115c1.887.5,4.711-.712,4.711-.712-.129,4.007-4.786,5.544-4.364,5.488A6.4,6.4,0,0,0,443.748,438c.086,1.028.041,2.709.281,8.5,0,0,.233-6.22.4-8.475.108-1.419.3-3.129.394-3.991.207-1.81.442-4.185.442-4.185C444.65,435.629,439.623,435.115,439.623,435.115Z" fill="#1c2d47" fill-rule="evenodd"/>
                  <path d="M437.337,437.871c-.94.023-2.237.046-2.237.046a7.273,7.273,0,0,0,7.19-1.209A18.727,18.727,0,0,1,437.337,437.871Z" fill="#1c2d47"/>
                  <path d="M434.309,435.044a4.493,4.493,0,0,1-.578-2.317l-.115,2.852a5.5,5.5,0,0,0,4.906.549C436.2,436.22,434.731,435.63,434.309,435.044Z" fill="#1c2d47"/>
                </g>
                <g>
                  <path d="M452.691,434.4s2.853,1.211,4.74.712c0,0-5.075.611-5.646-5.266,0,0,.234,2.375.442,4.185.1.862.286,2.572.394,3.991.17,2.255.347,8.475.347,8.475.241-5.793.252-7.474.337-8.5a6.4,6.4,0,0,0,3.779,1.893C457.506,439.947,452.82,438.41,452.691,434.4Z" fill="#1c2d47"/>
                  <path d="M454.764,436.708a7.275,7.275,0,0,0,7.19,1.21s-1.3-.023-2.238-.047A18.681,18.681,0,0,1,454.764,436.708Z" fill="#1c2d47"/>
                  <path d="M463.437,435.579l-.115-2.851a4.491,4.491,0,0,1-.578,2.316c-.422.587-1.886,1.176-4.213,1.084A5.5,5.5,0,0,0,463.437,435.579Z" fill="#1c2d47"/>
                </g>
              </g>
              <g>
                <path d="M463.38,393.511c-1.172.039-11.525.362-14.967.362s-13.951-.336-14.778-.364c-.023.112-.045.223-.066.332l0,.058c.109,0,11.268.366,14.847.366,3.529,0,14.276-.339,15.049-.364C463.435,393.772,463.408,393.643,463.38,393.511Z" fill="#1c2d47"/>
                <path d="M462.751,390.571c-.514-.029-2.3-.134-4.8-.062-3.4.1-7.556.206-9.539.206-1.961,0-6.1-.109-9.442-.208-2.528-.075-4.361.029-4.731.064-.023.112-.045.222-.067.332l0,.058c.049,0,2.019-.144,4.756-.063,3.356.1,7.515.209,9.486.209s6.108-.106,9.5-.2c2.663-.077,4.568.04,4.922.058C462.806,390.832,462.779,390.7,462.751,390.571Z" fill="#1c2d47"/>
                <polygon points="448.53 397.992 463.833 396.127 463.801 395.903 448.523 397.764 433.233 395.903 433.2 396.127 448.516 397.992 448.516 397.994 448.523 397.993 448.53 397.994 448.53 397.992" fill="#1c2d47"/>
                <path d="M449.055,408.576l.452,3.353-.033-3.243,1.285.553s-1.348-.894-1.841-1.251c-.346-.25-.251-2.149-.251-2.149l0-11h-.245l0,10.974s.031,1.9-.334,2.137c-.554.357-2.013,1.285-2.013,1.285l1.388-.522.067,3.227.434-3.368C448.05,408.573,448.968,408.584,449.055,408.576Z" fill="#1c2d47"/>
                <path d="M463.62,396.094c-1.879.26-8.261-.712-15.075-.712-6.88,0-13.274.763-15.058.721-.036-.235-.047.649,0,.953,1.784.042,8.178-.926,15.058-.926,6.814,0,13.115.971,15,.711C463.565,396.683,463.625,396.062,463.62,396.094Z" fill="#1c2d47"/>
              </g>
              <g>
                <g>
                  <g>
                    <path d="M444.456,399.383s-3.422.027-4.6.029c-1.142,0-4.447-.021-4.447-.021l-.072,6.007c0,.515.436.729.754.885l.111.055c.865.44,3.483,1.562,3.582,1.6l.114.048.117-.041c.12-.042,2.66-1.164,3.631-1.605l.039-.018c.354-.16.838-.379.838-.928Z" fill="#1c2d47"/>
                    <path d="M439.91,399.607c-2.139,0-4.121.121-4.274.131v5.618c0,.383.349.533.7.694.958.441,3.6,1.508,3.6,1.508s2.625-1.161,3.563-1.508c.363-.134.7-.311.7-.694v-5.618C444.077,399.728,442.054,399.607,439.91,399.607Z" fill="#1c2d47"/>
                  </g>
                  <g>
                    <path d="M461.688,399.383s-3.423.027-4.6.029c-1.142,0-4.448-.021-4.448-.021l-.071,6.007c0,.515.435.729.754.885l.111.055c.864.44,3.482,1.562,3.581,1.6l.114.048.118-.041c.119-.042,2.66-1.164,3.63-1.605l.039-.018c.354-.16.839-.379.839-.928Z" fill="#1c2d47"/>
                    <path d="M457.141,399.607c-2.138,0-4.12.121-4.274.131v5.618c0,.383.35.533.7.694.958.441,3.587,1.508,3.587,1.508s2.641-1.161,3.58-1.508c.362-.134.7-.311.7-.694v-5.618C461.309,399.728,459.286,399.607,457.141,399.607Z" fill="#1c2d47"/>
                  </g>
                </g>
                <g>
                  <g>
                    <rect x="447.811" y="390.854" width="1.529" height="3.997" fill="#1c2d47"/>
                    <path d="M447.614,390.7v4.363h1.924V390.7Zm1.528,4h-1.133v-3.631h1.133Z" fill="#1c2d47"/>
                  </g>
                  <g>
                    <polygon points="459.878 390.714 458.35 390.714 458.802 394.71 460.33 394.71 459.878 390.714" fill="#1c2d47"/>
                    <path d="M460.076,390.557h-1.924l.452,4.362,1.924-.03Zm-1.529.366h1.134l.452,3.6-1.134.03Z" fill="#1c2d47"/>
                  </g>
                  <g>
                    <polygon points="437.088 390.739 436.636 394.735 438.165 394.735 438.617 390.739 437.088 390.739" fill="#1c2d47"/>
                    <path d="M436.89,390.582l-.48,4.332,1.952.03.48-4.362Zm1.077,4-1.133-.03.452-3.6h1.133Z" fill="#1c2d47"/>
                  </g>
                </g>
              </g>
            </g>
          </g>
          <g>
            <g>
              <path d="M434.235,368.736c-.01-.384-.021-.768-.035-1.152-.046-1.243-.121-2.486-.261-3.721-.073-.638-.162-1.273-.271-1.9a18.115,18.115,0,0,0-.391-1.837,12.667,12.667,0,0,0-1.388-3.055c-.488-.809-1.008-1.6-1.566-2.359-.517-.7-2.718,4.554-2.727,4.663-.078.964-1.027,5.851-1.143,7.9,0,.054-.007.107-.009.157-.084,1.706.221,6.762.186,6.9a47.917,47.917,0,0,0-1.075,6.057c-.028.206-.146,1.537-.144,2.227a57.907,57.907,0,0,0,.516,7.349c-.014.285-.025.569-.03.854-.03,1.546.152,3.088.137,4.635-.012,1.313-.014,2.586-.143,3.884a4.042,4.042,0,0,0-.007.645c-.007.6.739,4.034.876,4.613a3.939,3.939,0,0,0,1.844,2.4c.49.353,1.545,1.378,2.325,1.343a.718.718,0,0,0,.613-.268c.5-.6-.991-2.646-1.3-3.194a6.716,6.716,0,0,1-.721-4.248,11.992,11.992,0,0,1,.821,2.768c.135.788.48,1.08.812,1.054a.842.842,0,0,0,.77-.671,5.268,5.268,0,0,0,.068-1.836c-.1-.918-.4-5.9-.711-6.79a15.216,15.216,0,0,0-1.067-2.142c-.417-.782,1.421-5.377,2.146-8.362.19-.744.328-1.287.377-1.486.086-.346.566-4,.558-4.508a18.906,18.906,0,0,1,.182-4.285C433.6,373.982,433.962,371.087,434.235,368.736Z" fill="#fff0e2"/>
              <path d="M434.235,368.754q-.014-.585-.035-1.17c-.046-1.243-.121-2.486-.261-3.721-.073-.638-.162-1.273-.271-1.9a18.115,18.115,0,0,0-.391-1.837,11.732,11.732,0,0,0-1.01-2.4c.03.1.059.2.089.3.369,1.553,1.016,4.444,1.016,4.444a37.115,37.115,0,0,1-.127,4.5c-1.232,8.559.11,6.279-2.008,9.469-.875,1.319-.787.817-.33,2.892.615,2.783-.018,3.543-.4,4.979-.889,3.356-.94,3.689-1.647,5.784-1.14,3.377-.256,4.077-.34,5.468-.127,2.12-1.354,4.935-1.033,6.453.7,3.288.8,2.659,2.094,3.965.4.408,1.008.828.478,1.738a1.3,1.3,0,0,1-.18.241,1.974,1.974,0,0,0,1.051.379.719.719,0,0,0,.613-.268c.5-.6-.992-2.646-1.305-3.194a6.715,6.715,0,0,1-.72-4.248c.043-.157.013-.042.049.014a12.278,12.278,0,0,1,.771,2.754c.136.788.481,1.08.813,1.054a.843.843,0,0,0,.77-.671,5.292,5.292,0,0,0,.068-1.836c-.1-.918-.4-5.9-.712-6.79a15.1,15.1,0,0,0-1.066-2.142c-.418-.782,1.421-5.377,2.145-8.362.19-.744.328-1.287.378-1.486.086-.346.565-4,.558-4.508a18.912,18.912,0,0,1,.181-4.285C433.6,373.983,433.963,371.1,434.235,368.754Z" fill="#e0b8b5"/>
            </g>
            <g>
              <path d="M462.8,368.736c.01-.384.021-.768.035-1.152.046-1.243.12-2.486.261-3.721.072-.638.161-1.273.271-1.9a17.586,17.586,0,0,1,.391-1.837,12.7,12.7,0,0,1,1.387-3.055c.489-.809,1.008-1.6,1.567-2.359.517-.7,2.717,4.554,2.726,4.663.079.964,1.028,5.851,1.144,7.9,0,.054.007.107.009.157.084,1.706-.222,6.762-.187,6.9a47.735,47.735,0,0,1,1.076,6.057c.027.206.146,1.537.144,2.227a58.015,58.015,0,0,1-.517,7.349c.014.285.026.569.031.854.03,1.546-.152,3.088-.138,4.635.013,1.313.014,2.586.144,3.884a4.042,4.042,0,0,1,.007.645c.007.6-.739,4.034-.876,4.613a3.943,3.943,0,0,1-1.844,2.4c-.491.353-1.546,1.378-2.326,1.343a.719.719,0,0,1-.613-.268c-.5-.6.992-2.646,1.3-3.194a6.709,6.709,0,0,0,.72-4.248,12.005,12.005,0,0,0-.82,2.768c-.136.788-.481,1.08-.813,1.054a.841.841,0,0,1-.769-.671,5.293,5.293,0,0,1-.069-1.836c.1-.918.4-5.9.712-6.79a15,15,0,0,1,1.067-2.142c.417-.782-1.422-5.377-2.146-8.362-.19-.744-.328-1.287-.378-1.486-.085-.346-.565-4-.558-4.508a18.912,18.912,0,0,0-.181-4.285C463.436,373.982,463.075,371.087,462.8,368.736Z" fill="#fff0e2"/>
              <path d="M462.8,368.754q.015-.585.036-1.17c.046-1.243.12-2.486.261-3.721.072-.638.161-1.273.271-1.9a17.586,17.586,0,0,1,.391-1.837,11.732,11.732,0,0,1,1.01-2.4c-.03.1-.059.2-.089.3-.37,1.553-1.016,4.444-1.016,4.444a37.115,37.115,0,0,0,.127,4.5c1.232,8.559-.11,6.279,2.007,9.469.876,1.319.981.87.33,2.892a7.361,7.361,0,0,0,.019,5.514,57.229,57.229,0,0,1,1.724,6.135,17.292,17.292,0,0,1,.642,4.582c.128,2.12,1.355,4.935,1.033,6.453-.7,3.288-.8,2.659-2.093,3.965-.4.408-1.008.828-.479,1.738a1.351,1.351,0,0,0,.18.241,1.969,1.969,0,0,1-1.05.379.718.718,0,0,1-.613-.268c-.5-.6.991-2.646,1.305-3.194a6.722,6.722,0,0,0,.72-4.248c-.044-.157-.013-.042-.049.014a12.274,12.274,0,0,0-.772,2.754c-.135.788-.48,1.08-.812,1.054a.842.842,0,0,1-.77-.671,5.268,5.268,0,0,1-.068-1.836c.1-.918.4-5.9.711-6.79a15.216,15.216,0,0,1,1.067-2.142c.417-.782-1.421-5.377-2.146-8.362-.19-.744-.328-1.287-.377-1.486-.086-.346-.566-4-.558-4.508a18.906,18.906,0,0,0-.182-4.285C463.434,373.983,463.074,371.1,462.8,368.754Z" fill="#e0b8b5"/>
            </g>
            <g>
              <path d="M433.614,373.611a32.146,32.146,0,0,1-7.065-1.423c.012.269.023.524.034.758a31.647,31.647,0,0,0,6.9,1.4C433.513,374.227,433.559,373.969,433.614,373.611Z" fill="#e0b8b5"/>
              <path d="M470.48,372.344c-2.3,1.362-6.7,1.774-6.908,1.468-.173-.256,0,1.09-.036.448a1.007,1.007,0,0,0,.028.108q.036.111.066.249c.532.247,4.643-.242,6.816-1.506C470.457,372.877,470.468,372.619,470.48,372.344Z" fill="#e0b8b5"/>
            </g>
          </g>
          <g>
            <path d="M462.839,368.068c0-.02.343,2.539.733,5.744.052.429,6.255-.288,7.843-2.226-.759-6.86-1.889-18.946-4.1-20.918l-.1-.081a22.421,22.421,0,0,0-4.732-2.826c-1.2-.434-4.927-1.946-4.927-1.946l-.869-.638a3.627,3.627,0,0,0-.311-.227c-.158-.115-.273-.2-.29-.207l.012.04a17.279,17.279,0,0,0-7.581-1.442c-3.8,0-7.226.854-8.331,2.039l-.6.435s-3.895,1.512-5.095,1.946a22.117,22.117,0,0,0-4.67,2.826l-.1.081c-2.276,2.031-3.724,14.239-4.472,21.078a32.579,32.579,0,0,0,8.425,1.873c-.021-.322.523-5.571.524-5.551,0-.036-.049,9.046-.089,10.769-.181,7.727-.451,16.207-.271,17.364,1.784.042,7.826-.819,14.706-.819,6.814,0,13.51.972,15.39.712.179-1.161-.826-9.53-1.007-17.257C462.888,377.114,462.834,368.032,462.839,368.068Z" fill="#8498b5"/>
            <g opacity="0.3">
              <path d="M463.009,380.741l-.025,0q-.045-1.023-.07-2.046c-.018-.741-.024-2.741-.049-4.752,0-.2.567-.071.759-.079.436-.019.934.15.911,0a18.938,18.938,0,0,1-.3-5.246,35.647,35.647,0,0,1,2.159-5.712s-1.016,1.414-1.5,2.275c-1.335,2.381-1.34,1.826-1.261,1.059,1.039-10.082,3.716-15.59,3.716-15.59a31.689,31.689,0,0,0-2.15,4.544,40.449,40.449,0,0,0-2.731,12.2c-.239-2.186-.757-10.475-.757-10.475a69.951,69.951,0,0,0-.021,11.009c.313,6.078.616,11.935.781,17.284-1.062-2.615-1.617-7.825-2.123-12.246,0,0,.215,5.924.824,10.588.472,3.621,1.863,6.146,2.236,8.883a14.223,14.223,0,0,1-.054,1.967,1.4,1.4,0,0,1-.687,1.087c-.223.116-4.557-.166-5.192-.215-1.944-.151-3.9-.412-5.844-.481-1.04-.037-2.109-.057-3.144-.057-.235,0-2.3.049-3.094.077-1.948.07-3.75.293-5.694.443-.634.049-5.184.7-5.577.157-.215-.3,1.1-9.586,1.43-10.966a97.732,97.732,0,0,0,1.695-13.673,72.228,72.228,0,0,1-2.695,12.3c.165-5.349.468-9.007.781-15.084a73.7,73.7,0,0,0-.105-11.009s-.422,8.313-.673,10.474a40.455,40.455,0,0,0-2.731-12.2,31.628,31.628,0,0,0-2.15-4.543s2.677,5.507,3.716,15.589c.079.768.074,1.322-1.26-1.058-.483-.861-1.5-2.275-1.5-2.275s2.056,3.642,2.16,5.711c.2,3.96-.2,4.748-.046,4.767.475.057,1.459.27,1.461.436.021,2.227-.079,4.122-.1,4.871-.016.682-.132,2.835-.154,3.227-.182,3.3-1.233,12.13-1.187,12.872.02.313.175,1.4.555,1.52,1.28.394,5.386-.138,5.864-.239,1.413-.118,5.9-.5,9.331-.523a73.586,73.586,0,0,1,9.56.469,22.123,22.123,0,0,0,5.656.326c.391-.067.541-1.221.561-1.535.047-.742-1.047-9.653-1.229-12.951C463.045,381.529,463.027,381.135,463.009,380.741Z" fill="#2c3149"/>
              <path d="M441.336,388.053s10.623-1.05,15.176.211A25.359,25.359,0,0,0,441.336,388.053Z" fill="#2c3149"/>
              <path d="M467.3,350.647l-.1-.08a22.451,22.451,0,0,0-4.733-2.826c-1.2-.434-4.927-1.947-4.927-1.947a8.312,8.312,0,0,0-1.111-.857l-.193-.116-.033-.02-.023-.013c-.865-.768-3.52-1.456-6.934-1.458l-.7-.009-.7.009a15.019,15.019,0,0,0-6.865,1.453,5.193,5.193,0,0,0-.519.351c-.492.368-.891.66-.891.66s-3.9,1.513-5.1,1.947a22.086,22.086,0,0,0-4.669,2.826l-.1.08c-.032.029-.063.059-.1.091a15,15,0,0,1,4.931-2.572c.817-.274,2.674-.938,3.962-1.336l0,.013a28.92,28.92,0,0,1,6.008-1.042c1.1-.085,2.46-.226,4-.216a52.263,52.263,0,0,1,5.315.389,41.285,41.285,0,0,1,5.514,1.108l.006-.021c1.239.353,2.387.881,3.053,1.105a16.046,16.046,0,0,1,4.994,2.572C467.364,350.706,467.333,350.676,467.3,350.647Zm-22.851-5.17c-1.206.094-2.9.224-3.78.357a4.059,4.059,0,0,1,1.167-1.133,16.776,16.776,0,0,1,6.065-.994l.666-.009.665.009c3.381,0,5.893.584,6.628,1.313.091.09.751.523.866.919-1.461-.245-3.942-.416-5.448-.512A50.882,50.882,0,0,0,444.45,345.477Z" fill="#2c3149"/>
              <g>
                <path d="M434.426,377.769c.085-1.067.155-1.907.169-1.983.1-.5.315-4.171.3-4.7s-.023-5.113-.127-5.6a10.932,10.932,0,0,1-.321,1.944c-.037-.451-.125-1.142-.134-1.194-1.261-7.3-1.832-8.578-1.832-8.578s.878,4.882,1.3,8.194a44.09,44.09,0,0,1,.435,6.326c.026,1.371-.061,4.831-.122,7.477-.041.872-.1,1.925-.112,2.187-.231,4.179-1.111,8.908-1.277,13.083-.037.926-.019,1.642,1.308,1.607-.8-.036-.4-5.119-.179-7.031.35-2.972.323-3.1.449-4.421.112-1.189.587-2.367.969-4.23a21.738,21.738,0,0,0-.852,2.407C434.429,382.147,434.437,379.848,434.426,377.769Z" fill="#2c3149"/>
                <path d="M463.091,381.846c-.019-.333-.105-1.938-.141-2.831-.059-2.538-.131-5.571-.107-6.833a44.276,44.276,0,0,1,.435-6.326c.42-3.312,1.3-8.194,1.3-8.194s-.571,1.282-1.831,8.578c-.01.052-.1.743-.135,1.194a10.932,10.932,0,0,1-.321-1.944c-.1.485-.109,5.075-.127,5.6s.2,4.194.3,4.7c.015.079.091,1,.182,2.137-.01,2.038,0,4.251.032,5.338a21.948,21.948,0,0,0-.852-2.407c.382,1.863.856,3.041.969,4.23.125,1.325.1,1.449.448,4.421.225,1.912.623,7-.178,7.031,1.327.035,1.335-.483,1.3-1.41C464.192,390.951,463.321,386.025,463.091,381.846Z" fill="#2c3149"/>
              </g>
            </g>
          </g>
        </g>
        <g>
          <path d="M486.478,282.826v45.428s-1.391,2.782,9.271,2.782H532.37s2.781.463,2.781-4.172V284.216s.464-1.854-5.563-1.39-41.256,0-42.183,0Z" fill="#f5f5f5"/>
          <path d="M495.676,291.633h29.668q.231,14.834.463,29.668l-30.131.463Z" fill="#263854"/>
        </g>
      </g>
      <g>
        <ellipse cx="440.159" cy="937.594" rx="34.667" ry="6.406" fill="#eff4fc"/>
        <path d="M398.976,715.764s3.792-.948,3.792,6.163.949,119.475.949,119.475,1.422,7.111-6.638,7.111H324.541a4.709,4.709,0,0,1-3.638-.083c-2.829-1.431-2.937-6.415-3-7.976-1.757-44.344-2.635-66.515-2.845-117.1,0-.88-.073-3.891,1.9-5.69a6.169,6.169,0,0,1,3.793-1.422C325.028,715.927,356.343,715.736,398.976,715.764Z" fill="#e6eaf5"/>
        <path d="M320.274,766.493c.192-6.478,1.167-8.54,1.423-13.749a49.529,49.529,0,0,0-1.423-14.223l.948-7.586c-.215-1.462-1.215-8.655.949-9.482.381-.146.97-.135,1.9.474a4.658,4.658,0,0,0,2.371.949,5.3,5.3,0,0,0,4.267-1.9,37.77,37.77,0,0,1,11.378.474c3.512.7,5.79,1.715,9.956,1.9a29.239,29.239,0,0,0,6.638-.474,107.6,107.6,0,0,0,10.9-.949c3.448-.48,6.383-1.068,7.586.475a3.179,3.179,0,0,1,.474,2.37,2.159,2.159,0,0,0,1.422-.948c.4-.756-.126-1.428,0-1.9.632-2.343,17.989-.808,18.016,1.423,0,.367-.463.52-.948.948-2.964,2.612-.383,9.973.474,12.8,2.346,7.743-.77,6.156.948,25.6.631,7.144,1.716,14.87.474,15.172-.618.15-1.7-1.569-1.9-1.423s1.136,1.522.948,2.371c-.473,2.14-10.654,1.2-23.231.948a234.668,234.668,0,0,0-26.55.474c-1.482.126-4.014.36-7.585.474-10.305.331-15.509.438-18.016-2.37C319.98,776.423,320.078,773.113,320.274,766.493Z" fill="#7f9cc4"/>
        <path d="M322.171,788.776s-1.9-5.452,5.452-5.452,12.09-.237,12.09-.237,12.9-.424,13.749,0c.948.474,12.326.948,12.326.948h3.319c.8.017,2.137.036,3.793,0a112.791,112.791,0,0,0,14.223-.948c2.151-.3,3.478-.575,5.215,0a7.864,7.864,0,0,1,4.02,3.058,8,8,0,0,1,1.195,4.054c.186,3.558.422,11.405.474,21.808a51.482,51.482,0,0,1,.475,8.06c-.123,6.226-1.257,6.227-.949,10.43.38,5.175,2.035,8.405.328,10.769a1.857,1.857,0,0,1-.8.61c-3.319,1.422-10.9,1.9-14.7,1.422a218.009,218.009,0,0,0-26.076-.474c-8.378.493-13.195,1.386-21.809,0a65.668,65.668,0,0,1-6.637-1.422c-1.932-.218-3.339-.822-3.793-1.422a1.894,1.894,0,0,1-.441-1.262,1.41,1.41,0,0,1,.053-.189,6.673,6.673,0,0,0-.086-2.342c-.371-1.445-.606-2.078-.948-3.319-.135-.489-.311-1.129-.474-1.9a22.573,22.573,0,0,1-.474-3.319c-.149-3.8,3.243-6.18,2.37-8.06-.048-.1-.348-.7-.948-1.9-.466-.928-.461-.913-.474-.949-.478-1.3.324-2.237.474-3.792a7.152,7.152,0,0,0-.474-2.845,30.982,30.982,0,0,1-.948-9.008c.275-3.52,1.421-3.8,1.422-7.112A15.156,15.156,0,0,0,322.171,788.776Z" fill="#345282"/>
        <path d="M615,895.776c-272.91-.567-467.349-.771-468,.635-.5,1.081,113.335,3.475,468,8.387Z" fill="#eff4fc"/>
        <g>
          <g>
            <g>
              <path d="M431.245,939.579a35.3,35.3,0,0,0,7.809,1.218,6.253,6.253,0,0,0,2.426-.06,2.185,2.185,0,0,0,1.176-.695c.426-.491.277-1.508.185-2.487a13.238,13.238,0,0,0-.268-1.579,2.8,2.8,0,0,0-.313-1.3,1.327,1.327,0,0,0-1.478-.587,2.672,2.672,0,0,0-1.6.548c-.694.611-1.266,1.116-2.4.619-.909-.4-.349-1.9-1.267-1.638a6.279,6.279,0,0,1-3.817,1.564,2.565,2.565,0,0,0-1.782,1.329,1.93,1.93,0,0,0-.117,1.455A1.8,1.8,0,0,0,431.245,939.579Z" fill="#a5b3c9"/>
              <path d="M430.645,939.318a1.173,1.173,0,0,0,.386.141c.714.131.653-.544,1.524-.879a8.88,8.88,0,0,1,2.786-.18c3.689.58,5.4.3,5.113-1.567-.059-.389-.1-1.465-.959-1.49-.455-.013-.911.641-1.944.582a1.731,1.731,0,0,1-1.457-.643,4.316,4.316,0,0,1-.466-1.144.463.463,0,0,0-.508-.2c.236-.153.316-.322.459-.339.863-.1.287,1.261,1.2,1.66,1.136.5,1.714,0,2.4-.619a2.722,2.722,0,0,1,1.342-.514c1.265-.194,1.448.147,1.741.553a2.639,2.639,0,0,1,.313,1.3,13.238,13.238,0,0,1,.268,1.579,10.006,10.006,0,0,1,.016,2.518c-.146.468-.892.833-2.27.789-.032,0-.649.009-1.533-.065a34.34,34.34,0,0,1-7.809-1.218,3.013,3.013,0,0,1-.6-.261Z" fill="#8e9aad"/>
              <path d="M431.082,938.132a41.2,41.2,0,0,0,8.275,1.026,6.988,6.988,0,0,0,2-.017c1-.168,1.359-.3,1.568-.618a4.073,4.073,0,0,1-.141,1.6c-.13.275-.3.4-1.106.642a9.779,9.779,0,0,1-2.622-.045,35,35,0,0,1-7.809-1.218c-1.143-.368-1.353-.821-1.447-1.524a6.4,6.4,0,0,1-.067-.656A2.192,2.192,0,0,0,431.082,938.132Z" fill="#2c3149" opacity="0.3"/>
              <g>
                <path d="M435.029,933.881c.1-.013.17.034.14.14a2.4,2.4,0,0,0-.053.874.21.21,0,0,1-.136.231l-.017,0a.179.179,0,0,1-.21-.159,1.707,1.707,0,0,1,.021-.83A.354.354,0,0,1,435.029,933.881Z" fill="#8e9aad"/>
                <path d="M434.066,934.441c.054-.191.212-.263.3-.2s.088.119.044.241a2.249,2.249,0,0,0-.123.6c-.031.171-.077.234-.167.237H434.1c-.1-.007-.172-.125-.169-.263A3.042,3.042,0,0,1,434.066,934.441Z" fill="#8e9aad"/>
                <path d="M433.434,934.644c.059-.109.214-.157.276-.073s.06.117,0,.226a2.243,2.243,0,0,0-.161.432c-.031.118-.109.19-.182.174a.109.109,0,0,1-.023-.009.279.279,0,0,1-.081-.31A1.631,1.631,0,0,1,433.434,934.644Z" fill="#8e9aad"/>
                <path d="M432.69,935.035c.1-.175.23-.3.358-.251.063.025.079.112,0,.189a1.1,1.1,0,0,0-.129.214c-.053.112-.141.166-.209.136a.11.11,0,0,1-.031-.022C432.613,935.234,432.618,935.16,432.69,935.035Z" fill="#8e9aad"/>
              </g>
            </g>
            <g>
              <path d="M465.743,939.579a34.156,34.156,0,0,1-7.809,1.218,6.959,6.959,0,0,1-2.426-.06,2.185,2.185,0,0,1-1.176-.695c-.426-.491-.277-1.508-.185-2.487a13.238,13.238,0,0,1,.268-1.579,2.787,2.787,0,0,1,.313-1.3,1.327,1.327,0,0,1,1.478-.587,2.672,2.672,0,0,1,1.6.548c.694.611,1.266,1.116,2.4.619.909-.4.348-1.9,1.267-1.638a6.279,6.279,0,0,0,3.817,1.564,2.565,2.565,0,0,1,1.782,1.329,1.934,1.934,0,0,1,.117,1.455A1.8,1.8,0,0,1,465.743,939.579Z" fill="#a5b3c9"/>
              <path d="M466.343,939.318a1.173,1.173,0,0,1-.386.141c-.714.131-.653-.544-1.524-.879a8.884,8.884,0,0,0-2.787-.18c-3.689.58-5.4.3-5.112-1.567.059-.389.1-1.465.959-1.49.455-.013.911.641,1.944.582a1.731,1.731,0,0,0,1.457-.643,4.316,4.316,0,0,0,.466-1.144.462.462,0,0,1,.508-.2c-.236-.153-.316-.322-.46-.339-.862-.1-.286,1.261-1.195,1.66-1.136.5-1.714,0-2.4-.619a2.722,2.722,0,0,0-1.342-.514c-1.265-.194-1.448.147-1.741.553a2.628,2.628,0,0,0-.313,1.3,13.238,13.238,0,0,0-.268,1.579,8.822,8.822,0,0,0,.1,2.62c.1.322.863.719,1.8.719.032,0,.86-.064,1.891-.1a31.964,31.964,0,0,0,7.809-1.218,3.013,3.013,0,0,0,.6-.261Z" fill="#8e9aad"/>
              <path d="M465.906,938.132a40.377,40.377,0,0,1-8.275,1.026,9.023,9.023,0,0,1-2.074,0c-1-.168-1.283-.318-1.492-.635a4.073,4.073,0,0,0,.141,1.6c.13.275.3.4,1.106.642a7.868,7.868,0,0,0,2.568.008,35.594,35.594,0,0,0,7.863-1.271c1.143-.368,1.353-.821,1.447-1.524a6.4,6.4,0,0,0,.067-.656A2.192,2.192,0,0,1,465.906,938.132Z" fill="#2c3149" opacity="0.3"/>
              <g>
                <path d="M461.959,933.881c-.1-.013-.171.034-.14.14a2.4,2.4,0,0,1,.053.874.21.21,0,0,0,.135.231l.017,0a.179.179,0,0,0,.211-.159,1.707,1.707,0,0,0-.021-.83A.354.354,0,0,0,461.959,933.881Z" fill="#8e9aad"/>
                <path d="M462.922,934.441c-.054-.191-.212-.263-.3-.2s-.088.119-.044.241a2.249,2.249,0,0,1,.123.6c.031.171.077.234.167.237h.013c.1-.007.171-.125.168-.263A2.892,2.892,0,0,0,462.922,934.441Z" fill="#8e9aad"/>
                <path d="M463.554,934.644c-.06-.109-.214-.157-.276-.073s-.06.117,0,.226a2.243,2.243,0,0,1,.161.432c.031.118.109.19.181.174l.024-.009a.279.279,0,0,0,.081-.31A1.67,1.67,0,0,0,463.554,934.644Z" fill="#8e9aad"/>
                <path d="M464.3,935.035c-.1-.175-.231-.3-.358-.251-.064.025-.079.112,0,.189a1.207,1.207,0,0,1,.129.214c.053.112.141.166.209.136a.126.126,0,0,0,.031-.022C464.375,935.234,464.37,935.16,464.3,935.035Z" fill="#8e9aad"/>
              </g>
            </g>
          </g>
          <g>
            <path d="M461,816.179a3.889,3.889,0,0,1,.153-.375A12.6,12.6,0,0,1,460,815.29c.012-.023.023-.046.035-.071a7.074,7.074,0,0,1-.761-.309c-.813-.446-1.14-.745-2.06-1.222a15.624,15.624,0,0,1-2.952-1.823,7.219,7.219,0,0,1-.621-3.528c.305-.925,1-2.872,1-2.872a.511.511,0,0,0,.381.17c.615-.023.587-.631.794-1.053a3.9,3.9,0,0,0,.66-2.085c0-1.4.26-2.459-1.049-1.326,0,0-.058-3.52-.095-4.946-.039-1.539-.117-4.294-4.517-5.644a11.1,11.1,0,0,0-2.395-.256,9.776,9.776,0,0,0-2.185.256,7.4,7.4,0,0,0-2.886,1.662,5.272,5.272,0,0,0-1.682,3.982c-.036,1.426-.07,4.946-.069,4.946-1.35-1.136-1.072.145-1.072,1.541,0,1.023.4,1.237.71,1.87.207.422.2,1.03.818,1.053a.513.513,0,0,0,.381-.17s.591,1.71.933,2.682a6.6,6.6,0,0,1-.557,3.718,24.632,24.632,0,0,1-3.035,1.823c-.967.513-1.274.776-2.087,1.222a7.244,7.244,0,0,1-.761.309c.012.025.023.048.035.071a12.491,12.491,0,0,1-1.158.514,4.4,4.4,0,0,1,.172.422c-.165.072-.325.278-.479.336a30.59,30.59,0,0,0,2.5,5.76,14.643,14.643,0,0,0,1.915,2.4,8.6,8.6,0,0,0,2.549,1.753,10.422,10.422,0,0,0,3.563.814,126.869,126.869,0,0,1,5.037,0,10.433,10.433,0,0,0,3.564-.814,8.61,8.61,0,0,0,2.549-1.753,14.691,14.691,0,0,0,1.914-2.4,30.519,30.519,0,0,0,2.5-5.76C461.4,816.492,461.206,816.27,461,816.179Z" fill="#fff0e2"/>
            <g>
              <path d="M442.494,804.491a4.88,4.88,0,0,1,.047,1.277c.185.535.574,1.659.828,2.379a8.644,8.644,0,0,1-.28,3.165l1.308-.133a11.426,11.426,0,0,0,.4-4.3C444.632,805.044,442.427,804.114,442.494,804.491Z" fill="#e0b8b5"/>
              <path d="M454.588,804.491a4.924,4.924,0,0,0-.046,1.277c-.185.535-.575,1.659-.828,2.379a8.624,8.624,0,0,0,.279,3.165l-1.256-.133a11.415,11.415,0,0,1-.4-4.3C452.5,805.044,454.655,804.114,454.588,804.491Z" fill="#e0b8b5"/>
            </g>
            <g>
              <path d="M442.984,806.984c-.089-.264-.336-1.517-.341-1.525a27.445,27.445,0,0,0-1.131-4.3.918.918,0,0,0-.406-.334,3.785,3.785,0,0,0,1.058,4.027.617.617,0,0,1,.272.612C442.583,805.7,442.862,806.674,442.984,806.984Zm-1.52-5.682a20.878,20.878,0,0,0,.593,2.892A1.96,1.96,0,0,1,441.464,801.3Z" fill="#e0b8b5"/>
              <path d="M454.636,805.405a.618.618,0,0,1,.272-.613,3.782,3.782,0,0,0,1.058-4.027.918.918,0,0,0-.406.334,27.36,27.36,0,0,0-1.13,4.3c0,.009-.253,1.262-.341,1.525C454.21,806.613,454.489,805.638,454.636,805.405Zm.379-1.272a20.749,20.749,0,0,0,.593-2.891A1.959,1.959,0,0,1,455.015,804.133Z" fill="#e0b8b5"/>
            </g>
            <path d="M438,822.322a14.643,14.643,0,0,0,1.915,2.4,8.6,8.6,0,0,0,2.549,1.753,10.422,10.422,0,0,0,3.563.814,126.869,126.869,0,0,1,5.037,0,10.433,10.433,0,0,0,3.564-.814,8.61,8.61,0,0,0,2.549-1.753,14.691,14.691,0,0,0,1.914-2.4,30.519,30.519,0,0,0,2.5-5.76c-.187-.07-.382-.292-.584-.383a3.889,3.889,0,0,1,.153-.375A12.6,12.6,0,0,1,460,815.29c.012-.023.023-.046.035-.071a7.074,7.074,0,0,1-.761-.309c-.813-.446-1.14-.745-2.06-1.222a15.624,15.624,0,0,1-2.952-1.823,3.2,3.2,0,0,1-.25-.537,23.663,23.663,0,0,0-5.535-.619,24.583,24.583,0,0,0-4.566.411c-.281.054-.554.113-.816.176a2.561,2.561,0,0,1-.283.569,24.632,24.632,0,0,1-3.035,1.823c-.967.513-1.274.776-2.087,1.222a7.244,7.244,0,0,1-.761.309c.012.025.023.048.035.071a12.491,12.491,0,0,1-1.158.514,4.4,4.4,0,0,1,.172.422c-.165.072-.325.278-.479.336A30.59,30.59,0,0,0,438,822.322Z" fill="#e0b8b5"/>
          </g>
          <path d="M456.7,794.788l.761.5a5.639,5.639,0,0,0-1.611-2.906c-1.271-1.11-1.567-.7-1.646-.878a4.461,4.461,0,0,1-.038-1.51l-1.695,1.207-.013-.007,1.708-1.585a3.284,3.284,0,0,0-2.373.119c-.974.374-1.081-.121-2.2-.238a4.173,4.173,0,0,0-2.685.519,3.8,3.8,0,0,1,1.337-.548c.645-.119,1.583-.267,1.583-.267a4.932,4.932,0,0,0-4.731.375,10.121,10.121,0,0,0-1.221,1.418,2.384,2.384,0,0,0-1.96.549,6.455,6.455,0,0,0-1.963,3.41l1.311-.742a3.492,3.492,0,0,0-.872.989,5.88,5.88,0,0,0-.206,2.968l.348-.469.052,3.116.741.168.488,1c.139.461.319,1.155.557,2.21a8.107,8.107,0,0,0,1.36,1.868,5.477,5.477,0,0,0,1.57,1.312,11.977,11.977,0,0,0,6.426,0,7.339,7.339,0,0,0,1.678-1.312,7.11,7.11,0,0,0,1.269-1.868,27.769,27.769,0,0,1,.8-3.047l.891-.562.27-3.618.331.947a2.934,2.934,0,0,0,.124-2.09A4.309,4.309,0,0,0,456.7,794.788Zm-9.791-4.774h0Z" fill="#28497c"/>
          <g>
            <path d="M463.958,871.481a56.146,56.146,0,0,0-.517-7.727c-.225-1.649-.559-2.834-1.007-5.06a.131.131,0,0,0-.039-.064c-.591-.188-6.543.055-13.36.055h-.646c-6.817,0-13.111-.254-13.757-.055a.122.122,0,0,0-.04.064c-.447,2.226-.749,3.411-.973,5.06a56.129,56.129,0,0,0-.518,7.727c-.013,1.069-.01,2.966,0,4.126-.015,1.958-.017,4.572.014,9.623,0,2.082.588,8.321.651,12.687.062,4.3-.7,10.493-.5,15.169.084,2.048.024,6.812.074,8.812-.028,2-.1,4.057-.055,5.615.015.465-.227,1.93-.218,2.372a3.36,3.36,0,0,0,.307,1.178,3.487,3.487,0,0,1,.3,1.617c.018.659-.354.823-.375,1.12-.038.545.492.934.7,1.293a5.677,5.677,0,0,0,3.07,1.662,16.779,16.779,0,0,0,2.187.273c3.624-.031,3.619-1.017,3.7-1.324a10.634,10.634,0,0,1,.55-1.485,2.49,2.49,0,0,0,.2-1.246,10.615,10.615,0,0,1-.331-1.5c-.054-.651.489-.555.516-1.544.037-1.353-.213-4.717-.129-6.347.135-2.618.423-12.331.432-13.2a80.031,80.031,0,0,1,.857-9.9c.2-1.464.243-5.235,1.081-12.42.092-.8,1.553-11.5,1.553-11.5h1.668l.024.093s1.384,10.644,1.472,11.4c.838,7.185.962,10.956,1.165,12.42a81.353,81.353,0,0,1,.829,9.9c.035,3.3.212,9.4.377,13.2-.017,1.632-.166,4.993-.129,6.347.028.989.57.893.516,1.544a10.478,10.478,0,0,1-.331,1.5,2.513,2.513,0,0,0,.205,1.246,10.521,10.521,0,0,1,.551,1.485c.082.307.077,1.293,3.7,1.324a16.779,16.779,0,0,0,2.187-.273,5.68,5.68,0,0,0,3.07-1.661c.212-.36.743-.749.7-1.294-.021-.3-.393-.461-.374-1.12a3.492,3.492,0,0,1,.3-1.617,3.36,3.36,0,0,0,.307-1.178c.009-.442-.233-1.907-.218-2.372.05-1.558-.026-3.611-.054-5.615.073-2.4.13-6.794.128-8.812,0-4.68-.567-10.872-.5-15.169.063-4.366.651-10.605.651-12.687.031-5.051.029-7.665.015-9.623C463.968,874.447,463.971,872.551,463.958,871.481Z" fill="#8498b5"/>
            <g opacity="0.3">
              <g>
                <g>
                  <path d="M462.242,933.737c.2-.083,1.058-.566,1.423-.08,0,0-.03-.062-.2-.371a3.1,3.1,0,0,1,.166-2.223s-1.938,3.2-7.112,3.271A11.2,11.2,0,0,0,462.242,933.737Z" fill="#2c3149"/>
                  <path d="M453.545,932.035s1.1,1.13,4.114.888a6.579,6.579,0,0,1-4.449-2.41s.063.137.26.506A1.368,1.368,0,0,1,453.545,932.035Z" fill="#2c3149"/>
                  <path d="M461.323,935.067a12.757,12.757,0,0,1-5.814-.156c-1.866-.429-2.056-.816-2.069-.849a2.248,2.248,0,0,0,.131.353c.157.308.436,1.153.436,1.153-.034-.282.165-.41.5-.318a15.062,15.062,0,0,0,3.46.655,13.106,13.106,0,0,0,3.8-.437,5.825,5.825,0,0,1-1.771.66,13.194,13.194,0,0,1-3.412.278c-.818-.061-2.445-.3-2.574-.838a1.6,1.6,0,0,0,.257.69c.341.483,2.027.732,2.374.762a9.1,9.1,0,0,0,5.3-1.051,4.145,4.145,0,0,0,1.078-.893,7.588,7.588,0,0,0,.633-.9A4.484,4.484,0,0,1,461.323,935.067Z" fill="#2c3149"/>
                  <path d="M453.44,934.062v0Z" fill="#2c3149"/>
                </g>
                <g>
                  <path d="M433.339,933.657c.365-.486,1.221,0,1.424.08a11.2,11.2,0,0,0,5.721.6c-5.175-.073-7.113-3.271-7.113-3.271a3.113,3.113,0,0,1,.167,2.223C433.369,933.6,433.339,933.657,433.339,933.657Z" fill="#2c3149"/>
                  <path d="M443.459,932.035a1.362,1.362,0,0,1,.076-1.016c.2-.369.259-.506.259-.506a6.578,6.578,0,0,1-4.448,2.41C442.356,933.165,443.459,932.035,443.459,932.035Z" fill="#2c3149"/>
                  <path d="M443.564,934.06v0Z" fill="#2c3149"/>
                  <path d="M441.5,934.911a12.757,12.757,0,0,1-5.814.156,4.482,4.482,0,0,1-2.323-.889,7.512,7.512,0,0,0,.634.9,4.14,4.14,0,0,0,1.077.893,9.1,9.1,0,0,0,5.3,1.05c.346-.029,2.032-.278,2.373-.761a1.573,1.573,0,0,0,.257-.69c-.128.538-1.756.777-2.574.838a13.187,13.187,0,0,1-3.411-.278,5.831,5.831,0,0,1-1.772-.66,13.106,13.106,0,0,0,3.8.437,15.086,15.086,0,0,0,3.461-.655c.334-.092.532.036.5.318,0,0,.279-.845.436-1.153a2.152,2.152,0,0,0,.131-.353C443.551,934.1,443.361,934.482,441.5,934.911Z" fill="#2c3149"/>
                </g>
                <path d="M456.1,877.856a9.56,9.56,0,0,1-3.959-.717,5.251,5.251,0,0,1-3.012-3.039c-.248-.509-.387-8.391-.46-10.779-.054-1.741-.16-1.8-.225-.053-.089,2.408-.247,10.322-.495,10.832a5.253,5.253,0,0,1-3.013,3.039,9.578,9.578,0,0,1-3.918.718c-.623-.008-1.969,0-.08.255a11.718,11.718,0,0,0,4-.095c.711-.162,1.787.016,1.69.978-.187,1.874-2.431,4.943-3.5,7.72-.3.772,2.872-4.665,2.92-3.772.158,2.952-.285,1.06-.833,15.7l2.755-22.063h1.092l2.8,22.007c-.547-12.16-1.031-14.921-.949-15.527.172-1.28,2.733,5.088,2.433,4.053-1-3.451-2.754-6.092-2.893-7.827-.09-1.119.91-1.446,1.691-1.265a11.425,11.425,0,0,0,3.887.1C457.957,877.876,456.694,877.845,456.1,877.856Z" fill="#2c3149"/>
                <g>
                  <path d="M439.623,903.115c1.887.5,4.711-.712,4.711-.712-.129,4.007-4.786,5.544-4.364,5.488A6.4,6.4,0,0,0,443.748,906c.086,1.028.041,2.709.281,8.5,0,0,.233-6.22.4-8.475.108-1.419.3-3.129.394-3.991.207-1.81.442-4.185.442-4.185C444.65,903.629,439.623,903.115,439.623,903.115Z" fill="#2c3149" fill-rule="evenodd"/>
                  <path d="M437.337,905.871c-.94.023-2.237.046-2.237.046a7.273,7.273,0,0,0,7.19-1.209A18.727,18.727,0,0,1,437.337,905.871Z" fill="#2c3149"/>
                  <path d="M434.309,903.044a4.493,4.493,0,0,1-.578-2.317l-.115,2.852a5.5,5.5,0,0,0,4.906.549C436.2,904.22,434.731,903.63,434.309,903.044Z" fill="#2c3149"/>
                </g>
                <g>
                  <path d="M452.691,902.4s2.853,1.211,4.74.712c0,0-5.075.611-5.646-5.266,0,0,.234,2.375.442,4.185.1.862.286,2.572.394,3.991.17,2.255.347,8.475.347,8.475.241-5.793.252-7.474.337-8.5a6.4,6.4,0,0,0,3.779,1.893C457.506,907.947,452.82,906.41,452.691,902.4Z" fill="#2c3149"/>
                  <path d="M454.764,904.708a7.275,7.275,0,0,0,7.19,1.21s-1.3-.023-2.238-.047A18.681,18.681,0,0,1,454.764,904.708Z" fill="#2c3149"/>
                  <path d="M463.437,903.579l-.115-2.851a4.491,4.491,0,0,1-.578,2.316c-.422.587-1.886,1.176-4.213,1.084A5.5,5.5,0,0,0,463.437,903.579Z" fill="#2c3149"/>
                </g>
              </g>
              <g>
                <path d="M463.38,861.511c-1.172.039-11.525.362-14.967.362s-13.951-.336-14.778-.364c-.023.112-.045.223-.066.332l0,.058c.109,0,11.268.366,14.847.366,3.529,0,14.276-.339,15.049-.364C463.435,861.772,463.408,861.643,463.38,861.511Z" fill="#2c3149"/>
                <path d="M462.751,858.571c-.514-.029-2.3-.134-4.8-.062-3.4.1-7.556.206-9.539.206-1.961,0-6.1-.109-9.442-.208-2.528-.075-4.361.029-4.731.064-.023.112-.045.222-.067.332l0,.058c.049,0,2.019-.144,4.756-.063,3.356.1,7.515.209,9.486.209s6.108-.106,9.5-.2c2.663-.077,4.568.04,4.922.058C462.806,858.832,462.779,858.7,462.751,858.571Z" fill="#2c3149"/>
                <polygon points="448.53 865.992 463.833 864.127 463.801 863.903 448.523 865.764 433.233 863.903 433.2 864.127 448.516 865.992 448.516 865.994 448.523 865.993 448.53 865.994 448.53 865.992" fill="#2c3149"/>
                <path d="M449.055,876.576l.452,3.353-.033-3.243,1.285.553s-1.348-.894-1.841-1.251c-.346-.25-.251-2.149-.251-2.149l0-11h-.245l0,10.974s.031,1.9-.334,2.137c-.554.357-2.013,1.285-2.013,1.285l1.388-.522.067,3.227.434-3.368C448.05,876.573,448.968,876.584,449.055,876.576Z" fill="#2c3149"/>
                <path d="M463.62,864.094c-1.879.26-8.261-.712-15.075-.712-6.88,0-13.274.763-15.058.721-.036-.235-.047.649,0,.953,1.784.042,8.178-.926,15.058-.926,6.814,0,13.115.971,15,.711C463.565,864.683,463.625,864.062,463.62,864.094Z" fill="#2c3149"/>
              </g>
              <g>
                <g>
                  <g>
                    <path d="M444.456,867.383s-3.422.027-4.6.029c-1.142,0-4.447-.021-4.447-.021l-.072,6.007c0,.515.436.729.754.885l.111.055c.865.44,3.483,1.562,3.582,1.6l.114.048.117-.041c.12-.042,2.66-1.164,3.631-1.6l.039-.018c.354-.16.838-.379.838-.928Z" fill="#2c3149"/>
                    <path d="M439.91,867.607c-2.139,0-4.121.121-4.274.131v5.618c0,.383.349.533.7.694.958.441,3.6,1.508,3.6,1.508s2.625-1.161,3.563-1.508c.363-.134.7-.311.7-.694v-5.618C444.077,867.728,442.054,867.607,439.91,867.607Z" fill="#2c3149"/>
                  </g>
                  <g>
                    <path d="M461.688,867.383s-3.423.027-4.6.029c-1.142,0-4.448-.021-4.448-.021l-.071,6.007c0,.515.435.729.754.885l.111.055c.864.44,3.482,1.562,3.581,1.6l.114.048.118-.041c.119-.042,2.66-1.164,3.63-1.6l.039-.018c.354-.16.839-.379.839-.928Z" fill="#2c3149"/>
                    <path d="M457.141,867.607c-2.138,0-4.12.121-4.274.131v5.618c0,.383.35.533.7.694.958.441,3.587,1.508,3.587,1.508s2.641-1.161,3.58-1.508c.362-.134.7-.311.7-.694v-5.618C461.309,867.728,459.286,867.607,457.141,867.607Z" fill="#2c3149"/>
                  </g>
                </g>
                <g>
                  <g>
                    <rect x="447.811" y="858.854" width="1.529" height="3.997" fill="#2c3149"/>
                    <path d="M447.614,858.7v4.363h1.924V858.7Zm1.528,4h-1.133v-3.631h1.133Z" fill="#2c3149"/>
                  </g>
                  <g>
                    <polygon points="459.878 858.714 458.35 858.714 458.802 862.71 460.33 862.71 459.878 858.714" fill="#2c3149"/>
                    <path d="M460.076,858.557h-1.924l.452,4.362,1.924-.03Zm-1.529.366h1.134l.452,3.6-1.134.03Z" fill="#2c3149"/>
                  </g>
                  <g>
                    <polygon points="437.088 858.739 436.636 862.735 438.165 862.735 438.617 858.739 437.088 858.739" fill="#2c3149"/>
                    <path d="M436.89,858.582l-.48,4.332,1.952.03.48-4.362Zm1.077,4-1.133-.03.452-3.6h1.133Z" fill="#2c3149"/>
                  </g>
                </g>
              </g>
            </g>
          </g>
          <g>
            <g>
              <path d="M434.235,836.736c-.01-.384-.021-.768-.035-1.152-.046-1.243-.121-2.486-.261-3.721-.073-.638-.162-1.273-.271-1.905a18.115,18.115,0,0,0-.391-1.837,12.667,12.667,0,0,0-1.388-3.055c-.488-.809-1.008-1.6-1.566-2.359-.517-.7-2.718,4.554-2.727,4.663-.078.964-1.027,5.851-1.143,7.9,0,.054-.007.107-.009.157-.084,1.706.221,6.762.186,6.9a47.917,47.917,0,0,0-1.075,6.057c-.028.206-.146,1.537-.144,2.227a57.907,57.907,0,0,0,.516,7.349c-.014.285-.025.569-.03.854-.03,1.546.152,3.088.137,4.635-.012,1.313-.014,2.586-.143,3.884a4.042,4.042,0,0,0-.007.645c-.007.6.739,4.034.876,4.613a3.939,3.939,0,0,0,1.844,2.4c.49.353,1.545,1.378,2.325,1.343a.718.718,0,0,0,.613-.268c.5-.6-.991-2.646-1.3-3.194a6.716,6.716,0,0,1-.721-4.248,11.992,11.992,0,0,1,.821,2.768c.135.788.48,1.08.812,1.054a.842.842,0,0,0,.77-.671,5.268,5.268,0,0,0,.068-1.836c-.1-.918-.4-5.9-.711-6.79a15.216,15.216,0,0,0-1.067-2.142c-.417-.782,1.421-5.377,2.146-8.362.19-.744.328-1.287.377-1.486.086-.346.566-4,.558-4.508a18.906,18.906,0,0,1,.182-4.285C433.6,841.982,433.962,839.087,434.235,836.736Z" fill="#fff0e2"/>
              <path d="M434.235,836.754q-.014-.585-.035-1.17c-.046-1.243-.121-2.486-.261-3.721-.073-.638-.162-1.273-.271-1.905a18.115,18.115,0,0,0-.391-1.837,11.732,11.732,0,0,0-1.01-2.4c.03.1.059.2.089.3.369,1.553,1.016,4.444,1.016,4.444a37.115,37.115,0,0,1-.127,4.5c-1.232,8.559.11,6.279-2.008,9.469-.875,1.319-.787.817-.33,2.892.615,2.783-.018,3.543-.4,4.979-.889,3.356-.94,3.689-1.647,5.784-1.14,3.377-.256,4.077-.34,5.468-.127,2.12-1.354,4.935-1.033,6.453.7,3.288.8,2.659,2.094,3.965.4.408,1.008.828.478,1.738a1.3,1.3,0,0,1-.18.241,1.974,1.974,0,0,0,1.051.379.719.719,0,0,0,.613-.268c.5-.6-.992-2.646-1.305-3.194a6.715,6.715,0,0,1-.72-4.248c.043-.157.013-.042.049.014a12.278,12.278,0,0,1,.771,2.754c.136.788.481,1.08.813,1.054a.843.843,0,0,0,.77-.671,5.292,5.292,0,0,0,.068-1.836c-.1-.918-.4-5.9-.712-6.79a15.1,15.1,0,0,0-1.066-2.142c-.418-.782,1.421-5.377,2.145-8.362.19-.744.328-1.287.378-1.486.086-.346.565-4,.558-4.508a18.912,18.912,0,0,1,.181-4.285C433.6,841.983,433.963,839.1,434.235,836.754Z" fill="#e0b8b5"/>
            </g>
            <g>
              <path d="M462.8,836.736c.01-.384.021-.768.035-1.152.046-1.243.12-2.486.261-3.721.072-.638.161-1.273.271-1.905a17.586,17.586,0,0,1,.391-1.837,12.7,12.7,0,0,1,1.387-3.055c.489-.809,1.008-1.6,1.567-2.359.517-.7,2.717,4.554,2.726,4.663.079.964,1.028,5.851,1.144,7.9,0,.054.007.107.009.157.084,1.706-.222,6.762-.187,6.9a47.735,47.735,0,0,1,1.076,6.057c.027.206.146,1.537.144,2.227a58.015,58.015,0,0,1-.517,7.349c.014.285.026.569.031.854.03,1.546-.152,3.088-.138,4.635.013,1.313.014,2.586.144,3.884a4.042,4.042,0,0,1,.007.645c.007.6-.739,4.034-.876,4.613a3.943,3.943,0,0,1-1.844,2.4c-.491.353-1.546,1.378-2.326,1.343a.719.719,0,0,1-.613-.268c-.5-.6.992-2.646,1.3-3.194a6.709,6.709,0,0,0,.72-4.248,12.005,12.005,0,0,0-.82,2.768c-.136.788-.481,1.08-.813,1.054a.841.841,0,0,1-.769-.671,5.293,5.293,0,0,1-.069-1.836c.1-.918.4-5.9.712-6.79a15,15,0,0,1,1.067-2.142c.417-.782-1.422-5.377-2.146-8.362-.19-.744-.328-1.287-.378-1.486-.085-.346-.565-4-.558-4.508a18.912,18.912,0,0,0-.181-4.285C463.436,841.982,463.075,839.087,462.8,836.736Z" fill="#fff0e2"/>
              <path d="M462.8,836.754q.015-.585.036-1.17c.046-1.243.12-2.486.261-3.721.072-.638.161-1.273.271-1.905a17.586,17.586,0,0,1,.391-1.837,11.732,11.732,0,0,1,1.01-2.4c-.03.1-.059.2-.089.3-.37,1.553-1.016,4.444-1.016,4.444a37.115,37.115,0,0,0,.127,4.5c1.232,8.559-.11,6.279,2.007,9.469.876,1.319.981.87.33,2.892a7.361,7.361,0,0,0,.019,5.514,57.229,57.229,0,0,1,1.724,6.135,17.292,17.292,0,0,1,.642,4.582c.128,2.12,1.355,4.935,1.033,6.453-.7,3.288-.8,2.659-2.093,3.965-.4.408-1.008.828-.479,1.738a1.351,1.351,0,0,0,.18.241,1.969,1.969,0,0,1-1.05.379.718.718,0,0,1-.613-.268c-.5-.6.991-2.646,1.305-3.194a6.722,6.722,0,0,0,.72-4.248c-.044-.157-.013-.042-.049.014a12.274,12.274,0,0,0-.772,2.754c-.135.788-.48,1.08-.812,1.054a.842.842,0,0,1-.77-.671,5.268,5.268,0,0,1-.068-1.836c.1-.918.4-5.9.711-6.79a15.216,15.216,0,0,1,1.067-2.142c.417-.782-1.421-5.377-2.146-8.362-.19-.744-.328-1.287-.377-1.486-.086-.346-.566-4-.558-4.508a18.906,18.906,0,0,0-.182-4.285C463.434,841.983,463.074,839.1,462.8,836.754Z" fill="#e0b8b5"/>
            </g>
            <g>
              <path d="M433.614,841.611a32.146,32.146,0,0,1-7.065-1.423c.012.269.023.524.034.758a31.647,31.647,0,0,0,6.9,1.4C433.513,842.227,433.559,841.969,433.614,841.611Z" fill="#e0b8b5"/>
              <path d="M470.48,840.344c-2.3,1.362-6.7,1.774-6.908,1.468-.173-.256,0,1.09-.036.448a1.007,1.007,0,0,0,.028.108q.036.111.066.249c.532.247,4.643-.242,6.816-1.506C470.457,840.877,470.468,840.619,470.48,840.344Z" fill="#e0b8b5"/>
            </g>
          </g>
          <g>
            <path d="M462.839,836.068c0-.02.343,2.539.733,5.744.052.429,6.255-.288,7.843-2.226-.759-6.86-1.889-18.946-4.1-20.918l-.1-.081a22.421,22.421,0,0,0-4.732-2.826c-1.2-.434-4.927-1.946-4.927-1.946l-.869-.638a3.627,3.627,0,0,0-.311-.227c-.158-.115-.273-.2-.29-.207l.012.04a17.279,17.279,0,0,0-7.581-1.442c-3.8,0-7.226.854-8.331,2.039l-.6.435s-3.895,1.512-5.095,1.946a22.117,22.117,0,0,0-4.67,2.826l-.1.081c-2.276,2.031-3.724,14.239-4.472,21.078a32.579,32.579,0,0,0,8.425,1.873c-.021-.322.523-5.571.524-5.551,0-.036-.049,9.046-.089,10.769-.181,7.727-.451,16.207-.271,17.364,1.784.042,7.826-.819,14.706-.819,6.814,0,13.51.972,15.39.712.179-1.161-.826-9.53-1.007-17.257C462.888,845.114,462.834,836.032,462.839,836.068Z" fill="#2d4466"/>
            <g opacity="0.3">
              <path d="M463.009,848.741l-.025,0q-.045-1.023-.07-2.046c-.018-.741-.024-2.741-.049-4.752,0-.2.567-.071.759-.079.436-.019.934.15.911,0a18.938,18.938,0,0,1-.3-5.246,35.647,35.647,0,0,1,2.159-5.712s-1.016,1.414-1.5,2.275c-1.335,2.381-1.34,1.826-1.261,1.059,1.039-10.082,3.716-15.59,3.716-15.59a31.689,31.689,0,0,0-2.15,4.544,40.449,40.449,0,0,0-2.731,12.2c-.239-2.186-.757-10.475-.757-10.475a69.951,69.951,0,0,0-.021,11.009c.313,6.078.616,11.935.781,17.284-1.062-2.615-1.617-7.825-2.123-12.246,0,0,.215,5.924.824,10.588.472,3.621,1.863,6.146,2.236,8.883a14.223,14.223,0,0,1-.054,1.967,1.4,1.4,0,0,1-.687,1.087c-.223.116-4.557-.166-5.192-.215-1.944-.151-3.9-.412-5.844-.481-1.04-.037-2.109-.057-3.144-.057-.235,0-2.3.049-3.094.077-1.948.07-3.75.293-5.694.443-.634.049-5.184.7-5.577.157-.215-.3,1.1-9.586,1.43-10.966a97.732,97.732,0,0,0,1.695-13.673,72.228,72.228,0,0,1-2.695,12.3c.165-5.349.468-9.007.781-15.084a73.7,73.7,0,0,0-.105-11.009s-.422,8.313-.673,10.474a40.455,40.455,0,0,0-2.731-12.2,31.628,31.628,0,0,0-2.15-4.543s2.677,5.507,3.716,15.589c.079.768.074,1.322-1.26-1.058-.483-.861-1.5-2.275-1.5-2.275s2.056,3.642,2.16,5.711c.2,3.96-.2,4.748-.046,4.767.475.057,1.459.27,1.461.436.021,2.227-.079,4.122-.1,4.871-.016.682-.132,2.835-.154,3.227-.182,3.3-1.233,12.13-1.187,12.872.02.313.175,1.4.555,1.52,1.28.394,5.386-.138,5.864-.239,1.413-.118,5.9-.5,9.331-.523a73.586,73.586,0,0,1,9.56.469,22.123,22.123,0,0,0,5.656.326c.391-.067.541-1.221.561-1.535.047-.742-1.047-9.653-1.229-12.951C463.045,849.529,463.027,849.135,463.009,848.741Z" fill="#182740"/>
              <path d="M441.336,856.053s10.623-1.05,15.176.211A25.359,25.359,0,0,0,441.336,856.053Z" fill="#182740"/>
              <path d="M467.3,818.647l-.1-.08a22.451,22.451,0,0,0-4.733-2.826c-1.2-.434-4.927-1.947-4.927-1.947a8.312,8.312,0,0,0-1.111-.857l-.193-.116-.033-.02-.023-.013c-.865-.768-3.52-1.456-6.934-1.458l-.7-.009-.7.009a15.019,15.019,0,0,0-6.865,1.453,5.193,5.193,0,0,0-.519.351c-.492.368-.891.66-.891.66s-3.9,1.513-5.1,1.947a22.086,22.086,0,0,0-4.669,2.826l-.1.08c-.032.029-.063.059-.1.091a15,15,0,0,1,4.931-2.572c.817-.274,2.674-.938,3.962-1.336l0,.013a28.92,28.92,0,0,1,6.008-1.042c1.1-.085,2.46-.226,4-.216a52.263,52.263,0,0,1,5.315.389,41.285,41.285,0,0,1,5.514,1.108l.006-.021c1.239.353,2.387.881,3.053,1.105a16.046,16.046,0,0,1,4.994,2.572C467.364,818.706,467.333,818.676,467.3,818.647Zm-22.851-5.17c-1.206.094-2.9.224-3.78.357a4.059,4.059,0,0,1,1.167-1.133,16.776,16.776,0,0,1,6.065-.994l.666-.009.665.009c3.381,0,5.893.584,6.628,1.313.091.09.751.523.866.919-1.461-.245-3.942-.416-5.448-.512A50.882,50.882,0,0,0,444.45,813.477Z" fill="#182740"/>
              <g>
                <path d="M434.426,845.769c.085-1.067.155-1.907.169-1.983.1-.5.315-4.171.3-4.7s-.023-5.113-.127-5.6a10.932,10.932,0,0,1-.321,1.944c-.037-.451-.125-1.142-.134-1.194-1.261-7.3-1.832-8.578-1.832-8.578s.878,4.882,1.3,8.194a44.09,44.09,0,0,1,.435,6.326c.026,1.371-.061,4.831-.122,7.477-.041.872-.1,1.925-.112,2.187-.231,4.179-1.111,8.908-1.277,13.083-.037.926-.019,1.642,1.308,1.607-.8-.036-.4-5.119-.179-7.031.35-2.972.323-3.1.449-4.421.112-1.189.587-2.367.969-4.23a21.738,21.738,0,0,0-.852,2.407C434.429,850.147,434.437,847.848,434.426,845.769Z" fill="#182740"/>
                <path d="M463.091,849.846c-.019-.333-.105-1.938-.141-2.831-.059-2.538-.131-5.571-.107-6.833a44.276,44.276,0,0,1,.435-6.326c.42-3.312,1.3-8.194,1.3-8.194s-.571,1.282-1.831,8.578c-.01.052-.1.743-.135,1.194a10.932,10.932,0,0,1-.321-1.944c-.1.485-.109,5.075-.127,5.6s.2,4.194.3,4.7c.015.079.091,1,.182,2.137-.01,2.038,0,4.251.032,5.338a21.948,21.948,0,0,0-.852-2.407c.382,1.863.856,3.041.969,4.23.125,1.325.1,1.449.448,4.421.225,1.912.623,7-.178,7.031,1.327.035,1.335-.483,1.3-1.41C464.192,858.951,463.321,854.025,463.091,849.846Z" fill="#182740"/>
              </g>
            </g>
          </g>
        </g>
        <g>
          <path d="M486.478,750.826v45.428s-1.391,2.782,9.271,2.782H532.37s2.781.463,2.781-4.172V752.216s.464-1.854-5.563-1.39-41.256,0-42.183,0Z" fill="#f5f5f5"/>
          <path d="M495.676,759.633h29.668q.231,14.833.463,29.668l-30.131.463Z" fill="#263854"/>
        </g>
      </g>
      <g>
        <g>
          <path d="M439.076,1398.756c-.088,1.1-.116,2.262-.759,2.773-1.541.093-3.165.668-4.607.184-3.6-1.207-7.122-2.891-10.674-4.394-.466-.2-.985-.617-1.338,1.036-.291,1.363.219,1.493.562,1.9,2.518,2.978,5.01,6.05,7.53,9.023a5.333,5.333,0,0,1,1.575,4.079c-.468,1.1-.919.976-1.37.827-2.382-.643-3.929-4.347-5.964-6.26-2.169-2.116-4.33-4.261-6.508-6.338-2.923-2.787-5.326-7.089-7.368-12.361-.742-1.916.31-3.122,1.052-4.445s1.42-2.76,1.59-.082c.218,3.405,1,3.552,2.451,1.807a2.2,2.2,0,0,1,2.589-.885,56.033,56.033,0,0,1,14.335,7.76c1.878,1.453,3.693,3.513,5.868,3.725C438.552,1397.154,438.971,1397.5,439.076,1398.756Z" fill="#f5f5f5"/>
          <path d="M460.164,1412.829c-.058-.583-.027-1.594-.187-1.686-3.27-1.869-6.186-5.34-9.7-6.138a31.258,31.258,0,0,1-6.546-2.61c-.572-.278-1.077-.186-1.671.452a5.436,5.436,0,0,1,.105-4.246c5.65,2.259,11.227,4.843,16.472,9.115,1.708,1.392,3.664,1.764,5.511,2.576.518.228,1.168-.048,1.324,1.462A7.252,7.252,0,0,1,460.164,1412.829Z" fill="#f5f5f5"/>
        </g>
        <path d="M398.976,1191.764s3.792-.948,3.792,6.163.949,119.475.949,119.475,1.422,7.111-6.638,7.111H324.541a4.709,4.709,0,0,1-3.638-.083c-2.829-1.431-2.937-6.415-3-7.976-1.757-44.344-2.635-66.515-2.845-117.1,0-.88-.073-3.891,1.9-5.69a6.169,6.169,0,0,1,3.793-1.422C325.028,1191.927,356.343,1191.736,398.976,1191.764Z" fill="#e6eaf5"/>
        <path d="M320.274,1242.493c.192-6.478,1.167-8.54,1.423-13.749a49.529,49.529,0,0,0-1.423-14.223l.948-7.586c-.215-1.462-1.215-8.655.949-9.482.381-.146.97-.135,1.9.474a4.658,4.658,0,0,0,2.371.949,5.3,5.3,0,0,0,4.267-1.9,37.77,37.77,0,0,1,11.378.474c3.512.7,5.79,1.715,9.956,1.9a29.239,29.239,0,0,0,6.638-.474,107.6,107.6,0,0,0,10.9-.949c3.448-.48,6.383-1.068,7.586.475a3.179,3.179,0,0,1,.474,2.37,2.159,2.159,0,0,0,1.422-.948c.4-.756-.126-1.428,0-1.9.632-2.343,17.989-.808,18.016,1.423,0,.367-.463.52-.948.948-2.964,2.612-.383,9.973.474,12.8,2.346,7.743-.77,6.156.948,25.6.631,7.144,1.716,14.87.474,15.172-.618.15-1.7-1.569-1.9-1.423s1.136,1.522.948,2.371c-.473,2.14-10.654,1.2-23.231.948a234.668,234.668,0,0,0-26.55.474c-1.482.126-4.014.36-7.585.474-10.305.331-15.509.438-18.016-2.37C319.98,1252.423,320.078,1249.113,320.274,1242.493Z" fill="#7f9cc4"/>
        <path d="M322.171,1264.776s-1.9-5.452,5.452-5.452,12.09-.237,12.09-.237,12.9-.424,13.749,0c.948.474,12.326.948,12.326.948h3.319c.8.017,2.137.036,3.793,0a112.791,112.791,0,0,0,14.223-.948c2.151-.3,3.478-.575,5.215,0a7.864,7.864,0,0,1,4.02,3.058,8,8,0,0,1,1.195,4.054c.186,3.558.422,11.4.474,21.808a51.482,51.482,0,0,1,.475,8.06c-.123,6.226-1.257,6.227-.949,10.43.38,5.175,2.035,8.4.328,10.769a1.857,1.857,0,0,1-.8.61c-3.319,1.422-10.9,1.9-14.7,1.422a218.009,218.009,0,0,0-26.076-.474c-8.378.493-13.195,1.386-21.809,0a65.668,65.668,0,0,1-6.637-1.422c-1.932-.218-3.339-.822-3.793-1.422a1.894,1.894,0,0,1-.441-1.262,1.41,1.41,0,0,1,.053-.189,6.673,6.673,0,0,0-.086-2.342c-.371-1.445-.606-2.078-.948-3.319-.135-.489-.311-1.129-.474-1.9a22.573,22.573,0,0,1-.474-3.319c-.149-3.8,3.243-6.18,2.37-8.06-.048-.1-.348-.7-.948-1.9-.466-.928-.461-.913-.474-.949-.478-1.3.324-2.237.474-3.792a7.152,7.152,0,0,0-.474-2.845,30.982,30.982,0,0,1-.948-9.008c.275-3.52,1.421-3.8,1.422-7.112A15.156,15.156,0,0,0,322.171,1264.776Z" fill="#345282"/>
        <path d="M615,1371.776c-272.91-.567-467.349-.771-468,.635-.5,1.081,113.335,3.475,468,8.387Z" fill="#f5f5f5"/>
        <g>
          <g>
            <g>
              <path d="M431.245,1415.579a35.3,35.3,0,0,0,7.809,1.218,6.253,6.253,0,0,0,2.426-.06,2.185,2.185,0,0,0,1.176-.7c.426-.491.277-1.508.185-2.487a13.238,13.238,0,0,0-.268-1.579,2.8,2.8,0,0,0-.313-1.3,1.327,1.327,0,0,0-1.478-.587,2.672,2.672,0,0,0-1.6.548c-.694.611-1.266,1.116-2.4.619-.909-.4-.349-1.9-1.267-1.638a6.279,6.279,0,0,1-3.817,1.564,2.565,2.565,0,0,0-1.782,1.329,1.93,1.93,0,0,0-.117,1.455A1.8,1.8,0,0,0,431.245,1415.579Z" fill="#a5b3c9"/>
              <path d="M430.645,1415.318a1.173,1.173,0,0,0,.386.141c.714.131.653-.544,1.524-.879a8.88,8.88,0,0,1,2.786-.18c3.689.58,5.4.3,5.113-1.567-.059-.389-.1-1.465-.959-1.49-.455-.013-.911.641-1.944.582a1.731,1.731,0,0,1-1.457-.643,4.316,4.316,0,0,1-.466-1.144.463.463,0,0,0-.508-.2c.236-.153.316-.322.459-.339.863-.1.287,1.261,1.2,1.66,1.136.5,1.714,0,2.4-.619a2.722,2.722,0,0,1,1.342-.514c1.265-.194,1.448.147,1.741.553a2.639,2.639,0,0,1,.313,1.3,13.238,13.238,0,0,1,.268,1.579,10.006,10.006,0,0,1,.016,2.518c-.146.468-.892.833-2.27.789-.032,0-.649.009-1.533-.065a34.34,34.34,0,0,1-7.809-1.218,3.013,3.013,0,0,1-.6-.261Z" fill="#8e9aad"/>
              <path d="M431.082,1414.132a41.2,41.2,0,0,0,8.275,1.026,6.988,6.988,0,0,0,2-.017c1-.168,1.359-.3,1.568-.618a4.073,4.073,0,0,1-.141,1.6c-.13.275-.3.4-1.106.642a9.779,9.779,0,0,1-2.622-.045,35,35,0,0,1-7.809-1.218c-1.143-.368-1.353-.821-1.447-1.524a6.4,6.4,0,0,1-.067-.656A2.192,2.192,0,0,0,431.082,1414.132Z" fill="#2c3149" opacity="0.3"/>
              <g>
                <path d="M435.029,1409.881c.1-.013.17.034.14.14a2.4,2.4,0,0,0-.053.874.21.21,0,0,1-.136.231l-.017,0a.179.179,0,0,1-.21-.159,1.707,1.707,0,0,1,.021-.83A.354.354,0,0,1,435.029,1409.881Z" fill="#8e9aad"/>
                <path d="M434.066,1410.441c.054-.191.212-.263.3-.2s.088.119.044.241a2.249,2.249,0,0,0-.123.6c-.031.171-.077.234-.167.237H434.1c-.1-.007-.172-.125-.169-.263A3.042,3.042,0,0,1,434.066,1410.441Z" fill="#8e9aad"/>
                <path d="M433.434,1410.644c.059-.109.214-.157.276-.073s.06.117,0,.226a2.243,2.243,0,0,0-.161.432c-.031.118-.109.19-.182.174a.109.109,0,0,1-.023-.009.279.279,0,0,1-.081-.31A1.631,1.631,0,0,1,433.434,1410.644Z" fill="#8e9aad"/>
                <path d="M432.69,1411.035c.1-.175.23-.3.358-.251.063.025.079.112,0,.189a1.1,1.1,0,0,0-.129.214c-.053.112-.141.166-.209.136a.11.11,0,0,1-.031-.022C432.613,1411.234,432.618,1411.16,432.69,1411.035Z" fill="#8e9aad"/>
              </g>
            </g>
            <g>
              <path d="M465.743,1415.579a34.156,34.156,0,0,1-7.809,1.218,6.959,6.959,0,0,1-2.426-.06,2.185,2.185,0,0,1-1.176-.7c-.426-.491-.277-1.508-.185-2.487a13.238,13.238,0,0,1,.268-1.579,2.787,2.787,0,0,1,.313-1.3,1.327,1.327,0,0,1,1.478-.587,2.672,2.672,0,0,1,1.6.548c.694.611,1.266,1.116,2.4.619.909-.4.348-1.9,1.267-1.638a6.279,6.279,0,0,0,3.817,1.564,2.565,2.565,0,0,1,1.782,1.329,1.934,1.934,0,0,1,.117,1.455A1.8,1.8,0,0,1,465.743,1415.579Z" fill="#a5b3c9"/>
              <path d="M466.343,1415.318a1.173,1.173,0,0,1-.386.141c-.714.131-.653-.544-1.524-.879a8.884,8.884,0,0,0-2.787-.18c-3.689.58-5.4.3-5.112-1.567.059-.389.1-1.465.959-1.49.455-.013.911.641,1.944.582a1.731,1.731,0,0,0,1.457-.643,4.316,4.316,0,0,0,.466-1.144.462.462,0,0,1,.508-.2c-.236-.153-.316-.322-.46-.339-.862-.1-.286,1.261-1.195,1.66-1.136.5-1.714,0-2.4-.619a2.722,2.722,0,0,0-1.342-.514c-1.265-.194-1.448.147-1.741.553a2.628,2.628,0,0,0-.313,1.3,13.238,13.238,0,0,0-.268,1.579,8.822,8.822,0,0,0,.1,2.62c.1.322.863.719,1.8.719.032,0,.86-.064,1.891-.1a31.964,31.964,0,0,0,7.809-1.218,3.013,3.013,0,0,0,.6-.261Z" fill="#8e9aad"/>
              <path d="M465.906,1414.132a40.377,40.377,0,0,1-8.275,1.026,9.023,9.023,0,0,1-2.074,0c-1-.168-1.283-.318-1.492-.635a4.073,4.073,0,0,0,.141,1.6c.13.275.3.4,1.106.642a7.868,7.868,0,0,0,2.568.008,35.594,35.594,0,0,0,7.863-1.271c1.143-.368,1.353-.821,1.447-1.524a6.4,6.4,0,0,0,.067-.656A2.192,2.192,0,0,1,465.906,1414.132Z" fill="#2c3149" opacity="0.3"/>
              <g>
                <path d="M461.959,1409.881c-.1-.013-.171.034-.14.14a2.4,2.4,0,0,1,.053.874.21.21,0,0,0,.135.231l.017,0a.179.179,0,0,0,.211-.159,1.707,1.707,0,0,0-.021-.83A.354.354,0,0,0,461.959,1409.881Z" fill="#8e9aad"/>
                <path d="M462.922,1410.441c-.054-.191-.212-.263-.3-.2s-.088.119-.044.241a2.249,2.249,0,0,1,.123.6c.031.171.077.234.167.237h.013c.1-.007.171-.125.168-.263A2.892,2.892,0,0,0,462.922,1410.441Z" fill="#8e9aad"/>
                <path d="M463.554,1410.644c-.06-.109-.214-.157-.276-.073s-.06.117,0,.226a2.243,2.243,0,0,1,.161.432c.031.118.109.19.181.174l.024-.009a.279.279,0,0,0,.081-.31A1.67,1.67,0,0,0,463.554,1410.644Z" fill="#8e9aad"/>
                <path d="M464.3,1411.035c-.1-.175-.231-.3-.358-.251-.064.025-.079.112,0,.189a1.207,1.207,0,0,1,.129.214c.053.112.141.166.209.136a.126.126,0,0,0,.031-.022C464.375,1411.234,464.37,1411.16,464.3,1411.035Z" fill="#8e9aad"/>
              </g>
            </g>
          </g>
          <g>
            <path d="M461,1292.179a3.889,3.889,0,0,1,.153-.375,12.6,12.6,0,0,1-1.157-.514c.012-.023.023-.046.035-.071a7.074,7.074,0,0,1-.761-.309c-.813-.446-1.14-.745-2.06-1.222a15.624,15.624,0,0,1-2.952-1.823,7.219,7.219,0,0,1-.621-3.528c.305-.925,1-2.872,1-2.872a.511.511,0,0,0,.381.17c.615-.023.587-.631.794-1.053a3.9,3.9,0,0,0,.66-2.085c0-1.4.26-2.459-1.049-1.326,0,0-.058-3.52-.095-4.946-.039-1.539-.117-4.294-4.517-5.644a11.1,11.1,0,0,0-2.395-.256,9.776,9.776,0,0,0-2.185.256,7.4,7.4,0,0,0-2.886,1.662,5.272,5.272,0,0,0-1.682,3.982c-.036,1.426-.07,4.946-.069,4.946-1.35-1.136-1.072.145-1.072,1.541,0,1.023.4,1.237.71,1.87.207.422.2,1.03.818,1.053a.513.513,0,0,0,.381-.17s.591,1.71.933,2.682a6.6,6.6,0,0,1-.557,3.718,24.632,24.632,0,0,1-3.035,1.823c-.967.513-1.274.776-2.087,1.222a7.244,7.244,0,0,1-.761.309c.012.025.023.048.035.071a12.491,12.491,0,0,1-1.158.514,4.4,4.4,0,0,1,.172.422c-.165.072-.325.278-.479.336a30.59,30.59,0,0,0,2.5,5.76,14.643,14.643,0,0,0,1.915,2.4,8.6,8.6,0,0,0,2.549,1.753,10.422,10.422,0,0,0,3.563.814,126.869,126.869,0,0,1,5.037,0,10.433,10.433,0,0,0,3.564-.814,8.61,8.61,0,0,0,2.549-1.753,14.691,14.691,0,0,0,1.914-2.4,30.519,30.519,0,0,0,2.5-5.76C461.4,1292.492,461.206,1292.27,461,1292.179Z" fill="#fff0e2"/>
            <g>
              <path d="M442.494,1280.491a4.88,4.88,0,0,1,.047,1.277c.185.535.574,1.659.828,2.379a8.644,8.644,0,0,1-.28,3.165l1.308-.133a11.426,11.426,0,0,0,.4-4.3C444.632,1281.044,442.427,1280.114,442.494,1280.491Z" fill="#e0b8b5"/>
              <path d="M454.588,1280.491a4.924,4.924,0,0,0-.046,1.277c-.185.535-.575,1.659-.828,2.379a8.624,8.624,0,0,0,.279,3.165l-1.256-.133a11.415,11.415,0,0,1-.4-4.3C452.5,1281.044,454.655,1280.114,454.588,1280.491Z" fill="#e0b8b5"/>
            </g>
            <g>
              <path d="M442.984,1282.984c-.089-.264-.336-1.517-.341-1.525a27.445,27.445,0,0,0-1.131-4.3.918.918,0,0,0-.406-.334,3.785,3.785,0,0,0,1.058,4.027.617.617,0,0,1,.272.612C442.583,1281.7,442.862,1282.674,442.984,1282.984Zm-1.52-5.682a20.878,20.878,0,0,0,.593,2.892A1.96,1.96,0,0,1,441.464,1277.3Z" fill="#e0b8b5"/>
              <path d="M454.636,1281.405a.618.618,0,0,1,.272-.613,3.782,3.782,0,0,0,1.058-4.027.918.918,0,0,0-.406.334,27.36,27.36,0,0,0-1.13,4.3c0,.009-.253,1.262-.341,1.525C454.21,1282.613,454.489,1281.638,454.636,1281.405Zm.379-1.272a20.749,20.749,0,0,0,.593-2.891A1.959,1.959,0,0,1,455.015,1280.133Z" fill="#e0b8b5"/>
            </g>
            <path d="M438,1298.322a14.643,14.643,0,0,0,1.915,2.4,8.6,8.6,0,0,0,2.549,1.753,10.422,10.422,0,0,0,3.563.814,126.869,126.869,0,0,1,5.037,0,10.433,10.433,0,0,0,3.564-.814,8.61,8.61,0,0,0,2.549-1.753,14.691,14.691,0,0,0,1.914-2.4,30.519,30.519,0,0,0,2.5-5.76c-.187-.07-.382-.292-.584-.383a3.889,3.889,0,0,1,.153-.375,12.6,12.6,0,0,1-1.157-.514c.012-.023.023-.046.035-.071a7.074,7.074,0,0,1-.761-.309c-.813-.446-1.14-.745-2.06-1.222a15.624,15.624,0,0,1-2.952-1.823,3.2,3.2,0,0,1-.25-.537,23.663,23.663,0,0,0-5.535-.619,24.583,24.583,0,0,0-4.566.411c-.281.054-.554.113-.816.176a2.561,2.561,0,0,1-.283.569,24.632,24.632,0,0,1-3.035,1.823c-.967.513-1.274.776-2.087,1.222a7.244,7.244,0,0,1-.761.309c.012.025.023.048.035.071a12.491,12.491,0,0,1-1.158.514,4.4,4.4,0,0,1,.172.422c-.165.072-.325.278-.479.336A30.59,30.59,0,0,0,438,1298.322Z" fill="#e0b8b5"/>
          </g>
          <path d="M456.7,1270.788l.761.5a5.639,5.639,0,0,0-1.611-2.906c-1.271-1.11-1.567-.7-1.646-.878a4.461,4.461,0,0,1-.038-1.51l-1.695,1.207-.013-.007,1.708-1.585a3.284,3.284,0,0,0-2.373.119c-.974.374-1.081-.121-2.2-.238a4.173,4.173,0,0,0-2.685.519,3.8,3.8,0,0,1,1.337-.548c.645-.119,1.583-.267,1.583-.267a4.932,4.932,0,0,0-4.731.375,10.121,10.121,0,0,0-1.221,1.418,2.384,2.384,0,0,0-1.96.549,6.455,6.455,0,0,0-1.963,3.41l1.311-.742a3.492,3.492,0,0,0-.872.989,5.88,5.88,0,0,0-.206,2.968l.348-.469.052,3.116.741.168.488,1c.139.461.319,1.155.557,2.21a8.107,8.107,0,0,0,1.36,1.868,5.477,5.477,0,0,0,1.57,1.312,11.977,11.977,0,0,0,6.426,0,7.339,7.339,0,0,0,1.678-1.312,7.11,7.11,0,0,0,1.269-1.868,27.769,27.769,0,0,1,.8-3.047l.891-.562.27-3.618.331.947a2.934,2.934,0,0,0,.124-2.09A4.309,4.309,0,0,0,456.7,1270.788Zm-9.791-4.774h0Z" fill="#28497c"/>
          <g>
            <path d="M463.958,1347.481a56.146,56.146,0,0,0-.517-7.727c-.225-1.649-.559-2.834-1.007-5.06a.131.131,0,0,0-.039-.064c-.591-.188-6.543.055-13.36.055h-.646c-6.817,0-13.111-.254-13.757-.055a.122.122,0,0,0-.04.064c-.447,2.226-.749,3.411-.973,5.06a56.129,56.129,0,0,0-.518,7.727c-.013,1.069-.01,2.966,0,4.126-.015,1.958-.017,4.572.014,9.623,0,2.082.588,8.321.651,12.687.062,4.3-.7,10.493-.5,15.169.084,2.048.024,6.812.074,8.812-.028,2-.1,4.057-.055,5.615.015.465-.227,1.93-.218,2.372a3.36,3.36,0,0,0,.307,1.178,3.487,3.487,0,0,1,.3,1.617c.018.659-.354.823-.375,1.12-.038.545.492.934.7,1.293a5.677,5.677,0,0,0,3.07,1.662,16.779,16.779,0,0,0,2.187.273c3.624-.031,3.619-1.017,3.7-1.324a10.634,10.634,0,0,1,.55-1.485,2.49,2.49,0,0,0,.2-1.246,10.615,10.615,0,0,1-.331-1.5c-.054-.651.489-.555.516-1.544.037-1.353-.213-4.717-.129-6.347.135-2.618.423-12.331.432-13.2a80.031,80.031,0,0,1,.857-9.9c.2-1.464.243-5.235,1.081-12.42.092-.8,1.553-11.5,1.553-11.5h1.668l.024.093s1.384,10.644,1.472,11.4c.838,7.185.962,10.956,1.165,12.42a81.353,81.353,0,0,1,.829,9.9c.035,3.3.212,9.4.377,13.2-.017,1.632-.166,4.993-.129,6.347.028.989.57.893.516,1.544a10.478,10.478,0,0,1-.331,1.5,2.513,2.513,0,0,0,.205,1.246,10.521,10.521,0,0,1,.551,1.485c.082.307.077,1.293,3.7,1.324a16.779,16.779,0,0,0,2.187-.273,5.68,5.68,0,0,0,3.07-1.661c.212-.36.743-.749.7-1.294-.021-.3-.393-.461-.374-1.12a3.492,3.492,0,0,1,.3-1.617,3.36,3.36,0,0,0,.307-1.178c.009-.442-.233-1.907-.218-2.372.05-1.558-.026-3.611-.054-5.615.073-2.4.13-6.794.128-8.812,0-4.68-.567-10.872-.5-15.169.063-4.366.651-10.605.651-12.687.031-5.051.029-7.665.015-9.623C463.968,1350.447,463.971,1348.551,463.958,1347.481Z" fill="#2d4466"/>
            <g>
              <g>
                <g>
                  <path d="M462.242,1409.737c.2-.083,1.058-.566,1.423-.08,0,0-.03-.062-.2-.371a3.1,3.1,0,0,1,.166-2.223s-1.938,3.2-7.112,3.271A11.2,11.2,0,0,0,462.242,1409.737Z" fill="#1c2d47"/>
                  <path d="M453.545,1408.035s1.1,1.13,4.114.888a6.579,6.579,0,0,1-4.449-2.41s.063.137.26.506A1.368,1.368,0,0,1,453.545,1408.035Z" fill="#1c2d47"/>
                  <path d="M461.323,1411.067a12.757,12.757,0,0,1-5.814-.156c-1.866-.429-2.056-.816-2.069-.849a2.248,2.248,0,0,0,.131.353c.157.308.436,1.153.436,1.153-.034-.282.165-.41.5-.318a15.062,15.062,0,0,0,3.46.655,13.106,13.106,0,0,0,3.8-.437,5.825,5.825,0,0,1-1.771.66,13.194,13.194,0,0,1-3.412.278c-.818-.061-2.445-.3-2.574-.838a1.6,1.6,0,0,0,.257.69c.341.483,2.027.732,2.374.762a9.1,9.1,0,0,0,5.3-1.051,4.145,4.145,0,0,0,1.078-.893,7.588,7.588,0,0,0,.633-.9A4.484,4.484,0,0,1,461.323,1411.067Z" fill="#1c2d47"/>
                  <path d="M453.44,1410.062v0Z" fill="#1c2d47"/>
                </g>
                <g>
                  <path d="M433.339,1409.657c.365-.486,1.221,0,1.424.08a11.2,11.2,0,0,0,5.721.6c-5.175-.073-7.113-3.271-7.113-3.271a3.113,3.113,0,0,1,.167,2.223C433.369,1409.6,433.339,1409.657,433.339,1409.657Z" fill="#1c2d47"/>
                  <path d="M443.459,1408.035a1.362,1.362,0,0,1,.076-1.016c.2-.369.259-.506.259-.506a6.578,6.578,0,0,1-4.448,2.41C442.356,1409.165,443.459,1408.035,443.459,1408.035Z" fill="#1c2d47"/>
                  <path d="M443.564,1410.06v0Z" fill="#1c2d47"/>
                  <path d="M441.5,1410.911a12.757,12.757,0,0,1-5.814.156,4.482,4.482,0,0,1-2.323-.889,7.512,7.512,0,0,0,.634.9,4.14,4.14,0,0,0,1.077.893,9.1,9.1,0,0,0,5.3,1.05c.346-.029,2.032-.278,2.373-.761a1.573,1.573,0,0,0,.257-.69c-.128.538-1.756.777-2.574.838a13.187,13.187,0,0,1-3.411-.278,5.831,5.831,0,0,1-1.772-.66,13.106,13.106,0,0,0,3.8.437,15.086,15.086,0,0,0,3.461-.655c.334-.092.532.036.5.318,0,0,.279-.845.436-1.153a2.152,2.152,0,0,0,.131-.353C443.551,1410.1,443.361,1410.482,441.5,1410.911Z" fill="#1c2d47"/>
                </g>
                <path d="M456.1,1353.856a9.56,9.56,0,0,1-3.959-.717,5.251,5.251,0,0,1-3.012-3.039c-.248-.509-.387-8.391-.46-10.779-.054-1.741-.16-1.8-.225-.053-.089,2.408-.247,10.322-.495,10.832a5.253,5.253,0,0,1-3.013,3.039,9.578,9.578,0,0,1-3.918.718c-.623-.008-1.969,0-.08.255a11.718,11.718,0,0,0,4-.1c.711-.162,1.787.016,1.69.978-.187,1.874-2.431,4.943-3.5,7.72-.3.772,2.872-4.665,2.92-3.772.158,2.952-.285,1.06-.833,15.7l2.755-22.063h1.092l2.8,22.007c-.547-12.16-1.031-14.921-.949-15.527.172-1.28,2.733,5.088,2.433,4.053-1-3.451-2.754-6.092-2.893-7.827-.09-1.119.91-1.446,1.691-1.265a11.425,11.425,0,0,0,3.887.105C457.957,1353.876,456.694,1353.845,456.1,1353.856Z" fill="#1c2d47"/>
                <g>
                  <path d="M439.623,1379.115c1.887.5,4.711-.712,4.711-.712-.129,4.007-4.786,5.544-4.364,5.488a6.4,6.4,0,0,0,3.778-1.893c.086,1.028.041,2.709.281,8.5,0,0,.233-6.22.4-8.475.108-1.419.3-3.129.394-3.991.207-1.81.442-4.185.442-4.185C444.65,1379.629,439.623,1379.115,439.623,1379.115Z" fill="#1c2d47" fill-rule="evenodd"/>
                  <path d="M437.337,1381.871c-.94.023-2.237.046-2.237.046a7.273,7.273,0,0,0,7.19-1.209A18.727,18.727,0,0,1,437.337,1381.871Z" fill="#1c2d47"/>
                  <path d="M434.309,1379.044a4.493,4.493,0,0,1-.578-2.317l-.115,2.852a5.5,5.5,0,0,0,4.906.549C436.2,1380.22,434.731,1379.63,434.309,1379.044Z" fill="#1c2d47"/>
                </g>
                <g>
                  <path d="M452.691,1378.4s2.853,1.211,4.74.712c0,0-5.075.611-5.646-5.266,0,0,.234,2.375.442,4.185.1.862.286,2.572.394,3.991.17,2.255.347,8.475.347,8.475.241-5.793.252-7.474.337-8.5a6.4,6.4,0,0,0,3.779,1.893C457.506,1383.947,452.82,1382.41,452.691,1378.4Z" fill="#1c2d47"/>
                  <path d="M454.764,1380.708a7.275,7.275,0,0,0,7.19,1.21s-1.3-.023-2.238-.047A18.681,18.681,0,0,1,454.764,1380.708Z" fill="#1c2d47"/>
                  <path d="M463.437,1379.579l-.115-2.851a4.491,4.491,0,0,1-.578,2.316c-.422.587-1.886,1.176-4.213,1.084A5.5,5.5,0,0,0,463.437,1379.579Z" fill="#1c2d47"/>
                </g>
              </g>
              <g>
                <path d="M463.38,1337.511c-1.172.039-11.525.362-14.967.362s-13.951-.336-14.778-.364c-.023.112-.045.223-.066.332l0,.058c.109,0,11.268.366,14.847.366,3.529,0,14.276-.339,15.049-.364C463.435,1337.772,463.408,1337.643,463.38,1337.511Z" fill="#1c2d47"/>
                <path d="M462.751,1334.571c-.514-.029-2.3-.134-4.8-.062-3.4.1-7.556.206-9.539.206-1.961,0-6.1-.109-9.442-.208-2.528-.075-4.361.029-4.731.064-.023.112-.045.222-.067.332l0,.058c.049,0,2.019-.144,4.756-.063,3.356.1,7.515.209,9.486.209s6.108-.106,9.5-.2c2.663-.077,4.568.04,4.922.058C462.806,1334.832,462.779,1334.7,462.751,1334.571Z" fill="#1c2d47"/>
                <polygon points="448.53 1341.992 463.833 1340.127 463.801 1339.903 448.523 1341.764 433.233 1339.903 433.2 1340.127 448.516 1341.992 448.516 1341.994 448.523 1341.993 448.53 1341.994 448.53 1341.992" fill="#1c2d47"/>
                <path d="M449.055,1352.576l.452,3.353-.033-3.243,1.285.553s-1.348-.894-1.841-1.251c-.346-.25-.251-2.149-.251-2.149l0-11h-.245l0,10.974s.031,1.9-.334,2.137c-.554.357-2.013,1.285-2.013,1.285l1.388-.522.067,3.227.434-3.368C448.05,1352.573,448.968,1352.584,449.055,1352.576Z" fill="#1c2d47"/>
                <path d="M463.62,1340.094c-1.879.26-8.261-.712-15.075-.712-6.88,0-13.274.763-15.058.721-.036-.235-.047.649,0,.953,1.784.042,8.178-.926,15.058-.926,6.814,0,13.115.971,15,.711C463.565,1340.683,463.625,1340.062,463.62,1340.094Z" fill="#1c2d47"/>
              </g>
              <g>
                <g>
                  <g>
                    <path d="M444.456,1343.383s-3.422.027-4.6.029c-1.142,0-4.447-.021-4.447-.021l-.072,6.007c0,.515.436.729.754.885l.111.055c.865.44,3.483,1.562,3.582,1.6l.114.048.117-.041c.12-.042,2.66-1.164,3.631-1.605l.039-.018c.354-.16.838-.379.838-.928Z" fill="#1c2d47"/>
                    <path d="M439.91,1343.607c-2.139,0-4.121.121-4.274.131v5.618c0,.383.349.533.7.694.958.441,3.6,1.508,3.6,1.508s2.625-1.161,3.563-1.508c.363-.134.7-.311.7-.694v-5.618C444.077,1343.728,442.054,1343.607,439.91,1343.607Z" fill="#1c2d47"/>
                  </g>
                  <g>
                    <path d="M461.688,1343.383s-3.423.027-4.6.029c-1.142,0-4.448-.021-4.448-.021l-.071,6.007c0,.515.435.729.754.885l.111.055c.864.44,3.482,1.562,3.581,1.6l.114.048.118-.041c.119-.042,2.66-1.164,3.63-1.605l.039-.018c.354-.16.839-.379.839-.928Z" fill="#1c2d47"/>
                    <path d="M457.141,1343.607c-2.138,0-4.12.121-4.274.131v5.618c0,.383.35.533.7.694.958.441,3.587,1.508,3.587,1.508s2.641-1.161,3.58-1.508c.362-.134.7-.311.7-.694v-5.618C461.309,1343.728,459.286,1343.607,457.141,1343.607Z" fill="#1c2d47"/>
                  </g>
                </g>
                <g>
                  <g>
                    <rect x="447.811" y="1334.854" width="1.529" height="3.997" fill="#1c2d47"/>
                    <path d="M447.614,1334.7v4.363h1.924V1334.7Zm1.528,4h-1.133v-3.631h1.133Z" fill="#1c2d47"/>
                  </g>
                  <g>
                    <polygon points="459.878 1334.714 458.35 1334.714 458.802 1338.71 460.33 1338.71 459.878 1334.714" fill="#1c2d47"/>
                    <path d="M460.076,1334.557h-1.924l.452,4.362,1.924-.03Zm-1.529.366h1.134l.452,3.6-1.134.03Z" fill="#1c2d47"/>
                  </g>
                  <g>
                    <polygon points="437.088 1334.739 436.636 1338.735 438.165 1338.735 438.617 1334.739 437.088 1334.739" fill="#1c2d47"/>
                    <path d="M436.89,1334.582l-.48,4.332,1.952.03.48-4.362Zm1.077,4-1.133-.03.452-3.6h1.133Z" fill="#1c2d47"/>
                  </g>
                </g>
              </g>
            </g>
          </g>
          <g>
            <g>
              <path d="M434.235,1312.736c-.01-.384-.021-.768-.035-1.152-.046-1.243-.121-2.486-.261-3.721-.073-.638-.162-1.273-.271-1.9a18.115,18.115,0,0,0-.391-1.837,12.667,12.667,0,0,0-1.388-3.055c-.488-.809-1.008-1.6-1.566-2.359-.517-.7-2.718,4.554-2.727,4.663-.078.964-1.027,5.851-1.143,7.9,0,.054-.007.107-.009.157-.084,1.706.221,6.762.186,6.9a47.917,47.917,0,0,0-1.075,6.057c-.028.206-.146,1.537-.144,2.227a57.907,57.907,0,0,0,.516,7.349c-.014.285-.025.569-.03.854-.03,1.546.152,3.088.137,4.635-.012,1.313-.014,2.586-.143,3.884a4.042,4.042,0,0,0-.007.645c-.007.6.739,4.034.876,4.613a3.939,3.939,0,0,0,1.844,2.4c.49.353,1.545,1.378,2.325,1.343a.718.718,0,0,0,.613-.268c.5-.6-.991-2.646-1.3-3.194a6.716,6.716,0,0,1-.721-4.248,11.992,11.992,0,0,1,.821,2.768c.135.788.48,1.08.812,1.054a.842.842,0,0,0,.77-.671,5.268,5.268,0,0,0,.068-1.836c-.1-.918-.4-5.9-.711-6.79a15.216,15.216,0,0,0-1.067-2.142c-.417-.782,1.421-5.377,2.146-8.362.19-.744.328-1.287.377-1.486.086-.346.566-4,.558-4.508a18.906,18.906,0,0,1,.182-4.285C433.6,1317.982,433.962,1315.087,434.235,1312.736Z" fill="#fff0e2"/>
              <path d="M434.235,1312.754q-.014-.585-.035-1.17c-.046-1.243-.121-2.486-.261-3.721-.073-.638-.162-1.273-.271-1.9a18.115,18.115,0,0,0-.391-1.837,11.732,11.732,0,0,0-1.01-2.4c.03.1.059.2.089.3.369,1.553,1.016,4.444,1.016,4.444a37.115,37.115,0,0,1-.127,4.5c-1.232,8.559.11,6.279-2.008,9.469-.875,1.319-.787.817-.33,2.892.615,2.783-.018,3.543-.4,4.979-.889,3.356-.94,3.689-1.647,5.784-1.14,3.377-.256,4.077-.34,5.468-.127,2.12-1.354,4.935-1.033,6.453.7,3.288.8,2.659,2.094,3.965.4.408,1.008.828.478,1.738a1.3,1.3,0,0,1-.18.241,1.974,1.974,0,0,0,1.051.379.719.719,0,0,0,.613-.268c.5-.6-.992-2.646-1.305-3.194a6.715,6.715,0,0,1-.72-4.248c.043-.157.013-.042.049.014a12.278,12.278,0,0,1,.771,2.754c.136.788.481,1.08.813,1.054a.843.843,0,0,0,.77-.671,5.292,5.292,0,0,0,.068-1.836c-.1-.918-.4-5.9-.712-6.79a15.1,15.1,0,0,0-1.066-2.142c-.418-.782,1.421-5.377,2.145-8.362.19-.744.328-1.287.378-1.486.086-.346.565-4,.558-4.508a18.912,18.912,0,0,1,.181-4.285C433.6,1317.983,433.963,1315.1,434.235,1312.754Z" fill="#e0b8b5"/>
            </g>
            <g>
              <path d="M462.8,1312.736c.01-.384.021-.768.035-1.152.046-1.243.12-2.486.261-3.721.072-.638.161-1.273.271-1.9a17.586,17.586,0,0,1,.391-1.837,12.7,12.7,0,0,1,1.387-3.055c.489-.809,1.008-1.6,1.567-2.359.517-.7,2.717,4.554,2.726,4.663.079.964,1.028,5.851,1.144,7.9,0,.054.007.107.009.157.084,1.706-.222,6.762-.187,6.9a47.735,47.735,0,0,1,1.076,6.057c.027.206.146,1.537.144,2.227a58.015,58.015,0,0,1-.517,7.349c.014.285.026.569.031.854.03,1.546-.152,3.088-.138,4.635.013,1.313.014,2.586.144,3.884a4.042,4.042,0,0,1,.007.645c.007.6-.739,4.034-.876,4.613a3.943,3.943,0,0,1-1.844,2.4c-.491.353-1.546,1.378-2.326,1.343a.719.719,0,0,1-.613-.268c-.5-.6.992-2.646,1.3-3.194a6.709,6.709,0,0,0,.72-4.248,12.005,12.005,0,0,0-.82,2.768c-.136.788-.481,1.08-.813,1.054a.841.841,0,0,1-.769-.671,5.293,5.293,0,0,1-.069-1.836c.1-.918.4-5.9.712-6.79a15,15,0,0,1,1.067-2.142c.417-.782-1.422-5.377-2.146-8.362-.19-.744-.328-1.287-.378-1.486-.085-.346-.565-4-.558-4.508a18.912,18.912,0,0,0-.181-4.285C463.436,1317.982,463.075,1315.087,462.8,1312.736Z" fill="#fff0e2"/>
              <path d="M462.8,1312.754q.015-.585.036-1.17c.046-1.243.12-2.486.261-3.721.072-.638.161-1.273.271-1.9a17.586,17.586,0,0,1,.391-1.837,11.732,11.732,0,0,1,1.01-2.4c-.03.1-.059.2-.089.3-.37,1.553-1.016,4.444-1.016,4.444a37.115,37.115,0,0,0,.127,4.5c1.232,8.559-.11,6.279,2.007,9.469.876,1.319.981.87.33,2.892a7.361,7.361,0,0,0,.019,5.514,57.229,57.229,0,0,1,1.724,6.135,17.292,17.292,0,0,1,.642,4.582c.128,2.12,1.355,4.935,1.033,6.453-.7,3.288-.8,2.659-2.093,3.965-.4.408-1.008.828-.479,1.738a1.351,1.351,0,0,0,.18.241,1.969,1.969,0,0,1-1.05.379.718.718,0,0,1-.613-.268c-.5-.6.991-2.646,1.305-3.194a6.722,6.722,0,0,0,.72-4.248c-.044-.157-.013-.042-.049.014a12.274,12.274,0,0,0-.772,2.754c-.135.788-.48,1.08-.812,1.054a.842.842,0,0,1-.77-.671,5.268,5.268,0,0,1-.068-1.836c.1-.918.4-5.9.711-6.79a15.216,15.216,0,0,1,1.067-2.142c.417-.782-1.421-5.377-2.146-8.362-.19-.744-.328-1.287-.377-1.486-.086-.346-.566-4-.558-4.508a18.906,18.906,0,0,0-.182-4.285C463.434,1317.983,463.074,1315.1,462.8,1312.754Z" fill="#e0b8b5"/>
            </g>
            <g>
              <path d="M433.614,1317.611a32.146,32.146,0,0,1-7.065-1.423c.012.269.023.524.034.758a31.647,31.647,0,0,0,6.9,1.4C433.513,1318.227,433.559,1317.969,433.614,1317.611Z" fill="#e0b8b5"/>
              <path d="M470.48,1316.344c-2.3,1.362-6.7,1.774-6.908,1.468-.173-.256,0,1.09-.036.448a1.007,1.007,0,0,0,.028.108q.036.111.066.249c.532.247,4.643-.242,6.816-1.506C470.457,1316.877,470.468,1316.619,470.48,1316.344Z" fill="#e0b8b5"/>
            </g>
          </g>
          <g>
            <path d="M462.839,1312.068c0-.02.343,2.539.733,5.744.052.429,6.255-.288,7.843-2.226-.759-6.86-1.889-18.946-4.1-20.918l-.1-.081a22.421,22.421,0,0,0-4.732-2.826c-1.2-.434-4.927-1.946-4.927-1.946l-.869-.638a3.627,3.627,0,0,0-.311-.227c-.158-.115-.273-.2-.29-.207l.012.04a17.279,17.279,0,0,0-7.581-1.442c-3.8,0-7.226.854-8.331,2.039l-.6.435s-3.895,1.512-5.095,1.946a22.117,22.117,0,0,0-4.67,2.826l-.1.081c-2.276,2.031-3.724,14.239-4.472,21.078a32.579,32.579,0,0,0,8.425,1.873c-.021-.322.523-5.571.524-5.551,0-.036-.049,9.046-.089,10.769-.181,7.727-.451,16.207-.271,17.364,1.784.042,7.826-.819,14.706-.819,6.814,0,13.51.972,15.39.712.179-1.161-.826-9.53-1.007-17.257C462.888,1321.114,462.834,1312.032,462.839,1312.068Z" fill="#8498b5"/>
            <g opacity="0.3">
              <path d="M463.009,1324.741l-.025,0q-.045-1.023-.07-2.046c-.018-.741-.024-2.741-.049-4.752,0-.2.567-.071.759-.079.436-.019.934.15.911,0a18.938,18.938,0,0,1-.3-5.246,35.647,35.647,0,0,1,2.159-5.712s-1.016,1.414-1.5,2.275c-1.335,2.381-1.34,1.826-1.261,1.059,1.039-10.082,3.716-15.59,3.716-15.59a31.689,31.689,0,0,0-2.15,4.544,40.449,40.449,0,0,0-2.731,12.2c-.239-2.186-.757-10.475-.757-10.475a69.951,69.951,0,0,0-.021,11.009c.313,6.078.616,11.935.781,17.284-1.062-2.615-1.617-7.825-2.123-12.246,0,0,.215,5.924.824,10.588.472,3.621,1.863,6.146,2.236,8.883a14.223,14.223,0,0,1-.054,1.967,1.4,1.4,0,0,1-.687,1.087c-.223.116-4.557-.166-5.192-.215-1.944-.151-3.9-.412-5.844-.481-1.04-.037-2.109-.057-3.144-.057-.235,0-2.3.049-3.094.077-1.948.07-3.75.293-5.694.443-.634.049-5.184.7-5.577.157-.215-.3,1.1-9.586,1.43-10.966a97.732,97.732,0,0,0,1.695-13.673,72.228,72.228,0,0,1-2.695,12.3c.165-5.349.468-9.007.781-15.084a73.7,73.7,0,0,0-.105-11.009s-.422,8.313-.673,10.474a40.455,40.455,0,0,0-2.731-12.2,31.628,31.628,0,0,0-2.15-4.543s2.677,5.507,3.716,15.589c.079.768.074,1.322-1.26-1.058-.483-.861-1.5-2.275-1.5-2.275s2.056,3.642,2.16,5.711c.2,3.96-.2,4.748-.046,4.767.475.057,1.459.27,1.461.436.021,2.227-.079,4.122-.1,4.871-.016.682-.132,2.835-.154,3.227-.182,3.3-1.233,12.13-1.187,12.872.02.313.175,1.4.555,1.52,1.28.394,5.386-.138,5.864-.239,1.413-.118,5.9-.5,9.331-.523a73.586,73.586,0,0,1,9.56.469,22.123,22.123,0,0,0,5.656.326c.391-.067.541-1.221.561-1.535.047-.742-1.047-9.653-1.229-12.951C463.045,1325.529,463.027,1325.135,463.009,1324.741Z" fill="#2c3149"/>
              <path d="M441.336,1332.053s10.623-1.05,15.176.211A25.359,25.359,0,0,0,441.336,1332.053Z" fill="#2c3149"/>
              <path d="M467.3,1294.647l-.1-.08a22.451,22.451,0,0,0-4.733-2.826c-1.2-.434-4.927-1.947-4.927-1.947a8.312,8.312,0,0,0-1.111-.857l-.193-.116-.033-.02-.023-.013c-.865-.768-3.52-1.456-6.934-1.458l-.7-.009-.7.009a15.019,15.019,0,0,0-6.865,1.453,5.193,5.193,0,0,0-.519.351c-.492.368-.891.66-.891.66s-3.9,1.513-5.1,1.947a22.086,22.086,0,0,0-4.669,2.826l-.1.08c-.032.029-.063.059-.1.091a15,15,0,0,1,4.931-2.572c.817-.274,2.674-.938,3.962-1.336l0,.013a28.92,28.92,0,0,1,6.008-1.042c1.1-.085,2.46-.226,4-.216a52.263,52.263,0,0,1,5.315.389,41.285,41.285,0,0,1,5.514,1.108l.006-.021c1.239.353,2.387.881,3.053,1.105a16.046,16.046,0,0,1,4.994,2.572C467.364,1294.706,467.333,1294.676,467.3,1294.647Zm-22.851-5.17c-1.206.094-2.9.224-3.78.357a4.059,4.059,0,0,1,1.167-1.133,16.776,16.776,0,0,1,6.065-.994l.666-.009.665.009c3.381,0,5.893.584,6.628,1.313.091.09.751.523.866.919-1.461-.245-3.942-.416-5.448-.512A50.882,50.882,0,0,0,444.45,1289.477Z" fill="#2c3149"/>
              <g>
                <path d="M434.426,1321.769c.085-1.067.155-1.907.169-1.983.1-.5.315-4.171.3-4.7s-.023-5.113-.127-5.6a10.932,10.932,0,0,1-.321,1.944c-.037-.451-.125-1.142-.134-1.194-1.261-7.3-1.832-8.578-1.832-8.578s.878,4.882,1.3,8.194a44.09,44.09,0,0,1,.435,6.326c.026,1.371-.061,4.831-.122,7.477-.041.872-.1,1.925-.112,2.187-.231,4.179-1.111,8.908-1.277,13.083-.037.926-.019,1.642,1.308,1.607-.8-.036-.4-5.119-.179-7.031.35-2.972.323-3.1.449-4.421.112-1.189.587-2.367.969-4.23a21.738,21.738,0,0,0-.852,2.407C434.429,1326.147,434.437,1323.848,434.426,1321.769Z" fill="#2c3149"/>
                <path d="M463.091,1325.846c-.019-.333-.105-1.938-.141-2.831-.059-2.538-.131-5.571-.107-6.833a44.276,44.276,0,0,1,.435-6.326c.42-3.312,1.3-8.194,1.3-8.194s-.571,1.282-1.831,8.578c-.01.052-.1.743-.135,1.194a10.932,10.932,0,0,1-.321-1.944c-.1.485-.109,5.075-.127,5.6s.2,4.194.3,4.7c.015.079.091,1,.182,2.137-.01,2.038,0,4.251.032,5.338a21.948,21.948,0,0,0-.852-2.407c.382,1.863.856,3.041.969,4.23.125,1.325.1,1.449.448,4.421.225,1.912.623,6.995-.178,7.031,1.327.035,1.335-.483,1.3-1.41C464.192,1334.951,463.321,1330.025,463.091,1325.846Z" fill="#2c3149"/>
              </g>
            </g>
          </g>
        </g>
        <g>
          <path d="M486.478,1226.826v45.428s-1.391,2.782,9.271,2.782H532.37s2.781.463,2.781-4.172v-42.648s.464-1.854-5.563-1.39-41.256,0-42.183,0Z" fill="#f5f5f5"/>
          <path d="M495.676,1235.633h29.668q.231,14.833.463,29.668l-30.131.463Z" fill="#263854"/>
        </g>
      </g>
    </g>
  </g>
</svg>
