<svg xmlns="http://www.w3.org/2000/svg" viewBox="0 0 468 228.278">
  <title>Kunst2</title>
  <g id="Ebene_2" data-name="Ebene 2">
    <g id="Ebene_1-2" data-name="Ebene 1">
      <g>
        <ellipse cx="293.159" cy="221.872" rx="34.667" ry="6.406" fill="#f5f5f5"/>
        <path d="M251.976.042s3.792-.948,3.792,6.163.949,119.475.949,119.475,1.422,7.111-6.638,7.111H177.541a4.709,4.709,0,0,1-3.638-.083c-2.829-1.431-2.937-6.415-3-7.976-1.757-44.344-2.635-66.515-2.845-117.1,0-.88-.073-3.891,1.9-5.69A6.169,6.169,0,0,1,173.748.516C178.028.205,209.343.014,251.976.042Z" fill="#e6eaf5"/>
        <path d="M173.274,50.771c.192-6.478,1.167-8.541,1.423-13.749A49.529,49.529,0,0,0,173.274,22.8l.948-7.586c-.215-1.462-1.215-8.655.949-9.482.381-.146.97-.135,1.9.474a4.658,4.658,0,0,0,2.371.949,5.3,5.3,0,0,0,4.267-1.9,37.77,37.77,0,0,1,11.378.474c3.512.7,5.79,1.715,9.956,1.9a29.239,29.239,0,0,0,6.638-.474,107.6,107.6,0,0,0,10.9-.949c3.448-.48,6.383-1.068,7.586.474a3.182,3.182,0,0,1,.474,2.371,2.159,2.159,0,0,0,1.422-.948c.4-.756-.126-1.428,0-1.9.632-2.343,17.989-.808,18.016,1.423,0,.367-.463.52-.948.948-2.964,2.612-.383,9.973.474,12.8,2.346,7.743-.77,6.156.948,25.6.631,7.144,1.716,14.87.474,15.172-.618.15-1.7-1.569-1.9-1.423s1.136,1.522.948,2.371c-.473,2.14-10.654,1.2-23.231.948a234.668,234.668,0,0,0-26.55.474c-1.482.126-4.014.36-7.585.474-10.305.331-15.509.438-18.016-2.37C172.98,60.7,173.078,57.391,173.274,50.771Z" fill="#7f9cc4"/>
        <path d="M175.171,73.054s-1.9-5.452,5.452-5.452,12.09-.237,12.09-.237,12.9-.424,13.749,0c.948.474,12.326.948,12.326.948h3.319c.8.017,2.137.036,3.793,0a112.791,112.791,0,0,0,14.223-.948c2.151-.3,3.478-.575,5.215,0a7.864,7.864,0,0,1,4.02,3.058,8,8,0,0,1,1.195,4.054c.186,3.558.422,11.405.474,21.808a51.482,51.482,0,0,1,.475,8.06c-.123,6.226-1.257,6.227-.949,10.43.38,5.175,2.035,8.405.328,10.769a1.857,1.857,0,0,1-.8.61c-3.319,1.422-10.9,1.9-14.7,1.422a218.009,218.009,0,0,0-26.076-.474c-8.378.493-13.2,1.386-21.809,0a65.668,65.668,0,0,1-6.637-1.422c-1.932-.218-3.339-.822-3.793-1.422a1.894,1.894,0,0,1-.441-1.262,1.41,1.41,0,0,1,.053-.189,6.673,6.673,0,0,0-.086-2.342c-.371-1.445-.606-2.078-.948-3.319-.135-.489-.311-1.129-.474-1.9a22.573,22.573,0,0,1-.474-3.319c-.149-3.8,3.243-6.18,2.37-8.06-.048-.1-.348-.7-.948-1.9-.466-.928-.461-.913-.474-.949-.478-1.3.324-2.237.474-3.792a7.15,7.15,0,0,0-.474-2.845,30.982,30.982,0,0,1-.948-9.008c.275-3.52,1.421-3.8,1.422-7.112A15.156,15.156,0,0,0,175.171,73.054Z" fill="#345282"/>
        <path d="M468,180.054c-272.91-.567-467.349-.771-468,.635-.5,1.081,113.335,3.475,468,8.387Z" fill="#f5f5f5"/>
        <g>
          <g>
            <g>
              <path d="M284.245,223.857a35.3,35.3,0,0,0,7.809,1.218,6.253,6.253,0,0,0,2.426-.06,2.185,2.185,0,0,0,1.176-.695c.426-.491.277-1.508.185-2.487a13.238,13.238,0,0,0-.268-1.579,2.8,2.8,0,0,0-.313-1.3,1.327,1.327,0,0,0-1.478-.587,2.672,2.672,0,0,0-1.6.548c-.694.611-1.266,1.116-2.4.618-.909-.4-.349-1.9-1.267-1.637a6.279,6.279,0,0,1-3.817,1.564,2.565,2.565,0,0,0-1.782,1.329,1.93,1.93,0,0,0-.117,1.455A1.8,1.8,0,0,0,284.245,223.857Z" fill="#a5b3c9"/>
              <path d="M283.645,223.6a1.173,1.173,0,0,0,.386.141c.714.131.653-.544,1.524-.879a8.88,8.88,0,0,1,2.786-.18c3.689.58,5.4.3,5.113-1.567-.059-.389-.1-1.465-.959-1.49-.455-.013-.911.641-1.944.582a1.734,1.734,0,0,1-1.457-.643,4.316,4.316,0,0,1-.466-1.144.463.463,0,0,0-.508-.2c.236-.153.316-.322.459-.339.863-.1.287,1.261,1.2,1.659,1.136.5,1.714,0,2.4-.618a2.722,2.722,0,0,1,1.342-.514c1.265-.194,1.448.147,1.741.553a2.639,2.639,0,0,1,.313,1.3,13.238,13.238,0,0,1,.268,1.579,10.006,10.006,0,0,1,.016,2.518c-.146.468-.892.833-2.27.789-.032,0-.649.009-1.533-.065a34.34,34.34,0,0,1-7.809-1.218,3.013,3.013,0,0,1-.6-.261Z" fill="#8e9aad"/>
              <path d="M284.082,222.41a41.2,41.2,0,0,0,8.275,1.026,6.988,6.988,0,0,0,2-.017c1-.168,1.359-.3,1.568-.618a4.073,4.073,0,0,1-.141,1.6c-.13.275-.3.4-1.106.642a9.779,9.779,0,0,1-2.622-.045,35,35,0,0,1-7.809-1.218c-1.143-.368-1.353-.821-1.447-1.524a6.4,6.4,0,0,1-.067-.656A2.192,2.192,0,0,0,284.082,222.41Z" fill="#2c3149" opacity="0.3"/>
              <g>
                <path d="M288.029,218.159c.1-.013.17.034.14.14a2.4,2.4,0,0,0-.053.874.21.21,0,0,1-.136.231l-.017,0a.179.179,0,0,1-.21-.159,1.707,1.707,0,0,1,.021-.83A.354.354,0,0,1,288.029,218.159Z" fill="#8e9aad"/>
                <path d="M287.066,218.719c.054-.191.212-.263.3-.2s.088.119.044.241a2.242,2.242,0,0,0-.123.6c-.031.171-.077.234-.167.237H287.1c-.1-.007-.172-.125-.169-.263A3.042,3.042,0,0,1,287.066,218.719Z" fill="#8e9aad"/>
                <path d="M286.434,218.922c.059-.109.214-.157.276-.073s.06.117,0,.226a2.243,2.243,0,0,0-.161.432c-.031.118-.109.19-.182.174a.109.109,0,0,1-.023-.009.279.279,0,0,1-.081-.31A1.631,1.631,0,0,1,286.434,218.922Z" fill="#8e9aad"/>
                <path d="M285.69,219.313c.1-.175.23-.3.358-.251.063.025.079.112,0,.189a1.1,1.1,0,0,0-.129.214c-.053.112-.141.166-.209.136a.11.11,0,0,1-.031-.022C285.613,219.512,285.618,219.438,285.69,219.313Z" fill="#8e9aad"/>
              </g>
            </g>
            <g>
              <path d="M318.743,223.857a34.156,34.156,0,0,1-7.809,1.218,6.959,6.959,0,0,1-2.426-.06,2.185,2.185,0,0,1-1.176-.695c-.426-.491-.277-1.508-.185-2.487a13.238,13.238,0,0,1,.268-1.579,2.787,2.787,0,0,1,.313-1.3,1.327,1.327,0,0,1,1.478-.587,2.672,2.672,0,0,1,1.6.548c.694.611,1.266,1.116,2.4.618.909-.4.348-1.9,1.267-1.637a6.279,6.279,0,0,0,3.817,1.564,2.565,2.565,0,0,1,1.782,1.329,1.934,1.934,0,0,1,.117,1.455A1.8,1.8,0,0,1,318.743,223.857Z" fill="#a5b3c9"/>
              <path d="M319.343,223.6a1.173,1.173,0,0,1-.386.141c-.714.131-.653-.544-1.524-.879a8.884,8.884,0,0,0-2.787-.18c-3.689.58-5.4.3-5.112-1.567.059-.389.1-1.465.959-1.49.455-.013.911.641,1.944.582a1.734,1.734,0,0,0,1.457-.643,4.316,4.316,0,0,0,.466-1.144.462.462,0,0,1,.508-.2c-.236-.153-.316-.322-.46-.339-.862-.1-.286,1.261-1.195,1.659-1.136.5-1.714,0-2.4-.618a2.722,2.722,0,0,0-1.342-.514c-1.265-.194-1.448.147-1.741.553a2.628,2.628,0,0,0-.313,1.3,13.238,13.238,0,0,0-.268,1.579,8.822,8.822,0,0,0,.1,2.62c.1.322.863.719,1.8.719.032,0,.86-.064,1.891-.1a31.964,31.964,0,0,0,7.809-1.218,3.013,3.013,0,0,0,.6-.261Z" fill="#8e9aad"/>
              <path d="M318.906,222.41a40.377,40.377,0,0,1-8.275,1.026,9.023,9.023,0,0,1-2.074,0c-1-.168-1.283-.318-1.492-.635a4.073,4.073,0,0,0,.141,1.6c.13.275.3.4,1.106.642a7.868,7.868,0,0,0,2.568.008,35.594,35.594,0,0,0,7.863-1.271c1.143-.368,1.353-.821,1.447-1.524a6.4,6.4,0,0,0,.067-.656A2.192,2.192,0,0,1,318.906,222.41Z" fill="#2c3149" opacity="0.3"/>
              <g>
                <path d="M314.959,218.159c-.1-.013-.171.034-.14.14a2.4,2.4,0,0,1,.053.874.21.21,0,0,0,.135.231l.017,0a.179.179,0,0,0,.211-.159,1.707,1.707,0,0,0-.021-.83A.354.354,0,0,0,314.959,218.159Z" fill="#8e9aad"/>
                <path d="M315.922,218.719c-.054-.191-.212-.263-.3-.2s-.088.119-.044.241a2.242,2.242,0,0,1,.123.6c.031.171.077.234.167.237h.013c.1-.007.171-.125.168-.263A2.892,2.892,0,0,0,315.922,218.719Z" fill="#8e9aad"/>
                <path d="M316.554,218.922c-.06-.109-.214-.157-.276-.073s-.06.117,0,.226a2.243,2.243,0,0,1,.161.432c.031.118.109.19.181.174a.117.117,0,0,0,.024-.009.279.279,0,0,0,.081-.31A1.67,1.67,0,0,0,316.554,218.922Z" fill="#8e9aad"/>
                <path d="M317.3,219.313c-.1-.175-.231-.3-.358-.251-.064.025-.079.112,0,.189a1.207,1.207,0,0,1,.129.214c.053.112.141.166.209.136a.126.126,0,0,0,.031-.022C317.375,219.512,317.37,219.438,317.3,219.313Z" fill="#8e9aad"/>
              </g>
            </g>
          </g>
          <g>
            <path d="M314,100.457a3.889,3.889,0,0,1,.153-.375A12.6,12.6,0,0,1,313,99.568c.012-.023.023-.046.035-.071a7.074,7.074,0,0,1-.761-.309c-.813-.446-1.14-.745-2.06-1.222a15.624,15.624,0,0,1-2.952-1.823,7.219,7.219,0,0,1-.621-3.528c.305-.925,1-2.872,1-2.872a.511.511,0,0,0,.381.17c.615-.023.587-.631.794-1.053a3.9,3.9,0,0,0,.66-2.085c0-1.4.26-2.46-1.049-1.326,0,0-.058-3.52-.095-4.946-.039-1.539-.117-4.294-4.517-5.644a11.1,11.1,0,0,0-2.395-.256,9.776,9.776,0,0,0-2.185.256,7.4,7.4,0,0,0-2.886,1.662,5.272,5.272,0,0,0-1.682,3.982c-.036,1.426-.07,4.946-.069,4.946-1.35-1.136-1.072.145-1.072,1.541,0,1.023.4,1.236.71,1.87.207.422.2,1.03.818,1.053a.513.513,0,0,0,.381-.17s.591,1.71.933,2.682a6.6,6.6,0,0,1-.557,3.718,24.632,24.632,0,0,1-3.035,1.823c-.967.513-1.274.776-2.087,1.222a7.244,7.244,0,0,1-.761.309c.012.025.023.048.035.071a12.491,12.491,0,0,1-1.158.514,4.4,4.4,0,0,1,.172.422c-.165.072-.325.278-.479.336a30.59,30.59,0,0,0,2.5,5.76,14.643,14.643,0,0,0,1.915,2.4,8.6,8.6,0,0,0,2.549,1.753,10.422,10.422,0,0,0,3.563.814,126.869,126.869,0,0,1,5.037,0,10.433,10.433,0,0,0,3.564-.814A8.61,8.61,0,0,0,310.175,109a14.691,14.691,0,0,0,1.914-2.4,30.519,30.519,0,0,0,2.5-5.76C314.4,100.77,314.206,100.548,314,100.457Z" fill="#fff0e2"/>
            <g>
              <path d="M295.494,88.769a4.88,4.88,0,0,1,.047,1.277c.185.535.574,1.659.828,2.379a8.644,8.644,0,0,1-.28,3.165l1.308-.133a11.426,11.426,0,0,0,.4-4.3C297.632,89.322,295.427,88.392,295.494,88.769Z" fill="#e0b8b5"/>
              <path d="M307.588,88.769a4.924,4.924,0,0,0-.046,1.277c-.185.535-.575,1.659-.828,2.379a8.624,8.624,0,0,0,.279,3.165l-1.256-.133a11.415,11.415,0,0,1-.4-4.3C305.5,89.322,307.655,88.392,307.588,88.769Z" fill="#e0b8b5"/>
            </g>
            <g>
              <path d="M295.984,91.262c-.089-.264-.336-1.517-.341-1.525a27.486,27.486,0,0,0-1.131-4.3.92.92,0,0,0-.406-.333,3.785,3.785,0,0,0,1.058,4.027.617.617,0,0,1,.272.612C295.583,89.977,295.862,90.952,295.984,91.262Zm-1.52-5.682a20.878,20.878,0,0,0,.593,2.892A1.96,1.96,0,0,1,294.464,85.58Z" fill="#e0b8b5"/>
              <path d="M307.636,89.683a.618.618,0,0,1,.272-.613,3.782,3.782,0,0,0,1.058-4.027.918.918,0,0,0-.406.334,27.36,27.36,0,0,0-1.13,4.3c0,.009-.253,1.262-.341,1.525C307.21,90.891,307.489,89.916,307.636,89.683Zm.379-1.272a20.749,20.749,0,0,0,.593-2.891A1.959,1.959,0,0,1,308.015,88.411Z" fill="#e0b8b5"/>
            </g>
            <path d="M291,106.6a14.643,14.643,0,0,0,1.915,2.4,8.6,8.6,0,0,0,2.549,1.753,10.422,10.422,0,0,0,3.563.814,126.869,126.869,0,0,1,5.037,0,10.433,10.433,0,0,0,3.564-.814A8.61,8.61,0,0,0,310.175,109a14.691,14.691,0,0,0,1.914-2.4,30.519,30.519,0,0,0,2.5-5.76c-.187-.07-.382-.292-.584-.383a3.889,3.889,0,0,1,.153-.375A12.6,12.6,0,0,1,313,99.568c.012-.023.023-.046.035-.071a7.074,7.074,0,0,1-.761-.309c-.813-.446-1.14-.745-2.06-1.222a15.624,15.624,0,0,1-2.952-1.823,3.2,3.2,0,0,1-.25-.537,23.663,23.663,0,0,0-5.535-.619,24.583,24.583,0,0,0-4.566.411c-.281.054-.554.113-.816.176a2.561,2.561,0,0,1-.283.569,24.632,24.632,0,0,1-3.035,1.823c-.967.513-1.274.776-2.087,1.222a7.244,7.244,0,0,1-.761.309c.012.025.023.048.035.071a12.491,12.491,0,0,1-1.158.514,4.4,4.4,0,0,1,.172.422c-.165.072-.325.278-.479.336A30.59,30.59,0,0,0,291,106.6Z" fill="#e0b8b5"/>
          </g>
          <path d="M309.7,79.066l.761.5a5.639,5.639,0,0,0-1.611-2.906c-1.271-1.11-1.567-.7-1.646-.878a4.461,4.461,0,0,1-.038-1.51l-1.695,1.207-.013-.007,1.708-1.585a3.284,3.284,0,0,0-2.373.119c-.974.374-1.081-.121-2.2-.238a4.173,4.173,0,0,0-2.685.519,3.8,3.8,0,0,1,1.337-.548c.645-.119,1.583-.267,1.583-.267a4.932,4.932,0,0,0-4.731.375,10.121,10.121,0,0,0-1.221,1.418,2.384,2.384,0,0,0-1.96.549,6.455,6.455,0,0,0-1.963,3.41l1.311-.742a3.492,3.492,0,0,0-.872.989,5.88,5.88,0,0,0-.206,2.968l.348-.47.052,3.117.741.168.488,1c.139.461.319,1.155.557,2.21a8.111,8.111,0,0,0,1.36,1.867,5.471,5.471,0,0,0,1.57,1.313,11.977,11.977,0,0,0,6.426,0,7.324,7.324,0,0,0,1.678-1.313,7.1,7.1,0,0,0,1.269-1.867,27.769,27.769,0,0,1,.8-3.047l.891-.562.27-3.618.331.947a2.934,2.934,0,0,0,.124-2.09A4.309,4.309,0,0,0,309.7,79.066Zm-9.791-4.774h0Z" fill="#28497c"/>
          <g>
            <path d="M316.958,155.759a56.146,56.146,0,0,0-.517-7.727c-.225-1.649-.559-2.834-1.007-5.06a.131.131,0,0,0-.039-.064c-.591-.188-6.543.055-13.36.054h-.646c-6.817,0-13.111-.253-13.757-.054a.122.122,0,0,0-.04.064c-.447,2.226-.749,3.411-.973,5.06a56.129,56.129,0,0,0-.518,7.727c-.013,1.069-.01,2.966,0,4.126-.015,1.958-.017,4.572.014,9.623,0,2.082.588,8.321.651,12.687.062,4.3-.7,10.493-.5,15.169.084,2.048.024,6.812.074,8.812-.028,2-.1,4.057-.055,5.615.015.465-.227,1.93-.218,2.372a3.36,3.36,0,0,0,.307,1.178,3.487,3.487,0,0,1,.3,1.617c.018.659-.354.823-.375,1.12-.038.545.492.934.7,1.293a5.677,5.677,0,0,0,3.07,1.662,16.779,16.779,0,0,0,2.187.273c3.624-.031,3.619-1.017,3.7-1.324a10.634,10.634,0,0,1,.55-1.485,2.49,2.49,0,0,0,.2-1.246,10.615,10.615,0,0,1-.331-1.5c-.054-.651.489-.555.516-1.544.037-1.353-.213-4.717-.129-6.347.135-2.618.423-12.331.432-13.2a80.031,80.031,0,0,1,.857-9.9c.2-1.464.243-5.235,1.081-12.42.092-.8,1.553-11.5,1.553-11.5h1.668l.024.093s1.384,10.644,1.472,11.4c.838,7.185.962,10.956,1.165,12.42a81.353,81.353,0,0,1,.829,9.9c.035,3.3.212,9.4.377,13.2-.017,1.632-.166,4.993-.129,6.347.028.989.57.893.516,1.544a10.478,10.478,0,0,1-.331,1.5,2.513,2.513,0,0,0,.205,1.246,10.521,10.521,0,0,1,.551,1.485c.082.307.077,1.293,3.7,1.324a16.779,16.779,0,0,0,2.187-.273,5.68,5.68,0,0,0,3.07-1.661c.212-.36.743-.749.7-1.294-.021-.3-.393-.461-.374-1.12a3.492,3.492,0,0,1,.3-1.617,3.36,3.36,0,0,0,.307-1.178c.009-.442-.233-1.907-.218-2.372.05-1.558-.026-3.611-.054-5.615.073-2.405.13-6.794.128-8.812,0-4.68-.567-10.872-.5-15.169.063-4.366.651-10.6.651-12.687.031-5.051.029-7.665.015-9.623C316.968,158.725,316.971,156.829,316.958,155.759Z" fill="#2d4466"/>
            <g>
              <g>
                <g>
                  <path d="M315.242,218.015c.2-.083,1.058-.566,1.423-.08,0,0-.03-.062-.2-.371a3.1,3.1,0,0,1,.166-2.223s-1.938,3.2-7.112,3.271A11.2,11.2,0,0,0,315.242,218.015Z" fill="#1c2d47"/>
                  <path d="M306.545,216.313s1.1,1.13,4.114.888a6.579,6.579,0,0,1-4.449-2.41s.063.137.26.506A1.368,1.368,0,0,1,306.545,216.313Z" fill="#1c2d47"/>
                  <path d="M314.323,219.345a12.757,12.757,0,0,1-5.814-.156c-1.866-.429-2.056-.816-2.069-.849a2.248,2.248,0,0,0,.131.353c.157.308.436,1.153.436,1.153-.034-.282.165-.41.5-.318a15.062,15.062,0,0,0,3.46.655,13.106,13.106,0,0,0,3.8-.437,5.825,5.825,0,0,1-1.771.66,13.194,13.194,0,0,1-3.412.278c-.818-.061-2.445-.3-2.574-.838a1.6,1.6,0,0,0,.257.69c.341.483,2.027.732,2.374.761a9.094,9.094,0,0,0,5.3-1.05,4.145,4.145,0,0,0,1.078-.893,7.536,7.536,0,0,0,.633-.9A4.474,4.474,0,0,1,314.323,219.345Z" fill="#1c2d47"/>
                  <path d="M306.44,218.34v0Z" fill="#1c2d47"/>
                </g>
                <g>
                  <path d="M286.339,217.935c.365-.486,1.221,0,1.424.08a11.191,11.191,0,0,0,5.721.6c-5.175-.072-7.113-3.27-7.113-3.27a3.113,3.113,0,0,1,.167,2.223C286.369,217.873,286.339,217.935,286.339,217.935Z" fill="#1c2d47"/>
                  <path d="M296.459,216.313a1.362,1.362,0,0,1,.076-1.016c.2-.369.259-.506.259-.506a6.578,6.578,0,0,1-4.448,2.41C295.356,217.443,296.459,216.313,296.459,216.313Z" fill="#1c2d47"/>
                  <path d="M296.564,218.338v0Z" fill="#1c2d47"/>
                  <path d="M294.5,219.189a12.757,12.757,0,0,1-5.814.156,4.482,4.482,0,0,1-2.323-.889,7.512,7.512,0,0,0,.634.9,4.14,4.14,0,0,0,1.077.893,9.1,9.1,0,0,0,5.3,1.05c.346-.029,2.032-.278,2.373-.761a1.573,1.573,0,0,0,.257-.69c-.128.538-1.756.777-2.574.838a13.187,13.187,0,0,1-3.411-.278,5.831,5.831,0,0,1-1.772-.66,13.106,13.106,0,0,0,3.8.437,15.086,15.086,0,0,0,3.461-.655c.334-.092.532.036.5.318,0,0,.279-.845.436-1.153a2.152,2.152,0,0,0,.131-.353C296.551,218.373,296.361,218.76,294.5,219.189Z" fill="#1c2d47"/>
                </g>
                <path d="M309.1,162.134a9.56,9.56,0,0,1-3.959-.717,5.251,5.251,0,0,1-3.012-3.039c-.248-.509-.387-8.391-.46-10.779-.054-1.741-.16-1.8-.225-.053-.089,2.408-.247,10.322-.495,10.832a5.253,5.253,0,0,1-3.013,3.039,9.578,9.578,0,0,1-3.918.718c-.623-.008-1.969,0-.08.255a11.7,11.7,0,0,0,4-.1c.711-.161,1.787.017,1.69.979-.187,1.874-2.431,4.943-3.5,7.72-.3.772,2.872-4.665,2.92-3.772.158,2.952-.285,1.06-.833,15.7l2.755-22.063h1.092l2.8,22.007c-.547-12.16-1.031-14.921-.949-15.528.172-1.279,2.733,5.089,2.433,4.054-1-3.451-2.754-6.092-2.893-7.827-.09-1.119.91-1.446,1.691-1.265a11.45,11.45,0,0,0,3.887.105C310.957,162.154,309.694,162.122,309.1,162.134Z" fill="#1c2d47"/>
                <g>
                  <path d="M292.623,187.393c1.887.5,4.711-.712,4.711-.712-.129,4.007-4.786,5.544-4.364,5.488a6.4,6.4,0,0,0,3.778-1.893c.086,1.028.041,2.709.281,8.5,0,0,.233-6.22.4-8.475.108-1.419.3-3.129.394-3.991.207-1.81.442-4.185.442-4.185C297.65,187.907,292.623,187.393,292.623,187.393Z" fill="#1c2d47" fill-rule="evenodd"/>
                  <path d="M290.337,190.149c-.94.023-2.237.046-2.237.046a7.273,7.273,0,0,0,7.19-1.209A18.727,18.727,0,0,1,290.337,190.149Z" fill="#1c2d47"/>
                  <path d="M287.309,187.322a4.493,4.493,0,0,1-.578-2.317l-.115,2.852a5.5,5.5,0,0,0,4.906.549C289.2,188.5,287.731,187.908,287.309,187.322Z" fill="#1c2d47"/>
                </g>
                <g>
                  <path d="M305.691,186.681s2.853,1.211,4.74.712c0,0-5.075.61-5.646-5.266,0,0,.234,2.375.442,4.185.1.862.286,2.572.394,3.991.17,2.255.347,8.475.347,8.475.241-5.793.252-7.474.337-8.5a6.4,6.4,0,0,0,3.779,1.893C310.506,192.225,305.82,190.688,305.691,186.681Z" fill="#1c2d47"/>
                  <path d="M307.764,188.986a7.273,7.273,0,0,0,7.19,1.209s-1.3-.023-2.238-.046A18.72,18.72,0,0,1,307.764,188.986Z" fill="#1c2d47"/>
                  <path d="M316.437,187.857l-.115-2.852a4.493,4.493,0,0,1-.578,2.317c-.422.587-1.886,1.176-4.213,1.084A5.5,5.5,0,0,0,316.437,187.857Z" fill="#1c2d47"/>
                </g>
              </g>
              <g>
                <path d="M316.38,145.789c-1.172.039-11.525.362-14.967.362s-13.951-.336-14.778-.364c-.023.112-.045.223-.066.332l0,.058c.109,0,11.268.366,14.847.366,3.529,0,14.276-.339,15.049-.364C316.435,146.05,316.408,145.921,316.38,145.789Z" fill="#1c2d47"/>
                <path d="M315.751,142.849c-.514-.029-2.3-.134-4.8-.062-3.4.1-7.556.206-9.539.206-1.961,0-6.1-.109-9.442-.208-2.528-.075-4.361.029-4.731.064-.023.112-.045.222-.067.332l0,.058c.049,0,2.019-.144,4.756-.063,3.356.1,7.515.209,9.486.209s6.108-.106,9.5-.2c2.663-.077,4.568.04,4.922.058C315.806,143.11,315.779,142.981,315.751,142.849Z" fill="#1c2d47"/>
                <polygon points="301.53 150.27 316.833 148.405 316.801 148.181 301.523 150.042 286.233 148.181 286.2 148.405 301.516 150.27 301.516 150.272 301.523 150.271 301.53 150.272 301.53 150.27" fill="#1c2d47"/>
                <path d="M302.055,160.854l.452,3.353-.033-3.243,1.285.553s-1.348-.894-1.841-1.251c-.346-.25-.251-2.149-.251-2.149l0-11h-.245l0,10.974s.031,1.9-.334,2.137c-.554.357-2.013,1.285-2.013,1.285l1.388-.522.067,3.227.434-3.368C301.05,160.851,301.968,160.862,302.055,160.854Z" fill="#1c2d47"/>
                <path d="M316.62,148.372c-1.879.26-8.261-.712-15.075-.712-6.88,0-13.274.763-15.058.721-.036-.235-.047.649,0,.953,1.784.042,8.178-.926,15.058-.926,6.814,0,13.115.971,15,.711C316.565,148.961,316.625,148.34,316.62,148.372Z" fill="#1c2d47"/>
              </g>
              <g>
                <g>
                  <g>
                    <path d="M297.456,151.661s-3.422.027-4.6.029c-1.142,0-4.447-.021-4.447-.021l-.072,6.007c0,.515.436.729.754.885l.111.055c.865.44,3.483,1.562,3.582,1.6l.114.048.117-.041c.12-.042,2.66-1.164,3.631-1.6l.039-.018c.354-.16.838-.379.838-.928Z" fill="#1c2d47"/>
                    <path d="M292.91,151.885c-2.139,0-4.121.121-4.274.13v5.619c0,.383.349.533.7.694.958.441,3.6,1.508,3.6,1.508s2.625-1.161,3.563-1.508c.363-.134.7-.311.7-.694v-5.618C297.077,152.006,295.054,151.885,292.91,151.885Z" fill="#1c2d47"/>
                  </g>
                  <g>
                    <path d="M314.688,151.661s-3.423.027-4.6.029c-1.142,0-4.448-.021-4.448-.021l-.071,6.007c0,.515.435.729.754.885l.111.055c.864.44,3.482,1.562,3.581,1.6l.114.048.118-.041c.119-.042,2.66-1.164,3.63-1.6l.039-.018c.354-.16.839-.379.839-.928Z" fill="#1c2d47"/>
                    <path d="M310.141,151.885c-2.138,0-4.12.121-4.274.131v5.618c0,.383.35.533.7.694.958.441,3.587,1.508,3.587,1.508s2.641-1.161,3.58-1.508c.362-.134.7-.311.7-.694v-5.618C314.309,152.006,312.286,151.885,310.141,151.885Z" fill="#1c2d47"/>
                  </g>
                </g>
                <g>
                  <g>
                    <rect x="300.811" y="143.132" width="1.529" height="3.997" fill="#1c2d47"/>
                    <path d="M300.614,142.975v4.363h1.924v-4.363Zm1.528,4h-1.133v-3.631h1.133Z" fill="#1c2d47"/>
                  </g>
                  <g>
                    <polygon points="312.878 142.992 311.35 142.992 311.802 146.988 313.33 146.988 312.878 142.992" fill="#1c2d47"/>
                    <path d="M313.076,142.835h-1.924l.452,4.362,1.924-.03Zm-1.529.366h1.134l.452,3.6-1.134.03Z" fill="#1c2d47"/>
                  </g>
                  <g>
                    <polygon points="290.088 143.017 289.636 147.013 291.165 147.013 291.617 143.017 290.088 143.017" fill="#1c2d47"/>
                    <path d="M289.89,142.86l-.48,4.332,1.952.03.48-4.362Zm1.077,4-1.133-.03.452-3.6h1.133Z" fill="#1c2d47"/>
                  </g>
                </g>
              </g>
            </g>
          </g>
          <g>
            <g>
              <path d="M287.235,121.014c-.01-.384-.021-.768-.035-1.152-.046-1.243-.121-2.486-.261-3.721-.073-.638-.162-1.273-.271-1.905a18.115,18.115,0,0,0-.391-1.837,12.667,12.667,0,0,0-1.388-3.055c-.488-.809-1.008-1.6-1.566-2.359-.517-.7-2.718,4.554-2.727,4.663-.078.964-1.027,5.851-1.143,7.9,0,.054-.007.107-.009.157-.084,1.706.221,6.762.186,6.9a47.917,47.917,0,0,0-1.075,6.057c-.028.206-.146,1.537-.144,2.227a57.907,57.907,0,0,0,.516,7.349c-.014.285-.025.569-.03.854-.03,1.546.152,3.088.137,4.635-.012,1.313-.014,2.586-.143,3.884a4.042,4.042,0,0,0-.007.645c-.007.6.739,4.034.876,4.613a3.939,3.939,0,0,0,1.844,2.4c.49.353,1.545,1.378,2.325,1.343a.718.718,0,0,0,.613-.268c.5-.6-.991-2.646-1.3-3.194a6.716,6.716,0,0,1-.721-4.248,11.992,11.992,0,0,1,.821,2.768c.135.788.48,1.08.812,1.054a.842.842,0,0,0,.77-.671,5.268,5.268,0,0,0,.068-1.836c-.1-.918-.4-5.9-.711-6.79a15.216,15.216,0,0,0-1.067-2.142c-.417-.782,1.421-5.377,2.146-8.362.19-.744.328-1.287.377-1.486.086-.346.566-4,.558-4.508a18.918,18.918,0,0,1,.182-4.286C286.6,126.26,286.962,123.365,287.235,121.014Z" fill="#fff0e2"/>
              <path d="M287.235,121.032q-.014-.585-.035-1.17c-.046-1.243-.121-2.486-.261-3.721-.073-.638-.162-1.273-.271-1.905a18.115,18.115,0,0,0-.391-1.837,11.732,11.732,0,0,0-1.01-2.4c.03.1.059.2.089.3.369,1.554,1.016,4.445,1.016,4.445a37.115,37.115,0,0,1-.127,4.5c-1.232,8.559.11,6.279-2.008,9.469-.875,1.319-.787.817-.33,2.892.615,2.783-.018,3.543-.4,4.979-.889,3.356-.94,3.689-1.647,5.784-1.14,3.377-.256,4.077-.34,5.468-.127,2.12-1.354,4.935-1.033,6.453.7,3.288.8,2.659,2.094,3.965.4.408,1.008.828.478,1.738a1.3,1.3,0,0,1-.18.241,1.974,1.974,0,0,0,1.051.379.719.719,0,0,0,.613-.268c.5-.6-.992-2.646-1.305-3.194a6.715,6.715,0,0,1-.72-4.248c.043-.157.013-.042.049.014a12.278,12.278,0,0,1,.771,2.754c.136.788.481,1.08.813,1.054a.843.843,0,0,0,.77-.671,5.292,5.292,0,0,0,.068-1.836c-.1-.918-.4-5.9-.712-6.79a15.1,15.1,0,0,0-1.066-2.142c-.418-.782,1.421-5.377,2.145-8.362.19-.744.328-1.287.378-1.486.086-.346.565-4,.558-4.508a18.924,18.924,0,0,1,.181-4.286C286.6,126.261,286.963,123.38,287.235,121.032Z" fill="#e0b8b5"/>
            </g>
            <g>
              <path d="M315.8,121.014c.01-.384.021-.768.035-1.152.046-1.243.12-2.486.261-3.721.072-.638.161-1.273.271-1.905a17.586,17.586,0,0,1,.391-1.837,12.7,12.7,0,0,1,1.387-3.055c.489-.809,1.008-1.6,1.567-2.359.517-.7,2.717,4.554,2.726,4.663.079.964,1.028,5.851,1.144,7.9,0,.054.007.107.009.157.084,1.706-.222,6.762-.187,6.9a47.735,47.735,0,0,1,1.076,6.057c.027.206.146,1.537.144,2.227a58.015,58.015,0,0,1-.517,7.349c.014.285.026.569.031.854.03,1.546-.152,3.088-.138,4.635.013,1.313.014,2.586.144,3.884a4.042,4.042,0,0,1,.007.645c.007.6-.739,4.034-.876,4.613a3.943,3.943,0,0,1-1.844,2.4c-.491.353-1.546,1.378-2.326,1.343a.719.719,0,0,1-.613-.268c-.5-.6.992-2.646,1.3-3.194a6.709,6.709,0,0,0,.72-4.248,12.005,12.005,0,0,0-.82,2.768c-.136.788-.481,1.08-.813,1.054a.841.841,0,0,1-.769-.671,5.293,5.293,0,0,1-.069-1.836c.1-.918.4-5.9.712-6.79a15,15,0,0,1,1.067-2.142c.417-.782-1.422-5.377-2.146-8.362-.19-.744-.328-1.287-.378-1.486-.085-.346-.565-4-.558-4.508a18.924,18.924,0,0,0-.181-4.286C316.436,126.26,316.075,123.365,315.8,121.014Z" fill="#fff0e2"/>
              <path d="M315.8,121.032q.015-.585.036-1.17c.046-1.243.12-2.486.261-3.721.072-.638.161-1.273.271-1.905a17.586,17.586,0,0,1,.391-1.837,11.732,11.732,0,0,1,1.01-2.4c-.03.1-.059.2-.089.3-.37,1.554-1.016,4.445-1.016,4.445a37.115,37.115,0,0,0,.127,4.5c1.232,8.559-.11,6.279,2.007,9.469.876,1.319.981.87.33,2.892a7.361,7.361,0,0,0,.019,5.514,57.229,57.229,0,0,1,1.724,6.135,17.292,17.292,0,0,1,.642,4.582c.128,2.12,1.355,4.935,1.033,6.453-.7,3.288-.8,2.659-2.093,3.965-.4.408-1.008.828-.479,1.738a1.351,1.351,0,0,0,.18.241,1.969,1.969,0,0,1-1.05.379.718.718,0,0,1-.613-.268c-.5-.6.991-2.646,1.305-3.194a6.722,6.722,0,0,0,.72-4.248c-.044-.157-.013-.042-.049.014a12.274,12.274,0,0,0-.772,2.754c-.135.788-.48,1.08-.812,1.054a.842.842,0,0,1-.77-.671,5.268,5.268,0,0,1-.068-1.836c.1-.918.4-5.9.711-6.79a15.216,15.216,0,0,1,1.067-2.142c.417-.782-1.421-5.377-2.146-8.362-.19-.744-.328-1.287-.377-1.486-.086-.346-.566-4-.558-4.508a18.918,18.918,0,0,0-.182-4.286C316.434,126.261,316.074,123.38,315.8,121.032Z" fill="#e0b8b5"/>
            </g>
            <g>
              <path d="M286.614,125.889a32.146,32.146,0,0,1-7.065-1.423c.012.269.023.524.034.758a31.647,31.647,0,0,0,6.9,1.4C286.513,126.505,286.559,126.247,286.614,125.889Z" fill="#e0b8b5"/>
              <path d="M323.48,124.622c-2.3,1.362-6.7,1.774-6.908,1.468-.173-.256,0,1.09-.036.448a.92.92,0,0,0,.028.107c.024.075.046.158.066.25.532.247,4.643-.242,6.816-1.506C323.457,125.155,323.468,124.9,323.48,124.622Z" fill="#e0b8b5"/>
            </g>
          </g>
          <g>
            <path d="M315.839,120.346c0-.02.343,2.539.733,5.744.052.429,6.255-.288,7.843-2.226-.759-6.86-1.889-18.946-4.1-20.918l-.1-.081a22.421,22.421,0,0,0-4.732-2.826c-1.2-.434-4.927-1.946-4.927-1.946l-.869-.638a3.627,3.627,0,0,0-.311-.227c-.158-.115-.273-.2-.29-.207l.012.04a17.279,17.279,0,0,0-7.581-1.442c-3.8,0-7.226.854-8.331,2.039l-.6.435s-3.895,1.512-5.095,1.946a22.117,22.117,0,0,0-4.67,2.826l-.1.081c-2.276,2.031-3.724,14.239-4.472,21.078a32.579,32.579,0,0,0,8.425,1.873c-.021-.323.523-5.571.524-5.551,0-.036-.049,9.046-.089,10.769-.181,7.727-.451,16.207-.271,17.364,1.784.042,7.826-.819,14.706-.819,6.814,0,13.51.972,15.39.712.179-1.161-.826-9.53-1.007-17.257C315.888,129.392,315.834,120.31,315.839,120.346Z" fill="#8498b5"/>
            <g opacity="0.3">
              <path d="M316.009,133.019l-.025,0q-.045-1.023-.07-2.046c-.018-.741-.024-2.741-.049-4.752,0-.2.567-.071.759-.079.436-.019.934.15.911,0a18.938,18.938,0,0,1-.3-5.246,35.647,35.647,0,0,1,2.159-5.712s-1.016,1.414-1.5,2.275c-1.335,2.381-1.34,1.826-1.261,1.059,1.039-10.082,3.716-15.59,3.716-15.59a31.689,31.689,0,0,0-2.15,4.544,40.449,40.449,0,0,0-2.731,12.2c-.239-2.186-.757-10.475-.757-10.475a69.951,69.951,0,0,0-.021,11.009c.313,6.078.616,11.935.781,17.284-1.062-2.615-1.617-7.825-2.123-12.246,0,0,.215,5.924.824,10.588.472,3.621,1.863,6.146,2.236,8.883a14.223,14.223,0,0,1-.054,1.967,1.4,1.4,0,0,1-.687,1.087c-.223.115-4.557-.166-5.192-.215-1.944-.151-3.9-.412-5.844-.481-1.04-.037-2.109-.057-3.144-.057-.235,0-2.3.049-3.094.077-1.948.07-3.75.292-5.694.443-.634.049-5.184.7-5.577.157-.215-.3,1.1-9.586,1.43-10.967a97.725,97.725,0,0,0,1.695-13.672,72.228,72.228,0,0,1-2.695,12.3c.165-5.349.468-9.007.781-15.084a73.7,73.7,0,0,0-.105-11.009s-.422,8.313-.673,10.474a40.455,40.455,0,0,0-2.731-12.2,31.689,31.689,0,0,0-2.15-4.544s2.677,5.508,3.716,15.59c.079.768.074,1.322-1.26-1.058-.483-.861-1.5-2.275-1.5-2.275s2.056,3.642,2.16,5.711c.2,3.96-.2,4.748-.046,4.767.475.057,1.459.27,1.461.436.021,2.227-.079,4.122-.1,4.871-.016.682-.132,2.835-.154,3.227-.182,3.3-1.233,12.13-1.187,12.872.02.313.175,1.4.555,1.52,1.28.394,5.386-.138,5.864-.239,1.413-.118,5.9-.5,9.331-.523a73.586,73.586,0,0,1,9.56.469,22.123,22.123,0,0,0,5.656.326c.391-.067.541-1.221.561-1.535.047-.742-1.047-9.653-1.229-12.951C316.045,133.807,316.027,133.413,316.009,133.019Z" fill="#2c3149"/>
              <path d="M294.336,140.331s10.623-1.051,15.176.211A25.359,25.359,0,0,0,294.336,140.331Z" fill="#2c3149"/>
              <path d="M320.3,102.925l-.1-.08a22.451,22.451,0,0,0-4.733-2.826c-1.2-.434-4.927-1.947-4.927-1.947a8.312,8.312,0,0,0-1.111-.857l-.193-.116-.033-.02-.023-.013c-.865-.768-3.52-1.456-6.934-1.458l-.7-.009-.7.009a15.006,15.006,0,0,0-6.865,1.453,5.193,5.193,0,0,0-.519.351c-.492.368-.891.66-.891.66s-3.9,1.513-5.1,1.947a22.086,22.086,0,0,0-4.669,2.826l-.1.08c-.032.029-.063.059-.1.091a15,15,0,0,1,4.931-2.572c.817-.274,2.674-.938,3.962-1.336l0,.013a28.92,28.92,0,0,1,6.008-1.042c1.1-.085,2.46-.226,4-.216a52.263,52.263,0,0,1,5.315.389,41.285,41.285,0,0,1,5.514,1.108l.006-.021c1.239.353,2.387.881,3.053,1.105a16.046,16.046,0,0,1,4.994,2.572C320.364,102.984,320.333,102.954,320.3,102.925Zm-22.851-5.17c-1.206.094-2.9.224-3.78.357a4.059,4.059,0,0,1,1.167-1.133,16.776,16.776,0,0,1,6.065-.994l.666-.009.665.009c3.381,0,5.893.584,6.628,1.313.091.09.751.523.866.919-1.461-.245-3.942-.416-5.448-.512A50.882,50.882,0,0,0,297.45,97.755Z" fill="#2c3149"/>
              <g>
                <path d="M287.426,130.047c.085-1.067.155-1.907.169-1.983.1-.5.315-4.171.3-4.7s-.023-5.113-.127-5.6a10.932,10.932,0,0,1-.321,1.944c-.037-.451-.125-1.142-.134-1.194-1.261-7.3-1.832-8.578-1.832-8.578s.878,4.882,1.3,8.194a44.09,44.09,0,0,1,.435,6.326c.026,1.371-.061,4.831-.122,7.477-.041.872-.1,1.925-.112,2.187-.231,4.179-1.111,8.908-1.277,13.083-.037.926-.019,1.642,1.308,1.607-.8-.036-.4-5.119-.179-7.031.35-2.972.323-3.1.449-4.421.112-1.189.587-2.367.969-4.23a21.738,21.738,0,0,0-.852,2.407C287.429,134.425,287.437,132.126,287.426,130.047Z" fill="#2c3149"/>
                <path d="M316.091,134.124c-.019-.333-.105-1.938-.141-2.831-.059-2.538-.131-5.571-.107-6.833a44.276,44.276,0,0,1,.435-6.326c.42-3.312,1.3-8.194,1.3-8.194s-.571,1.282-1.831,8.578c-.01.052-.1.743-.135,1.194a10.932,10.932,0,0,1-.321-1.944c-.1.485-.109,5.075-.127,5.6s.2,4.194.3,4.7c.015.079.091,1,.182,2.137-.01,2.038,0,4.251.032,5.338a21.948,21.948,0,0,0-.852-2.407c.382,1.863.856,3.041.969,4.23.125,1.325.1,1.449.448,4.421.225,1.912.623,7-.178,7.031,1.327.035,1.335-.484,1.3-1.41C317.192,143.229,316.321,138.3,316.091,134.124Z" fill="#2c3149"/>
              </g>
            </g>
          </g>
        </g>
        <g>
          <path d="M339.478,35.1V80.532s-1.391,2.782,9.271,2.782H385.37s2.781.463,2.781-4.172V36.494s.464-1.854-5.563-1.39-41.256,0-42.183,0Z" fill="#f5f5f5"/>
          <path d="M348.676,43.911h29.668q.231,14.833.463,29.668l-30.131.463Z" fill="#263854"/>
        </g>
      </g>
    </g>
  </g>
</svg>
