<svg xmlns="http://www.w3.org/2000/svg" viewBox="0 0 365.86 50.455">
  <title>Element 29</title>
  <g id="Ebene_2" data-name="Ebene 2">
    <g id="Ebene_1-2" data-name="Ebene 1">
      <g>
        <path d="M51.358,10.415l2.937-.282v4.391h3.016v2.625H54.3v6.959a19.664,19.664,0,0,0,.094,2.441,1.533,1.533,0,0,0,.562.984,2.493,2.493,0,0,0,1.563.382,9,9,0,0,0,1.312-.11v2.608a11.652,11.652,0,0,1-2.437.283,4.683,4.683,0,0,1-2.8-.711,3.131,3.131,0,0,1-1.234-1.93,18.918,18.918,0,0,1-.266-3.719V17.149H49.045V14.524h2.141Z"/>
        <path d="M71.123,22.9H62.2q0,3.193.865,4.261a2.684,2.684,0,0,0,2.174,1.067q2.181,0,2.758-2.937l2.985.39Q69.81,30.7,65.139,30.7a5.633,5.633,0,0,1-4.563-2.047,9.177,9.177,0,0,1-1.7-6,10.058,10.058,0,0,1,1.719-6.281,5.515,5.515,0,0,1,4.594-2.219,5.23,5.23,0,0,1,3.39,1.109,5.9,5.9,0,0,1,1.938,2.914A17.228,17.228,0,0,1,71.123,22.9ZM67.8,20.7q0-4.172-2.719-4.172-2.547,0-2.8,4.172Z"/>
        <path d="M76.764,18.993,73.623,18.6a4.71,4.71,0,0,1,1.943-3.281,6.676,6.676,0,0,1,4-1.172A6.018,6.018,0,0,1,82.962,15a3.644,3.644,0,0,1,1.6,2.024,14.206,14.206,0,0,1,.328,3.547v5.375a21.416,21.416,0,0,0,.281,4.359H82.092a12.36,12.36,0,0,1-.2-2.625,4.735,4.735,0,0,1-4.43,3.016,4.3,4.3,0,0,1-3.2-1.227,4.543,4.543,0,0,1-1.209-3.336,5.064,5.064,0,0,1,1.771-4.078q1.769-1.5,6.136-1.5c.146,0,.375.006.687.016V19.93a5.109,5.109,0,0,0-.507-2.547,1.928,1.928,0,0,0-1.814-.859Q77.185,16.524,76.764,18.993Zm4.875,3.625q-.624-.063-.95-.063-4.239,0-4.238,3.328,0,2.423,2.1,2.422a2.637,2.637,0,0,0,2.158-1.312,6.165,6.165,0,0,0,.927-3.61Z"/>
        <path d="M99.483,19.836l-3.141.344a5.756,5.756,0,0,0-.8-2.758,1.934,1.934,0,0,0-1.594-.7,2.2,2.2,0,0,0-2.109,1.336,11.711,11.711,0,0,0-.656,4.7q0,5.25,2.765,5.25,2.126,0,2.391-3.422l3.141.282Q98.841,30.7,93.717,30.7a5.024,5.024,0,0,1-4.492-2.188,10.789,10.789,0,0,1-1.461-6.047,10.274,10.274,0,0,1,1.578-6.187,5.366,5.366,0,0,1,4.594-2.125Q98.795,14.149,99.483,19.836Z"/>
        <path d="M101.9,8.977h3.25v7.641a3.854,3.854,0,0,1,3.774-2.469,4.02,4.02,0,0,1,2.293.625,3.285,3.285,0,0,1,1.3,1.664,13.783,13.783,0,0,1,.368,3.93v9.937h-3.25V20.379q0-2.466-.565-3.035a1.885,1.885,0,0,0-1.395-.57q-2.525,0-2.525,4.511v9.02H101.9Z"/>
      </g>
      <g>
        <path d="M132.853,6.987V23.894a29.357,29.357,0,0,1-.187,4.039,5.474,5.474,0,0,1-1.11,2.39,5.759,5.759,0,0,1-2.429,1.86,9.167,9.167,0,0,1-3.555.632,10,10,0,0,1-4-.75,6.016,6.016,0,0,1-2.594-1.953,5.4,5.4,0,0,1-1.015-2.539q-.157-1.335-.157-5.617V6.987h6.578V25.956a7.463,7.463,0,0,0,.18,2.117.7.7,0,0,0,.727.461.76.76,0,0,0,.8-.508,9.429,9.429,0,0,0,.18-2.4V6.987Z" fill="#2b4392"/>
        <path d="M150.431,21.8q0,3.813-.179,5.4a6.043,6.043,0,0,1-3.68,4.914,9.3,9.3,0,0,1-3.75.7,9.526,9.526,0,0,1-3.649-.664,6.082,6.082,0,0,1-3.773-4.882,53.469,53.469,0,0,1-.187-5.469V17.472q0-3.813.179-5.4a6.046,6.046,0,0,1,3.68-4.914,9.3,9.3,0,0,1,3.75-.7,9.54,9.54,0,0,1,3.648.664A6.08,6.08,0,0,1,150.244,12a53.469,53.469,0,0,1,.187,5.469Zm-6.578-8.313a7.862,7.862,0,0,0-.2-2.258.779.779,0,0,0-.8-.492.9.9,0,0,0-.789.4,5.635,5.635,0,0,0-.273,2.351V25.3a11.622,11.622,0,0,0,.179,2.719.785.785,0,0,0,.836.515.81.81,0,0,0,.86-.594,12.517,12.517,0,0,0,.187-2.828Z" fill="#2b4392"/>
        <path d="M166.822,14.644h-6.109V12.769a3.678,3.678,0,0,0-.235-1.672.861.861,0,0,0-.781-.36,1,1,0,0,0-.9.485,2.814,2.814,0,0,0-.3,1.47,4.163,4.163,0,0,0,.343,1.908,4.963,4.963,0,0,0,1.858,1.546q4.394,2.607,5.533,4.279t1.141,5.39a9.454,9.454,0,0,1-.633,3.985,4.958,4.958,0,0,1-2.445,2.148,9.678,9.678,0,0,1-4.219.867,9.428,9.428,0,0,1-4.508-1,4.9,4.9,0,0,1-2.445-2.546,13.047,13.047,0,0,1-.578-4.391V23.222h6.109V26.3a4.049,4.049,0,0,0,.258,1.828,1,1,0,0,0,.914.406,1.071,1.071,0,0,0,.976-.515,2.938,2.938,0,0,0,.321-1.532,4.741,4.741,0,0,0-.61-2.922,19.449,19.449,0,0,0-3.078-2.3,30.277,30.277,0,0,1-3.25-2.36,5.514,5.514,0,0,1-1.32-2.031,8.938,8.938,0,0,1-.523-3.313,9.19,9.19,0,0,1,.742-4.25,4.993,4.993,0,0,1,2.4-2.1,9.571,9.571,0,0,1,4-.758,10.423,10.423,0,0,1,4.367.828,4.577,4.577,0,0,1,2.391,2.086,11.039,11.039,0,0,1,.586,4.274Z" fill="#2b4392"/>
      </g>
      <g>
        <path d="M86.277,48.521h1.559v1.763H86.277Z" fill="#4b7dcf"/>
        <path d="M89.62,48.521h1.559v1.763H89.62Z" fill="#4b7dcf"/>
        <path d="M92.963,48.521h1.559v1.763H92.963Z" fill="#4b7dcf"/>
        <path d="M96.313,40.953h5.181V42.19H97.858v2.789h2.912v1.238H97.858v4.067H96.313Z" fill="#4b7dcf"/>
        <path d="M102.205,40.953h1.511v5.79a7.259,7.259,0,0,0,.1,1.432,1.2,1.2,0,0,0,.469.732,1.97,1.97,0,0,0,1.9.048,1.2,1.2,0,0,0,.464-.629,6.023,6.023,0,0,0,.137-1.61V40.953h1.388v5.688a8.712,8.712,0,0,1-.2,2.105,2.127,2.127,0,0,1-.9,1.224,3.306,3.306,0,0,1-1.9.485,3.892,3.892,0,0,1-1.6-.3,2.085,2.085,0,0,1-1.029-.984,5.846,5.846,0,0,1-.349-2.424Zm1.21-1.634a.663.663,0,0,1,.222-.506.75.75,0,0,1,.523-.205.763.763,0,0,1,.52.2.651.651,0,0,1,.225.512.626.626,0,0,1-.232.5.78.78,0,0,1-.513.2.791.791,0,0,1-.509-.192A.619.619,0,0,1,103.415,39.319Zm2.174,0a.665.665,0,0,1,.222-.5.739.739,0,0,1,.523-.209.748.748,0,0,1,.523.205.663.663,0,0,1,.222.506.621.621,0,0,1-.232.506.777.777,0,0,1-1.026,0A.629.629,0,0,1,105.589,39.319Z" fill="#4b7dcf"/>
        <path d="M109.9,40.953h2.81a3.161,3.161,0,0,1,2.249.691,2.609,2.609,0,0,1,.725,1.982,2.512,2.512,0,0,1-1.429,2.44l1.77,4.218h-1.675l-1.451-3.9h-1.454v3.9H109.9Zm1.545,1.2v3.042h1.183a1.452,1.452,0,0,0,1.166-.437,1.7,1.7,0,0,0,.372-1.142q0-1.462-1.524-1.463Z" fill="#4b7dcf"/>
        <path d="M121.655,40.953h1.731l2.506,9.331h-1.564l-.586-2.338h-2.736l-.58,2.338h-1.473Zm1.783,5.776-1.07-4.272-1.06,4.272Z" fill="#4b7dcf"/>
        <path d="M126.821,40.953h1.545v8.026h3.3v1.3h-4.847Z" fill="#4b7dcf"/>
        <path d="M132.543,40.953h1.545v8.026h3.3v1.3h-4.847Z" fill="#4b7dcf"/>
        <path d="M138.265,40.953h5.345V42.19h-3.8v2.666h2.98V46.1h-2.98V49.02h3.862v1.264h-5.407Z" fill="#4b7dcf"/>
        <path d="M149.067,40.953H150.8l2.506,9.331H151.74l-.586-2.338h-2.735l-.581,2.338h-1.473Zm1.783,5.776-1.07-4.272-1.06,4.272Z" fill="#4b7dcf"/>
        <path d="M154.186,40.953h1.819l3.068,6.727V40.953h1.292v9.331h-1.442l-3.445-7.471v7.471h-1.292Z" fill="#4b7dcf"/>
        <path d="M165.274,45.5h3.117v4.854h-.824l-.207-1.183a2.381,2.381,0,0,1-2.244,1.285,2.811,2.811,0,0,1-2.442-1.268,5.951,5.951,0,0,1-.88-3.442,6.572,6.572,0,0,1,.871-3.626,2.967,2.967,0,0,1,2.673-1.337q2.513,0,3,2.844l-1.395.349a2.876,2.876,0,0,0-.661-1.559,1.465,1.465,0,0,0-.983-.355q-1.876,0-1.876,3.547,0,3.569,1.92,3.569,1.593,0,1.594-2.441h-1.668Z" fill="#4b7dcf"/>
        <path d="M169.977,40.953h5.345V42.19h-3.8v2.666h2.98V46.1h-2.98V49.02h3.862v1.264h-5.407Z" fill="#4b7dcf"/>
        <path d="M176.416,40.953h1.545v3.869h2.748V40.953h1.545v9.331h-1.545V46.128h-2.748v4.156h-1.545Z" fill="#4b7dcf"/>
        <path d="M184.045,40.953h5.346V42.19h-3.8v2.666h2.98V46.1h-2.98V49.02h3.862v1.264h-5.407Z" fill="#4b7dcf"/>
        <path d="M190.437,40.953h1.819l3.068,6.727V40.953h1.292v9.331h-1.442l-3.445-7.471v7.471h-1.292Z" fill="#4b7dcf"/>
        <path d="M198.353,40.953h2.1a4.771,4.771,0,0,1,2.439.54,3.381,3.381,0,0,1,1.382,1.607,5.806,5.806,0,0,1,.469,2.365,6.613,6.613,0,0,1-.421,2.437,3.912,3.912,0,0,1-1.286,1.726,4.022,4.022,0,0,1-2.467.656h-2.217ZM199.9,42.19v6.857h.644a2.168,2.168,0,0,0,1.959-.933,4.5,4.5,0,0,0,.609-2.492q0-3.432-2.568-3.432Z" fill="#4b7dcf"/>
        <path d="M206.221,40.953h5.346V42.19h-3.8v2.666h2.98V46.1h-2.98V49.02h3.862v1.264h-5.407Z" fill="#4b7dcf"/>
        <path d="M212.612,40.953h1.82L217.5,47.68V40.953h1.292v9.331H217.35L213.9,42.813v7.471h-1.292Z" fill="#4b7dcf"/>
        <path d="M223.14,40.953h1.545v8.026h3.3v1.3H223.14Z" fill="#4b7dcf"/>
        <path d="M228.861,40.953h5.346V42.19h-3.8v2.666h2.981V46.1h-2.981V49.02h3.863v1.264h-5.408Z" fill="#4b7dcf"/>
        <path d="M235.3,40.953h1.545v3.869h2.748V40.953h1.545v9.331h-1.545V46.128h-2.748v4.156H235.3Z" fill="#4b7dcf"/>
        <path d="M242.93,40.953h2.809a3.161,3.161,0,0,1,2.249.691,2.609,2.609,0,0,1,.725,1.982,2.512,2.512,0,0,1-1.429,2.44l1.771,4.218h-1.676l-1.45-3.9h-1.454v3.9H242.93Zm1.545,1.2v3.042h1.182a1.452,1.452,0,0,0,1.166-.437,1.7,1.7,0,0,0,.372-1.142q0-1.462-1.524-1.463Z" fill="#4b7dcf"/>
        <path d="M250.319,40.953h5.346V42.19h-3.8v2.666h2.981V46.1h-2.981V49.02h3.863v1.264h-5.408Z" fill="#4b7dcf"/>
        <path d="M256.759,40.953h2.809a3.157,3.157,0,0,1,2.249.691,2.609,2.609,0,0,1,.725,1.982,2.512,2.512,0,0,1-1.429,2.44l1.771,4.218h-1.676l-1.45-3.9H258.3v3.9h-1.545Zm1.545,1.2v3.042h1.182a1.452,1.452,0,0,0,1.166-.437,1.7,1.7,0,0,0,.373-1.142q0-1.462-1.525-1.463Z" fill="#4b7dcf"/>
        <path d="M264.149,40.953h1.544v9.331h-1.544Z" fill="#4b7dcf"/>
        <path d="M267.437,40.953h1.819l3.068,6.727V40.953h1.292v9.331h-1.442l-3.445-7.471v7.471h-1.292Z" fill="#4b7dcf"/>
        <path d="M275.305,40.953h1.82l3.067,6.727V40.953h1.292v9.331h-1.442L276.6,42.813v7.471h-1.292Z" fill="#4b7dcf"/>
        <path d="M283.221,40.953h5.346V42.19h-3.8v2.666h2.98V46.1h-2.98V49.02h3.862v1.264h-5.407Z" fill="#4b7dcf"/>
        <path d="M289.612,40.953h1.82L294.5,47.68V40.953h1.292v9.331H294.35L290.9,42.813v7.471h-1.292Z" fill="#4b7dcf"/>
        <path d="M300.071,40.953h1.511v5.79a7.165,7.165,0,0,0,.1,1.432,1.2,1.2,0,0,0,.467.732,1.972,1.972,0,0,0,1.905.048,1.2,1.2,0,0,0,.465-.629,6.08,6.08,0,0,0,.136-1.61V40.953h1.388v5.688a8.772,8.772,0,0,1-.194,2.105,2.134,2.134,0,0,1-.9,1.224,3.306,3.306,0,0,1-1.9.485,3.9,3.9,0,0,1-1.6-.3,2.085,2.085,0,0,1-1.029-.984,5.863,5.863,0,0,1-.349-2.424Z" fill="#4b7dcf"/>
        <path d="M307.721,40.953h1.82l3.067,6.727V40.953H313.9v9.331h-1.442l-3.445-7.471v7.471h-1.292Z" fill="#4b7dcf"/>
        <path d="M315.637,40.953h2.1a4.778,4.778,0,0,1,2.44.54A3.392,3.392,0,0,1,321.56,43.1a5.822,5.822,0,0,1,.468,2.365,6.613,6.613,0,0,1-.42,2.437,3.916,3.916,0,0,1-1.288,1.726,4.015,4.015,0,0,1-2.466.656h-2.217Zm1.545,1.237v6.857h.644a2.167,2.167,0,0,0,1.959-.933,4.5,4.5,0,0,0,.61-2.492q0-3.432-2.569-3.432Z" fill="#4b7dcf"/>
        <path d="M326.116,40.953h1.545v8.026h3.3v1.3h-4.847Z" fill="#4b7dcf"/>
        <path d="M331.838,40.953h5.346V42.19h-3.8v2.666h2.98V46.1h-2.98V49.02h3.862v1.264h-5.407Z" fill="#4b7dcf"/>
        <path d="M338.277,40.953h1.545v3.869h2.748V40.953h1.545v9.331H342.57V46.128h-2.748v4.156h-1.545Z" fill="#4b7dcf"/>
        <path d="M345.906,40.953h2.81a3.157,3.157,0,0,1,2.249.691,2.612,2.612,0,0,1,.725,1.982,2.514,2.514,0,0,1-1.429,2.44l1.77,4.218h-1.675l-1.451-3.9h-1.454v3.9h-1.545Zm1.545,1.2v3.042h1.183a1.45,1.45,0,0,0,1.165-.437,1.7,1.7,0,0,0,.373-1.142q0-1.462-1.524-1.463Z" fill="#4b7dcf"/>
        <path d="M353.3,40.953h5.346V42.19h-3.8v2.666h2.98V46.1h-2.98V49.02H358.7v1.264H353.3Z" fill="#4b7dcf"/>
        <path d="M359.735,40.953h2.81a3.161,3.161,0,0,1,2.249.691,2.609,2.609,0,0,1,.725,1.982,2.512,2.512,0,0,1-1.429,2.44l1.77,4.218h-1.675l-1.451-3.9H361.28v3.9h-1.545Zm1.545,1.2v3.042h1.183a1.452,1.452,0,0,0,1.166-.437A1.7,1.7,0,0,0,364,43.612q0-1.462-1.524-1.463Z" fill="#4b7dcf"/>
      </g>
      <g>
        <polygon points="10.968 40.014 10.432 39.305 15.422 35.427 15.958 36.136 10.968 40.014" fill="#3e008a"/>
        <ellipse cx="11.491" cy="40.191" rx="0.534" ry="1.356" transform="matrix(0.799, -0.601, 0.601, 0.799, -21.838, 14.961)" fill="#3e008a"/>
        <ellipse cx="22.171" cy="14.647" rx="3.808" ry="12.098" transform="translate(-0.802 28.002) rotate(-63.621)" fill="#2e3192"/>
        <ellipse cx="22.495" cy="16.978" rx="3.872" ry="10.932" transform="translate(0.662 34.799) rotate(-76.267)" fill="#2e3192"/>
        <ellipse cx="32.281" cy="21.609" rx="13.817" ry="7.562" transform="translate(-0.152 42.989) rotate(-67.192)" fill="#8a94ff"/>
        <ellipse cx="24.24" cy="29.131" rx="13.462" ry="8.154" transform="translate(-10.311 13.562) rotate(-25.98)" fill="#8a94ff"/>
        <ellipse cx="27.525" cy="33.449" rx="9.878" ry="2.779" transform="translate(-12.625 17.188) rotate(-28.501)" fill="#aab1ff"/>
        <ellipse cx="39.289" cy="18.305" rx="3.947" ry="1.922" transform="translate(14.63 53.95) rotate(-80.306)" fill="#2e3192"/>
        <ellipse cx="39.397" cy="18.365" rx="3.818" ry="1.981" transform="translate(11.889 52.021) rotate(-75.732)" fill="#f4f4ff"/>
        <ellipse cx="39.852" cy="17.633" rx="1.359" ry="0.811" transform="translate(16.726 54.569) rotate(-81.816)" fill="#2e3192"/>
        <ellipse cx="35.574" cy="5.597" rx="1.475" ry="6.074" transform="translate(0.738 14.723) rotate(-23.621)" fill="#2e3192"/>
        <ellipse cx="36.714" cy="6.2" rx="1.52" ry="5.414" transform="translate(-0.392 9.278) rotate(-14.327)" fill="#2e3192"/>
        <path d="M43.379,16.367c-.068-1.729-.745-3.073-1.863-3.377s-2.385.51-3.325,1.965Z" fill="#2e3192"/>
        <ellipse cx="14.288" cy="23.858" rx="4.534" ry="14.288" transform="translate(-9.644 38.023) rotate(-89.703)" fill="#2e3192"/>
        <ellipse cx="15.832" cy="26.182" rx="12.925" ry="4.606" transform="translate(-5.282 4.038) rotate(-12.475)" fill="#2e3192"/>
        <ellipse cx="32.646" cy="16.885" rx="5.343" ry="4.431" transform="translate(7.46 43.653) rotate(-74.092)" fill="#2e3192"/>
        <ellipse cx="32.646" cy="16.885" rx="5.123" ry="4.249" transform="translate(7.46 43.653) rotate(-74.092)" fill="#fff"/>
        <ellipse cx="32.005" cy="15.25" rx="1.757" ry="1.457" transform="matrix(0.274, -0.962, 0.962, 0.274, 8.567, 41.85)" fill="#2e3192"/>
        <path d="M36.737,13.9c-.294-2.361-1.566-4.238-3.463-4.731s-3.927.529-5.341,2.446Z" fill="#2e3192"/>
        <polygon points="7.605 35.336 7.429 34.375 14.214 33.121 14.391 34.083 7.605 35.336" fill="#3e008a"/>
        <ellipse cx="7.439" cy="35.858" rx="0.583" ry="1.492" transform="translate(-6.343 1.929) rotate(-10.386)" fill="#3e008a"/>
        <g>
          <path d="M35.918,23.164c-.021-.562-.142-4.529,1.184-4.942,1.117-.349,3.08,1.88,4.842,5.56" fill="#2e3192"/>
          <path d="M36.075,22.559c-.142.239-1.133,1.934-.505,2.509.528.484,2.119.1,3.938-.984" fill="#2e3192"/>
        </g>
        <ellipse cx="31.356" cy="14.332" rx="0.649" ry="0.587" transform="translate(8.865 40.461) rotate(-73.841)" fill="#fff"/>
        <ellipse cx="39.565" cy="16.536" rx="0.279" ry="0.252" transform="translate(12.671 49.936) rotate(-73.841)" fill="#fff"/>
      </g>
    </g>
  </g>
</svg>
