<?xml version="1.0" encoding="UTF-8" standalone="no"?><!DOCTYPE svg PUBLIC "-//W3C//DTD SVG 1.1//EN" "http://www.w3.org/Graphics/SVG/1.1/DTD/svg11.dtd"><svg width="100%" height="100%" viewBox="0 0 1412 274" version="1.1" xmlns="http://www.w3.org/2000/svg" xmlns:xlink="http://www.w3.org/1999/xlink" xml:space="preserve" xmlns:serif="http://www.serif.com/" style="fill-rule:evenodd;clip-rule:evenodd;stroke-linejoin:round;stroke-miterlimit:2;"><g><g transform="matrix(4.16667,0,0,4.16667,-487.126,-412.124)"><g transform="matrix(53.4282,0,0,53.4282,116.91,136.31)"><path d="M0.096,-0.479l0,-0.086l0.089,-0.04l0,0.126l0.072,0l0,0.067l-0.072,0l0,0.282l0.001,0.031c0.001,0.026 0.017,0.039 0.048,0.04l0.023,0.001l0,0.061l-0.029,0.005c-0.011,0.001 -0.022,0.002 -0.034,0.002c-0.061,0 -0.093,-0.025 -0.096,-0.073l-0.002,-0.053l0,-0.296l-0.063,0l0,-0.067l0.063,0Z" style="fill-rule:nonzero;"/></g><g transform="matrix(53.4282,0,0,53.4282,132.746,136.31)"><path d="M0.127,-0.157c0,0.033 0.003,0.056 0.008,0.069c0.009,0.019 0.028,0.03 0.058,0.03c0.04,0 0.062,-0.018 0.067,-0.054l0.002,-0.021l0,-0.011l0.089,0l0,0.011l-0.002,0.033c-0.007,0.074 -0.06,0.11 -0.158,0.11c-0.022,0 -0.043,-0.003 -0.063,-0.008c-0.025,-0.007 -0.045,-0.019 -0.059,-0.038c-0.02,-0.023 -0.03,-0.065 -0.03,-0.125l0,-0.136c-0.001,-0.067 0.009,-0.114 0.027,-0.14c0.025,-0.035 0.069,-0.052 0.131,-0.052c0.095,0.001 0.145,0.041 0.152,0.12c0.001,0.015 0.002,0.033 0.002,0.053l0,0.108l-0.224,0l0,0.051Zm0,-0.119l0.135,0l0,-0.055c-0.001,-0.06 -0.023,-0.09 -0.067,-0.091c-0.028,0.001 -0.048,0.013 -0.058,0.036c-0.006,0.013 -0.01,0.037 -0.01,0.071l0,0.039Z" style="fill-rule:nonzero;"/></g><g transform="matrix(53.4282,0,0,53.4282,153.513,136.31)"><path d="M0.058,-0.343c0,-0.02 0.002,-0.038 0.005,-0.053c0.004,-0.018 0.013,-0.035 0.027,-0.051c0.013,-0.015 0.03,-0.025 0.049,-0.031c0.022,-0.007 0.046,-0.011 0.07,-0.011c0.028,0 0.054,0.004 0.077,0.011c0.029,0.01 0.05,0.031 0.064,0.063c0.006,0.017 0.01,0.047 0.01,0.09l0,0.325l-0.089,0l0,-0.052c-0.016,0.025 -0.031,0.04 -0.045,0.048c-0.018,0.009 -0.039,0.014 -0.063,0.014c-0.018,0 -0.034,-0.003 -0.048,-0.008c-0.045,-0.016 -0.068,-0.058 -0.067,-0.127c0,-0.029 0.003,-0.055 0.009,-0.078c0.009,-0.04 0.04,-0.067 0.091,-0.08c0.021,-0.006 0.042,-0.009 0.064,-0.011l0.059,-0.002l0,-0.056c-0.001,-0.048 -0.021,-0.071 -0.06,-0.07c-0.023,0 -0.04,0.008 -0.05,0.023c-0.008,0.011 -0.012,0.029 -0.014,0.056l-0.089,0Zm0.213,0.114l-0.026,0c-0.073,0.004 -0.11,0.038 -0.108,0.101c-0.001,0.047 0.017,0.07 0.054,0.07c0.032,0.001 0.055,-0.015 0.069,-0.049c0.006,-0.013 0.009,-0.026 0.01,-0.039l0.001,-0.039l0,-0.044Z" style="fill-rule:nonzero;"/></g><g transform="matrix(53.4282,0,0,53.4282,175.271,136.31)"><path d="M0.05,-0.314c-0.001,-0.062 0.009,-0.106 0.029,-0.13c0.024,-0.029 0.065,-0.045 0.124,-0.045c0.093,0 0.14,0.04 0.141,0.117l0,0.04l-0.089,0l0,-0.013l-0.001,-0.024c-0.003,-0.035 -0.021,-0.053 -0.052,-0.053c-0.041,0 -0.062,0.021 -0.063,0.065l0,0.036l0,0.152l0.001,0.049c0.001,0.041 0.021,0.062 0.06,0.062c0.039,0 0.06,-0.024 0.061,-0.073l0,-0.019l0.089,0l0,0.022c-0.002,0.093 -0.051,0.139 -0.147,0.138c-0.029,0 -0.055,-0.004 -0.078,-0.012c-0.05,-0.017 -0.075,-0.07 -0.075,-0.16l0,-0.152Z" style="fill-rule:nonzero;"/></g><g transform="matrix(53.4282,0,0,53.4282,196.037,136.31)"><path d="M0.047,-0.689l0.089,0l0,0.252l0.017,-0.017c0.027,-0.024 0.057,-0.036 0.091,-0.035c0.073,0.001 0.111,0.037 0.114,0.108l0.001,0.057l0,0.324l-0.088,0l0,-0.304l-0.001,-0.035c-0.001,-0.026 -0.005,-0.045 -0.011,-0.057c-0.009,-0.017 -0.026,-0.026 -0.05,-0.026c-0.032,0 -0.053,0.012 -0.063,0.037c-0.005,0.013 -0.008,0.027 -0.009,0.04l-0.001,0.039l0,0.306l-0.089,0l0,-0.689Z" style="fill-rule:nonzero;"/></g><g transform="matrix(53.4282,0,0,53.4282,224.568,136.31)"><path d="M0.453,-0.426c-0.029,0.034 -0.09,0.114 -0.183,0.24c-0.039,0.052 -0.075,0.096 -0.109,0.132c-0.038,0.04 -0.07,0.06 -0.096,0.06c-0.017,0 -0.031,-0.009 -0.043,-0.028c-0.007,-0.014 -0.011,-0.03 -0.011,-0.048c0,-0.06 0.026,-0.141 0.078,-0.243c0.051,-0.1 0.117,-0.196 0.199,-0.291c0.034,-0.039 0.058,-0.058 0.071,-0.058c0.004,0 0.008,0.002 0.013,0.005c0.005,0.005 0.008,0.011 0.008,0.018c0,0.01 -0.007,0.022 -0.023,0.038c-0.004,0.004 -0.029,0.033 -0.076,0.088c-0.061,0.071 -0.114,0.154 -0.16,0.248c-0.019,0.041 -0.035,0.08 -0.046,0.118c-0.008,0.026 -0.012,0.047 -0.012,0.062c0,0.007 0.002,0.012 0.005,0.018c0.004,0.006 0.009,0.009 0.016,0.009c0.013,0 0.031,-0.014 0.055,-0.041c0.06,-0.068 0.157,-0.192 0.293,-0.369c0.034,-0.045 0.073,-0.092 0.116,-0.141c0.012,-0.013 0.021,-0.023 0.028,-0.029c0.007,-0.006 0.014,-0.009 0.024,-0.009c0.006,0 0.011,0.002 0.016,0.007c0.004,0.005 0.006,0.009 0.006,0.015c0,0.008 -0.007,0.023 -0.022,0.045c-0.074,0.111 -0.132,0.217 -0.175,0.318c-0.042,0.099 -0.064,0.173 -0.066,0.221c0,0.018 -0.001,0.028 -0.003,0.032c-0.003,0.006 -0.007,0.009 -0.014,0.009c-0.01,0 -0.019,-0.004 -0.026,-0.013c-0.005,-0.007 -0.008,-0.015 -0.008,-0.025c0,-0.021 0.006,-0.054 0.017,-0.097c0.014,-0.054 0.037,-0.114 0.069,-0.179c0.002,-0.004 0.021,-0.041 0.059,-0.112Z" style="fill:#2b4392;fill-rule:nonzero;"/></g><g transform="matrix(53.4282,0,0,53.4282,252.357,136.31)"><path d="M0.304,-0.605c-0.024,0.004 -0.053,0.015 -0.086,0.034c-0.007,0.004 -0.013,0.006 -0.017,0.006c-0.004,0 -0.009,-0.003 -0.013,-0.007c-0.005,-0.005 -0.007,-0.011 -0.007,-0.018c0,-0.008 0.004,-0.014 0.012,-0.02c0.02,-0.015 0.044,-0.027 0.074,-0.036c0.035,-0.013 0.068,-0.019 0.099,-0.019c0.04,0 0.072,0.014 0.096,0.041c0.023,0.024 0.034,0.054 0.034,0.089c0,0.059 -0.024,0.13 -0.071,0.214c-0.052,0.089 -0.114,0.17 -0.188,0.241c-0.063,0.06 -0.116,0.09 -0.161,0.09c-0.027,0 -0.048,-0.012 -0.064,-0.036c-0.013,-0.019 -0.019,-0.041 -0.019,-0.065c0,-0.061 0.021,-0.132 0.064,-0.212c0.056,-0.108 0.139,-0.209 0.247,-0.302Zm0.026,-0.005c0.005,0.006 0.008,0.012 0.008,0.017c0,0.004 -0.009,0.016 -0.026,0.035c-0.072,0.077 -0.125,0.141 -0.16,0.192c-0.035,0.053 -0.063,0.106 -0.082,0.159c-0.013,0.038 -0.02,0.072 -0.02,0.102c0,0.015 0.003,0.027 0.009,0.037c0.008,0.012 0.018,0.018 0.033,0.018c0.03,0 0.071,-0.026 0.121,-0.076c0.065,-0.065 0.117,-0.132 0.158,-0.201c0.046,-0.079 0.069,-0.146 0.069,-0.202c0,-0.026 -0.009,-0.047 -0.025,-0.064c-0.013,-0.012 -0.031,-0.019 -0.054,-0.019l-0.031,0.002Z" style="fill:#2b4392;fill-rule:nonzero;"/></g><g transform="matrix(53.4282,0,0,53.4282,276.18,136.31)"><path d="M0.074,-0.227c0.018,0 0.027,0.008 0.027,0.022c0,0.011 -0.009,0.019 -0.025,0.024c-0.028,0.01 -0.042,0.028 -0.042,0.055c0,0.02 0.008,0.037 0.025,0.048c0.014,0.01 0.031,0.015 0.053,0.015c0.043,0 0.08,-0.013 0.113,-0.038c0.02,-0.016 0.03,-0.036 0.03,-0.06c0,-0.015 -0.003,-0.029 -0.009,-0.041c-0.006,-0.012 -0.016,-0.028 -0.028,-0.047c-0.02,-0.029 -0.036,-0.056 -0.05,-0.08c-0.015,-0.026 -0.022,-0.053 -0.022,-0.078c0,-0.061 0.03,-0.118 0.09,-0.171c0.032,-0.028 0.067,-0.05 0.106,-0.068c0.032,-0.014 0.062,-0.021 0.092,-0.021c0.019,0 0.036,0.006 0.049,0.016c0.016,0.012 0.024,0.028 0.024,0.049c0,0.033 -0.017,0.068 -0.052,0.105c-0.034,0.036 -0.072,0.065 -0.117,0.087c-0.022,0.011 -0.039,0.017 -0.05,0.017c-0.007,0 -0.014,-0.003 -0.02,-0.009c-0.004,-0.005 -0.006,-0.009 -0.006,-0.015c0,-0.012 0.011,-0.021 0.032,-0.029c0.04,-0.014 0.075,-0.033 0.105,-0.059c0.039,-0.032 0.059,-0.061 0.059,-0.085c0,-0.01 -0.004,-0.017 -0.012,-0.023c-0.006,-0.005 -0.014,-0.007 -0.022,-0.007c-0.023,0 -0.051,0.009 -0.085,0.026c-0.045,0.023 -0.081,0.053 -0.107,0.089c-0.023,0.032 -0.034,0.062 -0.034,0.092c0,0.022 0.006,0.045 0.018,0.068c0.01,0.018 0.023,0.039 0.038,0.063c0.015,0.022 0.028,0.043 0.038,0.062c0.013,0.023 0.019,0.044 0.019,0.064c0,0.039 -0.022,0.073 -0.066,0.102c-0.038,0.025 -0.08,0.037 -0.127,0.037c-0.047,0 -0.083,-0.012 -0.11,-0.038c-0.02,-0.02 -0.029,-0.042 -0.029,-0.068c0,-0.028 0.009,-0.052 0.028,-0.071c0.011,-0.012 0.025,-0.02 0.04,-0.026c0.011,-0.004 0.02,-0.007 0.027,-0.007Z" style="fill:#2b4392;fill-rule:nonzero;"/></g></g><rect x="138.894" y="250.296" width="6.728" height="6.728" style="fill:#4b7dcf;fill-rule:nonzero;"/><rect x="153.137" y="250.296" width="6.728" height="6.728" style="fill:#4b7dcf;fill-rule:nonzero;"/><rect x="167.38" y="250.296" width="6.728" height="6.728" style="fill:#4b7dcf;fill-rule:nonzero;"/><path d="M201.275,212.902l0,4.975l-13.299,0l0,13.957l12.799,0l0,4.975l-12.799,0l0,20.215l-6.071,0l0,-44.122l19.37,0Z" style="fill:#4b7dcf;fill-rule:nonzero;"/><path d="M207.946,212.902l6.07,0l0,29.415l0.063,3.911c0.209,4.277 2.232,6.426 6.071,6.447c3.838,0 5.945,-2.013 6.321,-6.04c0.125,-1.418 0.198,-2.858 0.219,-4.318l0,-29.415l6.071,0l0,29.916c-0.021,2.44 -0.094,4.328 -0.219,5.663c-0.188,2.066 -0.856,3.787 -2.003,5.164c-2.232,2.649 -5.633,3.984 -10.202,4.005c-4.756,-0.021 -8.177,-1.335 -10.263,-3.943c-1.169,-1.481 -1.826,-3.223 -1.972,-5.226c-0.104,-1.168 -0.156,-3.056 -0.156,-5.663l0,-29.916Zm10.451,-10.765l0,5.727l-6.102,0l0,-5.727l6.102,0Zm3.943,0l6.102,0l0,5.727l-6.102,0l0,-5.727Z" style="fill:#4b7dcf;fill-rule:nonzero;"/><path d="M251.291,212.902l3.63,0c1.397,0.021 2.68,0.156 3.849,0.407c4.485,0.876 6.759,4.401 6.822,10.577c0,3.233 -0.595,5.705 -1.784,7.416c-1.148,1.606 -3.38,2.691 -6.697,3.254c2.066,0.23 3.547,0.616 4.444,1.158c1.314,0.793 2.128,2.065 2.441,3.818c0.208,1.168 0.344,2.535 0.406,4.099l0.251,5.195c0.104,1.982 0.271,3.536 0.5,4.662c0.126,0.814 0.418,1.993 0.877,3.536l-6.321,0l-0.595,-2.816c-0.167,-0.793 -0.282,-1.805 -0.344,-3.035l-0.219,-3.975l-0.219,-4.13c-0.272,-3.171 -1.502,-5.07 -3.693,-5.695c-0.939,-0.251 -2.003,-0.376 -3.192,-0.376l-4.193,0l0,20.027l-6.071,0l0,-44.122l10.108,0Zm-4.037,4.975l0,14.145l4.35,0c1.272,0 2.388,-0.094 3.348,-0.282c1.878,-0.355 3.171,-1.273 3.88,-2.754c0.459,-0.98 0.689,-2.607 0.689,-4.881c0,-2.462 -0.678,-4.173 -2.034,-5.132c-0.981,-0.71 -2.827,-1.075 -5.539,-1.096l-4.694,0Z" style="fill:#4b7dcf;fill-rule:nonzero;"/><path d="M295.841,212.902l7.98,0l10.17,44.122l-6.384,0l-2.096,-10.076l-11.797,0l-2.16,10.076l-5.883,0l10.17,-44.122Zm-1.095,29.071l9.638,0l-4.662,-23.501l-4.976,23.501Z" style="fill:#4b7dcf;fill-rule:nonzero;"/><path d="M320.661,212.902l6.071,0l0,39.147l12.861,0l0,4.975l-18.932,0l0,-44.122Z" style="fill:#4b7dcf;fill-rule:nonzero;"/><path d="M345.575,212.902l6.071,0l0,39.147l12.861,0l0,4.975l-18.932,0l0,-44.122Z" style="fill:#4b7dcf;fill-rule:nonzero;"/><path d="M370.458,212.902l19.871,0l0,4.975l-13.8,0l0,13.988l12.955,0l0,4.976l-12.955,0l0,15.208l14.206,0l0,4.975l-20.277,0l0,-44.122Z" style="fill:#4b7dcf;fill-rule:nonzero;"/><path d="M420.391,212.902l7.979,0l10.17,44.122l-6.383,0l-2.097,-10.076l-11.797,0l-2.159,10.076l-5.883,0l10.17,-44.122Zm-1.095,29.071l9.638,0l-4.663,-23.501l-4.975,23.501Z" style="fill:#4b7dcf;fill-rule:nonzero;"/><path d="M454.411,212.902l11.453,38.02l0,-38.02l5.695,0l0,44.122l-9.513,0l-11.453,-37.613l0,37.613l-5.695,0l0,-44.122l9.513,0Z" style="fill:#4b7dcf;fill-rule:nonzero;"/><path d="M491.779,238.624l0,-4.975l12.861,0l0,21.967l-3.098,0.939c-1.084,0.292 -2.274,0.521 -3.567,0.688c-1.961,0.292 -3.849,0.428 -5.664,0.407c-4.777,0 -8.178,-1.095 -10.201,-3.286c-1.773,-1.919 -2.671,-5.382 -2.691,-10.389l0,-15.959c0.02,-4.527 0.365,-7.625 1.032,-9.294c1.252,-3.108 3.557,-5.059 6.916,-5.851c1.585,-0.376 3.275,-0.574 5.069,-0.595c4.006,0.063 7.025,0.975 9.059,2.738c2.034,1.763 3.083,4.689 3.145,8.778l0,1.439l-6.07,0l0,-1.001c0,-0.689 -0.063,-1.408 -0.188,-2.159c-0.501,-3.213 -2.42,-4.819 -5.758,-4.819c-3.025,0.062 -5.017,1.022 -5.977,2.878c-0.584,1.023 -0.918,2.17 -1.001,3.443c-0.125,1.147 -0.178,2.388 -0.157,3.723l0,15.647c-0.021,3.379 0.282,5.685 0.908,6.915c0.959,1.94 2.983,2.879 6.071,2.817c1.147,0.021 2.305,-0.115 3.473,-0.407l2.629,-0.782l0,-12.862l-6.791,0Z" style="fill:#4b7dcf;fill-rule:nonzero;"/><path d="M512.844,212.902l19.871,0l0,4.975l-13.8,0l0,13.988l12.955,0l0,4.976l-12.955,0l0,15.208l14.207,0l0,4.975l-20.278,0l0,-44.122Z" style="fill:#4b7dcf;fill-rule:nonzero;"/><path d="M540.105,212.902l6.071,0l0,18.713l12.798,0l0,-18.713l6.071,0l0,44.122l-6.071,0l0,-20.434l-12.798,0l0,20.434l-6.071,0l0,-44.122Z" style="fill:#4b7dcf;fill-rule:nonzero;"/><path d="M573.374,212.902l19.871,0l0,4.975l-13.8,0l0,13.988l12.955,0l0,4.976l-12.955,0l0,15.208l14.206,0l0,4.975l-20.277,0l0,-44.122Z" style="fill:#4b7dcf;fill-rule:nonzero;"/><path d="M609.897,212.902l11.453,38.02l0,-38.02l5.696,0l0,44.122l-9.513,0l-11.453,-37.613l0,37.613l-5.696,0l0,-44.122l9.513,0Z" style="fill:#4b7dcf;fill-rule:nonzero;"/><path d="M635.249,212.902l10.827,0c1.795,0 3.495,0.125 5.101,0.375c1.836,0.272 3.453,0.887 4.851,1.847c2.419,1.627 3.828,3.901 4.224,6.821c0.188,1.44 0.292,3.057 0.313,4.851l0,16.241c-0.063,5.444 -1.012,9.106 -2.848,10.983c-1.397,1.44 -3.077,2.358 -5.038,2.754c-0.834,0.167 -2.764,0.25 -5.789,0.25l-11.641,0l0,-44.122Zm6.071,4.975l0,34.172l5.601,0c3.359,0 5.508,-0.866 6.447,-2.597c0.772,-1.461 1.147,-3.87 1.126,-7.229l0,-14.958c0,-3.359 -0.407,-5.664 -1.22,-6.916c-1.064,-1.606 -3.182,-2.43 -6.353,-2.472l-5.601,0Z" style="fill:#4b7dcf;fill-rule:nonzero;"/><path d="M668.331,212.902l19.87,0l0,4.975l-13.8,0l0,13.988l12.955,0l0,4.976l-12.955,0l0,15.208l14.207,0l0,4.975l-20.277,0l0,-44.122Z" style="fill:#4b7dcf;fill-rule:nonzero;"/><path d="M704.854,212.902l11.453,38.02l0,-38.02l5.695,0l0,44.122l-9.513,0l-11.453,-37.613l0,37.613l-5.695,0l0,-44.122l9.513,0Z" style="fill:#4b7dcf;fill-rule:nonzero;"/><path d="M744.273,212.902l6.07,0l0,39.147l12.862,0l0,4.975l-18.932,0l0,-44.122Z" style="fill:#4b7dcf;fill-rule:nonzero;"/><path d="M769.155,212.902l19.871,0l0,4.975l-13.8,0l0,13.988l12.955,0l0,4.976l-12.955,0l0,15.208l14.207,0l0,4.975l-20.278,0l0,-44.122Z" style="fill:#4b7dcf;fill-rule:nonzero;"/><path d="M796.416,212.902l6.071,0l0,18.713l12.798,0l0,-18.713l6.071,0l0,44.122l-6.071,0l0,-20.434l-12.798,0l0,20.434l-6.071,0l0,-44.122Z" style="fill:#4b7dcf;fill-rule:nonzero;"/><path d="M839.824,212.902l3.63,0c1.397,0.021 2.68,0.156 3.849,0.407c4.485,0.876 6.759,4.401 6.821,10.577c0,3.233 -0.594,5.705 -1.783,7.416c-1.148,1.606 -3.38,2.691 -6.697,3.254c2.065,0.23 3.547,0.616 4.444,1.158c1.314,0.793 2.128,2.065 2.441,3.818c0.208,1.168 0.344,2.535 0.406,4.099l0.251,5.195c0.104,1.982 0.271,3.536 0.5,4.662c0.126,0.814 0.418,1.993 0.877,3.536l-6.322,0l-0.594,-2.816c-0.167,-0.793 -0.282,-1.805 -0.344,-3.035l-0.219,-3.975l-0.219,-4.13c-0.272,-3.171 -1.502,-5.07 -3.693,-5.695c-0.939,-0.251 -2.003,-0.376 -3.192,-0.376l-4.193,0l0,20.027l-6.071,0l0,-44.122l10.108,0Zm-4.037,4.975l0,14.145l4.35,0c1.272,0 2.388,-0.094 3.348,-0.282c1.878,-0.355 3.171,-1.273 3.88,-2.754c0.459,-0.98 0.689,-2.607 0.689,-4.881c0,-2.462 -0.678,-4.173 -2.034,-5.132c-0.981,-0.71 -2.827,-1.075 -5.539,-1.096l-4.694,0Z" style="fill:#4b7dcf;fill-rule:nonzero;"/><path d="M861.734,212.902l19.87,0l0,4.975l-13.8,0l0,13.988l12.955,0l0,4.976l-12.955,0l0,15.208l14.207,0l0,4.975l-20.277,0l0,-44.122Z" style="fill:#4b7dcf;fill-rule:nonzero;"/><path d="M899.164,212.902l3.63,0c1.398,0.021 2.681,0.156 3.849,0.407c4.486,0.876 6.76,4.401 6.822,10.577c0,3.233 -0.594,5.705 -1.784,7.416c-1.147,1.606 -3.379,2.691 -6.696,3.254c2.065,0.23 3.546,0.616 4.443,1.158c1.315,0.793 2.128,2.065 2.441,3.818c0.209,1.168 0.344,2.535 0.407,4.099l0.25,5.195c0.105,1.982 0.272,3.536 0.501,4.662c0.125,0.814 0.417,1.993 0.876,3.536l-6.321,0l-0.594,-2.816c-0.167,-0.793 -0.282,-1.805 -0.345,-3.035l-0.219,-3.975l-0.219,-4.13c-0.271,-3.171 -1.502,-5.07 -3.692,-5.695c-0.939,-0.251 -2.003,-0.376 -3.192,-0.376l-4.193,0l0,20.027l-6.071,0l0,-44.122l10.107,0Zm-4.036,4.975l0,14.145l4.349,0c1.273,0 2.389,-0.094 3.349,-0.282c1.877,-0.355 3.171,-1.273 3.88,-2.754c0.459,-0.98 0.688,-2.607 0.688,-4.881c0,-2.462 -0.678,-4.173 -2.034,-5.132c-0.98,-0.71 -2.826,-1.075 -5.538,-1.096l-4.694,0Z" style="fill:#4b7dcf;fill-rule:nonzero;"/><rect x="920.98" y="212.902" width="6.071" height="44.122" style="fill:#4b7dcf;fill-rule:nonzero;"/><path d="M944.549,212.902l11.453,38.02l0,-38.02l5.695,0l0,44.122l-9.513,0l-11.453,-37.613l0,37.613l-5.695,0l0,-44.122l9.513,0Z" style="fill:#4b7dcf;fill-rule:nonzero;"/><path d="M978.976,212.902l11.453,38.02l0,-38.02l5.695,0l0,44.122l-9.513,0l-11.453,-37.613l0,37.613l-5.695,0l0,-44.122l9.513,0Z" style="fill:#4b7dcf;fill-rule:nonzero;"/><path d="M1004.17,212.902l19.871,0l0,4.975l-13.8,0l0,13.988l12.955,0l0,4.976l-12.955,0l0,15.208l14.207,0l0,4.975l-20.278,0l0,-44.122Z" style="fill:#4b7dcf;fill-rule:nonzero;"/><path d="M1040.69,212.902l11.454,38.02l0,-38.02l5.695,0l0,44.122l-9.513,0l-11.453,-37.613l0,37.613l-5.695,0l0,-44.122l9.512,0Z" style="fill:#4b7dcf;fill-rule:nonzero;"/><path d="M1080.11,212.902l6.071,0l0,29.415l0.062,3.911c0.209,4.277 2.233,6.426 6.071,6.447c3.839,0 5.946,-2.013 6.321,-6.04c0.125,-1.418 0.198,-2.858 0.219,-4.318l0,-29.415l6.071,0l0,29.916c-0.021,2.44 -0.094,4.328 -0.219,5.663c-0.188,2.066 -0.855,3.787 -2.003,5.164c-2.232,2.649 -5.632,3.984 -10.201,4.005c-4.757,-0.021 -8.178,-1.335 -10.264,-3.943c-1.168,-1.481 -1.825,-3.223 -1.971,-5.226c-0.105,-1.168 -0.157,-3.056 -0.157,-5.663l0,-29.916Z" style="fill:#4b7dcf;fill-rule:nonzero;"/><path d="M1122.55,212.902l11.453,38.02l0,-38.02l5.695,0l0,44.122l-9.513,0l-11.453,-37.613l0,37.613l-5.695,0l0,-44.122l9.513,0Z" style="fill:#4b7dcf;fill-rule:nonzero;"/><path d="M1147.9,212.902l10.827,0c1.794,0 3.494,0.125 5.101,0.375c1.835,0.272 3.452,0.887 4.85,1.847c2.42,1.627 3.828,3.901 4.224,6.821c0.188,1.44 0.293,3.057 0.313,4.851l0,16.241c-0.062,5.444 -1.011,9.106 -2.847,10.983c-1.398,1.44 -3.077,2.358 -5.038,2.754c-0.835,0.167 -2.764,0.25 -5.789,0.25l-11.641,0l0,-44.122Zm6.071,4.975l0,34.172l5.601,0c3.359,0 5.507,-0.866 6.446,-2.597c0.772,-1.461 1.148,-3.87 1.127,-7.229l0,-14.958c0,-3.359 -0.407,-5.664 -1.221,-6.916c-1.064,-1.606 -3.181,-2.43 -6.352,-2.472l-5.601,0Z" style="fill:#4b7dcf;fill-rule:nonzero;"/><path d="M1195.21,212.902l6.071,0l0,39.147l12.861,0l0,4.975l-18.932,0l0,-44.122Z" style="fill:#4b7dcf;fill-rule:nonzero;"/><path d="M1220.09,212.902l19.87,0l0,4.975l-13.8,0l0,13.988l12.956,0l0,4.976l-12.956,0l0,15.208l14.207,0l0,4.975l-20.277,0l0,-44.122Z" style="fill:#4b7dcf;fill-rule:nonzero;"/><path d="M1247.35,212.902l6.07,0l0,18.713l12.799,0l0,-18.713l6.071,0l0,44.122l-6.071,0l0,-20.434l-12.799,0l0,20.434l-6.07,0l0,-44.122Z" style="fill:#4b7dcf;fill-rule:nonzero;"/><path d="M1290.76,212.902l3.63,0c1.398,0.021 2.681,0.156 3.849,0.407c4.485,0.876 6.759,4.401 6.822,10.577c0,3.233 -0.595,5.705 -1.784,7.416c-1.147,1.606 -3.379,2.691 -6.696,3.254c2.065,0.23 3.546,0.616 4.443,1.158c1.315,0.793 2.128,2.065 2.441,3.818c0.209,1.168 0.344,2.535 0.407,4.099l0.25,5.195c0.105,1.982 0.271,3.536 0.501,4.662c0.125,0.814 0.417,1.993 0.876,3.536l-6.321,0l-0.595,-2.816c-0.166,-0.793 -0.281,-1.805 -0.344,-3.035l-0.219,-3.975l-0.219,-4.13c-0.271,-3.171 -1.502,-5.07 -3.692,-5.695c-0.939,-0.251 -2.003,-0.376 -3.192,-0.376l-4.193,0l0,20.027l-6.071,0l0,-44.122l10.107,0Zm-4.036,4.975l0,14.145l4.349,0c1.273,0 2.389,-0.094 3.349,-0.282c1.877,-0.355 3.17,-1.273 3.88,-2.754c0.459,-0.98 0.688,-2.607 0.688,-4.881c0,-2.462 -0.678,-4.173 -2.034,-5.132c-0.98,-0.71 -2.827,-1.075 -5.539,-1.096l-4.693,0Z" style="fill:#4b7dcf;fill-rule:nonzero;"/><path d="M1312.67,212.902l19.871,0l0,4.975l-13.8,0l0,13.988l12.955,0l0,4.976l-12.955,0l0,15.208l14.207,0l0,4.975l-20.278,0l0,-44.122Z" style="fill:#4b7dcf;fill-rule:nonzero;"/><path d="M1350.1,212.902l3.63,0c1.398,0.021 2.681,0.156 3.849,0.407c4.485,0.876 6.759,4.401 6.822,10.577c0,3.233 -0.595,5.705 -1.784,7.416c-1.147,1.606 -3.38,2.691 -6.697,3.254c2.066,0.23 3.547,0.616 4.444,1.158c1.314,0.793 2.128,2.065 2.441,3.818c0.208,1.168 0.344,2.535 0.407,4.099l0.25,5.195c0.104,1.982 0.271,3.536 0.501,4.662c0.125,0.814 0.417,1.993 0.876,3.536l-6.321,0l-0.595,-2.816c-0.167,-0.793 -0.281,-1.805 -0.344,-3.035l-0.219,-3.975l-0.219,-4.13c-0.271,-3.171 -1.502,-5.07 -3.693,-5.695c-0.938,-0.251 -2.002,-0.376 -3.192,-0.376l-4.193,0l0,20.027l-6.07,0l0,-44.122l10.107,0Zm-4.037,4.975l0,14.145l4.35,0c1.272,0 2.389,-0.094 3.348,-0.282c1.878,-0.355 3.171,-1.273 3.881,-2.754c0.458,-0.98 0.688,-2.607 0.688,-4.881c0,-2.462 -0.678,-4.173 -2.034,-5.132c-0.981,-0.71 -2.827,-1.075 -5.539,-1.096l-4.694,0Z" style="fill:#4b7dcf;fill-rule:nonzero;"/></g></svg>