<?xml version="1.0" encoding="UTF-8" standalone="no"?>
<svg
   xmlns:dc="http://purl.org/dc/elements/1.1/"
   xmlns:cc="http://creativecommons.org/ns#"
   xmlns:rdf="http://www.w3.org/1999/02/22-rdf-syntax-ns#"
   xmlns:svg="http://www.w3.org/2000/svg"
   xmlns="http://www.w3.org/2000/svg"
   xmlns:sodipodi="http://sodipodi.sourceforge.net/DTD/sodipodi-0.dtd"
   xmlns:inkscape="http://www.inkscape.org/namespaces/inkscape"
   viewBox="0 0 330.382 38.018"
   version="1.1"
   id="svg1033"
   sodipodi:docname="0_teachUOS.svg"
   inkscape:version="0.92.4 (5da689c313, 2019-01-14)">
  <metadata
     id="metadata1039">
    <rdf:RDF>
      <cc:Work
         rdf:about="">
        <dc:format>image/svg+xml</dc:format>
        <dc:type
           rdf:resource="http://purl.org/dc/dcmitype/StillImage" />
        <dc:title>text</dc:title>
      </cc:Work>
    </rdf:RDF>
  </metadata>
  <defs
     id="defs1037" />
  <sodipodi:namedview
     pagecolor="#ffffff"
     bordercolor="#666666"
     borderopacity="1"
     objecttolerance="10"
     gridtolerance="10"
     guidetolerance="10"
     inkscape:pageopacity="0"
     inkscape:pageshadow="2"
     inkscape:window-width="1277"
     inkscape:window-height="683"
     id="namedview1035"
     showgrid="false"
     inkscape:zoom="1"
     inkscape:cx="165.19099"
     inkscape:cy="19.009001"
     inkscape:window-x="2331"
     inkscape:window-y="83"
     inkscape:window-maximized="1"
     inkscape:current-layer="Ebene_1-2" />
  <title
     id="title928">text</title>
  <g
     id="Ebene_2"
     data-name="Ebene 2">
    <g
       id="Ebene_1-2"
       data-name="Ebene 1">
      <g
         style="isolation:isolate"
         id="teach">
        <g
           id="g940"
           style="isolation:isolate">
          <path
             inkscape:connector-curvature="0"
             id="path930"
             transform="translate(-0.624,-4.088)"
             d="M 5.2,25.691 A 2.547,2.547 0 0 1 3.317,25.018 2.823,2.823 0 0 1 2.645,22.942 v -8.16 H 0.924 A 0.32,0.32 0 0 1 0.708,14.71 0.251,0.251 0 0 1 0.624,14.51 V 14.067 L 2.664,13.922 2.949,9.65 A 0.329,0.329 0 0 1 3.038,9.458 0.266,0.266 0 0 1 3.245,9.374 h 0.534 v 4.56 h 3.757 v 0.852 H 3.779 v 8.1 a 2.54,2.54 0 0 0 0.126,0.847 1.584,1.584 0 0 0 0.349,0.581 1.363,1.363 0 0 0 0.521,0.337 1.929,1.929 0 0 0 0.649,0.107 1.983,1.983 0 0 0 0.744,-0.126 3.017,3.017 0 0 0 0.54,-0.276 3.677,3.677 0 0 0 0.372,-0.276 0.409,0.409 0 0 1 0.228,-0.126 0.26,0.26 0 0 1 0.192,0.12 l 0.312,0.5 A 3.32,3.32 0 0 1 6.653,25.383 3.606,3.606 0 0 1 5.2,25.691 Z" />
          <path
             inkscape:connector-curvature="0"
             id="path932"
             transform="translate(-0.624,-4.088)"
             d="m 15.239,13.366 a 4.914,4.914 0 0 1 1.866,0.348 4.178,4.178 0 0 1 1.489,1.015 4.663,4.663 0 0 1 0.984,1.637 6.526,6.526 0 0 1 0.354,2.232 0.6,0.6 0 0 1 -0.078,0.36 0.3,0.3 0 0 1 -0.246,0.1 h -8.617 v 0.228 a 8.1,8.1 0 0 0 0.313,2.364 4.858,4.858 0 0 0 0.887,1.71 3.67,3.67 0 0 0 1.393,1.04 4.618,4.618 0 0 0 1.823,0.348 5.464,5.464 0 0 0 1.561,-0.2 5.8,5.8 0 0 0 1.11,-0.444 6.037,6.037 0 0 0 0.714,-0.444 0.81,0.81 0 0 1 0.384,-0.2 0.278,0.278 0 0 1 0.24,0.12 l 0.312,0.384 a 3.277,3.277 0 0 1 -0.762,0.672 5.392,5.392 0 0 1 -1.057,0.534 7.611,7.611 0 0 1 -1.247,0.355 6.876,6.876 0 0 1 -1.339,0.132 5.694,5.694 0 0 1 -2.231,-0.426 4.75,4.75 0 0 1 -1.731,-1.243 5.71,5.71 0 0 1 -1.115,-2 8.508,8.508 0 0 1 -0.394,-2.706 7.379,7.379 0 0 1 0.366,-2.37 5.425,5.425 0 0 1 1.055,-1.872 4.828,4.828 0 0 1 1.693,-1.23 5.574,5.574 0 0 1 2.273,-0.444 z m 0.018,0.852 a 4.481,4.481 0 0 0 -1.653,0.288 3.606,3.606 0 0 0 -1.264,0.828 4.2,4.2 0 0 0 -0.863,1.3 5.867,5.867 0 0 0 -0.437,1.692 h 7.86 a 5.242,5.242 0 0 0 -0.263,-1.722 3.693,3.693 0 0 0 -0.742,-1.29 3.234,3.234 0 0 0 -1.151,-0.81 3.817,3.817 0 0 0 -1.487,-0.286 z" />
          <path
             inkscape:connector-curvature="0"
             id="path934"
             transform="translate(-0.624,-4.088)"
             d="m 30.863,25.5 a 0.412,0.412 0 0 1 -0.444,-0.336 l -0.168,-1.525 a 12.323,12.323 0 0 1 -0.978,0.864 5.873,5.873 0 0 1 -1.014,0.649 4.994,4.994 0 0 1 -1.14,0.4 6.111,6.111 0 0 1 -1.344,0.139 3.961,3.961 0 0 1 -1.188,-0.181 2.915,2.915 0 0 1 -1.02,-0.552 2.686,2.686 0 0 1 -0.713,-0.958 3.286,3.286 0 0 1 -0.271,-1.4 2.49,2.49 0 0 1 0.432,-1.4 3.566,3.566 0 0 1 1.35,-1.128 8.92,8.92 0 0 1 2.364,-0.768 20.559,20.559 0 0 1 3.471,-0.334 v -1.248 a 4,4 0 0 0 -0.714,-2.55 2.548,2.548 0 0 0 -2.118,-0.894 4,4 0 0 0 -1.47,0.24 5.206,5.206 0 0 0 -1.026,0.528 6.468,6.468 0 0 0 -0.684,0.528 0.741,0.741 0 0 1 -0.444,0.24 0.388,0.388 0 0 1 -0.36,-0.216 l -0.2,-0.348 a 6.939,6.939 0 0 1 1.968,-1.416 5.5,5.5 0 0 1 2.34,-0.48 4.269,4.269 0 0 1 1.68,0.306 3.1,3.1 0 0 1 1.194,0.876 3.83,3.83 0 0 1 0.714,1.38 6.351,6.351 0 0 1 0.24,1.806 V 25.5 Z m -4.8,-0.636 a 5.068,5.068 0 0 0 1.278,-0.151 4.69,4.69 0 0 0 1.08,-0.42 5.273,5.273 0 0 0 0.93,-0.642 q 0.432,-0.372 0.852,-0.8 V 19.738 A 21.4,21.4 0 0 0 27.27,20 a 8.453,8.453 0 0 0 -2.029,0.57 2.974,2.974 0 0 0 -1.176,0.858 1.825,1.825 0 0 0 -0.377,1.134 2.5,2.5 0 0 0 0.2,1.038 1.993,1.993 0 0 0 1.278,1.135 3.063,3.063 0 0 0 0.897,0.128 z" />
          <path
             inkscape:connector-curvature="0"
             id="path936"
             transform="translate(-0.624,-4.088)"
             d="m 43.02,15.154 a 1.226,1.226 0 0 1 -0.115,0.1 0.239,0.239 0 0 1 -0.15,0.042 0.626,0.626 0 0 1 -0.33,-0.162 4.454,4.454 0 0 0 -0.558,-0.354 4.706,4.706 0 0 0 -0.87,-0.354 4.863,4.863 0 0 0 -3.1,0.2 3.635,3.635 0 0 0 -1.344,1.05 4.813,4.813 0 0 0 -0.834,1.656 7.682,7.682 0 0 0 -0.287,2.184 7.72,7.72 0 0 0 0.293,2.232 4.754,4.754 0 0 0 0.834,1.638 3.564,3.564 0 0 0 1.308,1.015 4.1,4.1 0 0 0 1.7,0.347 4.389,4.389 0 0 0 1.446,-0.2 4.608,4.608 0 0 0 0.96,-0.444 4.328,4.328 0 0 0 0.6,-0.444 0.62,0.62 0 0 1 0.355,-0.2 0.275,0.275 0 0 1 0.239,0.12 l 0.312,0.384 a 3.49,3.49 0 0 1 -0.7,0.672 4.672,4.672 0 0 1 -0.948,0.54 5.747,5.747 0 0 1 -1.146,0.355 6.444,6.444 0 0 1 -1.29,0.126 5.132,5.132 0 0 1 -2.082,-0.414 4.516,4.516 0 0 1 -1.62,-1.2 5.605,5.605 0 0 1 -1.056,-1.926 8.22,8.22 0 0 1 -0.378,-2.592 8.179,8.179 0 0 1 0.36,-2.5 5.616,5.616 0 0 1 1.05,-1.944 4.712,4.712 0 0 1 1.692,-1.266 5.556,5.556 0 0 1 2.3,-0.45 5.412,5.412 0 0 1 2.07,0.372 5.074,5.074 0 0 1 1.578,1.008 z" />
          <path
             inkscape:connector-curvature="0"
             id="path938"
             transform="translate(-0.624,-4.088)"
             d="M 46.318,25.5 V 8.038 h 1.141 V 15.6 a 6.719,6.719 0 0 1 1.89,-1.626 4.719,4.719 0 0 1 2.381,-0.606 4.488,4.488 0 0 1 1.735,0.312 3.194,3.194 0 0 1 1.242,0.9 3.984,3.984 0 0 1 0.744,1.416 6.424,6.424 0 0 1 0.252,1.872 V 25.5 h -1.14 v -7.634 a 4.09,4.09 0 0 0 -0.768,-2.634 2.841,2.841 0 0 0 -2.353,-0.954 4.16,4.16 0 0 0 -2.183,0.606 6.331,6.331 0 0 0 -1.8,1.662 V 25.5 Z" />
        </g>
      </g>
      <g
         id="UOS"
         style="fill:#335d9d;fill-opacity:1;stroke:none">
        <g
           id="g949"
           style="isolation:isolate;fill:#335d9d;fill-opacity:1;stroke:none">
          <path
             style="fill:#335d9d;fill-opacity:1;stroke:none"
             inkscape:connector-curvature="0"
             id="path943"
             transform="translate(-0.624,-4.088)"
             d="m 70.616,23.384 a 4.958,4.958 0 0 0 1.944,-0.36 3.94,3.94 0 0 0 1.448,-1.032 4.57,4.57 0 0 0 0.9,-1.639 7.168,7.168 0 0 0 0.312,-2.2 V 4.345 h 5.408 v 13.807 a 10.8,10.8 0 0 1 -0.7,3.936 8.8,8.8 0 0 1 -1.993,3.087 8.981,8.981 0 0 1 -3.151,2.017 12.517,12.517 0 0 1 -8.368,0 9.007,9.007 0 0 1 -3.153,-2.017 8.723,8.723 0 0 1 -1.983,-3.087 10.883,10.883 0 0 1 -0.688,-3.936 V 4.345 H 66 v 13.792 a 7.156,7.156 0 0 0 0.311,2.2 4.641,4.641 0 0 0 0.905,1.648 3.875,3.875 0 0 0 1.448,1.04 4.955,4.955 0 0 0 1.952,0.359 z" />
          <path
             style="fill:#335d9d;fill-opacity:1;stroke:none"
             inkscape:connector-curvature="0"
             id="path945"
             transform="translate(-0.624,-4.088)"
             d="m 105.88,15.992 a 12.53,12.53 0 0 1 -0.872,4.7 A 11.117,11.117 0 0 1 98.736,27 13.922,13.922 0 0 1 88.824,27 11.127,11.127 0 0 1 82.524,20.7 12.511,12.511 0 0 1 81.652,16 12.518,12.518 0 0 1 82.524,11.3 11.185,11.185 0 0 1 84.988,7.525 11.365,11.365 0 0 1 88.824,5 a 13.057,13.057 0 0 1 4.96,-0.912 12.885,12.885 0 0 1 4.952,0.92 11.442,11.442 0 0 1 3.816,2.52 11.264,11.264 0 0 1 2.456,3.777 12.483,12.483 0 0 1 0.872,4.687 z m -5.536,0 A 10.1,10.1 0 0 0 99.9,12.88 6.588,6.588 0 0 0 98.611,10.536 5.545,5.545 0 0 0 96.556,9.064 7.086,7.086 0 0 0 93.788,8.553 a 7.184,7.184 0 0 0 -2.792,0.511 5.537,5.537 0 0 0 -2.064,1.472 6.586,6.586 0 0 0 -1.292,2.344 10.071,10.071 0 0 0 -0.448,3.112 10.126,10.126 0 0 0 0.448,3.128 6.578,6.578 0 0 0 1.288,2.344 5.476,5.476 0 0 0 2.064,1.465 7.278,7.278 0 0 0 2.792,0.5 7.178,7.178 0 0 0 2.768,-0.5 5.483,5.483 0 0 0 2.055,-1.465 6.579,6.579 0 0 0 1.293,-2.344 10.156,10.156 0 0 0 0.444,-3.128 z" />
          <path
             style="fill:#335d9d;fill-opacity:1;stroke:none"
             inkscape:connector-curvature="0"
             id="path947"
             transform="translate(-0.624,-4.088)"
             d="m 120.184,9.08 a 2.062,2.062 0 0 1 -0.5,0.576 1.134,1.134 0 0 1 -0.681,0.193 1.661,1.661 0 0 1 -0.792,-0.233 c -0.282,-0.154 -0.6,-0.328 -0.96,-0.519 a 7.914,7.914 0 0 0 -1.224,-0.521 4.917,4.917 0 0 0 -1.568,-0.231 3.38,3.38 0 0 0 -2.264,0.647 2.2,2.2 0 0 0 -0.744,1.752 1.612,1.612 0 0 0 0.449,1.168 3.829,3.829 0 0 0 1.175,0.8 12.408,12.408 0 0 0 1.664,0.616 q 0.936,0.281 1.912,0.624 a 17.276,17.276 0 0 1 1.913,0.808 6.4,6.4 0 0 1 1.664,1.184 5.535,5.535 0 0 1 1.172,1.756 6.244,6.244 0 0 1 0.449,2.489 8.108,8.108 0 0 1 -0.561,3.023 7.08,7.08 0 0 1 -1.624,2.456 7.53,7.53 0 0 1 -2.624,1.648 9.841,9.841 0 0 1 -3.544,0.6 11.388,11.388 0 0 1 -2.216,-0.224 13.089,13.089 0 0 1 -2.183,-0.632 12.593,12.593 0 0 1 -1.985,-0.969 8.4,8.4 0 0 1 -1.616,-1.248 l 1.6,-2.526 a 1.289,1.289 0 0 1 0.495,-0.464 1.4,1.4 0 0 1 0.688,-0.177 1.808,1.808 0 0 1 0.968,0.3 q 0.487,0.3 1.105,0.671 a 8.773,8.773 0 0 0 1.416,0.672 5.3,5.3 0 0 0 1.887,0.3 3.6,3.6 0 0 0 2.288,-0.647 2.47,2.47 0 0 0 0.816,-2.057 1.952,1.952 0 0 0 -0.447,-1.328 3.476,3.476 0 0 0 -1.177,-0.848 10.993,10.993 0 0 0 -1.656,-0.592 q -0.928,-0.256 -1.9,-0.568 a 13.981,13.981 0 0 1 -1.9,-0.768 5.989,5.989 0 0 1 -1.655,-1.2 5.589,5.589 0 0 1 -1.177,-1.856 7.361,7.361 0 0 1 -0.447,-2.743 6.513,6.513 0 0 1 0.527,-2.561 6.6,6.6 0 0 1 1.553,-2.224 7.631,7.631 0 0 1 2.511,-1.56 9.29,9.29 0 0 1 3.409,-0.584 12.891,12.891 0 0 1 2.087,0.168 11.043,11.043 0 0 1 1.928,0.5 10.577,10.577 0 0 1 1.7,0.784 7.87,7.87 0 0 1 1.416,1.032 z" />
        </g>
      </g>
      <g
         style="isolation:isolate;stroke:none;stroke-opacity:1;fill:#335d9d;fill-opacity:1"
         data-name="FÜR ALLE ANGEHENDEN LEHRERINNEN UND LEHRER"
         id="FÜR_ALLE_ANGEHENDEN_LEHRERINNEN_UND_LEHRER">
        <g
           id="g1026"
           style="isolation:isolate;stroke:none;stroke-opacity:1;fill:#335d9d;fill-opacity:1">
          <path
             style="fill:#335d9d;stroke:none;stroke-opacity:1;fill-opacity:1"
             inkscape:connector-curvature="0"
             id="path952"
             transform="translate(-0.624,-4.088)"
             d="m 38.348,33.514 v 0.51 h -4.47 v 3.57 h 3.87 v 0.51 h -3.87 V 42 H 33.26 v -8.49 z" />
          <path
             style="fill:#335d9d;stroke:none;stroke-opacity:1;fill-opacity:1"
             inkscape:connector-curvature="0"
             id="path954"
             transform="translate(-0.624,-4.088)"
             d="m 43.262,41.566 a 2.666,2.666 0 0 0 1.094,-0.213 2.351,2.351 0 0 0 0.82,-0.591 2.62,2.62 0 0 0 0.512,-0.89 3.348,3.348 0 0 0 0.177,-1.108 v -5.25 h 0.613 v 5.25 a 3.833,3.833 0 0 1 -0.222,1.312 3.141,3.141 0 0 1 -0.64,1.061 2.921,2.921 0 0 1 -1.013,0.711 3.614,3.614 0 0 1 -2.682,0 2.939,2.939 0 0 1 -1.015,-0.711 3.136,3.136 0 0 1 -0.638,-1.061 3.785,3.785 0 0 1 -0.222,-1.312 v -5.25 h 0.617 v 5.244 a 3.378,3.378 0 0 0 0.178,1.108 2.606,2.606 0 0 0 0.51,0.89 2.328,2.328 0 0 0 0.816,0.594 2.636,2.636 0 0 0 1.095,0.216 z M 42.5,32.014 a 0.434,0.434 0 0 1 -0.042,0.184 0.523,0.523 0 0 1 -0.108,0.149 0.541,0.541 0 0 1 -0.157,0.1 0.476,0.476 0 0 1 -0.185,0.039 0.464,0.464 0 0 1 -0.184,-0.039 0.574,0.574 0 0 1 -0.152,-0.1 0.5,0.5 0 0 1 -0.106,-0.149 0.447,0.447 0 0 1 -0.039,-0.184 0.459,0.459 0 0 1 0.039,-0.185 0.551,0.551 0 0 1 0.106,-0.16 0.508,0.508 0 0 1 0.152,-0.108 0.464,0.464 0 0 1 0.184,-0.039 0.476,0.476 0 0 1 0.185,0.039 0.483,0.483 0 0 1 0.157,0.108 0.578,0.578 0 0 1 0.108,0.16 0.446,0.446 0 0 1 0.042,0.185 z m 2.495,0 a 0.447,0.447 0 0 1 -0.039,0.184 0.439,0.439 0 0 1 -0.107,0.149 0.618,0.618 0 0 1 -0.157,0.1 0.454,0.454 0 0 1 -0.182,0.039 0.478,0.478 0 0 1 -0.19,-0.039 0.574,0.574 0 0 1 -0.152,-0.1 0.463,0.463 0 0 1 -0.1,-0.149 0.432,0.432 0 0 1 -0.04,-0.184 0.474,0.474 0 0 1 0.145,-0.345 0.466,0.466 0 0 1 0.342,-0.147 0.454,0.454 0 0 1 0.182,0.039 0.543,0.543 0 0 1 0.157,0.108 0.484,0.484 0 0 1 0.107,0.16 0.459,0.459 0 0 1 0.039,0.185 z" />
          <path
             style="fill:#335d9d;stroke:none;stroke-opacity:1;fill-opacity:1"
             inkscape:connector-curvature="0"
             id="path956"
             transform="translate(-0.624,-4.088)"
             d="M 49.718,38.165 V 42 h -0.613 v -8.49 h 2.166 a 3.54,3.54 0 0 1 2.2,0.568 1.981,1.981 0 0 1 0.725,1.665 2.254,2.254 0 0 1 -0.168,0.887 2.056,2.056 0 0 1 -0.482,0.7 2.538,2.538 0 0 1 -0.759,0.5 3.394,3.394 0 0 1 -1,0.255 0.993,0.993 0 0 1 0.258,0.241 L 54.962,42 h -0.534 a 0.338,0.338 0 0 1 -0.165,-0.036 0.409,0.409 0 0 1 -0.135,-0.12 L 51.41,38.405 a 0.6,0.6 0 0 0 -0.22,-0.187 0.913,0.913 0 0 0 -0.362,-0.053 z m 0,-0.457 h 1.475 a 3.5,3.5 0 0 0 1.012,-0.134 2.2,2.2 0 0 0 0.756,-0.388 1.668,1.668 0 0 0 0.471,-0.6 1.9,1.9 0 0 0 0.162,-0.8 A 1.561,1.561 0 0 0 53,34.438 2.887,2.887 0 0 0 51.271,34 h -1.553 z" />
          <path
             style="fill:#335d9d;stroke:none;stroke-opacity:1;fill-opacity:1"
             inkscape:connector-curvature="0"
             id="path958"
             transform="translate(-0.624,-4.088)"
             d="m 65.2,42 h -0.474 a 0.2,0.2 0 0 1 -0.137,-0.045 0.289,0.289 0 0 1 -0.084,-0.117 l -1,-2.466 h -4.17 l -1,2.466 A 0.283,0.283 0 0 1 58.251,41.953 0.225,0.225 0 0 1 58.106,42 h -0.467 l 3.473,-8.49 h 0.612 z m -5.679,-3.08 h 3.8 L 61.588,34.63 A 2.4,2.4 0 0 1 61.504,34.399 Q 61.46,34.27 61.42,34.126 c -0.028,0.1 -0.057,0.187 -0.084,0.273 -0.027,0.086 -0.057,0.165 -0.084,0.237 z" />
          <path
             style="fill:#335d9d;stroke:none;stroke-opacity:1;fill-opacity:1"
             inkscape:connector-curvature="0"
             id="path960"
             transform="translate(-0.624,-4.088)"
             d="m 67.159,41.482 h 4.027 V 42 h -4.639 v -8.49 h 0.612 z" />
          <path
             style="fill:#335d9d;stroke:none;stroke-opacity:1;fill-opacity:1"
             inkscape:connector-curvature="0"
             id="path962"
             transform="translate(-0.624,-4.088)"
             d="m 73.3,41.482 h 4.026 V 42 H 72.685 V 33.51 H 73.3 Z" />
          <path
             style="fill:#335d9d;stroke:none;stroke-opacity:1;fill-opacity:1"
             inkscape:connector-curvature="0"
             id="path964"
             transform="translate(-0.624,-4.088)"
             d="m 83.911,33.514 v 0.51 h -4.47 v 3.433 h 3.72 v 0.5 h -3.72 V 41.5 h 4.47 V 42 h -5.088 v -8.49 z" />
          <path
             style="fill:#335d9d;stroke:none;stroke-opacity:1;fill-opacity:1"
             inkscape:connector-curvature="0"
             id="path966"
             transform="translate(-0.624,-4.088)"
             d="m 94.621,42 h -0.475 a 0.2,0.2 0 0 1 -0.137,-0.045 0.3,0.3 0 0 1 -0.084,-0.117 l -1,-2.466 h -4.17 l -1,2.466 A 0.266,0.266 0 0 1 87.671,41.953 0.223,0.223 0 0 1 87.527,42 h -0.468 l 3.474,-8.49 h 0.611 z m -5.683,-3.08 h 3.8 L 91.004,34.63 C 90.975,34.562 90.948,34.486 90.92,34.399 90.892,34.312 90.864,34.222 90.836,34.126 q -0.042,0.144 -0.084,0.273 c -0.028,0.087 -0.056,0.165 -0.084,0.237 z" />
          <path
             style="fill:#335d9d;stroke:none;stroke-opacity:1;fill-opacity:1"
             inkscape:connector-curvature="0"
             id="path968"
             transform="translate(-0.624,-4.088)"
             d="m 96.4,33.536 a 0.272,0.272 0 0 1 0.1,0.092 l 5.5,7.357 a 3.227,3.227 0 0 1 -0.018,-0.349 v -7.122 h 0.54 V 42 h -0.294 a 0.259,0.259 0 0 1 -0.222,-0.12 L 96.48,34.516 a 3.176,3.176 0 0 1 0.019,0.342 V 42 h -0.534 v -8.49 h 0.3 a 0.309,0.309 0 0 1 0.135,0.026 z" />
          <path
             style="fill:#335d9d;stroke:none;stroke-opacity:1;fill-opacity:1"
             inkscape:connector-curvature="0"
             id="path970"
             transform="translate(-0.624,-4.088)"
             d="m 108.685,41.6 a 6.451,6.451 0 0 0 0.8,-0.045 4.164,4.164 0 0 0 0.669,-0.135 4.025,4.025 0 0 0 0.588,-0.218 c 0.187,-0.086 0.373,-0.184 0.562,-0.291 v -2.285 h -1.632 a 0.152,0.152 0 0 1 -0.111,-0.042 0.124,0.124 0 0 1 -0.045,-0.1 v -0.336 h 2.345 v 3.022 a 5.217,5.217 0 0 1 -0.66,0.4 4.268,4.268 0 0 1 -0.731,0.291 5.647,5.647 0 0 1 -0.84,0.181 7.138,7.138 0 0 1 -0.984,0.062 4.4,4.4 0 0 1 -1.677,-0.308 3.739,3.739 0 0 1 -1.3,-0.876 3.963,3.963 0 0 1 -0.844,-1.372 5.487,5.487 0 0 1 0,-3.573 3.9,3.9 0 0 1 0.853,-1.368 3.745,3.745 0 0 1 1.341,-0.876 4.805,4.805 0 0 1 1.766,-0.309 5.572,5.572 0 0 1 0.9,0.067 4.144,4.144 0 0 1 0.764,0.194 3.6,3.6 0 0 1 0.651,0.317 4.376,4.376 0 0 1 0.587,0.434 l -0.162,0.265 a 0.169,0.169 0 0 1 -0.149,0.09 0.221,0.221 0 0 1 -0.1,-0.025 1.246,1.246 0 0 1 -0.26,-0.168 2.851,2.851 0 0 0 -0.462,-0.275 3.814,3.814 0 0 0 -0.73,-0.259 4.315,4.315 0 0 0 -1.061,-0.113 4.045,4.045 0 0 0 -1.494,0.263 3.149,3.149 0 0 0 -1.137,0.756 3.343,3.343 0 0 0 -0.727,1.2 4.659,4.659 0 0 0 -0.255,1.589 4.738,4.738 0 0 0 0.258,1.615 3.45,3.45 0 0 0 0.724,1.209 3.085,3.085 0 0 0 1.116,0.758 3.786,3.786 0 0 0 1.437,0.261 z" />
          <path
             style="fill:#335d9d;stroke:none;stroke-opacity:1;fill-opacity:1"
             inkscape:connector-curvature="0"
             id="path972"
             transform="translate(-0.624,-4.088)"
             d="m 119.106,33.514 v 0.51 h -4.469 v 3.433 h 3.719 v 0.5 h -3.719 V 41.5 h 4.469 V 42 h -5.087 v -8.49 z" />
          <path
             style="fill:#335d9d;stroke:none;stroke-opacity:1;fill-opacity:1"
             inkscape:connector-curvature="0"
             id="path974"
             transform="translate(-0.624,-4.088)"
             d="m 127.662,42 h -0.618 v -4.064 h -5.315 V 42 h -0.619 v -8.49 h 0.619 v 3.96 h 5.315 v -3.96 h 0.618 z" />
          <path
             style="fill:#335d9d;stroke:none;stroke-opacity:1;fill-opacity:1"
             inkscape:connector-curvature="0"
             id="path976"
             transform="translate(-0.624,-4.088)"
             d="m 135.271,33.514 v 0.51 H 130.8 v 3.433 h 3.721 v 0.5 H 130.8 V 41.5 h 4.471 V 42 h -5.089 v -8.49 z" />
          <path
             style="fill:#335d9d;stroke:none;stroke-opacity:1;fill-opacity:1"
             inkscape:connector-curvature="0"
             id="path978"
             transform="translate(-0.624,-4.088)"
             d="m 137.706,33.536 a 0.285,0.285 0 0 1 0.1,0.092 l 5.5,7.357 c -0.012,-0.12 -0.018,-0.236 -0.018,-0.349 v -7.122 h 0.54 V 42 h -0.294 a 0.258,0.258 0 0 1 -0.222,-0.12 l -5.52,-7.368 q 0.018,0.18 0.018,0.342 V 42 h -0.535 v -8.49 h 0.3 a 0.318,0.318 0 0 1 0.131,0.026 z" />
          <path
             style="fill:#335d9d;stroke:none;stroke-opacity:1;fill-opacity:1"
             inkscape:connector-curvature="0"
             id="path980"
             transform="translate(-0.624,-4.088)"
             d="m 153.492,37.756 a 5.007,5.007 0 0 1 -0.294,1.771 3.817,3.817 0 0 1 -0.828,1.338 3.586,3.586 0 0 1 -1.278,0.845 4.434,4.434 0 0 1 -1.65,0.294 h -3.1 v -8.49 h 3.1 a 4.474,4.474 0 0 1 1.65,0.294 3.591,3.591 0 0 1 1.278,0.847 3.79,3.79 0 0 1 0.828,1.338 4.973,4.973 0 0 1 0.294,1.763 z m -0.636,0 A 4.742,4.742 0 0 0 152.61,36.172 3.322,3.322 0 0 0 151.917,35 a 2.936,2.936 0 0 0 -1.077,-0.733 3.733,3.733 0 0 0 -1.4,-0.252 h -2.478 v 7.494 h 2.478 a 3.733,3.733 0 0 0 1.4,-0.252 2.946,2.946 0 0 0 1.077,-0.732 3.317,3.317 0 0 0 0.693,-1.176 4.757,4.757 0 0 0 0.246,-1.593 z" />
          <path
             style="fill:#335d9d;stroke:none;stroke-opacity:1;fill-opacity:1"
             inkscape:connector-curvature="0"
             id="path982"
             transform="translate(-0.624,-4.088)"
             d="m 160.554,33.514 v 0.51 h -4.47 v 3.433 h 3.72 v 0.5 h -3.72 V 41.5 h 4.47 V 42 h -5.088 v -8.49 z" />
          <path
             style="fill:#335d9d;stroke:none;stroke-opacity:1;fill-opacity:1"
             inkscape:connector-curvature="0"
             id="path984"
             transform="translate(-0.624,-4.088)"
             d="m 162.989,33.536 a 0.279,0.279 0 0 1 0.1,0.092 l 5.5,7.357 a 3.233,3.233 0 0 1 -0.019,-0.349 v -7.122 h 0.54 V 42 h -0.294 a 0.257,0.257 0 0 1 -0.221,-0.12 l -5.521,-7.368 a 3.176,3.176 0 0 1 0.019,0.342 V 42 h -0.534 v -8.49 h 0.3 a 0.311,0.311 0 0 1 0.13,0.026 z" />
          <path
             style="fill:#335d9d;stroke:none;stroke-opacity:1;fill-opacity:1"
             inkscape:connector-curvature="0"
             id="path986"
             transform="translate(-0.624,-4.088)"
             d="m 174.558,41.482 h 4.026 V 42 h -4.639 v -8.49 h 0.613 z" />
          <path
             style="fill:#335d9d;stroke:none;stroke-opacity:1;fill-opacity:1"
             inkscape:connector-curvature="0"
             id="path988"
             transform="translate(-0.624,-4.088)"
             d="m 185.172,33.514 v 0.51 H 180.7 v 3.433 h 3.721 v 0.5 H 180.7 V 41.5 h 4.471 V 42 h -5.089 v -8.49 z" />
          <path
             style="fill:#335d9d;stroke:none;stroke-opacity:1;fill-opacity:1"
             inkscape:connector-curvature="0"
             id="path990"
             transform="translate(-0.624,-4.088)"
             d="m 193.728,42 h -0.619 v -4.064 h -5.316 V 42 h -0.618 v -8.49 h 0.618 v 3.96 h 5.316 v -3.96 h 0.619 z" />
          <path
             style="fill:#335d9d;stroke:none;stroke-opacity:1;fill-opacity:1"
             inkscape:connector-curvature="0"
             id="path992"
             transform="translate(-0.624,-4.088)"
             d="M 197.039,38.165 V 42 h -0.611 v -8.49 h 2.166 a 3.534,3.534 0 0 1 2.195,0.568 1.982,1.982 0 0 1 0.727,1.665 2.272,2.272 0 0 1 -0.168,0.887 2.09,2.09 0 0 1 -0.484,0.7 2.538,2.538 0 0 1 -0.759,0.5 3.364,3.364 0 0 1 -1,0.255 1,1 0 0 1 0.257,0.241 L 202.283,42 h -0.533 a 0.341,0.341 0 0 1 -0.165,-0.036 0.4,0.4 0 0 1 -0.136,-0.12 l -2.718,-3.443 a 0.6,0.6 0 0 0 -0.218,-0.187 0.924,0.924 0 0 0 -0.364,-0.053 z m 0,-0.457 h 1.477 a 3.484,3.484 0 0 0 1.01,-0.134 2.2,2.2 0 0 0 0.756,-0.388 1.67,1.67 0 0 0 0.472,-0.6 1.915,1.915 0 0 0 0.162,-0.8 1.559,1.559 0 0 0 -0.595,-1.345 A 2.879,2.879 0 0 0 198.594,34 h -1.555 z" />
          <path
             style="fill:#335d9d;stroke:none;stroke-opacity:1;fill-opacity:1"
             inkscape:connector-curvature="0"
             id="path994"
             transform="translate(-0.624,-4.088)"
             d="m 208.907,33.514 v 0.51 h -4.469 v 3.433 h 3.719 v 0.5 h -3.719 V 41.5 h 4.469 V 42 h -5.088 v -8.49 z" />
          <path
             style="fill:#335d9d;stroke:none;stroke-opacity:1;fill-opacity:1"
             inkscape:connector-curvature="0"
             id="path996"
             transform="translate(-0.624,-4.088)"
             d="M 211.7,38.165 V 42 h -0.612 v -8.49 h 2.166 a 3.537,3.537 0 0 1 2.2,0.568 1.979,1.979 0 0 1 0.726,1.665 2.272,2.272 0 0 1 -0.168,0.887 2.073,2.073 0 0 1 -0.483,0.7 2.545,2.545 0 0 1 -0.758,0.5 3.394,3.394 0 0 1 -1,0.255 1,1 0 0 1 0.257,0.241 L 216.947,42 h -0.534 a 0.341,0.341 0 0 1 -0.165,-0.036 0.409,0.409 0 0 1 -0.135,-0.12 L 213.4,38.405 a 0.617,0.617 0 0 0 -0.22,-0.187 0.915,0.915 0 0 0 -0.363,-0.053 z m 0,-0.457 h 1.476 a 3.491,3.491 0 0 0 1.011,-0.134 2.2,2.2 0 0 0 0.756,-0.388 1.657,1.657 0 0 0 0.471,-0.6 1.9,1.9 0 0 0 0.162,-0.8 1.561,1.561 0 0 0 -0.594,-1.345 A 2.884,2.884 0 0 0 213.257,34 H 211.7 Z" />
          <path
             style="fill:#335d9d;stroke:none;stroke-opacity:1;fill-opacity:1"
             inkscape:connector-curvature="0"
             id="path998"
             transform="translate(-0.624,-4.088)"
             d="m 219.323,42 h -0.618 v -8.49 h 0.618 z" />
          <path
             style="fill:#335d9d;stroke:none;stroke-opacity:1;fill-opacity:1"
             inkscape:connector-curvature="0"
             id="path1000"
             transform="translate(-0.624,-4.088)"
             d="m 222.5,33.536 a 0.278,0.278 0 0 1 0.1,0.092 l 5.5,7.357 a 3.233,3.233 0 0 1 -0.019,-0.349 v -7.122 h 0.54 V 42 h -0.294 a 0.259,0.259 0 0 1 -0.222,-0.12 l -5.52,-7.368 a 3.165,3.165 0 0 1 0.018,0.342 V 42 h -0.534 v -8.49 h 0.3 a 0.311,0.311 0 0 1 0.131,0.026 z" />
          <path
             style="fill:#335d9d;stroke:none;stroke-opacity:1;fill-opacity:1"
             inkscape:connector-curvature="0"
             id="path1002"
             transform="translate(-0.624,-4.088)"
             d="m 231.575,33.536 a 0.278,0.278 0 0 1 0.1,0.092 l 5.5,7.357 c -0.012,-0.12 -0.018,-0.236 -0.018,-0.349 v -7.122 h 0.54 V 42 H 237.4 a 0.259,0.259 0 0 1 -0.222,-0.12 l -5.52,-7.368 q 0.018,0.18 0.018,0.342 V 42 h -0.534 v -8.49 h 0.3 a 0.318,0.318 0 0 1 0.133,0.026 z" />
          <path
             style="fill:#335d9d;stroke:none;stroke-opacity:1;fill-opacity:1"
             inkscape:connector-curvature="0"
             id="path1004"
             transform="translate(-0.624,-4.088)"
             d="m 245.3,33.514 v 0.51 h -4.47 v 3.433 h 3.72 v 0.5 h -3.72 V 41.5 h 4.47 V 42 h -5.088 v -8.49 z" />
          <path
             style="fill:#335d9d;stroke:none;stroke-opacity:1;fill-opacity:1"
             inkscape:connector-curvature="0"
             id="path1006"
             transform="translate(-0.624,-4.088)"
             d="m 247.739,33.536 a 0.278,0.278 0 0 1 0.1,0.092 l 5.5,7.357 c -0.012,-0.12 -0.018,-0.236 -0.018,-0.349 v -7.122 h 0.54 V 42 h -0.294 a 0.259,0.259 0 0 1 -0.222,-0.12 l -5.52,-7.368 q 0.018,0.18 0.018,0.342 V 42 h -0.534 v -8.49 h 0.3 a 0.318,0.318 0 0 1 0.13,0.026 z" />
          <path
             style="fill:#335d9d;stroke:none;stroke-opacity:1;fill-opacity:1"
             inkscape:connector-curvature="0"
             id="path1008"
             transform="translate(-0.624,-4.088)"
             d="m 261.833,41.566 a 2.674,2.674 0 0 0 1.095,-0.213 2.357,2.357 0 0 0 0.819,-0.591 2.606,2.606 0 0 0 0.513,-0.89 3.374,3.374 0 0 0 0.177,-1.108 v -5.25 h 0.612 v 5.25 a 3.809,3.809 0 0 1 -0.222,1.312 3.139,3.139 0 0 1 -0.639,1.061 2.935,2.935 0 0 1 -1.014,0.711 3.614,3.614 0 0 1 -2.682,0 2.935,2.935 0 0 1 -1.014,-0.711 3.123,3.123 0 0 1 -0.639,-1.061 3.785,3.785 0 0 1 -0.222,-1.312 v -5.25 h 0.617 v 5.244 a 3.378,3.378 0 0 0 0.178,1.108 2.606,2.606 0 0 0 0.51,0.89 2.338,2.338 0 0 0 0.816,0.594 2.639,2.639 0 0 0 1.095,0.216 z" />
          <path
             style="fill:#335d9d;stroke:none;stroke-opacity:1;fill-opacity:1"
             inkscape:connector-curvature="0"
             id="path1010"
             transform="translate(-0.624,-4.088)"
             d="m 267.929,33.536 a 0.276,0.276 0 0 1 0.1,0.092 l 5.5,7.357 c -0.011,-0.12 -0.017,-0.236 -0.017,-0.349 v -7.122 h 0.54 V 42 h -0.294 a 0.261,0.261 0 0 1 -0.223,-0.12 l -5.519,-7.368 c 0.011,0.12 0.017,0.234 0.017,0.342 V 42 H 267.5 v -8.49 h 0.3 a 0.321,0.321 0 0 1 0.129,0.026 z" />
          <path
             style="fill:#335d9d;stroke:none;stroke-opacity:1;fill-opacity:1"
             inkscape:connector-curvature="0"
             id="path1012"
             transform="translate(-0.624,-4.088)"
             d="m 283.715,37.756 a 5.029,5.029 0 0 1 -0.294,1.771 3.831,3.831 0 0 1 -0.828,1.338 3.59,3.59 0 0 1 -1.279,0.845 4.428,4.428 0 0 1 -1.649,0.294 h -3.1 v -8.49 h 3.1 a 4.469,4.469 0 0 1 1.649,0.294 3.6,3.6 0 0 1 1.279,0.847 3.8,3.8 0 0 1 0.828,1.338 5,5 0 0 1 0.294,1.763 z m -0.636,0 A 4.742,4.742 0 0 0 282.833,36.172 3.322,3.322 0 0 0 282.14,35 a 2.944,2.944 0 0 0 -1.077,-0.733 3.733,3.733 0 0 0 -1.4,-0.252 h -2.478 v 7.494 h 2.478 a 3.733,3.733 0 0 0 1.4,-0.252 2.954,2.954 0 0 0 1.077,-0.732 3.317,3.317 0 0 0 0.693,-1.176 4.757,4.757 0 0 0 0.246,-1.593 z" />
          <path
             style="fill:#335d9d;stroke:none;stroke-opacity:1;fill-opacity:1"
             inkscape:connector-curvature="0"
             id="path1014"
             transform="translate(-0.624,-4.088)"
             d="m 288.616,41.482 h 4.027 V 42 H 288 v -8.49 h 0.612 z" />
          <path
             style="fill:#335d9d;stroke:none;stroke-opacity:1;fill-opacity:1"
             inkscape:connector-curvature="0"
             id="path1016"
             transform="translate(-0.624,-4.088)"
             d="m 299.23,33.514 v 0.51 h -4.469 v 3.433 h 3.719 v 0.5 h -3.719 V 41.5 h 4.469 V 42 h -5.087 v -8.49 z" />
          <path
             style="fill:#335d9d;stroke:none;stroke-opacity:1;fill-opacity:1"
             inkscape:connector-curvature="0"
             id="path1018"
             transform="translate(-0.624,-4.088)"
             d="m 307.786,42 h -0.618 v -4.064 h -5.315 V 42 h -0.619 v -8.49 h 0.619 v 3.96 h 5.315 v -3.96 h 0.618 z" />
          <path
             style="fill:#335d9d;stroke:none;stroke-opacity:1;fill-opacity:1"
             inkscape:connector-curvature="0"
             id="path1020"
             transform="translate(-0.624,-4.088)"
             d="M 311.1,38.165 V 42 h -0.612 v -8.49 h 2.166 a 3.537,3.537 0 0 1 2.2,0.568 1.982,1.982 0 0 1 0.726,1.665 2.254,2.254 0 0 1 -0.168,0.887 2.073,2.073 0 0 1 -0.483,0.7 2.538,2.538 0 0 1 -0.759,0.5 3.378,3.378 0 0 1 -1,0.255 0.993,0.993 0 0 1 0.258,0.241 L 316.342,42 h -0.533 a 0.335,0.335 0 0 1 -0.165,-0.036 0.4,0.4 0 0 1 -0.136,-0.12 l -2.718,-3.443 a 0.606,0.606 0 0 0 -0.219,-0.187 0.918,0.918 0 0 0 -0.363,-0.053 z m 0,-0.457 h 1.476 a 3.5,3.5 0 0 0 1.011,-0.134 2.2,2.2 0 0 0 0.756,-0.388 1.681,1.681 0 0 0 0.472,-0.6 1.915,1.915 0 0 0 0.162,-0.8 1.561,1.561 0 0 0 -0.6,-1.345 A 2.884,2.884 0 0 0 312.652,34 H 311.1 Z" />
          <path
             style="fill:#335d9d;stroke:none;stroke-opacity:1;fill-opacity:1"
             inkscape:connector-curvature="0"
             id="path1022"
             transform="translate(-0.624,-4.088)"
             d="m 322.966,33.514 v 0.51 H 318.5 v 3.433 h 3.72 v 0.5 H 318.5 V 41.5 h 4.47 V 42 h -5.088 v -8.49 z" />
          <path
             style="fill:#335d9d;stroke:none;stroke-opacity:1;fill-opacity:1"
             inkscape:connector-curvature="0"
             id="path1024"
             transform="translate(-0.624,-4.088)"
             d="M 325.762,38.165 V 42 h -0.612 v -8.49 h 2.166 a 3.537,3.537 0 0 1 2.2,0.568 1.982,1.982 0 0 1 0.726,1.665 2.254,2.254 0 0 1 -0.168,0.887 2.073,2.073 0 0 1 -0.483,0.7 2.538,2.538 0 0 1 -0.759,0.5 3.378,3.378 0 0 1 -1,0.255 0.993,0.993 0 0 1 0.258,0.241 L 331.006,42 h -0.533 a 0.338,0.338 0 0 1 -0.165,-0.036 0.4,0.4 0 0 1 -0.136,-0.12 l -2.718,-3.443 a 0.606,0.606 0 0 0 -0.219,-0.187 0.918,0.918 0 0 0 -0.363,-0.053 z m 0,-0.457 h 1.476 a 3.5,3.5 0 0 0 1.011,-0.134 2.2,2.2 0 0 0 0.756,-0.388 1.681,1.681 0 0 0 0.472,-0.6 1.915,1.915 0 0 0 0.162,-0.8 1.561,1.561 0 0 0 -0.6,-1.345 A 2.884,2.884 0 0 0 327.316,34 h -1.554 z" />
        </g>
      </g>
    </g>
  </g>
</svg>
