<?xml version="1.0" encoding="UTF-8" standalone="no"?>
<svg
   xmlns:dc="http://purl.org/dc/elements/1.1/"
   xmlns:cc="http://creativecommons.org/ns#"
   xmlns:rdf="http://www.w3.org/1999/02/22-rdf-syntax-ns#"
   xmlns:svg="http://www.w3.org/2000/svg"
   xmlns="http://www.w3.org/2000/svg"
   xmlns:sodipodi="http://sodipodi.sourceforge.net/DTD/sodipodi-0.dtd"
   xmlns:inkscape="http://www.inkscape.org/namespaces/inkscape"
   viewBox="0 0 330.382 38.018"
   version="1.1"
   id="svg1033"
   sodipodi:docname="0_teachUOS.svg"
   inkscape:version="0.92.4 (5da689c313, 2019-01-14)">
  <metadata
     id="metadata1039">
    <rdf:RDF>
      <cc:Work
         rdf:about="">
        <dc:format>image/svg+xml</dc:format>
        <dc:type
           rdf:resource="http://purl.org/dc/dcmitype/StillImage" />
        <dc:title>text</dc:title>
      </cc:Work>
    </rdf:RDF>
  </metadata>
  <defs
     id="defs1037" />
  <sodipodi:namedview
     pagecolor="#ffffff"
     bordercolor="#666666"
     borderopacity="1"
     objecttolerance="10"
     gridtolerance="10"
     guidetolerance="10"
     inkscape:pageopacity="0"
     inkscape:pageshadow="2"
     inkscape:window-width="1277"
     inkscape:window-height="683"
     id="namedview1035"
     showgrid="false"
     inkscape:zoom="1"
     inkscape:cx="165.19099"
     inkscape:cy="19.009001"
     inkscape:window-x="2331"
     inkscape:window-y="83"
     inkscape:window-maximized="0"
     inkscape:current-layer="svg1033" />
  <title
     id="title928">text</title>
  <g
     id="Ebene_2"
     data-name="Ebene 2">
    <g
       id="Ebene_1-2"
       data-name="Ebene 1">
      <g
         id="g1029">
        <g
           id="teach"
           style="isolation: isolate">
          <g
             style="isolation: isolate"
             id="g940">
            <path
               d="M5.2,25.691a2.547,2.547,0,0,1-1.883-.673,2.823,2.823,0,0,1-.672-2.076v-8.16H.924a.32.32,0,0,1-.216-.072.251.251,0,0,1-.084-.2v-.443l2.04-.145.285-4.272a.329.329,0,0,1,.089-.192.266.266,0,0,1,.207-.084h.534v4.56H7.536v.852H3.779v8.1a2.54,2.54,0,0,0,.126.847,1.584,1.584,0,0,0,.349.581,1.363,1.363,0,0,0,.521.337,1.929,1.929,0,0,0,.649.107,1.983,1.983,0,0,0,.744-.126,3.017,3.017,0,0,0,.54-.276,3.677,3.677,0,0,0,.372-.276.409.409,0,0,1,.228-.126.26.26,0,0,1,.192.12l.312.5a3.32,3.32,0,0,1-1.159.809A3.606,3.606,0,0,1,5.2,25.691Z"
               transform="translate(-0.624 -4.088)"
               id="path930" />
            <path
               d="M15.239,13.366a4.914,4.914,0,0,1,1.866.348,4.178,4.178,0,0,1,1.489,1.015,4.663,4.663,0,0,1,.984,1.637,6.526,6.526,0,0,1,.354,2.232.6.6,0,0,1-.078.36.3.3,0,0,1-.246.1H10.991v.228a8.1,8.1,0,0,0,.313,2.364,4.858,4.858,0,0,0,.887,1.71A3.67,3.67,0,0,0,13.584,24.4a4.618,4.618,0,0,0,1.823.348,5.464,5.464,0,0,0,1.561-.2,5.8,5.8,0,0,0,1.11-.444,6.037,6.037,0,0,0,.714-.444.81.81,0,0,1,.384-.2.278.278,0,0,1,.24.12l.312.384a3.277,3.277,0,0,1-.762.672,5.392,5.392,0,0,1-1.057.534,7.611,7.611,0,0,1-1.247.355,6.876,6.876,0,0,1-1.339.132,5.694,5.694,0,0,1-2.231-.426,4.75,4.75,0,0,1-1.731-1.243,5.71,5.71,0,0,1-1.115-2,8.508,8.508,0,0,1-.394-2.706,7.379,7.379,0,0,1,.366-2.37,5.425,5.425,0,0,1,1.055-1.872,4.828,4.828,0,0,1,1.693-1.23A5.574,5.574,0,0,1,15.239,13.366Zm.018.852a4.481,4.481,0,0,0-1.653.288,3.606,3.606,0,0,0-1.264.828,4.2,4.2,0,0,0-.863,1.3,5.867,5.867,0,0,0-.437,1.692H18.9a5.242,5.242,0,0,0-.263-1.722,3.693,3.693,0,0,0-.742-1.29,3.234,3.234,0,0,0-1.151-.81A3.817,3.817,0,0,0,15.257,14.218Z"
               transform="translate(-0.624 -4.088)"
               id="path932" />
            <path
               d="M30.863,25.5a.412.412,0,0,1-.444-.336l-.168-1.525a12.323,12.323,0,0,1-.978.864,5.873,5.873,0,0,1-1.014.649,4.994,4.994,0,0,1-1.14.4,6.111,6.111,0,0,1-1.344.139,3.961,3.961,0,0,1-1.188-.181,2.915,2.915,0,0,1-1.02-.552A2.686,2.686,0,0,1,22.854,24a3.286,3.286,0,0,1-.271-1.4,2.49,2.49,0,0,1,.432-1.4,3.566,3.566,0,0,1,1.35-1.128,8.92,8.92,0,0,1,2.364-.768A20.559,20.559,0,0,1,30.2,18.97V17.722a4,4,0,0,0-.714-2.55,2.548,2.548,0,0,0-2.118-.894,4,4,0,0,0-1.47.24,5.206,5.206,0,0,0-1.026.528,6.468,6.468,0,0,0-.684.528.741.741,0,0,1-.444.24.388.388,0,0,1-.36-.216l-.2-.348a6.939,6.939,0,0,1,1.968-1.416,5.5,5.5,0,0,1,2.34-.48,4.269,4.269,0,0,1,1.68.306,3.1,3.1,0,0,1,1.194.876,3.83,3.83,0,0,1,.714,1.38,6.351,6.351,0,0,1,.24,1.806V25.5Zm-4.8-.636a5.068,5.068,0,0,0,1.278-.151,4.69,4.69,0,0,0,1.08-.42,5.273,5.273,0,0,0,.93-.642q.432-.372.852-.8V19.738A21.4,21.4,0,0,0,27.27,20a8.453,8.453,0,0,0-2.029.57,2.974,2.974,0,0,0-1.176.858,1.825,1.825,0,0,0-.377,1.134,2.5,2.5,0,0,0,.2,1.038,1.993,1.993,0,0,0,1.278,1.135A3.063,3.063,0,0,0,26.063,24.863Z"
               transform="translate(-0.624 -4.088)"
               id="path934" />
            <path
               d="M43.02,15.154a1.226,1.226,0,0,1-.115.1.239.239,0,0,1-.15.042.626.626,0,0,1-.33-.162,4.454,4.454,0,0,0-.558-.354,4.706,4.706,0,0,0-.87-.354,4.863,4.863,0,0,0-3.1.2,3.635,3.635,0,0,0-1.344,1.05,4.813,4.813,0,0,0-.834,1.656,7.682,7.682,0,0,0-.287,2.184,7.72,7.72,0,0,0,.293,2.232,4.754,4.754,0,0,0,.834,1.638,3.564,3.564,0,0,0,1.308,1.015,4.1,4.1,0,0,0,1.7.347,4.389,4.389,0,0,0,1.446-.2,4.608,4.608,0,0,0,.96-.444,4.328,4.328,0,0,0,.6-.444.62.62,0,0,1,.355-.2.275.275,0,0,1,.239.12l.312.384a3.49,3.49,0,0,1-.7.672,4.672,4.672,0,0,1-.948.54,5.747,5.747,0,0,1-1.146.355,6.444,6.444,0,0,1-1.29.126,5.132,5.132,0,0,1-2.082-.414,4.516,4.516,0,0,1-1.62-1.2,5.605,5.605,0,0,1-1.056-1.926,8.22,8.22,0,0,1-.378-2.592,8.179,8.179,0,0,1,.36-2.5,5.616,5.616,0,0,1,1.05-1.944,4.712,4.712,0,0,1,1.692-1.266,5.556,5.556,0,0,1,2.3-.45,5.412,5.412,0,0,1,2.07.372,5.074,5.074,0,0,1,1.578,1.008Z"
               transform="translate(-0.624 -4.088)"
               id="path936" />
            <path
               d="M46.318,25.5V8.038h1.141V15.6a6.719,6.719,0,0,1,1.89-1.626,4.719,4.719,0,0,1,2.381-.606,4.488,4.488,0,0,1,1.735.312,3.194,3.194,0,0,1,1.242.9,3.984,3.984,0,0,1,.744,1.416,6.424,6.424,0,0,1,.252,1.872V25.5h-1.14V17.866a4.09,4.09,0,0,0-.768-2.634,2.841,2.841,0,0,0-2.353-.954,4.16,4.16,0,0,0-2.183.606,6.331,6.331,0,0,0-1.8,1.662V25.5Z"
               transform="translate(-0.624 -4.088)"
               id="path938" />
          </g>
        </g>
        <g
           id="UOS">
          <g
             style="isolation: isolate"
             id="g949">
            <path
               d="M70.616,23.384a4.958,4.958,0,0,0,1.944-.36,3.94,3.94,0,0,0,1.448-1.032,4.57,4.57,0,0,0,.9-1.639,7.168,7.168,0,0,0,.312-2.2V4.345h5.408V18.152a10.8,10.8,0,0,1-.7,3.936,8.8,8.8,0,0,1-1.993,3.087,8.981,8.981,0,0,1-3.151,2.017,12.517,12.517,0,0,1-8.368,0,9.007,9.007,0,0,1-3.153-2.017,8.723,8.723,0,0,1-1.983-3.087,10.883,10.883,0,0,1-.688-3.936V4.345h5.408V18.137a7.156,7.156,0,0,0,.311,2.2,4.641,4.641,0,0,0,.905,1.648,3.875,3.875,0,0,0,1.448,1.04A4.955,4.955,0,0,0,70.616,23.384Z"
               transform="translate(-0.624 -4.088)"
               fill="#28497c"
               id="path943" />
            <path
               d="M105.88,15.992a12.53,12.53,0,0,1-.872,4.7A11.117,11.117,0,0,1,98.736,27a13.922,13.922,0,0,1-9.912,0,11.127,11.127,0,0,1-6.3-6.3,12.511,12.511,0,0,1-.872-4.7,12.518,12.518,0,0,1,.872-4.7,11.185,11.185,0,0,1,2.464-3.775A11.365,11.365,0,0,1,88.824,5a13.057,13.057,0,0,1,4.96-.912,12.885,12.885,0,0,1,4.952.92,11.442,11.442,0,0,1,3.816,2.52,11.264,11.264,0,0,1,2.456,3.777A12.483,12.483,0,0,1,105.88,15.992Zm-5.536,0A10.1,10.1,0,0,0,99.9,12.88a6.588,6.588,0,0,0-1.289-2.344,5.545,5.545,0,0,0-2.055-1.472,7.086,7.086,0,0,0-2.768-.511,7.184,7.184,0,0,0-2.792.511,5.537,5.537,0,0,0-2.064,1.472A6.586,6.586,0,0,0,87.64,12.88a10.071,10.071,0,0,0-.448,3.112,10.126,10.126,0,0,0,.448,3.128,6.578,6.578,0,0,0,1.288,2.344,5.476,5.476,0,0,0,2.064,1.465,7.278,7.278,0,0,0,2.792.5,7.178,7.178,0,0,0,2.768-.5,5.483,5.483,0,0,0,2.055-1.465A6.579,6.579,0,0,0,99.9,19.12,10.156,10.156,0,0,0,100.344,15.992Z"
               transform="translate(-0.624 -4.088)"
               fill="#28497c"
               id="path945" />
            <path
               d="M120.184,9.08a2.062,2.062,0,0,1-.5.576,1.134,1.134,0,0,1-.681.193,1.661,1.661,0,0,1-.792-.233c-.282-.154-.6-.328-.96-.519a7.914,7.914,0,0,0-1.224-.521,4.917,4.917,0,0,0-1.568-.231,3.38,3.38,0,0,0-2.264.647,2.2,2.2,0,0,0-.744,1.752,1.612,1.612,0,0,0,.449,1.168,3.829,3.829,0,0,0,1.175.8,12.408,12.408,0,0,0,1.664.616q.936.281,1.912.624a17.276,17.276,0,0,1,1.913.808,6.4,6.4,0,0,1,1.664,1.184A5.535,5.535,0,0,1,121.4,17.7a6.244,6.244,0,0,1,.449,2.489,8.108,8.108,0,0,1-.561,3.023,7.08,7.08,0,0,1-1.624,2.456,7.53,7.53,0,0,1-2.624,1.648,9.841,9.841,0,0,1-3.544.6,11.388,11.388,0,0,1-2.216-.224,13.089,13.089,0,0,1-2.183-.632,12.593,12.593,0,0,1-1.985-.969,8.4,8.4,0,0,1-1.616-1.248l1.6-2.526a1.289,1.289,0,0,1,.495-.464,1.4,1.4,0,0,1,.688-.177,1.808,1.808,0,0,1,.968.3q.487.3,1.105.671a8.773,8.773,0,0,0,1.416.672,5.3,5.3,0,0,0,1.887.3,3.6,3.6,0,0,0,2.288-.647,2.47,2.47,0,0,0,.816-2.057,1.952,1.952,0,0,0-.447-1.328,3.476,3.476,0,0,0-1.177-.848,10.993,10.993,0,0,0-1.656-.592q-.928-.256-1.9-.568a13.981,13.981,0,0,1-1.9-.768,5.989,5.989,0,0,1-1.655-1.2,5.589,5.589,0,0,1-1.177-1.856,7.361,7.361,0,0,1-.447-2.743,6.513,6.513,0,0,1,.527-2.561,6.6,6.6,0,0,1,1.553-2.224,7.631,7.631,0,0,1,2.511-1.56,9.29,9.29,0,0,1,3.409-.584,12.891,12.891,0,0,1,2.087.168,11.043,11.043,0,0,1,1.928.5,10.577,10.577,0,0,1,1.7.784,7.87,7.87,0,0,1,1.416,1.032Z"
               transform="translate(-0.624 -4.088)"
               fill="#28497c"
               id="path947" />
          </g>
        </g>
        <g
           id="FÜR_ALLE_ANGEHENDEN_LEHRERINNEN_UND_LEHRER"
           data-name="FÜR ALLE ANGEHENDEN LEHRERINNEN UND LEHRER"
           style="isolation: isolate">
          <g
             style="isolation: isolate"
             id="g1026">
            <path
               d="M38.348,33.514v.51h-4.47v3.57h3.87v.51h-3.87V42H33.26v-8.49Z"
               transform="translate(-0.624 -4.088)"
               fill="#28497c"
               id="path952" />
            <path
               d="M43.262,41.566a2.666,2.666,0,0,0,1.094-.213,2.351,2.351,0,0,0,.82-.591,2.62,2.62,0,0,0,.512-.89,3.348,3.348,0,0,0,.177-1.108v-5.25h.613v5.25a3.833,3.833,0,0,1-.222,1.312,3.141,3.141,0,0,1-.64,1.061,2.921,2.921,0,0,1-1.013.711,3.614,3.614,0,0,1-2.682,0,2.939,2.939,0,0,1-1.015-.711,3.136,3.136,0,0,1-.638-1.061,3.785,3.785,0,0,1-.222-1.312v-5.25h.617v5.244a3.378,3.378,0,0,0,.178,1.108,2.606,2.606,0,0,0,.51.89,2.328,2.328,0,0,0,.816.594A2.636,2.636,0,0,0,43.262,41.566ZM42.5,32.014a.434.434,0,0,1-.042.184.523.523,0,0,1-.108.149.541.541,0,0,1-.157.1.476.476,0,0,1-.185.039.464.464,0,0,1-.184-.039.574.574,0,0,1-.152-.1.5.5,0,0,1-.106-.149.447.447,0,0,1-.039-.184.459.459,0,0,1,.039-.185.551.551,0,0,1,.106-.16.508.508,0,0,1,.152-.108.464.464,0,0,1,.184-.039.476.476,0,0,1,.185.039.483.483,0,0,1,.157.108.578.578,0,0,1,.108.16A.446.446,0,0,1,42.5,32.014Zm2.495,0a.447.447,0,0,1-.039.184.439.439,0,0,1-.107.149.618.618,0,0,1-.157.1.454.454,0,0,1-.182.039.478.478,0,0,1-.19-.039.574.574,0,0,1-.152-.1.463.463,0,0,1-.1-.149.432.432,0,0,1-.04-.184.474.474,0,0,1,.145-.345.466.466,0,0,1,.342-.147.454.454,0,0,1,.182.039.543.543,0,0,1,.157.108.484.484,0,0,1,.107.16A.459.459,0,0,1,45,32.014Z"
               transform="translate(-0.624 -4.088)"
               fill="#28497c"
               id="path954" />
            <path
               d="M49.718,38.165V42h-.613v-8.49h2.166a3.54,3.54,0,0,1,2.2.568,1.981,1.981,0,0,1,.725,1.665,2.254,2.254,0,0,1-.168.887,2.056,2.056,0,0,1-.482.7,2.538,2.538,0,0,1-.759.5,3.394,3.394,0,0,1-1,.255.993.993,0,0,1,.258.241L54.962,42h-.534a.338.338,0,0,1-.165-.036.409.409,0,0,1-.135-.12L51.41,38.405a.6.6,0,0,0-.22-.187.913.913,0,0,0-.362-.053Zm0-.457h1.475a3.5,3.5,0,0,0,1.012-.134,2.2,2.2,0,0,0,.756-.388,1.668,1.668,0,0,0,.471-.6,1.9,1.9,0,0,0,.162-.8A1.561,1.561,0,0,0,53,34.438,2.887,2.887,0,0,0,51.271,34H49.718Z"
               transform="translate(-0.624 -4.088)"
               fill="#28497c"
               id="path956" />
            <path
               d="M65.2,42h-.474a.2.2,0,0,1-.137-.045.289.289,0,0,1-.084-.117l-1-2.466h-4.17l-1,2.466a.283.283,0,0,1-.084.115.225.225,0,0,1-.145.047h-.467l3.473-8.49h.612ZM59.521,38.92h3.8l-1.733-4.29a2.4,2.4,0,0,1-.084-.231q-.044-.129-.084-.273c-.028.1-.057.187-.084.273s-.057.165-.084.237Z"
               transform="translate(-0.624 -4.088)"
               fill="#28497c"
               id="path958" />
            <path
               d="M67.159,41.482h4.027V42H66.547v-8.49h.612Z"
               transform="translate(-0.624 -4.088)"
               fill="#28497c"
               id="path960" />
            <path
               d="M73.3,41.482h4.026V42H72.685v-8.49H73.3Z"
               transform="translate(-0.624 -4.088)"
               fill="#28497c"
               id="path962" />
            <path
               d="M83.911,33.514v.51h-4.47v3.433h3.72v.5h-3.72V41.5h4.47V42H78.823v-8.49Z"
               transform="translate(-0.624 -4.088)"
               fill="#28497c"
               id="path964" />
            <path
               d="M94.621,42h-.475a.2.2,0,0,1-.137-.045.3.3,0,0,1-.084-.117l-1-2.466h-4.17l-1,2.466a.266.266,0,0,1-.084.115.223.223,0,0,1-.144.047h-.468l3.474-8.49h.611ZM88.938,38.92h3.8l-1.734-4.29c-.029-.068-.056-.144-.084-.231s-.056-.177-.084-.273q-.042.144-.084.273c-.028.087-.056.165-.084.237Z"
               transform="translate(-0.624 -4.088)"
               fill="#28497c"
               id="path966" />
            <path
               d="M96.4,33.536a.272.272,0,0,1,.1.092l5.5,7.357a3.227,3.227,0,0,1-.018-.349V33.514h.54V42h-.294a.259.259,0,0,1-.222-.12L96.48,34.516a3.176,3.176,0,0,1,.019.342V42h-.534v-8.49h.3A.309.309,0,0,1,96.4,33.536Z"
               transform="translate(-0.624 -4.088)"
               fill="#28497c"
               id="path968" />
            <path
               d="M108.685,41.6a6.451,6.451,0,0,0,.8-.045,4.164,4.164,0,0,0,.669-.135,4.025,4.025,0,0,0,.588-.218c.187-.086.373-.184.562-.291V38.626h-1.632a.152.152,0,0,1-.111-.042.124.124,0,0,1-.045-.1v-.336h2.345V41.17a5.217,5.217,0,0,1-.66.4,4.268,4.268,0,0,1-.731.291,5.647,5.647,0,0,1-.84.181,7.138,7.138,0,0,1-.984.062,4.4,4.4,0,0,1-1.677-.308,3.739,3.739,0,0,1-1.3-.876,3.963,3.963,0,0,1-.844-1.372,5.487,5.487,0,0,1,0-3.573,3.9,3.9,0,0,1,.853-1.368,3.745,3.745,0,0,1,1.341-.876,4.805,4.805,0,0,1,1.766-.309,5.572,5.572,0,0,1,.9.067,4.144,4.144,0,0,1,.764.194A3.6,3.6,0,0,1,111.1,34a4.376,4.376,0,0,1,.587.434l-.162.265a.169.169,0,0,1-.149.09.221.221,0,0,1-.1-.025,1.246,1.246,0,0,1-.26-.168,2.851,2.851,0,0,0-.462-.275,3.814,3.814,0,0,0-.73-.259,4.315,4.315,0,0,0-1.061-.113,4.045,4.045,0,0,0-1.494.263,3.149,3.149,0,0,0-1.137.756,3.343,3.343,0,0,0-.727,1.2,4.659,4.659,0,0,0-.255,1.589,4.738,4.738,0,0,0,.258,1.615,3.45,3.45,0,0,0,.724,1.209,3.085,3.085,0,0,0,1.116.758A3.786,3.786,0,0,0,108.685,41.6Z"
               transform="translate(-0.624 -4.088)"
               fill="#28497c"
               id="path970" />
            <path
               d="M119.106,33.514v.51h-4.469v3.433h3.719v.5h-3.719V41.5h4.469V42h-5.087v-8.49Z"
               transform="translate(-0.624 -4.088)"
               fill="#28497c"
               id="path972" />
            <path
               d="M127.662,42h-.618V37.936h-5.315V42h-.619v-8.49h.619v3.96h5.315v-3.96h.618Z"
               transform="translate(-0.624 -4.088)"
               fill="#28497c"
               id="path974" />
            <path
               d="M135.271,33.514v.51H130.8v3.433h3.721v.5H130.8V41.5h4.471V42h-5.089v-8.49Z"
               transform="translate(-0.624 -4.088)"
               fill="#28497c"
               id="path976" />
            <path
               d="M137.706,33.536a.285.285,0,0,1,.1.092l5.5,7.357c-.012-.12-.018-.236-.018-.349V33.514h.54V42h-.294a.258.258,0,0,1-.222-.12l-5.52-7.368q.018.18.018.342V42h-.535v-8.49h.3A.318.318,0,0,1,137.706,33.536Z"
               transform="translate(-0.624 -4.088)"
               fill="#28497c"
               id="path978" />
            <path
               d="M153.492,37.756a5.007,5.007,0,0,1-.294,1.771,3.817,3.817,0,0,1-.828,1.338,3.586,3.586,0,0,1-1.278.845,4.434,4.434,0,0,1-1.65.294h-3.1v-8.49h3.1a4.474,4.474,0,0,1,1.65.294,3.591,3.591,0,0,1,1.278.847,3.79,3.79,0,0,1,.828,1.338A4.973,4.973,0,0,1,153.492,37.756Zm-.636,0a4.742,4.742,0,0,0-.246-1.584A3.322,3.322,0,0,0,151.917,35a2.936,2.936,0,0,0-1.077-.733,3.733,3.733,0,0,0-1.4-.252h-2.478v7.494h2.478a3.733,3.733,0,0,0,1.4-.252,2.946,2.946,0,0,0,1.077-.732,3.317,3.317,0,0,0,.693-1.176A4.757,4.757,0,0,0,152.856,37.756Z"
               transform="translate(-0.624 -4.088)"
               fill="#28497c"
               id="path980" />
            <path
               d="M160.554,33.514v.51h-4.47v3.433h3.72v.5h-3.72V41.5h4.47V42h-5.088v-8.49Z"
               transform="translate(-0.624 -4.088)"
               fill="#28497c"
               id="path982" />
            <path
               d="M162.989,33.536a.279.279,0,0,1,.1.092l5.5,7.357a3.233,3.233,0,0,1-.019-.349V33.514h.54V42h-.294a.257.257,0,0,1-.221-.12l-5.521-7.368a3.176,3.176,0,0,1,.019.342V42h-.534v-8.49h.3A.311.311,0,0,1,162.989,33.536Z"
               transform="translate(-0.624 -4.088)"
               fill="#28497c"
               id="path984" />
            <path
               d="M174.558,41.482h4.026V42h-4.639v-8.49h.613Z"
               transform="translate(-0.624 -4.088)"
               fill="#28497c"
               id="path986" />
            <path
               d="M185.172,33.514v.51H180.7v3.433h3.721v.5H180.7V41.5h4.471V42h-5.089v-8.49Z"
               transform="translate(-0.624 -4.088)"
               fill="#28497c"
               id="path988" />
            <path
               d="M193.728,42h-.619V37.936h-5.316V42h-.618v-8.49h.618v3.96h5.316v-3.96h.619Z"
               transform="translate(-0.624 -4.088)"
               fill="#28497c"
               id="path990" />
            <path
               d="M197.039,38.165V42h-.611v-8.49h2.166a3.534,3.534,0,0,1,2.195.568,1.982,1.982,0,0,1,.727,1.665,2.272,2.272,0,0,1-.168.887,2.09,2.09,0,0,1-.484.7,2.538,2.538,0,0,1-.759.5,3.364,3.364,0,0,1-1,.255,1,1,0,0,1,.257.241L202.283,42h-.533a.341.341,0,0,1-.165-.036.4.4,0,0,1-.136-.12l-2.718-3.443a.6.6,0,0,0-.218-.187.924.924,0,0,0-.364-.053Zm0-.457h1.477a3.484,3.484,0,0,0,1.01-.134,2.2,2.2,0,0,0,.756-.388,1.67,1.67,0,0,0,.472-.6,1.915,1.915,0,0,0,.162-.8,1.559,1.559,0,0,0-.595-1.345A2.879,2.879,0,0,0,198.594,34h-1.555Z"
               transform="translate(-0.624 -4.088)"
               fill="#28497c"
               id="path992" />
            <path
               d="M208.907,33.514v.51h-4.469v3.433h3.719v.5h-3.719V41.5h4.469V42h-5.088v-8.49Z"
               transform="translate(-0.624 -4.088)"
               fill="#28497c"
               id="path994" />
            <path
               d="M211.7,38.165V42h-.612v-8.49h2.166a3.537,3.537,0,0,1,2.2.568,1.979,1.979,0,0,1,.726,1.665,2.272,2.272,0,0,1-.168.887,2.073,2.073,0,0,1-.483.7,2.545,2.545,0,0,1-.758.5,3.394,3.394,0,0,1-1,.255,1,1,0,0,1,.257.241L216.947,42h-.534a.341.341,0,0,1-.165-.036.409.409,0,0,1-.135-.12L213.4,38.405a.617.617,0,0,0-.22-.187.915.915,0,0,0-.363-.053Zm0-.457h1.476a3.491,3.491,0,0,0,1.011-.134,2.2,2.2,0,0,0,.756-.388,1.657,1.657,0,0,0,.471-.6,1.9,1.9,0,0,0,.162-.8,1.561,1.561,0,0,0-.594-1.345A2.884,2.884,0,0,0,213.257,34H211.7Z"
               transform="translate(-0.624 -4.088)"
               fill="#28497c"
               id="path996" />
            <path
               d="M219.323,42h-.618v-8.49h.618Z"
               transform="translate(-0.624 -4.088)"
               fill="#28497c"
               id="path998" />
            <path
               d="M222.5,33.536a.278.278,0,0,1,.1.092l5.5,7.357a3.233,3.233,0,0,1-.019-.349V33.514h.54V42h-.294a.259.259,0,0,1-.222-.12l-5.52-7.368a3.165,3.165,0,0,1,.018.342V42h-.534v-8.49h.3A.311.311,0,0,1,222.5,33.536Z"
               transform="translate(-0.624 -4.088)"
               fill="#28497c"
               id="path1000" />
            <path
               d="M231.575,33.536a.278.278,0,0,1,.1.092l5.5,7.357c-.012-.12-.018-.236-.018-.349V33.514h.54V42H237.4a.259.259,0,0,1-.222-.12l-5.52-7.368q.018.18.018.342V42h-.534v-8.49h.3A.318.318,0,0,1,231.575,33.536Z"
               transform="translate(-0.624 -4.088)"
               fill="#28497c"
               id="path1002" />
            <path
               d="M245.3,33.514v.51h-4.47v3.433h3.72v.5h-3.72V41.5h4.47V42h-5.088v-8.49Z"
               transform="translate(-0.624 -4.088)"
               fill="#28497c"
               id="path1004" />
            <path
               d="M247.739,33.536a.278.278,0,0,1,.1.092l5.5,7.357c-.012-.12-.018-.236-.018-.349V33.514h.54V42h-.294a.259.259,0,0,1-.222-.12l-5.52-7.368q.018.18.018.342V42h-.534v-8.49h.3A.318.318,0,0,1,247.739,33.536Z"
               transform="translate(-0.624 -4.088)"
               fill="#28497c"
               id="path1006" />
            <path
               d="M261.833,41.566a2.674,2.674,0,0,0,1.095-.213,2.357,2.357,0,0,0,.819-.591,2.606,2.606,0,0,0,.513-.89,3.374,3.374,0,0,0,.177-1.108v-5.25h.612v5.25a3.809,3.809,0,0,1-.222,1.312,3.139,3.139,0,0,1-.639,1.061,2.935,2.935,0,0,1-1.014.711,3.614,3.614,0,0,1-2.682,0,2.935,2.935,0,0,1-1.014-.711,3.123,3.123,0,0,1-.639-1.061,3.785,3.785,0,0,1-.222-1.312v-5.25h.617v5.244a3.378,3.378,0,0,0,.178,1.108,2.606,2.606,0,0,0,.51.89,2.338,2.338,0,0,0,.816.594A2.639,2.639,0,0,0,261.833,41.566Z"
               transform="translate(-0.624 -4.088)"
               fill="#28497c"
               id="path1008" />
            <path
               d="M267.929,33.536a.276.276,0,0,1,.1.092l5.5,7.357c-.011-.12-.017-.236-.017-.349V33.514h.54V42h-.294a.261.261,0,0,1-.223-.12l-5.519-7.368c.011.12.017.234.017.342V42H267.5v-8.49h.3A.321.321,0,0,1,267.929,33.536Z"
               transform="translate(-0.624 -4.088)"
               fill="#28497c"
               id="path1010" />
            <path
               d="M283.715,37.756a5.029,5.029,0,0,1-.294,1.771,3.831,3.831,0,0,1-.828,1.338,3.59,3.59,0,0,1-1.279.845,4.428,4.428,0,0,1-1.649.294h-3.1v-8.49h3.1a4.469,4.469,0,0,1,1.649.294,3.6,3.6,0,0,1,1.279.847,3.8,3.8,0,0,1,.828,1.338A5,5,0,0,1,283.715,37.756Zm-.636,0a4.742,4.742,0,0,0-.246-1.584A3.322,3.322,0,0,0,282.14,35a2.944,2.944,0,0,0-1.077-.733,3.733,3.733,0,0,0-1.4-.252h-2.478v7.494h2.478a3.733,3.733,0,0,0,1.4-.252,2.954,2.954,0,0,0,1.077-.732,3.317,3.317,0,0,0,.693-1.176A4.757,4.757,0,0,0,283.079,37.756Z"
               transform="translate(-0.624 -4.088)"
               fill="#28497c"
               id="path1012" />
            <path
               d="M288.616,41.482h4.027V42H288v-8.49h.612Z"
               transform="translate(-0.624 -4.088)"
               fill="#28497c"
               id="path1014" />
            <path
               d="M299.23,33.514v.51h-4.469v3.433h3.719v.5h-3.719V41.5h4.469V42h-5.087v-8.49Z"
               transform="translate(-0.624 -4.088)"
               fill="#28497c"
               id="path1016" />
            <path
               d="M307.786,42h-.618V37.936h-5.315V42h-.619v-8.49h.619v3.96h5.315v-3.96h.618Z"
               transform="translate(-0.624 -4.088)"
               fill="#28497c"
               id="path1018" />
            <path
               d="M311.1,38.165V42h-.612v-8.49h2.166a3.537,3.537,0,0,1,2.2.568,1.982,1.982,0,0,1,.726,1.665,2.254,2.254,0,0,1-.168.887,2.073,2.073,0,0,1-.483.7,2.538,2.538,0,0,1-.759.5,3.378,3.378,0,0,1-1,.255.993.993,0,0,1,.258.241L316.342,42h-.533a.335.335,0,0,1-.165-.036.4.4,0,0,1-.136-.12l-2.718-3.443a.606.606,0,0,0-.219-.187.918.918,0,0,0-.363-.053Zm0-.457h1.476a3.5,3.5,0,0,0,1.011-.134,2.2,2.2,0,0,0,.756-.388,1.681,1.681,0,0,0,.472-.6,1.915,1.915,0,0,0,.162-.8,1.561,1.561,0,0,0-.6-1.345A2.884,2.884,0,0,0,312.652,34H311.1Z"
               transform="translate(-0.624 -4.088)"
               fill="#28497c"
               id="path1020" />
            <path
               d="M322.966,33.514v.51H318.5v3.433h3.72v.5H318.5V41.5h4.47V42h-5.088v-8.49Z"
               transform="translate(-0.624 -4.088)"
               fill="#28497c"
               id="path1022" />
            <path
               d="M325.762,38.165V42h-.612v-8.49h2.166a3.537,3.537,0,0,1,2.2.568,1.982,1.982,0,0,1,.726,1.665,2.254,2.254,0,0,1-.168.887,2.073,2.073,0,0,1-.483.7,2.538,2.538,0,0,1-.759.5,3.378,3.378,0,0,1-1,.255.993.993,0,0,1,.258.241L331.006,42h-.533a.338.338,0,0,1-.165-.036.4.4,0,0,1-.136-.12l-2.718-3.443a.606.606,0,0,0-.219-.187.918.918,0,0,0-.363-.053Zm0-.457h1.476a3.5,3.5,0,0,0,1.011-.134,2.2,2.2,0,0,0,.756-.388,1.681,1.681,0,0,0,.472-.6,1.915,1.915,0,0,0,.162-.8,1.561,1.561,0,0,0-.6-1.345A2.884,2.884,0,0,0,327.316,34h-1.554Z"
               transform="translate(-0.624 -4.088)"
               fill="#28497c"
               id="path1024" />
          </g>
        </g>
      </g>
    </g>
  </g>
</svg>
