<svg xmlns="http://www.w3.org/2000/svg" xmlns:xlink="http://www.w3.org/1999/xlink" viewBox="0 0 270.51 52.232">
  <defs>
    <linearGradient id="Unbenannter_Verlauf_7" data-name="Unbenannter Verlauf 7" x1="1.115" y1="23.821" x2="265.85" y2="23.821" gradientUnits="userSpaceOnUse">
      <stop offset="0.002" stop-color="#5c6cba"/>
      <stop offset="0.081" stop-color="#5767b6"/>
      <stop offset="0.389" stop-color="#4859aa"/>
      <stop offset="0.983" stop-color="#4253a2"/>
    </linearGradient>
    <linearGradient id="Unbenannter_Verlauf_7-2" x1="27.628" y1="24.734" x2="37.336" y2="24.734" xlink:href="#Unbenannter_Verlauf_7"/>
  </defs>
  <title>11_tutorial_mouseover</title>
  <g style="isolation: isolate">
    <g id="Ebene_2" data-name="Ebene 2">
      <g id="Ebene_1-2" data-name="Ebene 1">
        <g>
          <g style="mix-blend-mode: multiply">
            <path d="M270.207,45.834c-.02,2.658-11.546,4.806-25.73,4.795L28.283,50.466c-14.2-.011-25.677-2.176-25.657-4.834l.3-40.514c.02-2.66,11.534-4.807,25.729-4.8L244.852.486C259.036.5,270.53,2.661,270.51,5.321Z" fill="#fff"/>
            <path d="M268.7,45.474c-.02,2.636-11.479,4.766-25.58,4.755L28.189,50.067c-14.112-.011-25.528-2.158-25.508-4.794L2.981,5.1C3,2.462,14.448.333,28.56.344L243.492.507C257.593.517,269.02,2.664,269,5.3Z" fill="#fefeff"/>
            <path d="M267.193,45.114c-.02,2.613-11.411,4.725-25.43,4.715L28.094,49.667c-14.029-.01-25.378-2.14-25.358-4.753l.3-39.832C3.053,2.466,14.434.356,28.463.366L242.132.528c14.018.01,25.378,2.138,25.359,4.754Z" fill="#fdfdff"/>
            <path d="M265.686,44.754c-.02,2.591-11.344,4.685-25.279,4.675L28,49.268c-13.946-.011-25.227-2.122-25.208-4.712l.3-39.493C3.106,2.47,14.419.378,28.365.388L240.772.549c13.936.01,25.228,2.12,25.209,4.713Z" fill="#fcfcff"/>
            <path d="M264.178,44.394c-.019,2.569-11.275,4.645-25.128,4.634L27.905,48.869c-13.863-.011-25.078-2.1-25.059-4.672L3.139,5.045C3.158,2.474,14.4.4,28.267.41L239.412.57c13.853.01,25.078,2.1,25.059,4.673Z" fill="#fcfcff"/>
            <path d="M262.671,44.034c-.019,2.547-11.208,4.6-24.978,4.594L27.81,48.469C14.03,48.459,2.883,46.384,2.9,43.838l.29-38.811C3.211,2.478,14.39.422,28.169.432L238.052.591c13.77.01,24.929,2.084,24.91,4.632Z" fill="#fbfbff"/>
            <path d="M261.164,43.674c-.019,2.524-11.141,4.564-24.828,4.554L27.716,48.07C14.019,48.059,2.938,46,2.957,43.479L3.245,5.008C3.263,2.482,14.375.444,28.072.454l208.62.158c13.688.01,24.779,2.066,24.76,4.592Z" fill="#fafaff"/>
            <path d="M259.657,43.314c-.019,2.5-11.073,4.524-24.678,4.513L27.621,47.67c-13.614-.01-24.628-2.048-24.609-4.55L3.3,4.99C3.316,2.486,14.36.466,27.974.476L235.332.633c13.605.01,24.629,2.048,24.61,4.551Z" fill="#f9f9ff"/>
            <path d="M258.15,42.954c-.019,2.48-11.006,4.483-24.528,4.473l-206.1-.156c-13.53-.01-24.477-2.03-24.459-4.51L3.35,4.972C3.368,2.49,14.346.488,27.876.5l206.1.156c13.522.01,24.479,2.029,24.461,4.511Z" fill="#f8f8ff"/>
            <path d="M256.643,42.594c-.019,2.457-10.938,4.443-24.378,4.433L27.432,46.872C13.984,46.862,3.1,44.86,3.122,42.4L3.4,4.953C3.421,2.494,14.331.51,27.778.52L232.612.675c13.439.01,24.329,2.011,24.311,4.47Z" fill="#f7f7fe"/>
            <path d="M255.136,42.234c-.019,2.435-10.871,4.4-24.228,4.392L27.337,46.472c-13.364-.01-24.178-1.994-24.159-4.428L3.455,4.935C3.473,2.5,14.316.532,27.681.542L231.252.7c13.357.01,24.179,1.993,24.161,4.43Z" fill="#f7f7fe"/>
            <path d="M253.629,41.874c-.019,2.413-10.8,4.362-24.078,4.352L27.242,46.073C13.961,46.063,3.215,44.1,3.233,41.685L3.508,4.917C3.526,2.5,14.3.554,27.583.564L229.892.717c13.274.01,24.03,1.975,24.012,4.389Z" fill="#f6f6fe"/>
            <path d="M252.121,41.514c-.017,2.39-10.735,4.322-23.927,4.312L27.148,45.674c-13.2-.01-23.878-1.958-23.86-4.348L3.56,4.9C3.578,2.507,14.287.576,27.485.586L228.532.738c13.191.01,23.88,1.957,23.862,4.349Z" fill="#f5f5fe"/>
            <path d="M250.614,41.154c-.017,2.368-10.667,4.281-23.776,4.271L27.053,45.274c-13.115-.01-23.727-1.939-23.71-4.307L3.613,4.88C3.631,2.511,14.272.6,27.387.608L227.172.759c13.109.01,23.73,1.939,23.712,4.308Z" fill="#f4f4fe"/>
            <path d="M249.107,40.794c-.017,2.346-10.6,4.241-23.626,4.231l-198.522-.15C13.927,44.865,3.381,42.954,3.4,40.609L3.666,4.862C3.683,2.515,14.257.62,27.29.63L225.812.78c13.026.01,23.58,1.92,23.563,4.268Z" fill="#f3f3fe"/>
            <path d="M247.6,40.434c-.017,2.324-10.533,4.2-23.476,4.191l-197.26-.149c-12.949-.01-23.428-1.9-23.41-4.226L3.718,4.843C3.736,2.519,14.243.642,27.192.652L224.452.8c12.943.01,23.43,1.9,23.413,4.227Z" fill="#f2f2fe"/>
            <path d="M246.093,40.074c-.017,2.3-10.465,4.16-23.326,4.15l-196-.148c-12.866-.01-23.277-1.884-23.26-4.185L3.771,4.825C3.788,2.523,14.228.665,27.094.674l196,.148c12.862.01,23.281,1.884,23.264,4.186Z" fill="#f2f2fe"/>
            <path d="M244.586,39.714c-.017,2.279-10.4,4.12-23.176,4.11L26.675,43.677c-12.783-.01-23.128-1.866-23.111-4.145l.26-34.725C3.841,2.527,14.213.687,27,.7L221.731.844c12.779.009,23.132,1.865,23.115,4.145Z" fill="#f1f1fe"/>
            <path d="M243.079,39.354c-.017,2.257-10.33,4.079-23.026,4.07L26.58,43.277c-12.7-.009-22.978-1.847-22.961-4.1L3.876,4.788C3.893,2.531,14.2.709,26.9.718L220.371.865c12.7.009,22.982,1.847,22.965,4.1Z" fill="#f0f0fe"/>
            <path d="M241.572,38.994c-.017,2.234-10.263,4.039-22.876,4.029l-192.21-.145c-12.617-.01-22.828-1.83-22.812-4.063L3.929,4.77C3.946,2.535,14.184.731,26.8.74l192.21.146C231.624.9,241.843,2.714,241.826,4.95Z" fill="#efeffe"/>
            <path d="M240.064,38.634c-.016,2.212-10.194,4-22.725,3.989L26.391,42.479c-12.534-.01-22.678-1.812-22.661-4.023l.252-33.7C4,2.539,14.169.753,26.7.762L217.651.907c12.531.009,22.682,1.81,22.665,4.023Z" fill="#eeeefe"/>
            <path d="M238.557,38.274c-.016,2.19-10.127,3.958-22.575,3.949L26.3,42.079C13.846,42.07,3.768,40.286,3.785,38.1L4.034,4.733C4.051,2.543,14.155.775,26.605.784L216.291.928c12.448.009,22.532,1.792,22.516,3.983Z" fill="#ededfe"/>
            <path d="M237.05,37.914c-.016,2.167-10.059,3.918-22.425,3.908L26.2,41.68C13.834,41.671,3.824,39.905,3.84,37.738L4.087,4.715C4.1,2.547,14.14.8,26.507.806L214.931.949C227.3.958,237.313,2.723,237.3,4.891Z" fill="#ececfe"/>
            <path d="M235.543,37.554c-.016,2.145-9.992,3.877-22.274,3.868L26.107,41.281c-12.284-.01-22.228-1.757-22.212-3.9L4.14,4.7C4.156,2.551,14.125.819,26.41.828L213.571.97c12.283.009,22.233,1.756,22.216,3.9Z" fill="#ececfe"/>
            <path d="M234.036,37.194c-.016,2.123-9.925,3.837-22.124,3.828l-185.9-.141c-12.2-.009-22.078-1.738-22.063-3.861L4.192,4.678C4.208,2.555,14.111.841,26.312.85l185.9.141c12.2.009,22.083,1.738,22.067,3.861Z" fill="#ebebfe"/>
            <path d="M232.529,36.834c-.016,2.1-9.857,3.8-21.974,3.787L25.918,40.482C13.8,40.473,3.99,38.762,4.006,36.662l.239-32C4.261,2.559,14.1.863,26.214.872l184.637.14c12.117.009,21.933,1.719,21.917,3.821Z" fill="#eaeafe"/>
            <path d="M231.022,36.474c-.016,2.078-9.79,3.756-21.824,3.747L25.823,40.082c-12.035-.009-21.778-1.7-21.762-3.779L4.3,4.642C4.313,2.563,14.081.885,26.116.894l183.375.139c12.034.009,21.783,1.7,21.767,3.78Z" fill="#e9e9fd"/>
            <path d="M229.515,36.114c-.016,2.056-9.722,3.716-21.674,3.707L25.729,39.683C13.777,39.674,4.1,38,4.116,35.944L4.35,4.623C4.366,2.567,14.067.907,26.019.916l182.112.138c11.952.009,21.633,1.683,21.618,3.74Z" fill="#e8e8fd"/>
            <path d="M228.007,35.754c-.015,2.034-9.654,3.675-21.523,3.667l-180.85-.137c-11.869-.009-21.478-1.666-21.463-3.7L4.4,4.605C4.418,2.571,14.052.929,25.921.938l180.85.137c11.869.009,21.483,1.665,21.468,3.7Z" fill="#e7e7fd"/>
            <path d="M226.5,35.394c-.015,2.011-9.586,3.635-21.373,3.626L25.539,38.884c-11.785-.009-21.328-1.647-21.313-3.658l.23-30.639C4.471,2.575,14.037.951,25.823.96L205.411,1.1c11.786.009,21.334,1.647,21.318,3.659Z" fill="#e7e7fd"/>
            <path d="M224.993,35.034c-.015,1.989-9.519,3.595-21.223,3.586L25.445,38.485c-11.7-.009-21.178-1.629-21.163-3.617l.226-30.3C4.523,2.579,14.023.974,25.725.982l178.326.135c11.7.009,21.184,1.629,21.169,3.618Z" fill="#e6e6fd"/>
            <path d="M223.486,34.674c-.015,1.967-9.451,3.554-21.073,3.546L25.35,38.086c-11.62-.009-21.028-1.611-21.013-3.577L4.561,4.55C4.576,2.583,14.008,1,25.628,1l177.063.134c11.621.009,21.034,1.61,21.019,3.578Z" fill="#e5e5fd"/>
            <path d="M221.979,34.314c-.015,1.944-9.384,3.514-20.923,3.505l-175.8-.133C13.719,37.678,4.377,36.094,4.392,34.15L4.614,4.532c.014-1.945,9.379-3.514,20.916-3.506l175.8.133c11.538.009,20.884,1.592,20.869,3.537Z" fill="#e4e4fd"/>
            <path d="M220.472,33.954c-.015,1.922-9.317,3.474-20.772,3.465L25.161,37.287c-11.454-.009-20.728-1.574-20.714-3.5L4.666,4.513c.015-1.922,9.312-3.473,20.766-3.465l174.539.132c11.455.009,20.734,1.574,20.72,3.5Z" fill="#e3e3fd"/>
            <path d="M218.965,33.594c-.015,1.9-9.249,3.433-20.622,3.425L25.066,36.888C13.7,36.879,4.488,35.332,4.5,33.432L4.719,4.5c.014-1.9,9.245-3.433,20.615-3.425L198.611,1.2c11.373.009,20.584,1.556,20.57,3.456Z" fill="#e2e2fd"/>
            <path d="M217.458,33.235c-.014,1.877-9.182,3.392-20.472,3.383l-172.014-.13C13.684,36.48,4.544,34.951,4.558,33.074l.214-28.6C4.786,2.6,13.949,1.084,25.237,1.092l172.014.131c11.29.008,20.435,1.537,20.42,3.415Z" fill="#e1e1fd"/>
            <path d="M215.95,32.875c-.013,1.854-9.113,3.351-20.321,3.343L24.877,36.089c-11.2-.009-20.278-1.52-20.264-3.374L4.824,4.458c.014-1.855,9.11-3.352,20.315-3.344l170.752.13c11.207.008,20.285,1.519,20.271,3.374Z" fill="#e1e1fd"/>
            <path d="M214.443,32.515c-.013,1.832-9.046,3.311-20.171,3.3L24.783,35.689c-11.122-.008-20.129-1.5-20.115-3.333L4.877,4.44c.014-1.833,9.043-3.312,20.164-3.3l169.489.129c11.126.008,20.136,1.5,20.122,3.334Z" fill="#e0e0fd"/>
            <path d="M212.936,32.155c-.013,1.81-8.978,3.271-20.021,3.262L24.688,35.29C13.65,35.282,4.71,33.807,4.723,32L4.929,4.422c.014-1.811,8.976-3.272,20.014-3.264l168.227.128c11.043.008,19.986,1.482,19.972,3.293Z" fill="#dfdffd"/>
            <path d="M211.429,31.8c-.013,1.787-8.911,3.23-19.871,3.222L24.593,34.891c-10.955-.009-19.828-1.465-19.815-3.253L4.982,4.4C5,2.615,13.89,1.172,24.845,1.18l166.965.127c10.96.008,19.836,1.464,19.823,3.252Z" fill="#dedefd"/>
            <path d="M209.922,31.435c-.013,1.765-8.843,3.19-19.721,3.182L24.5,34.491C13.627,34.483,4.82,33.045,4.834,31.279l.2-26.894C5.048,2.619,13.876,1.194,24.748,1.2l165.7.126c10.878.008,19.686,1.446,19.673,3.212Z" fill="#ddddfd"/>
            <path d="M208.415,31.075c-.013,1.743-8.776,3.149-19.571,3.141L24.4,34.092c-10.789-.008-19.528-1.428-19.515-3.171l.2-26.554C5.1,2.623,13.861,1.216,24.65,1.224l164.44.125c10.795.008,19.536,1.428,19.523,3.171Z" fill="#dcdcfd"/>
            <path d="M206.908,30.715c-.013,1.72-8.709,3.109-19.42,3.1L24.309,33.693C13.6,33.685,4.931,32.283,4.944,30.562l.2-26.214c.013-1.721,8.706-3.11,19.412-3.1L187.73,1.37c10.712.008,19.387,1.41,19.374,3.131Z" fill="#dcdcfd"/>
            <path d="M205.4,30.355c-.013,1.7-8.641,3.069-19.27,3.061L24.215,33.293C13.592,33.285,4.986,31.9,5,30.2L5.193,4.33c.012-1.7,8.639-3.07,19.261-3.061l161.916.122C197,1.4,205.607,2.782,205.594,4.481Z" fill="#dbdbfc"/>
            <path d="M203.893,30c-.012,1.676-8.573,3.028-19.119,3.02L24.12,32.894c-10.539-.008-19.078-1.374-19.066-3.05L5.245,4.312c.013-1.677,8.572-3.029,19.112-3.021l160.653.121c10.547.008,19.087,1.373,19.074,3.05Z" fill="#dadafc"/>
            <path d="M202.386,29.635c-.012,1.654-8.5,2.988-18.969,2.98l-159.391-.12C13.569,32.487,5.1,31.139,5.11,29.485L5.3,4.293c.012-1.654,8.5-2.988,18.961-2.98l159.391.12c10.464.008,18.937,1.355,18.925,3.009Z" fill="#d9d9fc"/>
            <path d="M200.879,29.275c-.012,1.631-8.438,2.948-18.819,2.94L23.931,32.1c-10.374-.008-18.778-1.337-18.766-2.968L5.351,4.275c.012-1.632,8.437-2.948,18.81-2.94l158.129.119c10.381.008,18.787,1.337,18.775,2.969Z" fill="#d8d8fc"/>
            <path d="M199.372,28.915c-.012,1.609-8.37,2.907-18.669,2.9L23.836,31.7c-10.29-.008-18.628-1.319-18.616-2.928L5.4,4.257c.012-1.61,8.37-2.908,18.66-2.9l156.867.118c10.3.008,18.637,1.319,18.625,2.928Z" fill="#d7d7fc"/>
            <path d="M197.865,28.555c-.012,1.587-8.3,2.867-18.519,2.859L23.742,31.3C13.534,31.289,5.263,30,5.275,28.409L5.456,4.238c.012-1.587,8.3-2.867,18.51-2.859l155.6.117c10.216.008,18.488,1.3,18.476,2.888Z" fill="#d7d7fc"/>
            <path d="M196.358,28.2c-.012,1.564-8.236,2.826-18.369,2.819L23.647,30.9C13.523,30.889,5.319,29.615,5.33,28.05L5.509,4.22C5.52,2.655,13.744,1.393,23.868,1.4l154.342.116c10.133.008,18.338,1.282,18.326,2.847Z" fill="#d6d6fc"/>
            <path d="M194.851,27.835c-.012,1.542-8.168,2.786-18.219,2.778L23.553,30.5C13.511,30.49,5.374,29.234,5.386,27.691L5.561,4.2c.012-1.542,8.168-2.786,18.209-2.778l153.08.115c10.05.008,18.188,1.264,18.176,2.807Z" fill="#d5d5fc"/>
            <path d="M193.344,27.475c-.012,1.52-8.1,2.746-18.069,2.738L23.458,30.1C13.5,30.091,5.429,28.853,5.441,27.332L5.614,4.183c.011-1.52,8.1-2.746,18.058-2.738l151.818.114c9.968.008,18.038,1.246,18.027,2.766Z" fill="#d4d4fc"/>
          </g>
          <g style="mix-blend-mode: multiply">
            <path d="M135.746,47.242c0,2.739-5.659,4.964-12.64,4.966L16.7,52.232c-6.987,0-12.65-2.22-12.653-4.96L3.989,5.51c0-2.742,5.653-4.966,12.64-4.967L123.038.518c6.981,0,12.65,2.219,12.653,4.961Z" fill="#fff"/>
            <path d="M135.267,47.09c0,2.73-5.641,4.948-12.6,4.949l-106.063.025C9.641,52.065,4,49.85,3.994,47.12L3.939,5.494c0-2.734,5.635-4.95,12.6-4.951L122.6.518c6.958,0,12.608,2.212,12.611,4.945Z" fill="#fefeff"/>
            <path d="M134.787,46.937c0,2.722-5.621,4.932-12.557,4.934L16.514,51.9c-6.941,0-12.567-2.206-12.571-4.927L3.889,5.477C3.885,2.753,9.505.544,16.446.543L122.163.518c6.935,0,12.566,2.205,12.57,4.929Z" fill="#fdfdff"/>
            <path d="M134.308,46.785c0,2.713-5.6,4.916-12.516,4.918l-105.37.024c-6.918,0-12.525-2.2-12.529-4.912L3.839,5.461c0-2.715,5.6-4.917,12.516-4.918L121.725.518c6.913,0,12.525,2.2,12.529,4.913Z" fill="#fcfcff"/>
            <path d="M133.829,46.633c0,2.7-5.585,4.9-12.475,4.9l-105.023.025c-6.9,0-12.485-2.192-12.488-4.9L3.789,5.445c0-2.706,5.579-4.9,12.475-4.9L121.287.518c6.89,0,12.484,2.191,12.488,4.9Z" fill="#fcfcff"/>
            <path d="M133.35,46.481c0,2.7-5.567,4.884-12.435,4.885L16.239,51.39c-6.872,0-12.443-2.184-12.446-4.879L3.739,5.429C3.735,2.732,9.3.544,16.173.543L120.849.519c6.868,0,12.443,2.183,12.447,4.88Z" fill="#fbfbff"/>
            <path d="M132.87,46.329c0,2.686-5.547,4.867-12.393,4.869l-104.329.024c-6.85,0-12.4-2.177-12.406-4.863L3.689,5.413c0-2.689,5.543-4.869,12.392-4.87L120.411.519c6.845,0,12.4,2.176,12.406,4.864Z" fill="#fafaff"/>
            <path d="M132.391,46.177c0,2.677-5.529,4.851-12.352,4.853l-103.983.024c-6.827,0-12.36-2.17-12.364-4.848L3.639,5.4C3.635,2.717,9.163.544,15.99.543L119.973.519c6.823,0,12.361,2.168,12.365,4.848Z" fill="#f9f9ff"/>
            <path d="M131.912,46.025c0,2.668-5.511,4.835-12.311,4.836l-103.636.024c-6.8,0-12.32-2.162-12.323-4.831L3.589,5.381C3.585,2.71,9.1.544,15.9.543L119.535.519c6.8,0,12.32,2.161,12.324,4.832Z" fill="#f8f8ff"/>
            <path d="M131.433,45.872c0,2.66-5.493,4.819-12.27,4.821l-103.29.024C9.092,50.718,3.6,48.562,3.592,45.9L3.539,5.364C3.535,2.7,9.026.544,15.807.543L119.1.519c6.778,0,12.279,2.154,12.283,4.816Z" fill="#f7f7fe"/>
            <path d="M130.953,45.72c0,2.651-5.474,4.8-12.228,4.805l-102.943.024c-6.759,0-12.237-2.148-12.24-4.8l-.053-40.4c0-2.653,5.469-4.8,12.227-4.8L118.659.519c6.755,0,12.238,2.147,12.242,4.8Z" fill="#f7f7fe"/>
            <path d="M130.474,45.568c0,2.642-5.455,4.787-12.187,4.788l-102.6.024c-6.735,0-12.195-2.141-12.2-4.782L3.439,5.332C3.435,2.688,8.89.544,15.625.543l102.6-.024c6.731,0,12.2,2.14,12.2,4.784Z" fill="#f6f6fe"/>
            <path d="M130,45.416c0,2.633-5.437,4.771-12.146,4.772L15.6,50.212c-6.713,0-12.154-2.134-12.158-4.767L3.389,5.316C3.385,2.681,8.821.544,15.534.543L117.784.519c6.709,0,12.155,2.133,12.158,4.768Z" fill="#f5f5fe"/>
            <path d="M129.516,45.264c0,2.624-5.419,4.754-12.1,4.756l-101.9.023c-6.689,0-12.113-2.126-12.116-4.75L3.338,5.3c0-2.626,5.415-4.756,12.1-4.757l101.9-.024c6.686,0,12.114,2.126,12.117,4.752Z" fill="#f4f4fe"/>
            <path d="M129.037,45.112c0,2.615-5.4,4.738-12.065,4.74l-101.556.023c-6.667,0-12.072-2.119-12.075-4.734L3.288,5.284c0-2.618,5.4-4.74,12.063-4.741L116.908.519c6.664,0,12.073,2.118,12.076,4.736Z" fill="#f3f3fe"/>
            <path d="M128.557,44.96c0,2.606-5.381,4.722-12.023,4.723l-101.21.024c-6.644,0-12.03-2.112-12.034-4.718L3.238,5.267C3.235,2.659,8.616.544,15.26.543L116.47.519c6.641,0,12.032,2.111,12.035,4.72Z" fill="#f2f2fe"/>
            <path d="M128.078,44.808c0,2.6-5.363,4.706-11.982,4.707l-100.863.023c-6.621,0-11.989-2.1-11.993-4.7L3.188,5.251c0-2.6,5.36-4.707,11.98-4.708L116.032.52c6.619,0,11.991,2.1,11.994,4.7Z" fill="#f2f2fe"/>
            <path d="M127.6,44.655c0,2.589-5.345,4.69-11.941,4.692L15.141,49.37c-6.6,0-11.948-2.1-11.951-4.686L3.138,5.235c0-2.59,5.341-4.691,11.939-4.692L115.594.52c6.6,0,11.95,2.1,11.953,4.686Z" fill="#f1f1fe"/>
            <path d="M127.12,44.5c0,2.58-5.327,4.674-11.9,4.676L15.05,49.2c-6.576,0-11.907-2.09-11.91-4.67L3.088,5.219c0-2.581,5.323-4.675,11.9-4.676L115.156.52c6.574,0,11.909,2.089,11.912,4.67Z" fill="#f0f0fe"/>
            <path d="M126.64,44.351c0,2.571-5.307,4.658-11.858,4.659l-99.824.023c-6.552,0-11.865-2.082-11.869-4.653L3.038,5.2C3.035,2.63,8.342.544,14.9.543L114.718.52c6.551,0,11.868,2.082,11.871,4.654Z" fill="#efeffe"/>
            <path d="M126.161,44.2c0,2.562-5.289,4.642-11.817,4.643l-99.477.023c-6.53,0-11.824-2.076-11.828-4.638L2.988,5.187C2.985,2.623,8.274.544,14.8.543L114.28.52c6.529,0,11.827,2.075,11.83,4.638Z" fill="#eeeefe"/>
            <path d="M125.682,44.047c0,2.553-5.271,4.625-11.776,4.627L14.775,48.7c-6.506,0-11.783-2.069-11.786-4.622L2.938,5.17C2.935,2.616,8.206.544,14.712.543L113.843.52c6.5,0,11.785,2.068,11.788,4.622Z" fill="#ededfe"/>
            <path d="M125.2,43.9c0,2.544-5.253,4.609-11.735,4.61l-98.784.023c-6.484,0-11.742-2.061-11.745-4.6L2.888,5.154c0-2.545,5.249-4.61,11.733-4.611L113.405.52c6.482,0,11.744,2.06,11.747,4.606Z" fill="#ececfe"/>
            <path d="M124.723,43.743c0,2.535-5.233,4.593-11.694,4.594l-98.437.023c-6.461,0-11.7-2.054-11.7-4.589L2.838,5.138C2.835,2.6,8.069.544,14.529.543L112.967.52c6.46,0,11.7,2.053,11.706,4.59Z" fill="#ececfe"/>
            <path d="M124.244,43.591c0,2.526-5.215,4.576-11.653,4.578l-98.09.023c-6.438,0-11.659-2.047-11.663-4.573l-.05-38.5C2.785,2.594,8,.544,14.438.543L112.529.52c6.437,0,11.662,2.046,11.665,4.574Z" fill="#ebebfe"/>
            <path d="M123.765,43.438c0,2.518-5.2,4.561-11.612,4.563l-97.744.022c-6.415,0-11.618-2.039-11.621-4.557l-.05-38.36C2.735,2.587,7.932.544,14.347.543L112.091.52c6.415,0,11.62,2.039,11.624,4.558Z" fill="#eaeafe"/>
            <path d="M123.286,43.286c0,2.509-5.179,4.545-11.571,4.546l-97.4.023c-6.393,0-11.577-2.032-11.58-4.541L2.688,5.09C2.685,2.58,7.864.544,14.256.543l97.4-.023c6.392,0,11.579,2.032,11.583,4.542Z" fill="#e9e9fd"/>
            <path d="M122.807,43.134c0,2.5-5.161,4.529-11.53,4.53l-97.051.022c-6.369,0-11.535-2.024-11.538-4.524L2.638,5.073c0-2.5,5.157-4.529,11.526-4.53L111.215.521c6.37,0,11.538,2.024,11.542,4.525Z" fill="#e8e8fd"/>
            <path d="M122.327,42.982c0,2.491-5.141,4.512-11.488,4.514l-96.7.022c-6.347,0-11.494-2.017-11.5-4.508L2.588,5.057C2.584,2.565,7.727.544,14.073.543l96.7-.022c6.347,0,11.5,2.017,11.5,4.509Z" fill="#e7e7fd"/>
            <path d="M121.848,42.83c0,2.482-5.123,4.5-11.447,4.5l-96.358.022c-6.323,0-11.453-2.011-11.456-4.493L2.538,5.041c0-2.483,5.12-4.5,11.444-4.5L110.339.521c6.325,0,11.456,2.01,11.46,4.493Z" fill="#e7e7fd"/>
            <path d="M121.369,42.678c0,2.473-5.105,4.48-11.406,4.481l-96.011.022c-6.3,0-11.412-2-11.415-4.476L2.488,5.025c0-2.474,5.1-4.481,11.4-4.482L109.9.521c6.3,0,11.414,2,11.417,4.477Z" fill="#e6e6fd"/>
            <path d="M120.89,42.526c0,2.464-5.087,4.464-11.366,4.465l-95.664.022c-6.278,0-11.37-2-11.373-4.46L2.438,5.009C2.434,2.544,7.521.544,13.8.543L109.464.521c6.279,0,11.373,2,11.376,4.461Z" fill="#e5e5fd"/>
            <path d="M120.41,42.374c0,2.455-5.067,4.447-11.324,4.449l-95.317.022c-6.255,0-11.329-1.989-11.333-4.444L2.387,4.993c0-2.457,5.066-4.449,11.321-4.45L109.026.521c6.256,0,11.332,1.988,11.335,4.444Z" fill="#e4e4fd"/>
            <path d="M119.931,42.221c0,2.447-5.049,4.432-11.283,4.433l-94.971.022c-6.232,0-11.288-1.981-11.291-4.428L2.337,4.977c0-2.448,5.048-4.433,11.28-4.434L108.588.521c6.233,0,11.291,1.981,11.294,4.428Z" fill="#e3e3fd"/>
            <path d="M119.452,42.069c0,2.438-5.031,4.416-11.242,4.417l-94.624.022c-6.21,0-11.247-1.974-11.25-4.412L2.287,4.96C2.284,2.522,7.316.544,13.525.543L108.15.521C114.361.52,119.4,2.5,119.4,4.933Z" fill="#e2e2fd"/>
            <path d="M118.973,41.917c0,2.429-5.013,4.4-11.2,4.4l-94.278.022c-6.186,0-11.2-1.967-11.208-4.4l-.049-37c0-2.429,5.011-4.4,11.2-4.4L107.712.521c6.188,0,11.209,1.967,11.212,4.4Z" fill="#e1e1fd"/>
            <path d="M118.493,41.765c0,2.42-4.993,4.383-11.159,4.385L13.4,46.171c-6.163,0-11.163-1.959-11.166-4.379L2.187,4.928C2.184,2.507,7.179.544,13.343.543L107.274.521c6.166,0,11.168,1.96,11.171,4.38Z" fill="#e1e1fd"/>
            <path d="M118.014,41.613c0,2.411-4.975,4.367-11.118,4.368L13.311,46C7.171,46,2.188,44.051,2.185,41.64L2.137,4.912C2.134,2.5,7.111.544,13.251.543L106.836.521c6.143,0,11.127,1.952,11.13,4.364Z" fill="#e0e0fd"/>
            <path d="M117.535,41.461c0,2.4-4.957,4.351-11.077,4.352l-93.239.022c-6.117,0-11.081-1.945-11.084-4.348L2.087,4.9c0-2.4,4.956-4.352,11.073-4.353L106.4.522c6.121,0,11.086,1.944,11.089,4.347Z" fill="#dfdffd"/>
            <path d="M117.056,41.309c0,2.393-4.939,4.334-11.036,4.336l-92.892.021c-6.095,0-11.04-1.938-11.043-4.331L2.037,4.88C2.034,2.486,6.974.544,13.069.543L105.96.522c6.1,0,11.045,1.937,11.048,4.331Z" fill="#dedefd"/>
            <path d="M116.576,41.156c0,2.385-4.919,4.319-10.995,4.321L13.036,45.5c-6.071,0-11-1.931-11-4.315L1.987,4.863c0-2.385,4.919-4.319,10.991-4.32L105.523.522c6.075,0,11,1.93,11.006,4.315Z" fill="#ddddfd"/>
            <path d="M116.1,41c0,2.376-4.9,4.3-10.954,4.3l-92.2.022c-6.049,0-10.958-1.924-10.961-4.3L1.937,4.847c0-2.376,4.9-4.3,10.949-4.3l92.2-.021c6.052,0,10.962,1.923,10.965,4.3Z" fill="#dcdcfd"/>
            <path d="M115.618,40.852c0,2.367-4.883,4.287-10.913,4.288l-91.852.021c-6.026,0-10.916-1.916-10.919-4.283L1.887,4.831C1.884,2.464,6.769.544,12.8.543L104.647.522c6.03,0,10.921,1.916,10.924,4.283Z" fill="#dcdcfd"/>
            <path d="M115.139,40.7c0,2.358-4.865,4.27-10.872,4.272l-91.5.021c-6,0-10.875-1.909-10.878-4.267L1.837,4.815C1.834,2.457,6.7.544,12.7.543L104.209.522c6.007,0,10.88,1.909,10.883,4.267Z" fill="#dbdbfc"/>
            <path d="M114.66,40.548c0,2.349-4.847,4.254-10.831,4.255l-91.159.021c-5.98,0-10.833-1.9-10.836-4.25L1.787,4.8C1.784,2.45,6.632.544,12.613.543L103.771.522c5.984,0,10.839,1.9,10.842,4.251Z" fill="#dadafc"/>
            <path d="M114.18,40.4c0,2.34-4.827,4.238-10.789,4.239l-90.812.021c-5.957,0-10.792-1.894-10.8-4.234L1.737,4.783c0-2.341,4.827-4.239,10.784-4.24L103.333.522c5.962,0,10.8,1.894,10.8,4.235Z" fill="#d9d9fc"/>
            <path d="M113.7,40.244c0,2.331-4.809,4.222-10.748,4.223l-90.466.021c-5.934,0-10.751-1.887-10.754-4.218l-.046-35.5C1.684,2.435,6.5.544,12.43.543L102.9.522c5.939,0,10.757,1.887,10.76,4.219Z" fill="#d8d8fc"/>
            <path d="M113.222,40.092c0,2.322-4.791,4.2-10.707,4.207l-90.119.02c-5.912,0-10.71-1.879-10.713-4.2L1.637,4.75c0-2.322,4.79-4.2,10.7-4.207L102.457.522c5.917,0,10.716,1.88,10.719,4.2Z" fill="#d7d7fc"/>
            <path d="M112.743,39.939c0,2.314-4.773,4.19-10.666,4.191L12.3,44.151c-5.888,0-10.668-1.873-10.671-4.186L1.587,4.734c0-2.313,4.772-4.189,10.66-4.191L102.019.522c5.894,0,10.674,1.873,10.677,4.187Z" fill="#d7d7fc"/>
            <path d="M112.263,39.787c0,2.3-4.753,4.174-10.625,4.175l-89.425.021c-5.866,0-10.627-1.866-10.63-4.17L1.537,4.718C1.534,2.413,6.29.545,12.156.543l89.426-.02c5.871,0,10.632,1.865,10.635,4.169Z" fill="#d6d6fc"/>
            <path d="M111.784,39.635c0,2.3-4.735,4.157-10.584,4.159l-89.079.02c-5.843,0-10.586-1.858-10.589-4.153L1.487,4.7c0-2.3,4.735-4.157,10.578-4.159l89.079-.02c5.848,0,10.591,1.858,10.594,4.153Z" fill="#d5d5fc"/>
            <path d="M111.305,39.483c0,2.287-4.717,4.141-10.543,4.143l-88.732.02c-5.82,0-10.545-1.851-10.548-4.138L1.437,4.686C1.434,2.4,6.153.545,11.974.543l88.732-.02c5.826,0,10.55,1.851,10.553,4.137Z" fill="#d4d4fc"/>
          </g>
          <g style="mix-blend-mode: multiply">
            <path d="M119.749,46.89c0,2.74,6.084,4.965,13.589,4.966l114.392.027c7.511,0,13.6-2.221,13.6-4.96l.055-41.762C261.39,2.419,255.308.2,247.8.193L133.405.167c-7.5,0-13.6,2.219-13.6,4.961Z" fill="#fff"/>
            <path d="M120.264,46.738c0,2.731,6.064,4.948,13.545,4.95l114.019.026c7.487,0,13.554-2.213,13.557-4.943l.055-41.627c0-2.733-6.058-4.949-13.544-4.951L133.876.167c-7.48,0-13.554,2.212-13.557,4.945Z" fill="#fefeff"/>
            <path d="M120.779,46.586c0,2.722,6.044,4.932,13.5,4.934l113.647.026c7.461,0,13.509-2.206,13.512-4.928l.055-41.49c0-2.724-6.039-4.933-13.5-4.935L134.347.167c-7.456,0-13.51,2.205-13.513,4.929Z" fill="#fdfdff"/>
            <path d="M121.3,46.434c0,2.713,6.024,4.916,13.456,4.917l113.274.027c7.437,0,13.465-2.2,13.468-4.912l.054-41.354c0-2.715-6.018-4.917-13.455-4.919L134.817.167c-7.431,0-13.465,2.2-13.468,4.913Z" fill="#fcfcff"/>
            <path d="M121.81,46.282c0,2.7,6,4.9,13.411,4.9l112.9.026c7.413,0,13.421-2.191,13.424-4.9L261.6,5.1c0-2.706-6-4.9-13.411-4.9L135.288.167c-7.407,0-13.421,2.19-13.424,4.9Z" fill="#fcfcff"/>
            <path d="M122.325,46.13c0,2.7,5.984,4.883,13.367,4.885l112.53.026c7.388,0,13.376-2.184,13.379-4.879l.054-41.082c0-2.7-5.979-4.885-13.367-4.887L135.759.167c-7.383,0-13.377,2.183-13.38,4.881Z" fill="#fbfbff"/>
            <path d="M122.84,45.977c0,2.687,5.965,4.868,13.323,4.87l112.157.026c7.363,0,13.332-2.177,13.335-4.864l.054-40.945c0-2.689-5.959-4.869-13.323-4.871L136.23.167c-7.359,0-13.333,2.176-13.336,4.865Z" fill="#fafaff"/>
            <path d="M123.355,45.825c0,2.678,5.945,4.852,13.279,4.853l111.784.026c7.339,0,13.288-2.169,13.291-4.847l.054-40.81c0-2.679-5.94-4.852-13.279-4.854L136.7.168c-7.334,0-13.288,2.168-13.291,4.848Z" fill="#f9f9ff"/>
            <path d="M123.87,45.673c0,2.669,5.925,4.835,13.235,4.837l111.412.026c7.314,0,13.243-2.162,13.246-4.831l.053-40.674c0-2.67-5.919-4.836-13.234-4.838L137.171.168c-7.31,0-13.244,2.161-13.247,4.832Z" fill="#f8f8ff"/>
            <path d="M124.386,45.521c0,2.66,5.905,4.819,13.19,4.821l111.039.025c7.29,0,13.2-2.155,13.2-4.814l.053-40.538c0-2.662-5.9-4.82-13.189-4.822L137.642.168c-7.286,0-13.2,2.154-13.2,4.816Z" fill="#f7f7fe"/>
            <path d="M124.9,45.369c0,2.651,5.885,4.8,13.146,4.805l110.666.025c7.265,0,13.155-2.148,13.158-4.8L261.924,5c0-2.653-5.88-4.8-13.145-4.806L138.113.168c-7.262,0-13.156,2.147-13.159,4.8Z" fill="#f7f7fe"/>
            <path d="M125.416,45.217c0,2.642,5.865,4.787,13.1,4.788l110.294.026c7.24,0,13.11-2.141,13.113-4.783l.053-40.265c0-2.644-5.861-4.788-13.1-4.79L138.583.168c-7.237,0-13.111,2.14-13.114,4.783Z" fill="#f6f6fe"/>
            <path d="M125.931,45.065c0,2.633,5.846,4.77,13.058,4.772l109.921.025c7.216,0,13.066-2.133,13.069-4.766l.053-40.129c0-2.635-5.841-4.772-13.057-4.774L139.054.168c-7.212,0-13.067,2.132-13.07,4.767Z" fill="#f5f5fe"/>
            <path d="M126.446,44.913c0,2.624,5.826,4.754,13.014,4.756l109.548.025c7.192,0,13.022-2.126,13.025-4.75l.052-39.993c0-2.626-5.821-4.756-13.012-4.758L139.525.168c-7.188,0-13.023,2.125-13.026,4.751Z" fill="#f4f4fe"/>
            <path d="M126.962,44.761c0,2.615,5.8,4.738,12.969,4.74l109.176.025c7.166,0,12.977-2.119,12.98-4.734l.052-39.858c0-2.617-5.8-4.739-12.968-4.741L140,.168c-7.164,0-12.979,2.118-12.982,4.735Z" fill="#f3f3fe"/>
            <path d="M127.477,44.608c0,2.607,5.786,4.723,12.925,4.724l108.8.025c7.142,0,12.933-2.111,12.936-4.718l.052-39.721C262.2,2.31,256.411.2,249.269.193L140.466.168c-7.139,0-12.934,2.111-12.937,4.719Z" fill="#f2f2fe"/>
            <path d="M127.992,44.456c0,2.6,5.766,4.706,12.881,4.708l108.43.025c7.118,0,12.889-2.1,12.892-4.7L262.247,4.9c0-2.6-5.762-4.707-12.879-4.709L140.937.168c-7.115,0-12.89,2.1-12.893,4.7Z" fill="#f2f2fe"/>
            <path d="M128.507,44.3c0,2.589,5.746,4.69,12.837,4.692l108.058.025c7.093,0,12.844-2.1,12.847-4.686L262.3,4.886C262.3,2.3,256.559.2,249.466.193L141.408.169c-7.091,0-12.846,2.1-12.849,4.686Z" fill="#f1f1fe"/>
            <path d="M129.022,44.152c0,2.58,5.726,4.674,12.793,4.675l107.685.025c7.068,0,12.8-2.09,12.8-4.669l.051-39.313c0-2.582-5.722-4.675-12.79-4.677L141.879.169c-7.067,0-12.8,2.089-12.8,4.67Z" fill="#f0f0fe"/>
            <path d="M129.537,44c0,2.571,5.707,4.658,12.749,4.659l107.312.025c7.044,0,12.756-2.083,12.759-4.653l.051-39.177c0-2.573-5.7-4.659-12.746-4.661L142.349.169c-7.042,0-12.757,2.082-12.76,4.654Z" fill="#efeffe"/>
            <path d="M130.053,43.848c0,2.562,5.686,4.641,12.7,4.643l106.94.025c7.019,0,12.711-2.076,12.714-4.638l.051-39.041c0-2.563-5.683-4.642-12.7-4.644L142.82.169c-7.018,0-12.713,2.074-12.716,4.638Z" fill="#eeeefe"/>
            <path d="M130.568,43.7c0,2.553,5.666,4.625,12.66,4.627l106.567.024c7,0,12.667-2.068,12.67-4.621l.051-38.9c0-2.554-5.663-4.626-12.658-4.627L143.291.169c-6.994,0-12.669,2.067-12.672,4.622Z" fill="#ededfe"/>
            <path d="M131.083,43.544c0,2.544,5.647,4.609,12.616,4.61l106.2.025c6.969,0,12.622-2.061,12.625-4.605l.051-38.769c0-2.546-5.644-4.61-12.614-4.611L143.762.169c-6.969,0-12.625,2.06-12.628,4.606Z" fill="#ececfe"/>
            <path d="M131.6,43.391c0,2.536,5.627,4.594,12.572,4.595l105.822.025c6.945,0,12.578-2.054,12.581-4.589l.05-38.633C262.627,2.252,257,.2,250.054.194L144.232.169c-6.944,0-12.58,2.053-12.583,4.59Z" fill="#ececfe"/>
            <path d="M132.113,43.239c0,2.527,5.607,4.577,12.528,4.579l105.449.024c6.921,0,12.534-2.046,12.537-4.573l.05-38.5c0-2.528-5.6-4.578-12.524-4.579L144.7.169c-6.92,0-12.536,2.046-12.539,4.574Z" fill="#ebebfe"/>
            <path d="M132.628,43.087c0,2.518,5.588,4.561,12.484,4.563l105.077.024c6.9,0,12.489-2.039,12.492-4.557l.05-38.36c0-2.519-5.584-4.562-12.48-4.563L145.174.169c-6.9,0-12.492,2.039-12.5,4.558Z" fill="#eaeafe"/>
            <path d="M133.144,42.935c0,2.509,5.567,4.545,12.439,4.546l104.7.024c6.872,0,12.445-2.031,12.448-4.54l.05-38.225c0-2.509-5.565-4.545-12.436-4.546L145.645.169c-6.872,0-12.448,2.032-12.451,4.542Z" fill="#e9e9fd"/>
            <path d="M133.659,42.783c0,2.5,5.547,4.529,12.4,4.53l104.331.024c6.847,0,12.4-2.024,12.4-4.524l.05-38.089c0-2.5-5.545-4.529-12.392-4.53L146.115.17c-6.847,0-12.4,2.024-12.406,4.525Z" fill="#e8e8fd"/>
            <path d="M134.174,42.631c0,2.491,5.528,4.512,12.351,4.514l103.959.024c6.822,0,12.356-2.018,12.359-4.509l.049-37.952c0-2.492-5.524-4.513-12.347-4.514L146.586.17c-6.823,0-12.359,2.016-12.362,4.509Z" fill="#e7e7fd"/>
            <path d="M134.689,42.479c0,2.482,5.508,4.5,12.307,4.5L250.582,47c6.8,0,12.312-2.01,12.315-4.492l.049-37.816c0-2.483-5.505-4.5-12.3-4.5L147.057.17c-6.8,0-12.315,2.009-12.318,4.492Z" fill="#e7e7fd"/>
            <path d="M135.2,42.327c0,2.473,5.488,4.48,12.263,4.481l103.213.024c6.774,0,12.268-2,12.271-4.476L263,4.676C263,2.2,257.515.2,250.741.194L147.528.17c-6.775,0-12.271,2-12.274,4.476Z" fill="#e6e6fd"/>
            <path d="M135.719,42.174c0,2.465,5.469,4.464,12.219,4.466l102.841.024c6.748,0,12.223-2,12.226-4.46l.049-37.544c0-2.466-5.466-4.465-12.215-4.466L148,.17c-6.75,0-12.226,2-12.229,4.46Z" fill="#e5e5fd"/>
            <path d="M136.235,42.022c0,2.456,5.448,4.448,12.174,4.45l102.468.023c6.724,0,12.179-1.988,12.182-4.443l.049-37.408c0-2.457-5.446-4.449-12.17-4.45L148.469.17c-6.726,0-12.182,1.988-12.185,4.444Z" fill="#e4e4fd"/>
            <path d="M136.75,41.87c0,2.447,5.428,4.432,12.129,4.433l102.1.024c6.7,0,12.135-1.981,12.138-4.428l.049-37.272c0-2.447-5.427-4.432-12.126-4.433L148.94.17c-6.7,0-12.138,1.981-12.141,4.428Z" fill="#e3e3fd"/>
            <path d="M137.265,41.718c0,2.438,5.409,4.416,12.085,4.417l101.724.024c6.675,0,12.09-1.974,12.093-4.412l.048-37.136c0-2.438-5.406-4.416-12.081-4.417L149.411.17c-6.677,0-12.094,1.974-12.1,4.412Z" fill="#e2e2fd"/>
            <path d="M137.78,41.566c0,2.429,5.389,4.4,12.041,4.4l101.351.023c6.65,0,12.046-1.966,12.049-4.4l.048-37c0-2.43-5.387-4.4-12.037-4.4L149.881.17c-6.652,0-12.049,1.967-12.053,4.4Z" fill="#e1e1fd"/>
            <path d="M138.295,41.414c0,2.42,5.369,4.383,12,4.385l100.978.023c6.626,0,12-1.959,12-4.379l.048-36.864c0-2.421-5.367-4.384-11.993-4.385L150.352.17c-6.628,0-12,1.959-12.009,4.38Z" fill="#e1e1fd"/>
            <path d="M138.81,41.262c0,2.411,5.349,4.367,11.953,4.368l100.606.024c6.6,0,11.957-1.953,11.96-4.364l.048-36.727c0-2.412-5.348-4.368-11.949-4.369L150.823.171c-6.6,0-11.961,1.951-11.965,4.363Z" fill="#e0e0fd"/>
            <path d="M139.326,41.11c0,2.4,5.329,4.351,11.908,4.352l100.233.023c6.577,0,11.913-1.945,11.916-4.347l.048-36.591c0-2.4-5.328-4.352-11.9-4.353L151.294.171c-6.58,0-11.917,1.944-11.921,4.347Z" fill="#dfdffd"/>
            <path d="M139.841,40.957c0,2.394,5.309,4.335,11.864,4.337l99.86.023c6.552,0,11.869-1.938,11.872-4.331l.047-36.456c0-2.393-5.308-4.335-11.859-4.336L151.764.171c-6.555,0-11.872,1.937-11.876,4.331Z" fill="#dedefd"/>
            <path d="M140.356,40.805c0,2.385,5.289,4.319,11.82,4.321l99.488.023c6.527,0,11.824-1.931,11.827-4.315l.047-36.32c0-2.385-5.288-4.319-11.815-4.32L152.235.171C145.7.169,140.407,2.1,140.4,4.486Z" fill="#ddddfd"/>
            <path d="M140.871,40.653c0,2.376,5.27,4.3,11.776,4.3l99.115.023c6.5,0,11.779-1.923,11.783-4.3L263.592,4.5c0-2.376-5.268-4.3-11.771-4.3L152.706.171c-6.507,0-11.784,1.923-11.788,4.3Z" fill="#dcdcfd"/>
            <path d="M141.386,40.5c0,2.367,5.25,4.287,11.732,4.288l98.743.023c6.478,0,11.734-1.916,11.738-4.283l.047-36.047c0-2.367-5.249-4.287-11.727-4.288L153.177.171c-6.483,0-11.74,1.916-11.744,4.283Z" fill="#dcdcfd"/>
            <path d="M141.9,40.349c0,2.358,5.23,4.27,11.688,4.272l98.37.022c6.453,0,11.69-1.908,11.694-4.266L263.7,4.466c0-2.358-5.229-4.271-11.683-4.272L153.647.171c-6.457,0-11.695,1.909-11.7,4.267Z" fill="#dbdbfc"/>
            <path d="M142.417,40.2c0,2.349,5.21,4.254,11.643,4.256l98,.022c6.429,0,11.646-1.9,11.65-4.25l.046-35.775c0-2.35-5.209-4.255-11.638-4.256l-98-.023c-6.433,0-11.652,1.9-11.655,4.251Z" fill="#dadafc"/>
            <path d="M142.932,40.045c0,2.34,5.19,4.238,11.6,4.239l97.625.023c6.4,0,11.6-1.894,11.605-4.234l.046-35.64c0-2.34-5.189-4.238-11.594-4.239L154.589.171c-6.409,0-11.608,1.894-11.611,4.235Z" fill="#d9d9fc"/>
            <path d="M143.447,39.893c0,2.331,5.17,4.222,11.555,4.223l97.252.022c6.38,0,11.557-1.886,11.561-4.218l.046-35.5c0-2.331-5.17-4.222-11.55-4.223L155.06.171c-6.385,0-11.564,1.887-11.567,4.219Z" fill="#d8d8fc"/>
            <path d="M143.962,39.741c0,2.322,5.151,4.2,11.511,4.207l96.879.022c6.355,0,11.513-1.88,11.517-4.2L263.915,4.4c0-2.322-5.15-4.206-11.505-4.207L155.53.171c-6.36,0-11.519,1.88-11.522,4.2Z" fill="#d7d7fc"/>
            <path d="M144.477,39.588c0,2.314,5.131,4.19,11.467,4.192l96.507.022c6.33,0,11.468-1.873,11.471-4.186l.047-35.231c0-2.314-5.131-4.19-11.461-4.191L156,.172c-6.336,0-11.475,1.872-11.478,4.185Z" fill="#d7d7fc"/>
            <path d="M144.992,39.436c0,2.3,5.111,4.174,11.423,4.175l96.134.022c6.306,0,11.424-1.865,11.427-4.169l.046-35.095c0-2.3-5.11-4.174-11.416-4.175L156.472.172c-6.312,0-11.431,1.865-11.434,4.169Z" fill="#d6d6fc"/>
            <path d="M145.508,39.284c0,2.3,5.091,4.158,11.378,4.159l95.761.022c6.282,0,11.38-1.858,11.383-4.154l.046-34.958c0-2.3-5.091-4.158-11.372-4.159L156.943.172c-6.288,0-11.387,1.858-11.39,4.153Z" fill="#d5d5fc"/>
            <path d="M146.023,39.132c0,2.287,5.071,4.141,11.334,4.143l95.389.022c6.257,0,11.335-1.851,11.338-4.138l.046-34.822C264.133,2.05,259.059.2,252.8.194L157.413.172c-6.263,0-11.342,1.851-11.345,4.137Z" fill="#d4d4fc"/>
          </g>
          <rect width="267.035" height="47.829" rx="5.864" fill="#fff"/>
          <rect x="1.115" y="0.297" width="264.735" height="47.048" rx="5.791" opacity="0.8" fill="url(#Unbenannter_Verlauf_7)"/>
          <g>
            <path d="M56.245,29.117l-.53-1.839h-2.51l-.562,1.839H50.309L53.2,19.786h3.04l2.938,9.331Zm-2.551-3.876H55.21l-.758-2.707Z" fill="#fff"/>
            <path d="M68.491,29.117H65.344L63.725,25.59l-.972,1.373v2.154H60.042V19.786h2.711v3.858l2.584-3.858h2.584L65.555,23.2Z" fill="#fff"/>
            <path d="M73.246,22.021v7.1H70.522v-7.1H68.58V19.786h6.609v2.235Z" fill="#fff"/>
            <path d="M83.6,19.786v6.179a2.931,2.931,0,0,1-1.046,2.527,4.509,4.509,0,0,1-2.728.768,4.935,4.935,0,0,1-2.845-.738,2.707,2.707,0,0,1-1.074-2.406v-6.33h2.923v5.995a1.411,1.411,0,0,0,.284.977,1.184,1.184,0,0,0,.907.308,1.494,1.494,0,0,0,.852-.223.851.851,0,0,0,.4-.5,5.9,5.9,0,0,0,.065-1.094V19.786Z" fill="#fff"/>
            <path d="M92.189,26.888v2.229H85.141V19.786h7.048v2.153H87.961v1.353h3.418v2.072H87.961v1.524Z" fill="#fff"/>
            <path d="M99.9,26.827v2.29H93.328V19.786H96.2v7.041Z" fill="#fff"/>
            <path d="M107.466,26.827v2.29H100.9V19.786h2.875v7.041Z" fill="#fff"/>
            <path d="M115.517,26.888v2.229h-7.049V19.786h7.049v2.153h-4.229v1.353h3.418v2.072h-3.418v1.524Z" fill="#fff"/>
            <path d="M128.277,19.786l-2.907,9.331h-2.931l-3.04-9.331h3.031l1.482,5.085q.151.452.269.889l1.732-5.974Z" fill="#fff"/>
            <path d="M136.188,26.888v2.229H129.14V19.786h7.048v2.153H131.96v1.353h3.418v2.072H131.96v1.524Z" fill="#fff"/>
            <path d="M145.665,29.117h-3.188l-1.368-3.569H140.2v3.569h-2.876V19.786h4.893a3.794,3.794,0,0,1,2.516.754,2.483,2.483,0,0,1,.9,1.994,2.987,2.987,0,0,1-.329,1.424,2.769,2.769,0,0,1-1.332,1.091ZM140.2,23.552h1.228a1.522,1.522,0,0,0,.872-.225.755.755,0,0,0,.329-.664q0-.894-1.105-.895H140.2Z" fill="#fff"/>
            <path d="M152.19,29.117l-.529-1.839h-2.51l-.562,1.839h-2.335l2.892-9.331h3.04l2.939,9.331Zm-2.55-3.876h1.516l-.758-2.707Z" fill="#fff"/>
            <path d="M164,29.117h-2.34l-2.566-4.123a15.8,15.8,0,0,1-1-1.927,6.47,6.47,0,0,1,.227,1.531v4.519h-2.334V19.786h2.718l2.183,3.418A13.05,13.05,0,0,1,161.876,25a13.575,13.575,0,0,1-.219-2.448V19.786H164Z" fill="#fff"/>
            <path d="M164.663,26.416l2.669-.478a1.587,1.587,0,0,0,1.73,1.128q1.084,0,1.084-.574a.533.533,0,0,0-.25-.469,2.723,2.723,0,0,0-.9-.3,6.139,6.139,0,0,1-3.164-1.23,2.545,2.545,0,0,1-.7-1.784,2.79,2.79,0,0,1,1-2.2,4.279,4.279,0,0,1,2.893-.875,3.659,3.659,0,0,1,3.781,2.29l-2.381.718a1.458,1.458,0,0,0-1.5-.937q-.94,0-.94.581a.46.46,0,0,0,.212.4,2.653,2.653,0,0,0,.824.273,17.3,17.3,0,0,1,2.389.626,2.62,2.62,0,0,1,1.653,2.489,2.752,2.752,0,0,1-1.153,2.3,4.859,4.859,0,0,1-3.026.879Q165.465,29.26,164.663,26.416Z" fill="#fff"/>
            <path d="M178.128,22.021v7.1H175.4v-7.1h-1.943V19.786h6.61v2.235Z" fill="#fff"/>
            <path d="M185.545,29.117l-.529-1.839h-2.51l-.563,1.839h-2.334l2.892-9.331h3.04l2.938,9.331ZM183,25.241h1.515l-.758-2.707Z" fill="#fff"/>
            <path d="M195.911,26.827v2.29h-6.568V19.786h2.875v7.041Z" fill="#fff"/>
            <path d="M200.1,22.021v7.1h-2.725v-7.1h-1.942V19.786h6.609v2.235Z" fill="#fff"/>
            <path d="M210.46,19.786v6.179a2.929,2.929,0,0,1-1.047,2.527,4.5,4.5,0,0,1-2.728.768,4.934,4.934,0,0,1-2.844-.738,2.707,2.707,0,0,1-1.074-2.406v-6.33h2.923v5.995a1.411,1.411,0,0,0,.284.977,1.182,1.182,0,0,0,.907.308,1.494,1.494,0,0,0,.852-.223.851.851,0,0,0,.4-.5,5.9,5.9,0,0,0,.065-1.094V19.786Z" fill="#fff"/>
            <path d="M220.006,29.117h-2.34L215.1,24.994a15.8,15.8,0,0,1-1-1.927,6.47,6.47,0,0,1,.227,1.531v4.519H212V19.786h2.718L216.9,23.2A13.178,13.178,0,0,1,217.886,25a13.485,13.485,0,0,1-.22-2.448V19.786h2.34Z" fill="#fff"/>
            <path d="M229.731,23.887v5.23h-1.406a5.629,5.629,0,0,0-.378-.978,3.068,3.068,0,0,1-2.58,1.121A3.882,3.882,0,0,1,222.388,28a4.831,4.831,0,0,1-1.167-3.415,5.487,5.487,0,0,1,1.129-3.516,4.026,4.026,0,0,1,3.36-1.426,4.086,4.086,0,0,1,2.7.848,3.981,3.981,0,0,1,1.324,2.406l-2.786.273q-.206-1.455-1.283-1.456-1.415,0-1.414,2.68a3.458,3.458,0,0,0,.453,2.136,1.409,1.409,0,0,0,1.1.516,1.316,1.316,0,0,0,.888-.314,1.093,1.093,0,0,0,.375-.861h-1.551V23.887Z" fill="#fff"/>
            <path d="M238.3,26.888v2.229h-7.049V19.786H238.3v2.153h-4.228v1.353h3.418v2.072h-3.418v1.524Z" fill="#fff"/>
            <path d="M247.445,29.117h-2.34l-2.566-4.123a15.521,15.521,0,0,1-1-1.927,6.462,6.462,0,0,1,.226,1.531v4.519h-2.333V19.786h2.718l2.182,3.418A13.069,13.069,0,0,1,245.324,25a13.575,13.575,0,0,1-.219-2.448V19.786h2.34Z" fill="#fff"/>
          </g>
          <path d="M31.152,36.577A11.874,11.874,0,1,1,43,24.749,11.872,11.872,0,0,1,31.152,36.577Z" fill="#fff"/>
          <path d="M37.336,24.691l-9.708,5.661V19.116Z" opacity="0.8" fill="url(#Unbenannter_Verlauf_7-2)"/>
        </g>
      </g>
    </g>
  </g>
</svg>
