<svg xmlns="http://www.w3.org/2000/svg" xmlns:xlink="http://www.w3.org/1999/xlink" viewBox="0 0 230.225 104.959">
  <defs>
    <linearGradient id="Unbenannter_Verlauf_7" data-name="Unbenannter Verlauf 7" x1="0.537" y1="49.371" x2="225.385" y2="49.371" gradientUnits="userSpaceOnUse">
      <stop offset="0.002" stop-color="#5c6cba"/>
      <stop offset="0.081" stop-color="#5767b6"/>
      <stop offset="0.389" stop-color="#4859aa"/>
      <stop offset="0.983" stop-color="#4253a2"/>
    </linearGradient>
  </defs>
  <title>8_digital_d</title>
  <g style="isolation: isolate">
    <g id="Ebene_2" data-name="Ebene 2">
      <g id="Ebene_1-2" data-name="Ebene 1">
        <g>
          <g style="mix-blend-mode: multiply">
            <path d="M215.39,93.2c0,5.448-9.249,9.874-20.654,9.88L20.9,103.17C9.491,103.176.243,98.76.24,93.313L.194,10.269C.191,4.816,9.434.393,20.847.386L194.679.292c11.4-.007,20.662,4.407,20.665,9.86Z" fill="#fff"/>
            <path d="M214.508,92.893c0,5.43-9.17,9.929-20.527,9.936l-173.155.093C9.46,102.928.243,98.614.24,93.184L.2,10.237C.215,4.765,9.356.391,20.635.388l173.248-.1c11.358-.006,20.576,4.393,20.579,9.828Z" fill="#fefeff"/>
            <path d="M213.627,92.591c0,5.412-9.091,9.985-20.4,9.991l-172.477.091C9.429,102.679.243,98.467.24,93.055L.207,10.205C.239,4.714,9.278.389,20.424.389l172.663-.1c11.311-.007,20.491,4.378,20.494,9.8Z" fill="#fdfdff"/>
            <path d="M212.746,92.289c0,5.394-9.012,10.04-20.276,10.046l-171.8.089C9.4,102.43.243,98.321.24,92.926L.214,10.173C.263,4.663,9.2.387,20.212.39l172.079-.1C203.555.287,212.7,4.657,212.7,10.057Z" fill="#fcfcff"/>
            <path d="M211.865,91.987c0,5.377-8.933,10.095-20.15,10.1l-171.122.088C9.368,102.182.243,98.174.24,92.8L.221,10.14C.287,4.612,9.123.385,20,.391l171.5-.1c11.217-.007,20.321,4.35,20.324,9.731Z" fill="#fcfcff"/>
            <path d="M210.983,91.684c0,5.36-8.853,10.151-20.023,10.158l-170.445.085C9.338,101.933.243,98.027.24,92.668L.228,10.108C.312,4.561,9.046.383,19.788.392L190.7.294c11.17-.006,20.236,4.336,20.239,9.7Z" fill="#fbfbff"/>
            <path d="M210.1,91.382c0,5.342-8.775,10.207-19.9,10.213l-169.768.083c-11.13.007-20.195-3.8-20.2-9.139L.234,10.076C.336,4.51,8.968.381,19.576.393L189.9.294c11.123-.006,20.151,4.322,20.154,9.668Z" fill="#fafaff"/>
            <path d="M209.221,91.08c0,5.324-8.7,10.262-19.772,10.268l-169.09.082c-11.083.006-20.117-3.7-20.12-9.02l0-82.366C.36,4.459,8.89.379,19.364.394L189.107.3C200.183.289,209.173,4.6,209.176,9.93Z" fill="#f9f9ff"/>
            <path d="M208.339,90.778c0,5.306-8.616,10.317-19.645,10.323l-168.413.08C9.246,101.187.242,97.588.239,92.281L.248,10.012C.384,4.407,8.813.377,19.152.4L188.311.3c11.029-.006,19.98,4.293,19.983,9.6Z" fill="#f8f8ff"/>
            <path d="M207.458,90.476c0,5.288-8.537,10.372-19.519,10.378L20.2,100.933C9.215,100.939.242,97.441.239,92.153L.255,9.98C.408,4.356,8.735.375,18.941.4L187.515.3c10.982-.006,19.9,4.278,19.9,9.571Z" fill="#f7f7fe"/>
            <path d="M206.577,90.173c0,5.271-8.458,10.429-19.393,10.435l-167.058.076C9.185,100.69.242,97.3.239,92.024L.261,9.948C.433,4.305,8.658.373,18.729.4L186.719.3c10.936-.006,19.81,4.264,19.813,9.539Z" fill="#f7f7fe"/>
            <path d="M205.7,89.871c0,5.254-8.378,10.484-19.267,10.49l-166.38.074C9.154,100.441.242,97.148.239,91.9L.268,9.916C.457,4.254,8.58.371,18.517.4L185.923.3C196.812.291,205.648,4.546,205.651,9.8Z" fill="#f6f6fe"/>
            <path d="M204.814,89.569c0,5.236-8.3,10.539-19.141,10.545l-165.7.073C9.123,100.193.242,97,.239,91.766L.275,9.884C.481,4.2,8.5.37,18.305.4L185.127.3c10.842-.006,19.64,4.236,19.643,9.475Z" fill="#f5f5fe"/>
            <path d="M203.933,89.267c0,5.218-8.221,10.594-19.015,10.6l-165.026.071c-10.8.006-19.65-3.083-19.653-8.3L.282,9.851C.505,4.152,8.425.368,18.093.4L184.332.3c10.794-.006,19.554,4.221,19.557,9.442Z" fill="#f4f4fe"/>
            <path d="M203.051,88.965c0,5.2-8.141,10.65-18.888,10.655l-164.349.07C9.062,99.7.242,96.709.239,91.508L.289,9.819C.529,4.1,8.347.366,17.881.4L183.536.3C194.283.292,203,4.505,203.007,9.709Z" fill="#f3f3fe"/>
            <path d="M202.17,88.662c0,5.183-8.062,10.706-18.763,10.712l-163.671.067c-10.7.006-19.494-2.879-19.5-8.062L.3,9.787C.554,4.05,8.27.364,17.669.4L182.74.3c10.7-.006,19.383,4.192,19.386,9.378Z" fill="#f2f2fe"/>
            <path d="M201.289,88.36c0,5.165-7.983,10.761-18.637,10.767l-162.994.065C9,99.2.242,96.415.239,91.25L.3,9.755C.578,4,8.192.362,17.458.4L181.944.3c10.653-.006,19.3,4.178,19.3,9.347Z" fill="#f2f2fe"/>
            <path d="M200.407,88.058c0,5.147-7.9,10.816-18.51,10.822L19.58,98.944C8.971,98.949.242,96.269.239,91.121l.07-81.4C.6,3.947,8.114.36,17.246.405L181.148.3c10.606-.005,19.213,4.164,19.216,9.315Z" fill="#f1f1fe"/>
            <path d="M199.526,87.756c0,5.13-7.825,10.872-18.384,10.877L19.5,98.7C8.94,98.7.242,96.122.239,90.992l.077-81.3C.626,3.9,8.037.358,17.034.406L180.352.3c10.559-.006,19.128,4.149,19.131,9.282Z" fill="#f0f0fe"/>
            <path d="M198.645,87.454c0,5.112-7.746,10.927-18.259,10.933l-160.961.059C8.909,98.452.242,95.976.239,90.864l.083-81.2C.65,3.845,7.959.356,16.822.407L179.556.3C190.068.3,198.6,4.435,198.6,9.551Z" fill="#efeffe"/>
            <path d="M197.764,87.151c0,5.095-7.667,10.983-18.133,10.989L19.347,98.2C8.879,98.2.242,95.829.239,90.735L.329,9.627C.675,3.794,7.882.354,16.61.408L178.76.3C189.226.3,197.718,4.422,197.72,9.519Z" fill="#eeeefe"/>
            <path d="M196.882,86.849c0,5.077-7.587,11.038-18.006,11.044l-159.607.056C8.848,97.955.242,95.683.239,90.606L.336,9.6C.7,3.743,7.8.352,16.4.409L177.964.3C188.383.3,196.836,4.408,196.839,9.487Z" fill="#ededfe"/>
            <path d="M196,86.547c0,5.059-7.509,11.094-17.881,11.1L19.191,97.7C8.818,97.706.242,95.536.239,90.477l.1-80.915C.723,3.692,7.726.35,16.186.41L177.168.3C187.54.3,195.955,4.394,195.958,9.456Z" fill="#ececfe"/>
            <path d="M195.12,86.245c0,5.041-7.43,11.149-17.755,11.154l-158.252.053C8.787,97.458.242,95.39.239,90.348L.349,9.53C.747,3.641,7.649.348,15.975.411L176.372.3c10.325-.005,18.7,4.078,18.7,9.122Z" fill="#ececfe"/>
            <path d="M194.238,85.943c0,5.023-7.35,11.2-17.628,11.21L19.035,97.2C8.756,97.209.241,95.243.239,90.219L.356,9.5C.771,3.59,7.571.347,15.763.413L175.576.3C185.854.3,194.193,4.366,194.2,9.393Z" fill="#ebebfe"/>
            <path d="M193.357,85.64c0,5.007-7.271,11.26-17.5,11.266l-156.9.049C8.726,96.96.241,95.1.239,90.09L.363,9.466C.8,3.539,7.494.345,15.551.414L174.78.3C185.011.3,193.312,4.352,193.315,9.361Z" fill="#eaeafe"/>
            <path d="M192.476,85.338c0,4.989-7.192,11.316-17.377,11.321l-156.22.047C8.7,96.712.241,94.95.239,89.961L.37,9.434C.82,3.487,7.416.343,15.339.415L173.984.3C184.168.3,192.431,4.338,192.433,9.329Z" fill="#e9e9fd"/>
            <path d="M191.594,85.036c0,4.971-7.112,11.371-17.25,11.376L18.8,96.458C8.665,96.463.241,94.8.239,89.832L.377,9.4C.844,3.436,7.338.341,15.127.416L173.188.3C183.325.3,191.55,4.324,191.552,9.3Z" fill="#e8e8fd"/>
            <path d="M190.713,84.734c0,4.953-7.034,11.426-17.124,11.432l-154.865.043C8.634,96.214.241,94.657.238,89.7L.383,9.37C.868,3.385,7.261.339,14.915.417L172.392.3c10.09-.005,18.276,4.007,18.279,8.962Z" fill="#e7e7fd"/>
            <path d="M189.832,84.432c0,4.935-6.955,11.481-17,11.487L18.646,95.96C8.6,95.966.241,94.51.238,89.575L.39,9.338c.5-6,6.793-9,14.313-8.92L171.6.305C181.64.3,189.787,4.3,189.79,9.234Z" fill="#e7e7fd"/>
            <path d="M188.95,84.129c0,4.918-6.875,11.538-16.872,11.543l-153.51.04c-10,0-18.327-1.348-18.33-6.266L.4,9.305C.917,3.283,7.106.335,14.492.419L170.8.305c10-.005,18.106,3.978,18.109,8.9Z" fill="#e6e6fd"/>
            <path d="M188.069,83.827c0,4.9-6.8,11.593-16.746,11.6L18.49,95.463C8.542,95.468.241,94.217.238,89.317L.4,9.273C.941,3.232,7.028.333,14.28.42L170,.306c9.95-.006,18.021,3.963,18.024,8.865Z" fill="#e5e5fd"/>
            <path d="M187.188,83.525c0,4.883-6.717,11.648-16.62,11.653l-152.156.036C8.512,95.22.241,94.071.238,89.188L.41,9.241C.965,3.181,6.95.331,14.068.421L169.208.306c9.9-.005,17.936,3.949,17.938,8.834Z" fill="#e4e4fd"/>
            <path d="M186.306,83.223c0,4.865-6.638,11.7-16.493,11.709l-151.479.034C8.481,94.971.241,93.924.238,89.059L.417,9.209C.989,3.13,6.873.329,13.856.422L168.412.307c9.856-.006,17.851,3.934,17.853,8.8Z" fill="#e3e3fd"/>
            <path d="M185.425,82.921c0,4.847-6.559,11.759-16.368,11.764l-150.8.032C8.45,94.723.241,93.777.238,88.93L.424,9.177C1.014,3.079,6.8.327,13.644.423L167.616.307c9.809-.005,17.765,3.92,17.768,8.769Z" fill="#e2e2fd"/>
            <path d="M184.544,82.618c0,4.83-6.48,11.815-16.242,11.82l-150.123.031C8.42,94.474.241,93.631.238,88.8L.431,9.145c.607-6.118,6.287-8.82,13-8.72L166.82.308C176.582.3,184.5,4.213,184.5,9.045Z" fill="#e1e1fd"/>
            <path d="M183.663,82.316c0,4.812-6.4,11.87-16.116,11.875L18.1,94.22c-9.712,0-17.86-.736-17.863-5.548l.2-79.559C1.062,2.976,6.64.323,13.221.426l152.8-.118c9.715-.005,17.6,3.892,17.6,8.705Z" fill="#e1e1fd"/>
            <path d="M182.781,82.014c0,4.794-6.321,11.925-15.989,11.931l-148.769.026C8.359,93.977.241,93.338.238,88.543L.444,9.081C1.086,2.925,6.562.322,13.009.427L165.228.309C174.9.3,182.738,4.186,182.741,8.981Z" fill="#e0e0fd"/>
            <path d="M181.9,81.712c0,4.776-6.243,11.981-15.864,11.986l-148.091.025c-9.617,0-17.7-.532-17.707-5.308L.451,9.049C1.11,2.874,6.485.32,12.8.428L164.432.309C174.053.3,181.857,4.172,181.859,8.95Z" fill="#dfdffd"/>
            <path d="M181.019,81.41c0,4.759-6.164,12.036-15.738,12.041l-147.414.023C8.3,93.479.241,93.045.238,88.286l.22-79.27C1.135,2.823,6.407.318,12.585.429L163.636.31c9.575-.006,17.34,3.848,17.342,8.608Z" fill="#dedefd"/>
            <path d="M180.137,81.107c0,4.742-6.084,12.092-15.611,12.1l-146.737.022C8.267,93.231.241,92.9.238,88.157L.465,8.984C1.159,2.772,6.33.316,12.373.43L162.84.31C172.368.305,180.1,4.144,180.1,8.886Z" fill="#ddddfd"/>
            <path d="M179.256,80.805c0,4.724-6,12.147-15.485,12.152l-146.06.02C8.236,92.982.24,92.752.238,88.028L.471,8.952C1.183,2.721,6.252.314,12.161.431L162.044.31c9.481-.005,17.169,3.82,17.172,8.545Z" fill="#dcdcfd"/>
            <path d="M178.375,80.5c0,4.706-5.926,12.2-15.36,12.208l-145.382.017C8.206,92.733.24,92.605.238,87.9L.478,8.92C1.207,2.67,6.174.312,11.949.432l149.3-.121c9.434-.005,17.084,3.805,17.087,8.512Z" fill="#dcdcfd"/>
            <path d="M177.493,80.2c0,4.688-5.846,12.258-15.233,12.263l-144.7.016C8.175,92.485.24,92.458.238,87.77L.485,8.888C1.231,2.619,6.1.31,11.738.433L160.452.311c9.387-.005,17,3.791,17,8.481Z" fill="#dbdbfc"/>
            <path d="M176.612,79.9c0,4.67-5.768,12.313-15.107,12.318l-144.027.014c-9.334.005-17.238.081-17.24-4.59L.492,8.856C1.256,2.567,6.019.308,11.526.434L159.656.312C169,.307,176.57,4.089,176.573,8.76Z" fill="#dadafc"/>
            <path d="M175.731,79.6c0,4.653-5.689,12.369-14.981,12.374L17.4,91.982c-9.286,0-17.16.183-17.162-4.47L.5,8.824C1.28,2.516,5.942.306,11.314.435L158.861.312c9.292-.005,16.828,3.763,16.83,8.416Z" fill="#d9d9fc"/>
            <path d="M174.849,79.294c0,4.636-5.609,12.424-14.855,12.429l-142.672.011C8.083,91.739.24,92.019.238,87.383L.505,8.792C1.3,2.465,5.864.3,11.1.436L158.065.313C167.31.308,174.808,4.061,174.81,8.7Z" fill="#d8d8fc"/>
            <path d="M173.968,78.992c0,4.618-5.53,12.48-14.729,12.485l-141.995.008c-9.191,0-17,.387-17.006-4.231L.512,8.76C1.328,2.414,5.786.3,10.89.438L157.269.313c9.2-.005,16.657,3.734,16.66,8.352Z" fill="#d7d7fc"/>
            <path d="M173.087,78.69c0,4.6-5.451,12.535-14.6,12.54l-141.318.007C8.022,91.242.24,91.726.238,87.126l.281-78.4C1.352,2.363,5.709.3,10.678.439l145.8-.125c9.151-.005,16.572,3.719,16.575,8.319Z" fill="#d7d7fc"/>
            <path d="M172.205,78.388c0,4.582-5.372,12.59-14.477,12.6l-140.64,0C7.991,90.993.24,91.579.237,87L.526,8.7C1.377,2.312,5.631.3,10.466.44L155.677.314c9.105-.005,16.487,3.705,16.49,8.288Z" fill="#d6d6fc"/>
            <path d="M171.324,78.085c0,4.565-5.293,12.646-14.351,12.651l-139.963,0c-9.049,0-16.77.694-16.773-3.871l.3-78.2C1.4,2.261,5.554.3,10.255.441L154.881.315c9.058-.005,16.4,3.69,16.405,8.255Z" fill="#d5d5fc"/>
            <path d="M170.443,77.783c0,4.547-5.214,12.7-14.225,12.707H16.933c-9,0-16.693.8-16.7-3.752l.3-78.108C1.425,2.21,5.476.3,10.043.442L154.085.315C163.1.31,170.4,3.991,170.4,8.539Z" fill="#d4d4fc"/>
          </g>
          <g style="mix-blend-mode: multiply">
            <path d="M230.026,93.089c-.013,5.341-9.861,9.651-21.984,9.622l-184.78-.451c-12.133-.029-21.95-4.388-21.937-9.729l.2-81.415c.013-5.346,9.851-9.654,21.984-9.625l184.78.451c12.123.029,21.95,4.385,21.937,9.731Z" fill="#fff"/>
            <path d="M228.737,92.365c-.013,5.3-9.8,9.57-21.855,9.54l-183.7-.447c-12.061-.03-21.821-4.352-21.808-9.648l.2-80.731c.013-5.3,9.794-9.573,21.855-9.543l183.7.447c12.052.03,21.821,4.349,21.808,9.65Z" fill="#fefeff"/>
            <path d="M227.449,91.64c-.013,5.251-9.746,9.489-21.728,9.46L23.1,100.655c-11.991-.029-21.694-4.315-21.681-9.566l.2-80.047C1.627,5.786,11.35,1.551,23.341,1.58l182.622.445c11.982.029,21.694,4.312,21.681,9.568Z" fill="#fdfdff"/>
            <path d="M226.16,90.916c-.013,5.206-9.688,9.408-21.6,9.379L23.017,99.852C11.1,99.823,1.452,95.575,1.465,90.368l.194-79.363c.012-5.211,9.678-9.41,21.6-9.381L204.8,2.066c11.911.03,21.565,4.276,21.553,9.487Z" fill="#fcfcff"/>
            <path d="M224.871,90.192c-.012,5.161-9.63,9.327-21.47,9.3L22.936,99.05c-11.849-.029-21.437-4.241-21.424-9.4L1.7,10.968c.012-5.166,9.621-9.329,21.47-9.3l180.464.44c11.841.029,21.438,4.239,21.425,9.4Z" fill="#fcfcff"/>
            <path d="M223.583,89.467c-.013,5.117-9.573,9.246-21.343,9.217L22.854,98.247c-11.777-.029-21.308-4.2-21.3-9.321l.191-77.994c.012-5.122,9.563-9.248,21.341-9.22l179.386.438c11.769.028,21.309,4.2,21.3,9.323Z" fill="#fbfbff"/>
            <path d="M222.294,88.743c-.013,5.072-9.515,9.165-21.214,9.136L22.773,97.445c-11.707-.029-21.181-4.168-21.168-9.24L1.794,10.9C1.806,5.819,11.3,1.728,23.006,1.756l178.308.435c11.7.029,21.181,4.165,21.169,9.242Z" fill="#fafaff"/>
            <path d="M221.005,88.019c-.012,5.027-9.457,9.083-21.085,9.055L22.691,96.642c-11.635-.028-21.052-4.131-21.04-9.158l.188-76.626C1.851,5.827,11.287,1.772,22.923,1.8l177.228.432c11.628.028,21.054,4.128,21.041,9.16Z" fill="#f9f9ff"/>
            <path d="M219.717,87.294c-.013,4.983-9.4,9-20.958,8.975L22.61,95.839C11.045,95.811,1.686,91.745,1.7,86.763l.186-75.942c.012-4.986,9.391-9,20.955-8.976l176.15.429c11.557.028,20.925,4.092,20.913,9.078Z" fill="#f8f8ff"/>
            <path d="M218.428,86.57c-.012,4.938-9.342,8.921-20.829,8.893L22.528,95.037c-11.493-.028-20.795-4.058-20.783-9l.184-75.258c.012-4.941,9.333-8.923,20.827-8.9l175.07.427c11.487.028,20.8,4.055,20.786,9Z" fill="#f7f7fe"/>
            <path d="M217.139,85.846c-.012,4.893-9.284,8.84-20.7,8.812L22.447,94.234c-11.423-.028-20.668-4.02-20.656-8.913l.182-74.574c.012-4.9,9.277-8.842,20.7-8.814l173.992.424c11.416.028,20.669,4.019,20.657,8.915Z" fill="#f7f7fe"/>
            <path d="M215.851,85.122c-.012,4.847-9.227,8.759-20.573,8.731L22.366,93.431C11.014,93.4,1.826,89.448,1.838,84.6l.18-73.889C2.03,5.859,11.237,1.95,22.589,1.977L195.5,2.4c11.345.027,20.541,3.982,20.529,8.833Z" fill="#f6f6fe"/>
            <path d="M214.562,84.4c-.012,4.8-9.169,8.678-20.444,8.651L22.284,92.629C11,92.6,1.873,88.682,1.885,83.879l.178-73.205c.012-4.807,9.162-8.68,20.442-8.652l171.834.418c11.275.028,20.413,3.945,20.4,8.752Z" fill="#f5f5fe"/>
            <path d="M213.273,83.673c-.011,4.758-9.111,8.6-20.315,8.569L22.2,91.826C10.993,91.8,1.92,87.916,1.931,83.158l.177-72.521c.012-4.762,9.1-8.6,20.314-8.571l170.755.416c11.2.027,20.285,3.908,20.273,8.67Z" fill="#f4f4fe"/>
            <path d="M211.985,82.949c-.012,4.713-9.054,8.515-20.188,8.488L22.121,91.024C10.983,91,1.966,87.15,1.978,82.437L2.153,10.6C2.165,5.883,11.2,2.083,22.338,2.11l169.676.413c11.134.028,20.157,3.872,20.146,8.589Z" fill="#f3f3fe"/>
            <path d="M210.7,82.224c-.012,4.669-9,8.435-20.059,8.408l-168.6-.411c-11.068-.027-20.027-3.837-20.015-8.505L2.2,10.563c.012-4.672,8.989-8.436,20.057-8.409l168.6.411c11.063.027,20.029,3.835,20.018,8.507Z" fill="#f2f2fe"/>
            <path d="M209.407,81.5c-.011,4.624-8.938,8.353-19.93,8.327L21.958,89.418c-11-.026-19.9-3.8-19.887-8.423l.172-70.469C2.255,5.9,11.175,2.171,22.171,2.2l167.519.409c10.992.026,19.9,3.8,19.889,8.425Z" fill="#f2f2fe"/>
            <path d="M208.119,80.776c-.012,4.579-8.881,8.272-19.8,8.245L21.877,88.616c-10.926-.027-19.77-3.763-19.759-8.342l.17-69.784c.012-4.582,8.874-8.274,19.8-8.248l166.439.406c10.922.027,19.773,3.762,19.762,8.344Z" fill="#f1f1fe"/>
            <path d="M206.83,80.052c-.011,4.534-8.823,8.191-19.674,8.164L21.8,87.813c-10.854-.026-19.642-3.726-19.63-8.26l.168-69.1C2.344,5.916,11.15,2.26,22,2.287l165.361.4c10.851.026,19.645,3.725,19.634,8.262Z" fill="#f0f0fe"/>
            <path d="M205.541,79.327c-.011,4.489-8.765,8.11-19.545,8.084l-164.282-.4C10.93,86.984,2.2,83.321,2.211,78.832l.167-68.416C2.389,5.924,11.137,2.3,21.921,2.331l164.281.4c10.781.026,19.517,3.688,19.506,8.181Z" fill="#efeffe"/>
            <path d="M204.252,78.6c-.01,4.444-8.707,8.029-19.417,8l-163.2-.4c-10.712-.026-19.385-3.653-19.374-8.1l.165-67.732c.011-4.447,8.7-8.03,19.414-8l163.2.4c10.71.026,19.389,3.651,19.378,8.1Z" fill="#eeeefe"/>
            <path d="M202.964,77.879c-.011,4.4-8.65,7.947-19.289,7.921L21.551,85.405C10.909,85.379,2.294,81.789,2.3,77.39l.164-67.048c.011-4.4,8.644-7.949,19.286-7.923l162.124.4c10.639.026,19.26,3.615,19.25,8.017Z" fill="#ededfe"/>
            <path d="M201.675,77.154c-.01,4.355-8.592,7.867-19.16,7.841L21.469,84.6C10.9,84.577,2.34,81.023,2.351,76.668l.162-66.362C2.524,5.948,11.1,2.438,21.67,2.463l161.045.393c10.569.026,19.133,3.578,19.122,7.935Z" fill="#ececfe"/>
            <path d="M200.386,76.43c-.01,4.31-8.534,7.786-19.032,7.76L21.388,83.8c-10.5-.026-19-3.543-18.99-7.853l.16-65.678c.011-4.313,8.529-7.787,19.029-7.762l159.966.39c10.5.026,19,3.542,18.994,7.854Z" fill="#ececfe"/>
            <path d="M199.1,75.706c-.011,4.265-8.477,7.7-18.9,7.679L21.307,83c-10.429-.025-18.873-3.5-18.863-7.771L2.6,10.232c.011-4.268,8.472-7.706,18.9-7.68l158.888.387c10.427.025,18.876,3.505,18.866,7.772Z" fill="#ebebfe"/>
            <path d="M197.809,74.981c-.01,4.221-8.419,7.624-18.775,7.6L21.225,82.2c-10.357-.025-18.744-3.469-18.734-7.69L2.648,10.2c.01-4.223,8.414-7.624,18.771-7.6l157.809.384c10.357.026,18.749,3.468,18.738,7.691Z" fill="#eaeafe"/>
            <path d="M196.52,74.257c-.01,4.176-8.361,7.542-18.647,7.517L21.144,81.392C10.857,81.367,2.528,77.96,2.538,73.784l.155-63.626C2.7,5.98,11.05,2.615,21.336,2.64l156.73.382c10.286.025,18.62,3.431,18.61,7.609Z" fill="#e9e9fd"/>
            <path d="M195.232,73.533c-.01,4.131-8.3,7.461-18.519,7.436L21.062,80.59c-10.215-.025-18.488-3.4-18.478-7.527l.154-62.942c.01-4.133,8.3-7.462,18.514-7.437l155.651.38c10.215.024,18.493,3.394,18.483,7.527Z" fill="#e8e8fd"/>
            <path d="M193.943,72.809c-.01,4.085-8.246,7.379-18.39,7.355L20.981,79.787c-10.145-.025-18.36-3.359-18.35-7.445l.152-62.257C2.793,6,11.025,2.7,21.169,2.728l154.572.377c10.144.025,18.364,3.358,18.354,7.446Z" fill="#e7e7fd"/>
            <path d="M192.654,72.084c-.009,4.041-8.188,7.3-18.262,7.274L20.9,78.984C10.826,78.96,2.668,75.662,2.678,71.621l.15-61.573c.01-4.043,8.184-7.3,18.257-7.275l153.494.374c10.073.024,18.236,3.321,18.226,7.364Z" fill="#e7e7fd"/>
            <path d="M191.366,71.36c-.01,4-8.131,7.218-18.134,7.193L20.818,78.182c-10-.025-18.1-3.286-18.094-7.282l.149-60.889C2.883,6.013,11,2.792,21,2.817l152.414.371c10,.025,18.108,3.285,18.1,7.283Z" fill="#e6e6fd"/>
            <path d="M190.077,70.636c-.009,3.951-8.073,7.136-18,7.112L20.736,77.379c-9.931-.024-17.975-3.249-17.965-7.2l.147-60.2c.01-3.953,8.069-7.137,18-7.113l151.336.369c9.932.024,17.98,3.247,17.97,7.2Z" fill="#e5e5fd"/>
            <path d="M188.788,69.911c-.009,3.907-8.015,7.056-17.877,7.032L20.655,76.576c-9.86-.024-17.847-3.211-17.837-7.118L2.963,9.937c.01-3.908,8.011-7.056,17.872-7.032l150.256.366c9.862.024,17.852,3.211,17.843,7.12Z" fill="#e4e4fd"/>
            <path d="M187.5,69.187c-.01,3.862-7.958,6.974-17.749,6.95L20.573,75.774C10.784,75.75,2.855,72.6,2.864,68.737L3.008,9.9c.009-3.863,7.954-6.975,17.743-6.951l149.178.364c9.791.024,17.724,3.174,17.715,7.037Z" fill="#e3e3fd"/>
            <path d="M186.211,68.463c-.009,3.817-7.9,6.893-17.62,6.869l-148.1-.361c-9.718-.023-17.59-3.138-17.581-6.955L3.053,9.864c.009-3.819,7.9-6.894,17.615-6.871l148.1.361c9.72.024,17.6,3.138,17.586,6.956Z" fill="#e2e2fd"/>
            <path d="M184.922,67.739c-.009,3.772-7.842,6.811-17.492,6.788L20.41,74.169c-9.647-.024-17.462-3.1-17.452-6.874L3.1,9.827c.009-3.774,7.839-6.813,17.486-6.789L167.6,3.4c9.65.023,17.468,3.1,17.459,6.874Z" fill="#e1e1fd"/>
            <path d="M183.634,67.014c-.009,3.727-7.785,6.731-17.364,6.708L20.329,73.366C10.753,73.343,3,70.3,3,66.574L3.143,9.79C3.152,6.061,10.924,3.058,20.5,3.082l145.941.355c9.579.024,17.34,3.065,17.331,6.793Z" fill="#e1e1fd"/>
            <path d="M182.345,66.29c-.009,3.682-7.727,6.65-17.235,6.626L20.248,72.563c-9.506-.023-17.206-3.028-17.2-6.71l.137-56.1C3.2,6.069,10.912,3.1,20.417,3.126l144.862.353c9.509.023,17.212,3.027,17.2,6.711Z" fill="#e0e0fd"/>
            <path d="M181.056,65.566c-.008,3.637-7.669,6.568-17.107,6.545l-143.783-.35C10.732,71.738,3.089,68.769,3.1,65.132L3.233,9.716c.009-3.639,7.666-6.569,17.1-6.546l143.783.351c9.438.023,17.084,2.99,17.075,6.629Z" fill="#dfdffd"/>
            <path d="M179.768,64.841c-.009,3.593-7.612,6.488-16.979,6.465l-142.7-.348C10.721,70.935,3.135,68,3.144,64.411L3.278,9.679c.009-3.593,7.609-6.488,16.972-6.465l142.705.348c9.367.023,16.955,2.954,16.947,6.548Z" fill="#dedefd"/>
            <path d="M178.479,64.117c-.009,3.548-7.554,6.406-16.85,6.384L20,70.156c-9.292-.023-16.821-2.918-16.812-6.466L3.323,9.643c.008-3.549,7.551-6.407,16.844-6.385L161.792,3.6c9.3.022,16.828,2.917,16.819,6.466Z" fill="#ddddfd"/>
            <path d="M177.19,63.393c-.008,3.5-7.5,6.325-16.722,6.3L19.922,69.353C10.7,69.33,3.229,66.472,3.237,62.969L3.368,9.606c.008-3.5,7.494-6.326,16.715-6.3l140.547.342c9.226.023,16.7,2.881,16.691,6.385Z" fill="#dcdcfd"/>
            <path d="M175.9,62.668c-.009,3.459-7.438,6.245-16.594,6.222L19.84,68.55c-9.15-.022-16.564-2.844-16.556-6.3L3.413,9.569C3.421,6.11,10.849,3.324,20,3.347l139.467.34c9.156.022,16.572,2.844,16.564,6.3Z" fill="#dcdcfd"/>
            <path d="M174.613,61.944c-.008,3.414-7.38,6.163-16.465,6.141L19.759,67.748C10.68,67.726,3.322,64.94,3.331,61.527L3.458,9.532c.008-3.414,7.379-6.163,16.458-6.141l138.389.337c9.085.022,16.444,2.807,16.435,6.222Z" fill="#dbdbfc"/>
            <path d="M173.324,61.22c-.008,3.369-7.322,6.082-16.337,6.06l-137.31-.335c-9.008-.022-16.308-2.771-16.3-6.139L3.5,9.495c.008-3.369,7.321-6.082,16.33-6.06l137.31.335c9.014.022,16.315,2.77,16.307,6.14Z" fill="#dadafc"/>
            <path d="M172.036,60.5c-.008,3.323-7.265,6-16.209,5.978L19.6,66.142c-8.937-.021-16.18-2.734-16.172-6.057L3.548,9.459c.008-3.325,7.264-6,16.2-5.98l136.231.332c8.944.022,16.188,2.734,16.179,6.059Z" fill="#d9d9fc"/>
            <path d="M170.747,59.771c-.008,3.279-7.207,5.92-16.08,5.9L19.514,65.34c-8.866-.022-16.051-2.7-16.043-5.976L3.593,9.422C3.6,6.142,10.8,3.5,19.665,3.523l135.153.33c8.873.022,16.059,2.7,16.051,5.976Z" fill="#d8d8fc"/>
            <path d="M169.458,59.047c-.007,3.234-7.149,5.838-15.952,5.817L19.433,64.537c-8.795-.021-15.924-2.66-15.916-5.9L3.638,9.385c.008-3.235,7.149-5.839,15.944-5.817l134.073.326c8.8.022,15.932,2.661,15.924,5.9Z" fill="#d7d7fc"/>
            <path d="M168.17,58.323c-.008,3.189-7.092,5.757-15.824,5.736L19.352,63.735c-8.725-.022-15.8-2.624-15.788-5.814L3.683,9.348C3.69,6.158,10.774,3.591,19.5,3.612l133,.324c8.732.021,15.8,2.624,15.8,5.813Z" fill="#d7d7fc"/>
            <path d="M166.881,57.6c-.008,3.145-7.034,5.677-15.695,5.656L19.27,62.932C10.617,62.911,3.6,60.345,3.611,57.2L3.728,9.311c.007-3.145,7.034-5.676,15.687-5.655l131.916.322C159.991,4,167.006,6.564,167,9.709Z" fill="#d6d6fc"/>
            <path d="M165.592,56.874c-.007,3.1-6.976,5.595-15.567,5.574L19.189,62.129c-8.583-.021-15.539-2.55-15.532-5.65l.116-47.2c.007-3.1,6.976-5.595,15.558-5.574l130.837.319c8.59.021,15.547,2.55,15.54,5.65Z" fill="#d5d5fc"/>
            <path d="M164.3,56.15c-.008,3.055-6.919,5.514-15.439,5.493L19.107,61.327C10.6,61.306,3.7,58.813,3.7,55.758l.114-46.52c.007-3.055,6.919-5.514,15.43-5.494l129.758.317c8.519.02,15.419,2.513,15.411,5.568Z" fill="#d4d4fc"/>
          </g>
          <g style="mix-blend-mode: multiply">
            <path d="M115.217,94.9c0,5.509-4.825,9.983-10.778,9.987l-90.735.05c-5.957,0-10.786-4.465-10.789-9.975L2.87,10.977C2.867,5.463,7.69.991,13.648.988l90.735-.05c5.952,0,10.785,4.462,10.788,9.977Z" fill="#fff"/>
            <path d="M114.809,94.593c0,5.492-4.81,9.951-10.743,9.954l-90.44.05c-5.938,0-10.75-4.45-10.753-9.942L2.827,10.944c0-5.5,4.805-9.953,10.743-9.956l90.439-.05c5.934,0,10.751,4.448,10.754,9.944Z" fill="#fefeff"/>
            <path d="M114.4,94.287c0,5.474-4.794,9.919-10.708,9.922l-90.144.05c-5.918,0-10.715-4.436-10.718-9.91L2.784,10.912C2.781,5.433,7.573.991,13.492.988l90.144-.05c5.914,0,10.715,4.434,10.718,9.912Z" fill="#fdfdff"/>
            <path d="M113.991,93.981c0,5.456-4.778,9.886-10.673,9.889l-89.848.05c-5.9,0-10.68-4.421-10.683-9.877L2.742,10.879c0-5.46,4.773-9.888,10.672-9.891l89.848-.05c5.895,0,10.681,4.419,10.684,9.88Z" fill="#fcfcff"/>
            <path d="M113.583,93.675c0,5.438-4.763,9.854-10.638,9.857l-89.553.05c-5.879,0-10.645-4.407-10.648-9.845L2.7,10.847C2.7,5.4,7.457.991,13.336.988l89.553-.05c5.876,0,10.646,4.405,10.649,9.847Z" fill="#fcfcff"/>
            <path d="M113.174,93.369c0,5.42-4.746,9.821-10.6,9.825l-89.257.049c-5.86,0-10.61-4.392-10.613-9.812L2.656,10.814C2.653,5.39,7.4.991,13.259.988l89.257-.05c5.856,0,10.61,4.391,10.613,9.815Z" fill="#fbfbff"/>
            <path d="M112.765,93.064c0,5.4-4.73,9.788-10.567,9.791l-88.962.05c-5.84,0-10.575-4.378-10.577-9.78L2.614,10.782C2.611,5.375,7.34.991,13.181.988L102.142.939c5.837,0,10.576,4.375,10.579,9.782Z" fill="#fafaff"/>
            <path d="M112.357,92.758c0,5.384-4.715,9.756-10.533,9.759l-88.666.049c-5.821,0-10.539-4.363-10.542-9.748L2.571,10.749C2.568,5.361,7.282.991,13.1.988L101.769.939c5.817,0,10.54,4.361,10.543,9.75Z" fill="#f9f9ff"/>
            <path d="M111.948,92.452c0,5.366-4.7,9.723-10.5,9.726l-88.371.049c-5.8,0-10.5-4.348-10.507-9.715L2.528,10.717c0-5.371,4.7-9.726,10.5-9.729L101.4.939c5.8,0,10.506,4.347,10.509,9.717Z" fill="#f8f8ff"/>
            <path d="M111.539,92.146c0,5.348-4.683,9.691-10.462,9.694L13,101.889c-5.782,0-10.469-4.334-10.472-9.683L2.486,10.684c0-5.352,4.679-9.693,10.461-9.7L101.022.939c5.779,0,10.47,4.332,10.473,9.685Z" fill="#f7f7fe"/>
            <path d="M111.131,91.84c0,5.331-4.668,9.658-10.428,9.662l-87.779.048c-5.762,0-10.434-4.319-10.437-9.65L2.443,10.652C2.44,5.317,7.107.991,12.869.988l87.78-.049c5.759,0,10.435,4.318,10.438,9.653Z" fill="#f7f7fe"/>
            <path d="M110.722,91.534c0,5.313-4.652,9.626-10.392,9.629l-87.484.049c-5.743,0-10.4-4.305-10.4-9.618L2.4,10.619C2.4,5.3,7.048.991,12.792.988L100.275.94c5.741,0,10.4,4.3,10.4,9.619Z" fill="#f6f6fe"/>
            <path d="M110.314,91.228c0,5.3-4.637,9.594-10.358,9.6l-87.188.048c-5.723,0-10.364-4.29-10.366-9.585l-.044-80.7c0-5.3,4.632-9.6,10.356-9.6L99.9.94c5.721,0,10.365,4.288,10.368,9.587Z" fill="#f5f5fe"/>
            <path d="M109.905,90.922c0,5.277-4.621,9.561-10.322,9.564l-86.893.049c-5.7,0-10.328-4.276-10.331-9.553L2.315,10.554C2.312,5.273,6.932.991,12.636.988L99.529.94c5.7,0,10.329,4.274,10.332,9.555Z" fill="#f4f4fe"/>
            <path d="M109.5,90.616c0,5.259-4.6,9.529-10.287,9.532l-86.6.048c-5.685,0-10.293-4.261-10.3-9.521L2.272,10.522c0-5.263,4.6-9.531,10.286-9.534L99.155.94c5.682,0,10.3,4.26,10.3,9.523Z" fill="#f3f3fe"/>
            <path d="M109.088,90.31c0,5.242-4.589,9.5-10.252,9.5l-86.3.048c-5.665,0-10.258-4.247-10.261-9.489L2.23,10.489c0-5.245,4.585-9.5,10.25-9.5L98.782.94c5.663,0,10.259,4.245,10.262,9.49Z" fill="#f2f2fe"/>
            <path d="M108.679,90c0,5.224-4.573,9.464-10.217,9.467l-86.006.048c-5.646,0-10.223-4.232-10.226-9.456L2.187,10.457C2.184,5.23,6.757.991,12.4.988L98.408.94c5.644,0,10.225,4.231,10.228,9.458Z" fill="#f2f2fe"/>
            <path d="M108.27,89.7c0,5.206-4.557,9.432-10.182,9.435l-85.71.047c-5.626,0-10.188-4.217-10.191-9.423L2.144,10.424C2.141,5.215,6.7.991,12.325.988L98.035.941c5.624,0,10.189,4.216,10.192,9.425Z" fill="#f1f1fe"/>
            <path d="M107.862,89.392c0,5.188-4.542,9.4-10.147,9.4L12.3,98.842c-5.607,0-10.153-4.2-10.155-9.391L2.1,10.392C2.1,5.2,6.64.991,12.247.988L97.662.941c5.6,0,10.154,4.2,10.157,9.392Z" fill="#f0f0fe"/>
            <path d="M107.453,89.086c0,5.171-4.526,9.367-10.112,9.37L12.222,98.5c-5.587,0-10.117-4.188-10.12-9.358L2.059,10.359c0-5.173,4.523-9.368,10.11-9.371L97.288.941c5.586,0,10.119,4.187,10.122,9.36Z" fill="#efeffe"/>
            <path d="M107.044,88.781c0,5.152-4.51,9.334-10.076,9.337l-84.824.047c-5.568,0-10.082-4.174-10.085-9.326L2.016,10.327C2.013,5.172,6.523.991,12.091.988L96.915.941C102.481.938,107,5.114,107,10.269Z" fill="#eeeefe"/>
            <path d="M106.636,88.475c0,5.134-4.495,9.3-10.042,9.3l-84.528.047c-5.548,0-10.047-4.159-10.05-9.293L1.973,10.294c0-5.137,4.492-9.3,10.04-9.306L96.541.941c5.548,0,10.049,4.158,10.052,9.3Z" fill="#ededfe"/>
            <path d="M106.227,88.169c0,5.116-4.479,9.269-10.006,9.272l-84.233.047c-5.529,0-10.012-4.145-10.015-9.262L1.931,10.262c0-5.119,4.476-9.271,10-9.274L96.168.942c5.528,0,10.014,4.143,10.017,9.262Z" fill="#ececfe"/>
            <path d="M105.819,87.863c0,5.1-4.464,9.236-9.972,9.24l-83.937.046c-5.509,0-9.977-4.13-9.98-9.229L1.888,10.229c0-5.1,4.46-9.238,9.969-9.241L95.8.942c5.508,0,9.978,4.128,9.981,9.23Z" fill="#ececfe"/>
            <path d="M105.41,87.557c0,5.081-4.447,9.2-9.937,9.207l-83.641.046c-5.49,0-9.942-4.115-9.944-9.2L1.845,10.2C1.843,5.114,6.29.991,11.78.988L95.421.942c5.489,0,9.944,4.114,9.947,9.2Z" fill="#ebebfe"/>
            <path d="M105,87.251c0,5.063-4.431,9.172-9.9,9.175l-83.346.046c-5.47,0-9.906-4.1-9.909-9.164L1.8,10.164C1.8,5.1,6.232.991,11.7.988L95.048.942c5.47,0,9.908,4.1,9.911,9.165Z" fill="#eaeafe"/>
            <path d="M104.593,86.945c0,5.045-4.416,9.139-9.867,9.142l-83.05.046C6.225,96.136,1.805,92.047,1.8,87L1.76,10.132c0-5.048,4.413-9.141,9.864-9.144L94.674.942c5.451,0,9.874,4.085,9.877,9.133Z" fill="#e9e9fd"/>
            <path d="M104.184,86.639c0,5.027-4.4,9.107-9.831,9.11L11.6,95.8c-5.431,0-9.836-4.072-9.839-9.1L1.717,10.1c0-5.029,4.4-9.108,9.829-9.111L94.3.943c5.431,0,9.839,4.07,9.841,9.1Z" fill="#e8e8fd"/>
            <path d="M103.775,86.333c0,5.009-4.384,9.075-9.8,9.078l-82.459.045c-5.412,0-9.8-4.057-9.8-9.066L1.675,10.067c0-5.012,4.382-9.076,9.793-9.079L93.928.943c5.412,0,9.8,4.056,9.806,9.067Z" fill="#e7e7fd"/>
            <path d="M103.367,86.027c0,4.992-4.369,9.042-9.761,9.045l-82.164.046c-5.392,0-9.766-4.043-9.769-9.034l-.041-76.05C1.629,5.041,6,.991,11.39.988L93.554.943c5.393,0,9.769,4.041,9.771,9.035Z" fill="#e7e7fd"/>
            <path d="M102.958,85.721c0,4.974-4.353,9.01-9.726,9.013l-81.868.045c-5.373,0-9.731-4.028-9.733-9L1.589,10C1.587,5.026,5.94.991,11.313.988L93.181.943c5.373,0,9.733,4.027,9.736,9Z" fill="#e6e6fd"/>
            <path d="M102.549,85.415c0,4.956-4.337,8.977-9.691,8.98l-81.572.046c-5.353,0-9.695-4.014-9.7-8.97l-.041-75.5c0-4.957,4.335-8.978,9.688-8.981L92.807.943c5.354,0,9.7,4.013,9.7,8.971Z" fill="#e5e5fd"/>
            <path d="M102.141,85.109c0,4.938-4.322,8.945-9.656,8.948L11.208,94.1c-5.334,0-9.66-4-9.663-8.937L1.5,9.937C1.5,5,5.824.991,11.157.988L92.434.943c5.335,0,9.663,4,9.666,8.938Z" fill="#e4e4fd"/>
            <path d="M101.732,84.8c0,4.921-4.3,8.913-9.621,8.916l-80.981.044c-5.314,0-9.625-3.984-9.628-8.9L1.461,9.9c0-4.921,4.3-8.913,9.618-8.916L92.061.944c5.315,0,9.628,3.983,9.63,8.905Z" fill="#e3e3fd"/>
            <path d="M101.324,84.5c0,4.9-4.29,8.879-9.586,8.882l-80.686.045c-5.295,0-9.59-3.97-9.593-8.872L1.419,9.872C1.416,4.968,5.707.991,11,.989L91.687.944c5.3,0,9.593,3.969,9.6,8.873Z" fill="#e2e2fd"/>
            <path d="M100.915,84.192c0,4.884-4.274,8.847-9.551,8.85l-80.39.044c-5.275,0-9.555-3.955-9.558-8.839L1.376,9.839c0-4.885,4.273-8.848,9.547-8.85L91.314.944c5.277,0,9.558,3.954,9.56,8.84Z" fill="#e1e1fd"/>
            <path d="M100.506,83.886c0,4.866-4.258,8.814-9.516,8.817L10.9,92.748c-5.256,0-9.52-3.941-9.522-8.807L1.333,9.807C1.331,4.939,5.59.991,10.846.989l80.1-.045c5.257,0,9.522,3.94,9.525,8.808Z" fill="#e1e1fd"/>
            <path d="M100.1,83.58c0,4.848-4.243,8.782-9.481,8.785l-79.8.044c-5.236,0-9.485-3.926-9.487-8.775l-.04-73.86c0-4.85,4.241-8.783,9.477-8.785l79.8-.045c5.238,0,9.488,3.926,9.49,8.776Z" fill="#e0e0fd"/>
            <path d="M99.689,83.274c0,4.831-4.227,8.75-9.446,8.753l-79.5.044c-5.217,0-9.449-3.912-9.452-8.743L1.248,9.742C1.245,4.91,5.474.991,10.69.989l79.5-.044c5.219,0,9.452,3.91,9.455,8.742Z" fill="#dfdffd"/>
            <path d="M99.28,82.968c0,4.813-4.211,8.717-9.41,8.72l-79.208.044c-5.2,0-9.414-3.9-9.417-8.71L1.205,9.709c0-4.814,4.21-8.718,9.407-8.72L89.82.945c5.2,0,9.418,3.9,9.42,8.71Z" fill="#dedefd"/>
            <path d="M98.872,82.662c0,4.795-4.2,8.685-9.376,8.688l-78.912.043c-5.178,0-9.379-3.882-9.382-8.677L1.163,9.677c0-4.8,4.194-8.685,9.371-8.688L89.447.945c5.18,0,9.382,3.882,9.385,8.678Z" fill="#ddddfd"/>
            <path d="M98.463,82.356c0,4.777-4.18,8.653-9.34,8.655l-78.618.044c-5.157,0-9.343-3.868-9.345-8.645L1.12,9.644C1.117,4.866,5.3.992,10.456.989L89.074.945c5.16,0,9.347,3.867,9.349,8.646Z" fill="#dcdcfd"/>
            <path d="M98.054,82.05c0,4.759-4.163,8.62-9.305,8.623l-78.322.043c-5.138,0-9.308-3.853-9.31-8.612L1.077,9.612c0-4.76,4.163-8.62,9.3-8.623L88.7.945c5.142,0,9.312,3.853,9.315,8.613Z" fill="#dcdcfd"/>
            <path d="M97.646,81.744c0,4.742-4.148,8.588-9.271,8.591l-78.026.043c-5.118,0-9.273-3.839-9.275-8.58L1.035,9.58C1.032,4.837,5.182.992,10.3.989L88.327.945c5.122,0,9.277,3.839,9.279,8.581Z" fill="#dbdbfc"/>
            <path d="M97.237,81.438c0,4.724-4.132,8.555-9.235,8.558l-77.731.043c-5.1,0-9.237-3.824-9.24-8.547L.992,9.547C.989,4.823,5.124.992,10.223.989L87.953.946c5.1,0,9.242,3.823,9.245,8.548Z" fill="#dadafc"/>
            <path d="M96.829,81.132c0,4.706-4.117,8.523-9.2,8.526L10.193,89.7c-5.079,0-9.2-3.81-9.2-8.516L.949,9.515c0-4.707,4.116-8.523,9.2-8.526L87.58.946c5.084,0,9.207,3.809,9.209,8.515Z" fill="#d9d9fc"/>
            <path d="M96.42,80.826c0,4.688-4.1,8.491-9.165,8.493l-77.14.043c-5.06,0-9.167-3.8-9.17-8.483L.907,9.482c0-4.688,4.1-8.49,9.16-8.493L87.207.946c5.064,0,9.171,3.8,9.174,8.483Z" fill="#d8d8fc"/>
            <path d="M96.011,80.52c0,4.671-4.085,8.458-9.13,8.461l-76.844.043C5,89.026.905,85.243.9,80.573L.864,9.45C.861,4.779,4.949.992,9.989.989L86.833.946c5.045,0,9.137,3.78,9.14,8.451Z" fill="#d7d7fc"/>
            <path d="M95.6,80.215c0,4.652-4.07,8.425-9.095,8.428l-76.549.042c-5.021,0-9.1-3.766-9.1-8.418L.821,9.417C.819,4.765,4.89.992,9.912.989L86.46.946c5.026,0,9.1,3.766,9.1,8.419Z" fill="#d7d7fc"/>
            <path d="M95.194,79.909c0,4.634-4.054,8.392-9.06,8.395l-76.253.042c-5,0-9.062-3.751-9.064-8.385L.778,9.385C.776,4.75,4.832.992,9.834.989L86.086.947c5.007,0,9.067,3.751,9.07,8.385Z" fill="#d6d6fc"/>
            <path d="M94.785,79.6c0,4.616-4.038,8.36-9.025,8.363L9.8,88.008c-4.982,0-9.026-3.737-9.029-8.353L.736,9.352c0-4.617,4.038-8.36,9.02-8.363L85.713.947c4.987,0,9.032,3.736,9.034,8.353Z" fill="#d5d5fc"/>
            <path d="M94.377,79.3c0,4.6-4.022,8.328-8.99,8.33l-75.662.042c-4.963,0-8.991-3.722-8.994-8.32L.693,9.32c0-4.6,4.022-8.328,8.985-8.331L85.34.947c4.967,0,9,3.722,9,8.321Z" fill="#d4d4fc"/>
          </g>
          <g style="mix-blend-mode: multiply">
            <path d="M101.578,94.829c0,5.547,5.188,10.052,11.587,10.056l97.542.054c6.405,0,11.6-4.5,11.6-10.044l.046-84.565c0-5.552-5.182-10.055-11.587-10.058L113.222.218c-6.4,0-11.594,4.493-11.6,10.045Z" fill="#fff"/>
            <path d="M102.018,94.521c0,5.529,5.17,10.019,11.549,10.023l97.224.054c6.384,0,11.557-4.481,11.56-10.011L222.4,10.3c0-5.535-5.166-10.023-11.549-10.026L113.624.218c-6.379,0-11.557,4.479-11.56,10.013Z" fill="#fefeff"/>
            <path d="M102.457,94.213c0,5.511,5.154,9.987,11.512,9.99l96.906.054c6.362,0,11.519-4.467,11.522-9.978l.046-84.014c0-5.516-5.149-9.99-11.512-9.993L114.025.218c-6.358,0-11.519,4.464-11.522,9.98Z" fill="#fdfdff"/>
            <path d="M102.9,93.905c0,5.493,5.137,9.954,11.474,9.957l96.589.054c6.341,0,11.481-4.452,11.484-9.945l.046-83.739c0-5.5-5.132-9.957-11.474-9.96L114.427.218c-6.337,0-11.482,4.45-11.485,9.948Z" fill="#fcfcff"/>
            <path d="M103.336,93.6c0,5.475,5.119,9.921,11.436,9.925l96.271.053c6.32,0,11.443-4.437,11.446-9.913l.046-83.463c0-5.48-5.116-9.924-11.436-9.927L114.828.219c-6.316,0-11.444,4.434-11.447,9.914Z" fill="#fcfcff"/>
            <path d="M103.775,93.288c0,5.458,5.1,9.89,11.4,9.893l95.953.053c6.3,0,11.406-4.422,11.409-9.88l.045-83.187c0-5.462-5.1-9.892-11.4-9.895L115.229.219c-6.3,0-11.406,4.42-11.409,9.882Z" fill="#fbfbff"/>
            <path d="M104.214,92.98c0,5.44,5.086,9.857,11.361,9.86l95.635.053c6.279,0,11.368-4.407,11.371-9.847l.045-82.912c0-5.444-5.081-9.859-11.36-9.862L115.631.219c-6.275,0-11.369,4.4-11.372,9.849Z" fill="#fafaff"/>
            <path d="M104.653,92.672c0,5.422,5.07,9.824,11.324,9.828l95.317.052c6.258,0,11.33-4.393,11.333-9.814l.045-82.637c0-5.426-5.064-9.826-11.322-9.829L116.032.219c-6.254,0-11.331,4.391-11.334,9.817Z" fill="#f9f9ff"/>
            <path d="M105.093,92.364c0,5.4,5.052,9.791,11.285,9.8l95,.052c6.237,0,11.292-4.378,11.3-9.782l.045-82.36c0-5.408-5.048-9.794-11.284-9.8l-95-.053C110.2.216,105.141,4.6,105.138,10Z" fill="#f8f8ff"/>
            <path d="M105.532,92.056c0,5.386,5.035,9.759,11.248,9.762l94.682.053c6.216,0,11.254-4.364,11.257-9.75l.045-82.085c0-5.39-5.031-9.761-11.247-9.764L116.835.22c-6.212,0-11.255,4.361-11.258,9.751Z" fill="#f7f7fe"/>
            <path d="M105.971,91.748c0,5.368,5.019,9.726,11.21,9.729l94.365.053c6.2,0,11.216-4.349,11.219-9.717L222.81,10c0-5.372-5.014-9.728-11.209-9.731L117.236.22c-6.191,0-11.217,4.347-11.22,9.718Z" fill="#f7f7fe"/>
            <path d="M106.411,91.44c0,5.35,5,9.693,11.172,9.7l94.047.052c6.173,0,11.178-4.335,11.181-9.684l.045-81.535c0-5.353-5-9.695-11.171-9.7L117.638.22c-6.171,0-11.18,4.332-11.183,9.686Z" fill="#f6f6fe"/>
            <path d="M106.85,91.132c0,5.332,4.984,9.661,11.134,9.664l93.729.052c6.153,0,11.141-4.32,11.144-9.651L222.9,9.938c0-5.336-4.981-9.663-11.134-9.666L118.039.22c-6.15,0-11.142,4.318-11.145,9.653Z" fill="#f5f5fe"/>
            <path d="M107.289,90.824c0,5.314,4.968,9.628,11.1,9.631l93.411.052c6.132,0,11.1-4.305,11.106-9.619L222.947,9.9c0-5.317-4.963-9.63-11.095-9.633L118.441.22c-6.13,0-11.105,4.3-11.108,9.621Z" fill="#f4f4fe"/>
            <path d="M107.728,90.516c0,5.3,4.951,9.595,11.06,9.6l93.093.051c6.111,0,11.066-4.29,11.068-9.586l.044-80.708c0-5.3-4.946-9.6-11.057-9.6L118.842.221c-6.109,0-11.067,4.288-11.07,9.587Z" fill="#f3f3fe"/>
            <path d="M108.168,90.208c0,5.278,4.933,9.562,11.021,9.566l92.776.051c6.09,0,11.028-4.276,11.03-9.553l.044-80.432c0-5.282-4.93-9.564-11.02-9.568L119.243.221c-6.087,0-11.029,4.274-11.032,9.555Z" fill="#f2f2fe"/>
            <path d="M108.607,89.9c0,5.26,4.917,9.53,10.984,9.533l92.458.051c6.069,0,10.99-4.261,10.992-9.52l.044-80.157c0-5.263-4.913-9.531-10.982-9.535L119.645.221c-6.067,0-10.992,4.259-10.994,9.522Z" fill="#f2f2fe"/>
            <path d="M109.046,89.592c0,5.242,4.9,9.5,10.946,9.5l92.141.051c6.048,0,10.952-4.246,10.954-9.488l.044-79.881c0-5.245-4.9-9.5-10.944-9.5L120.046.221c-6.046,0-10.953,4.245-10.956,9.49Z" fill="#f1f1fe"/>
            <path d="M109.486,89.284c0,5.224,4.882,9.464,10.908,9.468l91.823.05c6.027,0,10.914-4.231,10.917-9.455l.043-79.606c0-5.227-4.88-9.465-10.907-9.469L120.448.221c-6.026,0-10.916,4.23-10.919,9.457Z" fill="#f0f0fe"/>
            <path d="M109.925,88.976c0,5.206,4.866,9.432,10.871,9.435l91.5.051c6.007,0,10.877-4.217,10.88-9.423l.043-79.33c0-5.209-4.863-9.433-10.869-9.437L120.849.222c-6.005,0-10.878,4.215-10.881,9.424Z" fill="#efeffe"/>
            <path d="M110.364,88.668c0,5.188,4.849,9.4,10.833,9.4l91.187.051c5.986,0,10.839-4.2,10.842-9.39l.043-79.055c0-5.191-4.846-9.4-10.831-9.4L121.25.222c-5.984,0-10.84,4.2-10.843,9.391Z" fill="#eeeefe"/>
            <path d="M110.8,88.36c0,5.17,4.832,9.366,10.8,9.369l90.869.051c5.964,0,10.8-4.188,10.8-9.358l.042-78.779c0-5.173-4.829-9.367-10.793-9.371L121.652.222c-5.963,0-10.8,4.186-10.806,9.359Z" fill="#ededfe"/>
            <path d="M111.243,88.052c0,5.152,4.815,9.333,10.757,9.337l90.552.05c5.943,0,10.763-4.173,10.766-9.325l.042-78.5c0-5.154-4.812-9.334-10.755-9.338L122.053.222c-5.942,0-10.765,4.172-10.768,9.326Z" fill="#ececfe"/>
            <path d="M111.682,87.744c0,5.134,4.8,9.3,10.72,9.3l90.234.05c5.922,0,10.725-4.158,10.728-9.292l.042-78.228c0-5.137-4.8-9.3-10.717-9.306L122.455.222c-5.922,0-10.728,4.157-10.73,9.294Z" fill="#ececfe"/>
            <path d="M112.121,87.436c0,5.116,4.782,9.268,10.683,9.271l89.916.05c5.9,0,10.687-4.144,10.69-9.259l.042-77.953c0-5.119-4.778-9.269-10.68-9.273L122.856.223c-5.9,0-10.69,4.142-10.692,9.26Z" fill="#ebebfe"/>
            <path d="M112.561,87.128c0,5.1,4.764,9.235,10.644,9.239l89.6.049c5.88,0,10.649-4.129,10.652-9.227L223.5,9.512c0-5.1-4.762-9.236-10.642-9.24l-89.6-.049c-5.88,0-10.651,4.127-10.654,9.228Z" fill="#eaeafe"/>
            <path d="M113,86.82c0,5.08,4.747,9.2,10.607,9.206l89.281.049c5.859,0,10.611-4.114,10.614-9.194l.042-77.4c0-5.083-4.745-9.2-10.6-9.208L123.659.223c-5.86,0-10.614,4.113-10.617,9.195Z" fill="#e9e9fd"/>
            <path d="M113.439,86.512c0,5.062,4.731,9.17,10.569,9.173l88.963.049c5.839,0,10.574-4.1,10.577-9.161l.042-77.126c0-5.064-4.728-9.171-10.567-9.175L124.06.223c-5.838,0-10.576,4.1-10.579,9.163Z" fill="#e8e8fd"/>
            <path d="M113.878,86.2c0,5.044,4.714,9.137,10.532,9.14l88.645.049c5.818,0,10.536-4.084,10.539-9.128l.042-76.851c0-5.046-4.712-9.138-10.529-9.142L124.462.223c-5.818,0-10.539,4.084-10.542,9.13Z" fill="#e7e7fd"/>
            <path d="M114.318,85.9c0,5.026,4.7,9.1,10.493,9.108l88.328.049c5.8,0,10.5-4.071,10.5-9.1l.042-76.575c0-5.028-4.695-9.1-10.491-9.109L124.863.224c-5.8,0-10.5,4.069-10.5,9.1Z" fill="#e7e7fd"/>
            <path d="M114.757,85.588c0,5.008,4.68,9.072,10.456,9.075l88.01.049c5.775,0,10.46-4.056,10.463-9.064l.041-76.3c0-5.01-4.677-9.073-10.453-9.077L125.264.224c-5.776,0-10.463,4.054-10.466,9.064Z" fill="#e6e6fd"/>
            <path d="M115.2,85.28c0,4.99,4.663,9.039,10.419,9.042l87.692.049c5.754,0,10.422-4.041,10.425-9.031l.041-76.024c0-4.992-4.66-9.04-10.415-9.043L125.666.224c-5.756,0-10.426,4.04-10.428,9.032Z" fill="#e5e5fd"/>
            <path d="M115.635,84.972c0,4.972,4.646,9.006,10.381,9.009l87.375.049c5.733,0,10.384-4.026,10.387-9l.041-75.749c0-4.974-4.644-9.007-10.377-9.01L126.067.224c-5.735,0-10.388,4.025-10.39,9Z" fill="#e4e4fd"/>
            <path d="M116.075,84.664c0,4.954,4.629,8.974,10.343,8.977l87.057.048c5.712,0,10.346-4.012,10.349-8.966l.041-75.472c0-4.956-4.627-8.975-10.34-8.978L126.469.224c-5.714,0-10.35,4.011-10.353,8.967Z" fill="#e3e3fd"/>
            <path d="M116.514,84.356c0,4.936,4.612,8.941,10.305,8.944l86.739.048c5.692,0,10.309-4,10.312-8.933l.041-75.2c0-4.938-4.61-8.942-10.3-8.945L126.87.225c-5.693,0-10.312,4-10.315,8.933Z" fill="#e2e2fd"/>
            <path d="M116.953,84.048c0,4.918,4.595,8.908,10.268,8.911l86.421.048c5.671,0,10.271-3.982,10.274-8.9l.041-74.922c0-4.92-4.594-8.909-10.264-8.912L127.271.225c-5.672,0-10.274,3.981-10.277,8.9Z" fill="#e1e1fd"/>
            <path d="M117.393,83.74c0,4.9,4.578,8.875,10.23,8.879l86.1.047c5.65,0,10.233-3.967,10.236-8.867L224,9.152c0-4.9-4.577-8.876-10.227-8.879l-86.1-.048c-5.652,0-10.237,3.967-10.24,8.868Z" fill="#e1e1fd"/>
            <path d="M117.832,83.432c0,4.882,4.561,8.843,10.192,8.846l85.786.047c5.629,0,10.195-3.952,10.2-8.835l.041-74.37c0-4.884-4.56-8.844-10.189-8.847L128.074.225c-5.631,0-10.2,3.952-10.2,8.836Z" fill="#e0e0fd"/>
            <path d="M118.271,83.124c0,4.864,4.544,8.81,10.155,8.813l85.468.047c5.608,0,10.157-3.938,10.16-8.8l.04-74.095c0-4.865-4.542-8.811-10.15-8.814L128.476.225c-5.611,0-10.162,3.938-10.164,8.8Z" fill="#dfdffd"/>
            <path d="M118.71,82.816c0,4.846,4.528,8.777,10.117,8.78l85.151.048c5.586,0,10.119-3.924,10.122-8.77l.04-73.82c0-4.847-4.526-8.778-10.113-8.781L128.877.226c-5.589,0-10.124,3.923-10.126,8.77Z" fill="#dedefd"/>
            <path d="M119.15,82.507c0,4.829,4.51,8.746,10.079,8.749l84.833.047c5.565,0,10.082-3.909,10.084-8.737l.04-73.544c0-4.83-4.509-8.746-10.075-8.749L129.278.226c-5.568,0-10.086,3.908-10.088,8.737Z" fill="#ddddfd"/>
            <path d="M119.589,82.2c0,4.811,4.493,8.713,10.042,8.716l84.514.047c5.545,0,10.045-3.894,10.047-8.7l.04-73.268c0-4.811-4.492-8.713-10.037-8.716L129.68.226c-5.548,0-10.048,3.894-10.051,8.7Z" fill="#dcdcfd"/>
            <path d="M120.028,81.891c0,4.793,4.477,8.68,10,8.683l84.2.047c5.524,0,10.007-3.88,10.009-8.672l.04-72.993c0-4.793-4.476-8.68-10-8.683l-84.2-.047c-5.527,0-10.01,3.879-10.013,8.672Z" fill="#dcdcfd"/>
            <path d="M120.468,81.583c0,4.775,4.459,8.647,9.966,8.651l83.879.046c5.5,0,9.969-3.865,9.971-8.639l.04-72.718c0-4.775-4.459-8.647-9.962-8.65L130.483.226c-5.507,0-9.973,3.865-9.976,8.64Z" fill="#dbdbfc"/>
            <path d="M120.907,81.275c0,4.757,4.443,8.615,9.928,8.618l83.562.046c5.482,0,9.931-3.85,9.933-8.606l.04-72.442c0-4.757-4.442-8.615-9.924-8.618L130.884.227c-5.486,0-9.935,3.849-9.938,8.606Z" fill="#dadafc"/>
            <path d="M121.346,80.967c0,4.739,4.426,8.582,9.891,8.585l83.244.046c5.461,0,9.893-3.835,9.9-8.574l.04-72.166c0-4.739-4.426-8.582-9.887-8.585L131.285.227c-5.464,0-9.9,3.835-9.9,8.574Z" fill="#d9d9fc"/>
            <path d="M121.785,80.659c0,4.721,4.409,8.549,9.853,8.552l82.927.046c5.44,0,9.855-3.821,9.857-8.541l.039-71.891c0-4.721-4.408-8.549-9.848-8.552L131.687.227c-5.444,0-9.86,3.821-9.862,8.541Z" fill="#d8d8fc"/>
            <path d="M122.225,80.351c0,4.7,4.392,8.517,9.815,8.52l82.609.045c5.419,0,9.817-3.806,9.819-8.508l.039-71.616c0-4.7-4.391-8.516-9.81-8.519L132.088.227c-5.423,0-9.822,3.806-9.824,8.509Z" fill="#d7d7fc"/>
            <path d="M122.664,80.043c0,4.685,4.375,8.484,9.778,8.487l82.29.045c5.4,0,9.78-3.791,9.782-8.475l.039-71.34c0-4.685-4.374-8.484-9.773-8.487L132.49.227c-5.4,0-9.785,3.792-9.787,8.476Z" fill="#d7d7fc"/>
            <path d="M123.1,79.735c0,4.667,4.358,8.451,9.74,8.454l81.973.046c5.377,0,9.742-3.777,9.744-8.444L224.6,8.727c0-4.667-4.358-8.451-9.735-8.454L132.891.228c-5.382,0-9.747,3.776-9.749,8.443Z" fill="#d6d6fc"/>
            <path d="M123.543,79.427c0,4.649,4.341,8.419,9.7,8.421l81.655.046c5.356,0,9.7-3.762,9.706-8.411l.039-70.789c0-4.648-4.341-8.418-9.7-8.421L133.293.228c-5.362,0-9.709,3.762-9.712,8.41Z" fill="#d5d5fc"/>
            <path d="M123.982,79.119c0,4.631,4.324,8.386,9.664,8.389l81.338.045c5.335,0,9.666-3.748,9.668-8.378l.039-70.513c0-4.631-4.324-8.386-9.659-8.389L133.694.228c-5.341,0-9.671,3.747-9.674,8.378Z" fill="#d4d4fc"/>
          </g>
          <rect y="0.448" width="225.385" height="98.74" rx="8.228" fill="#fff"/>
          <rect x="0.537" y="0.448" width="224.848" height="97.846" rx="8.181" opacity="0.95" fill="url(#Unbenannter_Verlauf_7)"/>
          <g>
            <path d="M16.932,16.925H20.1a8.617,8.617,0,0,1,3.348.551,4.221,4.221,0,0,1,2.064,2.036,8.747,8.747,0,0,1,.774,4.014,9.935,9.935,0,0,1-.47,3.189,5.841,5.841,0,0,1-1.236,2.192,3.811,3.811,0,0,1-1.725,1.074,8.9,8.9,0,0,1-2.4.274h-3.52Zm2.941,2.285v8.759h.5a2.734,2.734,0,0,0,1.583-.391,2.646,2.646,0,0,0,.9-1.363,9.124,9.124,0,0,0,.334-2.811,7.3,7.3,0,0,0-.369-2.62,2.438,2.438,0,0,0-.924-1.247,3,3,0,0,0-1.519-.327Z" fill="#fff"/>
            <path d="M28.216,16.925h2.942v13.33H28.216Z" fill="#fff"/>
            <path d="M38.384,23.145h4.647v7.11H41.786L41.4,28.731a3.564,3.564,0,0,1-3.235,1.729,4.283,4.283,0,0,1-3.623-1.792,7.871,7.871,0,0,1-1.339-4.82,9.071,9.071,0,0,1,1.319-5.21,4.423,4.423,0,0,1,3.9-1.919q4.108,0,4.608,4.571l-2.647.429q-.275-2.617-1.9-2.617a1.794,1.794,0,0,0-1.583.967,7.717,7.717,0,0,0-.594,3.662,7.058,7.058,0,0,0,.579,3.369,1.855,1.855,0,0,0,1.7.977q1.8,0,1.8-2.647h-2Z" fill="#fff"/>
            <path d="M45.325,16.925h2.942v13.33H45.325Z" fill="#fff"/>
            <path d="M49.3,16.925H57.64v2.5H54.9v10.83H51.963V19.425H49.3Z" fill="#fff"/>
            <path d="M60.757,16.925h2.961l3.824,13.33H64.534L63.866,27.5H60.1l-.656,2.754h-2.7Zm2.556,8.291-1.352-5.462-1.3,5.462Z" fill="#fff"/>
            <path d="M68.66,16.925H71.6v10.83h4.314v2.5H68.66Z" fill="#fff"/>
            <path d="M77.209,16.925h8.138V19.21h-5.2v3.095H84.19v2.286H80.151v3.281h5.2v2.383H77.209Z" fill="#fff"/>
            <path d="M90.533,16.925h4.314l1.893,8.232,2.127-8.232h4.187v13.33H100.3V19.092L97.563,30.255H95.426l-2.5-11.163V30.255H90.533Z" fill="#fff"/>
            <path d="M105.583,16.925h8.138V19.21h-5.2v3.095h4.039v2.286h-4.039v3.281h5.2v2.383h-8.138Z" fill="#fff"/>
            <path d="M115.162,16.925h3.167a8.622,8.622,0,0,1,3.349.551,4.215,4.215,0,0,1,2.063,2.036,8.733,8.733,0,0,1,.775,4.014,9.934,9.934,0,0,1-.471,3.189,5.84,5.84,0,0,1-1.235,2.192,3.809,3.809,0,0,1-1.726,1.074,8.9,8.9,0,0,1-2.4.274h-3.52ZM118.1,19.21v8.759h.5a2.734,2.734,0,0,0,1.583-.391,2.651,2.651,0,0,0,.894-1.363,9.093,9.093,0,0,0,.334-2.811,7.321,7.321,0,0,0-.368-2.62,2.434,2.434,0,0,0-.925-1.247,2.993,2.993,0,0,0-1.518-.327Z" fill="#fff"/>
            <path d="M126.446,16.925h2.942v13.33h-2.942Z" fill="#fff"/>
            <path d="M131.918,16.925h8.138V19.21h-5.2v3.095H138.9v2.286H134.86v3.281h5.2v2.383h-8.138Z" fill="#fff"/>
            <path d="M141.389,16.925h3.264l3.442,8.281V16.925h2.274v13.33h-2.628l-4.078-9.649v9.649h-2.274Z" fill="#fff"/>
          </g>
          <g>
            <path d="M18.3,42.8l-.1,1.048q-.046.5-.047,1a7.509,7.509,0,0,0,.082,1.031.625.625,0,0,1-.293.351.923.923,0,0,1-.5.147q-.805,0-.806-1.02a20.721,20.721,0,0,1,.253-2.156,14.028,14.028,0,0,0,.176-1.822c0-.024-.023-.051-.07-.082-.27-.172-.406-.336-.406-.492,0-.2.151-.424.453-.663a.694.694,0,0,0,.268-.395c.033-.15.081-.388.144-.712a5.657,5.657,0,0,1,.985-2.657,2.125,2.125,0,0,1,1.7-.788,1.428,1.428,0,0,1,1.015.389,1.268,1.268,0,0,1,.415.964,2.719,2.719,0,0,1-.238,1.07q-.238.553-.627.553a.409.409,0,0,1-.288-.108.366.366,0,0,1-.118-.284l.036-.51q0-.913-.383-.914-.477,0-.891,1.192a6.365,6.365,0,0,0-.415,2.031c0,.058.037.087.112.087q1.218,0,1.721-.011t.5.386q0,.387-.609.572a4.392,4.392,0,0,1-1.28.184,4.9,4.9,0,0,0-.588.076c-.094.579-.163,1.088-.206,1.53Z" fill="#fff"/>
            <path d="M25.29,43.633a5.44,5.44,0,0,1-1.309,1.629,2.384,2.384,0,0,1-1.509.6,1.31,1.31,0,0,1-.915-.475,2.019,2.019,0,0,1-.462-1.459,9.587,9.587,0,0,1,.353-2.1,7.583,7.583,0,0,0,.306-1.764.773.773,0,0,1,.735-.492.7.7,0,0,1,.545.226.68.68,0,0,1,.2.454,3.643,3.643,0,0,1-.293,1.183,11.272,11.272,0,0,0-.368,1.292,6.319,6.319,0,0,0-.2,1.07c0,.519.107.779.323.779q.513,0,1.383-.979a4.868,4.868,0,0,0,1.135-2,5.151,5.151,0,0,1,.471-1.312.659.659,0,0,1,.582-.311q.612,0,.612.68a1.673,1.673,0,0,1-.1.4,7.321,7.321,0,0,0-.347,2.337q0,1.524.517,1.823a.286.286,0,0,1,.171.246q0,.21-.3.4a1.084,1.084,0,0,1-.57.188q-.466,0-.715-.654A5.017,5.017,0,0,1,25.29,43.633Zm-1.706-4.939a1.261,1.261,0,0,1-.55-.146c-.2-.1-.3-.206-.3-.323,0-.582.2-.873.612-.873a1.1,1.1,0,0,1,.744.24.848.848,0,0,1,.28.68Q24.372,38.694,23.584,38.694Zm2.111-.152a.739.739,0,0,1-.514-.2.623.623,0,0,1-.221-.472.524.524,0,0,1,.18-.46,1.835,1.835,0,0,1,.6-.226l.1-.029a.551.551,0,0,1,.473.079.569.569,0,0,1,.227.513Q26.537,38.542,25.7,38.542Z" fill="#fff"/>
            <path d="M29.948,42.872l.1-.188a9.962,9.962,0,0,1,1.533-2.311,2.276,2.276,0,0,1,1.6-.888,1.441,1.441,0,0,1,.979.328,1,1,0,0,1,.38.779.873.873,0,0,1-.13.484.4.4,0,0,1-.358.2.924.924,0,0,1-.665-.3.591.591,0,0,0-.336-.193q-.441,0-1.476,1.365a6.276,6.276,0,0,0-1.247,3.07,1.08,1.08,0,0,1-.288.689.885.885,0,0,1-.606.2.6.6,0,0,1-.577-.46,4.718,4.718,0,0,1-.17-1.5c0-.285.007-.67.023-1.154q.024-.685.135-1.676c.02-.172.034-.306.042-.4a4.369,4.369,0,0,1,.12-.788.837.837,0,0,1,.315-.4.884.884,0,0,1,.547-.187.617.617,0,0,1,.483.182.582.582,0,0,1,.164.4,5.163,5.163,0,0,1-.264,1.143,4.993,4.993,0,0,0-.16.714Z" fill="#fff"/>
            <path d="M43.567,43.821q-1.524,2.151-3.065,2.15a1.217,1.217,0,0,1-1.006-.489,1.96,1.96,0,0,1-.382-1.245A4.756,4.756,0,0,1,40.37,41.2a3.443,3.443,0,0,1,2.544-1.512,1.279,1.279,0,0,1,1.053.387q.441-1.921.524-2.4a7.885,7.885,0,0,1,.294-1.184.955.955,0,0,1,.359-.454.789.789,0,0,1,.417-.161.514.514,0,0,1,.459.246,1.123,1.123,0,0,1,.159.621,4.943,4.943,0,0,1-.259.943,26.049,26.049,0,0,0-.785,3.059,15.273,15.273,0,0,0-.362,2.853q0,1.014.447,1.014a1.138,1.138,0,0,0,.488-.123,1.087,1.087,0,0,1,.365-.117q.288,0,.288.334,0,.4-.585.806a1.987,1.987,0,0,1-1.109.4.948.948,0,0,1-.87-.6A2.706,2.706,0,0,1,43.567,43.821Zm-.653-3.006q-.771,0-1.609,1.172a3.789,3.789,0,0,0-.838,2.145c0,.378.141.568.423.568q.718,0,1.712-1.272a3.762,3.762,0,0,0,.994-2.009.576.576,0,0,0-.188-.413A.663.663,0,0,0,42.914,40.815Z" fill="#fff"/>
            <path d="M52.614,43.762q0,.61-1.029,1.456a3.559,3.559,0,0,1-2.324.847,2.016,2.016,0,0,1-1.565-.624,2.481,2.481,0,0,1-.57-1.737,4.793,4.793,0,0,1,1.165-3.076,3.256,3.256,0,0,1,2.488-1.436,1.4,1.4,0,0,1,1.059.416,1.378,1.378,0,0,1,.4.99,2.678,2.678,0,0,1-.982,1.943,5.331,5.331,0,0,1-2.518,1.274.2.2,0,0,0-.177.211.764.764,0,0,0,.25.536.893.893,0,0,0,.668.255A3.319,3.319,0,0,0,51.826,43.6a.625.625,0,0,1,.435-.234C52.5,43.37,52.614,43.5,52.614,43.762Zm-3.947-1.037a3.564,3.564,0,0,0,1.638-.791,1.608,1.608,0,0,0,.709-1.095.494.494,0,0,0-.109-.326.343.343,0,0,0-.279-.131,1.658,1.658,0,0,0-1.135.75A3.88,3.88,0,0,0,48.667,42.725Z" fill="#fff"/>
            <path d="M58.532,44.923a5.782,5.782,0,0,1-.411-1.969q-.131-1.5-.577-1.5-.423,0-1.464,1.561A11.048,11.048,0,0,0,54.8,45.321a.768.768,0,0,1-.2.369.41.41,0,0,1-.285.147c-.6,0-.894-.272-.894-.815a9.539,9.539,0,0,1,.176-1.254,17.684,17.684,0,0,0,.229-3.093.987.987,0,0,1,.242-.589.664.664,0,0,1,.511-.314.741.741,0,0,1,.524.17q.181.169.182.9A13.136,13.136,0,0,1,54.95,43q1.276-2.977,2.847-2.977,1.365,0,1.6,2.139.236,2.18.542,2.179a1.009,1.009,0,0,0,.311-.058,1.131,1.131,0,0,1,.336-.07q.282,0,.282.328a.91.91,0,0,1-.388.635,1.437,1.437,0,0,1-.977.337,1.009,1.009,0,0,1-.976-.591Z" fill="#fff"/>
            <path d="M69.915,46.171a3.677,3.677,0,0,1-1.468-.393,2.678,2.678,0,0,1-1.314-1.333,4.618,4.618,0,0,1-.453-2.03,8.784,8.784,0,0,1,.164-1.471l.189-1.084c.027-.184.056-.363.088-.539.047-.27.088-.529.123-.779a2.433,2.433,0,0,1,.289-.97.7.7,0,0,1,.635-.325q.211,0,.432.331a1.051,1.051,0,0,1,.221.507q0,.123-.282,1.289-.07.292-.244,1.432a12.581,12.581,0,0,0-.174,1.544,2.48,2.48,0,0,0,.656,2.016,1.941,1.941,0,0,0,1.109.521,2.706,2.706,0,0,0,2.065-.635,3.715,3.715,0,0,0,.729-2.077c.02-.176.043-.342.071-.5q.059-.6.1-1.142a8.689,8.689,0,0,1,.408-2.59.831.831,0,0,1,.762-.521q.612,0,.612.791a11.9,11.9,0,0,1-.23,1.746,14.1,14.1,0,0,0-.182,1.506,7.667,7.667,0,0,1-.488,2.6,3.565,3.565,0,0,1-1.385,1.465A4.437,4.437,0,0,1,69.915,46.171Z" fill="#fff"/>
            <path d="M80.628,44.923a5.777,5.777,0,0,1-.412-1.969q-.129-1.5-.577-1.5-.423,0-1.464,1.561a11.1,11.1,0,0,0-1.283,2.306.768.768,0,0,1-.2.369.41.41,0,0,1-.285.147q-.894,0-.894-.815a9.539,9.539,0,0,1,.176-1.254,17.673,17.673,0,0,0,.23-3.093.985.985,0,0,1,.241-.589.664.664,0,0,1,.511-.314.741.741,0,0,1,.524.17c.121.113.183.414.183.9A13.062,13.062,0,0,1,77.045,43q1.276-2.977,2.847-2.977,1.365,0,1.6,2.139.237,2.18.542,2.179a1,1,0,0,0,.311-.058,1.131,1.131,0,0,1,.336-.07q.282,0,.282.328a.906.906,0,0,1-.388.635,1.437,1.437,0,0,1-.977.337,1.009,1.009,0,0,1-.976-.591Z" fill="#fff"/>
            <path d="M86.051,41.02a6.784,6.784,0,0,0-.332,1.307,12.01,12.01,0,0,0-.279,1.582,1.533,1.533,0,0,0,.1.671.353.353,0,0,0,.338.19,1.781,1.781,0,0,0,.632-.114,3.217,3.217,0,0,0,.8-.513.894.894,0,0,1,.518-.252.383.383,0,0,1,.273.1.3.3,0,0,1,.1.226q0,.515-.835,1.169a2.824,2.824,0,0,1-1.765.653,1.511,1.511,0,0,1-1.185-.457,1.9,1.9,0,0,1-.409-1.313,16.525,16.525,0,0,1,.594-3.158c-.251.027-.425.041-.523.041h-.124a1.023,1.023,0,0,1-.55-.176.614.614,0,0,1-.279-.562q0-.492.559-.492l1.258-.047q.248-.709.524-1.858.165-.714.747-.714a.656.656,0,0,1,.506.2.628.628,0,0,1,.182.436q0,.094-.5,1.811,1.872-.165,2.053-.164a.646.646,0,0,1,.412.091.462.462,0,0,1,.1.348q0,.522-.888.662Z" fill="#fff"/>
            <path d="M94.54,43.762q0,.61-1.029,1.456a3.561,3.561,0,0,1-2.324.847,2.016,2.016,0,0,1-1.565-.624,2.481,2.481,0,0,1-.57-1.737,4.8,4.8,0,0,1,1.164-3.076,3.258,3.258,0,0,1,2.489-1.436,1.4,1.4,0,0,1,1.059.416,1.383,1.383,0,0,1,.4.99,2.676,2.676,0,0,1-.983,1.943,5.323,5.323,0,0,1-2.517,1.274.2.2,0,0,0-.177.211.76.76,0,0,0,.25.536.893.893,0,0,0,.668.255A3.319,3.319,0,0,0,93.752,43.6a.625.625,0,0,1,.435-.234Q94.54,43.37,94.54,43.762Zm-3.947-1.037a3.568,3.568,0,0,0,1.638-.791,1.608,1.608,0,0,0,.709-1.095.494.494,0,0,0-.109-.326.344.344,0,0,0-.279-.131,1.658,1.658,0,0,0-1.135.75A3.88,3.88,0,0,0,90.593,42.725Z" fill="#fff"/>
            <path d="M96.987,42.872l.1-.188a9.961,9.961,0,0,1,1.532-2.311,2.278,2.278,0,0,1,1.6-.888,1.443,1.443,0,0,1,.979.328,1,1,0,0,1,.379.779.881.881,0,0,1-.129.484.405.405,0,0,1-.359.2.922.922,0,0,1-.664-.3.594.594,0,0,0-.336-.193q-.441,0-1.477,1.365a6.286,6.286,0,0,0-1.247,3.07,1.08,1.08,0,0,1-.288.689.885.885,0,0,1-.606.2.6.6,0,0,1-.576-.46,4.712,4.712,0,0,1-.171-1.5q0-.428.024-1.154.022-.685.135-1.676c.019-.172.034-.306.041-.4a4.437,4.437,0,0,1,.121-.788.841.841,0,0,1,.314-.4.887.887,0,0,1,.548-.187.616.616,0,0,1,.482.182.579.579,0,0,1,.165.4,5.187,5.187,0,0,1-.265,1.143,4.87,4.87,0,0,0-.159.714Z" fill="#fff"/>
            <path d="M103.217,42.872l.1-.188a9.929,9.929,0,0,1,1.532-2.311,2.278,2.278,0,0,1,1.6-.888,1.444,1.444,0,0,1,.98.328,1,1,0,0,1,.379.779.881.881,0,0,1-.129.484.406.406,0,0,1-.36.2.924.924,0,0,1-.664-.3.591.591,0,0,0-.336-.193q-.441,0-1.476,1.365a6.267,6.267,0,0,0-1.247,3.07,1.08,1.08,0,0,1-.288.689.887.887,0,0,1-.606.2.6.6,0,0,1-.577-.46,4.748,4.748,0,0,1-.17-1.5q0-.428.024-1.154.023-.685.134-1.676c.02-.172.034-.306.041-.4a4.535,4.535,0,0,1,.121-.788.837.837,0,0,1,.315-.4.886.886,0,0,1,.547-.187.613.613,0,0,1,.482.182.574.574,0,0,1,.165.4,5.163,5.163,0,0,1-.264,1.143,4.86,4.86,0,0,0-.16.714Z" fill="#fff"/>
            <path d="M108.394,41.887v.006q.189-1.066.188-1.218a1.3,1.3,0,0,1,.192-.727.6.6,0,0,1,.532-.293.946.946,0,0,1,.624.187.548.548,0,0,1,.223.422,4.481,4.481,0,0,1-.217.967l-.036.129a10.516,10.516,0,0,0-.388,1.846q-.065.714-.065,1.154a5,5,0,0,0,.123.955,1.078,1.078,0,0,1,.018.176q0,.135-.256.363a.809.809,0,0,1-.55.229q-.775,0-.776-1.172a12.877,12.877,0,0,1,.282-2.426Q108.346,42.169,108.394,41.887Zm2.841-4.816a.928.928,0,0,1-.376.729,1.1,1.1,0,0,1-.653.314.84.84,0,0,1-.627-.293.869.869,0,0,1-.273-.586.908.908,0,0,1,.27-.683,1.081,1.081,0,0,1,.777-.26.892.892,0,0,1,.638.231A.733.733,0,0,1,111.235,37.071Z" fill="#fff"/>
            <path d="M113.171,46.1a1.951,1.951,0,0,1-1.477-.527,2.031,2.031,0,0,1-.505-1.465,5.657,5.657,0,0,1,1.206-3.193q1.2-1.717,2.364-1.717a1.149,1.149,0,0,1,.953.554,1.958,1.958,0,0,1,.395,1.151,1.047,1.047,0,0,1-.209.759.607.607,0,0,1-.4.2q-.57,0-.665-.785c-.047-.383-.142-.574-.288-.574q-.459,0-1.212,1.3a4.708,4.708,0,0,0-.753,2.279q0,.791.86.791a3.355,3.355,0,0,0,1.912-.668,1.4,1.4,0,0,1,.717-.322.286.286,0,0,1,.324.322q0,.452-1.038,1.175A3.759,3.759,0,0,1,113.171,46.1Z" fill="#fff"/>
            <path d="M118.853,43.077a10.143,10.143,0,0,1,1.685-2.482,2.12,2.12,0,0,1,1.433-.659,1.11,1.11,0,0,1,.832.343,3.48,3.48,0,0,1,.485,1.784,8.349,8.349,0,0,0,.165,1.108,6,6,0,0,0,.224.747,2.258,2.258,0,0,0,.352.612.72.72,0,0,1,.177.439.506.506,0,0,1-.2.387.7.7,0,0,1-.468.176,1.149,1.149,0,0,1-.929-.568,3.078,3.078,0,0,1-.483-1.571,8.967,8.967,0,0,0-.2-1.564c-.073-.227-.193-.34-.362-.34q-.342,0-1.326,1.356a20.052,20.052,0,0,0-1.421,2.171,4.191,4.191,0,0,1-.418.8.453.453,0,0,1-.365.182.92.92,0,0,1-.583-.176.6.6,0,0,1-.222-.5,8.979,8.979,0,0,1,.158-.99q.6-3.147.982-6.7a2.329,2.329,0,0,1,.363-1.18.706.706,0,0,1,.491-.325.726.726,0,0,1,.541.24.932.932,0,0,1,.229.668,8.4,8.4,0,0,1-.159,1.512q-.157.855-.594,2.73Q118.971,42.409,118.853,43.077Z" fill="#fff"/>
            <path d="M127.436,41.02a6.784,6.784,0,0,0-.332,1.307,11.91,11.91,0,0,0-.28,1.582,1.548,1.548,0,0,0,.1.671.356.356,0,0,0,.339.19,1.785,1.785,0,0,0,.632-.114,3.236,3.236,0,0,0,.8-.513.892.892,0,0,1,.518-.252.386.386,0,0,1,.273.1.3.3,0,0,1,.1.226q0,.515-.835,1.169a2.826,2.826,0,0,1-1.765.653,1.509,1.509,0,0,1-1.185-.457,1.9,1.9,0,0,1-.409-1.313,16.525,16.525,0,0,1,.594-3.158c-.251.027-.425.041-.524.041h-.123a1.021,1.021,0,0,1-.55-.176.614.614,0,0,1-.279-.562c0-.328.185-.492.558-.492l1.259-.047q.248-.709.524-1.858c.109-.476.359-.714.747-.714a.656.656,0,0,1,.506.2.624.624,0,0,1,.182.436q0,.094-.5,1.811,1.871-.165,2.053-.164a.646.646,0,0,1,.412.091.466.466,0,0,1,.1.348q0,.522-.888.662Z" fill="#fff"/>
          </g>
          <path d="M190.989,87.378q-8.585,0-17.169,0c-3.056,0-3.682-.646-3.329-3.519a6.887,6.887,0,0,1,.525-1.755,26.6,26.6,0,0,0,2.11-11.559c-.223-4.976-.058-9.967-.051-14.951,0-2.568.318-2.885,2.941-2.887,10.07-.008,20.14.028,30.209-.029,2.046-.012,2.837.656,2.807,2.63-.093,5.939-.236,11.889.054,17.817.14,2.859,1.2,5.68,1.861,8.513.109.461.37.889.5,1.347.954,3.318.092,4.393-3.508,4.393Q199.466,87.38,190.989,87.378Zm-15.45-33.254c-.277,0-.549-.06-.762.1a.685.685,0,0,0-.254.718q.014,9.7.026,19.4c.337.43.921.257,1.336.257,9.993.017,19.986,0,29.979.038,1.559.006,1.745-.778,1.74-1.946-.025-5.528-.076-11.057.027-16.583.034-1.788-.72-2.124-2.427-2.112M191,86.122c5.8,0,11.6.027,17.393-.041.611-.007,1.214-.582,1.821-.893-.625-.357-1.24-1-1.877-1.023-3.33-.1-6.666-.049-10-.049l-24.569,0c-.957,0-2.128-.083-1.706,1.3.111.364,1.147.669,1.762.674C179.549,86.142,185.275,86.121,191,86.122Zm12.935-7.475c-.036-1.808-.673-2.559-2.483-2.541q-10.323.1-20.647,0c-1.866-.02-2.627.674-2.582,2.544Zm-12.818.974a5.363,5.363,0,0,0-4.228,2.185h8.62a6.611,6.611,0,0,0-2.74-1.847A6.435,6.435,0,0,0,191.117,79.621Z" fill="#fff"/>
          <rect x="0.21" width="229.842" height="104.959" fill="none" opacity="0"/>
        </g>
      </g>
    </g>
  </g>
</svg>
