<svg xmlns="http://www.w3.org/2000/svg" viewBox="0 0 345.682 38.019">
  <title>Element 2</title>
  <g id="Ebene_2" data-name="Ebene 2">
    <g id="Ebene_1-2" data-name="Ebene 1">
      <g id="teach" style="isolation: isolate">
        <g style="isolation: isolate">
          <path d="M5.2,26.691a2.546,2.546,0,0,1-1.883-.672,2.825,2.825,0,0,1-.672-2.076v-8.16H.924a.32.32,0,0,1-.216-.072.251.251,0,0,1-.084-.2v-.444l2.04-.144.285-4.272a.329.329,0,0,1,.089-.192.266.266,0,0,1,.207-.084h.534v4.56H7.536v.852H3.779v8.1a2.53,2.53,0,0,0,.126.846,1.581,1.581,0,0,0,.349.582,1.361,1.361,0,0,0,.521.336,1.905,1.905,0,0,0,.649.108,1.983,1.983,0,0,0,.744-.126,3.084,3.084,0,0,0,.54-.276,3.677,3.677,0,0,0,.372-.276.409.409,0,0,1,.228-.126.26.26,0,0,1,.192.12l.312.5a3.322,3.322,0,0,1-1.159.81A3.6,3.6,0,0,1,5.2,26.691Z" transform="translate(-0.624 -4.088)"/>
          <path d="M15.239,14.367a4.914,4.914,0,0,1,1.866.348,4.188,4.188,0,0,1,1.489,1.014,4.676,4.676,0,0,1,.984,1.638,6.526,6.526,0,0,1,.354,2.232.6.6,0,0,1-.078.36.3.3,0,0,1-.246.1H10.991v.228a8.1,8.1,0,0,0,.313,2.364,4.858,4.858,0,0,0,.887,1.71A3.67,3.67,0,0,0,13.584,25.4a4.618,4.618,0,0,0,1.823.347,5.466,5.466,0,0,0,1.561-.2,5.868,5.868,0,0,0,1.11-.444,6.037,6.037,0,0,0,.714-.444.81.81,0,0,1,.384-.2.278.278,0,0,1,.24.12l.312.384a3.277,3.277,0,0,1-.762.672,5.448,5.448,0,0,1-1.057.534,7.61,7.61,0,0,1-1.247.354,6.876,6.876,0,0,1-1.339.132,5.676,5.676,0,0,1-2.231-.426,4.759,4.759,0,0,1-1.731-1.242,5.71,5.71,0,0,1-1.115-2,8.508,8.508,0,0,1-.394-2.706,7.379,7.379,0,0,1,.366-2.37,5.425,5.425,0,0,1,1.055-1.872,4.828,4.828,0,0,1,1.693-1.23A5.574,5.574,0,0,1,15.239,14.367Zm.018.852a4.481,4.481,0,0,0-1.653.288,3.606,3.606,0,0,0-1.264.828,4.2,4.2,0,0,0-.863,1.3,5.867,5.867,0,0,0-.437,1.692H18.9a5.242,5.242,0,0,0-.263-1.722,3.693,3.693,0,0,0-.742-1.29,3.234,3.234,0,0,0-1.151-.81A3.8,3.8,0,0,0,15.257,15.219Z" transform="translate(-0.624 -4.088)"/>
          <path d="M30.863,26.5a.411.411,0,0,1-.444-.336l-.168-1.524a12.527,12.527,0,0,1-.978.864,5.807,5.807,0,0,1-1.014.648,5,5,0,0,1-1.14.4,6.113,6.113,0,0,1-1.344.138,3.96,3.96,0,0,1-1.188-.18,2.932,2.932,0,0,1-1.02-.552,2.686,2.686,0,0,1-.713-.954,3.286,3.286,0,0,1-.271-1.4,2.49,2.49,0,0,1,.432-1.4,3.557,3.557,0,0,1,1.35-1.128,8.92,8.92,0,0,1,2.364-.768,20.559,20.559,0,0,1,3.474-.336V18.723a4,4,0,0,0-.714-2.55,2.548,2.548,0,0,0-2.118-.894,4,4,0,0,0-1.47.24,5.206,5.206,0,0,0-1.026.528,6.468,6.468,0,0,0-.684.528.741.741,0,0,1-.444.24.388.388,0,0,1-.36-.216l-.2-.348a6.939,6.939,0,0,1,1.968-1.416,5.5,5.5,0,0,1,2.34-.48,4.269,4.269,0,0,1,1.68.306,3.1,3.1,0,0,1,1.194.876,3.83,3.83,0,0,1,.714,1.38,6.351,6.351,0,0,1,.24,1.806V26.5Zm-4.8-.636a5.115,5.115,0,0,0,1.278-.15,4.735,4.735,0,0,0,1.08-.42,5.273,5.273,0,0,0,.93-.642q.432-.372.852-.8V20.739A21.244,21.244,0,0,0,27.27,21a8.453,8.453,0,0,0-2.029.57,2.974,2.974,0,0,0-1.176.858,1.825,1.825,0,0,0-.377,1.134,2.5,2.5,0,0,0,.2,1.038,2.065,2.065,0,0,0,.522.72,2.033,2.033,0,0,0,.756.414A3.063,3.063,0,0,0,26.063,25.863Z" transform="translate(-0.624 -4.088)"/>
          <path d="M43.02,16.155a1.388,1.388,0,0,1-.115.1.239.239,0,0,1-.15.042.626.626,0,0,1-.33-.162,4.454,4.454,0,0,0-.558-.354,4.706,4.706,0,0,0-.87-.354,4.863,4.863,0,0,0-3.1.2,3.635,3.635,0,0,0-1.344,1.05,4.813,4.813,0,0,0-.834,1.656,7.682,7.682,0,0,0-.287,2.184,7.72,7.72,0,0,0,.293,2.232,4.754,4.754,0,0,0,.834,1.638,3.551,3.551,0,0,0,1.308,1.014,4.081,4.081,0,0,0,1.7.348,4.389,4.389,0,0,0,1.446-.2,4.659,4.659,0,0,0,.96-.444,4.328,4.328,0,0,0,.6-.444.62.62,0,0,1,.355-.2.275.275,0,0,1,.239.12l.312.384a3.49,3.49,0,0,1-.7.672,4.72,4.72,0,0,1-.948.54,5.812,5.812,0,0,1-1.146.354,6.444,6.444,0,0,1-1.29.126,5.116,5.116,0,0,1-2.082-.414,4.513,4.513,0,0,1-1.62-1.2,5.605,5.605,0,0,1-1.056-1.926,8.22,8.22,0,0,1-.378-2.592,8.179,8.179,0,0,1,.36-2.5,5.616,5.616,0,0,1,1.05-1.944,4.712,4.712,0,0,1,1.692-1.266,5.556,5.556,0,0,1,2.3-.45,5.412,5.412,0,0,1,2.07.372,5.074,5.074,0,0,1,1.578,1.008Z" transform="translate(-0.624 -4.088)"/>
          <path d="M46.318,26.5V9.039h1.141V16.6a6.719,6.719,0,0,1,1.89-1.626,4.719,4.719,0,0,1,2.381-.606,4.488,4.488,0,0,1,1.735.312,3.194,3.194,0,0,1,1.242.9A3.984,3.984,0,0,1,55.451,17a6.424,6.424,0,0,1,.252,1.872V26.5h-1.14V18.867a4.09,4.09,0,0,0-.768-2.634,2.841,2.841,0,0,0-2.353-.954,4.16,4.16,0,0,0-2.183.606,6.331,6.331,0,0,0-1.8,1.662V26.5Z" transform="translate(-0.624 -4.088)"/>
        </g>
      </g>
      <g id="UOS">
        <g style="isolation: isolate">
          <path d="M70.616,23.384a4.958,4.958,0,0,0,1.944-.36,3.94,3.94,0,0,0,1.448-1.032,4.57,4.57,0,0,0,.9-1.639,7.168,7.168,0,0,0,.312-2.2V4.345h5.408V18.152a10.8,10.8,0,0,1-.7,3.936,8.805,8.805,0,0,1-1.993,3.088,8.978,8.978,0,0,1-3.151,2.016,12.517,12.517,0,0,1-8.368,0,9.005,9.005,0,0,1-3.153-2.016,8.727,8.727,0,0,1-1.983-3.088,10.883,10.883,0,0,1-.688-3.936V4.345h5.408V18.137a7.156,7.156,0,0,0,.311,2.2,4.641,4.641,0,0,0,.905,1.648,3.875,3.875,0,0,0,1.448,1.04A4.955,4.955,0,0,0,70.616,23.384Z" transform="translate(-0.624 -4.088)" fill="#335d9d"/>
          <path d="M105.88,15.992a12.53,12.53,0,0,1-.872,4.7A11.117,11.117,0,0,1,98.736,27a13.922,13.922,0,0,1-9.912,0,11.127,11.127,0,0,1-6.3-6.3,12.511,12.511,0,0,1-.872-4.7,12.518,12.518,0,0,1,.872-4.7,11.185,11.185,0,0,1,2.464-3.775A11.365,11.365,0,0,1,88.824,5a13.057,13.057,0,0,1,4.96-.912,12.885,12.885,0,0,1,4.952.92,11.442,11.442,0,0,1,3.816,2.52,11.264,11.264,0,0,1,2.456,3.777A12.483,12.483,0,0,1,105.88,15.992Zm-5.536,0A10.1,10.1,0,0,0,99.9,12.88a6.588,6.588,0,0,0-1.289-2.344,5.545,5.545,0,0,0-2.055-1.472,7.086,7.086,0,0,0-2.768-.511,7.184,7.184,0,0,0-2.792.511,5.537,5.537,0,0,0-2.064,1.472A6.586,6.586,0,0,0,87.64,12.88a10.071,10.071,0,0,0-.448,3.112,10.126,10.126,0,0,0,.448,3.128,6.578,6.578,0,0,0,1.288,2.344,5.476,5.476,0,0,0,2.064,1.465,7.278,7.278,0,0,0,2.792.5,7.178,7.178,0,0,0,2.768-.5,5.483,5.483,0,0,0,2.055-1.465A6.579,6.579,0,0,0,99.9,19.12,10.156,10.156,0,0,0,100.344,15.992Z" transform="translate(-0.624 -4.088)" fill="#335d9d"/>
          <path d="M120.184,9.08a2.062,2.062,0,0,1-.5.576,1.134,1.134,0,0,1-.681.193,1.661,1.661,0,0,1-.792-.233c-.282-.154-.6-.328-.96-.519a7.914,7.914,0,0,0-1.224-.521,4.917,4.917,0,0,0-1.568-.231,3.38,3.38,0,0,0-2.264.647,2.2,2.2,0,0,0-.744,1.752,1.612,1.612,0,0,0,.449,1.168,3.829,3.829,0,0,0,1.175.8,12.408,12.408,0,0,0,1.664.616q.936.281,1.912.624a17.276,17.276,0,0,1,1.913.808,6.4,6.4,0,0,1,1.664,1.184A5.535,5.535,0,0,1,121.4,17.7a6.244,6.244,0,0,1,.449,2.489,8.108,8.108,0,0,1-.561,3.023,7.071,7.071,0,0,1-1.624,2.456,7.547,7.547,0,0,1-2.624,1.649,9.842,9.842,0,0,1-3.544.6,11.311,11.311,0,0,1-2.216-.224,13.183,13.183,0,0,1-2.183-.631,12.68,12.68,0,0,1-1.985-.969A8.4,8.4,0,0,1,105.5,24.84l1.6-2.527a1.289,1.289,0,0,1,.495-.464,1.4,1.4,0,0,1,.688-.177,1.808,1.808,0,0,1,.968.3q.487.3,1.105.671a8.773,8.773,0,0,0,1.416.672,5.3,5.3,0,0,0,1.887.3,3.6,3.6,0,0,0,2.288-.647,2.47,2.47,0,0,0,.816-2.057,1.952,1.952,0,0,0-.447-1.328,3.476,3.476,0,0,0-1.177-.848,10.993,10.993,0,0,0-1.656-.592q-.928-.256-1.9-.568a13.981,13.981,0,0,1-1.9-.768,5.989,5.989,0,0,1-1.655-1.2,5.589,5.589,0,0,1-1.177-1.856,7.361,7.361,0,0,1-.447-2.743,6.513,6.513,0,0,1,.527-2.561,6.6,6.6,0,0,1,1.553-2.224,7.631,7.631,0,0,1,2.511-1.56,9.29,9.29,0,0,1,3.409-.584,12.891,12.891,0,0,1,2.087.168,11.043,11.043,0,0,1,1.928.5,10.577,10.577,0,0,1,1.7.784,7.87,7.87,0,0,1,1.416,1.032Z" transform="translate(-0.624 -4.088)" fill="#335d9d"/>
        </g>
      </g>
      <g id="FÜR_ALLE_ANGEHENDEN_LEHRERINNEN_UND_LEHRER" data-name="FÜR ALLE ANGEHENDEN LEHRERINNEN UND LEHRER">
        <g style="isolation: isolate">
          <path d="M41.348,33.515v.509h-4.47V37.6h3.87V38.1h-3.87v3.9H36.26v-8.49Z" transform="translate(-0.624 -4.088)" fill="#335d9d"/>
          <path d="M46.562,41.566a2.688,2.688,0,0,0,1.095-.212,2.347,2.347,0,0,0,.819-.591,2.6,2.6,0,0,0,.513-.891,3.4,3.4,0,0,0,.177-1.107v-5.25h.611v5.25a3.8,3.8,0,0,1-.221,1.311,3.159,3.159,0,0,1-.639,1.062,2.943,2.943,0,0,1-1.015.711,3.624,3.624,0,0,1-2.681,0,2.939,2.939,0,0,1-1.014-.711,3.162,3.162,0,0,1-.64-1.062,3.826,3.826,0,0,1-.221-1.311v-5.25h.618v5.244a3.35,3.35,0,0,0,.177,1.107,2.642,2.642,0,0,0,.509.891,2.363,2.363,0,0,0,.817.594A2.655,2.655,0,0,0,46.562,41.566ZM45.8,32.015a.416.416,0,0,1-.042.183.536.536,0,0,1-.109.15.522.522,0,0,1-.155.1.463.463,0,0,1-.186.039.442.442,0,0,1-.183-.039.525.525,0,0,1-.153-.1.472.472,0,0,1-.105-.15.442.442,0,0,1-.039-.183.463.463,0,0,1,.039-.186.537.537,0,0,1,.105-.159.473.473,0,0,1,.153-.108.443.443,0,0,1,.183-.04.464.464,0,0,1,.186.04.47.47,0,0,1,.155.108.614.614,0,0,1,.109.159A.435.435,0,0,1,45.8,32.015Zm2.5,0a.442.442,0,0,1-.039.183.467.467,0,0,1-.109.15.563.563,0,0,1-.155.1.442.442,0,0,1-.183.039.457.457,0,0,1-.189-.039.539.539,0,0,1-.153-.1.472.472,0,0,1-.105-.15.442.442,0,0,1-.039-.183.477.477,0,0,1,.144-.345.462.462,0,0,1,.342-.148.443.443,0,0,1,.183.04.5.5,0,0,1,.155.108.53.53,0,0,1,.109.159A.463.463,0,0,1,48.3,32.015Z" transform="translate(-0.624 -4.088)" fill="#335d9d"/>
          <path d="M53.317,38.165v3.84h-.612v-8.49h2.166a3.535,3.535,0,0,1,2.2.567,1.982,1.982,0,0,1,.726,1.665,2.281,2.281,0,0,1-.168.888,2.066,2.066,0,0,1-.482.705,2.577,2.577,0,0,1-.759.5,3.394,3.394,0,0,1-1,.255.987.987,0,0,1,.258.24l2.922,3.672h-.535a.353.353,0,0,1-.165-.036.42.42,0,0,1-.134-.12L55.01,38.405a.613.613,0,0,0-.22-.186.909.909,0,0,0-.362-.054Zm0-.456h1.476a3.5,3.5,0,0,0,1.012-.135,2.22,2.22,0,0,0,.756-.387,1.657,1.657,0,0,0,.47-.606,1.881,1.881,0,0,0,.162-.8,1.564,1.564,0,0,0-.593-1.345A2.89,2.89,0,0,0,54.871,34H53.317Z" transform="translate(-0.624 -4.088)" fill="#335d9d"/>
          <path d="M69.4,42.005h-.474a.208.208,0,0,1-.138-.045.309.309,0,0,1-.084-.117l-1-2.466h-4.17l-1,2.466a.258.258,0,0,1-.084.114.223.223,0,0,1-.143.048h-.469l3.474-8.49h.612Zm-5.682-3.084h3.8l-1.734-4.29c-.028-.068-.056-.145-.084-.232s-.056-.176-.084-.272c-.028.1-.056.186-.084.272s-.056.165-.084.238Z" transform="translate(-0.624 -4.088)" fill="#335d9d"/>
          <path d="M71.659,41.482h4.027v.523H71.047v-8.49h.612Z" transform="translate(-0.624 -4.088)" fill="#335d9d"/>
          <path d="M78.1,41.482h4.025v.523H77.485v-8.49H78.1Z" transform="translate(-0.624 -4.088)" fill="#335d9d"/>
          <path d="M89.011,33.515v.509h-4.47v3.433h3.72v.5h-3.72V41.5h4.47v.51H83.923v-8.49Z" transform="translate(-0.624 -4.088)" fill="#335d9d"/>
          <path d="M100.32,42.005h-.473a.208.208,0,0,1-.138-.045.3.3,0,0,1-.084-.117l-1-2.466h-4.17l-1,2.466a.274.274,0,0,1-.084.114.225.225,0,0,1-.144.048h-.468l3.473-8.49h.613Zm-5.681-3.084h3.8l-1.733-4.29c-.028-.068-.057-.145-.084-.232s-.057-.176-.084-.272c-.028.1-.057.186-.084.272s-.057.165-.084.238Z" transform="translate(-0.624 -4.088)" fill="#335d9d"/>
          <path d="M102.4,33.536a.276.276,0,0,1,.1.093l5.5,7.356a3.221,3.221,0,0,1-.018-.348V33.515h.54v8.49h-.294a.259.259,0,0,1-.222-.12l-5.521-7.368a3.172,3.172,0,0,1,.019.341v7.147h-.534v-8.49h.3A.311.311,0,0,1,102.4,33.536Z" transform="translate(-0.624 -4.088)" fill="#335d9d"/>
          <path d="M114.984,41.6a6.468,6.468,0,0,0,.8-.045,4.419,4.419,0,0,0,.669-.135,4.146,4.146,0,0,0,.588-.219c.187-.086.373-.183.562-.291V38.627h-1.632a.161.161,0,0,1-.112-.042.129.129,0,0,1-.044-.1v-.336h2.345v3.018a5.33,5.33,0,0,1-.66.4,4.22,4.22,0,0,1-.731.291,5.523,5.523,0,0,1-.84.181,7.136,7.136,0,0,1-.985.063,4.4,4.4,0,0,1-1.676-.309,3.712,3.712,0,0,1-1.3-.876,3.953,3.953,0,0,1-.844-1.371,5.469,5.469,0,0,1,0-3.573,3.866,3.866,0,0,1,.853-1.368,3.75,3.75,0,0,1,1.34-.876,4.794,4.794,0,0,1,1.767-.309,5.577,5.577,0,0,1,.9.066,4.144,4.144,0,0,1,.764.2,3.562,3.562,0,0,1,.66.318,4.393,4.393,0,0,1,.588.435l-.162.264a.167.167,0,0,1-.149.09.229.229,0,0,1-.1-.024,1.318,1.318,0,0,1-.261-.168,2.789,2.789,0,0,0-.461-.276,3.888,3.888,0,0,0-.73-.258,4.263,4.263,0,0,0-1.061-.114,4.033,4.033,0,0,0-1.5.264,3.154,3.154,0,0,0-1.136.756,3.339,3.339,0,0,0-.727,1.2,4.669,4.669,0,0,0-.255,1.59,4.732,4.732,0,0,0,.258,1.614,3.441,3.441,0,0,0,.724,1.209,3.1,3.1,0,0,0,1.116.759A3.781,3.781,0,0,0,114.984,41.6Z" transform="translate(-0.624 -4.088)" fill="#335d9d"/>
          <path d="M125.707,33.515v.509h-4.471v3.433h3.721v.5h-3.721V41.5h4.471v.51h-5.089v-8.49Z" transform="translate(-0.624 -4.088)" fill="#335d9d"/>
          <path d="M134.563,42.005h-.619V37.937h-5.316v4.068h-.618v-8.49h.618v3.96h5.316v-3.96h.619Z" transform="translate(-0.624 -4.088)" fill="#335d9d"/>
          <path d="M142.471,33.515v.509H138v3.433h3.721v.5H138V41.5h4.471v.51h-5.089v-8.49Z" transform="translate(-0.624 -4.088)" fill="#335d9d"/>
          <path d="M145.206,33.536a.29.29,0,0,1,.1.093l5.5,7.356q-.018-.18-.018-.348V33.515h.54v8.49h-.294a.258.258,0,0,1-.222-.12l-5.52-7.368c.012.12.018.234.018.341v7.147h-.535v-8.49h.3A.319.319,0,0,1,145.206,33.536Z" transform="translate(-0.624 -4.088)" fill="#335d9d"/>
          <path d="M161.292,37.757a5.024,5.024,0,0,1-.294,1.77,3.822,3.822,0,0,1-.828,1.338,3.6,3.6,0,0,1-1.278.846,4.454,4.454,0,0,1-1.65.294h-3.1v-8.49h3.1a4.454,4.454,0,0,1,1.65.294,3.6,3.6,0,0,1,1.278.846A3.813,3.813,0,0,1,161,35.993,5,5,0,0,1,161.292,37.757Zm-.636,0a4.738,4.738,0,0,0-.246-1.584A3.326,3.326,0,0,0,159.717,35a2.946,2.946,0,0,0-1.077-.732,3.733,3.733,0,0,0-1.4-.252h-2.478v7.494h2.478a3.733,3.733,0,0,0,1.4-.252,2.936,2.936,0,0,0,1.077-.733,3.313,3.313,0,0,0,.693-1.175A4.757,4.757,0,0,0,160.656,37.757Z" transform="translate(-0.624 -4.088)" fill="#335d9d"/>
          <path d="M168.654,33.515v.509h-4.47v3.433h3.72v.5h-3.72V41.5h4.47v.51h-5.089v-8.49Z" transform="translate(-0.624 -4.088)" fill="#335d9d"/>
          <path d="M171.39,33.536a.282.282,0,0,1,.1.093l5.5,7.356q-.018-.18-.018-.348V33.515h.54v8.49h-.294a.259.259,0,0,1-.222-.12l-5.52-7.368c.012.12.018.234.018.341v7.147h-.534v-8.49h.3A.319.319,0,0,1,171.39,33.536Z" transform="translate(-0.624 -4.088)" fill="#335d9d"/>
          <path d="M183.558,41.482h4.026v.523h-4.639v-8.49h.613Z" transform="translate(-0.624 -4.088)" fill="#335d9d"/>
          <path d="M194.472,33.515v.509H190v3.433h3.72v.5H190V41.5h4.47v.51h-5.088v-8.49Z" transform="translate(-0.624 -4.088)" fill="#335d9d"/>
          <path d="M203.327,42.005h-.618V37.937h-5.315v4.068h-.619v-8.49h.619v3.96h5.315v-3.96h.618Z" transform="translate(-0.624 -4.088)" fill="#335d9d"/>
          <path d="M206.939,38.165v3.84h-.612v-8.49h2.166a3.535,3.535,0,0,1,2.2.567,1.982,1.982,0,0,1,.726,1.665,2.281,2.281,0,0,1-.168.888,2.066,2.066,0,0,1-.482.705,2.577,2.577,0,0,1-.759.5,3.394,3.394,0,0,1-1,.255.972.972,0,0,1,.258.24l2.922,3.672h-.535a.353.353,0,0,1-.165-.036.43.43,0,0,1-.134-.12l-2.718-3.444a.613.613,0,0,0-.22-.186.909.909,0,0,0-.362-.054Zm0-.456h1.476a3.5,3.5,0,0,0,1.012-.135,2.211,2.211,0,0,0,.756-.387,1.657,1.657,0,0,0,.47-.606,1.881,1.881,0,0,0,.162-.8,1.564,1.564,0,0,0-.593-1.345A2.89,2.89,0,0,0,208.493,34h-1.554Z" transform="translate(-0.624 -4.088)" fill="#335d9d"/>
          <path d="M219.107,33.515v.509h-4.469v3.433h3.719v.5h-3.719V41.5h4.469v.51H214.02v-8.49Z" transform="translate(-0.624 -4.088)" fill="#335d9d"/>
          <path d="M222.2,38.165v3.84h-.612v-8.49h2.166a3.537,3.537,0,0,1,2.2.567,1.982,1.982,0,0,1,.726,1.665,2.281,2.281,0,0,1-.168.888,2.083,2.083,0,0,1-.483.705,2.584,2.584,0,0,1-.758.5,3.394,3.394,0,0,1-1,.255.984.984,0,0,1,.257.24l2.922,3.672h-.534a.353.353,0,0,1-.165-.036.433.433,0,0,1-.135-.12L223.9,38.405a.613.613,0,0,0-.22-.186.912.912,0,0,0-.363-.054Zm0-.456h1.476a3.49,3.49,0,0,0,1.011-.135,2.211,2.211,0,0,0,.756-.387,1.66,1.66,0,0,0,.471-.606,1.9,1.9,0,0,0,.162-.8,1.562,1.562,0,0,0-.594-1.345A2.884,2.884,0,0,0,223.757,34H222.2Z" transform="translate(-0.624 -4.088)" fill="#335d9d"/>
          <path d="M230.123,42.005h-.618v-8.49h.618Z" transform="translate(-0.624 -4.088)" fill="#335d9d"/>
          <path d="M233.6,33.536a.28.28,0,0,1,.1.093l5.5,7.356c-.012-.12-.017-.236-.017-.348V33.515h.54v8.49h-.294a.261.261,0,0,1-.223-.12l-5.519-7.368c.011.12.017.234.017.341v7.147h-.534v-8.49h.3A.326.326,0,0,1,233.6,33.536Z" transform="translate(-0.624 -4.088)" fill="#335d9d"/>
          <path d="M242.975,33.536a.282.282,0,0,1,.1.093l5.5,7.356q-.018-.18-.018-.348V33.515h.54v8.49H248.8a.259.259,0,0,1-.222-.12l-5.52-7.368c.012.12.018.234.018.341v7.147h-.534v-8.49h.3A.319.319,0,0,1,242.975,33.536Z" transform="translate(-0.624 -4.088)" fill="#335d9d"/>
          <path d="M257,33.515v.509h-4.47v3.433h3.72v.5h-3.72V41.5H257v.51h-5.088v-8.49Z" transform="translate(-0.624 -4.088)" fill="#335d9d"/>
          <path d="M259.739,33.536a.282.282,0,0,1,.1.093l5.5,7.356q-.018-.18-.018-.348V33.515h.54v8.49h-.294a.259.259,0,0,1-.222-.12l-5.52-7.368c.012.12.018.234.018.341v7.147h-.534v-8.49h.3A.319.319,0,0,1,259.739,33.536Z" transform="translate(-0.624 -4.088)" fill="#335d9d"/>
          <path d="M274.433,41.566a2.688,2.688,0,0,0,1.1-.212,2.347,2.347,0,0,0,.819-.591,2.6,2.6,0,0,0,.513-.891,3.372,3.372,0,0,0,.177-1.107v-5.25h.611v5.25a3.8,3.8,0,0,1-.221,1.311,3.159,3.159,0,0,1-.639,1.062,2.943,2.943,0,0,1-1.015.711,3.624,3.624,0,0,1-2.681,0,2.939,2.939,0,0,1-1.014-.711,3.162,3.162,0,0,1-.64-1.062,3.826,3.826,0,0,1-.221-1.311v-5.25h.618v5.244a3.376,3.376,0,0,0,.177,1.107,2.642,2.642,0,0,0,.509.891,2.363,2.363,0,0,0,.817.594A2.655,2.655,0,0,0,274.433,41.566Z" transform="translate(-0.624 -4.088)" fill="#335d9d"/>
          <path d="M280.828,33.536a.283.283,0,0,1,.1.093l5.5,7.356a3.229,3.229,0,0,1-.019-.348V33.515h.54v8.49h-.294a.257.257,0,0,1-.221-.12l-5.521-7.368a3.172,3.172,0,0,1,.019.341v7.147H280.4v-8.49h.3A.313.313,0,0,1,280.828,33.536Z" transform="translate(-0.624 -4.088)" fill="#335d9d"/>
          <path d="M296.914,37.757a5.024,5.024,0,0,1-.294,1.77,3.82,3.82,0,0,1-.827,1.338,3.589,3.589,0,0,1-1.278.846,4.455,4.455,0,0,1-1.651.294h-3.095v-8.49h3.095a4.455,4.455,0,0,1,1.651.294,3.589,3.589,0,0,1,1.278.846,3.811,3.811,0,0,1,.827,1.338A5,5,0,0,1,296.914,37.757Zm-.636,0a4.738,4.738,0,0,0-.246-1.584A3.324,3.324,0,0,0,295.34,35a2.946,2.946,0,0,0-1.077-.732,3.735,3.735,0,0,0-1.4-.252h-2.477v7.494h2.477a3.735,3.735,0,0,0,1.4-.252,2.936,2.936,0,0,0,1.077-.733,3.311,3.311,0,0,0,.692-1.175A4.757,4.757,0,0,0,296.278,37.757Z" transform="translate(-0.624 -4.088)" fill="#335d9d"/>
          <path d="M302.417,41.482h4.025v.523h-4.637v-8.49h.612Z" transform="translate(-0.624 -4.088)" fill="#335d9d"/>
          <path d="M313.33,33.515v.509h-4.47v3.433h3.72v.5h-3.72V41.5h4.47v.51h-5.088v-8.49Z" transform="translate(-0.624 -4.088)" fill="#335d9d"/>
          <path d="M322.187,42.005h-.619V37.937h-5.316v4.068h-.618v-8.49h.618v3.96h5.316v-3.96h.619Z" transform="translate(-0.624 -4.088)" fill="#335d9d"/>
          <path d="M325.8,38.165v3.84h-.611v-8.49h2.166a3.536,3.536,0,0,1,2.195.567,1.984,1.984,0,0,1,.726,1.665,2.263,2.263,0,0,1-.168.888,2.083,2.083,0,0,1-.483.705,2.577,2.577,0,0,1-.759.5,3.378,3.378,0,0,1-1,.255.972.972,0,0,1,.258.24l2.922,3.672h-.533a.35.35,0,0,1-.165-.036.424.424,0,0,1-.136-.12l-2.718-3.444a.6.6,0,0,0-.219-.186.915.915,0,0,0-.363-.054Zm0-.456h1.476a3.5,3.5,0,0,0,1.011-.135,2.211,2.211,0,0,0,.756-.387,1.684,1.684,0,0,0,.472-.606,1.912,1.912,0,0,0,.162-.8,1.56,1.56,0,0,0-.6-1.345A2.881,2.881,0,0,0,327.353,34H325.8Z" transform="translate(-0.624 -4.088)" fill="#335d9d"/>
          <path d="M337.966,33.515v.509H333.5v3.433h3.72v.5H333.5V41.5h4.47v.51h-5.088v-8.49Z" transform="translate(-0.624 -4.088)" fill="#335d9d"/>
          <path d="M341.062,38.165v3.84h-.612v-8.49h2.166a3.537,3.537,0,0,1,2.2.567,1.984,1.984,0,0,1,.726,1.665,2.281,2.281,0,0,1-.168.888,2.083,2.083,0,0,1-.483.705,2.577,2.577,0,0,1-.759.5,3.378,3.378,0,0,1-1,.255.972.972,0,0,1,.258.24l2.922,3.672h-.534a.353.353,0,0,1-.165-.036.433.433,0,0,1-.135-.12l-2.718-3.444a.6.6,0,0,0-.219-.186.915.915,0,0,0-.363-.054Zm0-.456h1.476a3.5,3.5,0,0,0,1.011-.135,2.211,2.211,0,0,0,.756-.387,1.671,1.671,0,0,0,.471-.606,1.9,1.9,0,0,0,.162-.8,1.562,1.562,0,0,0-.594-1.345A2.884,2.884,0,0,0,342.616,34h-1.554Z" transform="translate(-0.624 -4.088)" fill="#335d9d"/>
        </g>
      </g>
    </g>
  </g>
</svg>
