<?xml version="1.0" encoding="UTF-8" standalone="no"?>
<svg
   xmlns:dc="http://purl.org/dc/elements/1.1/"
   xmlns:cc="http://creativecommons.org/ns#"
   xmlns:rdf="http://www.w3.org/1999/02/22-rdf-syntax-ns#"
   xmlns:svg="http://www.w3.org/2000/svg"
   xmlns="http://www.w3.org/2000/svg"
   xmlns:sodipodi="http://sodipodi.sourceforge.net/DTD/sodipodi-0.dtd"
   xmlns:inkscape="http://www.inkscape.org/namespaces/inkscape"
   viewBox="0 0 149.134 81.358"
   version="1.1"
   id="svg1968"
   sodipodi:docname="10_add_new.svg"
   inkscape:version="0.92.4 (5da689c313, 2019-01-14)">
  <metadata
     id="metadata1972">
    <rdf:RDF>
      <cc:Work
         rdf:about="">
        <dc:format>image/svg+xml</dc:format>
        <dc:type
           rdf:resource="http://purl.org/dc/dcmitype/StillImage" />
      </cc:Work>
    </rdf:RDF>
  </metadata>
  <sodipodi:namedview
     pagecolor="#ffffff"
     bordercolor="#666666"
     borderopacity="1"
     objecttolerance="10"
     gridtolerance="10"
     guidetolerance="10"
     inkscape:pageopacity="0"
     inkscape:pageshadow="2"
     inkscape:window-width="731"
     inkscape:window-height="403"
     id="namedview1970"
     showgrid="false"
     inkscape:zoom="1"
     inkscape:cx="74.567001"
     inkscape:cy="40.679001"
     inkscape:window-x="2399"
     inkscape:window-y="103"
     inkscape:window-maximized="0"
     inkscape:current-layer="svg1968" />
  <defs
     id="defs1732">
    <linearGradient
       id="Unbenannter_Verlauf_21"
       data-name="Unbenannter Verlauf 21"
       x1="3.586"
       y1="27.89"
       x2="143.805"
       y2="49.793"
       gradientTransform="translate(-0.06519515,0.12789648)"
       gradientUnits="userSpaceOnUse">
      <stop
         offset="0"
         stop-color="#d0dcff"
         id="stop1689" />
      <stop
         offset="0.334"
         stop-color="#d2ddff"
         id="stop1691" />
      <stop
         offset="0.454"
         stop-color="#d9e3ff"
         id="stop1693" />
      <stop
         offset="0.54"
         stop-color="#e4ebff"
         id="stop1695" />
      <stop
         offset="0.579"
         stop-color="#edf2ff"
         id="stop1697" />
      <stop
         offset="0.668"
         stop-color="#d6e0ff"
         id="stop1699" />
      <stop
         offset="0.773"
         stop-color="#c2d1ff"
         id="stop1701" />
      <stop
         offset="0.878"
         stop-color="#b6c8ff"
         id="stop1703" />
      <stop
         offset="0.983"
         stop-color="#b2c5ff"
         id="stop1705" />
    </linearGradient>
    <linearGradient
       id="Unbenannter_Verlauf_20"
       data-name="Unbenannter Verlauf 20"
       x1="3.992"
       y1="27.953"
       x2="143.387"
       y2="49.728"
       gradientTransform="translate(-0.06519515,0.12789648)"
       gradientUnits="userSpaceOnUse">
      <stop
         offset="0"
         stop-color="#d6e1ff"
         id="stop1708" />
      <stop
         offset="0.399"
         stop-color="#d3dfff"
         id="stop1710" />
      <stop
         offset="0.639"
         stop-color="#cbd8ff"
         id="stop1712" />
      <stop
         offset="0.708"
         stop-color="#c7d4ff"
         id="stop1714" />
      <stop
         offset="0.96"
         stop-color="#d1dcff"
         id="stop1716" />
      <stop
         offset="0.983"
         stop-color="#d2ddff"
         id="stop1718" />
    </linearGradient>
    <linearGradient
       id="Unbenannter_Verlauf_26"
       data-name="Unbenannter Verlauf 26"
       x1="63.856"
       y1="34.509"
       x2="79.75"
       y2="49.162"
       gradientTransform="matrix(1,-0.002,0.002,1,-0.066,0.128)"
       gradientUnits="userSpaceOnUse">
      <stop
         offset="0.101"
         stop-color="#c7d4ff"
         id="stop1721" />
      <stop
         offset="0.295"
         stop-color="#d1dcff"
         id="stop1723" />
      <stop
         offset="0.37"
         stop-color="#d6e1ff"
         id="stop1725" />
      <stop
         offset="0.693"
         stop-color="#d3deff"
         id="stop1727" />
      <stop
         offset="0.745"
         stop-color="#d2ddff"
         id="stop1729" />
    </linearGradient>
  </defs>
  <title
     id="title1734">10_add_new_1</title>
  <g
     id="g2545">
    <rect
       style="isolation:isolate;fill:#ffffff"
       id="rect1736"
       transform="rotate(-0.094)"
       height="81.113998"
       width="149.00101"
       y="0.24488991"
       x="-0.00020170306" />
    <g
       id="g1842"
       style="isolation:isolate;mix-blend-mode:multiply">
      <path
         style="fill:#ffffff"
         inkscape:connector-curvature="0"
         id="path1738"
         d="m 148.319,73.586 c 0.009,4.109 -6.277,7.458 -14.031,7.475 L 16.093,81.322 C 8.332,81.339 2.039,78.022 2.03,73.909 L 1.893,11.271 C 1.884,7.158 8.164,3.811 15.924,3.794 l 118.2,-0.261 c 7.755,-0.017 14.054,3.3 14.063,7.415 z" />
      <path
         style="fill:#fefeff"
         inkscape:connector-curvature="0"
         id="path1740"
         d="m 147.864,73.327 c 0.009,4.1 -6.256,7.434 -13.985,7.451 L 16.069,81.037 C 8.334,81.054 2.061,77.744 2.052,73.649 L 1.916,11.214 C 1.907,7.115 8.165,3.779 15.9,3.762 L 133.711,3.5 c 7.729,-0.017 14.008,3.291 14.017,7.39 z" />
      <path
         style="fill:#fdfdff"
         inkscape:connector-curvature="0"
         id="path1742"
         d="m 147.409,73.068 c 0.009,4.083 -6.235,7.409 -13.939,7.426 L 16.045,80.753 C 8.335,80.77 2.082,77.471 2.073,73.388 L 1.938,11.158 C 1.929,7.072 8.167,3.747 15.877,3.73 L 133.3,3.472 c 7.7,-0.017 13.963,3.28 13.972,7.366 z" />
      <path
         style="fill:#fcfcff"
         inkscape:connector-curvature="0"
         id="path1744"
         d="m 146.955,72.809 c 0.008,4.069 -6.215,7.385 -13.894,7.4 L 16.021,80.467 C 8.336,80.486 2.1,77.2 2.1,73.128 L 1.96,11.1 C 1.951,7.03 8.169,3.715 15.854,3.7 l 117.04,-0.258 c 7.678,-0.017 13.917,3.269 13.926,7.342 z" />
      <path
         style="fill:#fcfcff"
         inkscape:connector-curvature="0"
         id="path1746"
         d="m 146.5,72.55 c 0.009,4.056 -6.195,7.361 -13.848,7.377 L 16,80.184 C 8.341,80.201 2.129,76.924 2.12,72.868 L 1.982,11.046 C 1.974,6.987 8.171,3.684 15.83,3.667 L 132.485,3.41 c 7.654,-0.017 13.871,3.259 13.88,7.318 z" />
      <path
         style="fill:#fbfbff"
         inkscape:connector-curvature="0"
         id="path1748"
         d="m 146.045,72.291 c 0.009,4.042 -6.174,7.336 -13.8,7.353 L 15.972,79.9 C 8.339,79.917 2.148,76.65 2.139,72.608 L 2.005,10.99 C 2,6.944 8.173,3.652 15.806,3.635 L 132.077,3.379 c 7.628,-0.017 13.825,3.248 13.834,7.294 z" />
      <path
         style="fill:#fafaff"
         inkscape:connector-curvature="0"
         id="path1750"
         d="m 145.59,72.032 c 0.009,4.029 -6.153,7.312 -13.756,7.329 L 15.948,79.616 C 8.34,79.633 2.169,76.377 2.161,72.348 L 2.027,10.934 C 2.018,6.9 8.175,3.62 15.783,3.6 L 131.668,3.345 c 7.6,-0.017 13.78,3.237 13.789,7.27 z" />
      <path
         style="fill:#f9f9ff"
         inkscape:connector-curvature="0"
         id="path1752"
         d="m 145.136,71.772 c 0.008,4.016 -6.133,7.288 -13.712,7.3 l -115.5,0.255 C 8.342,79.348 2.191,76.1 2.182,72.087 L 2.049,10.878 C 2.04,6.859 8.177,3.588 15.759,3.571 l 115.5,-0.254 C 138.838,3.3 144.994,6.544 145,10.563 Z" />
      <path
         style="fill:#f8f8ff"
         inkscape:connector-curvature="0"
         id="path1754"
         d="m 144.681,71.513 c 0.009,4 -6.113,7.264 -13.666,7.281 L 15.9,79.047 C 8.343,79.064 2.213,75.83 2.2,71.827 l -0.133,-61 C 2.063,6.816 8.178,3.556 15.736,3.54 L 130.851,3.286 c 7.553,-0.017 13.688,3.216 13.7,7.222 z" />
      <path
         style="fill:#f7f7fe"
         inkscape:connector-curvature="0"
         id="path1756"
         d="m 144.226,71.254 c 0.009,3.989 -6.092,7.24 -13.62,7.256 L 15.876,78.763 C 8.344,78.779 2.235,75.556 2.226,71.563 L 2.093,10.763 C 2.085,6.773 8.18,3.524 15.712,3.508 l 114.73,-0.253 c 7.528,-0.016 13.643,3.205 13.652,7.2 z" />
      <path
         style="fill:#f7f7fe"
         inkscape:connector-curvature="0"
         id="path1758"
         d="m 143.771,71 c 0.009,3.976 -6.071,7.215 -13.574,7.232 L 15.852,78.484 C 8.345,78.5 2.252,75.284 2.252,71.312 L 2.12,10.712 C 2.107,6.73 8.182,3.493 15.689,3.476 L 130.034,3.224 c 7.5,-0.016 13.6,3.195 13.605,7.174 z" />
      <path
         style="fill:#f6f6fe"
         inkscape:connector-curvature="0"
         id="path1760"
         d="m 143.317,70.736 c 0.008,3.962 -6.051,7.191 -13.529,7.207 L 15.828,78.194 C 8.347,78.211 2.278,75.009 2.269,71.047 L 2.138,10.653 C 2.129,6.688 8.184,3.461 15.665,3.444 l 113.96,-0.251 c 7.478,-0.016 13.552,3.184 13.56,7.149 z" />
      <path
         style="fill:#f5f5fe"
         inkscape:connector-curvature="0"
         id="path1762"
         d="m 142.862,70.477 c 0.009,3.949 -6.031,7.166 -13.483,7.183 L 15.8,77.91 C 8.344,77.926 2.3,74.736 2.287,70.786 L 2.16,10.6 C 2.152,6.645 8.186,3.429 15.642,3.413 L 129.217,3.162 c 7.452,-0.016 13.5,3.173 13.514,7.125 z" />
      <path
         style="fill:#f4f4fe"
         inkscape:connector-curvature="0"
         id="path1764"
         d="m 142.407,70.217 c 0.009,3.936 -6.01,7.143 -13.437,7.159 L 15.78,77.626 C 8.349,77.642 2.322,74.462 2.313,70.526 L 2.182,10.541 C 2.174,6.6 8.188,3.4 15.618,3.381 l 113.19,-0.25 c 7.427,-0.016 13.46,3.163 13.469,7.1 z" />
      <path
         style="fill:#f3f3fe"
         inkscape:connector-curvature="0"
         id="path1766"
         d="m 141.952,69.958 c 0.009,3.923 -5.989,7.119 -13.391,7.135 l -112.8,0.248 C 8.361,77.358 2.348,74.188 2.34,70.266 L 2.21,10.485 C 2.2,6.56 8.19,3.365 15.6,3.349 L 128.4,3.1 c 7.4,-0.016 13.414,3.152 13.422,7.077 z" />
      <path
         style="fill:#f2f2fe"
         inkscape:connector-curvature="0"
         id="path1768"
         d="m 141.5,69.7 c 0.008,3.909 -5.969,7.094 -13.346,7.11 L 15.734,77.058 C 8.354,77.074 2.367,73.916 2.359,70.007 L 2.229,10.43 C 2.22,6.518 8.194,3.33 15.573,3.318 l 112.42,-0.247 c 7.377,-0.017 13.368,3.14 13.377,7.052 z" />
      <path
         style="fill:#f2f2fe"
         inkscape:connector-curvature="0"
         id="path1770"
         d="m 141.043,69.44 c 0.008,3.9 -5.949,7.07 -13.3,7.086 L 15.707,76.773 C 8.353,76.789 2.387,73.641 2.378,69.746 L 2.249,10.373 C 2.241,6.473 8.193,3.302 15.549,3.285 L 127.585,3.039 c 7.351,-0.017 13.322,3.13 13.331,7.028 z" />
      <path
         style="fill:#f1f1fe"
         inkscape:connector-curvature="0"
         id="path1772"
         d="m 140.588,69.181 c 0.009,3.882 -5.928,7.045 -13.255,7.062 L 15.683,76.488 C 8.355,76.505 2.409,73.368 2.4,69.488 L 2.271,10.317 C 2.263,6.431 8.2,3.27 15.524,3.254 l 111.65,-0.246 c 7.327,-0.016 13.277,3.119 13.285,7 z" />
      <path
         style="fill:#f0f0fe"
         inkscape:connector-curvature="0"
         id="path1774"
         d="m 140.134,68.922 c 0.008,3.869 -5.908,7.021 -13.21,7.037 L 15.659,76.2 C 8.359,76.216 2.43,73.09 2.422,69.221 L 2.293,10.26 C 2.285,6.389 8.2,3.238 15.5,3.222 L 126.765,2.977 c 7.3,-0.016 13.232,3.108 13.24,6.98 z" />
      <path
         style="fill:#efeffe"
         inkscape:connector-curvature="0"
         id="path1776"
         d="m 139.679,68.663 c 0.008,3.856 -5.887,7 -13.164,7.013 L 15.635,75.92 C 8.357,75.936 2.452,72.82 2.444,68.965 L 2.316,10.2 C 2.307,6.342 8.199,3.2 15.477,3.186 l 110.88,-0.244 c 7.276,-0.016 13.185,3.1 13.194,6.956 z" />
      <path
         style="fill:#eeeefe"
         inkscape:connector-curvature="0"
         id="path1778"
         d="m 139.224,68.4 c 0.008,3.843 -5.867,6.973 -13.118,6.989 L 15.611,75.633 C 8.359,75.649 2.474,72.544 2.465,68.702 L 2.338,10.148 C 2.33,6.3 8.2,3.174 15.453,3.158 L 125.948,2.915 C 133.2,2.9 139.088,6 139.1,9.847 Z" />
      <path
         style="fill:#ededfe"
         inkscape:connector-curvature="0"
         id="path1780"
         d="m 138.769,68.144 c 0.009,3.83 -5.846,6.949 -13.072,6.965 L 15.587,75.351 C 8.36,75.367 2.496,72.274 2.487,68.444 L 2.36,10.092 C 2.352,6.261 8.2,3.142 15.43,3.127 L 125.54,2.884 c 7.226,-0.016 13.094,3.076 13.1,6.908 z" />
      <path
         style="fill:#ececfe"
         inkscape:connector-curvature="0"
         id="path1782"
         d="m 138.315,67.885 c 0.008,3.816 -5.826,6.924 -13.027,6.94 L 15.563,75.067 C 8.361,75.083 2.517,72 2.509,68.184 L 2.382,10.036 C 2.374,6.218 8.205,3.111 15.406,3.1 L 125.131,2.858 c 7.2,-0.016 13.049,3.066 13.057,6.884 z" />
      <path
         style="fill:#ececfe"
         inkscape:connector-curvature="0"
         id="path1784"
         d="m 137.86,67.626 c 0.008,3.8 -5.805,6.9 -12.981,6.916 L 15.539,74.783 C 8.363,74.798 2.539,71.727 2.531,67.924 L 2.4,9.98 C 2.391,6.175 8.2,3.08 15.378,3.063 l 109.34,-0.241 c 7.175,-0.016 13,3.055 13.011,6.86 z" />
      <path
         style="fill:#ebebfe"
         inkscape:connector-curvature="0"
         id="path1786"
         d="m 137.405,67.367 c 0.008,3.789 -5.785,6.876 -12.935,6.891 L 15.515,74.5 C 8.364,74.516 2.561,71.455 2.553,67.666 L 2.427,9.924 C 2.419,6.132 8.208,3.047 15.359,3.031 l 108.955,-0.24 c 7.151,-0.016 12.957,3.044 12.965,6.836 z" />
      <path
         style="fill:#eaeafe"
         inkscape:connector-curvature="0"
         id="path1788"
         d="m 136.95,67.108 c 0.009,3.776 -5.764,6.851 -12.889,6.867 L 15.491,74.214 C 8.365,74.23 2.583,71.18 2.574,67.4 L 2.449,9.868 C 2.441,6.09 8.21,3.015 15.336,3 l 108.57,-0.239 c 7.125,-0.015 12.911,3.034 12.919,6.812 z" />
      <path
         style="fill:#e9e9fd"
         inkscape:connector-curvature="0"
         id="path1790"
         d="m 136.5,66.848 c 0.008,3.763 -5.744,6.828 -12.844,6.843 L 15.467,73.93 C 8.367,73.945 2.6,70.906 2.6,67.143 L 2.471,9.811 C 2.463,6.047 8.212,2.983 15.312,2.968 L 123.5,2.729 c 7.1,-0.015 12.866,3.023 12.874,6.787 z" />
      <path
         style="fill:#e8e8fd"
         inkscape:connector-curvature="0"
         id="path1792"
         d="m 136.041,66.589 c 0.008,3.75 -5.723,6.8 -12.8,6.819 l -107.8,0.237 C 8.367,73.661 2.625,70.633 2.617,66.883 L 2.494,9.755 c -0.009,-3.751 5.72,-6.8 12.8,-6.819 l 107.8,-0.238 c 7.075,-0.015 12.819,3.012 12.827,6.763 z" />
      <path
         style="fill:#e7e7fd"
         inkscape:connector-curvature="0"
         id="path1794"
         d="m 135.586,66.33 c 0.008,3.736 -5.7,6.779 -12.753,6.794 L 15.418,73.361 C 8.369,73.377 2.648,70.361 2.64,66.623 L 2.516,9.7 C 2.508,5.961 8.216,2.92 15.265,2.9 L 122.68,2.667 c 7.05,-0.015 12.774,3 12.782,6.739 z" />
      <path
         style="fill:#e7e7fd"
         inkscape:connector-curvature="0"
         id="path1796"
         d="m 135.131,66.071 c 0.009,3.723 -5.682,6.755 -12.707,6.77 L 15.394,73.077 C 8.37,73.092 2.67,70.086 2.661,66.363 L 2.538,9.643 C 2.53,5.919 8.218,2.888 15.238,2.872 L 122.268,2.637 C 129.3,2.621 135,5.627 135.008,9.351 Z" />
      <path
         style="fill:#e6e6fd"
         inkscape:connector-curvature="0"
         id="path1798"
         d="m 134.677,65.812 c 0.008,3.709 -5.662,6.73 -12.662,6.746 L 15.37,72.793 C 8.37,72.808 2.691,69.812 2.683,66.103 L 2.56,9.587 C 2.552,5.876 8.219,2.856 15.218,2.841 L 121.863,2.606 c 7,-0.016 12.683,2.979 12.691,6.69 z" />
      <path
         style="fill:#e5e5fd"
         inkscape:connector-curvature="0"
         id="path1800"
         d="m 134.222,65.553 c 0.008,3.7 -5.642,6.706 -12.616,6.721 L 15.346,72.508 C 8.373,72.524 2.713,69.539 2.705,65.842 L 2.582,9.531 C 2.574,5.831 8.221,2.824 15.194,2.809 l 106.26,-0.234 c 6.975,-0.016 12.637,2.969 12.645,6.666 z" />
      <path
         style="fill:#e4e4fd"
         inkscape:connector-curvature="0"
         id="path1802"
         d="m 133.767,65.294 c 0.008,3.682 -5.621,6.681 -12.57,6.7 L 15.322,72.227 C 8.374,72.242 2.735,69.268 2.727,65.585 L 2.605,9.475 C 2.6,5.791 8.223,2.792 15.171,2.777 L 121.046,2.544 c 6.949,-0.016 12.591,2.958 12.6,6.642 z" />
      <path
         style="fill:#e3e3fd"
         inkscape:connector-curvature="0"
         id="path1804"
         d="m 133.312,65.034 c 0.008,3.67 -5.6,6.658 -12.524,6.673 L 15.3,71.94 C 8.378,71.955 2.759,68.992 2.751,65.322 L 2.629,9.422 C 2.621,5.751 8.229,2.763 15.149,2.748 l 105.49,-0.232 c 6.924,-0.015 12.546,2.947 12.554,6.618 z" />
      <path
         style="fill:#e2e2fd"
         inkscape:connector-curvature="0"
         id="path1806"
         d="m 132.858,64.775 c 0.008,3.656 -5.58,6.634 -12.479,6.649 l -105.1,0.231 c -6.9,0.016 -12.5,-2.937 -12.5,-6.593 L 2.658,9.362 C 2.65,5.704 8.236,2.728 15.133,2.712 L 120.238,2.481 c 6.9,-0.015 12.5,2.936 12.507,6.594 z" />
      <path
         style="fill:#e1e1fd"
         inkscape:connector-curvature="0"
         id="path1808"
         d="m 132.4,64.516 c 0.008,3.643 -5.56,6.609 -12.433,6.624 L 15.247,71.371 C 8.378,71.386 2.8,68.445 2.792,64.8 L 2.671,9.3 C 2.663,5.662 8.229,2.7 15.1,2.682 L 119.82,2.451 c 6.874,-0.015 12.454,2.926 12.462,6.57 z" />
      <path
         style="fill:#e1e1fd"
         inkscape:connector-curvature="0"
         id="path1810"
         d="m 131.948,64.257 c 0.008,3.63 -5.539,6.585 -12.387,6.6 L 15.226,71.087 C 8.38,71.102 2.826,68.171 2.814,64.541 L 2.694,9.25 C 2.686,5.62 8.231,2.665 15.077,2.65 L 119.412,2.42 c 6.848,-0.015 12.408,2.915 12.416,6.546 z" />
      <path
         style="fill:#e0e0fd"
         inkscape:connector-curvature="0"
         id="path1812"
         d="m 131.493,64 c 0.008,3.616 -5.518,6.56 -12.341,6.575 L 15.2,70.8 C 8.379,70.815 2.842,67.9 2.834,64.279 L 2.716,9.194 C 2.708,5.577 8.233,2.633 15.053,2.618 L 119,2.389 c 6.824,-0.015 12.363,2.9 12.371,6.522 z" />
      <path
         style="fill:#dfdffd"
         inkscape:connector-curvature="0"
         id="path1814"
         d="m 131.039,63.739 c 0.008,3.6 -5.5,6.536 -12.3,6.551 L 15.174,70.518 C 8.379,70.533 2.862,67.624 2.855,64.018 L 2.738,9.138 C 2.73,5.534 8.234,2.6 15.03,2.586 L 118.6,2.358 c 6.8,-0.015 12.316,2.894 12.324,6.5 z" />
      <path
         style="fill:#dedefd"
         inkscape:connector-curvature="0"
         id="path1816"
         d="m 130.584,63.48 c 0.008,3.589 -5.478,6.512 -12.251,6.526 L 15.153,70.234 C 8.384,70.249 2.887,67.35 2.879,63.761 L 2.76,9.082 C 2.752,5.491 8.236,2.569 15.006,2.555 l 103.18,-0.228 c 6.773,-0.015 12.271,2.883 12.279,6.474 z" />
      <path
         style="fill:#ddddfd"
         inkscape:connector-curvature="0"
         id="path1818"
         d="m 130.129,63.22 c 0.008,3.577 -5.457,6.488 -12.2,6.5 l -102.8,0.23 C 8.385,69.964 2.909,67.077 2.9,63.5 L 2.782,9.026 c -0.007,-3.577 5.456,-6.488 12.2,-6.5 l 102.8,-0.227 c 6.748,-0.015 12.226,2.872 12.234,6.45 z" />
      <path
         style="fill:#dcdcfd"
         inkscape:connector-curvature="0"
         id="path1820"
         d="m 129.675,62.961 c 0.007,3.563 -5.437,6.464 -12.16,6.479 L 15.105,69.665 C 8.386,69.68 2.931,66.8 2.923,63.24 L 2.805,8.97 C 2.8,5.406 8.24,2.506 14.959,2.491 l 102.41,-0.226 c 6.723,-0.014 12.18,2.862 12.187,6.425 z" />
      <path
         style="fill:#dcdcfd"
         inkscape:connector-curvature="0"
         id="path1822"
         d="m 129.22,62.7 c 0.008,3.55 -5.416,6.439 -12.114,6.454 L 15.081,69.379 C 8.388,69.4 2.952,66.53 2.945,62.98 L 2.827,8.914 C 2.819,5.363 8.242,2.474 14.935,2.459 L 116.96,2.234 c 6.7,-0.014 12.134,2.851 12.142,6.4 z" />
      <path
         style="fill:#dbdbfc"
         inkscape:connector-curvature="0"
         id="path1824"
         d="m 128.765,62.443 c 0.008,3.536 -5.4,6.415 -12.068,6.43 L 15.057,69.1 C 8.389,69.114 2.974,66.259 2.966,62.723 L 2.849,8.857 C 2.841,5.321 8.249,2.442 14.912,2.427 L 116.552,2.2 c 6.672,-0.014 12.088,2.84 12.1,6.377 z" />
      <path
         style="fill:#dadafc"
         inkscape:connector-curvature="0"
         id="path1826"
         d="m 128.31,62.184 c 0.008,3.523 -5.375,6.391 -12.022,6.405 L 15.033,68.812 C 8.39,68.827 3,65.983 2.988,62.46 L 2.871,8.8 C 2.864,5.278 8.246,2.41 14.888,2.4 L 116.143,2.177 c 6.648,-0.015 12.043,2.829 12.051,6.352 z" />
      <path
         style="fill:#d9d9fc"
         inkscape:connector-curvature="0"
         id="path1828"
         d="m 127.856,61.925 c 0.007,3.509 -5.355,6.366 -11.977,6.381 L 15.009,68.528 C 8.392,68.543 3.018,65.709 3.009,62.2 L 2.894,8.745 C 2.886,5.235 8.247,2.378 14.865,2.364 l 100.87,-0.222 c 6.622,-0.015 12,2.818 12,6.328 z" />
      <path
         style="fill:#d8d8fc"
         inkscape:connector-curvature="0"
         id="path1830"
         d="m 127.4,61.665 c 0.007,3.5 -5.334,6.343 -11.931,6.357 L 14.984,68.244 C 8.392,68.258 3.038,65.436 3.031,61.944 L 2.916,8.689 C 2.908,5.189 8.249,2.347 14.841,2.332 L 115.326,2.111 c 6.6,-0.015 11.951,2.807 11.959,6.3 z" />
      <path
         style="fill:#d7d7fc"
         inkscape:connector-curvature="0"
         id="path1832"
         d="m 126.946,61.406 c 0.008,3.483 -5.314,6.318 -11.885,6.333 l -100.1,0.22 c -6.567,0.015 -11.9,-2.8 -11.907,-6.28 L 2.938,8.633 C 2.93,5.15 8.251,2.315 14.818,2.3 l 100.1,-0.22 c 6.571,-0.015 11.9,2.8 11.913,6.28 z" />
      <path
         style="fill:#d7d7fc"
         inkscape:connector-curvature="0"
         id="path1834"
         d="m 126.491,61.147 c 0.008,3.47 -5.293,6.294 -11.839,6.308 l -99.715,0.22 C 8.4,67.689 3.083,64.889 3.075,61.419 L 2.96,8.577 C 2.953,5.107 8.253,2.283 14.794,2.269 l 99.715,-0.22 c 6.547,-0.015 11.86,2.786 11.867,6.256 z" />
      <path
         style="fill:#d6d6fc"
         inkscape:connector-curvature="0"
         id="path1836"
         d="m 126.037,60.888 c 0.007,3.456 -5.273,6.27 -11.8,6.284 l -99.33,0.219 C 8.4,67.405 3.105,64.615 3.1,61.159 L 2.982,8.521 C 2.975,5.064 8.255,2.251 14.771,2.237 l 99.33,-0.219 C 120.622,2 125.915,4.793 125.922,8.25 Z" />
      <path
         style="fill:#d5d5fc"
         inkscape:connector-curvature="0"
         id="path1838"
         d="m 125.582,60.629 c 0.007,3.443 -5.252,6.245 -11.749,6.259 L 14.888,67.106 C 8.4,67.121 3.126,64.342 3.119,60.9 L 3.005,8.465 C 3,5.021 8.257,2.219 14.747,2.205 l 98.945,-0.218 c 6.5,-0.014 11.768,2.765 11.776,6.208 z" />
      <path
         style="fill:#d4d4fc"
         inkscape:connector-curvature="0"
         id="path1840"
         d="m 125.127,60.37 c 0.008,3.429 -5.232,6.221 -11.7,6.235 l -98.56,0.217 C 8.4,66.836 3.148,64.068 3.141,60.638 L 3.027,8.409 C 3.019,4.979 8.259,2.187 14.727,2.173 l 98.559,-0.217 c 6.472,-0.014 11.723,2.754 11.73,6.184 z" />
    </g>
    <rect
       style="isolation:isolate;fill:url(#Unbenannter_Verlauf_21)"
       id="rect1844"
       transform="rotate(-0.094)"
       rx="5.4699998"
       height="73.644997"
       width="141.584"
       y="1.9898965"
       x="1.8338048" />
    <g
       id="g1950"
       style="isolation:isolate;mix-blend-mode:multiply">
      <path
         style="fill:#ffffff"
         inkscape:connector-curvature="0"
         id="path1846"
         d="m 147.511,71.516 c 0.009,4.021 -6.2,7.3 -13.868,7.315 L 16.823,79.089 C 9.153,79.106 2.933,75.857 2.923,71.836 L 2.791,10.543 c -0.008,-4.025 6.2,-7.3 13.868,-7.317 l 116.82,-0.259 c 7.664,-0.017 13.891,3.231 13.9,7.255 z" />
      <path
         style="fill:#fefeff"
         inkscape:connector-curvature="0"
         id="path1848"
         d="m 147.052,71.283 c 0.009,4.007 -6.183,7.274 -13.822,7.291 L 16.791,78.831 C 9.145,78.848 2.945,75.61 2.937,71.6 L 2.8,10.508 C 2.8,6.5 8.982,3.232 16.627,3.215 L 133.066,2.957 c 7.639,-0.016 13.845,3.221 13.854,7.232 z" />
      <path
         style="fill:#fdfdff"
         inkscape:connector-curvature="0"
         id="path1850"
         d="m 146.594,71.049 c 0.008,3.995 -6.163,7.251 -13.778,7.268 L 16.758,78.574 C 9.137,78.59 2.958,75.362 2.949,71.367 L 2.817,10.474 C 2.808,6.474 8.974,3.222 16.594,3.205 L 132.653,2.948 c 7.614,-0.017 13.8,3.209 13.809,7.207 z" />
      <path
         style="fill:#fcfcff"
         inkscape:connector-curvature="0"
         id="path1852"
         d="m 146.135,70.816 c 0.009,3.982 -6.143,7.227 -13.732,7.244 L 16.725,78.316 C 9.125,78.333 2.97,75.116 2.961,71.133 L 2.83,10.439 C 2.821,6.454 8.967,3.211 16.562,3.194 L 132.24,2.938 C 139.83,2.921 146,6.137 146,10.122 Z" />
      <path
         style="fill:#fcfcff"
         inkscape:connector-curvature="0"
         id="path1854"
         d="m 145.677,70.583 c 0.008,3.969 -6.123,7.2 -13.688,7.22 l -115.3,0.255 C 9.119,78.075 2.979,74.868 2.971,70.899 L 2.843,10.4 C 2.834,6.432 8.96,3.2 16.53,3.183 l 115.3,-0.255 c 7.565,-0.017 13.71,3.188 13.719,7.16 z" />
      <path
         style="fill:#fbfbff"
         inkscape:connector-curvature="0"
         id="path1856"
         d="m 145.218,70.35 c 0.009,3.955 -6.1,7.179 -13.642,7.2 L 16.659,77.8 C 9.114,77.817 3,74.62 2.986,70.665 l -0.13,-60.3 C 2.847,6.406 8.956,3.184 16.497,3.165 L 131.414,2.911 c 7.54,-0.017 13.665,3.178 13.674,7.137 z" />
      <path
         style="fill:#fafaff"
         inkscape:connector-curvature="0"
         id="path1858"
         d="m 144.76,70.116 c 0.008,3.943 -6.083,7.156 -13.6,7.172 L 16.623,77.542 C 9.106,77.559 3.007,74.373 3,70.43 L 2.869,10.33 C 2.861,6.384 8.946,3.173 16.469,3.157 L 131,2.908 c 7.515,-0.017 13.62,3.167 13.628,7.113 z" />
      <path
         style="fill:#f9f9ff"
         inkscape:connector-curvature="0"
         id="path1860"
         d="m 144.3,69.883 c 0.008,3.93 -6.062,7.132 -13.552,7.148 L 16.592,77.284 C 9.1,77.3 3.02,74.126 3.011,70.2 L 2.881,10.3 C 2.873,6.367 8.938,3.166 16.432,3.15 L 130.589,2.9 c 7.49,-0.017 13.574,3.157 13.582,7.09 z" />
      <path
         style="fill:#f8f8ff"
         inkscape:connector-curvature="0"
         id="path1862"
         d="m 143.842,69.65 c 0.009,3.917 -6.041,7.108 -13.506,7.124 L 16.56,77.026 C 9.091,77.043 3.032,73.878 3.023,69.962 L 2.894,10.262 C 2.886,6.347 8.931,3.157 16.4,3.14 L 130.176,2.888 c 7.465,-0.016 13.529,3.147 13.537,7.066 z" />
      <path
         style="fill:#f7f7fe"
         inkscape:connector-curvature="0"
         id="path1864"
         d="m 143.384,69.417 c 0.008,3.9 -6.022,7.084 -13.462,7.1 L 16.527,76.769 C 9.083,76.785 3.044,73.631 3.036,69.728 L 2.907,10.228 C 2.9,6.325 8.923,3.146 16.368,3.129 l 113.4,-0.251 c 7.44,-0.016 13.484,3.136 13.492,7.043 z" />
      <path
         style="fill:#f7f7fe"
         inkscape:connector-curvature="0"
         id="path1866"
         d="m 142.925,69.183 c 0.009,3.891 -6,7.061 -13.416,7.077 L 16.494,76.511 C 9.075,76.527 3.057,73.384 3.048,69.493 L 2.92,10.2 C 2.911,6.307 8.92,3.138 16.335,3.122 L 129.35,2.868 c 7.415,-0.016 13.438,3.126 13.447,7.019 z" />
      <path
         style="fill:#f6f6fe"
         inkscape:connector-curvature="0"
         id="path1868"
         d="m 142.467,68.95 c 0.008,3.878 -5.981,7.037 -13.372,7.053 L 16.461,76.253 C 9.067,76.269 3.069,73.136 3.061,69.259 L 2.933,10.159 C 2.924,6.282 8.909,3.124 16.3,3.108 l 112.634,-0.25 c 7.39,-0.016 13.393,3.115 13.4,7 z" />
      <path
         style="fill:#f5f5fe"
         inkscape:connector-curvature="0"
         id="path1870"
         d="m 142.008,68.717 c 0.008,3.864 -5.961,7.013 -13.326,7.029 L 16.428,76 C 9.059,76.016 3.081,72.894 3.073,69.03 L 2.946,10.13 C 2.937,6.261 8.9,3.113 16.27,3.1 L 128.524,2.851 c 7.366,-0.016 13.348,3.105 13.357,6.972 z" />
      <path
         style="fill:#f4f4fe"
         inkscape:connector-curvature="0"
         id="path1872"
         d="m 141.55,68.484 c 0.008,3.851 -5.941,6.989 -13.282,7.005 L 16.4,75.737 C 9.056,75.753 3.1,72.642 3.09,68.79 L 2.963,10.09 C 2.95,6.239 8.894,3.1 16.238,3.086 L 128.111,2.839 c 7.341,-0.017 13.3,3.094 13.311,6.948 z" />
      <path
         style="fill:#f3f3fe"
         inkscape:connector-curvature="0"
         id="path1874"
         d="m 141.091,68.251 c 0.008,3.838 -5.92,6.965 -13.236,6.981 L 16.362,75.479 C 9.044,75.5 3.106,72.4 3.1,68.556 L 2.973,10.056 C 2.963,6.218 8.887,3.092 16.206,3.076 L 127.7,2.829 c 7.316,-0.017 13.258,3.083 13.266,6.924 z" />
      <path
         style="fill:#f2f2fe"
         inkscape:connector-curvature="0"
         id="path1876"
         d="m 140.632,68.017 c 0.009,3.826 -5.9,6.942 -13.191,6.958 L 16.329,75.221 C 9.036,75.238 3.119,72.147 3.11,68.321 L 2.984,10.021 C 2.976,6.2 8.88,3.081 16.173,3.065 L 127.285,2.819 c 7.291,-0.016 13.213,3.073 13.221,6.9 z" />
      <path
         style="fill:#f2f2fe"
         inkscape:connector-curvature="0"
         id="path1878"
         d="m 140.174,67.784 c 0.008,3.812 -5.88,6.918 -13.146,6.934 L 16.3,74.964 C 9.028,74.98 3.131,71.9 3.123,68.088 L 3,9.99 C 2.989,6.175 8.872,3.07 16.141,3.054 L 126.872,2.809 c 7.266,-0.016 13.168,3.062 13.176,6.877 z" />
      <path
         style="fill:#f1f1fe"
         inkscape:connector-curvature="0"
         id="path1880"
         d="m 139.715,67.551 c 0.008,3.8 -5.859,6.894 -13.1,6.91 L 16.265,74.706 C 9.021,74.722 3.144,71.653 3.136,67.853 L 3.01,9.955 c -0.009,-3.8 5.855,-6.9 13.1,-6.912 L 126.459,2.8 c 7.242,-0.016 13.123,3.052 13.131,6.854 z" />
      <path
         style="fill:#f0f0fe"
         inkscape:connector-curvature="0"
         id="path1882"
         d="m 139.257,67.318 c 0.008,3.786 -5.84,6.87 -13.056,6.886 L 16.231,74.448 C 9.012,74.464 3.156,71.405 3.147,67.619 L 3.023,9.92 C 3.014,6.132 8.858,3.049 16.076,3.033 l 109.97,-0.244 c 7.217,-0.016 13.078,3.041 13.086,6.83 z" />
      <path
         style="fill:#efeffe"
         inkscape:connector-curvature="0"
         id="path1884"
         d="m 138.8,67.084 c 0.008,3.774 -5.819,6.847 -13.01,6.863 L 16.2,74.19 C 9,74.206 3.168,71.158 3.16,67.385 L 3.035,9.885 C 3.027,6.11 8.85,3.038 16.044,3.022 L 125.633,2.779 c 7.192,-0.016 13.032,3.031 13.041,6.806 z" />
      <path
         style="fill:#eeeefe"
         inkscape:connector-curvature="0"
         id="path1886"
         d="m 138.34,66.851 c 0.008,3.76 -5.8,6.823 -12.966,6.839 L 16.165,73.932 C 9,73.948 3.18,70.911 3.172,67.151 L 3.048,9.851 C 3.04,6.089 8.848,3.027 16.011,3.011 l 109.21,-0.242 c 7.166,-0.016 12.986,3.021 12.994,6.783 z" />
      <path
         style="fill:#ededfe"
         inkscape:connector-curvature="0"
         id="path1888"
         d="m 137.881,66.618 c 0.008,3.747 -5.778,6.8 -12.92,6.815 L 16.132,73.674 C 8.989,73.69 3.193,70.663 3.185,66.916 L 3.061,9.816 C 3.053,6.067 8.836,3.016 15.979,3 L 124.808,2.759 c 7.141,-0.016 12.941,3.01 12.949,6.759 z" />
      <path
         style="fill:#ececfe"
         inkscape:connector-curvature="0"
         id="path1890"
         d="m 137.422,66.385 c 0.008,3.734 -5.758,6.776 -12.875,6.791 L 16.1,73.416 C 8.982,73.432 3.206,70.416 3.2,66.682 L 3.077,9.782 C 3.066,6.046 8.829,3.005 15.946,2.99 L 124.4,2.749 c 7.117,-0.015 12.9,3 12.9,6.736 z" />
      <path
         style="fill:#ececfe"
         inkscape:connector-curvature="0"
         id="path1892"
         d="m 136.964,66.151 c 0.008,3.722 -5.738,6.753 -12.83,6.768 L 16.066,73.159 C 8.973,73.174 3.218,70.169 3.209,66.448 L 3.087,9.748 C 3.079,6.025 8.821,3 15.914,2.979 l 108.068,-0.24 c 7.092,-0.015 12.851,2.989 12.859,6.712 z" />
      <path
         style="fill:#ebebfe"
         inkscape:connector-curvature="0"
         id="path1894"
         d="m 136.505,65.918 c 0.008,3.708 -5.717,6.729 -12.785,6.744 L 16.033,72.9 C 8.965,72.915 3.233,69.92 3.222,66.212 L 3.1,9.713 C 3.092,6 8.814,2.984 15.882,2.968 L 123.569,2.73 c 7.067,-0.016 12.806,2.978 12.814,6.688 z" />
      <path
         style="fill:#eaeafe"
         inkscape:connector-curvature="0"
         id="path1896"
         d="m 136.047,65.685 c 0.008,3.695 -5.7,6.7 -12.74,6.72 L 16,72.643 C 8.958,72.658 3.242,69.674 3.234,65.979 L 3.112,9.679 C 3.104,5.979 8.812,2.974 15.849,2.958 L 123.156,2.72 c 7.042,-0.016 12.761,2.967 12.769,6.664 z" />
      <path
         style="fill:#e9e9fd"
         inkscape:connector-curvature="0"
         id="path1898"
         d="m 135.588,65.452 c 0.008,3.682 -5.677,6.681 -12.695,6.7 L 15.967,72.389 C 8.95,72.405 3.255,69.431 3.247,65.749 L 3.125,9.649 C 3.117,5.96 8.8,2.962 15.817,2.947 L 122.743,2.71 c 7.018,-0.016 12.716,2.957 12.724,6.641 z" />
      <path
         style="fill:#e8e8fd"
         inkscape:connector-curvature="0"
         id="path1900"
         d="m 135.13,65.219 c 0.008,3.669 -5.657,6.657 -12.65,6.672 L 15.934,72.127 C 8.942,72.143 3.267,69.18 3.259,65.511 L 3.138,9.611 C 3.13,5.939 8.792,2.951 15.784,2.936 L 122.33,2.7 c 6.993,-0.016 12.671,2.947 12.679,6.617 z" />
      <path
         style="fill:#e7e7fd"
         inkscape:connector-curvature="0"
         id="path1902"
         d="m 134.671,64.985 c 0.008,3.656 -5.637,6.634 -12.6,6.649 L 15.9,71.869 C 8.933,71.885 3.278,68.932 3.27,65.276 L 3.15,9.576 C 3.142,5.918 8.784,2.941 15.75,2.926 L 121.917,2.69 c 6.968,-0.016 12.625,2.936 12.633,6.594 z" />
      <path
         style="fill:#e7e7fd"
         inkscape:connector-curvature="0"
         id="path1904"
         d="m 134.212,64.752 c 0.008,3.643 -5.616,6.61 -12.559,6.625 L 15.868,71.611 C 8.926,71.627 3.292,68.685 3.284,65.042 L 3.164,9.542 C 3.156,5.9 8.778,2.93 15.72,2.914 L 121.5,2.68 c 6.943,-0.015 12.58,2.926 12.588,6.57 z" />
      <path
         style="fill:#e6e6fd"
         inkscape:connector-curvature="0"
         id="path1906"
         d="m 133.754,64.519 c 0.008,3.63 -5.6,6.586 -12.514,6.6 L 15.84,71.353 C 8.918,71.369 3.3,68.438 3.3,64.808 L 3.181,9.508 C 3.169,5.874 8.77,2.919 15.687,2.9 l 105.4,-0.234 c 6.918,-0.015 12.535,2.915 12.543,6.547 z" />
      <path
         style="fill:#e5e5fd"
         inkscape:connector-curvature="0"
         id="path1908"
         d="m 133.295,64.286 c 0.008,3.616 -5.576,6.562 -12.469,6.577 L 15.8,71.1 C 8.909,71.115 3.315,68.194 3.307,64.578 L 3.187,9.478 C 3.182,5.853 8.763,2.908 15.655,2.893 L 120.678,2.66 c 6.894,-0.015 12.49,2.905 12.5,6.523 z" />
      <path
         style="fill:#e4e4fd"
         inkscape:connector-curvature="0"
         id="path1910"
         d="m 132.837,64.052 c 0.008,3.6 -5.556,6.539 -12.424,6.554 L 15.77,70.838 C 8.903,70.853 3.329,67.943 3.321,64.338 L 3.2,9.436 C 3.192,5.836 8.754,2.897 15.62,2.882 L 120.265,2.65 c 6.869,-0.015 12.445,2.894 12.453,6.5 z" />
      <path
         style="fill:#e3e3fd"
         inkscape:connector-curvature="0"
         id="path1912"
         d="m 132.378,63.819 c 0.008,3.591 -5.535,6.515 -12.379,6.53 L 15.737,70.58 C 8.9,70.6 3.341,67.7 3.334,64.105 L 3.215,9.4 C 3.207,5.81 8.748,2.886 15.59,2.871 L 119.853,2.64 c 6.843,-0.015 12.4,2.884 12.407,6.476 z" />
      <path
         style="fill:#e2e2fd"
         inkscape:connector-curvature="0"
         id="path1914"
         d="m 131.92,63.586 c 0.007,3.578 -5.516,6.491 -12.334,6.506 L 15.7,70.322 C 8.883,70.337 3.35,67.448 3.342,63.871 L 3.224,9.371 C 3.22,5.788 8.741,2.876 15.558,2.861 L 119.44,2.63 c 6.818,-0.015 12.354,2.874 12.362,6.453 z" />
      <path
         style="fill:#e1e1fd"
         inkscape:connector-curvature="0"
         id="path1916"
         d="m 131.461,63.353 c 0.008,3.564 -5.5,6.467 -12.289,6.482 l -103.5,0.229 C 8.88,70.079 3.372,67.201 3.359,63.636 L 3.242,9.336 C 3.233,5.767 8.734,2.865 15.525,2.85 l 103.5,-0.229 c 6.793,-0.015 12.309,2.862 12.316,6.428 z" />
      <path
         style="fill:#e1e1fd"
         inkscape:connector-curvature="0"
         id="path1918"
         d="m 131,63.119 c 0.008,3.552 -5.474,6.444 -12.243,6.459 L 15.636,69.806 C 8.869,69.821 3.376,66.954 3.369,63.406 L 3.254,9.3 C 3.246,5.745 8.726,2.854 15.493,2.839 L 118.614,2.611 c 6.769,-0.015 12.264,2.852 12.271,6.4 z" />
      <path
         style="fill:#e0e0fd"
         inkscape:connector-curvature="0"
         id="path1920"
         d="m 130.544,62.886 c 0.008,3.539 -5.455,6.42 -12.2,6.435 L 15.604,69.549 C 8.863,69.564 3.39,66.706 3.382,63.168 L 3.265,9.268 C 3.259,5.724 8.719,2.843 15.46,2.828 L 118.2,2.6 c 6.744,-0.015 12.218,2.841 12.226,6.381 z" />
      <path
         style="fill:#dfdffd"
         inkscape:connector-curvature="0"
         id="path1922"
         d="m 130.085,62.653 c 0.008,3.526 -5.434,6.4 -12.153,6.411 L 15.572,69.291 C 8.856,69.306 3.4,66.459 3.4,62.934 L 3.283,9.234 C 3.272,5.7 8.712,2.832 15.428,2.818 l 102.36,-0.227 c 6.719,-0.015 12.173,2.831 12.181,6.357 z" />
      <path
         style="fill:#dedefd"
         inkscape:connector-curvature="0"
         id="path1924"
         d="m 129.627,62.42 c 0.007,3.512 -5.414,6.372 -12.109,6.387 L 15.539,69.033 C 8.848,69.048 3.416,66.212 3.408,62.7 L 3.292,9.2 C 3.284,5.681 8.705,2.822 15.4,2.807 L 117.379,2.581 c 6.694,-0.015 12.128,2.82 12.136,6.334 z" />
      <path
         style="fill:#ddddfd"
         inkscape:connector-curvature="0"
         id="path1926"
         d="m 129.168,62.187 c 0.008,3.5 -5.394,6.348 -12.063,6.363 l -101.6,0.225 C 8.839,68.79 3.427,65.965 3.419,62.465 L 3.305,9.16 C 3.3,5.66 8.7,2.811 15.363,2.8 l 101.6,-0.225 c 6.669,-0.015 12.083,2.81 12.091,6.31 z" />
      <path
         style="fill:#dcdcfd"
         inkscape:connector-curvature="0"
         id="path1928"
         d="m 128.71,61.953 c 0.007,3.487 -5.374,6.325 -12.019,6.34 L 15.473,68.517 C 8.832,68.532 3.44,65.717 3.433,62.231 L 3.318,9.125 C 3.31,5.638 8.69,2.8 15.331,2.785 L 116.549,2.561 c 6.645,-0.015 12.038,2.8 12.046,6.287 z" />
      <path
         style="fill:#dcdcfd"
         inkscape:connector-curvature="0"
         id="path1930"
         d="m 128.251,61.72 c 0.008,3.474 -5.353,6.3 -11.973,6.316 L 15.44,68.259 C 8.825,68.274 3.453,65.47 3.445,62 L 3.331,9.091 C 3.323,5.617 8.683,2.789 15.3,2.775 L 116.138,2.551 c 6.62,-0.014 11.993,2.789 12,6.263 z" />
      <path
         style="fill:#dbdbfc"
         inkscape:connector-curvature="0"
         id="path1932"
         d="m 127.792,61.487 c 0.008,3.46 -5.333,6.277 -11.927,6.292 L 15.407,68 C 8.817,68.015 3.465,65.222 3.458,61.761 L 3.343,9.056 C 3.336,5.6 8.675,2.778 15.266,2.764 L 115.723,2.541 c 6.595,-0.014 11.948,2.779 11.955,6.24 z" />
      <path
         style="fill:#dadafc"
         inkscape:connector-curvature="0"
         id="path1934"
         d="m 127.334,61.254 c 0.007,3.447 -5.313,6.253 -11.883,6.268 L 15.374,67.744 C 8.809,67.758 3.474,64.975 3.474,61.528 L 3.356,9.022 C 3.349,5.574 8.668,2.768 15.234,2.753 L 115.31,2.531 c 6.57,-0.014 11.9,2.768 11.91,6.216 z" />
      <path
         style="fill:#d9d9fc"
         inkscape:connector-curvature="0"
         id="path1936"
         d="m 126.875,61.02 c 0.008,3.435 -5.292,6.23 -11.837,6.245 l -99.7,0.221 C 8.8,67.5 3.49,64.728 3.482,61.294 L 3.369,8.987 C 3.362,5.552 8.661,2.757 15.2,2.742 l 99.7,-0.221 c 6.546,-0.014 11.858,2.758 11.865,6.193 z" />
      <path
         style="fill:#d8d8fc"
         inkscape:connector-curvature="0"
         id="path1938"
         d="m 126.417,60.787 c 0.007,3.421 -5.273,6.207 -11.793,6.221 l -99.316,0.22 C 8.793,67.242 3.5,64.481 3.5,61.059 L 3.382,8.952 C 3.375,5.531 8.654,2.746 15.169,2.732 l 99.316,-0.22 C 121.005,2.5 126.3,5.259 126.3,8.68 Z" />
      <path
         style="fill:#d7d7fc"
         inkscape:connector-curvature="0"
         id="path1940"
         d="m 125.958,60.554 c 0.008,3.408 -5.252,6.183 -11.747,6.2 L 15.276,66.973 C 8.785,66.987 3.515,64.236 3.507,60.828 L 3.4,8.918 C 3.392,5.509 8.651,2.735 15.141,2.718 L 114.072,2.5 c 6.495,-0.015 11.766,2.736 11.774,6.145 z" />
      <path
         style="fill:#d7d7fc"
         inkscape:connector-curvature="0"
         id="path1942"
         d="m 125.5,60.321 c 0.007,3.4 -5.232,6.159 -11.7,6.173 L 15.246,66.712 C 8.781,66.727 3.53,63.986 3.523,60.591 L 3.408,8.883 C 3.4,5.488 8.639,2.724 15.1,2.71 l 98.555,-0.218 c 6.47,-0.015 11.721,2.726 11.729,6.121 z" />
      <path
         style="fill:#d6d6fc"
         inkscape:connector-curvature="0"
         id="path1944"
         d="m 125.041,60.087 c 0.007,3.383 -5.212,6.136 -11.657,6.15 L 15.21,66.454 C 8.77,66.469 3.539,63.739 3.532,60.354 L 3.42,8.849 C 3.413,5.466 8.632,2.714 15.072,2.7 l 98.174,-0.217 c 6.445,-0.014 11.676,2.715 11.683,6.1 z" />
      <path
         style="fill:#d5d5fc"
         inkscape:connector-curvature="0"
         id="path1946"
         d="m 124.582,59.854 c 0.008,3.369 -5.191,6.112 -11.612,6.126 L 15.177,66.2 C 8.762,66.215 3.552,63.5 3.544,60.126 L 3.433,8.814 C 3.426,5.445 8.624,2.7 15.039,2.688 l 97.794,-0.216 c 6.421,-0.014 11.631,2.7 11.638,6.074 z" />
      <path
         style="fill:#d4d4fc"
         inkscape:connector-curvature="0"
         id="path1948"
         d="m 124.124,59.621 c 0.007,3.356 -5.171,6.088 -11.567,6.1 L 15.144,65.937 C 8.754,65.951 3.564,63.242 3.557,59.886 L 3.446,8.78 C 3.439,5.423 8.617,2.692 15.007,2.68 L 112.42,2.464 c 6.4,-0.014 11.586,2.694 11.593,6.051 z" />
    </g>
    <rect
       style="isolation:isolate;fill:url(#Unbenannter_Verlauf_20)"
       id="rect1952"
       transform="rotate(-0.094)"
       rx="5.4250002"
       height="72.844002"
       width="140.806"
       y="2.3908966"
       x="2.2228048" />
    <g
       id="g1960"
       style="isolation:isolate">
      <path
         style="fill:#ffffff"
         inkscape:connector-curvature="0"
         id="path1954"
         d="M 82.387,40.758 A 11.844,11.844 0 1 1 70.675,28.851 11.788,11.788 0 0 1 82.387,40.758 Z" />
      <path
         inkscape:connector-curvature="0"
         style="fill:url(#Unbenannter_Verlauf_26)"
         id="path1956"
         d="M 81.354,40.709 A 10.809,10.809 0 1 1 70.563,29.89 10.768,10.768 0 0 1 81.354,40.709 Z" />
      <path
         style="fill:#ffffff"
         inkscape:connector-curvature="0"
         id="path1958"
         d="m 74.6,40.684 c -0.034,0.482 -0.394,0.5 -0.744,0.536 -0.884,0.105 -2.058,-0.4 -2.58,0.268 -0.427,0.552 -0.139,1.654 -0.182,2.511 -0.018,0.352 -0.064,0.736 -0.536,0.74 -0.5,0 -0.456,-0.411 -0.494,-0.746 -0.1,-0.884 0.4,-2.008 -0.265,-2.595 -0.586,-0.522 -1.663,-0.1 -2.52,-0.167 -0.341,-0.026 -0.751,-0.008 -0.774,-0.486 -0.029,-0.6 0.467,-0.5 0.83,-0.535 0.849,-0.091 1.911,0.362 2.5,-0.211 0.589,-0.573 0.123,-1.646 0.217,-2.493 0.04,-0.361 -0.083,-0.87 0.511,-0.849 0.547,0.02 0.484,0.5 0.527,0.879 0.095,0.844 -0.383,1.924 0.233,2.481 0.6,0.54 1.659,0.107 2.513,0.182 0.34,0.029 0.724,-0.007 0.764,0.485 z" />
    </g>
  </g>
</svg>
