<?xml version="1.0" encoding="UTF-8" standalone="no"?>
<svg
   xmlns:dc="http://purl.org/dc/elements/1.1/"
   xmlns:cc="http://creativecommons.org/ns#"
   xmlns:rdf="http://www.w3.org/1999/02/22-rdf-syntax-ns#"
   xmlns:svg="http://www.w3.org/2000/svg"
   xmlns="http://www.w3.org/2000/svg"
   xmlns:xlink="http://www.w3.org/1999/xlink"
   xmlns:sodipodi="http://sodipodi.sourceforge.net/DTD/sodipodi-0.dtd"
   xmlns:inkscape="http://www.inkscape.org/namespaces/inkscape"
   viewBox="0 0 149.134 81.358"
   version="1.1"
   id="svg1968"
   sodipodi:docname="A10_add_new_mouseover.svg"
   inkscape:version="0.92.4 (5da689c313, 2019-01-14)">
  <metadata
     id="metadata1972">
    <rdf:RDF>
      <cc:Work
         rdf:about="">
        <dc:format>image/svg+xml</dc:format>
        <dc:type
           rdf:resource="http://purl.org/dc/dcmitype/StillImage" />
        <dc:title>10_add_new_1</dc:title>
      </cc:Work>
    </rdf:RDF>
  </metadata>
  <sodipodi:namedview
     pagecolor="#ffffff"
     bordercolor="#666666"
     borderopacity="1"
     objecttolerance="10"
     gridtolerance="10"
     guidetolerance="10"
     inkscape:pageopacity="0"
     inkscape:pageshadow="2"
     inkscape:window-width="884"
     inkscape:window-height="876"
     id="namedview1970"
     showgrid="false"
     inkscape:zoom="1"
     inkscape:cx="33.187485"
     inkscape:cy="34.266998"
     inkscape:window-x="2121"
     inkscape:window-y="112"
     inkscape:window-maximized="0"
     inkscape:current-layer="g1960"
     showguides="false" />
  <defs
     id="defs1732">
    <linearGradient
       gradientUnits="userSpaceOnUse"
       gradientTransform="matrix(1,-0.002,0.002,1,-0.066,0.128)"
       y2="49.162"
       x2="79.75"
       y1="34.509"
       x1="63.856"
       data-name="Unbenannter Verlauf 26"
       id="linearGradient38712">
      <stop
         style="stop-color:#d0dcf4;stop-opacity:1"
         id="stop38708"
         stop-color="#c7d4ff"
         offset="0.32650092" />
      <stop
         style="stop-color:#dfecfd;stop-opacity:1"
         id="stop38710"
         stop-color="#d3deff"
         offset="0.84522575" />
    </linearGradient>
    <linearGradient
       inkscape:collect="always"
       id="linearGradient36718-9">
      <stop
         style="stop-color:#ecf1ff;stop-opacity:1"
         offset="0"
         id="stop36714" />
      <stop
         style="stop-color:#d0dff7;stop-opacity:1"
         offset="1"
         id="stop36716" />
    </linearGradient>
    <linearGradient
       id="Unbenannter_Verlauf_21"
       data-name="Unbenannter Verlauf 21"
       x1="3.586"
       y1="27.89"
       x2="143.805"
       y2="49.793"
       gradientTransform="matrix(0.99999996,0,0,0.98646077,-0.06689798,1.1500409)"
       gradientUnits="userSpaceOnUse">
      <stop
         offset="0"
         stop-color="#d0dcff"
         id="stop1689"
         style="stop-color:#dfe9f9;stop-opacity:1" />
      <stop
         offset="0.334"
         stop-color="#d2ddff"
         id="stop1691"
         style="stop-color:#cddaf0;stop-opacity:1" />
      <stop
         offset="0.579"
         stop-color="#edf2ff"
         id="stop1697"
         style="stop-color:#cddaf0;stop-opacity:1" />
    </linearGradient>
    <linearGradient
       id="Unbenannter_Verlauf_20"
       data-name="Unbenannter Verlauf 20"
       x1="3.992"
       y1="27.953"
       x2="143.387"
       y2="49.728"
       gradientTransform="translate(-0.06519515,0.12789649)"
       gradientUnits="userSpaceOnUse">
      <stop
         offset="0"
         stop-color="#d6e1ff"
         id="stop1708" />
      <stop
         offset="0.399"
         stop-color="#d3dfff"
         id="stop1710" />
      <stop
         offset="0.639"
         stop-color="#cbd8ff"
         id="stop1712" />
      <stop
         offset="0.708"
         stop-color="#c7d4ff"
         id="stop1714" />
      <stop
         offset="0.96"
         stop-color="#d1dcff"
         id="stop1716" />
      <stop
         offset="0.983"
         stop-color="#d2ddff"
         id="stop1718" />
    </linearGradient>
    <linearGradient
       id="Unbenannter_Verlauf_26"
       data-name="Unbenannter Verlauf 26"
       x1="63.856"
       y1="34.509"
       x2="79.75"
       y2="49.162"
       gradientTransform="matrix(1,-0.002,0.002,1,-0.066,0.128)"
       gradientUnits="userSpaceOnUse">
      <stop
         offset="0.101"
         stop-color="#c7d4ff"
         id="stop1721"
         style="stop-color:#d0dff7;stop-opacity:1" />
      <stop
         offset="0.78182441"
         stop-color="#d3deff"
         id="stop1727"
         style="stop-color:#ecf1ff;stop-opacity:1" />
    </linearGradient>
    <linearGradient
       gradientTransform="translate(4.042001,-69.707998)"
       id="Unbenannter_Verlauf_23"
       data-name="Unbenannter Verlauf 23"
       x1="2.872"
       y1="21.587"
       x2="138.993"
       y2="42.849998"
       gradientUnits="userSpaceOnUse">
      <stop
         offset="0"
         stop-color="#d6e1ff"
         id="stop2250"
         style="stop-color:#ecf1ff;stop-opacity:1" />
      <stop
         offset="0.22878742"
         stop-color="#d3dfff"
         id="stop2252"
         style="stop-color:#eaf2fe;stop-opacity:1" />
      <stop
         offset="0.4776983"
         stop-color="#c7d4ff"
         id="stop2256"
         style="stop-color:#e0eefe;stop-opacity:1" />
      <stop
         offset="0.939"
         stop-color="#d1dcff"
         id="stop2258"
         style="stop-color:#d0dff7;stop-opacity:1" />
    </linearGradient>
    <linearGradient
       inkscape:collect="always"
       xlink:href="#linearGradient36718-9"
       id="linearGradient36720"
       x1="3.4842875"
       y1="31.814957"
       x2="142.77264"
       y2="42.562481"
       gradientUnits="userSpaceOnUse" />
    <linearGradient
       id="Unbenannter_Verlauf_21-2"
       data-name="Unbenannter Verlauf 21"
       x1="2.4790001"
       y1="21.525"
       x2="139.397"
       y2="42.912998"
       gradientUnits="userSpaceOnUse"
       gradientTransform="matrix(1,0,0,0.98427772,-0.208002,-81.953848)">
      <stop
         offset="0"
         stop-color="#d0dcff"
         id="stop2231"
         style="stop-color:#dfe9f9;stop-opacity:1" />
      <stop
         offset="0.334"
         stop-color="#d2ddff"
         id="stop2233"
         style="stop-color:#cddaf0;stop-opacity:1" />
      <stop
         offset="0.773"
         stop-color="#c2d1ff"
         id="stop2243"
         style="stop-color:#d9e4f5;stop-opacity:1" />
      <stop
         offset="0.878"
         stop-color="#b6c8ff"
         id="stop2245"
         style="stop-color:#ccdaf1;stop-opacity:1" />
      <stop
         offset="0.983"
         stop-color="#b2c5ff"
         id="stop2247"
         style="stop-color:#ccdaf1;stop-opacity:1" />
    </linearGradient>
    <linearGradient
       inkscape:collect="always"
       xlink:href="#linearGradient38712"
       id="linearGradient37580"
       gradientUnits="userSpaceOnUse"
       gradientTransform="matrix(1,-0.002,0.002,1,-0.066,0.128)"
       x1="61.861507"
       y1="31.755011"
       x2="79.75"
       y2="49.161999" />
  </defs>
  <title
     id="title1734">10_add_new_1</title>
  <g
     id="g37755">
    <g
       id="g1960"
       style="isolation:isolate">
      <g
         id="g52807">
        <rect
           x="-0.00020170306"
           y="0.24488991"
           width="149.00101"
           height="81.113998"
           transform="rotate(-0.094)"
           id="rect1736"
           style="isolation:isolate;fill:#ffffff" />
        <g
           style="isolation:isolate;mix-blend-mode:multiply"
           id="g1842"
           transform="matrix(1,0,0,0.97480032,0,1.0492892)">
          <path
             d="m 148.319,73.586 c 0.009,4.109 -6.277,7.458 -14.031,7.475 L 16.093,81.322 C 8.332,81.339 2.039,78.022 2.03,73.909 L 1.893,11.271 C 1.884,7.158 8.164,3.811 15.924,3.794 l 118.2,-0.261 c 7.755,-0.017 14.054,3.3 14.063,7.415 z"
             id="path1738"
             inkscape:connector-curvature="0"
             style="fill:#ffffff" />
          <path
             d="m 147.864,73.327 c 0.009,4.1 -6.256,7.434 -13.985,7.451 L 16.069,81.037 C 8.334,81.054 2.061,77.744 2.052,73.649 L 1.916,11.214 C 1.907,7.115 8.165,3.779 15.9,3.762 L 133.711,3.5 c 7.729,-0.017 14.008,3.291 14.017,7.39 z"
             id="path1740"
             inkscape:connector-curvature="0"
             style="fill:#fefeff" />
          <path
             d="m 147.409,73.068 c 0.009,4.083 -6.235,7.409 -13.939,7.426 L 16.045,80.753 C 8.335,80.77 2.082,77.471 2.073,73.388 L 1.938,11.158 C 1.929,7.072 8.167,3.747 15.877,3.73 L 133.3,3.472 c 7.7,-0.017 13.963,3.28 13.972,7.366 z"
             id="path1742"
             inkscape:connector-curvature="0"
             style="fill:#fdfdff" />
          <path
             d="m 146.955,72.809 c 0.008,4.069 -6.215,7.385 -13.894,7.4 L 16.021,80.467 C 8.336,80.486 2.1,77.2 2.1,73.128 L 1.96,11.1 C 1.951,7.03 8.169,3.715 15.854,3.7 l 117.04,-0.258 c 7.678,-0.017 13.917,3.269 13.926,7.342 z"
             id="path1744"
             inkscape:connector-curvature="0"
             style="fill:#fcfcff" />
          <path
             d="m 146.5,72.55 c 0.009,4.056 -6.195,7.361 -13.848,7.377 L 16,80.184 C 8.341,80.201 2.129,76.924 2.12,72.868 L 1.982,11.046 C 1.974,6.987 8.171,3.684 15.83,3.667 L 132.485,3.41 c 7.654,-0.017 13.871,3.259 13.88,7.318 z"
             id="path1746"
             inkscape:connector-curvature="0"
             style="fill:#fcfcff" />
          <path
             d="m 146.045,72.291 c 0.009,4.042 -6.174,7.336 -13.8,7.353 L 15.972,79.9 C 8.339,79.917 2.148,76.65 2.139,72.608 L 2.005,10.99 C 2,6.944 8.173,3.652 15.806,3.635 L 132.077,3.379 c 7.628,-0.017 13.825,3.248 13.834,7.294 z"
             id="path1748"
             inkscape:connector-curvature="0"
             style="fill:#fbfbff" />
          <path
             d="m 145.59,72.032 c 0.009,4.029 -6.153,7.312 -13.756,7.329 L 15.948,79.616 C 8.34,79.633 2.169,76.377 2.161,72.348 L 2.027,10.934 C 2.018,6.9 8.175,3.62 15.783,3.6 L 131.668,3.345 c 7.6,-0.017 13.78,3.237 13.789,7.27 z"
             id="path1750"
             inkscape:connector-curvature="0"
             style="fill:#fafaff" />
          <path
             d="m 145.136,71.772 c 0.008,4.016 -6.133,7.288 -13.712,7.3 l -115.5,0.255 C 8.342,79.348 2.191,76.1 2.182,72.087 L 2.049,10.878 C 2.04,6.859 8.177,3.588 15.759,3.571 l 115.5,-0.254 C 138.838,3.3 144.994,6.544 145,10.563 Z"
             id="path1752"
             inkscape:connector-curvature="0"
             style="fill:#f9f9ff" />
          <path
             d="m 144.681,71.513 c 0.009,4 -6.113,7.264 -13.666,7.281 L 15.9,79.047 C 8.343,79.064 2.213,75.83 2.2,71.827 l -0.133,-61 C 2.063,6.816 8.178,3.556 15.736,3.54 L 130.851,3.286 c 7.553,-0.017 13.688,3.216 13.7,7.222 z"
             id="path1754"
             inkscape:connector-curvature="0"
             style="fill:#f8f8ff" />
          <path
             d="m 144.226,71.254 c 0.009,3.989 -6.092,7.24 -13.62,7.256 L 15.876,78.763 C 8.344,78.779 2.235,75.556 2.226,71.563 L 2.093,10.763 C 2.085,6.773 8.18,3.524 15.712,3.508 l 114.73,-0.253 c 7.528,-0.016 13.643,3.205 13.652,7.2 z"
             id="path1756"
             inkscape:connector-curvature="0"
             style="fill:#f7f7fe" />
          <path
             d="m 143.771,71 c 0.009,3.976 -6.071,7.215 -13.574,7.232 L 15.852,78.484 C 8.345,78.5 2.252,75.284 2.252,71.312 L 2.12,10.712 C 2.107,6.73 8.182,3.493 15.689,3.476 L 130.034,3.224 c 7.5,-0.016 13.6,3.195 13.605,7.174 z"
             id="path1758"
             inkscape:connector-curvature="0"
             style="fill:#f7f7fe" />
          <path
             d="m 143.317,70.736 c 0.008,3.962 -6.051,7.191 -13.529,7.207 L 15.828,78.194 C 8.347,78.211 2.278,75.009 2.269,71.047 L 2.138,10.653 C 2.129,6.688 8.184,3.461 15.665,3.444 l 113.96,-0.251 c 7.478,-0.016 13.552,3.184 13.56,7.149 z"
             id="path1760"
             inkscape:connector-curvature="0"
             style="fill:#f6f6fe" />
          <path
             d="m 142.862,70.477 c 0.009,3.949 -6.031,7.166 -13.483,7.183 L 15.8,77.91 C 8.344,77.926 2.3,74.736 2.287,70.786 L 2.16,10.6 C 2.152,6.645 8.186,3.429 15.642,3.413 L 129.217,3.162 c 7.452,-0.016 13.5,3.173 13.514,7.125 z"
             id="path1762"
             inkscape:connector-curvature="0"
             style="fill:#f5f5fe" />
          <path
             d="m 142.407,70.217 c 0.009,3.936 -6.01,7.143 -13.437,7.159 L 15.78,77.626 C 8.349,77.642 2.322,74.462 2.313,70.526 L 2.182,10.541 C 2.174,6.6 8.188,3.4 15.618,3.381 l 113.19,-0.25 c 7.427,-0.016 13.46,3.163 13.469,7.1 z"
             id="path1764"
             inkscape:connector-curvature="0"
             style="fill:#f4f4fe" />
          <path
             d="m 141.952,69.958 c 0.009,3.923 -5.989,7.119 -13.391,7.135 l -112.8,0.248 C 8.361,77.358 2.348,74.188 2.34,70.266 L 2.21,10.485 C 2.2,6.56 8.19,3.365 15.6,3.349 L 128.4,3.1 c 7.4,-0.016 13.414,3.152 13.422,7.077 z"
             id="path1766"
             inkscape:connector-curvature="0"
             style="fill:#f3f3fe" />
          <path
             d="m 141.5,69.7 c 0.008,3.909 -5.969,7.094 -13.346,7.11 L 15.734,77.058 C 8.354,77.074 2.367,73.916 2.359,70.007 L 2.229,10.43 C 2.22,6.518 8.194,3.33 15.573,3.318 l 112.42,-0.247 c 7.377,-0.017 13.368,3.14 13.377,7.052 z"
             id="path1768"
             inkscape:connector-curvature="0"
             style="fill:#f2f2fe" />
          <path
             d="m 141.043,69.44 c 0.008,3.9 -5.949,7.07 -13.3,7.086 L 15.707,76.773 C 8.353,76.789 2.387,73.641 2.378,69.746 L 2.249,10.373 C 2.241,6.473 8.193,3.302 15.549,3.285 L 127.585,3.039 c 7.351,-0.017 13.322,3.13 13.331,7.028 z"
             id="path1770"
             inkscape:connector-curvature="0"
             style="fill:#f2f2fe" />
          <path
             d="m 140.588,69.181 c 0.009,3.882 -5.928,7.045 -13.255,7.062 L 15.683,76.488 C 8.355,76.505 2.409,73.368 2.4,69.488 L 2.271,10.317 C 2.263,6.431 8.2,3.27 15.524,3.254 l 111.65,-0.246 c 7.327,-0.016 13.277,3.119 13.285,7 z"
             id="path1772"
             inkscape:connector-curvature="0"
             style="fill:#f1f1fe" />
          <path
             d="m 140.134,68.922 c 0.008,3.869 -5.908,7.021 -13.21,7.037 L 15.659,76.2 C 8.359,76.216 2.43,73.09 2.422,69.221 L 2.293,10.26 C 2.285,6.389 8.2,3.238 15.5,3.222 L 126.765,2.977 c 7.3,-0.016 13.232,3.108 13.24,6.98 z"
             id="path1774"
             inkscape:connector-curvature="0"
             style="fill:#f0f0fe" />
          <path
             d="m 139.679,68.663 c 0.008,3.856 -5.887,7 -13.164,7.013 L 15.635,75.92 C 8.357,75.936 2.452,72.82 2.444,68.965 L 2.316,10.2 C 2.307,6.342 8.199,3.2 15.477,3.186 l 110.88,-0.244 c 7.276,-0.016 13.185,3.1 13.194,6.956 z"
             id="path1776"
             inkscape:connector-curvature="0"
             style="fill:#efeffe" />
          <path
             d="m 139.224,68.4 c 0.008,3.843 -5.867,6.973 -13.118,6.989 L 15.611,75.633 C 8.359,75.649 2.474,72.544 2.465,68.702 L 2.338,10.148 C 2.33,6.3 8.2,3.174 15.453,3.158 L 125.948,2.915 C 133.2,2.9 139.088,6 139.1,9.847 Z"
             id="path1778"
             inkscape:connector-curvature="0"
             style="fill:#eeeefe" />
          <path
             d="m 138.769,68.144 c 0.009,3.83 -5.846,6.949 -13.072,6.965 L 15.587,75.351 C 8.36,75.367 2.496,72.274 2.487,68.444 L 2.36,10.092 C 2.352,6.261 8.2,3.142 15.43,3.127 L 125.54,2.884 c 7.226,-0.016 13.094,3.076 13.1,6.908 z"
             id="path1780"
             inkscape:connector-curvature="0"
             style="fill:#ededfe" />
          <path
             d="m 138.315,67.885 c 0.008,3.816 -5.826,6.924 -13.027,6.94 L 15.563,75.067 C 8.361,75.083 2.517,72 2.509,68.184 L 2.382,10.036 C 2.374,6.218 8.205,3.111 15.406,3.1 L 125.131,2.858 c 7.2,-0.016 13.049,3.066 13.057,6.884 z"
             id="path1782"
             inkscape:connector-curvature="0"
             style="fill:#ececfe" />
          <path
             d="m 137.86,67.626 c 0.008,3.8 -5.805,6.9 -12.981,6.916 L 15.539,74.783 C 8.363,74.798 2.539,71.727 2.531,67.924 L 2.4,9.98 C 2.391,6.175 8.2,3.08 15.378,3.063 l 109.34,-0.241 c 7.175,-0.016 13,3.055 13.011,6.86 z"
             id="path1784"
             inkscape:connector-curvature="0"
             style="fill:#ececfe" />
          <path
             d="m 137.405,67.367 c 0.008,3.789 -5.785,6.876 -12.935,6.891 L 15.515,74.5 C 8.364,74.516 2.561,71.455 2.553,67.666 L 2.427,9.924 C 2.419,6.132 8.208,3.047 15.359,3.031 l 108.955,-0.24 c 7.151,-0.016 12.957,3.044 12.965,6.836 z"
             id="path1786"
             inkscape:connector-curvature="0"
             style="fill:#ebebfe" />
          <path
             d="m 136.95,67.108 c 0.009,3.776 -5.764,6.851 -12.889,6.867 L 15.491,74.214 C 8.365,74.23 2.583,71.18 2.574,67.4 L 2.449,9.868 C 2.441,6.09 8.21,3.015 15.336,3 l 108.57,-0.239 c 7.125,-0.015 12.911,3.034 12.919,6.812 z"
             id="path1788"
             inkscape:connector-curvature="0"
             style="fill:#eaeafe" />
          <path
             d="m 136.5,66.848 c 0.008,3.763 -5.744,6.828 -12.844,6.843 L 15.467,73.93 C 8.367,73.945 2.6,70.906 2.6,67.143 L 2.471,9.811 C 2.463,6.047 8.212,2.983 15.312,2.968 L 123.5,2.729 c 7.1,-0.015 12.866,3.023 12.874,6.787 z"
             id="path1790"
             inkscape:connector-curvature="0"
             style="fill:#e9e9fd" />
          <path
             d="m 136.041,66.589 c 0.008,3.75 -5.723,6.8 -12.8,6.819 l -107.8,0.237 C 8.367,73.661 2.625,70.633 2.617,66.883 L 2.494,9.755 c -0.009,-3.751 5.72,-6.8 12.8,-6.819 l 107.8,-0.238 c 7.075,-0.015 12.819,3.012 12.827,6.763 z"
             id="path1792"
             inkscape:connector-curvature="0"
             style="fill:#e8e8fd" />
          <path
             d="m 135.586,66.33 c 0.008,3.736 -5.7,6.779 -12.753,6.794 L 15.418,73.361 C 8.369,73.377 2.648,70.361 2.64,66.623 L 2.516,9.7 C 2.508,5.961 8.216,2.92 15.265,2.9 L 122.68,2.667 c 7.05,-0.015 12.774,3 12.782,6.739 z"
             id="path1794"
             inkscape:connector-curvature="0"
             style="fill:#e7e7fd" />
          <path
             d="m 135.131,66.071 c 0.009,3.723 -5.682,6.755 -12.707,6.77 L 15.394,73.077 C 8.37,73.092 2.67,70.086 2.661,66.363 L 2.538,9.643 C 2.53,5.919 8.218,2.888 15.238,2.872 L 122.268,2.637 C 129.3,2.621 135,5.627 135.008,9.351 Z"
             id="path1796"
             inkscape:connector-curvature="0"
             style="fill:#e7e7fd" />
          <path
             d="m 134.677,65.812 c 0.008,3.709 -5.662,6.73 -12.662,6.746 L 15.37,72.793 C 8.37,72.808 2.691,69.812 2.683,66.103 L 2.56,9.587 C 2.552,5.876 8.219,2.856 15.218,2.841 L 121.863,2.606 c 7,-0.016 12.683,2.979 12.691,6.69 z"
             id="path1798"
             inkscape:connector-curvature="0"
             style="fill:#e6e6fd" />
          <path
             d="m 134.222,65.553 c 0.008,3.7 -5.642,6.706 -12.616,6.721 L 15.346,72.508 C 8.373,72.524 2.713,69.539 2.705,65.842 L 2.582,9.531 C 2.574,5.831 8.221,2.824 15.194,2.809 l 106.26,-0.234 c 6.975,-0.016 12.637,2.969 12.645,6.666 z"
             id="path1800"
             inkscape:connector-curvature="0"
             style="fill:#e5e5fd" />
          <path
             d="m 133.767,65.294 c 0.008,3.682 -5.621,6.681 -12.57,6.7 L 15.322,72.227 C 8.374,72.242 2.735,69.268 2.727,65.585 L 2.605,9.475 C 2.6,5.791 8.223,2.792 15.171,2.777 L 121.046,2.544 c 6.949,-0.016 12.591,2.958 12.6,6.642 z"
             id="path1802"
             inkscape:connector-curvature="0"
             style="fill:#e4e4fd" />
          <path
             d="m 133.312,65.034 c 0.008,3.67 -5.6,6.658 -12.524,6.673 L 15.3,71.94 C 8.378,71.955 2.759,68.992 2.751,65.322 L 2.629,9.422 C 2.621,5.751 8.229,2.763 15.149,2.748 l 105.49,-0.232 c 6.924,-0.015 12.546,2.947 12.554,6.618 z"
             id="path1804"
             inkscape:connector-curvature="0"
             style="fill:#e3e3fd" />
          <path
             d="m 132.858,64.775 c 0.008,3.656 -5.58,6.634 -12.479,6.649 l -105.1,0.231 c -6.9,0.016 -12.5,-2.937 -12.5,-6.593 L 2.658,9.362 C 2.65,5.704 8.236,2.728 15.133,2.712 L 120.238,2.481 c 6.9,-0.015 12.5,2.936 12.507,6.594 z"
             id="path1806"
             inkscape:connector-curvature="0"
             style="fill:#e2e2fd" />
          <path
             d="m 132.4,64.516 c 0.008,3.643 -5.56,6.609 -12.433,6.624 L 15.247,71.371 C 8.378,71.386 2.8,68.445 2.792,64.8 L 2.671,9.3 C 2.663,5.662 8.229,2.7 15.1,2.682 L 119.82,2.451 c 6.874,-0.015 12.454,2.926 12.462,6.57 z"
             id="path1808"
             inkscape:connector-curvature="0"
             style="fill:#e1e1fd" />
          <path
             d="m 131.948,64.257 c 0.008,3.63 -5.539,6.585 -12.387,6.6 L 15.226,71.087 C 8.38,71.102 2.826,68.171 2.814,64.541 L 2.694,9.25 C 2.686,5.62 8.231,2.665 15.077,2.65 L 119.412,2.42 c 6.848,-0.015 12.408,2.915 12.416,6.546 z"
             id="path1810"
             inkscape:connector-curvature="0"
             style="fill:#e1e1fd" />
          <path
             d="m 131.493,64 c 0.008,3.616 -5.518,6.56 -12.341,6.575 L 15.2,70.8 C 8.379,70.815 2.842,67.9 2.834,64.279 L 2.716,9.194 C 2.708,5.577 8.233,2.633 15.053,2.618 L 119,2.389 c 6.824,-0.015 12.363,2.9 12.371,6.522 z"
             id="path1812"
             inkscape:connector-curvature="0"
             style="fill:#e0e0fd" />
          <path
             d="m 131.039,63.739 c 0.008,3.6 -5.5,6.536 -12.3,6.551 L 15.174,70.518 C 8.379,70.533 2.862,67.624 2.855,64.018 L 2.738,9.138 C 2.73,5.534 8.234,2.6 15.03,2.586 L 118.6,2.358 c 6.8,-0.015 12.316,2.894 12.324,6.5 z"
             id="path1814"
             inkscape:connector-curvature="0"
             style="fill:#dfdffd" />
          <path
             d="m 130.584,63.48 c 0.008,3.589 -5.478,6.512 -12.251,6.526 L 15.153,70.234 C 8.384,70.249 2.887,67.35 2.879,63.761 L 2.76,9.082 C 2.752,5.491 8.236,2.569 15.006,2.555 l 103.18,-0.228 c 6.773,-0.015 12.271,2.883 12.279,6.474 z"
             id="path1816"
             inkscape:connector-curvature="0"
             style="fill:#dedefd" />
          <path
             d="m 130.129,63.22 c 0.008,3.577 -5.457,6.488 -12.2,6.5 l -102.8,0.23 C 8.385,69.964 2.909,67.077 2.9,63.5 L 2.782,9.026 c -0.007,-3.577 5.456,-6.488 12.2,-6.5 l 102.8,-0.227 c 6.748,-0.015 12.226,2.872 12.234,6.45 z"
             id="path1818"
             inkscape:connector-curvature="0"
             style="fill:#ddddfd" />
          <path
             d="m 129.675,62.961 c 0.007,3.563 -5.437,6.464 -12.16,6.479 L 15.105,69.665 C 8.386,69.68 2.931,66.8 2.923,63.24 L 2.805,8.97 C 2.8,5.406 8.24,2.506 14.959,2.491 l 102.41,-0.226 c 6.723,-0.014 12.18,2.862 12.187,6.425 z"
             id="path1820"
             inkscape:connector-curvature="0"
             style="fill:#dcdcfd" />
          <path
             d="m 129.22,62.7 c 0.008,3.55 -5.416,6.439 -12.114,6.454 L 15.081,69.379 C 8.388,69.4 2.952,66.53 2.945,62.98 L 2.827,8.914 C 2.819,5.363 8.242,2.474 14.935,2.459 L 116.96,2.234 c 6.7,-0.014 12.134,2.851 12.142,6.4 z"
             id="path1822"
             inkscape:connector-curvature="0"
             style="fill:#dcdcfd" />
          <path
             d="m 128.765,62.443 c 0.008,3.536 -5.4,6.415 -12.068,6.43 L 15.057,69.1 C 8.389,69.114 2.974,66.259 2.966,62.723 L 2.849,8.857 C 2.841,5.321 8.249,2.442 14.912,2.427 L 116.552,2.2 c 6.672,-0.014 12.088,2.84 12.1,6.377 z"
             id="path1824"
             inkscape:connector-curvature="0"
             style="fill:#dbdbfc" />
          <path
             d="m 128.31,62.184 c 0.008,3.523 -5.375,6.391 -12.022,6.405 L 15.033,68.812 C 8.39,68.827 3,65.983 2.988,62.46 L 2.871,8.8 C 2.864,5.278 8.246,2.41 14.888,2.4 L 116.143,2.177 c 6.648,-0.015 12.043,2.829 12.051,6.352 z"
             id="path1826"
             inkscape:connector-curvature="0"
             style="fill:#dadafc" />
          <path
             d="m 127.856,61.925 c 0.007,3.509 -5.355,6.366 -11.977,6.381 L 15.009,68.528 C 8.392,68.543 3.018,65.709 3.009,62.2 L 2.894,8.745 C 2.886,5.235 8.247,2.378 14.865,2.364 l 100.87,-0.222 c 6.622,-0.015 12,2.818 12,6.328 z"
             id="path1828"
             inkscape:connector-curvature="0"
             style="fill:#d9d9fc" />
          <path
             d="m 127.4,61.665 c 0.007,3.5 -5.334,6.343 -11.931,6.357 L 14.984,68.244 C 8.392,68.258 3.038,65.436 3.031,61.944 L 2.916,8.689 C 2.908,5.189 8.249,2.347 14.841,2.332 L 115.326,2.111 c 6.6,-0.015 11.951,2.807 11.959,6.3 z"
             id="path1830"
             inkscape:connector-curvature="0"
             style="fill:#d8d8fc" />
          <path
             d="m 126.946,61.406 c 0.008,3.483 -5.314,6.318 -11.885,6.333 l -100.1,0.22 c -6.567,0.015 -11.9,-2.8 -11.907,-6.28 L 2.938,8.633 C 2.93,5.15 8.251,2.315 14.818,2.3 l 100.1,-0.22 c 6.571,-0.015 11.9,2.8 11.913,6.28 z"
             id="path1832"
             inkscape:connector-curvature="0"
             style="fill:#d7d7fc" />
          <path
             d="m 126.491,61.147 c 0.008,3.47 -5.293,6.294 -11.839,6.308 l -99.715,0.22 C 8.4,67.689 3.083,64.889 3.075,61.419 L 2.96,8.577 C 2.953,5.107 8.253,2.283 14.794,2.269 l 99.715,-0.22 c 6.547,-0.015 11.86,2.786 11.867,6.256 z"
             id="path1834"
             inkscape:connector-curvature="0"
             style="fill:#d7d7fc" />
          <path
             d="m 126.037,60.888 c 0.007,3.456 -5.273,6.27 -11.8,6.284 l -99.33,0.219 C 8.4,67.405 3.105,64.615 3.1,61.159 L 2.982,8.521 C 2.975,5.064 8.255,2.251 14.771,2.237 l 99.33,-0.219 C 120.622,2 125.915,4.793 125.922,8.25 Z"
             id="path1836"
             inkscape:connector-curvature="0"
             style="fill:#d6d6fc" />
          <path
             d="m 125.582,60.629 c 0.007,3.443 -5.252,6.245 -11.749,6.259 L 14.888,67.106 C 8.4,67.121 3.126,64.342 3.119,60.9 L 3.005,8.465 C 3,5.021 8.257,2.219 14.747,2.205 l 98.945,-0.218 c 6.5,-0.014 11.768,2.765 11.776,6.208 z"
             id="path1838"
             inkscape:connector-curvature="0"
             style="fill:#d5d5fc" />
          <path
             d="m 125.127,60.37 c 0.008,3.429 -5.232,6.221 -11.7,6.235 l -98.56,0.217 C 8.4,66.836 3.148,64.068 3.141,60.638 L 3.027,8.409 C 3.019,4.979 8.259,2.187 14.727,2.173 l 98.559,-0.217 c 6.472,-0.014 11.723,2.754 11.73,6.184 z"
             id="path1840"
             inkscape:connector-curvature="0"
             style="fill:#d4d4fc" />
        </g>
        <rect
           x="1.8321019"
           y="2.9868309"
           width="141.584"
           height="72.647903"
           rx="5.4699998"
           transform="matrix(0.99999869,-0.0016184,0.00166313,0.99999862,0,0)"
           id="rect1844"
           style="isolation:isolate;fill:url(#Unbenannter_Verlauf_21);stroke-width:0.99320728" />
        <rect
           x="2.2228048"
           y="2.3908966"
           width="140.806"
           height="72.844002"
           rx="5.4250002"
           transform="rotate(-0.094)"
           id="rect1952"
           style="isolation:isolate;fill:url(#linearGradient36720);fill-opacity:1" />
        <path
           d="M 82.387,40.758 A 11.844,11.844 0 1 1 70.675,28.851 11.788,11.788 0 0 1 82.387,40.758 Z"
           id="path1954"
           inkscape:connector-curvature="0"
           style="fill:#ffffff" />
        <path
           d="M 81.354,40.709 A 10.809,10.809 0 1 1 70.563,29.89 10.768,10.768 0 0 1 81.354,40.709 Z"
           id="path1956"
           style="fill:url(#linearGradient37580)"
           inkscape:connector-curvature="0" />
        <path
           d="m 74.6,40.684 c -0.034,0.482 -0.394,0.5 -0.744,0.536 -0.884,0.105 -2.058,-0.4 -2.58,0.268 -0.427,0.552 -0.139,1.654 -0.182,2.511 -0.018,0.352 -0.064,0.736 -0.536,0.74 -0.5,0 -0.456,-0.411 -0.494,-0.746 -0.1,-0.884 0.4,-2.008 -0.265,-2.595 -0.586,-0.522 -1.663,-0.1 -2.52,-0.167 -0.341,-0.026 -0.751,-0.008 -0.774,-0.486 -0.029,-0.6 0.467,-0.5 0.83,-0.535 0.849,-0.091 1.911,0.362 2.5,-0.211 0.589,-0.573 0.123,-1.646 0.217,-2.493 0.04,-0.361 -0.083,-0.87 0.511,-0.849 0.547,0.02 0.484,0.5 0.527,0.879 0.095,0.844 -0.383,1.924 0.233,2.481 0.6,0.54 1.659,0.107 2.513,0.182 0.34,0.029 0.724,-0.007 0.764,0.485 z"
           id="path1958"
           inkscape:connector-curvature="0"
           style="fill:#ffffff" />
      </g>
    </g>
  </g>
</svg>
