<?xml version="1.0" encoding="UTF-8" standalone="no"?>
<svg
   xmlns:dc="http://purl.org/dc/elements/1.1/"
   xmlns:cc="http://creativecommons.org/ns#"
   xmlns:rdf="http://www.w3.org/1999/02/22-rdf-syntax-ns#"
   xmlns:svg="http://www.w3.org/2000/svg"
   xmlns="http://www.w3.org/2000/svg"
   xmlns:xlink="http://www.w3.org/1999/xlink"
   xmlns:sodipodi="http://sodipodi.sourceforge.net/DTD/sodipodi-0.dtd"
   xmlns:inkscape="http://www.inkscape.org/namespaces/inkscape"
   viewBox="0 0 270.51 52.232"
   version="1.1"
   id="svg4428"
   sodipodi:docname="A11_veranstaltungen_mouseover_dunkel.svg"
   inkscape:version="0.92.4 (5da689c313, 2019-01-14)">
  <metadata
     id="metadata4432">
    <rdf:RDF>
      <cc:Work
         rdf:about="">
        <dc:format>image/svg+xml</dc:format>
        <dc:type
           rdf:resource="http://purl.org/dc/dcmitype/StillImage" />
        <dc:title>Element 18</dc:title>
      </cc:Work>
    </rdf:RDF>
  </metadata>
  <sodipodi:namedview
     pagecolor="#ffffff"
     bordercolor="#666666"
     borderopacity="1"
     objecttolerance="10"
     gridtolerance="10"
     guidetolerance="10"
     inkscape:pageopacity="0"
     inkscape:pageshadow="2"
     inkscape:window-width="1920"
     inkscape:window-height="1018"
     id="namedview4430"
     showgrid="false"
     inkscape:zoom="4"
     inkscape:cx="143.23645"
     inkscape:cy="26.115999"
     inkscape:window-x="1912"
     inkscape:window-y="-8"
     inkscape:window-maximized="1"
     inkscape:current-layer="g73465" />
  <defs
     id="defs4044">
    <linearGradient
       id="linearGradient71228"
       data-name="Unbenannter Verlauf 5"
       x1="1.115"
       y1="23.821"
       x2="265.85"
       y2="23.821"
       gradientUnits="userSpaceOnUse">
      <stop
         style="stop-color:#385f9c;stop-opacity:1"
         offset="0.062"
         stop-color="#7a8edd"
         stop-opacity="0.9"
         id="stop71222" />
      <stop
         style="stop-color:#28497c;stop-opacity:1"
         offset="0.9"
         stop-color="#6075bf"
         stop-opacity="0.9"
         id="stop71226" />
    </linearGradient>
    <linearGradient
       gradientUnits="userSpaceOnUse"
       y2="23.821"
       x2="265.85"
       y1="23.821"
       x1="1.115"
       data-name="Unbenannter Verlauf 5"
       id="linearGradient70371">
      <stop
         id="stop70365"
         stop-opacity="0.9"
         stop-color="#7a8edd"
         offset="0.062"
         style="stop-color:#5c87ca;stop-opacity:1" />
      <stop
         id="stop70367"
         stop-opacity="0.9"
         stop-color="#6176c0"
         offset="0.533"
         style="stop-color:#335d9d;stop-opacity:1" />
      <stop
         id="stop70369"
         stop-opacity="0.9"
         stop-color="#6075bf"
         offset="0.9"
         style="stop-color:#335d9d;stop-opacity:1" />
    </linearGradient>
    <linearGradient
       id="Unbenannter_Verlauf_5"
       data-name="Unbenannter Verlauf 5"
       x1="1.115"
       y1="23.821"
       x2="265.85"
       y2="23.821"
       gradientUnits="userSpaceOnUse">
      <stop
         offset="0.062"
         stop-color="#7a8edd"
         stop-opacity="0.9"
         id="stop4036" />
      <stop
         offset="0.533"
         stop-color="#6176c0"
         stop-opacity="0.9"
         id="stop4038" />
      <stop
         offset="0.9"
         stop-color="#6075bf"
         stop-opacity="0.9"
         id="stop4040" />
    </linearGradient>
    <linearGradient
       id="Unbenannter_Verlauf_5-2"
       x1="27.628"
       y1="24.734"
       x2="37.336"
       y2="24.734"
       xlink:href="#Unbenannter_Verlauf_5" />
    <linearGradient
       inkscape:collect="always"
       xlink:href="#linearGradient70371"
       id="linearGradient4434"
       gradientUnits="userSpaceOnUse"
       x1="1.115"
       y1="23.821"
       x2="265.85"
       y2="23.821" />
    <linearGradient
       inkscape:collect="always"
       xlink:href="#linearGradient1175"
       id="linearGradient71220"
       gradientUnits="userSpaceOnUse"
       x1="262.86499"
       y1="23.820999"
       x2="3.3500061"
       y2="23.320999" />
    <linearGradient
       inkscape:collect="always"
       id="linearGradient1175">
      <stop
         style="stop-color:#2d528b;stop-opacity:1"
         offset="0"
         id="stop1171-0" />
      <stop
         style="stop-color:#385f9c;stop-opacity:1"
         offset="1"
         id="stop1173-3" />
    </linearGradient>
  </defs>
  <title
     id="title4046">Element 18</title>
  <g
     id="g71418">
    <g
       id="g73465">
      <rect
         style="opacity:1;fill:#ffffff;fill-opacity:1"
         id="rect3958"
         width="270.5"
         height="51.981998"
         x="0"
         y="0" />
      <g
         style="isolation:isolate;mix-blend-mode:multiply"
         id="g4152">
        <path
           d="m 270.207,45.834 c -0.02,2.658 -11.546,4.806 -25.73,4.795 L 28.283,50.466 C 14.083,50.455 2.606,48.29 2.626,45.632 L 2.926,5.118 C 2.946,2.458 14.46,0.311 28.655,0.318 L 244.852,0.486 C 259.036,0.5 270.53,2.661 270.51,5.321 Z"
           id="path4048"
           inkscape:connector-curvature="0"
           style="fill:#ffffff" />
        <path
           d="m 268.7,45.474 c -0.02,2.636 -11.479,4.766 -25.58,4.755 L 28.189,50.067 C 14.077,50.056 2.661,47.909 2.681,45.273 L 2.981,5.1 C 3,2.462 14.448,0.333 28.56,0.344 L 243.492,0.507 C 257.593,0.517 269.02,2.664 269,5.3 Z"
           id="path4050"
           inkscape:connector-curvature="0"
           style="fill:#fefeff" />
        <path
           d="m 267.193,45.114 c -0.02,2.613 -11.411,4.725 -25.43,4.715 L 28.094,49.667 C 14.065,49.657 2.716,47.527 2.736,44.914 L 3.036,5.082 C 3.053,2.466 14.434,0.356 28.463,0.366 l 213.669,0.162 c 14.018,0.01 25.378,2.138 25.359,4.754 z"
           id="path4052"
           inkscape:connector-curvature="0"
           style="fill:#fdfdff" />
        <path
           d="m 265.686,44.754 c -0.02,2.591 -11.344,4.685 -25.279,4.675 L 28,49.268 C 14.054,49.257 2.773,47.146 2.792,44.556 L 3.092,5.063 C 3.106,2.47 14.419,0.378 28.365,0.388 l 212.407,0.161 c 13.936,0.01 25.228,2.12 25.209,4.713 z"
           id="path4054"
           inkscape:connector-curvature="0"
           style="fill:#fcfcff" />
        <path
           d="m 264.178,44.394 c -0.019,2.569 -11.275,4.645 -25.128,4.634 L 27.905,48.869 C 14.042,48.858 2.827,46.769 2.846,44.197 L 3.139,5.045 C 3.158,2.474 14.4,0.4 28.267,0.41 l 211.145,0.16 c 13.853,0.01 25.078,2.1 25.059,4.673 z"
           id="path4056"
           inkscape:connector-curvature="0"
           style="fill:#fcfcff" />
        <path
           d="m 262.671,44.034 c -0.019,2.547 -11.208,4.6 -24.978,4.594 L 27.81,48.469 C 14.03,48.459 2.883,46.384 2.9,43.838 L 3.19,5.027 C 3.211,2.478 14.39,0.422 28.169,0.432 l 209.883,0.159 c 13.77,0.01 24.929,2.084 24.91,4.632 z"
           id="path4058"
           inkscape:connector-curvature="0"
           style="fill:#fbfbff" />
        <path
           d="m 261.164,43.674 c -0.019,2.524 -11.141,4.564 -24.828,4.554 L 27.716,48.07 C 14.019,48.059 2.938,46 2.957,43.479 L 3.245,5.008 C 3.263,2.482 14.375,0.444 28.072,0.454 l 208.62,0.158 c 13.688,0.01 24.779,2.066 24.76,4.592 z"
           id="path4060"
           inkscape:connector-curvature="0"
           style="fill:#fafaff" />
        <path
           d="m 259.657,43.314 c -0.019,2.5 -11.073,4.524 -24.678,4.513 L 27.621,47.67 C 14.007,47.66 2.993,45.622 3.012,43.12 L 3.3,4.99 C 3.316,2.486 14.36,0.466 27.974,0.476 l 207.358,0.157 c 13.605,0.01 24.629,2.048 24.61,4.551 z"
           id="path4062"
           inkscape:connector-curvature="0"
           style="fill:#f9f9ff" />
        <path
           d="m 258.15,42.954 c -0.019,2.48 -11.006,4.483 -24.528,4.473 L 27.522,47.271 C 13.992,47.261 3.045,45.241 3.063,42.761 L 3.35,4.972 C 3.368,2.49 14.346,0.488 27.876,0.5 l 206.1,0.156 c 13.522,0.01 24.479,2.029 24.461,4.511 z"
           id="path4064"
           inkscape:connector-curvature="0"
           style="fill:#f8f8ff" />
        <path
           d="m 256.643,42.594 c -0.019,2.457 -10.938,4.443 -24.378,4.433 L 27.432,46.872 C 13.984,46.862 3.1,44.86 3.122,42.4 L 3.4,4.953 C 3.421,2.494 14.331,0.51 27.778,0.52 l 204.834,0.155 c 13.439,0.01 24.329,2.011 24.311,4.47 z"
           id="path4066"
           inkscape:connector-curvature="0"
           style="fill:#f7f7fe" />
        <path
           d="m 255.136,42.234 c -0.019,2.435 -10.871,4.4 -24.228,4.392 L 27.337,46.472 C 13.973,46.462 3.159,44.478 3.178,42.044 L 3.455,4.935 C 3.473,2.5 14.316,0.532 27.681,0.542 L 231.252,0.7 c 13.357,0.01 24.179,1.993 24.161,4.43 z"
           id="path4068"
           inkscape:connector-curvature="0"
           style="fill:#f7f7fe" />
        <path
           d="m 253.629,41.874 c -0.019,2.413 -10.8,4.362 -24.078,4.352 L 27.242,46.073 C 13.961,46.063 3.215,44.1 3.233,41.685 L 3.508,4.917 C 3.526,2.5 14.3,0.554 27.583,0.564 l 202.309,0.153 c 13.274,0.01 24.03,1.975 24.012,4.389 z"
           id="path4070"
           inkscape:connector-curvature="0"
           style="fill:#f6f6fe" />
        <path
           d="m 252.121,41.514 c -0.017,2.39 -10.735,4.322 -23.927,4.312 L 27.148,45.674 C 13.948,45.664 3.27,43.716 3.288,41.326 L 3.56,4.9 C 3.578,2.507 14.287,0.576 27.485,0.586 l 201.047,0.152 c 13.191,0.01 23.88,1.957 23.862,4.349 z"
           id="path4072"
           inkscape:connector-curvature="0"
           style="fill:#f5f5fe" />
        <path
           d="m 250.614,41.154 c -0.017,2.368 -10.667,4.281 -23.776,4.271 L 27.053,45.274 C 13.938,45.264 3.326,43.335 3.343,40.967 L 3.613,4.88 C 3.631,2.511 14.272,0.6 27.387,0.608 l 199.785,0.151 c 13.109,0.01 23.73,1.939 23.712,4.308 z"
           id="path4074"
           inkscape:connector-curvature="0"
           style="fill:#f4f4fe" />
        <path
           d="m 249.107,40.794 c -0.017,2.346 -10.6,4.241 -23.626,4.231 L 26.959,44.875 C 13.927,44.865 3.381,42.954 3.4,40.609 L 3.666,4.862 C 3.683,2.515 14.257,0.62 27.29,0.63 l 198.522,0.15 c 13.026,0.01 23.58,1.92 23.563,4.268 z"
           id="path4076"
           inkscape:connector-curvature="0"
           style="fill:#f3f3fe" />
        <path
           d="m 247.6,40.434 c -0.017,2.324 -10.533,4.2 -23.476,4.191 L 26.864,44.476 C 13.915,44.466 3.436,42.576 3.454,40.25 L 3.718,4.843 C 3.736,2.519 14.243,0.642 27.192,0.652 L 224.452,0.8 c 12.943,0.01 23.43,1.9 23.413,4.227 z"
           id="path4078"
           inkscape:connector-curvature="0"
           style="fill:#f2f2fe" />
        <path
           d="m 246.093,40.074 c -0.017,2.3 -10.465,4.16 -23.326,4.15 l -196,-0.148 C 13.901,44.066 3.49,42.192 3.507,39.891 L 3.771,4.825 C 3.788,2.523 14.228,0.665 27.094,0.674 l 196,0.148 c 12.862,0.01 23.281,1.884 23.264,4.186 z"
           id="path4080"
           inkscape:connector-curvature="0"
           style="fill:#f2f2fe" />
        <path
           d="m 244.586,39.714 c -0.017,2.279 -10.4,4.12 -23.176,4.11 L 26.675,43.677 C 13.892,43.667 3.547,41.811 3.564,39.532 L 3.824,4.807 C 3.841,2.527 14.213,0.687 27,0.7 l 194.731,0.144 c 12.779,0.009 23.132,1.865 23.115,4.145 z"
           id="path4082"
           inkscape:connector-curvature="0"
           style="fill:#f1f1fe" />
        <path
           d="m 243.079,39.354 c -0.017,2.257 -10.33,4.079 -23.026,4.07 L 26.58,43.277 C 13.88,43.268 3.602,41.43 3.619,39.177 L 3.876,4.788 C 3.893,2.531 14.2,0.709 26.9,0.718 l 193.471,0.147 c 12.7,0.009 22.982,1.847 22.965,4.1 z"
           id="path4084"
           inkscape:connector-curvature="0"
           style="fill:#f0f0fe" />
        <path
           d="m 241.572,38.994 c -0.017,2.234 -10.263,4.039 -22.876,4.029 L 26.486,42.878 C 13.869,42.868 3.658,41.048 3.674,38.815 L 3.929,4.77 C 3.946,2.535 14.184,0.731 26.8,0.74 l 192.21,0.146 c 12.614,0.014 22.833,1.828 22.816,4.064 z"
           id="path4086"
           inkscape:connector-curvature="0"
           style="fill:#efeffe" />
        <path
           d="m 240.064,38.634 c -0.016,2.212 -10.194,4 -22.725,3.989 L 26.391,42.479 C 13.857,42.469 3.713,40.667 3.73,38.456 L 3.982,4.756 C 4,2.539 14.169,0.753 26.7,0.762 l 190.951,0.145 c 12.531,0.009 22.682,1.81 22.665,4.023 z"
           id="path4088"
           inkscape:connector-curvature="0"
           style="fill:#eeeefe" />
        <path
           d="m 238.557,38.274 c -0.016,2.19 -10.127,3.958 -22.575,3.949 L 26.3,42.079 C 13.846,42.07 3.768,40.286 3.785,38.1 L 4.034,4.733 C 4.051,2.543 14.155,0.775 26.605,0.784 l 189.686,0.144 c 12.448,0.009 22.532,1.792 22.516,3.983 z"
           id="path4090"
           inkscape:connector-curvature="0"
           style="fill:#ededfe" />
        <path
           d="m 237.05,37.914 c -0.016,2.167 -10.059,3.918 -22.425,3.908 L 26.2,41.68 C 13.834,41.671 3.824,39.905 3.84,37.738 L 4.087,4.715 C 4.1,2.547 14.14,0.8 26.507,0.806 L 214.931,0.949 C 227.3,0.958 237.313,2.723 237.3,4.891 Z"
           id="path4092"
           inkscape:connector-curvature="0"
           style="fill:#ececfe" />
        <path
           d="m 235.543,37.554 c -0.016,2.145 -9.992,3.877 -22.274,3.868 L 26.107,41.281 C 13.823,41.271 3.879,39.524 3.895,37.381 L 4.14,4.7 C 4.156,2.551 14.125,0.819 26.41,0.828 L 213.571,0.97 c 12.283,0.009 22.233,1.756 22.216,3.9 z"
           id="path4094"
           inkscape:connector-curvature="0"
           style="fill:#ececfe" />
        <path
           d="m 234.036,37.194 c -0.016,2.123 -9.925,3.837 -22.124,3.828 L 26.012,40.881 C 13.812,40.872 3.934,39.143 3.949,37.02 L 4.192,4.678 C 4.208,2.555 14.111,0.841 26.312,0.85 l 185.9,0.141 c 12.2,0.009 22.083,1.738 22.067,3.861 z"
           id="path4096"
           inkscape:connector-curvature="0"
           style="fill:#ebebfe" />
        <path
           d="m 232.529,36.834 c -0.016,2.1 -9.857,3.8 -21.974,3.787 L 25.918,40.482 C 13.8,40.473 3.99,38.762 4.006,36.662 l 0.239,-32 C 4.261,2.559 14.1,0.863 26.214,0.872 l 184.637,0.14 c 12.117,0.009 21.933,1.719 21.917,3.821 z"
           id="path4098"
           inkscape:connector-curvature="0"
           style="fill:#eaeafe" />
        <path
           d="m 231.022,36.474 c -0.016,2.078 -9.79,3.756 -21.824,3.747 L 25.823,40.082 C 13.788,40.073 4.045,38.382 4.061,36.303 L 4.3,4.642 C 4.313,2.563 14.081,0.885 26.116,0.894 l 183.375,0.139 c 12.034,0.009 21.783,1.7 21.767,3.78 z"
           id="path4100"
           inkscape:connector-curvature="0"
           style="fill:#e9e9fd" />
        <path
           d="m 229.515,36.114 c -0.016,2.056 -9.722,3.716 -21.674,3.707 L 25.729,39.683 C 13.777,39.674 4.1,38 4.116,35.944 L 4.35,4.623 C 4.366,2.567 14.067,0.907 26.019,0.916 l 182.112,0.138 c 11.952,0.009 21.633,1.683 21.618,3.74 z"
           id="path4102"
           inkscape:connector-curvature="0"
           style="fill:#e8e8fd" />
        <path
           d="m 228.007,35.754 c -0.015,2.034 -9.654,3.675 -21.523,3.667 L 25.634,39.284 C 13.765,39.275 4.156,37.618 4.171,35.584 L 4.4,4.605 C 4.418,2.571 14.052,0.929 25.921,0.938 l 180.85,0.137 c 11.869,0.009 21.483,1.665 21.468,3.7 z"
           id="path4104"
           inkscape:connector-curvature="0"
           style="fill:#e7e7fd" />
        <path
           d="m 226.5,35.394 c -0.015,2.011 -9.586,3.635 -21.373,3.626 L 25.539,38.884 C 13.754,38.875 4.211,37.237 4.226,35.226 L 4.456,4.587 C 4.471,2.575 14.037,0.951 25.823,0.96 L 205.411,1.1 c 11.786,0.009 21.334,1.647 21.318,3.659 z"
           id="path4106"
           inkscape:connector-curvature="0"
           style="fill:#e7e7fd" />
        <path
           d="m 224.993,35.034 c -0.015,1.989 -9.519,3.595 -21.223,3.586 L 25.445,38.485 C 13.745,38.476 4.267,36.856 4.282,34.868 L 4.508,4.568 C 4.523,2.579 14.023,0.974 25.725,0.982 l 178.326,0.135 c 11.7,0.009 21.184,1.629 21.169,3.618 z"
           id="path4108"
           inkscape:connector-curvature="0"
           style="fill:#e6e6fd" />
        <path
           d="m 223.486,34.674 c -0.015,1.967 -9.451,3.554 -21.073,3.546 L 25.35,38.086 C 13.73,38.077 4.322,36.475 4.337,34.509 L 4.561,4.55 C 4.576,2.583 14.008,1 25.628,1 l 177.063,0.134 c 11.621,0.009 21.034,1.61 21.019,3.578 z"
           id="path4110"
           inkscape:connector-curvature="0"
           style="fill:#e5e5fd" />
        <path
           d="m 221.979,34.314 c -0.015,1.944 -9.384,3.514 -20.923,3.505 L 25.256,37.686 C 13.719,37.678 4.377,36.094 4.392,34.15 L 4.614,4.532 C 4.628,2.587 13.993,1.018 25.53,1.026 l 175.8,0.133 c 11.538,0.009 20.884,1.592 20.869,3.537 z"
           id="path4112"
           inkscape:connector-curvature="0"
           style="fill:#e4e4fd" />
        <path
           d="m 220.472,33.954 c -0.015,1.922 -9.317,3.474 -20.772,3.465 L 25.161,37.287 C 13.707,37.278 4.433,35.713 4.447,33.787 L 4.666,4.513 C 4.681,2.591 13.978,1.04 25.432,1.048 L 199.971,1.18 c 11.455,0.009 20.734,1.574 20.72,3.5 z"
           id="path4114"
           inkscape:connector-curvature="0"
           style="fill:#e3e3fd" />
        <path
           d="m 218.965,33.594 c -0.015,1.9 -9.249,3.433 -20.622,3.425 L 25.066,36.888 C 13.7,36.879 4.488,35.332 4.5,33.432 L 4.719,4.5 C 4.733,2.6 13.964,1.067 25.334,1.075 L 198.611,1.2 c 11.373,0.009 20.584,1.556 20.57,3.456 z"
           id="path4116"
           inkscape:connector-curvature="0"
           style="fill:#e2e2fd" />
        <path
           d="m 217.458,33.235 c -0.014,1.877 -9.182,3.392 -20.472,3.383 L 24.972,36.488 C 13.684,36.48 4.544,34.951 4.558,33.074 L 4.772,4.474 C 4.786,2.6 13.949,1.084 25.237,1.092 l 172.014,0.131 c 11.29,0.008 20.435,1.537 20.42,3.415 z"
           id="path4118"
           inkscape:connector-curvature="0"
           style="fill:#e1e1fd" />
        <path
           d="m 215.95,32.875 c -0.013,1.854 -9.113,3.351 -20.321,3.343 L 24.877,36.089 C 13.677,36.08 4.599,34.569 4.613,32.715 L 4.824,4.458 C 4.838,2.603 13.934,1.106 25.139,1.114 l 170.752,0.13 c 11.207,0.008 20.285,1.519 20.271,3.374 z"
           id="path4120"
           inkscape:connector-curvature="0"
           style="fill:#e1e1fd" />
        <path
           d="m 214.443,32.515 c -0.013,1.832 -9.046,3.311 -20.171,3.3 L 24.783,35.689 C 13.661,35.681 4.654,34.189 4.668,32.356 L 4.877,4.44 C 4.891,2.607 13.92,1.128 25.041,1.14 L 194.53,1.269 c 11.126,0.008 20.136,1.5 20.122,3.334 z"
           id="path4122"
           inkscape:connector-curvature="0"
           style="fill:#e0e0fd" />
        <path
           d="m 212.936,32.155 c -0.013,1.81 -8.978,3.271 -20.021,3.262 L 24.688,35.29 C 13.65,35.282 4.71,33.807 4.723,32 L 4.929,4.422 C 4.943,2.611 13.905,1.15 24.943,1.158 L 193.17,1.286 c 11.043,0.008 19.986,1.482 19.972,3.293 z"
           id="path4124"
           inkscape:connector-curvature="0"
           style="fill:#dfdffd" />
        <path
           d="m 211.429,31.8 c -0.013,1.787 -8.911,3.23 -19.871,3.222 L 24.593,34.891 C 13.638,34.882 4.765,33.426 4.778,31.638 L 4.982,4.4 C 5,2.615 13.89,1.172 24.845,1.18 L 191.81,1.307 c 10.96,0.008 19.836,1.464 19.823,3.252 z"
           id="path4126"
           inkscape:connector-curvature="0"
           style="fill:#dedefd" />
        <path
           d="m 209.922,31.435 c -0.013,1.765 -8.843,3.19 -19.721,3.182 L 24.5,34.491 C 13.627,34.483 4.82,33.045 4.834,31.279 L 5.034,4.385 C 5.048,2.619 13.876,1.194 24.748,1.2 l 165.7,0.126 c 10.878,0.008 19.686,1.446 19.673,3.212 z"
           id="path4128"
           inkscape:connector-curvature="0"
           style="fill:#ddddfd" />
        <path
           d="m 208.415,31.075 c -0.013,1.743 -8.776,3.149 -19.571,3.141 L 24.4,34.092 C 13.611,34.084 4.872,32.664 4.885,30.921 L 5.085,4.367 C 5.1,2.623 13.861,1.216 24.65,1.224 l 164.44,0.125 c 10.795,0.008 19.536,1.428 19.523,3.171 z"
           id="path4130"
           inkscape:connector-curvature="0"
           style="fill:#dcdcfd" />
        <path
           d="m 206.908,30.715 c -0.013,1.72 -8.709,3.109 -19.42,3.1 L 24.309,33.693 C 13.6,33.685 4.931,32.283 4.944,30.562 L 5.144,4.348 C 5.157,2.627 13.85,1.238 24.556,1.248 L 187.73,1.37 c 10.712,0.008 19.387,1.41 19.374,3.131 z"
           id="path4132"
           inkscape:connector-curvature="0"
           style="fill:#dcdcfd" />
        <path
           d="m 205.4,30.355 c -0.013,1.7 -8.641,3.069 -19.27,3.061 L 24.215,33.293 C 13.592,33.285 4.986,31.9 5,30.2 L 5.193,4.33 C 5.205,2.63 13.832,1.26 24.454,1.269 L 186.37,1.391 C 197,1.4 205.607,2.782 205.594,4.481 Z"
           id="path4134"
           inkscape:connector-curvature="0"
           style="fill:#dbdbfc" />
        <path
           d="m 203.893,30 c -0.012,1.676 -8.573,3.028 -19.119,3.02 L 24.12,32.894 C 13.581,32.886 5.042,31.52 5.054,29.844 L 5.245,4.312 C 5.258,2.635 13.817,1.283 24.357,1.291 L 185.01,1.412 c 10.547,0.008 19.087,1.373 19.074,3.05 z"
           id="path4136"
           inkscape:connector-curvature="0"
           style="fill:#dadafc" />
        <path
           d="m 202.386,29.635 c -0.012,1.654 -8.5,2.988 -18.969,2.98 L 24.026,32.495 C 13.569,32.487 5.1,31.139 5.11,29.485 L 5.3,4.293 C 5.312,2.639 13.8,1.305 24.261,1.313 l 159.391,0.12 c 10.464,0.008 18.937,1.355 18.925,3.009 z"
           id="path4138"
           inkscape:connector-curvature="0"
           style="fill:#d9d9fc" />
        <path
           d="m 200.879,29.275 c -0.012,1.631 -8.438,2.948 -18.819,2.94 L 23.931,32.1 C 13.557,32.092 5.153,30.763 5.165,29.132 L 5.351,4.275 C 5.363,2.643 13.788,1.327 24.161,1.335 L 182.29,1.454 c 10.381,0.008 18.787,1.337 18.775,2.969 z"
           id="path4140"
           inkscape:connector-curvature="0"
           style="fill:#d8d8fc" />
        <path
           d="m 199.372,28.915 c -0.012,1.609 -8.37,2.907 -18.669,2.9 L 23.836,31.7 C 13.546,31.692 5.208,30.381 5.22,28.772 L 5.4,4.257 c 0.012,-1.61 8.37,-2.908 18.66,-2.9 l 156.867,0.118 c 10.3,0.008 18.637,1.319 18.625,2.928 z"
           id="path4142"
           inkscape:connector-curvature="0"
           style="fill:#d7d7fc" />
        <path
           d="m 197.865,28.555 c -0.012,1.587 -8.3,2.867 -18.519,2.859 L 23.742,31.3 C 13.534,31.289 5.263,30 5.275,28.409 L 5.456,4.238 c 0.012,-1.587 8.3,-2.867 18.51,-2.859 l 155.6,0.117 c 10.216,0.008 18.488,1.3 18.476,2.888 z"
           id="path4144"
           inkscape:connector-curvature="0"
           style="fill:#d7d7fc" />
        <path
           d="m 196.358,28.2 c -0.012,1.564 -8.236,2.826 -18.369,2.819 L 23.647,30.9 C 13.523,30.889 5.319,29.615 5.33,28.05 L 5.509,4.22 C 5.52,2.655 13.744,1.393 23.868,1.4 L 178.21,1.516 c 10.133,0.008 18.338,1.282 18.326,2.847 z"
           id="path4146"
           inkscape:connector-curvature="0"
           style="fill:#d6d6fc" />
        <path
           d="m 194.851,27.835 c -0.012,1.542 -8.168,2.786 -18.219,2.778 L 23.553,30.5 C 13.511,30.49 5.374,29.234 5.386,27.691 L 5.561,4.2 C 5.573,2.658 13.729,1.414 23.77,1.422 l 153.08,0.115 c 10.05,0.008 18.188,1.264 18.176,2.807 z"
           id="path4148"
           inkscape:connector-curvature="0"
           style="fill:#d5d5fc" />
        <path
           d="m 193.344,27.475 c -0.012,1.52 -8.1,2.746 -18.069,2.738 L 23.458,30.1 C 13.5,30.091 5.429,28.853 5.441,27.332 L 5.614,4.183 c 0.011,-1.52 8.1,-2.746 18.058,-2.738 L 175.49,1.559 c 9.968,0.008 18.038,1.246 18.027,2.766 z"
           id="path4150"
           inkscape:connector-curvature="0"
           style="fill:#d4d4fc" />
      </g>
      <g
         style="isolation:isolate;mix-blend-mode:multiply;opacity:0.5"
         id="g4258">
        <path
           d="m 135.746,47.242 c 0,2.739 -5.659,4.964 -12.64,4.966 L 16.7,52.232 c -6.987,0 -12.65,-2.22 -12.653,-4.96 L 3.989,5.51 c 0,-2.742 5.653,-4.966 12.64,-4.967 L 123.038,0.518 c 6.981,0 12.65,2.219 12.653,4.961 z"
           id="path4154"
           inkscape:connector-curvature="0"
           style="fill:#ffffff" />
        <path
           d="m 135.267,47.09 c 0,2.73 -5.641,4.948 -12.6,4.949 L 16.604,52.064 C 9.641,52.065 4,49.85 3.994,47.12 L 3.939,5.494 c 0,-2.734 5.635,-4.95 12.6,-4.951 L 122.6,0.518 c 6.958,0 12.608,2.212 12.611,4.945 z"
           id="path4156"
           inkscape:connector-curvature="0"
           style="fill:#fefeff" />
        <path
           d="m 134.787,46.937 c 0,2.722 -5.621,4.932 -12.557,4.934 L 16.514,51.9 C 9.573,51.9 3.947,49.694 3.943,46.973 L 3.889,5.477 C 3.885,2.753 9.505,0.544 16.446,0.543 L 122.163,0.518 c 6.935,0 12.566,2.205 12.57,4.929 z"
           id="path4158"
           inkscape:connector-curvature="0"
           style="fill:#fdfdff" />
        <path
           d="m 134.308,46.785 c 0,2.713 -5.6,4.916 -12.516,4.918 l -105.37,0.024 c -6.918,0 -12.525,-2.2 -12.529,-4.912 L 3.839,5.461 c 0,-2.715 5.6,-4.917 12.516,-4.918 l 105.37,-0.025 c 6.913,0 12.525,2.2 12.529,4.913 z"
           id="path4160"
           inkscape:connector-curvature="0"
           style="fill:#fcfcff" />
        <path
           d="m 133.829,46.633 c 0,2.7 -5.585,4.9 -12.475,4.9 L 16.331,51.558 c -6.9,0 -12.485,-2.192 -12.488,-4.9 L 3.789,5.445 c 0,-2.706 5.579,-4.9 12.475,-4.9 L 121.287,0.518 c 6.89,0 12.484,2.191 12.488,4.9 z"
           id="path4162"
           inkscape:connector-curvature="0"
           style="fill:#fcfcff" />
        <path
           d="m 133.35,46.481 c 0,2.7 -5.567,4.884 -12.435,4.885 L 16.239,51.39 C 9.367,51.39 3.796,49.206 3.793,46.511 L 3.739,5.429 C 3.735,2.732 9.3,0.544 16.173,0.543 L 120.849,0.519 c 6.868,0 12.443,2.183 12.447,4.88 z"
           id="path4164"
           inkscape:connector-curvature="0"
           style="fill:#fbfbff" />
        <path
           d="m 132.87,46.329 c 0,2.686 -5.547,4.867 -12.393,4.869 L 16.148,51.222 c -6.85,0 -12.4,-2.177 -12.406,-4.863 L 3.689,5.413 c 0,-2.689 5.543,-4.869 12.392,-4.87 l 104.33,-0.024 c 6.845,0 12.4,2.176 12.406,4.864 z"
           id="path4166"
           inkscape:connector-curvature="0"
           style="fill:#fafaff" />
        <path
           d="m 132.391,46.177 c 0,2.677 -5.529,4.851 -12.352,4.853 L 16.056,51.054 c -6.827,0 -12.36,-2.17 -12.364,-4.848 L 3.639,5.4 C 3.635,2.717 9.163,0.544 15.99,0.543 L 119.973,0.519 c 6.823,0 12.361,2.168 12.365,4.848 z"
           id="path4168"
           inkscape:connector-curvature="0"
           style="fill:#f9f9ff" />
        <path
           d="m 131.912,46.025 c 0,2.668 -5.511,4.835 -12.311,4.836 L 15.965,50.885 c -6.8,0 -12.32,-2.162 -12.323,-4.831 L 3.589,5.381 C 3.585,2.71 9.1,0.544 15.9,0.543 L 119.535,0.519 c 6.8,0 12.32,2.161 12.324,4.832 z"
           id="path4170"
           inkscape:connector-curvature="0"
           style="fill:#f8f8ff" />
        <path
           d="m 131.433,45.872 c 0,2.66 -5.493,4.819 -12.27,4.821 L 15.873,50.717 C 9.092,50.718 3.6,48.562 3.592,45.9 L 3.539,5.364 C 3.535,2.7 9.026,0.544 15.807,0.543 L 119.1,0.519 c 6.778,0 12.279,2.154 12.283,4.816 z"
           id="path4172"
           inkscape:connector-curvature="0"
           style="fill:#f7f7fe" />
        <path
           d="m 130.953,45.72 c 0,2.651 -5.474,4.8 -12.228,4.805 L 15.782,50.549 c -6.759,0 -12.237,-2.148 -12.24,-4.8 L 3.489,5.349 c 0,-2.653 5.469,-4.8 12.227,-4.8 l 102.943,-0.03 c 6.755,0 12.238,2.147 12.242,4.8 z"
           id="path4174"
           inkscape:connector-curvature="0"
           style="fill:#f7f7fe" />
        <path
           d="m 130.474,45.568 c 0,2.642 -5.455,4.787 -12.187,4.788 l -102.6,0.024 c -6.735,0 -12.195,-2.141 -12.2,-4.782 L 3.439,5.332 C 3.435,2.688 8.89,0.544 15.625,0.543 l 102.6,-0.024 c 6.731,0 12.2,2.14 12.2,4.784 z"
           id="path4176"
           inkscape:connector-curvature="0"
           style="fill:#f6f6fe" />
        <path
           d="m 130,45.416 c 0,2.633 -5.437,4.771 -12.146,4.772 L 15.6,50.212 C 8.887,50.212 3.446,48.078 3.442,45.445 L 3.389,5.316 C 3.385,2.681 8.821,0.544 15.534,0.543 l 102.25,-0.024 c 6.709,0 12.155,2.133 12.158,4.768 z"
           id="path4178"
           inkscape:connector-curvature="0"
           style="fill:#f5f5fe" />
        <path
           d="m 129.516,45.264 c 0,2.624 -5.419,4.754 -12.1,4.756 l -101.9,0.023 C 8.827,50.043 3.403,47.917 3.4,45.293 L 3.338,5.3 c 0,-2.626 5.415,-4.756 12.1,-4.757 l 101.9,-0.024 c 6.686,0 12.114,2.126 12.117,4.752 z"
           id="path4180"
           inkscape:connector-curvature="0"
           style="fill:#f4f4fe" />
        <path
           d="m 129.037,45.112 c 0,2.615 -5.4,4.738 -12.065,4.74 L 15.416,49.875 C 8.749,49.875 3.344,47.756 3.341,45.141 L 3.288,5.284 c 0,-2.618 5.4,-4.74 12.063,-4.741 L 116.908,0.519 c 6.664,0 12.073,2.118 12.076,4.736 z"
           id="path4182"
           inkscape:connector-curvature="0"
           style="fill:#f3f3fe" />
        <path
           d="m 128.557,44.96 c 0,2.606 -5.381,4.722 -12.023,4.723 L 15.324,49.707 C 8.68,49.707 3.294,47.595 3.29,44.989 L 3.238,5.267 C 3.235,2.659 8.616,0.544 15.26,0.543 L 116.47,0.519 c 6.641,0 12.032,2.111 12.035,4.72 z"
           id="path4184"
           inkscape:connector-curvature="0"
           style="fill:#f2f2fe" />
        <path
           d="m 128.078,44.808 c 0,2.6 -5.363,4.706 -11.982,4.707 L 15.233,49.538 c -6.621,0 -11.989,-2.1 -11.993,-4.7 L 3.188,5.251 c 0,-2.6 5.36,-4.707 11.98,-4.708 L 116.032,0.52 c 6.619,0 11.991,2.1 11.994,4.7 z"
           id="path4186"
           inkscape:connector-curvature="0"
           style="fill:#f2f2fe" />
        <path
           d="m 127.6,44.655 c 0,2.589 -5.345,4.69 -11.941,4.692 L 15.141,49.37 c -6.6,0 -11.948,-2.1 -11.951,-4.686 L 3.138,5.235 c 0,-2.59 5.341,-4.691 11.939,-4.692 L 115.594,0.52 c 6.6,0 11.95,2.1 11.953,4.686 z"
           id="path4188"
           inkscape:connector-curvature="0"
           style="fill:#f1f1fe" />
        <path
           d="m 127.12,44.5 c 0,2.58 -5.327,4.674 -11.9,4.676 L 15.05,49.2 C 8.474,49.2 3.143,47.11 3.14,44.53 L 3.088,5.219 c 0,-2.581 5.323,-4.675 11.9,-4.676 L 115.156,0.52 c 6.574,0 11.909,2.089 11.912,4.67 z"
           id="path4190"
           inkscape:connector-curvature="0"
           style="fill:#f0f0fe" />
        <path
           d="m 126.64,44.351 c 0,2.571 -5.307,4.658 -11.858,4.659 L 14.958,49.033 C 8.406,49.033 3.093,46.951 3.089,44.38 L 3.038,5.2 C 3.035,2.63 8.342,0.544 14.9,0.543 L 114.718,0.52 c 6.551,0 11.868,2.082 11.871,4.654 z"
           id="path4192"
           inkscape:connector-curvature="0"
           style="fill:#efeffe" />
        <path
           d="m 126.161,44.2 c 0,2.562 -5.289,4.642 -11.817,4.643 L 14.867,48.866 C 8.337,48.866 3.043,46.79 3.039,44.228 L 2.988,5.187 C 2.985,2.623 8.274,0.544 14.8,0.543 L 114.28,0.52 c 6.529,0 11.827,2.075 11.83,4.638 z"
           id="path4194"
           inkscape:connector-curvature="0"
           style="fill:#eeeefe" />
        <path
           d="m 125.682,44.047 c 0,2.553 -5.271,4.625 -11.776,4.627 L 14.775,48.7 C 8.269,48.7 2.992,46.631 2.989,44.078 L 2.938,5.17 C 2.935,2.616 8.206,0.544 14.712,0.543 L 113.843,0.52 c 6.5,0 11.785,2.068 11.788,4.622 z"
           id="path4196"
           inkscape:connector-curvature="0"
           style="fill:#ededfe" />
        <path
           d="m 125.2,43.9 c 0,2.544 -5.253,4.609 -11.735,4.61 l -98.784,0.023 c -6.484,0 -11.742,-2.061 -11.745,-4.6 L 2.888,5.154 c 0,-2.545 5.249,-4.61 11.733,-4.611 L 113.405,0.52 c 6.482,0 11.744,2.06 11.747,4.606 z"
           id="path4198"
           inkscape:connector-curvature="0"
           style="fill:#ececfe" />
        <path
           d="m 124.723,43.743 c 0,2.535 -5.233,4.593 -11.694,4.594 L 14.592,48.36 c -6.461,0 -11.7,-2.054 -11.7,-4.589 L 2.838,5.138 C 2.835,2.6 8.069,0.544 14.529,0.543 L 112.967,0.52 c 6.46,0 11.7,2.053 11.706,4.59 z"
           id="path4200"
           inkscape:connector-curvature="0"
           style="fill:#ececfe" />
        <path
           d="m 124.244,43.591 c 0,2.526 -5.215,4.576 -11.653,4.578 l -98.09,0.023 C 8.063,48.192 2.842,46.145 2.838,43.619 L 2.788,5.119 C 2.785,2.594 8,0.544 14.438,0.543 L 112.529,0.52 c 6.437,0 11.662,2.046 11.665,4.574 z"
           id="path4202"
           inkscape:connector-curvature="0"
           style="fill:#ebebfe" />
        <path
           d="m 123.765,43.438 c 0,2.518 -5.2,4.561 -11.612,4.563 L 14.409,48.023 C 7.994,48.023 2.791,45.984 2.788,43.466 L 2.738,5.106 C 2.735,2.587 7.932,0.544 14.347,0.543 L 112.091,0.52 c 6.415,0 11.62,2.039 11.624,4.558 z"
           id="path4204"
           inkscape:connector-curvature="0"
           style="fill:#eaeafe" />
        <path
           d="m 123.286,43.286 c 0,2.509 -5.179,4.545 -11.571,4.546 l -97.4,0.023 c -6.393,0 -11.577,-2.032 -11.58,-4.541 L 2.688,5.09 C 2.685,2.58 7.864,0.544 14.256,0.543 l 97.4,-0.023 c 6.392,0 11.579,2.032 11.583,4.542 z"
           id="path4206"
           inkscape:connector-curvature="0"
           style="fill:#e9e9fd" />
        <path
           d="m 122.807,43.134 c 0,2.5 -5.161,4.529 -11.53,4.53 L 14.226,47.686 C 7.857,47.686 2.691,45.662 2.688,43.162 L 2.638,5.073 c 0,-2.5 5.157,-4.529 11.526,-4.53 l 97.051,-0.022 c 6.37,0 11.538,2.024 11.542,4.525 z"
           id="path4208"
           inkscape:connector-curvature="0"
           style="fill:#e8e8fd" />
        <path
           d="m 122.327,42.982 c 0,2.491 -5.141,4.512 -11.488,4.514 l -96.7,0.022 c -6.347,0 -11.494,-2.017 -11.5,-4.508 L 2.588,5.057 C 2.584,2.565 7.727,0.544 14.073,0.543 l 96.7,-0.022 c 6.347,0 11.5,2.017 11.5,4.509 z"
           id="path4210"
           inkscape:connector-curvature="0"
           style="fill:#e7e7fd" />
        <path
           d="m 121.848,42.83 c 0,2.482 -5.123,4.5 -11.447,4.5 L 14.043,47.352 C 7.72,47.352 2.59,45.341 2.587,42.859 L 2.538,5.041 c 0,-2.483 5.12,-4.5 11.444,-4.5 l 96.357,-0.02 c 6.325,0 11.456,2.01 11.46,4.493 z"
           id="path4212"
           inkscape:connector-curvature="0"
           style="fill:#e7e7fd" />
        <path
           d="m 121.369,42.678 c 0,2.473 -5.105,4.48 -11.406,4.481 l -96.011,0.022 c -6.3,0 -11.412,-2 -11.415,-4.476 L 2.488,5.025 c 0,-2.474 5.1,-4.481 11.4,-4.482 L 109.9,0.521 c 6.3,0 11.414,2 11.417,4.477 z"
           id="path4214"
           inkscape:connector-curvature="0"
           style="fill:#e6e6fd" />
        <path
           d="m 120.89,42.526 c 0,2.464 -5.087,4.464 -11.366,4.465 L 13.86,47.013 c -6.278,0 -11.37,-2 -11.373,-4.46 L 2.438,5.009 C 2.434,2.544 7.521,0.544 13.8,0.543 l 95.664,-0.022 c 6.279,0 11.373,2 11.376,4.461 z"
           id="path4216"
           inkscape:connector-curvature="0"
           style="fill:#e5e5fd" />
        <path
           d="m 120.41,42.374 c 0,2.455 -5.067,4.447 -11.324,4.449 L 13.769,46.845 C 7.514,46.845 2.44,44.856 2.436,42.401 L 2.387,4.993 c 0,-2.457 5.066,-4.449 11.321,-4.45 l 95.318,-0.022 c 6.256,0 11.332,1.988 11.335,4.444 z"
           id="path4218"
           inkscape:connector-curvature="0"
           style="fill:#e4e4fd" />
        <path
           d="m 119.931,42.221 c 0,2.447 -5.049,4.432 -11.283,4.433 L 13.677,46.676 C 7.445,46.676 2.389,44.695 2.386,42.248 L 2.337,4.977 c 0,-2.448 5.048,-4.433 11.28,-4.434 l 94.971,-0.022 c 6.233,0 11.291,1.981 11.294,4.428 z"
           id="path4220"
           inkscape:connector-curvature="0"
           style="fill:#e3e3fd" />
        <path
           d="m 119.452,42.069 c 0,2.438 -5.031,4.416 -11.242,4.417 l -94.624,0.022 c -6.21,0 -11.247,-1.974 -11.25,-4.412 L 2.287,4.96 C 2.284,2.522 7.316,0.544 13.525,0.543 L 108.15,0.521 C 114.361,0.52 119.4,2.5 119.4,4.933 Z"
           id="path4222"
           inkscape:connector-curvature="0"
           style="fill:#e2e2fd" />
        <path
           d="m 118.973,41.917 c 0,2.429 -5.013,4.4 -11.2,4.4 l -94.278,0.022 c -6.186,0 -11.2,-1.967 -11.208,-4.4 l -0.049,-37 c 0,-2.429 5.011,-4.4 11.2,-4.4 l 94.274,-0.018 c 6.188,0 11.209,1.967 11.212,4.4 z"
           id="path4224"
           inkscape:connector-curvature="0"
           style="fill:#e1e1fd" />
        <path
           d="m 118.493,41.765 c 0,2.42 -4.993,4.383 -11.159,4.385 L 13.4,46.171 C 7.237,46.171 2.237,44.212 2.234,41.792 L 2.187,4.928 C 2.184,2.507 7.179,0.544 13.343,0.543 l 93.931,-0.022 c 6.166,0 11.168,1.96 11.171,4.38 z"
           id="path4226"
           inkscape:connector-curvature="0"
           style="fill:#e1e1fd" />
        <path
           d="m 118.014,41.613 c 0,2.411 -4.975,4.367 -11.118,4.368 L 13.311,46 C 7.171,46 2.188,44.051 2.185,41.64 L 2.137,4.912 C 2.134,2.5 7.111,0.544 13.251,0.543 l 93.585,-0.022 c 6.143,0 11.127,1.952 11.13,4.364 z"
           id="path4228"
           inkscape:connector-curvature="0"
           style="fill:#e0e0fd" />
        <path
           d="m 117.535,41.461 c 0,2.4 -4.957,4.351 -11.077,4.352 L 13.219,45.835 C 7.102,45.835 2.138,43.89 2.135,41.487 L 2.087,4.9 C 2.087,2.5 7.043,0.548 13.16,0.547 L 106.4,0.522 c 6.121,0 11.086,1.944 11.089,4.347 z"
           id="path4230"
           inkscape:connector-curvature="0"
           style="fill:#dfdffd" />
        <path
           d="m 117.056,41.309 c 0,2.393 -4.939,4.334 -11.036,4.336 l -92.892,0.021 c -6.095,0 -11.04,-1.938 -11.043,-4.331 L 2.037,4.88 C 2.034,2.486 6.974,0.544 13.069,0.543 L 105.96,0.522 c 6.1,0 11.045,1.937 11.048,4.331 z"
           id="path4232"
           inkscape:connector-curvature="0"
           style="fill:#dedefd" />
        <path
           d="m 116.576,41.156 c 0,2.385 -4.919,4.319 -10.995,4.321 L 13.036,45.5 c -6.071,0 -11,-1.931 -11,-4.315 L 1.987,4.863 c 0,-2.385 4.919,-4.319 10.991,-4.32 l 92.545,-0.021 c 6.075,0 11,1.93 11.006,4.315 z"
           id="path4234"
           inkscape:connector-curvature="0"
           style="fill:#ddddfd" />
        <path
           d="m 116.1,41 c 0,2.376 -4.9,4.3 -10.954,4.3 l -92.2,0.022 c -6.049,0 -10.958,-1.924 -10.961,-4.3 L 1.937,4.847 c 0,-2.376 4.9,-4.3 10.949,-4.3 l 92.2,-0.021 c 6.052,0 10.962,1.923 10.965,4.3 z"
           id="path4236"
           inkscape:connector-curvature="0"
           style="fill:#dcdcfd" />
        <path
           d="m 115.618,40.852 c 0,2.367 -4.883,4.287 -10.913,4.288 L 12.853,45.161 C 6.827,45.161 1.937,43.245 1.934,40.878 L 1.887,4.831 C 1.884,2.464 6.769,0.544 12.8,0.543 l 91.847,-0.021 c 6.03,0 10.921,1.916 10.924,4.283 z"
           id="path4238"
           inkscape:connector-curvature="0"
           style="fill:#dcdcfd" />
        <path
           d="m 115.139,40.7 c 0,2.358 -4.865,4.27 -10.872,4.272 l -91.5,0.021 c -6,0 -10.875,-1.909 -10.878,-4.267 L 1.837,4.815 C 1.834,2.457 6.7,0.544 12.7,0.543 l 91.509,-0.021 c 6.007,0 10.88,1.909 10.883,4.267 z"
           id="path4240"
           inkscape:connector-curvature="0"
           style="fill:#dbdbfc" />
        <path
           d="m 114.66,40.548 c 0,2.349 -4.847,4.254 -10.831,4.255 L 12.67,44.824 c -5.98,0 -10.833,-1.9 -10.836,-4.25 L 1.787,4.8 C 1.784,2.45 6.632,0.544 12.613,0.543 l 91.158,-0.021 c 5.984,0 10.839,1.9 10.842,4.251 z"
           id="path4242"
           inkscape:connector-curvature="0"
           style="fill:#dadafc" />
        <path
           d="m 114.18,40.4 c 0,2.34 -4.827,4.238 -10.789,4.239 L 12.579,44.66 c -5.957,0 -10.792,-1.894 -10.8,-4.234 L 1.737,4.783 c 0,-2.341 4.827,-4.239 10.784,-4.24 l 90.812,-0.021 c 5.962,0 10.8,1.894 10.8,4.235 z"
           id="path4244"
           inkscape:connector-curvature="0"
           style="fill:#d9d9fc" />
        <path
           d="m 113.7,40.244 c 0,2.331 -4.809,4.222 -10.748,4.223 L 12.486,44.488 C 6.552,44.488 1.735,42.601 1.732,40.27 L 1.686,4.77 C 1.684,2.435 6.5,0.544 12.43,0.543 L 102.9,0.522 c 5.939,0 10.757,1.887 10.76,4.219 z"
           id="path4246"
           inkscape:connector-curvature="0"
           style="fill:#d8d8fc" />
        <path
           d="m 113.222,40.092 c 0,2.322 -4.791,4.2 -10.707,4.207 l -90.119,0.02 c -5.912,0 -10.71,-1.879 -10.713,-4.2 L 1.637,4.75 c 0,-2.322 4.79,-4.2 10.7,-4.207 l 90.12,-0.021 c 5.917,0 10.716,1.88 10.719,4.2 z"
           id="path4248"
           inkscape:connector-curvature="0"
           style="fill:#d7d7fc" />
        <path
           d="m 112.743,39.939 c 0,2.314 -4.773,4.19 -10.666,4.191 L 12.3,44.151 C 6.412,44.151 1.632,42.278 1.629,39.965 L 1.587,4.734 c 0,-2.313 4.772,-4.189 10.66,-4.191 l 89.772,-0.021 c 5.894,0 10.674,1.873 10.677,4.187 z"
           id="path4250"
           inkscape:connector-curvature="0"
           style="fill:#d7d7fc" />
        <path
           d="m 112.263,39.787 c 0,2.3 -4.753,4.174 -10.625,4.175 l -89.425,0.021 c -5.866,0 -10.627,-1.866 -10.63,-4.17 L 1.537,4.718 C 1.534,2.413 6.29,0.545 12.156,0.543 l 89.426,-0.02 c 5.871,0 10.632,1.865 10.635,4.169 z"
           id="path4252"
           inkscape:connector-curvature="0"
           style="fill:#d6d6fc" />
        <path
           d="m 111.784,39.635 c 0,2.3 -4.735,4.157 -10.584,4.159 l -89.079,0.02 C 6.278,43.814 1.535,41.956 1.532,39.661 L 1.487,4.7 c 0,-2.3 4.735,-4.157 10.578,-4.159 l 89.079,-0.02 c 5.848,0 10.591,1.858 10.594,4.153 z"
           id="path4254"
           inkscape:connector-curvature="0"
           style="fill:#d5d5fc" />
        <path
           d="m 111.305,39.483 c 0,2.287 -4.717,4.141 -10.543,4.143 L 12.03,43.646 C 6.21,43.646 1.485,41.795 1.482,39.508 L 1.437,4.686 C 1.434,2.4 6.153,0.545 11.974,0.543 l 88.732,-0.02 c 5.826,0 10.55,1.851 10.553,4.137 z"
           id="path4256"
           inkscape:connector-curvature="0"
           style="fill:#d4d4fc" />
      </g>
      <g
         style="isolation:isolate;mix-blend-mode:multiply;opacity:0.5"
         id="g4364">
        <path
           d="m 119.749,46.89 c 0,2.74 6.084,4.965 13.589,4.966 l 114.392,0.027 c 7.511,0 13.6,-2.221 13.6,-4.96 L 261.385,5.161 C 261.39,2.419 255.308,0.2 247.8,0.193 L 133.405,0.167 c -7.5,0 -13.6,2.219 -13.6,4.961 z"
           id="path4260"
           inkscape:connector-curvature="0"
           style="fill:#ffffff" />
        <path
           d="m 120.264,46.738 c 0,2.731 6.064,4.948 13.545,4.95 l 114.019,0.026 c 7.487,0 13.554,-2.213 13.557,-4.943 L 261.44,5.144 c 0,-2.733 -6.058,-4.949 -13.544,-4.951 L 133.876,0.167 c -7.48,0 -13.554,2.212 -13.557,4.945 z"
           id="path4262"
           inkscape:connector-curvature="0"
           style="fill:#fefeff" />
        <path
           d="m 120.779,46.586 c 0,2.722 6.044,4.932 13.5,4.934 l 113.647,0.026 c 7.461,0 13.509,-2.206 13.512,-4.928 l 0.055,-41.49 c 0,-2.724 -6.039,-4.933 -13.5,-4.935 L 134.347,0.167 c -7.456,0 -13.51,2.205 -13.513,4.929 z"
           id="path4264"
           inkscape:connector-curvature="0"
           style="fill:#fdfdff" />
        <path
           d="m 121.3,46.434 c 0,2.713 6.024,4.916 13.456,4.917 l 113.274,0.027 c 7.437,0 13.465,-2.2 13.468,-4.912 l 0.054,-41.354 c 0,-2.715 -6.018,-4.917 -13.455,-4.919 L 134.817,0.167 c -7.431,0 -13.465,2.2 -13.468,4.913 z"
           id="path4266"
           inkscape:connector-curvature="0"
           style="fill:#fcfcff" />
        <path
           d="m 121.81,46.282 c 0,2.7 6,4.9 13.411,4.9 l 112.9,0.026 c 7.413,0 13.421,-2.191 13.424,-4.9 L 261.6,5.1 c 0,-2.706 -6,-4.9 -13.411,-4.9 L 135.288,0.167 c -7.407,0 -13.421,2.19 -13.424,4.9 z"
           id="path4268"
           inkscape:connector-curvature="0"
           style="fill:#fcfcff" />
        <path
           d="m 122.325,46.13 c 0,2.7 5.984,4.883 13.367,4.885 l 112.53,0.026 c 7.388,0 13.376,-2.184 13.379,-4.879 L 261.655,5.08 c 0,-2.7 -5.979,-4.885 -13.367,-4.887 L 135.759,0.167 c -7.383,0 -13.377,2.183 -13.38,4.881 z"
           id="path4270"
           inkscape:connector-curvature="0"
           style="fill:#fbfbff" />
        <path
           d="m 122.84,45.977 c 0,2.687 5.965,4.868 13.323,4.87 l 112.157,0.026 c 7.363,0 13.332,-2.177 13.335,-4.864 l 0.054,-40.945 c 0,-2.689 -5.959,-4.869 -13.323,-4.871 L 136.23,0.167 c -7.359,0 -13.333,2.176 -13.336,4.865 z"
           id="path4272"
           inkscape:connector-curvature="0"
           style="fill:#fafaff" />
        <path
           d="m 123.355,45.825 c 0,2.678 5.945,4.852 13.279,4.853 l 111.784,0.026 c 7.339,0 13.288,-2.169 13.291,-4.847 l 0.054,-40.81 c 0,-2.679 -5.94,-4.852 -13.279,-4.854 L 136.7,0.168 c -7.334,0 -13.288,2.168 -13.291,4.848 z"
           id="path4274"
           inkscape:connector-curvature="0"
           style="fill:#f9f9ff" />
        <path
           d="m 123.87,45.673 c 0,2.669 5.925,4.835 13.235,4.837 l 111.412,0.026 c 7.314,0 13.243,-2.162 13.246,-4.831 l 0.053,-40.674 c 0,-2.67 -5.919,-4.836 -13.234,-4.838 L 137.171,0.168 c -7.31,0 -13.244,2.161 -13.247,4.832 z"
           id="path4276"
           inkscape:connector-curvature="0"
           style="fill:#f8f8ff" />
        <path
           d="m 124.386,45.521 c 0,2.66 5.905,4.819 13.19,4.821 l 111.039,0.025 c 7.29,0 13.2,-2.155 13.2,-4.814 l 0.053,-40.538 c 0,-2.662 -5.9,-4.82 -13.189,-4.822 L 137.642,0.168 c -7.286,0 -13.2,2.154 -13.2,4.816 z"
           id="path4278"
           inkscape:connector-curvature="0"
           style="fill:#f7f7fe" />
        <path
           d="m 124.9,45.369 c 0,2.651 5.885,4.8 13.146,4.805 l 110.666,0.025 c 7.265,0 13.155,-2.148 13.158,-4.8 L 261.924,5 c 0,-2.653 -5.88,-4.8 -13.145,-4.806 L 138.113,0.168 c -7.262,0 -13.156,2.147 -13.159,4.8 z"
           id="path4280"
           inkscape:connector-curvature="0"
           style="fill:#f7f7fe" />
        <path
           d="m 125.416,45.217 c 0,2.642 5.865,4.787 13.1,4.788 l 110.294,0.026 c 7.24,0 13.11,-2.141 13.113,-4.783 l 0.053,-40.265 c 0,-2.644 -5.861,-4.788 -13.1,-4.79 L 138.583,0.168 c -7.237,0 -13.111,2.14 -13.114,4.783 z"
           id="path4282"
           inkscape:connector-curvature="0"
           style="fill:#f6f6fe" />
        <path
           d="m 125.931,45.065 c 0,2.633 5.846,4.77 13.058,4.772 l 109.921,0.025 c 7.216,0 13.066,-2.133 13.069,-4.766 l 0.053,-40.129 c 0,-2.635 -5.841,-4.772 -13.057,-4.774 L 139.054,0.168 c -7.212,0 -13.067,2.132 -13.07,4.767 z"
           id="path4284"
           inkscape:connector-curvature="0"
           style="fill:#f5f5fe" />
        <path
           d="m 126.446,44.913 c 0,2.624 5.826,4.754 13.014,4.756 l 109.548,0.025 c 7.192,0 13.022,-2.126 13.025,-4.75 l 0.052,-39.993 c 0,-2.626 -5.821,-4.756 -13.012,-4.758 L 139.525,0.168 c -7.188,0 -13.023,2.125 -13.026,4.751 z"
           id="path4286"
           inkscape:connector-curvature="0"
           style="fill:#f4f4fe" />
        <path
           d="m 126.962,44.761 c 0,2.615 5.8,4.738 12.969,4.74 l 109.176,0.025 c 7.166,0 12.977,-2.119 12.98,-4.734 l 0.052,-39.858 c 0,-2.617 -5.8,-4.739 -12.968,-4.741 L 140,0.168 c -7.164,0 -12.979,2.118 -12.982,4.735 z"
           id="path4288"
           inkscape:connector-curvature="0"
           style="fill:#f3f3fe" />
        <path
           d="m 127.477,44.608 c 0,2.607 5.786,4.723 12.925,4.724 l 108.8,0.025 c 7.142,0 12.933,-2.111 12.936,-4.718 L 262.19,4.918 C 262.2,2.31 256.411,0.2 249.269,0.193 L 140.466,0.168 c -7.139,0 -12.934,2.111 -12.937,4.719 z"
           id="path4290"
           inkscape:connector-curvature="0"
           style="fill:#f2f2fe" />
        <path
           d="m 127.992,44.456 c 0,2.6 5.766,4.706 12.881,4.708 l 108.43,0.025 c 7.118,0 12.889,-2.1 12.892,-4.7 L 262.247,4.9 c 0,-2.6 -5.762,-4.707 -12.879,-4.709 L 140.937,0.168 c -7.115,0 -12.89,2.1 -12.893,4.7 z"
           id="path4292"
           inkscape:connector-curvature="0"
           style="fill:#f2f2fe" />
        <path
           d="m 128.507,44.3 c 0,2.589 5.746,4.69 12.837,4.692 l 108.058,0.025 c 7.093,0 12.844,-2.1 12.847,-4.686 L 262.3,4.886 C 262.3,2.3 256.559,0.2 249.466,0.193 L 141.408,0.169 c -7.091,0 -12.846,2.1 -12.849,4.686 z"
           id="path4294"
           inkscape:connector-curvature="0"
           style="fill:#f1f1fe" />
        <path
           d="m 129.022,44.152 c 0,2.58 5.726,4.674 12.793,4.675 L 249.5,48.852 c 7.068,0 12.8,-2.09 12.8,-4.669 L 262.351,4.87 c 0,-2.582 -5.722,-4.675 -12.79,-4.677 L 141.879,0.169 c -7.067,0 -12.8,2.089 -12.8,4.67 z"
           id="path4296"
           inkscape:connector-curvature="0"
           style="fill:#f0f0fe" />
        <path
           d="m 129.537,44 c 0,2.571 5.707,4.658 12.749,4.659 l 107.312,0.025 c 7.044,0 12.756,-2.083 12.759,-4.653 l 0.051,-39.177 c 0,-2.573 -5.7,-4.659 -12.746,-4.661 L 142.349,0.169 c -7.042,0 -12.757,2.082 -12.76,4.654 z"
           id="path4298"
           inkscape:connector-curvature="0"
           style="fill:#efeffe" />
        <path
           d="m 130.053,43.848 c 0,2.562 5.686,4.641 12.7,4.643 l 106.94,0.025 c 7.019,0 12.711,-2.076 12.714,-4.638 l 0.051,-39.041 c 0,-2.563 -5.683,-4.642 -12.7,-4.644 L 142.82,0.169 c -7.018,0 -12.713,2.074 -12.716,4.638 z"
           id="path4300"
           inkscape:connector-curvature="0"
           style="fill:#eeeefe" />
        <path
           d="m 130.568,43.7 c 0,2.553 5.666,4.625 12.66,4.627 l 106.567,0.024 c 7,0 12.667,-2.068 12.67,-4.621 l 0.051,-38.9 c 0,-2.554 -5.663,-4.626 -12.658,-4.627 L 143.291,0.169 c -6.994,0 -12.669,2.067 -12.672,4.622 z"
           id="path4302"
           inkscape:connector-curvature="0"
           style="fill:#ededfe" />
        <path
           d="m 131.083,43.544 c 0,2.544 5.647,4.609 12.616,4.61 l 106.2,0.025 c 6.969,0 12.622,-2.061 12.625,-4.605 l 0.051,-38.769 c 0,-2.546 -5.644,-4.61 -12.614,-4.611 L 143.762,0.169 c -6.969,0 -12.625,2.06 -12.628,4.606 z"
           id="path4304"
           inkscape:connector-curvature="0"
           style="fill:#ececfe" />
        <path
           d="m 131.6,43.391 c 0,2.536 5.627,4.594 12.572,4.595 l 105.822,0.025 c 6.945,0 12.578,-2.054 12.581,-4.589 l 0.05,-38.633 C 262.627,2.252 257,0.2 250.054,0.194 L 144.232,0.169 c -6.944,0 -12.58,2.053 -12.583,4.59 z"
           id="path4306"
           inkscape:connector-curvature="0"
           style="fill:#ececfe" />
        <path
           d="m 132.113,43.239 c 0,2.527 5.607,4.577 12.528,4.579 l 105.449,0.024 c 6.921,0 12.534,-2.046 12.537,-4.573 l 0.05,-38.5 c 0,-2.528 -5.6,-4.578 -12.524,-4.579 L 144.7,0.169 c -6.92,0 -12.536,2.046 -12.539,4.574 z"
           id="path4308"
           inkscape:connector-curvature="0"
           style="fill:#ebebfe" />
        <path
           d="m 132.628,43.087 c 0,2.518 5.588,4.561 12.484,4.563 l 105.077,0.024 c 6.9,0 12.489,-2.039 12.492,-4.557 l 0.05,-38.36 c 0,-2.519 -5.584,-4.562 -12.48,-4.563 L 145.174,0.169 c -6.9,0 -12.492,2.039 -12.5,4.558 z"
           id="path4310"
           inkscape:connector-curvature="0"
           style="fill:#eaeafe" />
        <path
           d="m 133.144,42.935 c 0,2.509 5.567,4.545 12.439,4.546 l 104.7,0.024 c 6.872,0 12.445,-2.031 12.448,-4.54 l 0.05,-38.225 c 0,-2.509 -5.565,-4.545 -12.436,-4.546 l -104.7,-0.025 c -6.872,0 -12.448,2.032 -12.451,4.542 z"
           id="path4312"
           inkscape:connector-curvature="0"
           style="fill:#e9e9fd" />
        <path
           d="m 133.659,42.783 c 0,2.5 5.547,4.529 12.4,4.53 l 104.331,0.024 c 6.847,0 12.4,-2.024 12.4,-4.524 l 0.05,-38.089 c 0,-2.5 -5.545,-4.529 -12.392,-4.53 L 146.115,0.17 c -6.847,0 -12.4,2.024 -12.406,4.525 z"
           id="path4314"
           inkscape:connector-curvature="0"
           style="fill:#e8e8fd" />
        <path
           d="m 134.174,42.631 c 0,2.491 5.528,4.512 12.351,4.514 l 103.959,0.024 c 6.822,0 12.356,-2.018 12.359,-4.509 l 0.049,-37.952 c 0,-2.492 -5.524,-4.513 -12.347,-4.514 L 146.586,0.17 c -6.823,0 -12.359,2.016 -12.362,4.509 z"
           id="path4316"
           inkscape:connector-curvature="0"
           style="fill:#e7e7fd" />
        <path
           d="m 134.689,42.479 c 0,2.482 5.508,4.5 12.307,4.5 L 250.582,47 c 6.8,0 12.312,-2.01 12.315,-4.492 l 0.049,-37.816 c 0,-2.483 -5.505,-4.5 -12.3,-4.5 L 147.057,0.17 c -6.8,0 -12.315,2.009 -12.318,4.492 z"
           id="path4318"
           inkscape:connector-curvature="0"
           style="fill:#e7e7fd" />
        <path
           d="m 135.2,42.327 c 0,2.473 5.488,4.48 12.263,4.481 l 103.213,0.024 c 6.774,0 12.268,-2 12.271,-4.476 L 263,4.676 C 263,2.2 257.515,0.2 250.741,0.194 L 147.528,0.17 c -6.775,0 -12.271,2 -12.274,4.476 z"
           id="path4320"
           inkscape:connector-curvature="0"
           style="fill:#e6e6fd" />
        <path
           d="m 135.719,42.174 c 0,2.465 5.469,4.464 12.219,4.466 l 102.841,0.024 c 6.748,0 12.223,-2 12.226,-4.46 L 263.054,4.66 c 0,-2.466 -5.466,-4.465 -12.215,-4.466 L 148,0.17 c -6.75,0 -12.226,2 -12.229,4.46 z"
           id="path4322"
           inkscape:connector-curvature="0"
           style="fill:#e5e5fd" />
        <path
           d="m 136.235,42.022 c 0,2.456 5.448,4.448 12.174,4.45 l 102.468,0.023 c 6.724,0 12.179,-1.988 12.182,-4.443 l 0.049,-37.408 c 0,-2.457 -5.446,-4.449 -12.17,-4.45 L 148.469,0.17 c -6.726,0 -12.182,1.988 -12.185,4.444 z"
           id="path4324"
           inkscape:connector-curvature="0"
           style="fill:#e4e4fd" />
        <path
           d="m 136.75,41.87 c 0,2.447 5.428,4.432 12.129,4.433 l 102.1,0.024 c 6.7,0 12.135,-1.981 12.138,-4.428 l 0.049,-37.272 c 0,-2.447 -5.427,-4.432 -12.126,-4.433 L 148.94,0.17 c -6.7,0 -12.138,1.981 -12.141,4.428 z"
           id="path4326"
           inkscape:connector-curvature="0"
           style="fill:#e3e3fd" />
        <path
           d="m 137.265,41.718 c 0,2.438 5.409,4.416 12.085,4.417 l 101.724,0.024 c 6.675,0 12.09,-1.974 12.093,-4.412 l 0.048,-37.136 c 0,-2.438 -5.406,-4.416 -12.081,-4.417 L 149.411,0.17 c -6.677,0 -12.094,1.974 -12.1,4.412 z"
           id="path4328"
           inkscape:connector-curvature="0"
           style="fill:#e2e2fd" />
        <path
           d="m 137.78,41.566 c 0,2.429 5.389,4.4 12.041,4.4 l 101.351,0.023 c 6.65,0 12.046,-1.966 12.049,-4.4 l 0.048,-37 c 0,-2.43 -5.387,-4.4 -12.037,-4.4 L 149.881,0.17 c -6.652,0 -12.049,1.967 -12.053,4.4 z"
           id="path4330"
           inkscape:connector-curvature="0"
           style="fill:#e1e1fd" />
        <path
           d="m 138.295,41.414 c 0,2.42 5.369,4.383 12,4.385 l 100.978,0.023 c 6.626,0 12,-1.959 12,-4.379 l 0.048,-36.864 c 0,-2.421 -5.367,-4.384 -11.993,-4.385 L 150.352,0.17 c -6.628,0 -12,1.959 -12.009,4.38 z"
           id="path4332"
           inkscape:connector-curvature="0"
           style="fill:#e1e1fd" />
        <path
           d="m 138.81,41.262 c 0,2.411 5.349,4.367 11.953,4.368 l 100.606,0.024 c 6.6,0 11.957,-1.953 11.96,-4.364 l 0.048,-36.727 c 0,-2.412 -5.348,-4.368 -11.949,-4.369 L 150.823,0.171 c -6.6,0 -11.961,1.951 -11.965,4.363 z"
           id="path4334"
           inkscape:connector-curvature="0"
           style="fill:#e0e0fd" />
        <path
           d="m 139.326,41.11 c 0,2.4 5.329,4.351 11.908,4.352 l 100.233,0.023 c 6.577,0 11.913,-1.945 11.916,-4.347 l 0.048,-36.591 c 0,-2.4 -5.328,-4.352 -11.9,-4.353 L 151.294,0.171 c -6.58,0 -11.917,1.944 -11.921,4.347 z"
           id="path4336"
           inkscape:connector-curvature="0"
           style="fill:#dfdffd" />
        <path
           d="m 139.841,40.957 c 0,2.394 5.309,4.335 11.864,4.337 l 99.86,0.023 c 6.552,0 11.869,-1.938 11.872,-4.331 L 263.484,4.53 c 0,-2.393 -5.308,-4.335 -11.859,-4.336 L 151.764,0.171 c -6.555,0 -11.872,1.937 -11.876,4.331 z"
           id="path4338"
           inkscape:connector-curvature="0"
           style="fill:#dedefd" />
        <path
           d="m 140.356,40.805 c 0,2.385 5.289,4.319 11.82,4.321 l 99.488,0.023 c 6.527,0 11.824,-1.931 11.827,-4.315 l 0.047,-36.32 c 0,-2.385 -5.288,-4.319 -11.815,-4.32 L 152.235,0.171 C 145.7,0.169 140.407,2.1 140.4,4.486 Z"
           id="path4340"
           inkscape:connector-curvature="0"
           style="fill:#ddddfd" />
        <path
           d="m 140.871,40.653 c 0,2.376 5.27,4.3 11.776,4.3 l 99.115,0.023 c 6.5,0 11.779,-1.923 11.783,-4.3 L 263.592,4.5 c 0,-2.376 -5.268,-4.3 -11.771,-4.3 L 152.706,0.171 c -6.507,0 -11.784,1.923 -11.788,4.3 z"
           id="path4342"
           inkscape:connector-curvature="0"
           style="fill:#dcdcfd" />
        <path
           d="m 141.386,40.5 c 0,2.367 5.25,4.287 11.732,4.288 l 98.743,0.023 c 6.478,0 11.734,-1.916 11.738,-4.283 l 0.047,-36.047 c 0,-2.367 -5.249,-4.287 -11.727,-4.288 L 153.177,0.171 c -6.483,0 -11.74,1.916 -11.744,4.283 z"
           id="path4344"
           inkscape:connector-curvature="0"
           style="fill:#dcdcfd" />
        <path
           d="m 141.9,40.349 c 0,2.358 5.23,4.27 11.688,4.272 l 98.37,0.022 c 6.453,0 11.69,-1.908 11.694,-4.266 L 263.7,4.466 c 0,-2.358 -5.229,-4.271 -11.683,-4.272 l -98.37,-0.023 c -6.457,0 -11.695,1.909 -11.7,4.267 z"
           id="path4346"
           inkscape:connector-curvature="0"
           style="fill:#dbdbfc" />
        <path
           d="m 142.417,40.2 c 0,2.349 5.21,4.254 11.643,4.256 l 98,0.022 c 6.429,0 11.646,-1.9 11.65,-4.25 l 0.046,-35.775 c 0,-2.35 -5.209,-4.255 -11.638,-4.256 l -98,-0.023 c -6.433,0 -11.652,1.9 -11.655,4.251 z"
           id="path4348"
           inkscape:connector-curvature="0"
           style="fill:#dadafc" />
        <path
           d="m 142.932,40.045 c 0,2.34 5.19,4.238 11.6,4.239 l 97.625,0.023 c 6.4,0 11.6,-1.894 11.605,-4.234 l 0.046,-35.64 c 0,-2.34 -5.189,-4.238 -11.594,-4.239 L 154.589,0.171 c -6.409,0 -11.608,1.894 -11.611,4.235 z"
           id="path4350"
           inkscape:connector-curvature="0"
           style="fill:#d9d9fc" />
        <path
           d="m 143.447,39.893 c 0,2.331 5.17,4.222 11.555,4.223 l 97.252,0.022 c 6.38,0 11.557,-1.886 11.561,-4.218 l 0.046,-35.5 c 0,-2.331 -5.17,-4.222 -11.55,-4.223 L 155.06,0.171 c -6.385,0 -11.564,1.887 -11.567,4.219 z"
           id="path4352"
           inkscape:connector-curvature="0"
           style="fill:#d8d8fc" />
        <path
           d="m 143.962,39.741 c 0,2.322 5.151,4.2 11.511,4.207 l 96.879,0.022 c 6.355,0 11.513,-1.88 11.517,-4.2 L 263.915,4.4 c 0,-2.322 -5.15,-4.206 -11.505,-4.207 L 155.53,0.171 c -6.36,0 -11.519,1.88 -11.522,4.2 z"
           id="path4354"
           inkscape:connector-curvature="0"
           style="fill:#d7d7fc" />
        <path
           d="m 144.477,39.588 c 0,2.314 5.131,4.19 11.467,4.192 l 96.507,0.022 c 6.33,0 11.468,-1.873 11.471,-4.186 l 0.047,-35.231 c 0,-2.314 -5.131,-4.19 -11.461,-4.191 L 156,0.172 c -6.336,0 -11.475,1.872 -11.478,4.185 z"
           id="path4356"
           inkscape:connector-curvature="0"
           style="fill:#d7d7fc" />
        <path
           d="m 144.992,39.436 c 0,2.3 5.111,4.174 11.423,4.175 l 96.134,0.022 c 6.306,0 11.424,-1.865 11.427,-4.169 l 0.046,-35.095 c 0,-2.3 -5.11,-4.174 -11.416,-4.175 L 156.472,0.172 c -6.312,0 -11.431,1.865 -11.434,4.169 z"
           id="path4358"
           inkscape:connector-curvature="0"
           style="fill:#d6d6fc" />
        <path
           d="m 145.508,39.284 c 0,2.3 5.091,4.158 11.378,4.159 l 95.761,0.022 c 6.282,0 11.38,-1.858 11.383,-4.154 l 0.046,-34.958 c 0,-2.3 -5.091,-4.158 -11.372,-4.159 L 156.943,0.172 c -6.288,0 -11.387,1.858 -11.39,4.153 z"
           id="path4360"
           inkscape:connector-curvature="0"
           style="fill:#d5d5fc" />
        <path
           d="m 146.023,39.132 c 0,2.287 5.071,4.141 11.334,4.143 l 95.389,0.022 c 6.257,0 11.335,-1.851 11.338,-4.138 L 264.13,4.337 C 264.133,2.05 259.059,0.2 252.8,0.194 L 157.413,0.172 c -6.263,0 -11.342,1.851 -11.345,4.137 z"
           id="path4362"
           inkscape:connector-curvature="0"
           style="fill:#d4d4fc" />
      </g>
      <rect
         width="267.035"
         height="47.828999"
         rx="5.8639998"
         id="rect4366"
         x="0"
         y="0"
         style="isolation:isolate;fill:#ffffff" />
      <rect
         x="1.115"
         y="0.29699993"
         width="264.73499"
         height="47.048"
         rx="5.7909999"
         id="rect4368"
         style="isolation:isolate;fill:url(#linearGradient71220);fill-opacity:1" />
      <g
         style="isolation:isolate"
         id="g4416">
        <path
           d="m 56.245,29.117 -0.53,-1.839 h -2.51 l -0.562,1.839 H 50.308 L 53.2,19.786 h 3.04 l 2.938,9.331 z M 53.7,25.241 h 1.51 l -0.757,-2.707 z"
           id="path4370"
           inkscape:connector-curvature="0"
           style="fill:#ffffff" />
        <path
           d="m 68.491,29.117 h -3.147 l -1.62,-3.527 -0.971,1.373 v 2.154 h -2.711 v -9.331 h 2.711 v 3.858 l 2.584,-3.858 h 2.584 L 65.555,23.2 Z"
           id="path4372"
           inkscape:connector-curvature="0"
           style="fill:#ffffff" />
        <path
           d="m 73.246,22.021 v 7.1 h -2.724 v -7.1 H 68.58 v -2.235 h 6.609 v 2.235 z"
           id="path4374"
           inkscape:connector-curvature="0"
           style="fill:#ffffff" />
        <path
           d="m 83.6,19.786 v 6.179 a 2.929,2.929 0 0 1 -1.047,2.527 4.5,4.5 0 0 1 -2.727,0.768 4.935,4.935 0 0 1 -2.845,-0.738 2.707,2.707 0 0 1 -1.074,-2.406 v -6.33 h 2.923 v 5.995 a 1.406,1.406 0 0 0 0.284,0.977 1.183,1.183 0 0 0 0.908,0.308 1.493,1.493 0 0 0 0.851,-0.223 0.855,0.855 0 0 0 0.4,-0.5 5.9,5.9 0 0 0 0.065,-1.094 v -5.463 z"
           id="path4376"
           inkscape:connector-curvature="0"
           style="fill:#ffffff" />
        <path
           d="m 92.189,26.888 v 2.229 H 85.14 v -9.331 h 7.049 v 2.153 H 87.96 v 1.353 h 3.418 v 2.072 H 87.96 v 1.524 z"
           id="path4378"
           inkscape:connector-curvature="0"
           style="fill:#ffffff" />
        <path
           d="m 99.9,26.827 v 2.29 H 93.328 V 19.786 H 96.2 v 7.041 z"
           id="path4380"
           inkscape:connector-curvature="0"
           style="fill:#ffffff" />
        <path
           d="m 107.466,26.827 v 2.29 H 100.9 v -9.331 h 2.875 v 7.041 z"
           id="path4382"
           inkscape:connector-curvature="0"
           style="fill:#ffffff" />
        <path
           d="m 115.517,26.888 v 2.229 h -7.049 v -9.331 h 7.049 v 2.153 h -4.229 v 1.353 h 3.418 v 2.072 h -3.418 v 1.524 z"
           id="path4384"
           inkscape:connector-curvature="0"
           style="fill:#ffffff" />
        <path
           d="m 128.277,19.786 -2.907,9.331 h -2.931 L 119.4,19.786 h 3.029 l 1.483,5.085 q 0.151,0.452 0.269,0.889 l 1.732,-5.974 z"
           id="path4386"
           inkscape:connector-curvature="0"
           style="fill:#ffffff" />
        <path
           d="m 136.188,26.888 v 2.229 h -7.048 v -9.331 h 7.048 v 2.153 h -4.228 v 1.353 h 3.418 v 2.072 h -3.418 v 1.524 z"
           id="path4388"
           inkscape:connector-curvature="0"
           style="fill:#ffffff" />
        <path
           d="m 145.665,29.117 h -3.187 l -1.369,-3.569 H 140.2 v 3.569 h -2.875 v -9.331 h 4.892 a 3.8,3.8 0 0 1 2.516,0.754 2.483,2.483 0 0 1 0.9,1.994 2.987,2.987 0 0 1 -0.329,1.424 2.774,2.774 0 0 1 -1.332,1.091 z M 140.2,23.552 h 1.228 a 1.516,1.516 0 0 0 0.871,-0.225 0.751,0.751 0 0 0 0.33,-0.664 q 0,-0.894 -1.105,-0.895 H 140.2 Z"
           id="path4390"
           inkscape:connector-curvature="0"
           style="fill:#ffffff" />
        <path
           d="m 152.191,29.117 -0.529,-1.839 h -2.51 l -0.563,1.839 h -2.335 l 2.892,-9.331 h 3.041 l 2.937,9.331 z m -2.551,-3.876 h 1.516 l -0.758,-2.707 z"
           id="path4392"
           inkscape:connector-curvature="0"
           style="fill:#ffffff" />
        <path
           d="m 164,29.117 h -2.339 l -2.567,-4.123 a 15.521,15.521 0 0 1 -1,-1.927 6.47,6.47 0 0 1 0.227,1.531 v 4.519 h -2.334 v -9.331 h 2.718 l 2.182,3.418 A 12.856,12.856 0 0 1 161.876,25 13.575,13.575 0 0 1 161.658,22.552 V 19.786 H 164 Z"
           id="path4394"
           inkscape:connector-curvature="0"
           style="fill:#ffffff" />
        <path
           d="m 164.663,26.416 2.669,-0.478 a 1.587,1.587 0 0 0 1.73,1.128 q 1.084,0 1.084,-0.574 a 0.533,0.533 0 0 0 -0.25,-0.469 2.723,2.723 0 0 0 -0.9,-0.3 6.135,6.135 0 0 1 -3.164,-1.23 2.546,2.546 0 0 1 -0.7,-1.784 2.791,2.791 0 0 1 1.006,-2.2 4.28,4.28 0 0 1 2.893,-0.875 3.659,3.659 0 0 1 3.781,2.29 l -2.381,0.718 a 1.458,1.458 0 0 0 -1.5,-0.937 c -0.627,0 -0.939,0.194 -0.939,0.581 a 0.459,0.459 0 0 0 0.213,0.4 2.634,2.634 0 0 0 0.823,0.273 17.3,17.3 0 0 1 2.389,0.626 2.62,2.62 0 0 1 1.653,2.489 2.752,2.752 0 0 1 -1.153,2.3 4.86,4.86 0 0 1 -3.027,0.879 q -3.424,0.007 -4.227,-2.837 z"
           id="path4396"
           inkscape:connector-curvature="0"
           style="fill:#ffffff" />
        <path
           d="m 178.128,22.021 v 7.1 H 175.4 v -7.1 h -1.943 v -2.235 h 6.61 v 2.235 z"
           id="path4398"
           inkscape:connector-curvature="0"
           style="fill:#ffffff" />
        <path
           d="m 185.544,29.117 -0.529,-1.839 h -2.51 l -0.562,1.839 h -2.334 l 2.892,-9.331 h 3.039 l 2.94,9.331 z M 183,25.241 h 1.515 l -0.758,-2.707 z"
           id="path4400"
           inkscape:connector-curvature="0"
           style="fill:#ffffff" />
        <path
           d="m 195.911,26.827 v 2.29 h -6.568 v -9.331 h 2.875 v 7.041 z"
           id="path4402"
           inkscape:connector-curvature="0"
           style="fill:#ffffff" />
        <path
           d="m 200.1,22.021 v 7.1 h -2.725 v -7.1 h -1.942 v -2.235 h 6.609 v 2.235 z"
           id="path4404"
           inkscape:connector-curvature="0"
           style="fill:#ffffff" />
        <path
           d="m 210.46,19.786 v 6.179 a 2.929,2.929 0 0 1 -1.047,2.527 4.5,4.5 0 0 1 -2.728,0.768 4.932,4.932 0 0 1 -2.844,-0.738 2.707,2.707 0 0 1 -1.074,-2.406 v -6.33 h 2.924 v 5.995 a 1.411,1.411 0 0 0 0.283,0.977 1.182,1.182 0 0 0 0.907,0.308 1.5,1.5 0 0 0 0.852,-0.223 0.851,0.851 0 0 0 0.4,-0.5 5.9,5.9 0 0 0 0.065,-1.094 v -5.463 z"
           id="path4406"
           inkscape:connector-curvature="0"
           style="fill:#ffffff" />
        <path
           d="m 220.006,29.117 h -2.34 L 215.1,24.994 a 15.521,15.521 0 0 1 -1,-1.927 6.514,6.514 0 0 1 0.226,1.531 v 4.519 H 212 v -9.331 h 2.718 L 216.9,23.2 a 13.178,13.178 0 0 1 0.986,1.8 13.575,13.575 0 0 1 -0.22,-2.448 v -2.766 h 2.34 z"
           id="path4408"
           inkscape:connector-curvature="0"
           style="fill:#ffffff" />
        <path
           d="m 229.732,23.887 v 5.23 h -1.407 a 5.629,5.629 0 0 0 -0.378,-0.978 3.068,3.068 0 0 1 -2.58,1.121 3.88,3.88 0 0 1 -2.979,-1.26 4.836,4.836 0 0 1 -1.167,-3.415 5.481,5.481 0 0 1 1.129,-3.516 4.025,4.025 0 0 1 3.36,-1.426 4.086,4.086 0 0 1 2.7,0.848 3.982,3.982 0 0 1 1.325,2.406 l -2.787,0.273 q -0.206,-1.455 -1.283,-1.456 -1.415,0 -1.415,2.68 a 3.457,3.457 0 0 0 0.454,2.136 1.409,1.409 0 0 0 1.1,0.516 1.317,1.317 0 0 0 0.889,-0.314 1.093,1.093 0 0 0 0.375,-0.861 h -1.551 v -1.984 z"
           id="path4410"
           inkscape:connector-curvature="0"
           style="fill:#ffffff" />
        <path
           d="m 238.3,26.888 v 2.229 h -7.048 v -9.331 h 7.048 v 2.153 h -4.227 v 1.353 h 3.418 v 2.072 h -3.418 v 1.524 z"
           id="path4412"
           inkscape:connector-curvature="0"
           style="fill:#ffffff" />
        <path
           d="m 247.445,29.117 h -2.34 l -2.567,-4.123 a 15.8,15.8 0 0 1 -1,-1.927 6.419,6.419 0 0 1 0.227,1.531 v 4.519 h -2.333 v -9.331 h 2.718 l 2.182,3.418 a 12.961,12.961 0 0 1 0.992,1.796 13.485,13.485 0 0 1 -0.219,-2.448 v -2.766 h 2.34 z"
           id="path4414"
           inkscape:connector-curvature="0"
           style="fill:#ffffff" />
      </g>
      <path
         d="M 31.152,36.577 A 11.874,11.874 0 1 1 43,24.749 11.872,11.872 0 0 1 31.152,36.577 Z"
         id="path4418"
         inkscape:connector-curvature="0"
         style="isolation:isolate;fill:#ffffff" />
      <path
         d="m 37.336,24.691 -9.708,5.661 V 19.116 Z"
         id="path4420"
         style="isolation:isolate;fill:#375e9a;fill-opacity:1"
         inkscape:connector-curvature="0" />
    </g>
  </g>
</svg>
