<?xml version="1.0" encoding="UTF-8" standalone="no"?>
<svg
   xmlns:dc="http://purl.org/dc/elements/1.1/"
   xmlns:cc="http://creativecommons.org/ns#"
   xmlns:rdf="http://www.w3.org/1999/02/22-rdf-syntax-ns#"
   xmlns:svg="http://www.w3.org/2000/svg"
   xmlns="http://www.w3.org/2000/svg"
   xmlns:xlink="http://www.w3.org/1999/xlink"
   xmlns:sodipodi="http://sodipodi.sourceforge.net/DTD/sodipodi-0.dtd"
   xmlns:inkscape="http://www.inkscape.org/namespaces/inkscape"
   viewBox="0 0 62 61"
   version="1.1"
   id="svg3407"
   sodipodi:docname="A16_kontakt_dunkel_a.svg"
   inkscape:version="0.92.4 (5da689c313, 2019-01-14)">
  <metadata
     id="metadata3411">
    <rdf:RDF>
      <cc:Work
         rdf:about="">
        <dc:format>image/svg+xml</dc:format>
        <dc:type
           rdf:resource="http://purl.org/dc/dcmitype/StillImage" />
        <dc:title>Element 29</dc:title>
      </cc:Work>
    </rdf:RDF>
  </metadata>
  <sodipodi:namedview
     pagecolor="#ffffff"
     bordercolor="#666666"
     borderopacity="1"
     objecttolerance="10"
     gridtolerance="10"
     guidetolerance="10"
     inkscape:pageopacity="0"
     inkscape:pageshadow="2"
     inkscape:window-width="1310"
     inkscape:window-height="565"
     id="namedview3409"
     showgrid="false"
     inkscape:zoom="4"
     inkscape:cx="48.633889"
     inkscape:cy="30.5"
     inkscape:window-x="2005"
     inkscape:window-y="180"
     inkscape:window-maximized="0"
     inkscape:current-layer="svg3407" />
  <defs
     id="defs3283">
    <linearGradient
       gradientUnits="userSpaceOnUse"
       y2="44.278"
       x2="57.988998"
       y1="14.278"
       x1="3.7470016"
       data-name="Unbenannter Verlauf 7"
       id="linearGradient7753">
      <stop
         style="stop-color:#b6d0f7;stop-opacity:1"
         id="stop7749"
         stop-color="#5767b6"
         offset="0.14423764" />
      <stop
         style="stop-color:#8db2f0;stop-opacity:1"
         id="stop7751"
         stop-color="#4253a2"
         offset="0.94896406" />
    </linearGradient>
    <linearGradient
       id="Unbenannter_Verlauf_7"
       data-name="Unbenannter Verlauf 7"
       x1="3.7470016"
       y1="14.278"
       x2="57.988998"
       y2="44.278"
       gradientUnits="userSpaceOnUse">
      <stop
         offset="0.14423764"
         stop-color="#5767b6"
         id="stop3276"
         style="stop-color:#c1d8fa;stop-opacity:1" />
      <stop
         offset="0.94896406"
         stop-color="#4253a2"
         id="stop3280"
         style="stop-color:#b6cef7;stop-opacity:1" />
    </linearGradient>
    <linearGradient
       gradientTransform="translate(82.402,-6.918)"
       id="Unbenannter_Verlauf_35"
       data-name="Unbenannter Verlauf 35"
       x1="5.5159998"
       y1="25.311001"
       x2="58.271"
       y2="42.653999"
       gradientUnits="userSpaceOnUse">
      <stop
         offset="0"
         stop-color="#c7d4ff"
         id="stop3828"
         style="stop-color:#d0dff7;stop-opacity:1" />
    </linearGradient>
    <linearGradient
       inkscape:collect="always"
       xlink:href="#linearGradient7753"
       id="linearGradient7690"
       gradientUnits="userSpaceOnUse"
       x1="3.7470016"
       y1="14.278"
       x2="57.988998"
       y2="44.278" />
  </defs>
  <title
     id="title3285">Element 29</title>
  <rect
     width="62"
     height="61"
     id="rect3287"
     x="0"
     y="0"
     style="isolation:isolate;fill:#ffffff" />
  <g
     style="opacity:0.5;isolation:isolate;mix-blend-mode:multiply"
     id="g3393">
    <path
       d="M 2.656,55.3 A 5.649,5.649 0 0 0 8.28,60.967 L 55.614,61 a 5.643,5.643 0 0 0 5.628,-5.659 L 61.261,7.688 A 5.645,5.645 0 0 0 55.638,2.02 L 8.3,1.987 a 5.644,5.644 0 0 0 -5.628,5.66 z"
       id="path3289"
       inkscape:connector-curvature="0"
       style="fill:#ffffff" />
    <path
       d="M 2.793,55.154 A 5.632,5.632 0 0 0 8.4,60.806 l 47.181,0.033 A 5.626,5.626 0 0 0 61.188,55.2 L 61.208,7.678 A 5.63,5.63 0 0 0 55.6,2.02 L 8.422,1.987 A 5.627,5.627 0 0 0 2.813,7.632 Z"
       id="path3291"
       inkscape:connector-curvature="0"
       style="fill:#fefeff" />
    <path
       d="m 2.931,55.008 a 5.614,5.614 0 0 0 5.586,5.636 l 47.026,0.033 a 5.61,5.61 0 0 0 5.592,-5.628 L 61.154,7.657 A 5.613,5.613 0 0 0 55.567,2.02 L 8.541,1.987 A 5.61,5.61 0 0 0 2.95,7.617 Z"
       id="path3293"
       inkscape:connector-curvature="0"
       style="fill:#fdfdff" />
    <path
       d="m 3.068,54.863 a 5.6,5.6 0 0 0 5.568,5.62 l 46.872,0.033 A 5.593,5.593 0 0 0 61.081,54.9 L 61.1,7.642 A 5.6,5.6 0 0 0 55.532,2.02 L 8.66,1.987 A 5.593,5.593 0 0 0 3.087,7.6 Z"
       id="path3295"
       inkscape:connector-curvature="0"
       style="fill:#fcfcff" />
    <path
       d="m 3.205,54.717 a 5.58,5.58 0 0 0 5.55,5.605 l 46.718,0.032 a 5.575,5.575 0 0 0 5.554,-5.6 L 61.046,7.623 A 5.578,5.578 0 0 0 55.5,2.02 L 8.778,1.988 a 5.574,5.574 0 0 0 -5.554,5.6 z"
       id="path3297"
       inkscape:connector-curvature="0"
       style="fill:#fcfcff" />
    <path
       d="m 3.342,54.571 a 5.563,5.563 0 0 0 5.531,5.589 l 46.564,0.033 a 5.559,5.559 0 0 0 5.536,-5.582 l 0.019,-47 A 5.561,5.561 0 0 0 55.461,2.02 L 8.9,1.988 A 5.558,5.558 0 0 0 3.361,7.571 Z"
       id="path3299"
       inkscape:connector-curvature="0"
       style="fill:#fbfbff" />
    <path
       d="M 3.479,54.425 A 5.546,5.546 0 0 0 8.992,60 l 46.41,0.032 a 5.54,5.54 0 0 0 5.517,-5.566 l 0.02,-46.87 A 5.546,5.546 0 0 0 55.425,2.02 L 9.016,1.988 A 5.542,5.542 0 0 0 3.5,7.555 Z"
       id="path3301"
       inkscape:connector-curvature="0"
       style="fill:#fafaff" />
    <path
       d="m 3.616,54.279 a 5.53,5.53 0 0 0 5.5,5.559 l 46.255,0.032 a 5.526,5.526 0 0 0 5.5,-5.551 L 60.885,7.58 A 5.528,5.528 0 0 0 55.39,2.02 L 9.135,1.988 a 5.525,5.525 0 0 0 -5.5,5.552 z"
       id="path3303"
       inkscape:connector-curvature="0"
       style="fill:#f9f9ff" />
    <path
       d="m 3.753,54.133 a 5.513,5.513 0 0 0 5.477,5.543 l 46.1,0.032 a 5.506,5.506 0 0 0 5.481,-5.535 L 60.83,7.564 A 5.511,5.511 0 0 0 55.354,2.02 L 9.254,1.988 A 5.508,5.508 0 0 0 3.772,7.525 Z"
       id="path3305"
       inkscape:connector-curvature="0"
       style="fill:#f8f8ff" />
    <path
       d="m 3.89,53.987 a 5.5,5.5 0 0 0 5.459,5.528 l 45.947,0.032 a 5.491,5.491 0 0 0 5.462,-5.52 L 60.777,7.549 A 5.494,5.494 0 0 0 55.319,2.02 L 9.372,1.988 A 5.491,5.491 0 0 0 3.909,7.509 Z"
       id="path3307"
       inkscape:connector-curvature="0"
       style="fill:#f7f7fe" />
    <path
       d="m 4.027,53.842 a 5.48,5.48 0 0 0 5.44,5.512 L 55.26,59.386 A 5.474,5.474 0 0 0 60.7,53.881 L 60.719,7.533 A 5.476,5.476 0 0 0 55.284,2.02 L 9.491,1.988 A 5.475,5.475 0 0 0 4.046,7.494 Z"
       id="path3309"
       inkscape:connector-curvature="0"
       style="fill:#f7f7fe" />
    <path
       d="m 4.164,53.7 a 5.462,5.462 0 0 0 5.422,5.5 l 45.639,0.032 a 5.458,5.458 0 0 0 5.426,-5.489 L 60.669,7.526 a 5.46,5.46 0 0 0 -5.421,-5.5 L 9.609,1.988 A 5.458,5.458 0 0 0 4.183,7.479 Z"
       id="path3311"
       inkscape:connector-curvature="0"
       style="fill:#f6f6fe" />
    <path
       d="m 4.3,53.55 a 5.445,5.445 0 0 0 5.4,5.481 l 45.484,0.032 A 5.441,5.441 0 0 0 60.6,53.589 L 60.616,7.5 a 5.444,5.444 0 0 0 -5.4,-5.482 L 9.728,1.988 A 5.442,5.442 0 0 0 4.32,7.463 Z"
       id="path3313"
       inkscape:connector-curvature="0"
       style="fill:#f5f5fe" />
    <path
       d="m 4.438,53.4 a 5.429,5.429 0 0 0 5.386,5.47 l 45.33,0.031 a 5.422,5.422 0 0 0 5.389,-5.458 L 60.562,7.487 A 5.427,5.427 0 0 0 55.177,2.02 L 9.847,1.989 a 5.423,5.423 0 0 0 -5.39,5.459 z"
       id="path3315"
       inkscape:connector-curvature="0"
       style="fill:#f4f4fe" />
    <path
       d="m 4.575,53.258 a 5.412,5.412 0 0 0 5.367,5.45 l 45.177,0.032 a 5.406,5.406 0 0 0 5.37,-5.443 L 60.508,7.471 A 5.41,5.41 0 0 0 55.142,2.02 L 9.966,1.989 A 5.407,5.407 0 0 0 4.594,7.432 Z"
       id="path3317"
       inkscape:connector-curvature="0"
       style="fill:#f3f3fe" />
    <path
       d="m 4.712,53.112 a 5.4,5.4 0 0 0 5.349,5.435 l 45.022,0.031 a 5.39,5.39 0 0 0 5.353,-5.427 L 60.454,7.456 A 5.394,5.394 0 0 0 55.106,2.02 L 10.084,1.989 A 5.39,5.39 0 0 0 4.731,7.417 Z"
       id="path3319"
       inkscape:connector-curvature="0"
       style="fill:#f2f2fe" />
    <path
       d="m 4.85,52.966 a 5.378,5.378 0 0 0 5.33,5.42 l 44.868,0.031 a 5.373,5.373 0 0 0 5.334,-5.412 L 60.4,7.44 A 5.375,5.375 0 0 0 55.071,2.02 L 10.2,1.989 A 5.374,5.374 0 0 0 4.868,7.4 Z"
       id="path3321"
       inkscape:connector-curvature="0"
       style="fill:#f2f2fe" />
    <path
       d="m 4.987,52.821 a 5.36,5.36 0 0 0 5.312,5.4 l 44.713,0.031 a 5.355,5.355 0 0 0 5.316,-5.4 L 60.347,7.418 a 5.36,5.36 0 0 0 -5.312,-5.4 L 10.322,1.989 a 5.357,5.357 0 0 0 -5.317,5.4 z"
       id="path3323"
       inkscape:connector-curvature="0"
       style="fill:#f1f1fe" />
    <path
       d="m 5.124,52.675 a 5.343,5.343 0 0 0 5.294,5.388 l 44.559,0.031 a 5.338,5.338 0 0 0 5.3,-5.381 l 0.019,-45.3 A 5.343,5.343 0 0 0 55,2.02 L 10.44,1.989 a 5.339,5.339 0 0 0 -5.3,5.382 z"
       id="path3325"
       inkscape:connector-curvature="0"
       style="fill:#f0f0fe" />
    <path
       d="m 5.261,52.529 a 5.327,5.327 0 0 0 5.275,5.371 l 44.405,0.031 a 5.323,5.323 0 0 0 5.28,-5.366 L 60.239,7.392 A 5.326,5.326 0 0 0 54.964,2.02 l -44.4,-0.031 a 5.323,5.323 0 0 0 -5.28,5.367 z"
       id="path3327"
       inkscape:connector-curvature="0"
       style="fill:#efeffe" />
    <path
       d="m 5.4,52.383 a 5.31,5.31 0 0 0 5.257,5.357 l 44.251,0.031 a 5.3,5.3 0 0 0 5.261,-5.35 L 60.187,7.378 A 5.309,5.309 0 0 0 54.929,2.02 L 10.678,1.989 A 5.307,5.307 0 0 0 5.416,7.34 Z"
       id="path3329"
       inkscape:connector-curvature="0"
       style="fill:#eeeefe" />
    <path
       d="m 5.535,52.237 a 5.294,5.294 0 0 0 5.239,5.342 l 44.1,0.031 a 5.288,5.288 0 0 0 5.242,-5.335 L 60.134,7.363 A 5.292,5.292 0 0 0 54.893,2.02 L 10.8,1.99 A 5.289,5.289 0 0 0 5.553,7.325 Z"
       id="path3331"
       inkscape:connector-curvature="0"
       style="fill:#ededfe" />
    <path
       d="m 5.672,52.091 a 5.277,5.277 0 0 0 5.221,5.327 l 43.942,0.03 a 5.271,5.271 0 0 0 5.224,-5.319 L 60.077,7.347 A 5.274,5.274 0 0 0 54.858,2.02 L 10.915,1.99 A 5.272,5.272 0 0 0 5.69,7.31 Z"
       id="path3333"
       inkscape:connector-curvature="0"
       style="fill:#ececfe" />
    <path
       d="m 5.809,51.945 a 5.259,5.259 0 0 0 5.2,5.311 l 43.789,0.031 a 5.254,5.254 0 0 0 5.205,-5.3 L 60.022,7.336 a 5.259,5.259 0 0 0 -5.2,-5.312 L 11.034,1.99 a 5.255,5.255 0 0 0 -5.207,5.3 z"
       id="path3335"
       inkscape:connector-curvature="0"
       style="fill:#ececfe" />
    <path
       d="m 5.946,51.8 a 5.243,5.243 0 0 0 5.184,5.3 l 43.634,0.03 a 5.239,5.239 0 0 0 5.188,-5.288 L 59.97,7.322 a 5.242,5.242 0 0 0 -5.183,-5.3 L 11.153,1.99 A 5.238,5.238 0 0 0 5.964,7.279 Z"
       id="path3337"
       inkscape:connector-curvature="0"
       style="fill:#ebebfe" />
    <path
       d="m 6.083,51.654 a 5.226,5.226 0 0 0 5.166,5.28 l 43.48,0.03 A 5.22,5.22 0 0 0 59.9,51.691 L 59.916,7.3 A 5.225,5.225 0 0 0 54.751,2.02 L 11.271,1.99 A 5.222,5.222 0 0 0 6.1,7.263 Z"
       id="path3339"
       inkscape:connector-curvature="0"
       style="fill:#eaeafe" />
    <path
       d="m 6.22,51.508 a 5.208,5.208 0 0 0 5.148,5.264 l 43.326,0.03 a 5.2,5.2 0 0 0 5.15,-5.257 L 59.862,7.286 A 5.208,5.208 0 0 0 54.716,2.02 L 11.39,1.99 A 5.205,5.205 0 0 0 6.238,7.248 Z"
       id="path3341"
       inkscape:connector-curvature="0"
       style="fill:#e9e9fd" />
    <path
       d="m 6.357,51.362 a 5.193,5.193 0 0 0 5.13,5.249 l 43.171,0.03 A 5.187,5.187 0 0 0 59.79,51.4 L 59.808,7.27 A 5.19,5.19 0 0 0 54.68,2.02 L 11.509,1.99 A 5.188,5.188 0 0 0 6.375,7.233 Z"
       id="path3343"
       inkscape:connector-curvature="0"
       style="fill:#e8e8fd" />
    <path
       d="m 6.494,51.216 a 5.176,5.176 0 0 0 5.111,5.234 l 43.018,0.03 a 5.172,5.172 0 0 0 5.114,-5.227 l 0.018,-44 A 5.175,5.175 0 0 0 54.645,2.018 L 11.628,1.99 A 5.172,5.172 0 0 0 6.512,7.217 Z"
       id="path3345"
       inkscape:connector-curvature="0"
       style="fill:#e7e7fd" />
    <path
       d="m 6.631,51.07 a 5.158,5.158 0 0 0 5.093,5.218 l 42.863,0.03 a 5.153,5.153 0 0 0 5.1,-5.211 L 59.7,7.239 A 5.158,5.158 0 0 0 54.61,2.02 L 11.746,1.991 A 5.154,5.154 0 0 0 6.649,7.2 Z"
       id="path3347"
       inkscape:connector-curvature="0"
       style="fill:#e7e7fd" />
    <path
       d="m 6.768,50.924 a 5.142,5.142 0 0 0 5.075,5.2 l 42.709,0.03 a 5.137,5.137 0 0 0 5.077,-5.2 L 59.647,7.217 a 5.139,5.139 0 0 0 -5.073,-5.2 L 11.865,1.987 a 5.138,5.138 0 0 0 -5.079,5.2 z"
       id="path3349"
       inkscape:connector-curvature="0"
       style="fill:#e6e6fd" />
    <path
       d="m 6.906,50.779 a 5.124,5.124 0 0 0 5.056,5.187 L 54.517,56 a 5.119,5.119 0 0 0 5.058,-5.18 L 59.593,7.213 A 5.122,5.122 0 0 0 54.539,2.026 L 11.984,1.996 a 5.122,5.122 0 0 0 -5.061,5.18 z"
       id="path3351"
       inkscape:connector-curvature="0"
       style="fill:#e5e5fd" />
    <path
       d="M 7.043,50.633 A 5.106,5.106 0 0 0 12.08,55.8 l 42.4,0.03 a 5.1,5.1 0 0 0 5.041,-5.165 L 59.538,7.189 A 5.106,5.106 0 0 0 54.5,2.021 L 12.1,1.991 A 5.1,5.1 0 0 0 7.06,7.156 Z"
       id="path3353"
       inkscape:connector-curvature="0"
       style="fill:#e4e4fd" />
    <path
       d="m 7.18,50.487 a 5.09,5.09 0 0 0 5.02,5.156 l 42.247,0.029 a 5.086,5.086 0 0 0 5.022,-5.149 L 59.486,7.177 A 5.088,5.088 0 0 0 54.469,2.021 L 12.222,1.991 A 5.088,5.088 0 0 0 7.2,7.141 Z"
       id="path3355"
       inkscape:connector-curvature="0"
       style="fill:#e3e3fd" />
    <path
       d="m 7.317,50.341 a 5.072,5.072 0 0 0 5,5.14 l 42.092,0.03 a 5.07,5.07 0 0 0 5,-5.134 L 59.427,7.162 a 5.073,5.073 0 0 0 -5,-5.141 L 12.34,1.991 A 5.071,5.071 0 0 0 7.334,7.125 Z"
       id="path3357"
       inkscape:connector-curvature="0"
       style="fill:#e2e2fd" />
    <path
       d="m 7.454,50.2 a 5.057,5.057 0 0 0 4.983,5.125 l 41.938,0.029 A 5.051,5.051 0 0 0 59.36,50.236 L 59.378,7.151 A 5.055,5.055 0 0 0 54.4,2.021 L 12.462,1.991 A 5.055,5.055 0 0 0 7.471,7.11 Z"
       id="path3359"
       inkscape:connector-curvature="0"
       style="fill:#e1e1fd" />
    <path
       d="m 7.591,50.049 a 5.04,5.04 0 0 0 4.965,5.11 l 41.783,0.029 a 5.035,5.035 0 0 0 4.967,-5.1 L 59.324,7.134 A 5.039,5.039 0 0 0 54.361,2.024 L 12.577,1.994 a 5.038,5.038 0 0 0 -4.969,5.1 z"
       id="path3361"
       inkscape:connector-curvature="0"
       style="fill:#e1e1fd" />
    <path
       d="m 7.728,49.9 a 5.022,5.022 0 0 0 4.946,5.1 l 41.63,0.03 a 5.02,5.02 0 0 0 4.949,-5.088 L 59.27,7.115 A 5.022,5.022 0 0 0 54.326,2.021 L 12.7,1.992 A 5.018,5.018 0 0 0 7.75,7.079 Z"
       id="path3363"
       inkscape:connector-curvature="0"
       style="fill:#e0e0fd" />
    <path
       d="m 7.865,49.757 a 5.007,5.007 0 0 0 4.928,5.079 l 41.476,0.029 a 5,5 0 0 0 4.93,-5.072 L 59.216,7.1 A 5,5 0 0 0 54.29,2.021 L 12.815,1.992 A 5,5 0 0 0 7.883,7.064 Z"
       id="path3365"
       inkscape:connector-curvature="0"
       style="fill:#dfdffd" />
    <path
       d="m 8,49.612 a 4.989,4.989 0 0 0 4.91,5.063 l 41.321,0.029 a 4.985,4.985 0 0 0 4.912,-5.057 L 59.161,7.084 A 4.988,4.988 0 0 0 54.253,2.021 L 12.933,1.992 A 4.985,4.985 0 0 0 8.02,7.048 Z"
       id="path3367"
       inkscape:connector-curvature="0"
       style="fill:#dedefd" />
    <path
       d="m 8.139,49.466 a 4.971,4.971 0 0 0 4.892,5.047 l 41.167,0.029 A 4.968,4.968 0 0 0 59.091,49.5 L 59.109,7.068 A 4.972,4.972 0 0 0 54.219,2.02 L 13.052,1.992 A 4.969,4.969 0 0 0 8.157,7.033 Z"
       id="path3369"
       inkscape:connector-curvature="0"
       style="fill:#ddddfd" />
    <path
       d="m 8.276,49.32 a 4.956,4.956 0 0 0 4.873,5.032 l 41.013,0.029 a 4.952,4.952 0 0 0 4.876,-5.026 l 0.017,-42.3 A 4.954,4.954 0 0 0 54.184,2.023 L 13.171,1.992 A 4.952,4.952 0 0 0 8.294,7.018 Z"
       id="path3371"
       inkscape:connector-curvature="0"
       style="fill:#dcdcfd" />
    <path
       d="m 8.413,49.174 a 4.939,4.939 0 0 0 4.855,5.017 l 40.859,0.028 a 4.934,4.934 0 0 0 4.857,-5.01 L 59,7.038 A 4.938,4.938 0 0 0 54.147,2.021 L 13.29,1.992 A 4.935,4.935 0 0 0 8.431,7 Z"
       id="path3373"
       inkscape:connector-curvature="0"
       style="fill:#dcdcfd" />
    <path
       d="m 8.55,49.028 a 4.922,4.922 0 0 0 4.837,5 l 40.705,0.029 A 4.918,4.918 0 0 0 58.93,49.062 L 58.947,7.021 a 4.921,4.921 0 0 0 -4.834,-5 l -40.7,-0.029 a 4.918,4.918 0 0 0 -4.84,5 z"
       id="path3375"
       inkscape:connector-curvature="0"
       style="fill:#dbdbfc" />
    <path
       d="m 8.687,48.882 a 4.906,4.906 0 0 0 4.819,4.986 l 40.55,0.028 a 4.9,4.9 0 0 0 4.82,-4.979 L 58.894,7.007 A 4.9,4.9 0 0 0 54.077,2.021 L 13.527,1.992 a 4.9,4.9 0 0 0 -4.822,4.98 z"
       id="path3377"
       inkscape:connector-curvature="0"
       style="fill:#dadafc" />
    <path
       d="m 8.825,48.736 a 4.887,4.887 0 0 0 4.8,4.971 l 40.4,0.028 a 4.885,4.885 0 0 0 4.8,-4.964 l 0.017,-41.78 a 4.888,4.888 0 0 0 -4.8,-4.97 l -40.4,-0.029 a 4.886,4.886 0 0 0 -4.8,4.964 z"
       id="path3379"
       inkscape:connector-curvature="0"
       style="fill:#d9d9fc" />
    <path
       d="m 8.962,48.591 a 4.869,4.869 0 0 0 4.781,4.954 l 40.242,0.029 a 4.869,4.869 0 0 0 4.784,-4.949 L 58.786,6.976 A 4.871,4.871 0 0 0 54.007,2.021 L 13.764,1.993 A 4.867,4.867 0 0 0 8.979,6.941 Z"
       id="path3381"
       inkscape:connector-curvature="0"
       style="fill:#d8d8fc" />
    <path
       d="m 9.1,48.445 a 4.854,4.854 0 0 0 4.763,4.939 l 40.088,0.028 a 4.85,4.85 0 0 0 4.765,-4.933 L 58.732,6.96 A 4.854,4.854 0 0 0 53.971,2.021 L 13.883,1.993 A 4.85,4.85 0 0 0 9.116,6.925 Z"
       id="path3383"
       inkscape:connector-curvature="0"
       style="fill:#d7d7fc" />
    <path
       d="m 9.236,48.3 a 4.838,4.838 0 0 0 4.745,4.924 l 39.934,0.028 a 4.834,4.834 0 0 0 4.746,-4.917 L 58.678,6.946 A 4.837,4.837 0 0 0 53.936,2.022 L 14,1.993 A 4.834,4.834 0 0 0 9.253,6.91 Z"
       id="path3385"
       inkscape:connector-curvature="0"
       style="fill:#d7d7fc" />
    <path
       d="m 9.373,48.153 a 4.82,4.82 0 0 0 4.727,4.908 l 39.779,0.028 a 4.817,4.817 0 0 0 4.729,-4.9 L 58.624,6.93 A 4.82,4.82 0 0 0 53.9,2.021 L 14.121,1.993 A 4.817,4.817 0 0 0 9.39,6.9 Z"
       id="path3387"
       inkscape:connector-curvature="0"
       style="fill:#d6d6fc" />
    <path
       d="m 9.51,48.007 a 4.8,4.8 0 0 0 4.708,4.893 l 39.626,0.028 a 4.8,4.8 0 0 0 4.71,-4.886 L 58.571,6.914 A 4.8,4.8 0 0 0 53.865,2.021 L 14.239,1.993 A 4.8,4.8 0 0 0 9.527,6.879 Z"
       id="path3389"
       inkscape:connector-curvature="0"
       style="fill:#d5d5fc" />
    <path
       d="m 9.647,47.861 a 4.788,4.788 0 0 0 4.69,4.878 l 39.471,0.027 A 4.783,4.783 0 0 0 58.5,47.9 l 0.017,-41 A 4.787,4.787 0 0 0 53.829,2.023 L 14.358,1.993 A 4.783,4.783 0 0 0 9.664,6.864 Z"
       id="path3391"
       inkscape:connector-curvature="0"
       style="fill:#d4d4fc" />
  </g>
  <rect
     x="1.497"
     y="1.261"
     width="60.502998"
     height="55.556"
     rx="4.757"
     id="rect3395"
     style="isolation:isolate;fill:#ffffff" />
  <rect
     x="1.497"
     y="0.5"
     width="59.742001"
     height="55.556"
     rx="4.7270002"
     id="rect3397"
     style="opacity:0.65;isolation:isolate;fill:url(#linearGradient7690)" />
  <path
     d="m 37.388,23.573 -0.845,6.9 a 11.377,11.377 0 0 0 -0.077,1.23 q 0,0.645 0.6,0.646 a 2.8,2.8 0 0 0 2.137,-1.4 5.745,5.745 0 0 0 1.03,-3.5 6.585,6.585 0 0 0 -2.247,-5.1 7.919,7.919 0 0 0 -5.508,-2.03 8.059,8.059 0 0 0 -5.97,2.468 8.421,8.421 0 0 0 -2.431,6.157 8.555,8.555 0 0 0 2.27,5.918 8.176,8.176 0 0 0 6.409,2.521 14.183,14.183 0 0 0 6.586,-1.768 l 1.014,2.521 A 16.414,16.414 0 0 1 32.762,40.042 11.4,11.4 0 0 1 24.185,36.761 10.865,10.865 0 0 1 21,28.923 10.529,10.529 0 0 1 24.344,20.982 11.3,11.3 0 0 1 32.437,17.793 10.736,10.736 0 0 1 40,20.6 a 8.9,8.9 0 0 1 3.044,6.786 8.072,8.072 0 0 1 -1.859,5.357 5.6,5.6 0 0 1 -4.413,2.222 2.954,2.954 0 0 1 -2.628,-1.338 3.617,3.617 0 0 1 -2.85,1.4 4.032,4.032 0 0 1 -3.189,-1.576 6.219,6.219 0 0 1 -1.325,-4.142 6.2,6.2 0 0 1 1.494,-4.3 4.655,4.655 0 0 1 3.589,-1.668 3.766,3.766 0 0 1 2.435,0.907 l 0.183,-0.676 z m -5.912,8.5 a 2.245,2.245 0 0 0 1.836,-1.037 3.875,3.875 0 0 0 0.771,-2.375 2.371,2.371 0 0 0 -0.625,-1.722 1.937,1.937 0 0 0 -1.427,-0.645 1.862,1.862 0 0 0 -1.551,0.86 3.766,3.766 0 0 0 -0.625,2.26 3.687,3.687 0 0 0 0.449,1.9 1.329,1.329 0 0 0 1.172,0.759 z"
     id="path3399"
     inkscape:connector-curvature="0"
     style="opacity:1;isolation:isolate;fill:#ffffff" />
</svg>
