<?xml version="1.0" encoding="UTF-8" standalone="no"?>
<svg
   xmlns:dc="http://purl.org/dc/elements/1.1/"
   xmlns:cc="http://creativecommons.org/ns#"
   xmlns:rdf="http://www.w3.org/1999/02/22-rdf-syntax-ns#"
   xmlns:svg="http://www.w3.org/2000/svg"
   xmlns="http://www.w3.org/2000/svg"
   xmlns:sodipodi="http://sodipodi.sourceforge.net/DTD/sodipodi-0.dtd"
   xmlns:inkscape="http://www.inkscape.org/namespaces/inkscape"
   viewBox="0 0 108.605 63.97"
   version="1.1"
   id="svg2187"
   sodipodi:docname="A17_verwalten.svg"
   inkscape:version="0.92.4 (5da689c313, 2019-01-14)">
  <metadata
     id="metadata2191">
    <rdf:RDF>
      <cc:Work
         rdf:about="">
        <dc:format>image/svg+xml</dc:format>
        <dc:type
           rdf:resource="http://purl.org/dc/dcmitype/StillImage" />
      </cc:Work>
    </rdf:RDF>
  </metadata>
  <sodipodi:namedview
     pagecolor="#ffffff"
     bordercolor="#666666"
     borderopacity="1"
     objecttolerance="10"
     gridtolerance="10"
     guidetolerance="10"
     inkscape:pageopacity="0"
     inkscape:pageshadow="2"
     inkscape:window-width="1920"
     inkscape:window-height="1018"
     id="namedview2189"
     showgrid="false"
     inkscape:zoom="4"
     inkscape:cx="11.802502"
     inkscape:cy="38.249549"
     inkscape:window-x="1912"
     inkscape:window-y="-8"
     inkscape:window-maximized="1"
     inkscape:current-layer="g12887" />
  <defs
     id="defs1933">
    <linearGradient
       id="Unbenannter_Verlauf_38"
       data-name="Unbenannter Verlauf 38"
       x1="11.204"
       y1="6.445"
       x2="96.813004"
       y2="51.421001"
       gradientUnits="userSpaceOnUse">
      <stop
         offset="0.152"
         stop-color="#7b90dd"
         id="stop1919"
         style="stop-color:#5c87ca;stop-opacity:1" />
      <stop
         offset="0.882"
         stop-color="#6075bf"
         id="stop1921"
         style="stop-color:#3c6ab0;stop-opacity:1" />
    </linearGradient>
    <linearGradient
       id="Unbenannter_Verlauf_28"
       data-name="Unbenannter Verlauf 28"
       x1="80.668"
       y1="38.059"
       x2="86.227"
       y2="38.059"
       gradientUnits="userSpaceOnUse">
      <stop
         offset="0.032"
         stop-color="#7a8edd"
         id="stop1924" />
      <stop
         offset="0.202"
         stop-color="#7085d2"
         id="stop1926" />
      <stop
         offset="0.533"
         stop-color="#6176c0"
         id="stop1928" />
      <stop
         offset="0.882"
         stop-color="#6075bf"
         id="stop1930" />
    </linearGradient>
  </defs>
  <title
     id="title1935">verwalten test</title>
  <g
     id="g12887">
    <rect
       rx="4.7270002"
       y="0"
       x="0"
       height="63.970001"
       width="108.605"
       id="rect2687"
       style="opacity:1;fill:#ffffff;fill-opacity:1" />
    <g
       id="g2041"
       style="isolation:isolate;mix-blend-mode:multiply;opacity:0.5">
      <path
         style="fill:#ffffff"
         inkscape:connector-curvature="0"
         id="path1937"
         d="m 0.6,56.361 c 0,3.3 4.255,5.974 9.5,5.978 l 79.956,0.051 c 5.25,0 9.5,-2.669 9.5,-5.965 L 99.58,6.176 c 0,-3.3 -4.251,-5.976 -9.5,-5.979 L 10.123,0.146 C 4.878,0.142 0.62,2.813 0.619,6.113 Z" />
      <path
         style="fill:#fefeff"
         inkscape:connector-curvature="0"
         id="path1939"
         d="m 0.963,56.178 c 0,3.286 4.241,5.955 9.469,5.958 l 79.7,0.051 c 5.233,0 9.472,-2.66 9.473,-5.946 L 99.621,6.156 C 99.618,2.868 95.38,0.2 90.148,0.2 L 10.452,0.146 C 5.224,0.142 0.98,2.805 0.979,6.093 Z" />
      <path
         style="fill:#fdfdff"
         inkscape:connector-curvature="0"
         id="path1941"
         d="m 1.323,56 c 0,3.275 4.227,5.936 9.438,5.939 l 79.436,0.051 c 5.215,0 9.441,-2.652 9.442,-5.927 L 99.655,6.142 C 99.656,2.859 95.432,0.2 90.216,0.2 L 10.781,0.146 C 5.57,0.143 1.34,2.8 1.339,6.074 Z" />
      <path
         style="fill:#fcfcff"
         inkscape:connector-curvature="0"
         id="path1943"
         d="m 1.683,55.812 c 0,3.265 4.213,5.916 9.408,5.92 l 79.174,0.05 c 5.2,0 9.41,-2.643 9.411,-5.907 L 99.692,6.118 C 99.694,2.851 95.483,0.2 90.285,0.2 L 11.11,0.146 C 5.916,0.143 1.7,2.788 1.7,6.055 Z" />
      <path
         style="fill:#fcfcff"
         inkscape:connector-curvature="0"
         id="path1945"
         d="m 2.043,55.629 c 0,3.254 4.2,5.9 9.377,5.9 l 78.914,0.051 c 5.181,0 9.379,-2.634 9.38,-5.888 L 99.73,6.1 c 0,-3.256 -4.2,-5.9 -9.376,-5.9 L 11.439,0.146 c -5.177,0 -9.379,2.633 -9.38,5.89 z" />
      <path
         style="fill:#fbfbff"
         inkscape:connector-curvature="0"
         id="path1947"
         d="m 2.4,55.446 c 0,3.243 4.185,5.878 9.346,5.881 l 78.654,0.05 c 5.163,0 9.348,-2.625 9.349,-5.868 L 99.765,6.079 C 99.769,2.833 95.586,0.2 90.422,0.2 L 11.768,0.147 c -5.16,0 -9.348,2.624 -9.349,5.869 z" />
      <path
         style="fill:#fafaff"
         inkscape:connector-curvature="0"
         id="path1949"
         d="m 2.763,55.264 c 0,3.232 4.171,5.857 9.315,5.86 l 78.393,0.051 c 5.147,0 9.317,-2.617 9.318,-5.849 L 99.805,6.059 C 99.806,2.824 95.637,0.2 90.491,0.2 L 12.1,0.147 C 6.954,0.144 2.78,2.762 2.779,6 Z" />
      <path
         style="fill:#f9f9ff"
         inkscape:connector-curvature="0"
         id="path1951"
         d="m 3.123,55.081 c 0,3.221 4.157,5.838 9.284,5.841 l 78.133,0.05 c 5.129,0 9.286,-2.608 9.287,-5.829 l 0.016,-49.1 C 99.844,2.816 95.689,0.2 90.559,0.2 L 12.426,0.147 C 7.3,0.144 3.14,2.754 3.139,5.978 Z" />
      <path
         style="fill:#f8f8ff"
         inkscape:connector-curvature="0"
         id="path1953"
         d="m 3.483,54.9 c 0,3.21 4.144,5.818 9.253,5.822 l 77.872,0.05 c 5.113,0 9.256,-2.6 9.257,-5.811 L 99.88,6.02 C 99.882,2.807 95.74,0.2 90.628,0.2 L 12.755,0.147 C 7.646,0.144 3.5,2.745 3.5,5.959 Z" />
      <path
         style="fill:#f7f7fe"
         inkscape:connector-curvature="0"
         id="path1955"
         d="m 3.843,54.715 c 0,3.2 4.13,5.8 9.222,5.8 l 77.612,0.05 c 5.095,0 9.224,-2.591 9.225,-5.791 L 99.918,6 c 0,-3.2 -4.126,-5.8 -9.221,-5.8 L 13.085,0.147 c -5.093,0 -9.226,2.59 -9.227,5.792 z" />
      <path
         style="fill:#f7f7fe"
         inkscape:connector-curvature="0"
         id="path1957"
         d="m 4.2,54.532 c 0,3.189 4.116,5.78 9.191,5.783 l 77.352,0.049 c 5.078,0 9.193,-2.582 9.194,-5.771 L 99.953,5.982 C 99.957,2.79 95.843,0.2 90.765,0.2 L 13.414,0.148 c -5.076,0 -9.195,2.58 -9.2,5.772 z" />
      <path
         style="fill:#f6f6fe"
         inkscape:connector-curvature="0"
         id="path1959"
         d="m 4.563,54.349 c 0,3.179 4.1,5.76 9.16,5.764 l 77.091,0.049 c 5.061,0 9.163,-2.573 9.164,-5.752 L 99.993,5.962 c 0,-3.181 -4.1,-5.762 -9.159,-5.765 L 13.743,0.148 C 8.684,0.145 4.579,2.72 4.578,5.9 Z" />
      <path
         style="fill:#f5f5fe"
         inkscape:connector-curvature="0"
         id="path1961"
         d="m 4.923,54.166 c 0,3.168 4.088,5.741 9.129,5.744 l 76.831,0.049 c 5.044,0 9.131,-2.564 9.132,-5.732 L 100.031,5.943 C 100.032,2.772 95.946,0.2 90.9,0.2 L 14.072,0.148 C 9.03,0.145 4.939,2.711 4.938,5.882 Z" />
      <path
         style="fill:#f4f4fe"
         inkscape:connector-curvature="0"
         id="path1963"
         d="m 5.283,53.983 c 0,3.157 4.074,5.722 9.1,5.725 l 76.57,0.049 c 5.026,0 9.1,-2.556 9.1,-5.713 L 100.068,5.923 C 100.069,2.764 96,0.2 90.971,0.2 L 14.4,0.148 C 9.376,0.145 5.3,2.7 5.3,5.863 Z" />
      <path
         style="fill:#f3f3fe"
         inkscape:connector-curvature="0"
         id="path1965"
         d="m 5.643,53.8 c 0,3.147 4.06,5.7 9.068,5.705 l 76.309,0.049 c 5.01,0 9.07,-2.547 9.071,-5.694 L 100.106,5.9 c 0,-3.149 -4.057,-5.7 -9.067,-5.707 L 14.73,0.148 c -5.008,0 -9.071,2.546 -9.072,5.7 z" />
      <path
         style="fill:#f2f2fe"
         inkscape:connector-curvature="0"
         id="path1967"
         d="m 6,53.617 c 0,3.136 4.049,5.683 9.04,5.683 l 76.049,0.049 c 4.992,0 9.038,-2.539 9.039,-5.675 L 100.144,5.881 C 100.145,2.746 96.1,0.2 91.108,0.2 L 15.059,0.149 c -4.991,0 -9.04,2.537 -9.041,5.675 z" />
      <path
         style="fill:#f2f2fe"
         inkscape:connector-curvature="0"
         id="path1969"
         d="m 6.363,53.434 c 0,3.125 4.033,5.664 9.006,5.667 l 75.789,0.048 c 4.975,0 9.007,-2.53 9.008,-5.655 l 0.015,-47.629 c 0,-3.127 -4.029,-5.664 -9,-5.668 L 15.388,0.149 c -4.974,0 -9.009,2.529 -9.01,5.656 z" />
      <path
         style="fill:#f1f1fe"
         inkscape:connector-curvature="0"
         id="path1971"
         d="m 6.723,53.251 c 0,3.115 4.019,5.644 8.975,5.647 l 75.528,0.049 c 4.958,0 8.977,-2.521 8.978,-5.636 L 100.219,5.846 C 100.22,2.729 96.2,0.2 91.245,0.2 L 15.717,0.149 c -4.956,0 -8.978,2.52 -8.979,5.637 z" />
      <path
         style="fill:#f0f0fe"
         inkscape:connector-curvature="0"
         id="path1973"
         d="m 7.083,53.068 c 0,3.1 4,5.625 8.944,5.628 l 75.268,0.048 c 4.94,0 8.945,-2.512 8.946,-5.616 l 0.015,-47.3 c 0,-3.106 -4,-5.625 -8.942,-5.629 L 16.046,0.149 C 11.107,0.146 7.1,2.661 7.1,5.766 Z" />
      <path
         style="fill:#efeffe"
         inkscape:connector-curvature="0"
         id="path1975"
         d="m 7.443,52.885 c 0,3.094 3.991,5.605 8.913,5.609 l 75.008,0.048 c 4.923,0 8.914,-2.5 8.915,-5.6 L 100.294,5.804 C 100.3,2.712 96.306,0.2 91.382,0.2 L 16.375,0.149 c -4.922,0 -8.916,2.5 -8.917,5.6 z" />
      <path
         style="fill:#eeeefe"
         inkscape:connector-curvature="0"
         id="path1977"
         d="m 7.8,52.7 c 0,3.083 3.977,5.586 8.882,5.589 l 74.747,0.048 c 4.906,0 8.884,-2.495 8.885,-5.577 L 100.329,5.785 C 100.333,2.7 96.357,0.2 91.451,0.2 L 16.7,0.15 C 11.8,0.146 7.819,2.644 7.818,5.728 Z" />
      <path
         style="fill:#ededfe"
         inkscape:connector-curvature="0"
         id="path1979"
         d="m 8.163,52.519 c 0,3.072 3.963,5.567 8.851,5.57 l 74.487,0.047 c 4.889,0 8.852,-2.486 8.853,-5.558 l 0.015,-46.81 C 100.37,2.694 96.409,0.2 91.52,0.2 L 17.033,0.15 c -4.888,0 -8.854,2.485 -8.855,5.559 z" />
      <path
         style="fill:#ececfe"
         inkscape:connector-curvature="0"
         id="path1981"
         d="m 8.523,52.336 c 0,3.062 3.949,5.547 8.82,5.55 l 74.227,0.048 c 4.871,0 8.821,-2.478 8.822,-5.539 L 100.407,5.748 C 100.408,2.685 96.46,0.2 91.588,0.2 L 17.362,0.15 c -4.871,0 -8.823,2.477 -8.824,5.54 z" />
      <path
         style="fill:#ececfe"
         inkscape:connector-curvature="0"
         id="path1983"
         d="m 8.883,52.153 c 0,3.051 3.935,5.528 8.79,5.531 l 73.965,0.047 c 4.855,0 8.791,-2.468 8.792,-5.519 L 100.444,5.729 C 100.445,2.677 96.511,0.2 91.657,0.2 L 17.691,0.15 C 12.837,0.147 8.9,2.618 8.9,5.67 Z" />
      <path
         style="fill:#ebebfe"
         inkscape:connector-curvature="0"
         id="path1985"
         d="m 9.243,51.971 c 0,3.039 3.921,5.508 8.759,5.511 l 73.705,0.047 c 4.837,0 8.759,-2.46 8.76,-5.5 L 100.482,5.71 C 100.483,2.668 96.563,0.2 91.725,0.2 L 18.02,0.15 c -4.837,0 -8.761,2.46 -8.762,5.5 z" />
      <path
         style="fill:#eaeafe"
         inkscape:connector-curvature="0"
         id="path1987"
         d="m 9.6,51.788 c 0,3.029 3.908,5.488 8.728,5.491 l 73.445,0.047 c 4.82,0 8.728,-2.451 8.729,-5.48 L 100.52,5.69 C 100.521,2.659 96.614,0.2 91.794,0.2 L 18.349,0.151 c -4.82,0 -8.73,2.45 -8.731,5.481 z" />
      <path
         style="fill:#e9e9fd"
         inkscape:connector-curvature="0"
         id="path1989"
         d="m 9.963,51.605 c 0,3.018 3.894,5.469 8.7,5.472 l 73.184,0.047 c 4.8,0 8.7,-2.443 8.7,-5.461 l 0.015,-45.992 c 0,-3.02 -3.891,-5.47 -8.694,-5.473 L 18.678,0.151 c -4.8,0 -8.7,2.442 -8.7,5.462 z" />
      <path
         style="fill:#e8e8fd"
         inkscape:connector-curvature="0"
         id="path1991"
         d="m 10.323,51.422 c 0,3.008 3.88,5.449 8.666,5.453 l 72.924,0.046 c 4.786,0 8.666,-2.434 8.667,-5.442 L 100.6,5.651 C 100.6,2.642 96.717,0.2 91.931,0.2 L 19.007,0.151 c -4.786,0 -8.668,2.433 -8.669,5.442 z" />
      <path
         style="fill:#e7e7fd"
         inkscape:connector-curvature="0"
         id="path1993"
         d="m 10.683,51.239 c 0,3 3.866,5.43 8.635,5.433 l 72.664,0.047 c 4.768,0 8.635,-2.426 8.636,-5.423 l 0.014,-45.664 c 0,-3 -3.864,-5.431 -8.632,-5.434 L 19.336,0.151 C 14.567,0.148 10.7,2.576 10.7,5.574 Z" />
      <path
         style="fill:#e7e7fd"
         inkscape:connector-curvature="0"
         id="path1995"
         d="m 11.043,51.056 c 0,2.986 3.852,5.411 8.6,5.414 l 72.4,0.046 c 4.752,0 8.6,-2.416 8.605,-5.4 l 0.015,-45.5 c 0,-2.987 -3.85,-5.411 -8.6,-5.414 L 19.665,0.151 c -4.752,0 -8.607,2.416 -8.607,5.4 z" />
      <path
         style="fill:#e6e6fd"
         inkscape:connector-curvature="0"
         id="path1997"
         d="m 11.4,50.873 c 0,2.976 3.838,5.391 8.573,5.394 l 72.143,0.047 c 4.734,0 8.573,-2.408 8.574,-5.384 L 100.705,5.593 C 100.709,2.616 96.871,0.2 92.137,0.2 L 19.994,0.152 c -4.735,0 -8.576,2.407 -8.577,5.384 z" />
      <path
         style="fill:#e5e5fd"
         inkscape:connector-curvature="0"
         id="path1999"
         d="m 11.763,50.69 c 0,2.965 3.824,5.372 8.542,5.375 l 71.883,0.046 c 4.717,0 8.542,-2.4 8.543,-5.364 l 0.014,-45.174 c 0,-2.966 -3.822,-5.372 -8.54,-5.375 L 20.323,0.152 c -4.718,0 -8.545,2.4 -8.546,5.365 z" />
      <path
         style="fill:#e4e4fd"
         inkscape:connector-curvature="0"
         id="path2001"
         d="m 12.123,50.507 c 0,2.954 3.81,5.353 8.511,5.356 l 71.622,0.045 c 4.7,0 8.511,-2.39 8.512,-5.344 l 0.015,-45.01 C 100.784,2.6 96.974,0.2 92.274,0.2 L 20.652,0.152 c -4.7,0 -8.514,2.39 -8.515,5.345 z" />
      <path
         style="fill:#e3e3fd"
         inkscape:connector-curvature="0"
         id="path2003"
         d="m 12.483,50.324 c 0,2.944 3.8,5.333 8.481,5.336 l 71.361,0.046 c 4.682,0 8.48,-2.382 8.481,-5.325 L 100.82,5.535 C 100.821,2.59 97.025,0.2 92.343,0.2 L 20.981,0.152 C 16.3,0.149 12.5,2.533 12.5,5.478 Z" />
      <path
         style="fill:#e2e2fd"
         inkscape:connector-curvature="0"
         id="path2005"
         d="m 12.843,50.141 c 0,2.933 3.783,5.314 8.45,5.317 l 71.1,0.045 c 4.666,0 8.45,-2.373 8.451,-5.306 L 100.858,5.515 C 100.859,2.581 97.077,0.2 92.411,0.2 L 21.31,0.152 c -4.667,0 -8.452,2.373 -8.453,5.307 z" />
      <path
         style="fill:#e1e1fd"
         inkscape:connector-curvature="0"
         id="path2007"
         d="m 13.2,49.958 c 0,2.922 3.769,5.3 8.419,5.3 l 70.84,0.046 c 4.648,0 8.418,-2.364 8.419,-5.287 L 100.9,5.5 c 0,-2.924 -3.768,-5.3 -8.416,-5.3 L 21.639,0.153 c -4.65,0 -8.421,2.363 -8.422,5.287 z" />
      <path
         style="fill:#e1e1fd"
         inkscape:connector-curvature="0"
         id="path2009"
         d="m 13.563,49.775 c 0,2.912 3.755,5.275 8.388,5.278 l 70.58,0.045 c 4.631,0 8.387,-2.355 8.388,-5.267 L 100.933,5.476 C 100.934,2.564 97.18,0.2 92.548,0.2 L 21.968,0.153 c -4.632,0 -8.39,2.355 -8.391,5.267 z" />
      <path
         style="fill:#e0e0fd"
         inkscape:connector-curvature="0"
         id="path2011"
         d="m 13.923,49.592 c 0,2.9 3.741,5.256 8.357,5.259 L 92.6,54.9 c 4.614,0 8.357,-2.347 8.358,-5.248 l 0.014,-44.191 c 0,-2.9 -3.74,-5.256 -8.354,-5.259 L 22.3,0.153 C 17.682,0.15 13.938,2.5 13.937,5.4 Z" />
      <path
         style="fill:#dfdffd"
         inkscape:connector-curvature="0"
         id="path2013"
         d="m 14.283,49.409 c 0,2.891 3.727,5.236 8.326,5.239 l 70.059,0.045 c 4.6,0 8.325,-2.338 8.326,-5.228 L 101.008,5.437 C 101.009,2.546 97.282,0.2 92.686,0.2 L 22.627,0.153 c -4.6,0 -8.329,2.338 -8.33,5.229 z" />
      <path
         style="fill:#dedefd"
         inkscape:connector-curvature="0"
         id="path2015"
         d="m 14.643,49.226 c 0,2.88 3.713,5.217 8.295,5.22 l 69.8,0.045 c 4.579,0 8.294,-2.33 8.3,-5.209 l 0.014,-43.864 c 0,-2.88 -3.712,-5.217 -8.292,-5.22 L 22.956,0.153 c -4.582,0 -8.3,2.329 -8.3,5.21 z" />
      <path
         style="fill:#ddddfd"
         inkscape:connector-curvature="0"
         id="path2017"
         d="m 15,49.043 c 0,2.869 3.7,5.2 8.264,5.2 l 69.538,0.044 c 4.563,0 8.264,-2.321 8.265,-5.189 l 0.014,-43.7 c 0,-2.87 -3.7,-5.2 -8.261,-5.2 L 23.285,0.154 c -4.565,0 -8.267,2.32 -8.268,5.189 z" />
      <path
         style="fill:#dcdcfd"
         inkscape:connector-curvature="0"
         id="path2019"
         d="m 15.363,48.86 c 0,2.859 3.686,5.178 8.233,5.181 l 69.278,0.045 c 4.545,0 8.232,-2.312 8.233,-5.171 L 101.121,5.379 C 101.122,2.52 97.437,0.2 92.891,0.2 L 23.614,0.154 c -4.548,0 -8.236,2.311 -8.237,5.17 z" />
      <path
         style="fill:#dcdcfd"
         inkscape:connector-curvature="0"
         id="path2021"
         d="m 15.723,48.678 c 0,2.847 3.672,5.158 8.2,5.161 l 69.018,0.044 c 4.528,0 8.2,-2.3 8.2,-5.151 L 101.155,5.36 C 101.16,2.512 97.488,0.2 92.96,0.2 L 23.943,0.154 c -4.531,0 -8.205,2.3 -8.206,5.151 z" />
      <path
         style="fill:#dbdbfc"
         inkscape:connector-curvature="0"
         id="path2023"
         d="m 16.083,48.5 c 0,2.836 3.658,5.139 8.171,5.141 l 68.757,0.044 c 4.511,0 8.171,-2.294 8.172,-5.131 L 101.2,5.34 C 101.2,2.5 97.539,0.2 93.029,0.2 L 24.272,0.154 C 19.758,0.151 16.1,2.448 16.1,5.286 Z" />
      <path
         style="fill:#dadafc"
         inkscape:connector-curvature="0"
         id="path2025"
         d="m 16.443,48.312 c 0,2.826 3.644,5.119 8.141,5.122 l 68.5,0.044 c 4.494,0 8.139,-2.286 8.14,-5.112 L 101.238,5.321 C 101.235,2.494 97.591,0.2 93.1,0.2 L 24.6,0.154 c -4.5,0 -8.143,2.286 -8.144,5.113 z" />
      <path
         style="fill:#d9d9fc"
         inkscape:connector-curvature="0"
         id="path2027"
         d="m 16.8,48.129 c 0,2.815 3.63,5.1 8.11,5.1 l 68.236,0.043 c 4.476,0 8.108,-2.277 8.109,-5.092 L 101.272,5.3 c 0,-2.815 -3.63,-5.1 -8.106,-5.1 L 24.93,0.155 c -4.48,0 -8.112,2.276 -8.113,5.092 z" />
      <path
         style="fill:#d8d8fc"
         inkscape:connector-curvature="0"
         id="path2029"
         d="m 17.163,47.946 c 0,2.805 3.616,5.08 8.079,5.083 l 67.975,0.044 c 4.46,0 8.078,-2.269 8.079,-5.073 l 0.013,-42.718 c 0,-2.8 -3.615,-5.081 -8.075,-5.084 L 25.259,0.155 c -4.463,0 -8.081,2.268 -8.082,5.073 z" />
      <path
         style="fill:#d7d7fc"
         inkscape:connector-curvature="0"
         id="path2031"
         d="m 17.523,47.763 c 0,2.794 3.6,5.061 8.048,5.064 l 67.715,0.043 c 4.442,0 8.046,-2.259 8.047,-5.054 L 101.347,5.263 C 101.348,2.468 97.745,0.2 93.3,0.2 L 25.588,0.155 c -4.446,0 -8.05,2.26 -8.051,5.054 z" />
      <path
         style="fill:#d7d7fc"
         inkscape:connector-curvature="0"
         id="path2033"
         d="m 17.883,47.58 c 0,2.783 3.588,5.042 8.017,5.045 l 67.455,0.043 c 4.424,0 8.015,-2.251 8.016,-5.035 l 0.013,-42.39 C 101.385,2.459 97.8,0.2 93.371,0.2 L 25.917,0.155 c -4.429,0 -8.02,2.251 -8.02,5.035 z" />
      <path
         style="fill:#d6d6fc"
         inkscape:connector-curvature="0"
         id="path2035"
         d="m 18.243,47.4 c 0,2.773 3.574,5.022 7.986,5.025 l 67.194,0.043 c 4.408,0 7.985,-2.242 7.985,-5.015 L 101.422,5.227 C 101.423,2.451 97.848,0.2 93.44,0.2 L 26.246,0.155 c -4.412,0 -7.989,2.243 -7.989,5.015 z" />
      <path
         style="fill:#d5d5fc"
         inkscape:connector-curvature="0"
         id="path2037"
         d="m 18.6,47.214 c 0,2.762 3.561,5 7.955,5.006 l 66.934,0.043 c 4.39,0 7.953,-2.234 7.954,-5 L 101.46,5.2 c 0,-2.762 -3.561,-5 -7.951,-5.006 L 26.575,0.156 c -4.395,0 -7.958,2.233 -7.958,5 z" />
      <path
         style="fill:#d4d4fc"
         inkscape:connector-curvature="0"
         id="path2039"
         d="m 18.963,47.031 c 0,2.751 3.547,4.984 7.924,4.986 l 66.674,0.043 c 4.373,0 7.922,-2.225 7.923,-4.976 l 0.013,-41.9 C 101.5,2.433 97.951,0.2 93.577,0.2 L 26.9,0.156 c -4.378,0 -7.927,2.225 -7.928,4.976 z" />
    </g>
    <rect
       style="isolation:isolate;fill:#ffffff"
       id="rect2149"
       rx="6.7589998"
       height="56.294998"
       width="103.267"
       y="0.221"
       x="0.11" />
    <rect
       style="isolation:isolate;fill:url(#Unbenannter_Verlauf_38)"
       id="rect2151"
       rx="6.6729999"
       height="55.327999"
       width="102.4"
       y="0.271"
       x="0.211" />
    <g
       id="g2171"
       style="isolation:isolate">
      <path
         style="fill:#ffffff"
         inkscape:connector-curvature="0"
         id="path2153"
         d="m 9.6,12.813 h 1.63 l 1.784,7.444 1.786,-7.444 h 1.369 l -2.469,9.351 -1.68,-0.02 z" />
      <path
         style="fill:#ffffff"
         inkscape:connector-curvature="0"
         id="path2155"
         d="m 17.016,12.813 h 5.366 v 1.237 h -3.815 v 2.666 h 2.992 v 1.244 h -2.992 v 2.919 h 3.878 v 1.265 h -5.429 z" />
      <path
         style="fill:#ffffff"
         inkscape:connector-curvature="0"
         id="path2157"
         d="M 23.481,12.813 H 26.3 a 3.183,3.183 0 0 1 2.258,0.69 2.6,2.6 0 0 1 0.727,1.982 2.511,2.511 0 0 1 -1.434,2.441 l 1.778,4.218 h -1.681 l -1.456,-3.9 h -1.46 v 3.9 h -1.551 z m 1.551,1.2 v 3.042 h 1.187 a 1.457,1.457 0 0 0 1.17,-0.438 1.7,1.7 0 0 0 0.374,-1.141 q 0,-1.464 -1.53,-1.463 z" />
      <path
         style="fill:#ffffff"
         inkscape:connector-curvature="0"
         id="path2159"
         d="m 30.035,12.813 h 1.573 l 1.271,6.987 1.469,-6.986 h 1.346 l 1.454,6.986 1.334,-6.986 h 1.312 l -1.972,9.351 h -1.4 l -1.482,-6.849 -1.454,6.849 h -1.431 z" />
      <path
         style="fill:#ffffff"
         inkscape:connector-curvature="0"
         id="path2161"
         d="m 42.245,12.813 h 1.739 l 2.516,9.331 h -1.57 l -0.588,-2.338 h -2.748 l -0.582,2.338 h -1.478 z m 1.791,5.776 -1.075,-4.272 -1.061,4.272 z" />
      <path
         style="fill:#ffffff"
         inkscape:connector-curvature="0"
         id="path2163"
         d="m 47.433,12.813 h 1.551 v 8.025 H 52.3 v 1.306 h -4.867 z" />
      <path
         style="fill:#ffffff"
         inkscape:connector-curvature="0"
         id="path2165"
         d="m 51.729,12.813 h 5.724 v 1.312 H 55.36 v 8.019 h -1.551 v -8.019 h -2.08 z" />
      <path
         style="fill:#ffffff"
         inkscape:connector-curvature="0"
         id="path2167"
         d="m 58.126,12.813 h 5.367 v 1.237 h -3.816 v 2.666 h 2.992 v 1.244 h -2.992 v 2.919 h 3.878 v 1.265 h -5.429 z" />
      <path
         style="fill:#ffffff"
         inkscape:connector-curvature="0"
         id="path2169"
         d="m 64.542,12.813 h 1.827 l 3.081,6.726 v -6.726 h 1.3 v 9.331 H 69.3 l -3.46,-7.472 v 7.472 h -1.3 z" />
    </g>
    <path
       d="m 80.118,44.072 a 15.147,15.147 0 0 0 -1.427,0.987 c -0.56,0.48 -0.947,0.4 -1.437,-0.128 -1.6,-1.716 -1.529,-1.078 -0.235,-2.966 a 1.334,1.334 0 0 0 -0.862,-2.159 c -2.02,-0.408 -2,-0.408 -1.941,-2.457 0.016,-0.525 0.146,-0.826 0.718,-0.863 a 11.41,11.41 0 0 0 1.194,-0.193 1.334,1.334 0 0 0 0.922,-2.137 c -1.169,-1.711 -1.153,-1.693 0.339,-3.117 a 0.781,0.781 0 0 1 1.213,-0.088 c 0.285,0.234 0.594,0.441 0.9,0.654 a 1.318,1.318 0 0 0 2.193,-0.91 c 0.308,-1.929 0.731,-2.21 2.707,-1.864 a 0.6,0.6 0 0 1 0.564,0.586 c 0.069,0.466 0.148,0.93 0.241,1.392 a 1.317,1.317 0 0 0 2.09,0.869 c 0.028,-0.019 0.057,-0.036 0.084,-0.056 1.678,-1.178 1.991,-1.116 3.238,0.56 a 0.588,0.588 0 0 1 0.038,0.809 c -0.279,0.379 -0.543,0.77 -0.81,1.158 a 1.314,1.314 0 0 0 0.884,2.142 c 2.085,0.362 2.188,0.517 1.933,2.648 -0.049,0.412 -0.213,0.6 -0.614,0.641 -0.401,0.041 -0.8,0.134 -1.193,0.2 a 1.314,1.314 0 0 0 -0.953,2.222 c 1.151,1.6 1.06,2.054 -0.6,3.249 a 0.6,0.6 0 0 1 -0.813,-0.006 c -0.379,-0.279 -0.771,-0.54 -1.163,-0.8 a 1.318,1.318 0 0 0 -2.109,0.831 c -0.008,0.033 -0.016,0.065 -0.022,0.1 -0.4,2.006 -0.644,2.173 -2.7,1.891 -0.355,-0.048 -0.55,-0.174 -0.6,-0.539 -0.06,-0.467 -0.145,-0.931 -0.225,-1.395 a 1.79,1.79 0 0 0 -1.554,-1.261 z"
       id="path2173"
       inkscape:connector-curvature="0"
       style="isolation:isolate;fill:#ffffff" />
    <path
       d="m 80.668,38.047 a 2.78,2.78 0 1 1 2.82,2.792 2.732,2.732 0 0 1 -2.82,-2.792 z"
       id="path2175"
       style="isolation:isolate;fill:#3866ac;fill-opacity:1"
       inkscape:connector-curvature="0" />
    <rect
       style="isolation:isolate;fill:none"
       y="0"
       x="0"
       id="rect2179"
       height="63.970001"
       width="108.605" />
  </g>
</svg>
