<?xml version="1.0" encoding="UTF-8" standalone="no"?>
<svg
   xmlns:dc="http://purl.org/dc/elements/1.1/"
   xmlns:cc="http://creativecommons.org/ns#"
   xmlns:rdf="http://www.w3.org/1999/02/22-rdf-syntax-ns#"
   xmlns:svg="http://www.w3.org/2000/svg"
   xmlns="http://www.w3.org/2000/svg"
   xmlns:xlink="http://www.w3.org/1999/xlink"
   xmlns:sodipodi="http://sodipodi.sourceforge.net/DTD/sodipodi-0.dtd"
   xmlns:inkscape="http://www.inkscape.org/namespaces/inkscape"
   viewBox="0 0 108.605 63.97"
   version="1.1"
   id="svg1853"
   sodipodi:docname="Element 26.svg.2020_03_01_11_39_31.0.svg"
   inkscape:version="0.92.4 (5da689c313, 2019-01-14)">
  <metadata
     id="metadata1857">
    <rdf:RDF>
      <cc:Work
         rdf:about="">
        <dc:format>image/svg+xml</dc:format>
        <dc:type
           rdf:resource="http://purl.org/dc/dcmitype/StillImage" />
      </cc:Work>
    </rdf:RDF>
  </metadata>
  <sodipodi:namedview
     pagecolor="#ffffff"
     bordercolor="#666666"
     borderopacity="1"
     objecttolerance="10"
     gridtolerance="10"
     guidetolerance="10"
     inkscape:pageopacity="0"
     inkscape:pageshadow="2"
     inkscape:window-width="1920"
     inkscape:window-height="1018"
     id="namedview1855"
     showgrid="false"
     inkscape:zoom="4"
     inkscape:cx="11.802502"
     inkscape:cy="31.985001"
     inkscape:window-x="1912"
     inkscape:window-y="-8"
     inkscape:window-maximized="1"
     inkscape:current-layer="svg1853" />
  <defs
     id="defs1617">
    <linearGradient
       inkscape:collect="always"
       id="linearGradient3263">
      <stop
         style="stop-color:#94a5e9;stop-opacity:1"
         offset="0"
         id="stop3259" />
      <stop
         style="stop-color:#7289d3;stop-opacity:1"
         offset="1"
         id="stop3261" />
    </linearGradient>
    <linearGradient
       id="Unbenannter_Verlauf_7"
       data-name="Unbenannter Verlauf 7"
       x1="0.211"
       y1="27.935"
       x2="102.612"
       y2="27.935"
       gradientUnits="userSpaceOnUse">
      <stop
         offset="0.002"
         stop-color="#5c6cba"
         id="stop1599" />
      <stop
         offset="0.081"
         stop-color="#5767b6"
         id="stop1601" />
      <stop
         offset="0.389"
         stop-color="#4859aa"
         id="stop1603" />
      <stop
         offset="0.983"
         stop-color="#4253a2"
         id="stop1605" />
    </linearGradient>
    <linearGradient
       id="Unbenannter_Verlauf_14"
       data-name="Unbenannter Verlauf 14"
       x1="57.821"
       y1="34.075"
       x2="42.279"
       y2="19.049"
       gradientUnits="userSpaceOnUse">
      <stop
         offset="0.16242807"
         stop-color="#5c6cba"
         stop-opacity="0.85"
         id="stop1608"
         style="stop-color:#7f97e1;stop-opacity:1" />
      <stop
         offset="0.89223468"
         stop-color="#5c6cba"
         stop-opacity="0.95"
         id="stop1610"
         style="stop-color:#5c71bb;stop-opacity:1" />
    </linearGradient>
    <clipPath
       id="clip-path"
       transform="translate(5.108 4.962)">
      <rect
         style="fill:none"
         x="0.211"
         y="0.271"
         width="102.4"
         height="55.327999"
         rx="6.6729999"
         id="rect1077" />
    </clipPath>
    <clipPath
       id="clip-path-2"
       transform="translate(5.108 4.962)">
      <rect
         style="fill:none"
         x="-4.789"
         y="-4.7290001"
         width="112.4"
         height="65.328003"
         id="rect1080" />
    </clipPath>
    <clipPath
       id="clip-path-3"
       transform="translate(5.108 4.962)">
      <path
         style="fill:none"
         inkscape:connector-curvature="0"
         d="M 62.068,28.771 A 10.809,10.809 0 1 1 51.3,17.934 10.776,10.776 0 0 1 62.068,28.771 Z"
         id="path1083" />
    </clipPath>
    <clipPath
       id="clip-path-4"
       transform="translate(5.108 4.962)">
      <rect
         style="fill:none"
         x="35.452999"
         y="12.935"
         width="31.615"
         height="31.615"
         id="rect1086" />
    </clipPath>
    <linearGradient
       inkscape:collect="always"
       xlink:href="#linearGradient3263"
       id="linearGradient3265"
       x1="3.711"
       y1="9.9349995"
       x2="72.111"
       y2="41.684998"
       gradientUnits="userSpaceOnUse" />
    <clipPath
       id="clip-path-4-1"
       transform="translate(5.108 4.962)">
      <rect
         style="fill:none"
         x="35.452999"
         y="12.935"
         width="31.615"
         height="31.615"
         id="rect1086-0" />
    </clipPath>
  </defs>
  <title
     id="title1619">Element 26</title>
  <rect
     style="opacity:1;fill:#ffffff;fill-opacity:1"
     id="rect2760"
     width="108.605"
     height="63.970001"
     x="0"
     y="0"
     rx="4.7270002" />
  <g
     style="isolation:isolate;mix-blend-mode:multiply"
     id="g1725">
    <path
       d="m 0.6,56.361 c 0,3.3 4.255,5.974 9.5,5.978 l 79.956,0.051 c 5.25,0 9.5,-2.669 9.5,-5.965 L 99.58,6.176 c 0,-3.3 -4.251,-5.976 -9.5,-5.979 L 10.123,0.146 C 4.878,0.142 0.62,2.813 0.619,6.113 Z"
       id="path1621"
       inkscape:connector-curvature="0"
       style="fill:#ffffff" />
    <path
       d="m 0.963,56.178 c 0,3.286 4.241,5.955 9.469,5.958 l 79.7,0.051 c 5.233,0 9.472,-2.66 9.473,-5.946 L 99.621,6.156 C 99.618,2.868 95.38,0.2 90.148,0.2 L 10.452,0.146 C 5.224,0.142 0.98,2.805 0.979,6.093 Z"
       id="path1623"
       inkscape:connector-curvature="0"
       style="fill:#fefeff" />
    <path
       d="m 1.323,56 c 0,3.275 4.227,5.936 9.438,5.939 l 79.436,0.051 c 5.215,0 9.441,-2.652 9.442,-5.927 L 99.655,6.142 C 99.656,2.859 95.432,0.2 90.216,0.2 L 10.781,0.146 C 5.57,0.143 1.34,2.8 1.339,6.074 Z"
       id="path1625"
       inkscape:connector-curvature="0"
       style="fill:#fdfdff" />
    <path
       d="m 1.683,55.812 c 0,3.265 4.213,5.916 9.408,5.92 l 79.174,0.05 c 5.2,0 9.41,-2.643 9.411,-5.907 L 99.692,6.118 C 99.694,2.851 95.483,0.2 90.285,0.2 L 11.11,0.146 C 5.916,0.143 1.7,2.788 1.7,6.055 Z"
       id="path1627"
       inkscape:connector-curvature="0"
       style="fill:#fcfcff" />
    <path
       d="m 2.043,55.629 c 0,3.254 4.2,5.9 9.377,5.9 l 78.914,0.051 c 5.181,0 9.379,-2.634 9.38,-5.888 L 99.73,6.1 c 0,-3.256 -4.2,-5.9 -9.376,-5.9 L 11.439,0.146 c -5.177,0 -9.379,2.633 -9.38,5.89 z"
       id="path1629"
       inkscape:connector-curvature="0"
       style="fill:#fcfcff" />
    <path
       d="m 2.4,55.446 c 0,3.243 4.185,5.878 9.346,5.881 l 78.654,0.05 c 5.163,0 9.348,-2.625 9.349,-5.868 L 99.765,6.079 C 99.769,2.833 95.586,0.2 90.422,0.2 L 11.768,0.147 c -5.16,0 -9.348,2.624 -9.349,5.869 z"
       id="path1631"
       inkscape:connector-curvature="0"
       style="fill:#fbfbff" />
    <path
       d="m 2.763,55.264 c 0,3.232 4.171,5.857 9.315,5.86 l 78.393,0.051 c 5.147,0 9.317,-2.617 9.318,-5.849 L 99.805,6.059 C 99.806,2.824 95.637,0.2 90.491,0.2 L 12.1,0.147 C 6.954,0.144 2.78,2.762 2.779,6 Z"
       id="path1633"
       inkscape:connector-curvature="0"
       style="fill:#fafaff" />
    <path
       d="m 3.123,55.081 c 0,3.221 4.157,5.838 9.284,5.841 l 78.133,0.05 c 5.129,0 9.286,-2.608 9.287,-5.829 l 0.016,-49.1 C 99.844,2.816 95.689,0.2 90.559,0.2 L 12.426,0.147 C 7.3,0.144 3.14,2.754 3.139,5.978 Z"
       id="path1635"
       inkscape:connector-curvature="0"
       style="fill:#f9f9ff" />
    <path
       d="m 3.483,54.9 c 0,3.21 4.144,5.818 9.253,5.822 l 77.872,0.05 c 5.113,0 9.256,-2.6 9.257,-5.811 L 99.88,6.02 C 99.882,2.807 95.74,0.2 90.628,0.2 L 12.755,0.147 C 7.646,0.144 3.5,2.745 3.5,5.959 Z"
       id="path1637"
       inkscape:connector-curvature="0"
       style="fill:#f8f8ff" />
    <path
       d="m 3.843,54.715 c 0,3.2 4.13,5.8 9.222,5.8 l 77.612,0.05 c 5.095,0 9.224,-2.591 9.225,-5.791 L 99.918,6 c 0,-3.2 -4.126,-5.8 -9.221,-5.8 L 13.085,0.147 c -5.093,0 -9.226,2.59 -9.227,5.792 z"
       id="path1639"
       inkscape:connector-curvature="0"
       style="fill:#f7f7fe" />
    <path
       d="m 4.2,54.532 c 0,3.189 4.116,5.78 9.191,5.783 l 77.352,0.049 c 5.078,0 9.193,-2.582 9.194,-5.771 L 99.953,5.982 C 99.957,2.79 95.843,0.2 90.765,0.2 L 13.414,0.148 c -5.076,0 -9.195,2.58 -9.2,5.772 z"
       id="path1641"
       inkscape:connector-curvature="0"
       style="fill:#f7f7fe" />
    <path
       d="m 4.563,54.349 c 0,3.179 4.1,5.76 9.16,5.764 l 77.091,0.049 c 5.061,0 9.163,-2.573 9.164,-5.752 L 99.993,5.962 c 0,-3.181 -4.1,-5.762 -9.159,-5.765 L 13.743,0.148 C 8.684,0.145 4.579,2.72 4.578,5.9 Z"
       id="path1643"
       inkscape:connector-curvature="0"
       style="fill:#f6f6fe" />
    <path
       d="m 4.923,54.166 c 0,3.168 4.088,5.741 9.129,5.744 l 76.831,0.049 c 5.044,0 9.131,-2.564 9.132,-5.732 L 100.031,5.943 C 100.032,2.772 95.946,0.2 90.9,0.2 L 14.072,0.148 C 9.03,0.145 4.939,2.711 4.938,5.882 Z"
       id="path1645"
       inkscape:connector-curvature="0"
       style="fill:#f5f5fe" />
    <path
       d="m 5.283,53.983 c 0,3.157 4.074,5.722 9.1,5.725 l 76.57,0.049 c 5.026,0 9.1,-2.556 9.1,-5.713 L 100.068,5.923 C 100.069,2.764 96,0.2 90.971,0.2 L 14.4,0.148 C 9.376,0.145 5.3,2.7 5.3,5.863 Z"
       id="path1647"
       inkscape:connector-curvature="0"
       style="fill:#f4f4fe" />
    <path
       d="m 5.643,53.8 c 0,3.147 4.06,5.7 9.068,5.705 l 76.309,0.049 c 5.01,0 9.07,-2.547 9.071,-5.694 L 100.106,5.9 c 0,-3.149 -4.057,-5.7 -9.067,-5.707 L 14.73,0.148 c -5.008,0 -9.071,2.546 -9.072,5.7 z"
       id="path1649"
       inkscape:connector-curvature="0"
       style="fill:#f3f3fe" />
    <path
       d="m 6,53.617 c 0,3.136 4.049,5.683 9.04,5.683 l 76.049,0.049 c 4.992,0 9.038,-2.539 9.039,-5.675 L 100.144,5.881 C 100.145,2.746 96.1,0.2 91.108,0.2 L 15.059,0.149 c -4.991,0 -9.04,2.537 -9.041,5.675 z"
       id="path1651"
       inkscape:connector-curvature="0"
       style="fill:#f2f2fe" />
    <path
       d="m 6.363,53.434 c 0,3.125 4.033,5.664 9.006,5.667 l 75.789,0.048 c 4.975,0 9.007,-2.53 9.008,-5.655 l 0.015,-47.629 c 0,-3.127 -4.029,-5.664 -9,-5.668 L 15.388,0.149 c -4.974,0 -9.009,2.529 -9.01,5.656 z"
       id="path1653"
       inkscape:connector-curvature="0"
       style="fill:#f2f2fe" />
    <path
       d="m 6.723,53.251 c 0,3.115 4.019,5.644 8.975,5.647 l 75.528,0.049 c 4.958,0 8.977,-2.521 8.978,-5.636 L 100.219,5.846 C 100.22,2.729 96.2,0.2 91.245,0.2 L 15.717,0.149 c -4.956,0 -8.978,2.52 -8.979,5.637 z"
       id="path1655"
       inkscape:connector-curvature="0"
       style="fill:#f1f1fe" />
    <path
       d="m 7.083,53.068 c 0,3.1 4,5.625 8.944,5.628 l 75.268,0.048 c 4.94,0 8.945,-2.512 8.946,-5.616 l 0.015,-47.3 c 0,-3.106 -4,-5.625 -8.942,-5.629 L 16.046,0.149 C 11.107,0.146 7.1,2.661 7.1,5.766 Z"
       id="path1657"
       inkscape:connector-curvature="0"
       style="fill:#f0f0fe" />
    <path
       d="m 7.443,52.885 c 0,3.094 3.991,5.605 8.913,5.609 l 75.008,0.048 c 4.923,0 8.914,-2.5 8.915,-5.6 L 100.294,5.804 C 100.3,2.712 96.306,0.2 91.382,0.2 L 16.375,0.149 c -4.922,0 -8.916,2.5 -8.917,5.6 z"
       id="path1659"
       inkscape:connector-curvature="0"
       style="fill:#efeffe" />
    <path
       d="m 7.8,52.7 c 0,3.083 3.977,5.586 8.882,5.589 l 74.747,0.048 c 4.906,0 8.884,-2.495 8.885,-5.577 L 100.329,5.785 C 100.333,2.7 96.357,0.2 91.451,0.2 L 16.7,0.15 C 11.8,0.146 7.819,2.644 7.818,5.728 Z"
       id="path1661"
       inkscape:connector-curvature="0"
       style="fill:#eeeefe" />
    <path
       d="m 8.163,52.519 c 0,3.072 3.963,5.567 8.851,5.57 l 74.487,0.047 c 4.889,0 8.852,-2.486 8.853,-5.558 l 0.015,-46.81 C 100.37,2.694 96.409,0.2 91.52,0.2 L 17.033,0.15 c -4.888,0 -8.854,2.485 -8.855,5.559 z"
       id="path1663"
       inkscape:connector-curvature="0"
       style="fill:#ededfe" />
    <path
       d="m 8.523,52.336 c 0,3.062 3.949,5.547 8.82,5.55 l 74.227,0.048 c 4.871,0 8.821,-2.478 8.822,-5.539 L 100.407,5.748 C 100.408,2.685 96.46,0.2 91.588,0.2 L 17.362,0.15 c -4.871,0 -8.823,2.477 -8.824,5.54 z"
       id="path1665"
       inkscape:connector-curvature="0"
       style="fill:#ececfe" />
    <path
       d="m 8.883,52.153 c 0,3.051 3.935,5.528 8.79,5.531 l 73.965,0.047 c 4.855,0 8.791,-2.468 8.792,-5.519 L 100.444,5.729 C 100.445,2.677 96.511,0.2 91.657,0.2 L 17.691,0.15 C 12.837,0.147 8.9,2.618 8.9,5.67 Z"
       id="path1667"
       inkscape:connector-curvature="0"
       style="fill:#ececfe" />
    <path
       d="m 9.243,51.971 c 0,3.039 3.921,5.508 8.759,5.511 l 73.705,0.047 c 4.837,0 8.759,-2.46 8.76,-5.5 L 100.482,5.71 C 100.483,2.668 96.563,0.2 91.725,0.2 L 18.02,0.15 c -4.837,0 -8.761,2.46 -8.762,5.5 z"
       id="path1669"
       inkscape:connector-curvature="0"
       style="fill:#ebebfe" />
    <path
       d="m 9.6,51.788 c 0,3.029 3.908,5.488 8.728,5.491 l 73.445,0.047 c 4.82,0 8.728,-2.451 8.729,-5.48 L 100.52,5.69 C 100.521,2.659 96.614,0.2 91.794,0.2 L 18.349,0.151 c -4.82,0 -8.73,2.45 -8.731,5.481 z"
       id="path1671"
       inkscape:connector-curvature="0"
       style="fill:#eaeafe" />
    <path
       d="m 9.963,51.605 c 0,3.018 3.894,5.469 8.7,5.472 l 73.184,0.047 c 4.8,0 8.7,-2.443 8.7,-5.461 l 0.015,-45.992 c 0,-3.02 -3.891,-5.47 -8.694,-5.473 L 18.678,0.151 c -4.8,0 -8.7,2.442 -8.7,5.462 z"
       id="path1673"
       inkscape:connector-curvature="0"
       style="fill:#e9e9fd" />
    <path
       d="m 10.323,51.422 c 0,3.008 3.88,5.449 8.666,5.453 l 72.924,0.046 c 4.786,0 8.666,-2.434 8.667,-5.442 L 100.6,5.651 C 100.6,2.642 96.717,0.2 91.931,0.2 L 19.007,0.151 c -4.786,0 -8.668,2.433 -8.669,5.442 z"
       id="path1675"
       inkscape:connector-curvature="0"
       style="fill:#e8e8fd" />
    <path
       d="m 10.683,51.239 c 0,3 3.866,5.43 8.635,5.433 l 72.664,0.047 c 4.768,0 8.635,-2.426 8.636,-5.423 l 0.014,-45.664 c 0,-3 -3.864,-5.431 -8.632,-5.434 L 19.336,0.151 C 14.567,0.148 10.7,2.576 10.7,5.574 Z"
       id="path1677"
       inkscape:connector-curvature="0"
       style="fill:#e7e7fd" />
    <path
       d="m 11.043,51.056 c 0,2.986 3.852,5.411 8.6,5.414 l 72.4,0.046 c 4.752,0 8.6,-2.416 8.605,-5.4 l 0.015,-45.5 c 0,-2.987 -3.85,-5.411 -8.6,-5.414 L 19.665,0.151 c -4.752,0 -8.607,2.416 -8.607,5.4 z"
       id="path1679"
       inkscape:connector-curvature="0"
       style="fill:#e7e7fd" />
    <path
       d="m 11.4,50.873 c 0,2.976 3.838,5.391 8.573,5.394 l 72.143,0.047 c 4.734,0 8.573,-2.408 8.574,-5.384 L 100.705,5.593 C 100.709,2.616 96.871,0.2 92.137,0.2 L 19.994,0.152 c -4.735,0 -8.576,2.407 -8.577,5.384 z"
       id="path1681"
       inkscape:connector-curvature="0"
       style="fill:#e6e6fd" />
    <path
       d="m 11.763,50.69 c 0,2.965 3.824,5.372 8.542,5.375 l 71.883,0.046 c 4.717,0 8.542,-2.4 8.543,-5.364 l 0.014,-45.174 c 0,-2.966 -3.822,-5.372 -8.54,-5.375 L 20.323,0.152 c -4.718,0 -8.545,2.4 -8.546,5.365 z"
       id="path1683"
       inkscape:connector-curvature="0"
       style="fill:#e5e5fd" />
    <path
       d="m 12.123,50.507 c 0,2.954 3.81,5.353 8.511,5.356 l 71.622,0.045 c 4.7,0 8.511,-2.39 8.512,-5.344 l 0.015,-45.01 C 100.784,2.6 96.974,0.2 92.274,0.2 L 20.652,0.152 c -4.7,0 -8.514,2.39 -8.515,5.345 z"
       id="path1685"
       inkscape:connector-curvature="0"
       style="fill:#e4e4fd" />
    <path
       d="m 12.483,50.324 c 0,2.944 3.8,5.333 8.481,5.336 l 71.361,0.046 c 4.682,0 8.48,-2.382 8.481,-5.325 L 100.82,5.535 C 100.821,2.59 97.025,0.2 92.343,0.2 L 20.981,0.152 C 16.3,0.149 12.5,2.533 12.5,5.478 Z"
       id="path1687"
       inkscape:connector-curvature="0"
       style="fill:#e3e3fd" />
    <path
       d="m 12.843,50.141 c 0,2.933 3.783,5.314 8.45,5.317 l 71.1,0.045 c 4.666,0 8.45,-2.373 8.451,-5.306 L 100.858,5.515 C 100.859,2.581 97.077,0.2 92.411,0.2 L 21.31,0.152 c -4.667,0 -8.452,2.373 -8.453,5.307 z"
       id="path1689"
       inkscape:connector-curvature="0"
       style="fill:#e2e2fd" />
    <path
       d="m 13.2,49.958 c 0,2.922 3.769,5.3 8.419,5.3 l 70.84,0.046 c 4.648,0 8.418,-2.364 8.419,-5.287 L 100.9,5.5 c 0,-2.924 -3.768,-5.3 -8.416,-5.3 L 21.639,0.153 c -4.65,0 -8.421,2.363 -8.422,5.287 z"
       id="path1691"
       inkscape:connector-curvature="0"
       style="fill:#e1e1fd" />
    <path
       d="m 13.563,49.775 c 0,2.912 3.755,5.275 8.388,5.278 l 70.58,0.045 c 4.631,0 8.387,-2.355 8.388,-5.267 L 100.933,5.476 C 100.934,2.564 97.18,0.2 92.548,0.2 L 21.968,0.153 c -4.632,0 -8.39,2.355 -8.391,5.267 z"
       id="path1693"
       inkscape:connector-curvature="0"
       style="fill:#e1e1fd" />
    <path
       d="m 13.923,49.592 c 0,2.9 3.741,5.256 8.357,5.259 L 92.6,54.9 c 4.614,0 8.357,-2.347 8.358,-5.248 l 0.014,-44.191 c 0,-2.9 -3.74,-5.256 -8.354,-5.259 L 22.3,0.153 C 17.682,0.15 13.938,2.5 13.937,5.4 Z"
       id="path1695"
       inkscape:connector-curvature="0"
       style="fill:#e0e0fd" />
    <path
       d="m 14.283,49.409 c 0,2.891 3.727,5.236 8.326,5.239 l 70.059,0.045 c 4.6,0 8.325,-2.338 8.326,-5.228 L 101.008,5.437 C 101.009,2.546 97.282,0.2 92.686,0.2 L 22.627,0.153 c -4.6,0 -8.329,2.338 -8.33,5.229 z"
       id="path1697"
       inkscape:connector-curvature="0"
       style="fill:#dfdffd" />
    <path
       d="m 14.643,49.226 c 0,2.88 3.713,5.217 8.295,5.22 l 69.8,0.045 c 4.579,0 8.294,-2.33 8.3,-5.209 l 0.014,-43.864 c 0,-2.88 -3.712,-5.217 -8.292,-5.22 L 22.956,0.153 c -4.582,0 -8.3,2.329 -8.3,5.21 z"
       id="path1699"
       inkscape:connector-curvature="0"
       style="fill:#dedefd" />
    <path
       d="m 15,49.043 c 0,2.869 3.7,5.2 8.264,5.2 l 69.538,0.044 c 4.563,0 8.264,-2.321 8.265,-5.189 l 0.014,-43.7 c 0,-2.87 -3.7,-5.2 -8.261,-5.2 L 23.285,0.154 c -4.565,0 -8.267,2.32 -8.268,5.189 z"
       id="path1701"
       inkscape:connector-curvature="0"
       style="fill:#ddddfd" />
    <path
       d="m 15.363,48.86 c 0,2.859 3.686,5.178 8.233,5.181 l 69.278,0.045 c 4.545,0 8.232,-2.312 8.233,-5.171 L 101.121,5.379 C 101.122,2.52 97.437,0.2 92.891,0.2 L 23.614,0.154 c -4.548,0 -8.236,2.311 -8.237,5.17 z"
       id="path1703"
       inkscape:connector-curvature="0"
       style="fill:#dcdcfd" />
    <path
       d="m 15.723,48.678 c 0,2.847 3.672,5.158 8.2,5.161 l 69.018,0.044 c 4.528,0 8.2,-2.3 8.2,-5.151 L 101.155,5.36 C 101.16,2.512 97.488,0.2 92.96,0.2 L 23.943,0.154 c -4.531,0 -8.205,2.3 -8.206,5.151 z"
       id="path1705"
       inkscape:connector-curvature="0"
       style="fill:#dcdcfd" />
    <path
       d="m 16.083,48.5 c 0,2.836 3.658,5.139 8.171,5.141 l 68.757,0.044 c 4.511,0 8.171,-2.294 8.172,-5.131 L 101.2,5.34 C 101.2,2.5 97.539,0.2 93.029,0.2 L 24.272,0.154 C 19.758,0.151 16.1,2.448 16.1,5.286 Z"
       id="path1707"
       inkscape:connector-curvature="0"
       style="fill:#dbdbfc" />
    <path
       d="m 16.443,48.312 c 0,2.826 3.644,5.119 8.141,5.122 l 68.5,0.044 c 4.494,0 8.139,-2.286 8.14,-5.112 L 101.238,5.321 C 101.235,2.494 97.591,0.2 93.1,0.2 L 24.6,0.154 c -4.5,0 -8.143,2.286 -8.144,5.113 z"
       id="path1709"
       inkscape:connector-curvature="0"
       style="fill:#dadafc" />
    <path
       d="m 16.8,48.129 c 0,2.815 3.63,5.1 8.11,5.1 l 68.236,0.043 c 4.476,0 8.108,-2.277 8.109,-5.092 L 101.272,5.3 c 0,-2.815 -3.63,-5.1 -8.106,-5.1 L 24.93,0.155 c -4.48,0 -8.112,2.276 -8.113,5.092 z"
       id="path1711"
       inkscape:connector-curvature="0"
       style="fill:#d9d9fc" />
    <path
       d="m 17.163,47.946 c 0,2.805 3.616,5.08 8.079,5.083 l 67.975,0.044 c 4.46,0 8.078,-2.269 8.079,-5.073 l 0.013,-42.718 c 0,-2.8 -3.615,-5.081 -8.075,-5.084 L 25.259,0.155 c -4.463,0 -8.081,2.268 -8.082,5.073 z"
       id="path1713"
       inkscape:connector-curvature="0"
       style="fill:#d8d8fc" />
    <path
       d="m 17.523,47.763 c 0,2.794 3.6,5.061 8.048,5.064 l 67.715,0.043 c 4.442,0 8.046,-2.259 8.047,-5.054 L 101.347,5.263 C 101.348,2.468 97.745,0.2 93.3,0.2 L 25.588,0.155 c -4.446,0 -8.05,2.26 -8.051,5.054 z"
       id="path1715"
       inkscape:connector-curvature="0"
       style="fill:#d7d7fc" />
    <path
       d="m 17.883,47.58 c 0,2.783 3.588,5.042 8.017,5.045 l 67.455,0.043 c 4.424,0 8.015,-2.251 8.016,-5.035 l 0.013,-42.39 C 101.385,2.459 97.8,0.2 93.371,0.2 L 25.917,0.155 c -4.429,0 -8.02,2.251 -8.02,5.035 z"
       id="path1717"
       inkscape:connector-curvature="0"
       style="fill:#d7d7fc" />
    <path
       d="m 18.243,47.4 c 0,2.773 3.574,5.022 7.986,5.025 l 67.194,0.043 c 4.408,0 7.985,-2.242 7.985,-5.015 L 101.422,5.227 C 101.423,2.451 97.848,0.2 93.44,0.2 L 26.246,0.155 c -4.412,0 -7.989,2.243 -7.989,5.015 z"
       id="path1719"
       inkscape:connector-curvature="0"
       style="fill:#d6d6fc" />
    <path
       d="m 18.6,47.214 c 0,2.762 3.561,5 7.955,5.006 l 66.934,0.043 c 4.39,0 7.953,-2.234 7.954,-5 L 101.46,5.2 c 0,-2.762 -3.561,-5 -7.951,-5.006 L 26.575,0.156 c -4.395,0 -7.958,2.233 -7.958,5 z"
       id="path1721"
       inkscape:connector-curvature="0"
       style="fill:#d5d5fc" />
    <path
       d="m 18.963,47.031 c 0,2.751 3.547,4.984 7.924,4.986 l 66.674,0.043 c 4.373,0 7.922,-2.225 7.923,-4.976 l 0.013,-41.9 C 101.5,2.433 97.951,0.2 93.577,0.2 L 26.9,0.156 c -4.378,0 -7.927,2.225 -7.928,4.976 z"
       id="path1723"
       inkscape:connector-curvature="0"
       style="fill:#d4d4fc" />
  </g>
  <g
     style="isolation:isolate;mix-blend-mode:multiply"
     id="g1831">
    <path
       d="m 107.2,54.648 c 0,3.075 -4.524,5.572 -10.106,5.573 L 12.016,60.25 C 6.429,60.252 1.9,57.758 1.9,54.683 L 1.856,7.811 c 0,-3.078 4.52,-5.574 10.106,-5.575 L 97.04,2.207 c 5.582,0 10.114,2.491 10.117,5.569 z"
       id="path1727"
       inkscape:connector-curvature="0"
       style="fill:#ffffff" />
    <path
       d="m 106.866,54.469 c 0,3.065 -4.51,5.553 -10.073,5.555 l -84.8,0.028 C 6.425,60.052 1.913,57.569 1.91,54.504 L 1.866,7.784 c 0,-3.067 4.505,-5.555 10.073,-5.557 L 96.74,2.2 c 5.563,0 10.08,2.483 10.083,5.55 z"
       id="path1729"
       inkscape:connector-curvature="0"
       style="fill:#fefeff" />
    <path
       d="m 106.532,54.29 c 0,3.055 -4.495,5.535 -10.04,5.537 l -84.524,0.028 c -5.55,0 -10.048,-2.476 -10.051,-5.53 L 1.875,7.758 c 0,-3.058 4.49,-5.537 10.04,-5.539 L 96.439,2.191 c 5.545,0 10.048,2.474 10.05,5.532 z"
       id="path1731"
       inkscape:connector-curvature="0"
       style="fill:#fdfdff" />
    <path
       d="m 106.2,54.111 c 0,3.045 -4.48,5.517 -10.007,5.519 L 11.946,59.658 C 6.415,59.658 1.931,57.19 1.929,54.145 L 1.884,7.731 c 0,-3.047 4.476,-5.518 10.007,-5.52 L 96.138,2.183 c 5.528,0 10.015,2.466 10.018,5.514 z"
       id="path1733"
       inkscape:connector-curvature="0"
       style="fill:#fcfcff" />
    <path
       d="m 105.864,53.932 c 0,3.035 -4.465,5.5 -9.974,5.5 L 11.92,59.46 C 6.407,59.46 1.939,57 1.936,53.965 L 1.894,7.705 c 0,-3.038 4.461,-5.5 9.974,-5.5 l 83.97,-0.027 c 5.509,0 9.981,2.458 9.984,5.5 z"
       id="path1735"
       inkscape:connector-curvature="0"
       style="fill:#fcfcff" />
    <path
       d="m 105.531,53.753 c 0,3.025 -4.451,5.481 -9.942,5.483 L 11.9,59.264 c -5.494,0 -9.948,-2.452 -9.951,-5.477 L 1.9,7.678 C 1.9,4.651 6.346,2.196 11.841,2.194 L 95.534,2.166 c 5.491,0 9.949,2.451 9.952,5.478 z"
       id="path1737"
       inkscape:connector-curvature="0"
       style="fill:#fbfbff" />
    <path
       d="m 105.2,53.574 c 0,3.015 -4.436,5.463 -9.909,5.465 l -83.415,0.027 c -5.477,0 -9.916,-2.443 -9.919,-5.458 L 1.912,7.652 c 0,-3.017 4.432,-5.464 9.909,-5.466 L 95.236,2.158 c 5.473,0 9.916,2.442 9.919,5.46 z"
       id="path1739"
       inkscape:connector-curvature="0"
       style="fill:#fafaff" />
    <path
       d="m 104.863,53.4 c 0,3 -4.421,5.445 -9.876,5.446 l -83.138,0.028 c -5.458,0 -9.883,-2.435 -9.885,-5.44 L 1.922,7.634 c 0,-3.008 4.417,-5.447 9.875,-5.448 L 94.935,2.15 c 5.455,0 9.884,2.434 9.886,5.441 z"
       id="path1741"
       inkscape:connector-curvature="0"
       style="fill:#f9f9ff" />
    <path
       d="m 104.529,53.216 c 0,2.995 -4.406,5.426 -9.843,5.428 l -82.861,0.028 c -5.44,0 -9.849,-2.427 -9.852,-5.422 L 1.931,7.6 c 0,-3 4.4,-5.428 9.842,-5.43 L 94.635,2.143 c 5.436,0 9.85,2.426 9.853,5.423 z"
       id="path1743"
       inkscape:connector-curvature="0"
       style="fill:#f8f8ff" />
    <path
       d="m 104.2,53.037 c 0,2.985 -4.392,5.408 -9.811,5.41 L 11.8,58.475 c -5.421,0 -9.816,-2.419 -9.819,-5.4 L 1.94,7.575 c 0,-2.988 4.387,-5.41 9.809,-5.412 L 94.333,2.136 c 5.419,0 9.817,2.417 9.82,5.4 z"
       id="path1745"
       inkscape:connector-curvature="0"
       style="fill:#f7f7fe" />
    <path
       d="m 103.862,52.858 c 0,2.975 -4.377,5.39 -9.777,5.392 l -82.307,0.027 c -5.4,0 -9.784,-2.41 -9.787,-5.386 L 1.95,7.546 c 0,-2.977 4.373,-5.391 9.776,-5.393 L 94.033,2.126 c 5.4,0 9.785,2.409 9.787,5.387 z"
       id="path1747"
       inkscape:connector-curvature="0"
       style="fill:#f7f7fe" />
    <path
       d="m 103.528,52.679 c 0,2.965 -4.362,5.372 -9.744,5.374 L 11.754,58.08 C 6.369,58.082 2,55.677 2,52.712 L 1.959,7.52 c 0,-2.967 4.359,-5.374 9.744,-5.375 l 82.03,-0.028 c 5.382,0 9.751,2.4 9.754,5.369 z"
       id="path1749"
       inkscape:connector-curvature="0"
       style="fill:#f6f6fe" />
    <path
       d="m 103.194,52.5 c 0,2.955 -4.347,5.354 -9.711,5.356 L 11.73,57.883 c -5.367,0 -9.718,-2.4 -9.72,-5.35 L 1.969,7.494 c 0,-2.958 4.343,-5.356 9.71,-5.358 L 93.432,2.109 c 5.364,0 9.718,2.394 9.721,5.351 z"
       id="path1751"
       inkscape:connector-curvature="0"
       style="fill:#f5f5fe" />
    <path
       d="m 102.861,52.321 c 0,2.945 -4.333,5.336 -9.679,5.338 l -81.476,0.027 c -5.348,0 -9.684,-2.387 -9.687,-5.332 L 1.978,7.467 C 1.978,4.52 6.307,2.13 11.656,2.128 L 93.131,2.1 c 5.346,0 9.686,2.385 9.689,5.333 z"
       id="path1753"
       inkscape:connector-curvature="0"
       style="fill:#f4f4fe" />
    <path
       d="m 102.527,52.142 c 0,2.935 -4.318,5.318 -9.646,5.319 l -81.2,0.027 C 6.35,57.488 2.029,55.11 2.026,52.175 L 1.987,7.441 C 1.985,4.5 6.3,2.122 11.632,2.12 l 81.2,-0.027 c 5.328,0 9.653,2.377 9.656,5.314 z"
       id="path1755"
       inkscape:connector-curvature="0"
       style="fill:#f3f3fe" />
    <path
       d="m 102.193,51.963 c 0,2.925 -4.3,5.3 -9.613,5.3 L 11.659,57.29 C 6.347,57.29 2.04,54.92 2.038,51.995 L 2,7.414 c 0,-2.927 4.3,-5.3 9.611,-5.3 L 92.53,2.085 c 5.31,0 9.62,2.369 9.622,5.3 z"
       id="path1757"
       inkscape:connector-curvature="0"
       style="fill:#f2f2fe" />
    <path
       d="m 101.859,51.784 c 0,2.915 -4.288,5.281 -9.58,5.283 l -80.644,0.027 c -5.294,0 -9.586,-2.362 -9.588,-5.277 L 2.006,7.388 C 2,4.471 6.291,2.105 11.585,2.1 L 92.229,2.073 c 5.292,0 9.587,2.361 9.59,5.279 z"
       id="path1759"
       inkscape:connector-curvature="0"
       style="fill:#f2f2fe" />
    <path
       d="m 101.525,51.6 c 0,2.906 -4.273,5.264 -9.547,5.266 L 11.611,56.9 C 6.336,56.9 2.059,54.546 2.056,51.641 L 2.016,7.361 c 0,-2.907 4.27,-5.264 9.545,-5.266 L 91.928,2.068 c 5.274,0 9.554,2.353 9.557,5.26 z"
       id="path1761"
       inkscape:connector-curvature="0"
       style="fill:#f1f1fe" />
    <path
       d="m 101.192,51.425 c 0,2.9 -4.259,5.246 -9.515,5.248 l -80.09,0.026 c -5.257,0 -9.519,-2.345 -9.522,-5.241 L 2.025,7.335 c 0,-2.9 4.256,-5.247 9.513,-5.248 L 91.628,2.06 c 5.255,0 9.521,2.345 9.523,5.242 z"
       id="path1763"
       inkscape:connector-curvature="0"
       style="fill:#f0f0fe" />
    <path
       d="m 100.858,51.246 c 0,2.886 -4.244,5.228 -9.481,5.23 L 11.564,56.5 c -5.239,0 -9.487,-2.337 -9.49,-5.223 L 2.034,7.307 c 0,-2.888 4.241,-5.229 9.48,-5.231 L 91.327,2.05 c 5.237,0 9.488,2.337 9.491,5.224 z"
       id="path1765"
       inkscape:connector-curvature="0"
       style="fill:#efeffe" />
    <path
       d="m 100.524,51.067 c 0,2.876 -4.229,5.21 -9.448,5.212 L 11.54,56.305 c -5.22,0 -9.454,-2.329 -9.456,-5.2 L 2.044,7.282 C 2.044,4.405 6.27,2.072 11.49,2.07 L 91.026,2.044 c 5.22,0 9.456,2.328 9.458,5.206 z"
       id="path1767"
       inkscape:connector-curvature="0"
       style="fill:#eeeefe" />
    <path
       d="m 100.19,50.888 c 0,2.866 -4.214,5.192 -9.415,5.193 l -79.259,0.027 c -5.2,0 -9.42,-2.322 -9.423,-5.187 L 2.053,7.256 c 0,-2.867 4.212,-5.192 9.414,-5.194 L 90.725,2.036 c 5.2,0 9.423,2.32 9.426,5.187 z"
       id="path1769"
       inkscape:connector-curvature="0"
       style="fill:#ededfe" />
    <path
       d="m 99.857,50.709 c 0,2.856 -4.2,5.174 -9.383,5.175 l -78.982,0.027 c -5.183,0 -9.387,-2.314 -9.39,-5.169 L 2.062,7.229 c 0,-2.857 4.2,-5.174 9.381,-5.175 L 90.425,2.027 c 5.183,0 9.389,2.313 9.392,5.17 z"
       id="path1771"
       inkscape:connector-curvature="0"
       style="fill:#ececfe" />
    <path
       d="m 99.523,50.53 c 0,2.846 -4.185,5.155 -9.35,5.157 l -78.7,0.026 c -5.166,0 -9.355,-2.3 -9.358,-5.15 L 2.072,7.2 c 0,-2.847 4.182,-5.156 9.348,-5.158 l 78.7,-0.026 c 5.165,0 9.357,2.3 9.359,5.152 z"
       id="path1773"
       inkscape:connector-curvature="0"
       style="fill:#ececfe" />
    <path
       d="m 99.189,50.351 c 0,2.836 -4.17,5.137 -9.317,5.139 l -78.427,0.026 c -5.147,0 -9.322,-2.3 -9.324,-5.132 L 2.081,7.177 c 0,-2.838 4.168,-5.138 9.315,-5.14 L 89.823,2.011 c 5.147,0 9.324,2.3 9.327,5.133 z"
       id="path1775"
       inkscape:connector-curvature="0"
       style="fill:#ebebfe" />
    <path
       d="m 98.855,50.172 c 0,2.826 -4.155,5.119 -9.284,5.121 l -78.15,0.026 C 6.292,55.319 2.132,53.03 2.13,50.204 L 2.091,7.15 c 0,-2.827 4.153,-5.119 9.282,-5.121 L 89.523,2 c 5.128,0 9.29,2.288 9.293,5.115 z"
       id="path1777"
       inkscape:connector-curvature="0"
       style="fill:#eaeafe" />
    <path
       d="m 98.522,49.993 c 0,2.816 -4.141,5.1 -9.252,5.1 L 11.4,55.122 c -5.11,0 -9.255,-2.281 -9.258,-5.1 L 2.1,7.124 c 0,-2.817 4.138,-5.1 9.249,-5.1 L 89.222,2 c 5.111,0 9.258,2.28 9.26,5.1 z"
       id="path1779"
       inkscape:connector-curvature="0"
       style="fill:#e9e9fd" />
    <path
       d="m 98.188,49.814 c 0,2.806 -4.126,5.083 -9.219,5.085 l -77.595,0.025 c -5.093,0 -9.223,-2.272 -9.226,-5.078 L 2.109,7.1 c 0,-2.807 4.124,-5.083 9.216,-5.085 l 77.6,-0.025 c 5.093,0 9.225,2.271 9.228,5.078 z"
       id="path1781"
       inkscape:connector-curvature="0"
       style="fill:#e8e8fd" />
    <path
       d="m 97.854,49.635 c 0,2.8 -4.111,5.065 -9.186,5.066 L 11.35,54.727 c -5.074,0 -9.19,-2.264 -9.192,-5.06 L 2.119,7.067 C 2.119,4.267 6.228,2.002 11.302,2 L 88.62,1.978 c 5.075,0 9.193,2.264 9.195,5.061 z"
       id="path1783"
       inkscape:connector-curvature="0"
       style="fill:#e7e7fd" />
    <path
       d="m 97.52,49.456 c 0,2.786 -4.1,5.047 -9.152,5.048 L 11.326,54.53 C 6.27,54.53 2.169,52.274 2.167,49.488 L 2.128,7.044 C 2.126,4.257 6.222,2 11.278,2 L 88.32,1.97 c 5.056,0 9.159,2.256 9.162,5.043 z"
       id="path1785"
       inkscape:connector-curvature="0"
       style="fill:#e7e7fd" />
    <path
       d="m 97.187,49.277 c 0,2.776 -4.082,5.028 -9.12,5.03 L 11.3,54.333 c -5.037,0 -9.123,-2.248 -9.126,-5.024 L 2.137,7.018 c 0,-2.777 4.08,-5.029 9.118,-5.031 L 88.019,1.962 c 5.038,0 9.126,2.248 9.129,5.024 z"
       id="path1787"
       inkscape:connector-curvature="0"
       style="fill:#e6e6fd" />
    <path
       d="m 96.853,49.1 c 0,2.766 -4.067,5.01 -9.087,5.012 l -76.487,0.025 c -5.02,0 -9.091,-2.24 -9.094,-5 L 2.147,6.992 c 0,-2.767 4.065,-5.011 9.084,-5.013 L 87.718,1.954 c 5.02,0 9.094,2.239 9.1,5.006 z"
       id="path1789"
       inkscape:connector-curvature="0"
       style="fill:#e5e5fd" />
    <path
       d="m 96.519,48.919 c 0,2.756 -4.052,4.992 -9.054,4.994 l -76.21,0.025 c -5,0 -9.058,-2.232 -9.06,-4.988 L 2.156,6.965 c 0,-2.757 4.05,-4.992 9.051,-4.994 l 76.21,-0.025 c 5,0 9.061,2.231 9.064,4.988 z"
       id="path1791"
       inkscape:connector-curvature="0"
       style="fill:#e4e4fd" />
    <path
       d="m 96.185,48.74 c 0,2.746 -4.037,4.974 -9.021,4.976 l -75.933,0.025 c -4.983,0 -9.025,-2.224 -9.027,-4.97 L 2.166,6.939 c 0,-2.747 4.035,-4.975 9.018,-4.976 L 87.117,1.937 c 4.984,0 9.028,2.224 9.03,4.971 z"
       id="path1793"
       inkscape:connector-curvature="0"
       style="fill:#e3e3fd" />
    <path
       d="m 95.851,48.561 c 0,2.736 -4.022,4.956 -8.988,4.958 l -75.656,0.025 c -4.964,0 -8.991,-2.216 -8.994,-4.952 L 2.175,6.912 c 0,-2.737 4.021,-4.956 8.985,-4.958 L 86.816,1.929 c 4.966,0 9,2.215 9,4.952 z"
       id="path1795"
       inkscape:connector-curvature="0"
       style="fill:#e2e2fd" />
    <path
       d="m 95.518,48.382 c 0,2.726 -4.008,4.938 -8.956,4.939 l -75.378,0.025 c -4.947,0 -8.959,-2.207 -8.962,-4.933 L 2.184,6.886 c 0,-2.727 4.007,-4.938 8.953,-4.94 L 86.515,1.921 c 4.948,0 8.962,2.207 8.965,4.934 z"
       id="path1797"
       inkscape:connector-curvature="0"
       style="fill:#e1e1fd" />
    <path
       d="m 95.184,48.2 c 0,2.716 -3.993,4.92 -8.923,4.921 l -75.1,0.025 c -4.928,0 -8.926,-2.2 -8.928,-4.915 L 2.194,6.86 c 0,-2.717 3.991,-4.921 8.919,-4.922 l 75.1,-0.025 c 4.929,0 8.929,2.2 8.931,4.916 z"
       id="path1799"
       inkscape:connector-curvature="0"
       style="fill:#e1e1fd" />
    <path
       d="m 94.85,48.024 c 0,2.706 -3.978,4.9 -8.89,4.9 l -74.824,0.025 c -4.909,0 -8.893,-2.191 -8.895,-4.9 L 2.2,6.833 c 0,-2.707 3.977,-4.9 8.886,-4.9 L 85.911,1.908 c 4.911,0 8.9,2.191 8.9,4.9 z"
       id="path1801"
       inkscape:connector-curvature="0"
       style="fill:#e0e0fd" />
    <path
       d="m 94.516,47.845 c 0,2.7 -3.963,4.883 -8.856,4.885 l -74.548,0.025 c -4.891,0 -8.86,-2.183 -8.862,-4.879 L 2.213,6.807 c 0,-2.7 3.962,-4.884 8.853,-4.886 L 85.613,1.9 c 4.894,0 8.863,2.182 8.866,4.879 z"
       id="path1803"
       inkscape:connector-curvature="0"
       style="fill:#dfdffd" />
    <path
       d="m 94.183,47.666 c 0,2.686 -3.949,4.865 -8.824,4.867 l -74.27,0.025 c -4.873,0 -8.827,-2.175 -8.83,-4.861 L 2.222,6.78 c 0,-2.687 3.947,-4.865 8.82,-4.867 l 74.27,-0.025 c 4.876,0 8.831,2.175 8.833,4.862 z"
       id="path1805"
       inkscape:connector-curvature="0"
       style="fill:#dedefd" />
    <path
       d="m 93.849,47.487 c 0,2.676 -3.934,4.847 -8.791,4.849 L 11.065,52.36 c -4.855,0 -8.794,-2.166 -8.8,-4.843 L 2.231,6.754 c 0,-2.677 3.933,-4.848 8.788,-4.849 L 85.012,1.88 c 4.857,0 8.8,2.167 8.8,4.843 z"
       id="path1807"
       inkscape:connector-curvature="0"
       style="fill:#ddddfd" />
    <path
       d="m 93.515,47.308 c 0,2.666 -3.919,4.829 -8.758,4.831 l -73.716,0.024 c -4.836,0 -8.761,-2.159 -8.763,-4.825 L 2.241,6.727 C 2.238,4.061 6.159,1.9 11,1.9 L 84.716,1.875 c 4.839,0 8.765,2.158 8.767,4.825 z"
       id="path1809"
       inkscape:connector-curvature="0"
       style="fill:#dcdcfd" />
    <path
       d="m 93.181,47.129 c 0,2.656 -3.9,4.811 -8.725,4.812 l -73.439,0.025 c -4.818,0 -8.728,-2.151 -8.73,-4.807 L 2.25,6.7 c 0,-2.657 3.9,-4.811 8.722,-4.813 L 84.41,1.864 c 4.821,0 8.732,2.15 8.734,4.807 z"
       id="path1811"
       inkscape:connector-curvature="0"
       style="fill:#dcdcfd" />
    <path
       d="m 92.848,46.95 c 0,2.646 -3.89,4.793 -8.693,4.794 l -73.161,0.025 c -4.8,0 -8.695,-2.143 -8.7,-4.789 L 2.257,6.68 c 0,-2.647 3.889,-4.793 8.689,-4.795 L 84.11,1.856 c 4.8,0 8.7,2.142 8.7,4.789 z"
       id="path1813"
       inkscape:connector-curvature="0"
       style="fill:#dbdbfc" />
    <path
       d="m 92.514,46.771 c 0,2.636 -3.875,4.775 -8.66,4.776 L 10.97,51.571 c -4.782,0 -8.662,-2.134 -8.665,-4.77 L 2.269,6.648 c 0,-2.637 3.874,-4.775 8.655,-4.776 L 83.809,1.848 c 4.785,0 8.666,2.134 8.668,4.77 z"
       id="path1815"
       inkscape:connector-curvature="0"
       style="fill:#dadafc" />
    <path
       d="m 92.18,46.592 c 0,2.626 -3.86,4.756 -8.627,4.758 l -72.607,0.024 c -4.763,0 -8.629,-2.126 -8.631,-4.752 l -0.037,-40 C 2.276,4 6.138,1.865 10.9,1.863 L 83.507,1.839 c 4.767,0 8.633,2.126 8.636,4.753 z"
       id="path1817"
       inkscape:connector-curvature="0"
       style="fill:#d9d9fc" />
    <path
       d="m 91.846,46.413 c 0,2.616 -3.845,4.738 -8.594,4.74 l -72.33,0.024 c -4.745,0 -8.6,-2.118 -8.6,-4.734 L 2.288,6.6 c 0,-2.616 3.844,-4.738 8.589,-4.74 l 72.33,-0.024 c 4.749,0 8.6,2.118 8.6,4.735 z"
       id="path1819"
       inkscape:connector-curvature="0"
       style="fill:#d8d8fc" />
    <path
       d="m 91.513,46.234 c 0,2.606 -3.831,4.72 -8.561,4.722 L 10.9,50.98 c -4.726,0 -8.562,-2.11 -8.565,-4.717 L 2.3,6.569 C 2.3,3.962 6.13,1.848 10.857,1.847 L 82.91,1.823 c 4.73,0 8.567,2.11 8.569,4.716 z"
       id="path1821"
       inkscape:connector-curvature="0"
       style="fill:#d7d7fc" />
    <path
       d="m 91.179,46.055 c 0,2.6 -3.816,4.7 -8.528,4.7 l -71.776,0.023 c -4.709,0 -8.53,-2.1 -8.533,-4.7 L 2.306,6.542 c 0,-2.6 3.816,-4.7 8.524,-4.7 L 82.606,1.818 c 4.712,0 8.534,2.1 8.537,4.7 z"
       id="path1823"
       inkscape:connector-curvature="0"
       style="fill:#d7d7fc" />
    <path
       d="m 90.845,45.876 c 0,2.586 -3.8,4.684 -8.5,4.685 l -71.5,0.024 c -4.69,0 -8.5,-2.093 -8.5,-4.68 L 2.316,6.516 c 0,-2.587 3.8,-4.684 8.49,-4.686 l 71.5,-0.023 c 4.695,0 8.5,2.093 8.5,4.68 z"
       id="path1825"
       inkscape:connector-curvature="0"
       style="fill:#d6d6fc" />
    <path
       d="m 90.511,45.7 c 0,2.576 -3.786,4.666 -8.462,4.667 l -71.222,0.024 c -4.672,0 -8.464,-2.085 -8.466,-4.662 L 2.325,6.49 c 0,-2.577 3.786,-4.666 8.458,-4.668 L 82.005,1.8 c 4.676,0 8.468,2.086 8.47,4.662 z"
       id="path1827"
       inkscape:connector-curvature="0"
       style="fill:#d5d5fc" />
    <path
       d="m 90.177,45.518 c 0,2.566 -3.771,4.648 -8.429,4.649 L 10.8,50.191 c -4.653,0 -8.431,-2.078 -8.433,-4.644 L 2.334,6.463 c 0,-2.566 3.772,-4.648 8.425,-4.649 L 81.7,1.79 c 4.658,0 8.435,2.078 8.438,4.644 z"
       id="path1829"
       inkscape:connector-curvature="0"
       style="fill:#d4d4fc" />
  </g>
  <rect
     x="0.11"
     y="0.221"
     width="103.267"
     height="56.294998"
     rx="6.7589998"
     id="rect1833"
     style="isolation:isolate;fill:#ffffff" />
  <rect
     x="0.211"
     y="0.271"
     width="102.4"
     height="55.327999"
     rx="6.6729999"
     id="rect1835"
     style="isolation:isolate;fill:url(#linearGradient3265);fill-opacity:1" />
  <rect
     width="108.605"
     height="63.970001"
     id="rect1837"
     x="0"
     y="0"
     style="isolation:isolate;fill:none" />
  <path
     style="isolation:isolate;fill:#ffffff"
     inkscape:connector-curvature="0"
     id="path1839"
     d="M 63.1,27.822 A 11.844,11.844 0 1 1 51.41,15.9 11.789,11.789 0 0 1 63.1,27.822 Z" />
  <path
     inkscape:connector-curvature="0"
     style="isolation:isolate;fill:url(#Unbenannter_Verlauf_14)"
     id="path1841"
     d="M 62.068,27.771 A 10.809,10.809 0 1 1 51.3,16.934 10.766,10.766 0 0 1 62.068,27.771 Z" />
  <path
     style="isolation:isolate;fill:#ffffff"
     inkscape:connector-curvature="0"
     id="path1843"
     d="m 55.316,27.735 c -0.035,0.482 -0.4,0.494 -0.745,0.535 -0.884,0.1 -2.057,-0.408 -2.58,0.264 -0.429,0.551 -0.142,1.653 -0.187,2.51 -0.019,0.352 -0.065,0.736 -0.537,0.739 -0.5,0 -0.455,-0.412 -0.493,-0.747 -0.1,-0.883 0.4,-2.007 -0.26,-2.6 -0.586,-0.522 -1.663,-0.1 -2.52,-0.171 -0.341,-0.026 -0.751,-0.009 -0.773,-0.487 -0.028,-0.6 0.468,-0.5 0.831,-0.534 0.849,-0.089 1.91,0.365 2.5,-0.207 0.59,-0.572 0.126,-1.646 0.221,-2.492 0.041,-0.361 -0.082,-0.871 0.512,-0.849 0.548,0.021 0.484,0.5 0.526,0.88 0.093,0.845 -0.386,1.924 0.229,2.482 0.6,0.541 1.659,0.109 2.513,0.186 0.338,0.035 0.723,-0.001 0.763,0.491 z" />
  <rect
     style="isolation:isolate;fill:none"
     x="130.396"
     y="-46.669498"
     width="108.605"
     height="63.970001"
     id="rect1313" />
</svg>
