<?xml version="1.0" encoding="UTF-8" standalone="no"?>
<svg
   xmlns:dc="http://purl.org/dc/elements/1.1/"
   xmlns:cc="http://creativecommons.org/ns#"
   xmlns:rdf="http://www.w3.org/1999/02/22-rdf-syntax-ns#"
   xmlns:svg="http://www.w3.org/2000/svg"
   xmlns="http://www.w3.org/2000/svg"
   xmlns:xlink="http://www.w3.org/1999/xlink"
   xmlns:sodipodi="http://sodipodi.sourceforge.net/DTD/sodipodi-0.dtd"
   xmlns:inkscape="http://www.inkscape.org/namespaces/inkscape"
   viewBox="0 0 121.92 107.696"
   version="1.1"
   id="svg9501"
   sodipodi:docname="A2_faecher_mouseover_dunkel.svg"
   inkscape:version="0.92.4 (5da689c313, 2019-01-14)">
  <metadata
     id="metadata9505">
    <rdf:RDF>
      <cc:Work
         rdf:about="">
        <dc:format>image/svg+xml</dc:format>
        <dc:type
           rdf:resource="http://purl.org/dc/dcmitype/StillImage" />
        <dc:title>2_faecher</dc:title>
      </cc:Work>
    </rdf:RDF>
  </metadata>
  <sodipodi:namedview
     pagecolor="#ffffff"
     bordercolor="#666666"
     borderopacity="1"
     objecttolerance="10"
     gridtolerance="10"
     guidetolerance="10"
     inkscape:pageopacity="0"
     inkscape:pageshadow="2"
     inkscape:window-width="1920"
     inkscape:window-height="1018"
     id="namedview9503"
     showgrid="false"
     inkscape:zoom="4"
     inkscape:cx="18.459999"
     inkscape:cy="53.848"
     inkscape:window-x="1912"
     inkscape:window-y="-8"
     inkscape:window-maximized="1"
     inkscape:current-layer="svg9501" />
  <defs
     id="defs9215">
    <clipPath
       id="clip-path"
       transform="translate(0.15 0.126)">
      <rect
         x="3.95"
         y="3.581"
         width="114.123"
         height="98.382"
         rx="8.788"
         fill="none"
         id="rect9203" />
    </clipPath>
    <clipPath
       id="clip-path-2"
       transform="translate(0.15 0.126)">
      <rect
         x="0.372"
         y="0.003"
         width="121.279"
         height="105.535"
         fill="none"
         id="rect9206" />
    </clipPath>
    <clipPath
       id="clip-path-4"
       transform="translate(0.15 0.126)">
      <rect
         x="3.578"
         y="3.577"
         width="114.123"
         height="98.382"
         rx="8.788"
         fill="none"
         id="rect9209" />
    </clipPath>
    <clipPath
       id="clip-path-5"
       transform="translate(0.15 0.126)">
      <rect
         y="-0.001"
         width="121.279"
         height="105.535"
         fill="none"
         id="rect9212" />
    </clipPath>
    <linearGradient
       inkscape:collect="always"
       xlink:href="#linearGradient1175-5"
       id="linearGradient1177"
       x1="103.59147"
       y1="88.713524"
       x2="13.732"
       y2="13.404"
       gradientUnits="userSpaceOnUse" />
    <linearGradient
       inkscape:collect="always"
       id="linearGradient1175-5">
      <stop
         style="stop-color:#2d528b;stop-opacity:1"
         offset="0"
         id="stop1171-0" />
      <stop
         style="stop-color:#385f9c;stop-opacity:1"
         offset="1"
         id="stop1173-3" />
    </linearGradient>
  </defs>
  <title
     id="title9217">2_faecher</title>
  <g
     id="g1550">
    <rect
       y="0"
       x="3"
       height="107.696"
       width="118.92"
       id="rect1119"
       style="opacity:1;fill:#ffffff;fill-opacity:1" />
    <g
       transform="matrix(1,0,0,0.99270206,0,0.78595851)"
       id="g9323"
       style="opacity:0.5;isolation:isolate;mix-blend-mode:multiply">
      <path
         style="fill:#ffffff"
         inkscape:connector-curvature="0"
         id="path9219"
         transform="translate(0.15,0.126)"
         d="m 120.776,97.545 c 0,5.5 -4.936,9.971 -11.026,9.974 l -92.82,0.051 c -6.095,0 -11.034,-4.46 -11.037,-9.963 L 5.847,13.722 c 0,-5.507 4.931,-9.974 11.026,-9.977 l 92.82,-0.051 c 6.089,0 11.034,4.458 11.037,9.966 z" />
      <path
         style="fill:#fefeff"
         inkscape:connector-curvature="0"
         id="path9221"
         transform="translate(0.15,0.126)"
         d="m 120.7,97.468 c 0,5.5 -4.935,9.964 -11.022,9.967 l -92.791,0.051 c -6.093,0 -11.03,-4.456 -11.034,-9.955 L 5.8,13.714 c 0,-5.5 4.883,-9.961 10.979,-9.973 l 92.835,-0.047 c 6.087,0 11.03,4.454 11.033,9.958 z" />
      <path
         style="fill:#fdfdff"
         inkscape:connector-curvature="0"
         id="path9223"
         transform="translate(0.15,0.126)"
         d="m 120.616,97.392 c 0,5.494 -4.933,9.956 -11.019,9.959 l -92.762,0.051 c -6.09,0 -11.026,-4.453 -11.029,-9.947 L 5.76,13.706 c 0,-5.493 4.834,-9.949 10.932,-9.97 L 109.54,3.694 c 6.086,0 11.027,4.451 11.03,9.95 z" />
      <path
         style="fill:#fcfcff"
         inkscape:connector-curvature="0"
         id="path9225"
         transform="translate(0.15,0.126)"
         d="m 120.536,97.316 c 0,5.49 -4.931,9.948 -11.015,9.951 l -92.733,0.05 c -6.088,0 -11.023,-4.449 -11.026,-9.938 L 5.716,13.7 c 0,-5.486 4.785,-9.937 10.885,-9.966 l 92.863,-0.038 c 6.084,0 11.023,4.447 11.026,9.942 z" />
      <path
         style="fill:#fcfcff"
         inkscape:connector-curvature="0"
         id="path9227"
         transform="translate(0.15,0.126)"
         d="m 120.456,97.24 c 0,5.485 -4.929,9.939 -11.012,9.943 l -92.7,0.05 c -6.086,0 -11.02,-4.445 -11.023,-9.93 L 5.672,13.69 C 5.68,8.211 10.409,3.766 16.511,3.728 L 109.387,3.7 c 6.083,0 11.02,4.443 11.023,9.933 z" />
      <path
         style="fill:#fbfbff"
         inkscape:connector-curvature="0"
         id="path9229"
         transform="translate(0.15,0.126)"
         d="m 120.377,97.164 c 0,5.481 -4.929,9.931 -11.009,9.935 l -92.674,0.05 c -6.085,0 -11.016,-4.442 -11.019,-9.923 L 5.629,13.682 C 5.639,8.21 10.317,3.77 16.42,3.723 L 109.311,3.7 c 6.08,0 11.017,4.439 11.02,9.924 z" />
      <path
         style="fill:#fafaff"
         inkscape:connector-curvature="0"
         id="path9231"
         transform="translate(0.15,0.126)"
         d="m 120.3,97.088 c 0,5.476 -4.927,9.923 -11.006,9.926 l -92.645,0.051 c -6.082,0 -11.012,-4.438 -11.015,-9.915 L 5.585,13.674 C 5.598,8.209 10.224,3.774 16.33,3.719 L 109.235,3.7 c 6.078,0 11.013,4.435 11.016,9.916 z" />
      <path
         style="fill:#f9f9ff"
         inkscape:connector-curvature="0"
         id="path9233"
         transform="translate(0.15,0.126)"
         d="m 120.217,97.012 c 0,5.472 -4.925,9.915 -11,9.918 l -92.616,0.051 c -6.08,0 -11.009,-4.435 -11.012,-9.907 L 5.541,13.666 c 0.016,-5.458 4.591,-9.888 10.7,-9.951 l 92.919,-0.02 c 6.077,0 11.01,4.432 11.013,9.908 z" />
      <path
         style="fill:#f8f8ff"
         inkscape:connector-curvature="0"
         id="path9235"
         transform="translate(0.15,0.126)"
         d="m 120.137,96.935 c 0,5.468 -4.924,9.908 -11,9.911 l -92.587,0.051 c -6.078,0 -11,-4.431 -11.008,-9.9 L 5.5,13.658 C 5.517,8.207 10.042,3.783 16.151,3.711 L 109.082,3.7 c 6.075,0 11.006,4.428 11.009,9.9 z" />
      <path
         style="fill:#f7f7fe"
         inkscape:connector-curvature="0"
         id="path9237"
         transform="translate(0.15,0.126)"
         d="m 120.057,96.859 c 0,5.464 -4.922,9.9 -11,9.9 l -92.557,0.05 c -6.076,0 -11,-4.427 -11,-9.89 L 5.454,13.65 C 5.474,8.206 9.947,3.787 16.054,3.706 L 109.005,3.7 c 6.074,0 11,4.425 11.006,9.892 z" />
      <path
         style="fill:#f7f7fe"
         inkscape:connector-curvature="0"
         id="path9239"
         transform="translate(0.15,0.126)"
         d="m 119.977,96.783 c 0,5.459 -4.92,9.891 -10.991,9.895 l -92.528,0.05 c -6.075,0 -11,-4.423 -11,-9.882 L 5.412,13.646 C 5.433,8.205 9.855,3.791 15.968,3.7 h 92.961 c 6.071,0 11,4.421 11,9.884 z" />
      <path
         style="fill:#f6f6fe"
         inkscape:connector-curvature="0"
         id="path9241"
         transform="translate(0.15,0.126)"
         d="m 119.9,96.707 c 0,5.455 -4.918,9.883 -10.988,9.886 l -92.5,0.051 c -6.072,0 -10.994,-4.42 -11,-9.875 L 5.367,13.634 C 5.392,8.2 9.763,3.8 15.877,3.7 h 92.976 c 6.069,0 11,4.418 11,9.876 z" />
      <path
         style="fill:#f5f5fe"
         inkscape:connector-curvature="0"
         id="path9243"
         transform="translate(0.15,0.126)"
         d="m 119.818,96.631 c 0,5.45 -4.918,9.875 -10.985,9.878 l -92.47,0.051 c -6.07,0 -10.991,-4.416 -10.994,-9.867 L 5.323,13.626 C 5.351,8.2 9.67,3.8 15.787,3.693 h 92.989 c 6.068,0 10.993,4.414 11,9.868 z" />
      <path
         style="fill:#f4f4fe"
         inkscape:connector-curvature="0"
         id="path9245"
         transform="translate(0.15,0.126)"
         d="m 119.738,96.555 c 0,5.446 -4.916,9.867 -10.982,9.87 l -92.44,0.051 c -6.068,0 -10.988,-4.413 -10.991,-9.859 l -0.046,-83 C 5.31,8.2 9.578,3.8 15.7,3.689 l 93,0.006 c 6.066,0 10.989,4.41 10.992,9.86 z" />
      <path
         style="fill:#f3f3fe"
         inkscape:connector-curvature="0"
         id="path9247"
         transform="translate(0.15,0.126)"
         d="m 119.658,96.478 c 0,5.442 -4.914,9.86 -10.978,9.863 l -92.411,0.05 c -6.066,0 -10.985,-4.408 -10.988,-9.85 L 5.236,13.61 c 0.033,-5.409 4.25,-9.8 10.37,-9.925 l 93.017,0.01 c 6.064,0 10.986,4.407 10.989,9.852 z" />
      <path
         style="fill:#f2f2fe"
         inkscape:connector-curvature="0"
         id="path9249"
         transform="translate(0.15,0.126)"
         d="m 119.578,96.4 c 0,5.438 -4.912,9.851 -10.975,9.855 l -92.382,0.05 c -6.064,0 -10.98,-4.405 -10.983,-9.842 L 5.192,13.6 C 5.228,8.2 9.392,3.811 15.515,3.678 l 93.032,0.015 c 6.062,0 10.982,4.4 10.985,9.844 z" />
      <path
         style="fill:#f2f2fe"
         inkscape:connector-curvature="0"
         id="path9251"
         transform="translate(0.15,0.126)"
         d="m 119.5,96.326 c 0,5.433 -4.911,9.843 -10.971,9.847 l -92.353,0.05 c -6.062,0 -10.977,-4.4 -10.98,-9.835 L 5.148,13.593 C 5.187,8.2 9.3,3.817 15.425,3.676 l 93.046,0.019 c 6.06,0 10.979,4.4 10.982,9.836 z" />
      <path
         style="fill:#f1f1fe"
         inkscape:connector-curvature="0"
         id="path9253"
         transform="translate(0.15,0.126)"
         d="m 119.418,96.25 c 0,5.429 -4.909,9.835 -10.967,9.838 l -92.324,0.051 c -6.06,0 -10.974,-4.4 -10.977,-9.827 L 5.105,13.585 C 5.146,8.198 9.205,3.821 15.334,3.672 l 93.06,0.023 c 6.059,0 10.976,4.4 10.979,9.828 z" />
      <path
         style="fill:#f0f0fe"
         inkscape:connector-curvature="0"
         id="path9255"
         transform="translate(0.15,0.126)"
         d="m 119.339,96.174 c 0,5.424 -4.908,9.827 -10.965,9.83 l -92.294,0.051 c -6.058,0 -10.97,-4.4 -10.973,-9.819 L 5.061,13.577 C 5.105,8.197 9.116,3.825 15.243,3.667 l 93.075,0.028 c 6.057,0 10.972,4.393 10.975,9.82 z" />
      <path
         style="fill:#efeffe"
         inkscape:connector-curvature="0"
         id="path9257"
         transform="translate(0.15,0.126)"
         d="m 119.259,96.1 c 0,5.42 -4.906,9.819 -10.961,9.822 l -92.266,0.05 c -6.055,0 -10.966,-4.39 -10.969,-9.81 L 5.017,13.569 C 5.064,8.2 9.024,3.83 15.153,3.663 l 93.088,0.032 c 6.055,0 10.969,4.389 10.972,9.812 z" />
      <path
         style="fill:#eeeefe"
         inkscape:connector-curvature="0"
         id="path9259"
         transform="translate(0.15,0.126)"
         d="m 119.179,96.022 c 0,5.415 -4.905,9.811 -10.958,9.814 l -92.236,0.05 c -6.054,0 -10.963,-4.387 -10.966,-9.8 L 4.974,13.561 C 5.023,8.195 8.932,3.834 15.062,3.661 l 93.1,0.036 c 6.053,0 10.965,4.385 10.968,9.8 z" />
      <path
         style="fill:#ededfe"
         inkscape:connector-curvature="0"
         id="path9261"
         transform="translate(0.15,0.126)"
         d="m 119.1,95.945 c 0,5.412 -4.9,9.8 -10.954,9.807 l -92.207,0.05 c -6.052,0 -10.96,-4.383 -10.962,-9.794 L 4.93,13.553 C 4.981,8.194 8.839,3.838 14.972,3.653 l 93.117,0.041 c 6.051,0 10.962,4.382 10.965,9.8 z" />
      <path
         style="fill:#ececfe"
         inkscape:connector-curvature="0"
         id="path9263"
         transform="translate(0.15,0.126)"
         d="m 119.019,95.869 c 0,5.407 -4.9,9.8 -10.951,9.8 l -92.177,0.05 c -6.05,0 -10.956,-4.38 -10.959,-9.787 L 4.886,13.545 c 0.054,-5.352 3.861,-9.7 10,-9.895 l 93.131,0.045 c 6.05,0 10.959,4.378 10.962,9.788 z" />
      <path
         style="fill:#ececfe"
         inkscape:connector-curvature="0"
         id="path9265"
         transform="translate(0.15,0.126)"
         d="m 118.939,95.793 c 0,5.4 -4.9,9.787 -10.947,9.79 l -92.148,0.051 c -6.048,0 -10.953,-4.376 -10.956,-9.779 L 4.843,13.537 C 4.899,8.192 8.655,3.847 14.791,3.646 l 93.145,0.049 c 6.047,0 10.955,4.375 10.958,9.78 z" />
      <path
         style="fill:#ebebfe"
         inkscape:connector-curvature="0"
         id="path9267"
         transform="translate(0.15,0.126)"
         d="m 118.859,95.717 c 0,5.4 -4.9,9.779 -10.943,9.782 l -92.12,0.05 c -6.045,0 -10.949,-4.372 -10.952,-9.77 L 4.8,13.529 C 4.859,8.191 8.563,3.851 14.7,3.641 l 93.159,0.054 c 6.046,0 10.952,4.371 10.955,9.772 z" />
      <path
         style="fill:#eaeafe"
         inkscape:connector-curvature="0"
         id="path9269"
         transform="translate(0.15,0.126)"
         d="m 118.78,95.641 c 0,5.394 -4.9,9.771 -10.941,9.774 l -92.09,0.05 C 9.705,105.469 4.8,101.1 4.8,95.7 L 4.755,13.521 C 4.817,8.19 8.47,3.855 14.61,3.637 l 93.173,0.058 c 6.044,0 10.948,4.368 10.951,9.764 z" />
      <path
         style="fill:#e9e9fd"
         inkscape:connector-curvature="0"
         id="path9271"
         transform="translate(0.15,0.126)"
         d="m 118.7,95.565 c 0,5.389 -4.895,9.763 -10.937,9.766 l -92.061,0.05 C 9.66,105.381 4.76,101.016 4.757,95.627 L 4.712,13.513 C 4.776,8.189 8.378,3.86 14.519,3.633 l 93.188,0.062 c 6.042,0 10.945,4.364 10.947,9.756 z" />
      <path
         style="fill:#e8e8fd"
         inkscape:connector-curvature="0"
         id="path9273"
         transform="translate(0.15,0.126)"
         d="m 118.62,95.488 c 0,5.385 -4.893,9.755 -10.934,9.759 l -92.031,0.05 c -6.04,0 -10.939,-4.361 -10.942,-9.747 L 4.668,13.505 C 4.735,8.188 8.285,3.864 14.429,3.628 l 93.2,0.067 c 6.041,0 10.942,4.36 10.945,9.748 z" />
      <path
         style="fill:#e7e7fd"
         inkscape:connector-curvature="0"
         id="path9275"
         transform="translate(0.15,0.126)"
         d="m 118.54,95.412 c 0,5.381 -4.892,9.747 -10.93,9.751 l -92,0.05 c -6.037,0 -10.934,-4.358 -10.937,-9.739 L 4.624,13.5 C 4.694,8.19 8.193,3.871 14.338,3.627 l 93.216,0.071 c 6.038,0 10.938,4.357 10.941,9.74 z" />
      <path
         style="fill:#e7e7fd"
         inkscape:connector-curvature="0"
         id="path9277"
         transform="translate(0.15,0.126)"
         d="m 118.46,95.336 c 0,5.376 -4.89,9.739 -10.927,9.742 l -91.973,0.05 c -6.035,0 -10.931,-4.354 -10.934,-9.73 L 4.581,13.489 c 0.072,-5.3 3.52,-9.616 9.667,-9.869 l 93.229,0.075 c 6.037,0 10.935,4.353 10.938,9.732 z" />
      <path
         style="fill:#e6e6fd"
         inkscape:connector-curvature="0"
         id="path9279"
         transform="translate(0.15,0.126)"
         d="m 118.38,95.26 c 0,5.372 -4.888,9.731 -10.923,9.734 l -91.944,0.05 c -6.034,0 -10.928,-4.35 -10.931,-9.722 L 4.537,13.481 c 0.075,-5.3 3.471,-9.6 9.62,-9.866 L 107.4,3.7 c 6.035,0 10.931,4.35 10.934,9.724 z" />
      <path
         style="fill:#e5e5fd"
         inkscape:connector-curvature="0"
         id="path9281"
         transform="translate(0.15,0.126)"
         d="m 118.3,95.184 c 0,5.367 -4.887,9.723 -10.92,9.726 l -91.914,0.05 c -6.032,0 -10.925,-4.347 -10.927,-9.714 L 4.493,13.473 C 4.571,8.184 7.916,3.881 14.067,3.611 l 93.258,0.084 c 6.033,0 10.927,4.346 10.93,9.716 z" />
      <path
         style="fill:#e4e4fd"
         inkscape:connector-curvature="0"
         id="path9283"
         transform="translate(0.15,0.126)"
         d="m 118.221,95.108 c 0,5.363 -4.886,9.715 -10.917,9.718 l -91.886,0.05 c -6.029,0 -10.92,-4.343 -10.923,-9.706 L 4.45,13.47 C 4.53,8.189 7.824,3.89 13.976,3.612 L 107.248,3.7 c 6.031,0 10.925,4.343 10.928,9.708 z" />
      <path
         style="fill:#e3e3fd"
         inkscape:connector-curvature="0"
         id="path9285"
         transform="translate(0.15,0.126)"
         d="m 118.141,95.032 c 0,5.358 -4.884,9.706 -10.913,9.71 l -91.857,0.05 c -6.027,0 -10.917,-4.34 -10.92,-9.7 L 4.406,13.457 C 4.489,8.183 7.731,3.89 13.886,3.6 l 93.286,0.092 c 6.029,0 10.921,4.339 10.924,9.7 z" />
      <path
         style="fill:#e2e2fd"
         inkscape:connector-curvature="0"
         id="path9287"
         transform="translate(0.15,0.126)"
         d="m 118.061,94.955 c 0,5.355 -4.882,9.7 -10.91,9.7 l -91.827,0.05 c -6.025,0 -10.914,-4.336 -10.917,-9.691 L 4.362,13.449 C 4.447,8.182 7.639,3.894 13.8,3.6 l 93.3,0.1 c 6.027,0 10.917,4.334 10.92,9.691 z" />
      <path
         style="fill:#e1e1fd"
         inkscape:connector-curvature="0"
         id="path9289"
         transform="translate(0.15,0.126)"
         d="m 117.981,94.879 c 0,5.35 -4.881,9.691 -10.906,9.694 l -91.8,0.05 c -6.023,0 -10.91,-4.332 -10.913,-9.682 L 4.317,13.441 C 4.406,8.181 7.547,3.9 13.705,3.594 l 93.314,0.1 c 6.026,0 10.914,4.331 10.917,9.683 z" />
      <path
         style="fill:#e1e1fd"
         inkscape:connector-curvature="0"
         id="path9291"
         transform="translate(0.15,0.126)"
         d="m 117.9,94.8 c 0,5.346 -4.879,9.683 -10.9,9.686 l -91.768,0.05 c -6.022,0 -10.907,-4.328 -10.91,-9.674 L 4.275,13.432 C 4.365,8.18 7.454,3.9 13.614,3.59 l 93.329,0.106 c 6.024,0 10.91,4.327 10.913,9.675 z" />
      <path
         style="fill:#e0e0fd"
         inkscape:connector-curvature="0"
         id="path9293"
         transform="translate(0.15,0.126)"
         d="m 117.821,94.727 c 0,5.341 -4.877,9.675 -10.9,9.678 l -91.74,0.05 c -6.019,0 -10.9,-4.325 -10.906,-9.666 L 4.231,13.424 C 4.324,8.179 7.362,3.907 13.524,3.585 l 93.342,0.111 c 6.022,0 10.908,4.324 10.911,9.667 z" />
      <path
         style="fill:#dfdffd"
         inkscape:connector-curvature="0"
         id="path9295"
         transform="translate(0.15,0.126)"
         d="m 117.742,94.651 c 0,5.337 -4.876,9.667 -10.9,9.67 l -91.71,0.05 c -6.017,0 -10.9,-4.321 -10.9,-9.658 L 4.187,13.413 C 4.287,8.175 7.269,3.908 13.432,3.578 L 106.79,3.7 c 6.02,0 10.9,4.32 10.907,9.658 z" />
      <path
         style="fill:#dedefd"
         inkscape:connector-curvature="0"
         id="path9297"
         transform="translate(0.15,0.126)"
         d="m 117.662,94.575 c 0,5.332 -4.875,9.658 -10.893,9.662 l -91.681,0.05 c -6.015,0 -10.9,-4.318 -10.9,-9.651 L 4.144,13.408 c 0.1,-5.231 3.033,-9.493 9.2,-9.831 l 93.371,0.119 c 6.018,0 10.9,4.317 10.9,9.65 z" />
      <path
         style="fill:#ddddfd"
         inkscape:connector-curvature="0"
         id="path9299"
         transform="translate(0.15,0.126)"
         d="m 117.582,94.5 c 0,5.329 -4.873,9.651 -10.889,9.654 l -91.652,0.05 c -6.013,0 -10.893,-4.313 -10.9,-9.642 L 4.1,13.4 C 4.2,8.176 7.085,3.92 13.252,3.572 l 93.385,0.124 c 6.017,0 10.9,4.313 10.9,9.642 z" />
      <path
         style="fill:#dcdcfd"
         inkscape:connector-curvature="0"
         id="path9301"
         transform="translate(0.15,0.126)"
         d="m 117.5,94.422 c 0,5.324 -4.871,9.643 -10.886,9.646 l -91.623,0.05 C 8.98,104.118 4.102,99.808 4.1,94.484 L 4.057,13.392 c 0.1,-5.217 2.936,-9.468 9.105,-9.824 l 93.4,0.128 c 6.015,0 10.893,4.309 10.9,9.634 z" />
      <path
         style="fill:#dcdcfd"
         inkscape:connector-curvature="0"
         id="path9303"
         transform="translate(0.15,0.126)"
         d="m 117.422,94.346 c 0,5.32 -4.869,9.635 -10.882,9.638 l -91.594,0.05 c -6.009,0 -10.885,-4.307 -10.888,-9.626 L 4.013,13.384 C 4.119,8.174 6.9,3.928 13.071,3.564 l 93.413,0.132 c 6.013,0 10.891,4.306 10.893,9.626 z" />
      <path
         style="fill:#dbdbfc"
         inkscape:connector-curvature="0"
         id="path9305"
         transform="translate(0.15,0.126)"
         d="m 117.342,94.27 c 0,5.315 -4.868,9.627 -10.879,9.63 l -91.564,0.05 c -6.007,0 -10.882,-4.3 -10.885,-9.618 L 3.969,13.376 c 0.109,-5.2 2.839,-9.444 9.012,-9.817 l 93.427,0.137 c 6.011,0 10.887,4.3 10.89,9.618 z" />
      <path
         style="fill:#dadafc"
         inkscape:connector-curvature="0"
         id="path9307"
         transform="translate(0.15,0.126)"
         d="m 117.262,94.194 c 0,5.311 -4.866,9.619 -10.875,9.622 l -91.535,0.05 c -6.005,0 -10.879,-4.3 -10.882,-9.611 L 3.926,13.368 c 0.111,-5.2 2.79,-9.431 8.964,-9.813 l 93.442,0.141 c 6.009,0 10.883,4.3 10.886,9.61 z" />
      <path
         style="fill:#d9d9fc"
         inkscape:connector-curvature="0"
         id="path9309"
         transform="translate(0.15,0.126)"
         d="m 117.183,94.118 c 0,5.306 -4.865,9.61 -10.873,9.614 l -91.506,0.049 c -6,0 -10.874,-4.3 -10.877,-9.6 L 3.882,13.36 C 4,8.171 6.623,3.941 12.8,3.551 l 93.455,0.145 c 6.008,0 10.88,4.3 10.883,9.6 z" />
      <path
         style="fill:#d8d8fc"
         inkscape:connector-curvature="0"
         id="path9311"
         transform="translate(0.15,0.126)"
         d="m 117.1,94.042 c 0,5.3 -4.863,9.6 -10.869,9.605 l -91.477,0.05 c -6,0 -10.871,-4.292 -10.874,-9.594 L 3.839,13.352 C 3.955,8.17 6.531,3.945 12.709,3.546 l 93.47,0.15 c 6,0 10.876,4.292 10.879,9.594 z" />
      <path
         style="fill:#d7d7fc"
         inkscape:connector-curvature="0"
         id="path9313"
         transform="translate(0.15,0.126)"
         d="m 117.023,93.965 c 0,5.3 -4.862,9.595 -10.866,9.6 l -91.447,0.05 c -6,0 -10.868,-4.288 -10.871,-9.586 L 3.8,13.344 C 3.919,8.169 6.444,3.95 12.624,3.544 L 106.1,3.7 c 6,0 10.873,4.288 10.876,9.586 z" />
      <path
         style="fill:#d7d7fc"
         inkscape:connector-curvature="0"
         id="path9315"
         transform="translate(0.15,0.126)"
         d="m 116.943,93.889 c 0,5.294 -4.86,9.587 -10.862,9.59 l -91.418,0.05 c -6,0 -10.864,-4.285 -10.867,-9.578 L 3.751,13.336 c 0.121,-5.168 2.6,-9.382 8.777,-9.8 l 93.5,0.158 c 6,0 10.87,4.284 10.873,9.578 z" />
      <path
         style="fill:#d6d6fc"
         inkscape:connector-curvature="0"
         id="path9317"
         transform="translate(0.15,0.126)"
         d="m 116.863,93.813 c 0,5.289 -4.858,9.579 -10.858,9.582 l -91.389,0.05 c -5.995,0 -10.861,-4.281 -10.864,-9.57 L 3.708,13.328 C 3.831,8.167 6.254,3.958 12.437,3.533 L 105.95,3.7 c 6,0 10.866,4.281 10.869,9.57 z" />
      <path
         style="fill:#d5d5fc"
         inkscape:connector-curvature="0"
         id="path9319"
         transform="translate(0.15,0.126)"
         d="m 116.783,93.737 c 0,5.285 -4.856,9.57 -10.855,9.574 l -91.36,0.049 c -5.992,0 -10.857,-4.277 -10.86,-9.562 L 3.664,13.32 C 3.79,8.166 6.164,3.962 12.347,3.529 l 93.526,0.167 c 6,0 10.863,4.277 10.866,9.562 z" />
      <path
         style="fill:#d4d4fc"
         inkscape:connector-curvature="0"
         id="path9321"
         transform="translate(0.15,0.126)"
         d="m 116.7,93.661 c 0,5.28 -4.856,9.562 -10.852,9.566 l -91.331,0.049 C 8.53,103.28 3.667,99 3.665,93.722 L 3.62,13.312 C 3.749,8.165 6.069,3.967 12.256,3.525 L 105.8,3.7 c 6,0 10.859,4.274 10.862,9.554 z" />
    </g>
    <rect
       style="opacity:1;isolation:isolate;fill:url(#linearGradient1177);fill-opacity:1.0"
       id="rect9337"
       rx="8.7880001"
       height="98.382004"
       width="114.123"
       y="3.9419994"
       x="3.9660001" />
    <rect
       style="isolation:isolate;fill:none;stroke:#ffffff;stroke-miterlimit:10"
       id="rect9455"
       stroke-miterlimit="10"
       rx="6.6900001"
       height="79.420998"
       width="94.684998"
       y="13.404"
       x="13.732" />
    <path
       style="isolation:isolate;fill:#ffffff"
       inkscape:connector-curvature="0"
       id="path9457"
       d="m 29.521,35.505 h 2.9 a 6.2,6.2 0 0 1 1.667,0.171 1.77,1.77 0 0 1 0.963,0.763 2.534,2.534 0 0 1 0.395,1.439 1.971,1.971 0 0 1 -1.424,2.048 2.236,2.236 0 0 1 1.722,2.345 2.636,2.636 0 0 1 -0.678,1.8 3.405,3.405 0 0 1 -2.6,0.77 h -2.945 z m 1.555,3.87 h 1 a 1.887,1.887 0 0 0 1.4,-0.38 1.421,1.421 0 0 0 0.338,-0.981 1.207,1.207 0 0 0 -0.387,-1.008 1.922,1.922 0 0 0 -1.2,-0.3 h -1.16 z m 0,4.224 h 1.279 q 1.758,0 1.759,-1.511 a 1.639,1.639 0 0 0 -0.373,-1.052 1.9,1.9 0 0 0 -1.52,-0.465 h -1.145 z" />
    <path
       style="isolation:isolate;fill:#ffffff"
       inkscape:connector-curvature="0"
       id="path9459"
       d="m 37.368,35.505 h 1.59 v 8.026 h 3.4 v 1.306 h -4.99 z" />
    <path
       style="isolation:isolate;fill:#ffffff"
       inkscape:connector-curvature="0"
       id="path9461"
       d="m 43.25,35.505 h 1.59 v 9.332 h -1.59 z" />
    <path
       style="isolation:isolate;fill:#ffffff"
       inkscape:connector-curvature="0"
       id="path9463"
       d="m 51.51,41.699 1.463,0.2 q -0.45,3.111 -3.141,3.11 a 2.9,2.9 0 0 1 -2.605,-1.3 6.291,6.291 0 0 1 -0.858,-3.493 6.132,6.132 0 0 1 0.907,-3.617 3.023,3.023 0 0 1 2.613,-1.257 q 2.642,0 3.1,3.185 l -1.477,0.212 q -0.239,-2.12 -1.614,-2.119 -1.839,0 -1.839,3.684 0,3.432 1.839,3.432 a 1.244,1.244 0 0 0 1.1,-0.523 3.643,3.643 0 0 0 0.512,-1.514 z" />
    <path
       style="isolation:isolate;fill:#ffffff"
       inkscape:connector-curvature="0"
       id="path9465"
       d="m 54.288,35.505 h 1.59 v 4.451 l 2.9,-4.451 h 1.682 l -2.479,3.421 2.9,5.907 h -1.724 l -2.149,-4.634 -1.13,1.571 v 3.063 h -1.59 z" />
    <path
       style="isolation:isolate;fill:#ffffff"
       inkscape:connector-curvature="0"
       id="path9467"
       d="m 64.337,35.505 h 1.59 v 9.332 h -1.59 z" />
    <path
       style="isolation:isolate;fill:#ffffff"
       inkscape:connector-curvature="0"
       id="path9469"
       d="m 67.72,35.505 h 1.872 l 3.158,6.727 v -6.727 h 1.329 v 9.332 H 72.593 L 69.05,37.365 v 7.472 h -1.33 z" />
    <path
       style="isolation:isolate;fill:#ffffff"
       inkscape:connector-curvature="0"
       id="path9471"
       d="m 78.55,35.505 h 2.16 a 5.035,5.035 0 0 1 2.51,0.54 3.409,3.409 0 0 1 1.422,1.607 5.666,5.666 0 0 1 0.482,2.365 6.462,6.462 0 0 1 -0.432,2.437 3.918,3.918 0 0 1 -1.324,1.726 4.218,4.218 0 0 1 -2.538,0.657 h -2.28 z m 1.59,1.238 v 6.856 h 0.662 a 2.252,2.252 0 0 0 2.016,-0.933 4.4,4.4 0 0 0 0.627,-2.492 q 0,-3.43 -2.643,-3.431 z" />
    <path
       style="isolation:isolate;fill:#ffffff"
       inkscape:connector-curvature="0"
       id="path9473"
       d="m 86.643,35.505 h 1.59 v 9.332 h -1.59 z" />
    <path
       style="isolation:isolate;fill:#ffffff"
       inkscape:connector-curvature="0"
       id="path9475"
       d="m 90.075,35.505 h 5.5 v 1.238 h -3.91 v 2.666 h 3.065 v 1.244 h -3.066 v 2.919 h 3.973 v 1.265 h -5.562 z" />
    <path
       style="isolation:isolate;fill:#ffffff;stroke:none;stroke-width:0.25;stroke-miterlimit:10"
       inkscape:connector-curvature="0"
       id="path9479"
       stroke-miterlimit="10"
       d="m 26.45,54.978 h 9.492 v 2.742 h -5.98 v 4.184 h 4.605 v 2.742 h -4.605 v 6.328 H 26.45 Z" />
    <path
       style="isolation:isolate;fill:#ffffff;stroke:none;stroke-width:0.25;stroke-miterlimit:10"
       inkscape:connector-curvature="0"
       id="path9481"
       stroke-miterlimit="10"
       d="m 39.899,54.978 h 3.539 l 4.571,16 h -3.6 l -0.8,-3.3 h -4.5 l -0.784,3.3 h -3.23 z m -1.605,-2.766 a 1.186,1.186 0 0 1 0.392,-0.9 1.391,1.391 0 0 1 1.887,0 1.184,1.184 0 0 1 0.393,0.9 1.13,1.13 0 0 1 -0.416,0.9 1.4,1.4 0 0 1 -0.92,0.351 1.436,1.436 0 0 1 -0.908,-0.337 1.107,1.107 0 0 1 -0.428,-0.914 z m 4.656,12.714 -1.617,-6.553 -1.547,6.553 z m -0.7,-12.715 a 1.186,1.186 0 0 1 0.392,-0.9 1.4,1.4 0 0 1 1.893,0 1.192,1.192 0 0 1 0.387,0.9 1.12,1.12 0 0 1 -0.422,0.909 1.417,1.417 0 0 1 -0.914,0.345 1.393,1.393 0 0 1 -0.92,-0.351 1.127,1.127 0 0 1 -0.411,-0.902 z" />
    <path
       style="isolation:isolate;fill:#ffffff;stroke:none;stroke-width:0.25;stroke-miterlimit:10"
       inkscape:connector-curvature="0"
       id="path9483"
       stroke-miterlimit="10"
       d="m 57.126,65.15 3.246,0.2 a 6.8,6.8 0 0 1 -1.652,4.236 5.01,5.01 0 0 1 -3.9,1.634 5.162,5.162 0 0 1 -4.5,-2.191 10.317,10.317 0 0 1 -1.547,-6.035 10.442,10.442 0 0 1 1.533,-6.068 5.2,5.2 0 0 1 4.558,-2.191 q 5,0 5.449,6.188 l -3.211,0.234 q -0.129,-3.562 -2.226,-3.563 a 1.961,1.961 0 0 0 -1.752,1.149 10.179,10.179 0 0 0 -0.651,4.453 9.472,9.472 0 0 0 0.6,4.06 1.924,1.924 0 0 0 1.793,1.108 q 1.919,-0.003 2.26,-3.214 z" />
    <path
       style="isolation:isolate;fill:#ffffff;stroke:none;stroke-width:0.25;stroke-miterlimit:10"
       inkscape:connector-curvature="0"
       id="path9485"
       stroke-miterlimit="10"
       d="m 62.434,54.978 h 3.516 v 6.457 h 3.844 v -6.457 h 3.515 v 16 H 69.794 V 64.435 H 65.95 v 6.539 h -3.516 z" />
    <path
       style="isolation:isolate;fill:#ffffff;stroke:none;stroke-width:0.25;stroke-miterlimit:10"
       inkscape:connector-curvature="0"
       id="path9487"
       stroke-miterlimit="10"
       d="m 76.333,54.978 h 9.726 V 57.72 H 79.85 v 3.715 h 4.829 v 2.742 H 79.85 v 3.938 h 6.211 v 2.859 h -9.728 z" />
    <path
       style="isolation:isolate;fill:#ffffff;stroke:none;stroke-width:0.25;stroke-miterlimit:10"
       inkscape:connector-curvature="0"
       id="path9489"
       stroke-miterlimit="10"
       d="m 87.782,54.978 h 5.027 a 14.076,14.076 0 0 1 2.245,0.135 3.746,3.746 0 0 1 1.576,0.726 3.944,3.944 0 0 1 1.248,1.618 5.652,5.652 0 0 1 0.451,2.3 4.391,4.391 0 0 1 -2.25,4.219 l 2.941,7 h -3.826 l -2.139,-6.33 h -1.757 v 6.328 h -3.516 z m 3.516,2.59 v 4.488 h 1.552 q 2.063,0 2.062,-2.308 A 2.509,2.509 0 0 0 94.607,58.441 1.633,1.633 0 0 0 93.898,57.75 3,3 0 0 0 92.709,57.568 Z" />
  </g>
</svg>
