<?xml version="1.0" encoding="UTF-8" standalone="no"?>
<svg
   xmlns:dc="http://purl.org/dc/elements/1.1/"
   xmlns:cc="http://creativecommons.org/ns#"
   xmlns:rdf="http://www.w3.org/1999/02/22-rdf-syntax-ns#"
   xmlns:svg="http://www.w3.org/2000/svg"
   xmlns="http://www.w3.org/2000/svg"
   xmlns:xlink="http://www.w3.org/1999/xlink"
   xmlns:sodipodi="http://sodipodi.sourceforge.net/DTD/sodipodi-0.dtd"
   xmlns:inkscape="http://www.inkscape.org/namespaces/inkscape"
   viewBox="0 0 121.92 107.315"
   version="1.1"
   id="svg4094"
   sodipodi:docname="A3_studium.svg"
   inkscape:version="0.92.4 (5da689c313, 2019-01-14)">
  <metadata
     id="metadata4098">
    <rdf:RDF>
      <cc:Work
         rdf:about="">
        <dc:format>image/svg+xml</dc:format>
        <dc:type
           rdf:resource="http://purl.org/dc/dcmitype/StillImage" />
        <dc:title>studium1_1</dc:title>
      </cc:Work>
    </rdf:RDF>
  </metadata>
  <sodipodi:namedview
     pagecolor="#ffffff"
     bordercolor="#666666"
     borderopacity="1"
     objecttolerance="10"
     gridtolerance="10"
     guidetolerance="10"
     inkscape:pageopacity="0"
     inkscape:pageshadow="2"
     inkscape:window-width="884"
     inkscape:window-height="403"
     id="namedview4096"
     showgrid="false"
     inkscape:zoom="1"
     inkscape:cx="-15.540001"
     inkscape:cy="53.657501"
     inkscape:window-x="2105"
     inkscape:window-y="273"
     inkscape:window-maximized="0"
     inkscape:current-layer="g1113" />
  <defs
     id="defs3700">
    <linearGradient
       inkscape:collect="always"
       id="linearGradient1950">
      <stop
         style="stop-color:#5c87ca;stop-opacity:1"
         offset="0"
         id="stop1946" />
      <stop
         style="stop-color:#3a66aa;stop-opacity:1"
         offset="1"
         id="stop1948" />
    </linearGradient>
    <clipPath
       id="clip-path"
       transform="translate(0.261 0.239)">
      <rect
         x="3.578"
         y="3.577"
         width="114.123"
         height="98.382"
         rx="8.788"
         fill="none"
         id="rect3694" />
    </clipPath>
    <clipPath
       id="clip-path-2"
       transform="translate(0.261 0.239)">
      <rect
         y="-0.001"
         width="121.279"
         height="105.535"
         fill="none"
         id="rect3697" />
    </clipPath>
    <linearGradient
       inkscape:collect="always"
       xlink:href="#linearGradient1950"
       id="linearGradient1952"
       x1="8.8389997"
       y1="10.257004"
       x2="111.462"
       y2="94.757004"
       gradientUnits="userSpaceOnUse" />
  </defs>
  <title
     id="title3702">studium1_1</title>
  <g
     id="g3588">
    <g
       id="g1113">
      <rect
         style="opacity:1;fill:#ffffff;fill-opacity:1;stroke-width:0.99882907"
         id="rect6283"
         width="119.42"
         height="106.565"
         x="2.5"
         y="0.25" />
      <g
         id="g3808"
         style="isolation:isolate;mix-blend-mode:multiply;opacity:0.5"
         transform="matrix(1,0,0,0.9878903,0,1.2973974)">
        <path
           style="fill:#ffffff"
           inkscape:connector-curvature="0"
           id="path3704"
           transform="translate(0.261,0.239)"
           d="m 120.683,96.936 c 0,5.468 -4.936,9.908 -11.025,9.912 l -92.82,0.05 c -6.1,0 -11.034,-4.432 -11.037,-9.9 L 5.755,13.644 c 0,-5.473 4.931,-9.911 11.025,-9.915 l 92.821,-0.05 c 6.089,0 11.033,4.429 11.036,9.9 z" />
        <path
           style="fill:#fefeff"
           inkscape:connector-curvature="0"
           id="path3706"
           transform="translate(0.261,0.239)"
           d="m 120.6,96.835 c 0,5.462 -4.935,9.9 -11.023,9.9 l -92.791,0.05 c -6.092,0 -11.03,-4.427 -11.033,-9.889 L 5.711,13.633 c 0,-5.467 4.93,-9.9 11.022,-9.9 l 92.791,-0.05 c 6.088,0 11.03,4.424 11.034,9.892 z" />
        <path
           style="fill:#fdfdff"
           inkscape:connector-curvature="0"
           id="path3708"
           transform="translate(0.261,0.239)"
           d="m 120.524,96.734 c 0,5.456 -4.933,9.887 -11.019,9.89 l -92.762,0.051 c -6.09,0 -11.026,-4.422 -11.03,-9.879 L 5.667,13.622 c 0,-5.461 4.929,-9.889 11.019,-9.893 l 92.762,-0.05 c 6.086,0 11.027,4.42 11.03,9.881 z" />
        <path
           style="fill:#fcfcff"
           inkscape:connector-curvature="0"
           id="path3710"
           transform="translate(0.261,0.239)"
           d="m 120.444,96.633 c 0,5.45 -4.932,9.876 -11.016,9.88 l -92.732,0.05 c -6.089,0 -11.023,-4.417 -11.026,-9.868 L 5.624,13.611 c 0,-5.455 4.927,-9.878 11.015,-9.882 l 92.732,-0.05 c 6.085,0 11.024,4.415 11.027,9.87 z" />
        <path
           style="fill:#fcfcff"
           inkscape:connector-curvature="0"
           id="path3712"
           transform="translate(0.261,0.239)"
           d="m 120.364,96.532 c 0,5.445 -4.93,9.866 -11.012,9.869 l -92.7,0.05 c -6.087,0 -11.02,-4.412 -11.023,-9.857 L 5.58,13.6 c 0,-5.45 4.925,-9.868 11.012,-9.872 l 92.7,-0.05 c 6.082,0 11.02,4.41 11.023,9.859 z" />
        <path
           style="fill:#fbfbff"
           inkscape:connector-curvature="0"
           id="path3714"
           transform="translate(0.261,0.239)"
           d="m 120.284,96.431 c 0,5.439 -4.928,9.855 -11.008,9.858 L 16.6,106.34 c -6.084,0 -11.016,-4.408 -11.019,-9.847 l -0.046,-82.9 c 0,-5.443 4.924,-9.857 11.009,-9.861 l 92.674,-0.05 c 6.08,0 11.016,4.4 11.019,9.849 z" />
        <path
           style="fill:#fafaff"
           inkscape:connector-curvature="0"
           id="path3716"
           transform="translate(0.261,0.239)"
           d="m 120.2,96.33 c 0,5.433 -4.926,9.844 -11,9.848 l -92.645,0.05 c -6.082,0 -11.012,-4.4 -11.015,-9.836 L 5.493,13.579 c 0,-5.437 4.922,-9.846 11,-9.85 l 92.645,-0.05 c 6.079,0 11.014,4.4 11.017,9.838 z" />
        <path
           style="fill:#f9f9ff"
           inkscape:connector-curvature="0"
           id="path3718"
           transform="translate(0.261,0.239)"
           d="m 120.125,96.229 c 0,5.427 -4.926,9.834 -11,9.837 l -92.616,0.05 c -6.08,0 -11.009,-4.4 -11.012,-9.825 L 5.449,13.569 c 0,-5.432 4.921,-9.836 11,-9.84 l 92.616,-0.05 c 6.077,0 11.01,4.4 11.013,9.827 z" />
        <path
           style="fill:#f8f8ff"
           inkscape:connector-curvature="0"
           id="path3720"
           transform="translate(0.261,0.239)"
           d="m 120.045,96.128 c 0,5.421 -4.924,9.823 -11,9.826 l -92.586,0.051 C 10.38,106.005 5.453,101.611 5.45,96.19 L 5.406,13.558 c 0,-5.426 4.919,-9.825 11,-9.829 l 92.587,-0.05 C 115.065,3.676 120,8.07 120,13.5 Z" />
        <path
           style="fill:#f7f7fe"
           inkscape:connector-curvature="0"
           id="path3722"
           transform="translate(0.261,0.239)"
           d="m 119.965,96.027 c 0,5.416 -4.922,9.812 -11,9.816 l -92.558,0.05 c -6.076,0 -11,-4.388 -11,-9.8 L 5.362,13.547 c 0,-5.42 4.918,-9.814 10.994,-9.818 l 92.557,-0.05 c 6.073,0 11,4.386 11.006,9.806 z" />
        <path
           style="fill:#f7f7fe"
           inkscape:connector-curvature="0"
           id="path3724"
           transform="translate(0.261,0.239)"
           d="m 119.885,95.926 c 0,5.41 -4.92,9.8 -10.992,9.8 l -92.528,0.05 c -6.074,0 -11,-4.383 -11,-9.793 L 5.318,13.536 c 0,-5.413 4.917,-9.8 10.991,-9.807 l 92.528,-0.05 c 6.071,0 11,4.382 11,9.8 z" />
        <path
           style="fill:#f6f6fe"
           inkscape:connector-curvature="0"
           id="path3726"
           transform="translate(0.261,0.239)"
           d="m 119.805,95.825 c 0,5.4 -4.919,9.791 -10.988,9.794 l -92.5,0.051 c -6.072,0 -10.995,-4.379 -11,-9.783 L 5.275,13.526 c 0,-5.408 4.914,-9.793 10.987,-9.8 l 92.5,-0.05 c 6.07,0 11,4.377 11,9.785 z" />
        <path
           style="fill:#f5f5fe"
           inkscape:connector-curvature="0"
           id="path3728"
           transform="translate(0.261,0.239)"
           d="m 119.725,95.724 c 0,5.4 -4.917,9.78 -10.985,9.784 l -92.469,0.05 c -6.07,0 -10.992,-4.374 -10.994,-9.772 L 5.231,13.515 c 0,-5.4 4.913,-9.782 10.983,-9.786 l 92.47,-0.05 c 6.068,0 10.993,4.372 11,9.774 z" />
        <path
           style="fill:#f4f4fe"
           inkscape:connector-curvature="0"
           id="path3730"
           transform="translate(0.261,0.239)"
           d="m 119.645,95.623 c 0,5.392 -4.915,9.77 -10.981,9.773 l -92.44,0.05 c -6.068,0 -10.988,-4.369 -10.991,-9.761 L 5.187,13.5 c 0,-5.4 4.912,-9.771 10.98,-9.775 l 92.441,-0.05 c 6.066,0 10.989,4.367 10.992,9.763 z" />
        <path
           style="fill:#f3f3fe"
           inkscape:connector-curvature="0"
           id="path3732"
           transform="translate(0.261,0.239)"
           d="m 119.566,95.522 c 0,5.386 -4.914,9.759 -10.978,9.762 l -92.412,0.051 c -6.066,0 -10.984,-4.365 -10.987,-9.751 L 5.144,13.494 c 0,-5.39 4.91,-9.761 10.976,-9.765 l 92.411,-0.05 c 6.064,0 10.986,4.363 10.989,9.753 z" />
        <path
           style="fill:#f2f2fe"
           inkscape:connector-curvature="0"
           id="path3734"
           transform="translate(0.261,0.239)"
           d="m 119.486,95.421 c 0,5.381 -4.913,9.748 -10.975,9.752 l -92.382,0.05 c -6.064,0 -10.981,-4.359 -10.984,-9.74 l -0.045,-82 c 0,-5.384 4.909,-9.75 10.973,-9.754 l 92.382,-0.05 c 6.062,0 10.982,4.358 10.985,9.742 z" />
        <path
           style="fill:#f2f2fe"
           inkscape:connector-curvature="0"
           id="path3736"
           transform="translate(0.261,0.239)"
           d="m 119.406,95.32 c 0,5.375 -4.911,9.738 -10.971,9.741 l -92.353,0.05 c -6.062,0 -10.977,-4.354 -10.98,-9.729 L 5.056,13.472 c 0,-5.378 4.908,-9.739 10.97,-9.743 l 92.353,-0.05 c 6.06,0 10.979,4.353 10.982,9.731 z" />
        <path
           style="fill:#f1f1fe"
           inkscape:connector-curvature="0"
           id="path3738"
           transform="translate(0.261,0.239)"
           d="m 119.326,95.219 c 0,5.369 -4.909,9.727 -10.968,9.73 L 16.035,105 C 9.975,105 5.061,100.651 5.058,95.282 L 5.013,13.462 c 0,-5.373 4.906,-9.729 10.966,-9.733 l 92.323,-0.05 c 6.059,0 10.976,4.348 10.979,9.721 z" />
        <path
           style="fill:#f0f0fe"
           inkscape:connector-curvature="0"
           id="path3740"
           transform="translate(0.261,0.239)"
           d="m 119.246,95.118 c 0,5.363 -4.907,9.716 -10.964,9.72 l -92.295,0.05 c -6.057,0 -10.97,-4.345 -10.973,-9.708 L 4.969,13.451 c 0,-5.367 4.905,-9.718 10.962,-9.722 l 92.3,-0.05 c 6.057,0 10.972,4.343 10.975,9.71 z" />
        <path
           style="fill:#efeffe"
           inkscape:connector-curvature="0"
           id="path3742"
           transform="translate(0.261,0.239)"
           d="m 119.166,95.017 c 0,5.357 -4.906,9.706 -10.961,9.709 l -92.265,0.05 c -6.056,0 -10.966,-4.34 -10.969,-9.7 L 4.925,13.44 c 0,-5.36 4.9,-9.707 10.959,-9.711 l 92.265,-0.05 c 6.055,0 10.969,4.339 10.972,9.7 z" />
        <path
           style="fill:#eeeefe"
           inkscape:connector-curvature="0"
           id="path3744"
           transform="translate(0.261,0.239)"
           d="m 119.087,94.916 c 0,5.352 -4.905,9.7 -10.958,9.7 l -92.236,0.05 C 9.839,104.666 4.93,100.331 4.927,94.98 L 4.882,13.429 c 0,-5.354 4.9,-9.7 10.955,-9.7 l 92.236,-0.05 c 6.053,0 10.965,4.334 10.968,9.689 z" />
        <path
           style="fill:#ededfe"
           inkscape:connector-curvature="0"
           id="path3746"
           transform="translate(0.261,0.239)"
           d="m 119.007,94.815 c 0,5.346 -4.9,9.685 -10.954,9.688 l -92.207,0.05 c -6.052,0 -10.96,-4.33 -10.963,-9.676 L 4.838,13.419 c 0,-5.349 4.9,-9.686 10.952,-9.69 L 108,3.679 c 6.051,0 10.962,4.329 10.965,9.678 z" />
        <path
           style="fill:#ececfe"
           inkscape:connector-curvature="0"
           id="path3748"
           transform="translate(0.261,0.239)"
           d="m 118.927,94.714 c 0,5.34 -4.9,9.674 -10.951,9.677 l -92.178,0.05 c -6.049,0 -10.956,-4.325 -10.958,-9.665 L 4.794,13.408 c 0,-5.343 4.9,-9.675 10.949,-9.679 l 92.177,-0.05 c 6.05,0 10.959,4.324 10.962,9.667 z" />
        <path
           style="fill:#ececfe"
           inkscape:connector-curvature="0"
           id="path3750"
           transform="translate(0.261,0.239)"
           d="m 118.847,94.613 c 0,5.334 -4.9,9.663 -10.947,9.666 l -92.149,0.05 c -6.047,0 -10.952,-4.32 -10.955,-9.654 L 4.751,13.4 c 0,-5.337 4.9,-9.664 10.945,-9.668 l 92.148,-0.05 c 6.048,0 10.955,4.32 10.958,9.657 z" />
        <path
           style="fill:#ebebfe"
           inkscape:connector-curvature="0"
           id="path3752"
           transform="translate(0.261,0.239)"
           d="m 118.767,94.512 c 0,5.328 -4.9,9.653 -10.944,9.656 l -92.119,0.05 c -6.046,0 -10.949,-4.316 -10.952,-9.644 L 4.707,13.387 c 0,-5.331 4.9,-9.654 10.941,-9.658 l 92.12,-0.05 c 6.045,0 10.951,4.315 10.954,9.646 z" />
        <path
           style="fill:#eaeafe"
           inkscape:connector-curvature="0"
           id="path3754"
           transform="translate(0.261,0.239)"
           d="m 118.687,94.411 c 0,5.322 -4.9,9.642 -10.94,9.645 l -92.09,0.05 c -6.044,0 -10.946,-4.311 -10.949,-9.633 l -0.044,-81.1 c 0,-5.325 4.894,-9.643 10.937,-9.647 l 92.09,-0.05 c 6.044,0 10.948,4.31 10.951,9.635 z" />
        <path
           style="fill:#e9e9fd"
           inkscape:connector-curvature="0"
           id="path3756"
           transform="translate(0.261,0.239)"
           d="m 118.607,94.31 c 0,5.317 -4.895,9.631 -10.937,9.635 l -92.06,0.049 c -6.042,0 -10.942,-4.306 -10.945,-9.622 L 4.62,13.365 c 0,-5.319 4.892,-9.632 10.934,-9.636 l 92.061,-0.05 c 6.042,0 10.945,4.305 10.948,9.624 z" />
        <path
           style="fill:#e8e8fd"
           inkscape:connector-curvature="0"
           id="path3758"
           transform="translate(0.261,0.239)"
           d="m 118.528,94.209 c 0,5.311 -4.894,9.621 -10.934,9.624 l -92.032,0.05 c -6.039,0 -10.938,-4.3 -10.941,-9.612 L 4.576,13.355 c 0,-5.314 4.891,-9.622 10.931,-9.626 l 92.031,-0.05 c 6.041,0 10.942,4.3 10.945,9.614 z" />
        <path
           style="fill:#e7e7fd"
           inkscape:connector-curvature="0"
           id="path3760"
           transform="translate(0.261,0.239)"
           d="m 118.448,94.108 c 0,5.3 -4.892,9.61 -10.931,9.613 l -92,0.05 c -6.037,0 -10.935,-4.3 -10.938,-9.6 L 4.533,13.344 c 0,-5.307 4.889,-9.611 10.927,-9.615 l 92,-0.049 c 6.039,0 10.938,4.3 10.941,9.6 z" />
        <path
           style="fill:#e7e7fd"
           inkscape:connector-curvature="0"
           id="path3762"
           transform="translate(0.261,0.239)"
           d="m 118.368,94.007 c 0,5.3 -4.89,9.6 -10.927,9.6 l -91.973,0.049 c -6.036,0 -10.931,-4.291 -10.934,-9.59 L 4.489,13.333 c 0,-5.3 4.888,-9.6 10.923,-9.6 l 91.974,-0.049 c 6.036,0 10.934,4.29 10.937,9.591 z" />
        <path
           style="fill:#e6e6fd"
           inkscape:connector-curvature="0"
           id="path3764"
           transform="translate(0.261,0.239)"
           d="m 118.288,93.906 c 0,5.293 -4.889,9.589 -10.923,9.592 l -91.944,0.05 c -6.034,0 -10.928,-4.287 -10.931,-9.58 L 4.445,13.322 c 0,-5.295 4.887,-9.589 10.92,-9.593 L 107.309,3.68 c 6.035,0 10.931,4.285 10.934,9.581 z" />
        <path
           style="fill:#e5e5fd"
           inkscape:connector-curvature="0"
           id="path3766"
           transform="translate(0.261,0.239)"
           d="m 118.208,93.805 c 0,5.287 -4.887,9.578 -10.92,9.581 l -91.915,0.05 c -6.031,0 -10.924,-4.282 -10.927,-9.569 L 4.4,13.312 C 4.4,8.022 9.285,3.733 15.316,3.729 L 107.231,3.68 c 6.033,0 10.928,4.28 10.931,9.57 z" />
        <path
           style="fill:#e4e4fd"
           inkscape:connector-curvature="0"
           id="path3768"
           transform="translate(0.261,0.239)"
           d="m 118.128,93.7 c 0,5.282 -4.885,9.567 -10.916,9.571 L 15.326,103.32 C 9.297,103.32 4.405,99.043 4.403,93.762 L 4.358,13.3 c 0,-5.284 4.884,-9.568 10.913,-9.572 l 91.886,-0.049 c 6.031,0 10.924,4.276 10.927,9.559 z" />
        <path
           style="fill:#e3e3fd"
           inkscape:connector-curvature="0"
           id="path3770"
           transform="translate(0.261,0.239)"
           d="m 118.049,93.6 c 0,5.276 -4.884,9.557 -10.914,9.56 l -91.856,0.05 c -6.027,0 -10.917,-4.273 -10.92,-9.548 L 4.314,13.29 c 0,-5.277 4.882,-9.557 10.91,-9.561 L 107.08,3.68 c 6.03,0 10.921,4.271 10.924,9.549 z" />
        <path
           style="fill:#e2e2fd"
           inkscape:connector-curvature="0"
           id="path3772"
           transform="translate(0.261,0.239)"
           d="m 117.969,93.5 c 0,5.27 -4.883,9.546 -10.91,9.549 l -91.827,0.05 c -6.026,0 -10.914,-4.267 -10.917,-9.538 L 4.271,13.28 c 0,-5.272 4.88,-9.547 10.906,-9.551 L 107,3.68 c 6.027,0 10.917,4.266 10.92,9.538 z" />
        <path
           style="fill:#e1e1fd"
           inkscape:connector-curvature="0"
           id="path3774"
           transform="translate(0.261,0.239)"
           d="m 117.889,93.4 c 0,5.264 -4.881,9.535 -10.907,9.539 l -91.8,0.049 c -6.023,0 -10.91,-4.262 -10.913,-9.527 L 4.227,13.269 c 0,-5.266 4.879,-9.536 10.9,-9.54 l 91.8,-0.049 c 6.026,0 10.914,4.261 10.917,9.527 z" />
        <path
           style="fill:#e1e1fd"
           inkscape:connector-curvature="0"
           id="path3776"
           transform="translate(0.261,0.239)"
           d="m 117.809,93.3 c 0,5.258 -4.879,9.525 -10.9,9.528 l -91.769,0.05 c -6.021,0 -10.906,-4.258 -10.909,-9.517 l -0.045,-80.1 c 0,-5.26 4.878,-9.525 10.9,-9.529 l 91.769,-0.049 c 6.024,0 10.911,4.257 10.914,9.517 z" />
        <path
           style="fill:#e0e0fd"
           inkscape:connector-curvature="0"
           id="path3778"
           transform="translate(0.261,0.239)"
           d="m 117.729,93.2 c 0,5.253 -4.877,9.514 -10.9,9.517 l -91.74,0.05 c -6.019,0 -10.9,-4.253 -10.906,-9.506 L 4.14,13.248 c 0,-5.255 4.876,-9.515 10.9,-9.519 L 106.78,3.68 c 6.022,0 10.907,4.252 10.91,9.506 z" />
        <path
           style="fill:#dfdffd"
           inkscape:connector-curvature="0"
           id="path3780"
           transform="translate(0.261,0.239)"
           d="m 117.649,93.1 c 0,5.247 -4.876,9.5 -10.9,9.507 l -91.71,0.049 c -6.017,0 -10.9,-4.248 -10.9,-9.495 L 4.1,13.237 c 0,-5.248 4.875,-9.5 10.892,-9.508 L 106.7,3.68 c 6.021,0 10.9,4.247 10.907,9.5 z" />
        <path
           style="fill:#dedefd"
           inkscape:connector-curvature="0"
           id="path3782"
           transform="translate(0.261,0.239)"
           d="m 117.569,93 c 0,5.241 -4.874,9.493 -10.892,9.5 L 15,102.543 C 8.98,102.546 4.1,98.3 4.1,93.058 L 4.052,13.226 c 0,-5.242 4.874,-9.493 10.889,-9.5 l 91.681,-0.049 c 6.018,0 10.9,4.242 10.9,9.485 z" />
        <path
           style="fill:#ddddfd"
           inkscape:connector-curvature="0"
           id="path3784"
           transform="translate(0.261,0.239)"
           d="m 117.49,92.9 c 0,5.235 -4.873,9.482 -10.89,9.485 l -91.652,0.05 c -6.013,0 -10.892,-4.238 -10.895,-9.474 L 4.009,13.215 c 0,-5.236 4.872,-9.482 10.885,-9.486 L 106.546,3.68 c 6.016,0 10.9,4.238 10.9,9.474 z" />
        <path
           style="fill:#dcdcfd"
           inkscape:connector-curvature="0"
           id="path3786"
           transform="translate(0.261,0.239)"
           d="m 117.41,92.8 c 0,5.229 -4.871,9.471 -10.886,9.475 l -91.623,0.049 C 8.89,102.324 4.012,98.091 4.009,92.861 L 3.965,13.205 c 0,-5.231 4.87,-9.472 10.881,-9.476 L 106.469,3.68 c 6.015,0 10.894,4.233 10.9,9.463 z" />
        <path
           style="fill:#dcdcfd"
           inkscape:connector-curvature="0"
           id="path3788"
           transform="translate(0.261,0.239)"
           d="m 117.33,92.694 c 0,5.223 -4.87,9.461 -10.883,9.464 l -91.593,0.05 c -6.009,0 -10.886,-4.229 -10.888,-9.453 L 3.922,13.194 C 3.919,7.97 8.79,3.733 14.8,3.729 L 106.394,3.68 c 6.013,0 10.89,4.228 10.893,9.453 z" />
        <path
           style="fill:#dbdbfc"
           inkscape:connector-curvature="0"
           id="path3790"
           transform="translate(0.261,0.239)"
           d="m 117.25,92.593 c 0,5.218 -4.868,9.45 -10.879,9.453 l -91.564,0.05 C 8.8,102.096 3.925,97.872 3.922,92.654 L 3.878,13.183 c 0,-5.218 4.867,-9.45 10.874,-9.454 L 106.316,3.68 c 6.012,0 10.887,4.223 10.89,9.442 z" />
        <path
           style="fill:#dadafc"
           inkscape:connector-curvature="0"
           id="path3792"
           transform="translate(0.261,0.239)"
           d="m 117.17,92.492 c 0,5.212 -4.866,9.439 -10.876,9.443 l -91.535,0.049 c -6.005,0 -10.878,-4.219 -10.881,-9.431 L 3.834,13.173 C 3.834,7.96 8.7,3.733 14.705,3.729 L 106.24,3.68 c 6.009,0 10.883,4.219 10.886,9.431 z" />
        <path
           style="fill:#d9d9fc"
           inkscape:connector-curvature="0"
           id="path3794"
           transform="translate(0.261,0.239)"
           d="m 117.09,92.391 c 0,5.206 -4.865,9.429 -10.872,9.432 l -91.506,0.05 c -6,0 -10.875,-4.215 -10.878,-9.421 L 3.791,13.162 c 0,-5.207 4.864,-9.429 10.867,-9.433 L 106.164,3.68 c 6.007,0 10.88,4.214 10.882,9.42 z" />
        <path
           style="fill:#d8d8fc"
           inkscape:connector-curvature="0"
           id="path3796"
           transform="translate(0.261,0.239)"
           d="m 117.011,92.29 c 0,5.2 -4.864,9.418 -10.869,9.421 l -91.477,0.05 c -6,0 -10.871,-4.209 -10.874,-9.41 l -0.044,-79.2 c 0,-5.2 4.863,-9.418 10.864,-9.422 L 106.087,3.68 c 6.006,0 10.877,4.209 10.88,9.41 z" />
        <path
           style="fill:#d7d7fc"
           inkscape:connector-curvature="0"
           id="path3798"
           transform="translate(0.261,0.239)"
           d="m 116.931,92.189 c 0,5.194 -4.862,9.407 -10.866,9.411 l -91.447,0.049 c -6,0 -10.868,-4.2 -10.871,-9.4 L 3.7,13.14 C 3.7,7.946 8.562,3.733 14.56,3.729 L 106.008,3.68 c 6,0 10.873,4.2 10.876,9.4 z" />
        <path
           style="fill:#d7d7fc"
           inkscape:connector-curvature="0"
           id="path3800"
           transform="translate(0.261,0.239)"
           d="m 116.851,92.088 c 0,5.189 -4.86,9.4 -10.862,9.4 l -91.419,0.05 c -6,0 -10.864,-4.2 -10.867,-9.389 L 3.66,13.13 c 0,-5.189 4.859,-9.4 10.856,-9.4 l 91.419,-0.049 c 6,0 10.869,4.2 10.872,9.388 z" />
        <path
           style="fill:#d6d6fc"
           inkscape:connector-curvature="0"
           id="path3802"
           transform="translate(0.261,0.239)"
           d="m 116.771,91.987 c 0,5.183 -4.859,9.386 -10.859,9.389 l -91.389,0.05 c -5.995,0 -10.86,-4.2 -10.863,-9.378 L 3.616,13.119 c 0,-5.183 4.858,-9.386 10.853,-9.39 L 105.858,3.68 c 6,0 10.866,4.2 10.869,9.378 z" />
        <path
           style="fill:#d5d5fc"
           inkscape:connector-curvature="0"
           id="path3804"
           transform="translate(0.261,0.239)"
           d="m 116.691,91.886 c 0,5.177 -4.857,9.375 -10.855,9.379 l -91.36,0.049 c -5.993,0 -10.857,-4.19 -10.86,-9.367 L 3.572,13.108 c 0,-5.177 4.857,-9.375 10.85,-9.379 l 91.36,-0.049 c 6,0 10.863,4.19 10.865,9.367 z" />
        <path
           style="fill:#d4d4fc"
           inkscape:connector-curvature="0"
           id="path3806"
           transform="translate(0.261,0.239)"
           d="m 116.611,91.785 c 0,5.171 -4.855,9.365 -10.852,9.368 l -91.33,0.05 c -5.991,0 -10.854,-4.186 -10.857,-9.357 L 3.529,13.1 c 0,-5.172 4.855,-9.365 10.846,-9.369 l 91.33,-0.049 c 6,0 10.86,4.185 10.863,9.356 z" />
      </g>
      <rect
         style="opacity:1;isolation:isolate;fill:url(#linearGradient1952);fill-opacity:1"
         id="rect3916"
         rx="8.7880001"
         height="98.382004"
         width="114.123"
         y="3.816"
         x="3.839" />
      <g
         style="isolation:isolate"
         id="g4050">
        <path
           style="fill:#ffffff"
           inkscape:connector-curvature="0"
           id="path4034"
           transform="translate(0.261,0.239)"
           d="m 18.836,73.13 c -0.159,-0.4 -0.135,-0.661 0.642,-3.572 0.639,-2.4 0.913,-3.3 1.692,-3.615 a 1.917,1.917 0 0 1 1.219,-0.074 1.51,1.51 0 0 1 0.7,0.5 2.161,2.161 0 0 1 0.08,1.823 27.552,27.552 0 0 0 -0.567,4.1 c -0.156,1.966 0.206,2.521 -0.235,2.812 C 21.6,75.61 19.436,74.655 18.836,73.13 Z" />
        <path
           style="fill:#ffffff"
           inkscape:connector-curvature="0"
           id="path4036"
           transform="translate(0.261,0.239)"
           d="m 18.354,87.415 a 16.3,16.3 0 0 0 3.709,-4.636 15.506,15.506 0 0 0 1.346,-3.494 c 0.568,0.516 2.024,1.978 1.843,3.789 -0.029,0.29 -0.107,0.661 -1.15,2.326 -2.1,3.351 -3.228,4.133 -3.743,4.388 -0.1,0.047 -0.182,0.082 -0.192,0.086 a 2.428,2.428 0 0 1 -1.732,-0.1 1.454,1.454 0 0 1 -0.081,-2.356 z" />
        <path
           style="fill:#ffffff"
           inkscape:connector-curvature="0"
           id="path4038"
           transform="translate(0.261,0.239)"
           d="m 28.623,72.066 a 6.857,6.857 0 0 0 -0.8,3.647 c 0.033,0.431 0.155,1.426 1.627,3.891 2.822,4.722 4.68,7.236 4.68,7.236 a 2.785,2.785 0 0 1 0.592,1.639 1.673,1.673 0 0 1 -0.522,1.321 1.749,1.749 0 0 1 -1.181,0.335 c -1.331,-0.054 -2.333,-1.452 -2.791,-2.109 -3.72,-5.329 -5.579,-7.994 -6.034,-9.718 -0.621,-2.357 -0.542,-4.005 -0.384,-7.3 0.066,-1.385 0.233,-3.125 1.431,-3.977 a 3.731,3.731 0 0 1 1.521,-0.6 3,3 0 0 1 1.759,0.27 c 0.868,0.487 0.774,1.309 1.546,2.936 a 8.12,8.12 0 0 0 1.625,2.5 11.962,11.962 0 0 0 3.127,2.312 c 0.609,0.3 1.451,0.718 0.935,1.621 a 1.246,1.246 0 0 1 -0.556,0.518 c -0.167,0.068 -0.572,0.171 -1.377,-0.276 a 42.643,42.643 0 0 1 -5.198,-4.246 z" />
        <ellipse
           style="fill:#ffffff"
           id="ellipse4040"
           ry="2.8870001"
           rx="3.049"
           cy="62.273998"
           cx="29.365999" />
        <path
           style="fill:#ffffff"
           inkscape:connector-curvature="0"
           id="path4042"
           transform="translate(0.261,0.239)"
           d="m 39.612,77.668 c -0.123,-0.293 -0.105,-0.48 0.5,-2.6 0.495,-1.741 0.707,-2.4 1.312,-2.627 a 1.577,1.577 0 0 1 0.945,-0.054 1.179,1.179 0 0 1 0.541,0.362 1.48,1.48 0 0 1 0.062,1.325 18.928,18.928 0 0 0 -0.44,2.982 c -0.12,1.428 0.16,1.832 -0.182,2.044 -0.594,0.37 -2.273,-0.323 -2.738,-1.432 z" />
        <path
           style="fill:#ffffff"
           inkscape:connector-curvature="0"
           id="path4044"
           transform="translate(0.261,0.239)"
           d="m 39.239,88.05 a 12.041,12.041 0 0 0 2.875,-3.37 10.857,10.857 0 0 0 1.043,-2.539 3.5,3.5 0 0 1 1.429,2.759 c -0.023,0.21 -0.083,0.48 -0.892,1.69 -1.627,2.435 -2.5,3 -2.9,3.189 -0.074,0.034 -0.141,0.06 -0.149,0.062 a 2,2 0 0 1 -1.343,-0.074 1.117,1.117 0 0 1 -0.5,-0.829 1.1,1.1 0 0 1 0.437,-0.888 z" />
        <path
           style="fill:#ffffff"
           inkscape:connector-curvature="0"
           id="path4046"
           transform="translate(0.261,0.239)"
           d="m 47.2,76.9 a 4.734,4.734 0 0 0 -0.622,2.65 6.319,6.319 0 0 0 1.262,2.828 c 2.187,3.432 3.627,5.259 3.627,5.259 a 1.947,1.947 0 0 1 0.459,1.191 1.172,1.172 0 0 1 -0.4,0.958 1.434,1.434 0 0 1 -0.916,0.244 c -1.031,-0.04 -1.808,-1.056 -2.163,-1.533 -2.883,-3.873 -4.325,-5.81 -4.677,-7.063 a 14.688,14.688 0 0 1 -0.3,-5.308 c 0.051,-1.006 0.18,-2.271 1.11,-2.89 a 3.009,3.009 0 0 1 1.178,-0.433 2.459,2.459 0 0 1 1.364,0.195 c 0.673,0.355 0.6,0.952 1.2,2.134 a 5.875,5.875 0 0 0 1.26,1.82 9.325,9.325 0 0 0 2.418,1.676 c 0.472,0.214 1.125,0.521 0.725,1.177 a 0.945,0.945 0 0 1 -0.431,0.377 c -0.13,0.05 -0.444,0.124 -1.067,-0.2 A 32.755,32.755 0 0 1 47.2,76.9 Z" />
        <ellipse
           style="fill:#ffffff"
           id="ellipse4048"
           ry="2.098"
           rx="2.3629999"
           cy="69.844002"
           cx="47.833" />
      </g>
      <path
         d="m 64.72,27.539 q -1.74,2.51 -3.5,2.509 a 1.379,1.379 0 0 1 -1.149,-0.571 2.323,2.323 0 0 1 -0.437,-1.453 5.612,5.612 0 0 1 1.435,-3.547 3.916,3.916 0 0 1 2.907,-1.764 1.442,1.442 0 0 1 1.2,0.451 q 0.5,-2.241 0.6,-2.8 a 9.591,9.591 0 0 1 0.336,-1.38 1.115,1.115 0 0 1 0.41,-0.53 0.889,0.889 0 0 1 0.477,-0.188 0.581,0.581 0 0 1 0.524,0.287 1.332,1.332 0 0 1 0.182,0.724 5.821,5.821 0 0 1 -0.3,1.1 31.041,31.041 0 0 0 -0.9,3.568 18.218,18.218 0 0 0 -0.413,3.33 q 0,1.182 0.51,1.182 a 1.29,1.29 0 0 0 0.558,-0.143 1.194,1.194 0 0 1 0.417,-0.137 q 0.328,0 0.329,0.39 0,0.471 -0.668,0.939 a 2.241,2.241 0 0 1 -1.267,0.469 1.086,1.086 0 0 1 -0.995,-0.7 3.235,3.235 0 0 1 -0.256,-1.736 z m -0.745,-3.507 q -0.882,0 -1.838,1.367 a 4.478,4.478 0 0 0 -0.958,2.5 c 0,0.442 0.161,0.664 0.484,0.664 q 0.819,0 1.955,-1.484 a 4.436,4.436 0 0 0 1.136,-2.34 0.684,0.684 0 0 0 -0.215,-0.482 0.755,0.755 0 0 0 -0.564,-0.227 z"
         id="path4054"
         inkscape:connector-curvature="0"
         style="isolation:isolate;fill:#ffffff" />
      <path
         d="m 73.772,27.318 a 6.323,6.323 0 0 1 -1.495,1.9 2.7,2.7 0 0 1 -1.724,0.7 1.488,1.488 0 0 1 -1.045,-0.554 2.389,2.389 0 0 1 -0.528,-1.7 11.4,11.4 0 0 1 0.4,-2.454 9,9 0 0 0 0.349,-2.058 0.883,0.883 0 0 1 0.84,-0.574 0.789,0.789 0 0 1 0.622,0.263 0.8,0.8 0 0 1 0.232,0.53 4.331,4.331 0 0 1 -0.336,1.381 13.211,13.211 0 0 0 -0.42,1.507 7.556,7.556 0 0 0 -0.226,1.248 q 0,0.909 0.37,0.909 0.585,0 1.579,-1.142 a 5.71,5.71 0 0 0 1.3,-2.338 6.127,6.127 0 0 1 0.538,-1.531 0.748,0.748 0 0 1 0.665,-0.362 q 0.7,0 0.7,0.793 a 1.934,1.934 0 0 1 -0.114,0.465 8.713,8.713 0 0 0 -0.4,2.727 q 0,1.777 0.591,2.126 a 0.338,0.338 0 0 1 0.2,0.287 c 0,0.164 -0.115,0.319 -0.343,0.465 a 1.222,1.222 0 0 1 -0.653,0.219 c -0.353,0 -0.626,-0.254 -0.815,-0.762 a 5.972,5.972 0 0 1 -0.287,-2.045 z"
         id="path4056"
         inkscape:connector-curvature="0"
         style="isolation:isolate;fill:#ffffff" />
      <path
         d="m 79.087,26.43 0.115,-0.219 a 11.635,11.635 0 0 1 1.75,-2.7 2.586,2.586 0 0 1 1.832,-1.035 1.628,1.628 0 0 1 1.118,0.382 1.176,1.176 0 0 1 0.433,0.91 1.04,1.04 0 0 1 -0.147,0.564 0.46,0.46 0 0 1 -0.41,0.235 1.046,1.046 0 0 1 -0.76,-0.348 0.671,0.671 0 0 0 -0.383,-0.226 q -0.5,0 -1.686,1.593 a 7.411,7.411 0 0 0 -1.425,3.582 1.273,1.273 0 0 1 -0.329,0.8 1,1 0 0 1 -0.693,0.229 0.687,0.687 0 0 1 -0.658,-0.536 5.629,5.629 0 0 1 -0.195,-1.754 c 0,-0.332 0.009,-0.782 0.027,-1.347 q 0.027,-0.8 0.154,-1.955 c 0.023,-0.2 0.039,-0.358 0.047,-0.471 a 5.344,5.344 0 0 1 0.138,-0.92 0.988,0.988 0 0 1 0.359,-0.468 1,1 0 0 1 0.625,-0.219 0.7,0.7 0 0 1 0.552,0.212 0.688,0.688 0 0 1 0.188,0.465 6.135,6.135 0 0 1 -0.3,1.333 5.747,5.747 0 0 0 -0.182,0.834 z"
         id="path4058"
         inkscape:connector-curvature="0"
         style="isolation:isolate;fill:#ffffff" />
      <path
         d="m 86.372,30.196 a 2.206,2.206 0 0 1 -1.687,-0.615 2.4,2.4 0 0 1 -0.577,-1.709 6.7,6.7 0 0 1 1.377,-3.725 q 1.378,-2 2.7,-2 a 1.305,1.305 0 0 1 1.089,0.646 2.308,2.308 0 0 1 0.45,1.343 1.233,1.233 0 0 1 -0.238,0.885 0.685,0.685 0 0 1 -0.46,0.229 q -0.653,0 -0.76,-0.916 c -0.054,-0.447 -0.163,-0.67 -0.329,-0.67 q -0.525,0 -1.385,1.518 a 5.578,5.578 0 0 0 -0.859,2.659 q 0,0.922 0.98,0.923 a 3.777,3.777 0 0 0 2.185,-0.78 1.592,1.592 0 0 1 0.819,-0.376 0.33,0.33 0 0 1 0.37,0.376 q 0,0.528 -1.186,1.371 a 4.229,4.229 0 0 1 -2.489,0.841 z"
         id="path4060"
         inkscape:connector-curvature="0"
         style="isolation:isolate;fill:#ffffff" />
      <path
         d="m 92.861,26.669 a 11.78,11.78 0 0 1 1.924,-2.895 2.4,2.4 0 0 1 1.637,-0.769 1.253,1.253 0 0 1 0.95,0.4 4.128,4.128 0 0 1 0.555,2.081 9.761,9.761 0 0 0 0.189,1.292 7.357,7.357 0 0 0 0.254,0.872 2.673,2.673 0 0 0 0.4,0.714 0.858,0.858 0 0 1 0.2,0.513 0.6,0.6 0 0 1 -0.232,0.451 0.785,0.785 0 0 1 -0.535,0.205 1.3,1.3 0 0 1 -1.061,-0.663 3.635,3.635 0 0 1 -0.551,-1.832 10.665,10.665 0 0 0 -0.232,-1.825 c -0.083,-0.264 -0.221,-0.4 -0.413,-0.4 q -0.39,0 -1.516,1.583 a 23.687,23.687 0 0 0 -1.623,2.533 4.872,4.872 0 0 1 -0.477,0.929 0.514,0.514 0 0 1 -0.417,0.212 1.027,1.027 0 0 1 -0.665,-0.2 0.7,0.7 0 0 1 -0.255,-0.581 10.464,10.464 0 0 1 0.181,-1.155 q 0.686,-3.67 1.122,-7.814 a 2.764,2.764 0 0 1 0.414,-1.377 c 0.2,-0.253 0.391,-0.379 0.561,-0.379 a 0.82,0.82 0 0 1 0.618,0.28 1.1,1.1 0 0 1 0.263,0.779 10.015,10.015 0 0 1 -0.182,1.764 q -0.182,1 -0.679,3.185 -0.294,1.318 -0.43,2.097 z"
         id="path4062"
         inkscape:connector-curvature="0"
         style="isolation:isolate;fill:#ffffff" />
      <path
         d="m 102.298,21.357 a 2.279,2.279 0 0 1 -0.625,0.431 h 0.007 a 1.046,1.046 0 0 0 -0.235,0.718 0.978,0.978 0 0 0 0.161,0.4 1.31,1.31 0 0 1 0.222,0.561 0.8,0.8 0 0 1 -0.178,0.434 0.512,0.512 0 0 1 -0.42,0.249 0.823,0.823 0 0 1 -0.491,-0.153 2.058,2.058 0 0 1 -0.491,-0.64 1.725,1.725 0 0 1 -0.275,-0.779 1.95,1.95 0 0 1 0.269,-0.916 v 0.007 a 3.212,3.212 0 0 1 1.5,-1.545 1.324,1.324 0 0 1 0.6,-0.226 0.686,0.686 0 0 1 0.464,0.3 0.887,0.887 0 0 1 0.255,0.42 q 0,0.24 -0.39,0.465 a 1.381,1.381 0 0 0 -0.373,0.274 z"
         id="path4064"
         inkscape:connector-curvature="0"
         style="isolation:isolate;fill:#ffffff" />
      <path
         d="m 107.345,28.084 q -0.027,-0.369 -1.156,-0.9 a 5.479,5.479 0 0 1 -1.768,-1.166 1.69,1.69 0 0 1 -0.383,-1.063 2.57,2.57 0 0 1 1.334,-2.116 4.5,4.5 0 0 1 2.49,-0.9 c 0.758,0 1.135,0.335 1.135,1 a 0.61,0.61 0 0 1 -0.258,0.478 0.758,0.758 0 0 1 -0.44,0.212 0.724,0.724 0 0 1 -0.262,-0.1 0.705,0.705 0 0 0 -0.29,-0.1 2.7,2.7 0 0 0 -1.316,0.41 c -0.479,0.273 -0.72,0.592 -0.72,0.957 a 0.73,0.73 0 0 0 0.256,0.516 4.289,4.289 0 0 0 1.042,0.625 4.723,4.723 0 0 1 1.531,1.012 1.531,1.531 0 0 1 0.371,1 q 0,1 -1.328,1.665 a 6.548,6.548 0 0 1 -2.98,0.666 q -1.216,0 -1.216,-0.895 a 0.732,0.732 0 0 1 0.255,-0.561 0.826,0.826 0 0 1 0.571,-0.232 1.338,1.338 0 0 1 0.4,0.095 1.386,1.386 0 0 0 0.5,0.1 4.653,4.653 0 0 0 1.324,-0.205 1.741,1.741 0 0 0 0.908,-0.498 z"
         id="path4066"
         inkscape:connector-curvature="0"
         style="isolation:isolate;fill:#ffffff" />
      <path
         d="m 42.696,39.122 a 1.437,1.437 0 0 0 -0.441,-1.208 2.1,2.1 0 0 0 -1.3,-0.339 5.308,5.308 0 0 0 -2.709,0.725 q -1.248,0.726 -1.248,1.6 a 1.189,1.189 0 0 0 0.471,0.944 8.443,8.443 0 0 0 2.433,0.972 10.309,10.309 0 0 1 3.059,1.323 2.116,2.116 0 0 1 1,1.745 q 0,1.7 -2.54,3.107 a 10.734,10.734 0 0 1 -5.279,1.41 2.429,2.429 0 0 1 -1.426,-0.378 1.114,1.114 0 0 1 -0.535,-0.931 1.484,1.484 0 0 1 0.242,-0.818 0.689,0.689 0 0 1 0.578,-0.378 1,1 0 0 1 0.381,0.071 4.268,4.268 0 0 0 1.694,0.4 7.39,7.39 0 0 0 3.028,-0.769 q 1.68,-0.768 1.68,-1.507 a 0.772,0.772 0 0 0 -0.419,-0.593 8.006,8.006 0 0 0 -1.706,-0.717 q -1.875,-0.624 -2.822,-1.028 a 3.415,3.415 0 0 1 -1.433,-1.059 2.564,2.564 0 0 1 -0.488,-1.578 3.916,3.916 0 0 1 1.883,-3.058 7.152,7.152 0 0 1 4.419,-1.419 3.966,3.966 0 0 1 2.3,0.588 1.659,1.659 0 0 1 0.843,1.345 q 0,1.549 -1.665,1.55 z"
         id="path4070"
         inkscape:connector-curvature="0"
         style="isolation:isolate;fill:#ffffff" />
      <path
         d="m 49.661,41.439 a 10.317,10.317 0 0 0 -0.488,1.96 18.3,18.3 0 0 0 -0.411,2.373 2.342,2.342 0 0 0 0.152,1.006 0.519,0.519 0 0 0 0.5,0.286 2.567,2.567 0 0 0 0.928,-0.172 4.717,4.717 0 0 0 1.171,-0.769 1.3,1.3 0 0 1 0.76,-0.378 0.56,0.56 0 0 1 0.4,0.145 0.457,0.457 0 0 1 0.152,0.339 q 0,0.773 -1.228,1.753 a 4.091,4.091 0 0 1 -2.592,0.98 2.192,2.192 0 0 1 -1.744,-0.69 2.9,2.9 0 0 1 -0.6,-1.969 25.262,25.262 0 0 1 0.873,-4.738 c -0.37,0.041 -0.625,0.062 -0.769,0.062 H 46.583 A 1.485,1.485 0 0 1 45.776,41.363 0.925,0.925 0 0 1 45.365,40.52 q 0,-0.739 0.821,-0.739 l 1.849,-0.07 q 0.363,-1.064 0.769,-2.786 0.242,-1.073 1.1,-1.072 a 0.961,0.961 0 0 1 1.011,0.949 q 0,0.141 -0.735,2.716 2.748,-0.246 3.016,-0.246 a 0.931,0.931 0 0 1 0.6,0.136 0.708,0.708 0 0 1 0.148,0.523 q 0,0.782 -1.3,0.993 z"
         id="path4072"
         inkscape:connector-curvature="0"
         style="isolation:isolate;fill:#ffffff" />
      <path
         d="m 60.477,45.354 a 8.131,8.131 0 0 1 -1.922,2.443 3.47,3.47 0 0 1 -2.217,0.905 1.908,1.908 0 0 1 -1.342,-0.712 3.069,3.069 0 0 1 -0.679,-2.188 14.676,14.676 0 0 1 0.518,-3.155 11.573,11.573 0 0 0 0.45,-2.646 1.134,1.134 0 0 1 1.08,-0.738 1.01,1.01 0 0 1 0.8,0.338 1.031,1.031 0 0 1 0.3,0.681 5.542,5.542 0 0 1 -0.432,1.776 17.333,17.333 0 0 0 -0.54,1.938 9.74,9.74 0 0 0 -0.289,1.6 q 0,1.169 0.474,1.169 0.753,0 2.031,-1.468 a 7.35,7.35 0 0 0 1.667,-3.006 7.837,7.837 0 0 1 0.692,-1.969 0.962,0.962 0 0 1 0.855,-0.466 q 0.9,0 0.9,1.02 a 2.447,2.447 0 0 1 -0.148,0.6 11.227,11.227 0 0 0 -0.509,3.506 q 0,2.286 0.76,2.734 a 0.43,0.43 0 0 1 0.251,0.369 q 0,0.316 -0.441,0.6 a 1.57,1.57 0 0 1 -0.838,0.281 q -0.683,0 -1.05,-0.98 a 7.685,7.685 0 0 1 -0.371,-2.632 z"
         id="path4074"
         inkscape:connector-curvature="0"
         style="isolation:isolate;fill:#ffffff" />
      <path
         d="m 71.261,45.639 q -2.238,3.225 -4.5,3.225 a 1.771,1.771 0 0 1 -1.477,-0.734 2.985,2.985 0 0 1 -0.562,-1.867 7.224,7.224 0 0 1 1.839,-4.566 q 1.844,-2.266 3.737,-2.267 a 1.855,1.855 0 0 1 1.546,0.58 q 0.65,-2.883 0.77,-3.6 a 12.256,12.256 0 0 1 0.431,-1.775 1.428,1.428 0 0 1 0.528,-0.681 1.147,1.147 0 0 1 0.613,-0.242 0.751,0.751 0 0 1 0.674,0.369 1.72,1.72 0 0 1 0.233,0.932 7.493,7.493 0 0 1 -0.38,1.415 39.3,39.3 0 0 0 -1.152,4.584 23.293,23.293 0 0 0 -0.532,4.28 q 0,1.521 0.657,1.521 a 1.646,1.646 0 0 0 0.717,-0.185 1.568,1.568 0 0 1 0.536,-0.176 q 0.423,0 0.423,0.5 0,0.606 -0.86,1.209 a 2.877,2.877 0 0 1 -1.629,0.6 1.4,1.4 0 0 1 -1.278,-0.906 4.145,4.145 0 0 1 -0.334,-2.216 z M 70.302,41.13 q -1.133,0 -2.363,1.758 a 5.758,5.758 0 0 0 -1.232,3.217 q 0,0.852 0.623,0.852 1.055,0 2.514,-1.907 a 5.7,5.7 0 0 0 1.46,-3.015 0.877,0.877 0 0 0 -0.276,-0.619 0.965,0.965 0 0 0 -0.727,-0.29 z"
         id="path4076"
         inkscape:connector-curvature="0"
         style="isolation:isolate;fill:#ffffff" />
      <path
         d="m 77.428,42.739 v 0 q 0.278,-1.6 0.277,-1.828 a 1.978,1.978 0 0 1 0.281,-1.09 0.877,0.877 0 0 1 0.781,-0.439 1.367,1.367 0 0 1 0.916,0.281 0.822,0.822 0 0 1 0.328,0.633 6.769,6.769 0 0 1 -0.319,1.45 l -0.052,0.193 a 15.948,15.948 0 0 0 -0.57,2.769 q -0.1,1.073 -0.095,1.731 a 7.613,7.613 0 0 0 0.181,1.433 1.712,1.712 0 0 1 0.026,0.264 q 0,0.2 -0.376,0.545 a 1.182,1.182 0 0 1 -0.808,0.342 q -1.14,0 -1.14,-1.757 a 19.725,19.725 0 0 1 0.415,-3.639 c 0.057,-0.313 0.109,-0.611 0.155,-0.888 z m 4.173,-7.224 a 1.4,1.4 0 0 1 -0.553,1.094 1.6,1.6 0 0 1 -0.959,0.47 1.218,1.218 0 0 1 -0.92,-0.439 1.315,1.315 0 0 1 -0.4,-0.879 1.376,1.376 0 0 1 0.4,-1.024 1.559,1.559 0 0 1 1.141,-0.391 1.3,1.3 0 0 1 0.938,0.347 1.1,1.1 0 0 1 0.353,0.817 z"
         id="path4078"
         inkscape:connector-curvature="0"
         style="isolation:isolate;fill:#ffffff" />
      <path
         d="m 87.978,45.354 a 8.131,8.131 0 0 1 -1.917,2.443 3.47,3.47 0 0 1 -2.217,0.905 1.908,1.908 0 0 1 -1.342,-0.712 3.069,3.069 0 0 1 -0.679,-2.188 14.676,14.676 0 0 1 0.518,-3.155 11.573,11.573 0 0 0 0.45,-2.646 1.134,1.134 0 0 1 1.08,-0.738 1.01,1.01 0 0 1 0.8,0.338 1.031,1.031 0 0 1 0.3,0.681 5.542,5.542 0 0 1 -0.432,1.776 17.333,17.333 0 0 0 -0.54,1.938 9.74,9.74 0 0 0 -0.289,1.6 q 0,1.169 0.474,1.169 0.753,0 2.031,-1.468 a 7.35,7.35 0 0 0 1.667,-3.006 7.837,7.837 0 0 1 0.692,-1.969 0.962,0.962 0 0 1 0.855,-0.466 q 0.9,0 0.9,1.02 a 2.447,2.447 0 0 1 -0.148,0.6 11.227,11.227 0 0 0 -0.509,3.506 q 0,2.286 0.76,2.734 a 0.43,0.43 0 0 1 0.251,0.369 q 0,0.316 -0.441,0.6 a 1.57,1.57 0 0 1 -0.838,0.281 q -0.682,0 -1.05,-0.98 a 7.685,7.685 0 0 1 -0.376,-2.632 z"
         id="path4080"
         inkscape:connector-curvature="0"
         style="isolation:isolate;fill:#ffffff" />
      <path
         d="m 94.932,48.052 a 0.9,0.9 0 0 1 -0.993,0.905 q -1.132,0 -1.132,-1.661 a 31.694,31.694 0 0 1 0.285,-4.6 19.465,19.465 0 0 0 0.225,-2.918 0.813,0.813 0 0 1 0.216,-0.575 0.78,0.78 0 0 1 0.6,-0.233 q 1.3,0 1.3,1.6 a 18.493,18.493 0 0 1 -0.458,2.646 9.712,9.712 0 0 0 -0.276,1.837 q 2.47,-5.514 4.462,-5.514 a 1.537,1.537 0 0 1 1.291,0.651 5.539,5.539 0 0 1 0.506,2.882 q 0.007,2.04 0.207,2.039 a 7.368,7.368 0 0 0 1.08,-1.977 10.647,10.647 0 0 1 1.755,-2.895 2.2,2.2 0 0 1 1.534,-0.7 1.454,1.454 0 0 1 1.39,0.84 8.271,8.271 0 0 1 0.606,2.834 14.209,14.209 0 0 0 0.349,2.391 1.564,1.564 0 0 0 0.756,1.072 0.676,0.676 0 0 1 0.433,0.633 1.031,1.031 0 0 1 -0.493,0.76 1.621,1.621 0 0 1 -1,0.382 1.523,1.523 0 0 1 -1.378,-0.883 9.58,9.58 0 0 1 -0.67,-3.546 12.008,12.008 0 0 0 -0.2,-1.7 c -0.073,-0.278 -0.18,-0.418 -0.325,-0.418 -0.125,0 -0.31,0.21 -0.552,0.629 -0.242,0.419 -0.659,1.252 -1.253,2.5 a 11.311,11.311 0 0 1 -1.352,2.356 1.605,1.605 0 0 1 -1.214,0.668 1.542,1.542 0 0 1 -1.006,-0.44 q -0.505,-0.44 -0.549,-3.19 -0.043,-2.452 -0.311,-2.452 -0.363,0 -1.745,2.179 a 25.185,25.185 0 0 0 -2.088,3.898 z"
         id="path4082"
         inkscape:connector-curvature="0"
         style="isolation:isolate;fill:#ffffff" />
    </g>
  </g>
</svg>
