<?xml version="1.0" encoding="UTF-8" standalone="no"?>
<svg
   xmlns:dc="http://purl.org/dc/elements/1.1/"
   xmlns:cc="http://creativecommons.org/ns#"
   xmlns:rdf="http://www.w3.org/1999/02/22-rdf-syntax-ns#"
   xmlns:svg="http://www.w3.org/2000/svg"
   xmlns="http://www.w3.org/2000/svg"
   xmlns:xlink="http://www.w3.org/1999/xlink"
   id="svg1089"
   version="1.1"
   viewBox="0 0 102.24 38.88">
  <metadata
     id="metadata1093">
    <rdf:RDF>
      <cc:Work
         rdf:about="">
        <dc:format>image/svg+xml</dc:format>
        <dc:type
           rdf:resource="http://purl.org/dc/dcmitype/StillImage" />
        <dc:title>Element 27</dc:title>
      </cc:Work>
    </rdf:RDF>
  </metadata>
  <defs
     id="defs961">
    <linearGradient
       id="linearGradient1356">
      <stop
         id="stop1352"
         offset="0"
         style="stop-color:#cfdcff;stop-opacity:0.80000001" />
      <stop
         id="stop1354"
         offset="1"
         style="stop-color:#cfdcff;stop-opacity:0.80000001" />
    </linearGradient>
    <clipPath
       transform="translate(2.92 3.72)"
       id="clip-path">
      <rect
         id="rect955"
         fill="none"
         rx="5.772"
         height="28.425"
         width="91.686"
         y="1.662"
         x="2.194" />
    </clipPath>
    <clipPath
       transform="translate(2.92 3.72)"
       id="clip-path-2">
      <rect
         id="rect958"
         fill="none"
         height="38.425"
         width="101.687"
         y="-3.338"
         x="-2.806" />
    </clipPath>
    <linearGradient
       gradientTransform="translate(-2)"
       gradientUnits="userSpaceOnUse"
       y2="19.1035"
       x2="96.789"
       y1="19.1035"
       x1="4.2320008"
       id="linearGradient1358"
       xlink:href="#linearGradient1356" />
  </defs>
  <title
     id="title963">Element 27</title>
  <rect
     style="isolation:isolate;fill:#ffffff"
     id="rect965"
     height="34"
     width="99"
     y="1.72"
     x="0.92000008" />
  <g
     transform="translate(-2)"
     id="g1071"
     style="opacity:0.68000034;isolation:isolate;mix-blend-mode:multiply">
    <path
       style="fill:#ffffff"
       id="path967"
       transform="translate(2.92,3.72)"
       d="m 95.007,30.258 c 0,1.637 -3.862,2.968 -8.623,2.971 l -72.575,0.038 c -4.765,0 -8.626,-1.324 -8.627,-2.961 L 5.168,5.351 c 0,-1.639 3.859,-2.968 8.624,-2.971 L 86.367,2.341 c 4.761,0 8.626,1.323 8.626,2.962 z" />
    <path
       style="fill:#fefeff"
       id="path969"
       transform="translate(2.92,3.72)"
       d="m 94.723,30.163 c 0,1.632 -3.85,2.958 -8.6,2.961 l -72.338,0.038 c -4.75,0 -8.6,-1.319 -8.6,-2.951 L 5.176,5.337 c 0,-1.633 3.846,-2.959 8.6,-2.961 L 86.11,2.337 c 4.746,0 8.6,1.319 8.6,2.952 z" />
    <path
       style="fill:#fdfdff"
       id="path971"
       transform="translate(2.92,3.72)"
       d="m 94.438,30.068 c 0,1.626 -3.837,2.948 -8.567,2.951 l -72.1,0.038 c -4.734,0 -8.57,-1.315 -8.571,-2.941 L 5.184,5.323 c 0,-1.628 3.834,-2.949 8.568,-2.952 l 72.1,-0.038 c 4.73,0 8.569,1.314 8.57,2.942 z" />
    <path
       style="fill:#fcfcff"
       id="path973"
       transform="translate(2.92,3.72)"
       d="m 94.153,29.973 c 0,1.621 -3.824,2.939 -8.539,2.941 L 13.748,32.952 C 9.03,32.952 5.207,31.641 5.206,30.02 L 5.192,5.309 c 0,-1.623 3.821,-2.94 8.539,-2.942 L 85.6,2.328 c 4.715,0 8.542,1.311 8.543,2.933 z" />
    <path
       style="fill:#fcfcff"
       id="path975"
       transform="translate(2.92,3.72)"
       d="m 93.869,29.878 c 0,1.615 -3.812,2.929 -8.512,2.931 l -71.629,0.038 c -4.7,0 -8.513,-1.306 -8.514,-2.922 L 5.2,5.3 c 0,-1.617 3.809,-2.93 8.511,-2.933 l 71.63,-0.038 c 4.7,0 8.513,1.306 8.514,2.923 z" />
    <path
       style="fill:#fbfbff"
       id="path977"
       transform="translate(2.92,3.72)"
       d="m 93.584,29.782 c 0,1.611 -3.8,2.92 -8.483,2.922 l -71.393,0.038 c -4.687,0 -8.485,-1.3 -8.486,-2.912 L 5.208,5.281 c 0,-1.612 3.8,-2.92 8.483,-2.923 L 85.084,2.32 c 4.684,0 8.486,1.3 8.487,2.913 z" />
    <path
       style="fill:#fafaff"
       id="path979"
       transform="translate(2.92,3.72)"
       d="m 93.3,29.687 c 0,1.605 -3.787,2.91 -8.456,2.912 l -71.156,0.038 c -4.672,0 -8.457,-1.3 -8.458,-2.9 L 5.216,5.267 C 5.216,3.66 9,2.356 13.671,2.354 L 84.828,2.316 c 4.668,0 8.457,1.3 8.458,2.9 z" />
    <path
       style="fill:#f9f9ff"
       id="path981"
       transform="translate(2.92,3.72)"
       d="m 93.015,29.592 c 0,1.6 -3.774,2.9 -8.427,2.9 l -70.92,0.037 c -4.656,0 -8.429,-1.293 -8.43,-2.893 L 5.224,5.253 c 0,-1.6 3.771,-2.9 8.427,-2.9 l 70.92,-0.038 c 4.653,0 8.43,1.293 8.43,2.9 z" />
    <path
       style="fill:#f8f8ff"
       id="path983"
       transform="translate(2.92,3.72)"
       d="m 92.73,29.5 c 0,1.594 -3.761,2.89 -8.4,2.893 L 13.647,32.43 c -4.641,0 -8.4,-1.289 -8.4,-2.884 L 5.233,5.246 c 0,-1.6 3.758,-2.891 8.4,-2.893 L 84.317,2.315 c 4.637,0 8.4,1.289 8.4,2.885 z" />
    <path
       style="fill:#f7f7fe"
       id="path985"
       transform="translate(2.92,3.72)"
       d="m 92.446,29.4 c 0,1.59 -3.749,2.881 -8.371,2.884 l -70.448,0.037 c -4.624,0 -8.372,-1.285 -8.373,-2.874 L 5.24,5.224 c 0,-1.59 3.746,-2.881 8.371,-2.884 L 84.058,2.3 c 4.622,0 8.373,1.284 8.374,2.875 z" />
    <path
       style="fill:#f7f7fe"
       id="path987"
       transform="translate(2.92,3.72)"
       d="m 92.161,29.306 c 0,1.584 -3.736,2.871 -8.343,2.874 l -70.211,0.037 c -4.609,0 -8.344,-1.28 -8.345,-2.864 L 5.248,5.21 c 0,-1.585 3.733,-2.872 8.343,-2.874 L 83.8,2.3 c 4.607,0 8.346,1.28 8.347,2.865 z" />
    <path
       style="fill:#f6f6fe"
       id="path989"
       transform="translate(2.92,3.72)"
       d="m 91.876,29.211 c 0,1.579 -3.723,2.862 -8.315,2.864 l -69.974,0.037 c -4.594,0 -8.316,-1.276 -8.317,-2.855 L 5.256,5.2 c 0,-1.58 3.721,-2.862 8.315,-2.864 L 83.545,2.298 c 4.591,0 8.317,1.276 8.318,2.856 z" />
    <path
       style="fill:#f5f5fe"
       id="path991"
       transform="translate(2.92,3.72)"
       d="m 91.592,29.116 c 0,1.573 -3.711,2.852 -8.287,2.854 l -69.738,0.037 c -4.578,0 -8.288,-1.272 -8.289,-2.845 L 5.264,5.182 C 5.264,3.608 8.972,2.33 13.55,2.327 L 83.288,2.29 c 4.576,0 8.29,1.272 8.29,2.846 z" />
    <path
       style="fill:#f4f4fe"
       id="path993"
       transform="translate(2.92,3.72)"
       d="m 91.307,29.021 c 0,1.568 -3.7,2.842 -8.259,2.844 l -69.5,0.037 c -4.563,0 -8.26,-1.267 -8.261,-2.835 L 5.273,5.167 c 0,-1.569 3.7,-2.843 8.258,-2.845 l 69.5,-0.037 c 4.56,0 8.261,1.267 8.262,2.836 z" />
    <path
       style="fill:#f3f3fe"
       id="path995"
       transform="translate(2.92,3.72)"
       d="m 91.022,28.925 c 0,1.563 -3.685,2.833 -8.23,2.835 L 13.527,31.8 C 8.98,31.8 5.295,30.537 5.294,28.974 L 5.281,5.154 C 5.281,3.59 8.963,2.321 13.51,2.318 L 82.775,2.281 c 4.545,0 8.233,1.263 8.234,2.827 z" />
    <path
       style="fill:#f2f2fe"
       id="path997"
       transform="translate(2.92,3.72)"
       d="m 90.738,28.83 c 0,1.558 -3.673,2.823 -8.2,2.826 l -69.029,0.036 c -4.531,0 -8.2,-1.259 -8.2,-2.816 L 5.289,5.14 c 0,-1.559 3.67,-2.824 8.2,-2.826 L 82.518,2.277 c 4.529,0 8.2,1.259 8.206,2.817 z" />
    <path
       style="fill:#f2f2fe"
       id="path999"
       transform="translate(2.92,3.72)"
       d="m 90.453,28.735 c 0,1.552 -3.66,2.813 -8.174,2.816 L 13.486,31.587 C 8.971,31.587 5.31,30.333 5.31,28.78 L 5.3,5.126 C 5.3,3.573 8.957,2.312 13.473,2.31 L 82.265,2.273 c 4.515,0 8.177,1.254 8.178,2.807 z" />
    <path
       style="fill:#f1f1fe"
       id="path1001"
       transform="translate(2.92,3.72)"
       d="m 90.169,28.64 c 0,1.547 -3.648,2.8 -8.147,2.806 l -68.556,0.036 c -4.5,0 -8.148,-1.25 -8.148,-2.8 L 5.305,5.112 c 0,-1.548 3.645,-2.8 8.145,-2.807 L 82.006,2.269 c 4.5,0 8.149,1.25 8.15,2.8 z" />
    <path
       style="fill:#f0f0fe"
       id="path1003"
       transform="translate(2.92,3.72)"
       d="m 89.884,28.544 c 0,1.542 -3.635,2.794 -8.119,2.8 L 13.446,31.38 c -4.485,0 -8.12,-1.246 -8.12,-2.787 L 5.313,5.1 c 0,-1.543 3.632,-2.795 8.117,-2.8 L 81.749,2.263 c 4.484,0 8.121,1.246 8.122,2.789 z" />
    <path
       style="fill:#efeffe"
       id="path1005"
       transform="translate(2.92,3.72)"
       d="m 89.6,28.449 c 0,1.536 -3.622,2.785 -8.09,2.787 l -68.083,0.036 c -4.469,0 -8.092,-1.242 -8.092,-2.778 L 5.321,5.084 C 5.32,3.547 8.941,2.3 13.41,2.3 L 81.493,2.26 c 4.468,0 8.093,1.241 8.093,2.779 z" />
    <path
       style="fill:#eeeefe"
       id="path1007"
       transform="translate(2.92,3.72)"
       d="m 89.315,28.354 c 0,1.531 -3.61,2.775 -8.063,2.777 l -67.846,0.036 c -4.454,0 -8.064,-1.237 -8.065,-2.768 L 5.329,5.07 c 0,-1.532 3.607,-2.776 8.061,-2.778 L 81.236,2.256 c 4.453,0 8.065,1.237 8.066,2.769 z" />
    <path
       style="fill:#ededfe"
       id="path1009"
       transform="translate(2.92,3.72)"
       d="m 89.03,28.259 c 0,1.525 -3.6,2.765 -8.034,2.767 l -67.611,0.036 c -4.437,0 -8.035,-1.233 -8.036,-2.759 L 5.337,5.056 c 0,-1.527 3.6,-2.766 8.032,-2.768 L 80.98,2.252 c 4.437,0 8.036,1.232 8.037,2.759 z" />
    <path
       style="fill:#ececfe"
       id="path1011"
       transform="translate(2.92,3.72)"
       d="m 88.745,28.164 c 0,1.52 -3.584,2.755 -8.006,2.757 l -67.374,0.036 c -4.422,0 -8.007,-1.229 -8.008,-2.749 L 5.345,5.042 c 0,-1.522 3.582,-2.756 8,-2.759 L 80.719,2.247 c 4.422,0 8.009,1.229 8.01,2.75 z" />
    <path
       style="fill:#ececfe"
       id="path1013"
       transform="translate(2.92,3.72)"
       d="m 88.461,28.068 c 0,1.515 -3.572,2.746 -7.978,2.748 l -67.138,0.036 c -4.406,0 -7.979,-1.224 -7.98,-2.739 L 5.353,5.027 c 0,-1.515 3.57,-2.746 7.976,-2.748 L 80.467,2.243 c 4.406,0 7.98,1.224 7.981,2.74 z" />
    <path
       style="fill:#ebebfe"
       id="path1015"
       transform="translate(2.92,3.72)"
       d="m 88.176,27.973 c 0,1.51 -3.559,2.736 -7.95,2.739 l -66.9,0.035 c -4.391,0 -7.951,-1.22 -7.952,-2.73 l -0.012,-23 c 0,-1.51 3.557,-2.736 7.948,-2.739 l 66.9,-0.035 c 4.391,0 7.953,1.22 7.954,2.73 z" />
    <path
       style="fill:#eaeafe"
       id="path1017"
       transform="translate(2.92,3.72)"
       d="m 87.892,27.878 c 0,1.5 -3.547,2.726 -7.923,2.729 l -66.664,0.035 c -4.376,0 -7.923,-1.216 -7.924,-2.72 L 5.369,5 c 0,-1.5 3.545,-2.727 7.92,-2.729 L 79.954,2.235 c 4.375,0 7.924,1.216 7.925,2.721 z" />
    <path
       style="fill:#e9e9fd"
       id="path1019"
       transform="translate(2.92,3.72)"
       d="m 87.607,27.783 c 0,1.5 -3.534,2.717 -7.894,2.719 l -66.429,0.035 c -4.359,0 -7.894,-1.211 -7.895,-2.71 L 5.377,4.985 c 0,-1.5 3.532,-2.717 7.892,-2.719 L 79.7,2.23 c 4.36,0 7.9,1.211 7.9,2.711 z" />
    <path
       style="fill:#e8e8fd"
       id="path1021"
       transform="translate(2.92,3.72)"
       d="m 87.322,27.687 c 0,1.494 -3.522,2.708 -7.866,2.71 l -66.192,0.035 c -4.344,0 -7.866,-1.207 -7.867,-2.7 L 5.385,4.971 c 0,-1.494 3.52,-2.707 7.864,-2.71 L 79.441,2.226 c 4.344,0 7.868,1.207 7.869,2.7 z" />
    <path
       style="fill:#e7e7fd"
       id="path1023"
       transform="translate(2.92,3.72)"
       d="m 87.038,27.592 c 0,1.489 -3.51,2.7 -7.838,2.7 l -65.956,0.035 c -4.328,0 -7.838,-1.2 -7.839,-2.691 L 5.393,4.957 c 0,-1.489 3.507,-2.7 7.836,-2.7 L 79.184,2.222 c 4.329,0 7.84,1.2 7.841,2.691 z" />
    <path
       style="fill:#e7e7fd"
       id="path1025"
       transform="translate(2.92,3.72)"
       d="m 86.753,27.5 c 0,1.483 -3.5,2.688 -7.81,2.69 l -65.719,0.035 c -4.313,0 -7.81,-1.2 -7.811,-2.682 L 5.4,4.943 c 0,-1.484 3.5,-2.688 7.807,-2.691 l 65.72,-0.035 c 4.313,0 7.812,1.2 7.813,2.683 z" />
    <path
       style="fill:#e6e6fd"
       id="path1027"
       transform="translate(2.92,3.72)"
       d="m 86.468,27.4 c 0,1.478 -3.484,2.678 -7.781,2.68 L 13.2,30.117 c -4.3,0 -7.782,-1.194 -7.783,-2.672 L 5.409,4.929 C 5.409,3.45 8.891,2.25 13.188,2.248 L 78.671,2.213 c 4.3,0 7.784,1.194 7.785,2.673 z" />
    <path
       style="fill:#e5e5fd"
       id="path1029"
       transform="translate(2.92,3.72)"
       d="m 86.184,27.307 c 0,1.472 -3.472,2.668 -7.754,2.67 l -65.246,0.035 c -4.282,0 -7.754,-1.19 -7.755,-2.662 L 5.417,4.915 c 0,-1.473 3.47,-2.669 7.751,-2.671 L 78.415,2.209 c 4.282,0 7.756,1.19 7.756,2.663 z" />
    <path
       style="fill:#e4e4fd"
       id="path1031"
       transform="translate(2.92,3.72)"
       d="m 85.9,27.211 c 0,1.468 -3.459,2.659 -7.726,2.662 l -65.01,0.034 c -4.266,0 -7.725,-1.185 -7.726,-2.653 L 5.425,4.9 c 0,-1.468 3.457,-2.659 7.723,-2.662 l 65.01,-0.034 c 4.267,0 7.728,1.185 7.729,2.653 z" />
    <path
       style="fill:#e3e3fd"
       id="path1033"
       transform="translate(2.92,3.72)"
       d="m 85.615,27.116 c 0,1.462 -3.447,2.649 -7.7,2.652 L 13.143,29.8 c -4.25,0 -7.7,-1.181 -7.7,-2.643 L 5.433,4.887 c 0,-1.463 3.445,-2.65 7.7,-2.652 L 77.9,2.2 c 4.251,0 7.7,1.181 7.7,2.644 z" />
    <path
       style="fill:#e2e2fd"
       id="path1035"
       transform="translate(2.92,3.72)"
       d="m 85.33,27.021 c 0,1.457 -3.434,2.64 -7.67,2.642 L 13.123,29.7 c -4.235,0 -7.669,-1.177 -7.67,-2.633 L 5.441,4.873 c 0,-1.457 3.432,-2.64 7.667,-2.642 L 77.645,2.2 c 4.236,0 7.672,1.177 7.673,2.634 z" />
    <path
       style="fill:#e1e1fd"
       id="path1037"
       transform="translate(2.92,3.72)"
       d="m 85.045,26.926 c 0,1.451 -3.421,2.63 -7.641,2.632 l -64.3,0.034 c -4.219,0 -7.641,-1.172 -7.642,-2.624 L 5.449,4.859 c 0,-1.452 3.42,-2.631 7.639,-2.633 l 64.3,-0.034 c 4.22,0 7.643,1.172 7.644,2.624 z" />
    <path
       style="fill:#e1e1fd"
       id="path1039"
       transform="translate(2.92,3.72)"
       d="m 84.761,26.83 c 0,1.447 -3.409,2.621 -7.614,2.623 l -64.064,0.034 c -4.2,0 -7.613,-1.168 -7.614,-2.614 L 5.457,4.845 c 0,-1.447 3.407,-2.621 7.611,-2.623 L 77.132,2.187 c 4.2,0 7.616,1.169 7.617,2.615 z" />
    <path
       style="fill:#e0e0fd"
       id="path1041"
       transform="translate(2.92,3.72)"
       d="m 84.476,26.735 c 0,1.441 -3.4,2.611 -7.585,2.613 l -63.828,0.034 c -4.188,0 -7.585,-1.164 -7.586,-2.605 L 5.465,4.83 c 0,-1.441 3.395,-2.61 7.583,-2.613 L 76.875,2.183 c 4.19,0 7.588,1.164 7.589,2.605 z" />
    <path
       style="fill:#dfdffd"
       id="path1043"
       transform="translate(2.92,3.72)"
       d="m 84.191,26.64 c 0,1.435 -3.383,2.6 -7.557,2.6 l -63.592,0.034 c -4.172,0 -7.556,-1.159 -7.557,-2.6 L 5.473,4.816 c 0,-1.435 3.382,-2.6 7.554,-2.6 L 76.619,2.182 c 4.174,0 7.56,1.16 7.56,2.6 z" />
    <path
       style="fill:#dedefd"
       id="path1045"
       transform="translate(2.92,3.72)"
       d="m 83.907,26.545 c 0,1.43 -3.371,2.591 -7.53,2.593 l -63.355,0.034 c -4.157,0 -7.528,-1.155 -7.529,-2.585 L 5.481,4.8 c 0,-1.43 3.37,-2.591 7.526,-2.593 L 76.362,2.173 c 4.159,0 7.532,1.155 7.533,2.585 z" />
    <path
       style="fill:#ddddfd"
       id="path1047"
       transform="translate(2.92,3.72)"
       d="m 83.622,26.45 c 0,1.424 -3.358,2.581 -7.5,2.584 L 13,29.067 c -4.141,0 -7.5,-1.151 -7.5,-2.576 L 5.488,4.791 c 0,-1.425 3.357,-2.582 7.5,-2.584 L 76.106,2.17 c 4.143,0 7.5,1.151 7.5,2.577 z" />
    <path
       style="fill:#dcdcfd"
       id="path1049"
       transform="translate(2.92,3.72)"
       d="m 83.338,26.354 c 0,1.42 -3.346,2.572 -7.474,2.575 l -62.882,0.033 c -4.126,0 -7.472,-1.147 -7.473,-2.566 L 5.5,4.774 C 5.5,3.354 8.844,2.202 12.97,2.2 L 75.852,2.166 c 4.128,0 7.476,1.147 7.477,2.567 z" />
    <path
       style="fill:#dcdcfd"
       id="path1051"
       transform="translate(2.92,3.72)"
       d="m 83.053,26.259 c 0,1.414 -3.333,2.563 -7.445,2.565 l -62.646,0.033 c -4.11,0 -7.444,-1.142 -7.445,-2.556 L 5.505,4.76 c 0,-1.414 3.332,-2.562 7.442,-2.565 L 75.593,2.162 c 4.112,0 7.447,1.142 7.448,2.557 z" />
    <path
       style="fill:#dbdbfc"
       id="path1053"
       transform="translate(2.92,3.72)"
       d="m 82.768,26.164 c 0,1.409 -3.32,2.553 -7.417,2.555 l -62.409,0.033 c -4.1,0 -7.416,-1.138 -7.417,-2.547 L 5.513,4.746 c 0,-1.409 3.319,-2.553 7.414,-2.555 L 75.336,2.158 c 4.1,0 7.42,1.138 7.42,2.547 z" />
    <path
       style="fill:#dadafc"
       id="path1055"
       transform="translate(2.92,3.72)"
       d="m 82.484,26.069 c 0,1.4 -3.308,2.543 -7.39,2.545 l -62.173,0.033 c -4.078,0 -7.388,-1.134 -7.388,-2.537 L 5.521,4.732 c 0,-1.4 3.307,-2.543 7.386,-2.545 L 75.08,2.153 c 4.081,0 7.391,1.134 7.392,2.538 z" />
    <path
       style="fill:#d9d9fc"
       id="path1057"
       transform="translate(2.92,3.72)"
       d="m 82.2,25.973 c 0,1.4 -3.3,2.534 -7.361,2.536 L 12.9,28.542 c -4.063,0 -7.36,-1.129 -7.36,-2.528 L 5.528,4.714 c 0,-1.4 3.294,-2.534 7.358,-2.536 L 74.822,2.145 c 4.066,0 7.364,1.13 7.364,2.528 z" />
    <path
       style="fill:#d8d8fc"
       id="path1059"
       transform="translate(2.92,3.72)"
       d="m 81.914,25.878 c 0,1.393 -3.282,2.524 -7.333,2.526 l -61.7,0.033 c -4.048,0 -7.332,-1.125 -7.332,-2.518 L 5.537,4.7 c 0,-1.393 3.282,-2.524 7.33,-2.526 l 61.7,-0.033 c 4.051,0 7.335,1.125 7.336,2.518 z" />
    <path
       style="fill:#d7d7fc"
       id="path1061"
       transform="translate(2.92,3.72)"
       d="m 81.63,25.783 c 0,1.388 -3.27,2.514 -7.3,2.516 l -61.464,0.033 c -4.032,0 -7.3,-1.121 -7.3,-2.508 L 5.545,4.69 c 0,-1.388 3.269,-2.514 7.3,-2.517 L 74.31,2.141 c 4.036,0 7.307,1.12 7.308,2.508 z" />
    <path
       style="fill:#d7d7fc"
       id="path1063"
       transform="translate(2.92,3.72)"
       d="m 81.345,25.688 c 0,1.382 -3.257,2.5 -7.277,2.507 l -61.227,0.032 c -4.017,0 -7.276,-1.116 -7.276,-2.5 L 5.553,4.676 c 0,-1.383 3.257,-2.505 7.273,-2.507 L 74.054,2.136 c 4.02,0 7.279,1.117 7.28,2.5 z" />
    <path
       style="fill:#d6d6fc"
       id="path1065"
       transform="translate(2.92,3.72)"
       d="m 81.061,25.593 c 0,1.377 -3.245,2.5 -7.249,2.5 l -60.991,0.032 c -4,0 -7.248,-1.112 -7.248,-2.489 L 5.561,4.662 c 0,-1.377 3.244,-2.495 7.245,-2.5 L 73.8,2.132 c 4.005,0 7.251,1.112 7.252,2.489 z" />
    <path
       style="fill:#d5d5fc"
       id="path1067"
       transform="translate(2.92,3.72)"
       d="m 80.776,25.5 c 0,1.372 -3.232,2.486 -7.221,2.488 L 12.8,28.017 c -3.985,0 -7.219,-1.108 -7.219,-2.479 L 5.569,4.648 c 0,-1.372 3.232,-2.486 7.217,-2.488 L 73.541,2.128 c 3.989,0 7.223,1.108 7.223,2.479 z" />
    <path
       style="fill:#d4d4fc"
       id="path1069"
       transform="translate(2.92,3.72)"
       d="m 80.491,25.4 c 0,1.367 -3.219,2.476 -7.193,2.478 L 12.78,27.91 c -3.969,0 -7.191,-1.1 -7.192,-2.47 L 5.577,4.634 c 0,-1.367 3.219,-2.476 7.189,-2.478 L 73.284,2.123 c 3.974,0 7.195,1.1 7.2,2.471 z" />
  </g>
  <rect
     style="isolation:isolate;fill:#ffffff"
     id="rect1073"
     rx="5.8559999"
     height="28.989"
     width="92.556999"
     y="5.2080002"
     x="2.7540002" />
  <rect
     style="isolation:isolate;fill:url(#linearGradient1358);fill-opacity:1"
     id="rect1073-0"
     rx="5.8559999"
     height="28.989"
     width="92.556999"
     y="4.6089997"
     x="2.2320008" />
</svg>
