<?xml version="1.0" encoding="UTF-8" standalone="no"?>
<svg
   xmlns:dc="http://purl.org/dc/elements/1.1/"
   xmlns:cc="http://creativecommons.org/ns#"
   xmlns:rdf="http://www.w3.org/1999/02/22-rdf-syntax-ns#"
   xmlns:svg="http://www.w3.org/2000/svg"
   xmlns="http://www.w3.org/2000/svg"
   xmlns:sodipodi="http://sodipodi.sourceforge.net/DTD/sodipodi-0.dtd"
   xmlns:inkscape="http://www.inkscape.org/namespaces/inkscape"
   viewBox="0 0 144.512 69.715"
   version="1.1"
   id="svg2508"
   sodipodi:docname="5_add.svg"
   inkscape:version="0.92.4 (5da689c313, 2019-01-14)">
  <metadata
     id="metadata2512">
    <rdf:RDF>
      <cc:Work
         rdf:about="">
        <dc:format>image/svg+xml</dc:format>
        <dc:type
           rdf:resource="http://purl.org/dc/dcmitype/StillImage" />
        <dc:title>5_add</dc:title>
      </cc:Work>
    </rdf:RDF>
  </metadata>
  <sodipodi:namedview
     pagecolor="#ffffff"
     bordercolor="#666666"
     borderopacity="1"
     objecttolerance="10"
     gridtolerance="10"
     guidetolerance="10"
     inkscape:pageopacity="0"
     inkscape:pageshadow="2"
     inkscape:window-width="1920"
     inkscape:window-height="1018"
     id="namedview2510"
     showgrid="false"
     inkscape:zoom="5"
     inkscape:cx="72.255997"
     inkscape:cy="34.857498"
     inkscape:window-x="1912"
     inkscape:window-y="-8"
     inkscape:window-maximized="1"
     inkscape:current-layer="svg2508" />
  <defs
     id="defs2274">
    <linearGradient
       id="Unbenannter_Verlauf_21"
       data-name="Unbenannter Verlauf 21"
       x1="2.479"
       y1="21.525"
       x2="139.397"
       y2="42.913"
       gradientUnits="userSpaceOnUse">
      <stop
         offset="0"
         stop-color="#d0dcff"
         id="stop2231" />
      <stop
         offset="0.334"
         stop-color="#d2ddff"
         id="stop2233" />
      <stop
         offset="0.454"
         stop-color="#d9e3ff"
         id="stop2235" />
      <stop
         offset="0.54"
         stop-color="#e4ebff"
         id="stop2237" />
      <stop
         offset="0.579"
         stop-color="#edf2ff"
         id="stop2239" />
      <stop
         offset="0.668"
         stop-color="#d6e0ff"
         id="stop2241" />
      <stop
         offset="0.773"
         stop-color="#c2d1ff"
         id="stop2243" />
      <stop
         offset="0.878"
         stop-color="#b6c8ff"
         id="stop2245" />
      <stop
         offset="0.983"
         stop-color="#b2c5ff"
         id="stop2247" />
    </linearGradient>
    <linearGradient
       id="Unbenannter_Verlauf_23"
       data-name="Unbenannter Verlauf 23"
       x1="2.872"
       y1="21.587"
       x2="138.993"
       y2="42.85"
       gradientUnits="userSpaceOnUse">
      <stop
         offset="0"
         stop-color="#d6e1ff"
         id="stop2250" />
      <stop
         offset="0.262"
         stop-color="#d3dfff"
         id="stop2252" />
      <stop
         offset="0.42"
         stop-color="#cbd8ff"
         id="stop2254" />
      <stop
         offset="0.466"
         stop-color="#c7d4ff"
         id="stop2256" />
      <stop
         offset="0.939"
         stop-color="#d1dcff"
         id="stop2258" />
      <stop
         offset="0.983"
         stop-color="#d2ddff"
         id="stop2260" />
    </linearGradient>
    <linearGradient
       id="Unbenannter_Verlauf_18"
       data-name="Unbenannter Verlauf 18"
       x1="77.863"
       y1="42.96"
       x2="63.717"
       y2="26.689"
       gradientUnits="userSpaceOnUse">
      <stop
         offset="0.155"
         stop-color="#beceff"
         stop-opacity="0.6"
         id="stop2263" />
      <stop
         offset="0.379"
         stop-color="#beceff"
         stop-opacity="0.619"
         id="stop2265" />
      <stop
         offset="0.635"
         stop-color="#beceff"
         stop-opacity="0.673"
         id="stop2267" />
      <stop
         offset="0.907"
         stop-color="#bdcdff"
         stop-opacity="0.762"
         id="stop2269" />
      <stop
         offset="1"
         stop-color="#bdcdff"
         stop-opacity="0.8"
         id="stop2271" />
    </linearGradient>
  </defs>
  <title
     id="title2276">5_add</title>
  <rect
     style="opacity:1;fill:#ffffff;fill-opacity:1"
     id="rect1095"
     width="144.51199"
     height="69.714996"
     x="0"
     y="0" />
  <g
     style="isolation:isolate;mix-blend-mode:multiply"
     id="g2382">
    <path
       d="m 144.4,62.309 c 0,3.549 -6.194,6.432 -13.832,6.436 L 14.14,68.8 C 6.5,68.806 0.3,65.928 0.3,62.38 L 0.267,8.281 c 0,-3.552 6.188,-6.433 13.832,-6.437 L 130.525,1.787 c 7.638,0 13.838,2.872 13.84,6.424 z"
       id="path2278"
       inkscape:connector-curvature="0"
       style="fill:#ffffff" />
    <path
       d="m 143.951,62.084 c 0,3.538 -6.174,6.411 -13.788,6.415 L 14.117,68.556 c -7.62,0 -13.793,-2.864 -13.8,-6.4 L 0.289,8.233 C 0.289,4.692 6.457,1.82 14.076,1.817 L 130.122,1.76 c 7.614,0 13.794,2.862 13.8,6.4 z"
       id="path2280"
       inkscape:connector-curvature="0"
       style="fill:#fefeff" />
    <path
       d="m 143.5,61.86 c 0,3.526 -6.154,6.39 -13.742,6.394 L 14.09,68.311 C 6.5,68.314 0.345,65.456 0.343,61.93 L 0.311,8.185 c 0,-3.529 6.148,-6.392 13.742,-6.4 L 129.72,1.732 c 7.589,0 13.748,2.853 13.751,6.382 z"
       id="path2282"
       inkscape:connector-curvature="0"
       style="fill:#fdfdff" />
    <path
       d="m 143.056,61.635 c 0,3.515 -6.134,6.37 -13.7,6.373 L 14.07,68.065 c -7.569,0 -13.7,-2.845 -13.7,-6.359 L 0.332,8.136 c 0,-3.517 6.128,-6.371 13.7,-6.374 L 129.32,1.705 c 7.564,0 13.7,2.844 13.7,6.361 z"
       id="path2284"
       inkscape:connector-curvature="0"
       style="fill:#fcfcff" />
    <path
       d="m 142.608,61.411 c 0,3.5 -6.113,6.348 -13.652,6.352 L 14.047,67.819 C 6.5,67.823 0.389,64.984 0.387,61.481 L 0.354,8.088 c 0,-3.506 6.108,-6.35 13.653,-6.354 L 128.915,1.678 c 7.539,0 13.659,2.834 13.661,6.34 z"
       id="path2286"
       inkscape:connector-curvature="0"
       style="fill:#fcfcff" />
    <path
       d="m 142.161,61.187 c 0,3.491 -6.094,6.327 -13.608,6.331 L 14.024,67.574 C 6.5,67.578 0.411,64.747 0.409,61.256 L 0.376,8.039 C 0.376,4.545 6.464,1.71 13.984,1.707 L 128.513,1.65 c 7.514,0 13.613,2.825 13.615,6.32 z"
       id="path2288"
       inkscape:connector-curvature="0"
       style="fill:#fbfbff" />
    <path
       d="m 141.713,60.962 c 0,3.48 -6.073,6.307 -13.562,6.31 L 14,67.328 c -7.494,0 -13.567,-2.817 -13.569,-6.3 L 0.4,7.991 C 0.4,4.508 6.466,1.683 13.96,1.679 L 128.111,1.623 c 7.489,0 13.568,2.816 13.57,6.3 z"
       id="path2290"
       inkscape:connector-curvature="0"
       style="fill:#fafaff" />
    <path
       d="m 141.266,60.738 c 0,3.468 -6.053,6.285 -13.518,6.289 L 13.977,67.083 C 6.508,67.086 0.455,64.275 0.453,60.807 L 0.42,7.942 c 0,-3.471 6.048,-6.287 13.517,-6.29 L 127.708,1.6 c 7.465,0 13.523,2.806 13.526,6.277 z"
       id="path2292"
       inkscape:connector-curvature="0"
       style="fill:#f9f9ff" />
    <path
       d="m 140.818,60.513 c 0,3.457 -6.033,6.265 -13.472,6.269 L 13.954,66.837 c -7.444,0 -13.477,-2.8 -13.479,-6.255 L 0.442,7.894 c 0,-3.46 6.028,-6.266 13.472,-6.27 L 127.306,1.569 c 7.44,0 13.478,2.8 13.48,6.256 z"
       id="path2294"
       inkscape:connector-curvature="0"
       style="fill:#f8f8ff" />
    <path
       d="m 140.371,60.289 c 0,3.445 -6.013,6.243 -13.428,6.247 L 13.931,66.592 C 6.511,66.6 0.5,63.8 0.5,60.357 L 0.464,7.845 C 0.462,4.4 6.472,1.6 13.891,1.6 L 126.9,1.541 c 7.416,0 13.434,2.788 13.436,6.236 z"
       id="path2296"
       inkscape:connector-curvature="0"
       style="fill:#f7f7fe" />
    <path
       d="m 139.923,60.064 c 0,3.434 -5.992,6.223 -13.382,6.227 L 13.907,66.346 C 6.513,66.35 0.52,63.566 0.518,60.133 L 0.486,7.8 c 0,-3.436 5.988,-6.224 13.382,-6.228 L 126.5,1.514 c 7.39,0 13.388,2.778 13.39,6.215 z"
       id="path2298"
       inkscape:connector-curvature="0"
       style="fill:#f7f7fe" />
    <path
       d="m 139.476,59.84 c 0,3.422 -5.972,6.2 -13.338,6.2 L 13.884,66.1 C 6.515,66.1 0.542,63.33 0.54,59.908 L 0.508,7.749 c 0,-3.425 5.968,-6.2 13.337,-6.207 L 126.1,1.487 c 7.365,0 13.343,2.769 13.345,6.193 z"
       id="path2300"
       inkscape:connector-curvature="0"
       style="fill:#f6f6fe" />
    <path
       d="m 139.028,59.615 c 0,3.411 -5.952,6.181 -13.292,6.185 L 13.861,65.855 c -7.344,0 -13.3,-2.761 -13.3,-6.172 L 0.53,7.7 C 0.53,4.287 6.477,1.518 13.822,1.514 L 125.7,1.459 c 7.341,0 13.3,2.76 13.3,6.173 z"
       id="path2302"
       inkscape:connector-curvature="0"
       style="fill:#f5f5fe" />
    <path
       d="m 138.581,59.391 c 0,3.4 -5.932,6.16 -13.248,6.164 L 13.838,65.609 c -7.32,0 -13.252,-2.751 -13.254,-6.15 L 0.552,7.652 C 0.55,4.25 6.479,1.49 13.8,1.487 L 125.3,1.432 c 7.316,0 13.253,2.75 13.255,6.152 z"
       id="path2304"
       inkscape:connector-curvature="0"
       style="fill:#f4f4fe" />
    <path
       d="m 138.133,59.166 c 0,3.388 -5.911,6.14 -13.2,6.143 L 13.817,65.364 C 6.52,65.367 0.608,62.622 0.606,59.234 L 0.574,7.6 c 0,-3.39 5.907,-6.14 13.2,-6.144 L 124.891,1.402 c 7.291,0 13.208,2.741 13.21,6.131 z"
       id="path2306"
       inkscape:connector-curvature="0"
       style="fill:#f3f3fe" />
    <path
       d="m 137.686,58.942 c 0,3.376 -5.892,6.118 -13.158,6.122 L 13.791,65.118 C 6.522,65.122 0.63,62.385 0.628,59.009 L 0.6,7.555 C 0.6,4.176 6.487,1.435 13.756,1.432 L 124.493,1.377 c 7.267,0 13.163,2.732 13.165,6.111 z"
       id="path2308"
       inkscape:connector-curvature="0"
       style="fill:#f2f2fe" />
    <path
       d="m 137.238,58.717 c 0,3.365 -5.871,6.1 -13.113,6.1 L 13.768,64.872 C 6.524,64.876 0.652,62.149 0.65,58.785 L 0.618,7.506 c 0,-3.367 5.867,-6.1 13.111,-6.1 L 124.087,1.35 c 7.241,0 13.118,2.722 13.12,6.089 z"
       id="path2310"
       inkscape:connector-curvature="0"
       style="fill:#f2f2fe" />
    <path
       d="m 136.791,58.493 c 0,3.353 -5.851,6.076 -13.068,6.08 L 13.744,64.627 C 6.525,64.631 0.673,61.913 0.671,58.56 L 0.64,7.458 C 0.638,4.1 6.487,1.38 13.706,1.377 L 123.684,1.323 c 7.217,0 13.074,2.713 13.076,6.068 z"
       id="path2312"
       inkscape:connector-curvature="0"
       style="fill:#f1f1fe" />
    <path
       d="m 136.343,58.269 c 0,3.341 -5.83,6.055 -13.023,6.059 L 13.72,64.381 C 6.527,64.385 0.7,61.677 0.693,58.335 L 0.662,7.41 c 0,-3.344 5.827,-6.057 13.021,-6.061 l 109.6,-0.053 c 7.192,0 13.028,2.7 13.03,6.047 z"
       id="path2314"
       inkscape:connector-curvature="0"
       style="fill:#f0f0fe" />
    <path
       d="m 135.9,58.044 c 0,3.33 -5.811,6.035 -12.978,6.038 L 13.7,64.136 C 6.529,64.139 0.717,61.441 0.715,58.11 L 0.684,7.361 C 0.684,4.029 6.491,1.325 13.66,1.322 L 122.88,1.268 c 7.167,0 12.983,2.694 12.985,6.027 z"
       id="path2316"
       inkscape:connector-curvature="0"
       style="fill:#efeffe" />
    <path
       d="m 135.448,57.82 c 0,3.318 -5.79,6.013 -12.933,6.017 L 13.675,63.89 c -7.144,0 -12.936,-2.686 -12.938,-6 L 0.706,7.313 C 0.7,3.992 6.493,1.3 13.636,1.294 L 122.477,1.241 c 7.143,0 12.938,2.685 12.94,6.006 z"
       id="path2318"
       inkscape:connector-curvature="0"
       style="fill:#eeeefe" />
    <path
       d="m 135,57.6 c 0,3.307 -5.77,5.993 -12.888,6 L 13.65,63.654 C 6.531,63.654 0.76,60.977 0.758,57.67 L 0.728,7.264 c 0,-3.309 5.766,-5.994 12.885,-6 L 122.075,1.211 c 7.118,0 12.893,2.675 12.895,5.984 z"
       id="path2320"
       inkscape:connector-curvature="0"
       style="fill:#ededfe" />
    <path
       d="m 134.553,57.371 c 0,3.295 -5.75,5.972 -12.843,5.975 L 13.628,63.4 C 6.534,63.4 0.783,60.732 0.781,57.436 L 0.75,7.216 c 0,-3.3 5.746,-5.973 12.84,-5.976 L 121.673,1.186 c 7.093,0 12.848,2.667 12.85,5.964 z"
       id="path2322"
       inkscape:connector-curvature="0"
       style="fill:#ececfe" />
    <path
       d="m 134.106,57.146 c 0,3.284 -5.73,5.951 -12.8,5.955 l -107.7,0.053 C 6.536,63.157 0.805,60.5 0.8,57.212 L 0.772,7.167 c 0,-3.286 5.726,-5.951 12.8,-5.955 l 107.7,-0.053 c 7.068,0 12.8,2.657 12.8,5.943 z"
       id="path2324"
       inkscape:connector-curvature="0"
       style="fill:#ececfe" />
    <path
       d="m 133.658,56.922 c 0,3.272 -5.709,5.93 -12.753,5.933 L 13.582,62.908 C 6.538,62.911 0.827,60.26 0.825,56.987 L 0.794,7.119 C 0.794,3.845 6.5,1.188 13.544,1.185 L 120.868,1.132 c 7.043,0 12.758,2.647 12.76,5.922 z"
       id="path2326"
       inkscape:connector-curvature="0"
       style="fill:#ebebfe" />
    <path
       d="m 133.211,56.7 c 0,3.262 -5.689,5.909 -12.708,5.913 L 13.558,62.665 c -7.018,0 -12.71,-2.639 -12.712,-5.9 L 0.816,7.071 c 0,-3.263 5.686,-5.91 12.705,-5.914 L 120.465,1.105 c 7.019,0 12.713,2.638 12.715,5.9 z"
       id="path2328"
       inkscape:connector-curvature="0"
       style="fill:#eaeafe" />
    <path
       d="m 132.763,56.473 c 0,3.25 -5.669,5.888 -12.663,5.892 L 13.535,62.417 C 6.541,62.42 0.87,59.787 0.868,56.538 L 0.838,7.022 C 0.836,3.771 6.5,1.133 13.5,1.13 L 120.065,1.077 c 6.994,0 12.668,2.629 12.67,5.88 z"
       id="path2330"
       inkscape:connector-curvature="0"
       style="fill:#e9e9fd" />
    <path
       d="m 132.316,56.248 c 0,3.239 -5.649,5.868 -12.618,5.871 L 13.512,62.171 c -6.969,0 -12.62,-2.62 -12.622,-5.858 L 0.86,6.974 c 0,-3.24 5.646,-5.868 12.615,-5.872 L 119.661,1.05 c 6.969,0 12.623,2.619 12.625,5.859 z"
       id="path2332"
       inkscape:connector-curvature="0"
       style="fill:#e8e8fd" />
    <path
       d="m 131.868,56.024 c 0,3.227 -5.628,5.846 -12.573,5.85 L 13.488,61.926 C 6.545,61.929 0.914,59.315 0.912,56.088 L 0.882,6.925 c 0,-3.228 5.626,-5.847 12.569,-5.85 L 119.258,1.023 c 6.945,0 12.578,2.61 12.58,5.838 z"
       id="path2334"
       inkscape:connector-curvature="0"
       style="fill:#e7e7fd" />
    <path
       d="m 131.421,55.8 c 0,3.216 -5.609,5.826 -12.528,5.829 L 13.465,61.68 C 6.547,61.68 0.936,59.08 0.934,55.863 L 0.9,6.877 C 0.9,3.66 6.51,1.051 13.428,1.047 L 118.856,1 c 6.919,0 12.533,2.6 12.535,5.818 z"
       id="path2336"
       inkscape:connector-curvature="0"
       style="fill:#e7e7fd" />
    <path
       d="m 130.973,55.575 c 0,3.2 -5.588,5.805 -12.483,5.808 L 13.442,61.435 c -6.894,0 -12.484,-2.592 -12.486,-5.8 L 0.926,6.828 c 0,-3.2 5.585,-5.805 12.479,-5.808 L 118.454,0.968 c 6.894,0 12.487,2.591 12.489,5.8 z"
       id="path2338"
       inkscape:connector-curvature="0"
       style="fill:#e6e6fd" />
    <path
       d="m 130.526,55.35 c 0,3.193 -5.568,5.784 -12.438,5.788 L 13.419,61.189 C 6.55,61.192 0.98,58.606 0.978,55.414 L 0.948,6.78 C 0.946,3.586 6.513,1 13.382,0.992 L 118.051,0.941 c 6.87,0 12.443,2.582 12.445,5.775 z"
       id="path2340"
       inkscape:connector-curvature="0"
       style="fill:#e5e5fd" />
    <path
       d="m 130.078,55.126 c 0,3.181 -5.548,5.763 -12.393,5.766 L 13.4,60.943 C 6.552,60.947 1,58.37 1,55.189 L 0.97,6.732 C 0.968,3.55 6.515,0.968 13.359,0.965 l 104.29,-0.051 c 6.845,0 12.4,2.572 12.4,5.754 z"
       id="path2342"
       inkscape:connector-curvature="0"
       style="fill:#e4e4fd" />
    <path
       d="m 129.631,54.9 c 0,3.169 -5.528,5.741 -12.348,5.745 L 13.372,60.7 C 6.554,60.7 1.023,58.136 1.021,54.967 L 0.992,6.683 C 0.99,3.513 6.517,0.941 13.336,0.937 L 117.246,0.886 C 124.067,0.883 129.6,3.45 129.6,6.62 Z"
       id="path2344"
       inkscape:connector-curvature="0"
       style="fill:#e3e3fd" />
    <path
       d="m 129.183,54.677 c 0,3.158 -5.507,5.721 -12.3,5.724 L 13.352,60.452 c -6.794,0 -12.3,-2.554 -12.306,-5.712 L 1.017,6.64 c 0,-3.159 5.505,-5.722 12.3,-5.725 L 116.844,0.859 c 6.8,0 12.308,2.554 12.31,5.713 z"
       id="path2346"
       inkscape:connector-curvature="0"
       style="fill:#e2e2fd" />
    <path
       d="m 128.736,54.453 c 0,3.146 -5.487,5.7 -12.258,5.7 L 13.326,60.204 C 6.557,60.204 1.067,57.659 1.065,54.512 L 1.036,6.586 c 0,-3.147 5.485,-5.7 12.253,-5.7 L 116.442,0.832 c 6.77,0 12.262,2.544 12.264,5.692 z"
       id="path2348"
       inkscape:connector-curvature="0"
       style="fill:#e1e1fd" />
    <path
       d="m 128.288,54.228 c 0,3.135 -5.467,5.679 -12.213,5.683 L 13.3,59.961 c -6.743,0 -12.213,-2.536 -12.215,-5.67 L 1.058,6.538 C 1.056,3.4 6.523,0.858 13.266,0.855 L 116.039,0.8 c 6.746,0 12.218,2.536 12.22,5.671 z"
       id="path2350"
       inkscape:connector-curvature="0"
       style="fill:#e1e1fd" />
    <path
       d="m 127.841,54 c 0,3.123 -5.447,5.658 -12.168,5.661 L 13.279,59.712 c -6.718,0 -12.168,-2.527 -12.17,-5.65 L 1.08,6.489 C 1.078,3.365 6.525,0.831 13.243,0.827 l 102.394,-0.05 c 6.721,0 12.173,2.526 12.175,5.65 z"
       id="path2352"
       inkscape:connector-curvature="0"
       style="fill:#e0e0fd" />
    <path
       d="m 127.393,53.779 c 0,3.112 -5.426,5.638 -12.123,5.641 L 13.256,59.47 C 6.562,59.47 1.133,56.953 1.131,53.841 L 1.1,6.441 C 1.1,3.328 6.527,0.8 13.22,0.8 L 115.234,0.75 c 6.7,0 12.128,2.516 12.13,5.629 z"
       id="path2354"
       inkscape:connector-curvature="0"
       style="fill:#dfdffd" />
    <path
       d="m 126.946,53.555 c 0,3.1 -5.407,5.616 -12.078,5.619 L 13.232,59.224 C 6.564,59.224 1.155,56.717 1.153,53.617 L 1.124,6.392 c 0,-3.1 5.4,-5.616 12.073,-5.62 l 101.635,-0.05 c 6.672,0 12.083,2.508 12.085,5.609 z"
       id="path2356"
       inkscape:connector-curvature="0"
       style="fill:#dedefd" />
    <path
       d="m 126.5,53.33 c 0,3.089 -5.386,5.6 -12.033,5.6 L 13.211,58.98 C 6.568,58.98 1.178,56.48 1.177,53.393 L 1.146,6.344 c 0,-3.089 5.384,-5.6 12.028,-5.6 L 114.43,0.7 c 6.647,0 12.037,2.5 12.039,5.587 z"
       id="path2358"
       inkscape:connector-curvature="0"
       style="fill:#ddddfd" />
    <path
       d="m 126.05,53.106 c 0,3.077 -5.365,5.574 -11.987,5.578 L 13.186,58.733 c -6.618,0 -11.988,-2.489 -11.99,-5.566 L 1.168,6.3 C 1.166,3.218 6.532,0.721 13.151,0.717 L 114.027,0.668 c 6.622,0 11.993,2.488 12,5.566 z"
       id="path2360"
       inkscape:connector-curvature="0"
       style="fill:#dcdcfd" />
    <path
       d="m 125.6,52.881 c 0,3.066 -5.345,5.554 -11.943,5.557 l -100.5,0.05 c -6.594,0 -11.943,-2.48 -11.945,-5.546 L 1.19,6.247 C 1.188,3.181 6.534,0.693 13.127,0.69 l 100.5,-0.049 c 6.6,0 11.948,2.479 11.95,5.545 z"
       id="path2362"
       inkscape:connector-curvature="0"
       style="fill:#dcdcfd" />
    <path
       d="m 125.155,52.657 c 0,3.054 -5.325,5.533 -11.9,5.536 L 13.136,58.242 c -6.568,0 -11.9,-2.47 -11.9,-5.524 L 1.212,6.2 C 1.21,3.144 6.536,0.666 13.1,0.662 L 113.223,0.613 c 6.572,0 11.9,2.47 11.9,5.525 z"
       id="path2364"
       inkscape:connector-curvature="0"
       style="fill:#dbdbfc" />
    <path
       d="m 124.708,52.432 c 0,3.043 -5.3,5.512 -11.853,5.516 L 13.116,58 C 6.573,58 1.264,55.54 1.262,52.5 L 1.234,6.15 c 0,-3.043 5.3,-5.512 11.847,-5.515 L 112.82,0.586 c 6.548,0 11.858,2.461 11.86,5.5 z"
       id="path2366"
       inkscape:connector-curvature="0"
       style="fill:#dadafc" />
    <path
       d="m 124.26,52.208 c 0,3.031 -5.284,5.491 -11.807,5.494 l -99.36,0.049 C 6.575,57.751 1.286,55.3 1.284,52.268 L 1.256,6.1 C 1.254,3.07 6.54,0.611 13.058,0.608 l 99.36,-0.049 c 6.523,0 11.812,2.451 11.814,5.482 z"
       id="path2368"
       inkscape:connector-curvature="0"
       style="fill:#d9d9fc" />
    <path
       d="m 123.813,51.984 c 0,3.019 -5.265,5.47 -11.763,5.473 L 13.07,57.505 C 6.576,57.505 1.308,55.063 1.306,52.044 L 1.278,6.053 c 0,-3.02 5.264,-5.47 11.757,-5.473 l 98.98,-0.049 c 6.5,0 11.768,2.442 11.77,5.462 z"
       id="path2370"
       inkscape:connector-curvature="0"
       style="fill:#d8d8fc" />
    <path
       d="m 123.365,51.759 c 0,3.008 -5.244,5.449 -11.717,5.452 l -98.6,0.049 C 6.58,57.26 1.332,54.827 1.33,51.819 L 1.3,6.005 C 1.3,3 6.544,0.556 13.012,0.553 L 111.613,0.5 c 6.474,0 11.723,2.433 11.725,5.441 z"
       id="path2372"
       inkscape:connector-curvature="0"
       style="fill:#d7d7fc" />
    <path
       d="m 122.918,51.535 c 0,3 -5.224,5.428 -11.673,5.431 L 13.023,57.014 C 6.58,57.014 1.351,54.591 1.35,51.594 L 1.322,5.957 c 0,-3 5.223,-5.429 11.667,-5.432 l 98.222,-0.048 c 6.448,0 11.677,2.423 11.679,5.42 z"
       id="path2374"
       inkscape:connector-curvature="0"
       style="fill:#d7d7fc" />
    <path
       d="m 122.47,51.31 c 0,2.985 -5.2,5.407 -11.627,5.411 L 13,56.769 c -6.418,0 -11.627,-2.414 -11.629,-5.4 L 1.344,5.908 C 1.342,2.923 6.547,0.5 12.966,0.5 l 97.842,-0.05 c 6.424,0 11.633,2.413 11.635,5.4 z"
       id="path2376"
       inkscape:connector-curvature="0"
       style="fill:#d6d6fc" />
    <path
       d="m 122.023,51.086 c 0,2.973 -5.184,5.386 -11.583,5.389 l -97.463,0.048 c -6.394,0 -11.582,-2.4 -11.584,-5.378 L 1.366,5.86 C 1.364,2.886 6.549,0.473 12.942,0.47 l 97.464,-0.048 c 6.4,0 11.588,2.4 11.589,5.378 z"
       id="path2378"
       inkscape:connector-curvature="0"
       style="fill:#d5d5fc" />
    <path
       d="m 121.575,50.861 c 0,2.962 -5.163,5.366 -11.537,5.369 l -97.085,0.047 c -6.368,0 -11.536,-2.4 -11.538,-5.357 L 1.388,5.811 C 1.386,2.849 6.551,0.446 12.919,0.443 L 110,0.4 c 6.374,0 11.542,2.4 11.544,5.357 z"
       id="path2380"
       inkscape:connector-curvature="0"
       style="fill:#d4d4fc" />
  </g>
  <rect
     x="0.226"
     y="0.264"
     width="139.464"
     height="63.604"
     rx="5.0450001"
     id="rect2384"
     style="isolation:isolate;fill:url(#Unbenannter_Verlauf_21)" />
  <g
     style="isolation:isolate;mix-blend-mode:multiply"
     id="g2490">
    <path
       d="m 143.606,60.519 c 0,3.473 -6.123,6.294 -13.672,6.3 L 14.863,66.877 C 7.308,66.877 1.186,64.065 1.184,60.593 L 1.152,7.654 c 0,-3.476 6.117,-6.295 13.672,-6.3 L 129.9,1.3 c 7.549,0 13.677,2.81 13.679,6.286 z"
       id="path2386"
       inkscape:connector-curvature="0"
       style="fill:#ffffff" />
    <path
       d="m 143.155,60.317 c 0,3.462 -6.1,6.274 -13.628,6.278 l -114.7,0.057 C 7.3,66.656 1.2,63.85 1.2,60.388 L 1.165,7.624 c 0,-3.464 6.1,-6.275 13.627,-6.279 l 114.7,-0.057 c 7.525,0 13.633,2.8 13.635,6.265 z"
       id="path2388"
       inkscape:connector-curvature="0"
       style="fill:#fefeff" />
    <path
       d="m 142.7,60.115 c 0,3.45 -6.082,6.253 -13.583,6.257 L 14.8,66.429 C 7.294,66.429 1.212,63.636 1.21,60.186 L 1.178,7.594 C 1.178,4.141 7.254,1.34 14.76,1.336 L 129.082,1.279 c 7.5,0 13.588,2.791 13.59,6.245 z"
       id="path2390"
       inkscape:connector-curvature="0"
       style="fill:#fdfdff" />
    <path
       d="m 142.252,59.913 c 0,3.439 -6.063,6.233 -13.538,6.236 L 14.767,66.207 C 7.286,66.207 1.224,63.423 1.222,59.984 L 1.19,7.565 C 1.19,4.123 7.247,1.331 14.728,1.327 L 128.675,1.27 c 7.476,0 13.544,2.782 13.546,6.224 z"
       id="path2392"
       inkscape:connector-curvature="0"
       style="fill:#fcfcff" />
    <path
       d="m 141.8,59.711 c 0,3.428 -6.043,6.212 -13.494,6.216 L 14.734,65.984 c -7.456,0 -13.5,-2.775 -13.5,-6.2 L 1.2,7.535 C 1.2,4.1 7.24,1.321 14.7,1.317 L 128.271,1.261 c 7.452,0 13.5,2.773 13.5,6.2 z"
       id="path2394"
       inkscape:connector-curvature="0"
       style="fill:#fcfcff" />
    <path
       d="m 141.349,59.509 c 0,3.416 -6.022,6.192 -13.449,6.195 L 14.7,65.761 C 7.271,65.765 1.249,63 1.247,59.579 L 1.216,7.505 c 0,-3.419 6.017,-6.193 13.449,-6.2 l 113.2,-0.057 c 7.427,0 13.455,2.765 13.457,6.184 z"
       id="path2396"
       inkscape:connector-curvature="0"
       style="fill:#fbfbff" />
    <path
       d="m 140.9,59.307 c 0,3.405 -6,6.171 -13.4,6.175 L 14.678,65.538 c -7.407,0 -13.41,-2.756 -13.412,-6.161 l -0.03,-51.9 c 0,-3.408 6,-6.173 13.4,-6.176 L 127.458,1.244 c 7.4,0 13.41,2.755 13.412,6.163 z"
       id="path2398"
       inkscape:connector-curvature="0"
       style="fill:#fafaff" />
    <path
       d="m 140.447,59.105 c 0,3.394 -5.983,6.151 -13.361,6.154 L 14.639,65.316 C 7.257,65.316 1.274,62.568 1.272,59.175 L 1.241,7.445 c 0,-3.4 5.978,-6.152 13.36,-6.156 L 127.048,1.233 c 7.378,0 13.366,2.746 13.368,6.142 z"
       id="path2400"
       inkscape:connector-curvature="0"
       style="fill:#f9f9ff" />
    <path
       d="m 140,58.9 c 0,3.382 -5.962,6.13 -13.316,6.134 L 14.612,65.09 C 7.254,65.09 1.292,62.352 1.29,58.969 L 1.254,7.415 C 1.254,4.03 7.211,1.284 14.569,1.28 L 126.641,1.224 c 7.354,0 13.322,2.737 13.324,6.122 z"
       id="path2402"
       inkscape:connector-curvature="0"
       style="fill:#f8f8ff" />
    <path
       d="m 139.544,58.7 c 0,3.371 -5.943,6.109 -13.272,6.113 l -111.7,0.056 c -7.333,0 -13.276,-2.729 -13.278,-6.1 L 1.267,7.386 c 0,-3.374 5.937,-6.112 13.27,-6.115 l 111.7,-0.056 c 7.328,0 13.276,2.727 13.278,6.1 z"
       id="path2404"
       inkscape:connector-curvature="0"
       style="fill:#f7f7fe" />
    <path
       d="m 139.093,58.5 c 0,3.36 -5.923,6.089 -13.227,6.093 L 14.543,64.648 C 7.235,64.648 1.312,61.929 1.31,58.569 L 1.279,7.356 c 0,-3.363 5.918,-6.091 13.226,-6.095 L 125.828,1.206 c 7.3,0 13.232,2.718 13.234,6.081 z"
       id="path2406"
       inkscape:connector-curvature="0"
       style="fill:#f7f7fe" />
    <path
       d="m 138.641,58.3 c 0,3.349 -5.9,6.069 -13.182,6.073 L 14.511,64.429 c -7.283,0 -13.187,-2.711 -13.189,-6.06 L 1.292,7.326 c 0,-3.351 5.9,-6.07 13.181,-6.074 L 125.421,1.2 c 7.28,0 13.188,2.71 13.19,6.061 z"
       id="path2408"
       inkscape:connector-curvature="0"
       style="fill:#f6f6fe" />
    <path
       d="m 138.19,58.094 c 0,3.338 -5.883,6.049 -13.138,6.052 L 14.479,64.2 C 7.22,64.2 1.337,61.5 1.335,58.161 L 1.305,7.3 c 0,-3.34 5.878,-6.05 13.136,-6.053 L 125.014,1.191 c 7.256,0 13.144,2.7 13.146,6.04 z"
       id="path2410"
       inkscape:connector-curvature="0"
       style="fill:#f5f5fe" />
    <path
       d="m 137.739,57.892 c 0,3.327 -5.863,6.028 -13.094,6.032 l -110.2,0.055 c -7.234,0 -13.1,-2.692 -13.1,-6.018 L 1.317,7.266 c 0,-3.328 5.859,-6.029 13.093,-6.033 l 110.2,-0.055 c 7.231,0 13.1,2.691 13.1,6.02 z"
       id="path2412"
       inkscape:connector-curvature="0"
       style="fill:#f4f4fe" />
    <path
       d="m 137.287,57.69 c 0,3.315 -5.842,6.008 -13.049,6.011 L 14.415,63.756 c -7.209,0 -13.053,-2.683 -13.055,-6 L 1.33,7.236 C 1.33,3.919 7.168,1.228 14.378,1.224 L 124.2,1.169 c 7.206,0 13.054,2.682 13.056,6 z"
       id="path2414"
       inkscape:connector-curvature="0"
       style="fill:#f3f3fe" />
    <path
       d="m 136.836,57.488 c 0,3.3 -5.823,5.987 -13.005,5.991 L 14.383,63.534 C 7.198,63.534 1.375,60.86 1.373,57.556 L 1.343,7.207 c 0,-3.306 5.818,-5.989 13,-5.992 L 123.794,1.16 c 7.182,0 13.01,2.673 13.012,5.979 z"
       id="path2416"
       inkscape:connector-curvature="0"
       style="fill:#f2f2fe" />
    <path
       d="m 136.385,57.286 c 0,3.293 -5.8,5.967 -12.961,5.97 L 14.351,63.311 c -7.16,0 -12.964,-2.665 -12.966,-5.957 L 1.355,7.177 c 0,-3.295 5.8,-5.968 12.959,-5.972 L 123.387,1.151 c 7.158,0 12.966,2.663 12.968,5.958 z"
       id="path2418"
       inkscape:connector-curvature="0"
       style="fill:#f2f2fe" />
    <path
       d="m 135.933,57.084 c 0,3.281 -5.782,5.946 -12.915,5.95 l -108.7,0.054 C 7.184,63.092 1.4,60.433 1.4,57.151 l -0.03,-50 C 1.366,3.863 7.147,1.2 14.282,1.2 l 108.7,-0.054 c 7.133,0 12.921,2.654 12.923,5.937 z"
       id="path2420"
       inkscape:connector-curvature="0"
       style="fill:#f1f1fe" />
    <path
       d="m 135.482,56.882 c 0,3.27 -5.763,5.926 -12.871,5.929 L 14.287,62.865 c -7.11,0 -12.874,-2.646 -12.876,-5.916 L 1.381,7.117 C 1.381,3.845 7.14,1.19 14.25,1.187 L 122.574,1.132 c 7.108,0 12.876,2.646 12.878,5.918 z"
       id="path2422"
       inkscape:connector-curvature="0"
       style="fill:#f0f0fe" />
    <path
       d="m 135.031,56.68 c 0,3.259 -5.743,5.905 -12.827,5.909 L 14.255,62.643 c -7.086,0 -12.83,-2.637 -12.832,-5.9 L 1.394,7.087 c 0,-3.261 5.739,-5.906 12.824,-5.91 L 122.167,1.123 C 129.251,1.12 135,3.759 135,7.02 Z"
       id="path2424"
       inkscape:connector-curvature="0"
       style="fill:#efeffe" />
    <path
       d="m 134.579,56.478 c 0,3.247 -5.722,5.884 -12.782,5.888 L 14.223,62.42 C 7.162,62.42 1.438,59.792 1.436,56.544 L 1.406,7.057 c 0,-3.249 5.719,-5.885 12.78,-5.889 L 121.761,1.114 c 7.059,0 12.787,2.627 12.789,5.877 z"
       id="path2426"
       inkscape:connector-curvature="0"
       style="fill:#eeeefe" />
    <path
       d="m 134.128,56.276 c 0,3.236 -5.7,5.864 -12.738,5.867 L 14.19,62.197 C 7.154,62.197 1.449,59.578 1.447,56.342 L 1.419,7.027 c 0,-3.238 5.7,-5.865 12.735,-5.868 l 107.2,-0.054 c 7.035,0 12.743,2.618 12.745,5.856 z"
       id="path2428"
       inkscape:connector-curvature="0"
       style="fill:#ededfe" />
    <path
       d="m 133.677,56.074 c 0,3.225 -5.683,5.843 -12.694,5.847 L 14.159,61.974 c -7.012,0 -12.7,-2.609 -12.7,-5.834 L 1.432,7 c 0,-3.227 5.679,-5.845 12.69,-5.849 L 120.947,1.1 c 7.011,0 12.7,2.609 12.7,5.835 z"
       id="path2430"
       inkscape:connector-curvature="0"
       style="fill:#ececfe" />
    <path
       d="m 133.225,55.871 c 0,3.214 -5.663,5.824 -12.648,5.827 l -106.45,0.054 c -6.987,0 -12.652,-2.6 -12.653,-5.814 L 1.444,6.968 c 0,-3.216 5.66,-5.824 12.647,-5.828 L 120.54,1.087 c 6.986,0 12.654,2.6 12.656,5.815 z"
       id="path2432"
       inkscape:connector-curvature="0"
       style="fill:#ececfe" />
    <path
       d="m 132.774,55.669 c 0,3.2 -5.643,5.8 -12.6,5.807 L 14.1,61.529 C 7.138,61.529 1.493,58.938 1.491,55.735 L 1.462,6.935 c 0,-3.2 5.64,-5.8 12.6,-5.807 L 120.137,1.075 c 6.961,0 12.609,2.59 12.611,5.794 z"
       id="path2434"
       inkscape:connector-curvature="0"
       style="fill:#ebebfe" />
    <path
       d="m 132.323,55.467 c 0,3.192 -5.623,5.783 -12.56,5.786 l -105.7,0.053 C 7.126,61.31 1.5,58.724 1.5,55.533 L 1.47,6.908 c 0,-3.193 5.62,-5.783 12.557,-5.787 l 105.7,-0.053 c 6.937,0 12.565,2.582 12.567,5.775 z"
       id="path2436"
       inkscape:connector-curvature="0"
       style="fill:#eaeafe" />
    <path
       d="m 131.871,55.265 c 0,3.18 -5.6,5.762 -12.515,5.766 L 14.031,61.083 c -6.913,0 -12.518,-2.572 -12.52,-5.752 L 1.482,6.878 C 1.481,3.7 7.082,1.116 14,1.112 L 119.32,1.059 c 6.913,0 12.521,2.572 12.523,5.754 z"
       id="path2438"
       inkscape:connector-curvature="0"
       style="fill:#e9e9fd" />
    <path
       d="m 131.42,55.063 c 0,3.169 -5.583,5.742 -12.471,5.745 L 14,60.861 C 7.112,60.861 1.527,58.297 1.525,55.128 L 1.5,6.848 C 1.5,3.678 7.08,1.106 13.968,1.103 L 118.914,1.05 c 6.888,0 12.476,2.563 12.477,5.733 z"
       id="path2440"
       inkscape:connector-curvature="0"
       style="fill:#e8e8fd" />
    <path
       d="m 130.969,54.861 c 0,3.158 -5.563,5.721 -12.427,5.725 L 13.967,60.638 c -6.863,0 -12.429,-2.555 -12.43,-5.712 L 1.508,6.819 c 0,-3.159 5.56,-5.722 12.423,-5.726 L 118.507,1.041 c 6.863,0 12.431,2.554 12.433,5.713 z"
       id="path2442"
       inkscape:connector-curvature="0"
       style="fill:#e7e7fd" />
    <path
       d="m 130.518,54.659 c 0,3.146 -5.544,5.7 -12.383,5.7 l -104.2,0.052 C 7.096,60.411 1.551,57.866 1.549,54.72 L 1.521,6.789 c 0,-3.148 5.54,-5.7 12.378,-5.7 l 104.2,-0.052 c 6.839,0 12.387,2.545 12.389,5.692 z"
       id="path2444"
       inkscape:connector-curvature="0"
       style="fill:#e7e7fd" />
    <path
       d="m 130.066,54.457 c 0,3.135 -5.523,5.68 -12.337,5.683 L 13.9,60.192 C 7.087,60.192 1.562,57.656 1.56,54.521 L 1.533,6.759 c 0,-3.136 5.521,-5.681 12.334,-5.684 L 117.693,1.023 c 6.815,0 12.343,2.535 12.345,5.672 z"
       id="path2446"
       inkscape:connector-curvature="0"
       style="fill:#e6e6fd" />
    <path
       d="m 129.615,54.255 c 0,3.124 -5.5,5.659 -12.293,5.663 L 13.87,59.97 C 7.082,59.97 1.576,57.443 1.57,54.319 L 1.546,6.729 c 0,-3.125 5.5,-5.66 12.289,-5.664 L 117.287,1.014 c 6.79,0 12.3,2.526 12.3,5.651 z"
       id="path2448"
       inkscape:connector-curvature="0"
       style="fill:#e5e5fd" />
    <path
       d="m 129.164,54.053 c 0,3.112 -5.484,5.639 -12.249,5.642 L 13.838,59.747 c -6.764,0 -12.249,-2.518 -12.251,-5.63 L 1.559,6.7 C 1.557,3.586 7.04,1.06 13.8,1.056 L 116.88,1 c 6.765,0 12.253,2.518 12.255,5.631 z"
       id="path2450"
       inkscape:connector-curvature="0"
       style="fill:#e4e4fd" />
    <path
       d="m 128.712,53.851 c 0,3.1 -5.463,5.618 -12.2,5.622 l -102.7,0.051 c -6.739,0 -12.2,-2.508 -12.206,-5.61 L 1.571,6.669 c 0,-3.1 5.461,-5.619 12.2,-5.622 L 116.473,1 c 6.741,0 12.209,2.508 12.211,5.611 z"
       id="path2452"
       inkscape:connector-curvature="0"
       style="fill:#e3e3fd" />
    <path
       d="m 128.261,53.649 c 0,3.09 -5.443,5.6 -12.16,5.6 L 13.774,59.3 C 7.06,59.3 1.614,56.8 1.612,53.711 L 1.584,6.64 c 0,-3.091 5.441,-5.6 12.156,-5.6 L 116.066,0.986 c 6.717,0 12.165,2.5 12.167,5.59 z"
       id="path2454"
       inkscape:connector-curvature="0"
       style="fill:#e2e2fd" />
    <path
       d="m 127.81,53.446 c 0,3.079 -5.424,5.578 -12.116,5.582 L 13.742,59.079 C 7.053,59.079 1.627,56.588 1.625,53.51 L 1.6,6.61 C 1.6,3.53 7.021,1.031 13.711,1.028 L 115.66,0.977 c 6.692,0 12.12,2.49 12.122,5.569 z"
       id="path2456"
       inkscape:connector-curvature="0"
       style="fill:#e1e1fd" />
    <path
       d="m 127.358,53.244 c 0,3.068 -5.4,5.558 -12.071,5.561 L 13.71,58.856 C 7.045,58.856 1.639,56.375 1.637,53.307 L 1.609,6.58 c 0,-3.068 5.4,-5.558 12.067,-5.561 L 115.253,0.968 c 6.668,0 12.076,2.481 12.077,5.549 z"
       id="path2458"
       inkscape:connector-curvature="0"
       style="fill:#e1e1fd" />
    <path
       d="m 126.907,53.042 c 0,3.056 -5.383,5.537 -12.026,5.541 l -101.2,0.05 c -6.64,0 -12.026,-2.472 -12.028,-5.528 L 1.622,6.55 C 1.62,3.493 7,1.013 13.644,1.009 l 101.2,-0.05 c 6.643,0 12.031,2.471 12.033,5.528 z"
       id="path2460"
       inkscape:connector-curvature="0"
       style="fill:#e0e0fd" />
    <path
       d="m 126.456,52.84 c 0,3.045 -5.364,5.517 -11.982,5.52 L 13.646,58.41 C 7.031,58.41 1.664,55.948 1.663,52.903 L 1.635,6.52 C 1.633,3.475 7,1 13.612,1 L 114.44,0.95 c 6.618,0 11.986,2.462 11.988,5.508 z"
       id="path2462"
       inkscape:connector-curvature="0"
       style="fill:#dfdffd" />
    <path
       d="m 126,52.638 c 0,3.034 -5.343,5.5 -11.937,5.5 L 13.61,58.189 C 7.019,58.189 1.673,55.735 1.671,52.701 L 1.648,6.49 c 0,-3.034 5.341,-5.5 11.932,-5.5 L 114.033,0.94 c 6.594,0 11.942,2.454 11.944,5.488 z"
       id="path2464"
       inkscape:connector-curvature="0"
       style="fill:#dedefd" />
    <path
       d="m 125.553,52.436 c 0,3.022 -5.323,5.476 -11.893,5.479 L 13.582,57.965 C 7.016,57.965 1.689,55.521 1.688,52.498 L 1.66,6.461 c 0,-3.024 5.322,-5.476 11.888,-5.48 l 100.078,-0.05 c 6.57,0 11.9,2.444 11.9,5.467 z"
       id="path2466"
       inkscape:connector-curvature="0"
       style="fill:#ddddfd" />
    <path
       d="m 125.1,52.234 c 0,3.011 -5.3,5.455 -11.849,5.458 l -99.7,0.05 C 7.009,57.746 1.7,55.307 1.7,52.3 L 1.673,6.431 c 0,-3.012 5.3,-5.456 11.843,-5.459 l 99.7,-0.05 c 6.545,0 11.853,2.435 11.855,5.447 z"
       id="path2468"
       inkscape:connector-curvature="0"
       style="fill:#dcdcfd" />
    <path
       d="m 124.65,52.032 c 0,3 -5.283,5.434 -11.8,5.438 l -99.328,0.049 c -6.516,0 -11.8,-2.426 -11.8,-5.425 L 1.686,6.4 c 0,-3 5.282,-5.435 11.8,-5.438 l 99.328,-0.05 c 6.52,0 11.808,2.426 11.81,5.426 z"
       id="path2470"
       inkscape:connector-curvature="0"
       style="fill:#dcdcfd" />
    <path
       d="m 124.2,51.83 c 0,2.988 -5.263,5.414 -11.76,5.417 l -98.953,0.05 C 6.995,57.297 1.728,54.88 1.726,51.891 L 1.7,6.371 C 1.7,3.382 6.961,0.957 13.453,0.953 L 112.406,0.9 c 6.5,0 11.764,2.417 11.766,5.406 z"
       id="path2472"
       inkscape:connector-curvature="0"
       style="fill:#dbdbfc" />
    <path
       d="m 123.748,51.628 c 0,2.977 -5.244,5.393 -11.715,5.4 L 13.454,57.077 C 6.987,57.077 1.74,54.669 1.738,51.692 L 1.711,6.341 c 0,-2.978 5.243,-5.394 11.71,-5.4 L 112,0.9 c 6.472,0 11.72,2.407 11.722,5.385 z"
       id="path2474"
       inkscape:connector-curvature="0"
       style="fill:#dadafc" />
    <path
       d="m 123.3,51.426 c 0,2.966 -5.223,5.373 -11.67,5.376 l -98.2,0.049 c -6.442,0 -11.67,-2.4 -11.671,-5.364 L 1.724,6.311 C 1.722,3.345 6.946,0.938 13.389,0.935 l 98.2,-0.049 c 6.448,0 11.676,2.4 11.677,5.364 z"
       id="path2476"
       inkscape:connector-curvature="0"
       style="fill:#d9d9fc" />
    <path
       d="m 122.845,51.224 c 0,2.954 -5.2,5.352 -11.626,5.355 l -97.829,0.05 c -6.418,0 -11.625,-2.39 -11.627,-5.345 l -0.027,-45 c 0,-2.956 5.2,-5.353 11.621,-5.357 l 97.829,-0.051 c 6.422,0 11.63,2.39 11.632,5.345 z"
       id="path2478"
       inkscape:connector-curvature="0"
       style="fill:#d8d8fc" />
    <path
       d="m 122.394,51.022 c 0,2.943 -5.184,5.332 -11.582,5.335 l -97.454,0.049 c -6.393,0 -11.58,-2.38 -11.582,-5.324 L 1.749,6.252 C 1.747,3.308 6.932,0.919 13.325,0.916 l 97.454,-0.049 c 6.4,0 11.586,2.38 11.588,5.324 z"
       id="path2480"
       inkscape:connector-curvature="0"
       style="fill:#d7d7fc" />
    <path
       d="m 121.942,50.819 c 0,2.933 -5.163,5.312 -11.537,5.315 l -97.079,0.049 c -6.368,0 -11.536,-2.371 -11.538,-5.3 L 1.762,6.222 C 1.76,3.289 6.925,0.91 13.293,0.907 l 97.079,-0.049 c 6.374,0 11.542,2.371 11.544,5.3 z"
       id="path2482"
       inkscape:connector-curvature="0"
       style="fill:#d7d7fc" />
    <path
       d="m 121.491,50.617 c 0,2.921 -5.143,5.292 -11.493,5.3 l -96.7,0.048 C 6.951,55.963 1.8,53.6 1.8,50.677 L 1.775,6.192 C 1.773,3.271 6.918,0.9 13.261,0.9 l 96.705,-0.051 c 6.349,0 11.5,2.362 11.5,5.283 z"
       id="path2484"
       inkscape:connector-curvature="0"
       style="fill:#d6d6fc" />
    <path
       d="m 121.04,50.415 c 0,2.91 -5.124,5.271 -11.448,5.274 l -96.33,0.049 C 6.943,55.738 1.815,53.385 1.814,50.475 L 1.787,6.162 c 0,-2.91 5.124,-5.271 11.442,-5.274 l 96.33,-0.048 c 6.325,0 11.453,2.352 11.454,5.262 z"
       id="path2486"
       inkscape:connector-curvature="0"
       style="fill:#d5d5fc" />
    <path
       d="m 120.588,50.213 c 0,2.9 -5.1,5.251 -11.4,5.254 l -95.955,0.048 c -6.294,0 -11.4,-2.344 -11.4,-5.242 L 1.8,6.132 c 0,-2.9 5.1,-5.25 11.4,-5.253 l 95.952,-0.048 c 6.3,0 11.408,2.343 11.41,5.242 z"
       id="path2488"
       inkscape:connector-curvature="0"
       style="fill:#d4d4fc" />
  </g>
  <rect
     x="0.60900003"
     y="0.61000001"
     width="138.698"
     height="62.911999"
     rx="5.0040002"
     id="rect2492"
     style="isolation:isolate;fill:url(#Unbenannter_Verlauf_23)" />
  <rect
     width="144.51199"
     height="69.714996"
     id="rect2494"
     x="0"
     y="0"
     style="opacity:0;isolation:isolate;fill:none" />
  <path
     d="M 80.666,32.653 A 11.844,11.844 0 1 1 68.973,20.8 11.753,11.753 0 0 1 80.666,32.653 Z"
     id="path2496"
     inkscape:connector-curvature="0"
     style="isolation:isolate;fill:#ffffff" />
  <path
     d="M 79.632,32.6 A 10.809,10.809 0 1 1 68.859,21.835 10.733,10.733 0 0 1 79.632,32.6 Z"
     id="path2498"
     style="isolation:isolate;fill:url(#Unbenannter_Verlauf_18)"
     inkscape:connector-curvature="0" />
  <path
     d="m 72.88,32.567 c -0.035,0.479 -0.4,0.491 -0.746,0.531 -0.884,0.1 -2.057,-0.405 -2.579,0.262 -0.429,0.548 -0.142,1.643 -0.187,2.495 -0.019,0.349 -0.065,0.731 -0.537,0.734 -0.5,0 -0.455,-0.409 -0.493,-0.742 -0.1,-0.878 0.4,-2 -0.26,-2.579 -0.586,-0.519 -1.663,-0.1 -2.52,-0.169 -0.341,-0.027 -0.752,-0.01 -0.774,-0.485 -0.027,-0.6 0.468,-0.492 0.831,-0.53 0.85,-0.089 1.91,0.362 2.5,-0.206 0.59,-0.568 0.126,-1.635 0.222,-2.476 0.04,-0.359 -0.082,-0.865 0.512,-0.843 0.547,0.02 0.484,0.5 0.525,0.874 0.094,0.839 -0.385,1.912 0.23,2.466 0.6,0.537 1.659,0.109 2.513,0.184 0.338,0.03 0.722,-0.005 0.763,0.484 z"
     id="path2500"
     inkscape:connector-curvature="0"
     style="isolation:isolate;fill:#ffffff" />
</svg>
