<?xml version="1.0" encoding="UTF-8" standalone="no"?>
<svg
   xmlns:dc="http://purl.org/dc/elements/1.1/"
   xmlns:cc="http://creativecommons.org/ns#"
   xmlns:rdf="http://www.w3.org/1999/02/22-rdf-syntax-ns#"
   xmlns:svg="http://www.w3.org/2000/svg"
   xmlns="http://www.w3.org/2000/svg"
   xmlns:xlink="http://www.w3.org/1999/xlink"
   xmlns:sodipodi="http://sodipodi.sourceforge.net/DTD/sodipodi-0.dtd"
   xmlns:inkscape="http://www.inkscape.org/namespaces/inkscape"
   id="svg1438"
   version="1.1"
   viewBox="0 0 54.24 50.16"
   sodipodi:docname="A6_box.svg"
   inkscape:version="0.92.4 (5da689c313, 2019-01-14)">
  <sodipodi:namedview
     pagecolor="#ffffff"
     bordercolor="#666666"
     borderopacity="1"
     objecttolerance="10"
     gridtolerance="10"
     guidetolerance="10"
     inkscape:pageopacity="0"
     inkscape:pageshadow="2"
     inkscape:window-width="902"
     inkscape:window-height="599"
     id="namedview953"
     showgrid="false"
     inkscape:zoom="1"
     inkscape:cx="38.848094"
     inkscape:cy="25.08"
     inkscape:window-x="2511"
     inkscape:window-y="190"
     inkscape:window-maximized="0"
     inkscape:current-layer="svg1438" />
  <metadata
     id="metadata1442">
    <rdf:RDF>
      <cc:Work
         rdf:about="">
        <dc:format>image/svg+xml</dc:format>
        <dc:type
           rdf:resource="http://purl.org/dc/dcmitype/StillImage" />
        <dc:title>Element 28</dc:title>
      </cc:Work>
    </rdf:RDF>
  </metadata>
  <defs
     id="defs1310">
    <linearGradient
       gradientUnits="userSpaceOnUse"
       y2="42.849998"
       x2="138.993"
       y1="21.587"
       x1="2.872"
       data-name="Unbenannter Verlauf 23"
       id="linearGradient2594"
       gradientTransform="translate(93.042001,-29.906)">
      <stop
         style="stop-color:#d6e5fa;stop-opacity:1"
         id="stop2586"
         stop-color="#d6e1ff"
         offset="0" />
      <stop
         style="stop-color:#d7e5fa;stop-opacity:1"
         id="stop2588"
         stop-color="#d3dfff"
         offset="0.22878742" />
      <stop
         style="stop-color:#d9e8fb;stop-opacity:1"
         id="stop2590"
         stop-color="#c7d4ff"
         offset="0.4776983" />
      <stop
         style="stop-color:#d0dff7;stop-opacity:1"
         id="stop2592"
         stop-color="#d1dcff"
         offset="0.939" />
    </linearGradient>
    <linearGradient
       spreadMethod="pad"
       gradientUnits="userSpaceOnUse"
       y2="42.452999"
       x2="80.453003"
       y1="29.738001"
       x1="-0.94499999"
       data-name="Unbenannter Verlauf 9"
       id="linearGradient1847"
       gradientTransform="translate(60.429,-21.944501)">
      <stop
         id="stop1837"
         stop-color="#ecf1ff"
         offset="0"
         style="stop-color:#eaf2fe;stop-opacity:1" />
      <stop
         style="stop-color:#eaf2fe;stop-opacity:1"
         id="stop1839"
         stop-color="#edf2ff"
         offset="0.21998961" />
      <stop
         style="stop-color:#e0eefe;stop-opacity:1"
         id="stop1841"
         stop-color="#e8eeff"
         offset="0.45311245" />
      <stop
         style="stop-color:#d4e2f8;stop-opacity:1"
         id="stop1843"
         stop-color="#dae4ff"
         offset="0.71646994" />
      <stop
         style="stop-color:#cadcf8;stop-opacity:1"
         id="stop1845"
         stop-color="#ccd9ff"
         offset="0.983" />
    </linearGradient>
    <linearGradient
       id="linearGradient1705">
      <stop
         id="stop1701"
         offset="0"
         style="stop-color:#cfdbff;stop-opacity:0.80000001" />
      <stop
         id="stop1703"
         offset="1"
         style="stop-color:#cfdcff;stop-opacity:0.80000001" />
    </linearGradient>
    <clipPath
       transform="translate(4.36 3.16)"
       id="clip-path">
      <rect
         id="rect1304"
         fill="none"
         rx="4.676"
         height="39.293"
         width="43.528"
         y="2.297"
         x="1.042" />
    </clipPath>
    <clipPath
       transform="translate(4.36 3.16)"
       id="clip-path-2">
      <rect
         id="rect1307"
         fill="none"
         height="49.293"
         width="53.527"
         y="-2.703"
         x="-3.958" />
    </clipPath>
    <linearGradient
       gradientTransform="matrix(1,0,0,0.98752277,-45.298499,-12.927249)"
       gradientUnits="userSpaceOnUse"
       y2="41.808907"
       x2="92.109497"
       y1="36.384731"
       x1="53.529499"
       id="linearGradient1707"
       xlink:href="#linearGradient2594" />
    <linearGradient
       gradientTransform="translate(60.429,-21.944501)"
       id="Unbenannter_Verlauf_9-9"
       data-name="Unbenannter Verlauf 9"
       x1="-0.94499999"
       y1="29.738001"
       x2="80.453003"
       y2="42.452999"
       gradientUnits="userSpaceOnUse"
       spreadMethod="pad">
      <stop
         offset="0"
         stop-color="#ecf1ff"
         id="stop312" />
      <stop
         offset="0.318"
         stop-color="#edf2ff"
         id="stop314"
         style="stop-color:#eaf2fe;stop-opacity:1" />
      <stop
         offset="0.543"
         stop-color="#e8eeff"
         id="stop316"
         style="stop-color:#e0eefe;stop-opacity:1" />
      <stop
         offset="0.8"
         stop-color="#dae4ff"
         id="stop318"
         style="stop-color:#d0dff7;stop-opacity:1" />
      <stop
         offset="0.983"
         stop-color="#ccd9ff"
         id="stop320"
         style="stop-color:#cadcf8;stop-opacity:1" />
    </linearGradient>
    <linearGradient
       gradientUnits="userSpaceOnUse"
       y2="42.452999"
       x2="80.453003"
       y1="29.738001"
       x1="-0.94499999"
       data-name="Unbenannter Verlauf 9"
       id="Unbenannter_Verlauf_9">
      <stop
         id="stop1129"
         stop-color="#ecf1ff"
         offset="0" />
      <stop
         id="stop1131"
         stop-color="#edf2ff"
         offset="0.318" />
      <stop
         id="stop1133"
         stop-color="#e8eeff"
         offset="0.543" />
      <stop
         id="stop1135"
         stop-color="#dae4ff"
         offset="0.8" />
      <stop
         id="stop1137"
         stop-color="#ccd9ff"
         offset="0.983" />
    </linearGradient>
    <linearGradient
       gradientTransform="translate(-148.958,-16.906)"
       id="Unbenannter_Verlauf_23"
       data-name="Unbenannter Verlauf 23"
       x1="2.872"
       y1="21.587"
       x2="138.993"
       y2="42.849998"
       gradientUnits="userSpaceOnUse">
      <stop
         offset="0"
         stop-color="#d6e1ff"
         id="stop2250"
         style="stop-color:#ecf1ff;stop-opacity:1" />
      <stop
         offset="0.22878742"
         stop-color="#d3dfff"
         id="stop2252"
         style="stop-color:#eaf2fe;stop-opacity:1" />
      <stop
         offset="0.4776983"
         stop-color="#c7d4ff"
         id="stop2256"
         style="stop-color:#e0eefe;stop-opacity:1" />
      <stop
         offset="0.939"
         stop-color="#d1dcff"
         id="stop2258"
         style="stop-color:#d0dff7;stop-opacity:1" />
    </linearGradient>
  </defs>
  <title
     id="title1312">Element 28</title>
  <g
     id="g2652">
    <rect
       x="4.3600001"
       y="3.1600001"
       width="47"
       height="47"
       id="rect1314"
       style="isolation:isolate;fill:#ffffff" />
    <g
       style="opacity:0.5;isolation:isolate;mix-blend-mode:multiply"
       id="g1420">
      <path
         d="m 45,40.942 a 4.1,4.1 0 0 1 -4.175,4.013 L 5.689,45.009 a 4.087,4.087 0 0 1 -4.177,-4 L 1.5,7.3 A 4.1,4.1 0 0 1 5.679,3.282 L 40.815,3.227 a 4.087,4.087 0 0 1 4.176,4 z"
         transform="translate(4.36,3.16)"
         id="path1316"
         style="fill:#ffffff" />
      <path
         d="m 44.86,40.813 a 4.089,4.089 0 0 1 -4.161,4 L 5.677,44.868 A 4.075,4.075 0 0 1 1.514,40.881 L 1.508,7.281 a 4.087,4.087 0 0 1 4.161,-4 L 40.691,3.226 a 4.076,4.076 0 0 1 4.163,3.988 z"
         transform="translate(4.36,3.16)"
         id="path1318"
         style="fill:#fefeff" />
      <path
         d="m 44.722,40.684 a 4.074,4.074 0 0 1 -4.148,3.987 L 5.667,44.726 A 4.061,4.061 0 0 1 1.518,40.752 L 1.512,7.258 A 4.073,4.073 0 0 1 5.659,3.27 L 40.566,3.216 a 4.061,4.061 0 0 1 4.15,3.974 z"
         transform="translate(4.36,3.16)"
         id="path1320"
         style="fill:#fdfdff" />
      <path
         d="M 44.584,40.556 A 4.062,4.062 0 0 1 40.45,44.53 L 5.657,44.584 A 4.046,4.046 0 0 1 1.522,40.623 L 1.515,7.239 A 4.061,4.061 0 0 1 5.65,3.264 L 40.442,3.21 a 4.048,4.048 0 0 1 4.136,3.962 z"
         transform="translate(4.36,3.16)"
         id="path1322"
         style="fill:#fcfcff" />
      <path
         d="m 44.447,40.427 a 4.05,4.05 0 0 1 -4.121,3.961 L 5.648,44.442 A 4.033,4.033 0 0 1 1.526,40.494 L 1.519,7.22 A 4.048,4.048 0 0 1 5.64,3.258 L 40.318,3.2 a 4.034,4.034 0 0 1 4.122,3.953 z"
         transform="translate(4.36,3.16)"
         id="path1324"
         style="fill:#fcfcff" />
      <path
         d="M 44.309,40.3 A 4.035,4.035 0 0 1 40.2,44.246 L 5.638,44.3 A 4.02,4.02 0 0 1 1.53,40.365 L 1.523,7.2 A 4.034,4.034 0 0 1 5.63,3.252 L 40.194,3.2 A 4.021,4.021 0 0 1 44.3,7.134 Z"
         transform="translate(4.36,3.16)"
         id="path1326"
         style="fill:#fbfbff" />
      <path
         d="m 44.171,40.17 a 4.021,4.021 0 0 1 -4.093,3.93 l -34.45,0.054 a 4.007,4.007 0 0 1 -4.1,-3.922 L 1.527,7.182 A 4.022,4.022 0 0 1 5.62,3.246 L 40.07,3.192 a 4.009,4.009 0 0 1 4.095,3.923 z"
         transform="translate(4.36,3.16)"
         id="path1328"
         style="fill:#fafaff" />
      <path
         d="m 44.033,40.041 a 4.008,4.008 0 0 1 -4.08,3.922 L 5.618,44.017 A 4,4 0 0 1 1.537,40.108 L 1.531,7.163 A 4.007,4.007 0 0 1 5.611,3.24 L 39.945,3.187 A 4,4 0 0 1 44.027,7.1 Z"
         transform="translate(4.36,3.16)"
         id="path1330"
         style="fill:#f9f9ff" />
      <path
         d="m 43.9,39.913 a 3.994,3.994 0 0 1 -4.066,3.908 l -34.22,0.054 a 3.982,3.982 0 0 1 -4.068,-3.9 L 1.535,7.144 A 3.994,3.994 0 0 1 5.6,3.234 L 39.82,3.181 a 3.981,3.981 0 0 1 4.068,3.9 z"
         transform="translate(4.36,3.16)"
         id="path1332"
         style="fill:#f8f8ff" />
      <path
         d="m 43.758,39.784 a 3.981,3.981 0 0 1 -4.053,3.9 L 5.6,43.733 A 3.968,3.968 0 0 1 1.545,39.85 L 1.539,7.125 a 3.979,3.979 0 0 1 4.052,-3.9 L 39.7,3.175 a 3.968,3.968 0 0 1 4.054,3.884 z"
         transform="translate(4.36,3.16)"
         id="path1334"
         style="fill:#f7f7fe" />
      <path
         d="m 43.62,39.655 a 3.969,3.969 0 0 1 -4.039,3.883 L 5.589,43.591 a 3.954,3.954 0 0 1 -4.04,-3.87 L 1.543,7.106 A 3.965,3.965 0 0 1 5.581,3.223 L 39.573,3.169 a 3.957,3.957 0 0 1 4.041,3.871 z"
         transform="translate(4.36,3.16)"
         id="path1336"
         style="fill:#f7f7fe" />
      <path
         d="M 43.482,39.527 A 3.955,3.955 0 0 1 39.456,43.4 L 5.579,43.453 A 3.939,3.939 0 0 1 1.553,39.596 L 1.546,7.096 A 3.954,3.954 0 0 1 5.572,3.226 L 39.449,3.173 a 3.941,3.941 0 0 1 4.027,3.857 z"
         transform="translate(4.36,3.16)"
         id="path1338"
         style="fill:#f6f6fe" />
      <path
         d="m 43.344,39.4 a 3.94,3.94 0 0 1 -4.012,3.856 L 5.57,43.307 A 3.926,3.926 0 0 1 1.557,39.463 L 1.55,7.068 A 3.94,3.94 0 0 1 5.562,3.211 L 39.325,3.158 A 3.927,3.927 0 0 1 43.338,7 Z"
         transform="translate(4.36,3.16)"
         id="path1340"
         style="fill:#f5f5fe" />
      <path
         d="m 43.206,39.269 a 3.928,3.928 0 0 1 -4,3.844 L 5.56,43.165 a 3.914,3.914 0 0 1 -4,-3.83 L 1.554,7.049 a 3.927,3.927 0 0 1 4,-3.844 L 39.2,3.152 a 3.915,3.915 0 0 1 4,3.832 z"
         transform="translate(4.36,3.16)"
         id="path1342"
         style="fill:#f4f4fe" />
      <path
         d="m 43.069,39.141 a 3.915,3.915 0 0 1 -3.985,3.83 L 5.55,43.024 A 3.9,3.9 0 0 1 1.564,39.206 L 1.558,7.03 A 3.913,3.913 0 0 1 5.542,3.2 L 39.076,3.147 a 3.9,3.9 0 0 1 3.986,3.819 z"
         transform="translate(4.36,3.16)"
         id="path1344"
         style="fill:#f3f3fe" />
      <path
         d="M 42.931,39.012 A 3.9,3.9 0 0 1 38.96,42.829 L 5.54,42.882 a 3.889,3.889 0 0 1 -3.972,-3.8 L 1.562,7.011 A 3.9,3.9 0 0 1 5.533,3.193 L 38.952,3.141 a 3.888,3.888 0 0 1 3.973,3.805 z"
         transform="translate(4.36,3.16)"
         id="path1346"
         style="fill:#f2f2fe" />
      <path
         d="m 42.793,38.883 a 3.889,3.889 0 0 1 -3.958,3.805 L 5.535,42.74 A 3.874,3.874 0 0 1 1.576,38.948 L 1.566,6.992 a 3.886,3.886 0 0 1 3.957,-3.8 L 38.828,3.14 a 3.874,3.874 0 0 1 3.959,3.792 z"
         transform="translate(4.36,3.16)"
         id="path1348"
         style="fill:#f2f2fe" />
      <path
         d="m 42.655,38.755 a 3.874,3.874 0 0 1 -3.944,3.791 L 5.521,42.6 A 3.861,3.861 0 0 1 1.576,38.821 L 1.57,6.973 A 3.873,3.873 0 0 1 5.513,3.181 L 38.7,3.129 a 3.862,3.862 0 0 1 3.945,3.78 z"
         transform="translate(4.36,3.16)"
         id="path1350"
         style="fill:#f1f1fe" />
      <path
         d="m 42.517,38.626 a 3.86,3.86 0 0 1 -3.93,3.778 L 5.511,42.456 A 3.847,3.847 0 0 1 1.58,38.69 L 1.574,6.954 A 3.859,3.859 0 0 1 5.5,3.175 L 38.576,3.123 a 3.848,3.848 0 0 1 3.935,3.767 z"
         transform="translate(4.36,3.16)"
         id="path1352"
         style="fill:#f0f0fe" />
      <path
         d="m 42.38,38.5 a 3.849,3.849 0 0 1 -3.917,3.765 L 5.5,42.314 A 3.833,3.833 0 0 1 1.583,38.561 L 1.577,6.935 A 3.848,3.848 0 0 1 5.494,3.169 L 38.455,3.118 a 3.835,3.835 0 0 1 3.919,3.753 z"
         transform="translate(4.36,3.16)"
         id="path1354"
         style="fill:#efeffe" />
      <path
         d="m 42.242,38.369 a 3.835,3.835 0 0 1 -3.9,3.752 L 5.494,42.172 a 3.82,3.82 0 0 1 -3.9,-3.739 L 1.581,6.916 a 3.834,3.834 0 0 1 3.9,-3.753 L 38.328,3.112 a 3.821,3.821 0 0 1 3.9,3.74 z"
         transform="translate(4.36,3.16)"
         id="path1356"
         style="fill:#eeeefe" />
      <path
         d="m 42.1,38.24 a 3.822,3.822 0 0 1 -3.89,3.739 L 5.478,42.031 A 3.809,3.809 0 0 1 1.591,38.3 L 1.585,6.9 A 3.821,3.821 0 0 1 5.474,3.16 L 38.207,3.109 A 3.808,3.808 0 0 1 42.1,6.834 Z"
         transform="translate(4.36,3.16)"
         id="path1358"
         style="fill:#ededfe" />
      <path
         d="M 41.966,38.112 A 3.807,3.807 0 0 1 38.09,41.838 L 5.472,41.889 A 3.8,3.8 0 0 1 1.6,38.175 L 1.594,6.875 A 3.808,3.808 0 0 1 5.464,3.151 L 38.083,3.1 a 3.8,3.8 0 0 1 3.877,3.715 z"
         transform="translate(4.36,3.16)"
         id="path1360"
         style="fill:#ececfe" />
      <path
         d="M 41.828,37.983 A 3.793,3.793 0 0 1 37.966,41.7 l -32.5,0.051 a 3.781,3.781 0 0 1 -3.863,-3.7 L 1.593,6.859 A 3.794,3.794 0 0 1 5.455,3.145 l 32.5,-0.05 a 3.78,3.78 0 0 1 3.864,3.7 z"
         transform="translate(4.36,3.16)"
         id="path1362"
         style="fill:#ececfe" />
      <path
         d="m 41.691,37.854 a 3.781,3.781 0 0 1 -3.849,3.7 L 5.452,41.605 A 3.768,3.768 0 0 1 1.6,37.917 V 6.84 A 3.78,3.78 0 0 1 5.448,3.14 L 37.837,3.09 a 3.769,3.769 0 0 1 3.851,3.688 z"
         transform="translate(4.36,3.16)"
         id="path1364"
         style="fill:#ebebfe" />
      <path
         d="m 41.553,37.726 a 3.769,3.769 0 0 1 -3.836,3.687 L 5.443,41.463 A 3.754,3.754 0 0 1 1.607,37.788 L 1.6,6.821 A 3.765,3.765 0 0 1 5.435,3.134 L 37.71,3.083 a 3.755,3.755 0 0 1 3.837,3.675 z"
         transform="translate(4.36,3.16)"
         id="path1366"
         style="fill:#eaeafe" />
      <path
         d="m 41.415,37.6 a 3.755,3.755 0 0 1 -3.822,3.674 l -32.16,0.05 A 3.74,3.74 0 0 1 1.611,37.662 L 1.605,6.8 A 3.753,3.753 0 0 1 5.426,3.128 l 32.16,-0.051 a 3.741,3.741 0 0 1 3.823,3.663 z"
         transform="translate(4.36,3.16)"
         id="path1368"
         style="fill:#e9e9fd" />
      <path
         d="m 41.277,37.469 a 3.74,3.74 0 0 1 -3.808,3.66 L 5.423,41.179 A 3.727,3.727 0 0 1 1.614,37.531 L 1.609,6.783 A 3.739,3.739 0 0 1 5.416,3.122 l 32.046,-0.05 a 3.727,3.727 0 0 1 3.809,3.649 z"
         transform="translate(4.36,3.16)"
         id="path1370"
         style="fill:#e8e8fd" />
      <path
         d="m 41.14,37.34 a 3.729,3.729 0 0 1 -3.8,3.648 L 5.408,41.038 A 3.715,3.715 0 0 1 1.618,37.4 L 1.612,6.764 A 3.727,3.727 0 0 1 5.406,3.116 l 31.932,-0.05 a 3.715,3.715 0 0 1 3.8,3.636 z"
         transform="translate(4.36,3.16)"
         id="path1372"
         style="fill:#e7e7fd" />
      <path
         d="m 41,37.211 a 3.715,3.715 0 0 1 -3.781,3.635 L 5.4,40.9 A 3.7,3.7 0 0 1 1.618,37.277 L 1.616,6.745 A 3.713,3.713 0 0 1 5.4,3.11 L 37.217,3.06 A 3.7,3.7 0 0 1 41,6.683 Z"
         transform="translate(4.36,3.16)"
         id="path1374"
         style="fill:#e7e7fd" />
      <path
         d="M 40.864,37.083 A 3.7,3.7 0 0 1 37.1,40.7 L 5.4,40.75 A 3.688,3.688 0 0 1 1.632,37.14 L 1.62,6.726 A 3.7,3.7 0 0 1 5.387,3.1 l 31.7,-0.05 a 3.688,3.688 0 0 1 3.769,3.61 z"
         transform="translate(4.36,3.16)"
         id="path1376"
         style="fill:#e6e6fd" />
      <path
         d="m 40.726,36.954 a 3.689,3.689 0 0 1 -3.754,3.609 L 5.384,40.612 A 3.674,3.674 0 0 1 1.63,37.012 L 1.624,6.707 A 3.687,3.687 0 0 1 5.377,3.1 L 36.965,3.05 a 3.676,3.676 0 0 1 3.755,3.6 z"
         transform="translate(4.36,3.16)"
         id="path1378"
         style="fill:#e5e5fd" />
      <path
         d="m 40.588,36.825 a 3.673,3.673 0 0 1 -3.74,3.6 L 5.374,40.47 A 3.661,3.661 0 0 1 1.634,36.886 L 1.628,6.686 a 3.673,3.673 0 0 1 3.739,-3.6 L 36.841,3.037 a 3.662,3.662 0 0 1 3.742,3.584 z"
         transform="translate(4.36,3.16)"
         id="path1380"
         style="fill:#e4e4fd" />
      <path
         d="m 40.451,36.7 a 3.661,3.661 0 0 1 -3.727,3.582 L 5.365,40.331 A 3.647,3.647 0 0 1 1.638,36.761 L 1.632,6.669 A 3.659,3.659 0 0 1 5.357,3.086 l 31.36,-0.049 a 3.649,3.649 0 0 1 3.728,3.571 z"
         transform="translate(4.36,3.16)"
         id="path1382"
         style="fill:#e3e3fd" />
      <path
         d="M 40.313,36.568 A 3.649,3.649 0 0 1 36.6,40.138 L 5.355,40.186 A 3.635,3.635 0 0 1 1.641,36.629 L 1.636,6.65 A 3.646,3.646 0 0 1 5.348,3.08 L 36.592,3.031 a 3.636,3.636 0 0 1 3.715,3.558 z"
         transform="translate(4.36,3.16)"
         id="path1384"
         style="fill:#e2e2fd" />
      <path
         d="m 40.175,36.44 a 3.634,3.634 0 0 1 -3.7,3.56 l -31.13,0.049 a 3.622,3.622 0 0 1 -3.7,-3.545 L 1.64,6.631 A 3.632,3.632 0 0 1 5.34,3.074 L 36.47,3.025 a 3.622,3.622 0 0 1 3.7,3.546 z"
         transform="translate(4.36,3.16)"
         id="path1386"
         style="fill:#e1e1fd" />
      <path
         d="m 40.037,36.311 a 3.621,3.621 0 0 1 -3.686,3.543 L 5.335,39.9 A 3.609,3.609 0 0 1 1.649,36.368 L 1.643,6.612 A 3.621,3.621 0 0 1 5.328,3.068 L 36.344,3.02 a 3.608,3.608 0 0 1 3.687,3.532 z"
         transform="translate(4.36,3.16)"
         id="path1388"
         style="fill:#e1e1fd" />
      <path
         d="m 39.9,36.182 a 3.608,3.608 0 0 1 -3.672,3.531 l -30.9,0.048 A 3.6,3.6 0 0 1 1.656,36.242 L 1.647,6.593 A 3.607,3.607 0 0 1 5.318,3.062 l 30.9,-0.048 a 3.6,3.6 0 0 1 3.674,3.519 z"
         transform="translate(4.36,3.16)"
         id="path1390"
         style="fill:#e0e0fd" />
      <path
         d="M 39.762,36.054 A 3.594,3.594 0 0 1 36.1,39.571 L 5.313,39.619 A 3.582,3.582 0 0 1 1.654,36.113 L 1.651,6.574 A 3.594,3.594 0 0 1 5.309,3.056 L 36.1,3.008 a 3.582,3.582 0 0 1 3.66,3.506 z"
         transform="translate(4.36,3.16)"
         id="path1392"
         style="fill:#dfdffd" />
      <path
         d="m 39.624,35.925 a 3.581,3.581 0 0 1 -3.646,3.5 L 5.306,39.473 A 3.568,3.568 0 0 1 1.661,35.98 L 1.655,6.555 A 3.581,3.581 0 0 1 5.3,3.05 L 35.971,3 a 3.569,3.569 0 0 1 3.647,3.5 z"
         transform="translate(4.36,3.16)"
         id="path1394"
         style="fill:#dedefd" />
      <path
         d="m 39.486,35.8 a 3.569,3.569 0 0 1 -3.632,3.492 L 5.3,39.335 A 3.554,3.554 0 0 1 1.669,35.856 L 1.659,6.536 A 3.567,3.567 0 0 1 5.289,3.044 L 35.847,3 a 3.555,3.555 0 0 1 3.633,3.48 z"
         transform="translate(4.36,3.16)"
         id="path1396"
         style="fill:#ddddfd" />
      <path
         d="M 39.348,35.668 A 3.554,3.554 0 0 1 35.73,39.146 L 5.286,39.193 A 3.541,3.541 0 0 1 1.668,35.727 V 6.517 A 3.552,3.552 0 0 1 5.279,3.039 L 35.723,2.991 a 3.543,3.543 0 0 1 3.62,3.467 z"
         transform="translate(4.36,3.16)"
         id="path1398"
         style="fill:#dcdcfd" />
      <path
         d="M 39.21,35.539 A 3.539,3.539 0 0 1 35.606,39 L 5.277,39.048 A 3.53,3.53 0 0 1 1.672,35.6 V 6.5 a 3.539,3.539 0 0 1 3.6,-3.465 L 35.6,2.985 a 3.529,3.529 0 0 1 3.606,3.454 z"
         transform="translate(4.36,3.16)"
         id="path1400"
         style="fill:#dcdcfd" />
      <path
         d="m 39.073,35.411 a 3.527,3.527 0 0 1 -3.591,3.451 L 5.267,38.91 A 3.516,3.516 0 0 1 1.676,35.469 V 6.479 A 3.526,3.526 0 0 1 5.26,3.027 L 35.475,2.979 a 3.516,3.516 0 0 1 3.592,3.441 z"
         transform="translate(4.36,3.16)"
         id="path1402"
         style="fill:#dbdbfc" />
      <path
         d="m 38.935,35.282 a 3.515,3.515 0 0 1 -3.578,3.439 l -30.1,0.047 A 3.5,3.5 0 0 1 1.68,35.34 L 1.674,6.46 A 3.514,3.514 0 0 1 5.25,3.021 L 35.35,2.974 A 3.5,3.5 0 0 1 38.929,6.4 Z"
         transform="translate(4.36,3.16)"
         id="path1404"
         style="fill:#dadafc" />
      <path
         d="m 38.8,35.153 a 3.5,3.5 0 0 1 -3.564,3.426 L 5.25,38.626 A 3.488,3.488 0 0 1 1.687,35.211 L 1.678,6.441 A 3.5,3.5 0 0 1 5.24,3.015 L 35.226,2.968 a 3.488,3.488 0 0 1 3.565,3.415 z"
         transform="translate(4.36,3.16)"
         id="path1406"
         style="fill:#d9d9fc" />
      <path
         d="m 38.659,35.025 a 3.486,3.486 0 0 1 -3.55,3.412 L 5.238,38.484 a 3.475,3.475 0 0 1 -3.55,-3.4 L 1.682,6.422 A 3.487,3.487 0 0 1 5.231,3.009 L 35.1,2.962 a 3.477,3.477 0 0 1 3.552,3.4 z"
         transform="translate(4.36,3.16)"
         id="path1408"
         style="fill:#d8d8fc" />
      <path
         d="m 38.521,34.9 a 3.473,3.473 0 0 1 -3.536,3.4 L 5.228,38.346 A 3.461,3.461 0 0 1 1.692,34.958 L 1.686,6.4 A 3.473,3.473 0 0 1 5.221,3 L 34.978,2.953 a 3.462,3.462 0 0 1 3.538,3.389 z"
         transform="translate(4.36,3.16)"
         id="path1410"
         style="fill:#d7d7fc" />
      <path
         d="M 38.384,34.767 A 3.461,3.461 0 0 1 34.86,38.154 L 5.218,38.2 A 3.449,3.449 0 0 1 1.7,34.825 L 1.69,6.384 A 3.46,3.46 0 0 1 5.211,3 L 34.854,2.954 a 3.448,3.448 0 0 1 3.524,3.375 z"
         transform="translate(4.36,3.16)"
         id="path1412"
         style="fill:#d7d7fc" />
      <path
         d="m 38.246,34.639 a 3.447,3.447 0 0 1 -3.51,3.373 L 5.208,38.059 A 3.436,3.436 0 0 1 1.7,34.7 L 1.694,6.365 A 3.446,3.446 0 0 1 5.2,2.991 L 34.73,2.945 a 3.435,3.435 0 0 1 3.51,3.363 z"
         transform="translate(4.36,3.16)"
         id="path1414"
         style="fill:#d6d6fc" />
      <path
         d="m 38.108,34.51 a 3.434,3.434 0 0 1 -3.5,3.361 L 5.2,37.917 A 3.423,3.423 0 0 1 1.7,34.567 V 6.346 A 3.432,3.432 0 0 1 5.192,2.985 L 34.6,2.939 a 3.423,3.423 0 0 1 3.5,3.35 z"
         transform="translate(4.36,3.16)"
         id="path1416"
         style="fill:#d5d5fc" />
      <path
         d="m 37.97,34.382 a 3.419,3.419 0 0 1 -3.482,3.347 l -29.3,0.046 A 3.409,3.409 0 0 1 1.706,34.438 L 1.7,6.327 A 3.419,3.419 0 0 1 5.18,2.979 l 29.3,-0.046 a 3.41,3.41 0 0 1 3.485,3.337 z"
         transform="translate(4.36,3.16)"
         id="path1418"
         style="fill:#d4d4fc" />
    </g>
    <rect
       x="5.2309999"
       y="5.217"
       width="43.941002"
       height="40.073002"
       rx="4.744"
       id="rect1422"
       style="isolation:isolate;fill:#ffffff" />
    <rect
       x="5.2309999"
       y="5.217"
       width="43.941002"
       height="39.573002"
       rx="4.744"
       id="rect1422-0"
       style="isolation:isolate;fill:url(#linearGradient1707);fill-opacity:1.0;stroke-width:0.99374181" />
  </g>
</svg>
