<?xml version="1.0" encoding="UTF-8" standalone="no"?>
<svg
   xmlns:dc="http://purl.org/dc/elements/1.1/"
   xmlns:cc="http://creativecommons.org/ns#"
   xmlns:rdf="http://www.w3.org/1999/02/22-rdf-syntax-ns#"
   xmlns:svg="http://www.w3.org/2000/svg"
   xmlns="http://www.w3.org/2000/svg"
   xmlns:sodipodi="http://sodipodi.sourceforge.net/DTD/sodipodi-0.dtd"
   xmlns:inkscape="http://www.inkscape.org/namespaces/inkscape"
   viewBox="0 0 179.536 94.945"
   version="1.1"
   id="svg3039"
   sodipodi:docname="A7_mystudip.svg"
   inkscape:version="0.92.4 (5da689c313, 2019-01-14)">
  <metadata
     id="metadata3043">
    <rdf:RDF>
      <cc:Work
         rdf:about="">
        <dc:format>image/svg+xml</dc:format>
        <dc:type
           rdf:resource="http://purl.org/dc/dcmitype/StillImage" />
        <dc:title>studip3</dc:title>
      </cc:Work>
    </rdf:RDF>
  </metadata>
  <sodipodi:namedview
     pagecolor="#ffffff"
     bordercolor="#666666"
     borderopacity="1"
     objecttolerance="10"
     gridtolerance="10"
     guidetolerance="10"
     inkscape:pageopacity="0"
     inkscape:pageshadow="2"
     inkscape:window-width="1920"
     inkscape:window-height="1018"
     id="namedview3041"
     showgrid="false"
     inkscape:zoom="1"
     inkscape:cx="101.66552"
     inkscape:cy="51.589999"
     inkscape:window-x="1912"
     inkscape:window-y="-8"
     inkscape:window-maximized="1"
     inkscape:current-layer="g3348" />
  <defs
     id="defs2779">
    <linearGradient
       id="Unbenannter_Verlauf_21"
       data-name="Unbenannter Verlauf 21"
       x1="2.447"
       y1="30.882"
       x2="174.061"
       y2="57.689"
       gradientUnits="userSpaceOnUse"
       gradientTransform="matrix(1,0,0,0.99772124,0,0.20047627)">
      <stop
         offset="0"
         stop-color="#d0dcff"
         id="stop2745"
         style="stop-color:#dfe9f9;stop-opacity:1" />
      <stop
         offset="0.334"
         stop-color="#d2ddff"
         id="stop2747"
         style="stop-color:#cddaf0;stop-opacity:1" />
      <stop
         offset="0.454"
         stop-color="#d9e3ff"
         id="stop2749"
         style="stop-color:#cddaf0;stop-opacity:1" />
      <stop
         offset="0.668"
         stop-color="#d6e0ff"
         id="stop2755"
         style="stop-color:#d9e4f5;stop-opacity:1" />
      <stop
         offset="0.773"
         stop-color="#c2d1ff"
         id="stop2757"
         style="stop-color:#d9e4f5;stop-opacity:1" />
      <stop
         offset="0.878"
         stop-color="#b6c8ff"
         id="stop2759"
         style="stop-color:#ccdaf1;stop-opacity:1" />
      <stop
         offset="0.983"
         stop-color="#b2c5ff"
         id="stop2761"
         style="stop-color:#ccdaf1;stop-opacity:1" />
    </linearGradient>
    <linearGradient
       id="Unbenannter_Verlauf_11"
       data-name="Unbenannter Verlauf 11"
       x1="-0.80699992"
       y1="30.209999"
       x2="173.55"
       y2="57.609"
       gradientUnits="userSpaceOnUse">
      <stop
         offset="0"
         stop-color="#f4f7ff"
         id="stop2764"
         style="stop-color:#f1f5ff;stop-opacity:1" />
      <stop
         offset="0.29880032"
         stop-color="#f1f5ff"
         id="stop2766"
         style="stop-color:#f5f8ff;stop-opacity:1" />
      <stop
         offset="0.50933552"
         stop-color="#edf2ff"
         id="stop2768"
         style="stop-color:#eef6fe;stop-opacity:1" />
      <stop
         offset="0.76818961"
         stop-color="#e7edff"
         id="stop2770"
         style="stop-color:#ebf2fd;stop-opacity:1" />
    </linearGradient>
    <clipPath
       id="clip-path">
      <path
         d="M69.194,62.176,57.078,58.862a30.627,30.627,0,0,1-4.445,2.045,14.073,14.073,0,0,1-7.62.419c-3.539-.667-6.933-3.1-7.65-3.451-.488-.24-10.968,4.654-10.968,4.654a49.707,49.707,0,0,1,3.513-28.061,19.285,19.285,0,0,1,5.448-7.192c1.445-1.174,5.706-4.634,10.9-3.948a10.447,10.447,0,0,1,1.864.423,16.1,16.1,0,0,1,8.89,1.692,19.436,19.436,0,0,1,3.562,2.394A22.226,22.226,0,0,1,63.745,31.3c1.841,2.534,4.8,8.547,5.664,18.261A60.028,60.028,0,0,1,69.194,62.176ZM61.236,46.594c-1.672-2.27-7.157-3.2-8.746-3.454-5.5-.889-4.907-.528-6.094-.917-4.737-1.553-5.435-4.447-7.527-4.019-2.592.531-4.153,5.513-3.8,9.307a12.194,12.194,0,0,0,1.147,4.019,15.506,15.506,0,0,0,5.736,6.7,12.192,12.192,0,0,0,6.523,2.326c5.244.119,8.771-3.845,9.679-4.864a17.956,17.956,0,0,0,2.724-4.583c.748-1.542,1.171-2.743.717-3.878A2.943,2.943,0,0,0,61.236,46.594Z"
         fill="none"
         id="path2773" />
    </clipPath>
    <clipPath
       id="clip-path-2">
      <rect
         x="20.731"
         y="18.238"
         width="53.911"
         height="49.29"
         fill="none"
         id="rect2776" />
    </clipPath>
  </defs>
  <title
     id="title2781">studip3</title>
  <g
     id="g3348">
    <rect
       y="0"
       x="0"
       height="94.794998"
       width="179.536"
       id="rect1113"
       style="opacity:1;fill:#ffffff;fill-opacity:1" />
    <g
       id="g2887"
       style="isolation:isolate;mix-blend-mode:multiply"
       transform="matrix(1,0,0,0.98307326,0,1.6071769)">
      <path
         style="fill:#ffffff"
         inkscape:connector-curvature="0"
         id="path2783"
         d="m 179.526,85.97 c 0,4.905 -7.705,8.891 -17.205,8.9 l -144.8,0.079 C 8.011,94.95 0.307,90.973 0.305,86.068 L 0.264,11.288 c 0,-4.91 7.7,-8.893 17.2,-8.9 l 144.8,-0.08 c 9.5,0 17.211,3.97 17.214,8.88 z" />
      <path
         style="fill:#fefeff"
         inkscape:connector-curvature="0"
         id="path2785"
         d="m 178.969,85.674 c 0,4.891 -7.679,8.864 -17.148,8.869 L 17.49,94.622 c -9.477,0 -17.156,-3.959 -17.158,-8.85 L 0.291,11.223 c 0,-4.9 7.672,-8.866 17.148,-8.871 L 161.771,2.273 c 9.469,-0.006 17.155,3.957 17.158,8.852 z" />
      <path
         style="fill:#fdfdff"
         inkscape:connector-curvature="0"
         id="path2787"
         d="m 178.413,85.379 c 0,4.875 -7.655,8.836 -17.093,8.841 L 17.461,94.3 C 8.015,94.306 0.361,90.353 0.361,85.478 L 0.321,11.158 C 0.321,6.279 7.967,2.32 17.413,2.315 L 161.27,2.235 c 9.438,0 17.1,3.945 17.1,8.825 z" />
      <path
         style="fill:#fcfcff"
         inkscape:connector-curvature="0"
         id="path2789"
         d="m 177.856,85.084 c 0,4.86 -7.629,8.809 -17.036,8.814 L 17.432,93.976 C 8.017,93.982 0.389,90.041 0.386,85.181 L 0.346,11.092 c 0,-4.865 7.621,-8.811 17.036,-8.816 L 160.77,2.2 c 9.407,0 17.043,3.933 17.046,8.8 z" />
      <path
         style="fill:#fcfcff"
         inkscape:connector-curvature="0"
         id="path2791"
         d="m 177.3,84.788 c 0,4.846 -7.6,8.782 -16.98,8.787 L 17.4,93.654 C 8.02,93.659 0.416,89.731 0.413,84.885 L 0.373,11.027 c 0,-4.85 7.6,-8.784 16.98,-8.789 L 160.269,2.159 c 9.377,0 16.988,3.921 16.99,8.771 z" />
      <path
         style="fill:#fbfbff"
         inkscape:connector-curvature="0"
         id="path2793"
         d="m 176.743,84.493 c 0,4.83 -7.579,8.754 -16.925,8.759 L 17.374,93.331 C 8.022,93.336 0.443,89.42 0.441,84.59 L 0.4,10.961 C 0.4,6.127 7.972,2.205 17.324,2.2 L 159.769,2.122 c 9.346,0 16.931,3.908 16.934,8.743 z" />
      <path
         style="fill:#fafaff"
         inkscape:connector-curvature="0"
         id="path2795"
         d="m 176.186,84.2 c 0,4.815 -7.553,8.727 -16.868,8.732 L 17.345,93.01 C 8.024,93.013 0.47,89.109 0.468,84.294 L 0.428,10.9 c 0,-4.819 7.547,-8.729 16.867,-8.734 L 159.268,2.088 c 9.315,0 16.876,3.9 16.878,8.716 z" />
      <path
         style="fill:#f9f9ff"
         inkscape:connector-curvature="0"
         id="path2797"
         d="m 175.63,83.9 c 0,4.8 -7.529,8.7 -16.813,8.7 l -141.5,0.078 C 8.026,92.69 0.5,88.8 0.5,84 L 0.455,10.831 c 0,-4.8 7.522,-8.7 16.812,-8.707 l 141.5,-0.078 c 9.284,0 16.819,3.884 16.822,8.689 z" />
      <path
         style="fill:#f8f8ff"
         inkscape:connector-curvature="0"
         id="path2799"
         d="m 175.073,83.607 c 0,4.785 -7.5,8.672 -16.756,8.677 L 17.287,92.362 C 8.028,92.367 0.525,88.488 0.522,83.7 L 0.483,10.765 c 0,-4.789 7.5,-8.674 16.755,-8.679 L 158.267,2.009 C 167.521,2 175.031,5.88 175.033,10.67 Z" />
      <path
         style="fill:#f7f7fe"
         inkscape:connector-curvature="0"
         id="path2801"
         d="m 174.517,83.312 c 0,4.77 -7.479,8.645 -16.7,8.65 L 17.259,92.039 C 8.031,92.044 0.552,88.177 0.549,83.407 L 0.51,10.7 c 0,-4.774 7.472,-8.647 16.7,-8.652 L 157.768,1.971 c 9.222,-0.005 16.707,3.859 16.71,8.633 z" />
      <path
         style="fill:#f7f7fe"
         inkscape:connector-curvature="0"
         id="path2803"
         d="m 173.96,83.016 c 0,4.756 -7.453,8.618 -16.645,8.623 L 17.229,91.716 c -9.2,0.005 -16.65,-3.849 -16.652,-8.6 L 0.537,10.635 C 0.537,5.876 7.984,2.015 17.18,2.01 L 157.266,1.933 c 9.192,-0.005 16.652,3.848 16.654,8.606 z" />
      <path
         style="fill:#f6f6fe"
         inkscape:connector-curvature="0"
         id="path2805"
         d="m 173.4,82.721 c 0,4.74 -7.427,8.59 -16.588,8.595 L 17.2,91.393 C 8.035,91.4 0.607,87.556 0.6,82.816 L 0.565,10.569 c 0,-4.744 7.421,-8.592 16.587,-8.6 L 156.766,1.9 c 9.161,-0.005 16.6,3.836 16.6,8.579 z" />
      <path
         style="fill:#f5f5fe"
         inkscape:connector-curvature="0"
         id="path2807"
         d="m 172.847,82.426 c 0,4.725 -7.4,8.563 -16.533,8.568 L 17.171,91.07 C 8.037,91.075 0.634,87.245 0.631,82.52 L 0.592,10.5 c 0,-4.729 7.4,-8.565 16.531,-8.57 L 156.266,1.854 c 9.13,-0.005 16.539,3.823 16.542,8.551 z" />
      <path
         style="fill:#f4f4fe"
         inkscape:connector-curvature="0"
         id="path2809"
         d="m 172.29,82.13 c 0,4.711 -7.377,8.536 -16.477,8.541 L 17.142,90.747 c -9.1,0 -16.481,-3.812 -16.484,-8.522 L 0.619,10.438 C 0.617,5.725 7.991,1.9 17.094,1.9 L 155.765,1.82 c 9.1,-0.005 16.484,3.811 16.486,8.524 z" />
      <path
         style="fill:#f3f3fe"
         inkscape:connector-curvature="0"
         id="path2811"
         d="m 171.734,81.835 c 0,4.7 -7.353,8.509 -16.421,8.514 l -138.2,0.075 c -9.071,0 -16.425,-3.8 -16.427,-8.5 L 0.647,10.373 c 0,-4.7 7.346,-8.51 16.418,-8.515 l 138.2,-0.076 c 9.068,-0.005 16.427,3.8 16.43,8.5 z" />
      <path
         style="fill:#f2f2fe"
         inkscape:connector-curvature="0"
         id="path2813"
         d="m 171.177,81.54 c 0,4.68 -7.327,8.481 -16.365,8.486 L 17.085,90.1 C 8.044,90.1 0.715,86.312 0.713,81.632 L 0.674,10.308 C 0.671,5.624 8,1.825 17.036,1.82 L 154.764,1.744 c 9.038,0 16.372,3.787 16.374,8.47 z" />
      <path
         style="fill:#f2f2fe"
         inkscape:connector-curvature="0"
         id="path2815"
         d="m 170.62,81.244 c 0,4.666 -7.3,8.454 -16.308,8.459 L 17.056,89.778 C 8.046,89.783 0.743,86 0.74,81.338 L 0.7,10.242 C 0.7,5.574 8,1.787 17.008,1.782 L 154.264,1.707 c 9.007,-0.005 16.315,3.774 16.318,8.442 z" />
      <path
         style="fill:#f1f1fe"
         inkscape:connector-curvature="0"
         id="path2817"
         d="m 170.064,80.949 c 0,4.65 -7.277,8.427 -16.253,8.432 L 17.027,89.456 C 8.048,89.46 0.77,85.692 0.767,81.042 L 0.729,10.177 C 0.726,5.524 8,1.749 16.979,1.744 L 153.763,1.669 c 8.976,-0.005 16.26,3.762 16.262,8.415 z" />
      <path
         style="fill:#f0f0fe"
         inkscape:connector-curvature="0"
         id="path2819"
         d="m 169.507,80.654 c 0,4.635 -7.251,8.4 -16.2,8.4 L 17,89.133 C 8.05,89.138 0.8,85.381 0.794,80.746 L 0.756,10.112 C 0.753,5.474 8,1.711 16.95,1.706 L 153.263,1.631 c 8.945,-0.005 16.2,3.75 16.206,8.388 z" />
      <path
         style="fill:#efeffe"
         inkscape:connector-curvature="0"
         id="path2821"
         d="m 168.951,80.358 c 0,4.62 -7.227,8.372 -16.141,8.377 L 16.969,88.81 C 8.053,88.815 0.824,85.071 0.822,80.451 l -0.039,-70.4 c 0,-4.623 7.222,-8.373 16.138,-8.378 L 152.762,1.599 c 8.915,-0.005 16.148,3.737 16.15,8.36 z" />
      <path
         style="fill:#eeeefe"
         inkscape:connector-curvature="0"
         id="path2823"
         d="m 168.394,80.063 c 0,4.605 -7.2,8.345 -16.085,8.35 L 16.94,88.487 C 8.055,88.492 0.851,84.76 0.849,80.155 L 0.811,9.981 c 0,-4.608 7.2,-8.346 16.082,-8.351 L 152.262,1.556 c 8.883,-0.005 16.091,3.725 16.094,8.333 z" />
      <path
         style="fill:#ededfe"
         inkscape:connector-curvature="0"
         id="path2825"
         d="m 167.838,79.768 c 0,4.59 -7.177,8.317 -16.029,8.322 l -134.9,0.074 C 8.057,88.169 0.879,84.449 0.876,79.859 L 0.838,9.916 C 0.836,5.323 8.01,1.6 16.864,1.592 l 134.9,-0.074 c 8.852,-0.005 16.035,3.713 16.038,8.306 z" />
      <path
         style="fill:#ececfe"
         inkscape:connector-curvature="0"
         id="path2827"
         d="m 167.281,79.472 c 0,4.575 -7.151,8.29 -15.973,8.3 L 16.882,87.846 C 8.059,87.846 0.906,84.139 0.9,79.564 L 0.865,9.85 c 0,-4.577 7.147,-8.291 15.97,-8.3 L 151.261,1.48 c 8.822,0 15.98,3.7 15.982,8.279 z" />
      <path
         style="fill:#ececfe"
         inkscape:connector-curvature="0"
         id="path2829"
         d="m 166.724,79.177 c 0,4.56 -7.126,8.263 -15.917,8.268 L 16.853,87.518 c -8.792,0 -15.92,-3.69 -15.922,-8.25 L 0.893,9.785 c 0,-4.563 7.121,-8.264 15.913,-8.269 L 150.761,1.443 c 8.791,-0.005 15.923,3.688 15.926,8.251 z" />
      <path
         style="fill:#ebebfe"
         inkscape:connector-curvature="0"
         id="path2831"
         d="m 166.168,78.882 c 0,4.545 -7.1,8.235 -15.861,8.24 L 16.824,87.2 C 8.063,87.2 0.96,83.517 0.958,78.972 L 0.92,9.719 c 0,-4.547 7.1,-8.236 15.857,-8.241 L 150.26,1.405 c 8.76,-0.005 15.868,3.676 15.87,8.224 z" />
      <path
         style="fill:#eaeafe"
         inkscape:connector-curvature="0"
         id="path2833"
         d="m 165.611,78.586 c 0,4.53 -7.075,8.208 -15.8,8.213 L 16.8,86.872 C 8.071,86.872 0.992,83.207 0.99,78.677 L 0.947,9.654 c 0,-4.532 7.072,-8.209 15.8,-8.214 L 149.76,1.367 c 8.729,0 15.811,3.665 15.814,8.2 z" />
      <path
         style="fill:#e9e9fd"
         inkscape:connector-curvature="0"
         id="path2835"
         d="m 165.055,78.291 c 0,4.515 -7.051,8.181 -15.749,8.186 l -132.54,0.072 c -8.7,0 -15.751,-3.653 -15.754,-8.168 L 0.975,9.589 C 0.972,5.072 8.022,1.407 16.72,1.4 L 149.259,1.327 c 8.7,0 15.756,3.653 15.758,8.17 z" />
      <path
         style="fill:#e8e8fd"
         inkscape:connector-curvature="0"
         id="path2837"
         d="m 164.5,78 c 0,4.5 -7.025,8.153 -15.693,8.158 L 16.739,86.23 c -8.667,0 -15.695,-3.641 -15.7,-8.141 L 1,9.523 C 1,5.023 8.022,1.369 16.689,1.364 L 148.757,1.292 c 8.668,-0.005 15.7,3.64 15.7,8.142 z" />
      <path
         style="fill:#e7e7fd"
         inkscape:connector-curvature="0"
         id="path2839"
         d="m 163.942,77.7 c 0,4.485 -7,8.127 -15.638,8.131 l -131.6,0.072 C 8.068,85.903 1.065,82.275 1.063,77.79 L 1.029,9.458 c 0,-4.487 7,-8.127 15.633,-8.132 l 131.6,-0.072 c 8.637,0 15.644,3.628 15.646,8.115 z" />
      <path
         style="fill:#e7e7fd"
         inkscape:connector-curvature="0"
         id="path2841"
         d="m 163.385,77.405 c 0,4.47 -6.975,8.1 -15.581,8.1 L 16.679,85.577 C 8.079,85.577 1.096,81.96 1.094,77.49 L 1.057,9.39 c 0,-4.472 6.972,-8.1 15.577,-8.1 L 147.758,1.218 c 8.606,0 15.588,3.616 15.59,8.088 z" />
      <path
         style="fill:#e6e6fd"
         inkscape:connector-curvature="0"
         id="path2843"
         d="m 162.828,77.11 c 0,4.455 -6.95,8.071 -15.525,8.076 L 16.651,85.258 c -8.574,0 -15.528,-3.6 -15.53,-8.059 L 1.084,9.327 C 1.084,4.871 8.031,1.255 16.605,1.25 L 147.257,1.179 c 8.576,-0.005 15.532,3.6 15.535,8.06 z" />
      <path
         style="fill:#e5e5fd"
         inkscape:connector-curvature="0"
         id="path2845"
         d="m 162.272,76.814 c 0,4.44 -6.925,8.045 -15.469,8.049 L 16.622,84.935 C 8.079,84.935 1.151,81.343 1.148,76.903 L 1.111,9.262 c 0,-4.442 6.922,-8.045 15.465,-8.05 L 146.757,1.141 c 8.544,-0.005 15.476,3.591 15.478,8.033 z" />
      <path
         style="fill:#e4e4fd"
         inkscape:connector-curvature="0"
         id="path2847"
         d="m 161.715,76.519 c 0,4.425 -6.9,8.017 -15.413,8.022 L 16.593,84.612 c -8.512,0 -15.415,-3.58 -15.418,-8 L 1.139,9.2 c 0,-4.427 6.9,-8.018 15.408,-8.023 L 146.257,1.1 c 8.513,0 15.419,3.579 15.422,8.005 z" />
      <path
         style="fill:#e3e3fd"
         inkscape:connector-curvature="0"
         id="path2849"
         d="m 161.159,76.224 c 0,4.41 -6.875,7.989 -15.358,7.994 L 16.564,84.289 C 8.083,84.289 1.205,80.721 1.203,76.312 L 1.166,9.131 c 0,-4.411 6.872,-7.99 15.352,-7.995 L 145.756,1.065 c 8.483,0 15.364,3.567 15.366,7.978 z" />
      <path
         style="fill:#e2e2fd"
         inkscape:connector-curvature="0"
         id="path2851"
         d="m 160.6,75.929 c 0,4.394 -6.849,7.962 -15.3,7.966 L 16.534,83.966 c -8.45,0.005 -15.3,-3.555 -15.3,-7.95 L 1.193,9.066 c 0,-4.4 6.847,-7.963 15.3,-7.968 l 128.766,-0.07 c 8.452,-0.005 15.307,3.554 15.31,7.95 z" />
      <path
         style="fill:#e1e1fd"
         inkscape:connector-curvature="0"
         id="path2853"
         d="m 160.046,75.633 c 0,4.38 -6.825,7.935 -15.246,7.94 L 16.506,83.643 C 8.088,83.648 1.26,80.1 1.257,75.72 L 1.221,9 c 0,-4.381 6.822,-7.935 15.24,-7.94 L 144.755,0.99 c 8.421,-0.005 15.252,3.542 15.254,7.923 z" />
      <path
         style="fill:#e1e1fd"
         inkscape:connector-curvature="0"
         id="path2855"
         d="m 159.489,75.338 c 0,4.365 -6.8,7.907 -15.189,7.912 L 16.477,83.32 C 8.09,83.325 1.287,79.789 1.284,75.425 L 1.248,8.935 c 0,-4.366 6.8,-7.908 15.184,-7.913 l 127.823,-0.07 c 8.39,0 15.195,3.53 15.2,7.9 z" />
      <path
         style="fill:#e0e0fd"
         inkscape:connector-curvature="0"
         id="path2857"
         d="m 158.932,75.043 c 0,4.349 -6.774,7.88 -15.133,7.884 L 16.448,83 C 8.092,83 1.314,79.479 1.312,75.129 L 1.276,8.87 C 1.273,4.519 8.047,0.989 16.4,0.984 L 143.754,0.915 c 8.36,-0.005 15.14,3.517 15.142,7.868 z" />
      <path
         style="fill:#dfdffd"
         inkscape:connector-curvature="0"
         id="path2859"
         d="m 158.376,74.747 c 0,4.335 -6.749,7.853 -15.078,7.858 L 16.419,82.674 c -8.325,0 -15.078,-3.506 -15.08,-7.841 L 1.3,8.8 C 1.3,4.469 8.05,0.951 16.375,0.946 L 143.254,0.877 c 8.328,-0.005 15.084,3.505 15.086,7.841 z" />
      <path
         style="fill:#dedefd"
         inkscape:connector-curvature="0"
         id="path2861"
         d="m 157.819,74.452 c 0,4.32 -6.723,7.825 -15.021,7.83 L 16.39,82.351 C 8.096,82.351 1.368,78.857 1.366,74.538 L 1.33,8.739 C 1.328,4.418 8.052,0.913 16.346,0.908 L 142.753,0.839 c 8.3,0 15.028,3.494 15.03,7.814 z" />
      <path
         style="fill:#ddddfd"
         inkscape:connector-curvature="0"
         id="path2863"
         d="m 157.263,74.157 c 0,4.3 -6.7,7.8 -14.966,7.8 L 16.361,82.026 C 8.1,82.033 1.4,78.547 1.393,74.242 L 1.358,8.674 c 0,-4.306 6.7,-7.8 14.959,-7.8 L 142.253,0.8 c 8.267,0 14.972,3.482 14.974,7.787 z" />
      <path
         style="fill:#dcdcfd"
         inkscape:connector-curvature="0"
         id="path2865"
         d="m 156.706,73.861 c 0,4.29 -6.673,7.771 -14.909,7.776 L 16.332,81.705 C 8.1,81.71 1.423,78.236 1.42,73.946 L 1.385,8.608 c 0,-4.29 6.672,-7.771 14.9,-7.776 L 141.752,0.764 c 8.237,-0.005 14.916,3.469 14.919,7.759 z" />
      <path
         style="fill:#dcdcfd"
         inkscape:connector-curvature="0"
         id="path2867"
         d="m 156.15,73.566 c 0,4.274 -6.649,7.743 -14.854,7.748 L 16.3,81.383 C 8.1,81.383 1.447,77.925 1.445,73.651 L 1.412,8.543 C 1.41,4.268 8.059,0.8 16.259,0.794 L 141.252,0.726 c 8.2,-0.005 14.86,3.457 14.862,7.732 z" />
      <path
         style="fill:#dbdbfc"
         inkscape:connector-curvature="0"
         id="path2869"
         d="m 155.593,73.271 c 0,4.259 -6.623,7.716 -14.8,7.72 L 16.274,81.06 c -8.169,0 -14.8,-3.445 -14.8,-7.7 L 1.44,8.478 C 1.437,4.217 8.061,0.761 16.231,0.756 L 140.752,0.688 c 8.174,0 14.8,3.445 14.806,7.705 z" />
      <path
         style="fill:#dadafc"
         inkscape:connector-curvature="0"
         id="path2871"
         d="m 155.036,72.975 c 0,4.245 -6.6,7.689 -14.741,7.694 L 16.245,80.737 C 8.107,80.741 1.5,77.3 1.5,73.059 L 1.467,8.412 C 1.465,4.167 8.064,0.723 16.2,0.718 L 140.251,0.65 C 148.4,0.646 155,4.083 155,8.328 Z" />
      <path
         style="fill:#d9d9fc"
         inkscape:connector-curvature="0"
         id="path2873"
         d="m 154.48,72.68 c 0,4.229 -6.573,7.662 -14.686,7.666 L 16.217,80.414 C 8.11,80.414 1.532,76.993 1.529,72.764 L 1.494,8.347 C 1.492,4.117 8.066,0.685 16.173,0.68 L 139.751,0.613 c 8.113,-0.005 14.691,3.42 14.694,7.65 z" />
      <path
         style="fill:#d8d8fc"
         inkscape:connector-curvature="0"
         id="path2875"
         d="m 153.923,72.385 c 0,4.214 -6.547,7.634 -14.63,7.638 l -123.1,0.068 C 8.117,80.091 1.564,76.683 1.562,72.468 L 1.522,8.281 C 1.519,4.067 8.069,0.647 16.144,0.643 L 139.25,0.575 c 8.082,0 14.636,3.408 14.638,7.623 z" />
      <path
         style="fill:#d7d7fc"
         inkscape:connector-curvature="0"
         id="path2877"
         d="m 153.367,72.089 c 0,4.2 -6.523,7.607 -14.574,7.612 L 16.159,79.768 c -8.045,0 -14.573,-3.4 -14.575,-7.595 L 1.549,8.216 c 0,-4.2 6.522,-7.607 14.567,-7.611 L 138.75,0.537 c 8.051,0 14.58,3.4 14.582,7.6 z" />
      <path
         style="fill:#d7d7fc"
         inkscape:connector-curvature="0"
         id="path2879"
         d="m 152.81,71.794 c 0,4.184 -6.5,7.58 -14.518,7.584 L 16.13,79.445 C 8.116,79.445 1.613,76.061 1.611,71.877 L 1.576,8.151 c 0,-4.185 6.5,-7.58 14.511,-7.584 L 138.249,0.5 c 8.021,0 14.524,3.383 14.526,7.568 z" />
      <path
         style="fill:#d6d6fc"
         inkscape:connector-curvature="0"
         id="path2881"
         d="m 152.254,71.5 c 0,4.169 -6.473,7.552 -14.462,7.556 L 16.1,79.122 C 8.117,79.122 1.639,75.751 1.637,71.581 L 1.6,8.085 C 1.6,3.916 8.076,0.533 16.058,0.529 L 137.749,0.462 c 7.989,-0.005 14.468,3.371 14.47,7.538 z" />
      <path
         style="fill:#d5d5fc"
         inkscape:connector-curvature="0"
         id="path2883"
         d="m 151.7,71.2 c 0,4.155 -6.447,7.525 -14.406,7.53 L 16.072,78.8 C 8.121,78.8 1.672,75.441 1.665,71.287 L 1.631,8.02 C 1.629,3.866 8.078,0.5 16.029,0.491 L 137.248,0.424 c 7.959,0 14.412,3.359 14.415,7.514 z" />
    </g>
    <rect
       style="isolation:isolate;fill:url(#Unbenannter_Verlauf_21);stroke-width:0.99886"
       id="rect2889"
       rx="6.6129999"
       height="87.568993"
       width="173.63"
       y="0.4090001"
       x="0.211" />
    <g
       id="g2995"
       style="opacity:0.5;isolation:isolate;mix-blend-mode:multiply"
       transform="translate(0,2)">
      <path
         style="fill:#ffffff"
         inkscape:connector-curvature="0"
         id="path2891"
         d="m 178.716,83.357 c 0,4.792 -7.623,8.686 -17.021,8.691 l -143.261,0.08 c -9.407,0 -17.028,-3.88 -17.031,-8.672 L 1.364,10.407 c 0,-4.8 7.615,-8.687 17.021,-8.693 L 161.646,1.635 c 9.4,-0.005 17.028,3.877 17.031,8.673 z" />
      <path
         style="fill:#fefeff"
         inkscape:connector-curvature="0"
         id="path2893"
         d="m 178.154,83.079 c 0,4.776 -7.6,8.657 -16.966,8.662 L 18.394,91.82 C 9.018,91.825 1.422,87.953 1.419,83.177 L 1.38,10.366 C 1.38,5.585 8.97,1.707 18.346,1.701 L 161.14,1.622 c 9.368,-0.005 16.972,3.865 16.975,8.646 z" />
      <path
         style="fill:#fdfdff"
         inkscape:connector-curvature="0"
         id="path2895"
         d="m 177.592,82.8 c 0,4.761 -7.573,8.629 -16.91,8.634 L 18.354,91.513 C 9.009,91.513 1.437,87.659 1.435,82.898 L 1.4,10.325 C 1.4,5.56 8.965,1.694 18.31,1.689 l 142.327,-0.08 c 9.338,0 16.917,3.853 16.92,8.618 z" />
      <path
         style="fill:#fcfcff"
         inkscape:connector-curvature="0"
         id="path2897"
         d="m 177.03,82.521 c 0,4.745 -7.548,8.6 -16.855,8.606 L 18.314,91.205 C 9,91.211 1.453,87.364 1.45,82.618 L 1.411,10.283 c 0,-4.749 7.541,-8.6 16.855,-8.607 L 160.127,1.6 c 9.307,0 16.862,3.839 16.864,8.589 z" />
      <path
         style="fill:#fcfcff"
         inkscape:connector-curvature="0"
         id="path2899"
         d="m 176.468,82.242 c 0,4.73 -7.523,8.572 -16.8,8.578 L 18.274,90.9 C 8.991,90.905 1.474,87.071 1.466,82.341 l -0.039,-72.1 c 0,-4.734 7.516,-8.574 16.8,-8.579 l 141.4,-0.079 c 9.276,-0.005 16.806,3.827 16.808,8.561 z" />
      <path
         style="fill:#fbfbff"
         inkscape:connector-curvature="0"
         id="path2901"
         d="m 175.906,81.963 c 0,4.714 -7.5,8.544 -16.744,8.549 L 18.234,90.591 C 8.982,90.6 1.484,86.774 1.482,82.06 L 1.443,10.2 c 0,-4.718 7.491,-8.546 16.744,-8.551 L 159.114,1.571 c 9.246,-0.006 16.751,3.814 16.754,8.532 z" />
      <path
         style="fill:#fafaff"
         inkscape:connector-curvature="0"
         id="path2903"
         d="m 175.344,81.684 c 0,4.7 -7.473,8.516 -16.689,8.521 L 18.2,90.283 c -9.222,0 -16.695,-3.8 -16.7,-8.5 L 1.459,10.16 c 0,-4.7 7.466,-8.518 16.688,-8.523 L 158.608,1.559 c 9.216,0 16.695,3.8 16.7,8.5 z" />
      <path
         style="fill:#f9f9ff"
         inkscape:connector-curvature="0"
         id="path2905"
         d="m 174.783,81.405 c 0,4.684 -7.449,8.488 -16.634,8.493 L 18.155,89.976 C 8.964,89.976 1.516,86.185 1.513,81.502 L 1.475,10.119 c 0,-4.687 7.441,-8.49 16.632,-8.495 L 158.1,1.546 c 9.186,-0.005 16.641,3.789 16.643,8.476 z" />
      <path
         style="fill:#f8f8ff"
         inkscape:connector-curvature="0"
         id="path2907"
         d="m 174.221,81.127 c 0,4.667 -7.424,8.459 -16.579,8.464 L 18.115,89.669 C 8.955,89.674 1.531,85.89 1.529,81.223 L 1.491,10.078 c 0,-4.672 7.416,-8.462 16.577,-8.467 L 157.6,1.534 c 9.155,-0.005 16.585,3.776 16.587,8.448 z" />
      <path
         style="fill:#f7f7fe"
         inkscape:connector-curvature="0"
         id="path2909"
         d="m 173.659,80.848 c 0,4.652 -7.4,8.431 -16.523,8.436 L 18.075,89.361 C 8.946,89.361 1.547,85.596 1.544,80.943 L 1.506,10.036 C 1.5,5.381 8.9,1.6 18.028,1.6 L 157.089,1.523 c 9.124,0 16.529,3.764 16.532,8.42 z" />
      <path
         style="fill:#f7f7fe"
         inkscape:connector-curvature="0"
         id="path2911"
         d="m 173.1,80.569 c 0,4.637 -7.374,8.4 -16.468,8.408 L 18.038,89.054 c -9.1,0 -16.472,-3.753 -16.475,-8.39 L 1.522,9.995 c 0,-4.64 7.368,-8.4 16.466,-8.409 L 156.582,1.509 C 165.676,1.5 173.056,5.26 173.059,9.9 Z" />
      <path
         style="fill:#f6f6fe"
         inkscape:connector-curvature="0"
         id="path2913"
         d="m 172.535,80.29 c 0,4.621 -7.349,8.375 -16.412,8.38 L 18,88.746 C 8.933,88.751 1.583,85.006 1.581,80.385 L 1.538,9.954 c 0,-4.624 7.343,-8.376 16.41,-8.381 L 156.076,1.5 c 9.063,0 16.419,3.739 16.421,8.363 z" />
      <path
         style="fill:#f5f5fe"
         inkscape:connector-curvature="0"
         id="path2915"
         d="m 171.973,80.011 c 0,4.606 -7.324,8.347 -16.357,8.352 L 17.955,88.439 C 8.919,88.444 1.594,84.711 1.592,80.106 L 1.554,9.913 C 1.554,5.304 8.872,1.565 17.909,1.56 L 155.57,1.483 c 9.032,-0.005 16.363,3.726 16.365,8.335 z" />
      <path
         style="fill:#f4f4fe"
         inkscape:connector-curvature="0"
         id="path2917"
         d="m 171.411,79.732 c 0,4.59 -7.3,8.318 -16.3,8.323 L 17.917,88.132 C 8.91,88.132 1.611,84.417 1.608,79.827 L 1.57,9.872 c 0,-4.594 7.293,-8.32 16.3,-8.325 L 155.064,1.471 c 9,-0.005 16.308,3.713 16.311,8.306 z" />
      <path
         style="fill:#f3f3fe"
         inkscape:connector-curvature="0"
         id="path2919"
         d="m 170.849,79.453 c 0,4.575 -7.274,8.29 -16.246,8.3 L 17.876,87.829 C 8.9,87.829 1.625,84.129 1.623,79.552 L 1.585,9.831 c 0,-4.578 7.269,-8.292 16.244,-8.3 L 154.557,1.455 c 8.972,0 16.252,3.7 16.255,8.279 z" />
      <path
         style="fill:#f2f2fe"
         inkscape:connector-curvature="0"
         id="path2921"
         d="m 170.287,79.175 c 0,4.559 -7.249,8.261 -16.19,8.266 L 17.836,87.517 C 8.891,87.522 1.641,83.827 1.636,79.268 L 1.6,9.789 C 1.6,5.227 8.844,1.526 17.789,1.521 L 154.05,1.445 c 8.941,-0.005 16.2,3.689 16.2,8.251 z" />
      <path
         style="fill:#f2f2fe"
         inkscape:connector-curvature="0"
         id="path2923"
         d="m 169.725,78.9 c 0,4.543 -7.224,8.233 -16.135,8.238 L 17.8,87.21 C 8.886,87.215 1.661,83.533 1.658,78.989 L 1.617,9.748 c 0,-4.546 7.219,-8.235 16.133,-8.24 L 153.544,1.433 c 8.911,-0.005 16.142,3.675 16.144,8.222 z" />
      <path
         style="fill:#f1f1fe"
         inkscape:connector-curvature="0"
         id="path2925"
         d="m 169.164,78.617 c 0,4.528 -7.2,8.2 -16.08,8.21 L 17.756,86.9 C 8.873,86.9 1.672,83.236 1.67,78.708 l -0.037,-69 C 1.63,5.176 8.827,1.5 17.71,1.5 L 153.038,1.42 c 8.88,0 16.086,3.663 16.089,8.194 z" />
      <path
         style="fill:#f0f0fe"
         inkscape:connector-curvature="0"
         id="path2927"
         d="m 168.6,78.338 c 0,4.512 -7.175,8.177 -16.025,8.182 L 17.716,86.6 C 8.864,86.6 1.688,82.948 1.686,78.436 L 1.649,9.666 C 1.649,5.151 8.818,1.487 17.67,1.483 L 152.531,1.408 c 8.85,0 16.031,3.65 16.034,8.165 z" />
      <path
         style="fill:#efeffe"
         inkscape:connector-curvature="0"
         id="path2929"
         d="m 168.04,78.059 c 0,4.5 -7.15,8.149 -15.969,8.154 l -134.4,0.074 C 8.855,86.292 1.7,82.648 1.7,78.152 L 1.664,9.625 c 0,-4.5 7.145,-8.15 15.967,-8.155 L 152.025,1.4 C 160.844,1.39 168,5.033 168,9.532 Z" />
      <path
         style="fill:#eeeefe"
         inkscape:connector-curvature="0"
         id="path2931"
         d="m 167.478,77.78 c 0,4.482 -7.125,8.121 -15.914,8.126 L 17.636,85.98 C 8.846,85.98 1.719,82.354 1.717,77.872 L 1.68,9.583 C 1.678,5.1 8.8,1.462 17.591,1.457 L 151.519,1.382 c 8.789,0 15.92,3.625 15.922,8.109 z" />
      <path
         style="fill:#ededfe"
         inkscape:connector-curvature="0"
         id="path2933"
         d="m 166.916,77.5 c 0,4.466 -7.1,8.093 -15.858,8.1 L 17.6,85.673 c -8.76,0 -15.862,-3.614 -15.864,-8.08 L 1.7,9.542 c 0,-4.468 7.1,-8.093 15.855,-8.1 L 151.012,1.37 c 8.759,-0.005 15.865,3.612 15.867,8.081 z" />
      <path
         style="fill:#ececfe"
         inkscape:connector-curvature="0"
         id="path2935"
         d="m 166.354,77.223 c 0,4.45 -7.075,8.064 -15.8,8.068 L 17.56,85.365 C 8.831,85.37 1.754,81.765 1.751,77.314 L 1.712,9.5 c 0,-4.453 7.071,-8.065 15.8,-8.07 L 150.506,1.356 c 8.728,0 15.809,3.6 15.812,8.053 z" />
      <path
         style="fill:#ececfe"
         inkscape:connector-curvature="0"
         id="path2937"
         d="m 165.792,76.944 c 0,4.434 -7.05,8.035 -15.747,8.04 L 17.517,85.058 c -8.7,0 -15.751,-3.588 -15.753,-8.023 L 1.728,9.46 c 0,-4.437 7.046,-8.037 15.744,-8.042 L 150,1.344 c 8.7,0 15.754,3.588 15.756,8.025 z" />
      <path
         style="fill:#ebebfe"
         inkscape:connector-curvature="0"
         id="path2939"
         d="m 165.23,76.665 c 0,4.419 -7.025,8.007 -15.692,8.012 L 17.477,84.751 c -8.667,0 -15.695,-3.576 -15.7,-8 L 1.744,9.419 C 1.741,5 8.765,1.41 17.432,1.405 L 149.493,1.332 c 8.667,-0.005 15.7,3.574 15.7,8 z" />
      <path
         style="fill:#eaeafe"
         inkscape:connector-curvature="0"
         id="path2941"
         d="m 164.668,76.386 c 0,4.4 -7,7.979 -15.636,7.984 L 17.437,84.443 C 8.8,84.448 1.8,80.88 1.8,76.476 L 1.764,9.376 c 0,-4.406 7,-7.981 15.633,-7.986 l 131.6,-0.073 c 8.636,0 15.643,3.562 15.645,7.968 z" />
      <path
         style="fill:#e9e9fd"
         inkscape:connector-curvature="0"
         id="path2943"
         d="m 164.107,76.107 c 0,4.388 -6.976,7.951 -15.582,7.956 L 17.4,84.136 C 8.791,84.141 1.813,80.585 1.811,76.2 L 1.775,9.336 c 0,-4.39 6.972,-7.952 15.578,-7.957 L 148.481,1.307 c 8.605,0 15.587,3.549 15.59,7.939 z" />
      <path
         style="fill:#e8e8fd"
         inkscape:connector-curvature="0"
         id="path2945"
         d="m 163.545,75.828 c 0,4.373 -6.951,7.923 -15.526,7.928 L 17.357,83.828 c -8.575,0 -15.528,-3.537 -15.53,-7.91 L 1.791,9.3 c 0,-4.374 6.947,-7.924 15.522,-7.928 L 147.974,1.299 c 8.576,-0.005 15.533,3.537 15.535,7.911 z" />
      <path
         style="fill:#e7e7fd"
         inkscape:connector-curvature="0"
         id="path2947"
         d="m 162.983,75.549 c 0,4.357 -6.926,7.895 -15.471,7.9 L 17.317,83.521 C 8.773,83.526 1.845,80 1.842,75.639 L 1.807,9.254 c 0,-4.359 6.922,-7.9 15.466,-7.9 l 130.2,-0.073 c 8.545,0 15.477,3.524 15.479,7.884 z" />
      <path
         style="fill:#e7e7fd"
         inkscape:connector-curvature="0"
         id="path2949"
         d="m 162.421,75.271 c 0,4.341 -6.9,7.866 -15.416,7.871 L 17.278,83.214 C 8.764,83.214 1.86,79.701 1.858,75.36 L 1.823,9.213 c 0,-4.344 6.9,-7.867 15.411,-7.872 L 146.961,1.269 c 8.515,0 15.422,3.511 15.424,7.855 z" />
      <path
         style="fill:#e6e6fd"
         inkscape:connector-curvature="0"
         id="path2951"
         d="m 161.859,74.992 c 0,4.326 -6.876,7.838 -15.36,7.843 L 17.238,82.906 c -8.483,0 -15.362,-3.5 -15.364,-7.825 L 1.838,9.172 c 0,-4.328 6.873,-7.839 15.356,-7.844 L 146.455,1.256 c 8.484,-0.005 15.366,3.5 15.369,7.827 z" />
      <path
         style="fill:#e5e5fd"
         inkscape:connector-curvature="0"
         id="path2953"
         d="m 161.3,74.713 c 0,4.31 -6.851,7.81 -15.305,7.814 L 17.2,82.6 C 8.748,82.6 1.894,79.113 1.891,74.8 L 1.854,9.131 c 0,-4.313 6.848,-7.811 15.3,-7.816 l 128.8,-0.071 c 8.453,0 15.311,3.486 15.313,7.8 z" />
      <path
         style="fill:#e4e4fd"
         inkscape:connector-curvature="0"
         id="path2955"
         d="m 160.735,74.434 c 0,4.3 -6.826,7.782 -15.249,7.786 L 17.158,82.292 c -8.421,0 -15.251,-3.475 -15.253,-7.77 L 1.87,9.089 c 0,-4.3 6.824,-7.782 15.244,-7.787 L 145.442,1.231 C 153.865,1.226 160.7,4.705 160.7,9 Z" />
      <path
         style="fill:#e3e3fd"
         inkscape:connector-curvature="0"
         id="path2957"
         d="m 160.173,74.155 c 0,4.28 -6.8,7.754 -15.194,7.758 L 17.118,81.984 C 8.728,81.989 1.923,78.522 1.918,74.243 L 1.886,9.048 c 0,-4.281 6.8,-7.754 15.189,-7.759 L 144.936,1.218 c 8.392,0 15.2,3.461 15.2,7.742 z" />
      <path
         style="fill:#e2e2fd"
         inkscape:connector-curvature="0"
         id="path2959"
         d="m 159.611,73.876 c 0,4.264 -6.776,7.725 -15.138,7.73 l -127.4,0.071 C 8.714,81.677 1.934,78.228 1.932,73.964 L 1.9,9.007 C 1.9,4.742 8.674,1.281 17.033,1.276 l 127.4,-0.07 c 8.362,0 15.144,3.448 15.147,7.713 z" />
      <path
         style="fill:#e1e1fd"
         inkscape:connector-curvature="0"
         id="path2961"
         d="m 159.05,73.6 c 0,4.249 -6.752,7.7 -15.084,7.7 L 17.038,81.37 C 8.71,81.37 1.954,77.934 1.952,73.686 L 1.917,8.966 c 0,-4.25 6.75,-7.7 15.078,-7.7 L 143.923,1.195 c 8.332,-0.005 15.09,3.436 15.092,7.686 z" />
      <path
         style="fill:#e1e1fd"
         inkscape:connector-curvature="0"
         id="path2963"
         d="m 158.488,73.319 c 0,4.232 -6.727,7.668 -15.028,7.673 L 17,81.062 C 8.7,81.062 1.971,77.638 1.969,73.405 L 1.933,8.925 c 0,-4.234 6.725,-7.67 15.023,-7.674 L 143.417,1.18 c 8.3,0 15.034,3.424 15.036,7.658 z" />
      <path
         style="fill:#e0e0fd"
         inkscape:connector-curvature="0"
         id="path2965"
         d="m 157.926,73.04 c 0,4.217 -6.7,7.64 -14.973,7.645 L 16.959,80.755 C 8.692,80.755 1.986,77.344 1.984,73.126 L 1.949,8.883 c 0,-4.218 6.7,-7.641 14.967,-7.645 l 126,-0.07 c 8.27,0 14.978,3.41 14.98,7.629 z" />
      <path
         style="fill:#dfdffd"
         inkscape:connector-curvature="0"
         id="path2967"
         d="m 157.364,72.761 c 0,4.2 -6.677,7.612 -14.917,7.617 L 16.919,80.447 c -8.236,0 -14.917,-3.4 -14.92,-7.6 l -0.034,-64 c 0,-4.2 6.675,-7.612 14.911,-7.617 L 142.4,1.155 c 8.24,0 14.923,3.4 14.926,7.6 z" />
      <path
         style="fill:#dedefd"
         inkscape:connector-curvature="0"
         id="path2969"
         d="m 156.8,72.482 c 0,4.186 -6.652,7.584 -14.862,7.588 L 16.877,80.14 C 8.672,80.14 2.015,76.754 2.013,72.568 L 1.981,8.8 c 0,-4.187 6.65,-7.584 14.856,-7.589 L 141.9,1.143 c 8.209,-0.005 14.867,3.385 14.87,7.572 z" />
      <path
         style="fill:#ddddfd"
         inkscape:connector-curvature="0"
         id="path2971"
         d="m 156.24,72.2 c 0,4.171 -6.627,7.556 -14.806,7.56 L 16.839,79.83 C 8.664,79.83 2.033,76.456 2.031,72.286 L 2,8.76 C 1.994,4.588 8.622,1.2 16.8,1.2 L 141.391,1.13 c 8.179,0 14.813,3.373 14.815,7.544 z" />
      <path
         style="fill:#dcdcfd"
         inkscape:connector-curvature="0"
         id="path2973"
         d="m 155.678,71.924 c 0,4.155 -6.6,7.528 -14.751,7.532 L 16.8,79.525 C 8.656,79.525 2.05,76.165 2.047,72.01 L 2.012,8.719 c 0,-4.156 6.6,-7.528 14.745,-7.533 L 140.885,1.117 c 8.149,0 14.757,3.36 14.759,7.516 z" />
      <path
         style="fill:#dcdcfd"
         inkscape:connector-curvature="0"
         id="path2975"
         d="m 155.116,71.645 c 0,4.14 -6.577,7.5 -14.7,7.5 L 16.754,79.214 c -8.113,0 -14.695,-3.348 -14.7,-7.488 L 2.028,8.678 c 0,-4.141 6.576,-7.5 14.689,-7.505 L 140.379,1.105 c 8.118,0 14.7,3.347 14.7,7.488 z" />
      <path
         style="fill:#dbdbfc"
         inkscape:connector-curvature="0"
         id="path2977"
         d="m 154.554,71.366 c 0,4.125 -6.552,7.472 -14.64,7.476 L 16.719,78.91 C 8.637,78.915 2.08,75.575 2.078,71.451 L 2.044,8.636 c 0,-4.124 6.551,-7.471 14.634,-7.475 L 139.872,1.092 c 8.088,0 14.646,3.335 14.649,7.46 z" />
      <path
         style="fill:#dadafc"
         inkscape:connector-curvature="0"
         id="path2979"
         d="m 153.993,71.088 c 0,4.108 -6.528,7.442 -14.585,7.447 L 16.68,78.6 C 8.628,78.608 2.1,75.281 2.093,71.172 L 2.06,8.6 C 2.06,4.491 8.587,1.157 16.638,1.153 L 139.366,1.084 c 8.057,0 14.591,3.323 14.593,7.432 z" />
      <path
         style="fill:#d9d9fc"
         inkscape:connector-curvature="0"
         id="path2981"
         d="m 153.431,70.809 c 0,4.093 -6.5,7.414 -14.53,7.419 L 16.64,78.3 C 8.619,78.3 2.111,74.99 2.109,70.9 L 2.076,8.554 c 0,-4.093 6.5,-7.415 14.522,-7.419 L 138.86,1.067 c 8.026,0 14.535,3.309 14.537,7.4 z" />
      <path
         style="fill:#d8d8fc"
         inkscape:connector-curvature="0"
         id="path2983"
         d="m 152.869,70.53 c 0,4.077 -6.478,7.386 -14.474,7.391 l -121.8,0.067 c -7.99,0 -14.473,-3.3 -14.475,-7.374 L 2.086,8.514 c 0,-4.078 6.478,-7.387 14.468,-7.391 L 138.348,1.055 c 8,0 14.48,3.3 14.482,7.375 z" />
      <path
         style="fill:#d7d7fc"
         inkscape:connector-curvature="0"
         id="path2985"
         d="m 152.307,70.251 c 0,4.062 -6.453,7.358 -14.419,7.363 L 16.56,77.681 C 8.6,77.685 2.143,74.4 2.14,70.334 L 2.107,8.472 C 2.107,4.409 8.56,1.113 16.519,1.109 L 137.847,1.042 c 7.965,-0.005 14.424,3.284 14.427,7.346 z" />
      <path
         style="fill:#d7d7fc"
         inkscape:connector-curvature="0"
         id="path2987"
         d="m 151.745,69.972 c 0,4.047 -6.428,7.33 -14.363,7.334 L 16.52,77.374 C 8.592,77.374 2.158,74.102 2.156,70.055 L 2.123,8.431 c 0,-4.047 6.428,-7.33 14.356,-7.335 L 137.341,1.029 c 7.935,0 14.369,3.272 14.371,7.318 z" />
      <path
         style="fill:#d6d6fc"
         inkscape:connector-curvature="0"
         id="path2989"
         d="m 151.183,69.693 c 0,4.031 -6.4,7.3 -14.308,7.306 L 16.48,77.066 c -7.9,0 -14.306,-3.259 -14.308,-7.29 L 2.139,8.389 c 0,-4.031 6.4,-7.3 14.3,-7.306 l 120.4,-0.067 c 7.905,0 14.314,3.259 14.316,7.291 z" />
      <path
         style="fill:#d5d5fc"
         inkscape:connector-curvature="0"
         id="path2991"
         d="m 150.621,69.414 c 0,4.016 -6.378,7.274 -14.252,7.278 L 16.44,76.759 C 8.574,76.759 2.19,73.512 2.187,69.497 L 2.155,8.348 C 2.155,4.333 8.533,1.075 16.4,1.07 L 136.328,1 c 7.872,0 14.258,3.25 14.26,7.266 z" />
      <path
         style="fill:#d4d4fc"
         inkscape:connector-curvature="0"
         id="path2993"
         d="m 150.059,69.136 c 0,4 -6.353,7.245 -14.2,7.249 L 16.4,76.451 C 8.565,76.456 2.205,73.218 2.2,69.218 L 2.17,8.307 c 0,-4 6.354,-7.245 14.19,-7.249 L 135.822,0.991 c 7.843,0 14.2,3.234 14.2,7.234 z" />
    </g>
    <rect
       style="isolation:isolate;fill:url(#Unbenannter_Verlauf_11)"
       id="rect2997"
       rx="6.559"
       height="86.815002"
       width="172.67599"
       y="0.68599987"
       x="0.68800002" />
    <g
       style="opacity:1;isolation:isolate;fill:#3b6bb5;fill-opacity:1"
       id="g3013">
      <path
         style="fill:#3b6bb5;fill-opacity:1"
         inkscape:connector-curvature="0"
         id="path3005"
         d="m 94.774,31.354 q -0.82,0.018 -3.511,4.843 a 16.482,16.482 0 0 1 -1.063,1.771 1.367,1.367 0 0 1 -0.552,0.259 2.527,2.527 0 0 1 -0.666,0.114 q -0.591,0 -0.591,-2.293 a 34.548,34.548 0 0 1 0.555,-4.676 13.716,13.716 0 0 0 0.231,-1.96 c 0,-0.387 0.172,-0.58 0.519,-0.58 q 0.981,0 0.981,1.406 a 19.426,19.426 0 0 1 -0.327,2.584 q -0.379,2.2 -0.388,2.672 a 12.654,12.654 0 0 0 1.605,-2.312 17.171,17.171 0 0 1 2.211,-3.1 2.163,2.163 0 0 1 1.469,-0.655 q 0.575,0 0.914,0.765 a 12.424,12.424 0 0 1 0.41,3.647 4.028,4.028 0 0 0 0.132,1.073 c 0.077,0.234 0.132,0.351 0.167,0.351 q 0.416,0 1.8,-2.812 a 10.14,10.14 0 0 1 1.443,-2.259 2.07,2.07 0 0 1 1.557,-0.773 1.086,1.086 0 0 1 1.041,0.733 7.407,7.407 0 0 1 0.469,2.176 19.863,19.863 0 0 0 0.42,2.672 2.075,2.075 0 0 0 1.018,1.555 c 0.335,0.159 0.5,0.343 0.5,0.554 a 0.866,0.866 0 0 1 -0.424,0.633 1.315,1.315 0 0 1 -0.776,0.325 1.547,1.547 0 0 1 -1.262,-0.861 9.839,9.839 0 0 1 -0.839,-3.727 15.135,15.135 0 0 0 -0.237,-1.635 c -0.077,-0.322 -0.2,-0.483 -0.362,-0.483 q -0.369,0 -0.877,0.7 a 28.024,28.024 0 0 0 -1.641,2.862 15.62,15.62 0 0 1 -1.337,2.237 1.22,1.22 0 0 1 -0.878,0.557 0.924,0.924 0 0 1 -0.678,-0.3 1.347,1.347 0 0 1 -0.38,-0.729 q -0.081,-0.426 -0.168,-2.1 a 8.439,8.439 0 0 0 -0.485,-3.234 z" />
      <path
         style="fill:#3b6bb5;fill-opacity:1"
         inkscape:connector-curvature="0"
         id="path3007"
         d="m 114.24,35.327 q 0,0.9 -1.593,2.162 a 5.235,5.235 0 0 1 -3.287,1.266 2.843,2.843 0 0 1 -2.193,-0.835 3.3,3.3 0 0 1 -0.772,-2.329 7.844,7.844 0 0 1 1.7,-4.782 4.74,4.74 0 0 1 3.723,-2.267 1.451,1.451 0 0 1 1.5,1.467 3.562,3.562 0 0 1 -1.333,2.593 17.059,17.059 0 0 1 -3.564,2.435 0.7,0.7 0 0 0 -0.459,0.615 1.612,1.612 0 0 0 0.424,1.169 1.663,1.663 0 0 0 1.253,0.439 5.533,5.533 0 0 0 3.874,-2.091 c 0.193,-0.194 0.34,-0.29 0.441,-0.29 0.191,0 0.286,0.149 0.286,0.448 z m -6.133,-1.371 q 3.743,-2.216 3.742,-3.56 0,-0.526 -0.477,-0.527 a 2.716,2.716 0 0 0 -1.83,1.186 6.84,6.84 0 0 0 -1.435,2.901 z" />
      <path
         style="fill:#3b6bb5;fill-opacity:1"
         inkscape:connector-curvature="0"
         id="path3009"
         d="m 117.77,36.355 a 6.988,6.988 0 0 0 0.186,1.5 1.288,1.288 0 0 1 0.035,0.264 c 0,0.1 -0.1,0.241 -0.291,0.409 a 0.94,0.94 0 0 1 -0.618,0.25 q -0.856,0 -0.856,-1.565 a 30.566,30.566 0 0 1 0.67,-5.115 12.064,12.064 0 0 0 0.23,-1.5 2.016,2.016 0 0 1 0.2,-0.944 0.627,0.627 0 0 1 0.573,-0.392 1.079,1.079 0 0 1 0.71,0.216 0.617,0.617 0 0 1 0.261,0.479 2.63,2.63 0 0 1 -0.124,0.694 32.655,32.655 0 0 0 -0.82,3.322 15.434,15.434 0 0 0 -0.156,2.382 z m 1.157,-9.817 q -0.186,0 -0.284,-0.4 a 2.276,2.276 0 0 0 -0.1,-0.272 2.662,2.662 0 0 1 -0.237,-0.993 1,1 0 0 1 0.418,-0.717 1.386,1.386 0 0 1 0.931,-0.364 1.114,1.114 0 0 1 0.573,0.2 q 0.32,0.2 0.319,0.383 a 3.923,3.923 0 0 1 -0.217,0.984 1.469,1.469 0 0 1 -0.688,0.936 1.782,1.782 0 0 1 -0.715,0.243 z" />
      <path
         style="fill:#3b6bb5;fill-opacity:1"
         inkscape:connector-curvature="0"
         id="path3011"
         d="m 127.317,31.548 a 1.475,1.475 0 0 0 -1,0.6 15.915,15.915 0 0 0 -1.654,2.681 17.66,17.66 0 0 1 -1.893,3.182 1.2,1.2 0 0 1 -0.709,0.386 q -1.042,0 -1.042,-1 a 7.069,7.069 0 0 1 0.141,-1.2 31.155,31.155 0 0 0 0.485,-5.6 1.328,1.328 0 0 1 0.288,-0.742 c 0.191,-0.273 0.371,-0.409 0.543,-0.409 a 0.737,0.737 0 0 1 0.652,0.281 2.225,2.225 0 0 1 0.194,1.134 25.113,25.113 0 0 1 -0.529,3.656 8.508,8.508 0 0 0 -0.177,1.16 c 0,0.094 0.024,0.141 0.071,0.141 a 10.091,10.091 0 0 0 1.226,-2.1 13.7,13.7 0 0 1 1.933,-3.005 2.487,2.487 0 0 1 1.827,-0.871 1.512,1.512 0 0 1 1.292,0.721 6.266,6.266 0 0 1 0.727,2.628 15.792,15.792 0 0 0 0.447,2.7 c 0.131,0.355 0.342,0.531 0.631,0.531 a 1.716,1.716 0 0 0 0.688,-0.193 0.278,0.278 0 0 1 0.105,-0.035 q 0.379,0 0.38,0.439 a 1.169,1.169 0 0 1 -0.52,0.823 1.9,1.9 0 0 1 -1.254,0.434 1.328,1.328 0 0 1 -1.16,-0.593 8.537,8.537 0 0 1 -0.649,-3.168 q -0.248,-2.581 -1.043,-2.581 z" />
    </g>
    <g
       style="opacity:1;isolation:isolate;fill:#3b6bb5;fill-opacity:1"
       id="g3029">
      <path
         style="fill:#3b6bb5;fill-opacity:1"
         inkscape:connector-curvature="0"
         id="path3015"
         d="m 94.578,49.4 q 0,-1.038 -0.541,-1.269 A 3.442,3.442 0 0 0 92.688,47.9 6.852,6.852 0 0 0 89.672,48.553 q -1.353,0.651 -1.353,1.566 a 1.439,1.439 0 0 0 0.6,1.144 8.474,8.474 0 0 0 2.615,1.075 9.491,9.491 0 0 1 2.781,1.16 1.743,1.743 0 0 1 0.828,1.441 2.65,2.65 0 0 1 -1.154,1.84 7.851,7.851 0 0 1 -2.779,1.5 9.445,9.445 0 0 1 -2.766,0.516 3.622,3.622 0 0 1 -1.439,-0.223 c -0.326,-0.148 -0.49,-0.335 -0.49,-0.559 a 1.518,1.518 0 0 1 0.145,-0.574 c 0.1,-0.226 0.194,-0.34 0.294,-0.34 a 1.033,1.033 0 0 1 0.322,0.055 4.745,4.745 0 0 0 1.662,0.312 6.856,6.856 0 0 0 3.146,-0.863 q 1.662,-0.863 1.663,-1.613 0,-0.321 -0.506,-0.613 a 17.03,17.03 0 0 0 -2.561,-0.942 6.95,6.95 0 0 1 -3.134,-1.566 2.6,2.6 0 0 1 -0.584,-1.606 2.964,2.964 0 0 1 1.875,-2.621 8.246,8.246 0 0 1 3.922,-1 3.954,3.954 0 0 1 2.086,0.457 1.26,1.26 0 0 1 0.729,1.012 2.748,2.748 0 0 1 -0.165,0.773 0.765,0.765 0 0 1 -0.831,0.516 z" />
      <path
         style="fill:#3b6bb5;fill-opacity:1"
         inkscape:connector-curvature="0"
         id="path3017"
         d="m 100.618,50.232 q 0.807,-0.063 1.522,-0.148 a 11.05,11.05 0 0 1 1.175,-0.078 1.588,1.588 0 0 1 0.754,0.109 0.435,0.435 0 0 1 0.157,0.383 q 0,0.633 -0.887,0.687 -1.137,0.07 -2.094,0.2 a 3.479,3.479 0 0 0 -1.031,0.207 14.062,14.062 0 0 0 -0.475,1.859 14.067,14.067 0 0 0 -0.4,2.309 1.972,1.972 0 0 0 0.228,1.144 0.816,0.816 0 0 0 0.682,0.285 3.466,3.466 0 0 0 1.875,-1.008 1.312,1.312 0 0 1 0.713,-0.414 q 0.337,0 0.338,0.36 0,0.563 -1.086,1.457 a 3.483,3.483 0 0 1 -2.225,0.894 q -1.9,0 -1.9,-2.226 a 12.332,12.332 0 0 1 0.391,-2.492 14.777,14.777 0 0 0 0.385,-2.016 c 0,-0.078 -0.062,-0.117 -0.187,-0.117 l -0.817,0.07 q -1,0 -1,-0.8 a 0.405,0.405 0 0 1 0.463,-0.453 h 1.615 A 0.375,0.375 0 0 0 99.1,50.3 a 3.883,3.883 0 0 0 0.369,-1 q 0.243,-0.849 0.431,-1.676 c 0.126,-0.547 0.371,-0.821 0.738,-0.821 a 0.637,0.637 0 0 1 0.525,0.235 0.718,0.718 0 0 1 0.187,0.437 10.072,10.072 0 0 1 -0.281,1.117 z" />
      <path
         style="fill:#3b6bb5;fill-opacity:1"
         inkscape:connector-curvature="0"
         id="path3019"
         d="m 110.493,54.716 a 10.809,10.809 0 0 1 -2.055,2.6 3.087,3.087 0 0 1 -1.953,0.922 1.477,1.477 0 0 1 -1.055,-0.6 2.712,2.712 0 0 1 -0.537,-1.851 13.764,13.764 0 0 1 0.494,-3.016 11.464,11.464 0 0 0 0.415,-2.336 0.751,0.751 0 0 1 0.715,-0.469 0.659,0.659 0 0 1 0.525,0.231 0.728,0.728 0 0 1 0.195,0.48 4.785,4.785 0 0 1 -0.384,1.555 9.951,9.951 0 0 0 -0.729,3.367 q 0,1.283 0.6,1.282 0.761,0 1.937,-1.29 a 10.727,10.727 0 0 0 2.012,-3.591 5.315,5.315 0 0 1 0.537,-1.2 0.666,0.666 0 0 1 0.561,-0.278 q 0.534,0 0.534,0.7 a 3.481,3.481 0 0 1 -0.15,0.571 12.232,12.232 0 0 0 -0.47,3.234 3.256,3.256 0 0 0 0.6,2.367 q 0.314,0.289 0.313,0.469 c 0,0.145 -0.105,0.278 -0.317,0.4 a 1.19,1.19 0 0 1 -0.577,0.18 q -0.547,0 -0.886,-0.812 a 6.552,6.552 0 0 1 -0.337,-2.4 v -0.258 c 0.004,-0.082 0.006,-0.168 0.012,-0.257 z" />
      <path
         style="fill:#3b6bb5;fill-opacity:1"
         inkscape:connector-curvature="0"
         id="path3021"
         d="m 120.376,54.881 a 9.755,9.755 0 0 1 -2.229,2.589 3.647,3.647 0 0 1 -2.164,0.911 1.436,1.436 0 0 1 -1.2,-0.582 2.5,2.5 0 0 1 -0.443,-1.551 6.662,6.662 0 0 1 1.612,-4.055 4.482,4.482 0 0 1 3.479,-2.078 2.114,2.114 0 0 1 1.513,0.7 l 1.1,-5.109 a 1,1 0 0 1 0.436,-0.7 1.121,1.121 0 0 1 0.5,-0.18 q 0.548,0 0.548,0.969 a 8.2,8.2 0 0 1 -0.36,1.281 37.454,37.454 0 0 0 -1.087,4.223 21.084,21.084 0 0 0 -0.513,4.019 q 0,1.563 0.682,1.563 a 1.739,1.739 0 0 0 0.909,-0.289 0.644,0.644 0 0 1 0.369,-0.141 c 0.168,0 0.251,0.109 0.251,0.328 0,0.266 -0.233,0.573 -0.7,0.922 a 2.38,2.38 0 0 1 -1.439,0.523 q -1.293,0 -1.293,-2.484 c -0.01,-0.289 0.002,-0.573 0.029,-0.859 z m -1.027,-3.657 a 3.353,3.353 0 0 0 -2.519,1.715 5.526,5.526 0 0 0 -1.247,3.168 q 0,0.977 0.65,0.977 a 2.7,2.7 0 0 0 1.487,-0.641 7.906,7.906 0 0 0 1.8,-2.043 4.515,4.515 0 0 0 0.926,-2.1 1.085,1.085 0 0 0 -0.318,-0.707 0.994,0.994 0 0 0 -0.779,-0.369 z" />
      <path
         style="fill:#3b6bb5;fill-opacity:1"
         inkscape:connector-curvature="0"
         id="path3023"
         d="m 126.5,55.959 h 0.173 a 0.633,0.633 0 0 1 0.337,0.136 0.429,0.429 0 0 1 0.2,0.371 1.148,1.148 0 0 1 -0.165,0.688 2.458,2.458 0 0 1 -0.529,0.484 A 1.151,1.151 0 0 1 126,57.9 0.693,0.693 0 0 1 125.514,57.752 c -0.105,-0.1 -0.157,-0.371 -0.157,-0.813 a 2.063,2.063 0 0 1 0.071,-0.734 0.533,0.533 0 0 1 0.341,-0.184 3.218,3.218 0 0 1 0.731,-0.062 z" />
      <path
         style="fill:#3b6bb5;fill-opacity:1"
         inkscape:connector-curvature="0"
         id="path3025"
         d="m 132.58,47.763 q -0.047,0.3 -0.525,2.18 a 11.476,11.476 0 0 0 -0.3,1.484 c -0.031,0.271 -0.071,0.566 -0.117,0.883 a 21.307,21.307 0 0 0 -0.315,2.735 17.537,17.537 0 0 0 0.133,2.164 0.98,0.98 0 0 1 -0.219,0.89 0.89,0.89 0 0 1 -0.6,0.274 0.6,0.6 0 0 1 -0.588,-0.473 5.03,5.03 0 0 1 -0.165,-1.527 20.286,20.286 0 0 1 0.314,-3.047 c 0.072,-0.489 0.114,-0.784 0.125,-0.883 a 4.909,4.909 0 0 1 0.063,-0.547 c 0.026,-0.182 0.046,-0.364 0.062,-0.547 a 14.977,14.977 0 0 1 0.283,-1.9 q 0.173,-0.883 0.25,-1.555 a 2.684,2.684 0 0 1 0.126,-0.633 0.974,0.974 0 0 1 0.364,-0.359 0.953,0.953 0 0 1 0.444,-0.2 0.526,0.526 0 0 1 0.494,0.316 1.575,1.575 0 0 1 0.171,0.745 z" />
      <path
         style="fill:#3b6bb5;fill-opacity:1"
         inkscape:connector-curvature="0"
         id="path3027"
         d="m 135.757,48.841 c -0.3,-0.1 -0.447,-0.372 -0.447,-0.8 q 0,-0.508 2.074,-0.988 a 16.306,16.306 0 0 1 3.62,-0.481 4.655,4.655 0 0 1 2.714,0.7 2.174,2.174 0 0 1 1,1.867 3.839,3.839 0 0 1 -1.911,3.094 13.214,13.214 0 0 1 -5.148,2.008 2.792,2.792 0 0 0 -0.961,0.285 4.476,4.476 0 0 0 -0.165,1.391 q -0.059,1.277 -0.059,1.777 a 1,1 0 0 1 -0.223,0.633 0.655,0.655 0 0 1 -0.522,0.281 c -0.461,0 -0.69,-0.309 -0.69,-0.93 q 0,-0.507 0.282,-2.828 l 0.557,-4.633 a 4.836,4.836 0 0 0 0.011,-0.671 1.283,1.283 0 0 0 -0.132,-0.705 z m 1.631,-0.445 a 7.009,7.009 0 0 0 -0.11,0.836 q -0.109,1.086 -0.274,2.4 c -0.058,0.458 -0.112,0.956 -0.165,1.492 a 13.28,13.28 0 0 0 4.581,-1.438 q 2,-1.084 2,-2.383 0,-1.593 -2.479,-1.593 a 10.662,10.662 0 0 0 -3.553,0.69 z" />
    </g>
    <rect
       style="isolation:isolate;fill:none"
       y="0"
       x="0"
       id="rect3031"
       height="94.794998"
       width="179.536" />
    <path
       style="fill:#3c6bb4;stroke-width:1.04419303;fill-opacity:1"
       inkscape:connector-curvature="0"
       id="path1073"
       d="M 68.665513,60.982136 56.601668,57.627483 a 30.50962,31.022638 0 0 1 -4.425826,2.070071 14.014771,14.250429 0 0 1 -7.588314,0.421175 c -3.520779,-0.675985 -6.901762,-3.136695 -7.616273,-3.49364 -0.485661,-0.243228 -10.921662,4.710833 -10.921662,4.710833 a 49.515613,50.348216 0 0 1 3.497997,-28.410305 19.225524,19.5488 0 0 1 5.425106,-7.28105 c 1.439376,-1.187711 5.681915,-4.69188 10.850211,-4.001155 a 10.362481,10.536725 0 0 1 1.855658,0.428545 16.016437,16.285753 0 0 1 8.851652,1.713126 19.364284,19.689893 0 0 1 3.547703,2.421752 22.225435,22.599154 0 0 1 3.162487,3.502063 c 1.832877,2.564952 4.775833,8.653025 5.63946,18.487442 A 59.779719,60.784912 0 0 1 68.665513,60.982136 Z M 60.74169,45.207056 c -1.665121,-2.299611 -7.125435,-3.237776 -8.70875,-3.497851 -5.473776,-0.899207 -4.885599,-0.533839 -6.067131,-0.927636 -4.716808,-1.573086 -5.412679,-4.502353 -7.495117,-4.069596 -2.580523,0.536997 -4.134843,5.580558 -3.7838,9.42272 a 12.143581,12.347774 0 0 0 1.139074,4.068542 15.447935,15.707691 0 0 0 5.710911,6.781958 12.145652,12.34988 0 0 0 6.495837,2.355416 c 5.221108,0.120035 8.733602,-3.895861 9.636579,-4.925632 a 17.858633,18.158925 0 0 0 2.71307,-4.639234 C 61.126905,48.21424 61.547327,46.9981 61.095839,45.849347 A 2.899465,2.9482193 0 0 0 60.74169,45.207056 Z" />
  </g>
</svg>
