<?xml version="1.0" encoding="UTF-8" standalone="no"?>
<svg
   xmlns:dc="http://purl.org/dc/elements/1.1/"
   xmlns:cc="http://creativecommons.org/ns#"
   xmlns:rdf="http://www.w3.org/1999/02/22-rdf-syntax-ns#"
   xmlns:svg="http://www.w3.org/2000/svg"
   xmlns="http://www.w3.org/2000/svg"
   xmlns:sodipodi="http://sodipodi.sourceforge.net/DTD/sodipodi-0.dtd"
   xmlns:inkscape="http://www.inkscape.org/namespaces/inkscape"
   viewBox="0 0 230.225 104.959"
   version="1.1"
   id="svg2138"
   sodipodi:docname="8_digital.svg"
   inkscape:version="0.92.4 (5da689c313, 2019-01-14)">
  <metadata
     id="metadata2142">
    <rdf:RDF>
      <cc:Work
         rdf:about="">
        <dc:format>image/svg+xml</dc:format>
        <dc:type
           rdf:resource="http://purl.org/dc/dcmitype/StillImage" />
        <dc:title>8_digital</dc:title>
      </cc:Work>
    </rdf:RDF>
  </metadata>
  <sodipodi:namedview
     pagecolor="#ffffff"
     bordercolor="#666666"
     borderopacity="1"
     objecttolerance="10"
     gridtolerance="10"
     guidetolerance="10"
     inkscape:pageopacity="0"
     inkscape:pageshadow="2"
     inkscape:window-width="1920"
     inkscape:window-height="1018"
     id="namedview2140"
     showgrid="false"
     inkscape:zoom="3"
     inkscape:cx="115.1125"
     inkscape:cy="52.4795"
     inkscape:window-x="1912"
     inkscape:window-y="-8"
     inkscape:window-maximized="1"
     inkscape:current-layer="svg2138" />
  <defs
     id="defs1632">
    <linearGradient
       id="Unbenannter_Verlauf_31"
       data-name="Unbenannter Verlauf 31"
       x1="2.441"
       y1="34.864"
       x2="225.377"
       y2="64.126"
       gradientUnits="userSpaceOnUse">
      <stop
         offset="0.062"
         stop-color="#7a8edd"
         stop-opacity="0.9"
         id="stop1625" />
      <stop
         offset="0.533"
         stop-color="#6176c0"
         stop-opacity="0.9"
         id="stop1627" />
      <stop
         offset="0.9"
         stop-color="#6075bf"
         stop-opacity="0.9"
         id="stop1629" />
    </linearGradient>
  </defs>
  <title
     id="title1634">8_digital</title>
  <rect
     style="opacity:1;fill:#ffffff;fill-opacity:1;stroke-width:1.00072491"
     id="rect1329"
     width="230.17532"
     height="104.959"
     x="-0.12333334"
     y="0" />
  <g
     style="isolation:isolate;mix-blend-mode:multiply"
     id="g1740">
    <path
       d="m 215.39,93.2 c 0,5.448 -9.249,9.874 -20.654,9.88 L 20.9,103.17 C 9.491,103.176 0.243,98.76 0.24,93.313 L 0.194,10.269 C 0.191,4.816 9.434,0.393 20.847,0.386 L 194.679,0.292 c 11.4,-0.007 20.662,4.407 20.665,9.86 z"
       id="path1636"
       inkscape:connector-curvature="0"
       style="fill:#ffffff" />
    <path
       d="m 214.508,92.893 c 0,5.43 -9.17,9.929 -20.527,9.936 L 20.826,102.922 C 9.46,102.928 0.243,98.614 0.24,93.184 L 0.2,10.237 C 0.215,4.765 9.356,0.391 20.635,0.388 l 173.248,-0.1 c 11.358,-0.006 20.576,4.393 20.579,9.828 z"
       id="path1638"
       inkscape:connector-curvature="0"
       style="fill:#fefeff" />
    <path
       d="m 213.627,92.591 c 0,5.412 -9.091,9.985 -20.4,9.991 L 20.75,102.673 C 9.429,102.679 0.243,98.467 0.24,93.055 L 0.207,10.205 C 0.239,4.714 9.278,0.389 20.424,0.389 l 172.663,-0.1 c 11.311,-0.007 20.491,4.378 20.494,9.8 z"
       id="path1640"
       inkscape:connector-curvature="0"
       style="fill:#fdfdff" />
    <path
       d="m 212.746,92.289 c 0,5.394 -9.012,10.04 -20.276,10.046 l -171.8,0.089 C 9.4,102.43 0.243,98.321 0.24,92.926 L 0.214,10.173 C 0.263,4.663 9.2,0.387 20.212,0.39 L 192.291,0.29 C 203.555,0.287 212.7,4.657 212.7,10.057 Z"
       id="path1642"
       inkscape:connector-curvature="0"
       style="fill:#fcfcff" />
    <path
       d="m 211.865,91.987 c 0,5.377 -8.933,10.095 -20.15,10.1 L 20.593,102.175 C 9.368,102.182 0.243,98.174 0.24,92.8 L 0.221,10.14 C 0.287,4.612 9.123,0.385 20,0.391 l 171.5,-0.1 c 11.217,-0.007 20.321,4.35 20.324,9.731 z"
       id="path1644"
       inkscape:connector-curvature="0"
       style="fill:#fcfcff" />
    <path
       d="m 210.983,91.684 c 0,5.36 -8.853,10.151 -20.023,10.158 L 20.515,101.927 C 9.338,101.933 0.243,98.027 0.24,92.668 L 0.228,10.108 C 0.312,4.561 9.046,0.383 19.788,0.392 L 190.7,0.294 c 11.17,-0.006 20.236,4.336 20.239,9.7 z"
       id="path1646"
       inkscape:connector-curvature="0"
       style="fill:#fbfbff" />
    <path
       d="m 210.1,91.382 c 0,5.342 -8.775,10.207 -19.9,10.213 l -169.768,0.083 c -11.13,0.007 -20.195,-3.8 -20.2,-9.139 L 0.234,10.076 C 0.336,4.51 8.968,0.381 19.576,0.393 L 189.9,0.294 c 11.123,-0.006 20.151,4.322 20.154,9.668 z"
       id="path1648"
       inkscape:connector-curvature="0"
       style="fill:#fafaff" />
    <path
       d="m 209.221,91.08 c 0,5.324 -8.7,10.262 -19.772,10.268 L 20.359,101.43 C 9.276,101.436 0.242,97.73 0.239,92.41 V 10.044 C 0.36,4.459 8.89,0.379 19.364,0.394 L 189.107,0.3 c 11.076,-0.011 20.066,4.3 20.069,9.63 z"
       id="path1650"
       inkscape:connector-curvature="0"
       style="fill:#f9f9ff" />
    <path
       d="m 208.339,90.778 c 0,5.306 -8.616,10.317 -19.645,10.323 l -168.413,0.08 C 9.246,101.187 0.242,97.588 0.239,92.281 L 0.248,10.012 C 0.384,4.407 8.813,0.377 19.152,0.4 L 188.311,0.3 c 11.029,-0.006 19.98,4.293 19.983,9.6 z"
       id="path1652"
       inkscape:connector-curvature="0"
       style="fill:#f8f8ff" />
    <path
       d="m 207.458,90.476 c 0,5.288 -8.537,10.372 -19.519,10.378 L 20.2,100.933 C 9.215,100.939 0.242,97.441 0.239,92.153 L 0.255,9.98 C 0.408,4.356 8.735,0.375 18.941,0.4 L 187.515,0.3 c 10.982,-0.006 19.9,4.278 19.9,9.571 z"
       id="path1654"
       inkscape:connector-curvature="0"
       style="fill:#f7f7fe" />
    <path
       d="m 206.577,90.173 c 0,5.271 -8.458,10.429 -19.393,10.435 L 20.126,100.684 C 9.185,100.69 0.242,97.3 0.239,92.024 L 0.261,9.948 C 0.433,4.305 8.658,0.373 18.729,0.4 l 167.99,-0.1 c 10.936,-0.006 19.81,4.264 19.813,9.539 z"
       id="path1656"
       inkscape:connector-curvature="0"
       style="fill:#f7f7fe" />
    <path
       d="m 205.7,89.871 c 0,5.254 -8.378,10.484 -19.267,10.49 l -166.38,0.074 C 9.154,100.441 0.242,97.148 0.239,91.9 L 0.268,9.916 C 0.457,4.254 8.58,0.371 18.517,0.4 L 185.923,0.3 c 10.889,-0.009 19.725,4.246 19.728,9.5 z"
       id="path1658"
       inkscape:connector-curvature="0"
       style="fill:#f6f6fe" />
    <path
       d="m 204.814,89.569 c 0,5.236 -8.3,10.539 -19.141,10.545 l -165.7,0.073 C 9.123,100.193 0.242,97 0.239,91.766 L 0.275,9.884 C 0.481,4.2 8.5,0.37 18.305,0.4 L 185.127,0.3 c 10.842,-0.006 19.64,4.236 19.643,9.475 z"
       id="path1660"
       inkscape:connector-curvature="0"
       style="fill:#f5f5fe" />
    <path
       d="m 203.933,89.267 c 0,5.218 -8.221,10.594 -19.015,10.6 L 19.892,99.938 C 9.092,99.944 0.242,96.855 0.239,91.638 L 0.282,9.851 C 0.505,4.152 8.425,0.368 18.093,0.4 L 184.332,0.3 c 10.794,-0.006 19.554,4.221 19.557,9.442 z"
       id="path1662"
       inkscape:connector-curvature="0"
       style="fill:#f4f4fe" />
    <path
       d="m 203.051,88.965 c 0,5.2 -8.141,10.65 -18.888,10.655 L 19.814,99.69 C 9.062,99.7 0.242,96.709 0.239,91.508 L 0.289,9.819 C 0.529,4.1 8.347,0.366 17.881,0.4 L 183.536,0.3 C 194.283,0.292 203,4.505 203.007,9.709 Z"
       id="path1664"
       inkscape:connector-curvature="0"
       style="fill:#f3f3fe" />
    <path
       d="m 202.17,88.662 c 0,5.183 -8.062,10.706 -18.763,10.712 L 19.736,99.441 C 9.036,99.447 0.242,96.562 0.236,91.379 L 0.3,9.787 C 0.554,4.05 8.27,0.364 17.669,0.4 L 182.74,0.3 c 10.7,-0.006 19.383,4.192 19.386,9.378 z"
       id="path1666"
       inkscape:connector-curvature="0"
       style="fill:#f2f2fe" />
    <path
       d="m 201.289,88.36 c 0,5.165 -7.983,10.761 -18.637,10.767 L 19.658,99.192 C 9,99.2 0.242,96.415 0.239,91.25 L 0.3,9.755 C 0.578,4 8.192,0.362 17.458,0.4 L 181.944,0.3 c 10.653,-0.006 19.3,4.178 19.3,9.347 z"
       id="path1668"
       inkscape:connector-curvature="0"
       style="fill:#f2f2fe" />
    <path
       d="m 200.407,88.058 c 0,5.147 -7.9,10.816 -18.51,10.822 L 19.58,98.944 C 8.971,98.949 0.242,96.269 0.239,91.121 l 0.07,-81.4 C 0.6,3.947 8.114,0.36 17.246,0.405 L 181.148,0.3 c 10.606,-0.005 19.213,4.164 19.216,9.315 z"
       id="path1670"
       inkscape:connector-curvature="0"
       style="fill:#f1f1fe" />
    <path
       d="m 199.526,87.756 c 0,5.13 -7.825,10.872 -18.384,10.877 L 19.5,98.7 C 8.94,98.7 0.242,96.122 0.239,90.992 L 0.316,9.692 C 0.626,3.9 8.037,0.358 17.034,0.406 L 180.352,0.3 c 10.559,-0.006 19.128,4.149 19.131,9.282 z"
       id="path1672"
       inkscape:connector-curvature="0"
       style="fill:#f0f0fe" />
    <path
       d="m 198.645,87.454 c 0,5.112 -7.746,10.927 -18.259,10.933 L 19.425,98.446 C 8.909,98.452 0.242,95.976 0.239,90.864 L 0.322,9.664 C 0.65,3.845 7.959,0.356 16.822,0.407 L 179.556,0.3 c 10.512,0 19.044,4.135 19.044,9.251 z"
       id="path1674"
       inkscape:connector-curvature="0"
       style="fill:#efeffe" />
    <path
       d="m 197.764,87.151 c 0,5.095 -7.667,10.983 -18.133,10.989 L 19.347,98.2 C 8.879,98.2 0.242,95.829 0.239,90.735 L 0.329,9.627 C 0.675,3.794 7.882,0.354 16.61,0.408 L 178.76,0.3 c 10.466,0 18.958,4.122 18.96,9.219 z"
       id="path1676"
       inkscape:connector-curvature="0"
       style="fill:#eeeefe" />
    <path
       d="m 196.882,86.849 c 0,5.077 -7.587,11.038 -18.006,11.044 L 19.269,97.949 C 8.848,97.955 0.242,95.683 0.239,90.606 L 0.336,9.6 C 0.7,3.743 7.8,0.352 16.4,0.409 L 177.964,0.3 c 10.419,0 18.872,4.108 18.875,9.187 z"
       id="path1678"
       inkscape:connector-curvature="0"
       style="fill:#ededfe" />
    <path
       d="m 196,86.547 c 0,5.059 -7.509,11.094 -17.881,11.1 L 19.191,97.7 C 8.818,97.706 0.242,95.536 0.239,90.477 L 0.339,9.562 C 0.723,3.692 7.726,0.35 16.186,0.41 L 177.168,0.3 c 10.372,0 18.787,4.094 18.79,9.156 z"
       id="path1680"
       inkscape:connector-curvature="0"
       style="fill:#ececfe" />
    <path
       d="m 195.12,86.245 c 0,5.041 -7.43,11.149 -17.755,11.154 L 19.113,97.452 C 8.787,97.458 0.242,95.39 0.239,90.348 L 0.349,9.53 C 0.747,3.641 7.649,0.348 15.975,0.411 L 176.372,0.3 c 10.325,-0.005 18.7,4.078 18.7,9.122 z"
       id="path1682"
       inkscape:connector-curvature="0"
       style="fill:#ececfe" />
    <path
       d="m 194.238,85.943 c 0,5.023 -7.35,11.2 -17.628,11.21 L 19.035,97.2 C 8.756,97.209 0.241,95.243 0.239,90.219 L 0.356,9.5 C 0.771,3.59 7.571,0.347 15.763,0.413 L 175.576,0.3 c 10.278,0 18.617,4.066 18.624,9.093 z"
       id="path1684"
       inkscape:connector-curvature="0"
       style="fill:#ebebfe" />
    <path
       d="m 193.357,85.64 c 0,5.007 -7.271,11.26 -17.5,11.266 l -156.9,0.049 C 8.726,96.96 0.241,95.1 0.239,90.09 L 0.363,9.466 C 0.8,3.539 7.494,0.345 15.551,0.414 L 174.78,0.3 c 10.231,0 18.532,4.052 18.535,9.061 z"
       id="path1686"
       inkscape:connector-curvature="0"
       style="fill:#eaeafe" />
    <path
       d="m 192.476,85.338 c 0,4.989 -7.192,11.316 -17.377,11.321 L 18.879,96.706 C 8.7,96.712 0.241,94.95 0.239,89.961 L 0.37,9.434 C 0.82,3.487 7.416,0.343 15.339,0.415 L 173.984,0.3 c 10.184,0 18.447,4.038 18.449,9.029 z"
       id="path1688"
       inkscape:connector-curvature="0"
       style="fill:#e9e9fd" />
    <path
       d="m 191.594,85.036 c 0,4.971 -7.112,11.371 -17.25,11.376 L 18.8,96.458 C 8.665,96.463 0.241,94.8 0.239,89.832 L 0.377,9.4 C 0.844,3.436 7.338,0.341 15.127,0.416 L 173.188,0.3 c 10.137,0 18.362,4.024 18.364,9 z"
       id="path1690"
       inkscape:connector-curvature="0"
       style="fill:#e8e8fd" />
    <path
       d="m 190.713,84.734 c 0,4.953 -7.034,11.426 -17.124,11.432 L 18.724,96.209 C 8.634,96.214 0.241,94.657 0.238,89.7 L 0.383,9.37 C 0.868,3.385 7.261,0.339 14.915,0.417 L 172.392,0.3 c 10.09,-0.005 18.276,4.007 18.279,8.962 z"
       id="path1692"
       inkscape:connector-curvature="0"
       style="fill:#e7e7fd" />
    <path
       d="m 189.832,84.432 c 0,4.935 -6.955,11.481 -17,11.487 L 18.646,95.96 C 8.6,95.966 0.241,94.51 0.238,89.575 L 0.39,9.338 c 0.5,-6 6.793,-9 14.313,-8.92 L 171.6,0.305 C 181.64,0.3 189.787,4.3 189.79,9.234 Z"
       id="path1694"
       inkscape:connector-curvature="0"
       style="fill:#e7e7fd" />
    <path
       d="m 188.95,84.129 c 0,4.918 -6.875,11.538 -16.872,11.543 l -153.51,0.04 c -10,0 -18.327,-1.348 -18.33,-6.266 L 0.4,9.305 C 0.917,3.283 7.106,0.335 14.492,0.419 L 170.8,0.305 c 10,-0.005 18.106,3.978 18.109,8.9 z"
       id="path1696"
       inkscape:connector-curvature="0"
       style="fill:#e6e6fd" />
    <path
       d="m 188.069,83.827 c 0,4.9 -6.8,11.593 -16.746,11.6 L 18.49,95.463 C 8.542,95.468 0.241,94.217 0.238,89.317 L 0.4,9.273 C 0.941,3.232 7.028,0.333 14.28,0.42 L 170,0.306 c 9.95,-0.006 18.021,3.963 18.024,8.865 z"
       id="path1698"
       inkscape:connector-curvature="0"
       style="fill:#e5e5fd" />
    <path
       d="m 187.188,83.525 c 0,4.883 -6.717,11.648 -16.62,11.653 L 18.412,95.214 C 8.512,95.22 0.241,94.071 0.238,89.188 L 0.41,9.241 c 0.555,-6.06 6.54,-8.91 13.658,-8.82 l 155.14,-0.115 c 9.9,-0.005 17.936,3.949 17.938,8.834 z"
       id="path1700"
       inkscape:connector-curvature="0"
       style="fill:#e4e4fd" />
    <path
       d="m 186.306,83.223 c 0,4.865 -6.638,11.7 -16.493,11.709 L 18.334,94.966 C 8.481,94.971 0.241,93.924 0.238,89.059 L 0.417,9.209 C 0.989,3.13 6.873,0.329 13.856,0.422 L 168.412,0.307 c 9.856,-0.006 17.851,3.934 17.853,8.8 z"
       id="path1702"
       inkscape:connector-curvature="0"
       style="fill:#e3e3fd" />
    <path
       d="m 185.425,82.921 c 0,4.847 -6.559,11.759 -16.368,11.764 l -150.8,0.032 C 8.45,94.723 0.241,93.777 0.238,88.93 L 0.424,9.177 C 1.014,3.079 6.8,0.327 13.644,0.423 L 167.616,0.307 c 9.809,-0.005 17.765,3.92 17.768,8.769 z"
       id="path1704"
       inkscape:connector-curvature="0"
       style="fill:#e2e2fd" />
    <path
       d="m 184.544,82.618 c 0,4.83 -6.48,11.815 -16.242,11.82 L 18.179,94.469 C 8.42,94.474 0.241,93.631 0.238,88.8 L 0.431,9.145 c 0.607,-6.118 6.287,-8.82 13,-8.72 L 166.82,0.308 C 176.582,0.3 184.5,4.213 184.5,9.045 Z"
       id="path1706"
       inkscape:connector-curvature="0"
       style="fill:#e1e1fd" />
    <path
       d="m 183.663,82.316 c 0,4.812 -6.4,11.87 -16.116,11.875 L 18.1,94.22 C 8.388,94.22 0.24,93.484 0.237,88.672 L 0.437,9.113 C 1.062,2.976 6.64,0.323 13.221,0.426 l 152.8,-0.118 c 9.715,-0.005 17.6,3.892 17.6,8.705 z"
       id="path1708"
       inkscape:connector-curvature="0"
       style="fill:#e1e1fd" />
    <path
       d="m 182.781,82.014 c 0,4.794 -6.321,11.925 -15.989,11.931 L 18.023,93.971 C 8.359,93.977 0.241,93.338 0.238,88.543 L 0.444,9.081 C 1.086,2.925 6.562,0.322 13.009,0.427 L 165.228,0.309 c 9.672,-0.009 17.51,3.877 17.513,8.672 z"
       id="path1710"
       inkscape:connector-curvature="0"
       style="fill:#e0e0fd" />
    <path
       d="m 181.9,81.712 c 0,4.776 -6.243,11.981 -15.864,11.986 L 17.945,93.723 c -9.617,0 -17.7,-0.532 -17.707,-5.308 L 0.451,9.049 C 1.11,2.874 6.485,0.32 12.8,0.428 L 164.432,0.309 c 9.621,-0.009 17.425,3.863 17.427,8.641 z"
       id="path1712"
       inkscape:connector-curvature="0"
       style="fill:#dfdffd" />
    <path
       d="m 181.019,81.41 c 0,4.759 -6.164,12.036 -15.738,12.041 L 17.867,93.474 C 8.3,93.479 0.241,93.045 0.238,88.286 L 0.458,9.016 C 1.135,2.823 6.407,0.318 12.585,0.429 L 163.636,0.31 c 9.575,-0.006 17.34,3.848 17.342,8.608 z"
       id="path1714"
       inkscape:connector-curvature="0"
       style="fill:#dedefd" />
    <path
       d="m 180.137,81.107 c 0,4.742 -6.084,12.092 -15.611,12.1 L 17.789,93.229 C 8.267,93.231 0.241,92.9 0.238,88.157 L 0.465,8.984 C 1.159,2.772 6.33,0.316 12.373,0.43 L 162.84,0.31 c 9.528,-0.005 17.26,3.834 17.26,8.576 z"
       id="path1716"
       inkscape:connector-curvature="0"
       style="fill:#ddddfd" />
    <path
       d="m 179.256,80.805 c 0,4.724 -6,12.147 -15.485,12.152 l -146.06,0.02 C 8.236,92.982 0.24,92.752 0.238,88.028 L 0.471,8.952 C 1.183,2.721 6.252,0.314 12.161,0.431 L 162.044,0.31 c 9.481,-0.005 17.169,3.82 17.172,8.545 z"
       id="path1718"
       inkscape:connector-curvature="0"
       style="fill:#dcdcfd" />
    <path
       d="m 178.375,80.5 c 0,4.706 -5.926,12.2 -15.36,12.208 L 17.633,92.725 C 8.206,92.733 0.24,92.605 0.238,87.9 L 0.478,8.92 C 1.207,2.67 6.174,0.312 11.949,0.432 l 149.3,-0.121 c 9.434,-0.005 17.084,3.805 17.087,8.512 z"
       id="path1720"
       inkscape:connector-curvature="0"
       style="fill:#dcdcfd" />
    <path
       d="m 177.493,80.2 c 0,4.688 -5.846,12.258 -15.233,12.263 L 17.56,92.479 C 8.175,92.485 0.24,92.458 0.238,87.77 L 0.485,8.888 C 1.231,2.619 6.1,0.31 11.738,0.433 L 160.452,0.311 c 9.387,-0.005 17,3.791 17,8.481 z"
       id="path1722"
       inkscape:connector-curvature="0"
       style="fill:#dbdbfc" />
    <path
       d="m 176.612,79.9 c 0,4.67 -5.768,12.313 -15.107,12.318 L 17.478,92.232 C 8.144,92.237 0.24,92.313 0.238,87.642 L 0.492,8.856 C 1.256,2.567 6.019,0.308 11.526,0.434 L 159.656,0.312 C 169,0.307 176.57,4.089 176.573,8.76 Z"
       id="path1724"
       inkscape:connector-curvature="0"
       style="fill:#dadafc" />
    <path
       d="m 175.731,79.6 c 0,4.653 -5.689,12.369 -14.981,12.374 L 17.4,91.982 c -9.286,0 -17.16,0.183 -17.162,-4.47 L 0.5,8.824 C 1.28,2.516 5.942,0.306 11.314,0.435 L 158.861,0.312 c 9.292,-0.005 16.828,3.763 16.83,8.416 z"
       id="path1726"
       inkscape:connector-curvature="0"
       style="fill:#d9d9fc" />
    <path
       d="m 174.849,79.294 c 0,4.636 -5.609,12.424 -14.855,12.429 L 17.322,91.734 C 8.083,91.739 0.24,92.019 0.238,87.383 L 0.505,8.792 C 1.3,2.465 5.864,0.3 11.1,0.436 L 158.065,0.313 C 167.31,0.308 174.808,4.061 174.81,8.7 Z"
       id="path1728"
       inkscape:connector-curvature="0"
       style="fill:#d8d8fc" />
    <path
       d="m 173.968,78.992 c 0,4.618 -5.53,12.48 -14.729,12.485 L 17.244,91.485 c -9.191,0 -17,0.387 -17.006,-4.231 L 0.512,8.76 C 1.328,2.414 5.786,0.3 10.89,0.438 L 157.269,0.313 c 9.2,-0.005 16.657,3.734 16.66,8.352 z"
       id="path1730"
       inkscape:connector-curvature="0"
       style="fill:#d7d7fc" />
    <path
       d="m 173.087,78.69 c 0,4.6 -5.451,12.535 -14.6,12.54 L 17.169,91.237 C 8.022,91.242 0.24,91.726 0.238,87.126 L 0.519,8.726 C 1.352,2.363 5.709,0.3 10.678,0.439 l 145.8,-0.125 c 9.151,-0.005 16.572,3.719 16.575,8.319 z"
       id="path1732"
       inkscape:connector-curvature="0"
       style="fill:#d7d7fc" />
    <path
       d="m 172.205,78.388 c 0,4.582 -5.372,12.59 -14.477,12.6 H 17.088 C 7.991,90.993 0.24,91.579 0.237,87 L 0.526,8.7 C 1.377,2.312 5.631,0.3 10.466,0.44 L 155.677,0.314 c 9.105,-0.005 16.487,3.705 16.49,8.288 z"
       id="path1734"
       inkscape:connector-curvature="0"
       style="fill:#d6d6fc" />
    <path
       d="m 171.324,78.085 c 0,4.565 -5.293,12.646 -14.351,12.651 H 17.01 c -9.049,0 -16.77,0.694 -16.773,-3.871 l 0.3,-78.2 C 1.4,2.261 5.554,0.3 10.255,0.441 L 154.881,0.315 c 9.058,-0.005 16.4,3.69 16.405,8.255 z"
       id="path1736"
       inkscape:connector-curvature="0"
       style="fill:#d5d5fc" />
    <path
       d="m 170.443,77.783 c 0,4.547 -5.214,12.7 -14.225,12.707 H 16.933 c -9,0 -16.693,0.8 -16.7,-3.752 L 0.533,8.63 C 1.425,2.21 5.476,0.3 10.043,0.442 L 154.085,0.315 C 163.1,0.31 170.4,3.991 170.4,8.539 Z"
       id="path1738"
       inkscape:connector-curvature="0"
       style="fill:#d4d4fc" />
  </g>
  <g
     style="isolation:isolate;mix-blend-mode:multiply"
     id="g1846">
    <path
       d="m 230.026,93.089 c -0.013,5.341 -9.861,9.651 -21.984,9.622 L 23.262,102.26 C 11.129,102.231 1.312,97.872 1.325,92.531 l 0.2,-81.415 C 1.538,5.77 11.376,1.462 23.509,1.491 l 184.78,0.451 c 12.123,0.029 21.95,4.385 21.937,9.731 z"
       id="path1742"
       inkscape:connector-curvature="0"
       style="fill:#ffffff" />
    <path
       d="m 228.737,92.365 c -0.013,5.3 -9.8,9.57 -21.855,9.54 l -183.7,-0.447 C 11.121,101.428 1.361,97.106 1.374,91.81 l 0.2,-80.731 c 0.013,-5.3 9.794,-9.573 21.855,-9.543 l 183.7,0.447 c 12.052,0.03 21.821,4.349 21.808,9.65 z"
       id="path1744"
       inkscape:connector-curvature="0"
       style="fill:#fefeff" />
    <path
       d="m 227.449,91.64 c -0.013,5.251 -9.746,9.489 -21.728,9.46 L 23.1,100.655 C 11.109,100.626 1.406,96.34 1.419,91.089 l 0.2,-80.047 C 1.627,5.786 11.35,1.551 23.341,1.58 l 182.622,0.445 c 11.982,0.029 21.694,4.312 21.681,9.568 z"
       id="path1746"
       inkscape:connector-curvature="0"
       style="fill:#fdfdff" />
    <path
       d="m 226.16,90.916 c -0.013,5.206 -9.688,9.408 -21.6,9.379 L 23.017,99.852 C 11.1,99.823 1.452,95.575 1.465,90.368 L 1.659,11.005 c 0.012,-5.211 9.678,-9.41 21.6,-9.381 L 204.8,2.066 c 11.911,0.03 21.565,4.276 21.553,9.487 z"
       id="path1748"
       inkscape:connector-curvature="0"
       style="fill:#fcfcff" />
    <path
       d="m 224.871,90.192 c -0.012,5.161 -9.63,9.327 -21.47,9.3 L 22.936,99.05 C 11.087,99.021 1.499,94.809 1.512,89.65 L 1.7,10.968 c 0.012,-5.166 9.621,-9.329 21.47,-9.3 l 180.464,0.44 c 11.841,0.029 21.438,4.239 21.425,9.4 z"
       id="path1750"
       inkscape:connector-curvature="0"
       style="fill:#fcfcff" />
    <path
       d="m 223.583,89.467 c -0.013,5.117 -9.573,9.246 -21.343,9.217 L 22.854,98.247 C 11.077,98.218 1.546,94.047 1.554,88.926 L 1.745,10.932 C 1.757,5.81 11.308,1.684 23.086,1.712 L 202.472,2.15 c 11.769,0.028 21.309,4.2 21.3,9.323 z"
       id="path1752"
       inkscape:connector-curvature="0"
       style="fill:#fbfbff" />
    <path
       d="m 222.294,88.743 c -0.013,5.072 -9.515,9.165 -21.214,9.136 L 22.773,97.445 C 11.066,97.416 1.592,93.277 1.605,88.205 L 1.794,10.9 C 1.806,5.819 11.3,1.728 23.006,1.756 l 178.308,0.435 c 11.7,0.029 21.181,4.165 21.169,9.242 z"
       id="path1754"
       inkscape:connector-curvature="0"
       style="fill:#fafaff" />
    <path
       d="m 221.005,88.019 c -0.012,5.027 -9.457,9.083 -21.085,9.055 L 22.691,96.642 C 11.056,96.614 1.639,92.511 1.651,87.484 L 1.839,10.858 C 1.851,5.827 11.287,1.772 22.923,1.8 l 177.228,0.432 c 11.628,0.028 21.054,4.128 21.041,9.16 z"
       id="path1756"
       inkscape:connector-curvature="0"
       style="fill:#f9f9ff" />
    <path
       d="m 219.717,87.294 c -0.013,4.983 -9.4,9 -20.958,8.975 L 22.61,95.839 C 11.045,95.811 1.686,91.745 1.7,86.763 L 1.886,10.821 c 0.012,-4.986 9.391,-9 20.955,-8.976 l 176.15,0.429 c 11.557,0.028 20.925,4.092 20.913,9.078 z"
       id="path1758"
       inkscape:connector-curvature="0"
       style="fill:#f8f8ff" />
    <path
       d="m 218.428,86.57 c -0.012,4.938 -9.342,8.921 -20.829,8.893 L 22.528,95.037 C 11.035,95.009 1.733,90.979 1.745,86.037 L 1.929,10.779 c 0.012,-4.941 9.333,-8.923 20.827,-8.9 l 175.07,0.427 c 11.487,0.028 20.8,4.055 20.786,9 z"
       id="path1760"
       inkscape:connector-curvature="0"
       style="fill:#f7f7fe" />
    <path
       d="m 217.139,85.846 c -0.012,4.893 -9.284,8.84 -20.7,8.812 L 22.447,94.234 C 11.024,94.206 1.779,90.214 1.791,85.321 L 1.973,10.747 c 0.012,-4.9 9.277,-8.842 20.7,-8.814 l 173.992,0.424 c 11.416,0.028 20.669,4.019 20.657,8.915 z"
       id="path1762"
       inkscape:connector-curvature="0"
       style="fill:#f7f7fe" />
    <path
       d="m 215.851,85.122 c -0.012,4.847 -9.227,8.759 -20.573,8.731 L 22.366,93.431 C 11.014,93.4 1.826,89.448 1.838,84.6 L 2.018,10.711 C 2.03,5.859 11.237,1.95 22.589,1.977 L 195.5,2.4 c 11.345,0.027 20.541,3.982 20.529,8.833 z"
       id="path1764"
       inkscape:connector-curvature="0"
       style="fill:#f6f6fe" />
    <path
       d="m 214.562,84.4 c -0.012,4.8 -9.169,8.678 -20.444,8.651 L 22.284,92.629 C 11,92.6 1.873,88.682 1.885,83.879 L 2.063,10.674 C 2.075,5.867 11.225,1.994 22.505,2.022 L 194.339,2.44 c 11.275,0.028 20.413,3.945 20.4,8.752 z"
       id="path1766"
       inkscape:connector-curvature="0"
       style="fill:#f5f5fe" />
    <path
       d="m 213.273,83.673 c -0.011,4.758 -9.111,8.6 -20.315,8.569 L 22.2,91.826 C 10.993,91.8 1.92,87.916 1.931,83.158 L 2.108,10.637 c 0.012,-4.762 9.1,-8.6 20.314,-8.571 l 170.755,0.416 c 11.2,0.027 20.285,3.908 20.273,8.67 z"
       id="path1768"
       inkscape:connector-curvature="0"
       style="fill:#f4f4fe" />
    <path
       d="m 211.985,82.949 c -0.012,4.713 -9.054,8.515 -20.188,8.488 L 22.121,91.024 C 10.983,91 1.966,87.15 1.978,82.437 L 2.153,10.6 C 2.165,5.883 11.2,2.083 22.338,2.11 l 169.676,0.413 c 11.134,0.028 20.157,3.872 20.146,8.589 z"
       id="path1770"
       inkscape:connector-curvature="0"
       style="fill:#f3f3fe" />
    <path
       d="m 210.7,82.224 c -0.012,4.669 -9,8.435 -20.059,8.408 L 22.041,90.221 C 10.973,90.194 2.014,86.384 2.026,81.716 L 2.2,10.563 C 2.212,5.891 11.189,2.127 22.257,2.154 l 168.6,0.411 c 11.063,0.027 20.029,3.835 20.018,8.507 z"
       id="path1772"
       inkscape:connector-curvature="0"
       style="fill:#f2f2fe" />
    <path
       d="m 209.407,81.5 c -0.011,4.624 -8.938,8.353 -19.93,8.327 L 21.958,89.418 c -11,-0.026 -19.9,-3.8 -19.887,-8.423 L 2.243,10.526 C 2.255,5.9 11.175,2.171 22.171,2.2 L 189.69,2.609 c 10.992,0.026 19.9,3.8 19.889,8.425 z"
       id="path1774"
       inkscape:connector-curvature="0"
       style="fill:#f2f2fe" />
    <path
       d="m 208.119,80.776 c -0.012,4.579 -8.881,8.272 -19.8,8.245 L 21.877,88.616 C 10.951,88.589 2.107,84.853 2.118,80.274 L 2.288,10.49 C 2.3,5.908 11.162,2.216 22.088,2.242 l 166.439,0.406 c 10.922,0.027 19.773,3.762 19.762,8.344 z"
       id="path1776"
       inkscape:connector-curvature="0"
       style="fill:#f1f1fe" />
    <path
       d="m 206.83,80.052 c -0.011,4.534 -8.823,8.191 -19.674,8.164 L 21.8,87.813 C 10.946,87.787 2.158,84.087 2.17,79.553 l 0.168,-69.1 C 2.344,5.916 11.15,2.26 22,2.287 l 165.361,0.4 c 10.851,0.026 19.645,3.725 19.634,8.262 z"
       id="path1778"
       inkscape:connector-curvature="0"
       style="fill:#f0f0fe" />
    <path
       d="m 205.541,79.327 c -0.011,4.489 -8.765,8.11 -19.545,8.084 L 21.714,87.011 C 10.93,86.984 2.2,83.321 2.211,78.832 L 2.378,10.416 C 2.389,5.924 11.137,2.3 21.921,2.331 l 164.281,0.4 c 10.781,0.026 19.517,3.688 19.506,8.181 z"
       id="path1780"
       inkscape:connector-curvature="0"
       style="fill:#efeffe" />
    <path
       d="m 204.252,78.6 c -0.01,4.444 -8.707,8.029 -19.417,8 L 21.635,86.2 C 10.923,86.174 2.25,82.547 2.261,78.1 L 2.426,10.368 c 0.011,-4.447 8.7,-8.03 19.414,-8 l 163.2,0.4 c 10.71,0.026 19.389,3.651 19.378,8.1 z"
       id="path1782"
       inkscape:connector-curvature="0"
       style="fill:#eeeefe" />
    <path
       d="m 202.964,77.879 c -0.011,4.4 -8.65,7.947 -19.289,7.921 L 21.551,85.405 C 10.909,85.379 2.294,81.789 2.3,77.39 L 2.464,10.342 C 2.475,5.942 11.108,2.393 21.75,2.419 l 162.124,0.4 c 10.639,0.026 19.26,3.615 19.25,8.017 z"
       id="path1784"
       inkscape:connector-curvature="0"
       style="fill:#ededfe" />
    <path
       d="m 201.675,77.154 c -0.01,4.355 -8.592,7.867 -19.16,7.841 L 21.469,84.6 C 10.9,84.577 2.34,81.023 2.351,76.668 L 2.513,10.306 C 2.524,5.948 11.1,2.438 21.67,2.463 l 161.045,0.393 c 10.569,0.026 19.133,3.578 19.122,7.935 z"
       id="path1786"
       inkscape:connector-curvature="0"
       style="fill:#ececfe" />
    <path
       d="m 200.386,76.43 c -0.01,4.31 -8.534,7.786 -19.032,7.76 L 21.388,83.8 c -10.5,-0.026 -19,-3.543 -18.99,-7.853 L 2.558,10.269 C 2.569,5.956 11.087,2.482 21.587,2.507 l 159.966,0.39 c 10.5,0.026 19,3.542 18.994,7.854 z"
       id="path1788"
       inkscape:connector-curvature="0"
       style="fill:#ececfe" />
    <path
       d="m 199.1,75.706 c -0.011,4.265 -8.477,7.7 -18.9,7.679 L 21.307,83 C 10.878,82.975 2.434,79.5 2.444,75.229 L 2.6,10.232 C 2.611,5.964 11.072,2.526 21.5,2.552 l 158.888,0.387 c 10.427,0.025 18.876,3.505 18.866,7.772 z"
       id="path1790"
       inkscape:connector-curvature="0"
       style="fill:#ebebfe" />
    <path
       d="m 197.809,74.981 c -0.01,4.221 -8.419,7.624 -18.775,7.6 L 21.225,82.2 C 10.868,82.175 2.481,78.731 2.491,74.51 L 2.648,10.2 C 2.658,5.977 11.062,2.576 21.419,2.6 l 157.809,0.384 c 10.357,0.026 18.749,3.468 18.738,7.691 z"
       id="path1792"
       inkscape:connector-curvature="0"
       style="fill:#eaeafe" />
    <path
       d="m 196.52,74.257 c -0.01,4.176 -8.361,7.542 -18.647,7.517 L 21.144,81.392 C 10.857,81.367 2.528,77.96 2.538,73.784 L 2.693,10.158 C 2.7,5.98 11.05,2.615 21.336,2.64 l 156.73,0.382 c 10.286,0.025 18.62,3.431 18.61,7.609 z"
       id="path1794"
       inkscape:connector-curvature="0"
       style="fill:#e9e9fd" />
    <path
       d="m 195.232,73.533 c -0.01,4.131 -8.3,7.461 -18.519,7.436 L 21.062,80.59 C 10.847,80.565 2.574,77.19 2.584,73.063 L 2.738,10.121 c 0.01,-4.133 8.3,-7.462 18.514,-7.437 l 155.651,0.38 c 10.215,0.024 18.493,3.394 18.483,7.527 z"
       id="path1796"
       inkscape:connector-curvature="0"
       style="fill:#e8e8fd" />
    <path
       d="m 193.943,72.809 c -0.01,4.085 -8.246,7.379 -18.39,7.355 L 20.981,79.787 C 10.836,79.762 2.621,76.428 2.631,72.342 L 2.783,10.085 C 2.793,6 11.025,2.7 21.169,2.728 l 154.572,0.377 c 10.144,0.025 18.364,3.358 18.354,7.446 z"
       id="path1798"
       inkscape:connector-curvature="0"
       style="fill:#e7e7fd" />
    <path
       d="m 192.654,72.084 c -0.009,4.041 -8.188,7.3 -18.262,7.274 L 20.9,78.984 C 10.826,78.96 2.668,75.662 2.678,71.621 l 0.15,-61.573 c 0.01,-4.043 8.184,-7.3 18.257,-7.275 l 153.494,0.374 c 10.073,0.024 18.236,3.321 18.226,7.364 z"
       id="path1800"
       inkscape:connector-curvature="0"
       style="fill:#e7e7fd" />
    <path
       d="m 191.366,71.36 c -0.01,4 -8.131,7.218 -18.134,7.193 L 20.818,78.182 C 10.818,78.157 2.718,74.896 2.724,70.9 L 2.873,10.011 C 2.883,6.013 11,2.792 21,2.817 l 152.414,0.371 c 10,0.025 18.108,3.285 18.1,7.283 z"
       id="path1802"
       inkscape:connector-curvature="0"
       style="fill:#e6e6fd" />
    <path
       d="m 190.077,70.636 c -0.009,3.951 -8.073,7.136 -18,7.112 L 20.736,77.379 C 10.805,77.355 2.761,74.13 2.771,70.179 l 0.147,-60.2 c 0.01,-3.953 8.069,-7.137 18,-7.113 l 151.336,0.369 c 9.932,0.024 17.98,3.247 17.97,7.2 z"
       id="path1804"
       inkscape:connector-curvature="0"
       style="fill:#e5e5fd" />
    <path
       d="m 188.788,69.911 c -0.009,3.907 -8.015,7.056 -17.877,7.032 L 20.655,76.576 C 10.795,76.552 2.808,73.365 2.818,69.458 L 2.963,9.937 C 2.973,6.029 10.974,2.881 20.835,2.905 l 150.256,0.366 c 9.862,0.024 17.852,3.211 17.843,7.12 z"
       id="path1806"
       inkscape:connector-curvature="0"
       style="fill:#e4e4fd" />
    <path
       d="m 187.5,69.187 c -0.01,3.862 -7.958,6.974 -17.749,6.95 L 20.573,75.774 C 10.784,75.75 2.855,72.6 2.864,68.737 L 3.008,9.9 C 3.017,6.037 10.962,2.925 20.751,2.949 l 149.178,0.364 c 9.791,0.024 17.724,3.174 17.715,7.037 z"
       id="path1808"
       inkscape:connector-curvature="0"
       style="fill:#e3e3fd" />
    <path
       d="m 186.211,68.463 c -0.009,3.817 -7.9,6.893 -17.62,6.869 L 20.491,74.971 C 10.773,74.948 2.901,71.833 2.91,68.016 L 3.053,9.864 C 3.062,6.045 10.953,2.97 20.668,2.993 l 148.1,0.361 c 9.72,0.024 17.6,3.138 17.586,6.956 z"
       id="path1810"
       inkscape:connector-curvature="0"
       style="fill:#e2e2fd" />
    <path
       d="m 184.922,67.739 c -0.009,3.772 -7.842,6.811 -17.492,6.788 L 20.41,74.169 C 10.763,74.145 2.948,71.069 2.958,67.295 L 3.1,9.827 C 3.109,6.053 10.939,3.014 20.586,3.038 L 167.6,3.4 c 9.65,0.023 17.468,3.1 17.459,6.874 z"
       id="path1812"
       inkscape:connector-curvature="0"
       style="fill:#e1e1fd" />
    <path
       d="m 183.634,67.014 c -0.009,3.727 -7.785,6.731 -17.364,6.708 L 20.329,73.366 C 10.753,73.343 3,70.3 3,66.574 L 3.143,9.79 C 3.152,6.061 10.924,3.058 20.5,3.082 l 145.941,0.355 c 9.579,0.024 17.34,3.065 17.331,6.793 z"
       id="path1814"
       inkscape:connector-curvature="0"
       style="fill:#e1e1fd" />
    <path
       d="m 182.345,66.29 c -0.009,3.682 -7.727,6.65 -17.235,6.626 L 20.248,72.563 C 10.742,72.54 3.042,69.535 3.048,65.853 L 3.185,9.753 C 3.2,6.069 10.912,3.1 20.417,3.126 l 144.862,0.353 c 9.509,0.023 17.212,3.027 17.2,6.711 z"
       id="path1816"
       inkscape:connector-curvature="0"
       style="fill:#e0e0fd" />
    <path
       d="m 181.056,65.566 c -0.008,3.637 -7.669,6.568 -17.107,6.545 L 20.166,71.761 C 10.732,71.738 3.089,68.769 3.1,65.132 L 3.233,9.716 C 3.242,6.077 10.899,3.147 20.333,3.17 l 143.783,0.351 c 9.438,0.023 17.084,2.99 17.075,6.629 z"
       id="path1818"
       inkscape:connector-curvature="0"
       style="fill:#dfdffd" />
    <path
       d="m 179.768,64.841 c -0.009,3.593 -7.612,6.488 -16.979,6.465 L 20.089,70.958 C 10.721,70.935 3.135,68 3.144,64.411 L 3.278,9.679 C 3.287,6.086 10.887,3.191 20.25,3.214 l 142.705,0.348 c 9.367,0.023 16.955,2.954 16.947,6.548 z"
       id="path1820"
       inkscape:connector-curvature="0"
       style="fill:#dedefd" />
    <path
       d="m 178.479,64.117 c -0.009,3.548 -7.554,6.406 -16.85,6.384 L 20,70.156 C 10.708,70.133 3.179,67.238 3.188,63.69 L 3.323,9.643 C 3.331,6.094 10.874,3.236 20.167,3.258 L 161.792,3.6 c 9.3,0.022 16.828,2.917 16.819,6.466 z"
       id="path1822"
       inkscape:connector-curvature="0"
       style="fill:#ddddfd" />
    <path
       d="m 177.19,63.393 c -0.008,3.5 -7.5,6.325 -16.722,6.3 L 19.922,69.353 C 10.7,69.33 3.229,66.472 3.237,62.969 L 3.368,9.606 c 0.008,-3.5 7.494,-6.326 16.715,-6.3 L 160.63,3.648 c 9.226,0.023 16.7,2.881 16.691,6.385 z"
       id="path1824"
       inkscape:connector-curvature="0"
       style="fill:#dcdcfd" />
    <path
       d="m 175.9,62.668 c -0.009,3.459 -7.438,6.245 -16.594,6.222 L 19.84,68.55 C 10.69,68.528 3.276,65.706 3.284,62.25 L 3.413,9.569 C 3.421,6.11 10.849,3.324 20,3.347 l 139.467,0.34 c 9.156,0.022 16.572,2.844 16.564,6.3 z"
       id="path1826"
       inkscape:connector-curvature="0"
       style="fill:#dcdcfd" />
    <path
       d="m 174.613,61.944 c -0.008,3.414 -7.38,6.163 -16.465,6.141 L 19.759,67.748 C 10.68,67.726 3.322,64.94 3.331,61.527 L 3.458,9.532 C 3.466,6.118 10.837,3.369 19.916,3.391 l 138.389,0.337 c 9.085,0.022 16.444,2.807 16.435,6.222 z"
       id="path1828"
       inkscape:connector-curvature="0"
       style="fill:#dbdbfc" />
    <path
       d="m 173.324,61.22 c -0.008,3.369 -7.322,6.082 -16.337,6.06 L 19.677,66.945 C 10.669,66.923 3.369,64.174 3.377,60.806 L 3.5,9.495 C 3.508,6.126 10.821,3.413 19.83,3.435 L 157.14,3.77 c 9.014,0.022 16.315,2.77 16.307,6.14 z"
       id="path1830"
       inkscape:connector-curvature="0"
       style="fill:#dadafc" />
    <path
       d="m 172.036,60.5 c -0.008,3.323 -7.265,6 -16.209,5.978 L 19.6,66.142 C 10.663,66.121 3.42,63.408 3.428,60.085 L 3.548,9.459 c 0.008,-3.325 7.264,-6 16.2,-5.98 l 136.231,0.332 c 8.944,0.022 16.188,2.734 16.179,6.059 z"
       id="path1832"
       inkscape:connector-curvature="0"
       style="fill:#d9d9fc" />
    <path
       d="m 170.747,59.771 c -0.008,3.279 -7.207,5.92 -16.08,5.9 L 19.514,65.34 C 10.648,65.318 3.463,62.64 3.471,59.364 L 3.593,9.422 C 3.6,6.142 10.8,3.5 19.665,3.523 l 135.153,0.33 c 8.873,0.022 16.059,2.7 16.051,5.976 z"
       id="path1834"
       inkscape:connector-curvature="0"
       style="fill:#d8d8fc" />
    <path
       d="m 169.458,59.047 c -0.007,3.234 -7.149,5.838 -15.952,5.817 L 19.433,64.537 C 10.638,64.516 3.509,61.877 3.517,58.637 L 3.638,9.385 C 3.646,6.15 10.787,3.546 19.582,3.568 l 134.073,0.326 c 8.8,0.022 15.932,2.661 15.924,5.9 z"
       id="path1836"
       inkscape:connector-curvature="0"
       style="fill:#d7d7fc" />
    <path
       d="m 168.17,58.323 c -0.008,3.189 -7.092,5.757 -15.824,5.736 L 19.352,63.735 C 10.627,63.713 3.552,61.111 3.564,57.921 L 3.683,9.348 C 3.69,6.158 10.774,3.591 19.5,3.612 l 133,0.324 c 8.732,0.021 15.8,2.624 15.8,5.813 z"
       id="path1838"
       inkscape:connector-curvature="0"
       style="fill:#d7d7fc" />
    <path
       d="m 166.881,57.6 c -0.008,3.145 -7.034,5.677 -15.695,5.656 L 19.27,62.932 C 10.617,62.911 3.6,60.345 3.611,57.2 L 3.728,9.311 C 3.735,6.166 10.762,3.635 19.415,3.656 L 151.331,3.978 C 159.991,4 167.006,6.564 167,9.709 Z"
       id="path1840"
       inkscape:connector-curvature="0"
       style="fill:#d6d6fc" />
    <path
       d="m 165.592,56.874 c -0.007,3.1 -6.976,5.595 -15.567,5.574 L 19.189,62.129 C 10.606,62.108 3.65,59.579 3.657,56.479 L 3.773,9.279 C 3.78,6.179 10.749,3.684 19.331,3.705 l 130.837,0.319 c 8.59,0.021 15.547,2.55 15.54,5.65 z"
       id="path1842"
       inkscape:connector-curvature="0"
       style="fill:#d5d5fc" />
    <path
       d="m 164.3,56.15 c -0.008,3.055 -6.919,5.514 -15.439,5.493 L 19.107,61.327 C 10.6,61.306 3.7,58.813 3.7,55.758 L 3.814,9.238 C 3.821,6.183 10.733,3.724 19.244,3.744 l 129.758,0.317 c 8.519,0.02 15.419,2.513 15.411,5.568 z"
       id="path1844"
       inkscape:connector-curvature="0"
       style="fill:#d4d4fc" />
  </g>
  <g
     style="isolation:isolate;mix-blend-mode:multiply"
     id="g1952">
    <path
       d="m 115.217,94.9 c 0,5.509 -4.825,9.983 -10.778,9.987 l -90.735,0.05 c -5.957,0 -10.786,-4.465 -10.789,-9.975 L 2.87,10.977 C 2.867,5.463 7.69,0.991 13.648,0.988 l 90.735,-0.05 c 5.952,0 10.785,4.462 10.788,9.977 z"
       id="path1848"
       inkscape:connector-curvature="0"
       style="fill:#ffffff" />
    <path
       d="m 114.809,94.593 c 0,5.492 -4.81,9.951 -10.743,9.954 l -90.44,0.05 c -5.938,0 -10.75,-4.45 -10.753,-9.942 L 2.827,10.944 c 0,-5.5 4.805,-9.953 10.743,-9.956 l 90.439,-0.05 c 5.934,0 10.751,4.448 10.754,9.944 z"
       id="path1850"
       inkscape:connector-curvature="0"
       style="fill:#fefeff" />
    <path
       d="m 114.4,94.287 c 0,5.474 -4.794,9.919 -10.708,9.922 l -90.144,0.05 C 7.63,104.259 2.833,99.823 2.83,94.349 L 2.784,10.912 C 2.781,5.433 7.573,0.991 13.492,0.988 l 90.144,-0.05 c 5.914,0 10.715,4.434 10.718,9.912 z"
       id="path1852"
       inkscape:connector-curvature="0"
       style="fill:#fdfdff" />
    <path
       d="m 113.991,93.981 c 0,5.456 -4.778,9.886 -10.673,9.889 l -89.848,0.05 c -5.9,0 -10.68,-4.421 -10.683,-9.877 L 2.742,10.879 c 0,-5.46 4.773,-9.888 10.672,-9.891 l 89.848,-0.05 c 5.895,0 10.681,4.419 10.684,9.88 z"
       id="path1854"
       inkscape:connector-curvature="0"
       style="fill:#fcfcff" />
    <path
       d="m 113.583,93.675 c 0,5.438 -4.763,9.854 -10.638,9.857 l -89.553,0.05 c -5.879,0 -10.645,-4.407 -10.648,-9.845 L 2.7,10.847 C 2.7,5.4 7.457,0.991 13.336,0.988 l 89.553,-0.05 c 5.876,0 10.646,4.405 10.649,9.847 z"
       id="path1856"
       inkscape:connector-curvature="0"
       style="fill:#fcfcff" />
    <path
       d="m 113.174,93.369 c 0,5.42 -4.746,9.821 -10.6,9.825 l -89.257,0.049 c -5.86,0 -10.61,-4.392 -10.613,-9.812 L 2.656,10.814 C 2.653,5.39 7.4,0.991 13.259,0.988 l 89.257,-0.05 c 5.856,0 10.61,4.391 10.613,9.815 z"
       id="path1858"
       inkscape:connector-curvature="0"
       style="fill:#fbfbff" />
    <path
       d="m 112.765,93.064 c 0,5.4 -4.73,9.788 -10.567,9.791 l -88.962,0.05 c -5.84,0 -10.575,-4.378 -10.577,-9.78 L 2.614,10.782 C 2.611,5.375 7.34,0.991 13.181,0.988 l 88.961,-0.049 c 5.837,0 10.576,4.375 10.579,9.782 z"
       id="path1860"
       inkscape:connector-curvature="0"
       style="fill:#fafaff" />
    <path
       d="m 112.357,92.758 c 0,5.384 -4.715,9.756 -10.533,9.759 l -88.666,0.049 c -5.821,0 -10.539,-4.363 -10.542,-9.748 L 2.571,10.749 C 2.568,5.361 7.282,0.991 13.1,0.988 l 88.669,-0.049 c 5.817,0 10.54,4.361 10.543,9.75 z"
       id="path1862"
       inkscape:connector-curvature="0"
       style="fill:#f9f9ff" />
    <path
       d="m 111.948,92.452 c 0,5.366 -4.7,9.723 -10.5,9.726 l -88.371,0.049 c -5.8,0 -10.5,-4.348 -10.507,-9.715 L 2.528,10.717 c 0,-5.371 4.7,-9.726 10.5,-9.729 L 101.4,0.939 c 5.8,0 10.506,4.347 10.509,9.717 z"
       id="path1864"
       inkscape:connector-curvature="0"
       style="fill:#f8f8ff" />
    <path
       d="m 111.539,92.146 c 0,5.348 -4.683,9.691 -10.462,9.694 L 13,101.889 c -5.782,0 -10.469,-4.334 -10.472,-9.683 L 2.486,10.684 c 0,-5.352 4.679,-9.693 10.461,-9.7 l 88.075,-0.045 c 5.779,0 10.47,4.332 10.473,9.685 z"
       id="path1866"
       inkscape:connector-curvature="0"
       style="fill:#f7f7fe" />
    <path
       d="m 111.131,91.84 c 0,5.331 -4.668,9.658 -10.428,9.662 L 12.924,101.55 C 7.162,101.55 2.49,97.231 2.487,91.9 L 2.443,10.652 C 2.44,5.317 7.107,0.991 12.869,0.988 l 87.78,-0.049 c 5.759,0 10.435,4.318 10.438,9.653 z"
       id="path1868"
       inkscape:connector-curvature="0"
       style="fill:#f7f7fe" />
    <path
       d="m 110.722,91.534 c 0,5.313 -4.652,9.626 -10.392,9.629 l -87.484,0.049 c -5.743,0 -10.4,-4.305 -10.4,-9.618 L 2.4,10.619 C 2.4,5.3 7.048,0.991 12.792,0.988 L 100.275,0.94 c 5.741,0 10.4,4.3 10.4,9.619 z"
       id="path1870"
       inkscape:connector-curvature="0"
       style="fill:#f6f6fe" />
    <path
       d="m 110.314,91.228 c 0,5.3 -4.637,9.594 -10.358,9.6 l -87.188,0.048 c -5.723,0 -10.364,-4.29 -10.366,-9.585 l -0.044,-80.7 c 0,-5.3 4.632,-9.6 10.356,-9.6 L 99.9,0.94 c 5.721,0 10.365,4.288 10.368,9.587 z"
       id="path1872"
       inkscape:connector-curvature="0"
       style="fill:#f5f5fe" />
    <path
       d="m 109.905,90.922 c 0,5.277 -4.621,9.561 -10.322,9.564 l -86.893,0.049 c -5.7,0 -10.328,-4.276 -10.331,-9.553 L 2.315,10.554 C 2.312,5.273 6.932,0.991 12.636,0.988 L 99.529,0.94 c 5.7,0 10.329,4.274 10.332,9.555 z"
       id="path1874"
       inkscape:connector-curvature="0"
       style="fill:#f4f4fe" />
    <path
       d="m 109.5,90.616 c 0,5.259 -4.6,9.529 -10.287,9.532 l -86.6,0.048 c -5.685,0 -10.293,-4.261 -10.3,-9.521 L 2.272,10.522 c 0,-5.263 4.6,-9.531 10.286,-9.534 L 99.155,0.94 c 5.682,0 10.3,4.26 10.3,9.523 z"
       id="path1876"
       inkscape:connector-curvature="0"
       style="fill:#f3f3fe" />
    <path
       d="m 109.088,90.31 c 0,5.242 -4.589,9.5 -10.252,9.5 l -86.3,0.048 C 6.871,99.858 2.278,95.611 2.275,90.369 L 2.23,10.489 c 0,-5.245 4.585,-9.5 10.25,-9.5 L 98.782,0.94 c 5.663,0 10.259,4.245 10.262,9.49 z"
       id="path1878"
       inkscape:connector-curvature="0"
       style="fill:#f2f2fe" />
    <path
       d="m 108.679,90 c 0,5.224 -4.573,9.464 -10.217,9.467 L 12.456,99.515 C 6.81,99.515 2.233,95.283 2.23,90.059 L 2.187,10.457 C 2.184,5.23 6.757,0.991 12.4,0.988 L 98.408,0.94 c 5.644,0 10.225,4.231 10.228,9.458 z"
       id="path1880"
       inkscape:connector-curvature="0"
       style="fill:#f2f2fe" />
    <path
       d="m 108.27,89.7 c 0,5.206 -4.557,9.432 -10.182,9.435 l -85.71,0.047 C 6.752,99.182 2.19,94.965 2.187,89.759 L 2.144,10.424 C 2.141,5.215 6.7,0.991 12.325,0.988 l 85.71,-0.047 c 5.624,0 10.189,4.216 10.192,9.425 z"
       id="path1882"
       inkscape:connector-curvature="0"
       style="fill:#f1f1fe" />
    <path
       d="m 107.862,89.392 c 0,5.188 -4.542,9.4 -10.147,9.4 L 12.3,98.842 c -5.607,0 -10.153,-4.2 -10.155,-9.391 L 2.1,10.392 C 2.1,5.2 6.64,0.991 12.247,0.988 L 97.662,0.941 c 5.6,0 10.154,4.2 10.157,9.392 z"
       id="path1884"
       inkscape:connector-curvature="0"
       style="fill:#f0f0fe" />
    <path
       d="m 107.453,89.086 c 0,5.171 -4.526,9.367 -10.112,9.37 L 12.222,98.5 C 6.635,98.5 2.105,94.312 2.102,89.142 L 2.059,10.359 c 0,-5.173 4.523,-9.368 10.11,-9.371 L 97.288,0.941 c 5.586,0 10.119,4.187 10.122,9.36 z"
       id="path1886"
       inkscape:connector-curvature="0"
       style="fill:#efeffe" />
    <path
       d="m 107.044,88.781 c 0,5.152 -4.51,9.334 -10.076,9.337 L 12.144,98.165 C 6.576,98.165 2.062,93.991 2.059,88.839 L 2.016,10.327 C 2.013,5.172 6.523,0.991 12.091,0.988 L 96.915,0.941 C 102.481,0.938 107,5.114 107,10.269 Z"
       id="path1888"
       inkscape:connector-curvature="0"
       style="fill:#eeeefe" />
    <path
       d="m 106.636,88.475 c 0,5.134 -4.495,9.3 -10.042,9.3 l -84.528,0.047 c -5.548,0 -10.047,-4.159 -10.05,-9.293 L 1.973,10.294 c 0,-5.137 4.492,-9.3 10.04,-9.306 L 96.541,0.941 c 5.548,0 10.049,4.158 10.052,9.3 z"
       id="path1890"
       inkscape:connector-curvature="0"
       style="fill:#ededfe" />
    <path
       d="m 106.227,88.169 c 0,5.116 -4.479,9.269 -10.006,9.272 L 11.988,97.488 C 6.459,97.488 1.976,93.343 1.973,88.226 L 1.931,10.262 c 0,-5.119 4.476,-9.271 10,-9.274 L 96.168,0.942 c 5.528,0 10.014,4.143 10.017,9.262 z"
       id="path1892"
       inkscape:connector-curvature="0"
       style="fill:#ececfe" />
    <path
       d="m 105.819,87.863 c 0,5.1 -4.464,9.236 -9.972,9.24 L 11.91,97.149 c -5.509,0 -9.977,-4.13 -9.98,-9.229 L 1.888,10.229 c 0,-5.1 4.46,-9.238 9.969,-9.241 L 95.8,0.942 c 5.508,0 9.978,4.128 9.981,9.23 z"
       id="path1894"
       inkscape:connector-curvature="0"
       style="fill:#ececfe" />
    <path
       d="m 105.41,87.557 c 0,5.081 -4.447,9.2 -9.937,9.207 L 11.832,96.81 c -5.49,0 -9.942,-4.115 -9.944,-9.2 L 1.845,10.2 C 1.843,5.114 6.29,0.991 11.78,0.988 L 95.421,0.942 c 5.489,0 9.944,4.114 9.947,9.2 z"
       id="path1896"
       inkscape:connector-curvature="0"
       style="fill:#ebebfe" />
    <path
       d="m 105,87.251 c 0,5.063 -4.431,9.172 -9.9,9.175 l -83.346,0.046 c -5.47,0 -9.906,-4.1 -9.909,-9.164 L 1.8,10.164 C 1.8,5.1 6.232,0.991 11.7,0.988 L 95.048,0.942 c 5.47,0 9.908,4.1 9.911,9.165 z"
       id="path1898"
       inkscape:connector-curvature="0"
       style="fill:#eaeafe" />
    <path
       d="m 104.593,86.945 c 0,5.045 -4.416,9.139 -9.867,9.142 l -83.05,0.046 C 6.225,96.136 1.805,92.047 1.8,87 L 1.76,10.132 c 0,-5.048 4.413,-9.141 9.864,-9.144 l 83.05,-0.046 c 5.451,0 9.874,4.085 9.877,9.133 z"
       id="path1900"
       inkscape:connector-curvature="0"
       style="fill:#e9e9fd" />
    <path
       d="m 104.184,86.639 c 0,5.027 -4.4,9.107 -9.831,9.11 L 11.6,95.8 C 6.169,95.8 1.764,91.728 1.761,86.7 L 1.717,10.1 c 0,-5.029 4.4,-9.108 9.829,-9.111 L 94.3,0.943 c 5.431,0 9.839,4.07 9.841,9.1 z"
       id="path1902"
       inkscape:connector-curvature="0"
       style="fill:#e8e8fd" />
    <path
       d="m 103.775,86.333 c 0,5.009 -4.384,9.075 -9.8,9.078 l -82.459,0.045 c -5.412,0 -9.8,-4.057 -9.8,-9.066 L 1.675,10.067 c 0,-5.012 4.382,-9.076 9.793,-9.079 l 82.46,-0.045 c 5.412,0 9.8,4.056 9.806,9.067 z"
       id="path1904"
       inkscape:connector-curvature="0"
       style="fill:#e7e7fd" />
    <path
       d="m 103.367,86.027 c 0,4.992 -4.369,9.042 -9.761,9.045 l -82.164,0.046 c -5.392,0 -9.766,-4.043 -9.769,-9.034 L 1.632,10.034 C 1.629,5.041 6,0.991 11.39,0.988 L 93.554,0.943 c 5.393,0 9.769,4.041 9.771,9.035 z"
       id="path1906"
       inkscape:connector-curvature="0"
       style="fill:#e7e7fd" />
    <path
       d="m 102.958,85.721 c 0,4.974 -4.353,9.01 -9.726,9.013 l -81.868,0.045 c -5.373,0 -9.731,-4.028 -9.733,-9 L 1.589,10 C 1.587,5.026 5.94,0.991 11.313,0.988 L 93.181,0.943 c 5.373,0 9.733,4.027 9.736,9 z"
       id="path1908"
       inkscape:connector-curvature="0"
       style="fill:#e6e6fd" />
    <path
       d="m 102.549,85.415 c 0,4.956 -4.337,8.977 -9.691,8.98 l -81.572,0.046 c -5.353,0 -9.695,-4.014 -9.7,-8.97 L 1.545,9.971 C 1.545,5.014 5.88,0.993 11.233,0.99 L 92.807,0.943 c 5.354,0 9.7,4.013 9.7,8.971 z"
       id="path1910"
       inkscape:connector-curvature="0"
       style="fill:#e5e5fd" />
    <path
       d="m 102.141,85.109 c 0,4.938 -4.322,8.945 -9.656,8.948 L 11.208,94.1 c -5.334,0 -9.66,-4 -9.663,-8.937 L 1.5,9.937 C 1.5,5 5.824,0.991 11.157,0.988 L 92.434,0.943 c 5.335,0 9.663,4 9.666,8.938 z"
       id="path1912"
       inkscape:connector-curvature="0"
       style="fill:#e4e4fd" />
    <path
       d="m 101.732,84.8 c 0,4.921 -4.3,8.913 -9.621,8.916 L 11.13,93.76 c -5.314,0 -9.625,-3.984 -9.628,-8.9 L 1.461,9.9 c 0,-4.921 4.3,-8.913 9.618,-8.916 l 80.982,-0.04 c 5.315,0 9.628,3.983 9.63,8.905 z"
       id="path1914"
       inkscape:connector-curvature="0"
       style="fill:#e3e3fd" />
    <path
       d="m 101.324,84.5 c 0,4.9 -4.29,8.879 -9.586,8.882 l -80.686,0.045 c -5.295,0 -9.59,-3.97 -9.593,-8.872 L 1.419,9.872 C 1.416,4.968 5.707,0.991 11,0.989 L 91.687,0.944 c 5.3,0 9.593,3.969 9.6,8.873 z"
       id="path1916"
       inkscape:connector-curvature="0"
       style="fill:#e2e2fd" />
    <path
       d="m 100.915,84.192 c 0,4.884 -4.274,8.847 -9.551,8.85 l -80.39,0.044 c -5.275,0 -9.555,-3.955 -9.558,-8.839 L 1.376,9.839 c 0,-4.885 4.273,-8.848 9.547,-8.85 L 91.314,0.944 c 5.277,0 9.558,3.954 9.56,8.84 z"
       id="path1918"
       inkscape:connector-curvature="0"
       style="fill:#e1e1fd" />
    <path
       d="m 100.506,83.886 c 0,4.866 -4.258,8.814 -9.516,8.817 L 10.9,92.748 c -5.256,0 -9.52,-3.941 -9.522,-8.807 L 1.333,9.807 C 1.331,4.939 5.59,0.991 10.846,0.989 l 80.1,-0.045 c 5.257,0 9.522,3.94 9.525,8.808 z"
       id="path1920"
       inkscape:connector-curvature="0"
       style="fill:#e1e1fd" />
    <path
       d="m 100.1,83.58 c 0,4.848 -4.243,8.782 -9.481,8.785 l -79.8,0.044 c -5.236,0 -9.485,-3.926 -9.487,-8.775 L 1.292,9.774 c 0,-4.85 4.241,-8.783 9.477,-8.785 l 79.8,-0.045 c 5.238,0 9.488,3.926 9.49,8.776 z"
       id="path1922"
       inkscape:connector-curvature="0"
       style="fill:#e0e0fd" />
    <path
       d="m 99.689,83.274 c 0,4.831 -4.227,8.75 -9.446,8.753 l -79.5,0.044 c -5.217,0 -9.449,-3.912 -9.452,-8.743 L 1.248,9.742 C 1.245,4.91 5.474,0.991 10.69,0.989 l 79.5,-0.044 c 5.219,0 9.452,3.91 9.455,8.742 z"
       id="path1924"
       inkscape:connector-curvature="0"
       style="fill:#dfdffd" />
    <path
       d="m 99.28,82.968 c 0,4.813 -4.211,8.717 -9.41,8.72 l -79.208,0.044 c -5.2,0 -9.414,-3.9 -9.417,-8.71 L 1.205,9.709 c 0,-4.814 4.21,-8.718 9.407,-8.72 L 89.82,0.945 c 5.2,0 9.418,3.9 9.42,8.71 z"
       id="path1926"
       inkscape:connector-curvature="0"
       style="fill:#dedefd" />
    <path
       d="m 98.872,82.662 c 0,4.795 -4.2,8.685 -9.376,8.688 l -78.912,0.043 c -5.178,0 -9.379,-3.882 -9.382,-8.677 L 1.163,9.677 c 0,-4.8 4.194,-8.685 9.371,-8.688 L 89.447,0.945 c 5.18,0 9.382,3.882 9.385,8.678 z"
       id="path1928"
       inkscape:connector-curvature="0"
       style="fill:#ddddfd" />
    <path
       d="m 98.463,82.356 c 0,4.777 -4.18,8.653 -9.34,8.655 L 10.505,91.055 C 5.348,91.055 1.162,87.187 1.16,82.41 L 1.12,9.644 C 1.117,4.866 5.3,0.992 10.456,0.989 L 89.074,0.945 c 5.16,0 9.347,3.867 9.349,8.646 z"
       id="path1930"
       inkscape:connector-curvature="0"
       style="fill:#dcdcfd" />
    <path
       d="m 98.054,82.05 c 0,4.759 -4.163,8.62 -9.305,8.623 l -78.322,0.043 c -5.138,0 -9.308,-3.853 -9.31,-8.612 L 1.077,9.612 c 0,-4.76 4.163,-8.62 9.3,-8.623 L 88.7,0.945 c 5.142,0 9.312,3.853 9.315,8.613 z"
       id="path1932"
       inkscape:connector-curvature="0"
       style="fill:#dcdcfd" />
    <path
       d="m 97.646,81.744 c 0,4.742 -4.148,8.588 -9.271,8.591 l -78.026,0.043 c -5.118,0 -9.273,-3.839 -9.275,-8.58 L 1.035,9.58 C 1.032,4.837 5.182,0.992 10.3,0.989 L 88.327,0.945 c 5.122,0 9.277,3.839 9.279,8.581 z"
       id="path1934"
       inkscape:connector-curvature="0"
       style="fill:#dbdbfc" />
    <path
       d="m 97.237,81.438 c 0,4.724 -4.132,8.555 -9.235,8.558 l -77.731,0.043 c -5.1,0 -9.237,-3.824 -9.24,-8.547 L 0.992,9.547 C 0.989,4.823 5.124,0.992 10.223,0.989 l 77.73,-0.043 c 5.1,0 9.242,3.823 9.245,8.548 z"
       id="path1936"
       inkscape:connector-curvature="0"
       style="fill:#dadafc" />
    <path
       d="m 96.829,81.132 c 0,4.706 -4.117,8.523 -9.2,8.526 L 10.193,89.7 c -5.079,0 -9.2,-3.81 -9.2,-8.516 L 0.949,9.515 c 0,-4.707 4.116,-8.523 9.2,-8.526 L 87.58,0.946 c 5.084,0 9.207,3.809 9.209,8.515 z"
       id="path1938"
       inkscape:connector-curvature="0"
       style="fill:#d9d9fc" />
    <path
       d="m 96.42,80.826 c 0,4.688 -4.1,8.491 -9.165,8.493 l -77.14,0.043 c -5.06,0 -9.167,-3.8 -9.17,-8.483 L 0.907,9.482 c 0,-4.688 4.1,-8.49 9.16,-8.493 l 77.14,-0.043 c 5.064,0 9.171,3.8 9.174,8.483 z"
       id="path1940"
       inkscape:connector-curvature="0"
       style="fill:#d8d8fc" />
    <path
       d="m 96.011,80.52 c 0,4.671 -4.085,8.458 -9.13,8.461 L 10.037,89.024 C 5,89.026 0.905,85.243 0.9,80.573 L 0.864,9.45 C 0.861,4.779 4.949,0.992 9.989,0.989 L 86.833,0.946 c 5.045,0 9.137,3.78 9.14,8.451 z"
       id="path1942"
       inkscape:connector-curvature="0"
       style="fill:#d7d7fc" />
    <path
       d="m 95.6,80.215 c 0,4.652 -4.07,8.425 -9.095,8.428 L 9.956,88.685 c -5.021,0 -9.1,-3.766 -9.1,-8.418 L 0.821,9.417 C 0.819,4.765 4.89,0.992 9.912,0.989 L 86.46,0.946 c 5.026,0 9.1,3.766 9.1,8.419 z"
       id="path1944"
       inkscape:connector-curvature="0"
       style="fill:#d7d7fc" />
    <path
       d="m 95.194,79.909 c 0,4.634 -4.054,8.392 -9.06,8.395 L 9.881,88.346 c -5,0 -9.062,-3.751 -9.064,-8.385 L 0.778,9.385 C 0.776,4.75 4.832,0.992 9.834,0.989 L 86.086,0.947 c 5.007,0 9.067,3.751 9.07,8.385 z"
       id="path1946"
       inkscape:connector-curvature="0"
       style="fill:#d6d6fc" />
    <path
       d="m 94.785,79.6 c 0,4.616 -4.038,8.36 -9.025,8.363 L 9.8,88.008 c -4.982,0 -9.026,-3.737 -9.029,-8.353 L 0.736,9.352 c 0,-4.617 4.038,-8.36 9.02,-8.363 L 85.713,0.947 c 4.987,0 9.032,3.736 9.034,8.353 z"
       id="path1948"
       inkscape:connector-curvature="0"
       style="fill:#d5d5fc" />
    <path
       d="m 94.377,79.3 c 0,4.6 -4.022,8.328 -8.99,8.33 L 9.725,87.672 c -4.963,0 -8.991,-3.722 -8.994,-8.32 L 0.693,9.32 c 0,-4.6 4.022,-8.328 8.985,-8.331 L 85.34,0.947 c 4.967,0 9,3.722 9,8.321 z"
       id="path1950"
       inkscape:connector-curvature="0"
       style="fill:#d4d4fc" />
  </g>
  <g
     style="isolation:isolate;mix-blend-mode:multiply"
     id="g2058">
    <path
       d="m 101.578,94.829 c 0,5.547 5.188,10.052 11.587,10.056 l 97.542,0.054 c 6.405,0 11.6,-4.5 11.6,-10.044 l 0.046,-84.565 c 0,-5.552 -5.182,-10.055 -11.587,-10.058 L 113.222,0.218 c -6.4,0 -11.594,4.493 -11.6,10.045 z"
       id="path1954"
       inkscape:connector-curvature="0"
       style="fill:#ffffff" />
    <path
       d="m 102.018,94.521 c 0,5.529 5.17,10.019 11.549,10.023 l 97.224,0.054 c 6.384,0 11.557,-4.481 11.56,-10.011 L 222.4,10.3 C 222.4,4.765 217.234,0.277 210.851,0.274 L 113.624,0.218 c -6.379,0 -11.557,4.479 -11.56,10.013 z"
       id="path1956"
       inkscape:connector-curvature="0"
       style="fill:#fefeff" />
    <path
       d="m 102.457,94.213 c 0,5.511 5.154,9.987 11.512,9.99 l 96.906,0.054 c 6.362,0 11.519,-4.467 11.522,-9.978 l 0.046,-84.014 c 0,-5.516 -5.149,-9.99 -11.512,-9.993 L 114.025,0.218 c -6.358,0 -11.519,4.464 -11.522,9.98 z"
       id="path1958"
       inkscape:connector-curvature="0"
       style="fill:#fdfdff" />
    <path
       d="m 102.9,93.905 c 0,5.493 5.137,9.954 11.474,9.957 l 96.589,0.054 c 6.341,0 11.481,-4.452 11.484,-9.945 l 0.046,-83.739 c 0,-5.5 -5.132,-9.957 -11.474,-9.96 L 114.427,0.218 c -6.337,0 -11.482,4.45 -11.485,9.948 z"
       id="path1960"
       inkscape:connector-curvature="0"
       style="fill:#fcfcff" />
    <path
       d="m 103.336,93.6 c 0,5.475 5.119,9.921 11.436,9.925 l 96.271,0.053 c 6.32,0 11.443,-4.437 11.446,-9.913 l 0.046,-83.463 c 0,-5.48 -5.116,-9.924 -11.436,-9.927 L 114.828,0.219 c -6.316,0 -11.444,4.434 -11.447,9.914 z"
       id="path1962"
       inkscape:connector-curvature="0"
       style="fill:#fcfcff" />
    <path
       d="m 103.775,93.288 c 0,5.458 5.1,9.89 11.4,9.893 l 95.953,0.053 c 6.3,0 11.406,-4.422 11.409,-9.88 l 0.045,-83.187 c 0,-5.462 -5.1,-9.892 -11.4,-9.895 L 115.229,0.219 c -6.3,0 -11.406,4.42 -11.409,9.882 z"
       id="path1964"
       inkscape:connector-curvature="0"
       style="fill:#fbfbff" />
    <path
       d="m 104.214,92.98 c 0,5.44 5.086,9.857 11.361,9.86 l 95.635,0.053 c 6.279,0 11.368,-4.407 11.371,-9.847 l 0.045,-82.912 c 0,-5.444 -5.081,-9.859 -11.36,-9.862 L 115.631,0.219 c -6.275,0 -11.369,4.4 -11.372,9.849 z"
       id="path1966"
       inkscape:connector-curvature="0"
       style="fill:#fafaff" />
    <path
       d="m 104.653,92.672 c 0,5.422 5.07,9.824 11.324,9.828 l 95.317,0.052 c 6.258,0 11.33,-4.393 11.333,-9.814 l 0.045,-82.637 c 0,-5.426 -5.064,-9.826 -11.322,-9.829 L 116.032,0.219 c -6.254,0 -11.331,4.391 -11.334,9.817 z"
       id="path1968"
       inkscape:connector-curvature="0"
       style="fill:#f9f9ff" />
    <path
       d="m 105.093,92.364 c 0,5.4 5.052,9.791 11.285,9.8 l 95,0.052 c 6.237,0 11.292,-4.378 11.3,-9.782 l 0.045,-82.36 c 0,-5.408 -5.048,-9.794 -11.284,-9.8 l -95,-0.053 C 110.2,0.216 105.141,4.6 105.138,10 Z"
       id="path1970"
       inkscape:connector-curvature="0"
       style="fill:#f8f8ff" />
    <path
       d="m 105.532,92.056 c 0,5.386 5.035,9.759 11.248,9.762 l 94.682,0.053 c 6.216,0 11.254,-4.364 11.257,-9.75 l 0.045,-82.085 c 0,-5.39 -5.031,-9.761 -11.247,-9.764 L 116.835,0.22 c -6.212,0 -11.255,4.361 -11.258,9.751 z"
       id="path1972"
       inkscape:connector-curvature="0"
       style="fill:#f7f7fe" />
    <path
       d="m 105.971,91.748 c 0,5.368 5.019,9.726 11.21,9.729 l 94.365,0.053 c 6.2,0 11.216,-4.349 11.219,-9.717 L 222.81,10 c 0,-5.372 -5.014,-9.728 -11.209,-9.731 L 117.236,0.22 c -6.191,0 -11.217,4.347 -11.22,9.718 z"
       id="path1974"
       inkscape:connector-curvature="0"
       style="fill:#f7f7fe" />
    <path
       d="m 106.411,91.44 c 0,5.35 5,9.693 11.172,9.7 l 94.047,0.052 c 6.173,0 11.178,-4.335 11.181,-9.684 l 0.045,-81.535 c 0,-5.353 -5,-9.695 -11.171,-9.7 L 117.638,0.22 c -6.171,0 -11.18,4.332 -11.183,9.686 z"
       id="path1976"
       inkscape:connector-curvature="0"
       style="fill:#f6f6fe" />
    <path
       d="m 106.85,91.132 c 0,5.332 4.984,9.661 11.134,9.664 l 93.729,0.052 c 6.153,0 11.141,-4.32 11.144,-9.651 L 222.9,9.938 c 0,-5.336 -4.981,-9.663 -11.134,-9.666 L 118.039,0.22 c -6.15,0 -11.142,4.318 -11.145,9.653 z"
       id="path1978"
       inkscape:connector-curvature="0"
       style="fill:#f5f5fe" />
    <path
       d="m 107.289,90.824 c 0,5.314 4.968,9.628 11.1,9.631 l 93.411,0.052 c 6.132,0 11.1,-4.305 11.106,-9.619 L 222.947,9.9 c 0,-5.317 -4.963,-9.63 -11.095,-9.633 L 118.441,0.22 c -6.13,0 -11.105,4.3 -11.108,9.621 z"
       id="path1980"
       inkscape:connector-curvature="0"
       style="fill:#f4f4fe" />
    <path
       d="m 107.728,90.516 c 0,5.3 4.951,9.595 11.06,9.6 l 93.093,0.051 c 6.111,0 11.066,-4.29 11.068,-9.586 l 0.044,-80.708 c 0,-5.3 -4.946,-9.6 -11.057,-9.6 L 118.842,0.221 c -6.109,0 -11.067,4.288 -11.07,9.587 z"
       id="path1982"
       inkscape:connector-curvature="0"
       style="fill:#f3f3fe" />
    <path
       d="m 108.168,90.208 c 0,5.278 4.933,9.562 11.021,9.566 l 92.776,0.051 c 6.09,0 11.028,-4.276 11.03,-9.553 L 223.039,9.84 c 0,-5.282 -4.93,-9.564 -11.02,-9.568 L 119.243,0.221 c -6.087,0 -11.029,4.274 -11.032,9.555 z"
       id="path1984"
       inkscape:connector-curvature="0"
       style="fill:#f2f2fe" />
    <path
       d="m 108.607,89.9 c 0,5.26 4.917,9.53 10.984,9.533 l 92.458,0.051 c 6.069,0 10.99,-4.261 10.992,-9.52 l 0.044,-80.157 c 0,-5.263 -4.913,-9.531 -10.982,-9.535 L 119.645,0.221 c -6.067,0 -10.992,4.259 -10.994,9.522 z"
       id="path1986"
       inkscape:connector-curvature="0"
       style="fill:#f2f2fe" />
    <path
       d="m 109.046,89.592 c 0,5.242 4.9,9.5 10.946,9.5 l 92.141,0.051 c 6.048,0 10.952,-4.246 10.954,-9.488 l 0.044,-79.881 c 0,-5.245 -4.9,-9.5 -10.944,-9.5 L 120.046,0.221 c -6.046,0 -10.953,4.245 -10.956,9.49 z"
       id="path1988"
       inkscape:connector-curvature="0"
       style="fill:#f1f1fe" />
    <path
       d="m 109.486,89.284 c 0,5.224 4.882,9.464 10.908,9.468 l 91.823,0.05 c 6.027,0 10.914,-4.231 10.917,-9.455 l 0.043,-79.606 c 0,-5.227 -4.88,-9.465 -10.907,-9.469 L 120.448,0.221 c -6.026,0 -10.916,4.23 -10.919,9.457 z"
       id="path1990"
       inkscape:connector-curvature="0"
       style="fill:#f0f0fe" />
    <path
       d="m 109.925,88.976 c 0,5.206 4.866,9.432 10.871,9.435 l 91.5,0.051 c 6.007,0 10.877,-4.217 10.88,-9.423 l 0.043,-79.33 c 0,-5.209 -4.863,-9.433 -10.869,-9.437 l -91.501,-0.05 c -6.005,0 -10.878,4.215 -10.881,9.424 z"
       id="path1992"
       inkscape:connector-curvature="0"
       style="fill:#efeffe" />
    <path
       d="m 110.364,88.668 c 0,5.188 4.849,9.4 10.833,9.4 l 91.187,0.051 c 5.986,0 10.839,-4.2 10.842,-9.39 l 0.043,-79.055 c 0,-5.191 -4.846,-9.4 -10.831,-9.4 L 121.25,0.222 c -5.984,0 -10.84,4.2 -10.843,9.391 z"
       id="path1994"
       inkscape:connector-curvature="0"
       style="fill:#eeeefe" />
    <path
       d="m 110.8,88.36 c 0,5.17 4.832,9.366 10.8,9.369 l 90.869,0.051 c 5.964,0 10.8,-4.188 10.8,-9.358 l 0.042,-78.779 c 0,-5.173 -4.829,-9.367 -10.793,-9.371 l -90.866,-0.05 c -5.963,0 -10.8,4.186 -10.806,9.359 z"
       id="path1996"
       inkscape:connector-curvature="0"
       style="fill:#ededfe" />
    <path
       d="m 111.243,88.052 c 0,5.152 4.815,9.333 10.757,9.337 l 90.552,0.05 c 5.943,0 10.763,-4.173 10.766,-9.325 l 0.042,-78.5 c 0,-5.154 -4.812,-9.334 -10.755,-9.338 L 122.053,0.222 c -5.942,0 -10.765,4.172 -10.768,9.326 z"
       id="path1998"
       inkscape:connector-curvature="0"
       style="fill:#ececfe" />
    <path
       d="m 111.682,87.744 c 0,5.134 4.8,9.3 10.72,9.3 l 90.234,0.05 c 5.922,0 10.725,-4.158 10.728,-9.292 l 0.042,-78.228 c 0,-5.137 -4.8,-9.3 -10.717,-9.306 L 122.455,0.222 c -5.922,0 -10.728,4.157 -10.73,9.294 z"
       id="path2000"
       inkscape:connector-curvature="0"
       style="fill:#ececfe" />
    <path
       d="m 112.121,87.436 c 0,5.116 4.782,9.268 10.683,9.271 l 89.916,0.05 c 5.9,0 10.687,-4.144 10.69,-9.259 l 0.042,-77.953 c 0,-5.119 -4.778,-9.269 -10.68,-9.273 L 122.856,0.223 c -5.9,0 -10.69,4.142 -10.692,9.26 z"
       id="path2002"
       inkscape:connector-curvature="0"
       style="fill:#ebebfe" />
    <path
       d="m 112.561,87.128 c 0,5.1 4.764,9.235 10.644,9.239 l 89.6,0.049 c 5.88,0 10.649,-4.129 10.652,-9.227 L 223.5,9.512 c 0,-5.1 -4.762,-9.236 -10.642,-9.24 l -89.6,-0.049 c -5.88,0 -10.651,4.127 -10.654,9.228 z"
       id="path2004"
       inkscape:connector-curvature="0"
       style="fill:#eaeafe" />
    <path
       d="m 113,86.82 c 0,5.08 4.747,9.2 10.607,9.206 l 89.281,0.049 c 5.859,0 10.611,-4.114 10.614,-9.194 l 0.042,-77.4 c 0,-5.083 -4.745,-9.2 -10.6,-9.208 l -89.285,-0.05 c -5.86,0 -10.614,4.113 -10.617,9.195 z"
       id="path2006"
       inkscape:connector-curvature="0"
       style="fill:#e9e9fd" />
    <path
       d="m 113.439,86.512 c 0,5.062 4.731,9.17 10.569,9.173 l 88.963,0.049 c 5.839,0 10.574,-4.1 10.577,-9.161 L 223.59,9.447 c 0,-5.064 -4.728,-9.171 -10.567,-9.175 L 124.06,0.223 c -5.838,0 -10.576,4.1 -10.579,9.163 z"
       id="path2008"
       inkscape:connector-curvature="0"
       style="fill:#e8e8fd" />
    <path
       d="m 113.878,86.2 c 0,5.044 4.714,9.137 10.532,9.14 l 88.645,0.049 c 5.818,0 10.536,-4.084 10.539,-9.128 L 223.636,9.41 c 0,-5.046 -4.712,-9.138 -10.529,-9.142 L 124.462,0.223 c -5.818,0 -10.539,4.084 -10.542,9.13 z"
       id="path2010"
       inkscape:connector-curvature="0"
       style="fill:#e7e7fd" />
    <path
       d="m 114.318,85.9 c 0,5.026 4.7,9.1 10.493,9.108 l 88.328,0.049 c 5.8,0 10.5,-4.071 10.5,-9.1 l 0.042,-76.575 c 0,-5.028 -4.695,-9.1 -10.491,-9.109 L 124.863,0.224 c -5.8,0 -10.5,4.069 -10.5,9.1 z"
       id="path2012"
       inkscape:connector-curvature="0"
       style="fill:#e7e7fd" />
    <path
       d="m 114.757,85.588 c 0,5.008 4.68,9.072 10.456,9.075 l 88.01,0.049 c 5.775,0 10.46,-4.056 10.463,-9.064 l 0.041,-76.3 c 0,-5.01 -4.677,-9.073 -10.453,-9.077 l -88.01,-0.047 c -5.776,0 -10.463,4.054 -10.466,9.064 z"
       id="path2014"
       inkscape:connector-curvature="0"
       style="fill:#e6e6fd" />
    <path
       d="m 115.2,85.28 c 0,4.99 4.663,9.039 10.419,9.042 l 87.692,0.049 c 5.754,0 10.422,-4.041 10.425,-9.031 l 0.041,-76.024 c 0,-4.992 -4.66,-9.04 -10.415,-9.043 L 125.666,0.224 c -5.756,0 -10.426,4.04 -10.428,9.032 z"
       id="path2016"
       inkscape:connector-curvature="0"
       style="fill:#e5e5fd" />
    <path
       d="m 115.635,84.972 c 0,4.972 4.646,9.006 10.381,9.009 l 87.375,0.049 c 5.733,0 10.384,-4.026 10.387,-9 l 0.041,-75.749 c 0,-4.974 -4.644,-9.007 -10.377,-9.01 L 126.067,0.224 c -5.735,0 -10.388,4.025 -10.39,9 z"
       id="path2018"
       inkscape:connector-curvature="0"
       style="fill:#e4e4fd" />
    <path
       d="m 116.075,84.664 c 0,4.954 4.629,8.974 10.343,8.977 l 87.057,0.048 c 5.712,0 10.346,-4.012 10.349,-8.966 l 0.041,-75.472 c 0,-4.956 -4.627,-8.975 -10.34,-8.978 L 126.469,0.224 c -5.714,0 -10.35,4.011 -10.353,8.967 z"
       id="path2020"
       inkscape:connector-curvature="0"
       style="fill:#e3e3fd" />
    <path
       d="m 116.514,84.356 c 0,4.936 4.612,8.941 10.305,8.944 l 86.739,0.048 c 5.692,0 10.309,-4 10.312,-8.933 l 0.041,-75.2 c 0,-4.938 -4.61,-8.942 -10.3,-8.945 L 126.87,0.225 c -5.693,0 -10.312,4 -10.315,8.933 z"
       id="path2022"
       inkscape:connector-curvature="0"
       style="fill:#e2e2fd" />
    <path
       d="m 116.953,84.048 c 0,4.918 4.595,8.908 10.268,8.911 l 86.421,0.048 c 5.671,0 10.271,-3.982 10.274,-8.9 l 0.041,-74.922 c 0,-4.92 -4.594,-8.909 -10.264,-8.912 L 127.271,0.225 c -5.672,0 -10.274,3.981 -10.277,8.9 z"
       id="path2024"
       inkscape:connector-curvature="0"
       style="fill:#e1e1fd" />
    <path
       d="m 117.393,83.74 c 0,4.9 4.578,8.875 10.23,8.879 l 86.1,0.047 c 5.65,0 10.233,-3.967 10.236,-8.867 L 224,9.152 c 0,-4.9 -4.577,-8.876 -10.227,-8.879 l -86.1,-0.048 c -5.652,0 -10.237,3.967 -10.24,8.868 z"
       id="path2026"
       inkscape:connector-curvature="0"
       style="fill:#e1e1fd" />
    <path
       d="m 117.832,83.432 c 0,4.882 4.561,8.843 10.192,8.846 l 85.786,0.047 c 5.629,0 10.195,-3.952 10.2,-8.835 l 0.041,-74.37 c 0,-4.884 -4.56,-8.844 -10.189,-8.847 L 128.074,0.225 c -5.631,0 -10.2,3.952 -10.2,8.836 z"
       id="path2028"
       inkscape:connector-curvature="0"
       style="fill:#e0e0fd" />
    <path
       d="m 118.271,83.124 c 0,4.864 4.544,8.81 10.155,8.813 l 85.468,0.047 c 5.608,0 10.157,-3.938 10.16,-8.8 l 0.04,-74.095 c 0,-4.865 -4.542,-8.811 -10.15,-8.814 l -85.468,-0.05 c -5.611,0 -10.162,3.938 -10.164,8.8 z"
       id="path2030"
       inkscape:connector-curvature="0"
       style="fill:#dfdffd" />
    <path
       d="m 118.71,82.816 c 0,4.846 4.528,8.777 10.117,8.78 l 85.151,0.048 c 5.586,0 10.119,-3.924 10.122,-8.77 l 0.04,-73.82 c 0,-4.847 -4.526,-8.778 -10.113,-8.781 l -85.15,-0.047 c -5.589,0 -10.124,3.923 -10.126,8.77 z"
       id="path2032"
       inkscape:connector-curvature="0"
       style="fill:#dedefd" />
    <path
       d="m 119.15,82.507 c 0,4.829 4.51,8.746 10.079,8.749 l 84.833,0.047 c 5.565,0 10.082,-3.909 10.084,-8.737 l 0.04,-73.544 c 0,-4.83 -4.509,-8.746 -10.075,-8.749 L 129.278,0.226 c -5.568,0 -10.086,3.908 -10.088,8.737 z"
       id="path2034"
       inkscape:connector-curvature="0"
       style="fill:#ddddfd" />
    <path
       d="m 119.589,82.2 c 0,4.811 4.493,8.713 10.042,8.716 l 84.514,0.047 c 5.545,0 10.045,-3.894 10.047,-8.7 l 0.04,-73.268 c 0,-4.811 -4.492,-8.713 -10.037,-8.716 L 129.68,0.226 c -5.548,0 -10.048,3.894 -10.051,8.7 z"
       id="path2036"
       inkscape:connector-curvature="0"
       style="fill:#dcdcfd" />
    <path
       d="m 120.028,81.891 c 0,4.793 4.477,8.68 10,8.683 l 84.2,0.047 c 5.524,0 10.007,-3.88 10.009,-8.672 l 0.04,-72.993 c 0,-4.793 -4.476,-8.68 -10,-8.683 l -84.2,-0.047 c -5.527,0 -10.01,3.879 -10.013,8.672 z"
       id="path2038"
       inkscape:connector-curvature="0"
       style="fill:#dcdcfd" />
    <path
       d="m 120.468,81.583 c 0,4.775 4.459,8.647 9.966,8.651 l 83.879,0.046 c 5.5,0 9.969,-3.865 9.971,-8.639 l 0.04,-72.718 c 0,-4.775 -4.459,-8.647 -9.962,-8.65 L 130.483,0.226 c -5.507,0 -9.973,3.865 -9.976,8.64 z"
       id="path2040"
       inkscape:connector-curvature="0"
       style="fill:#dbdbfc" />
    <path
       d="m 120.907,81.275 c 0,4.757 4.443,8.615 9.928,8.618 l 83.562,0.046 c 5.482,0 9.931,-3.85 9.933,-8.606 l 0.04,-72.442 c 0,-4.757 -4.442,-8.615 -9.924,-8.618 L 130.884,0.227 c -5.486,0 -9.935,3.849 -9.938,8.606 z"
       id="path2042"
       inkscape:connector-curvature="0"
       style="fill:#dadafc" />
    <path
       d="m 121.346,80.967 c 0,4.739 4.426,8.582 9.891,8.585 l 83.244,0.046 c 5.461,0 9.893,-3.835 9.9,-8.574 l 0.04,-72.166 c 0,-4.739 -4.426,-8.582 -9.887,-8.585 L 131.285,0.227 c -5.464,0 -9.9,3.835 -9.9,8.574 z"
       id="path2044"
       inkscape:connector-curvature="0"
       style="fill:#d9d9fc" />
    <path
       d="m 121.785,80.659 c 0,4.721 4.409,8.549 9.853,8.552 l 82.927,0.046 c 5.44,0 9.855,-3.821 9.857,-8.541 l 0.039,-71.891 c 0,-4.721 -4.408,-8.549 -9.848,-8.552 L 131.687,0.227 c -5.444,0 -9.86,3.821 -9.862,8.541 z"
       id="path2046"
       inkscape:connector-curvature="0"
       style="fill:#d8d8fc" />
    <path
       d="m 122.225,80.351 c 0,4.7 4.392,8.517 9.815,8.52 l 82.609,0.045 c 5.419,0 9.817,-3.806 9.819,-8.508 l 0.039,-71.616 c 0,-4.7 -4.391,-8.516 -9.81,-8.519 L 132.088,0.227 c -5.423,0 -9.822,3.806 -9.824,8.509 z"
       id="path2048"
       inkscape:connector-curvature="0"
       style="fill:#d7d7fc" />
    <path
       d="m 122.664,80.043 c 0,4.685 4.375,8.484 9.778,8.487 l 82.29,0.045 c 5.4,0 9.78,-3.791 9.782,-8.475 l 0.039,-71.34 c 0,-4.685 -4.374,-8.484 -9.773,-8.487 L 132.49,0.227 c -5.4,0 -9.785,3.792 -9.787,8.476 z"
       id="path2050"
       inkscape:connector-curvature="0"
       style="fill:#d7d7fc" />
    <path
       d="m 123.1,79.735 c 0,4.667 4.358,8.451 9.74,8.454 l 81.973,0.046 c 5.377,0 9.742,-3.777 9.744,-8.444 L 224.6,8.727 c 0,-4.667 -4.358,-8.451 -9.735,-8.454 L 132.891,0.228 c -5.382,0 -9.747,3.776 -9.749,8.443 z"
       id="path2052"
       inkscape:connector-curvature="0"
       style="fill:#d6d6fc" />
    <path
       d="m 123.543,79.427 c 0,4.649 4.341,8.419 9.7,8.421 l 81.655,0.046 c 5.356,0 9.7,-3.762 9.706,-8.411 l 0.039,-70.789 c 0,-4.648 -4.341,-8.418 -9.7,-8.421 l -81.65,-0.045 c -5.362,0 -9.709,3.762 -9.712,8.41 z"
       id="path2054"
       inkscape:connector-curvature="0"
       style="fill:#d5d5fc" />
    <path
       d="m 123.982,79.119 c 0,4.631 4.324,8.386 9.664,8.389 l 81.338,0.045 c 5.335,0 9.666,-3.748 9.668,-8.378 l 0.039,-70.513 c 0,-4.631 -4.324,-8.386 -9.659,-8.389 L 133.694,0.228 c -5.341,0 -9.671,3.747 -9.674,8.378 z"
       id="path2056"
       inkscape:connector-curvature="0"
       style="fill:#d4d4fc" />
  </g>
  <rect
     y="0.44800001"
     width="225.38499"
     height="98.739998"
     rx="8.2279997"
     id="rect2060"
     x="0"
     style="isolation:isolate;fill:#ffffff" />
  <rect
     x="0.537"
     y="0.44800001"
     width="224.84801"
     height="97.846001"
     rx="8.1809998"
     id="rect2062"
     style="isolation:isolate;fill:url(#Unbenannter_Verlauf_31)" />
  <g
     style="isolation:isolate"
     id="g2092">
    <path
       d="M 16.932,16.925 H 20.1 a 8.617,8.617 0 0 1 3.348,0.551 4.225,4.225 0 0 1 2.064,2.036 8.747,8.747 0 0 1 0.774,4.014 9.935,9.935 0 0 1 -0.47,3.189 5.841,5.841 0 0 1 -1.236,2.192 3.811,3.811 0 0 1 -1.725,1.074 8.939,8.939 0 0 1 -2.4,0.274 h -3.52 z m 2.941,2.285 v 8.759 h 0.5 a 2.741,2.741 0 0 0 1.583,-0.391 2.646,2.646 0 0 0 0.9,-1.363 9.124,9.124 0 0 0 0.334,-2.811 7.3,7.3 0 0 0 -0.369,-2.62 2.434,2.434 0 0 0 -0.924,-1.247 3,3 0 0 0 -1.519,-0.327 z"
       id="path2064"
       inkscape:connector-curvature="0"
       style="fill:#ffffff" />
    <path
       d="m 28.216,16.925 h 2.942 v 13.33 h -2.942 z"
       id="path2066"
       inkscape:connector-curvature="0"
       style="fill:#ffffff" />
    <path
       d="m 38.384,23.145 h 4.647 v 7.11 H 41.786 L 41.4,28.731 a 3.564,3.564 0 0 1 -3.235,1.729 4.286,4.286 0 0 1 -3.623,-1.792 7.871,7.871 0 0 1 -1.339,-4.82 9.071,9.071 0 0 1 1.319,-5.21 4.423,4.423 0 0 1 3.9,-1.919 q 4.108,0 4.608,4.571 l -2.647,0.429 q -0.275,-2.616 -1.9,-2.617 a 1.794,1.794 0 0 0 -1.583,0.967 7.717,7.717 0 0 0 -0.594,3.662 7.058,7.058 0 0 0 0.579,3.369 1.857,1.857 0 0 0 1.7,0.977 q 1.8,0 1.8,-2.647 h -2 z"
       id="path2068"
       inkscape:connector-curvature="0"
       style="fill:#ffffff" />
    <path
       d="m 45.325,16.925 h 2.942 v 13.33 h -2.942 z"
       id="path2070"
       inkscape:connector-curvature="0"
       style="fill:#ffffff" />
    <path
       d="m 49.3,16.925 h 8.34 v 2.5 H 54.9 v 10.83 H 51.963 V 19.425 H 49.3 Z"
       id="path2072"
       inkscape:connector-curvature="0"
       style="fill:#ffffff" />
    <path
       d="m 60.757,16.925 h 2.961 l 3.824,13.33 H 64.534 L 63.866,27.5 H 60.1 l -0.656,2.754 h -2.7 z m 2.556,8.291 -1.352,-5.462 -1.3,5.462 z"
       id="path2074"
       inkscape:connector-curvature="0"
       style="fill:#ffffff" />
    <path
       d="m 68.66,16.925 h 2.94 v 10.83 h 4.314 v 2.5 H 68.66 Z"
       id="path2076"
       inkscape:connector-curvature="0"
       style="fill:#ffffff" />
    <path
       d="m 77.209,16.925 h 8.138 v 2.285 h -5.2 v 3.095 h 4.043 v 2.286 h -4.039 v 3.281 h 5.2 v 2.383 h -8.142 z"
       id="path2078"
       inkscape:connector-curvature="0"
       style="fill:#ffffff" />
    <path
       d="m 90.533,16.925 h 4.314 l 1.893,8.232 2.127,-8.232 h 4.187 v 13.33 H 100.3 V 19.092 l -2.737,11.163 h -2.137 l -2.5,-11.163 v 11.163 h -2.393 z"
       id="path2080"
       inkscape:connector-curvature="0"
       style="fill:#ffffff" />
    <path
       d="m 105.583,16.925 h 8.138 v 2.285 h -5.2 v 3.095 h 4.039 v 2.286 h -4.039 v 3.281 h 5.2 v 2.383 h -8.138 z"
       id="path2082"
       inkscape:connector-curvature="0"
       style="fill:#ffffff" />
    <path
       d="m 115.162,16.925 h 3.167 a 8.622,8.622 0 0 1 3.349,0.551 4.219,4.219 0 0 1 2.063,2.036 8.733,8.733 0 0 1 0.775,4.014 9.934,9.934 0 0 1 -0.471,3.189 5.84,5.84 0 0 1 -1.235,2.192 3.809,3.809 0 0 1 -1.726,1.074 8.939,8.939 0 0 1 -2.4,0.274 h -3.52 z m 2.938,2.285 v 8.759 h 0.5 a 2.741,2.741 0 0 0 1.583,-0.391 2.651,2.651 0 0 0 0.894,-1.363 9.093,9.093 0 0 0 0.334,-2.811 7.325,7.325 0 0 0 -0.368,-2.62 2.43,2.43 0 0 0 -0.925,-1.247 2.993,2.993 0 0 0 -1.518,-0.327 z"
       id="path2084"
       inkscape:connector-curvature="0"
       style="fill:#ffffff" />
    <path
       d="m 126.446,16.925 h 2.942 v 13.33 h -2.942 z"
       id="path2086"
       inkscape:connector-curvature="0"
       style="fill:#ffffff" />
    <path
       d="m 131.918,16.925 h 8.138 v 2.285 h -5.2 v 3.095 h 4.044 v 2.286 h -4.04 v 3.281 h 5.2 v 2.383 h -8.138 z"
       id="path2088"
       inkscape:connector-curvature="0"
       style="fill:#ffffff" />
    <path
       d="m 141.389,16.925 h 3.264 l 3.442,8.281 v -8.281 h 2.274 v 13.33 h -2.628 l -4.078,-9.649 v 9.649 h -2.274 z"
       id="path2090"
       inkscape:connector-curvature="0"
       style="fill:#ffffff" />
  </g>
  <g
     style="isolation:isolate"
     id="g2126">
    <path
       d="m 18.3,42.8 -0.1,1.048 q -0.046,0.5 -0.047,1 a 7.509,7.509 0 0 0 0.082,1.031 0.625,0.625 0 0 1 -0.293,0.351 0.923,0.923 0 0 1 -0.5,0.147 q -0.805,0 -0.806,-1.02 a 20.721,20.721 0 0 1 0.253,-2.156 14.028,14.028 0 0 0 0.176,-1.822 c 0,-0.024 -0.023,-0.051 -0.07,-0.082 -0.27,-0.172 -0.406,-0.336 -0.406,-0.492 0,-0.2 0.151,-0.424 0.453,-0.663 a 0.694,0.694 0 0 0 0.268,-0.395 c 0.033,-0.15 0.081,-0.388 0.144,-0.712 a 5.657,5.657 0 0 1 0.985,-2.657 2.125,2.125 0 0 1 1.7,-0.788 1.428,1.428 0 0 1 1.015,0.389 1.268,1.268 0 0 1 0.415,0.964 2.719,2.719 0 0 1 -0.238,1.07 q -0.238,0.553 -0.627,0.553 a 0.409,0.409 0 0 1 -0.288,-0.108 0.366,0.366 0 0 1 -0.118,-0.284 l 0.036,-0.51 q 0,-0.913 -0.383,-0.914 -0.477,0 -0.891,1.192 a 6.365,6.365 0 0 0 -0.415,2.031 c 0,0.058 0.037,0.087 0.112,0.087 q 1.218,0 1.721,-0.011 0.503,-0.011 0.5,0.386 0,0.387 -0.609,0.572 a 4.392,4.392 0 0 1 -1.28,0.184 4.9,4.9 0 0 0 -0.588,0.076 c -0.094,0.579 -0.163,1.088 -0.206,1.53 z"
       id="path2094"
       inkscape:connector-curvature="0"
       style="fill:#ffffff" />
    <path
       d="m 25.29,43.633 a 5.44,5.44 0 0 1 -1.309,1.629 2.384,2.384 0 0 1 -1.509,0.6 1.31,1.31 0 0 1 -0.915,-0.475 2.019,2.019 0 0 1 -0.462,-1.459 9.587,9.587 0 0 1 0.353,-2.1 7.583,7.583 0 0 0 0.306,-1.764 0.773,0.773 0 0 1 0.735,-0.492 0.7,0.7 0 0 1 0.545,0.226 0.68,0.68 0 0 1 0.2,0.454 3.643,3.643 0 0 1 -0.293,1.183 11.272,11.272 0 0 0 -0.368,1.292 6.319,6.319 0 0 0 -0.2,1.07 c 0,0.519 0.107,0.779 0.323,0.779 q 0.513,0 1.383,-0.979 a 4.868,4.868 0 0 0 1.135,-2 5.151,5.151 0 0 1 0.471,-1.312 0.659,0.659 0 0 1 0.582,-0.311 q 0.612,0 0.612,0.68 a 1.673,1.673 0 0 1 -0.1,0.4 7.321,7.321 0 0 0 -0.347,2.337 q 0,1.524 0.517,1.823 a 0.286,0.286 0 0 1 0.171,0.246 q 0,0.21 -0.3,0.4 a 1.084,1.084 0 0 1 -0.57,0.188 q -0.466,0 -0.715,-0.654 A 5.017,5.017 0 0 1 25.29,43.633 Z m -1.706,-4.939 a 1.261,1.261 0 0 1 -0.55,-0.146 c -0.2,-0.1 -0.3,-0.206 -0.3,-0.323 0,-0.582 0.2,-0.873 0.612,-0.873 a 1.1,1.1 0 0 1 0.744,0.24 0.848,0.848 0 0 1 0.28,0.68 q 0.002,0.422 -0.786,0.422 z m 2.111,-0.152 a 0.739,0.739 0 0 1 -0.514,-0.2 0.623,0.623 0 0 1 -0.221,-0.472 0.524,0.524 0 0 1 0.18,-0.46 1.835,1.835 0 0 1 0.6,-0.226 l 0.1,-0.029 a 0.551,0.551 0 0 1 0.473,0.079 0.569,0.569 0 0 1 0.227,0.513 q -0.003,0.795 -0.84,0.795 z"
       id="path2096"
       inkscape:connector-curvature="0"
       style="fill:#ffffff" />
    <path
       d="m 29.948,42.872 0.1,-0.188 a 9.962,9.962 0 0 1 1.533,-2.311 2.276,2.276 0 0 1 1.6,-0.888 1.441,1.441 0 0 1 0.979,0.328 1,1 0 0 1 0.38,0.779 0.873,0.873 0 0 1 -0.13,0.484 0.4,0.4 0 0 1 -0.358,0.2 0.924,0.924 0 0 1 -0.665,-0.3 0.591,0.591 0 0 0 -0.336,-0.193 q -0.441,0 -1.476,1.365 a 6.276,6.276 0 0 0 -1.247,3.07 1.08,1.08 0 0 1 -0.288,0.689 0.885,0.885 0 0 1 -0.606,0.2 0.6,0.6 0 0 1 -0.577,-0.46 4.718,4.718 0 0 1 -0.17,-1.5 c 0,-0.285 0.007,-0.67 0.023,-1.154 q 0.024,-0.685 0.135,-1.676 c 0.02,-0.172 0.034,-0.306 0.042,-0.4 a 4.369,4.369 0 0 1 0.12,-0.788 0.837,0.837 0 0 1 0.315,-0.4 0.884,0.884 0 0 1 0.547,-0.187 0.617,0.617 0 0 1 0.483,0.182 0.582,0.582 0 0 1 0.164,0.4 5.163,5.163 0 0 1 -0.264,1.143 4.993,4.993 0 0 0 -0.16,0.714 z"
       id="path2098"
       inkscape:connector-curvature="0"
       style="fill:#ffffff" />
    <path
       d="m 43.567,43.821 q -1.524,2.151 -3.065,2.15 a 1.217,1.217 0 0 1 -1.006,-0.489 1.96,1.96 0 0 1 -0.382,-1.245 4.756,4.756 0 0 1 1.256,-3.037 3.443,3.443 0 0 1 2.544,-1.512 1.279,1.279 0 0 1 1.053,0.387 q 0.441,-1.921 0.524,-2.4 a 7.885,7.885 0 0 1 0.294,-1.184 0.955,0.955 0 0 1 0.359,-0.454 0.789,0.789 0 0 1 0.417,-0.161 0.514,0.514 0 0 1 0.459,0.246 1.123,1.123 0 0 1 0.159,0.621 4.943,4.943 0 0 1 -0.259,0.943 26.049,26.049 0 0 0 -0.785,3.059 15.273,15.273 0 0 0 -0.362,2.853 q 0,1.014 0.447,1.014 a 1.138,1.138 0 0 0 0.488,-0.123 1.087,1.087 0 0 1 0.365,-0.117 q 0.288,0 0.288,0.334 0,0.4 -0.585,0.806 a 1.987,1.987 0 0 1 -1.109,0.4 0.948,0.948 0 0 1 -0.87,-0.6 2.706,2.706 0 0 1 -0.23,-1.491 z m -0.653,-3.006 q -0.771,0 -1.609,1.172 a 3.789,3.789 0 0 0 -0.838,2.145 c 0,0.378 0.141,0.568 0.423,0.568 q 0.718,0 1.712,-1.272 a 3.762,3.762 0 0 0 0.994,-2.009 0.576,0.576 0 0 0 -0.188,-0.413 0.663,0.663 0 0 0 -0.494,-0.191 z"
       id="path2100"
       inkscape:connector-curvature="0"
       style="fill:#ffffff" />
    <path
       d="m 52.614,43.762 q 0,0.61 -1.029,1.456 a 3.559,3.559 0 0 1 -2.324,0.847 2.016,2.016 0 0 1 -1.565,-0.624 2.481,2.481 0 0 1 -0.57,-1.737 4.793,4.793 0 0 1 1.165,-3.076 3.256,3.256 0 0 1 2.488,-1.436 1.4,1.4 0 0 1 1.059,0.416 1.378,1.378 0 0 1 0.4,0.99 2.678,2.678 0 0 1 -0.982,1.943 5.331,5.331 0 0 1 -2.518,1.274 0.2,0.2 0 0 0 -0.177,0.211 0.764,0.764 0 0 0 0.25,0.536 0.893,0.893 0 0 0 0.668,0.255 3.319,3.319 0 0 0 2.347,-1.217 0.625,0.625 0 0 1 0.435,-0.234 c 0.239,0.004 0.353,0.134 0.353,0.396 z m -3.947,-1.037 a 3.564,3.564 0 0 0 1.638,-0.791 1.608,1.608 0 0 0 0.709,-1.095 0.494,0.494 0 0 0 -0.109,-0.326 0.343,0.343 0 0 0 -0.279,-0.131 1.658,1.658 0 0 0 -1.135,0.75 3.88,3.88 0 0 0 -0.824,1.593 z"
       id="path2102"
       inkscape:connector-curvature="0"
       style="fill:#ffffff" />
    <path
       d="m 58.532,44.923 a 5.782,5.782 0 0 1 -0.411,-1.969 q -0.131,-1.5 -0.577,-1.5 -0.423,0 -1.464,1.561 a 11.048,11.048 0 0 0 -1.28,2.306 0.768,0.768 0 0 1 -0.2,0.369 0.41,0.41 0 0 1 -0.285,0.147 c -0.6,0 -0.894,-0.272 -0.894,-0.815 a 9.539,9.539 0 0 1 0.176,-1.254 17.684,17.684 0 0 0 0.229,-3.093 0.987,0.987 0 0 1 0.242,-0.589 0.664,0.664 0 0 1 0.511,-0.314 0.741,0.741 0 0 1 0.524,0.17 q 0.181,0.169 0.182,0.9 A 13.136,13.136 0 0 1 54.95,43 q 1.276,-2.977 2.847,-2.977 1.365,0 1.6,2.139 0.236,2.18 0.542,2.179 a 1.009,1.009 0 0 0 0.311,-0.058 1.131,1.131 0 0 1 0.336,-0.07 q 0.282,0 0.282,0.328 a 0.91,0.91 0 0 1 -0.388,0.635 1.437,1.437 0 0 1 -0.977,0.337 1.009,1.009 0 0 1 -0.976,-0.591 z"
       id="path2104"
       inkscape:connector-curvature="0"
       style="fill:#ffffff" />
    <path
       d="m 69.915,46.171 a 3.677,3.677 0 0 1 -1.468,-0.393 2.678,2.678 0 0 1 -1.314,-1.333 4.618,4.618 0 0 1 -0.453,-2.03 8.784,8.784 0 0 1 0.164,-1.471 l 0.189,-1.084 c 0.027,-0.184 0.056,-0.363 0.088,-0.539 0.047,-0.27 0.088,-0.529 0.123,-0.779 a 2.433,2.433 0 0 1 0.289,-0.97 0.7,0.7 0 0 1 0.635,-0.325 q 0.211,0 0.432,0.331 a 1.051,1.051 0 0 1 0.221,0.507 q 0,0.123 -0.282,1.289 -0.07,0.292 -0.244,1.432 a 12.581,12.581 0 0 0 -0.174,1.544 2.48,2.48 0 0 0 0.656,2.016 1.941,1.941 0 0 0 1.109,0.521 2.706,2.706 0 0 0 2.065,-0.635 3.715,3.715 0 0 0 0.729,-2.077 c 0.02,-0.176 0.043,-0.342 0.071,-0.5 q 0.059,-0.6 0.1,-1.142 a 8.689,8.689 0 0 1 0.408,-2.59 0.831,0.831 0 0 1 0.762,-0.521 q 0.612,0 0.612,0.791 a 11.9,11.9 0 0 1 -0.23,1.746 14.1,14.1 0 0 0 -0.182,1.506 7.667,7.667 0 0 1 -0.488,2.6 3.565,3.565 0 0 1 -1.385,1.465 4.437,4.437 0 0 1 -2.433,0.641 z"
       id="path2106"
       inkscape:connector-curvature="0"
       style="fill:#ffffff" />
    <path
       d="m 80.628,44.923 a 5.777,5.777 0 0 1 -0.412,-1.969 q -0.129,-1.5 -0.577,-1.5 -0.423,0 -1.464,1.561 a 11.1,11.1 0 0 0 -1.283,2.306 0.768,0.768 0 0 1 -0.2,0.369 0.41,0.41 0 0 1 -0.285,0.147 q -0.894,0 -0.894,-0.815 a 9.539,9.539 0 0 1 0.176,-1.254 17.673,17.673 0 0 0 0.23,-3.093 0.985,0.985 0 0 1 0.241,-0.589 0.664,0.664 0 0 1 0.511,-0.314 0.741,0.741 0 0 1 0.524,0.17 c 0.121,0.113 0.183,0.414 0.183,0.9 A 13.062,13.062 0 0 1 77.045,43 q 1.276,-2.977 2.847,-2.977 1.365,0 1.6,2.139 0.237,2.18 0.542,2.179 a 1,1 0 0 0 0.311,-0.058 1.131,1.131 0 0 1 0.336,-0.07 q 0.282,0 0.282,0.328 a 0.906,0.906 0 0 1 -0.388,0.635 1.437,1.437 0 0 1 -0.977,0.337 1.009,1.009 0 0 1 -0.976,-0.591 z"
       id="path2108"
       inkscape:connector-curvature="0"
       style="fill:#ffffff" />
    <path
       d="m 86.051,41.02 a 6.784,6.784 0 0 0 -0.332,1.307 12.01,12.01 0 0 0 -0.279,1.582 1.533,1.533 0 0 0 0.1,0.671 0.353,0.353 0 0 0 0.338,0.19 1.781,1.781 0 0 0 0.632,-0.114 3.217,3.217 0 0 0 0.8,-0.513 0.894,0.894 0 0 1 0.518,-0.252 0.383,0.383 0 0 1 0.273,0.1 0.3,0.3 0 0 1 0.1,0.226 q 0,0.515 -0.835,1.169 a 2.824,2.824 0 0 1 -1.765,0.653 1.511,1.511 0 0 1 -1.185,-0.457 1.9,1.9 0 0 1 -0.409,-1.313 16.525,16.525 0 0 1 0.594,-3.158 c -0.251,0.027 -0.425,0.041 -0.523,0.041 h -0.124 a 1.023,1.023 0 0 1 -0.55,-0.176 0.614,0.614 0 0 1 -0.279,-0.562 q 0,-0.492 0.559,-0.492 l 1.258,-0.047 q 0.248,-0.709 0.524,-1.858 0.165,-0.714 0.747,-0.714 a 0.656,0.656 0 0 1 0.506,0.2 0.628,0.628 0 0 1 0.182,0.436 q 0,0.094 -0.5,1.811 1.872,-0.165 2.053,-0.164 a 0.646,0.646 0 0 1 0.412,0.091 0.462,0.462 0 0 1 0.1,0.348 q 0,0.522 -0.888,0.662 z"
       id="path2110"
       inkscape:connector-curvature="0"
       style="fill:#ffffff" />
    <path
       d="m 94.54,43.762 q 0,0.61 -1.029,1.456 a 3.561,3.561 0 0 1 -2.324,0.847 2.016,2.016 0 0 1 -1.565,-0.624 2.481,2.481 0 0 1 -0.57,-1.737 4.8,4.8 0 0 1 1.164,-3.076 3.258,3.258 0 0 1 2.489,-1.436 1.4,1.4 0 0 1 1.059,0.416 1.383,1.383 0 0 1 0.4,0.99 2.676,2.676 0 0 1 -0.983,1.943 5.323,5.323 0 0 1 -2.517,1.274 0.2,0.2 0 0 0 -0.177,0.211 0.76,0.76 0 0 0 0.25,0.536 0.893,0.893 0 0 0 0.668,0.255 3.319,3.319 0 0 0 2.347,-1.217 0.625,0.625 0 0 1 0.435,-0.234 q 0.353,0.004 0.353,0.396 z m -3.947,-1.037 a 3.568,3.568 0 0 0 1.638,-0.791 1.608,1.608 0 0 0 0.709,-1.095 0.494,0.494 0 0 0 -0.109,-0.326 0.344,0.344 0 0 0 -0.279,-0.131 1.658,1.658 0 0 0 -1.135,0.75 3.88,3.88 0 0 0 -0.824,1.593 z"
       id="path2112"
       inkscape:connector-curvature="0"
       style="fill:#ffffff" />
    <path
       d="m 96.987,42.872 0.1,-0.188 a 9.961,9.961 0 0 1 1.532,-2.311 2.278,2.278 0 0 1 1.6,-0.888 1.443,1.443 0 0 1 0.979,0.328 1,1 0 0 1 0.379,0.779 0.881,0.881 0 0 1 -0.129,0.484 0.405,0.405 0 0 1 -0.359,0.2 0.922,0.922 0 0 1 -0.664,-0.3 0.594,0.594 0 0 0 -0.336,-0.193 q -0.441,0 -1.477,1.365 a 6.286,6.286 0 0 0 -1.247,3.07 1.08,1.08 0 0 1 -0.288,0.689 0.885,0.885 0 0 1 -0.606,0.2 0.6,0.6 0 0 1 -0.576,-0.46 4.712,4.712 0 0 1 -0.171,-1.5 q 0,-0.428 0.024,-1.154 0.022,-0.685 0.135,-1.676 c 0.019,-0.172 0.034,-0.306 0.041,-0.4 a 4.437,4.437 0 0 1 0.121,-0.788 0.841,0.841 0 0 1 0.314,-0.4 0.887,0.887 0 0 1 0.548,-0.187 0.616,0.616 0 0 1 0.482,0.182 0.579,0.579 0 0 1 0.165,0.4 5.187,5.187 0 0 1 -0.265,1.143 4.87,4.87 0 0 0 -0.159,0.714 z"
       id="path2114"
       inkscape:connector-curvature="0"
       style="fill:#ffffff" />
    <path
       d="m 103.217,42.872 0.1,-0.188 a 9.929,9.929 0 0 1 1.532,-2.311 2.278,2.278 0 0 1 1.6,-0.888 1.444,1.444 0 0 1 0.98,0.328 1,1 0 0 1 0.379,0.779 0.881,0.881 0 0 1 -0.129,0.484 0.406,0.406 0 0 1 -0.36,0.2 0.924,0.924 0 0 1 -0.664,-0.3 0.591,0.591 0 0 0 -0.336,-0.193 q -0.441,0 -1.476,1.365 a 6.267,6.267 0 0 0 -1.247,3.07 1.08,1.08 0 0 1 -0.288,0.689 0.887,0.887 0 0 1 -0.606,0.2 0.6,0.6 0 0 1 -0.577,-0.46 4.748,4.748 0 0 1 -0.17,-1.5 q 0,-0.428 0.024,-1.154 0.023,-0.685 0.134,-1.676 c 0.02,-0.172 0.034,-0.306 0.041,-0.4 a 4.535,4.535 0 0 1 0.121,-0.788 0.837,0.837 0 0 1 0.315,-0.4 0.886,0.886 0 0 1 0.547,-0.187 0.613,0.613 0 0 1 0.482,0.182 0.574,0.574 0 0 1 0.165,0.4 5.163,5.163 0 0 1 -0.264,1.143 4.86,4.86 0 0 0 -0.16,0.714 z"
       id="path2116"
       inkscape:connector-curvature="0"
       style="fill:#ffffff" />
    <path
       d="m 108.394,41.887 v 0.006 q 0.189,-1.066 0.188,-1.218 a 1.3,1.3 0 0 1 0.192,-0.727 0.6,0.6 0 0 1 0.532,-0.293 0.946,0.946 0 0 1 0.624,0.187 0.548,0.548 0 0 1 0.223,0.422 4.481,4.481 0 0 1 -0.217,0.967 L 109.9,41.36 a 10.516,10.516 0 0 0 -0.388,1.846 q -0.065,0.714 -0.065,1.154 a 5,5 0 0 0 0.123,0.955 1.078,1.078 0 0 1 0.018,0.176 q 0,0.135 -0.256,0.363 a 0.809,0.809 0 0 1 -0.55,0.229 q -0.775,0 -0.776,-1.172 a 12.877,12.877 0 0 1 0.282,-2.426 q 0.058,-0.316 0.106,-0.598 z m 2.841,-4.816 a 0.928,0.928 0 0 1 -0.376,0.729 1.1,1.1 0 0 1 -0.653,0.314 0.84,0.84 0 0 1 -0.627,-0.293 0.869,0.869 0 0 1 -0.273,-0.586 0.908,0.908 0 0 1 0.27,-0.683 1.081,1.081 0 0 1 0.777,-0.26 0.892,0.892 0 0 1 0.638,0.231 0.733,0.733 0 0 1 0.244,0.548 z"
       id="path2118"
       inkscape:connector-curvature="0"
       style="fill:#ffffff" />
    <path
       d="m 113.171,46.1 a 1.951,1.951 0 0 1 -1.477,-0.527 2.031,2.031 0 0 1 -0.505,-1.465 5.657,5.657 0 0 1 1.206,-3.193 q 1.2,-1.717 2.364,-1.717 a 1.149,1.149 0 0 1 0.953,0.554 1.958,1.958 0 0 1 0.395,1.151 1.047,1.047 0 0 1 -0.209,0.759 0.607,0.607 0 0 1 -0.4,0.2 q -0.57,0 -0.665,-0.785 c -0.047,-0.383 -0.142,-0.574 -0.288,-0.574 q -0.459,0 -1.212,1.3 a 4.708,4.708 0 0 0 -0.753,2.279 q 0,0.791 0.86,0.791 a 3.355,3.355 0 0 0 1.912,-0.668 1.4,1.4 0 0 1 0.717,-0.322 0.286,0.286 0 0 1 0.324,0.322 q 0,0.452 -1.038,1.175 a 3.759,3.759 0 0 1 -2.184,0.72 z"
       id="path2120"
       inkscape:connector-curvature="0"
       style="fill:#ffffff" />
    <path
       d="m 118.853,43.077 a 10.143,10.143 0 0 1 1.685,-2.482 2.12,2.12 0 0 1 1.433,-0.659 1.11,1.11 0 0 1 0.832,0.343 3.48,3.48 0 0 1 0.485,1.784 8.349,8.349 0 0 0 0.165,1.108 6,6 0 0 0 0.224,0.747 2.258,2.258 0 0 0 0.352,0.612 0.72,0.72 0 0 1 0.177,0.439 0.506,0.506 0 0 1 -0.2,0.387 0.7,0.7 0 0 1 -0.468,0.176 1.149,1.149 0 0 1 -0.929,-0.568 3.078,3.078 0 0 1 -0.483,-1.571 8.967,8.967 0 0 0 -0.2,-1.564 c -0.073,-0.227 -0.193,-0.34 -0.362,-0.34 q -0.342,0 -1.326,1.356 a 20.052,20.052 0 0 0 -1.421,2.171 4.191,4.191 0 0 1 -0.418,0.8 0.453,0.453 0 0 1 -0.365,0.182 0.92,0.92 0 0 1 -0.583,-0.176 0.6,0.6 0 0 1 -0.222,-0.5 8.979,8.979 0 0 1 0.158,-0.99 q 0.6,-3.147 0.982,-6.7 a 2.329,2.329 0 0 1 0.363,-1.18 0.706,0.706 0 0 1 0.491,-0.325 0.726,0.726 0 0 1 0.541,0.24 0.932,0.932 0 0 1 0.229,0.668 8.4,8.4 0 0 1 -0.159,1.512 q -0.157,0.855 -0.594,2.73 -0.269,1.132 -0.387,1.8 z"
       id="path2122"
       inkscape:connector-curvature="0"
       style="fill:#ffffff" />
    <path
       d="m 127.436,41.02 a 6.784,6.784 0 0 0 -0.332,1.307 11.91,11.91 0 0 0 -0.28,1.582 1.548,1.548 0 0 0 0.1,0.671 0.356,0.356 0 0 0 0.339,0.19 1.785,1.785 0 0 0 0.632,-0.114 3.236,3.236 0 0 0 0.8,-0.513 0.892,0.892 0 0 1 0.518,-0.252 0.386,0.386 0 0 1 0.273,0.1 0.3,0.3 0 0 1 0.1,0.226 q 0,0.515 -0.835,1.169 a 2.826,2.826 0 0 1 -1.765,0.653 1.509,1.509 0 0 1 -1.185,-0.457 1.9,1.9 0 0 1 -0.409,-1.313 16.525,16.525 0 0 1 0.594,-3.158 c -0.251,0.027 -0.425,0.041 -0.524,0.041 h -0.123 a 1.021,1.021 0 0 1 -0.55,-0.176 0.614,0.614 0 0 1 -0.279,-0.562 c 0,-0.328 0.185,-0.492 0.558,-0.492 l 1.259,-0.047 q 0.248,-0.709 0.524,-1.858 c 0.109,-0.476 0.359,-0.714 0.747,-0.714 a 0.656,0.656 0 0 1 0.506,0.2 0.624,0.624 0 0 1 0.182,0.436 q 0,0.094 -0.5,1.811 1.871,-0.165 2.053,-0.164 a 0.646,0.646 0 0 1 0.412,0.091 0.466,0.466 0 0 1 0.1,0.348 q 0,0.522 -0.888,0.662 z"
       id="path2124"
       inkscape:connector-curvature="0"
       style="fill:#ffffff" />
  </g>
  <path
     d="m 190.989,87.378 q -8.585,0 -17.169,0 c -3.056,0 -3.682,-0.646 -3.329,-3.519 a 6.887,6.887 0 0 1 0.525,-1.755 26.6,26.6 0 0 0 2.11,-11.559 c -0.223,-4.976 -0.058,-9.967 -0.051,-14.951 0,-2.568 0.318,-2.885 2.941,-2.887 10.07,-0.008 20.14,0.028 30.209,-0.029 2.046,-0.012 2.837,0.656 2.807,2.63 -0.093,5.939 -0.236,11.889 0.054,17.817 0.14,2.859 1.2,5.68 1.861,8.513 0.109,0.461 0.37,0.889 0.5,1.347 0.954,3.318 0.092,4.393 -3.508,4.393 q -8.473,0.002 -16.95,0 z m -15.45,-33.254 c -0.277,0 -0.549,-0.06 -0.762,0.1 a 0.685,0.685 0 0 0 -0.254,0.718 q 0.014,9.7 0.026,19.4 c 0.337,0.43 0.921,0.257 1.336,0.257 9.993,0.017 19.986,0 29.979,0.038 1.559,0.006 1.745,-0.778 1.74,-1.946 -0.025,-5.528 -0.076,-11.057 0.027,-16.583 0.034,-1.788 -0.72,-2.124 -2.427,-2.112 M 191,86.122 c 5.8,0 11.6,0.027 17.393,-0.041 0.611,-0.007 1.214,-0.582 1.821,-0.893 -0.625,-0.357 -1.24,-1 -1.877,-1.023 -3.33,-0.1 -6.666,-0.049 -10,-0.049 h -24.569 c -0.957,0 -2.128,-0.083 -1.706,1.3 0.111,0.364 1.147,0.669 1.762,0.674 5.725,0.052 11.451,0.031 17.176,0.032 z m 12.935,-7.475 c -0.036,-1.808 -0.673,-2.559 -2.483,-2.541 q -10.323,0.1 -20.647,0 c -1.866,-0.02 -2.627,0.674 -2.582,2.544 z m -12.818,0.974 a 5.363,5.363 0 0 0 -4.228,2.185 h 8.62 a 6.611,6.611 0 0 0 -2.74,-1.847 6.435,6.435 0 0 0 -1.652,-0.338 z"
     id="path2128"
     inkscape:connector-curvature="0"
     style="isolation:isolate;fill:#ffffff" />
  <rect
     x="0.20999999"
     width="229.842"
     height="104.959"
     id="rect2130"
     y="0"
     style="opacity:0;isolation:isolate;fill:none" />
</svg>
