<?xml version="1.0" encoding="UTF-8" standalone="no"?>
<svg
   xmlns:dc="http://purl.org/dc/elements/1.1/"
   xmlns:cc="http://creativecommons.org/ns#"
   xmlns:rdf="http://www.w3.org/1999/02/22-rdf-syntax-ns#"
   xmlns:svg="http://www.w3.org/2000/svg"
   xmlns="http://www.w3.org/2000/svg"
   xmlns:sodipodi="http://sodipodi.sourceforge.net/DTD/sodipodi-0.dtd"
   xmlns:inkscape="http://www.inkscape.org/namespaces/inkscape"
   viewBox="0 0 230.225 104.959"
   version="1.1"
   id="svg2138"
   sodipodi:docname="A8_digital.svg"
   inkscape:version="0.92.4 (5da689c313, 2019-01-14)">
  <metadata
     id="metadata2142">
    <rdf:RDF>
      <cc:Work
         rdf:about="">
        <dc:format>image/svg+xml</dc:format>
        <dc:type
           rdf:resource="http://purl.org/dc/dcmitype/StillImage" />
        <dc:title>8_digital</dc:title>
      </cc:Work>
    </rdf:RDF>
  </metadata>
  <sodipodi:namedview
     pagecolor="#ffffff"
     bordercolor="#666666"
     borderopacity="1"
     objecttolerance="10"
     gridtolerance="10"
     guidetolerance="10"
     inkscape:pageopacity="0"
     inkscape:pageshadow="2"
     inkscape:window-width="1920"
     inkscape:window-height="1018"
     id="namedview2140"
     showgrid="false"
     inkscape:zoom="4"
     inkscape:cx="100.01494"
     inkscape:cy="39.146167"
     inkscape:window-x="1912"
     inkscape:window-y="-8"
     inkscape:window-maximized="1"
     inkscape:current-layer="g3204" />
  <defs
     id="defs1632">
    <linearGradient
       id="Unbenannter_Verlauf_31"
       data-name="Unbenannter Verlauf 31"
       x1="2.441"
       y1="34.864"
       x2="225.377"
       y2="64.126"
       gradientUnits="userSpaceOnUse">
      <stop
         offset="0.062"
         stop-color="#7a8edd"
         stop-opacity="0.9"
         id="stop1625"
         style="stop-color:#5c87ca;stop-opacity:1" />
      <stop
         offset="0.9"
         stop-color="#6075bf"
         stop-opacity="0.9"
         id="stop1629"
         style="stop-color:#3a66aa;stop-opacity:1" />
    </linearGradient>
  </defs>
  <title
     id="title1634">8_digital</title>
  <g
     id="g18841">
    <g
       id="g3204">
      <rect
         style="opacity:1;fill:#ffffff;fill-opacity:1;stroke-width:1.00072491"
         id="rect1329"
         width="230.17532"
         height="104.959"
         x="-0.12333334"
         y="0" />
      <g
         style="isolation:isolate;mix-blend-mode:multiply"
         id="g1952"
         transform="matrix(1,0,0,0.99038452,0,0.00901932)">
        <path
           d="m 115.217,94.9 c 0,5.509 -4.825,9.983 -10.778,9.987 l -90.735,0.05 c -5.957,0 -10.786,-4.465 -10.789,-9.975 L 2.87,10.977 C 2.867,5.463 7.69,0.991 13.648,0.988 l 90.735,-0.05 c 5.952,0 10.785,4.462 10.788,9.977 z"
           id="path1848"
           inkscape:connector-curvature="0"
           style="fill:#ffffff" />
        <path
           d="m 114.809,94.593 c 0,5.492 -4.81,9.951 -10.743,9.954 l -90.44,0.05 c -5.938,0 -10.75,-4.45 -10.753,-9.942 L 2.827,10.944 c 0,-5.5 4.805,-9.953 10.743,-9.956 l 90.439,-0.05 c 5.934,0 10.751,4.448 10.754,9.944 z"
           id="path1850"
           inkscape:connector-curvature="0"
           style="fill:#fefeff" />
        <path
           d="m 114.4,94.287 c 0,5.474 -4.794,9.919 -10.708,9.922 l -90.144,0.05 C 7.63,104.259 2.833,99.823 2.83,94.349 L 2.784,10.912 C 2.781,5.433 7.573,0.991 13.492,0.988 l 90.144,-0.05 c 5.914,0 10.715,4.434 10.718,9.912 z"
           id="path1852"
           inkscape:connector-curvature="0"
           style="fill:#fdfdff" />
        <path
           d="m 113.991,93.981 c 0,5.456 -4.778,9.886 -10.673,9.889 l -89.848,0.05 c -5.9,0 -10.68,-4.421 -10.683,-9.877 L 2.742,10.879 c 0,-5.46 4.773,-9.888 10.672,-9.891 l 89.848,-0.05 c 5.895,0 10.681,4.419 10.684,9.88 z"
           id="path1854"
           inkscape:connector-curvature="0"
           style="fill:#fcfcff" />
        <path
           d="m 113.583,93.675 c 0,5.438 -4.763,9.854 -10.638,9.857 l -89.553,0.05 c -5.879,0 -10.645,-4.407 -10.648,-9.845 L 2.7,10.847 C 2.7,5.4 7.457,0.991 13.336,0.988 l 89.553,-0.05 c 5.876,0 10.646,4.405 10.649,9.847 z"
           id="path1856"
           inkscape:connector-curvature="0"
           style="fill:#fcfcff" />
        <path
           d="m 113.174,93.369 c 0,5.42 -4.746,9.821 -10.6,9.825 l -89.257,0.049 c -5.86,0 -10.61,-4.392 -10.613,-9.812 L 2.656,10.814 C 2.653,5.39 7.4,0.991 13.259,0.988 l 89.257,-0.05 c 5.856,0 10.61,4.391 10.613,9.815 z"
           id="path1858"
           inkscape:connector-curvature="0"
           style="fill:#fbfbff" />
        <path
           d="m 112.765,93.064 c 0,5.4 -4.73,9.788 -10.567,9.791 l -88.962,0.05 c -5.84,0 -10.575,-4.378 -10.577,-9.78 L 2.614,10.782 C 2.611,5.375 7.34,0.991 13.181,0.988 l 88.961,-0.049 c 5.837,0 10.576,4.375 10.579,9.782 z"
           id="path1860"
           inkscape:connector-curvature="0"
           style="fill:#fafaff" />
        <path
           d="m 112.357,92.758 c 0,5.384 -4.715,9.756 -10.533,9.759 l -88.666,0.049 c -5.821,0 -10.539,-4.363 -10.542,-9.748 L 2.571,10.749 C 2.568,5.361 7.282,0.991 13.1,0.988 l 88.669,-0.049 c 5.817,0 10.54,4.361 10.543,9.75 z"
           id="path1862"
           inkscape:connector-curvature="0"
           style="fill:#f9f9ff" />
        <path
           d="m 111.948,92.452 c 0,5.366 -4.7,9.723 -10.5,9.726 l -88.371,0.049 c -5.8,0 -10.5,-4.348 -10.507,-9.715 L 2.528,10.717 c 0,-5.371 4.7,-9.726 10.5,-9.729 L 101.4,0.939 c 5.8,0 10.506,4.347 10.509,9.717 z"
           id="path1864"
           inkscape:connector-curvature="0"
           style="fill:#f8f8ff" />
        <path
           d="m 111.539,92.146 c 0,5.348 -4.683,9.691 -10.462,9.694 L 13,101.889 c -5.782,0 -10.469,-4.334 -10.472,-9.683 L 2.486,10.684 c 0,-5.352 4.679,-9.693 10.461,-9.7 l 88.075,-0.045 c 5.779,0 10.47,4.332 10.473,9.685 z"
           id="path1866"
           inkscape:connector-curvature="0"
           style="fill:#f7f7fe" />
        <path
           d="m 111.131,91.84 c 0,5.331 -4.668,9.658 -10.428,9.662 L 12.924,101.55 C 7.162,101.55 2.49,97.231 2.487,91.9 L 2.443,10.652 C 2.44,5.317 7.107,0.991 12.869,0.988 l 87.78,-0.049 c 5.759,0 10.435,4.318 10.438,9.653 z"
           id="path1868"
           inkscape:connector-curvature="0"
           style="fill:#f7f7fe" />
        <path
           d="m 110.722,91.534 c 0,5.313 -4.652,9.626 -10.392,9.629 l -87.484,0.049 c -5.743,0 -10.4,-4.305 -10.4,-9.618 L 2.4,10.619 C 2.4,5.3 7.048,0.991 12.792,0.988 L 100.275,0.94 c 5.741,0 10.4,4.3 10.4,9.619 z"
           id="path1870"
           inkscape:connector-curvature="0"
           style="fill:#f6f6fe" />
        <path
           d="m 110.314,91.228 c 0,5.3 -4.637,9.594 -10.358,9.6 l -87.188,0.048 c -5.723,0 -10.364,-4.29 -10.366,-9.585 l -0.044,-80.7 c 0,-5.3 4.632,-9.6 10.356,-9.6 L 99.9,0.94 c 5.721,0 10.365,4.288 10.368,9.587 z"
           id="path1872"
           inkscape:connector-curvature="0"
           style="fill:#f5f5fe" />
        <path
           d="m 109.905,90.922 c 0,5.277 -4.621,9.561 -10.322,9.564 l -86.893,0.049 c -5.7,0 -10.328,-4.276 -10.331,-9.553 L 2.315,10.554 C 2.312,5.273 6.932,0.991 12.636,0.988 L 99.529,0.94 c 5.7,0 10.329,4.274 10.332,9.555 z"
           id="path1874"
           inkscape:connector-curvature="0"
           style="fill:#f4f4fe" />
        <path
           d="m 109.5,90.616 c 0,5.259 -4.6,9.529 -10.287,9.532 l -86.6,0.048 c -5.685,0 -10.293,-4.261 -10.3,-9.521 L 2.272,10.522 c 0,-5.263 4.6,-9.531 10.286,-9.534 L 99.155,0.94 c 5.682,0 10.3,4.26 10.3,9.523 z"
           id="path1876"
           inkscape:connector-curvature="0"
           style="fill:#f3f3fe" />
        <path
           d="m 109.088,90.31 c 0,5.242 -4.589,9.5 -10.252,9.5 l -86.3,0.048 C 6.871,99.858 2.278,95.611 2.275,90.369 L 2.23,10.489 c 0,-5.245 4.585,-9.5 10.25,-9.5 L 98.782,0.94 c 5.663,0 10.259,4.245 10.262,9.49 z"
           id="path1878"
           inkscape:connector-curvature="0"
           style="fill:#f2f2fe" />
        <path
           d="m 108.679,90 c 0,5.224 -4.573,9.464 -10.217,9.467 L 12.456,99.515 C 6.81,99.515 2.233,95.283 2.23,90.059 L 2.187,10.457 C 2.184,5.23 6.757,0.991 12.4,0.988 L 98.408,0.94 c 5.644,0 10.225,4.231 10.228,9.458 z"
           id="path1880"
           inkscape:connector-curvature="0"
           style="fill:#f2f2fe" />
        <path
           d="m 108.27,89.7 c 0,5.206 -4.557,9.432 -10.182,9.435 l -85.71,0.047 C 6.752,99.182 2.19,94.965 2.187,89.759 L 2.144,10.424 C 2.141,5.215 6.7,0.991 12.325,0.988 l 85.71,-0.047 c 5.624,0 10.189,4.216 10.192,9.425 z"
           id="path1882"
           inkscape:connector-curvature="0"
           style="fill:#f1f1fe" />
        <path
           d="m 107.862,89.392 c 0,5.188 -4.542,9.4 -10.147,9.4 L 12.3,98.842 c -5.607,0 -10.153,-4.2 -10.155,-9.391 L 2.1,10.392 C 2.1,5.2 6.64,0.991 12.247,0.988 L 97.662,0.941 c 5.6,0 10.154,4.2 10.157,9.392 z"
           id="path1884"
           inkscape:connector-curvature="0"
           style="fill:#f0f0fe" />
        <path
           d="m 107.453,89.086 c 0,5.171 -4.526,9.367 -10.112,9.37 L 12.222,98.5 C 6.635,98.5 2.105,94.312 2.102,89.142 L 2.059,10.359 c 0,-5.173 4.523,-9.368 10.11,-9.371 L 97.288,0.941 c 5.586,0 10.119,4.187 10.122,9.36 z"
           id="path1886"
           inkscape:connector-curvature="0"
           style="fill:#efeffe" />
        <path
           d="m 107.044,88.781 c 0,5.152 -4.51,9.334 -10.076,9.337 L 12.144,98.165 C 6.576,98.165 2.062,93.991 2.059,88.839 L 2.016,10.327 C 2.013,5.172 6.523,0.991 12.091,0.988 L 96.915,0.941 C 102.481,0.938 107,5.114 107,10.269 Z"
           id="path1888"
           inkscape:connector-curvature="0"
           style="fill:#eeeefe" />
        <path
           d="m 106.636,88.475 c 0,5.134 -4.495,9.3 -10.042,9.3 l -84.528,0.047 c -5.548,0 -10.047,-4.159 -10.05,-9.293 L 1.973,10.294 c 0,-5.137 4.492,-9.3 10.04,-9.306 L 96.541,0.941 c 5.548,0 10.049,4.158 10.052,9.3 z"
           id="path1890"
           inkscape:connector-curvature="0"
           style="fill:#ededfe" />
        <path
           d="m 106.227,88.169 c 0,5.116 -4.479,9.269 -10.006,9.272 L 11.988,97.488 C 6.459,97.488 1.976,93.343 1.973,88.226 L 1.931,10.262 c 0,-5.119 4.476,-9.271 10,-9.274 L 96.168,0.942 c 5.528,0 10.014,4.143 10.017,9.262 z"
           id="path1892"
           inkscape:connector-curvature="0"
           style="fill:#ececfe" />
        <path
           d="m 105.819,87.863 c 0,5.1 -4.464,9.236 -9.972,9.24 L 11.91,97.149 c -5.509,0 -9.977,-4.13 -9.98,-9.229 L 1.888,10.229 c 0,-5.1 4.46,-9.238 9.969,-9.241 L 95.8,0.942 c 5.508,0 9.978,4.128 9.981,9.23 z"
           id="path1894"
           inkscape:connector-curvature="0"
           style="fill:#ececfe" />
        <path
           d="m 105.41,87.557 c 0,5.081 -4.447,9.2 -9.937,9.207 L 11.832,96.81 c -5.49,0 -9.942,-4.115 -9.944,-9.2 L 1.845,10.2 C 1.843,5.114 6.29,0.991 11.78,0.988 L 95.421,0.942 c 5.489,0 9.944,4.114 9.947,9.2 z"
           id="path1896"
           inkscape:connector-curvature="0"
           style="fill:#ebebfe" />
        <path
           d="m 105,87.251 c 0,5.063 -4.431,9.172 -9.9,9.175 l -83.346,0.046 c -5.47,0 -9.906,-4.1 -9.909,-9.164 L 1.8,10.164 C 1.8,5.1 6.232,0.991 11.7,0.988 L 95.048,0.942 c 5.47,0 9.908,4.1 9.911,9.165 z"
           id="path1898"
           inkscape:connector-curvature="0"
           style="fill:#eaeafe" />
        <path
           d="m 104.593,86.945 c 0,5.045 -4.416,9.139 -9.867,9.142 l -83.05,0.046 C 6.225,96.136 1.805,92.047 1.8,87 L 1.76,10.132 c 0,-5.048 4.413,-9.141 9.864,-9.144 l 83.05,-0.046 c 5.451,0 9.874,4.085 9.877,9.133 z"
           id="path1900"
           inkscape:connector-curvature="0"
           style="fill:#e9e9fd" />
        <path
           d="m 104.184,86.639 c 0,5.027 -4.4,9.107 -9.831,9.11 L 11.6,95.8 C 6.169,95.8 1.764,91.728 1.761,86.7 L 1.717,10.1 c 0,-5.029 4.4,-9.108 9.829,-9.111 L 94.3,0.943 c 5.431,0 9.839,4.07 9.841,9.1 z"
           id="path1902"
           inkscape:connector-curvature="0"
           style="fill:#e8e8fd" />
        <path
           d="m 103.775,86.333 c 0,5.009 -4.384,9.075 -9.8,9.078 l -82.459,0.045 c -5.412,0 -9.8,-4.057 -9.8,-9.066 L 1.675,10.067 c 0,-5.012 4.382,-9.076 9.793,-9.079 l 82.46,-0.045 c 5.412,0 9.8,4.056 9.806,9.067 z"
           id="path1904"
           inkscape:connector-curvature="0"
           style="fill:#e7e7fd" />
        <path
           d="m 103.367,86.027 c 0,4.992 -4.369,9.042 -9.761,9.045 l -82.164,0.046 c -5.392,0 -9.766,-4.043 -9.769,-9.034 L 1.632,10.034 C 1.629,5.041 6,0.991 11.39,0.988 L 93.554,0.943 c 5.393,0 9.769,4.041 9.771,9.035 z"
           id="path1906"
           inkscape:connector-curvature="0"
           style="fill:#e7e7fd" />
        <path
           d="m 102.958,85.721 c 0,4.974 -4.353,9.01 -9.726,9.013 l -81.868,0.045 c -5.373,0 -9.731,-4.028 -9.733,-9 L 1.589,10 C 1.587,5.026 5.94,0.991 11.313,0.988 L 93.181,0.943 c 5.373,0 9.733,4.027 9.736,9 z"
           id="path1908"
           inkscape:connector-curvature="0"
           style="fill:#e6e6fd" />
        <path
           d="m 102.549,85.415 c 0,4.956 -4.337,8.977 -9.691,8.98 l -81.572,0.046 c -5.353,0 -9.695,-4.014 -9.7,-8.97 L 1.545,9.971 C 1.545,5.014 5.88,0.993 11.233,0.99 L 92.807,0.943 c 5.354,0 9.7,4.013 9.7,8.971 z"
           id="path1910"
           inkscape:connector-curvature="0"
           style="fill:#e5e5fd" />
        <path
           d="m 102.141,85.109 c 0,4.938 -4.322,8.945 -9.656,8.948 L 11.208,94.1 c -5.334,0 -9.66,-4 -9.663,-8.937 L 1.5,9.937 C 1.5,5 5.824,0.991 11.157,0.988 L 92.434,0.943 c 5.335,0 9.663,4 9.666,8.938 z"
           id="path1912"
           inkscape:connector-curvature="0"
           style="fill:#e4e4fd" />
        <path
           d="m 101.732,84.8 c 0,4.921 -4.3,8.913 -9.621,8.916 L 11.13,93.76 c -5.314,0 -9.625,-3.984 -9.628,-8.9 L 1.461,9.9 c 0,-4.921 4.3,-8.913 9.618,-8.916 l 80.982,-0.04 c 5.315,0 9.628,3.983 9.63,8.905 z"
           id="path1914"
           inkscape:connector-curvature="0"
           style="fill:#e3e3fd" />
        <path
           d="m 101.324,84.5 c 0,4.9 -4.29,8.879 -9.586,8.882 l -80.686,0.045 c -5.295,0 -9.59,-3.97 -9.593,-8.872 L 1.419,9.872 C 1.416,4.968 5.707,0.991 11,0.989 L 91.687,0.944 c 5.3,0 9.593,3.969 9.6,8.873 z"
           id="path1916"
           inkscape:connector-curvature="0"
           style="fill:#e2e2fd" />
        <path
           d="m 100.915,84.192 c 0,4.884 -4.274,8.847 -9.551,8.85 l -80.39,0.044 c -5.275,0 -9.555,-3.955 -9.558,-8.839 L 1.376,9.839 c 0,-4.885 4.273,-8.848 9.547,-8.85 L 91.314,0.944 c 5.277,0 9.558,3.954 9.56,8.84 z"
           id="path1918"
           inkscape:connector-curvature="0"
           style="fill:#e1e1fd" />
        <path
           d="m 100.506,83.886 c 0,4.866 -4.258,8.814 -9.516,8.817 L 10.9,92.748 c -5.256,0 -9.52,-3.941 -9.522,-8.807 L 1.333,9.807 C 1.331,4.939 5.59,0.991 10.846,0.989 l 80.1,-0.045 c 5.257,0 9.522,3.94 9.525,8.808 z"
           id="path1920"
           inkscape:connector-curvature="0"
           style="fill:#e1e1fd" />
        <path
           d="m 100.1,83.58 c 0,4.848 -4.243,8.782 -9.481,8.785 l -79.8,0.044 c -5.236,0 -9.485,-3.926 -9.487,-8.775 L 1.292,9.774 c 0,-4.85 4.241,-8.783 9.477,-8.785 l 79.8,-0.045 c 5.238,0 9.488,3.926 9.49,8.776 z"
           id="path1922"
           inkscape:connector-curvature="0"
           style="fill:#e0e0fd" />
        <path
           d="m 99.689,83.274 c 0,4.831 -4.227,8.75 -9.446,8.753 l -79.5,0.044 c -5.217,0 -9.449,-3.912 -9.452,-8.743 L 1.248,9.742 C 1.245,4.91 5.474,0.991 10.69,0.989 l 79.5,-0.044 c 5.219,0 9.452,3.91 9.455,8.742 z"
           id="path1924"
           inkscape:connector-curvature="0"
           style="fill:#dfdffd" />
        <path
           d="m 99.28,82.968 c 0,4.813 -4.211,8.717 -9.41,8.72 l -79.208,0.044 c -5.2,0 -9.414,-3.9 -9.417,-8.71 L 1.205,9.709 c 0,-4.814 4.21,-8.718 9.407,-8.72 L 89.82,0.945 c 5.2,0 9.418,3.9 9.42,8.71 z"
           id="path1926"
           inkscape:connector-curvature="0"
           style="fill:#dedefd" />
        <path
           d="m 98.872,82.662 c 0,4.795 -4.2,8.685 -9.376,8.688 l -78.912,0.043 c -5.178,0 -9.379,-3.882 -9.382,-8.677 L 1.163,9.677 c 0,-4.8 4.194,-8.685 9.371,-8.688 L 89.447,0.945 c 5.18,0 9.382,3.882 9.385,8.678 z"
           id="path1928"
           inkscape:connector-curvature="0"
           style="fill:#ddddfd" />
        <path
           d="m 98.463,82.356 c 0,4.777 -4.18,8.653 -9.34,8.655 L 10.505,91.055 C 5.348,91.055 1.162,87.187 1.16,82.41 L 1.12,9.644 C 1.117,4.866 5.3,0.992 10.456,0.989 L 89.074,0.945 c 5.16,0 9.347,3.867 9.349,8.646 z"
           id="path1930"
           inkscape:connector-curvature="0"
           style="fill:#dcdcfd" />
        <path
           d="m 98.054,82.05 c 0,4.759 -4.163,8.62 -9.305,8.623 l -78.322,0.043 c -5.138,0 -9.308,-3.853 -9.31,-8.612 L 1.077,9.612 c 0,-4.76 4.163,-8.62 9.3,-8.623 L 88.7,0.945 c 5.142,0 9.312,3.853 9.315,8.613 z"
           id="path1932"
           inkscape:connector-curvature="0"
           style="fill:#dcdcfd" />
        <path
           d="m 97.646,81.744 c 0,4.742 -4.148,8.588 -9.271,8.591 l -78.026,0.043 c -5.118,0 -9.273,-3.839 -9.275,-8.58 L 1.035,9.58 C 1.032,4.837 5.182,0.992 10.3,0.989 L 88.327,0.945 c 5.122,0 9.277,3.839 9.279,8.581 z"
           id="path1934"
           inkscape:connector-curvature="0"
           style="fill:#dbdbfc" />
        <path
           d="m 97.237,81.438 c 0,4.724 -4.132,8.555 -9.235,8.558 l -77.731,0.043 c -5.1,0 -9.237,-3.824 -9.24,-8.547 L 0.992,9.547 C 0.989,4.823 5.124,0.992 10.223,0.989 l 77.73,-0.043 c 5.1,0 9.242,3.823 9.245,8.548 z"
           id="path1936"
           inkscape:connector-curvature="0"
           style="fill:#dadafc" />
        <path
           d="m 96.829,81.132 c 0,4.706 -4.117,8.523 -9.2,8.526 L 10.193,89.7 c -5.079,0 -9.2,-3.81 -9.2,-8.516 L 0.949,9.515 c 0,-4.707 4.116,-8.523 9.2,-8.526 L 87.58,0.946 c 5.084,0 9.207,3.809 9.209,8.515 z"
           id="path1938"
           inkscape:connector-curvature="0"
           style="fill:#d9d9fc" />
        <path
           d="m 96.42,80.826 c 0,4.688 -4.1,8.491 -9.165,8.493 l -77.14,0.043 c -5.06,0 -9.167,-3.8 -9.17,-8.483 L 0.907,9.482 c 0,-4.688 4.1,-8.49 9.16,-8.493 l 77.14,-0.043 c 5.064,0 9.171,3.8 9.174,8.483 z"
           id="path1940"
           inkscape:connector-curvature="0"
           style="fill:#d8d8fc" />
        <path
           d="m 96.011,80.52 c 0,4.671 -4.085,8.458 -9.13,8.461 L 10.037,89.024 C 5,89.026 0.905,85.243 0.9,80.573 L 0.864,9.45 C 0.861,4.779 4.949,0.992 9.989,0.989 L 86.833,0.946 c 5.045,0 9.137,3.78 9.14,8.451 z"
           id="path1942"
           inkscape:connector-curvature="0"
           style="fill:#d7d7fc" />
        <path
           d="m 95.6,80.215 c 0,4.652 -4.07,8.425 -9.095,8.428 L 9.956,88.685 c -5.021,0 -9.1,-3.766 -9.1,-8.418 L 0.821,9.417 C 0.819,4.765 4.89,0.992 9.912,0.989 L 86.46,0.946 c 5.026,0 9.1,3.766 9.1,8.419 z"
           id="path1944"
           inkscape:connector-curvature="0"
           style="fill:#d7d7fc" />
        <path
           d="m 95.194,79.909 c 0,4.634 -4.054,8.392 -9.06,8.395 L 9.881,88.346 c -5,0 -9.062,-3.751 -9.064,-8.385 L 0.778,9.385 C 0.776,4.75 4.832,0.992 9.834,0.989 L 86.086,0.947 c 5.007,0 9.067,3.751 9.07,8.385 z"
           id="path1946"
           inkscape:connector-curvature="0"
           style="fill:#d6d6fc" />
        <path
           d="m 94.785,79.6 c 0,4.616 -4.038,8.36 -9.025,8.363 L 9.8,88.008 c -4.982,0 -9.026,-3.737 -9.029,-8.353 L 0.736,9.352 c 0,-4.617 4.038,-8.36 9.02,-8.363 L 85.713,0.947 c 4.987,0 9.032,3.736 9.034,8.353 z"
           id="path1948"
           inkscape:connector-curvature="0"
           style="fill:#d5d5fc" />
        <path
           d="m 94.377,79.3 c 0,4.6 -4.022,8.328 -8.99,8.33 L 9.725,87.672 c -4.963,0 -8.991,-3.722 -8.994,-8.32 L 0.693,9.32 c 0,-4.6 4.022,-8.328 8.985,-8.331 L 85.34,0.947 c 4.967,0 9,3.722 9,8.321 z"
           id="path1950"
           inkscape:connector-curvature="0"
           style="fill:#d4d4fc" />
      </g>
      <g
         style="isolation:isolate;mix-blend-mode:multiply"
         id="g2058"
         transform="matrix(1,0,0,0.97135245,0,2.0062452)">
        <path
           d="m 101.578,94.829 c 0,5.547 5.188,10.052 11.587,10.056 l 97.542,0.054 c 6.405,0 11.6,-4.5 11.6,-10.044 l 0.046,-84.565 c 0,-5.552 -5.182,-10.055 -11.587,-10.058 L 113.222,0.218 c -6.4,0 -11.594,4.493 -11.6,10.045 z"
           id="path1954"
           inkscape:connector-curvature="0"
           style="fill:#ffffff" />
        <path
           d="m 102.018,94.521 c 0,5.529 5.17,10.019 11.549,10.023 l 97.224,0.054 c 6.384,0 11.557,-4.481 11.56,-10.011 L 222.4,10.3 C 222.4,4.765 217.234,0.277 210.851,0.274 L 113.624,0.218 c -6.379,0 -11.557,4.479 -11.56,10.013 z"
           id="path1956"
           inkscape:connector-curvature="0"
           style="fill:#fefeff" />
        <path
           d="m 102.457,94.213 c 0,5.511 5.154,9.987 11.512,9.99 l 96.906,0.054 c 6.362,0 11.519,-4.467 11.522,-9.978 l 0.046,-84.014 c 0,-5.516 -5.149,-9.99 -11.512,-9.993 L 114.025,0.218 c -6.358,0 -11.519,4.464 -11.522,9.98 z"
           id="path1958"
           inkscape:connector-curvature="0"
           style="fill:#fdfdff" />
        <path
           d="m 102.9,93.905 c 0,5.493 5.137,9.954 11.474,9.957 l 96.589,0.054 c 6.341,0 11.481,-4.452 11.484,-9.945 l 0.046,-83.739 c 0,-5.5 -5.132,-9.957 -11.474,-9.96 L 114.427,0.218 c -6.337,0 -11.482,4.45 -11.485,9.948 z"
           id="path1960"
           inkscape:connector-curvature="0"
           style="fill:#fcfcff" />
        <path
           d="m 103.336,93.6 c 0,5.475 5.119,9.921 11.436,9.925 l 96.271,0.053 c 6.32,0 11.443,-4.437 11.446,-9.913 l 0.046,-83.463 c 0,-5.48 -5.116,-9.924 -11.436,-9.927 L 114.828,0.219 c -6.316,0 -11.444,4.434 -11.447,9.914 z"
           id="path1962"
           inkscape:connector-curvature="0"
           style="fill:#fcfcff" />
        <path
           d="m 103.775,93.288 c 0,5.458 5.1,9.89 11.4,9.893 l 95.953,0.053 c 6.3,0 11.406,-4.422 11.409,-9.88 l 0.045,-83.187 c 0,-5.462 -5.1,-9.892 -11.4,-9.895 L 115.229,0.219 c -6.3,0 -11.406,4.42 -11.409,9.882 z"
           id="path1964"
           inkscape:connector-curvature="0"
           style="fill:#fbfbff" />
        <path
           d="m 104.214,92.98 c 0,5.44 5.086,9.857 11.361,9.86 l 95.635,0.053 c 6.279,0 11.368,-4.407 11.371,-9.847 l 0.045,-82.912 c 0,-5.444 -5.081,-9.859 -11.36,-9.862 L 115.631,0.219 c -6.275,0 -11.369,4.4 -11.372,9.849 z"
           id="path1966"
           inkscape:connector-curvature="0"
           style="fill:#fafaff" />
        <path
           d="m 104.653,92.672 c 0,5.422 5.07,9.824 11.324,9.828 l 95.317,0.052 c 6.258,0 11.33,-4.393 11.333,-9.814 l 0.045,-82.637 c 0,-5.426 -5.064,-9.826 -11.322,-9.829 L 116.032,0.219 c -6.254,0 -11.331,4.391 -11.334,9.817 z"
           id="path1968"
           inkscape:connector-curvature="0"
           style="fill:#f9f9ff" />
        <path
           d="m 105.093,92.364 c 0,5.4 5.052,9.791 11.285,9.8 l 95,0.052 c 6.237,0 11.292,-4.378 11.3,-9.782 l 0.045,-82.36 c 0,-5.408 -5.048,-9.794 -11.284,-9.8 l -95,-0.053 C 110.2,0.216 105.141,4.6 105.138,10 Z"
           id="path1970"
           inkscape:connector-curvature="0"
           style="fill:#f8f8ff" />
        <path
           d="m 105.532,92.056 c 0,5.386 5.035,9.759 11.248,9.762 l 94.682,0.053 c 6.216,0 11.254,-4.364 11.257,-9.75 l 0.045,-82.085 c 0,-5.39 -5.031,-9.761 -11.247,-9.764 L 116.835,0.22 c -6.212,0 -11.255,4.361 -11.258,9.751 z"
           id="path1972"
           inkscape:connector-curvature="0"
           style="fill:#f7f7fe" />
        <path
           d="m 105.971,91.748 c 0,5.368 5.019,9.726 11.21,9.729 l 94.365,0.053 c 6.2,0 11.216,-4.349 11.219,-9.717 L 222.81,10 c 0,-5.372 -5.014,-9.728 -11.209,-9.731 L 117.236,0.22 c -6.191,0 -11.217,4.347 -11.22,9.718 z"
           id="path1974"
           inkscape:connector-curvature="0"
           style="fill:#f7f7fe" />
        <path
           d="m 106.411,91.44 c 0,5.35 5,9.693 11.172,9.7 l 94.047,0.052 c 6.173,0 11.178,-4.335 11.181,-9.684 l 0.045,-81.535 c 0,-5.353 -5,-9.695 -11.171,-9.7 L 117.638,0.22 c -6.171,0 -11.18,4.332 -11.183,9.686 z"
           id="path1976"
           inkscape:connector-curvature="0"
           style="fill:#f6f6fe" />
        <path
           d="m 106.85,91.132 c 0,5.332 4.984,9.661 11.134,9.664 l 93.729,0.052 c 6.153,0 11.141,-4.32 11.144,-9.651 L 222.9,9.938 c 0,-5.336 -4.981,-9.663 -11.134,-9.666 L 118.039,0.22 c -6.15,0 -11.142,4.318 -11.145,9.653 z"
           id="path1978"
           inkscape:connector-curvature="0"
           style="fill:#f5f5fe" />
        <path
           d="m 107.289,90.824 c 0,5.314 4.968,9.628 11.1,9.631 l 93.411,0.052 c 6.132,0 11.1,-4.305 11.106,-9.619 L 222.947,9.9 c 0,-5.317 -4.963,-9.63 -11.095,-9.633 L 118.441,0.22 c -6.13,0 -11.105,4.3 -11.108,9.621 z"
           id="path1980"
           inkscape:connector-curvature="0"
           style="fill:#f4f4fe" />
        <path
           d="m 107.728,90.516 c 0,5.3 4.951,9.595 11.06,9.6 l 93.093,0.051 c 6.111,0 11.066,-4.29 11.068,-9.586 l 0.044,-80.708 c 0,-5.3 -4.946,-9.6 -11.057,-9.6 L 118.842,0.221 c -6.109,0 -11.067,4.288 -11.07,9.587 z"
           id="path1982"
           inkscape:connector-curvature="0"
           style="fill:#f3f3fe" />
        <path
           d="m 108.168,90.208 c 0,5.278 4.933,9.562 11.021,9.566 l 92.776,0.051 c 6.09,0 11.028,-4.276 11.03,-9.553 L 223.039,9.84 c 0,-5.282 -4.93,-9.564 -11.02,-9.568 L 119.243,0.221 c -6.087,0 -11.029,4.274 -11.032,9.555 z"
           id="path1984"
           inkscape:connector-curvature="0"
           style="fill:#f2f2fe" />
        <path
           d="m 108.607,89.9 c 0,5.26 4.917,9.53 10.984,9.533 l 92.458,0.051 c 6.069,0 10.99,-4.261 10.992,-9.52 l 0.044,-80.157 c 0,-5.263 -4.913,-9.531 -10.982,-9.535 L 119.645,0.221 c -6.067,0 -10.992,4.259 -10.994,9.522 z"
           id="path1986"
           inkscape:connector-curvature="0"
           style="fill:#f2f2fe" />
        <path
           d="m 109.046,89.592 c 0,5.242 4.9,9.5 10.946,9.5 l 92.141,0.051 c 6.048,0 10.952,-4.246 10.954,-9.488 l 0.044,-79.881 c 0,-5.245 -4.9,-9.5 -10.944,-9.5 L 120.046,0.221 c -6.046,0 -10.953,4.245 -10.956,9.49 z"
           id="path1988"
           inkscape:connector-curvature="0"
           style="fill:#f1f1fe" />
        <path
           d="m 109.486,89.284 c 0,5.224 4.882,9.464 10.908,9.468 l 91.823,0.05 c 6.027,0 10.914,-4.231 10.917,-9.455 l 0.043,-79.606 c 0,-5.227 -4.88,-9.465 -10.907,-9.469 L 120.448,0.221 c -6.026,0 -10.916,4.23 -10.919,9.457 z"
           id="path1990"
           inkscape:connector-curvature="0"
           style="fill:#f0f0fe" />
        <path
           d="m 109.925,88.976 c 0,5.206 4.866,9.432 10.871,9.435 l 91.5,0.051 c 6.007,0 10.877,-4.217 10.88,-9.423 l 0.043,-79.33 c 0,-5.209 -4.863,-9.433 -10.869,-9.437 l -91.501,-0.05 c -6.005,0 -10.878,4.215 -10.881,9.424 z"
           id="path1992"
           inkscape:connector-curvature="0"
           style="fill:#efeffe" />
        <path
           d="m 110.364,88.668 c 0,5.188 4.849,9.4 10.833,9.4 l 91.187,0.051 c 5.986,0 10.839,-4.2 10.842,-9.39 l 0.043,-79.055 c 0,-5.191 -4.846,-9.4 -10.831,-9.4 L 121.25,0.222 c -5.984,0 -10.84,4.2 -10.843,9.391 z"
           id="path1994"
           inkscape:connector-curvature="0"
           style="fill:#eeeefe" />
        <path
           d="m 110.8,88.36 c 0,5.17 4.832,9.366 10.8,9.369 l 90.869,0.051 c 5.964,0 10.8,-4.188 10.8,-9.358 l 0.042,-78.779 c 0,-5.173 -4.829,-9.367 -10.793,-9.371 l -90.866,-0.05 c -5.963,0 -10.8,4.186 -10.806,9.359 z"
           id="path1996"
           inkscape:connector-curvature="0"
           style="fill:#ededfe" />
        <path
           d="m 111.243,88.052 c 0,5.152 4.815,9.333 10.757,9.337 l 90.552,0.05 c 5.943,0 10.763,-4.173 10.766,-9.325 l 0.042,-78.5 c 0,-5.154 -4.812,-9.334 -10.755,-9.338 L 122.053,0.222 c -5.942,0 -10.765,4.172 -10.768,9.326 z"
           id="path1998"
           inkscape:connector-curvature="0"
           style="fill:#ececfe" />
        <path
           d="m 111.682,87.744 c 0,5.134 4.8,9.3 10.72,9.3 l 90.234,0.05 c 5.922,0 10.725,-4.158 10.728,-9.292 l 0.042,-78.228 c 0,-5.137 -4.8,-9.3 -10.717,-9.306 L 122.455,0.222 c -5.922,0 -10.728,4.157 -10.73,9.294 z"
           id="path2000"
           inkscape:connector-curvature="0"
           style="fill:#ececfe" />
        <path
           d="m 112.121,87.436 c 0,5.116 4.782,9.268 10.683,9.271 l 89.916,0.05 c 5.9,0 10.687,-4.144 10.69,-9.259 l 0.042,-77.953 c 0,-5.119 -4.778,-9.269 -10.68,-9.273 L 122.856,0.223 c -5.9,0 -10.69,4.142 -10.692,9.26 z"
           id="path2002"
           inkscape:connector-curvature="0"
           style="fill:#ebebfe" />
        <path
           d="m 112.561,87.128 c 0,5.1 4.764,9.235 10.644,9.239 l 89.6,0.049 c 5.88,0 10.649,-4.129 10.652,-9.227 L 223.5,9.512 c 0,-5.1 -4.762,-9.236 -10.642,-9.24 l -89.6,-0.049 c -5.88,0 -10.651,4.127 -10.654,9.228 z"
           id="path2004"
           inkscape:connector-curvature="0"
           style="fill:#eaeafe" />
        <path
           d="m 113,86.82 c 0,5.08 4.747,9.2 10.607,9.206 l 89.281,0.049 c 5.859,0 10.611,-4.114 10.614,-9.194 l 0.042,-77.4 c 0,-5.083 -4.745,-9.2 -10.6,-9.208 l -89.285,-0.05 c -5.86,0 -10.614,4.113 -10.617,9.195 z"
           id="path2006"
           inkscape:connector-curvature="0"
           style="fill:#e9e9fd" />
        <path
           d="m 113.439,86.512 c 0,5.062 4.731,9.17 10.569,9.173 l 88.963,0.049 c 5.839,0 10.574,-4.1 10.577,-9.161 L 223.59,9.447 c 0,-5.064 -4.728,-9.171 -10.567,-9.175 L 124.06,0.223 c -5.838,0 -10.576,4.1 -10.579,9.163 z"
           id="path2008"
           inkscape:connector-curvature="0"
           style="fill:#e8e8fd" />
        <path
           d="m 113.878,86.2 c 0,5.044 4.714,9.137 10.532,9.14 l 88.645,0.049 c 5.818,0 10.536,-4.084 10.539,-9.128 L 223.636,9.41 c 0,-5.046 -4.712,-9.138 -10.529,-9.142 L 124.462,0.223 c -5.818,0 -10.539,4.084 -10.542,9.13 z"
           id="path2010"
           inkscape:connector-curvature="0"
           style="fill:#e7e7fd" />
        <path
           d="m 114.318,85.9 c 0,5.026 4.7,9.1 10.493,9.108 l 88.328,0.049 c 5.8,0 10.5,-4.071 10.5,-9.1 l 0.042,-76.575 c 0,-5.028 -4.695,-9.1 -10.491,-9.109 L 124.863,0.224 c -5.8,0 -10.5,4.069 -10.5,9.1 z"
           id="path2012"
           inkscape:connector-curvature="0"
           style="fill:#e7e7fd" />
        <path
           d="m 114.757,85.588 c 0,5.008 4.68,9.072 10.456,9.075 l 88.01,0.049 c 5.775,0 10.46,-4.056 10.463,-9.064 l 0.041,-76.3 c 0,-5.01 -4.677,-9.073 -10.453,-9.077 l -88.01,-0.047 c -5.776,0 -10.463,4.054 -10.466,9.064 z"
           id="path2014"
           inkscape:connector-curvature="0"
           style="fill:#e6e6fd" />
        <path
           d="m 115.2,85.28 c 0,4.99 4.663,9.039 10.419,9.042 l 87.692,0.049 c 5.754,0 10.422,-4.041 10.425,-9.031 l 0.041,-76.024 c 0,-4.992 -4.66,-9.04 -10.415,-9.043 L 125.666,0.224 c -5.756,0 -10.426,4.04 -10.428,9.032 z"
           id="path2016"
           inkscape:connector-curvature="0"
           style="fill:#e5e5fd" />
        <path
           d="m 115.635,84.972 c 0,4.972 4.646,9.006 10.381,9.009 l 87.375,0.049 c 5.733,0 10.384,-4.026 10.387,-9 l 0.041,-75.749 c 0,-4.974 -4.644,-9.007 -10.377,-9.01 L 126.067,0.224 c -5.735,0 -10.388,4.025 -10.39,9 z"
           id="path2018"
           inkscape:connector-curvature="0"
           style="fill:#e4e4fd" />
        <path
           d="m 116.075,84.664 c 0,4.954 4.629,8.974 10.343,8.977 l 87.057,0.048 c 5.712,0 10.346,-4.012 10.349,-8.966 l 0.041,-75.472 c 0,-4.956 -4.627,-8.975 -10.34,-8.978 L 126.469,0.224 c -5.714,0 -10.35,4.011 -10.353,8.967 z"
           id="path2020"
           inkscape:connector-curvature="0"
           style="fill:#e3e3fd" />
        <path
           d="m 116.514,84.356 c 0,4.936 4.612,8.941 10.305,8.944 l 86.739,0.048 c 5.692,0 10.309,-4 10.312,-8.933 l 0.041,-75.2 c 0,-4.938 -4.61,-8.942 -10.3,-8.945 L 126.87,0.225 c -5.693,0 -10.312,4 -10.315,8.933 z"
           id="path2022"
           inkscape:connector-curvature="0"
           style="fill:#e2e2fd" />
        <path
           d="m 116.953,84.048 c 0,4.918 4.595,8.908 10.268,8.911 l 86.421,0.048 c 5.671,0 10.271,-3.982 10.274,-8.9 l 0.041,-74.922 c 0,-4.92 -4.594,-8.909 -10.264,-8.912 L 127.271,0.225 c -5.672,0 -10.274,3.981 -10.277,8.9 z"
           id="path2024"
           inkscape:connector-curvature="0"
           style="fill:#e1e1fd" />
        <path
           d="m 117.393,83.74 c 0,4.9 4.578,8.875 10.23,8.879 l 86.1,0.047 c 5.65,0 10.233,-3.967 10.236,-8.867 L 224,9.152 c 0,-4.9 -4.577,-8.876 -10.227,-8.879 l -86.1,-0.048 c -5.652,0 -10.237,3.967 -10.24,8.868 z"
           id="path2026"
           inkscape:connector-curvature="0"
           style="fill:#e1e1fd" />
        <path
           d="m 117.832,83.432 c 0,4.882 4.561,8.843 10.192,8.846 l 85.786,0.047 c 5.629,0 10.195,-3.952 10.2,-8.835 l 0.041,-74.37 c 0,-4.884 -4.56,-8.844 -10.189,-8.847 L 128.074,0.225 c -5.631,0 -10.2,3.952 -10.2,8.836 z"
           id="path2028"
           inkscape:connector-curvature="0"
           style="fill:#e0e0fd" />
        <path
           d="m 118.271,83.124 c 0,4.864 4.544,8.81 10.155,8.813 l 85.468,0.047 c 5.608,0 10.157,-3.938 10.16,-8.8 l 0.04,-74.095 c 0,-4.865 -4.542,-8.811 -10.15,-8.814 l -85.468,-0.05 c -5.611,0 -10.162,3.938 -10.164,8.8 z"
           id="path2030"
           inkscape:connector-curvature="0"
           style="fill:#dfdffd" />
        <path
           d="m 118.71,82.816 c 0,4.846 4.528,8.777 10.117,8.78 l 85.151,0.048 c 5.586,0 10.119,-3.924 10.122,-8.77 l 0.04,-73.82 c 0,-4.847 -4.526,-8.778 -10.113,-8.781 l -85.15,-0.047 c -5.589,0 -10.124,3.923 -10.126,8.77 z"
           id="path2032"
           inkscape:connector-curvature="0"
           style="fill:#dedefd" />
        <path
           d="m 119.15,82.507 c 0,4.829 4.51,8.746 10.079,8.749 l 84.833,0.047 c 5.565,0 10.082,-3.909 10.084,-8.737 l 0.04,-73.544 c 0,-4.83 -4.509,-8.746 -10.075,-8.749 L 129.278,0.226 c -5.568,0 -10.086,3.908 -10.088,8.737 z"
           id="path2034"
           inkscape:connector-curvature="0"
           style="fill:#ddddfd" />
        <path
           d="m 119.589,82.2 c 0,4.811 4.493,8.713 10.042,8.716 l 84.514,0.047 c 5.545,0 10.045,-3.894 10.047,-8.7 l 0.04,-73.268 c 0,-4.811 -4.492,-8.713 -10.037,-8.716 L 129.68,0.226 c -5.548,0 -10.048,3.894 -10.051,8.7 z"
           id="path2036"
           inkscape:connector-curvature="0"
           style="fill:#dcdcfd" />
        <path
           d="m 120.028,81.891 c 0,4.793 4.477,8.68 10,8.683 l 84.2,0.047 c 5.524,0 10.007,-3.88 10.009,-8.672 l 0.04,-72.993 c 0,-4.793 -4.476,-8.68 -10,-8.683 l -84.2,-0.047 c -5.527,0 -10.01,3.879 -10.013,8.672 z"
           id="path2038"
           inkscape:connector-curvature="0"
           style="fill:#dcdcfd" />
        <path
           d="m 120.468,81.583 c 0,4.775 4.459,8.647 9.966,8.651 l 83.879,0.046 c 5.5,0 9.969,-3.865 9.971,-8.639 l 0.04,-72.718 c 0,-4.775 -4.459,-8.647 -9.962,-8.65 L 130.483,0.226 c -5.507,0 -9.973,3.865 -9.976,8.64 z"
           id="path2040"
           inkscape:connector-curvature="0"
           style="fill:#dbdbfc" />
        <path
           d="m 120.907,81.275 c 0,4.757 4.443,8.615 9.928,8.618 l 83.562,0.046 c 5.482,0 9.931,-3.85 9.933,-8.606 l 0.04,-72.442 c 0,-4.757 -4.442,-8.615 -9.924,-8.618 L 130.884,0.227 c -5.486,0 -9.935,3.849 -9.938,8.606 z"
           id="path2042"
           inkscape:connector-curvature="0"
           style="fill:#dadafc" />
        <path
           d="m 121.346,80.967 c 0,4.739 4.426,8.582 9.891,8.585 l 83.244,0.046 c 5.461,0 9.893,-3.835 9.9,-8.574 l 0.04,-72.166 c 0,-4.739 -4.426,-8.582 -9.887,-8.585 L 131.285,0.227 c -5.464,0 -9.9,3.835 -9.9,8.574 z"
           id="path2044"
           inkscape:connector-curvature="0"
           style="fill:#d9d9fc" />
        <path
           d="m 121.785,80.659 c 0,4.721 4.409,8.549 9.853,8.552 l 82.927,0.046 c 5.44,0 9.855,-3.821 9.857,-8.541 l 0.039,-71.891 c 0,-4.721 -4.408,-8.549 -9.848,-8.552 L 131.687,0.227 c -5.444,0 -9.86,3.821 -9.862,8.541 z"
           id="path2046"
           inkscape:connector-curvature="0"
           style="fill:#d8d8fc" />
        <path
           d="m 122.225,80.351 c 0,4.7 4.392,8.517 9.815,8.52 l 82.609,0.045 c 5.419,0 9.817,-3.806 9.819,-8.508 l 0.039,-71.616 c 0,-4.7 -4.391,-8.516 -9.81,-8.519 L 132.088,0.227 c -5.423,0 -9.822,3.806 -9.824,8.509 z"
           id="path2048"
           inkscape:connector-curvature="0"
           style="fill:#d7d7fc" />
        <path
           d="m 122.664,80.043 c 0,4.685 4.375,8.484 9.778,8.487 l 82.29,0.045 c 5.4,0 9.78,-3.791 9.782,-8.475 l 0.039,-71.34 c 0,-4.685 -4.374,-8.484 -9.773,-8.487 L 132.49,0.227 c -5.4,0 -9.785,3.792 -9.787,8.476 z"
           id="path2050"
           inkscape:connector-curvature="0"
           style="fill:#d7d7fc" />
        <path
           d="m 123.1,79.735 c 0,4.667 4.358,8.451 9.74,8.454 l 81.973,0.046 c 5.377,0 9.742,-3.777 9.744,-8.444 L 224.6,8.727 c 0,-4.667 -4.358,-8.451 -9.735,-8.454 L 132.891,0.228 c -5.382,0 -9.747,3.776 -9.749,8.443 z"
           id="path2052"
           inkscape:connector-curvature="0"
           style="fill:#d6d6fc" />
        <path
           d="m 123.543,79.427 c 0,4.649 4.341,8.419 9.7,8.421 l 81.655,0.046 c 5.356,0 9.7,-3.762 9.706,-8.411 l 0.039,-70.789 c 0,-4.648 -4.341,-8.418 -9.7,-8.421 l -81.65,-0.045 c -5.362,0 -9.709,3.762 -9.712,8.41 z"
           id="path2054"
           inkscape:connector-curvature="0"
           style="fill:#d5d5fc" />
        <path
           d="m 123.982,79.119 c 0,4.631 4.324,8.386 9.664,8.389 l 81.338,0.045 c 5.335,0 9.666,-3.748 9.668,-8.378 l 0.039,-70.513 c 0,-4.631 -4.324,-8.386 -9.659,-8.389 L 133.694,0.228 c -5.341,0 -9.671,3.747 -9.674,8.378 z"
           id="path2056"
           inkscape:connector-curvature="0"
           style="fill:#d4d4fc" />
      </g>
      <rect
         y="0.44799995"
         width="225.38499"
         height="98.739998"
         rx="8.2279997"
         id="rect2060"
         x="0"
         style="isolation:isolate;fill:#ffffff" />
      <rect
         x="0.537"
         y="0.44799995"
         width="224.84801"
         height="97.846001"
         rx="8.1809998"
         id="rect2062"
         style="isolation:isolate;fill:url(#Unbenannter_Verlauf_31)" />
      <path
         style="isolation:isolate;fill:#ffffff;stroke:none"
         inkscape:connector-curvature="0"
         id="path2064"
         d="M 16.932,16.925 H 20.1 a 8.617,8.617 0 0 1 3.348,0.551 4.225,4.225 0 0 1 2.064,2.036 8.747,8.747 0 0 1 0.774,4.014 9.935,9.935 0 0 1 -0.47,3.189 5.841,5.841 0 0 1 -1.236,2.192 3.811,3.811 0 0 1 -1.725,1.074 8.939,8.939 0 0 1 -2.4,0.274 h -3.52 z m 2.941,2.285 v 8.759 h 0.5 a 2.741,2.741 0 0 0 1.583,-0.391 2.646,2.646 0 0 0 0.9,-1.363 9.124,9.124 0 0 0 0.334,-2.811 7.3,7.3 0 0 0 -0.369,-2.62 2.434,2.434 0 0 0 -0.924,-1.247 3,3 0 0 0 -1.519,-0.327 z" />
      <path
         style="isolation:isolate;fill:#ffffff;stroke:none"
         inkscape:connector-curvature="0"
         id="path2066"
         d="m 28.216,16.925 h 2.942 v 13.33 h -2.942 z" />
      <path
         style="isolation:isolate;fill:#ffffff;stroke:none"
         inkscape:connector-curvature="0"
         id="path2068"
         d="m 38.384,23.145 h 4.647 v 7.11 H 41.786 L 41.4,28.731 a 3.564,3.564 0 0 1 -3.235,1.729 4.286,4.286 0 0 1 -3.623,-1.792 7.871,7.871 0 0 1 -1.339,-4.82 9.071,9.071 0 0 1 1.319,-5.21 4.423,4.423 0 0 1 3.9,-1.919 q 4.108,0 4.608,4.571 l -2.647,0.429 q -0.275,-2.616 -1.9,-2.617 a 1.794,1.794 0 0 0 -1.583,0.967 7.717,7.717 0 0 0 -0.594,3.662 7.058,7.058 0 0 0 0.579,3.369 1.857,1.857 0 0 0 1.7,0.977 q 1.8,0 1.8,-2.647 h -2 z" />
      <path
         style="isolation:isolate;fill:#ffffff;stroke:none"
         inkscape:connector-curvature="0"
         id="path2070"
         d="m 45.325,16.925 h 2.942 v 13.33 h -2.942 z" />
      <path
         style="isolation:isolate;fill:#ffffff;stroke:none"
         inkscape:connector-curvature="0"
         id="path2072"
         d="m 49.3,16.925 h 8.34 v 2.5 H 54.9 v 10.83 H 51.963 V 19.425 H 49.3 Z" />
      <path
         style="isolation:isolate;fill:#ffffff;stroke:none"
         inkscape:connector-curvature="0"
         id="path2074"
         d="m 60.757,16.925 h 2.961 l 3.824,13.33 H 64.534 L 63.866,27.5 H 60.1 l -0.656,2.754 h -2.7 z m 2.556,8.291 -1.352,-5.462 -1.3,5.462 z" />
      <path
         style="isolation:isolate;fill:#ffffff;stroke:none"
         inkscape:connector-curvature="0"
         id="path2076"
         d="m 68.66,16.925 h 2.94 v 10.83 h 4.314 v 2.5 H 68.66 Z" />
      <path
         style="isolation:isolate;fill:#ffffff;stroke:none"
         inkscape:connector-curvature="0"
         id="path2078"
         d="m 77.209,16.925 h 8.138 v 2.285 h -5.2 v 3.095 h 4.043 v 2.286 h -4.039 v 3.281 h 5.2 v 2.383 h -8.142 z" />
      <path
         style="isolation:isolate;fill:#ffffff;stroke:none"
         inkscape:connector-curvature="0"
         id="path2080"
         d="m 90.533,16.925 h 4.314 l 1.893,8.232 2.127,-8.232 h 4.187 v 13.33 H 100.3 V 19.092 l -2.737,11.163 h -2.137 l -2.5,-11.163 v 11.163 h -2.393 z" />
      <path
         style="isolation:isolate;fill:#ffffff;stroke:none"
         inkscape:connector-curvature="0"
         id="path2082"
         d="m 105.583,16.925 h 8.138 v 2.285 h -5.2 v 3.095 h 4.039 v 2.286 h -4.039 v 3.281 h 5.2 v 2.383 h -8.138 z" />
      <path
         style="isolation:isolate;fill:#ffffff;stroke:none"
         inkscape:connector-curvature="0"
         id="path2084"
         d="m 115.162,16.925 h 3.167 a 8.622,8.622 0 0 1 3.349,0.551 4.219,4.219 0 0 1 2.063,2.036 8.733,8.733 0 0 1 0.775,4.014 9.934,9.934 0 0 1 -0.471,3.189 5.84,5.84 0 0 1 -1.235,2.192 3.809,3.809 0 0 1 -1.726,1.074 8.939,8.939 0 0 1 -2.4,0.274 h -3.52 z m 2.938,2.285 v 8.759 h 0.5 a 2.741,2.741 0 0 0 1.583,-0.391 2.651,2.651 0 0 0 0.894,-1.363 9.093,9.093 0 0 0 0.334,-2.811 7.325,7.325 0 0 0 -0.368,-2.62 2.43,2.43 0 0 0 -0.925,-1.247 2.993,2.993 0 0 0 -1.518,-0.327 z" />
      <path
         style="isolation:isolate;fill:#ffffff;stroke:none"
         inkscape:connector-curvature="0"
         id="path2086"
         d="m 126.446,16.925 h 2.942 v 13.33 h -2.942 z" />
      <path
         style="isolation:isolate;fill:#ffffff;stroke:none"
         inkscape:connector-curvature="0"
         id="path2088"
         d="m 131.918,16.925 h 8.138 v 2.285 h -5.2 v 3.095 h 4.044 v 2.286 h -4.04 v 3.281 h 5.2 v 2.383 h -8.138 z" />
      <path
         style="isolation:isolate;fill:#ffffff;stroke:none"
         inkscape:connector-curvature="0"
         id="path2090"
         d="m 141.389,16.925 h 3.264 l 3.442,8.281 v -8.281 h 2.274 v 13.33 h -2.628 l -4.078,-9.649 v 9.649 h -2.274 z" />
      <path
         style="isolation:isolate;fill:#ffffff"
         inkscape:connector-curvature="0"
         id="path2094"
         d="m 18.3,42.8 -0.1,1.048 q -0.046,0.5 -0.047,1 a 7.509,7.509 0 0 0 0.082,1.031 0.625,0.625 0 0 1 -0.293,0.351 0.923,0.923 0 0 1 -0.5,0.147 q -0.805,0 -0.806,-1.02 a 20.721,20.721 0 0 1 0.253,-2.156 14.028,14.028 0 0 0 0.176,-1.822 c 0,-0.024 -0.023,-0.051 -0.07,-0.082 -0.27,-0.172 -0.406,-0.336 -0.406,-0.492 0,-0.2 0.151,-0.424 0.453,-0.663 a 0.694,0.694 0 0 0 0.268,-0.395 c 0.033,-0.15 0.081,-0.388 0.144,-0.712 a 5.657,5.657 0 0 1 0.985,-2.657 2.125,2.125 0 0 1 1.7,-0.788 1.428,1.428 0 0 1 1.015,0.389 1.268,1.268 0 0 1 0.415,0.964 2.719,2.719 0 0 1 -0.238,1.07 q -0.238,0.553 -0.627,0.553 a 0.409,0.409 0 0 1 -0.288,-0.108 0.366,0.366 0 0 1 -0.118,-0.284 l 0.036,-0.51 q 0,-0.913 -0.383,-0.914 -0.477,0 -0.891,1.192 a 6.365,6.365 0 0 0 -0.415,2.031 c 0,0.058 0.037,0.087 0.112,0.087 q 1.218,0 1.721,-0.011 0.503,-0.011 0.5,0.386 0,0.387 -0.609,0.572 a 4.392,4.392 0 0 1 -1.28,0.184 4.9,4.9 0 0 0 -0.588,0.076 c -0.094,0.579 -0.163,1.088 -0.206,1.53 z" />
      <path
         style="isolation:isolate;fill:#ffffff"
         inkscape:connector-curvature="0"
         id="path2096"
         d="m 25.29,43.633 a 5.44,5.44 0 0 1 -1.309,1.629 2.384,2.384 0 0 1 -1.509,0.6 1.31,1.31 0 0 1 -0.915,-0.475 2.019,2.019 0 0 1 -0.462,-1.459 9.587,9.587 0 0 1 0.353,-2.1 7.583,7.583 0 0 0 0.306,-1.764 0.773,0.773 0 0 1 0.735,-0.492 0.7,0.7 0 0 1 0.545,0.226 0.68,0.68 0 0 1 0.2,0.454 3.643,3.643 0 0 1 -0.293,1.183 11.272,11.272 0 0 0 -0.368,1.292 6.319,6.319 0 0 0 -0.2,1.07 c 0,0.519 0.107,0.779 0.323,0.779 q 0.513,0 1.383,-0.979 a 4.868,4.868 0 0 0 1.135,-2 5.151,5.151 0 0 1 0.471,-1.312 0.659,0.659 0 0 1 0.582,-0.311 q 0.612,0 0.612,0.68 a 1.673,1.673 0 0 1 -0.1,0.4 7.321,7.321 0 0 0 -0.347,2.337 q 0,1.524 0.517,1.823 a 0.286,0.286 0 0 1 0.171,0.246 q 0,0.21 -0.3,0.4 a 1.084,1.084 0 0 1 -0.57,0.188 q -0.466,0 -0.715,-0.654 A 5.017,5.017 0 0 1 25.29,43.633 Z m -1.706,-4.939 a 1.261,1.261 0 0 1 -0.55,-0.146 c -0.2,-0.1 -0.3,-0.206 -0.3,-0.323 0,-0.582 0.2,-0.873 0.612,-0.873 a 1.1,1.1 0 0 1 0.744,0.24 0.848,0.848 0 0 1 0.28,0.68 q 0.002,0.422 -0.786,0.422 z m 2.111,-0.152 a 0.739,0.739 0 0 1 -0.514,-0.2 0.623,0.623 0 0 1 -0.221,-0.472 0.524,0.524 0 0 1 0.18,-0.46 1.835,1.835 0 0 1 0.6,-0.226 l 0.1,-0.029 a 0.551,0.551 0 0 1 0.473,0.079 0.569,0.569 0 0 1 0.227,0.513 q -0.003,0.795 -0.84,0.795 z" />
      <path
         style="isolation:isolate;fill:#ffffff"
         inkscape:connector-curvature="0"
         id="path2098"
         d="m 29.948,42.872 0.1,-0.188 a 9.962,9.962 0 0 1 1.533,-2.311 2.276,2.276 0 0 1 1.6,-0.888 1.441,1.441 0 0 1 0.979,0.328 1,1 0 0 1 0.38,0.779 0.873,0.873 0 0 1 -0.13,0.484 0.4,0.4 0 0 1 -0.358,0.2 0.924,0.924 0 0 1 -0.665,-0.3 0.591,0.591 0 0 0 -0.336,-0.193 q -0.441,0 -1.476,1.365 a 6.276,6.276 0 0 0 -1.247,3.07 1.08,1.08 0 0 1 -0.288,0.689 0.885,0.885 0 0 1 -0.606,0.2 0.6,0.6 0 0 1 -0.577,-0.46 4.718,4.718 0 0 1 -0.17,-1.5 c 0,-0.285 0.007,-0.67 0.023,-1.154 q 0.024,-0.685 0.135,-1.676 c 0.02,-0.172 0.034,-0.306 0.042,-0.4 a 4.369,4.369 0 0 1 0.12,-0.788 0.837,0.837 0 0 1 0.315,-0.4 0.884,0.884 0 0 1 0.547,-0.187 0.617,0.617 0 0 1 0.483,0.182 0.582,0.582 0 0 1 0.164,0.4 5.163,5.163 0 0 1 -0.264,1.143 4.993,4.993 0 0 0 -0.16,0.714 z" />
      <path
         style="isolation:isolate;fill:#ffffff"
         inkscape:connector-curvature="0"
         id="path2100"
         d="m 43.567,43.821 q -1.524,2.151 -3.065,2.15 a 1.217,1.217 0 0 1 -1.006,-0.489 1.96,1.96 0 0 1 -0.382,-1.245 4.756,4.756 0 0 1 1.256,-3.037 3.443,3.443 0 0 1 2.544,-1.512 1.279,1.279 0 0 1 1.053,0.387 q 0.441,-1.921 0.524,-2.4 a 7.885,7.885 0 0 1 0.294,-1.184 0.955,0.955 0 0 1 0.359,-0.454 0.789,0.789 0 0 1 0.417,-0.161 0.514,0.514 0 0 1 0.459,0.246 1.123,1.123 0 0 1 0.159,0.621 4.943,4.943 0 0 1 -0.259,0.943 26.049,26.049 0 0 0 -0.785,3.059 15.273,15.273 0 0 0 -0.362,2.853 q 0,1.014 0.447,1.014 a 1.138,1.138 0 0 0 0.488,-0.123 1.087,1.087 0 0 1 0.365,-0.117 q 0.288,0 0.288,0.334 0,0.4 -0.585,0.806 a 1.987,1.987 0 0 1 -1.109,0.4 0.948,0.948 0 0 1 -0.87,-0.6 2.706,2.706 0 0 1 -0.23,-1.491 z m -0.653,-3.006 q -0.771,0 -1.609,1.172 a 3.789,3.789 0 0 0 -0.838,2.145 c 0,0.378 0.141,0.568 0.423,0.568 q 0.718,0 1.712,-1.272 a 3.762,3.762 0 0 0 0.994,-2.009 0.576,0.576 0 0 0 -0.188,-0.413 0.663,0.663 0 0 0 -0.494,-0.191 z" />
      <path
         style="isolation:isolate;fill:#ffffff"
         inkscape:connector-curvature="0"
         id="path2102"
         d="m 52.614,43.762 q 0,0.61 -1.029,1.456 a 3.559,3.559 0 0 1 -2.324,0.847 2.016,2.016 0 0 1 -1.565,-0.624 2.481,2.481 0 0 1 -0.57,-1.737 4.793,4.793 0 0 1 1.165,-3.076 3.256,3.256 0 0 1 2.488,-1.436 1.4,1.4 0 0 1 1.059,0.416 1.378,1.378 0 0 1 0.4,0.99 2.678,2.678 0 0 1 -0.982,1.943 5.331,5.331 0 0 1 -2.518,1.274 0.2,0.2 0 0 0 -0.177,0.211 0.764,0.764 0 0 0 0.25,0.536 0.893,0.893 0 0 0 0.668,0.255 3.319,3.319 0 0 0 2.347,-1.217 0.625,0.625 0 0 1 0.435,-0.234 c 0.239,0.004 0.353,0.134 0.353,0.396 z m -3.947,-1.037 a 3.564,3.564 0 0 0 1.638,-0.791 1.608,1.608 0 0 0 0.709,-1.095 0.494,0.494 0 0 0 -0.109,-0.326 0.343,0.343 0 0 0 -0.279,-0.131 1.658,1.658 0 0 0 -1.135,0.75 3.88,3.88 0 0 0 -0.824,1.593 z" />
      <path
         style="isolation:isolate;fill:#ffffff"
         inkscape:connector-curvature="0"
         id="path2104"
         d="m 58.532,44.923 a 5.782,5.782 0 0 1 -0.411,-1.969 q -0.131,-1.5 -0.577,-1.5 -0.423,0 -1.464,1.561 a 11.048,11.048 0 0 0 -1.28,2.306 0.768,0.768 0 0 1 -0.2,0.369 0.41,0.41 0 0 1 -0.285,0.147 c -0.6,0 -0.894,-0.272 -0.894,-0.815 a 9.539,9.539 0 0 1 0.176,-1.254 17.684,17.684 0 0 0 0.229,-3.093 0.987,0.987 0 0 1 0.242,-0.589 0.664,0.664 0 0 1 0.511,-0.314 0.741,0.741 0 0 1 0.524,0.17 q 0.181,0.169 0.182,0.9 A 13.136,13.136 0 0 1 54.95,43 q 1.276,-2.977 2.847,-2.977 1.365,0 1.6,2.139 0.236,2.18 0.542,2.179 a 1.009,1.009 0 0 0 0.311,-0.058 1.131,1.131 0 0 1 0.336,-0.07 q 0.282,0 0.282,0.328 a 0.91,0.91 0 0 1 -0.388,0.635 1.437,1.437 0 0 1 -0.977,0.337 1.009,1.009 0 0 1 -0.976,-0.591 z" />
      <path
         style="isolation:isolate;fill:#ffffff"
         inkscape:connector-curvature="0"
         id="path2106"
         d="m 69.915,46.171 a 3.677,3.677 0 0 1 -1.468,-0.393 2.678,2.678 0 0 1 -1.314,-1.333 4.618,4.618 0 0 1 -0.453,-2.03 8.784,8.784 0 0 1 0.164,-1.471 l 0.189,-1.084 c 0.027,-0.184 0.056,-0.363 0.088,-0.539 0.047,-0.27 0.088,-0.529 0.123,-0.779 a 2.433,2.433 0 0 1 0.289,-0.97 0.7,0.7 0 0 1 0.635,-0.325 q 0.211,0 0.432,0.331 a 1.051,1.051 0 0 1 0.221,0.507 q 0,0.123 -0.282,1.289 -0.07,0.292 -0.244,1.432 a 12.581,12.581 0 0 0 -0.174,1.544 2.48,2.48 0 0 0 0.656,2.016 1.941,1.941 0 0 0 1.109,0.521 2.706,2.706 0 0 0 2.065,-0.635 3.715,3.715 0 0 0 0.729,-2.077 c 0.02,-0.176 0.043,-0.342 0.071,-0.5 q 0.059,-0.6 0.1,-1.142 a 8.689,8.689 0 0 1 0.408,-2.59 0.831,0.831 0 0 1 0.762,-0.521 q 0.612,0 0.612,0.791 a 11.9,11.9 0 0 1 -0.23,1.746 14.1,14.1 0 0 0 -0.182,1.506 7.667,7.667 0 0 1 -0.488,2.6 3.565,3.565 0 0 1 -1.385,1.465 4.437,4.437 0 0 1 -2.433,0.641 z" />
      <path
         style="isolation:isolate;fill:#ffffff"
         inkscape:connector-curvature="0"
         id="path2108"
         d="m 80.628,44.923 a 5.777,5.777 0 0 1 -0.412,-1.969 q -0.129,-1.5 -0.577,-1.5 -0.423,0 -1.464,1.561 a 11.1,11.1 0 0 0 -1.283,2.306 0.768,0.768 0 0 1 -0.2,0.369 0.41,0.41 0 0 1 -0.285,0.147 q -0.894,0 -0.894,-0.815 a 9.539,9.539 0 0 1 0.176,-1.254 17.673,17.673 0 0 0 0.23,-3.093 0.985,0.985 0 0 1 0.241,-0.589 0.664,0.664 0 0 1 0.511,-0.314 0.741,0.741 0 0 1 0.524,0.17 c 0.121,0.113 0.183,0.414 0.183,0.9 A 13.062,13.062 0 0 1 77.045,43 q 1.276,-2.977 2.847,-2.977 1.365,0 1.6,2.139 0.237,2.18 0.542,2.179 a 1,1 0 0 0 0.311,-0.058 1.131,1.131 0 0 1 0.336,-0.07 q 0.282,0 0.282,0.328 a 0.906,0.906 0 0 1 -0.388,0.635 1.437,1.437 0 0 1 -0.977,0.337 1.009,1.009 0 0 1 -0.976,-0.591 z" />
      <path
         style="isolation:isolate;fill:#ffffff"
         inkscape:connector-curvature="0"
         id="path2110"
         d="m 86.051,41.02 a 6.784,6.784 0 0 0 -0.332,1.307 12.01,12.01 0 0 0 -0.279,1.582 1.533,1.533 0 0 0 0.1,0.671 0.353,0.353 0 0 0 0.338,0.19 1.781,1.781 0 0 0 0.632,-0.114 3.217,3.217 0 0 0 0.8,-0.513 0.894,0.894 0 0 1 0.518,-0.252 0.383,0.383 0 0 1 0.273,0.1 0.3,0.3 0 0 1 0.1,0.226 q 0,0.515 -0.835,1.169 a 2.824,2.824 0 0 1 -1.765,0.653 1.511,1.511 0 0 1 -1.185,-0.457 1.9,1.9 0 0 1 -0.409,-1.313 16.525,16.525 0 0 1 0.594,-3.158 c -0.251,0.027 -0.425,0.041 -0.523,0.041 h -0.124 a 1.023,1.023 0 0 1 -0.55,-0.176 0.614,0.614 0 0 1 -0.279,-0.562 q 0,-0.492 0.559,-0.492 l 1.258,-0.047 q 0.248,-0.709 0.524,-1.858 0.165,-0.714 0.747,-0.714 a 0.656,0.656 0 0 1 0.506,0.2 0.628,0.628 0 0 1 0.182,0.436 q 0,0.094 -0.5,1.811 1.872,-0.165 2.053,-0.164 a 0.646,0.646 0 0 1 0.412,0.091 0.462,0.462 0 0 1 0.1,0.348 q 0,0.522 -0.888,0.662 z" />
      <path
         style="isolation:isolate;fill:#ffffff"
         inkscape:connector-curvature="0"
         id="path2112"
         d="m 94.54,43.762 q 0,0.61 -1.029,1.456 a 3.561,3.561 0 0 1 -2.324,0.847 2.016,2.016 0 0 1 -1.565,-0.624 2.481,2.481 0 0 1 -0.57,-1.737 4.8,4.8 0 0 1 1.164,-3.076 3.258,3.258 0 0 1 2.489,-1.436 1.4,1.4 0 0 1 1.059,0.416 1.383,1.383 0 0 1 0.4,0.99 2.676,2.676 0 0 1 -0.983,1.943 5.323,5.323 0 0 1 -2.517,1.274 0.2,0.2 0 0 0 -0.177,0.211 0.76,0.76 0 0 0 0.25,0.536 0.893,0.893 0 0 0 0.668,0.255 3.319,3.319 0 0 0 2.347,-1.217 0.625,0.625 0 0 1 0.435,-0.234 q 0.353,0.004 0.353,0.396 z m -3.947,-1.037 a 3.568,3.568 0 0 0 1.638,-0.791 1.608,1.608 0 0 0 0.709,-1.095 0.494,0.494 0 0 0 -0.109,-0.326 0.344,0.344 0 0 0 -0.279,-0.131 1.658,1.658 0 0 0 -1.135,0.75 3.88,3.88 0 0 0 -0.824,1.593 z" />
      <path
         style="isolation:isolate;fill:#ffffff"
         inkscape:connector-curvature="0"
         id="path2114"
         d="m 96.987,42.872 0.1,-0.188 a 9.961,9.961 0 0 1 1.532,-2.311 2.278,2.278 0 0 1 1.6,-0.888 1.443,1.443 0 0 1 0.979,0.328 1,1 0 0 1 0.379,0.779 0.881,0.881 0 0 1 -0.129,0.484 0.405,0.405 0 0 1 -0.359,0.2 0.922,0.922 0 0 1 -0.664,-0.3 0.594,0.594 0 0 0 -0.336,-0.193 q -0.441,0 -1.477,1.365 a 6.286,6.286 0 0 0 -1.247,3.07 1.08,1.08 0 0 1 -0.288,0.689 0.885,0.885 0 0 1 -0.606,0.2 0.6,0.6 0 0 1 -0.576,-0.46 4.712,4.712 0 0 1 -0.171,-1.5 q 0,-0.428 0.024,-1.154 0.022,-0.685 0.135,-1.676 c 0.019,-0.172 0.034,-0.306 0.041,-0.4 a 4.437,4.437 0 0 1 0.121,-0.788 0.841,0.841 0 0 1 0.314,-0.4 0.887,0.887 0 0 1 0.548,-0.187 0.616,0.616 0 0 1 0.482,0.182 0.579,0.579 0 0 1 0.165,0.4 5.187,5.187 0 0 1 -0.265,1.143 4.87,4.87 0 0 0 -0.159,0.714 z" />
      <path
         style="isolation:isolate;fill:#ffffff"
         inkscape:connector-curvature="0"
         id="path2116"
         d="m 103.217,42.872 0.1,-0.188 a 9.929,9.929 0 0 1 1.532,-2.311 2.278,2.278 0 0 1 1.6,-0.888 1.444,1.444 0 0 1 0.98,0.328 1,1 0 0 1 0.379,0.779 0.881,0.881 0 0 1 -0.129,0.484 0.406,0.406 0 0 1 -0.36,0.2 0.924,0.924 0 0 1 -0.664,-0.3 0.591,0.591 0 0 0 -0.336,-0.193 q -0.441,0 -1.476,1.365 a 6.267,6.267 0 0 0 -1.247,3.07 1.08,1.08 0 0 1 -0.288,0.689 0.887,0.887 0 0 1 -0.606,0.2 0.6,0.6 0 0 1 -0.577,-0.46 4.748,4.748 0 0 1 -0.17,-1.5 q 0,-0.428 0.024,-1.154 0.023,-0.685 0.134,-1.676 c 0.02,-0.172 0.034,-0.306 0.041,-0.4 a 4.535,4.535 0 0 1 0.121,-0.788 0.837,0.837 0 0 1 0.315,-0.4 0.886,0.886 0 0 1 0.547,-0.187 0.613,0.613 0 0 1 0.482,0.182 0.574,0.574 0 0 1 0.165,0.4 5.163,5.163 0 0 1 -0.264,1.143 4.86,4.86 0 0 0 -0.16,0.714 z" />
      <path
         style="isolation:isolate;fill:#ffffff"
         inkscape:connector-curvature="0"
         id="path2118"
         d="m 108.394,41.887 v 0.006 q 0.189,-1.066 0.188,-1.218 a 1.3,1.3 0 0 1 0.192,-0.727 0.6,0.6 0 0 1 0.532,-0.293 0.946,0.946 0 0 1 0.624,0.187 0.548,0.548 0 0 1 0.223,0.422 4.481,4.481 0 0 1 -0.217,0.967 L 109.9,41.36 a 10.516,10.516 0 0 0 -0.388,1.846 q -0.065,0.714 -0.065,1.154 a 5,5 0 0 0 0.123,0.955 1.078,1.078 0 0 1 0.018,0.176 q 0,0.135 -0.256,0.363 a 0.809,0.809 0 0 1 -0.55,0.229 q -0.775,0 -0.776,-1.172 a 12.877,12.877 0 0 1 0.282,-2.426 q 0.058,-0.316 0.106,-0.598 z m 2.841,-4.816 a 0.928,0.928 0 0 1 -0.376,0.729 1.1,1.1 0 0 1 -0.653,0.314 0.84,0.84 0 0 1 -0.627,-0.293 0.869,0.869 0 0 1 -0.273,-0.586 0.908,0.908 0 0 1 0.27,-0.683 1.081,1.081 0 0 1 0.777,-0.26 0.892,0.892 0 0 1 0.638,0.231 0.733,0.733 0 0 1 0.244,0.548 z" />
      <path
         style="isolation:isolate;fill:#ffffff"
         inkscape:connector-curvature="0"
         id="path2120"
         d="m 113.171,46.1 a 1.951,1.951 0 0 1 -1.477,-0.527 2.031,2.031 0 0 1 -0.505,-1.465 5.657,5.657 0 0 1 1.206,-3.193 q 1.2,-1.717 2.364,-1.717 a 1.149,1.149 0 0 1 0.953,0.554 1.958,1.958 0 0 1 0.395,1.151 1.047,1.047 0 0 1 -0.209,0.759 0.607,0.607 0 0 1 -0.4,0.2 q -0.57,0 -0.665,-0.785 c -0.047,-0.383 -0.142,-0.574 -0.288,-0.574 q -0.459,0 -1.212,1.3 a 4.708,4.708 0 0 0 -0.753,2.279 q 0,0.791 0.86,0.791 a 3.355,3.355 0 0 0 1.912,-0.668 1.4,1.4 0 0 1 0.717,-0.322 0.286,0.286 0 0 1 0.324,0.322 q 0,0.452 -1.038,1.175 a 3.759,3.759 0 0 1 -2.184,0.72 z" />
      <path
         style="isolation:isolate;fill:#ffffff"
         inkscape:connector-curvature="0"
         id="path2122"
         d="m 118.853,43.077 a 10.143,10.143 0 0 1 1.685,-2.482 2.12,2.12 0 0 1 1.433,-0.659 1.11,1.11 0 0 1 0.832,0.343 3.48,3.48 0 0 1 0.485,1.784 8.349,8.349 0 0 0 0.165,1.108 6,6 0 0 0 0.224,0.747 2.258,2.258 0 0 0 0.352,0.612 0.72,0.72 0 0 1 0.177,0.439 0.506,0.506 0 0 1 -0.2,0.387 0.7,0.7 0 0 1 -0.468,0.176 1.149,1.149 0 0 1 -0.929,-0.568 3.078,3.078 0 0 1 -0.483,-1.571 8.967,8.967 0 0 0 -0.2,-1.564 c -0.073,-0.227 -0.193,-0.34 -0.362,-0.34 q -0.342,0 -1.326,1.356 a 20.052,20.052 0 0 0 -1.421,2.171 4.191,4.191 0 0 1 -0.418,0.8 0.453,0.453 0 0 1 -0.365,0.182 0.92,0.92 0 0 1 -0.583,-0.176 0.6,0.6 0 0 1 -0.222,-0.5 8.979,8.979 0 0 1 0.158,-0.99 q 0.6,-3.147 0.982,-6.7 a 2.329,2.329 0 0 1 0.363,-1.18 0.706,0.706 0 0 1 0.491,-0.325 0.726,0.726 0 0 1 0.541,0.24 0.932,0.932 0 0 1 0.229,0.668 8.4,8.4 0 0 1 -0.159,1.512 q -0.157,0.855 -0.594,2.73 -0.269,1.132 -0.387,1.8 z" />
      <path
         style="isolation:isolate;fill:#ffffff"
         inkscape:connector-curvature="0"
         id="path2124"
         d="m 127.436,41.02 a 6.784,6.784 0 0 0 -0.332,1.307 11.91,11.91 0 0 0 -0.28,1.582 1.548,1.548 0 0 0 0.1,0.671 0.356,0.356 0 0 0 0.339,0.19 1.785,1.785 0 0 0 0.632,-0.114 3.236,3.236 0 0 0 0.8,-0.513 0.892,0.892 0 0 1 0.518,-0.252 0.386,0.386 0 0 1 0.273,0.1 0.3,0.3 0 0 1 0.1,0.226 q 0,0.515 -0.835,1.169 a 2.826,2.826 0 0 1 -1.765,0.653 1.509,1.509 0 0 1 -1.185,-0.457 1.9,1.9 0 0 1 -0.409,-1.313 16.525,16.525 0 0 1 0.594,-3.158 c -0.251,0.027 -0.425,0.041 -0.524,0.041 h -0.123 a 1.021,1.021 0 0 1 -0.55,-0.176 0.614,0.614 0 0 1 -0.279,-0.562 c 0,-0.328 0.185,-0.492 0.558,-0.492 l 1.259,-0.047 q 0.248,-0.709 0.524,-1.858 c 0.109,-0.476 0.359,-0.714 0.747,-0.714 a 0.656,0.656 0 0 1 0.506,0.2 0.624,0.624 0 0 1 0.182,0.436 q 0,0.094 -0.5,1.811 1.871,-0.165 2.053,-0.164 a 0.646,0.646 0 0 1 0.412,0.091 0.466,0.466 0 0 1 0.1,0.348 q 0,0.522 -0.888,0.662 z" />
      <rect
         x="0.20999999"
         width="229.842"
         height="104.959"
         id="rect2130"
         y="0"
         style="opacity:0;isolation:isolate;fill:none" />
      <path
         d="m 190.99098,87.582835 q -8.58704,0 -17.17299,0 c -3.05758,0 -3.68775,-0.654781 -3.33091,-3.541274 a 6.95141,6.9941531 0 0 1 0.52496,-1.766818 26.583259,26.746715 0 0 0 2.1107,-11.632185 c -0.21693,-5.007984 -0.0575,-10.030154 -0.051,-15.046868 0,-2.584203 0.31888,-2.902863 2.94261,-2.905046 10.0719,-0.0076 20.1438,0.02837 30.21569,-0.02947 2.04562,-0.012 2.8374,0.654781 2.80703,2.647498 -0.0922,5.97706 -0.23536,11.963941 0.0542,17.930087 0.13992,2.876672 1.1931,5.716239 1.86232,8.566719 0.10846,0.464895 0.36986,0.894868 0.5011,1.356489 0.95447,3.339383 0.0933,4.419772 -3.5077,4.420863 z M 175.53605,54.116976 c -0.27658,0 -0.54883,-0.06111 -0.75925,0.102582 A 0.6865724,0.69079402 0 0 0 174.523,54.942 l 0.026,19.523388 c 0.33624,0.43652 0.92085,0.258638 1.33627,0.258638 9.99489,0.01746 19.99086,0 29.98467,0.0382 1.56078,0.0065 1.74625,-0.783555 1.74083,-1.957796 -0.0239,-5.565639 -0.0748,-11.131277 0.0282,-16.689277 0.0325,-1.799556 -0.7202,-2.136768 -2.42741,-2.124764"
         id="path1053"
         inkscape:connector-curvature="0"
         style="fill:#ffffff;fill-opacity:1;stroke-width:1.08796203" />
    </g>
  </g>
</svg>
