<svg xmlns="http://www.w3.org/2000/svg" viewBox="0 0 500.202 52.473">
  <title>Element 30</title>
  <g id="Ebene_2" data-name="Ebene 2">
    <g id="Ebene_1-2" data-name="Ebene 1">
      <g>
        <path d="M187.929,51.771c-17.333-.566-34.3-1.137-51.273-1.645-13.011-.389-26.023-1.5-38.977-2.838-14.463-1.5-28.983-2.441-43.374-4.731C44.223,40.952,34.071,39.986,24.04,37.8a86.45,86.45,0,0,1-19.1-6.252C2.815,30.533,0,30.059,0,26.661c0-3.2,2.769-4.406,4.644-5.3a78.688,78.688,0,0,1,20.615-6.278c7.111-1.212,14.19-2.631,21.342-3.611,8.548-1.17,17.085-2.447,25.658-3.4,9.994-1.114,20.016-1.983,30.035-2.849,3.776-.326,7.588-.458,11.359-.621,9.96-.429,19.883-1.376,29.855-1.715,13.771-.468,27.557-.774,41.308-1.475,10.7-.546,21.4.092,32.045-.626C236.507-.538,256.159.179,275.8.319c11.267.08,22.563.173,33.825.645,14.128.592,28.268.85,42.383,1.5,12.642.58,25.3,1.34,37.932,2.515,5.4.5,10.9.709,16.343,1.013,8.018.447,15.992,1.665,23.994,2.463s15.97,1.84,23.926,3.071c8.89,1.376,17.726,2.992,26.552,4.7a48.366,48.366,0,0,1,16.21,6c4.412,2.7,4.317,6.155-.275,8.606-6.065,3.237-12.426,5.866-19.372,6.5-2.79.254-5.048,1.935-7.829,2.264-10.917,1.291-21.79,2.966-32.715,4.19-12.7,1.422-25.386,2.983-38.164,3.668-9.815.526-19.613,1.373-29.418,2.084-14.706,1.067-29.449,1.039-44.169,1.585-11.5.427-23.02,1-34.524,1.178-21.755.337-43.519.095-65.28.1-5.782,0-11.558-.437-17.347-.023C201.085,52.855,194.369,50.963,187.929,51.771Z" fill="#fcfcfc"/>
        <path d="M416.09,43.876c-7.821,1.065-15.756-.245-23.633,1.74-3.419.862-7.542,1.644-11.372.406a1.379,1.379,0,0,0-.708-.047c-8.088,1.938-16.471.048-24.474,1.632-4.314.854-8.409.321-12.582.4-4.053.08-7.784,2.564-11.893,1.469a30.779,30.779,0,0,0-11.7-.565c-10.182,1.255-20.448-.429-30.523.756-23.754,2.792-47.539.931-71.29.978-7.2.014-14.584-.991-21.915-1.146-4.436-.094-8.812.4-13.34-.467a32.4,32.4,0,0,0-12.764.351c-3.5.756-7.09-1.067-10.449-1.049-10.519.054-20.918-1.659-31.389-1.6a179.063,179.063,0,0,1-30.566-2.812c-2.213-.369-4.159.91-6.341.612-6.127-.835-12.28-1.484-18.4-2.384-4.962-.73-9.969-1.206-14.9-2.028-8.835-1.473-17.788-2.484-26.311-5.563-3.657-1.321-7.561-1.857-10.809-4.327-3.581-2.724-3.862-4.516-.224-7.168,4.684-3.413,10.269-5.007,15.774-6.3,7.1-1.672,14.392-2.538,21.582-3.853,3.6-.658,7.34-.266,10.792-.928,4.569-.877,9.309-.722,13.679-2s8.658-1.005,13-1.233c6.957-.367,13.939-.889,20.813-1.715,4.2-.505,8.607.319,12.328-.737,6.069-1.722,12.257,1.267,18.146-1.553,1.552-.743,3.922.323,5.923.393,2.484.086,4.969.241,7.305-1.095,1.849-1.058,3.688.577,5.573.4,10.833-1.04,21.76.025,32.525-1.006,5.043-.484,10.107-1.391,15.144-1.06,21.663,1.42,43.34.324,65.007.574,5.92.069,11.863-1.185,17.783-.577,5.4.555,10.709,1.526,16.2,1.47,5.238-.053,10.466-.85,15.79.47,4.956,1.23,10.133-.458,15.4.6,5.638,1.132,11.709.9,17.488.717,6.446-.21,12.747,1,19.173.838a46.1,46.1,0,0,1,9.288,1.048,12.842,12.842,0,0,0,5.933-.067c2.989-.793,5.592,1.261,8.575,1.5,4.749.374,9.483-.1,14.345.886a92.424,92.424,0,0,0,16.342,2.1c7.753.152,15.209,2.182,22.731,3.491,7.825,1.361,15.92,2.772,22.766,7.513,4.224,2.926,4.042,4.888-.619,7.339-9.278,4.88-19.372,6.747-29.555,8.635-10.235,1.9-20.665,2.361-30.825,4.66A23.692,23.692,0,0,1,416.09,43.876Z" fill="#f8f9fe"/>
        <path d="M338.792,45.485c-24.541,2.213-35.274,1.434-45.951,1.981-26.791,1.374-53.589.543-80.375.424-8.407-.037-16.892.06-25.294-.587-10.187-.784-20.407-.57-30.575-1.4-10.942-.891-21.909-1.367-32.849-2.19-10.364-.779-20.653-2.6-31.019-3.312a210.718,210.718,0,0,1-29.657-4.642c-5.659-1.209-11.678-2-16.674-5.6C42.033,27.026,42,25.99,45.991,23c4.846-3.631,10.543-4.234,15.955-5.514,8.725-2.063,17.646-3.373,26.535-4.639,6.647-.947,13.373-1.337,20.067-1.951,10.129-.93,20.256-1.885,30.391-2.735,4.133-.347,8.317-.657,12.418-.689,9.162-.07,18.327-.5,27.435-1.025,37.96-2.207,75.939-1.068,113.906-1.163,13.877-.034,27.77.924,41.652,1.454,8.518.326,17.06.674,25.568,1.334,12.371.961,24.718,2.37,37.077,3.3,11.726.881,23.25,2.875,34.786,4.715,7.926,1.265,16.178,2.327,23.06,7.392,1.178.868,2.548,1.169,2.389,2.991a4.358,4.358,0,0,1-2.976,3.666,76.314,76.314,0,0,1-24.066,6.755c-4.535.447-8.976,2.095-13.572,2.616-8.682.986-17.384,1.811-26.053,2.9-6,.753-12.035.96-18.054,1.416-4.951.375-9.89,1.174-14.841,1.227-4.422.046-8.8.682-13.162.739-6.546.085-13.017,1.517-5.714-.3,13.822-1.559,13.517-2.21,14.634-2.83a4.107,4.107,0,0,1,3.143-.244c4.763,1.334,9.391-.652,14.1-.756,2.575-.057,5.625-.782,8.279-.979,5.872-.437,11.727-1.008,17.557-1.758,4.148-.534,8.326-1.523,12.428-1.661,4.79-.162,9.239-2.132,14.008-1.864a2.919,2.919,0,0,0,2.633-.8c1.294-1.585,2.747-2.137,4.707-1.222a2.493,2.493,0,0,0,2.663-.612,50.067,50.067,0,0,1,6.2-4.2c2.1-1.288,2.224-2.86.135-4.176-5.564-3.507-11-7.555-18.228-6.468-1.208.181-2.342-.44-3.459-.739-7.988-2.139-16.3-1.85-24.354-3.375-5.692-1.078-11.455-1.161-17.173-1.744-6.1-.622-12.289-.726-18.271-1.61-5.423-.8-10.85-.667-16.225-1.144a257.889,257.889,0,0,0-28.61-.877c-2.648.06-5.054-.944-7.7-.987-5.146-.082-10.2.962-15.326.821-1.787-.05-3.59.046-5.24-.867a6.925,6.925,0,0,0-3.509-.434q-31.077-.039-62.156-.01a7.061,7.061,0,0,0-4.139.786c-4.587,1.35-9.153.184-13.727-.121q-3.828-.039-7.657,0c-3.337.628-6.744.65-10.1,1.166a22.279,22.279,0,0,1-7.748-.05,9.889,9.889,0,0,0-6.511.54c-1.732.82-3.7.505-5.581.24a12.531,12.531,0,0,0-5.076-.444,35.436,35.436,0,0,1-13.838.677c-1.526-.069-2.936.653-4.45.663-3.937-.4-7.7,1.854-11.682.767a5.248,5.248,0,0,0-3.093.517c-3.186,1-6.606.175-9.781,1.262-1.938-.283-3.936-1.215-5.7.511a3.767,3.767,0,0,1-2.448.19,12,12,0,0,0-9.181,1.3,84.136,84.136,0,0,0-17.437,2.632,14.143,14.143,0,0,1-5.276.551c-.355-.031-.774-.245-1.053-.109-4.554,2.213-10.011,2.554-13.7,6.555-1.581,1.715-1.392,3.543.948,4.607,3.711,1.689,7.02,4.545,11.562,4.1,2.191-.217,4.006,1.357,6.049,1.977,6.935,2.1,14.238,1.651,21.26,3.347a36.8,36.8,0,0,0,11.55,1.054c1.358-.112,2.526.626,3.793.863,5.226.98,10.593.526,15.833,1.509,5.777,1.084,11.73-.148,17.514,1.348,2.041.527,4.285.172,6.4,0a22.034,22.034,0,0,1,6.728.53,5.763,5.763,0,0,0,2.11.3c9.134-1.47,18.2,2.207,27.348.309,2.065-.428,3.719,1.371,5.858,1.228,3.909-.262,7.825.012,11.755-.549a25.633,25.633,0,0,1,10.3.375c5.849,1.568,11.821.446,17.729.685,8.075.327,16.187.45,24.264.024,6.729-.355,13.5.693,20.211-1.009,3.194-.81,6.64-.419,9.966-.06,4.718.508,9.4,1.211,14.058-.621,2.059-.81,4.226.3,6.349.457,5.641.408,11.143-1.387,16.681-1.1,6.56.344,13.034-1,19.568-.42C350.334,43.678,352.037,43.442,338.792,45.485Z" fill="#f2f6fe"/>
        <path d="M107.353,13.038h2.862c1.451-1.768,3.254-1.071,5.009-.716,3.16-1.728,6.76-.376,10.017-1.431a3.763,3.763,0,0,0,2.862-.715c4.142,1.243,8.063-1.266,12.164-.716,1.612.85,2.949.047,4.293-.715,4.563.373,9.14,1,13.594-.716,1.566.968,3.438-.215,5.009.716,2.522-.159,5.185.62,7.452-1.268a2.352,2.352,0,0,1,1.728-.14c7.024,1.512,13.939.174,20.871-.739a17.84,17.84,0,0,0,7.871,0,72.733,72.733,0,0,0,13.594.716c-.008.214-.017.429-.025.644a2.248,2.248,0,0,1-1.856.928c-6.3-.253-12.565.552-18.858.688-6.752.145-13.533-.312-20.274.591-4.124.552-8.3.553-12.449.879-7.453.585-14.926.927-22.388,1.46-12.213.874-24.354,2.205-36.482,3.9A237.461,237.461,0,0,0,77.1,21.187,20.6,20.6,0,0,0,69.9,24.249c-1.948,1.408-1.868,2.872.035,4.28a10.094,10.094,0,0,0,2.5,1.364,97.83,97.83,0,0,0,21,5.542c8.833,1.166,17.661,2.384,26.5,3.5,6.835.866,13.731.987,20.585,1.685,13.481,1.372,27.01,1.884,40.552,2.4,8.676.329,17.36.089,26.009.59,23.209,1.345,46.427.234,69.637.628,2.025.035,4.051,0,6.078-.012,10.818-.856,21.676-.328,32.487-.849,9.856-.475,19.737-.565,29.569-1.368,10.176-.831,20.334-1.932,30.517-2.658,7.716-.55,15.287-2.223,23-2.648a6.745,6.745,0,0,1,1.184-.244,112.512,112.512,0,0,0,28.075-6.324,14.49,14.49,0,0,0,2.607-1.167c1.056-.618,2.056-1.344,2.04-2.71-.017-1.441-1.2-1.895-2.282-2.443a47.914,47.914,0,0,0-13.207-4.322c-5.482-.981-10.814-2.978-16.51-2.653-12.641-2.25-25.418-3.222-38.182-4.407-4.621-.429-9.26-.175-13.852-.851-4.322-.979-8.762-.594-13.126-.916-10.055-.74-20.15-1.209-30.266-1.031-5.683.1-11.368-.828-17.081-.7a2.676,2.676,0,0,1-2.221-.961c-.014-.222-.027-.443-.04-.665,6.193.52,12.314-1.017,18.492-.694,5.072.264,10.174.451,15.184,1.2,2.386.356,4.418-.916,6.671-.508,7.016,1.272,14.215.246,21.2,1.626,1.871.37,3.48-.431,5.258-.222,6.78.8,13.631.913,20.4,1.637,5.144.551,10.247,1.192,15.432,1.328,2.3.061,4.572,1.2,6.886,1.327a70.64,70.64,0,0,1,7.924,1c4.092.7,8.294.237,12.3,1.468,2.437.749,4.782,2.113,7.548.949.761-.321,1.873.094,2.8.285,5.5,1.13,10.183,4.038,14.734,7.092,2.7,1.813,2.492,3.711-.345,5.426a39.066,39.066,0,0,0-6.7,4.527c-.826.765-2.515,2.461-4.144.173a1.406,1.406,0,0,0-2.41.776,2.151,2.151,0,0,1-2.843,1.777c-3.044-1.389-5.532.564-8.17,1.1-3.27.67-6.908-.735-9.674.844-2.551,1.456-5.183-.11-7.688,1.478-1.4.886-4.039.666-5.877.691-3.742.052-7.321,1.116-11.024,1.059-3.451-.054-6.989,1.243-10.176,1.01-4.973-.363-9.663,2.338-14.635.723-.82-.266-3.1-1.882-3.169,1.127-6.2.16-12.46.495-18.587.378-6.044-.117-11.886.86-17.818,1.165-4.631.239-9.135-1.256-13.986.34-3.455,1.136-7.7.345-11.644-.257a25.827,25.827,0,0,0-10.981.379c-6.018,1.709-12.2.461-18.3.753a244.534,244.534,0,0,1-24.474,0c-6.55-.344-13.13.7-19.7-1.1-4.2-1.149-8.777.629-13.087.354-10.29-.657-20.67.222-30.891-1.786-1.754-.344-3.674.159-5.518.267-1.3.077-2.691.477-3.893.163-4.878-1.273-10.109.274-14.629-.964-5.109-1.4-10.087-.149-15.186-1.169-5.448-1.09-11.545-.468-17.118-1.607-3.831-.783-7.808.339-11.548-1.572-1.758-.9-4.054.423-6.4-.212-2.644-.715-5.334-1.536-8.057-2.067a4.2,4.2,0,0,0-2.064.1,7.274,7.274,0,0,1-4.877-.118c-3.135-1.059-6.4-1.782-9.454-3.024-2.351-.955-4.808.757-7.212-1.042-2.28-1.705-5.358-2.3-7.831-3.8-2.549-1.548-2.22-4.811.526-6.556,1.782-1.133,3.769-1.822,5.1-3.72.553-.787,2.322-1.671,3.287-.028.592,1.007,1.041.4,1.235.028,1.434-2.772,3.7-2.538,6.381-2.4,3.808.2,7.411-1.807,11.171-2.051,3.595-.233,7.175-1.577,10.833-.509C101.4,12.629,104.416,13.062,107.353,13.038Z" fill="#f0f4fe"/>
        <path d="M214.679,7.314c.254-1.767,1.633-1.421,2.764-1.421q32.653-.019,65.308,0c1.131,0,2.51-.346,2.764,1.421-.831,1.744-2.46,1.732-4,1.689-10.216-.283-20.438-.088-30.66-.349-8.374-.213-16.855.234-25.289.376q-3.392.057-6.785-.021C217.2,8.975,215.678,8.774,214.679,7.314Z" fill="#f0f4fe"/>
        <path d="M442.781,30.325c1.646-2.023,2.261-3.967.8-6.254-1.293-2.03-4.219-1.53-5.788-4.205a28.929,28.929,0,0,1,9.158,4.607,2.561,2.561,0,0,1,.421,3.258C446.332,29.387,445.075,30.577,442.781,30.325Z" fill="#f0f4fe"/>
        <path d="M57.547,22.6c-2.049,2.914-2.435,5.565.939,7.955-2.651-.742-5.618-1.233-5.948-3.8C52.173,23.91,55.411,23.731,57.547,22.6Z" fill="#f0f4fe"/>
        <path d="M107.353,13.038l-8.586,1.431C101.19,11.358,104.262,12.137,107.353,13.038Z" fill="#f1f4fe"/>
        <path d="M201.085,6.6a9.344,9.344,0,0,1-7.871,0Z" fill="#f1f4fe"/>
        <path d="M115.224,12.322c-1.7.051-3.447-.276-5.009.716C110.87,11.291,112.006,11.129,115.224,12.322Z" fill="#f1f4fe"/>
        <path d="M144.56,8.745c-1.164,1.844-2.625,1.9-4.293.715Z" fill="#f1f4fe"/>
        <path d="M128.1,10.176c-.723,1.161-1.5,2.109-2.862.715C125.993,9.844,127.115,10.277,128.1,10.176Z" fill="#f1f4fe"/>
        <path d="M163.163,8.745c-1.664-.279-3.5.659-5.009-.716C159.818,8.308,161.656,7.37,163.163,8.745Z" fill="#f1f4fe"/>
        <path d="M442.97,30.2c-.667,1.067-1.27,1.516-2.241,1.287A2.559,2.559,0,0,1,442.97,30.2Z" fill="#f0f4fe"/>
        <path d="M214.679,7.314a17.555,17.555,0,0,0,5.955.728c9.942-.332,19.925-.462,29.832-.4,10.281.062,20.608.028,30.906.389a7.02,7.02,0,0,0,4.143-.714c.7.9,1.7.693,2.627.713,11.336.242,22.681.277,34,.785,8.378.376,16.729,1.345,25.13,1.434.4,0,.8.421,1.2.645a.741.741,0,0,1-.2,1.051c-1.294.789-2.743.564-4.147.638a20.968,20.968,0,0,1-4.217-.268c-1.955-.667-3.978-.386-5.979-.424a63.864,63.864,0,0,1-8.148-.229c-2.042-.728-4.164-.441-6.262-.477-3.994-.132-8,.266-11.984-.272a10.229,10.229,0,0,0-3.169-.434c-29.506-.921-59.025-1.023-88.531-.5-7.442.133-14.969-.1-22.4.917-3.535.536-7.1.153-10.645.307-2.711.069-5.45-.378-8.127.4-5.783.709-11.608.124-17.43.849-9.291,1.157-18.647,1.9-27.972,2.7-12.229,1.047-24.206,3.38-36.256,5.4-3.3.554-6.57,1.259-9.3,3.381-2.567,2-2.536,3.319.058,5.307a13.211,13.211,0,0,0,5.506,2.441c8.018,1.608,15.992,3.471,24.143,4.325,11.674,1.224,23.282,3.041,35,3.9,1.069.079,2.142.039,3.213.035,5.041.3,10.072.809,15.132.725,3.3-.157,6.491,1.089,9.805.715q.936-.015,1.872.013a54.581,54.581,0,0,0,11.86.691,30.064,30.064,0,0,1,5.08.269c3.755.918,7.57.273,11.354.435,1.5.011,3-.049,4.5,0,6.7,1.049,13.462.286,20.18.474,9.224.257,18.527,1.055,27.726.1,4.618-.479,9.188.271,13.781-.448a16.568,16.568,0,0,1,9.439,1.183.829.829,0,0,1,.3,1.138c-20.864,0-41.728.13-62.59-.052q-17.236-.15-34.47-.813c-10.309-.392-20.687-.231-30.925-1.4-15.63-1.784-31.414-1.961-46.947-4.761-6.156-1.11-12.6-.9-18.614-2.451-6.467-1.671-13.288-2.425-19.262-5.909-1.55-.9-3.02-1.871-3.091-3.528-.078-1.817,1.713-2.666,3.169-3.51,5.687-3.293,12.165-4.059,18.394-5.29C97,15.807,105.9,15.176,114.635,13.7c9.112-1.544,18.339-1.68,27.5-2.571,8.356-.812,16.827-.761,25.193-1.712a217.974,217.974,0,0,1,25.226-.944c6.156.016,12.267-1.217,18.425-.483C212.19,8.13,213.623,8.486,214.679,7.314Z" fill="#ebf0fe"/>
        <path d="M348.479,11.607v-.716A365.014,365.014,0,0,1,400.711,15.9c5.255,1.267,10.563,2.3,15.822,3.549a25.4,25.4,0,0,1,6.949,2.683c3.864,2.255,3.975,6.039.271,8.528-3.306,2.221-7.309,2.6-10.988,3.829-4.15,1.389-8.679,1.169-12.769,2.876h-.716c-1.2-.435-2.663.51-3.71-.715.207-2.388,2.138-2.082,3.7-2.4a75.273,75.273,0,0,0,16.971-5.2c1.136-.528,2.605-1.062,2.617-2.626.012-1.634-1.613-1.822-2.671-2.517-4.1-2.69-8.727-3.339-13.455-4.192-8.31-1.5-16.6-3.013-25-3.923-3.777-.41-7.577-.642-11.316-1.369-1.989-.7-4.075-.294-6.1-.532a6.831,6.831,0,0,1-1.1-.2,9.792,9.792,0,0,0-3.812-.407,21.881,21.881,0,0,1-5.11-.313A2.911,2.911,0,0,1,348.479,11.607Z" fill="#ebf0fe"/>
        <path d="M395.7,36.65c1.205.174,2.576-.479,3.577.715-5.02.715-10.021,1.636-15.064,2.1-15.564,1.448-31.111,3.038-46.748,3.719-11.624.506-23.235,1.525-34.875,1.269-6.68-.147-13.284.81-19.94.778V44.52c.8-1.774,2.471-1.736,3.98-1.729,8.558.036,17.108-.076,25.646-.752,13.7-1.085,27.44-1.526,41.151-2.6,12.812-1,25.5-2.791,38.248-4.24C393.237,35.024,394.821,34.893,395.7,36.65Z" fill="#ebf0fe"/>
        <path d="M400,37.365c3.539-2.626,7.919-2.462,11.918-3.535a59.118,59.118,0,0,0,11-3.691c1.465-.722,3.047-1.825,2.738-3.765a5.077,5.077,0,0,0-3.275-3.889c-6.121-2.58-12.586-3.892-19.066-5.118-1.112-.21-2.093-.335-2.6-1.467a99.674,99.674,0,0,1,31.111,7.45A3.2,3.2,0,0,1,432,29.105a27.849,27.849,0,0,1-7.134,3.141C416.663,34.354,408.549,36.957,400,37.365Z" fill="#ebf0fe"/>
        <path d="M395.7,36.65c-4.844-1.308-9.457.643-14.172,1.063-7.635.681-15.229,1.828-22.866,2.473-10.323.872-20.662,1.7-31.011,2.056-4.978.172-9.915.746-14.89.923-9.129.325-18.249.8-27.39.676a10.926,10.926,0,0,0-2.721.679c-23.846-.74-47.71.443-71.551-.715.6-2.357,2.6-1.645,4.065-1.672,6.6-.121,13.2-.036,19.8-.064,3.927-.063,7.861-.116,11.788-.005,12.027.34,24.023-.628,36.034-.893,7.586-.167,15.206-.013,22.768-.587,16.226-1.233,32.525-1.162,48.71-3.319,11.427-1.523,22.958-2.217,34.276-4.635a71.52,71.52,0,0,0,12.318-3.611c1.1-.45,2.426-1,2.549-2.278.15-1.566-1.376-2.053-2.5-2.676-4.669-2.588-9.8-3.555-15-4.313-15.417-2.247-30.823-4.375-46.418-5.276-10.059-.582-20.112-1.437-30.188-1.861a4.006,4.006,0,0,1-2.978-.963c-.447-1.336.631-1.251,1.376-1.476h12.164c1.753,1.482,3.84.288,5.724.715h8.586c1.729,1.676,3.884-.069,5.724.716h4.293c1.716,1.78,3.92-.349,5.724.715h5.724c1.064.882,2.507-.128,3.578.716h.715c1.97,1.835,4.4-.506,6.44.715,6.8.719,13.633,1.217,20.393,2.214,7.989,1.179,15.909,2.82,23.87,4.2,3.222.557,5.527,2.938,8.489,4.083,2.086.806,1.675,3.328-.49,4.76-3.248,2.148-6.964,3.119-10.666,4.055-3.532.893-6.891,2.61-10.7,2.276C396.536,35.275,396.03,35.978,395.7,36.65Z" fill="#e6ecfe"/>
        <path d="M182.482,10.176h10.732c.741.224,1.817.133,1.38,1.467a3.431,3.431,0,0,1-2.619.941c-7.849.164-15.667,1.186-23.531.833-10.985-.6-21.8,1.319-32.676,2.3-6.972.63-13.983,1.161-20.84,2.62C107.514,19.916,99.8,20.329,92.84,23.77c-1.359.672-3.223,1.065-3.152,2.95.064,1.71,1.867,1.949,3.144,2.493,8.278,3.528,17.092,4.831,25.9,6.075,10,1.412,20.067,2.24,30.105,3.326,1.405.152,2.959.271,2.88,2.329-8.734-.442-17.418-1.328-26.079-2.578-8.4-1.212-16.979-1.5-25.219-3.352-6.071-1.365-12.8-1.084-18.062-5.455-2.791-2.316-2.873-3.842.026-6.133C86.709,20.005,92,19.652,97.1,18.788c8.606-1.457,17.207-2.993,25.861-4.1,8.2-1.051,16.457-1.647,24.7-2.35,8.966-.765,17.916-1.92,26.95-1.445C177.25,10.827,179.928,11.186,182.482,10.176Z" fill="#e6ecfe"/>
        <path d="M151.715,40.943c-2.632-2.8-6.272-1.558-9.356-1.985-10.269-1.42-20.719-1.657-30.871-3.832-6.767-1.45-13.837-1.934-20.14-5.321-1.494-.8-3.3-1.13-3.23-3.228.066-1.945,1.771-2.713,3.212-3.434,7.077-3.545,14.937-4.281,22.532-5.65,9.628-1.736,19.419-2.687,29.178-3.539,8.358-.729,16.692-2.094,25.132-1.632-.389,1.994-2.076,1.612-3.376,1.747-12.413,1.287-24.918,1.749-37.254,3.67-8.442,1.315-17.014,2.162-25.158,5.017-1.966.689-4.731.961-4.732,3.605s2.71,2.912,4.715,3.567c11.625,3.8,23.694,5.02,35.759,6.475,16.89,2.037,33.826,2.989,50.807,3.742,7.49.332,15,.041,22.443.652,7.017.576,14.019.448,21.028.644,1.187.033,2.774-.275,3.026,1.648-6.88,0-13.759-.023-20.638.022-1.247.008-2.64-.474-3.69.694h-4.293c-3.738-1.493-7.639-.367-11.448-.716h-5.009c-4-1.218-8.091-.782-12.164-.715h-1.431a20.524,20.524,0,0,0-10.017-.716Z" fill="#e5ebfe"/>
        <path d="M194.645,10.891a1.475,1.475,0,0,1-1.431-.715,2.228,2.228,0,0,1,1.921-.716c30.112-1,60.237-.923,90.352-.528,6.38.084,12.812.274,19.215.534,1.037.042,2.179-.295,2.993.71a1.475,1.475,0,0,1-1.431.715,3.54,3.54,0,0,1-2.94,1.026c-6.663-.13-13.333-.164-19.99-.3-4.924-.1-9.927-.59-14.858-.026-2.315.264-4.472-.461-6.744-.384-9.285.314-18.581.175-27.868.271-11.5.119-22.989.78-34.489.47C197.74,11.9,196,12.256,194.645,10.891Z" fill="#e7edfe"/>
        <path d="M195.361,43.089c3.881-.808,7.78-1.889,11.448.716C203,43.42,199.1,44.6,195.361,43.089Z" fill="#e6ecfe"/>
        <path d="M178.188,42.374c4.118-.831,8.253-1.96,12.164.715A56.438,56.438,0,0,1,178.188,42.374Z" fill="#e6ecfe"/>
        <path d="M166.74,41.658c3.419-.881,6.841-1.806,10.017.716C173.367,42.855,170.114,41.414,166.74,41.658Z" fill="#e6ecfe"/>
        <path d="M182.482,10.176c-2.5,1.578-5.1,2.147-7.871.715C177.117,9.363,179.87,10.551,182.482,10.176Z" fill="#e7edfe"/>
        <path d="M325.583,10.891c-2.005.536-4.141,2.127-5.724-.715C321.758,10.49,323.824,9.46,325.583,10.891Z" fill="#e7edfe"/>
        <path d="M339.893,11.607c-1.946.068-4.16,2.276-5.724-.716C336.068,11.206,338.134,10.175,339.893,11.607Z" fill="#e7edfe"/>
        <path d="M349.91,12.322c-1.857-.641-4.208,2.664-5.724-.715h4.293A1.475,1.475,0,0,1,349.91,12.322Z" fill="#e7edfe"/>
        <path d="M366.367,13.753a11.526,11.526,0,0,0-3.431.517c-1.155.309-2.662.751-3.009-1.232C362.065,13.355,364.353,12.32,366.367,13.753Z" fill="#e7edfe"/>
        <path d="M359.212,13.038c-1.206-.174-2.576.479-3.578-.716C356.84,12.5,358.21,11.845,359.212,13.038Z" fill="#e7edfe"/>
        <path d="M194.645,10.891c37.207-.845,74.413-.662,111.619,0,.814,1.006,1.956.662,2.992.712,9.889.479,19.775,1.407,29.631,1.823,9.934.419,19.7,1.983,29.589,2.6,6.439.4,12.776,2.237,19.212,2.937a43.685,43.685,0,0,1,13.526,4c1.738.793,4.074,1.611,4.114,3.541.045,2.221-2.521,2.9-4.3,3.677-6.359,2.765-13.206,3.789-19.952,4.957-8.61,1.49-17.371,1.989-26.041,3.052-14.356,1.759-28.762,2.133-43.168,2.9-8.041.429-16.076.191-24.085.645-16.014.907-32.026,1.437-48.062,1.35-1.43-.007-2.859,0-4.288,0-.815-1-1.958-.687-3-.707-12.823-.251-25.661-.2-38.466-.814-10.787-.521-21.59-.839-32.357-1.5-11.531-.711-22.964-2.888-34.482-3.973-8.892-.838-17.448-3.011-26.015-5.268a14.551,14.551,0,0,1-3.248-1.452c-1.2-.663-2.192-1.612-1.878-3.135a3.721,3.721,0,0,1,2.446-3.212c5.693-1.912,11.316-3.923,17.422-4.334,4.589-.31,9.012-1.807,13.639-2.3,9.651-1.026,19.293-2.072,28.983-2.629a35.953,35.953,0,0,0,9.693-1.442c8.569.563,17.076-.756,25.624-.855C194.081,11.464,194.362,11.092,194.645,10.891Z" fill="#e0e7fe"/>
        <path d="M253.5,40.943c-10.136,0-17.171.114-24.2-.027q-16.047-.321-32.09-.826c-13.474-.4-26.948-1.5-40.369-2.832-13.048-1.3-26.15-2.537-38.815-6.325-1.708-.511-3.578-.752-4.926-1.944-.854-.754-2.954-.742-2.289-2.628a5.157,5.157,0,0,1,3.162-3.024c7.639-3.286,15.821-3.938,23.857-5.262,12.276-2.023,24.686-2.738,37.078-3.658,10.54-.783,21.1-.934,31.643-1.475,25.362-1.3,50.725-.418,76.085-.526,12.81-.054,25.643.595,38.433,1.437,12.506.822,25.05,1.766,37.425,3.655,9.275,1.415,18.9,1.6,27.676,5.8a4.761,4.761,0,0,1,2.744,3.286c.306,1.283-1.251,2.214-2.385,2.8A39.373,39.373,0,0,1,376.151,32.5a237.9,237.9,0,0,1-28.035,4.22c-13.67,1.111-27.322,2.332-41.031,2.967-3.894.181-7.809.487-11.718.523C280.376,40.346,265.4,41.579,253.5,40.943Z" fill="#d7e1fe"/>
        <path d="M202.156,14.908c11.747-.777,23.527.043,35.241-.611a173.036,173.036,0,0,1,19.223-.449c16.593.924,33.238.28,49.794,1.55,13.053,1,26.108,2.117,39.118,3.845a161.746,161.746,0,0,1,19.684,4.105c1.974.516,3.456,1.655,3.647,3.307.2,1.7-1.868,2.365-3.27,2.817a120.727,120.727,0,0,1-19.585,4.334c-4.907.72-9.912.575-14.75,1.989-3.05.891-6.33.434-9.475.642-5.433.358-10.9.707-16.338,1.045-27.225,1.7-54.472,1.392-81.713,1.244-11.981-.065-23.991-.485-35.926-1.479-15.539-1.294-31.132-2.373-46.387-6.119-2.884-.709-5.817-.886-8.272-2.76-1.888-1.441-1.547-2.867.244-3.927a19.575,19.575,0,0,1,4.852-2.084c10.859-2.893,22-4.031,33.149-5.008C181.64,16.451,191.9,15.715,202.156,14.908Z" fill="#cfdafe"/>
        <path d="M222.55,36.65c-12.838.519-25.642-.661-38.384-1.663-11.422-.9-23.008-1.787-34.06-5.489-1.23-.412-2.317-.938-2.51-2.2a3.063,3.063,0,0,1,2.357-3.208c4.776-1.63,9.521-3.474,14.625-3.888,8.595-.7,17.172-1.544,25.721-2.7,4.339-.587,8.757-.526,13.121-.745,25.433-1.275,50.9-1.024,76.353-.7,5.783.073,11.606.481,17.417.567a2.19,2.19,0,0,1,1.919.714,2.914,2.914,0,0,1-1.815,1.325,6.23,6.23,0,0,1-2.949-.024c-3.072-.638-6.177-.18-9.267-.292-4.889-.008-9.775-.071-14.658.017-5.48.1-10.94-.674-16.38-.625-12.25.109-24.5.5-36.75.8-4.808.12-9.751-.028-14.537,1.027a78.518,78.518,0,0,0-17.192,1.376,15.615,15.615,0,0,1-2.756.2,13.155,13.155,0,0,0-3.579.244,4.344,4.344,0,0,1-1.456.049,3.658,3.658,0,0,0-3.424.425,4.282,4.282,0,0,1-.86.365,9.23,9.23,0,0,0-3.151.892,6.5,6.5,0,0,1-2.856.807,2.334,2.334,0,0,1-.353.026c-2.249.075-5.263-.05-5.584,2.491-.295,2.339,2.839,2.168,4.592,2.931,2.658,1.158,5.533,1.055,8.3,1.592a7.074,7.074,0,0,1,1.07.26c11.992,1.654,24.087,2.108,36.117,3.276,3.2.992,6.52.133,9.751.646a2.9,2.9,0,0,1,1.055.484A.734.734,0,0,1,222.55,36.65Z" fill="#c7d3fe"/>
        <path d="M297.678,18.047a1.474,1.474,0,0,1,1.431-.716c10.7-.258,21.213,1.7,31.812,2.617a77.412,77.412,0,0,1,19.271,4.281c1.258.444,2.879.761,2.957,2.185.1,1.858-1.911,2.365-3.192,2.878a53.424,53.424,0,0,1-13.073,3.042c-13.259,1.725-26.535,3.016-39.911,3.749-22.336,1.223-44.667,1.252-67.012,1.3-2.508.006-4.877-1.152-7.411-.734v-.716c1.362-1.351,3.111-.982,4.733-.988,10.106-.04,20.218-.219,30.318.032,11.534.287,23.026-.615,34.536-.911,6.365-.164,12.757-.891,19.115-1.528,7.021-.14,13.87-1.587,20.741-2.859a24.456,24.456,0,0,0,4.472-1.189c.9-.351,1.835-.814,1.806-1.945a2.116,2.116,0,0,0-1.858-1.916c-4.74-1.045-9.4-2.984-14.157-3.241-6.171-.334-12.276-.978-18.385-1.764a20.5,20.5,0,0,0-3.53-.118C299.271,19.553,297.815,19.879,297.678,18.047Z" fill="#c6d3fe"/>
        <path d="M297.678,18.047c3.934,1.152,8.087.249,12.053,1.388,4.042,1.161,8.342.2,12.379.89a86.2,86.2,0,0,1,15.916,3.955c.96.36,2.365.974,2.033,2.111a4.015,4.015,0,0,1-2.659,3.078c-7.191,2.046-14.672,2.533-21.946,4.139-1.064.235-2.306-.337-3.466-.536a38.546,38.546,0,0,1-9.84.229c-.234-2.432,1.772-1.854,2.876-1.852,6.245.008,12.215-1.69,18.29-2.724a10.02,10.02,0,0,0,2.065-.564c.852-.343,2.061-.509,1.967-1.7-.073-.923-1.145-1.1-1.918-1.369a71.057,71.057,0,0,0-16.085-3.131c-14.07-1.4-28.179-2.009-42.323-2.407-8.436-.238-16.91-.872-25.306-.378-12.8.752-25.672.064-38.425,1.869-2.3.325-4.752.647-7-.559-.519-2.132,1.326-1.312,2.128-1.565,1.063-.334,2.275.67,3.385-.158,5.436-1.423,11.054-.494,16.57-1.316a60.778,60.778,0,0,1,12.1-.075c6.418.34,12.766-1,19.15-.715,11.963.527,23.925.841,35.9.675,3.038,1.043,6.26-.291,9.3.716Z" fill="#c1cffe"/>
        <path d="M301.971,33.072h10.017c-2.929,1.643-6.229.652-9.35,1.242-4.609.872-9.425.655-14.153.905-21.968,1.159-43.955.59-65.935.715-3.525-1.032-7.205.274-10.733-.715-7.832-.505-15.665-.98-23.494-1.526a70.233,70.233,0,0,1-13.712-2.052c1.307-1.836,3.144-1.639,5.03-1.342,2.271.357,4.476,1.273,6.848.833a14.544,14.544,0,0,1,4.591-.019c6.6.754,13.244,1.15,19.871,1.612,20.2,1.408,40.447.584,60.674.767,7.728.07,15.409-.7,23.1-1.29C297.139,32.019,299.735,31.358,301.971,33.072Z" fill="#c2cffe"/>
        <path d="M186.061,32.357c-3.839.113-7.508-2.482-11.45-.716-2.542-.8-5.186-1.174-7.747-1.9-1.675-.472-3.307-1.149-3.325-3.134-.016-1.789,1.426-2.574,3-3.033a3.131,3.131,0,0,0,.92-.523,4.822,4.822,0,0,0,2.862-.715c1.159-.408,2.589.545,3.577-.716,1.084-.784,2.427-.272,3.578-.715H178.9c1.085-.777,2.588.536,3.578-.716h2.862c3.283-.219,6.555-.857,9.86-.288.368,2.486-1.68,1.8-2.769,1.882a112.631,112.631,0,0,0-16.789,2.883c-1.2.274-3.065.294-2.99,1.884.067,1.432,1.906,1.532,3.111,1.9,2.385.725,4.921.761,7.307,1.5C184.373,30.359,185.963,30.442,186.061,32.357Z" fill="#c1cffe"/>
        <path d="M167.456,23.055a6.054,6.054,0,0,1-.6.866c-.98,1-3.311,1.229-2.514,3.245.631,1.6,2.365,2.283,4.118,2.3,2.321.023,4.126,1.384,6.151,2.174a31.053,31.053,0,0,1-10.482-1.925c-1.949-.642-4.3-1.229-4.123-3.473.175-2.187,2.78-2.542,4.629-3.124A9.956,9.956,0,0,1,167.456,23.055Z" fill="#c2cffe"/>
        <path d="M195.361,20.193H185.344A50.48,50.48,0,0,1,201.8,18.762c-1.6,1.718-4.125-.286-5.724,1.429A.463.463,0,0,1,195.361,20.193Z" fill="#c2cffe"/>
        <path d="M211.817,35.219c3.567.409,7.245-.86,10.733.715C218.984,35.525,215.306,36.794,211.817,35.219Z" fill="#c6d3fe"/>
        <path d="M294.816,18.047c-3.087-.406-6.3.853-9.3-.716C288.6,17.737,291.818,16.477,294.816,18.047Z" fill="#c6d3fe"/>
        <path d="M177.473,20.909c-.816,2.122-2.327.769-3.578.715C174.829,20.09,175.972,19.6,177.473,20.909Z" fill="#c2cffe"/>
        <path d="M173.9,21.624c-.725,2.575-2.258,1.11-3.577.716C171.319,21.145,172.69,21.8,173.9,21.624Z" fill="#c2cffe"/>
        <path d="M182.482,20.193c-.816,2.122-2.327.769-3.578.716C179.905,19.715,181.276,20.367,182.482,20.193Z" fill="#c2cffe"/>
        <path d="M195.361,20.193l.715,0c11.975-.151,23.931-1.059,35.872-1.679,15.23-.792,30.37.015,45.54.32a300.034,300.034,0,0,1,42.737,3.617,50.489,50.489,0,0,1,7.833,2.314,2.362,2.362,0,0,1,1.685,2.121c.051,1.171-1.059,1.063-1.74,1.433-3.318,1.806-7.162,1.523-10.618,2.655-5.041,1.651-10.393.587-15.414,2.1-26.134,1.919-52.317,1.706-78.479,1.288a246.5,246.5,0,0,1-33.607-2.584c-1.421-.219-2.537.509-3.824.581-2.92-2.527-6.763-1.768-10.108-2.8-.9-.275-1.9-.218-2.611-.95-.759-.786-2.736-.22-2.51-1.966.231-1.788,1.763-2.516,3.333-2.787,6.522-1.127,12.926-3.043,19.633-2.989C194.317,20.872,194.84,20.428,195.361,20.193Z" fill="#bac9fe"/>
        <path d="M218.972,20.193c17.838-1.547,35.718-.782,53.564-.552a273.272,273.272,0,0,1,33.977,2.6c4.044.561,7.748,2.363,11.843,2.4a2.153,2.153,0,0,1,1.95,1.84c.195.96-.671,1.454-1.316,1.957a5.636,5.636,0,0,1-2.686.762,224.841,224.841,0,0,1-45.1,3.876c-4.431.715-8.888.222-13.331.283-.586-1.893.95-1.743,1.949-1.881a36.153,36.153,0,0,1,5.349-.107c12.021.14,23.938-1.209,35.857-2.5a14.394,14.394,0,0,0,7.044-2.244,34.075,34.075,0,0,0-11.751-3.163c-18.315-2.19-36.727-2.342-55.142-2.271-6.161.023-12.305.547-18.463.692a6.071,6.071,0,0,1-3.471-.589A.791.791,0,0,1,218.972,20.193Z" fill="#b3c2fe"/>
        <path d="M257.61,33.072l13.6,0c-1.057,1.165-2.455.689-3.706.693-11.309.035-22.633.386-33.924-.067-16.175-.649-32.409-.958-48.372-4.192a6,6,0,0,1-2.049-.469c-1.088-.713-3.244-.558-2.961-2.464.234-1.578,1.909-1.561,3.3-2.016,11.558-3.772,23.561-3.649,35.472-4.366v.716c-4.091,1.694-8.462,1.965-12.781,2.4a87.7,87.7,0,0,0-11.233,1.795c-.686.161-1.585.369-1.72,1.1-.2,1.1.929,1.2,1.628,1.521a22.827,22.827,0,0,0,9,2.009c10.549.276,21.012,1.973,31.6,1.683,6.4-.175,12.765,1.068,19.187.7A3.57,3.57,0,0,1,257.61,33.072Z" fill="#b3c3fe"/>
        <path d="M257.61,33.072c-10.934-.24-21.877-.278-32.8-.784-8.5-.393-16.977-1.392-25.468-2.07-2.791-.223-5.1-1.851-7.783-2.451-1.408-.315-1.313-1.588-.083-2.349a8.884,8.884,0,0,1,3.216-1.5c8.082-1.078,16.183-2.02,24.278-3.005,7.908-.239,15.816-.433,23.721-.726,13.691-.508,27.368.387,41.019.951,7.459.309,15.115.993,22.422,3.283a14.532,14.532,0,0,1,4.138,2.389c-2.785,2.264-6.028,2.883-9.194,3.25-6.229.721-12.515.944-18.751,1.62-7.59.824-15.192.641-22.8.684A2.178,2.178,0,0,0,257.61,33.072Z" fill="#abbcfa"/>
        <path d="M250.027,31.468c-9.568.894-19.05-.316-28.543-.673a77.886,77.886,0,0,1-18.575-2.662c-.908-.26-2.092-.161-2.219-1.354-.15-1.4,1.192-1.783,2.137-1.991a84.085,84.085,0,0,1,9.422-1.689c14.2-1.463,28.447-1.551,42.709-1.517,13.656.033,27.257.487,40.739,2.876,1.256.223,2.429.316,2.615,1.84.241,1.962-1.512,2.081-2.612,2.257-5.6.9-11.216,2.093-16.854,2.257C269.227,31.09,259.63,32.351,250.027,31.468Z" fill="#a6b5ef"/>
        <path d="M257.61,30.21H242.584c-5.764-.712-11.6-.219-17.367-1.031a24.8,24.8,0,0,1-5.926-1.071c-.929-.37-1.87-.76-1.791-1.895s1.036-1.547,2.032-1.657c3.54-.391,7.039-1.113,10.625-1.16,1.994-.026,4.031.422,5.988-.341,9.57-.447,19.132-.773,28.7.2,4.232.431,8.53.036,12.749.859.689.134,1.4.2,2.1.316,1.248.2,2.44.595,2.5,2.045.073,1.758-1.408,2.109-2.695,2.2-5.544.405-11.038,1.448-16.638,1.2C261.128,29.8,259.317,29.438,257.61,30.21Z" fill="#9dace2"/>
        <path d="M257.61,30.21c.813-1,1.959-.739,2.988-.7a104.8,104.8,0,0,0,18.737-1.436c.961-.135,2.111-.09,2.268-1.248.2-1.488-1.183-1.626-2.176-1.8-2.785-.486-5.579-.985-8.391-1.231-11.611-1.016-23.256-.71-34.891-.743.287-.2.575-.581.861-.579,9.508.08,19.008-.553,28.531.366,6,.58,12.092.306,18.041,1.63,1.78.4,4.718.3,4.709,2.076-.01,2.089-3.048,1.851-4.762,2.119A139.876,139.876,0,0,1,257.61,30.21Z" fill="#a2b1e9"/>
        <path d="M236.145,23.055c-3.823,1.511-7.936.355-11.867,1.333-2.118.527-4.4.382-6.272,1.784,1.773,2.008,4.284,2.437,6.658,2.533,5.217.211,10.392,1.258,15.642.8a2.316,2.316,0,0,1,2.278.7A157.975,157.975,0,0,1,217.406,28.8a15.081,15.081,0,0,1-6.526-2.5C219.481,22.922,227.816,23.009,236.145,23.055Z" fill="#a2b1e9"/>
        <path d="M225.173,26.234c2.17-1.772,4.885-1.368,7.144-1.55,9.773-.79,19.568-1.706,29.4-.312,3.368.477,6.857.008,10.234.83.839.2,1.776.332,1.793,1.358.022,1.262-1.031,1.414-2.014,1.489a244.175,244.175,0,0,1-42.229-.066A7.117,7.117,0,0,1,225.173,26.234Z" fill="#97a5d8"/>
        <path d="M235.476,26.352a96.483,96.483,0,0,1,29.25-.067A63.045,63.045,0,0,1,235.476,26.352Z" fill="#8f9ace"/>
      </g>
    </g>
  </g>
</svg>
