<?xml version="1.0" encoding="UTF-8" standalone="no"?>
<svg
   xmlns:dc="http://purl.org/dc/elements/1.1/"
   xmlns:cc="http://creativecommons.org/ns#"
   xmlns:rdf="http://www.w3.org/1999/02/22-rdf-syntax-ns#"
   xmlns:svg="http://www.w3.org/2000/svg"
   xmlns="http://www.w3.org/2000/svg"
   xmlns:sodipodi="http://sodipodi.sourceforge.net/DTD/sodipodi-0.dtd"
   xmlns:inkscape="http://www.inkscape.org/namespaces/inkscape"
   viewBox="0 0 500.202 52.473"
   version="1.1"
   id="svg6205"
   sodipodi:docname="A_schweben.svg"
   inkscape:version="0.92.4 (5da689c313, 2019-01-14)">
  <metadata
     id="metadata6211">
    <rdf:RDF>
      <cc:Work
         rdf:about="">
        <dc:format>image/svg+xml</dc:format>
        <dc:type
           rdf:resource="http://purl.org/dc/dcmitype/StillImage" />
      </cc:Work>
    </rdf:RDF>
  </metadata>
  <defs
     id="defs6209" />
  <sodipodi:namedview
     pagecolor="#ffffff"
     bordercolor="#666666"
     borderopacity="1"
     objecttolerance="10"
     gridtolerance="10"
     guidetolerance="10"
     inkscape:pageopacity="0"
     inkscape:pageshadow="2"
     inkscape:window-width="1476"
     inkscape:window-height="632"
     id="namedview6207"
     showgrid="false"
     inkscape:zoom="1"
     inkscape:cx="151.6695"
     inkscape:cy="-160.43017"
     inkscape:window-x="260"
     inkscape:window-y="295"
     inkscape:window-maximized="0"
     inkscape:current-layer="svg6205" />
  <title
     id="title6087">Element 30</title>
  <g
     transform="matrix(0.97335914,0,0,0.93589362,0.50170836,2.1417798)"
     id="g1221"
     style="opacity:0.8">
    <path
       d="M 192.737,51.3 C 174.962,50.739 157.557,50.174 140.152,49.671 126.809,49.284 113.464,48.185 100.178,46.858 85.345,45.378 70.454,44.443 55.7,42.173 45.36,40.583 34.947,39.625 24.66,37.46 A 90.756,90.756 0 0 1 5.071,31.26 C 2.887,30.258 0,29.789 0,26.42 0,23.247 2.841,22.055 4.763,21.175 a 82.721,82.721 0 0 1 21.142,-6.223 c 7.294,-1.2 14.553,-2.607 21.888,-3.578 C 56.56,10.214 65.317,8.949 74.108,8 84.357,6.895 94.636,6.034 104.908,5.177 108.78,4.854 112.69,4.721 116.557,4.561 126.771,4.135 136.949,3.197 147.175,2.861 161.3,2.4 175.442,2.1 189.546,1.4 c 10.972,-0.54 21.942,0.092 32.863,-0.621 20.149,-1.314 40.3,-0.6 60.444,-0.464 11.554,0.08 23.14,0.172 34.691,0.64 14.489,0.586 28.991,0.842 43.466,1.484 12.967,0.575 25.951,1.328 38.9,2.493 5.536,0.5 11.175,0.7 16.761,1 8.223,0.444 16.4,1.65 24.608,2.441 8.208,0.791 16.378,1.823 24.539,3.044 9.116,1.362 18.179,2.965 27.23,4.654 a 50.7,50.7 0 0 1 16.625,5.943 c 4.525,2.672 4.428,6.1 -0.282,8.53 -6.219,3.207 -12.744,5.812 -19.867,6.44 -2.862,0.251 -5.177,1.918 -8.03,2.244 -11.2,1.279 -22.348,2.939 -33.551,4.151 -13.025,1.409 -26.036,2.956 -39.141,3.635 -10.067,0.521 -20.115,1.361 -30.171,2.066 -15.082,1.057 -30.2,1.029 -45.3,1.571 -11.8,0.423 -23.609,0.991 -35.407,1.167 -22.312,0.335 -44.633,0.094 -66.95,0.1 -5.93,0 -11.855,-0.432 -17.791,-0.022 -6.958,0.481 -13.844,-1.4 -20.45,-0.594"
       id="path1109"
       inkscape:connector-curvature="0"
       style="fill:#fcfcfc" />
    <path
       d="m 426.736,43.48 c -8.021,1.056 -16.159,-0.243 -24.238,1.725 -3.506,0.853 -7.735,1.629 -11.663,0.4 a 1.459,1.459 0 0 0 -0.726,-0.048 c -8.295,1.92 -16.892,0.048 -25.1,1.618 -4.424,0.845 -8.624,0.317 -12.9,0.4 -4.157,0.079 -7.983,2.541 -12.2,1.456 a 32.6,32.6 0 0 0 -12,-0.56 c -10.443,1.243 -20.972,-0.425 -31.305,0.749 -24.361,2.767 -48.755,0.923 -73.114,0.969 -7.386,0.014 -14.957,-0.982 -22.475,-1.136 -4.55,-0.093 -9.038,0.393 -13.682,-0.462 a 34.333,34.333 0 0 0 -13.089,0.347 c -3.595,0.75 -7.272,-1.057 -10.718,-1.039 -10.788,0.053 -21.453,-1.643 -32.192,-1.583 A 190.009,190.009 0 0 1 99.986,43.529 c -2.269,-0.365 -4.265,0.9 -6.5,0.607 C 87.2,43.31 80.884,42.666 74.61,41.776 69.522,41.052 64.387,40.576 59.332,39.765 50.271,38.305 41.089,37.303 32.348,34.252 c -3.75,-1.308 -7.754,-1.841 -11.086,-4.289 -3.673,-2.7 -3.961,-4.475 -0.23,-7.1 4.8,-3.382 10.533,-4.961 16.179,-6.246 C 44.5,14.958 51.97,14.1 59.345,12.8 c 3.687,-0.651 7.527,-0.263 11.068,-0.919 4.685,-0.869 9.547,-0.715 14.029,-1.98 4.482,-1.265 8.879,-1.001 13.334,-1.224 7.134,-0.363 14.3,-0.881 21.345,-1.7 4.309,-0.5 8.826,0.316 12.643,-0.73 6.224,-1.707 12.571,1.256 18.611,-1.539 1.59,-0.736 4.023,0.321 6.074,0.389 2.548,0.085 5.1,0.24 7.491,-1.085 1.9,-1.048 3.783,0.572 5.716,0.393 11.111,-1.03 22.318,0.025 33.358,-1 5.172,-0.479 10.365,-1.378 15.531,-1.05 22.218,1.406 44.449,0.32 66.671,0.568 6.071,0.068 12.166,-1.174 18.238,-0.572 5.533,0.55 10.982,1.513 16.617,1.458 5.371,-0.053 10.733,-0.843 16.192,0.466 5.084,1.218 10.394,-0.455 15.8,0.593 5.782,1.122 12.009,0.9 17.935,0.711 6.611,-0.208 13.074,0.992 19.664,0.83 a 49.025,49.025 0 0 1 9.526,1.039 13.609,13.609 0 0 0 6.084,-0.067 c 3.066,-0.785 5.737,1.25 8.8,1.482 4.871,0.372 9.726,-0.1 14.712,0.878 a 97.749,97.749 0 0 0 16.76,2.082 c 7.951,0.151 15.6,2.163 23.313,3.46 8.025,1.349 16.327,2.747 23.348,7.446 4.333,2.9 4.146,4.843 -0.635,7.272 -9.514,4.835 -19.867,6.685 -30.31,8.557 -10.5,1.88 -21.195,2.34 -31.615,4.618 a 25.053,25.053 0 0 1 -2.9,0.3"
       id="path1111"
       inkscape:connector-curvature="0"
       style="fill:#f8f9fe" />
    <path
       d="m 347.46,45.074 c -25.169,2.194 -36.177,1.421 -47.127,1.963 -27.476,1.362 -54.96,0.538 -82.432,0.42 -8.622,-0.036 -17.323,0.06 -25.941,-0.581 -10.447,-0.777 -20.928,-0.565 -31.357,-1.385 -11.222,-0.883 -22.469,-1.354 -33.688,-2.17 -10.63,-0.772 -21.182,-2.58 -31.814,-3.281 a 223.137,223.137 0 0 1 -30.415,-4.6 c -5.805,-1.2 -11.978,-1.984 -17.1,-5.545 -4.477,-3.113 -4.513,-4.139 -0.418,-7.1 4.97,-3.6 10.813,-4.195 16.364,-5.464 8.948,-2.045 18.1,-3.342 27.213,-4.6 6.817,-0.938 13.716,-1.325 20.58,-1.934 10.389,-0.922 20.775,-1.867 31.17,-2.71 4.237,-0.343 8.529,-0.652 12.736,-0.682 9.4,-0.07 18.8,-0.492 28.137,-1.017 C 222.3,4.2 261.248,5.329 300.186,5.236 314.419,5.202 328.667,6.151 342.905,6.676 351.64,7 360.4,7.344 369.126,8 c 12.688,0.952 25.351,2.349 38.026,3.267 12.026,0.874 23.845,2.85 35.677,4.673 8.128,1.254 16.591,2.307 23.649,7.326 1.209,0.86 2.614,1.158 2.451,2.964 -0.171,1.9 -1.44,2.93 -3.052,3.634 a 80.427,80.427 0 0 1 -24.683,6.692 c -4.651,0.444 -9.205,2.077 -13.918,2.593 -8.9,0.977 -17.83,1.8 -26.72,2.874 -6.157,0.745 -12.343,0.95 -18.516,1.4 -5.078,0.371 -10.144,1.164 -15.221,1.216 -4.535,0.046 -9.027,0.676 -13.5,0.733 -6.714,0.084 -13.35,1.5 -5.86,-0.3 14.176,-1.545 13.862,-2.19 15.009,-2.8 a 4.339,4.339 0 0 1 3.222,-0.242 c 4.885,1.322 9.632,-0.646 14.465,-0.749 2.641,-0.056 5.769,-0.775 8.49,-0.971 6.023,-0.433 12.028,-1 18.007,-1.742 4.254,-0.529 8.539,-1.508 12.746,-1.646 4.913,-0.159 9.475,-2.112 14.366,-1.847 a 3.061,3.061 0 0 0 2.7,-0.793 c 1.327,-1.57 2.816,-2.117 4.827,-1.21 a 2.621,2.621 0 0 0 2.73,-0.607 51.553,51.553 0 0 1 6.362,-4.164 c 2.157,-1.276 2.281,-2.834 0.138,-4.139 -5.707,-3.474 -11.28,-7.487 -18.694,-6.409 -1.239,0.18 -2.4,-0.436 -3.548,-0.733 -8.192,-2.118 -16.717,-1.832 -24.977,-3.344 -5.837,-1.068 -11.748,-1.151 -17.613,-1.728 -6.259,-0.616 -12.6,-0.72 -18.738,-1.6 -5.561,-0.793 -11.127,-0.66 -16.64,-1.133 A 273.523,273.523 0 0 0 320.97,8.345 c -2.716,0.06 -5.184,-0.935 -7.9,-0.978 -5.277,-0.081 -10.461,0.954 -15.717,0.814 -1.833,-0.049 -3.683,0.047 -5.375,-0.859 a 7.338,7.338 0 0 0 -3.6,-0.43 Q 256.506,6.853 224.632,6.882 a 7.45,7.45 0 0 0 -4.245,0.779 C 215.682,9 211,7.845 206.308,7.542 q -3.925,-0.036 -7.852,0 c -3.423,0.623 -6.917,0.645 -10.357,1.156 a 23.636,23.636 0 0 1 -7.947,-0.049 10.469,10.469 0 0 0 -6.678,0.535 c -1.776,0.813 -3.8,0.5 -5.723,0.238 a 13.276,13.276 0 0 0 -5.206,-0.44 37.616,37.616 0 0 1 -14.193,0.671 c -1.564,-0.069 -3.011,0.647 -4.564,0.657 -4.036,-0.4 -7.9,1.836 -11.98,0.76 a 5.541,5.541 0 0 0 -3.172,0.513 c -3.268,0.991 -6.775,0.173 -10.031,1.249 -1.989,-0.28 -4.037,-1.2 -5.85,0.508 a 3.994,3.994 0 0 1 -2.51,0.187 12.7,12.7 0 0 0 -9.417,1.283 89.067,89.067 0 0 0 -17.883,2.609 14.986,14.986 0 0 1 -5.411,0.546 c -0.364,-0.03 -0.794,-0.242 -1.08,-0.108 -4.671,2.193 -10.267,2.53 -14.051,6.5 -1.622,1.7 -1.428,3.511 0.971,4.566 3.807,1.673 7.2,4.5 11.859,4.058 2.247,-0.214 4.109,1.345 6.2,1.96 7.112,2.085 14.6,1.635 21.8,3.317 a 39.018,39.018 0 0 0 11.853,1.042 c 1.392,-0.112 2.591,0.62 3.889,0.856 5.36,0.97 10.865,0.521 16.239,1.495 5.924,1.073 12.031,-0.147 17.962,1.335 2.093,0.523 4.4,0.171 6.568,0 a 23.359,23.359 0 0 1 6.9,0.525 6.024,6.024 0 0 0 2.164,0.3 c 9.368,-1.455 18.671,2.188 28.047,0.307 2.118,-0.424 3.815,1.359 6.009,1.217 4.009,-0.26 8.025,0.012 12.056,-0.543 a 27.146,27.146 0 0 1 10.558,0.371 c 6,1.554 12.125,0.442 18.184,0.679 8.281,0.323 16.6,0.446 24.884,0.023 6.9,-0.352 13.844,0.687 20.729,-1 3.275,-0.8 6.809,-0.415 10.221,-0.059 4.838,0.5 9.642,1.2 14.417,-0.616 2.111,-0.8 4.334,0.3 6.512,0.454 5.785,0.4 11.427,-1.375 17.107,-1.087 6.728,0.34 13.367,-0.988 20.07,-0.416 1.7,0.145 3.442,-0.089 -10.142,1.936"
       id="path1113"
       inkscape:connector-curvature="0"
       style="fill:#f2f6fe" />
    <path
       d="m 110.12,12.971 h 2.915 c 1.488,-1.752 3.337,-1.062 5.137,-0.71 3.24,-1.713 6.933,-0.372 10.273,-1.418 a 3.96,3.96 0 0 0 2.935,-0.708 c 4.248,1.232 8.269,-1.255 12.475,-0.71 1.654,0.842 3.025,0.047 4.4,-0.708 4.68,0.368 9.375,0.986 13.943,-0.71 1.605,0.959 3.526,-0.213 5.137,0.71 2.587,-0.158 5.317,0.614 7.642,-1.257 a 2.49,2.49 0 0 1 1.772,-0.139 c 7.2,1.5 14.3,0.172 21.406,-0.732 a 18.9,18.9 0 0 0 8.071,0 75.851,75.851 0 0 0 13.687,0.712 l 0.309,0.533 a 2.357,2.357 0 0 1 -1.982,1.022 c -6.463,-0.251 -12.888,0.548 -19.341,0.682 -6.924,0.144 -13.88,-0.309 -20.794,0.585 -4.228,0.548 -8.511,0.549 -12.766,0.871 -7.644,0.581 -15.308,0.919 -22.962,1.448 -12.525,0.866 -24.976,2.185 -37.415,3.868 a 250.887,250.887 0 0 0 -25.9,4.737 21.488,21.488 0 0 0 -7.376,3.035 c -2,1.394 -1.915,2.845 0.035,4.24 a 10.523,10.523 0 0 0 2.57,1.351 103.1,103.1 0 0 0 21.537,5.493 c 9.06,1.155 18.114,2.362 27.179,3.472 7.01,0.857 14.083,0.978 21.112,1.669 13.826,1.36 27.7,1.867 41.591,2.376 8.9,0.326 17.8,0.087 26.673,0.584 23.8,1.333 47.616,0.232 71.419,0.623 2.077,0.034 4.154,0 6.233,-0.012 11.095,-0.849 22.231,-0.326 33.319,-0.842 10.108,-0.471 20.242,-0.56 30.325,-1.356 10.436,-0.822 20.855,-1.914 31.3,-2.633 7.914,-0.546 15.678,-2.2 23.587,-2.625 a 7.22,7.22 0 0 1 1.215,-0.242 118.769,118.769 0 0 0 28.792,-6.266 15.19,15.19 0 0 0 2.673,-1.157 c 1.085,-0.613 2.11,-1.332 2.094,-2.685 -0.018,-1.428 -1.229,-1.878 -2.341,-2.421 a 50.327,50.327 0 0 0 -13.545,-4.283 c -5.622,-0.973 -11.09,-2.951 -16.933,-2.629 -12.963,-2.23 -26.067,-3.194 -39.158,-4.368 -4.739,-0.425 -9.5,-0.173 -14.206,-0.843 -4.433,-0.97 -8.986,-0.588 -13.463,-0.908 -10.313,-0.733 -20.666,-1.2 -31.039,-1.022 -5.83,0.1 -11.66,-0.82 -17.52,-0.689 a 2.756,2.756 0 0 1 -2.393,-1.1 l 0.309,-0.491 c 6.272,0.46 12.473,-1.021 18.732,-0.706 5.2,0.263 10.433,0.448 15.571,1.19 2.448,0.353 4.532,-0.908 6.842,-0.5 7.195,1.261 14.578,0.244 21.74,1.612 1.92,0.366 3.57,-0.427 5.393,-0.22 6.954,0.79 13.98,0.9 20.917,1.623 5.275,0.545 10.509,1.18 15.827,1.315 2.363,0.06 4.689,1.19 7.062,1.315 a 74.454,74.454 0 0 1 8.127,0.995 c 4.2,0.69 8.506,0.234 12.617,1.454 2.5,0.741 4.906,2.093 7.741,0.94 0.782,-0.317 1.922,0.093 2.874,0.282 5.639,1.121 10.443,4 15.11,7.028 2.771,1.8 2.556,3.679 -0.353,5.377 a 40.246,40.246 0 0 0 -6.87,4.487 c -0.847,0.758 -2.579,2.439 -4.249,0.171 a 1.458,1.458 0 0 0 -2.473,0.769 2.214,2.214 0 0 1 -2.916,1.761 c -3.122,-1.376 -5.672,0.56 -8.378,1.095 -3.354,0.664 -7.084,-0.73 -9.922,0.835 -2.616,1.444 -5.315,-0.108 -7.884,1.465 -1.434,0.878 -4.143,0.66 -6.027,0.686 -3.839,0.05 -7.509,1.1 -11.307,1.048 -3.539,-0.052 -7.168,1.232 -10.436,1 -5.1,-0.36 -9.91,2.317 -15.009,0.718 -0.842,-0.265 -3.178,-1.866 -3.251,1.116 -6.36,0.158 -12.779,0.491 -19.062,0.374 -6.2,-0.115 -12.19,0.853 -18.274,1.155 -4.75,0.236 -9.368,-1.246 -14.344,0.336 -3.543,1.127 -7.9,0.343 -11.942,-0.254 a 27.385,27.385 0 0 0 -11.262,0.376 c -6.172,1.693 -12.513,0.456 -18.772,0.745 -8.351,0.387 -16.753,0.423 -25.1,0 -6.718,-0.341 -13.465,0.691 -20.2,-1.089 -4.308,-1.139 -9,0.623 -13.42,0.351 -10.555,-0.652 -21.2,0.22 -31.683,-1.77 -1.8,-0.342 -3.768,0.158 -5.659,0.265 -1.335,0.076 -2.76,0.472 -3.992,0.161 -5,-1.261 -10.368,0.271 -15,-0.955 -5.241,-1.387 -10.346,-0.147 -15.576,-1.159 -5.587,-1.08 -11.84,-0.463 -17.555,-1.592 -3.93,-0.776 -8.008,0.335 -11.844,-1.558 -1.8,-0.89 -4.159,0.419 -6.564,-0.21 -2.712,-0.709 -5.471,-1.523 -8.264,-2.049 a 4.454,4.454 0 0 0 -2.117,0.1 7.7,7.7 0 0 1 -5,-0.117 c -3.216,-1.05 -6.563,-1.766 -9.7,-3 -2.411,-0.947 -4.931,0.749 -7.4,-1.033 -2.338,-1.688 -5.5,-2.278 -8.031,-3.766 -2.615,-1.533 -2.277,-4.767 0.539,-6.5 1.827,-1.122 3.866,-1.8 5.235,-3.686 0.567,-0.78 2.381,-1.656 3.371,-0.027 0.607,1 1.068,0.4 1.266,0.027 1.471,-2.747 3.8,-2.515 6.545,-2.376 3.905,0.2 7.6,-1.79 11.456,-2.033 3.688,-0.23 7.359,-1.562 11.111,-0.5 2.7,-1.824 5.793,-1.395 8.806,-1.418"
       id="path1115"
       inkscape:connector-curvature="0"
       style="fill:#f0f4fe" />
    <path
       d="m 220.172,7.248 c 0.259,-1.751 1.674,-1.408 2.834,-1.408 q 33.489,-0.019 66.98,0 c 1.159,0 2.573,-0.343 2.833,1.408 -0.852,1.728 -2.522,1.716 -4.1,1.674 C 278.241,8.641 267.758,8.835 257.274,8.576 248.685,8.365 239.988,8.808 231.338,8.948 q -3.478,0.057 -6.958,-0.02 c -1.629,-0.034 -3.186,-0.234 -4.209,-1.68"
       id="path1117"
       inkscape:connector-curvature="0"
       style="fill:#f0f4fe" />
    <path
       d="m 454.11,30.051 c 1.688,-2 2.318,-3.931 0.824,-6.2 -1.327,-2.011 -4.328,-1.517 -5.937,-4.167 a 30.079,30.079 0 0 1 9.392,4.565 2.479,2.479 0 0 1 0.433,3.229 c -1.07,1.64 -2.359,2.82 -4.712,2.57"
       id="path1119"
       inkscape:connector-curvature="0"
       style="fill:#f0f4fe" />
    <path
       d="m 59.018,22.4 c -2.1,2.887 -2.5,5.514 0.964,7.883 -2.719,-0.736 -5.763,-1.223 -6.1,-3.766 -0.374,-2.822 2.947,-3 5.137,-4.117"
       id="path1121"
       inkscape:connector-curvature="0"
       style="fill:#f0f4fe" />
    <path
       d="m 110.1,12.92 -8.806,1.418 c 2.485,-3.083 5.635,-2.311 8.806,-1.418"
       id="path1123"
       inkscape:connector-curvature="0"
       style="fill:#f1f4fe" />
    <path
       d="m 206.229,6.587 a 9.882,9.882 0 0 1 -8.072,0 z"
       id="path1125"
       inkscape:connector-curvature="0"
       style="fill:#f1f4fe" />
    <path
       d="m 118.172,12.211 c -1.74,0.05 -3.535,-0.273 -5.137,0.71 0.671,-1.732 1.836,-1.893 5.137,-0.71"
       id="path1127"
       inkscape:connector-curvature="0"
       style="fill:#f1f4fe" />
    <path
       d="m 148.258,8.666 c -1.193,1.828 -2.692,1.882 -4.4,0.709 l 4.4,-0.709"
       id="path1129"
       inkscape:connector-curvature="0"
       style="fill:#f1f4fe" />
    <path
       d="m 131.38,10.084 c -0.741,1.15 -1.538,2.091 -2.935,0.709 0.771,-1.038 1.922,-0.609 2.935,-0.709"
       id="path1131"
       inkscape:connector-curvature="0"
       style="fill:#f1f4fe" />
    <path
       d="m 167.338,8.666 c -1.706,-0.276 -3.591,0.653 -5.137,-0.71 1.706,0.277 3.591,-0.653 5.137,0.71"
       id="path1133"
       inkscape:connector-curvature="0"
       style="fill:#f1f4fe" />
    <path
       d="m 454.3,29.93 c -0.684,1.056 -1.3,1.5 -2.3,1.274 a 2.646,2.646 0 0 1 2.3,-1.274"
       id="path1135"
       inkscape:connector-curvature="0"
       style="fill:#f0f4fe" />
    <path
       d="m 220.172,7.248 a 18.642,18.642 0 0 0 6.107,0.722 c 10.2,-0.33 20.434,-0.458 30.6,-0.4 10.544,0.061 21.134,0.027 31.7,0.385 a 7.409,7.409 0 0 0 4.248,-0.707 c 0.715,0.889 1.741,0.686 2.695,0.707 11.626,0.24 23.261,0.274 34.874,0.777 8.592,0.373 17.157,1.334 25.773,1.422 0.414,0 0.823,0.417 1.234,0.639 a 0.718,0.718 0 0 1 -0.208,1.041 c -1.327,0.782 -2.813,0.559 -4.253,0.632 a 22.2,22.2 0 0 1 -4.325,-0.265 c -2,-0.661 -4.08,-0.382 -6.133,-0.42 a 68.144,68.144 0 0 1 -8.356,-0.226 c -2.094,-0.722 -4.27,-0.438 -6.421,-0.473 -4.1,-0.131 -8.2,0.262 -12.291,-0.271 a 10.808,10.808 0 0 0 -3.251,-0.429 c -30.261,-0.913 -60.536,-1.015 -90.8,-0.492 -7.632,0.132 -15.352,-0.1 -22.975,0.909 -3.626,0.53 -7.28,0.152 -10.917,0.3 -2.781,0.069 -5.59,-0.374 -8.335,0.4 -5.931,0.7 -11.9,0.124 -17.877,0.842 -9.527,1.147 -19.123,1.881 -28.687,2.671 -12.542,1.038 -24.825,3.35 -37.184,5.352 -3.388,0.549 -6.737,1.247 -9.535,3.35 -2.632,1.98 -2.6,3.29 0.06,5.259 a 13.778,13.778 0 0 0 5.647,2.419 c 8.222,1.594 16.4,3.439 24.76,4.286 11.974,1.213 23.879,3.013 35.893,3.868 1.1,0.078 2.2,0.039 3.295,0.034 5.17,0.3 10.33,0.8 15.519,0.719 3.382,-0.155 6.657,1.08 10.056,0.708 0.641,-0.008 1.281,-0.005 1.921,0.013 a 57.839,57.839 0 0 0 12.163,0.685 31.934,31.934 0 0 1 5.209,0.267 c 3.851,0.911 7.764,0.27 11.645,0.431 1.538,0.01 3.076,-0.049 4.614,0 6.868,1.04 13.807,0.284 20.7,0.469 9.46,0.255 19,1.045 28.436,0.1 4.736,-0.474 9.423,0.269 14.134,-0.443 a 17.535,17.535 0 0 1 9.68,1.172 0.806,0.806 0 0 1 0.305,1.127 c -21.4,0 -42.8,0.13 -64.191,-0.05 q -17.678,-0.15 -35.352,-0.806 c -10.573,-0.389 -21.216,-0.229 -31.716,-1.387 -16.031,-1.768 -32.218,-1.944 -48.148,-4.718 -6.315,-1.1 -12.924,-0.89 -19.091,-2.429 -6.632,-1.656 -13.627,-2.4 -19.755,-5.857 -1.589,-0.895 -3.1,-1.853 -3.17,-3.495 -0.08,-1.8 1.757,-2.643 3.251,-3.478 5.832,-3.263 12.476,-4.023 18.864,-5.243 8.907,-1.7 18.029,-2.324 26.991,-3.792 9.345,-1.53 18.809,-1.665 28.2,-2.547 8.569,-0.806 17.257,-0.755 25.837,-1.7 a 230.884,230.884 0 0 1 25.871,-0.935 c 6.314,0.015 12.581,-1.206 18.9,-0.479 1.245,0.144 2.715,0.5 3.8,-0.665"
       id="path1137"
       inkscape:connector-curvature="0"
       style="fill:#ebf0fe" />
    <path
       d="m 357.338,11.375 v -0.7 a 387.114,387.114 0 0 1 53.568,4.964 c 5.389,1.256 10.833,2.276 16.226,3.516 a 26.593,26.593 0 0 1 7.127,2.66 c 3.963,2.234 4.077,5.984 0.279,8.45 -3.391,2.2 -7.5,2.575 -11.27,3.8 -4.256,1.376 -8.9,1.157 -13.1,2.85 h -0.733 c -1.229,-0.432 -2.732,0.5 -3.807,-0.709 0.214,-2.367 2.194,-2.063 3.8,-2.377 a 79.189,79.189 0 0 0 17.4,-5.151 c 1.165,-0.522 2.671,-1.052 2.684,-2.6 0.014,-1.619 -1.653,-1.806 -2.739,-2.494 -4.2,-2.666 -8.95,-3.308 -13.8,-4.155 -8.523,-1.487 -17.027,-2.985 -25.64,-3.888 -3.873,-0.406 -7.771,-0.635 -11.606,-1.356 -2.04,-0.689 -4.178,-0.292 -6.259,-0.527 a 7.188,7.188 0 0 1 -1.128,-0.193 10.383,10.383 0 0 0 -3.909,-0.4 23.221,23.221 0 0 1 -5.24,-0.309 2.98,2.98 0 0 1 -1.862,-1.361"
       id="path1139"
       inkscape:connector-curvature="0"
       style="fill:#ebf0fe" />
    <path
       d="m 405.557,36.319 c 1.237,0.172 2.642,-0.474 3.669,0.709 -5.148,0.708 -10.278,1.621 -15.45,2.085 -15.962,1.435 -31.907,3.011 -47.943,3.686 -11.923,0.5 -23.83,1.511 -35.768,1.257 -6.851,-0.145 -13.625,0.8 -20.451,0.771 v -0.708 c 0.823,-1.759 2.535,-1.722 4.082,-1.715 8.778,0.036 17.547,-0.075 26.3,-0.744 14.052,-1.076 28.142,-1.514 42.2,-2.575 13.14,-0.993 26.156,-2.766 39.227,-4.2 1.6,-0.176 3.223,-0.3 4.128,1.436"
       id="path1141"
       inkscape:connector-curvature="0"
       style="fill:#ebf0fe" />
    <path
       d="m 410.23,37.028 c 3.629,-2.6 8.121,-2.439 12.224,-3.5 a 62.29,62.29 0 0 0 11.285,-3.659 c 1.5,-0.715 3.126,-1.808 2.809,-3.731 a 5.078,5.078 0 0 0 -3.359,-3.853 c -6.278,-2.557 -12.908,-3.857 -19.554,-5.073 -1.14,-0.207 -2.146,-0.332 -2.671,-1.453 a 105.146,105.146 0 0 1 31.906,7.381 3.122,3.122 0 0 1 0.178,5.7 29.114,29.114 0 0 1 -7.316,3.112 c -8.409,2.09 -16.729,4.669 -25.5,5.073"
       id="path1143"
       inkscape:connector-curvature="0"
       style="fill:#ebf0fe" />
    <path
       d="m 405.827,36.546 c -4.968,-1.3 -9.7,0.637 -14.535,1.053 -7.83,0.676 -15.618,1.812 -23.45,2.451 -10.587,0.864 -21.191,1.684 -31.805,2.037 -5.106,0.17 -10.168,0.74 -15.271,0.916 -9.363,0.321 -18.716,0.787 -28.091,0.669 a 11.576,11.576 0 0 0 -2.791,0.673 c -24.455,-0.734 -48.93,0.439 -73.382,-0.708 0.617,-2.335 2.666,-1.631 4.169,-1.658 6.767,-0.12 13.538,-0.035 20.3,-0.063 4.026,-0.062 8.062,-0.115 12.09,0 12.333,0.338 24.637,-0.622 36.954,-0.885 7.78,-0.165 15.6,-0.012 23.351,-0.582 16.642,-1.221 33.358,-1.151 49.956,-3.289 11.72,-1.508 23.546,-2.2 35.154,-4.593 a 75.272,75.272 0 0 0 12.633,-3.578 c 1.124,-0.447 2.489,-0.99 2.614,-2.257 0.154,-1.552 -1.412,-2.035 -2.564,-2.652 C 406.371,21.515 401.11,20.557 395.773,19.805 379.961,17.58 364.161,15.47 348.167,14.577 337.85,14.001 327.54,13.153 317.206,12.733 a 4.2,4.2 0 0 1 -3.054,-0.954 c -0.459,-1.324 0.646,-1.24 1.411,-1.463 h 12.475 l 5.871,0.532 h 8.805 l 5.871,0.532 h 4.4 l 5.871,0.532 h 5.87 l 3.669,1.064 h 0.734 c 2.02,1.818 4.514,-0.5 6.6,0.709 6.973,0.712 13.981,1.206 20.914,2.194 8.193,1.168 16.316,2.8 24.481,4.16 3.3,0.552 5.669,2.912 8.706,4.046 2.14,0.8 1.718,3.3 -0.5,4.717 -3.331,2.129 -7.143,3.091 -10.939,4.017 -3.623,0.886 -7.067,2.588 -10.979,2.257 -0.74,-0.063 -1.26,0.633 -1.6,1.3"
       id="path1145"
       inkscape:connector-curvature="0"
       style="fill:#e6ecfe" />
    <path
       d="m 187.2,10.311 h 10.954 c 0.76,0.222 1.863,0.132 1.415,1.454 a 3.6,3.6 0 0 1 -2.686,0.933 c -8.049,0.162 -16.068,1.174 -24.133,0.825 -11.266,-0.591 -22.358,1.307 -33.512,2.28 a 185.848,185.848 0 0 0 -21.37,2.597 c -7.6,1.565 -15.516,1.973 -22.653,5.384 -1.394,0.667 -3.305,1.056 -3.232,2.924 0.065,1.694 1.914,1.931 3.224,2.47 8.489,3.5 17.53,4.787 26.56,6.02 10.254,1.4 20.581,2.219 30.876,3.3 1.441,0.15 3.035,0.267 2.953,2.308 -8.958,-0.438 -17.864,-1.316 -26.746,-2.555 -8.612,-1.2 -17.413,-1.485 -25.865,-3.322 -6.225,-1.352 -13.122,-1.075 -18.524,-5.407 -2.862,-2.294 -2.946,-3.806 0.028,-6.077 4.439,-3.388 9.86,-3.738 15.1,-4.6 8.827,-1.444 17.647,-2.966 26.523,-4.065 8.407,-1.042 16.878,-1.632 25.328,-2.329 9.2,-0.758 18.374,-1.9 27.639,-1.431 2.708,-0.064 5.454,0.292 8.073,-0.709"
       id="path1147"
       inkscape:connector-curvature="0"
       style="fill:#e6ecfe" />
    <path
       d="m 155.6,40.46 c -2.7,-2.778 -6.432,-1.544 -9.595,-1.967 -10.532,-1.408 -21.249,-1.642 -31.661,-3.8 -6.94,-1.438 -14.191,-1.917 -20.655,-5.274 -1.533,-0.8 -3.387,-1.12 -3.313,-3.2 0.068,-1.926 1.816,-2.687 3.294,-3.4 7.258,-3.512 15.32,-4.241 23.109,-5.6 9.874,-1.72 19.916,-2.662 29.925,-3.507 8.571,-0.722 17.118,-2.075 25.775,-1.617 -0.4,1.976 -2.13,1.6 -3.463,1.731 -12.731,1.276 -25.557,1.734 -38.207,3.638 -8.658,1.3 -17.449,2.141 -25.8,4.971 -2.016,0.683 -4.851,0.952 -4.852,3.572 -10e-4,2.62 2.779,2.886 4.835,3.535 11.922,3.766 24.3,4.975 36.675,6.417 17.322,2.018 34.691,2.962 52.107,3.709 7.681,0.329 15.378,0.04 23.017,0.645 7.2,0.57 14.378,0.444 21.567,0.638 1.216,0.034 2.844,-0.272 3.1,1.634 -7.056,0 -14.112,-0.024 -21.166,0.021 -1.278,0.008 -2.708,-0.469 -3.784,0.688 h -4.4 L 200.366,42.762 H 195.23 L 182.755,42.23 h -1.468 a 21.75,21.75 0 0 0 -10.273,-0.709 l -15.41,-0.709"
       id="path1149"
       inkscape:connector-curvature="0"
       style="fill:#e5ebfe" />
    <path
       d="m 199.626,10.793 a 1.527,1.527 0 0 1 -1.468,-0.709 2.329,2.329 0 0 1 1.97,-0.709 c 30.882,-0.989 61.778,-0.915 92.663,-0.523 6.544,0.083 13.14,0.271 19.707,0.529 1.063,0.042 2.235,-0.292 3.07,0.7 a 1.53,1.53 0 0 1 -1.467,0.709 3.706,3.706 0 0 1 -3.016,1.016 c -6.834,-0.128 -13.673,-0.162 -20.5,-0.3 -5.05,-0.1 -10.181,-0.584 -15.239,-0.025 -2.374,0.261 -4.586,-0.457 -6.916,-0.381 -9.523,0.311 -19.057,0.173 -28.581,0.268 -11.791,0.119 -23.578,0.774 -35.372,0.466 -1.677,-0.043 -3.466,0.309 -4.85,-1.044"
       id="path1151"
       inkscape:connector-curvature="0"
       style="fill:#e7edfe" />
    <path
       d="m 200.359,42.7 c 3.981,-0.8 7.979,-1.873 11.742,0.709 -3.905,-0.382 -7.909,0.791 -11.742,-0.709"
       id="path1153"
       inkscape:connector-curvature="0"
       style="fill:#e6ecfe" />
    <path
       d="m 182.748,41.992 c 4.222,-0.823 8.464,-1.942 12.475,0.709 a 60.009,60.009 0 0 1 -12.475,-0.709"
       id="path1155"
       inkscape:connector-curvature="0"
       style="fill:#e6ecfe" />
    <path
       d="m 171.006,41.282 c 3.506,-0.873 7.016,-1.789 10.273,0.71 -3.477,0.476 -6.814,-0.952 -10.273,-0.71"
       id="path1157"
       inkscape:connector-curvature="0"
       style="fill:#e6ecfe" />
    <path
       d="m 187.15,10.084 c -2.566,1.564 -5.226,2.128 -8.073,0.709 2.571,-1.515 5.4,-0.338 8.073,-0.709"
       id="path1159"
       inkscape:connector-curvature="0"
       style="fill:#e7edfe" />
    <path
       d="m 333.913,10.793 c -2.056,0.53 -4.248,2.108 -5.871,-0.709 1.948,0.312 4.067,-0.71 5.871,0.709"
       id="path1161"
       inkscape:connector-curvature="0"
       style="fill:#e7edfe" />
    <path
       d="m 348.59,11.5 c -2,0.067 -4.267,2.255 -5.871,-0.709 1.947,0.311 4.067,-0.71 5.871,0.709"
       id="path1163"
       inkscape:connector-curvature="0"
       style="fill:#e7edfe" />
    <path
       d="m 358.863,12.084 c -1.906,-0.636 -4.317,2.64 -5.871,-0.709 h 4.4 a 1.533,1.533 0 0 1 1.468,0.709"
       id="path1165"
       inkscape:connector-curvature="0"
       style="fill:#e7edfe" />
    <path
       d="m 375.741,13.63 a 12.157,12.157 0 0 0 -3.519,0.511 c -1.184,0.307 -2.731,0.745 -3.086,-1.221 2.193,0.315 4.54,-0.711 6.6,0.71"
       id="path1167"
       inkscape:connector-curvature="0"
       style="fill:#e7edfe" />
    <path
       d="m 368.4,12.92 c -1.237,-0.172 -2.643,0.474 -3.669,-0.709 1.236,0.172 2.642,-0.474 3.669,0.709"
       id="path1169"
       inkscape:connector-curvature="0"
       style="fill:#e7edfe" />
    <path
       d="m 199.626,10.793 c 38.158,-0.837 76.316,-0.656 114.475,0 0.835,1 2,0.656 3.067,0.705 10.143,0.476 20.281,1.394 30.39,1.807 10.188,0.416 20.209,1.965 30.346,2.576 6.6,0.4 13.1,2.218 19.7,2.911 a 46.021,46.021 0 0 1 13.872,3.965 c 1.782,0.786 4.178,1.6 4.218,3.509 0.048,2.2 -2.585,2.877 -4.411,3.644 -6.523,2.74 -13.543,3.754 -20.462,4.912 -8.831,1.477 -17.816,1.972 -26.708,3.025 -14.724,1.743 -29.5,2.114 -44.273,2.877 -8.246,0.426 -16.487,0.19 -24.7,0.639 -16.423,0.9 -32.845,1.424 -49.291,1.339 -1.467,-0.008 -2.933,0 -4.4,0 -0.835,-1 -2.007,-0.682 -3.071,-0.7 -13.151,-0.249 -26.318,-0.193 -39.45,-0.807 -11.063,-0.517 -22.143,-0.831 -33.185,-1.488 -11.825,-0.7 -23.551,-2.862 -35.364,-3.937 -9.119,-0.831 -17.894,-2.984 -26.68,-5.221 a 15.113,15.113 0 0 1 -3.332,-1.439 c -1.225,-0.657 -2.248,-1.6 -1.926,-3.107 a 3.7,3.7 0 0 1 2.509,-3.182 c 5.838,-1.9 11.606,-3.888 17.868,-4.3 4.7,-0.306 9.241,-1.791 13.988,-2.278 9.9,-1.017 19.786,-2.052 29.724,-2.606 a 38.034,38.034 0 0 0 9.941,-1.428 c 8.788,0.558 17.513,-0.749 26.28,-0.847 0.292,0 0.581,-0.372 0.871,-0.571"
       id="path1171"
       inkscape:connector-curvature="0"
       style="fill:#e0e7fe" />
    <path
       d="m 259.989,40.574 c -10.395,0 -17.61,0.113 -24.82,-0.026 Q 218.711,40.23 202.257,39.729 c -13.819,-0.4 -27.638,-1.482 -41.4,-2.808 -13.382,-1.287 -26.819,-2.513 -39.807,-6.267 -1.753,-0.506 -3.67,-0.745 -5.054,-1.926 -0.874,-0.748 -3.028,-0.736 -2.346,-2.605 a 5.209,5.209 0 0 1 3.243,-3 c 7.834,-3.256 16.225,-3.9 24.467,-5.214 12.59,-2 25.317,-2.714 38.027,-3.626 10.81,-0.774 21.641,-0.924 32.452,-1.461 26.01,-1.289 52.023,-0.414 78.032,-0.52 13.138,-0.054 26.3,0.589 39.416,1.424 12.826,0.814 25.691,1.75 38.383,3.62 9.511,1.4 19.38,1.589 28.383,5.745 a 4.751,4.751 0 0 1 2.815,3.255 c 0.315,1.272 -1.283,2.194 -2.446,2.773 a 41.4,41.4 0 0 1 -10.644,3.084 251.956,251.956 0 0 1 -28.752,4.182 C 343,37.489 329,38.7 314.942,39.328 c -3.994,0.179 -8.008,0.483 -12.017,0.518 -15.375,0.136 -30.731,1.358 -42.936,0.728"
       id="path1173"
       inkscape:connector-curvature="0"
       style="fill:#d7e1fe" />
    <path
       d="m 207.329,14.773 c 12.048,-0.769 24.129,0.043 36.142,-0.6 a 183.278,183.278 0 0 1 19.715,-0.446 c 17.018,0.916 34.089,0.278 51.068,1.537 13.387,0.991 26.777,2.1 40.118,3.81 a 170.863,170.863 0 0 1 20.188,4.067 c 2.025,0.512 3.545,1.641 3.741,3.278 0.2,1.688 -1.916,2.344 -3.353,2.791 a 127.581,127.581 0 0 1 -20.087,4.3 c -5.032,0.713 -10.166,0.568 -15.128,1.97 -3.127,0.884 -6.491,0.431 -9.717,0.636 -5.571,0.356 -11.182,0.7 -16.756,1.037 -27.922,1.681 -55.866,1.379 -83.8,1.232 -12.287,-0.065 -24.6,-0.481 -36.845,-1.466 -15.937,-1.282 -31.928,-2.352 -47.573,-6.063 -2.958,-0.7 -5.966,-0.879 -8.485,-2.736 -1.936,-1.427 -1.586,-2.841 0.251,-3.891 a 20.445,20.445 0 0 1 4.976,-2.065 c 11.137,-2.867 22.562,-3.995 34,-4.963 10.51,-0.89 21.034,-1.62 31.552,-2.42"
       id="path1175"
       inkscape:connector-curvature="0"
       style="fill:#cfdafe" />
    <path
       d="m 228.244,36.319 c -13.166,0.514 -26.3,-0.655 -39.366,-1.648 -11.714,-0.89 -23.6,-1.771 -34.931,-5.439 -1.262,-0.408 -2.376,-0.929 -2.573,-2.184 -0.265,-1.677 1.143,-2.76 2.415,-3.179 4.9,-1.615 9.766,-3.444 15,-3.853 8.815,-0.691 17.611,-1.53 26.379,-2.677 4.45,-0.582 8.982,-0.522 13.457,-0.738 26.084,-1.264 52.2,-1.016 78.307,-0.7 5.931,0.073 11.9,0.477 17.862,0.562 a 2.293,2.293 0 0 1 1.969,0.708 3,3 0 0 1 -1.863,1.313 6.615,6.615 0 0 1 -3.024,-0.025 c -3.15,-0.632 -6.335,-0.177 -9.5,-0.288 -5.013,-0.009 -10.024,-0.071 -15.034,0.016 -5.619,0.1 -11.219,-0.667 -16.8,-0.619 -12.563,0.109 -25.129,0.49 -37.69,0.794 -4.932,0.119 -10,-0.028 -14.909,1.017 a 83.177,83.177 0 0 0 -17.632,1.364 16.516,16.516 0 0 1 -2.827,0.2 13.9,13.9 0 0 0 -3.67,0.242 4.592,4.592 0 0 1 -1.493,0.048 3.865,3.865 0 0 0 -3.512,0.422 4.516,4.516 0 0 1 -0.882,0.361 9.742,9.742 0 0 0 -3.232,0.884 6.844,6.844 0 0 1 -2.929,0.8 3.107,3.107 0 0 1 -0.363,0.025 c -2.305,0.074 -5.4,-0.05 -5.725,2.467 -0.3,2.32 2.911,2.151 4.709,2.907 2.726,1.145 5.675,1.045 8.514,1.577 a 7.18,7.18 0 0 1 1.1,0.258 c 12.3,1.638 24.7,2.089 37.041,3.247 3.279,0.981 6.687,0.13 10,0.639 a 3.023,3.023 0 0 1 1.081,0.479 0.711,0.711 0 0 1 0.124,1.019"
       id="path1177"
       inkscape:connector-curvature="0"
       style="fill:#c7d3fe" />
    <path
       d="m 305.549,17.883 a 1.533,1.533 0 0 1 1.468,-0.709 c 10.977,-0.255 21.755,1.68 32.625,2.593 a 81.84,81.84 0 0 1 19.765,4.243 c 1.29,0.44 2.952,0.753 3.032,2.165 0.1,1.841 -1.96,2.344 -3.274,2.853 a 56.439,56.439 0 0 1 -13.408,3.014 c -13.6,1.709 -27.213,2.989 -40.93,3.714 -22.909,1.213 -45.811,1.244 -68.727,1.291 -2.573,0.006 -5,-1.143 -7.6,-0.728 v -0.71 c 1.4,-1.338 3.192,-0.973 4.854,-0.979 10.366,-0.04 20.735,-0.216 31.094,0.032 11.83,0.284 23.616,-0.61 35.42,-0.9 6.529,-0.163 13.084,-0.883 19.605,-1.515 7.2,-0.138 14.224,-1.57 21.271,-2.832 a 25.709,25.709 0 0 0 4.586,-1.179 c 0.925,-0.347 1.882,-0.806 1.853,-1.927 a 2.134,2.134 0 0 0 -1.906,-1.9 c -4.861,-1.035 -9.635,-2.957 -14.519,-3.211 -6.329,-0.332 -12.591,-0.969 -18.855,-1.749 a 21.889,21.889 0 0 0 -3.621,-0.116 c -1.1,0.044 -2.59,0.368 -2.731,-1.448"
       id="path1179"
       inkscape:connector-curvature="0"
       style="fill:#c6d3fe" />
    <path
       d="m 305.294,17.759 c 4.034,1.142 8.294,0.248 12.361,1.376 4.146,1.151 8.555,0.2 12.7,0.882 a 90.956,90.956 0 0 1 16.324,3.92 c 0.984,0.356 2.425,0.964 2.084,2.091 a 4.017,4.017 0 0 1 -2.726,3.051 c -7.375,2.028 -15.048,2.51 -22.508,4.1 -1.091,0.233 -2.365,-0.333 -3.555,-0.531 a 40.872,40.872 0 0 1 -10.092,0.227 c -0.24,-2.409 1.818,-1.837 2.95,-1.835 6.4,0.009 12.52,-1.673 18.748,-2.7 a 10.564,10.564 0 0 0 2.127,-0.561 c 0.874,-0.339 2.115,-0.5 2.018,-1.684 -0.075,-0.916 -1.174,-1.095 -1.967,-1.357 a 75.117,75.117 0 0 0 -16.5,-3.1 c -14.429,-1.39 -28.9,-1.992 -43.405,-2.386 -8.652,-0.235 -17.343,-0.863 -25.954,-0.374 -13.13,0.745 -26.328,0.064 -39.408,1.852 -2.354,0.322 -4.874,0.641 -7.181,-0.554 -0.533,-2.112 1.361,-1.3 2.182,-1.551 1.09,-0.332 2.334,0.664 3.472,-0.156 5.575,-1.411 11.337,-0.49 16.994,-1.306 a 64.726,64.726 0 0 1 12.406,-0.073 c 6.582,0.336 13.092,-0.986 19.639,-0.708 12.27,0.521 24.537,0.832 36.817,0.668 3.117,1.034 6.421,-0.289 9.54,0.709 z"
       id="path1181"
       inkscape:connector-curvature="0"
       style="fill:#c1cffe" />
    <path
       d="m 309.436,32.656 h 10.534 c -3,1.628 -6.389,0.646 -9.589,1.23 -4.728,0.866 -9.666,0.649 -14.515,0.9 -22.531,1.148 -45.08,0.584 -67.623,0.708 -3.614,-1.023 -7.388,0.271 -11.007,-0.709 -8.032,-0.5 -16.067,-0.971 -24.1,-1.512 A 74.376,74.376 0 0 1 179.073,31.24 c 1.341,-1.82 3.226,-1.625 5.159,-1.331 2.33,0.355 4.592,1.262 7.025,0.827 a 15.383,15.383 0 0 1 4.708,-0.019 c 6.77,0.747 13.582,1.139 20.378,1.6 20.722,1.4 41.483,0.58 62.227,0.761 7.926,0.069 15.8,-0.7 23.695,-1.278 2.471,-0.182 5.135,-0.837 7.428,0.862"
       id="path1183"
       inkscape:connector-curvature="0"
       style="fill:#c2cffe" />
    <path
       d="m 190.821,32.064 c -3.937,0.113 -7.7,-2.458 -11.744,-0.709 -2.606,-0.788 -5.318,-1.163 -7.944,-1.878 -1.718,-0.468 -3.391,-1.139 -3.41,-3.107 -0.017,-1.772 1.462,-2.55 3.074,-3.005 a 3.221,3.221 0 0 0 0.943,-0.518 5.068,5.068 0 0 0 2.935,-0.709 c 1.189,-0.4 2.656,0.54 3.669,-0.71 1.111,-0.776 2.488,-0.268 3.67,-1.009 h 1.467 c 1.112,-0.468 2.654,0.833 3.669,-0.532 h 2.935 c 3.368,-0.093 6.723,-0.725 10.114,-0.161 0.377,2.464 -1.725,1.785 -2.841,1.865 a 119.123,119.123 0 0 0 -17.218,2.857 c -1.236,0.271 -3.144,0.29 -3.068,1.867 0.07,1.418 1.957,1.518 3.192,1.881 2.446,0.719 5.047,0.755 7.494,1.489 1.332,0.4 2.962,0.482 3.063,2.379"
       id="path1185"
       inkscape:connector-curvature="0"
       style="fill:#c1cffe" />
    <path
       d="m 171.74,22.847 a 6.119,6.119 0 0 1 -0.615,0.858 c -1,0.994 -3.4,1.217 -2.578,3.215 0.646,1.582 2.426,2.263 4.222,2.28 2.382,0.023 4.233,1.372 6.309,2.155 a 32.824,32.824 0 0 1 -10.751,-1.908 c -2,-0.636 -4.411,-1.217 -4.227,-3.441 0.179,-2.168 2.851,-2.52 4.748,-3.1 a 10.618,10.618 0 0 1 2.892,-0.063"
       id="path1187"
       inkscape:connector-curvature="0"
       style="fill:#c2cffe" />
    <path
       d="m 200.418,19.887 h -10.332 a 53.511,53.511 0 0 1 16.878,-1.418 c -1.639,1.7 -4.231,-0.283 -5.871,1.416 a 0.485,0.485 0 0 1 -0.734,0"
       id="path1189"
       inkscape:connector-curvature="0"
       style="fill:#c2cffe" />
    <path
       d="m 217.237,34.9 c 3.657,0.4 7.429,-0.853 11.007,0.709 -3.657,-0.405 -7.429,0.852 -11.007,-0.709"
       id="path1191"
       inkscape:connector-curvature="0"
       style="fill:#c6d3fe" />
    <path
       d="m 302.359,17.883 c -3.167,-0.4 -6.465,0.847 -9.54,-0.709 3.167,0.4 6.465,-0.846 9.54,0.709"
       id="path1193"
       inkscape:connector-curvature="0"
       style="fill:#c6d3fe" />
    <path
       d="m 182.014,20.72 c -0.837,2.1 -2.386,0.763 -3.669,0.709 0.957,-1.52 2.128,-2 3.669,-0.709"
       id="path1195"
       inkscape:connector-curvature="0"
       style="fill:#c2cffe" />
    <path
       d="m 178.345,21.428 c -0.744,2.553 -2.316,1.1 -3.669,0.71 1.027,-1.183 2.433,-0.537 3.669,-0.71"
       id="path1197"
       inkscape:connector-curvature="0"
       style="fill:#c2cffe" />
    <path
       d="m 187.15,20.01 c -0.837,2.1 -2.386,0.763 -3.669,0.71 1.026,-1.183 2.432,-0.537 3.669,-0.71"
       id="path1199"
       inkscape:connector-curvature="0"
       style="fill:#c2cffe" />
    <path
       d="m 200.359,20.01 h 0.734 c 12.281,-0.15 24.543,-1.05 36.79,-1.665 15.619,-0.784 31.147,0.015 46.7,0.318 a 318,318 0 0 1 43.832,3.585 53.086,53.086 0 0 1 8.033,2.293 2.359,2.359 0 0 1 1.728,2.1 c 0.052,1.161 -1.086,1.053 -1.785,1.421 -3.4,1.788 -7.345,1.509 -10.89,2.631 -5.169,1.635 -10.658,0.581 -15.807,2.08 -26.8,1.9 -53.657,1.691 -80.488,1.276 a 261.48,261.48 0 0 1 -34.467,-2.56 c -1.457,-0.217 -2.6,0.5 -3.921,0.576 -3,-2.5 -6.937,-1.752 -10.368,-2.772 -0.918,-0.273 -1.951,-0.216 -2.676,-0.941 -0.78,-0.779 -2.806,-0.219 -2.575,-1.948 0.237,-1.773 1.808,-2.494 3.418,-2.762 6.689,-1.117 13.257,-3.016 20.135,-2.962 0.532,0 1.069,-0.436 1.6,-0.67"
       id="path1201"
       inkscape:connector-curvature="0"
       style="fill:#bac9fe" />
    <path
       d="m 224.575,20.01 c 18.293,-1.532 36.632,-0.775 54.933,-0.546 a 289.7,289.7 0 0 1 34.847,2.574 c 4.148,0.555 7.946,2.342 12.146,2.378 a 2.18,2.18 0 0 1 2,1.824 c 0.2,0.951 -0.688,1.441 -1.35,1.939 a 5.92,5.92 0 0 1 -2.754,0.755 238.409,238.409 0 0 1 -46.25,3.841 c -4.545,0.708 -9.116,0.221 -13.673,0.282 -0.6,-1.877 0.975,-1.728 2,-1.865 a 38.013,38.013 0 0 1 5.485,-0.105 c 12.328,0.138 24.551,-1.2 36.775,-2.477 a 15.127,15.127 0 0 0 7.224,-2.223 35.912,35.912 0 0 0 -12.052,-3.135 c -18.784,-2.169 -37.667,-2.32 -56.552,-2.251 -6.319,0.024 -12.62,0.542 -18.936,0.686 a 6.425,6.425 0 0 1 -3.56,-0.583 0.769,0.769 0 0 1 -0.283,-1.094"
       id="path1203"
       inkscape:connector-curvature="0"
       style="fill:#b3c2fe" />
    <path
       d="m 264.27,32.773 h 13.946 c -1.084,1.154 -2.518,0.682 -3.8,0.687 -11.6,0.035 -23.211,0.382 -34.791,-0.066 -16.589,-0.643 -33.238,-0.95 -49.61,-4.154 a 6.329,6.329 0 0 1 -2.1,-0.465 c -1.116,-0.707 -3.327,-0.552 -3.037,-2.443 0.24,-1.564 1.958,-1.546 3.389,-2 11.854,-3.738 24.164,-3.616 36.38,-4.327 v 0.709 c -4.2,1.679 -8.679,1.949 -13.109,2.382 a 93.112,93.112 0 0 0 -11.519,1.779 c -0.7,0.16 -1.627,0.366 -1.765,1.085 -0.21,1.089 0.953,1.187 1.669,1.508 a 24.137,24.137 0 0 0 9.231,1.991 c 10.819,0.273 21.549,1.955 32.407,1.668 6.558,-0.175 13.092,1.058 19.678,0.7 a 3.746,3.746 0 0 1 3.034,0.946"
       id="path1205"
       inkscape:connector-curvature="0"
       style="fill:#b3c3fe" />
    <path
       d="m 264.2,32.773 c -11.213,-0.237 -22.436,-0.275 -33.637,-0.777 -8.721,-0.389 -17.412,-1.379 -26.12,-2.051 -2.862,-0.22 -5.234,-1.833 -7.982,-2.429 -1.444,-0.312 -1.346,-1.574 -0.085,-2.328 a 9.262,9.262 0 0 1 3.3,-1.49 c 8.289,-1.069 16.6,-2 24.9,-2.979 8.109,-0.236 16.22,-0.427 24.328,-0.718 14.041,-0.5 28.067,0.383 42.068,0.942 7.65,0.306 15.5,0.984 23,3.253 a 15.035,15.035 0 0 1 4.244,2.368 c -2.857,2.244 -6.183,2.857 -9.43,3.221 -6.388,0.714 -12.835,0.934 -19.231,1.605 -7.783,0.816 -15.58,0.635 -23.379,0.678 a 2.274,2.274 0 0 0 -1.97,0.705"
       id="path1207"
       inkscape:connector-curvature="0"
       style="fill:#abbcfa" />
    <path
       d="m 256.424,31.183 c -9.813,0.888 -19.537,-0.312 -29.273,-0.666 A 82.572,82.572 0 0 1 208.1,27.879 c -0.931,-0.257 -2.144,-0.159 -2.275,-1.342 -0.154,-1.388 1.223,-1.767 2.192,-1.974 a 89.589,89.589 0 0 1 9.662,-1.673 c 14.563,-1.448 29.175,-1.537 43.8,-1.5 14,0.034 27.954,0.483 41.782,2.851 1.288,0.219 2.49,0.313 2.682,1.822 0.247,1.945 -1.551,2.063 -2.679,2.237 -5.743,0.891 -11.5,2.074 -17.286,2.237 -9.864,0.275 -19.707,1.525 -29.556,0.649"
       id="path1209"
       inkscape:connector-curvature="0"
       style="fill:#a6b5ef" />
    <path
       d="m 264.287,30 h -15.5 c -5.913,-0.705 -11.894,-0.218 -17.811,-1.022 a 26.227,26.227 0 0 1 -6.079,-1.061 c -0.953,-0.367 -1.917,-0.753 -1.836,-1.877 0.081,-1.124 1.063,-1.534 2.084,-1.643 3.63,-0.388 7.219,-1.1 10.9,-1.15 2.045,-0.025 4.135,0.419 6.141,-0.338 9.815,-0.442 19.622,-0.766 29.435,0.2 4.34,0.427 8.748,0.036 13.075,0.85 0.707,0.134 1.439,0.2 2.159,0.314 1.279,0.2 2.5,0.589 2.563,2.027 0.074,1.742 -1.444,2.09 -2.764,2.184 -5.685,0.4 -11.32,1.435 -17.063,1.188 -1.782,-0.077 -3.64,-0.439 -5.39,0.326"
       id="path1211"
       inkscape:connector-curvature="0"
       style="fill:#9dace2" />
    <path
       d="m 264.2,29.938 c 0.834,-0.994 2.009,-0.732 3.065,-0.692 a 111.331,111.331 0 0 0 19.215,-1.423 c 0.986,-0.134 2.166,-0.09 2.327,-1.236 0.206,-1.475 -1.213,-1.613 -2.232,-1.785 -2.856,-0.48 -5.721,-0.975 -8.606,-1.219 -11.908,-1.006 -23.85,-0.7 -35.784,-0.736 0.295,-0.2 0.591,-0.576 0.884,-0.574 9.752,0.079 19.5,-0.548 29.261,0.363 6.159,0.575 12.4,0.3 18.5,1.616 1.826,0.392 4.839,0.3 4.83,2.056 -0.01,2.071 -3.127,1.834 -4.884,2.1 a 148.529,148.529 0 0 1 -26.576,1.53"
       id="path1213"
       inkscape:connector-curvature="0"
       style="fill:#a2b1e9" />
    <path
       d="m 242.186,22.847 c -3.921,1.5 -8.139,0.351 -12.17,1.32 -2.173,0.522 -4.51,0.379 -6.432,1.768 1.817,1.99 4.394,2.416 6.828,2.511 5.351,0.209 10.658,1.246 16.042,0.795 a 2.428,2.428 0 0 1 2.336,0.7 167.846,167.846 0 0 1 -25.822,-1.4 15.807,15.807 0 0 1 -6.693,-2.481 c 8.821,-3.34 17.369,-3.254 25.911,-3.208"
       id="path1215"
       inkscape:connector-curvature="0"
       style="fill:#a2b1e9" />
    <path
       d="m 230.934,26 c 2.225,-1.756 5.01,-1.356 7.327,-1.536 10.023,-0.782 20.068,-1.691 30.155,-0.308 3.454,0.472 7.032,0.007 10.5,0.822 0.859,0.2 1.821,0.328 1.839,1.345 0.021,1.251 -1.058,1.4 -2.066,1.476 A 259.356,259.356 0 0 1 235.379,27.734 7.444,7.444 0 0 1 230.934,26"
       id="path1217"
       inkscape:connector-curvature="0"
       style="fill:#97a5d8" />
    <path
       d="m 241.5,26.115 a 102.3,102.3 0 0 1 30,-0.067 66.863,66.863 0 0 1 -30,0.067"
       id="path1219"
       inkscape:connector-curvature="0"
       style="fill:#8f9ace" />
  </g>
</svg>
