<svg xmlns="http://www.w3.org/2000/svg" viewBox="0 0 45 42.866">
  <title>vogel</title>
  <g id="Ebene_2" data-name="Ebene 2">
    <g id="Ebene_1-2" data-name="Ebene 1">
      <g>
        <ellipse cx="33.866" cy="17.515" rx="5.542" ry="4.596" transform="translate(7.739 45.284) rotate(-74.092)" fill="none" stroke="#dc6569" stroke-miterlimit="10" stroke-width="0.778"/>
        <path d="M0,24.69c-.016-2.6,6.607-4.677,14.792-4.644,1.2,0,2.351.059,3.464.148-3.841-1.555-6.315-3.628-5.941-5.255a2.145,2.145,0,0,1,1.323-1.359c-1.583-1.57-2.34-3-1.89-3.945.939-1.969,6.737-1.077,12.952,1.993a37.07,37.07,0,0,1,4.471,2.6,19.584,19.584,0,0,1,1.473-1.747l-1.667-.432C30.444,10.06,32.55,9,34.517,9.512c.014,0,.026.01.039.014a6.95,6.95,0,0,1,2.2-.643A23.48,23.48,0,0,1,35.472,6.35C34.087,3.158,33.6.326,34.4.026c.414-.158,1.1.416,1.851,1.453.124-.3.3-.482.521-.5C37.647.9,38.949,3.283,39.677,6.3a15.1,15.1,0,0,1,.465,3.6A6.7,6.7,0,0,1,42.2,13.447a1.953,1.953,0,0,1,.868.028c1.159.316,1.862,1.71,1.932,3.5l-2.408-.655A22.471,22.471,0,0,1,40.657,25.6,20.333,20.333,0,0,1,33.7,34.612a21.81,21.81,0,0,1-4.945,3.257c-5.233,2.52-10.633,2.736-13.834.886L12.04,41a3.133,3.133,0,0,1,.318.358c.468.62.652,1.274.41,1.462s-.817-.162-1.285-.782A2.457,2.457,0,0,1,10.994,41l-.172-.228.244-.189.006-.015s.012,0,.016,0l3.035-2.359a5.427,5.427,0,0,1-1.559-1.931c-.069-.147-.114-.3-.169-.454L8.187,36.6a3.827,3.827,0,0,1,.125.486c.154.841.013,1.572-.316,1.632s-.72-.571-.874-1.412-.013-1.572.315-1.633a.366.366,0,0,1,.294.115l-.025-.131,4.432-.818A6.345,6.345,0,0,1,12.2,32.59c-4.807.315-8.433-.607-8.869-2.523a2.576,2.576,0,0,1,.706-2.146C1.549,27.069.008,25.935,0,24.69Z" fill="#3a66aa"/>
        <ellipse cx="42.375" cy="19.051" rx="3.961" ry="2.055" transform="translate(13.468 55.423) rotate(-75.732)" fill="#fff"/>
        <ellipse cx="42.926" cy="18.371" rx="1.41" ry="0.841" transform="translate(18.631 58.245) rotate(-81.816)" fill="#28497c" opacity="0.97"/>
        <ellipse cx="42.628" cy="17.233" rx="0.289" ry="0.261" transform="translate(14.212 53.381) rotate(-73.841)" fill="#fff"/>
        <g>
          <g opacity="0.97">
            <path d="M37.423,23.4c-.148.248-1.175,2.006-.524,2.6.548.5,2.2.1,4.086-1.02" fill="#3a66aa"/>
          </g>
          <g opacity="0.97">
            <path d="M37.26,24.03c-.022-.584-.147-4.7,1.228-5.128,1.159-.361,3.2,1.951,5.023,5.768" fill="#3a66aa"/>
          </g>
        </g>
        <g>
          <path d="M37.565,23.019c-.124.208-.986,1.683-.44,2.184.46.422,1.846.085,3.43-.857" fill="#fff"/>
          <path d="M37.428,23.546c-.018-.49-.123-3.945,1.032-4.3.972-.3,2.682,1.638,4.216,4.842" fill="#fff"/>
        </g>
        <ellipse cx="33.866" cy="17.515" rx="5.314" ry="4.407" transform="translate(7.739 45.284) rotate(-74.092)" fill="#fff"/>
        <ellipse cx="33.201" cy="15.82" rx="1.823" ry="1.512" transform="translate(8.887 43.413) rotate(-74.092)" fill="#28497c" opacity="0.97"/>
        <ellipse cx="32.528" cy="14.867" rx="0.674" ry="0.609" transform="translate(9.196 41.973) rotate(-73.841)" fill="#fff"/>
      </g>
    </g>
  </g>
</svg>
