<?xml version="1.0" encoding="UTF-8" standalone="no"?>
<svg
   xmlns:dc="http://purl.org/dc/elements/1.1/"
   xmlns:cc="http://creativecommons.org/ns#"
   xmlns:rdf="http://www.w3.org/1999/02/22-rdf-syntax-ns#"
   xmlns:svg="http://www.w3.org/2000/svg"
   xmlns="http://www.w3.org/2000/svg"
   xmlns:sodipodi="http://sodipodi.sourceforge.net/DTD/sodipodi-0.dtd"
   xmlns:inkscape="http://www.inkscape.org/namespaces/inkscape"
   viewBox="0 0 43.379 41.322"
   version="1.1"
   id="svg939"
   sodipodi:docname="A_teachUOS_Comic.svg"
   inkscape:version="0.92.4 (5da689c313, 2019-01-14)">
  <metadata
     id="metadata945">
    <rdf:RDF>
      <cc:Work
         rdf:about="">
        <dc:format>image/svg+xml</dc:format>
        <dc:type
           rdf:resource="http://purl.org/dc/dcmitype/StillImage" />
      </cc:Work>
    </rdf:RDF>
  </metadata>
  <defs
     id="defs943" />
  <sodipodi:namedview
     pagecolor="#ffffff"
     bordercolor="#666666"
     borderopacity="1"
     objecttolerance="10"
     gridtolerance="10"
     guidetolerance="10"
     inkscape:pageopacity="0"
     inkscape:pageshadow="2"
     inkscape:window-width="1920"
     inkscape:window-height="1018"
     id="namedview941"
     showgrid="false"
     inkscape:zoom="12"
     inkscape:cx="17.614084"
     inkscape:cy="15.185999"
     inkscape:window-x="1912"
     inkscape:window-y="-8"
     inkscape:window-maximized="1"
     inkscape:current-layer="svg939" />
  <title
     id="title881">teachUOS_Comic</title>
  <g
     id="g5959">
    <g
       id="g5230"
       transform="matrix(-1.1248849,0,0,1.1169886,387.61761,-107.97795)">
      <polygon
         points="330.299,128.764 334.686,132.172 335.156,131.549 330.77,128.14 "
         stroke-miterlimit="10"
         id="polygon1223"
         style="fill:#28497c;stroke:#28497c;stroke-width:0.22;stroke-miterlimit:10" />
      <ellipse
         cx="335.10501"
         cy="132.328"
         rx="1.192"
         ry="0.47"
         transform="rotate(-53.081,335.1074,132.32796)"
         stroke-miterlimit="10"
         id="ellipse1225"
         style="fill:#28497c;stroke:#28497c;stroke-width:0.22;stroke-miterlimit:10" />
      <ellipse
         cx="324.83801"
         cy="109.875"
         rx="10.634"
         ry="3.3469999"
         transform="rotate(-26.379,324.8392,109.87449)"
         id="ellipse1227"
         style="fill:#28497c" />
      <ellipse
         cx="324.55301"
         cy="111.923"
         rx="9.6090002"
         ry="3.404"
         transform="rotate(-13.733,324.54591,111.92165)"
         id="ellipse1229"
         style="fill:#28497c" />
      <ellipse
         cx="315.952"
         cy="115.995"
         rx="6.6469998"
         ry="12.145"
         transform="rotate(-22.808,315.94776,115.99361)"
         id="ellipse1231"
         style="fill:#a2b1e9" />
      <ellipse
         cx="323.01901"
         cy="122.606"
         rx="7.1669998"
         ry="11.833"
         transform="rotate(-64.02,323.01998,122.60533)"
         id="ellipse1233"
         style="fill:#a2b1e9" />
      <ellipse
         cx="320.13199"
         cy="126.402"
         rx="2.4430001"
         ry="8.6829996"
         transform="rotate(-61.499,320.1319,126.40207)"
         id="ellipse1235"
         style="opacity:0.67000002;fill:#cfdafe" />
      <ellipse
         cx="309.79199"
         cy="113.09"
         rx="1.689"
         ry="3.4690001"
         transform="matrix(0.986,-0.168,0.168,0.986,-14.619,53.78)"
         stroke-miterlimit="10"
         id="ellipse1237"
         style="fill:#28497c;stroke:#28497c;stroke-width:0.22;stroke-miterlimit:10" />
      <ellipse
         cx="309.69601"
         cy="113.143"
         rx="1.7410001"
         ry="3.3559999"
         transform="rotate(-14.268,309.69178,113.1427)"
         id="ellipse1239"
         style="fill:#f4f4ff" />
      <ellipse
         cx="309.29599"
         cy="112.499"
         rx="0.713"
         ry="1.1950001"
         transform="matrix(0.99,-0.142,0.142,0.99,-12.865,45.175)"
         stroke-miterlimit="10"
         id="ellipse1241"
         style="fill:#28497c;stroke:#28497c;stroke-width:0.22;stroke-miterlimit:10" />
      <ellipse
         cx="313.05701"
         cy="101.92"
         rx="5.3390002"
         ry="1.296"
         transform="rotate(-66.379,313.05696,101.92005)"
         stroke-miterlimit="10"
         id="ellipse1243"
         style="fill:#28497c;stroke:#28497c;stroke-width:0.22;stroke-miterlimit:10" />
      <ellipse
         cx="312.05499"
         cy="102.45"
         rx="4.7589998"
         ry="1.336"
         transform="rotate(-75.673,312.05359,102.45046)"
         stroke-miterlimit="10"
         id="ellipse1245"
         style="fill:#28497c;stroke:#28497c;stroke-width:0.22;stroke-miterlimit:10" />
      <path
         d="m 306.2,111.386 c 0.06,-1.519 0.655,-2.7 1.637,-2.968 0.982,-0.268 2.1,0.449 2.923,1.727 z"
         id="path1247"
         inkscape:connector-curvature="0"
         style="fill:#28497c" />
      <ellipse
         cx="331.767"
         cy="117.972"
         rx="12.559"
         ry="3.9860001"
         transform="rotate(-0.297,331.31728,117.76578)"
         id="ellipse1249"
         style="fill:#28497c" />
      <ellipse
         cx="330.41"
         cy="120.014"
         rx="4.0479999"
         ry="11.361"
         transform="rotate(-77.525,330.40898,120.01465)"
         id="ellipse1251"
         style="fill:#28497c" />
      <ellipse
         cx="315.63"
         cy="111.842"
         rx="3.895"
         ry="4.6960001"
         transform="rotate(-15.908,315.62904,111.84005)"
         stroke-miterlimit="10"
         id="ellipse1253"
         style="fill:#28497c;stroke:#28497c;stroke-width:0.22;stroke-miterlimit:10" />
      <ellipse
         cx="315.63"
         cy="111.842"
         rx="3.734"
         ry="4.5029998"
         transform="matrix(0.962,-0.274,0.274,0.962,-18.567,90.793)"
         id="ellipse1255"
         style="fill:#ffffff" />
      <ellipse
         cx="316.194"
         cy="110.405"
         rx="1.281"
         ry="1.545"
         transform="rotate(-15.908,316.18723,110.40396)"
         stroke-miterlimit="10"
         id="ellipse1257"
         style="fill:#28497c;stroke:#28497c;stroke-width:0.22;stroke-miterlimit:10" />
      <path
         d="m 312.034,109.218 c 0.259,-2.075 1.377,-3.726 3.044,-4.158 1.667,-0.432 3.452,0.464 4.7,2.149 z"
         id="path1259"
         inkscape:connector-curvature="0"
         style="fill:#28497c" />
      <polygon
         points="331.677,126.959 337.641,128.06 337.796,127.215 331.832,126.114 "
         stroke-miterlimit="10"
         id="polygon1261"
         style="fill:#28497c;stroke:#28497c;stroke-width:0.22;stroke-miterlimit:10" />
      <ellipse
         cx="337.78799"
         cy="127.64"
         rx="1.312"
         ry="0.51300001"
         transform="rotate(-79.614,337.78581,127.6405)"
         stroke-miterlimit="10"
         id="ellipse1263"
         style="fill:#28497c;stroke:#28497c;stroke-width:0.22;stroke-miterlimit:10" />
      <g
         id="g1269">
        <path
           d="m 312.754,117.362 c 0.019,-0.495 0.125,-3.982 -1.04,-4.345 -0.982,-0.306 -2.708,1.652 -4.256,4.887"
           stroke-miterlimit="10"
           id="path1265"
           inkscape:connector-curvature="0"
           style="fill:#28497c;stroke:#28497c;stroke-width:0.1;stroke-miterlimit:10" />
        <path
           d="m 312.616,116.829 c 0.126,0.211 1,1.7 0.445,2.205 -0.465,0.426 -1.864,0.086 -3.463,-0.864"
           stroke-miterlimit="10"
           id="path1267"
           inkscape:connector-curvature="0"
           style="fill:#28497c;stroke:#28497c;stroke-width:0.1;stroke-miterlimit:10" />
      </g>
      <ellipse
         cx="316.76401"
         cy="109.597"
         rx="0.51599997"
         ry="0.57099998"
         transform="rotate(-16.159,316.7552,109.59611)"
         id="ellipse1271"
         style="fill:#ffffff" />
      <ellipse
         cx="309.54901"
         cy="111.535"
         rx="0.221"
         ry="0.245"
         transform="rotate(-16.159,309.5418,111.53292)"
         id="ellipse1273"
         style="fill:#ffffff" />
    </g>
  </g>
</svg>
