<?xml version="1.0" encoding="UTF-8" standalone="no"?>
<svg
   xmlns:dc="http://purl.org/dc/elements/1.1/"
   xmlns:cc="http://creativecommons.org/ns#"
   xmlns:rdf="http://www.w3.org/1999/02/22-rdf-syntax-ns#"
   xmlns:svg="http://www.w3.org/2000/svg"
   xmlns="http://www.w3.org/2000/svg"
   xmlns:sodipodi="http://sodipodi.sourceforge.net/DTD/sodipodi-0.dtd"
   xmlns:inkscape="http://www.inkscape.org/namespaces/inkscape"
   viewBox="0 0 43.379 41.322"
   version="1.1"
   id="svg939"
   sodipodi:docname="A_teachUOS_Comic.svg"
   inkscape:version="0.92.4 (5da689c313, 2019-01-14)">
  <metadata
     id="metadata945">
    <rdf:RDF>
      <cc:Work
         rdf:about="">
        <dc:format>image/svg+xml</dc:format>
        <dc:type
           rdf:resource="http://purl.org/dc/dcmitype/StillImage" />
        <dc:title>teachUOS_Comic</dc:title>
      </cc:Work>
    </rdf:RDF>
  </metadata>
  <defs
     id="defs943" />
  <sodipodi:namedview
     pagecolor="#ffffff"
     bordercolor="#666666"
     borderopacity="1"
     objecttolerance="10"
     gridtolerance="10"
     guidetolerance="10"
     inkscape:pageopacity="0"
     inkscape:pageshadow="2"
     inkscape:window-width="1920"
     inkscape:window-height="1018"
     id="namedview941"
     showgrid="false"
     inkscape:zoom="12"
     inkscape:cx="31.780751"
     inkscape:cy="8.5193323"
     inkscape:window-x="1912"
     inkscape:window-y="-8"
     inkscape:window-maximized="1"
     inkscape:current-layer="svg939" />
  <title
     id="title881">teachUOS_Comic</title>
  <g
     transform="matrix(0.94043154,0,0,0.9599021,0.51498834,0.0928699)"
     id="Ebene_2"
     data-name="Ebene 2">
    <g
       id="Ebene_1-2"
       data-name="Ebene 1">
      <g
         id="g1017">
        <ellipse
           style="fill:none;stroke:#dc6569;stroke-width:0.778;stroke-miterlimit:10"
           cx="33.866001"
           cy="17.514999"
           rx="5.5419998"
           ry="4.5960002"
           transform="rotate(-74.092,33.866311,17.515569)"
           stroke-miterlimit="10"
           id="ellipse985" />
        <path
           style="fill:#3a66aa"
           inkscape:connector-curvature="0"
           d="m 0,24.69 c -0.016,-2.6 6.607,-4.677 14.792,-4.644 1.2,0 2.351,0.059 3.464,0.148 -3.841,-1.555 -6.315,-3.628 -5.941,-5.255 a 2.145,2.145 0 0 1 1.323,-1.359 c -1.583,-1.57 -2.34,-3 -1.89,-3.945 0.939,-1.969 6.737,-1.077 12.952,1.993 a 37.07,37.07 0 0 1 4.471,2.6 19.584,19.584 0 0 1 1.473,-1.747 L 28.977,12.049 C 30.444,10.06 32.55,9 34.517,9.512 c 0.014,0 0.026,0.01 0.039,0.014 A 6.95,6.95 0 0 1 36.756,8.883 23.48,23.48 0 0 1 35.472,6.35 C 34.087,3.158 33.6,0.326 34.4,0.026 c 0.414,-0.158 1.1,0.416 1.851,1.453 0.124,-0.3 0.3,-0.482 0.521,-0.5 0.875,-0.079 2.177,2.304 2.905,5.321 a 15.1,15.1 0 0 1 0.465,3.6 6.7,6.7 0 0 1 2.058,3.547 1.953,1.953 0 0 1 0.868,0.028 c 1.159,0.316 1.862,1.71 1.932,3.5 L 42.592,16.32 a 22.471,22.471 0 0 1 -1.935,9.28 20.333,20.333 0 0 1 -6.957,9.012 21.81,21.81 0 0 1 -4.945,3.257 c -5.233,2.52 -10.633,2.736 -13.834,0.886 L 12.04,41 a 3.133,3.133 0 0 1 0.318,0.358 c 0.468,0.62 0.652,1.274 0.41,1.462 -0.242,0.188 -0.817,-0.162 -1.285,-0.782 A 2.457,2.457 0 0 1 10.994,41 l -0.172,-0.228 0.244,-0.189 0.006,-0.015 c 0,0 0.012,0 0.016,0 l 3.035,-2.359 a 5.427,5.427 0 0 1 -1.559,-1.931 c -0.069,-0.147 -0.114,-0.3 -0.169,-0.454 L 8.187,36.6 a 3.827,3.827 0 0 1 0.125,0.486 c 0.154,0.841 0.013,1.572 -0.316,1.632 -0.329,0.06 -0.72,-0.571 -0.874,-1.412 -0.154,-0.841 -0.013,-1.572 0.315,-1.633 a 0.366,0.366 0 0 1 0.294,0.115 L 7.706,35.657 12.138,34.839 A 6.345,6.345 0 0 1 12.2,32.59 C 7.393,32.905 3.767,31.983 3.331,30.067 A 2.576,2.576 0 0 1 4.037,27.921 C 1.549,27.069 0.008,25.935 0,24.69 Z"
           id="path987" />
        <ellipse
           style="fill:#ffffff"
           cx="42.375"
           cy="19.051001"
           rx="3.961"
           ry="2.0550001"
           transform="rotate(-75.732,42.374601,19.050698)"
           id="ellipse989" />
        <ellipse
           style="opacity:0.97000002;fill:#28497c"
           cx="42.925999"
           cy="18.371"
           rx="1.41"
           ry="0.84100002"
           transform="rotate(-81.816,42.92595,18.371426)"
           id="ellipse991" />
        <ellipse
           style="fill:#ffffff"
           cx="42.627998"
           cy="17.233"
           rx="0.289"
           ry="0.26100001"
           transform="rotate(-73.841,42.627931,17.233246)"
           id="ellipse993" />
        <g
           id="g1003">
          <g
             style="opacity:0.97000002"
             id="g997">
            <path
               style="fill:#3a66aa"
               inkscape:connector-curvature="0"
               d="m 37.423,23.4 c -0.148,0.248 -1.175,2.006 -0.524,2.6 0.548,0.5 2.2,0.1 4.086,-1.02"
               id="path995" />
          </g>
          <g
             style="opacity:0.97000002"
             id="g1001">
            <path
               style="fill:#3a66aa"
               inkscape:connector-curvature="0"
               d="m 37.26,24.03 c -0.022,-0.584 -0.147,-4.7 1.228,-5.128 1.159,-0.361 3.2,1.951 5.023,5.768"
               id="path999" />
          </g>
        </g>
        <g
           id="g1009">
          <path
             style="fill:#ffffff"
             inkscape:connector-curvature="0"
             d="m 37.565,23.019 c -0.124,0.208 -0.986,1.683 -0.44,2.184 0.46,0.422 1.846,0.085 3.43,-0.857"
             id="path1005" />
          <path
             style="fill:#ffffff"
             inkscape:connector-curvature="0"
             d="m 37.428,23.546 c -0.018,-0.49 -0.123,-3.945 1.032,-4.3 0.972,-0.3 2.682,1.638 4.216,4.842"
             id="path1007" />
        </g>
        <ellipse
           style="fill:#ffffff"
           cx="33.866001"
           cy="17.514999"
           rx="5.3140001"
           ry="4.4070001"
           transform="rotate(-74.092,33.866311,17.515569)"
           id="ellipse1011" />
        <ellipse
           style="opacity:0.97000002;fill:#28497c"
           cx="33.201"
           cy="15.82"
           rx="1.823"
           ry="1.512"
           transform="rotate(-74.092,33.200933,15.819616)"
           id="ellipse1013" />
        <ellipse
           style="fill:#ffffff"
           cx="32.528"
           cy="14.867"
           rx="0.67400002"
           ry="0.60900003"
           transform="rotate(-73.841,32.528575,14.8671)"
           id="ellipse1015" />
      </g>
    </g>
  </g>
</svg>
