<svg xmlns="http://www.w3.org/2000/svg" viewBox="0 0 148.924 24.315">
  <title>Element 88</title>
  <g id="Ebene_2" data-name="Ebene 2">
    <g id="Ebene_1-2" data-name="Ebene 1">
      <g>
        <g>
          <path d="M144.39,7.7A2.891,2.891,0,1,0,141.5,10.6,2.892,2.892,0,0,0,144.39,7.7M141.507,0a7.7,7.7,0,0,0-7.7,7.7H136.1a5.406,5.406,0,1,1,5.407,5.408V15.4a7.7,7.7,0,0,0,0-15.395" transform="translate(-0.28)" fill="#134094"/>
          <rect x="119.066" y="21.355" width="2.804" height="2.804" fill="#2b4392"/>
          <g>
            <path d="M79.966,20.115a5.586,5.586,0,0,0,3.446,1.465c1.314,0,1.96-.517,1.96-1.357,0-.883-.8-1.163-2.025-1.68l-1.809-.776a4.082,4.082,0,0,1-2.843-3.833c0-2.326,2.089-4.178,5-4.178a6.5,6.5,0,0,1,4.522,1.852l-1.593,2a4.606,4.606,0,0,0-2.929-1.12c-1.077,0-1.788.474-1.788,1.271,0,.861.926,1.163,2.154,1.658l1.787.732a3.873,3.873,0,0,1,2.779,3.812c0,2.326-1.939,4.351-5.277,4.351a7.778,7.778,0,0,1-5.212-2.025Z" transform="translate(-0.28)" fill="#2b4392"/>
            <path d="M91.936,15.294H88.951V12.761h8.956v2.533H94.921v8.775H91.936V15.294Z" transform="translate(-0.28)" fill="#2b4392"/>
            <path d="M98.992,12.761h2.985v6.176c0,2.012.521,2.741,1.7,2.741s1.736-.729,1.736-2.741V12.761h2.895V18.59c0,3.851-1.461,5.655-4.624,5.655s-4.694-1.8-4.694-5.655V12.761Z" transform="translate(-0.28)" fill="#2b4392"/>
            <path d="M109.667,12.761h3.34c3.444,0,5.81,1.6,5.81,5.6s-2.366,5.706-5.636,5.706h-3.514V12.761Zm3.159,8.956c1.637,0,2.926-.662,2.926-3.309s-1.289-3.205-2.926-3.205h-.174v6.514Z" transform="translate(-0.28)" fill="#2b4392"/>
            <path d="M123.507,10.047h3.166V24.069h-3.166Z" transform="translate(-0.28)" fill="#2b4392"/>
            <path d="M128.211,9.957h5.112c3.07,0,5.513,1.124,5.513,4.54,0,3.307-2.529,4.777-5.513,4.777h-1.946v4.795h-3.166V9.957Zm4.915,6.784c1.748,0,2.589-.777,2.589-2.244s-.906-2.008-2.589-2.008h-1.749v4.252Z" transform="translate(-0.28)" fill="#2b4392"/>
          </g>
        </g>
        <g>
          <path d="M7.663,16.377l-4.714,5.94H7.813V24.1H.28V22.516l4.7-5.982H.6V14.771H7.663Z" transform="translate(-0.28)" fill="#2b4392"/>
          <path d="M16.386,14.771v5.81a5.189,5.189,0,0,1-.322,2.095A2.476,2.476,0,0,1,14.879,23.8a4.864,4.864,0,0,1-2.212.441,4.869,4.869,0,0,1-2.144-.4,2.667,2.667,0,0,1-1.192-1.128,4.589,4.589,0,0,1-.4-2.14v-5.81h2.372v5.81a3.535,3.535,0,0,0,.127,1.108,1.04,1.04,0,0,0,.505.564,1.913,1.913,0,0,0,.933.208,2.125,2.125,0,0,0,1-.2,1.033,1.033,0,0,0,.514-.543,3.583,3.583,0,0,0,.126-1.132v-5.81Z" transform="translate(-0.28)" fill="#2b4392"/>
          <path d="M20.323,20.4v3.7h-2.2V14.771h4.1a5.2,5.2,0,0,1,1.821.263A2.336,2.336,0,0,1,25.184,16a2.846,2.846,0,0,1,.451,1.565,2.484,2.484,0,0,1-1.62,2.411L25.737,24.1H23.322l-1.433-3.7Zm0-3.971v2.379h1.34a3.506,3.506,0,0,0,.954-.093,1.052,1.052,0,0,0,.529-.41,1.194,1.194,0,0,0,.233-.728,1.12,1.12,0,0,0-.233-.7.952.952,0,0,0-.505-.379,4.778,4.778,0,0,0-1.026-.072Z" transform="translate(-0.28)" fill="#2b4392"/>
          <path d="M34.679,14.771v5.81a5.189,5.189,0,0,1-.322,2.095A2.476,2.476,0,0,1,33.172,23.8a4.864,4.864,0,0,1-2.212.441,4.869,4.869,0,0,1-2.144-.4,2.667,2.667,0,0,1-1.192-1.128,4.589,4.589,0,0,1-.4-2.14v-5.81H29.6v5.81a3.535,3.535,0,0,0,.127,1.108,1.04,1.04,0,0,0,.5.564,1.913,1.913,0,0,0,.933.208,2.125,2.125,0,0,0,1-.2,1.033,1.033,0,0,0,.514-.543,3.583,3.583,0,0,0,.126-1.132v-5.81Zm-4.765-1.026a.756.756,0,0,1-.588-.239.8.8,0,0,1,.007-1.1.756.756,0,0,1,.581-.243.879.879,0,0,1,.574.209.714.714,0,0,1,.253.584.734.734,0,0,1-.243.578A.85.85,0,0,1,29.914,13.745Zm2.283,0a.756.756,0,0,1-.588-.239.795.795,0,0,1,.01-1.1.769.769,0,0,1,.585-.243.853.853,0,0,1,.574.212.726.726,0,0,1,.246.581.734.734,0,0,1-.243.578A.85.85,0,0,1,32.2,13.745Z" transform="translate(-0.28)" fill="#2b4392"/>
          <path d="M43.941,18.243l-2.29.144q-.048-1.976-1.541-1.976-1.712,0-1.713,3.042a4.274,4.274,0,0,0,.466,2.383,1.53,1.53,0,0,0,1.3.625q1.354,0,1.657-1.764l2.119.13a3.756,3.756,0,0,1-1.248,2.547,4.182,4.182,0,0,1-5.564-.407,5.071,5.071,0,0,1-1.158-3.534,5.228,5.228,0,0,1,1.121-3.459,3.771,3.771,0,0,1,3.062-1.347Q43.517,14.627,43.941,18.243Z" transform="translate(-0.28)" fill="#2b4392"/>
          <path d="M47.346,14.771v4.383l2.925-4.383h2.092L50.122,18.1l2.8,6H50.517l-1.862-4.053-1.309,1.913V24.1H45.2V14.771Z" transform="translate(-0.28)" fill="#2b4392"/>
          <path d="M64.251,16.377l-4.714,5.94H64.4V24.1H56.868V22.516l4.7-5.982H57.183V14.771h7.068Z" transform="translate(-0.28)" fill="#2b4392"/>
          <path d="M72.974,14.771v5.81a5.189,5.189,0,0,1-.322,2.095A2.48,2.48,0,0,1,71.467,23.8a5.881,5.881,0,0,1-4.356.045,2.667,2.667,0,0,1-1.192-1.128,4.587,4.587,0,0,1-.4-2.14v-5.81H67.9v5.81a3.571,3.571,0,0,0,.126,1.108,1.038,1.038,0,0,0,.506.564,1.913,1.913,0,0,0,.933.208,2.125,2.125,0,0,0,1-.2,1.033,1.033,0,0,0,.514-.543,3.583,3.583,0,0,0,.126-1.132v-5.81Z" transform="translate(-0.28)" fill="#2b4392"/>
        </g>
      </g>
    </g>
  </g>
</svg>
