<svg xmlns="http://www.w3.org/2000/svg" viewBox="0 0 37 43.829">
  <title>Vogel</title>
  <g id="Ebene_2" data-name="Ebene 2">
    <g id="Ebene_1-2" data-name="Ebene 1">
      <g>
        <path d="M29.507,20.459a24.6,24.6,0,0,0-4.144-.929c-.3-5.157-2.571-9.335-5.529-10.38a14.559,14.559,0,0,0,.84-2.4c.685-2.629.656-5.011-.065-5.321a.624.624,0,0,0-.637.19C19.805.664,19.526.05,19.169,0c-.746-.1-1.549,2.289-1.793,5.332a18.046,18.046,0,0,0,.047,3.679c-3.2.745-5.718,5.124-6.013,10.593a24.779,24.779,0,0,0-3.917.9c-4.565,1.43-7.9,3.753-7.452,5.188.215.688,1.266,1.043,2.8,1.074a1.5,1.5,0,0,0-.029,1.313c.762,1.32,4.424.633,8.179-1.535.12-.069.231-.142.348-.213,0,.032,0,.063,0,.1,0,6.514,3.139,11.794,7.01,11.794s7.01-5.28,7.01-11.794c0-.115-.01-.225-.012-.338.22.138.438.277.67.411,3.755,2.168,7.417,2.855,8.179,1.534a1.5,1.5,0,0,0-.029-1.313c1.532-.03,2.583-.386,2.8-1.073C37.409,24.213,34.072,21.89,29.507,20.459Z" fill="#28497c"/>
        <rect x="15.561" y="37.153" width="0.846" height="6.053" fill="#28497c"/>
        <rect x="20.279" y="37.153" width="0.846" height="6.053" fill="#28497c"/>
        <ellipse cx="18.299" cy="28.229" rx="6.164" ry="7.366" fill="#28497c"/>
        <polygon points="21.633 19.083 14.652 19.083 18.143 26.183 21.633 19.083" fill="#fff"/>
        <circle cx="23.528" cy="16.123" r="5.408" fill="none" stroke="#28497c" stroke-miterlimit="10" stroke-width="0.869"/>
        <circle cx="23.528" cy="16.123" r="5.185" fill="#fff"/>
        <circle cx="23.528" cy="16.012" r="1.691" fill="#28497c"/>
        <ellipse cx="15.116" cy="43.228" rx="1.291" ry="0.512" fill="#28497c"/>
        <ellipse cx="21.57" cy="43.317" rx="1.291" ry="0.512" fill="#28497c"/>
        <ellipse cx="24.634" cy="15.433" rx="0.942" ry="0.864" fill="#fff"/>
        <circle cx="12.846" cy="16.301" r="5.408" fill="none" stroke="#28497c" stroke-miterlimit="10" stroke-width="0.869"/>
        <circle cx="12.846" cy="16.301" r="5.185" fill="#fff"/>
        <circle cx="12.846" cy="16.19" r="1.691" fill="#28497c"/>
        <ellipse cx="14.011" cy="15.433" rx="0.942" ry="0.864" fill="#fff"/>
      </g>
    </g>
  </g>
</svg>
