<svg xmlns="http://www.w3.org/2000/svg" viewBox="0 0 385.096 40.398">
  <title>B0_schweben</title>
  <g id="Ebene_2" data-name="Ebene 2">
    <g id="Ebene_1-2" data-name="Ebene 1">
      <g>
        <path d="M144.683,39.858c-13.343-.436-26.409-.875-39.474-1.266-10.017-.3-20.035-1.155-30.008-2.185-11.134-1.153-22.313-1.88-33.392-3.643-7.762-1.235-15.579-1.98-23.3-3.662A66.514,66.514,0,0,1,3.8,24.289C2.167,23.507,0,23.143,0,20.526c0-2.466,2.133-3.392,3.575-4.076a60.556,60.556,0,0,1,15.872-4.834c5.475-.933,10.924-2.026,16.43-2.78,6.581-.9,13.155-1.884,19.754-2.619,7.694-.858,15.41-1.528,23.124-2.194,2.907-.251,5.842-.353,8.744-.478,7.668-.331,15.308-1.06,22.985-1.321,10.6-.36,21.216-.6,31.8-1.135,8.237-.42,16.472.071,24.67-.483C182.083-.415,197.212.139,212.331.245c8.673.062,17.371.134,26.041.5C249.249,1.2,260.135,1.4,271,1.9c9.733.446,19.48,1.031,29.2,1.936,4.155.387,8.389.545,12.582.779,6.173.345,12.312,1.282,18.473,1.9s12.294,1.416,18.42,2.364c6.844,1.059,13.647,2.3,20.441,3.617a37.209,37.209,0,0,1,12.48,4.617c3.4,2.076,3.324,4.739-.211,6.627-4.669,2.491-9.567,4.515-14.914,5-2.148.2-3.886,1.49-6.028,1.743-8.4.993-16.776,2.283-25.186,3.225-9.777,1.095-19.545,2.3-29.382,2.824-7.557.405-15.1,1.057-22.649,1.605-11.321.821-22.672.8-34,1.22-8.857.329-17.723.77-26.58.907-16.749.26-33.5.073-50.257.076-4.452,0-8.9-.335-13.356-.017-5.223.374-10.392-1.084-15.351-.461" fill="#fcfcfc"/>
        <path d="M320.34,33.779c-6.021.82-12.13-.188-18.195,1.34-2.632.663-5.806,1.266-8.754.313a1.07,1.07,0,0,0-.546-.037c-6.227,1.492-12.68.037-18.842,1.257-3.321.657-6.473.246-9.686.31-3.121.062-5.993,1.974-9.156,1.131a23.692,23.692,0,0,0-9.012-.435c-7.839.966-15.742-.33-23.5.582-18.288,2.15-36.6.717-54.885.753-5.545.011-11.228-.763-16.872-.883-3.415-.072-6.784.306-10.27-.359a24.939,24.939,0,0,0-9.826.27c-2.7.583-5.459-.821-8.046-.807-8.1.041-16.1-1.277-24.165-1.23a138.047,138.047,0,0,1-23.532-2.165c-1.7-.284-3.2.7-4.882.471-4.717-.643-9.455-1.143-14.164-1.835-3.82-.562-7.675-.93-11.469-1.562-6.8-1.134-13.694-1.913-20.256-4.283-2.815-1.016-5.821-1.43-8.322-3.332-2.757-2.1-2.973-3.476-.173-5.517,3.606-2.628,7.907-3.855,12.145-4.853,5.468-1.287,11.08-1.954,16.616-2.966,2.768-.506,5.65-.205,8.308-.714,3.517-.675,7.167-.556,10.531-1.538s6.665-.773,10.01-.949c5.355-.282,10.731-.684,16.023-1.321,3.235-.387,6.626.246,9.491-.567,4.672-1.326,9.436.976,13.97-1.2,1.195-.571,3.02.25,4.56.3,1.913.066,3.826.186,5.624-.843,1.424-.814,2.839.444,4.291.306,8.34-.8,16.753.019,25.041-.775,3.882-.373,7.78-1.071,11.658-.816,16.679,1.092,33.367.249,50.048.441,4.558.053,9.134-.912,13.692-.444,4.153.427,8.243,1.175,12.473,1.132,4.032-.041,8.057-.654,12.156.362,3.816.947,7.8-.353,11.857.462,4.341.871,9.015.7,13.464.551,4.962-.161,9.814.771,14.761.646a35.492,35.492,0,0,1,7.151.807,9.883,9.883,0,0,0,4.567-.052c2.3-.611,4.306.971,6.6,1.151,3.656.289,7.3-.076,11.044.682a71.087,71.087,0,0,0,12.581,1.618c5.969.117,11.709,1.68,17.5,2.687,6.024,1.048,12.256,2.134,17.526,5.785,3.253,2.252,3.113,3.762-.476,5.65-7.142,3.756-14.914,5.193-22.753,6.648-7.88,1.46-15.911,1.818-23.732,3.587a18.061,18.061,0,0,1-2.178.234" fill="#f8f9fe"/>
        <path d="M260.83,35.018c-18.894,1.7-27.157,1.1-35.377,1.525-20.626,1.058-41.257.417-61.88.326-6.473-.028-13,.046-19.473-.452-7.843-.6-15.711-.439-23.539-1.075-8.424-.686-16.867-1.052-25.289-1.686-7.98-.6-15.9-2-23.882-2.55a162.185,162.185,0,0,1-22.832-3.574c-4.357-.93-8.991-1.541-12.837-4.308-3.361-2.418-3.388-3.216-.314-5.518,3.731-2.8,8.117-3.259,12.284-4.245,6.717-1.588,13.585-2.6,20.429-3.571,5.117-.729,10.3-1.03,15.448-1.5,7.8-.716,15.6-1.45,23.4-2.105,3.182-.267,6.4-.506,9.561-.53,7.054-.054,14.11-.382,21.122-.79,29.224-1.7,58.464-.822,87.693-.894,10.685-.027,21.38.711,32.068,1.118,6.558.251,13.134.52,19.684,1.028,9.524.739,19.03,1.824,28.545,2.538,9.028.678,17.9,2.214,26.781,3.63,6.1.974,12.455,1.792,17.753,5.692.908.667,1.963.9,1.84,2.3a3.355,3.355,0,0,1-2.291,2.822,58.765,58.765,0,0,1-18.528,5.2c-3.492.344-6.911,1.613-10.448,2.014-6.685.759-13.385,1.394-20.059,2.233-4.622.579-9.265.738-13.9,1.089-3.812.288-7.615.9-11.426.944-3.4.037-6.776.526-10.134.57-5.039.065-10.021,1.168-4.4-.231,10.641-1.2,10.406-1.7,11.266-2.179a3.159,3.159,0,0,1,2.42-.188c3.667,1.027,7.23-.5,10.858-.582,1.982-.043,4.33-.6,6.373-.754,4.521-.337,9.029-.776,13.517-1.353,3.194-.411,6.41-1.172,9.568-1.279,3.688-.124,7.113-1.641,10.784-1.435a2.246,2.246,0,0,0,2.028-.616,2.719,2.719,0,0,1,3.624-.94,1.921,1.921,0,0,0,2.049-.472,38.691,38.691,0,0,1,4.776-3.235c1.619-.991,1.712-2.2.1-3.215-4.283-2.7-8.467-5.817-14.032-4.979a6.639,6.639,0,0,1-2.664-.57c-6.15-1.646-12.549-1.423-18.75-2.6-4.381-.829-8.818-.894-13.221-1.342-4.7-.479-9.461-.56-14.066-1.24-4.175-.617-8.353-.513-12.492-.881a198.648,198.648,0,0,0-22.025-.675c-2.039.047-3.892-.727-5.933-.76-3.961-.063-7.852.741-11.8.632a8.394,8.394,0,0,1-4.035-.667,5.328,5.328,0,0,0-2.7-.334q-23.927-.03-47.853-.008a5.439,5.439,0,0,0-3.187.605c-3.532,1.039-7.047.142-10.569-.094q-2.946-.029-5.894,0c-2.569.484-5.192.5-7.775.9a17.152,17.152,0,0,1-5.966-.039,7.621,7.621,0,0,0-5.013.416,7.489,7.489,0,0,1-4.3.185,9.65,9.65,0,0,0-3.908-.341,27.307,27.307,0,0,1-10.655.521c-1.174-.054-2.26.5-3.426.51-3.03-.307-5.929,1.427-8.993.591a4.038,4.038,0,0,0-2.381.4c-2.453.77-5.086.135-7.53.97-1.493-.217-3.031-.934-4.392.395a2.906,2.906,0,0,1-1.884.146,9.242,9.242,0,0,0-7.069,1,64.712,64.712,0,0,0-13.424,2.026,10.892,10.892,0,0,1-4.062.425c-.274-.024-.6-.189-.811-.085-3.507,1.7-7.707,1.966-10.547,5.047-1.218,1.32-1.072,2.728.728,3.547,2.858,1.3,5.405,3.5,8.9,3.153,1.687-.166,3.085,1.045,4.657,1.522,5.339,1.621,10.962,1.271,16.368,2.577a28.3,28.3,0,0,0,8.892.812c1.046-.088,1.945.481,2.92.664,4.023.754,8.156.4,12.19,1.162,4.447.834,9.031-.114,13.483,1.037a15.082,15.082,0,0,0,4.931,0,16.958,16.958,0,0,1,5.18.409,4.391,4.391,0,0,0,1.624.234c7.032-1.131,14.016,1.7,21.054.239,1.59-.33,2.864,1.055,4.511.945,3.009-.2,6.024.009,9.05-.422a19.726,19.726,0,0,1,7.926.288c4.5,1.207,9.1.344,13.65.528,6.217.251,12.462.346,18.68.017,5.181-.272,10.392.535,15.561-.776a21.953,21.953,0,0,1,7.672-.046c3.632.392,7.238.932,10.823-.479,1.585-.623,3.253.234,4.888.353,4.343.314,8.578-1.068,12.842-.844,5.051.264,10.035-.768,15.066-.323,1.272.112,2.584-.07-7.613,1.5" fill="#f2f6fe"/>
        <path d="M82.664,10.077h2.188c1.118-1.361,2.506-.825,3.857-.551,2.432-1.331,5.2-.289,7.711-1.1a2.9,2.9,0,0,0,2.2-.55c3.189.957,6.207-.975,9.365-.552,1.241.654,2.27.036,3.3-.55,3.513.286,7.037.766,10.466-.551,1.2.745,2.647-.166,3.856.551,1.942-.123,3.992.477,5.737-.977a1.813,1.813,0,0,1,1.331-.107c5.407,1.164,10.731.133,16.068-.569a13.736,13.736,0,0,0,6.059,0,55.1,55.1,0,0,0,10.274.553l.232.414a1.746,1.746,0,0,1-1.487.794c-4.852-.2-9.675.426-14.519.53-5.2.112-10.419-.24-15.609.455-3.175.425-6.39.426-9.584.676-5.738.451-11.491.714-17.237,1.125-9.4.673-18.749,1.7-28.086,3a182.569,182.569,0,0,0-19.441,3.68,15.827,15.827,0,0,0-5.537,2.358c-1.5,1.083-1.438,2.211.026,3.294a7.793,7.793,0,0,0,1.929,1.05A75.337,75.337,0,0,0,71.94,27.32c6.8.9,13.6,1.835,20.4,2.7,5.263.665,10.572.759,15.849,1.3,10.378,1.057,20.794,1.451,31.22,1.846,6.679.253,13.365.067,20.023.454,17.869,1.036,35.744.18,53.613.484,1.559.026,3.119,0,4.679-.01,8.329-.659,16.689-.253,25.011-.654,7.588-.366,15.2-.435,22.765-1.053,7.834-.639,15.655-1.487,23.5-2.046,5.94-.424,11.769-1.712,17.706-2.039a5.225,5.225,0,0,1,.911-.188,86.6,86.6,0,0,0,21.614-4.868,11.208,11.208,0,0,0,2.007-.9c.814-.476,1.584-1.035,1.571-2.086-.013-1.109-.922-1.459-1.757-1.881a36.911,36.911,0,0,0-10.167-3.328c-4.221-.755-8.326-2.292-12.712-2.042-9.731-1.732-19.568-2.481-29.4-3.393-3.557-.33-7.13-.134-10.664-.655-3.328-.754-6.746-.457-10.106-.7-7.742-.57-15.513-.931-23.3-.795-4.376.078-8.753-.636-13.151-.534a2.046,2.046,0,0,1-1.8-.857l.232-.381c4.709.357,9.364-.793,14.062-.549,3.9.2,7.832.348,11.689.924,1.837.275,3.4-.7,5.136-.391,5.4.98,10.944.19,16.32,1.252,1.441.285,2.68-.331,4.048-.171,5.22.614,10.494.7,15.7,1.261,3.96.424,7.889.918,11.88,1.022,1.774.047,3.521.924,5.3,1.022a54,54,0,0,1,6.1.773c3.15.536,6.385.182,9.471,1.129,1.877.576,3.683,1.627,5.811.731a4.19,4.19,0,0,1,2.157.219c4.234.871,7.84,3.109,11.343,5.46,2.08,1.395,1.919,2.858-.264,4.177a30.107,30.107,0,0,0-5.158,3.486c-.636.589-1.936,1.895-3.19.133a1.083,1.083,0,0,0-1.856.6,1.656,1.656,0,0,1-2.189,1.368c-2.343-1.069-4.258.435-6.289.851-2.518.516-5.318-.567-7.448.649-1.964,1.121-3.99-.084-5.919,1.138-1.076.682-3.11.513-4.524.533-2.881.039-5.637.858-8.488.814-2.656-.041-5.38.957-7.834.778-3.829-.28-7.439,1.8-11.267.557-.632-.205-2.385-1.449-2.44.868-4.774.122-9.593.381-14.31.29-4.653-.09-9.151.662-13.717.9-3.566.184-7.033-.967-10.768.261-2.66.876-5.93.267-8.965-.2a19.89,19.89,0,0,0-8.454.292c-4.633,1.315-9.393.355-14.091.579a187.98,187.98,0,0,1-18.843,0c-5.043-.265-10.108.537-15.165-.846-3.234-.885-6.757.484-10.075.273-7.922-.507-15.914.171-23.783-1.375a17.472,17.472,0,0,0-4.248.206,10.164,10.164,0,0,1-3,.124c-3.756-.979-7.782.211-11.262-.741-3.934-1.078-7.767-.115-11.692-.9-4.2-.839-8.889-.36-13.179-1.237-2.95-.6-6.011.261-8.89-1.21-1.354-.691-3.122.326-4.928-.163-2.036-.55-4.107-1.183-6.2-1.592a3.236,3.236,0,0,0-1.589.08,5.6,5.6,0,0,1-3.754-.09c-2.414-.816-4.926-1.373-7.279-2.329-1.81-.736-3.7.582-5.552-.8-1.755-1.312-4.125-1.77-6.029-2.926-1.963-1.191-1.709-3.7.4-5.047,1.372-.873,2.9-1.4,3.93-2.865a1.487,1.487,0,0,1,2.531-.021c.456.775.8.309.95.021,1.1-2.134,2.851-1.953,4.914-1.845,2.931.152,5.705-1.391,8.6-1.579,2.769-.179,5.524-1.214,8.341-.392,2.028-1.417,4.349-1.084,6.61-1.1" fill="#f0f4fe"/>
        <path d="M165.278,5.631c.194-1.361,1.257-1.094,2.127-1.094q25.14-.015,50.28,0c.87,0,1.932-.267,2.127,1.094-.639,1.342-1.894,1.333-3.077,1.3C208.87,6.713,201,6.864,193.13,6.663c-6.447-.165-12.976.18-19.47.288q-2.61.045-5.223-.015a3.5,3.5,0,0,1-3.159-1.3" fill="#f0f4fe"/>
        <path d="M340.889,23.346c1.267-1.557,1.741-3.054.619-4.814-1-1.563-3.249-1.179-4.457-3.237a22.245,22.245,0,0,1,7.05,3.546,1.973,1.973,0,0,1,.325,2.509c-.8,1.274-1.771,2.191-3.537,2" fill="#f0f4fe"/>
        <path d="M44.3,17.4c-1.578,2.243-1.874,4.284.723,6.125-2.041-.572-4.326-.95-4.58-2.926-.281-2.192,2.213-2.33,3.857-3.2" fill="#f0f4fe"/>
        <path d="M82.649,10.037l-6.61,1.1c1.865-2.395,4.23-1.8,6.61-1.1" fill="#f1f4fe"/>
        <path d="M154.811,5.117a7.187,7.187,0,0,1-6.059,0Z" fill="#f1f4fe"/>
        <path d="M88.709,9.487c-1.306.039-2.654-.212-3.857.551.5-1.345,1.379-1.47,3.857-.551" fill="#f1f4fe"/>
        <path d="M111.294,6.732c-.9,1.421-2.021,1.463-3.3.552l3.3-.552" fill="#f1f4fe"/>
        <path d="M98.624,7.834c-.557.894-1.155,1.624-2.2.551.58-.806,1.443-.473,2.2-.551" fill="#f1f4fe"/>
        <path d="M125.616,6.732c-1.28-.214-2.695.508-3.856-.551,1.281.215,2.7-.507,3.856.551" fill="#f1f4fe"/>
        <path d="M341.035,23.252c-.513.821-.978,1.167-1.725.99a1.969,1.969,0,0,1,1.725-.99" fill="#f0f4fe"/>
        <path d="M165.278,5.631a13.538,13.538,0,0,0,4.584.56c7.655-.255,15.339-.355,22.967-.31,7.916.048,15.866.021,23.794.3a5.4,5.4,0,0,0,3.189-.55c.536.69,1.307.533,2.023.549,8.727.186,17.461.213,26.179.6,6.45.289,12.879,1.036,19.347,1.105.311,0,.618.323.927.5a.569.569,0,0,1-.157.809,6.351,6.351,0,0,1-3.192.491,16.12,16.12,0,0,1-3.247-.206,14.688,14.688,0,0,0-4.6-.326,49.383,49.383,0,0,1-6.273-.176A14.644,14.644,0,0,0,246,8.609c-3.076-.1-6.159.2-9.227-.21a7.869,7.869,0,0,0-2.44-.334c-22.716-.709-45.443-.788-68.159-.381-5.729.1-11.524-.074-17.247.7-2.722.413-5.465.119-8.195.237-2.087.053-4.2-.29-6.257.308-4.452.546-8.936.1-13.419.654-7.152.891-14.356,1.462-21.535,2.076-9.415.806-18.635,2.6-27.913,4.158-2.543.426-5.058.968-7.158,2.6-1.976,1.538-1.951,2.556.045,4.086a10.179,10.179,0,0,0,4.24,1.879c6.172,1.238,12.311,2.672,18.586,3.33,8.988.942,17.925,2.341,26.944,3,.824.06,1.649.03,2.474.026,3.88.236,7.754.623,11.649.558,2.539-.12,5,.839,7.549.551q.721-.011,1.442.01a42.037,42.037,0,0,0,9.13.532,23.242,23.242,0,0,1,3.911.207c2.891.708,5.828.21,8.741.336,1.155.007,2.309-.039,3.464,0,5.155.808,10.364.22,15.536.365,7.1.2,14.264.811,21.346.078,3.555-.368,7.074.209,10.61-.344a12.759,12.759,0,0,1,7.267.91.639.639,0,0,1,.229.876c-16.063,0-32.125.1-48.187-.039q-13.269-.117-26.537-.627c-7.937-.3-15.927-.177-23.809-1.077-12.034-1.374-24.185-1.51-36.144-3.666-4.74-.854-9.7-.691-14.331-1.887-4.978-1.286-10.229-1.867-14.829-4.549-1.193-.7-2.325-1.44-2.38-2.716-.06-1.4,1.319-2.053,2.44-2.7,4.378-2.535,9.366-3.126,14.161-4.073,6.686-1.321,13.534-1.806,20.262-2.946,7.015-1.188,14.119-1.294,21.169-1.979,6.433-.626,12.955-.587,19.4-1.319a167.846,167.846,0,0,1,19.421-.727c4.739.013,9.444-.937,14.185-.371.935.111,2.038.385,2.852-.517" fill="#ebf0fe"/>
        <path d="M268.245,8.837V8.294a281.065,281.065,0,0,1,40.212,3.856c4.046.976,8.132,1.769,12.181,2.732a19.56,19.56,0,0,1,5.35,2.066c2.975,1.736,3.06,4.649.209,6.566-2.545,1.71-5.627,2-8.46,2.948-3.2,1.069-6.682.9-9.831,2.214h-.55c-.923-.335-2.051.392-2.858-.55.16-1.839,1.647-1.6,2.853-1.847a57.906,57.906,0,0,0,13.065-4c.874-.405,2-.817,2.015-2.022.01-1.257-1.241-1.4-2.057-1.937-3.154-2.071-6.718-2.57-10.358-3.227-6.4-1.156-12.782-2.319-19.248-3.021-2.907-.316-5.833-.493-8.712-1.054-1.531-.535-3.137-.227-4.7-.409a5.284,5.284,0,0,1-.848-.15,7.544,7.544,0,0,0-2.934-.314,16.841,16.841,0,0,1-3.934-.24,2.242,2.242,0,0,1-1.4-1.058" fill="#ebf0fe"/>
        <path d="M304.442,28.216c.928.134,1.983-.368,2.754.551-3.865.55-7.716,1.259-11.6,1.619-11.982,1.116-23.952,2.34-35.99,2.864-8.95.39-17.888,1.174-26.849.977-5.144-.113-10.229.623-15.353.6v-.551c.618-1.366,1.9-1.337,3.064-1.331,6.59.027,13.172-.059,19.745-.579,10.549-.835,21.126-1.176,31.681-2,9.864-.772,19.635-2.149,29.447-3.265,1.2-.136,2.42-.236,3.1,1.116" fill="#ebf0fe"/>
        <path d="M307.949,28.767c2.725-2.023,6.1-1.895,9.176-2.721A45.559,45.559,0,0,0,325.6,23.2c1.129-.555,2.347-1.4,2.108-2.9a3.905,3.905,0,0,0-2.521-2.993,71.709,71.709,0,0,0-14.678-3.941c-.856-.161-1.612-.257-2.006-1.128a76.728,76.728,0,0,1,23.952,5.735,2.46,2.46,0,0,1,.133,4.431,21.525,21.525,0,0,1-5.492,2.418c-6.312,1.623-12.558,3.626-19.144,3.941" fill="#ebf0fe"/>
        <path d="M304.644,28.392c-3.729-1.007-7.28.5-10.911.819-5.877.524-11.724,1.407-17.6,1.9-7.948.671-15.908,1.309-23.875,1.583-3.833.132-7.633.575-11.464.711-7.028.25-14.05.612-21.087.52a8.368,8.368,0,0,0-2.095.524c-18.358-.571-36.731.34-55.086-.551.463-1.814,2-1.267,3.13-1.288,5.079-.093,10.162-.027,15.241-.049,3.023-.048,6.052-.089,9.075,0,9.259.262,18.5-.483,27.741-.687,5.841-.128,11.708-.01,17.529-.452,12.493-.949,25.041-.894,37.5-2.555,8.8-1.172,17.675-1.707,26.389-3.569a55,55,0,0,0,9.483-2.78c.845-.347,1.869-.769,1.963-1.753.115-1.206-1.06-1.581-1.925-2.061-3.594-1.992-7.544-2.737-11.55-3.32-11.87-1.729-23.73-3.368-35.737-4.062-7.744-.448-15.484-1.107-23.241-1.433a3.079,3.079,0,0,1-2.293-.741c-.344-1.028.485-.963,1.06-1.137h9.364l4.407.414h6.61l4.407.413h3.305l4.408.413H273.8l2.754.827h.551c1.516,1.413,3.389-.389,4.958.551,5.235.553,10.5.936,15.7,1.7,6.15.908,12.248,2.171,18.377,3.232,2.481.429,4.256,2.262,6.536,3.143,1.606.621,1.29,2.562-.377,3.665a25.989,25.989,0,0,1-8.212,3.121c-2.719.688-5.305,2.01-8.241,1.753-.556-.049-.946.492-1.2,1.009" fill="#e6ecfe"/>
        <path d="M140.529,8.01h8.223c.57.173,1.4.1,1.062,1.13a2.643,2.643,0,0,1-2.016.725c-6.043.126-12.062.912-18.117.641-8.457-.459-16.784,1.015-25.156,1.771a135.227,135.227,0,0,0-16.044,2.016c-5.708,1.216-11.648,1.533-17,4.183-1.047.518-2.481.821-2.427,2.271.049,1.316,1.437,1.5,2.421,1.919,6.372,2.717,13.159,3.72,19.937,4.677,7.7,1.088,15.45,1.725,23.178,2.562,1.082.117,2.278.207,2.217,1.793-6.724-.341-13.41-1.022-20.077-1.985-6.466-.934-13.072-1.154-19.416-2.581-4.674-1.05-9.851-.835-13.906-4.2-2.149-1.782-2.212-2.958.021-4.722,3.332-2.632,7.4-2.9,11.334-3.57,6.625-1.121,13.247-2.3,19.91-3.157,6.311-.81,12.669-1.269,19.013-1.81,6.9-.589,13.793-1.478,20.748-1.111,2.033-.05,4.094.226,6.06-.552" fill="#e6ecfe"/>
        <path d="M116.8,31.433c-2.026-2.158-4.829-1.2-7.2-1.528-7.906-1.094-15.951-1.276-23.767-2.95-5.209-1.117-10.653-1.489-15.5-4.1-1.151-.618-2.542-.869-2.487-2.485.051-1.5,1.364-2.087,2.473-2.643,5.448-2.729,11.5-3.295,17.347-4.35,7.412-1.336,14.951-2.068,22.464-2.724,6.434-.562,12.85-1.613,19.348-1.257-.3,1.535-1.6,1.241-2.6,1.345-9.557.991-19.185,1.347-28.681,2.826-6.5,1.012-13.1,1.664-19.369,3.862-1.514.53-3.642.74-3.643,2.775s2.086,2.243,3.63,2.747c8.949,2.925,18.242,3.865,27.53,4.985,13,1.568,26.042,2.3,39.116,2.881,5.766.256,11.544.031,17.278.5,5.4.443,10.794.345,16.19.495.913.026,2.135-.211,2.328,1.27-5.3,0-10.592-.019-15.888.016-.959.006-2.033-.365-2.841.534h-3.305l-8.814-.413h-3.856l-9.364-.413h-1.1a15.793,15.793,0,0,0-7.712-.551L116.8,31.708" fill="#e5ebfe"/>
        <path d="M149.854,8.385a1.136,1.136,0,0,1-1.1-.551,1.716,1.716,0,0,1,1.479-.55c23.182-.769,46.376-.712,69.56-.407,4.912.064,9.864.211,14.794.411.8.032,1.677-.227,2.3.546a1.135,1.135,0,0,1-1.1.551,2.723,2.723,0,0,1-2.264.79c-5.13-.1-10.265-.126-15.39-.234-3.791-.079-7.642-.454-11.439-.02-1.782.2-3.443-.354-5.192-.295-7.149.242-14.306.134-21.455.208-8.851.092-17.7.6-26.553.362-1.259-.034-2.6.24-3.641-.811" fill="#e7edfe"/>
        <path d="M150.405,33.174c2.988-.623,5.989-1.455,8.814.551-2.931-.3-5.937.614-8.814-.551" fill="#e6ecfe"/>
        <path d="M137.184,32.623c3.17-.639,6.354-1.509,9.365.551a43.575,43.575,0,0,1-9.365-.551" fill="#e6ecfe"/>
        <path d="M128.37,32.072c2.632-.679,5.267-1.39,7.712.551-2.61.37-5.115-.74-7.712-.551" fill="#e6ecfe"/>
        <path d="M140.489,7.834c-1.926,1.215-3.923,1.654-6.06.551,1.93-1.177,4.05-.262,6.06-.551" fill="#e7edfe"/>
        <path d="M250.66,8.385c-1.543.412-3.189,1.637-4.407-.551,1.462.242,3.053-.551,4.407.551" fill="#e7edfe"/>
        <path d="M261.678,8.936c-1.5.052-3.2,1.752-4.407-.551,1.462.242,3.053-.552,4.407.551" fill="#e7edfe"/>
        <path d="M269.39,9.388c-1.431-.494-3.241,2.051-4.408-.551h3.306a1.139,1.139,0,0,1,1.1.551" fill="#e7edfe"/>
        <path d="M282.059,10.589a8.823,8.823,0,0,0-2.641.4c-.889.238-2.05.578-2.317-.949,1.646.245,3.408-.552,4.958.552" fill="#e7edfe"/>
        <path d="M276.551,10.037c-.928-.134-1.984.369-2.754-.551.927.134,1.983-.368,2.754.551" fill="#e7edfe"/>
        <path d="M149.854,8.385c28.645-.65,57.289-.509,85.934,0,.626.775,1.5.509,2.3.548,7.614.37,15.225,1.083,22.813,1.4,7.648.323,15.171,1.527,22.78,2,4.957.309,9.836,1.723,14.791,2.261a33.672,33.672,0,0,1,10.414,3.081c1.337.61,3.136,1.24,3.167,2.726.035,1.71-1.941,2.235-3.312,2.831-4.9,2.129-10.167,2.916-15.361,3.816-6.629,1.148-13.373,1.532-20.048,2.35-11.053,1.354-22.144,1.642-33.235,2.235-6.19.331-12.376.147-18.542.5-12.329.7-24.656,1.106-37,1.04-1.1-.006-2.2,0-3.3,0-.627-.774-1.507-.53-2.3-.545-9.873-.193-19.757-.149-29.615-.627-8.305-.4-16.621-.645-24.911-1.156-8.877-.547-17.679-2.223-26.547-3.058a124.63,124.63,0,0,1-20.028-4.056,11.2,11.2,0,0,1-2.5-1.118c-.92-.51-1.687-1.241-1.446-2.414a2.863,2.863,0,0,1,1.884-2.472c4.382-1.473,8.712-3.02,13.413-3.338,3.532-.238,6.937-1.391,10.5-1.769,7.429-.79,14.853-1.6,22.313-2.025a27.7,27.7,0,0,0,7.462-1.109c6.6.433,13.147-.583,19.729-.659.219,0,.435-.288.653-.443" fill="#e0e7fe"/>
        <path d="M195.167,31.521c-7.8,0-13.219.088-18.632-.02q-12.354-.248-24.706-.636c-10.373-.311-20.747-1.152-31.079-2.181-10.046-1-20.132-1.953-29.882-4.869-1.316-.393-2.755-.579-3.794-1.5-.656-.581-2.273-.572-1.762-2.024a3.973,3.973,0,0,1,2.435-2.329c5.881-2.529,12.18-3.03,18.367-4.051,9.451-1.556,19-2.108,28.546-2.816,8.114-.6,16.245-.718,24.361-1.135,19.525-1,39.052-.322,58.576-.4,9.863-.042,19.743.457,29.589,1.106,9.628.632,19.286,1.359,28.813,2.813,7.14,1.09,14.549,1.234,21.307,4.462a3.665,3.665,0,0,1,2.113,2.53c.236.988-.963,1.7-1.836,2.153a30.24,30.24,0,0,1-7.99,2.4,183.049,183.049,0,0,1-21.584,3.249c-10.524.856-21.035,1.8-31.59,2.285-3,.139-6.011.375-9.021.4-11.541.105-23.069,1.055-32.231.565" fill="#d7e1fe"/>
        <path d="M155.637,11.477c9.044-.6,18.113.034,27.131-.469a133.15,133.15,0,0,1,14.8-.347c12.774.712,25.589.216,38.335,1.194,10.049.77,20.1,1.63,30.115,2.96a124.456,124.456,0,0,1,15.155,3.16c1.52.4,2.661,1.275,2.808,2.547.152,1.311-1.438,1.82-2.517,2.168a92.887,92.887,0,0,1-15.079,3.337c-3.777.554-7.631.442-11.356,1.531-2.347.686-4.872.334-7.294.494-4.182.277-8.4.544-12.578.8-20.961,1.307-41.938,1.072-62.91.958-9.224-.051-18.47-.374-27.658-1.139-11.964-1-23.968-1.827-35.712-4.711-2.221-.545-4.479-.682-6.37-2.125-1.453-1.109-1.191-2.207.188-3.023a15.056,15.056,0,0,1,3.736-1.6c8.36-2.228,16.936-3.1,25.52-3.856,7.89-.692,15.79-1.258,23.686-1.88" fill="#cfdafe"/>
        <path d="M171.337,28.216c-9.883.4-19.741-.509-29.551-1.28-8.793-.692-17.713-1.376-26.222-4.226-.947-.317-1.783-.722-1.932-1.7a2.358,2.358,0,0,1,1.814-2.471c3.677-1.254,7.331-2.675,11.26-2.993,6.617-.537,13.22-1.189,19.8-2.08,3.341-.451,6.742-.405,10.1-.573,19.58-.982,39.188-.789,58.783-.54,4.452.056,8.935.37,13.408.436a1.689,1.689,0,0,1,1.478.55,2.247,2.247,0,0,1-1.4,1.02,4.8,4.8,0,0,1-2.27-.019c-2.365-.491-4.755-.138-7.134-.224-3.764-.007-7.526-.055-11.286.013-4.218.075-8.422-.519-12.61-.482-9.43.085-18.864.381-28.293.617-3.7.093-7.507-.021-11.192.791a60.411,60.411,0,0,0-13.236,1.059,12.062,12.062,0,0,1-2.122.153,10.076,10.076,0,0,0-2.755.187,3.324,3.324,0,0,1-1.121.038,2.821,2.821,0,0,0-2.636.327,3.292,3.292,0,0,1-.662.281,7.117,7.117,0,0,0-2.426.687,5.014,5.014,0,0,1-2.2.622,2.134,2.134,0,0,1-.272.019c-1.731.058-4.052-.038-4.3,1.917-.227,1.8,2.185,1.671,3.535,2.258,2.046.89,4.26.812,6.391,1.226a5.265,5.265,0,0,1,.824.2c9.233,1.273,18.544,1.623,27.806,2.522,2.462.763,5.02.1,7.507.5a2.257,2.257,0,0,1,.812.372.566.566,0,0,1,.093.792" fill="#c7d3fe"/>
        <path d="M229.368,13.893a1.137,1.137,0,0,1,1.1-.55c8.24-.2,16.331,1.3,24.491,2.014a59.654,59.654,0,0,1,14.837,3.3c.968.342,2.216.585,2.276,1.682.078,1.43-1.471,1.821-2.458,2.216a41.123,41.123,0,0,1-10.065,2.342c-10.207,1.328-20.428,2.322-30.725,2.886-17.2.942-34.389.964-51.592,1-1.931.005-3.755-.887-5.706-.565v-.552c1.049-1.039,2.4-.756,3.644-.76,7.781-.032,15.565-.168,23.341.025,8.881.22,17.728-.474,26.589-.7,4.9-.126,9.822-.686,14.717-1.177,5.405-.107,10.678-1.22,15.968-2.2a18.788,18.788,0,0,0,3.442-.916c.694-.27,1.413-.627,1.391-1.5a1.633,1.633,0,0,0-1.431-1.476c-3.648-.8-7.233-2.3-10.9-2.494-4.752-.258-9.452-.753-14.155-1.359a15.814,15.814,0,0,0-2.718-.09c-.824.035-1.944.286-2.05-1.125" fill="#c6d3fe"/>
        <path d="M229.177,13.8c3.028.887,6.226.192,9.279,1.069,3.112.894,6.422.156,9.531.685A66.446,66.446,0,0,1,260.241,18.6c.738.277,1.82.749,1.564,1.625a3.089,3.089,0,0,1-2.047,2.37c-5.536,1.576-11.3,1.951-16.9,3.186a7.648,7.648,0,0,1-2.668-.412,29.655,29.655,0,0,1-7.576.176c-.18-1.872,1.364-1.427,2.214-1.425,4.805.006,9.4-1.3,14.074-2.1a7.8,7.8,0,0,0,1.6-.436c.656-.264,1.588-.391,1.515-1.309-.057-.711-.882-.851-1.477-1.054a54.679,54.679,0,0,0-12.384-2.411c-10.832-1.079-21.694-1.547-32.583-1.854-6.5-.182-13.019-.67-19.483-.29-9.856.579-19.764.049-29.583,1.439-1.767.25-3.659.5-5.39-.431-.4-1.64,1.021-1.01,1.638-1.2.818-.258,1.752.516,2.606-.122,4.185-1.1,8.51-.38,12.757-1.014a46.946,46.946,0,0,1,9.313-.057c4.941.261,9.828-.766,14.743-.55,9.21.4,18.419.647,27.637.519,2.34.8,4.82-.224,7.162.551Z" fill="#c1cffe"/>
        <path d="M232.286,25.37h7.908c-2.255,1.265-4.8.5-7.2.956-3.55.672-7.257.5-10.9.7-16.913.892-33.84.454-50.762.55-2.713-.8-5.547.211-8.263-.55-6.029-.39-12.061-.755-18.089-1.175a54.053,54.053,0,0,1-10.556-1.58c1.006-1.413,2.421-1.262,3.873-1.034,1.748.276,3.446.981,5.273.643a11.139,11.139,0,0,1,3.534-.015c5.082.58,10.2.885,15.3,1.24,15.555,1.084,31.14.451,46.712.591,5.95.054,11.863-.542,17.787-.993,1.855-.141,3.854-.65,5.576.67" fill="#c2cffe"/>
        <path d="M143.245,24.911c-2.956.087-5.781-1.911-8.816-.552-1.956-.612-3.992-.9-5.964-1.459-1.289-.363-2.545-.884-2.56-2.413-.012-1.377,1.1-1.982,2.308-2.335a2.4,2.4,0,0,0,.708-.4,3.705,3.705,0,0,0,2.2-.551c.893-.314,1.994.42,2.755-.551.834-.6,1.867-.209,2.754-.785h1.1c.835-.363,1.992.647,2.754-.413h2.2c2.529-.072,5.047-.563,7.592-.125.283,1.914-1.294,1.387-2.133,1.448a86.893,86.893,0,0,0-12.924,2.22c-.928.211-2.36.226-2.3,1.451.052,1.1,1.468,1.179,2.4,1.461,1.836.559,3.789.586,5.625,1.157,1,.311,2.224.375,2.3,1.849" fill="#c1cffe"/>
        <path d="M128.921,17.749a4.647,4.647,0,0,1-.462.667c-.754.772-2.549.946-1.935,2.5a3.239,3.239,0,0,0,3.17,1.771c1.787.018,3.177,1.066,4.736,1.674a23.875,23.875,0,0,1-8.071-1.482c-1.5-.494-3.312-.946-3.173-2.673.134-1.684,2.14-1.958,3.564-2.406a7.726,7.726,0,0,1,2.171-.049" fill="#c2cffe"/>
        <path d="M150.448,15.45h-7.755a38.869,38.869,0,0,1,12.669-1.1c-1.23,1.323-3.175-.219-4.406,1.1a.357.357,0,0,1-.551,0" fill="#c2cffe"/>
        <path d="M163.074,27.114c2.746.315,5.577-.662,8.263.551-2.745-.315-5.577.662-8.263-.551" fill="#c6d3fe"/>
        <path d="M226.974,13.893c-2.378-.312-4.854.658-7.162-.55,2.377.312,4.853-.658,7.162.55" fill="#c6d3fe"/>
        <path d="M136.633,16.1c-.628,1.634-1.791.593-2.754.551.719-1.181,1.6-1.557,2.754-.551" fill="#c2cffe"/>
        <path d="M133.879,16.648c-.558,1.982-1.738.855-2.754.551.771-.92,1.826-.417,2.754-.551" fill="#c2cffe"/>
        <path d="M140.489,15.546c-.628,1.634-1.791.593-2.754.551.77-.919,1.825-.417,2.754-.551" fill="#c2cffe"/>
        <path d="M150.405,15.546h.551c9.219-.117,18.424-.816,27.617-1.293,11.725-.61,23.381.011,35.06.246a230.934,230.934,0,0,1,32.9,2.785,38.9,38.9,0,0,1,6.03,1.782,1.817,1.817,0,0,1,1.3,1.632c.04.9-.815.818-1.34,1.1-2.554,1.389-5.513,1.172-8.174,2.044-3.881,1.27-8,.451-11.866,1.616-20.121,1.477-40.279,1.314-60.42.992a189.988,189.988,0,0,1-25.874-1.989c-1.094-.169-1.953.391-2.944.447-2.248-1.946-5.207-1.361-7.782-2.153-.69-.213-1.465-.169-2.01-.732-.585-.605-2.106-.169-1.932-1.513.177-1.378,1.357-1.938,2.566-2.146,5.02-.867,9.951-2.343,15.114-2.3.4,0,.8-.338,1.2-.52" fill="#bac9fe"/>
        <path d="M168.583,15.546c13.732-1.191,27.5-.6,41.237-.425a210.416,210.416,0,0,1,26.158,2c3.114.432,5.965,1.82,9.119,1.848a1.658,1.658,0,0,1,1.5,1.416c.149.739-.517,1.12-1.013,1.507a4.326,4.326,0,0,1-2.068.587A173.1,173.1,0,0,1,208.8,25.462c-3.412.551-6.843.172-10.264.22-.45-1.459.732-1.343,1.5-1.449a27.583,27.583,0,0,1,4.117-.082c9.255.107,18.43-.931,27.606-1.924a11.092,11.092,0,0,0,5.423-1.727,26.227,26.227,0,0,0-9.047-2.436c-14.1-1.685-28.276-1.8-42.453-1.748-4.743.018-9.473.421-14.214.532A4.683,4.683,0,0,1,168.8,16.4a.609.609,0,0,1-.212-.85" fill="#b3c2fe"/>
        <path d="M198.381,25.461H208.85c-.814.9-1.89.531-2.854.534-8.707.027-17.424.3-26.117-.051-12.453-.5-24.951-.738-37.241-3.227a4.645,4.645,0,0,1-1.577-.361c-.838-.55-2.5-.43-2.28-1.9.18-1.215,1.47-1.2,2.544-1.552,8.9-2.9,18.139-2.809,27.31-3.361v.55c-3.15,1.3-6.515,1.514-9.841,1.851a67.734,67.734,0,0,0-8.647,1.382c-.529.124-1.221.284-1.325.843-.157.846.716.922,1.253,1.172a17.607,17.607,0,0,0,6.93,1.546c8.121.213,16.176,1.519,24.327,1.3,4.923-.136,9.828.822,14.771.54a2.748,2.748,0,0,1,2.278.735" fill="#b3c3fe"/>
        <path d="M198.329,25.461c-8.417-.184-16.842-.214-25.25-.6-6.547-.3-13.071-1.071-19.608-1.593-2.149-.171-3.929-1.424-5.992-1.887-1.084-.242-1.01-1.223-.064-1.809a6.851,6.851,0,0,1,2.476-1.157c6.223-.83,12.459-1.555,18.692-2.315,6.087-.183,12.176-.332,18.262-.558,10.541-.391,21.07.3,31.58.733A66.731,66.731,0,0,1,235.687,18.8a11.144,11.144,0,0,1,3.186,1.839,13,13,0,0,1-7.079,2.5c-4.8.556-9.635.726-14.436,1.248a171.077,171.077,0,0,1-17.55.526,1.676,1.676,0,0,0-1.479.548" fill="#abbcfa"/>
        <path d="M192.491,24.226c-7.366.689-14.666-.243-21.974-.518a59.972,59.972,0,0,1-14.3-2.049c-.7-.2-1.61-.124-1.708-1.043-.116-1.078.918-1.372,1.645-1.533a64.985,64.985,0,0,1,7.253-1.3,313.19,313.19,0,0,1,32.882-1.167c10.513.025,20.984.375,31.364,2.214.967.171,1.869.243,2.013,1.416.186,1.511-1.164,1.6-2.011,1.738a101.407,101.407,0,0,1-12.976,1.738c-7.405.213-14.793,1.185-22.187.5" fill="#a6b5ef"/>
        <path d="M198.394,23.3H186.761c-4.438-.548-8.928-.169-13.37-.794a19.05,19.05,0,0,1-4.563-.825c-.715-.285-1.44-.584-1.379-1.458s.8-1.191,1.564-1.276c2.726-.3,5.42-.857,8.18-.893,1.536-.02,3.1.325,4.61-.263a148.7,148.7,0,0,1,22.1.157c3.258.332,6.567.027,9.815.66.531.1,1.08.155,1.621.244.96.157,1.878.458,1.924,1.575.056,1.353-1.084,1.624-2.075,1.7-4.268.311-8.5,1.114-12.809.922-1.338-.06-2.732-.341-4.046.254" fill="#9dace2"/>
        <path d="M198.329,23.258c.626-.772,1.509-.568,2.3-.537a80.745,80.745,0,0,0,14.424-1.106c.741-.1,1.626-.069,1.747-.96.155-1.146-.91-1.253-1.675-1.386-2.144-.374-4.3-.758-6.461-.947-8.939-.782-17.9-.548-26.862-.573.222-.154.444-.447.663-.445,7.321.061,14.635-.426,21.966.282,4.623.446,9.31.235,13.889,1.255,1.371.3,3.633.231,3.626,1.6-.008,1.608-2.347,1.424-3.667,1.631a107.716,107.716,0,0,1-19.951,1.188" fill="#a2b1e9"/>
        <path d="M181.8,17.749c-2.943,1.163-6.11.273-9.135,1.026-1.631.406-3.386.294-4.829,1.374a6.8,6.8,0,0,0,5.125,1.951c4.017.162,8,.967,12.043.617a1.785,1.785,0,0,1,1.754.541,121.754,121.754,0,0,1-19.384-1.089,11.6,11.6,0,0,1-5.025-1.927c6.622-2.6,13.039-2.528,19.451-2.493" fill="#a2b1e9"/>
        <path d="M173.356,20.2c1.671-1.364,3.761-1.053,5.5-1.194,7.524-.607,15.065-1.313,22.636-.239,2.593.367,5.279,0,7.879.639.645.156,1.367.255,1.381,1.045.016.972-.794,1.088-1.551,1.147a188.256,188.256,0,0,1-32.511-.051,5.491,5.491,0,0,1-3.335-1.347" fill="#97a5d8"/>
        <path d="M181.289,20.288a74.269,74.269,0,0,1,22.518-.052,48.515,48.515,0,0,1-22.518.052" fill="#8f9ace"/>
      </g>
    </g>
  </g>
</svg>
