<svg xmlns="http://www.w3.org/2000/svg" viewBox="0 0 212.376 43.999">
  <title>B0_teachUOS</title>
  <g id="Ebene_2" data-name="Ebene 2">
    <g id="Ebene_1-2" data-name="Ebene 1">
      <g>
        <g>
          <path d="M2.5,6.786l2.938-.281V10.9H8.453v2.625H5.438v6.958a19.953,19.953,0,0,0,.093,2.442,1.534,1.534,0,0,0,.563.983,2.49,2.49,0,0,0,1.562.382,9.008,9.008,0,0,0,1.313-.109v2.607a11.6,11.6,0,0,1-2.438.283,4.68,4.68,0,0,1-2.8-.711A3.133,3.133,0,0,1,2.5,24.427a18.925,18.925,0,0,1-.266-3.719V13.521H.188V10.9h2.14Z" transform="translate(-0.188 -2.828)"/>
          <path d="M22.266,19.271H13.344q0,3.193.865,4.26A2.684,2.684,0,0,0,16.383,24.6q2.181,0,2.758-2.938l2.984.391q-1.171,5.016-5.844,5.015a5.631,5.631,0,0,1-4.562-2.046,9.175,9.175,0,0,1-1.7-6,10.063,10.063,0,0,1,1.718-6.282,5.516,5.516,0,0,1,4.594-2.218,5.231,5.231,0,0,1,3.391,1.109,5.9,5.9,0,0,1,1.937,2.914A17.262,17.262,0,0,1,22.266,19.271Zm-3.328-2.2q0-4.172-2.719-4.171-2.547,0-2.8,4.171Z" transform="translate(-0.188 -2.828)"/>
          <path d="M27.906,15.364l-3.14-.39a4.711,4.711,0,0,1,1.942-3.282,6.679,6.679,0,0,1,4-1.171,6.016,6.016,0,0,1,3.393.851A3.641,3.641,0,0,1,35.7,13.4a14.148,14.148,0,0,1,.328,3.546v5.375a21.322,21.322,0,0,0,.282,4.36H33.234a12.427,12.427,0,0,1-.2-2.625A4.734,4.734,0,0,1,28.6,27.067,4.3,4.3,0,0,1,25.4,25.841a4.545,4.545,0,0,1-1.208-3.336,5.062,5.062,0,0,1,1.77-4.078q1.77-1.5,6.137-1.5.218,0,.686.015V16.3a5.119,5.119,0,0,0-.506-2.547,1.927,1.927,0,0,0-1.814-.859Q28.327,12.9,27.906,15.364Zm4.875,3.625c-.416-.041-.732-.062-.95-.062q-4.238,0-4.237,3.328,0,2.423,2.1,2.422a2.637,2.637,0,0,0,2.157-1.313,6.156,6.156,0,0,0,.927-3.609Z" transform="translate(-0.188 -2.828)"/>
          <path d="M50.625,16.208l-3.141.344a5.758,5.758,0,0,0-.8-2.758,1.935,1.935,0,0,0-1.594-.7,2.2,2.2,0,0,0-2.11,1.336,11.726,11.726,0,0,0-.656,4.695q0,5.25,2.766,5.25,2.124,0,2.39-3.422l3.141.281q-.642,5.829-5.766,5.828a5.026,5.026,0,0,1-4.492-2.187,10.792,10.792,0,0,1-1.461-6.047,10.274,10.274,0,0,1,1.578-6.187,5.366,5.366,0,0,1,4.594-2.125Q49.936,10.521,50.625,16.208Z" transform="translate(-0.188 -2.828)"/>
          <path d="M53.047,5.349H56.3v7.64a3.853,3.853,0,0,1,3.773-2.468,4.018,4.018,0,0,1,2.293.625,3.275,3.275,0,0,1,1.3,1.664,13.774,13.774,0,0,1,.368,3.929v9.938h-3.25V16.751q0-2.466-.564-3.036a1.888,1.888,0,0,0-1.4-.569q-2.523,0-2.524,4.51v9.021h-3.25Z" transform="translate(-0.188 -2.828)"/>
        </g>
        <g>
          <path d="M84,3.359V20.265a29.357,29.357,0,0,1-.187,4.039A5.489,5.489,0,0,1,82.7,26.7a5.769,5.769,0,0,1-2.429,1.859,9.152,9.152,0,0,1-3.555.633,9.994,9.994,0,0,1-4-.75,6.017,6.017,0,0,1-2.594-1.953,5.4,5.4,0,0,1-1.016-2.539q-.158-1.337-.156-5.617V3.359h6.578V22.328a7.429,7.429,0,0,0,.18,2.117.7.7,0,0,0,.727.461.761.761,0,0,0,.8-.508,9.484,9.484,0,0,0,.18-2.4V3.359Z" transform="translate(-0.188 -2.828)" fill="#2b4392"/>
          <path d="M101.574,18.171q0,3.813-.179,5.4a6.046,6.046,0,0,1-3.68,4.914,9.3,9.3,0,0,1-3.75.7,9.542,9.542,0,0,1-3.649-.664,6.082,6.082,0,0,1-3.773-4.883,53.358,53.358,0,0,1-.188-5.469V13.843q0-3.812.18-5.4a6.043,6.043,0,0,1,3.68-4.914,9.289,9.289,0,0,1,3.75-.7,9.525,9.525,0,0,1,3.648.664,6.08,6.08,0,0,1,3.774,4.883,53.445,53.445,0,0,1,.187,5.468ZM95,9.859A7.89,7.89,0,0,0,94.8,7.6.779.779,0,0,0,94,7.109a.9.9,0,0,0-.789.4,5.623,5.623,0,0,0-.273,2.352V21.671a11.563,11.563,0,0,0,.179,2.719.783.783,0,0,0,.836.516.811.811,0,0,0,.86-.594A12.517,12.517,0,0,0,95,21.484Z" transform="translate(-0.188 -2.828)" fill="#2b4392"/>
          <path d="M117.965,11.015h-6.11V9.14a3.685,3.685,0,0,0-.234-1.672.864.864,0,0,0-.781-.359,1,1,0,0,0-.9.485,2.812,2.812,0,0,0-.3,1.469,4.162,4.162,0,0,0,.342,1.908,4.968,4.968,0,0,0,1.859,1.547q4.392,2.605,5.533,4.278t1.141,5.391a9.452,9.452,0,0,1-.633,3.984,4.959,4.959,0,0,1-2.445,2.149,9.681,9.681,0,0,1-4.219.867,9.423,9.423,0,0,1-4.508-1,4.892,4.892,0,0,1-2.445-2.547,13.011,13.011,0,0,1-.578-4.39V19.593h6.109v3.078a4.052,4.052,0,0,0,.258,1.829,1,1,0,0,0,.914.406,1.071,1.071,0,0,0,.976-.516,2.947,2.947,0,0,0,.321-1.531,4.741,4.741,0,0,0-.61-2.922,19.535,19.535,0,0,0-3.078-2.3,30.1,30.1,0,0,1-3.25-2.359A5.51,5.51,0,0,1,104,13.25a8.92,8.92,0,0,1-.524-3.313,9.175,9.175,0,0,1,.743-4.25,5,5,0,0,1,2.4-2.1,9.587,9.587,0,0,1,4-.757,10.426,10.426,0,0,1,4.367.828,4.573,4.573,0,0,1,2.391,2.086,11.036,11.036,0,0,1,.586,4.273Z" transform="translate(-0.188 -2.828)" fill="#2b4392"/>
        </g>
        <g>
          <path d="M37.42,44.892h1.559v1.764H37.42Z" transform="translate(-0.188 -2.828)" fill="#4b7dcf"/>
          <path d="M40.763,44.892h1.558v1.764H40.763Z" transform="translate(-0.188 -2.828)" fill="#4b7dcf"/>
          <path d="M44.105,44.892h1.559v1.764H44.105Z" transform="translate(-0.188 -2.828)" fill="#4b7dcf"/>
          <path d="M47.455,37.325h2.823a5.82,5.82,0,0,1,1.62.171,1.723,1.723,0,0,1,.937.762,2.594,2.594,0,0,1,.383,1.439,1.968,1.968,0,0,1-1.388,2.044,2.227,2.227,0,0,1,1.675,2.344,2.686,2.686,0,0,1-.659,1.8,3.259,3.259,0,0,1-2.527.769H47.455Zm1.511,3.869h.977a1.8,1.8,0,0,0,1.361-.38,1.448,1.448,0,0,0,.328-.981,1.227,1.227,0,0,0-.376-1.008,1.837,1.837,0,0,0-1.162-.3H48.966Zm0,4.224H50.21q1.71,0,1.709-1.51a1.665,1.665,0,0,0-.362-1.053,1.821,1.821,0,0,0-1.477-.465H48.966Z" transform="translate(-0.188 -2.828)" fill="#4b7dcf"/>
          <path d="M55.084,37.325h1.545V45.35h3.3v1.306H55.084Z" transform="translate(-0.188 -2.828)" fill="#4b7dcf"/>
          <path d="M60.806,37.325h1.545v9.331H60.806Z" transform="translate(-0.188 -2.828)" fill="#4b7dcf"/>
          <path d="M68.831,43.518l1.422.2q-.438,3.111-3.052,3.111a2.8,2.8,0,0,1-2.534-1.306,6.424,6.424,0,0,1-.833-3.493,6.258,6.258,0,0,1,.881-3.616,2.91,2.91,0,0,1,2.541-1.258q2.566,0,3.011,3.185l-1.436.212q-.233-2.118-1.569-2.119-1.788,0-1.787,3.685,0,3.431,1.787,3.431a1.2,1.2,0,0,0,1.068-.523A3.754,3.754,0,0,0,68.831,43.518Z" transform="translate(-0.188 -2.828)" fill="#4b7dcf"/>
          <path d="M71.531,37.325h1.545v4.45l2.816-4.45h1.634L75.12,40.75l2.817,5.906H76.263l-2.088-4.634-1.1,1.571v3.063H71.531Z" transform="translate(-0.188 -2.828)" fill="#4b7dcf"/>
          <path d="M81.3,37.325h1.545v9.331H81.3Z" transform="translate(-0.188 -2.828)" fill="#4b7dcf"/>
          <path d="M84.588,37.325h1.82l3.068,6.726V37.325h1.292v9.331H89.325L85.88,39.184v7.472H84.588Z" transform="translate(-0.188 -2.828)" fill="#4b7dcf"/>
          <path d="M95.115,37.325h2.1a4.774,4.774,0,0,1,2.439.54,3.379,3.379,0,0,1,1.382,1.606,5.809,5.809,0,0,1,.469,2.365,6.605,6.605,0,0,1-.421,2.437A3.911,3.911,0,0,1,99.8,46a4.018,4.018,0,0,1-2.467.656H95.115Zm1.545,1.237v6.856h.645a2.169,2.169,0,0,0,1.959-.933,4.5,4.5,0,0,0,.609-2.491q0-3.432-2.568-3.432Z" transform="translate(-0.188 -2.828)" fill="#4b7dcf"/>
          <path d="M102.983,37.325h1.545v9.331h-1.545Z" transform="translate(-0.188 -2.828)" fill="#4b7dcf"/>
          <path d="M106.319,37.325h5.346v1.237h-3.8v2.666h2.981v1.244h-2.981v2.919h3.863v1.265h-5.408Z" transform="translate(-0.188 -2.828)" fill="#4b7dcf"/>
          <path d="M115.37,37.325h1.545V45.35h3.3v1.306H115.37Z" transform="translate(-0.188 -2.828)" fill="#4b7dcf"/>
          <path d="M121.092,37.325h5.346v1.237h-3.8v2.666h2.98v1.244h-2.98v2.919H126.5v1.265h-5.407Z" transform="translate(-0.188 -2.828)" fill="#4b7dcf"/>
          <path d="M127.531,37.325h1.545v3.869h2.748V37.325h1.545v9.331h-1.545V42.5h-2.748v4.156h-1.545Z" transform="translate(-0.188 -2.828)" fill="#4b7dcf"/>
          <path d="M135.16,37.325h2.81a3.165,3.165,0,0,1,2.249.69A2.614,2.614,0,0,1,140.943,40a2.514,2.514,0,0,1-1.428,2.44l1.77,4.218h-1.676l-1.45-3.9h-1.454v3.9H135.16Zm1.545,1.2v3.042h1.183a1.447,1.447,0,0,0,1.165-.438,1.7,1.7,0,0,0,.373-1.141q0-1.462-1.525-1.463Z" transform="translate(-0.188 -2.828)" fill="#4b7dcf"/>
          <path d="M144.3,37.325h1.732l2.505,9.331h-1.563l-.586-2.338h-2.737l-.58,2.338H141.6Zm1.783,5.776-1.07-4.272-1.06,4.272Z" transform="translate(-0.188 -2.828)" fill="#4b7dcf"/>
          <path d="M149.434,37.325h2.291l1.861,6.726,1.91-6.726h2.195v9.331h-1.449V38.692l-2.218,7.964H152.9l-2.176-7.971v7.971h-1.292Z" transform="translate(-0.188 -2.828)" fill="#4b7dcf"/>
          <path d="M158.361,37.325h5.7v1.312h-2.085v8.019h-1.545V38.637h-2.072Z" transform="translate(-0.188 -2.828)" fill="#4b7dcf"/>
          <path d="M170.5,39.41l-1.319.458a2.493,2.493,0,0,0-.613-1.1,1.458,1.458,0,0,0-1.035-.354,1.213,1.213,0,0,0-.939.36,1.183,1.183,0,0,0-.332.826,1,1,0,0,0,.373.82,6,6,0,0,0,1.486.729,8.4,8.4,0,0,1,1.463.69A2.49,2.49,0,0,1,170.734,44a2.727,2.727,0,0,1-.83,2,3.157,3.157,0,0,1-2.328.827,3.018,3.018,0,0,1-3.2-2.612l1.381-.389a1.841,1.841,0,0,0,1.887,1.722,1.531,1.531,0,0,0,1.13-.386,1.293,1.293,0,0,0,.387-.954,1.266,1.266,0,0,0-.266-.772,3.193,3.193,0,0,0-1.327-.759,11.149,11.149,0,0,1-1.616-.718,2.533,2.533,0,0,1-1.193-2.173,2.518,2.518,0,0,1,.775-1.873,2.824,2.824,0,0,1,2.062-.759A2.772,2.772,0,0,1,170.5,39.41Z" transform="translate(-0.188 -2.828)" fill="#4b7dcf"/>
          <path d="M172.1,37.325h5.181v1.237h-3.637v2.789h2.913v1.237h-2.913v4.068H172.1Z" transform="translate(-0.188 -2.828)" fill="#4b7dcf"/>
          <path d="M179.814,37.325h1.731l2.506,9.331h-1.565l-.585-2.338h-2.735l-.58,2.338h-1.474Zm-.924-1.634a.664.664,0,0,1,.221-.506.748.748,0,0,1,.524-.205.764.764,0,0,1,.519.2.651.651,0,0,1,.226.513.622.622,0,0,1-.233.5.778.778,0,0,1-.512.2.8.8,0,0,1-.51-.191A.624.624,0,0,1,178.89,35.691ZM181.6,43.1l-1.07-4.272-1.06,4.272Zm-.534-7.41a.671.671,0,0,1,.222-.5.767.767,0,0,1,1.047,0,.665.665,0,0,1,.222.506.622.622,0,0,1-.233.506.789.789,0,0,1-.512.191.778.778,0,0,1-.513-.2A.625.625,0,0,1,181.063,35.691Z" transform="translate(-0.188 -2.828)" fill="#4b7dcf"/>
          <path d="M189.67,43.518l1.422.2q-.437,3.111-3.053,3.111a2.8,2.8,0,0,1-2.533-1.306,6.433,6.433,0,0,1-.833-3.493,6.266,6.266,0,0,1,.881-3.616,2.909,2.909,0,0,1,2.54-1.258q2.568,0,3.011,3.185l-1.435.212q-.231-2.118-1.568-2.119-1.79,0-1.789,3.685,0,3.431,1.789,3.431a1.2,1.2,0,0,0,1.066-.523A3.738,3.738,0,0,0,189.67,43.518Z" transform="translate(-0.188 -2.828)" fill="#4b7dcf"/>
          <path d="M192.37,37.325h1.545v3.869h2.748V37.325h1.545v9.331h-1.545V42.5h-2.748v4.156H192.37Z" transform="translate(-0.188 -2.828)" fill="#4b7dcf"/>
          <path d="M200,37.325h5.346v1.237h-3.8v2.666h2.98v1.244h-2.98v2.919h3.862v1.265H200Z" transform="translate(-0.188 -2.828)" fill="#4b7dcf"/>
          <path d="M206.438,37.325h2.81a3.165,3.165,0,0,1,2.249.69A2.611,2.611,0,0,1,212.222,40a2.513,2.513,0,0,1-1.429,2.44l1.77,4.218h-1.675l-1.45-3.9h-1.455v3.9h-1.545Zm1.545,1.2v3.042h1.183a1.449,1.449,0,0,0,1.166-.438,1.7,1.7,0,0,0,.372-1.141q0-1.462-1.524-1.463Z" transform="translate(-0.188 -2.828)" fill="#4b7dcf"/>
        </g>
      </g>
    </g>
  </g>
</svg>
