<?xml version="1.0" encoding="UTF-8" standalone="no"?>
<svg
   xmlns:dc="http://purl.org/dc/elements/1.1/"
   xmlns:cc="http://creativecommons.org/ns#"
   xmlns:rdf="http://www.w3.org/1999/02/22-rdf-syntax-ns#"
   xmlns:svg="http://www.w3.org/2000/svg"
   xmlns="http://www.w3.org/2000/svg"
   xmlns:xlink="http://www.w3.org/1999/xlink"
   xmlns:sodipodi="http://sodipodi.sourceforge.net/DTD/sodipodi-0.dtd"
   xmlns:inkscape="http://www.inkscape.org/namespaces/inkscape"
   viewBox="0 0 99.6 89"
   version="1.1"
   id="svg1361"
   sodipodi:docname="B3_musik_hover.svg"
   inkscape:version="0.92.4 (5da689c313, 2019-01-14)">
  <metadata
     id="metadata1365">
    <rdf:RDF>
      <cc:Work
         rdf:about="">
        <dc:format>image/svg+xml</dc:format>
        <dc:type
           rdf:resource="http://purl.org/dc/dcmitype/StillImage" />
        <dc:title>C1_faq</dc:title>
      </cc:Work>
    </rdf:RDF>
  </metadata>
  <sodipodi:namedview
     pagecolor="#ffffff"
     bordercolor="#666666"
     borderopacity="1"
     objecttolerance="10"
     gridtolerance="10"
     guidetolerance="10"
     inkscape:pageopacity="0"
     inkscape:pageshadow="2"
     inkscape:window-width="1920"
     inkscape:window-height="1018"
     id="namedview1363"
     showgrid="false"
     inkscape:zoom="3"
     inkscape:cx="34.574997"
     inkscape:cy="44.5"
     inkscape:window-x="1912"
     inkscape:window-y="-8"
     inkscape:window-maximized="1"
     inkscape:current-layer="Ebene_1-28" />
  <defs
     id="defs1103">
    <clipPath
       id="clip-path"
       transform="translate(0.05)">
      <rect
         x="3.193"
         y="3.073"
         width="92.076"
         height="79.376"
         rx="7.091"
         fill="none"
         id="rect1091" />
    </clipPath>
    <clipPath
       id="clip-path-2"
       transform="translate(0.05)">
      <rect
         x="0.307"
         y="0.186"
         width="97.848"
         height="85.146"
         fill="none"
         id="rect1094" />
    </clipPath>
    <clipPath
       id="clip-path-4"
       transform="translate(0.05)">
      <rect
         x="2.893"
         y="3.07"
         width="92.076"
         height="79.376"
         rx="7.091"
         fill="none"
         id="rect1097" />
    </clipPath>
    <clipPath
       id="clip-path-5"
       transform="translate(0.05)">
      <rect
         x="0.007"
         y="0.183"
         width="97.848"
         height="85.146"
         fill="none"
         id="rect1100" />
    </clipPath>
    <linearGradient
       gradientTransform="matrix(0.80065364,0,0,0.80941636,0.26060764,-0.46404563)"
       inkscape:collect="always"
       xlink:href="#linearGradient1175"
       id="linearGradient1177"
       x1="103.59147"
       y1="88.713524"
       x2="13.732"
       y2="13.404"
       gradientUnits="userSpaceOnUse" />
    <clipPath
       id="clip-path-9"
       transform="translate(0.33)">
      <rect
         style="fill:none"
         x="3.1930001"
         y="3.073"
         width="92.075996"
         height="79.375999"
         rx="7.0910001"
         id="rect11685" />
    </clipPath>
    <clipPath
       id="clip-path-2-6"
       transform="translate(0.33)">
      <rect
         style="fill:none"
         x="0.30700001"
         y="0.186"
         width="97.848"
         height="85.146004"
         id="rect11688" />
    </clipPath>
    <clipPath
       id="clipPath2315"
       transform="translate(0.33)">
      <rect
         style="fill:none"
         x="0.30700001"
         y="0.186"
         width="97.848"
         height="85.146004"
         id="rect2313" />
    </clipPath>
    <clipPath
       id="clip-path-4-5"
       transform="translate(0.33)">
      <rect
         style="fill:none"
         x="2.8929999"
         y="3.0699999"
         width="92.075996"
         height="79.375999"
         rx="7.0910001"
         id="rect11691" />
    </clipPath>
    <clipPath
       id="clip-path-5-5"
       transform="translate(0.33)">
      <rect
         style="fill:none"
         x="0.0070000002"
         y="0.183"
         width="97.848"
         height="85.146004"
         id="rect11694" />
    </clipPath>
    <clipPath
       id="clipPath2323"
       transform="translate(0.33)">
      <rect
         style="fill:none"
         x="0.0070000002"
         y="0.183"
         width="97.848"
         height="85.146004"
         id="rect2321" />
    </clipPath>
    <clipPath
       id="clip-path-7"
       transform="translate(0.157)">
      <rect
         style="fill:none"
         x="64.392998"
         y="52.728001"
         width="25.861"
         height="25.861"
         id="rect3429" />
    </clipPath>
    <linearGradient
       inkscape:collect="always"
       id="linearGradient1175">
      <stop
         style="stop-color:#2d528b;stop-opacity:1"
         offset="0"
         id="stop1171-0" />
      <stop
         style="stop-color:#385f9c;stop-opacity:1"
         offset="1"
         id="stop1173-3" />
    </linearGradient>
  </defs>
  <title
     id="title1105">C1_faq</title>
  <rect
     x="0.60000002"
     width="99"
     height="89"
     id="rect1107"
     y="0"
     style="isolation:isolate;fill:#ffffff" />
  <g
     id="g1213"
     style="opacity:0.3;isolation:isolate;mix-blend-mode:multiply"
     transform="matrix(0.98414881,0,0,0.98215347,1.5453956,1.5520417)">
    <path
       style="fill:#ffffff"
       inkscape:connector-curvature="0"
       id="path1109"
       transform="translate(0.05)"
       d="m 97.444,78.891 c 0,4.44 -3.984,8.044 -8.9,8.046 l -74.888,0.029 c -4.917,0 -8.9,-3.6 -8.9,-8.039 L 4.729,11.248 c 0,-4.444 3.98,-8.047 8.9,-8.048 L 88.517,3.17 c 4.913,0 8.9,3.6 8.9,8.042 z" />
    <path
       style="fill:#fefeff"
       inkscape:connector-curvature="0"
       id="path1111"
       transform="translate(0.05)"
       d="m 97.379,78.829 c 0,4.437 -3.982,8.038 -8.894,8.04 L 13.621,86.9 c -4.916,0 -8.9,-3.6 -8.9,-8.033 L 4.694,11.241 c 0,-4.438 3.94,-8.036 8.859,-8.045 l 74.9,-0.026 c 4.912,0 8.9,3.6 8.9,8.035 z" />
    <path
       style="fill:#fdfdff"
       inkscape:connector-curvature="0"
       id="path1113"
       transform="translate(0.05)"
       d="m 97.315,78.768 c 0,4.433 -3.981,8.031 -8.891,8.033 l -74.841,0.03 c -4.914,0 -8.9,-3.594 -8.9,-8.027 L 4.659,11.235 c 0,-4.432 3.9,-8.027 8.821,-8.042 L 88.391,3.17 c 4.91,0 8.9,3.592 8.9,8.029 z" />
    <path
       style="fill:#fcfcff"
       inkscape:connector-curvature="0"
       id="path1115"
       transform="translate(0.05)"
       d="m 97.251,78.707 c 0,4.429 -3.98,8.025 -8.889,8.026 l -74.817,0.03 c -4.913,0 -8.893,-3.591 -8.895,-8.02 L 4.623,11.228 c 0,-4.426 3.862,-8.016 8.784,-8.039 L 88.329,3.17 c 4.909,0 8.893,3.589 8.9,8.022 z" />
    <path
       style="fill:#fcfcff"
       inkscape:connector-curvature="0"
       id="path1117"
       transform="translate(0.05)"
       d="m 97.186,78.645 c 0,4.426 -3.979,8.019 -8.886,8.021 L 13.507,86.7 C 8.596,86.7 4.616,83.112 4.615,78.686 L 4.588,11.222 C 4.6,6.8 8.411,3.215 13.334,3.186 L 88.267,3.171 c 4.908,0 8.891,3.586 8.893,8.015 z" />
    <path
       style="fill:#fbfbff"
       inkscape:connector-curvature="0"
       id="path1119"
       transform="translate(0.05)"
       d="m 97.122,78.584 c 0,4.422 -3.978,8.012 -8.883,8.014 L 13.468,86.627 C 8.56,86.627 4.581,83.042 4.579,78.62 L 4.553,11.22 c 0.009,-4.415 3.783,-8 8.708,-8.033 L 88.206,3.176 c 4.906,0 8.888,3.583 8.889,8.008 z" />
    <path
       style="fill:#fafaff"
       inkscape:connector-curvature="0"
       id="path1121"
       transform="translate(0.05)"
       d="m 97.057,78.522 c 0,4.419 -3.976,8.006 -8.88,8.008 L 13.43,86.559 c -4.907,0 -8.884,-3.582 -8.886,-8 L 4.518,11.209 c 0.01,-4.41 3.744,-7.987 8.67,-8.03 L 88.144,3.171 c 4.9,0 8.885,3.58 8.887,8 z" />
    <path
       style="fill:#f9f9ff"
       inkscape:connector-curvature="0"
       id="path1123"
       transform="translate(0.05)"
       d="m 96.993,78.461 c 0,4.415 -3.975,8 -8.878,8 L 13.392,86.49 c -4.9,0 -8.881,-3.579 -8.883,-7.994 L 4.482,11.2 c 0.013,-4.4 3.7,-7.976 8.633,-8.027 h 74.968 c 4.9,0 8.882,3.577 8.883,8 z" />
    <path
       style="fill:#f8f8ff"
       inkscape:connector-curvature="0"
       id="path1125"
       transform="translate(0.05)"
       d="m 96.929,78.4 c 0,4.412 -3.974,7.993 -8.875,8 l -74.7,0.029 c -4.9,0 -8.879,-3.576 -8.88,-7.988 L 4.447,11.2 C 4.462,6.8 8.113,3.233 13.042,3.176 h 74.979 c 4.9,0 8.879,3.574 8.881,7.989 z" />
    <path
       style="fill:#f7f7fe"
       inkscape:connector-curvature="0"
       id="path1127"
       transform="translate(0.05)"
       d="m 96.864,78.338 c 0,4.408 -3.972,7.986 -8.872,7.988 l -74.676,0.029 c -4.9,0 -8.876,-3.573 -8.878,-7.981 L 4.412,11.189 C 4.429,6.8 8.038,3.232 12.969,3.168 h 74.99 c 4.9,0 8.877,3.571 8.879,7.982 z" />
    <path
       style="fill:#f7f7fe"
       inkscape:connector-curvature="0"
       id="path1129"
       transform="translate(0.05)"
       d="m 96.8,78.276 c 0,4.405 -3.971,7.98 -8.87,7.982 l -74.652,0.029 c -4.9,0 -8.873,-3.57 -8.875,-7.975 L 4.377,11.183 C 4.4,6.8 7.964,3.236 12.9,3.165 l 75,0.006 c 4.9,0 8.874,3.568 8.875,7.976 z" />
    <path
       style="fill:#f6f6fe"
       inkscape:connector-curvature="0"
       id="path1131"
       transform="translate(0.05)"
       d="m 96.735,78.215 c 0,4.4 -3.969,7.973 -8.866,7.975 L 13.24,86.219 c -4.9,0 -8.87,-3.567 -8.872,-7.968 L 4.342,11.176 C 4.363,6.796 7.889,3.239 12.823,3.161 l 75.013,0.01 c 4.9,0 8.871,3.565 8.873,7.969 z" />
    <path
       style="fill:#f5f5fe"
       inkscape:connector-curvature="0"
       id="path1133"
       transform="translate(0.05)"
       d="m 96.671,78.153 c 0,4.4 -3.969,7.967 -8.864,7.969 l -74.6,0.029 c -4.9,0 -8.868,-3.564 -8.869,-7.962 L 4.306,11.17 C 4.33,6.8 7.815,3.243 12.75,3.158 l 75.024,0.013 c 4.9,0 8.869,3.562 8.87,7.963 z" />
    <path
       style="fill:#f4f4fe"
       inkscape:connector-curvature="0"
       id="path1135"
       transform="translate(0.05)"
       d="m 96.606,78.092 c 0,4.394 -3.967,7.96 -8.861,7.962 l -74.581,0.029 c -4.9,0 -8.865,-3.561 -8.867,-7.955 L 4.271,11.163 C 4.3,6.794 7.74,3.246 12.677,3.154 l 75.036,0.017 c 4.894,0 8.865,3.56 8.867,7.957 z" />
    <path
       style="fill:#f3f3fe"
       inkscape:connector-curvature="0"
       id="path1137"
       transform="translate(0.05)"
       d="m 96.542,78.031 c 0,4.39 -3.966,7.953 -8.858,7.955 l -74.558,0.029 c -4.895,0 -8.862,-3.558 -8.864,-7.949 L 4.236,11.157 C 4.263,6.793 7.666,3.25 12.6,3.151 l 75.047,0.02 c 4.893,0 8.863,3.557 8.865,7.95 z" />
    <path
       style="fill:#f2f2fe"
       inkscape:connector-curvature="0"
       id="path1139"
       transform="translate(0.05)"
       d="m 96.478,77.969 c 0,4.387 -3.965,7.948 -8.856,7.949 l -74.535,0.029 c -4.892,0 -8.858,-3.555 -8.86,-7.942 L 4.2,11.15 c 0.029,-4.358 3.39,-7.9 8.33,-8 l 75.058,0.024 c 4.891,0 8.861,3.554 8.862,7.944 z" />
    <path
       style="fill:#f2f2fe"
       inkscape:connector-curvature="0"
       id="path1141"
       transform="translate(0.05)"
       d="m 96.413,77.908 c 0,4.383 -3.963,7.941 -8.853,7.942 l -74.511,0.029 c -4.89,0 -8.856,-3.552 -8.857,-7.936 l -0.027,-66.8 c 0.032,-4.352 3.352,-7.887 8.293,-8 l 75.07,0.027 c 4.889,0 8.857,3.551 8.859,7.937 z" />
    <path
       style="fill:#f1f1fe"
       inkscape:connector-curvature="0"
       id="path1143"
       transform="translate(0.05)"
       d="m 96.349,77.846 c 0,4.38 -3.962,7.935 -8.85,7.937 l -74.488,0.029 c -4.889,0 -8.853,-3.55 -8.855,-7.93 L 4.13,11.137 c 0.034,-4.346 3.312,-7.877 8.254,-8 l 75.082,0.031 c 4.888,0 8.855,3.548 8.857,7.931 z" />
    <path
       style="fill:#f0f0fe"
       inkscape:connector-curvature="0"
       id="path1145"
       transform="translate(0.05)"
       d="m 96.284,77.785 c 0,4.376 -3.96,7.928 -8.847,7.93 l -74.464,0.029 c -4.887,0 -8.85,-3.547 -8.852,-7.923 L 4.1,11.131 C 4.136,6.79 7.373,3.263 12.316,3.137 L 87.41,3.171 c 4.886,0 8.851,3.545 8.853,7.924 z" />
    <path
       style="fill:#efeffe"
       inkscape:connector-curvature="0"
       id="path1147"
       transform="translate(0.05)"
       d="m 96.22,77.723 c 0,4.373 -3.959,7.922 -8.845,7.924 l -74.44,0.029 c -4.886,0 -8.847,-3.544 -8.849,-7.917 L 4.06,11.124 C 4.1,6.789 7.293,3.267 12.238,3.133 l 75.105,0.038 c 4.885,0 8.849,3.542 8.851,7.918 z" />
    <path
       style="fill:#eeeefe"
       inkscape:connector-curvature="0"
       id="path1149"
       transform="translate(0.05)"
       d="m 96.156,77.662 c 0,4.369 -3.959,7.915 -8.842,7.917 L 12.9,85.608 c -4.884,0 -8.845,-3.541 -8.846,-7.91 L 4.028,11.118 a 7.945,7.945 0 0 1 8.14,-7.988 l 75.116,0.041 c 4.884,0 8.847,3.539 8.848,7.911 z" />
    <path
       style="fill:#ededfe"
       inkscape:connector-curvature="0"
       id="path1151"
       transform="translate(0.05)"
       d="m 96.091,77.6 c 0,4.366 -3.957,7.909 -8.839,7.911 L 12.859,85.54 c -4.883,0 -8.842,-3.538 -8.844,-7.9 L 3.989,11.111 a 7.919,7.919 0 0 1 8.1,-7.985 l 75.128,0.045 c 4.882,0 8.843,3.536 8.845,7.905 z" />
    <path
       style="fill:#ececfe"
       inkscape:connector-curvature="0"
       id="path1153"
       transform="translate(0.05)"
       d="m 96.027,77.539 c 0,4.362 -3.956,7.9 -8.837,7.9 l -74.369,0.029 c -4.881,0 -8.839,-3.535 -8.841,-7.9 L 3.954,11.098 a 7.891,7.891 0 0 1 8.065,-7.982 l 75.139,0.048 c 4.881,0 8.841,3.534 8.843,7.9 z" />
    <path
       style="fill:#ececfe"
       inkscape:connector-curvature="0"
       id="path1155"
       transform="translate(0.05)"
       d="m 95.962,77.478 c 0,4.358 -3.954,7.9 -8.833,7.9 L 12.783,85.4 c -4.88,0 -8.836,-3.532 -8.838,-7.891 L 3.919,11.1 a 7.864,7.864 0 0 1 8.027,-7.979 l 75.15,0.052 c 4.88,0 8.838,3.531 8.84,7.892 z" />
    <path
       style="fill:#ebebfe"
       inkscape:connector-curvature="0"
       id="path1157"
       transform="translate(0.05)"
       d="m 95.9,77.416 c 0,4.355 -3.953,7.889 -8.831,7.891 l -74.322,0.029 c -4.878,0 -8.834,-3.529 -8.835,-7.884 L 3.886,11.092 a 7.837,7.837 0 0 1 7.989,-7.976 l 75.162,0.055 c 4.877,0 8.835,3.528 8.837,7.885 z" />
    <path
       style="fill:#eaeafe"
       inkscape:connector-curvature="0"
       id="path1159"
       transform="translate(0.05)"
       d="m 95.834,77.355 c 0,4.351 -3.952,7.882 -8.829,7.884 l -74.3,0.029 c -4.876,0 -8.83,-3.526 -8.831,-7.878 L 3.848,11.085 A 7.812,7.812 0 0 1 11.8,3.112 l 75.173,0.059 c 4.876,0 8.833,3.525 8.834,7.879 z" />
    <path
       style="fill:#e9e9fd"
       inkscape:connector-curvature="0"
       id="path1161"
       transform="translate(0.05)"
       d="m 95.769,77.293 c 0,4.348 -3.95,7.876 -8.825,7.878 L 12.668,85.2 C 7.794,85.2 3.841,81.677 3.839,77.329 L 3.813,11.079 a 7.784,7.784 0 0 1 7.914,-7.97 l 75.184,0.062 c 4.875,0 8.83,3.522 8.832,7.872 z" />
    <path
       style="fill:#e8e8fd"
       inkscape:connector-curvature="0"
       id="path1163"
       transform="translate(0.05)"
       d="m 95.705,77.232 c 0,4.344 -3.95,7.869 -8.823,7.871 L 12.63,85.132 c -4.872,0 -8.824,-3.52 -8.826,-7.865 L 3.778,11.072 a 7.758,7.758 0 0 1 7.876,-7.967 l 75.2,0.066 c 4.873,0 8.827,3.519 8.829,7.866 z" />
    <path
       style="fill:#e7e7fd"
       inkscape:connector-curvature="0"
       id="path1165"
       transform="translate(0.05)"
       d="m 95.64,77.17 c 0,4.341 -3.948,7.864 -8.82,7.865 l -74.228,0.029 c -4.871,0 -8.822,-3.517 -8.823,-7.858 L 3.743,11.066 A 7.73,7.73 0 0 1 11.581,3.1 l 75.207,0.069 c 4.872,0 8.824,3.516 8.826,7.859 z" />
    <path
       style="fill:#e7e7fd"
       inkscape:connector-curvature="0"
       id="path1167"
       transform="translate(0.05)"
       d="m 95.576,77.109 c 0,4.337 -3.947,7.857 -8.817,7.859 L 12.554,85 C 7.685,85 3.735,81.486 3.734,77.148 L 3.707,11.059 a 7.7,7.7 0 0 1 7.8,-7.961 l 75.219,0.073 c 4.87,0 8.821,3.513 8.823,7.853 z" />
    <path
       style="fill:#e6e6fd"
       inkscape:connector-curvature="0"
       id="path1169"
       transform="translate(0.05)"
       d="m 95.511,77.047 c 0,4.334 -3.945,7.851 -8.814,7.853 L 12.516,84.928 C 7.648,84.928 3.7,81.417 3.698,77.083 L 3.672,11.053 A 7.678,7.678 0 0 1 11.435,3.1 l 75.23,0.076 c 4.869,0 8.819,3.51 8.82,7.846 z" />
    <path
       style="fill:#e5e5fd"
       inkscape:connector-curvature="0"
       id="path1171"
       transform="translate(0.05)"
       d="m 95.447,76.986 c 0,4.331 -3.944,7.844 -8.812,7.846 L 12.478,84.86 c -4.866,0 -8.813,-3.508 -8.815,-7.838 L 3.637,11.046 a 7.652,7.652 0 0 1 7.725,-7.955 l 75.241,0.08 c 4.868,0 8.816,3.508 8.818,7.84 z" />
    <path
       style="fill:#e4e4fd"
       inkscape:connector-curvature="0"
       id="path1173"
       transform="translate(0.05)"
       d="m 95.383,76.924 c 0,4.328 -3.943,7.838 -8.809,7.84 L 12.44,84.793 c -4.865,0 -8.811,-3.506 -8.812,-7.833 L 3.6,11.04 C 3.665,6.779 6.323,3.312 11.287,3.088 L 86.54,3.171 c 4.866,0 8.813,3.505 8.815,7.833 z" />
    <path
       style="fill:#e3e3fd"
       inkscape:connector-curvature="0"
       id="path1175"
       transform="translate(0.05)"
       d="m 95.318,76.863 c 0,4.324 -3.941,7.831 -8.806,7.833 l -74.11,0.029 c -4.863,0 -8.808,-3.5 -8.809,-7.826 L 3.567,11.033 C 3.634,6.778 6.251,3.315 11.216,3.084 L 86.48,3.171 c 4.865,0 8.811,3.5 8.812,7.827 z" />
    <path
       style="fill:#e2e2fd"
       inkscape:connector-curvature="0"
       id="path1177"
       transform="translate(0.05)"
       d="m 95.254,76.8 c 0,4.32 -3.94,7.824 -8.8,7.826 l -74.086,0.029 c -4.862,0 -8.8,-3.5 -8.807,-7.82 L 3.535,11.025 C 3.605,6.775 6.18,3.317 11.147,3.079 l 75.275,0.09 c 4.863,0 8.808,3.5 8.81,7.82 z" />
    <path
       style="fill:#e1e1fd"
       inkscape:connector-curvature="0"
       id="path1179"
       transform="translate(0.05)"
       d="m 95.189,76.74 c 0,4.317 -3.939,7.818 -8.8,7.82 l -74.063,0.029 c -4.86,0 -8.8,-3.5 -8.8,-7.813 L 3.5,11.02 C 3.571,6.777 6.106,3.32 11.074,3.077 l 75.287,0.094 c 4.861,0 8.805,3.5 8.806,7.814 z" />
    <path
       style="fill:#e1e1fd"
       inkscape:connector-curvature="0"
       id="path1181"
       transform="translate(0.05)"
       d="m 95.125,76.679 c 0,4.313 -3.938,7.811 -8.8,7.813 l -74.04,0.029 c -4.858,0 -8.8,-3.494 -8.8,-7.807 L 3.459,11.014 C 3.534,6.776 6.027,3.325 11,3.074 l 75.3,0.1 c 4.86,0 8.8,3.493 8.8,7.807 z" />
    <path
       style="fill:#e0e0fd"
       inkscape:connector-curvature="0"
       id="path1183"
       transform="translate(0.05)"
       d="m 95.061,76.617 c 0,4.31 -3.937,7.8 -8.8,7.807 l -74.017,0.029 c -4.856,0 -8.8,-3.491 -8.8,-7.8 L 3.426,11.007 C 3.501,6.775 5.953,3.329 10.926,3.07 l 75.309,0.1 c 4.859,0 8.8,3.49 8.8,7.8 z" />
    <path
       style="fill:#dfdffd"
       inkscape:connector-curvature="0"
       id="path1185"
       transform="translate(0.05)"
       d="m 95,76.556 c 0,4.306 -3.935,7.8 -8.792,7.8 l -73.993,0.029 c -4.854,0 -8.793,-3.488 -8.795,-7.794 L 3.39,11 C 3.468,6.773 5.878,3.331 10.851,3.066 l 75.321,0.1 c 4.857,0 8.8,3.487 8.8,7.794 z" />
    <path
       style="fill:#dedefd"
       inkscape:connector-curvature="0"
       id="path1187"
       transform="translate(0.05)"
       d="m 94.932,76.494 c 0,4.3 -3.934,7.792 -8.79,7.794 l -73.969,0.029 c -4.853,0 -8.79,-3.485 -8.792,-7.787 L 3.355,10.994 C 3.435,6.773 5.804,3.336 10.778,3.063 L 86.11,3.171 c 4.856,0 8.794,3.484 8.8,7.788 z" />
    <path
       style="fill:#ddddfd"
       inkscape:connector-curvature="0"
       id="path1189"
       transform="translate(0.05)"
       d="m 94.867,76.433 c 0,4.3 -3.932,7.786 -8.786,7.787 l -73.946,0.029 c -4.851,0 -8.787,-3.482 -8.789,-7.781 L 3.32,10.988 C 3.4,6.773 5.729,3.339 10.705,3.06 l 75.344,0.111 c 4.854,0 8.791,3.481 8.792,7.781 z" />
    <path
       style="fill:#dcdcfd"
       inkscape:connector-curvature="0"
       id="path1191"
       transform="translate(0.05)"
       d="m 94.8,76.371 c 0,4.3 -3.931,7.78 -8.784,7.781 L 12.1,84.181 c -4.85,0 -8.785,-3.479 -8.786,-7.774 L 3.285,10.981 C 3.369,6.772 5.655,3.343 10.632,3.056 l 75.355,0.115 c 4.853,0 8.788,3.479 8.79,7.775 z" />
    <path
       style="fill:#dcdcfd"
       inkscape:connector-curvature="0"
       id="path1193"
       transform="translate(0.05)"
       d="m 94.739,76.31 c 0,4.292 -3.93,7.773 -8.782,7.775 l -73.9,0.028 c -4.848,0 -8.782,-3.476 -8.784,-7.768 L 3.247,10.975 c 0.086,-4.2 2.331,-7.629 7.31,-7.922 l 75.366,0.118 c 4.852,0 8.786,3.476 8.788,7.768 z" />
    <path
       style="fill:#dbdbfc"
       inkscape:connector-curvature="0"
       id="path1195"
       transform="translate(0.05)"
       d="m 94.674,76.248 c 0,4.289 -3.929,7.767 -8.778,7.769 l -73.875,0.028 c -4.847,0 -8.779,-3.473 -8.781,-7.761 L 3.214,10.968 C 3.3,6.77 5.506,3.35 10.486,3.049 l 75.378,0.122 c 4.849,0 8.783,3.473 8.784,7.762 z" />
    <path
       style="fill:#dadafc"
       inkscape:connector-curvature="0"
       id="path1197"
       transform="translate(0.05)"
       d="m 94.61,76.187 c 0,4.285 -3.928,7.76 -8.776,7.762 l -73.851,0.028 c -4.845,0 -8.776,-3.47 -8.778,-7.755 L 3.179,10.962 C 3.269,6.77 5.431,3.353 10.413,3.046 L 85.8,3.171 c 4.848,0 8.78,3.47 8.782,7.755 z" />
    <path
       style="fill:#d9d9fc"
       inkscape:connector-curvature="0"
       id="path1199"
       transform="translate(0.05)"
       d="m 94.545,76.126 c 0,4.281 -3.926,7.753 -8.773,7.755 l -73.827,0.028 c -4.844,0 -8.774,-3.467 -8.775,-7.748 L 3.144,10.955 c 0.092,-4.186 2.213,-7.6 7.2,-7.913 l 75.4,0.129 c 4.847,0 8.778,3.467 8.78,7.749 z" />
    <path
       style="fill:#d8d8fc"
       inkscape:connector-curvature="0"
       id="path1201"
       transform="translate(0.05)"
       d="m 94.481,76.064 c 0,4.278 -3.925,7.747 -8.77,7.749 l -73.8,0.028 C 7.07,83.841 3.141,80.377 3.139,76.1 L 3.109,10.949 C 3.2,6.768 5.282,3.36 10.267,3.039 l 75.412,0.132 c 4.845,0 8.774,3.464 8.776,7.742 z" />
    <path
       style="fill:#d7d7fc"
       inkscape:connector-curvature="0"
       id="path1203"
       transform="translate(0.05)"
       d="m 94.416,76 c 0,4.274 -3.923,7.74 -8.767,7.742 l -73.781,0.029 c -4.84,0 -8.767,-3.462 -8.769,-7.736 L 3.073,10.935 C 3.173,6.76 5.208,3.356 10.194,3.028 l 75.423,0.136 c 4.844,0 8.772,3.461 8.774,7.736 z" />
    <path
       style="fill:#d7d7fc"
       inkscape:connector-curvature="0"
       id="path1205"
       transform="translate(0.05)"
       d="m 94.352,75.941 c 0,4.271 -3.922,7.734 -8.765,7.736 L 11.83,83.706 c -4.838,0 -8.764,-3.459 -8.766,-7.729 L 3.038,10.936 c 0.1,-4.17 2.1,-7.569 7.083,-7.9 l 75.434,0.139 c 4.843,0 8.77,3.458 8.771,7.729 z" />
    <path
       style="fill:#d6d6fc"
       inkscape:connector-curvature="0"
       id="path1207"
       transform="translate(0.05)"
       d="m 94.288,75.88 c 0,4.267 -3.921,7.727 -8.762,7.729 l -73.734,0.029 c -4.836,0 -8.762,-3.456 -8.763,-7.723 L 3,10.929 C 3.1,6.766 5.056,3.37 10.045,3.029 l 75.446,0.143 c 4.841,0 8.766,3.455 8.768,7.723 z" />
    <path
       style="fill:#d5d5fc"
       inkscape:connector-curvature="0"
       id="path1209"
       transform="translate(0.05)"
       d="m 94.223,75.818 c 0,4.264 -3.92,7.721 -8.759,7.723 l -73.71,0.029 c -4.835,0 -8.759,-3.453 -8.761,-7.716 L 2.968,10.923 c 0.1,-4.158 2.016,-7.549 7.007,-7.9 l 75.457,0.146 c 4.84,0 8.764,3.453 8.766,7.716 z" />
    <path
       style="opacity:0.3;fill:#d4d4fc"
       inkscape:connector-curvature="0"
       id="path1211"
       transform="translate(0.05)"
       d="m 94.159,75.757 c 0,4.26 -3.919,7.714 -8.757,7.716 L 11.716,83.5 C 6.883,83.5 2.96,80.05 2.958,75.79 L 2.932,10.916 C 3.037,6.764 4.91,3.377 9.9,3.021 l 75.47,0.15 c 4.838,0 8.76,3.45 8.762,7.71 z" />
  </g>
  <rect
     x="3.4360104"
     y="2.7266736"
     width="91.373001"
     height="79.632004"
     rx="7.0361447"
     id="rect9337"
     style="opacity:1;isolation:isolate;fill:url(#linearGradient1177);fill-opacity:1.0;stroke-width:0.80502313" />
  <g
     transform="translate(-0.0503617,-1.722247)"
     style="isolation:isolate"
     id="Element-22">
    <g
       data-name="Ebene 1-28"
       id="Ebene_1-28">
      <path
         style="fill:#ffffff"
         inkscape:connector-curvature="0"
         id="path11735"
         transform="translate(0.38)"
         d="m 71.653,74.757 c -1.314,-2.875 -1.144,-5.871 -0.741,-8.924 1.116,0.022 2.517,0.824 3.129,-0.642 A 5.9,5.9 0 0 0 73.92,60.109 0.846,0.846 0 0 0 73.42,59.65 c -1.961,-0.144 -1.337,-1.421 -1.224,-2.576 0.357,-3.667 1.782,-6.406 5.81,-6.988 0.591,-0.086 0.565,-0.487 0.584,-0.89 0.046,-0.933 0.087,-1.866 0.112,-2.8 0.008,-0.269 0.155,-0.63 -0.184,-0.773 -2.142,-0.9 -1,-1.334 0.343,-1.619 -0.37,-0.666 -1.334,-0.236 -1.382,-1.048 -0.048,-0.812 0.591,-0.693 1.084,-0.8 0.553,-0.121 0.423,-0.551 0.162,-0.754 -1.6,-1.242 -1.161,-2.417 -0.031,-3.7 a 1.615,1.615 0 0 0 0.311,-1.647 l 0.5,-0.5 c 0.812,0.249 2.19,-0.631 2.389,0.7 0.27,1.8 3.34,3.51 -0.2,5.63 2.919,0.085 1.11,2.168 1.938,3.094 0.032,0.036 -0.054,0.265 -0.129,0.3 -2.309,0.923 -0.621,2.753 -0.9,4.126 -0.177,0.877 0.784,0.662 1.264,0.793 a 8.022,8.022 0 0 1 5.449,8.58 c -0.085,0.464 -0.359,0.534 -0.729,0.567 -1.243,0.112 -1.654,0.963 -1.746,2.042 -0.129,1.5 -0.441,3.111 0.775,4.308 0.737,0.727 1.761,0.159 2.674,0.068 a 23.671,23.671 0 0 1 0.325,4.748 7.355,7.355 0 0 1 -5.649,7.33 15.766,15.766 0 0 1 -11.069,-0.853 28.147,28.147 0 0 1 -2.244,-2.231 z" />
      <path
         style="fill:#305690;fill-opacity:1"
         inkscape:connector-curvature="0"
         id="path11737"
         transform="translate(0.38)"
         d="m 74.428,58.624 c -1.451,-1.311 -0.555,-5.138 1.5,-6.387 a 5.389,5.389 0 0 1 0.787,-0.382 c 1.587,-0.641 1.754,-0.524 1.68,1.217 a 35.755,35.755 0 0 0 -0.2,5.593 c 0.275,2.328 2.22,0.545 3.332,0.973 0.515,0.2 1.711,0.556 1.551,-0.981 -0.2,-1.972 -0.181,-3.968 -0.381,-5.941 -0.128,-1.273 0.345,-1.353 1.364,-1.021 2.192,0.712 4.127,3.867 3.605,6 a 1.31,1.31 0 0 1 -0.4,0.516 6.805,6.805 0 0 0 -1.472,7.335 2.467,2.467 0 0 0 2.029,1.73 c 1.347,0.054 1.361,0.794 1.388,1.8 0.119,4.4 -1.693,6.93 -5.478,7.695 -1.057,0.213 -1.332,-0.025 -1.235,-1.087 0.2,-2.209 0.258,-4.43 0.451,-6.639 0.076,-0.861 -0.173,-1.069 -1.024,-1.105 -3.92,-0.166 -3.917,-0.2 -3.632,3.75 0.1,1.4 0.149,2.8 0.3,4.192 0.1,0.93 -0.206,1.06 -1.064,0.9 a 6.946,6.946 0 0 1 -5.462,-8.725 c 0.2,-0.65 0.635,-0.573 1.064,-0.646 a 3.022,3.022 0 0 0 2.519,-2.567 c 0.618,-2.476 0.138,-4.991 -1.222,-6.22 z" />
      <path
         style="fill:#315792;fill-opacity:1"
         inkscape:connector-curvature="0"
         id="path11739"
         transform="translate(0.38)"
         d="m 80.234,44.352 a 1.987,1.987 0 0 1 0.734,1.918 c 0.225,3.54 0.41,7.082 0.609,10.622 0.042,0.735 0.261,1.468 -0.994,1.441 -1.1,-0.024 -1.029,-0.595 -0.99,-1.342 0.221,-4.107 0.42,-8.215 0.641,-12.639 z" />
      <path
         style="fill:#315791;fill-opacity:1"
         inkscape:connector-curvature="0"
         id="path11741"
         transform="translate(0.38)"
         d="m 80.934,76.851 a 1.5,1.5 0 0 1 -0.413,0.138 c -0.382,0.023 -0.49,-0.266 -0.511,-0.565 -0.155,-2.146 -0.293,-4.294 -0.446,-6.44 -0.045,-0.621 0.373,-0.646 0.79,-0.608 0.417,0.038 1.119,-0.241 1.095,0.468 -0.079,2.266 -0.266,4.528 -0.415,6.791 a 0.865,0.865 0 0 1 -0.1,0.216 z" />
      <path
         style="fill:#325792;fill-opacity:1"
         inkscape:connector-curvature="0"
         id="path11743"
         transform="translate(0.38)"
         d="m 80.506,37.269 c 0.247,1.051 1.839,1.639 1.206,2.748 a 1.627,1.627 0 0 1 -2.22,0.061 c -0.992,-1.173 1.06,-1.661 1.014,-2.809 z" />
    </g>
  </g>
  <g
     transform="translate(-0.0503617,-1.722247)"
     style="isolation:isolate"
     id="g11757">
    <path
       style="fill:#ffffff;stroke:#ffffff;stroke-width:0.5;stroke-miterlimit:10"
       inkscape:connector-curvature="0"
       id="path11747"
       stroke-miterlimit="10"
       transform="translate(0.38)"
       d="M 14.165,25.607 15.5,16.271 h 0.151 l 3.8,7.662 3.761,-7.662 h 0.149 l 1.339,9.338 h -0.915 l -0.922,-6.677 -3.3,6.676 h -0.239 l -3.34,-6.728 -0.918,6.727 z" />
    <path
       style="fill:#ffffff;stroke:#ffffff;stroke-width:0.5;stroke-miterlimit:10"
       inkscape:connector-curvature="0"
       id="path11749"
       stroke-miterlimit="10"
       transform="translate(0.38)"
       d="m 26.277,18.7 h 0.889 v 3.225 a 6.87,6.87 0 0 0 0.127,1.625 1.813,1.813 0 0 0 0.728,1 2.212,2.212 0 0 0 1.28,0.368 2.161,2.161 0 0 0 1.263,-0.359 1.839,1.839 0 0 0 0.715,-0.942 6.66,6.66 0 0 0 0.134,-1.7 V 18.7 h 0.908 v 3.39 a 5.359,5.359 0 0 1 -0.333,2.151 2.558,2.558 0 0 1 -1,1.134 3.663,3.663 0 0 1 -3.364,0 2.542,2.542 0 0 1 -1.01,-1.144 5.586,5.586 0 0 1 -0.333,-2.206 z" />
    <path
       style="fill:#ffffff;stroke:#ffffff;stroke-width:0.5;stroke-miterlimit:10"
       inkscape:connector-curvature="0"
       id="path11751"
       stroke-miterlimit="10"
       transform="translate(0.38)"
       d="m 37.766,19.461 -0.572,0.59 a 2.051,2.051 0 0 0 -1.393,-0.692 1.05,1.05 0 0 0 -0.741,0.286 0.88,0.88 0 0 0 -0.309,0.666 0.99,0.99 0 0 0 0.254,0.641 3.586,3.586 0 0 0 1.069,0.73 4,4 0 0 1 1.348,0.99 1.806,1.806 0 0 1 0.35,1.086 1.951,1.951 0 0 1 -0.6,1.441 2.044,2.044 0 0 1 -1.494,0.59 2.614,2.614 0 0 1 -1.141,-0.26 2.491,2.491 0 0 1 -0.9,-0.717 l 0.559,-0.635 a 1.944,1.944 0 0 0 1.444,0.768 1.3,1.3 0 0 0 0.91,-0.343 1.061,1.061 0 0 0 0.375,-0.806 1.027,1.027 0 0 0 -0.248,-0.679 3.965,3.965 0 0 0 -1.119,-0.736 3.6,3.6 0 0 1 -1.272,-0.953 1.79,1.79 0 0 1 -0.337,-1.073 1.745,1.745 0 0 1 0.537,-1.307 1.874,1.874 0 0 1 1.358,-0.521 2.809,2.809 0 0 1 1.922,0.934 z" />
    <path
       style="fill:#ffffff;stroke:#ffffff;stroke-width:0.5;stroke-miterlimit:10"
       inkscape:connector-curvature="0"
       id="path11753"
       stroke-miterlimit="10"
       transform="translate(0.38)"
       d="m 39.648,15.861 a 0.737,0.737 0 0 1 0.734,0.738 0.73,0.73 0 0 1 -1.46,0 0.714,0.714 0 0 1 0.215,-0.521 0.7,0.7 0 0 1 0.511,-0.217 z M 39.207,18.7 H 40.1 v 6.906 h -0.889 z" />
    <path
       style="fill:#ffffff;stroke:#ffffff;stroke-width:0.5;stroke-miterlimit:10"
       inkscape:connector-curvature="0"
       id="path11755"
       stroke-miterlimit="10"
       transform="translate(0.38)"
       d="m 41.937,16.04 h 0.889 v 5.453 l 3.2,-2.786 h 1.3 L 43.536,22 47.553,25.612 H 46.3 L 42.825,22.5 v 3.109 h -0.888 z" />
  </g>
</svg>
