<svg xmlns="http://www.w3.org/2000/svg" viewBox="0 0 43.379 41.322">
  <title>C0_comic</title>
  <g id="Ebene_2" data-name="Ebene 2">
    <g id="Ebene_1-2" data-name="Ebene 1">
      <g>
        <polygon points="32.411 40.014 32.947 39.305 27.957 35.427 27.421 36.136 32.411 40.014" fill="#3e008a"/>
        <ellipse cx="31.888" cy="40.191" rx="1.356" ry="0.534" transform="translate(-19.399 41.543) rotate(-53.081)" fill="#3e008a"/>
        <ellipse cx="21.208" cy="14.647" rx="12.098" ry="3.808" transform="translate(-4.3 10.948) rotate(-26.379)" fill="#2e3192"/>
        <ellipse cx="20.884" cy="16.978" rx="10.932" ry="3.872" transform="translate(-3.433 5.443) rotate(-13.733)" fill="#2e3192"/>
        <ellipse cx="11.098" cy="21.609" rx="7.562" ry="13.817" transform="translate(-7.509 5.992) rotate(-22.808)" fill="#8a94ff"/>
        <ellipse cx="19.139" cy="29.131" rx="8.154" ry="13.462" transform="translate(-15.432 33.574) rotate(-64.02)" fill="#8a94ff"/>
        <ellipse cx="15.854" cy="33.449" rx="2.779" ry="9.878" transform="translate(-21.107 31.421) rotate(-61.499)" fill="#aab1ff"/>
        <ellipse cx="4.09" cy="18.305" rx="1.922" ry="3.947" transform="translate(-3.024 0.95) rotate(-9.694)" fill="#2e3192"/>
        <ellipse cx="3.982" cy="18.365" rx="1.981" ry="3.818" transform="translate(-4.403 1.548) rotate(-14.268)" fill="#f4f4ff"/>
        <ellipse cx="3.527" cy="17.633" rx="0.811" ry="1.359" transform="translate(-2.474 0.682) rotate(-8.184)" fill="#2e3192"/>
        <ellipse cx="7.805" cy="5.597" rx="6.074" ry="1.475" transform="translate(-0.451 10.505) rotate(-66.379)" fill="#2e3192"/>
        <ellipse cx="6.665" cy="6.2" rx="5.414" ry="1.52" transform="translate(-0.991 11.124) rotate(-75.673)" fill="#2e3192"/>
        <path d="M0,16.367c.068-1.729.745-3.073,1.863-3.377s2.385.51,3.325,1.965Z" fill="#2e3192"/>
        <ellipse cx="29.091" cy="23.858" rx="14.288" ry="4.534" transform="translate(-0.123 0.151) rotate(-0.297)" fill="#2e3192"/>
        <ellipse cx="27.547" cy="26.182" rx="4.606" ry="12.925" transform="translate(-3.968 47.423) rotate(-77.525)" fill="#2e3192"/>
        <ellipse cx="10.733" cy="16.885" rx="4.431" ry="5.343" transform="translate(-4.217 3.588) rotate(-15.908)" fill="#2e3192"/>
        <ellipse cx="10.733" cy="16.885" rx="4.249" ry="5.123" transform="translate(-4.217 3.588) rotate(-15.908)" fill="#fff"/>
        <ellipse cx="11.374" cy="15.25" rx="1.457" ry="1.757" transform="matrix(0.962, -0.274, 0.274, 0.962, -3.744, 3.701)" fill="#2e3192"/>
        <path d="M6.642,13.9c.294-2.361,1.566-4.238,3.463-4.731s3.927.529,5.341,2.446Z" fill="#2e3192"/>
        <polygon points="35.774 35.336 35.95 34.375 29.165 33.121 28.988 34.083 35.774 35.336" fill="#3e008a"/>
        <ellipse cx="35.94" cy="35.858" rx="1.492" ry="0.583" transform="translate(-5.81 64.745) rotate(-79.614)" fill="#3e008a"/>
        <g>
          <path d="M7.461,23.164c.021-.562.142-4.529-1.184-4.942-1.117-.349-3.08,1.88-4.842,5.56" fill="#2e3192"/>
          <path d="M7.3,22.559c.142.239,1.133,1.934.5,2.509-.528.484-2.119.1-3.938-.984" fill="#2e3192"/>
        </g>
        <ellipse cx="12.023" cy="14.332" rx="0.587" ry="0.649" transform="translate(-3.513 3.912) rotate(-16.159)" fill="#fff"/>
        <ellipse cx="3.814" cy="16.536" rx="0.252" ry="0.279" transform="translate(-4.451 1.715) rotate(-16.159)" fill="#fff"/>
      </g>
    </g>
  </g>
</svg>
