<svg xmlns="http://www.w3.org/2000/svg" viewBox="0 0 194.767 43.999">
  <title>C0_studium</title>
  <g id="Ebene_2" data-name="Ebene 2">
    <g id="Ebene_1-2" data-name="Ebene 1">
      <g>
        <g>
          <path d="M2.5,6.786l2.938-.281V10.9H8.453v2.625H5.438v6.958a19.953,19.953,0,0,0,.093,2.442,1.534,1.534,0,0,0,.563.983,2.49,2.49,0,0,0,1.562.382,9,9,0,0,0,1.313-.109v2.607a11.6,11.6,0,0,1-2.438.283,4.68,4.68,0,0,1-2.8-.711A3.133,3.133,0,0,1,2.5,24.427a19,19,0,0,1-.266-3.719V13.521H.188V10.9h2.14Z" transform="translate(-0.188 -2.828)"/>
          <path d="M22.266,19.271H13.344q0,3.193.864,4.26A2.686,2.686,0,0,0,16.382,24.6q2.182,0,2.759-2.938l2.984.391q-1.171,5.016-5.844,5.015a5.631,5.631,0,0,1-4.562-2.046,9.175,9.175,0,0,1-1.7-6,10.063,10.063,0,0,1,1.718-6.282,5.516,5.516,0,0,1,4.594-2.218,5.231,5.231,0,0,1,3.391,1.109,5.9,5.9,0,0,1,1.937,2.914A17.262,17.262,0,0,1,22.266,19.271Zm-3.328-2.2q0-4.172-2.719-4.171-2.547,0-2.8,4.171Z" transform="translate(-0.188 -2.828)"/>
          <path d="M27.906,15.364l-3.14-.39a4.711,4.711,0,0,1,1.942-3.282,6.678,6.678,0,0,1,4-1.171,6.018,6.018,0,0,1,3.394.851A3.647,3.647,0,0,1,35.7,13.4a14.206,14.206,0,0,1,.327,3.546v5.375a21.322,21.322,0,0,0,.282,4.36H33.234a12.427,12.427,0,0,1-.2-2.625A4.733,4.733,0,0,1,28.6,27.067,4.3,4.3,0,0,1,25.4,25.841a4.545,4.545,0,0,1-1.208-3.336,5.062,5.062,0,0,1,1.77-4.078q1.77-1.5,6.137-1.5.218,0,.686.015V16.3a5.119,5.119,0,0,0-.506-2.547A1.927,1.927,0,0,0,30.46,12.9Q28.327,12.9,27.906,15.364Zm4.875,3.625q-.622-.061-.95-.062-4.238,0-4.237,3.328,0,2.423,2.1,2.422a2.638,2.638,0,0,0,2.157-1.313,6.164,6.164,0,0,0,.927-3.609Z" transform="translate(-0.188 -2.828)"/>
          <path d="M50.625,16.208l-3.141.344a5.758,5.758,0,0,0-.8-2.758,1.935,1.935,0,0,0-1.594-.7,2.2,2.2,0,0,0-2.11,1.336,11.726,11.726,0,0,0-.656,4.695q0,5.25,2.766,5.25,2.124,0,2.39-3.422l3.141.281q-.641,5.829-5.766,5.828a5.026,5.026,0,0,1-4.492-2.187,10.792,10.792,0,0,1-1.461-6.047,10.274,10.274,0,0,1,1.578-6.187,5.366,5.366,0,0,1,4.594-2.125Q49.936,10.521,50.625,16.208Z" transform="translate(-0.188 -2.828)"/>
          <path d="M53.047,5.349H56.3v7.64a3.853,3.853,0,0,1,3.773-2.468,4.023,4.023,0,0,1,2.294.625,3.273,3.273,0,0,1,1.3,1.664,13.774,13.774,0,0,1,.368,3.929v9.938h-3.25V16.751q0-2.466-.564-3.036a1.888,1.888,0,0,0-1.4-.569q-2.525,0-2.524,4.51v9.021h-3.25Z" transform="translate(-0.188 -2.828)"/>
        </g>
        <g>
          <path d="M84,3.359V20.265a29.312,29.312,0,0,1-.188,4.039A5.486,5.486,0,0,1,82.7,26.7a5.76,5.76,0,0,1-2.43,1.859,9.141,9.141,0,0,1-3.555.633,10,10,0,0,1-4-.75,6.014,6.014,0,0,1-2.593-1.953,5.4,5.4,0,0,1-1.016-2.539q-.158-1.337-.156-5.617V3.359h6.578V22.328a7.429,7.429,0,0,0,.18,2.117.7.7,0,0,0,.726.461.76.76,0,0,0,.8-.508,9.5,9.5,0,0,0,.179-2.4V3.359Z" transform="translate(-0.188 -2.828)" fill="#2b4392"/>
          <path d="M101.574,18.171q0,3.813-.18,5.4a6.046,6.046,0,0,1-3.68,4.914,9.3,9.3,0,0,1-3.75.7,9.54,9.54,0,0,1-3.648-.664,6.08,6.08,0,0,1-3.774-4.883,53.442,53.442,0,0,1-.187-5.469V13.843q0-3.812.18-5.4a6.044,6.044,0,0,1,3.679-4.914,9.3,9.3,0,0,1,3.75-.7,9.526,9.526,0,0,1,3.649.664,6.082,6.082,0,0,1,3.773,4.883,53.361,53.361,0,0,1,.188,5.468ZM95,9.859A7.839,7.839,0,0,0,94.8,7.6a.777.777,0,0,0-.8-.492.9.9,0,0,0-.789.4,5.634,5.634,0,0,0-.274,2.352V21.671a11.6,11.6,0,0,0,.18,2.719.783.783,0,0,0,.836.516.809.809,0,0,0,.859-.594A12.494,12.494,0,0,0,95,21.484Z" transform="translate(-0.188 -2.828)" fill="#2b4392"/>
          <path d="M117.964,11.015h-6.109V9.14a3.685,3.685,0,0,0-.234-1.672.865.865,0,0,0-.782-.359.994.994,0,0,0-.9.485,2.811,2.811,0,0,0-.305,1.469,4.16,4.16,0,0,0,.343,1.908,4.971,4.971,0,0,0,1.858,1.547q4.394,2.605,5.534,4.278t1.14,5.391a9.452,9.452,0,0,1-.633,3.984,4.95,4.95,0,0,1-2.445,2.149,9.675,9.675,0,0,1-4.219.867,9.424,9.424,0,0,1-4.507-1,4.9,4.9,0,0,1-2.446-2.547,13.036,13.036,0,0,1-.578-4.39V19.593h6.109v3.078a4.052,4.052,0,0,0,.258,1.829,1,1,0,0,0,.914.406,1.072,1.072,0,0,0,.977-.516,2.948,2.948,0,0,0,.32-1.531,4.75,4.75,0,0,0-.609-2.922,19.484,19.484,0,0,0-3.078-2.3,30.1,30.1,0,0,1-3.25-2.359A5.511,5.511,0,0,1,104,13.25a8.942,8.942,0,0,1-.523-3.313,9.19,9.19,0,0,1,.742-4.25,5,5,0,0,1,2.4-2.1,9.584,9.584,0,0,1,4-.757,10.423,10.423,0,0,1,4.367.828,4.566,4.566,0,0,1,2.39,2.086,11.036,11.036,0,0,1,.586,4.273Z" transform="translate(-0.188 -2.828)" fill="#2b4392"/>
        </g>
        <g>
          <path d="M37.42,44.892h1.559v1.764H37.42Z" transform="translate(-0.188 -2.828)" fill="#4b7dcf"/>
          <path d="M40.763,44.892h1.558v1.764H40.763Z" transform="translate(-0.188 -2.828)" fill="#4b7dcf"/>
          <path d="M44.105,44.892h1.559v1.764H44.105Z" transform="translate(-0.188 -2.828)" fill="#4b7dcf"/>
          <path d="M47.455,37.325h2.1a4.775,4.775,0,0,1,2.44.54,3.389,3.389,0,0,1,1.382,1.606,5.826,5.826,0,0,1,.469,2.365,6.605,6.605,0,0,1-.421,2.437A3.919,3.919,0,0,1,52.139,46a4.02,4.02,0,0,1-2.467.656H47.455ZM49,38.562v6.856h.644a2.167,2.167,0,0,0,1.959-.933,4.492,4.492,0,0,0,.61-2.491q0-3.432-2.569-3.432Z" transform="translate(-0.188 -2.828)" fill="#4b7dcf"/>
          <path d="M55.255,37.325h1.511v5.79a7.266,7.266,0,0,0,.1,1.432,1.208,1.208,0,0,0,.468.731,1.97,1.97,0,0,0,1.9.048,1.191,1.191,0,0,0,.465-.629,6.061,6.061,0,0,0,.137-1.61V37.325h1.387v5.687a8.73,8.73,0,0,1-.194,2.106,2.12,2.12,0,0,1-.9,1.223,3.3,3.3,0,0,1-1.9.486,3.9,3.9,0,0,1-1.6-.3,2.078,2.078,0,0,1-1.028-.984,5.84,5.84,0,0,1-.349-2.423Z" transform="translate(-0.188 -2.828)" fill="#4b7dcf"/>
          <path d="M62.952,37.325h2.81a3.165,3.165,0,0,1,2.249.69A2.61,2.61,0,0,1,68.735,40a2.514,2.514,0,0,1-1.428,2.44l1.77,4.218H67.4l-1.45-3.9H64.5v3.9H62.952Zm1.545,1.2v3.042H65.68a1.447,1.447,0,0,0,1.165-.438,1.7,1.7,0,0,0,.373-1.141q0-1.462-1.525-1.463Z" transform="translate(-0.188 -2.828)" fill="#4b7dcf"/>
          <path d="M74.908,43.518l1.422.2q-.436,3.111-3.052,3.111a2.8,2.8,0,0,1-2.534-1.306,6.433,6.433,0,0,1-.833-3.493,6.266,6.266,0,0,1,.881-3.616,2.91,2.91,0,0,1,2.541-1.258q2.566,0,3.011,3.185l-1.436.212q-.233-2.118-1.569-2.119-1.788,0-1.787,3.685,0,3.431,1.787,3.431a1.2,1.2,0,0,0,1.068-.523A3.739,3.739,0,0,0,74.908,43.518Z" transform="translate(-0.188 -2.828)" fill="#4b7dcf"/>
          <path d="M77.608,37.325h1.545v3.869H81.9V37.325h1.545v9.331H81.9V42.5H79.153v4.156H77.608Z" transform="translate(-0.188 -2.828)" fill="#4b7dcf"/>
          <path d="M86.57,40.6H85.08V38.9l.943-1.75h.684l-.8,1.709h.663Z" transform="translate(-0.188 -2.828)" fill="#4b7dcf"/>
          <path d="M93.892,39.41l-1.32.458a2.492,2.492,0,0,0-.612-1.1,1.46,1.46,0,0,0-1.035-.354,1.217,1.217,0,0,0-.94.36,1.188,1.188,0,0,0-.332.826,1,1,0,0,0,.373.82,5.994,5.994,0,0,0,1.487.729,8.4,8.4,0,0,1,1.463.69,2.53,2.53,0,0,1,.83.879A2.5,2.5,0,0,1,94.124,44a2.724,2.724,0,0,1-.831,2,3.153,3.153,0,0,1-2.327.827,3.017,3.017,0,0,1-3.2-2.612l1.38-.389a1.841,1.841,0,0,0,1.887,1.722,1.537,1.537,0,0,0,1.132-.386,1.3,1.3,0,0,0,.386-.954,1.26,1.26,0,0,0-.267-.772,3.18,3.18,0,0,0-1.326-.759,11.173,11.173,0,0,1-1.617-.718,2.539,2.539,0,0,1-1.193-2.173,2.516,2.516,0,0,1,.776-1.873,2.82,2.82,0,0,1,2.061-.759A2.773,2.773,0,0,1,93.892,39.41Z" transform="translate(-0.188 -2.828)" fill="#4b7dcf"/>
          <path d="M98.1,37.325h1.544V45.35h3.3v1.306H98.1Z" transform="translate(-0.188 -2.828)" fill="#4b7dcf"/>
          <path d="M103.824,37.325h5.346v1.237h-3.8v2.666h2.981v1.244h-2.981v2.919h3.862v1.265h-5.407Z" transform="translate(-0.188 -2.828)" fill="#4b7dcf"/>
          <path d="M110.264,37.325h1.545v3.869h2.748V37.325H116.1v9.331h-1.545V42.5h-2.748v4.156h-1.545Z" transform="translate(-0.188 -2.828)" fill="#4b7dcf"/>
          <path d="M117.893,37.325H120.7a3.165,3.165,0,0,1,2.249.69A2.611,2.611,0,0,1,123.676,40a2.513,2.513,0,0,1-1.429,2.44l1.771,4.218h-1.676l-1.45-3.9h-1.454v3.9h-1.545Zm1.545,1.2v3.042h1.182a1.449,1.449,0,0,0,1.166-.438,1.7,1.7,0,0,0,.372-1.141q0-1.462-1.524-1.463Z" transform="translate(-0.188 -2.828)" fill="#4b7dcf"/>
          <path d="M127.034,37.325h1.731l2.506,9.331h-1.564l-.586-2.338h-2.736l-.58,2.338h-1.473Zm1.782,5.776-1.069-4.272-1.06,4.272Z" transform="translate(-0.188 -2.828)" fill="#4b7dcf"/>
          <path d="M132.166,37.325h2.292l1.861,6.726,1.91-6.726h2.195v9.331h-1.449V38.692l-2.218,7.964h-1.123l-2.176-7.971v7.971h-1.292Z" transform="translate(-0.188 -2.828)" fill="#4b7dcf"/>
          <path d="M141.094,37.325h5.7v1.312H144.71v8.019h-1.545V38.637h-2.071Z" transform="translate(-0.188 -2.828)" fill="#4b7dcf"/>
          <path d="M153.234,39.41l-1.319.458a2.492,2.492,0,0,0-.612-1.1,1.462,1.462,0,0,0-1.035-.354,1.217,1.217,0,0,0-.94.36A1.183,1.183,0,0,0,149,39.6a1,1,0,0,0,.373.82,6,6,0,0,0,1.486.729,8.327,8.327,0,0,1,1.463.69A2.487,2.487,0,0,1,153.467,44a2.724,2.724,0,0,1-.831,2,3.153,3.153,0,0,1-2.327.827,3.019,3.019,0,0,1-3.2-2.612l1.381-.389a1.841,1.841,0,0,0,1.887,1.722,1.533,1.533,0,0,0,1.131-.386,1.293,1.293,0,0,0,.387-.954,1.26,1.26,0,0,0-.267-.772,3.187,3.187,0,0,0-1.326-.759,11.173,11.173,0,0,1-1.617-.718,2.539,2.539,0,0,1-1.193-2.173,2.516,2.516,0,0,1,.776-1.873,2.82,2.82,0,0,1,2.061-.759A2.771,2.771,0,0,1,153.234,39.41Z" transform="translate(-0.188 -2.828)" fill="#4b7dcf"/>
          <path d="M153.9,37.325h5.7v1.312h-2.085v8.019h-1.545V38.637H153.9Z" transform="translate(-0.188 -2.828)" fill="#4b7dcf"/>
          <path d="M160.2,37.325h1.511v5.79a7.266,7.266,0,0,0,.1,1.432,1.205,1.205,0,0,0,.469.731,1.97,1.97,0,0,0,1.9.048,1.2,1.2,0,0,0,.464-.629,6.018,6.018,0,0,0,.137-1.61V37.325h1.388v5.687a8.721,8.721,0,0,1-.2,2.106,2.122,2.122,0,0,1-.9,1.223,3.3,3.3,0,0,1-1.9.486,3.892,3.892,0,0,1-1.6-.3,2.076,2.076,0,0,1-1.029-.984,5.84,5.84,0,0,1-.349-2.423Z" transform="translate(-0.188 -2.828)" fill="#4b7dcf"/>
          <path d="M167.9,37.325H170a4.771,4.771,0,0,1,2.439.54,3.379,3.379,0,0,1,1.382,1.606,5.809,5.809,0,0,1,.469,2.365,6.605,6.605,0,0,1-.421,2.437A3.917,3.917,0,0,1,172.582,46a4.024,4.024,0,0,1-2.467.656H167.9Zm1.545,1.237v6.856h.644a2.166,2.166,0,0,0,1.959-.933,4.492,4.492,0,0,0,.61-2.491q0-3.432-2.569-3.432Z" transform="translate(-0.188 -2.828)" fill="#4b7dcf"/>
          <path d="M175.766,37.325h1.545v9.331h-1.545Z" transform="translate(-0.188 -2.828)" fill="#4b7dcf"/>
          <path d="M179.033,37.325h1.511v5.79a7.266,7.266,0,0,0,.1,1.432,1.205,1.205,0,0,0,.469.731,1.97,1.97,0,0,0,1.9.048,1.2,1.2,0,0,0,.464-.629,6.018,6.018,0,0,0,.137-1.61V37.325h1.388v5.687a8.721,8.721,0,0,1-.2,2.106,2.122,2.122,0,0,1-.9,1.223,3.3,3.3,0,0,1-1.9.486,3.892,3.892,0,0,1-1.6-.3,2.076,2.076,0,0,1-1.029-.984,5.84,5.84,0,0,1-.349-2.423Z" transform="translate(-0.188 -2.828)" fill="#4b7dcf"/>
          <path d="M186.7,37.325h2.292l1.861,6.726,1.91-6.726h2.2v9.331h-1.449V38.692l-2.218,7.964h-1.122l-2.177-7.971v7.971H186.7Z" transform="translate(-0.188 -2.828)" fill="#4b7dcf"/>
        </g>
      </g>
    </g>
  </g>
</svg>
