<?xml version="1.0" encoding="UTF-8" standalone="no"?>
<svg
   xmlns:dc="http://purl.org/dc/elements/1.1/"
   xmlns:cc="http://creativecommons.org/ns#"
   xmlns:rdf="http://www.w3.org/1999/02/22-rdf-syntax-ns#"
   xmlns:svg="http://www.w3.org/2000/svg"
   xmlns="http://www.w3.org/2000/svg"
   xmlns:xlink="http://www.w3.org/1999/xlink"
   xmlns:sodipodi="http://sodipodi.sourceforge.net/DTD/sodipodi-0.dtd"
   xmlns:inkscape="http://www.inkscape.org/namespaces/inkscape"
   viewBox="0 0 99.6 89"
   version="1.1"
   id="svg1361"
   sodipodi:docname="C3_kcl_hover.svg"
   inkscape:version="0.92.4 (5da689c313, 2019-01-14)">
  <metadata
     id="metadata1365">
    <rdf:RDF>
      <cc:Work
         rdf:about="">
        <dc:format>image/svg+xml</dc:format>
        <dc:type
           rdf:resource="http://purl.org/dc/dcmitype/StillImage" />
        <dc:title>C1_faq</dc:title>
      </cc:Work>
    </rdf:RDF>
  </metadata>
  <sodipodi:namedview
     pagecolor="#ffffff"
     bordercolor="#666666"
     borderopacity="1"
     objecttolerance="10"
     gridtolerance="10"
     guidetolerance="10"
     inkscape:pageopacity="0"
     inkscape:pageshadow="2"
     inkscape:window-width="1729"
     inkscape:window-height="815"
     id="namedview1363"
     showgrid="false"
     inkscape:zoom="3"
     inkscape:cx="-100.36295"
     inkscape:cy="44.5"
     inkscape:window-x="1963"
     inkscape:window-y="79"
     inkscape:window-maximized="0"
     inkscape:current-layer="svg1361" />
  <defs
     id="defs1103">
    <clipPath
       id="clip-path"
       transform="translate(0.05)">
      <rect
         x="3.193"
         y="3.073"
         width="92.076"
         height="79.376"
         rx="7.091"
         fill="none"
         id="rect1091" />
    </clipPath>
    <clipPath
       id="clip-path-2"
       transform="translate(0.05)">
      <rect
         x="0.307"
         y="0.186"
         width="97.848"
         height="85.146"
         fill="none"
         id="rect1094" />
    </clipPath>
    <clipPath
       id="clip-path-4"
       transform="translate(0.05)">
      <rect
         x="2.893"
         y="3.07"
         width="92.076"
         height="79.376"
         rx="7.091"
         fill="none"
         id="rect1097" />
    </clipPath>
    <clipPath
       id="clip-path-5"
       transform="translate(0.05)">
      <rect
         x="0.007"
         y="0.183"
         width="97.848"
         height="85.146"
         fill="none"
         id="rect1100" />
    </clipPath>
    <linearGradient
       gradientTransform="matrix(0.80065364,0,0,0.80941636,0.26060764,-0.46404563)"
       inkscape:collect="always"
       xlink:href="#linearGradient1175"
       id="linearGradient1177"
       x1="103.59147"
       y1="88.713524"
       x2="13.732"
       y2="13.404"
       gradientUnits="userSpaceOnUse" />
    <linearGradient
       inkscape:collect="always"
       id="linearGradient1175">
      <stop
         style="stop-color:#2d528b;stop-opacity:1"
         offset="0"
         id="stop1171-0" />
      <stop
         style="stop-color:#385f9c;stop-opacity:1"
         offset="1"
         id="stop1173-3" />
    </linearGradient>
  </defs>
  <title
     id="title1105">C1_faq</title>
  <rect
     x="0.60000002"
     width="99"
     height="89"
     id="rect1107"
     y="0"
     style="isolation:isolate;fill:#ffffff" />
  <g
     id="g1213"
     style="opacity:0.3;isolation:isolate;mix-blend-mode:multiply"
     transform="matrix(0.98414881,0,0,0.98215347,1.5453956,1.5520417)">
    <path
       style="fill:#ffffff"
       inkscape:connector-curvature="0"
       id="path1109"
       transform="translate(0.05)"
       d="m 97.444,78.891 c 0,4.44 -3.984,8.044 -8.9,8.046 l -74.888,0.029 c -4.917,0 -8.9,-3.6 -8.9,-8.039 L 4.729,11.248 c 0,-4.444 3.98,-8.047 8.9,-8.048 L 88.517,3.17 c 4.913,0 8.9,3.6 8.9,8.042 z" />
    <path
       style="fill:#fefeff"
       inkscape:connector-curvature="0"
       id="path1111"
       transform="translate(0.05)"
       d="m 97.379,78.829 c 0,4.437 -3.982,8.038 -8.894,8.04 L 13.621,86.9 c -4.916,0 -8.9,-3.6 -8.9,-8.033 L 4.694,11.241 c 0,-4.438 3.94,-8.036 8.859,-8.045 l 74.9,-0.026 c 4.912,0 8.9,3.6 8.9,8.035 z" />
    <path
       style="fill:#fdfdff"
       inkscape:connector-curvature="0"
       id="path1113"
       transform="translate(0.05)"
       d="m 97.315,78.768 c 0,4.433 -3.981,8.031 -8.891,8.033 l -74.841,0.03 c -4.914,0 -8.9,-3.594 -8.9,-8.027 L 4.659,11.235 c 0,-4.432 3.9,-8.027 8.821,-8.042 L 88.391,3.17 c 4.91,0 8.9,3.592 8.9,8.029 z" />
    <path
       style="fill:#fcfcff"
       inkscape:connector-curvature="0"
       id="path1115"
       transform="translate(0.05)"
       d="m 97.251,78.707 c 0,4.429 -3.98,8.025 -8.889,8.026 l -74.817,0.03 c -4.913,0 -8.893,-3.591 -8.895,-8.02 L 4.623,11.228 c 0,-4.426 3.862,-8.016 8.784,-8.039 L 88.329,3.17 c 4.909,0 8.893,3.589 8.9,8.022 z" />
    <path
       style="fill:#fcfcff"
       inkscape:connector-curvature="0"
       id="path1117"
       transform="translate(0.05)"
       d="m 97.186,78.645 c 0,4.426 -3.979,8.019 -8.886,8.021 L 13.507,86.7 C 8.596,86.7 4.616,83.112 4.615,78.686 L 4.588,11.222 C 4.6,6.8 8.411,3.215 13.334,3.186 L 88.267,3.171 c 4.908,0 8.891,3.586 8.893,8.015 z" />
    <path
       style="fill:#fbfbff"
       inkscape:connector-curvature="0"
       id="path1119"
       transform="translate(0.05)"
       d="m 97.122,78.584 c 0,4.422 -3.978,8.012 -8.883,8.014 L 13.468,86.627 C 8.56,86.627 4.581,83.042 4.579,78.62 L 4.553,11.22 c 0.009,-4.415 3.783,-8 8.708,-8.033 L 88.206,3.176 c 4.906,0 8.888,3.583 8.889,8.008 z" />
    <path
       style="fill:#fafaff"
       inkscape:connector-curvature="0"
       id="path1121"
       transform="translate(0.05)"
       d="m 97.057,78.522 c 0,4.419 -3.976,8.006 -8.88,8.008 L 13.43,86.559 c -4.907,0 -8.884,-3.582 -8.886,-8 L 4.518,11.209 c 0.01,-4.41 3.744,-7.987 8.67,-8.03 L 88.144,3.171 c 4.9,0 8.885,3.58 8.887,8 z" />
    <path
       style="fill:#f9f9ff"
       inkscape:connector-curvature="0"
       id="path1123"
       transform="translate(0.05)"
       d="m 96.993,78.461 c 0,4.415 -3.975,8 -8.878,8 L 13.392,86.49 c -4.9,0 -8.881,-3.579 -8.883,-7.994 L 4.482,11.2 c 0.013,-4.4 3.7,-7.976 8.633,-8.027 h 74.968 c 4.9,0 8.882,3.577 8.883,8 z" />
    <path
       style="fill:#f8f8ff"
       inkscape:connector-curvature="0"
       id="path1125"
       transform="translate(0.05)"
       d="m 96.929,78.4 c 0,4.412 -3.974,7.993 -8.875,8 l -74.7,0.029 c -4.9,0 -8.879,-3.576 -8.88,-7.988 L 4.447,11.2 C 4.462,6.8 8.113,3.233 13.042,3.176 h 74.979 c 4.9,0 8.879,3.574 8.881,7.989 z" />
    <path
       style="fill:#f7f7fe"
       inkscape:connector-curvature="0"
       id="path1127"
       transform="translate(0.05)"
       d="m 96.864,78.338 c 0,4.408 -3.972,7.986 -8.872,7.988 l -74.676,0.029 c -4.9,0 -8.876,-3.573 -8.878,-7.981 L 4.412,11.189 C 4.429,6.8 8.038,3.232 12.969,3.168 h 74.99 c 4.9,0 8.877,3.571 8.879,7.982 z" />
    <path
       style="fill:#f7f7fe"
       inkscape:connector-curvature="0"
       id="path1129"
       transform="translate(0.05)"
       d="m 96.8,78.276 c 0,4.405 -3.971,7.98 -8.87,7.982 l -74.652,0.029 c -4.9,0 -8.873,-3.57 -8.875,-7.975 L 4.377,11.183 C 4.4,6.8 7.964,3.236 12.9,3.165 l 75,0.006 c 4.9,0 8.874,3.568 8.875,7.976 z" />
    <path
       style="fill:#f6f6fe"
       inkscape:connector-curvature="0"
       id="path1131"
       transform="translate(0.05)"
       d="m 96.735,78.215 c 0,4.4 -3.969,7.973 -8.866,7.975 L 13.24,86.219 c -4.9,0 -8.87,-3.567 -8.872,-7.968 L 4.342,11.176 C 4.363,6.796 7.889,3.239 12.823,3.161 l 75.013,0.01 c 4.9,0 8.871,3.565 8.873,7.969 z" />
    <path
       style="fill:#f5f5fe"
       inkscape:connector-curvature="0"
       id="path1133"
       transform="translate(0.05)"
       d="m 96.671,78.153 c 0,4.4 -3.969,7.967 -8.864,7.969 l -74.6,0.029 c -4.9,0 -8.868,-3.564 -8.869,-7.962 L 4.306,11.17 C 4.33,6.8 7.815,3.243 12.75,3.158 l 75.024,0.013 c 4.9,0 8.869,3.562 8.87,7.963 z" />
    <path
       style="fill:#f4f4fe"
       inkscape:connector-curvature="0"
       id="path1135"
       transform="translate(0.05)"
       d="m 96.606,78.092 c 0,4.394 -3.967,7.96 -8.861,7.962 l -74.581,0.029 c -4.9,0 -8.865,-3.561 -8.867,-7.955 L 4.271,11.163 C 4.3,6.794 7.74,3.246 12.677,3.154 l 75.036,0.017 c 4.894,0 8.865,3.56 8.867,7.957 z" />
    <path
       style="fill:#f3f3fe"
       inkscape:connector-curvature="0"
       id="path1137"
       transform="translate(0.05)"
       d="m 96.542,78.031 c 0,4.39 -3.966,7.953 -8.858,7.955 l -74.558,0.029 c -4.895,0 -8.862,-3.558 -8.864,-7.949 L 4.236,11.157 C 4.263,6.793 7.666,3.25 12.6,3.151 l 75.047,0.02 c 4.893,0 8.863,3.557 8.865,7.95 z" />
    <path
       style="fill:#f2f2fe"
       inkscape:connector-curvature="0"
       id="path1139"
       transform="translate(0.05)"
       d="m 96.478,77.969 c 0,4.387 -3.965,7.948 -8.856,7.949 l -74.535,0.029 c -4.892,0 -8.858,-3.555 -8.86,-7.942 L 4.2,11.15 c 0.029,-4.358 3.39,-7.9 8.33,-8 l 75.058,0.024 c 4.891,0 8.861,3.554 8.862,7.944 z" />
    <path
       style="fill:#f2f2fe"
       inkscape:connector-curvature="0"
       id="path1141"
       transform="translate(0.05)"
       d="m 96.413,77.908 c 0,4.383 -3.963,7.941 -8.853,7.942 l -74.511,0.029 c -4.89,0 -8.856,-3.552 -8.857,-7.936 l -0.027,-66.8 c 0.032,-4.352 3.352,-7.887 8.293,-8 l 75.07,0.027 c 4.889,0 8.857,3.551 8.859,7.937 z" />
    <path
       style="fill:#f1f1fe"
       inkscape:connector-curvature="0"
       id="path1143"
       transform="translate(0.05)"
       d="m 96.349,77.846 c 0,4.38 -3.962,7.935 -8.85,7.937 l -74.488,0.029 c -4.889,0 -8.853,-3.55 -8.855,-7.93 L 4.13,11.137 c 0.034,-4.346 3.312,-7.877 8.254,-8 l 75.082,0.031 c 4.888,0 8.855,3.548 8.857,7.931 z" />
    <path
       style="fill:#f0f0fe"
       inkscape:connector-curvature="0"
       id="path1145"
       transform="translate(0.05)"
       d="m 96.284,77.785 c 0,4.376 -3.96,7.928 -8.847,7.93 l -74.464,0.029 c -4.887,0 -8.85,-3.547 -8.852,-7.923 L 4.1,11.131 C 4.136,6.79 7.373,3.263 12.316,3.137 L 87.41,3.171 c 4.886,0 8.851,3.545 8.853,7.924 z" />
    <path
       style="fill:#efeffe"
       inkscape:connector-curvature="0"
       id="path1147"
       transform="translate(0.05)"
       d="m 96.22,77.723 c 0,4.373 -3.959,7.922 -8.845,7.924 l -74.44,0.029 c -4.886,0 -8.847,-3.544 -8.849,-7.917 L 4.06,11.124 C 4.1,6.789 7.293,3.267 12.238,3.133 l 75.105,0.038 c 4.885,0 8.849,3.542 8.851,7.918 z" />
    <path
       style="fill:#eeeefe"
       inkscape:connector-curvature="0"
       id="path1149"
       transform="translate(0.05)"
       d="m 96.156,77.662 c 0,4.369 -3.959,7.915 -8.842,7.917 L 12.9,85.608 c -4.884,0 -8.845,-3.541 -8.846,-7.91 L 4.028,11.118 a 7.945,7.945 0 0 1 8.14,-7.988 l 75.116,0.041 c 4.884,0 8.847,3.539 8.848,7.911 z" />
    <path
       style="fill:#ededfe"
       inkscape:connector-curvature="0"
       id="path1151"
       transform="translate(0.05)"
       d="m 96.091,77.6 c 0,4.366 -3.957,7.909 -8.839,7.911 L 12.859,85.54 c -4.883,0 -8.842,-3.538 -8.844,-7.9 L 3.989,11.111 a 7.919,7.919 0 0 1 8.1,-7.985 l 75.128,0.045 c 4.882,0 8.843,3.536 8.845,7.905 z" />
    <path
       style="fill:#ececfe"
       inkscape:connector-curvature="0"
       id="path1153"
       transform="translate(0.05)"
       d="m 96.027,77.539 c 0,4.362 -3.956,7.9 -8.837,7.9 l -74.369,0.029 c -4.881,0 -8.839,-3.535 -8.841,-7.9 L 3.954,11.098 a 7.891,7.891 0 0 1 8.065,-7.982 l 75.139,0.048 c 4.881,0 8.841,3.534 8.843,7.9 z" />
    <path
       style="fill:#ececfe"
       inkscape:connector-curvature="0"
       id="path1155"
       transform="translate(0.05)"
       d="m 95.962,77.478 c 0,4.358 -3.954,7.9 -8.833,7.9 L 12.783,85.4 c -4.88,0 -8.836,-3.532 -8.838,-7.891 L 3.919,11.1 a 7.864,7.864 0 0 1 8.027,-7.979 l 75.15,0.052 c 4.88,0 8.838,3.531 8.84,7.892 z" />
    <path
       style="fill:#ebebfe"
       inkscape:connector-curvature="0"
       id="path1157"
       transform="translate(0.05)"
       d="m 95.9,77.416 c 0,4.355 -3.953,7.889 -8.831,7.891 l -74.322,0.029 c -4.878,0 -8.834,-3.529 -8.835,-7.884 L 3.886,11.092 a 7.837,7.837 0 0 1 7.989,-7.976 l 75.162,0.055 c 4.877,0 8.835,3.528 8.837,7.885 z" />
    <path
       style="fill:#eaeafe"
       inkscape:connector-curvature="0"
       id="path1159"
       transform="translate(0.05)"
       d="m 95.834,77.355 c 0,4.351 -3.952,7.882 -8.829,7.884 l -74.3,0.029 c -4.876,0 -8.83,-3.526 -8.831,-7.878 L 3.848,11.085 A 7.812,7.812 0 0 1 11.8,3.112 l 75.173,0.059 c 4.876,0 8.833,3.525 8.834,7.879 z" />
    <path
       style="fill:#e9e9fd"
       inkscape:connector-curvature="0"
       id="path1161"
       transform="translate(0.05)"
       d="m 95.769,77.293 c 0,4.348 -3.95,7.876 -8.825,7.878 L 12.668,85.2 C 7.794,85.2 3.841,81.677 3.839,77.329 L 3.813,11.079 a 7.784,7.784 0 0 1 7.914,-7.97 l 75.184,0.062 c 4.875,0 8.83,3.522 8.832,7.872 z" />
    <path
       style="fill:#e8e8fd"
       inkscape:connector-curvature="0"
       id="path1163"
       transform="translate(0.05)"
       d="m 95.705,77.232 c 0,4.344 -3.95,7.869 -8.823,7.871 L 12.63,85.132 c -4.872,0 -8.824,-3.52 -8.826,-7.865 L 3.778,11.072 a 7.758,7.758 0 0 1 7.876,-7.967 l 75.2,0.066 c 4.873,0 8.827,3.519 8.829,7.866 z" />
    <path
       style="fill:#e7e7fd"
       inkscape:connector-curvature="0"
       id="path1165"
       transform="translate(0.05)"
       d="m 95.64,77.17 c 0,4.341 -3.948,7.864 -8.82,7.865 l -74.228,0.029 c -4.871,0 -8.822,-3.517 -8.823,-7.858 L 3.743,11.066 A 7.73,7.73 0 0 1 11.581,3.1 l 75.207,0.069 c 4.872,0 8.824,3.516 8.826,7.859 z" />
    <path
       style="fill:#e7e7fd"
       inkscape:connector-curvature="0"
       id="path1167"
       transform="translate(0.05)"
       d="m 95.576,77.109 c 0,4.337 -3.947,7.857 -8.817,7.859 L 12.554,85 C 7.685,85 3.735,81.486 3.734,77.148 L 3.707,11.059 a 7.7,7.7 0 0 1 7.8,-7.961 l 75.219,0.073 c 4.87,0 8.821,3.513 8.823,7.853 z" />
    <path
       style="fill:#e6e6fd"
       inkscape:connector-curvature="0"
       id="path1169"
       transform="translate(0.05)"
       d="m 95.511,77.047 c 0,4.334 -3.945,7.851 -8.814,7.853 L 12.516,84.928 C 7.648,84.928 3.7,81.417 3.698,77.083 L 3.672,11.053 A 7.678,7.678 0 0 1 11.435,3.1 l 75.23,0.076 c 4.869,0 8.819,3.51 8.82,7.846 z" />
    <path
       style="fill:#e5e5fd"
       inkscape:connector-curvature="0"
       id="path1171"
       transform="translate(0.05)"
       d="m 95.447,76.986 c 0,4.331 -3.944,7.844 -8.812,7.846 L 12.478,84.86 c -4.866,0 -8.813,-3.508 -8.815,-7.838 L 3.637,11.046 a 7.652,7.652 0 0 1 7.725,-7.955 l 75.241,0.08 c 4.868,0 8.816,3.508 8.818,7.84 z" />
    <path
       style="fill:#e4e4fd"
       inkscape:connector-curvature="0"
       id="path1173"
       transform="translate(0.05)"
       d="m 95.383,76.924 c 0,4.328 -3.943,7.838 -8.809,7.84 L 12.44,84.793 c -4.865,0 -8.811,-3.506 -8.812,-7.833 L 3.6,11.04 C 3.665,6.779 6.323,3.312 11.287,3.088 L 86.54,3.171 c 4.866,0 8.813,3.505 8.815,7.833 z" />
    <path
       style="fill:#e3e3fd"
       inkscape:connector-curvature="0"
       id="path1175"
       transform="translate(0.05)"
       d="m 95.318,76.863 c 0,4.324 -3.941,7.831 -8.806,7.833 l -74.11,0.029 c -4.863,0 -8.808,-3.5 -8.809,-7.826 L 3.567,11.033 C 3.634,6.778 6.251,3.315 11.216,3.084 L 86.48,3.171 c 4.865,0 8.811,3.5 8.812,7.827 z" />
    <path
       style="fill:#e2e2fd"
       inkscape:connector-curvature="0"
       id="path1177"
       transform="translate(0.05)"
       d="m 95.254,76.8 c 0,4.32 -3.94,7.824 -8.8,7.826 l -74.086,0.029 c -4.862,0 -8.8,-3.5 -8.807,-7.82 L 3.535,11.025 C 3.605,6.775 6.18,3.317 11.147,3.079 l 75.275,0.09 c 4.863,0 8.808,3.5 8.81,7.82 z" />
    <path
       style="fill:#e1e1fd"
       inkscape:connector-curvature="0"
       id="path1179"
       transform="translate(0.05)"
       d="m 95.189,76.74 c 0,4.317 -3.939,7.818 -8.8,7.82 l -74.063,0.029 c -4.86,0 -8.8,-3.5 -8.8,-7.813 L 3.5,11.02 C 3.571,6.777 6.106,3.32 11.074,3.077 l 75.287,0.094 c 4.861,0 8.805,3.5 8.806,7.814 z" />
    <path
       style="fill:#e1e1fd"
       inkscape:connector-curvature="0"
       id="path1181"
       transform="translate(0.05)"
       d="m 95.125,76.679 c 0,4.313 -3.938,7.811 -8.8,7.813 l -74.04,0.029 c -4.858,0 -8.8,-3.494 -8.8,-7.807 L 3.459,11.014 C 3.534,6.776 6.027,3.325 11,3.074 l 75.3,0.1 c 4.86,0 8.8,3.493 8.8,7.807 z" />
    <path
       style="fill:#e0e0fd"
       inkscape:connector-curvature="0"
       id="path1183"
       transform="translate(0.05)"
       d="m 95.061,76.617 c 0,4.31 -3.937,7.8 -8.8,7.807 l -74.017,0.029 c -4.856,0 -8.8,-3.491 -8.8,-7.8 L 3.426,11.007 C 3.501,6.775 5.953,3.329 10.926,3.07 l 75.309,0.1 c 4.859,0 8.8,3.49 8.8,7.8 z" />
    <path
       style="fill:#dfdffd"
       inkscape:connector-curvature="0"
       id="path1185"
       transform="translate(0.05)"
       d="m 95,76.556 c 0,4.306 -3.935,7.8 -8.792,7.8 l -73.993,0.029 c -4.854,0 -8.793,-3.488 -8.795,-7.794 L 3.39,11 C 3.468,6.773 5.878,3.331 10.851,3.066 l 75.321,0.1 c 4.857,0 8.8,3.487 8.8,7.794 z" />
    <path
       style="fill:#dedefd"
       inkscape:connector-curvature="0"
       id="path1187"
       transform="translate(0.05)"
       d="m 94.932,76.494 c 0,4.3 -3.934,7.792 -8.79,7.794 l -73.969,0.029 c -4.853,0 -8.79,-3.485 -8.792,-7.787 L 3.355,10.994 C 3.435,6.773 5.804,3.336 10.778,3.063 L 86.11,3.171 c 4.856,0 8.794,3.484 8.8,7.788 z" />
    <path
       style="fill:#ddddfd"
       inkscape:connector-curvature="0"
       id="path1189"
       transform="translate(0.05)"
       d="m 94.867,76.433 c 0,4.3 -3.932,7.786 -8.786,7.787 l -73.946,0.029 c -4.851,0 -8.787,-3.482 -8.789,-7.781 L 3.32,10.988 C 3.4,6.773 5.729,3.339 10.705,3.06 l 75.344,0.111 c 4.854,0 8.791,3.481 8.792,7.781 z" />
    <path
       style="fill:#dcdcfd"
       inkscape:connector-curvature="0"
       id="path1191"
       transform="translate(0.05)"
       d="m 94.8,76.371 c 0,4.3 -3.931,7.78 -8.784,7.781 L 12.1,84.181 c -4.85,0 -8.785,-3.479 -8.786,-7.774 L 3.285,10.981 C 3.369,6.772 5.655,3.343 10.632,3.056 l 75.355,0.115 c 4.853,0 8.788,3.479 8.79,7.775 z" />
    <path
       style="fill:#dcdcfd"
       inkscape:connector-curvature="0"
       id="path1193"
       transform="translate(0.05)"
       d="m 94.739,76.31 c 0,4.292 -3.93,7.773 -8.782,7.775 l -73.9,0.028 c -4.848,0 -8.782,-3.476 -8.784,-7.768 L 3.247,10.975 c 0.086,-4.2 2.331,-7.629 7.31,-7.922 l 75.366,0.118 c 4.852,0 8.786,3.476 8.788,7.768 z" />
    <path
       style="fill:#dbdbfc"
       inkscape:connector-curvature="0"
       id="path1195"
       transform="translate(0.05)"
       d="m 94.674,76.248 c 0,4.289 -3.929,7.767 -8.778,7.769 l -73.875,0.028 c -4.847,0 -8.779,-3.473 -8.781,-7.761 L 3.214,10.968 C 3.3,6.77 5.506,3.35 10.486,3.049 l 75.378,0.122 c 4.849,0 8.783,3.473 8.784,7.762 z" />
    <path
       style="fill:#dadafc"
       inkscape:connector-curvature="0"
       id="path1197"
       transform="translate(0.05)"
       d="m 94.61,76.187 c 0,4.285 -3.928,7.76 -8.776,7.762 l -73.851,0.028 c -4.845,0 -8.776,-3.47 -8.778,-7.755 L 3.179,10.962 C 3.269,6.77 5.431,3.353 10.413,3.046 L 85.8,3.171 c 4.848,0 8.78,3.47 8.782,7.755 z" />
    <path
       style="fill:#d9d9fc"
       inkscape:connector-curvature="0"
       id="path1199"
       transform="translate(0.05)"
       d="m 94.545,76.126 c 0,4.281 -3.926,7.753 -8.773,7.755 l -73.827,0.028 c -4.844,0 -8.774,-3.467 -8.775,-7.748 L 3.144,10.955 c 0.092,-4.186 2.213,-7.6 7.2,-7.913 l 75.4,0.129 c 4.847,0 8.778,3.467 8.78,7.749 z" />
    <path
       style="fill:#d8d8fc"
       inkscape:connector-curvature="0"
       id="path1201"
       transform="translate(0.05)"
       d="m 94.481,76.064 c 0,4.278 -3.925,7.747 -8.77,7.749 l -73.8,0.028 C 7.07,83.841 3.141,80.377 3.139,76.1 L 3.109,10.949 C 3.2,6.768 5.282,3.36 10.267,3.039 l 75.412,0.132 c 4.845,0 8.774,3.464 8.776,7.742 z" />
    <path
       style="fill:#d7d7fc"
       inkscape:connector-curvature="0"
       id="path1203"
       transform="translate(0.05)"
       d="m 94.416,76 c 0,4.274 -3.923,7.74 -8.767,7.742 l -73.781,0.029 c -4.84,0 -8.767,-3.462 -8.769,-7.736 L 3.073,10.935 C 3.173,6.76 5.208,3.356 10.194,3.028 l 75.423,0.136 c 4.844,0 8.772,3.461 8.774,7.736 z" />
    <path
       style="fill:#d7d7fc"
       inkscape:connector-curvature="0"
       id="path1205"
       transform="translate(0.05)"
       d="m 94.352,75.941 c 0,4.271 -3.922,7.734 -8.765,7.736 L 11.83,83.706 c -4.838,0 -8.764,-3.459 -8.766,-7.729 L 3.038,10.936 c 0.1,-4.17 2.1,-7.569 7.083,-7.9 l 75.434,0.139 c 4.843,0 8.77,3.458 8.771,7.729 z" />
    <path
       style="fill:#d6d6fc"
       inkscape:connector-curvature="0"
       id="path1207"
       transform="translate(0.05)"
       d="m 94.288,75.88 c 0,4.267 -3.921,7.727 -8.762,7.729 l -73.734,0.029 c -4.836,0 -8.762,-3.456 -8.763,-7.723 L 3,10.929 C 3.1,6.766 5.056,3.37 10.045,3.029 l 75.446,0.143 c 4.841,0 8.766,3.455 8.768,7.723 z" />
    <path
       style="fill:#d5d5fc"
       inkscape:connector-curvature="0"
       id="path1209"
       transform="translate(0.05)"
       d="m 94.223,75.818 c 0,4.264 -3.92,7.721 -8.759,7.723 l -73.71,0.029 c -4.835,0 -8.759,-3.453 -8.761,-7.716 L 2.968,10.923 c 0.1,-4.158 2.016,-7.549 7.007,-7.9 l 75.457,0.146 c 4.84,0 8.764,3.453 8.766,7.716 z" />
    <path
       style="opacity:0.3;fill:#d4d4fc"
       inkscape:connector-curvature="0"
       id="path1211"
       transform="translate(0.05)"
       d="m 94.159,75.757 c 0,4.26 -3.919,7.714 -8.757,7.716 L 11.716,83.5 C 6.883,83.5 2.96,80.05 2.958,75.79 L 2.932,10.916 C 3.037,6.764 4.91,3.377 9.9,3.021 l 75.47,0.15 c 4.838,0 8.76,3.45 8.762,7.71 z" />
  </g>
  <rect
     x="3.4360104"
     y="2.7266736"
     width="91.373001"
     height="79.632004"
     rx="7.0361447"
     id="rect9337"
     style="opacity:1;isolation:isolate;fill:url(#linearGradient1177);fill-opacity:1.0;stroke-width:0.80502313" />
  <g
     transform="translate(1.126,-1.729)"
     style="isolation:isolate"
     id="g1651">
    <path
       d="m 18.082,25.983 h -1.727 v 2.635 a 1.234,1.234 0 0 1 -0.267,0.858 0.94,0.94 0 0 1 -1.358,0 1.228,1.228 0 0 1 -0.261,-0.848 v -7.171 a 1.175,1.175 0 0 1 0.286,-0.889 1.3,1.3 0 0 1 0.908,-0.265 h 2.419 a 6.293,6.293 0 0 1 1.65,0.165 2.428,2.428 0 0 1 0.986,0.527 2.36,2.36 0 0 1 0.632,0.9 3.177,3.177 0 0 1 0.216,1.2 2.652,2.652 0 0 1 -0.877,2.154 3.984,3.984 0 0 1 -2.607,0.734 z m -0.457,-4.265 h -1.269 v 2.844 h 1.27 a 3.79,3.79 0 0 0 1.113,-0.139 1.308,1.308 0 0 0 0.683,-0.457 1.363,1.363 0 0 0 0.235,-0.832 1.407,1.407 0 0 0 -0.362,-1 2.4,2.4 0 0 0 -1.67,-0.416 z"
       transform="translate(0.18,0.32)"
       stroke-miterlimit="10"
       id="path1609"
       inkscape:connector-curvature="0"
       style="fill:#ffffff;stroke:#ffffff;stroke-width:0.5;stroke-miterlimit:10" />
    <path
       d="m 24.74,27.268 v 1.447 a 1.119,1.119 0 0 1 -0.248,0.79 0.822,0.822 0 0 1 -0.628,0.263 0.792,0.792 0 0 1 -0.616,-0.266 1.137,1.137 0 0 1 -0.241,-0.787 v -4.824 c 0,-0.78 0.281,-1.168 0.844,-1.168 a 0.7,0.7 0 0 1 0.622,0.272 1.506,1.506 0 0 1 0.21,0.806 3.016,3.016 0 0 1 0.639,-0.801 1.317,1.317 0 0 1 0.872,-0.272 2.23,2.23 0 0 1 1.06,0.272 0.818,0.818 0 0 1 0.515,0.725 0.691,0.691 0 0 1 -0.22,0.523 0.68,0.68 0 0 1 -0.473,0.206 2.217,2.217 0 0 1 -0.46,-0.118 2.145,2.145 0 0 0 -0.644,-0.117 0.937,0.937 0 0 0 -0.622,0.2 1.28,1.28 0 0 0 -0.375,0.594 4.137,4.137 0 0 0 -0.184,0.935 c -0.034,0.358 -0.051,0.798 -0.051,1.32 z"
       transform="translate(0.18,0.32)"
       stroke-miterlimit="10"
       id="path1611"
       inkscape:connector-curvature="0"
       style="fill:#ffffff;stroke:#ffffff;stroke-width:0.5;stroke-miterlimit:10" />
    <path
       d="m 32.89,28.792 v -0.223 a 3.788,3.788 0 0 1 -0.654,0.66 2.4,2.4 0 0 1 -0.749,0.4 3.023,3.023 0 0 1 -0.926,0.131 2.392,2.392 0 0 1 -1.127,-0.261 1.9,1.9 0 0 1 -0.771,-0.718 3.164,3.164 0 0 1 -0.324,-1.586 v -3.437 a 1.119,1.119 0 0 1 0.235,-0.778 0.8,0.8 0 0 1 0.622,-0.256 0.827,0.827 0 0 1 0.635,0.259 1.109,1.109 0 0 1 0.241,0.775 v 2.774 a 4.318,4.318 0 0 0 0.1,1.012 1.221,1.221 0 0 0 0.366,0.642 1.043,1.043 0 0 0 0.714,0.231 1.461,1.461 0 0 0 0.825,-0.26 1.527,1.527 0 0 0 0.565,-0.679 5.483,5.483 0 0 0 0.146,-1.613 v -2.107 a 1.1,1.1 0 0 1 0.241,-0.775 0.812,0.812 0 0 1 0.628,-0.258 0.8,0.8 0 0 1 0.622,0.256 1.119,1.119 0 0 1 0.235,0.778 v 5.02 a 1.074,1.074 0 0 1 -0.225,0.743 0.747,0.747 0 0 1 -0.581,0.248 0.757,0.757 0 0 1 -0.587,-0.258 1.034,1.034 0 0 1 -0.231,-0.72 z m -3.02,-6.92 a 0.729,0.729 0 0 1 -0.492,-0.189 0.656,0.656 0 0 1 -0.219,-0.522 0.678,0.678 0 0 1 0.21,-0.516 0.7,0.7 0 0 1 0.5,-0.2 0.761,0.761 0 0 1 0.5,0.181 0.757,0.757 0 0 1 0,1.058 0.733,0.733 0 0 1 -0.499,0.188 z m 2.476,-1.428 a 0.707,0.707 0 0 1 0.349,0.1 0.668,0.668 0 0 1 0.266,0.266 0.73,0.73 0 0 1 0.095,0.355 0.672,0.672 0 0 1 -0.209,0.522 0.72,0.72 0 0 1 -0.5,0.189 0.736,0.736 0 0 1 -0.5,-0.189 0.656,0.656 0 0 1 -0.219,-0.522 0.738,0.738 0 0 1 0.718,-0.717 z"
       transform="translate(0.18,0.32)"
       stroke-miterlimit="10"
       id="path1613"
       inkscape:connector-curvature="0"
       style="fill:#ffffff;stroke:#ffffff;stroke-width:0.5;stroke-miterlimit:10" />
    <path
       d="m 36.1,22.877 h 0.413 v -0.522 a 3.339,3.339 0 0 1 0.206,-1.291 1.317,1.317 0 0 1 0.7,-0.7 3.392,3.392 0 0 1 1.35,-0.22 q 1.516,0 1.516,0.745 a 0.592,0.592 0 0 1 -0.158,0.413 0.5,0.5 0 0 1 -0.375,0.171 3,3 0 0 1 -0.349,-0.039 2.768,2.768 0 0 0 -0.419,-0.039 q -0.47,0 -0.6,0.277 a 1.86,1.86 0 0 0 -0.133,0.79 v 0.413 h 0.425 q 0.99,0 0.99,0.6 0,0.426 -0.264,0.54 a 1.873,1.873 0 0 1 -0.727,0.114 H 38.25 v 4.59 A 1.129,1.129 0 0 1 38,29.5 0.812,0.812 0 0 1 37.369,29.77 0.792,0.792 0 0 1 36.756,29.5 1.129,1.129 0 0 1 36.512,28.717 v -4.59 h -0.476 a 0.912,0.912 0 0 1 -0.6,-0.175 0.563,0.563 0 0 1 -0.209,-0.454 q 0.006,-0.621 0.873,-0.621 z"
       transform="translate(0.18,0.32)"
       stroke-miterlimit="10"
       id="path1615-5"
       inkscape:connector-curvature="0"
       style="fill:#ffffff;stroke:#ffffff;stroke-width:0.5;stroke-miterlimit:10" />
    <path
       d="m 45.071,28.794 v -0.223 a 3.819,3.819 0 0 1 -0.653,0.66 2.412,2.412 0 0 1 -0.749,0.4 3.029,3.029 0 0 1 -0.927,0.131 2.392,2.392 0 0 1 -1.127,-0.261 1.9,1.9 0 0 1 -0.771,-0.718 3.164,3.164 0 0 1 -0.324,-1.586 V 23.76 a 1.119,1.119 0 0 1 0.235,-0.778 0.8,0.8 0 0 1 0.622,-0.256 0.827,0.827 0 0 1 0.635,0.259 1.109,1.109 0 0 1 0.241,0.775 v 2.774 a 4.26,4.26 0 0 0 0.1,1.012 1.214,1.214 0 0 0 0.365,0.642 1.043,1.043 0 0 0 0.714,0.231 1.456,1.456 0 0 0 0.825,-0.26 1.524,1.524 0 0 0 0.565,-0.68 5.47,5.47 0 0 0 0.146,-1.612 V 23.76 a 1.1,1.1 0 0 1 0.241,-0.775 0.813,0.813 0 0 1 0.628,-0.258 0.8,0.8 0 0 1 0.622,0.256 1.119,1.119 0 0 1 0.235,0.778 v 5.02 a 1.074,1.074 0 0 1 -0.225,0.743 0.8,0.8 0 0 1 -1.168,-0.01 1.034,1.034 0 0 1 -0.23,-0.72 z"
       transform="translate(0.18,0.32)"
       stroke-miterlimit="10"
       id="path1617-6"
       inkscape:connector-curvature="0"
       style="fill:#ffffff;stroke:#ffffff;stroke-width:0.5;stroke-miterlimit:10" />
    <path
       d="m 50,23.685 v 0.21 a 3.022,3.022 0 0 1 1,-0.886 2.641,2.641 0 0 1 1.247,-0.281 2.488,2.488 0 0 1 1.225,0.3 1.9,1.9 0 0 1 0.806,0.845 2.011,2.011 0 0 1 0.222,0.686 7.059,7.059 0 0 1 0.051,0.939 v 3.222 a 1.148,1.148 0 0 1 -0.238,0.787 0.788,0.788 0 0 1 -0.619,0.265 0.8,0.8 0 0 1 -0.628,-0.272 1.14,1.14 0 0 1 -0.241,-0.78 v -2.889 a 2.878,2.878 0 0 0 -0.238,-1.31 0.971,0.971 0 0 0 -0.949,-0.456 1.4,1.4 0 0 0 -0.844,0.277 1.582,1.582 0 0 0 -0.559,0.758 5.469,5.469 0 0 0 -0.126,1.447 v 2.172 a 1.132,1.132 0 0 1 -0.244,0.79 0.821,0.821 0 0 1 -0.632,0.262 0.786,0.786 0 0 1 -0.616,-0.272 1.145,1.145 0 0 1 -0.241,-0.78 V 23.71 a 1.089,1.089 0 0 1 0.216,-0.739 0.747,0.747 0 0 1 0.59,-0.244 0.8,0.8 0 0 1 0.413,0.107 0.777,0.777 0 0 1 0.3,0.324 1.144,1.144 0 0 1 0.105,0.527 z"
       transform="translate(0.18,0.32)"
       stroke-miterlimit="10"
       id="path1619-3"
       inkscape:connector-curvature="0"
       style="fill:#ffffff;stroke:#ffffff;stroke-width:0.5;stroke-miterlimit:10" />
    <path
       d="m 62.648,24 v 5.033 a 5.27,5.27 0 0 1 -0.185,1.486 2.366,2.366 0 0 1 -0.59,1.028 2.482,2.482 0 0 1 -1.063,0.6 5.791,5.791 0 0 1 -1.635,0.2 4.728,4.728 0 0 1 -1.6,-0.252 2.756,2.756 0 0 1 -1.086,-0.648 1.179,1.179 0 0 1 -0.381,-0.815 0.675,0.675 0 0 1 0.216,-0.518 0.742,0.742 0 0 1 0.521,-0.2 0.849,0.849 0 0 1 0.666,0.336 c 0.094,0.114 0.19,0.23 0.289,0.346 a 1.73,1.73 0 0 0 0.33,0.3 1.3,1.3 0 0 0 0.435,0.183 2.549,2.549 0 0 0 0.584,0.061 2.356,2.356 0 0 0 1.044,-0.188 1.065,1.065 0 0 0 0.52,-0.523 2.1,2.1 0 0 0 0.176,-0.721 q 0.025,-0.384 0.038,-1.234 a 2.838,2.838 0 0 1 -0.924,0.85 2.518,2.518 0 0 1 -1.247,0.292 2.634,2.634 0 0 1 -1.521,-0.445 2.843,2.843 0 0 1 -1,-1.244 4.579,4.579 0 0 1 -0.349,-1.847 4.381,4.381 0 0 1 0.213,-1.41 2.961,2.961 0 0 1 0.607,-1.06 2.579,2.579 0 0 1 0.907,-0.65 2.857,2.857 0 0 1 1.13,-0.219 2.72,2.72 0 0 1 1.276,0.283 3.121,3.121 0 0 1 1,0.885 v -0.234 a 1.008,1.008 0 0 1 0.222,-0.7 0.733,0.733 0 0 1 0.571,-0.247 0.673,0.673 0 0 1 0.667,0.326 2.13,2.13 0 0 1 0.169,0.946 z m -5.02,2.194 a 2.4,2.4 0 0 0 0.459,1.595 1.494,1.494 0 0 0 1.19,0.539 1.557,1.557 0 0 0 0.816,-0.231 1.693,1.693 0 0 0 0.625,-0.7 2.434,2.434 0 0 0 0.242,-1.132 2.609,2.609 0 0 0 -0.466,-1.651 1.493,1.493 0 0 0 -1.229,-0.59 1.442,1.442 0 0 0 -1.19,0.565 2.529,2.529 0 0 0 -0.447,1.603 z"
       transform="translate(0.18,0.32)"
       stroke-miterlimit="10"
       id="path1621-5"
       inkscape:connector-curvature="0"
       style="fill:#ffffff;stroke:#ffffff;stroke-width:0.5;stroke-miterlimit:10" />
    <path
       d="m 69.98,27.509 a 2.014,2.014 0 0 1 -1.381,2 4.615,4.615 0 0 1 -1.66,0.262 4.043,4.043 0 0 1 -1.6,-0.285 2.318,2.318 0 0 1 -0.983,-0.714 1.44,1.44 0 0 1 -0.318,-0.861 0.662,0.662 0 0 1 0.2,-0.487 0.7,0.7 0 0 1 0.514,-0.2 0.6,0.6 0 0 1 0.419,0.132 1.451,1.451 0 0 1 0.28,0.375 1.886,1.886 0 0 0 0.638,0.692 1.925,1.925 0 0 0 1.012,0.228 1.469,1.469 0 0 0 0.854,-0.231 0.651,0.651 0 0 0 0.333,-0.53 0.718,0.718 0 0 0 -0.346,-0.666 4.228,4.228 0 0 0 -1.139,-0.4 9.356,9.356 0 0 1 -1.457,-0.467 2.4,2.4 0 0 1 -0.9,-0.644 1.477,1.477 0 0 1 -0.336,-0.984 1.728,1.728 0 0 1 0.311,-0.983 2.14,2.14 0 0 1 0.918,-0.74 3.511,3.511 0 0 1 1.463,-0.276 4.816,4.816 0 0 1 1.209,0.139 3.049,3.049 0 0 1 0.895,0.375 1.839,1.839 0 0 1 0.546,0.521 1.024,1.024 0 0 1 0.187,0.558 0.649,0.649 0 0 1 -0.2,0.49 0.8,0.8 0 0 1 -0.568,0.189 0.7,0.7 0 0 1 -0.455,-0.152 3.073,3.073 0 0 1 -0.428,-0.457 1.572,1.572 0 0 0 -0.463,-0.407 1.464,1.464 0 0 0 -0.723,-0.152 1.426,1.426 0 0 0 -0.782,0.2 0.586,0.586 0 0 0 -0.311,0.5 0.539,0.539 0 0 0 0.229,0.447 1.891,1.891 0 0 0 0.616,0.29 q 0.387,0.114 1.066,0.279 a 5.666,5.666 0 0 1 1.317,0.469 2.185,2.185 0 0 1 0.774,0.644 1.427,1.427 0 0 1 0.269,0.846 z"
       transform="translate(0.18,0.32)"
       stroke-miterlimit="10"
       id="path1623-0"
       inkscape:connector-curvature="0"
       style="fill:#ffffff;stroke:#ffffff;stroke-width:0.5;stroke-miterlimit:10" />
    <path
       d="m 73.725,27 h -2.006 a 1.011,1.011 0 0 1 -0.695,-0.213 0.7,0.7 0 0 1 -0.238,-0.549 0.716,0.716 0 0 1 0.232,-0.555 1,1 0 0 1 0.7,-0.212 h 2.006 a 1,1 0 0 1 0.7,0.212 0.777,0.777 0 0 1 0,1.1 A 1.008,1.008 0 0 1 73.725,27 Z"
       transform="translate(0.18,0.32)"
       stroke-miterlimit="10"
       id="path1625-6"
       inkscape:connector-curvature="0"
       style="fill:#ffffff;stroke:#ffffff;stroke-width:0.5;stroke-miterlimit:10" />
    <path
       d="m 20.833,45.607 a 4.094,4.094 0 0 1 -0.241,1.429 3.161,3.161 0 0 1 -0.7,1.123 3.08,3.08 0 0 1 -1.093,0.721 3.861,3.861 0 0 1 -1.428,0.25 3.732,3.732 0 0 1 -1.415,-0.254 3.136,3.136 0 0 1 -1.787,-1.845 4.073,4.073 0 0 1 -0.238,-1.425 4.152,4.152 0 0 1 0.242,-1.44 3.112,3.112 0 0 1 0.692,-1.117 3.025,3.025 0 0 1 1.092,-0.714 4.135,4.135 0 0 1 2.843,0 3.092,3.092 0 0 1 1.1,0.723 3.125,3.125 0 0 1 0.7,1.117 4.1,4.1 0 0 1 0.233,1.432 z m -1.739,0 a 2.6,2.6 0 0 0 -0.466,-1.65 1.516,1.516 0 0 0 -1.254,-0.591 1.551,1.551 0 0 0 -0.895,0.264 1.677,1.677 0 0 0 -0.6,0.777 3.2,3.2 0 0 0 -0.21,1.2 3.144,3.144 0 0 0 0.206,1.187 1.7,1.7 0 0 0 0.591,0.778 1.532,1.532 0 0 0 0.9,0.27 1.514,1.514 0 0 0 1.254,-0.594 2.6,2.6 0 0 0 0.474,-1.641 z"
       transform="translate(0.18,0.32)"
       stroke-miterlimit="10"
       id="path1627-5"
       inkscape:connector-curvature="0"
       style="fill:#ffffff;stroke:#ffffff;stroke-width:0.5;stroke-miterlimit:10" />
    <path
       d="m 23.918,46.631 v 1.447 a 1.117,1.117 0 0 1 -0.248,0.79 0.824,0.824 0 0 1 -0.628,0.263 0.791,0.791 0 0 1 -0.616,-0.266 1.135,1.135 0 0 1 -0.241,-0.787 v -4.824 q 0,-1.168 0.844,-1.168 a 0.706,0.706 0 0 1 0.622,0.272 1.5,1.5 0 0 1 0.209,0.806 3.033,3.033 0 0 1 0.639,-0.806 1.323,1.323 0 0 1 0.873,-0.272 2.241,2.241 0 0 1 1.059,0.272 0.815,0.815 0 0 1 0.514,0.724 0.731,0.731 0 0 1 -0.692,0.731 2.264,2.264 0 0 1 -0.46,-0.119 2.145,2.145 0 0 0 -0.644,-0.117 0.944,0.944 0 0 0 -0.622,0.2 1.28,1.28 0 0 0 -0.375,0.594 4.19,4.19 0 0 0 -0.184,0.936 c -0.033,0.362 -0.05,0.802 -0.05,1.324 z"
       transform="translate(0.18,0.32)"
       stroke-miterlimit="10"
       id="path1629-4"
       inkscape:connector-curvature="0"
       style="fill:#ffffff;stroke:#ffffff;stroke-width:0.5;stroke-miterlimit:10" />
    <path
       d="m 32.3,48.142 v -0.171 a 4.448,4.448 0 0 1 -0.689,0.65 2.6,2.6 0 0 1 -0.736,0.381 2.765,2.765 0 0 1 -0.867,0.13 2.548,2.548 0 0 1 -1.152,-0.263 2.7,2.7 0 0 1 -0.917,-0.753 3.4,3.4 0 0 1 -0.586,-1.149 4.885,4.885 0 0 1 -0.2,-1.428 3.722,3.722 0 0 1 0.794,-2.532 2.639,2.639 0 0 1 2.089,-0.908 2.806,2.806 0 0 1 1.263,0.257 3.521,3.521 0 0 1 1,0.79 v -2.557 a 1.3,1.3 0 0 1 0.213,-0.807 0.726,0.726 0 0 1 0.606,-0.273 0.753,0.753 0 0 1 0.607,0.252 1.121,1.121 0 0 1 0.212,0.739 v 7.643 a 1.069,1.069 0 0 1 -0.229,0.743 0.768,0.768 0 0 1 -0.59,0.246 A 0.753,0.753 0 0 1 32.531,48.875 1.054,1.054 0 0 1 32.3,48.142 Z M 28.9,45.6 a 2.973,2.973 0 0 0 0.218,1.2 1.685,1.685 0 0 0 0.6,0.746 1.486,1.486 0 0 0 0.832,0.251 1.532,1.532 0 0 0 0.835,-0.238 1.633,1.633 0 0 0 0.6,-0.73 2.935,2.935 0 0 0 0.226,-1.228 2.864,2.864 0 0 0 -0.225,-1.191 1.782,1.782 0 0 0 -0.609,-0.761 1.454,1.454 0 0 0 -0.841,-0.263 1.425,1.425 0 0 0 -0.851,0.269 1.74,1.74 0 0 0 -0.581,0.775 3.084,3.084 0 0 0 -0.204,1.17 z"
       transform="translate(0.18,0.32)"
       stroke-miterlimit="10"
       id="path1631-6"
       inkscape:connector-curvature="0"
       style="fill:#ffffff;stroke:#ffffff;stroke-width:0.5;stroke-miterlimit:10" />
    <path
       d="m 37.255,43.046 v 0.21 a 3.052,3.052 0 0 1 1,-0.886 2.676,2.676 0 0 1 1.249,-0.282 2.493,2.493 0 0 1 1.224,0.3 1.889,1.889 0 0 1 0.806,0.844 1.968,1.968 0 0 1 0.222,0.686 7.07,7.07 0 0 1 0.051,0.939 v 3.225 a 1.152,1.152 0 0 1 -0.239,0.787 0.789,0.789 0 0 1 -0.619,0.266 0.8,0.8 0 0 1 -0.628,-0.273 1.138,1.138 0 0 1 -0.241,-0.78 v -2.89 a 2.866,2.866 0 0 0 -0.239,-1.31 0.965,0.965 0 0 0 -0.948,-0.455 1.408,1.408 0 0 0 -0.845,0.276 1.583,1.583 0 0 0 -0.558,0.758 5.449,5.449 0 0 0 -0.128,1.447 v 2.172 a 1.131,1.131 0 0 1 -0.244,0.79 0.822,0.822 0 0 1 -0.632,0.263 0.785,0.785 0 0 1 -0.616,-0.273 1.143,1.143 0 0 1 -0.241,-0.78 v -5.009 a 1.089,1.089 0 0 1 0.216,-0.739 0.748,0.748 0 0 1 0.591,-0.244 0.8,0.8 0 0 1 0.412,0.107 0.78,0.78 0 0 1 0.3,0.325 1.136,1.136 0 0 1 0.107,0.526 z"
       transform="translate(0.18,0.32)"
       stroke-miterlimit="10"
       id="path1633-1"
       inkscape:connector-curvature="0"
       style="fill:#ffffff;stroke:#ffffff;stroke-width:0.5;stroke-miterlimit:10" />
    <path
       d="m 47.861,48.158 v -0.222 a 3.859,3.859 0 0 1 -0.654,0.66 2.419,2.419 0 0 1 -0.749,0.4 3,3 0 0 1 -0.927,0.13 2.388,2.388 0 0 1 -1.126,-0.261 1.89,1.89 0 0 1 -0.771,-0.717 3.169,3.169 0 0 1 -0.324,-1.586 v -3.439 a 1.121,1.121 0 0 1 0.234,-0.777 0.8,0.8 0 0 1 0.623,-0.257 0.821,0.821 0 0 1 0.634,0.26 1.1,1.1 0 0 1 0.242,0.774 V 45.9 a 4.254,4.254 0 0 0 0.1,1.012 1.21,1.21 0 0 0 0.365,0.642 1.043,1.043 0 0 0 0.714,0.232 1.456,1.456 0 0 0 0.825,-0.26 1.522,1.522 0 0 0 0.565,-0.679 5.474,5.474 0 0 0 0.146,-1.613 v -2.11 A 1.1,1.1 0 0 1 48,42.35 a 0.815,0.815 0 0 1 0.628,-0.26 0.8,0.8 0 0 1 0.622,0.257 1.116,1.116 0 0 1 0.235,0.777 v 5.021 a 1.069,1.069 0 0 1 -0.226,0.743 0.747,0.747 0 0 1 -0.58,0.247 0.756,0.756 0 0 1 -0.588,-0.257 1.038,1.038 0 0 1 -0.23,-0.72 z"
       transform="translate(0.18,0.32)"
       stroke-miterlimit="10"
       id="path1635-9"
       inkscape:connector-curvature="0"
       style="fill:#ffffff;stroke:#ffffff;stroke-width:0.5;stroke-miterlimit:10" />
    <path
       d="m 52.788,43.049 v 0.21 a 3.031,3.031 0 0 1 1,-0.886 2.672,2.672 0 0 1 1.248,-0.282 2.477,2.477 0 0 1 1.225,0.3 1.9,1.9 0 0 1 0.806,0.844 2.011,2.011 0 0 1 0.222,0.686 7.07,7.07 0 0 1 0.051,0.939 v 3.225 a 1.146,1.146 0 0 1 -0.238,0.787 0.856,0.856 0 0 1 -1.247,-0.007 1.133,1.133 0 0 1 -0.241,-0.78 v -2.891 a 2.881,2.881 0 0 0 -0.238,-1.31 0.968,0.968 0 0 0 -0.949,-0.454 1.4,1.4 0 0 0 -0.844,0.276 1.583,1.583 0 0 0 -0.558,0.758 5.449,5.449 0 0 0 -0.128,1.447 v 2.172 a 1.126,1.126 0 0 1 -0.245,0.79 0.82,0.82 0 0 1 -0.631,0.263 0.789,0.789 0 0 1 -0.616,-0.274 1.138,1.138 0 0 1 -0.241,-0.78 v -5.009 a 1.089,1.089 0 0 1 0.215,-0.739 0.747,0.747 0 0 1 0.591,-0.243 0.8,0.8 0 0 1 0.413,0.107 0.783,0.783 0 0 1 0.3,0.324 1.144,1.144 0 0 1 0.105,0.527 z"
       transform="translate(0.18,0.32)"
       stroke-miterlimit="10"
       id="path1637-2"
       inkscape:connector-curvature="0"
       style="fill:#ffffff;stroke:#ffffff;stroke-width:0.5;stroke-miterlimit:10" />
    <path
       d="M 65.439,43.362 V 48.4 a 5.263,5.263 0 0 1 -0.185,1.485 2.36,2.36 0 0 1 -0.59,1.028 2.482,2.482 0 0 1 -1.063,0.6 5.8,5.8 0 0 1 -1.635,0.2 4.759,4.759 0 0 1 -1.6,-0.251 2.769,2.769 0 0 1 -1.085,-0.647 1.183,1.183 0 0 1 -0.381,-0.816 0.671,0.671 0 0 1 0.216,-0.517 0.742,0.742 0 0 1 0.521,-0.2 0.852,0.852 0 0 1 0.666,0.336 q 0.141,0.172 0.289,0.346 a 1.692,1.692 0 0 0 0.33,0.3 1.3,1.3 0 0 0 0.435,0.183 2.549,2.549 0 0 0 0.584,0.061 2.356,2.356 0 0 0 1.044,-0.188 1.061,1.061 0 0 0 0.52,-0.523 2.1,2.1 0 0 0 0.175,-0.721 q 0.025,-0.384 0.039,-1.234 a 2.863,2.863 0 0 1 -0.924,0.851 2.531,2.531 0 0 1 -1.248,0.292 2.633,2.633 0 0 1 -1.52,-0.445 2.843,2.843 0 0 1 -1,-1.244 4.576,4.576 0 0 1 -0.349,-1.847 4.381,4.381 0 0 1 0.213,-1.41 2.97,2.97 0 0 1 0.606,-1.059 2.589,2.589 0 0 1 0.908,-0.651 2.857,2.857 0 0 1 1.13,-0.219 2.708,2.708 0 0 1 1.276,0.283 3.126,3.126 0 0 1 1,0.884 v -0.234 a 1.008,1.008 0 0 1 0.222,-0.7 0.735,0.735 0 0 1 0.571,-0.246 0.67,0.67 0 0 1 0.666,0.326 2.144,2.144 0 0 1 0.169,0.939 z m -5.022,2.2 a 2.394,2.394 0 0 0 0.46,1.593 1.491,1.491 0 0 0 1.19,0.539 1.557,1.557 0 0 0 0.816,-0.231 1.69,1.69 0 0 0 0.625,-0.7 2.441,2.441 0 0 0 0.242,-1.133 2.6,2.6 0 0 0 -0.466,-1.65 1.49,1.49 0 0 0 -1.229,-0.59 1.441,1.441 0 0 0 -1.19,0.564 2.541,2.541 0 0 0 -0.448,1.603 z"
       transform="translate(0.18,0.32)"
       stroke-miterlimit="10"
       id="path1639-3"
       inkscape:connector-curvature="0"
       style="fill:#ffffff;stroke:#ffffff;stroke-width:0.5;stroke-miterlimit:10" />
    <path
       d="m 16.2,59.335 h 0.949 a 12.274,12.274 0 0 0 -0.92,2.748 15,15 0 0 0 -0.347,3.24 16.654,16.654 0 0 0 0.261,2.983 12.1,12.1 0 0 0 0.717,2.525 h -0.9 a 11.949,11.949 0 0 1 -0.691,-2.456 16.337,16.337 0 0 1 -0.258,-2.941 16.7,16.7 0 0 1 0.3,-3.207 13.89,13.89 0 0 1 0.889,-2.892 z"
       transform="translate(0.18,0.32)"
       stroke-miterlimit="10"
       id="path1641-9"
       inkscape:connector-curvature="0"
       style="fill:#ffffff;stroke:#ffffff;stroke-width:0.5;stroke-miterlimit:10" />
    <path
       d="m 18.927,59.716 h 0.879 v 3.234 l 3.446,-3.233 h 1.157 l -4.14,3.866 4.461,4.753 H 23.582 L 19.805,64.32 v 4.015 h -0.879 z"
       transform="translate(0.18,0.32)"
       stroke-miterlimit="10"
       id="path1643-3"
       inkscape:connector-curvature="0"
       style="fill:#ffffff;stroke:#ffffff;stroke-width:0.5;stroke-miterlimit:10" />
    <path
       d="m 34.044,61.318 -0.68,0.521 a 3.71,3.71 0 0 0 -1.35,-1.11 3.948,3.948 0 0 0 -1.731,-0.378 3.832,3.832 0 0 0 -1.911,0.495 3.545,3.545 0 0 0 -1.362,1.329 3.679,3.679 0 0 0 -0.484,1.878 3.529,3.529 0 0 0 1.081,2.632 3.744,3.744 0 0 0 2.727,1.054 3.835,3.835 0 0 0 3.03,-1.418 l 0.679,0.517 a 4.346,4.346 0 0 1 -1.608,1.267 5.048,5.048 0 0 1 -2.154,0.449 4.475,4.475 0 0 1 -3.568,-1.507 4.546,4.546 0 0 1 -1.1,-3.07 4.272,4.272 0 0 1 1.327,-3.185 4.584,4.584 0 0 1 3.331,-1.292 4.873,4.873 0 0 1 2.18,0.478 4.23,4.23 0 0 1 1.593,1.34 z"
       transform="translate(0.18,0.32)"
       stroke-miterlimit="10"
       id="path1645-8"
       inkscape:connector-curvature="0"
       style="fill:#ffffff;stroke:#ffffff;stroke-width:0.5;stroke-miterlimit:10" />
    <path
       d="m 35.773,59.719 h 0.861 v 7.787 h 3.316 v 0.832 h -4.178 z"
       transform="translate(0.18,0.32)"
       stroke-miterlimit="10"
       id="path1647-3"
       inkscape:connector-curvature="0"
       style="fill:#ffffff;stroke:#ffffff;stroke-width:0.5;stroke-miterlimit:10" />
    <path
       d="m 41.941,70.835 h -0.949 a 12.024,12.024 0 0 0 0.923,-2.748 15.121,15.121 0 0 0 0.343,-3.24 A 16.647,16.647 0 0 0 42,61.864 12.145,12.145 0 0 0 41.283,59.339 h 0.9 a 11.7,11.7 0 0 1 0.694,2.458 17.069,17.069 0 0 1 -0.051,6.146 13.83,13.83 0 0 1 -0.885,2.892 z"
       transform="translate(0.18,0.32)"
       stroke-miterlimit="10"
       id="path1649-7"
       inkscape:connector-curvature="0"
       style="fill:#ffffff;stroke:#ffffff;stroke-width:0.5;stroke-miterlimit:10" />
  </g>
</svg>
