<?xml version="1.0" encoding="UTF-8" standalone="no"?>
<svg
   xmlns:dc="http://purl.org/dc/elements/1.1/"
   xmlns:cc="http://creativecommons.org/ns#"
   xmlns:rdf="http://www.w3.org/1999/02/22-rdf-syntax-ns#"
   xmlns:svg="http://www.w3.org/2000/svg"
   xmlns="http://www.w3.org/2000/svg"
   xmlns:xlink="http://www.w3.org/1999/xlink"
   xmlns:sodipodi="http://sodipodi.sourceforge.net/DTD/sodipodi-0.dtd"
   xmlns:inkscape="http://www.inkscape.org/namespaces/inkscape"
   viewBox="0 0 99.6 89"
   version="1.1"
   id="svg1361"
   sodipodi:docname="C4_erfahrungen.svg"
   inkscape:version="0.92.4 (5da689c313, 2019-01-14)">
  <metadata
     id="metadata1365">
    <rdf:RDF>
      <cc:Work
         rdf:about="">
        <dc:format>image/svg+xml</dc:format>
        <dc:type
           rdf:resource="http://purl.org/dc/dcmitype/StillImage" />
        <dc:title>C1_faq</dc:title>
      </cc:Work>
    </rdf:RDF>
  </metadata>
  <sodipodi:namedview
     pagecolor="#ffffff"
     bordercolor="#666666"
     borderopacity="1"
     objecttolerance="10"
     gridtolerance="10"
     guidetolerance="10"
     inkscape:pageopacity="0"
     inkscape:pageshadow="2"
     inkscape:window-width="1920"
     inkscape:window-height="1018"
     id="namedview1363"
     showgrid="false"
     inkscape:zoom="3"
     inkscape:cx="-95.104467"
     inkscape:cy="97.833333"
     inkscape:window-x="1912"
     inkscape:window-y="-8"
     inkscape:window-maximized="1"
     inkscape:current-layer="svg1361" />
  <defs
     id="defs1103">
    <clipPath
       id="clip-path"
       transform="translate(0.05)">
      <rect
         x="3.193"
         y="3.073"
         width="92.076"
         height="79.376"
         rx="7.091"
         fill="none"
         id="rect1091" />
    </clipPath>
    <clipPath
       id="clip-path-2"
       transform="translate(0.05)">
      <rect
         x="0.307"
         y="0.186"
         width="97.848"
         height="85.146"
         fill="none"
         id="rect1094" />
    </clipPath>
    <clipPath
       id="clip-path-4"
       transform="translate(0.05)">
      <rect
         x="2.893"
         y="3.07"
         width="92.076"
         height="79.376"
         rx="7.091"
         fill="none"
         id="rect1097" />
    </clipPath>
    <clipPath
       id="clip-path-5"
       transform="translate(0.05)">
      <rect
         x="0.007"
         y="0.183"
         width="97.848"
         height="85.146"
         fill="none"
         id="rect1100" />
    </clipPath>
    <linearGradient
       gradientTransform="matrix(0.80065364,0,0,0.80941636,0.26060764,-0.46404563)"
       inkscape:collect="always"
       xlink:href="#linearGradient1175-7"
       id="linearGradient1177"
       x1="103.59147"
       y1="88.713524"
       x2="13.732"
       y2="13.404"
       gradientUnits="userSpaceOnUse" />
    <linearGradient
       inkscape:collect="always"
       id="linearGradient1175-7">
      <stop
         style="stop-color:#4273be;stop-opacity:1"
         offset="0"
         id="stop1171" />
      <stop
         style="stop-color:#5e88c9;stop-opacity:1"
         offset="1"
         id="stop1173" />
    </linearGradient>
  </defs>
  <title
     id="title1105">C1_faq</title>
  <rect
     x="0.60000002"
     width="99"
     height="89"
     id="rect1107"
     y="0"
     style="isolation:isolate;fill:#ffffff" />
  <g
     id="g1213"
     style="opacity:0.3;isolation:isolate;mix-blend-mode:multiply"
     transform="matrix(0.98414881,0,0,0.98215347,1.5453956,1.5520417)">
    <path
       style="fill:#ffffff"
       inkscape:connector-curvature="0"
       id="path1109"
       transform="translate(0.05)"
       d="m 97.444,78.891 c 0,4.44 -3.984,8.044 -8.9,8.046 l -74.888,0.029 c -4.917,0 -8.9,-3.6 -8.9,-8.039 L 4.729,11.248 c 0,-4.444 3.98,-8.047 8.9,-8.048 L 88.517,3.17 c 4.913,0 8.9,3.6 8.9,8.042 z" />
    <path
       style="fill:#fefeff"
       inkscape:connector-curvature="0"
       id="path1111"
       transform="translate(0.05)"
       d="m 97.379,78.829 c 0,4.437 -3.982,8.038 -8.894,8.04 L 13.621,86.9 c -4.916,0 -8.9,-3.6 -8.9,-8.033 L 4.694,11.241 c 0,-4.438 3.94,-8.036 8.859,-8.045 l 74.9,-0.026 c 4.912,0 8.9,3.6 8.9,8.035 z" />
    <path
       style="fill:#fdfdff"
       inkscape:connector-curvature="0"
       id="path1113"
       transform="translate(0.05)"
       d="m 97.315,78.768 c 0,4.433 -3.981,8.031 -8.891,8.033 l -74.841,0.03 c -4.914,0 -8.9,-3.594 -8.9,-8.027 L 4.659,11.235 c 0,-4.432 3.9,-8.027 8.821,-8.042 L 88.391,3.17 c 4.91,0 8.9,3.592 8.9,8.029 z" />
    <path
       style="fill:#fcfcff"
       inkscape:connector-curvature="0"
       id="path1115"
       transform="translate(0.05)"
       d="m 97.251,78.707 c 0,4.429 -3.98,8.025 -8.889,8.026 l -74.817,0.03 c -4.913,0 -8.893,-3.591 -8.895,-8.02 L 4.623,11.228 c 0,-4.426 3.862,-8.016 8.784,-8.039 L 88.329,3.17 c 4.909,0 8.893,3.589 8.9,8.022 z" />
    <path
       style="fill:#fcfcff"
       inkscape:connector-curvature="0"
       id="path1117"
       transform="translate(0.05)"
       d="m 97.186,78.645 c 0,4.426 -3.979,8.019 -8.886,8.021 L 13.507,86.7 C 8.596,86.7 4.616,83.112 4.615,78.686 L 4.588,11.222 C 4.6,6.8 8.411,3.215 13.334,3.186 L 88.267,3.171 c 4.908,0 8.891,3.586 8.893,8.015 z" />
    <path
       style="fill:#fbfbff"
       inkscape:connector-curvature="0"
       id="path1119"
       transform="translate(0.05)"
       d="m 97.122,78.584 c 0,4.422 -3.978,8.012 -8.883,8.014 L 13.468,86.627 C 8.56,86.627 4.581,83.042 4.579,78.62 L 4.553,11.22 c 0.009,-4.415 3.783,-8 8.708,-8.033 L 88.206,3.176 c 4.906,0 8.888,3.583 8.889,8.008 z" />
    <path
       style="fill:#fafaff"
       inkscape:connector-curvature="0"
       id="path1121"
       transform="translate(0.05)"
       d="m 97.057,78.522 c 0,4.419 -3.976,8.006 -8.88,8.008 L 13.43,86.559 c -4.907,0 -8.884,-3.582 -8.886,-8 L 4.518,11.209 c 0.01,-4.41 3.744,-7.987 8.67,-8.03 L 88.144,3.171 c 4.9,0 8.885,3.58 8.887,8 z" />
    <path
       style="fill:#f9f9ff"
       inkscape:connector-curvature="0"
       id="path1123"
       transform="translate(0.05)"
       d="m 96.993,78.461 c 0,4.415 -3.975,8 -8.878,8 L 13.392,86.49 c -4.9,0 -8.881,-3.579 -8.883,-7.994 L 4.482,11.2 c 0.013,-4.4 3.7,-7.976 8.633,-8.027 h 74.968 c 4.9,0 8.882,3.577 8.883,8 z" />
    <path
       style="fill:#f8f8ff"
       inkscape:connector-curvature="0"
       id="path1125"
       transform="translate(0.05)"
       d="m 96.929,78.4 c 0,4.412 -3.974,7.993 -8.875,8 l -74.7,0.029 c -4.9,0 -8.879,-3.576 -8.88,-7.988 L 4.447,11.2 C 4.462,6.8 8.113,3.233 13.042,3.176 h 74.979 c 4.9,0 8.879,3.574 8.881,7.989 z" />
    <path
       style="fill:#f7f7fe"
       inkscape:connector-curvature="0"
       id="path1127"
       transform="translate(0.05)"
       d="m 96.864,78.338 c 0,4.408 -3.972,7.986 -8.872,7.988 l -74.676,0.029 c -4.9,0 -8.876,-3.573 -8.878,-7.981 L 4.412,11.189 C 4.429,6.8 8.038,3.232 12.969,3.168 h 74.99 c 4.9,0 8.877,3.571 8.879,7.982 z" />
    <path
       style="fill:#f7f7fe"
       inkscape:connector-curvature="0"
       id="path1129"
       transform="translate(0.05)"
       d="m 96.8,78.276 c 0,4.405 -3.971,7.98 -8.87,7.982 l -74.652,0.029 c -4.9,0 -8.873,-3.57 -8.875,-7.975 L 4.377,11.183 C 4.4,6.8 7.964,3.236 12.9,3.165 l 75,0.006 c 4.9,0 8.874,3.568 8.875,7.976 z" />
    <path
       style="fill:#f6f6fe"
       inkscape:connector-curvature="0"
       id="path1131"
       transform="translate(0.05)"
       d="m 96.735,78.215 c 0,4.4 -3.969,7.973 -8.866,7.975 L 13.24,86.219 c -4.9,0 -8.87,-3.567 -8.872,-7.968 L 4.342,11.176 C 4.363,6.796 7.889,3.239 12.823,3.161 l 75.013,0.01 c 4.9,0 8.871,3.565 8.873,7.969 z" />
    <path
       style="fill:#f5f5fe"
       inkscape:connector-curvature="0"
       id="path1133"
       transform="translate(0.05)"
       d="m 96.671,78.153 c 0,4.4 -3.969,7.967 -8.864,7.969 l -74.6,0.029 c -4.9,0 -8.868,-3.564 -8.869,-7.962 L 4.306,11.17 C 4.33,6.8 7.815,3.243 12.75,3.158 l 75.024,0.013 c 4.9,0 8.869,3.562 8.87,7.963 z" />
    <path
       style="fill:#f4f4fe"
       inkscape:connector-curvature="0"
       id="path1135"
       transform="translate(0.05)"
       d="m 96.606,78.092 c 0,4.394 -3.967,7.96 -8.861,7.962 l -74.581,0.029 c -4.9,0 -8.865,-3.561 -8.867,-7.955 L 4.271,11.163 C 4.3,6.794 7.74,3.246 12.677,3.154 l 75.036,0.017 c 4.894,0 8.865,3.56 8.867,7.957 z" />
    <path
       style="fill:#f3f3fe"
       inkscape:connector-curvature="0"
       id="path1137"
       transform="translate(0.05)"
       d="m 96.542,78.031 c 0,4.39 -3.966,7.953 -8.858,7.955 l -74.558,0.029 c -4.895,0 -8.862,-3.558 -8.864,-7.949 L 4.236,11.157 C 4.263,6.793 7.666,3.25 12.6,3.151 l 75.047,0.02 c 4.893,0 8.863,3.557 8.865,7.95 z" />
    <path
       style="fill:#f2f2fe"
       inkscape:connector-curvature="0"
       id="path1139"
       transform="translate(0.05)"
       d="m 96.478,77.969 c 0,4.387 -3.965,7.948 -8.856,7.949 l -74.535,0.029 c -4.892,0 -8.858,-3.555 -8.86,-7.942 L 4.2,11.15 c 0.029,-4.358 3.39,-7.9 8.33,-8 l 75.058,0.024 c 4.891,0 8.861,3.554 8.862,7.944 z" />
    <path
       style="fill:#f2f2fe"
       inkscape:connector-curvature="0"
       id="path1141"
       transform="translate(0.05)"
       d="m 96.413,77.908 c 0,4.383 -3.963,7.941 -8.853,7.942 l -74.511,0.029 c -4.89,0 -8.856,-3.552 -8.857,-7.936 l -0.027,-66.8 c 0.032,-4.352 3.352,-7.887 8.293,-8 l 75.07,0.027 c 4.889,0 8.857,3.551 8.859,7.937 z" />
    <path
       style="fill:#f1f1fe"
       inkscape:connector-curvature="0"
       id="path1143"
       transform="translate(0.05)"
       d="m 96.349,77.846 c 0,4.38 -3.962,7.935 -8.85,7.937 l -74.488,0.029 c -4.889,0 -8.853,-3.55 -8.855,-7.93 L 4.13,11.137 c 0.034,-4.346 3.312,-7.877 8.254,-8 l 75.082,0.031 c 4.888,0 8.855,3.548 8.857,7.931 z" />
    <path
       style="fill:#f0f0fe"
       inkscape:connector-curvature="0"
       id="path1145"
       transform="translate(0.05)"
       d="m 96.284,77.785 c 0,4.376 -3.96,7.928 -8.847,7.93 l -74.464,0.029 c -4.887,0 -8.85,-3.547 -8.852,-7.923 L 4.1,11.131 C 4.136,6.79 7.373,3.263 12.316,3.137 L 87.41,3.171 c 4.886,0 8.851,3.545 8.853,7.924 z" />
    <path
       style="fill:#efeffe"
       inkscape:connector-curvature="0"
       id="path1147"
       transform="translate(0.05)"
       d="m 96.22,77.723 c 0,4.373 -3.959,7.922 -8.845,7.924 l -74.44,0.029 c -4.886,0 -8.847,-3.544 -8.849,-7.917 L 4.06,11.124 C 4.1,6.789 7.293,3.267 12.238,3.133 l 75.105,0.038 c 4.885,0 8.849,3.542 8.851,7.918 z" />
    <path
       style="fill:#eeeefe"
       inkscape:connector-curvature="0"
       id="path1149"
       transform="translate(0.05)"
       d="m 96.156,77.662 c 0,4.369 -3.959,7.915 -8.842,7.917 L 12.9,85.608 c -4.884,0 -8.845,-3.541 -8.846,-7.91 L 4.028,11.118 a 7.945,7.945 0 0 1 8.14,-7.988 l 75.116,0.041 c 4.884,0 8.847,3.539 8.848,7.911 z" />
    <path
       style="fill:#ededfe"
       inkscape:connector-curvature="0"
       id="path1151"
       transform="translate(0.05)"
       d="m 96.091,77.6 c 0,4.366 -3.957,7.909 -8.839,7.911 L 12.859,85.54 c -4.883,0 -8.842,-3.538 -8.844,-7.9 L 3.989,11.111 a 7.919,7.919 0 0 1 8.1,-7.985 l 75.128,0.045 c 4.882,0 8.843,3.536 8.845,7.905 z" />
    <path
       style="fill:#ececfe"
       inkscape:connector-curvature="0"
       id="path1153"
       transform="translate(0.05)"
       d="m 96.027,77.539 c 0,4.362 -3.956,7.9 -8.837,7.9 l -74.369,0.029 c -4.881,0 -8.839,-3.535 -8.841,-7.9 L 3.954,11.098 a 7.891,7.891 0 0 1 8.065,-7.982 l 75.139,0.048 c 4.881,0 8.841,3.534 8.843,7.9 z" />
    <path
       style="fill:#ececfe"
       inkscape:connector-curvature="0"
       id="path1155"
       transform="translate(0.05)"
       d="m 95.962,77.478 c 0,4.358 -3.954,7.9 -8.833,7.9 L 12.783,85.4 c -4.88,0 -8.836,-3.532 -8.838,-7.891 L 3.919,11.1 a 7.864,7.864 0 0 1 8.027,-7.979 l 75.15,0.052 c 4.88,0 8.838,3.531 8.84,7.892 z" />
    <path
       style="fill:#ebebfe"
       inkscape:connector-curvature="0"
       id="path1157"
       transform="translate(0.05)"
       d="m 95.9,77.416 c 0,4.355 -3.953,7.889 -8.831,7.891 l -74.322,0.029 c -4.878,0 -8.834,-3.529 -8.835,-7.884 L 3.886,11.092 a 7.837,7.837 0 0 1 7.989,-7.976 l 75.162,0.055 c 4.877,0 8.835,3.528 8.837,7.885 z" />
    <path
       style="fill:#eaeafe"
       inkscape:connector-curvature="0"
       id="path1159"
       transform="translate(0.05)"
       d="m 95.834,77.355 c 0,4.351 -3.952,7.882 -8.829,7.884 l -74.3,0.029 c -4.876,0 -8.83,-3.526 -8.831,-7.878 L 3.848,11.085 A 7.812,7.812 0 0 1 11.8,3.112 l 75.173,0.059 c 4.876,0 8.833,3.525 8.834,7.879 z" />
    <path
       style="fill:#e9e9fd"
       inkscape:connector-curvature="0"
       id="path1161"
       transform="translate(0.05)"
       d="m 95.769,77.293 c 0,4.348 -3.95,7.876 -8.825,7.878 L 12.668,85.2 C 7.794,85.2 3.841,81.677 3.839,77.329 L 3.813,11.079 a 7.784,7.784 0 0 1 7.914,-7.97 l 75.184,0.062 c 4.875,0 8.83,3.522 8.832,7.872 z" />
    <path
       style="fill:#e8e8fd"
       inkscape:connector-curvature="0"
       id="path1163"
       transform="translate(0.05)"
       d="m 95.705,77.232 c 0,4.344 -3.95,7.869 -8.823,7.871 L 12.63,85.132 c -4.872,0 -8.824,-3.52 -8.826,-7.865 L 3.778,11.072 a 7.758,7.758 0 0 1 7.876,-7.967 l 75.2,0.066 c 4.873,0 8.827,3.519 8.829,7.866 z" />
    <path
       style="fill:#e7e7fd"
       inkscape:connector-curvature="0"
       id="path1165"
       transform="translate(0.05)"
       d="m 95.64,77.17 c 0,4.341 -3.948,7.864 -8.82,7.865 l -74.228,0.029 c -4.871,0 -8.822,-3.517 -8.823,-7.858 L 3.743,11.066 A 7.73,7.73 0 0 1 11.581,3.1 l 75.207,0.069 c 4.872,0 8.824,3.516 8.826,7.859 z" />
    <path
       style="fill:#e7e7fd"
       inkscape:connector-curvature="0"
       id="path1167"
       transform="translate(0.05)"
       d="m 95.576,77.109 c 0,4.337 -3.947,7.857 -8.817,7.859 L 12.554,85 C 7.685,85 3.735,81.486 3.734,77.148 L 3.707,11.059 a 7.7,7.7 0 0 1 7.8,-7.961 l 75.219,0.073 c 4.87,0 8.821,3.513 8.823,7.853 z" />
    <path
       style="fill:#e6e6fd"
       inkscape:connector-curvature="0"
       id="path1169"
       transform="translate(0.05)"
       d="m 95.511,77.047 c 0,4.334 -3.945,7.851 -8.814,7.853 L 12.516,84.928 C 7.648,84.928 3.7,81.417 3.698,77.083 L 3.672,11.053 A 7.678,7.678 0 0 1 11.435,3.1 l 75.23,0.076 c 4.869,0 8.819,3.51 8.82,7.846 z" />
    <path
       style="fill:#e5e5fd"
       inkscape:connector-curvature="0"
       id="path1171"
       transform="translate(0.05)"
       d="m 95.447,76.986 c 0,4.331 -3.944,7.844 -8.812,7.846 L 12.478,84.86 c -4.866,0 -8.813,-3.508 -8.815,-7.838 L 3.637,11.046 a 7.652,7.652 0 0 1 7.725,-7.955 l 75.241,0.08 c 4.868,0 8.816,3.508 8.818,7.84 z" />
    <path
       style="fill:#e4e4fd"
       inkscape:connector-curvature="0"
       id="path1173"
       transform="translate(0.05)"
       d="m 95.383,76.924 c 0,4.328 -3.943,7.838 -8.809,7.84 L 12.44,84.793 c -4.865,0 -8.811,-3.506 -8.812,-7.833 L 3.6,11.04 C 3.665,6.779 6.323,3.312 11.287,3.088 L 86.54,3.171 c 4.866,0 8.813,3.505 8.815,7.833 z" />
    <path
       style="fill:#e3e3fd"
       inkscape:connector-curvature="0"
       id="path1175"
       transform="translate(0.05)"
       d="m 95.318,76.863 c 0,4.324 -3.941,7.831 -8.806,7.833 l -74.11,0.029 c -4.863,0 -8.808,-3.5 -8.809,-7.826 L 3.567,11.033 C 3.634,6.778 6.251,3.315 11.216,3.084 L 86.48,3.171 c 4.865,0 8.811,3.5 8.812,7.827 z" />
    <path
       style="fill:#e2e2fd"
       inkscape:connector-curvature="0"
       id="path1177"
       transform="translate(0.05)"
       d="m 95.254,76.8 c 0,4.32 -3.94,7.824 -8.8,7.826 l -74.086,0.029 c -4.862,0 -8.8,-3.5 -8.807,-7.82 L 3.535,11.025 C 3.605,6.775 6.18,3.317 11.147,3.079 l 75.275,0.09 c 4.863,0 8.808,3.5 8.81,7.82 z" />
    <path
       style="fill:#e1e1fd"
       inkscape:connector-curvature="0"
       id="path1179"
       transform="translate(0.05)"
       d="m 95.189,76.74 c 0,4.317 -3.939,7.818 -8.8,7.82 l -74.063,0.029 c -4.86,0 -8.8,-3.5 -8.8,-7.813 L 3.5,11.02 C 3.571,6.777 6.106,3.32 11.074,3.077 l 75.287,0.094 c 4.861,0 8.805,3.5 8.806,7.814 z" />
    <path
       style="fill:#e1e1fd"
       inkscape:connector-curvature="0"
       id="path1181"
       transform="translate(0.05)"
       d="m 95.125,76.679 c 0,4.313 -3.938,7.811 -8.8,7.813 l -74.04,0.029 c -4.858,0 -8.8,-3.494 -8.8,-7.807 L 3.459,11.014 C 3.534,6.776 6.027,3.325 11,3.074 l 75.3,0.1 c 4.86,0 8.8,3.493 8.8,7.807 z" />
    <path
       style="fill:#e0e0fd"
       inkscape:connector-curvature="0"
       id="path1183"
       transform="translate(0.05)"
       d="m 95.061,76.617 c 0,4.31 -3.937,7.8 -8.8,7.807 l -74.017,0.029 c -4.856,0 -8.8,-3.491 -8.8,-7.8 L 3.426,11.007 C 3.501,6.775 5.953,3.329 10.926,3.07 l 75.309,0.1 c 4.859,0 8.8,3.49 8.8,7.8 z" />
    <path
       style="fill:#dfdffd"
       inkscape:connector-curvature="0"
       id="path1185"
       transform="translate(0.05)"
       d="m 95,76.556 c 0,4.306 -3.935,7.8 -8.792,7.8 l -73.993,0.029 c -4.854,0 -8.793,-3.488 -8.795,-7.794 L 3.39,11 C 3.468,6.773 5.878,3.331 10.851,3.066 l 75.321,0.1 c 4.857,0 8.8,3.487 8.8,7.794 z" />
    <path
       style="fill:#dedefd"
       inkscape:connector-curvature="0"
       id="path1187"
       transform="translate(0.05)"
       d="m 94.932,76.494 c 0,4.3 -3.934,7.792 -8.79,7.794 l -73.969,0.029 c -4.853,0 -8.79,-3.485 -8.792,-7.787 L 3.355,10.994 C 3.435,6.773 5.804,3.336 10.778,3.063 L 86.11,3.171 c 4.856,0 8.794,3.484 8.8,7.788 z" />
    <path
       style="fill:#ddddfd"
       inkscape:connector-curvature="0"
       id="path1189"
       transform="translate(0.05)"
       d="m 94.867,76.433 c 0,4.3 -3.932,7.786 -8.786,7.787 l -73.946,0.029 c -4.851,0 -8.787,-3.482 -8.789,-7.781 L 3.32,10.988 C 3.4,6.773 5.729,3.339 10.705,3.06 l 75.344,0.111 c 4.854,0 8.791,3.481 8.792,7.781 z" />
    <path
       style="fill:#dcdcfd"
       inkscape:connector-curvature="0"
       id="path1191"
       transform="translate(0.05)"
       d="m 94.8,76.371 c 0,4.3 -3.931,7.78 -8.784,7.781 L 12.1,84.181 c -4.85,0 -8.785,-3.479 -8.786,-7.774 L 3.285,10.981 C 3.369,6.772 5.655,3.343 10.632,3.056 l 75.355,0.115 c 4.853,0 8.788,3.479 8.79,7.775 z" />
    <path
       style="fill:#dcdcfd"
       inkscape:connector-curvature="0"
       id="path1193"
       transform="translate(0.05)"
       d="m 94.739,76.31 c 0,4.292 -3.93,7.773 -8.782,7.775 l -73.9,0.028 c -4.848,0 -8.782,-3.476 -8.784,-7.768 L 3.247,10.975 c 0.086,-4.2 2.331,-7.629 7.31,-7.922 l 75.366,0.118 c 4.852,0 8.786,3.476 8.788,7.768 z" />
    <path
       style="fill:#dbdbfc"
       inkscape:connector-curvature="0"
       id="path1195"
       transform="translate(0.05)"
       d="m 94.674,76.248 c 0,4.289 -3.929,7.767 -8.778,7.769 l -73.875,0.028 c -4.847,0 -8.779,-3.473 -8.781,-7.761 L 3.214,10.968 C 3.3,6.77 5.506,3.35 10.486,3.049 l 75.378,0.122 c 4.849,0 8.783,3.473 8.784,7.762 z" />
    <path
       style="fill:#dadafc"
       inkscape:connector-curvature="0"
       id="path1197"
       transform="translate(0.05)"
       d="m 94.61,76.187 c 0,4.285 -3.928,7.76 -8.776,7.762 l -73.851,0.028 c -4.845,0 -8.776,-3.47 -8.778,-7.755 L 3.179,10.962 C 3.269,6.77 5.431,3.353 10.413,3.046 L 85.8,3.171 c 4.848,0 8.78,3.47 8.782,7.755 z" />
    <path
       style="fill:#d9d9fc"
       inkscape:connector-curvature="0"
       id="path1199"
       transform="translate(0.05)"
       d="m 94.545,76.126 c 0,4.281 -3.926,7.753 -8.773,7.755 l -73.827,0.028 c -4.844,0 -8.774,-3.467 -8.775,-7.748 L 3.144,10.955 c 0.092,-4.186 2.213,-7.6 7.2,-7.913 l 75.4,0.129 c 4.847,0 8.778,3.467 8.78,7.749 z" />
    <path
       style="fill:#d8d8fc"
       inkscape:connector-curvature="0"
       id="path1201"
       transform="translate(0.05)"
       d="m 94.481,76.064 c 0,4.278 -3.925,7.747 -8.77,7.749 l -73.8,0.028 C 7.07,83.841 3.141,80.377 3.139,76.1 L 3.109,10.949 C 3.2,6.768 5.282,3.36 10.267,3.039 l 75.412,0.132 c 4.845,0 8.774,3.464 8.776,7.742 z" />
    <path
       style="fill:#d7d7fc"
       inkscape:connector-curvature="0"
       id="path1203"
       transform="translate(0.05)"
       d="m 94.416,76 c 0,4.274 -3.923,7.74 -8.767,7.742 l -73.781,0.029 c -4.84,0 -8.767,-3.462 -8.769,-7.736 L 3.073,10.935 C 3.173,6.76 5.208,3.356 10.194,3.028 l 75.423,0.136 c 4.844,0 8.772,3.461 8.774,7.736 z" />
    <path
       style="fill:#d7d7fc"
       inkscape:connector-curvature="0"
       id="path1205"
       transform="translate(0.05)"
       d="m 94.352,75.941 c 0,4.271 -3.922,7.734 -8.765,7.736 L 11.83,83.706 c -4.838,0 -8.764,-3.459 -8.766,-7.729 L 3.038,10.936 c 0.1,-4.17 2.1,-7.569 7.083,-7.9 l 75.434,0.139 c 4.843,0 8.77,3.458 8.771,7.729 z" />
    <path
       style="fill:#d6d6fc"
       inkscape:connector-curvature="0"
       id="path1207"
       transform="translate(0.05)"
       d="m 94.288,75.88 c 0,4.267 -3.921,7.727 -8.762,7.729 l -73.734,0.029 c -4.836,0 -8.762,-3.456 -8.763,-7.723 L 3,10.929 C 3.1,6.766 5.056,3.37 10.045,3.029 l 75.446,0.143 c 4.841,0 8.766,3.455 8.768,7.723 z" />
    <path
       style="fill:#d5d5fc"
       inkscape:connector-curvature="0"
       id="path1209"
       transform="translate(0.05)"
       d="m 94.223,75.818 c 0,4.264 -3.92,7.721 -8.759,7.723 l -73.71,0.029 c -4.835,0 -8.759,-3.453 -8.761,-7.716 L 2.968,10.923 c 0.1,-4.158 2.016,-7.549 7.007,-7.9 l 75.457,0.146 c 4.84,0 8.764,3.453 8.766,7.716 z" />
    <path
       style="opacity:0.3;fill:#d4d4fc"
       inkscape:connector-curvature="0"
       id="path1211"
       transform="translate(0.05)"
       d="m 94.159,75.757 c 0,4.26 -3.919,7.714 -8.757,7.716 L 11.716,83.5 C 6.883,83.5 2.96,80.05 2.958,75.79 L 2.932,10.916 C 3.037,6.764 4.91,3.377 9.9,3.021 l 75.47,0.15 c 4.838,0 8.76,3.45 8.762,7.71 z" />
  </g>
  <rect
     x="3.4360104"
     y="2.7266736"
     width="91.373001"
     height="79.632004"
     rx="7.0361447"
     id="rect9337"
     style="opacity:1;isolation:isolate;fill:url(#linearGradient1177);fill-opacity:1.0;stroke-width:0.80502313" />
  <g
     transform="translate(1.6323333,1.7986667)"
     style="isolation:isolate"
     id="g1655">
    <path
       d="M 13.461,16.2 H 18.4 v 0.844 h -4.078 v 2.7 h 4.043 v 0.844 h -4.043 v 3.387 h 4.043 v 0.843 h -4.9 z"
       transform="translate(0.028,0.12)"
       stroke-miterlimit="10"
       id="path1617"
       inkscape:connector-curvature="0"
       style="fill:#ffffff;stroke:#ffffff;stroke-width:0.5;stroke-miterlimit:10" />
    <path
       d="m 19.443,18.445 h 0.838 v 0.932 a 2.948,2.948 0 0 1 0.791,-0.822 1.561,1.561 0 0 1 0.867,-0.273 1.492,1.492 0 0 1 0.727,0.217 l -0.428,0.691 a 1.142,1.142 0 0 0 -0.433,-0.111 1.186,1.186 0 0 0 -0.792,0.337 2.132,2.132 0 0 0 -0.58,1.046 10.035,10.035 0 0 0 -0.153,2.2 v 2.158 h -0.838 z"
       transform="translate(0.028,0.12)"
       stroke-miterlimit="10"
       id="path1619"
       inkscape:connector-curvature="0"
       style="fill:#ffffff;stroke:#ffffff;stroke-width:0.5;stroke-miterlimit:10" />
    <path
       d="m 25.989,15.985 v 0.8 a 2.025,2.025 0 0 0 -0.773,-0.193 0.761,0.761 0 0 0 -0.4,0.1 0.43,0.43 0 0 0 -0.2,0.223 3.109,3.109 0 0 0 -0.041,0.671 v 0.861 h 1.331 v 0.709 h -1.332 l -0.005,5.666 h -0.82 v -5.667 h -0.837 v -0.709 h 0.838 v -1 A 2.7,2.7 0 0 1 23.876,16.468 1,1 0 0 1 24.3,16 a 1.408,1.408 0 0 1 0.73,-0.179 3.483,3.483 0 0 1 0.959,0.164 z"
       transform="translate(0.028,0.12)"
       stroke-miterlimit="10"
       id="path1621"
       inkscape:connector-curvature="0"
       style="fill:#ffffff;stroke:#ffffff;stroke-width:0.5;stroke-miterlimit:10" />
    <path
       d="m 33.482,18.448 v 6.375 h -0.808 v -1.095 a 3.534,3.534 0 0 1 -1.157,0.942 3.235,3.235 0 0 1 -3.715,-0.665 3.289,3.289 0 0 1 -0.958,-2.388 3.227,3.227 0 0 1 0.967,-2.355 3.152,3.152 0 0 1 2.327,-0.979 3.018,3.018 0 0 1 1.421,0.334 3.235,3.235 0 0 1 1.115,1 v -1.169 z m -3.278,0.626 a 2.473,2.473 0 0 0 -2.186,1.282 2.583,2.583 0 0 0 0,2.576 2.516,2.516 0 0 0 0.928,0.956 2.423,2.423 0 0 0 1.249,0.342 2.564,2.564 0 0 0 1.276,-0.339 2.381,2.381 0 0 0 0.928,-0.918 2.629,2.629 0 0 0 0.325,-1.3 A 2.541,2.541 0 0 0 32,19.817 2.412,2.412 0 0 0 30.2,19.074 Z"
       transform="translate(0.028,0.12)"
       stroke-miterlimit="10"
       id="path1623"
       inkscape:connector-curvature="0"
       style="fill:#ffffff;stroke:#ffffff;stroke-width:0.5;stroke-miterlimit:10" />
    <path
       d="m 35.329,15.987 h 0.82 v 3.6 a 3.49,3.49 0 0 1 1.1,-0.982 2.676,2.676 0 0 1 1.3,-0.325 2.273,2.273 0 0 1 1.269,0.364 2.166,2.166 0 0 1 0.816,0.976 5.165,5.165 0 0 1 0.264,1.919 v 3.281 h -0.821 v -3.037 a 7.73,7.73 0 0 0 -0.088,-1.47 1.669,1.669 0 0 0 -0.554,-0.953 1.64,1.64 0 0 0 -1.051,-0.32 2.027,2.027 0 0 0 -1.334,0.492 2.31,2.31 0 0 0 -0.776,1.219 8.487,8.487 0 0 0 -0.118,1.734 v 2.338 h -0.82 z"
       transform="translate(0.028,0.12)"
       stroke-miterlimit="10"
       id="path1625"
       inkscape:connector-curvature="0"
       style="fill:#ffffff;stroke:#ffffff;stroke-width:0.5;stroke-miterlimit:10" />
    <path
       d="m 42.336,18.449 h 0.838 v 0.932 a 2.941,2.941 0 0 1 0.792,-0.823 1.547,1.547 0 0 1 0.867,-0.272 1.492,1.492 0 0 1 0.727,0.217 l -0.429,0.691 a 1.161,1.161 0 0 0 -0.433,-0.112 1.185,1.185 0 0 0 -0.791,0.337 2.124,2.124 0 0 0 -0.58,1.046 9.988,9.988 0 0 0 -0.153,2.2 v 2.156 h -0.838 z"
       transform="translate(0.028,0.12)"
       stroke-miterlimit="10"
       id="path1627"
       inkscape:connector-curvature="0"
       style="fill:#ffffff;stroke:#ffffff;stroke-width:0.5;stroke-miterlimit:10" />
    <path
       d="m 46.15,18.45 h 0.821 v 2.977 a 6.378,6.378 0 0 0 0.117,1.5 1.678,1.678 0 0 0 0.672,0.926 2.041,2.041 0 0 0 1.182,0.339 1.994,1.994 0 0 0 1.165,-0.331 1.693,1.693 0 0 0 0.661,-0.87 6.141,6.141 0 0 0 0.123,-1.563 v -2.977 h 0.837 v 3.129 a 4.964,4.964 0 0 1 -0.308,1.986 2.339,2.339 0 0 1 -0.926,1.045 3.377,3.377 0 0 1 -3.1,0 2.331,2.331 0 0 1 -0.932,-1.054 5.14,5.14 0 0 1 -0.307,-2.036 z"
       transform="translate(0.028,0.12)"
       stroke-miterlimit="10"
       id="path1629"
       inkscape:connector-curvature="0"
       style="fill:#ffffff;stroke:#ffffff;stroke-width:0.5;stroke-miterlimit:10" />
    <path
       d="m 53.551,18.451 h 0.82 v 1.143 a 3.421,3.421 0 0 1 1.09,-0.982 2.686,2.686 0 0 1 1.3,-0.325 2.269,2.269 0 0 1 1.268,0.364 2.172,2.172 0 0 1 0.817,0.979 5.169,5.169 0 0 1 0.264,1.916 v 3.281 h -0.82 v -3.041 a 7.5,7.5 0 0 0 -0.091,-1.471 1.615,1.615 0 0 0 -0.547,-0.952 1.653,1.653 0 0 0 -1.054,-0.32 2.027,2.027 0 0 0 -1.334,0.492 2.31,2.31 0 0 0 -0.776,1.219 8.535,8.535 0 0 0 -0.118,1.734 v 2.338 h -0.82 z"
       transform="translate(0.028,0.12)"
       stroke-miterlimit="10"
       id="path1631"
       inkscape:connector-curvature="0"
       style="fill:#ffffff;stroke:#ffffff;stroke-width:0.5;stroke-miterlimit:10" />
    <path
       d="m 66.365,18.453 h 0.82 v 5.08 a 6,6 0 0 1 -0.235,1.967 2.556,2.556 0 0 1 -1.119,1.354 3.685,3.685 0 0 1 -1.917,0.474 4.374,4.374 0 0 1 -1.473,-0.233 2.934,2.934 0 0 1 -1.064,-0.623 3.7,3.7 0 0 1 -0.755,-1.143 h 0.89 a 2.346,2.346 0 0 0 0.939,0.938 3.017,3.017 0 0 0 1.425,0.3 2.951,2.951 0 0 0 1.417,-0.312 1.915,1.915 0 0 0 0.824,-0.785 3.494,3.494 0 0 0 0.247,-1.528 v -0.328 a 3.1,3.1 0 0 1 -1.132,0.9 3.36,3.36 0 0 1 -3.073,-0.124 3.108,3.108 0 0 1 -1.2,-1.175 3.216,3.216 0 0 1 -0.422,-1.623 3.316,3.316 0 0 1 3.3,-3.3 3.061,3.061 0 0 1 1.335,0.3 3.669,3.669 0 0 1 1.193,0.976 z m -2.42,0.627 a 2.587,2.587 0 0 0 -1.3,0.336 2.442,2.442 0 0 0 -0.938,0.932 2.553,2.553 0 0 0 -0.34,1.286 2.318,2.318 0 0 0 0.7,1.734 2.768,2.768 0 0 0 3.642,0.007 2.4,2.4 0 0 0 0.689,-1.787 2.586,2.586 0 0 0 -0.317,-1.286 2.305,2.305 0 0 0 -0.9,-0.894 2.49,2.49 0 0 0 -1.236,-0.328 z"
       transform="translate(0.028,0.12)"
       stroke-miterlimit="10"
       id="path1633"
       inkscape:connector-curvature="0"
       style="fill:#ffffff;stroke:#ffffff;stroke-width:0.5;stroke-miterlimit:10" />
    <path
       d="m 74.31,22.714 0.691,0.363 a 3.776,3.776 0 0 1 -0.786,1.078 3.105,3.105 0 0 1 -1,0.624 3.488,3.488 0 0 1 -1.261,0.214 3.047,3.047 0 0 1 -2.439,-1.022 3.452,3.452 0 0 1 -0.88,-2.313 3.4,3.4 0 0 1 0.745,-2.161 3.046,3.046 0 0 1 2.528,-1.207 3.145,3.145 0 0 1 2.6,1.236 3.45,3.45 0 0 1 0.7,2.18 h -5.732 a 2.6,2.6 0 0 0 0.709,1.821 2.263,2.263 0 0 0 1.7,0.71 2.718,2.718 0 0 0 0.947,-0.169 2.47,2.47 0 0 0 0.783,-0.45 3.805,3.805 0 0 0 0.695,-0.904 z m 0,-1.717 a 2.723,2.723 0 0 0 -0.478,-1.049 2.287,2.287 0 0 0 -0.83,-0.633 2.544,2.544 0 0 0 -1.085,-0.24 2.336,2.336 0 0 0 -1.614,0.6 A 2.729,2.729 0 0 0 69.558,21 Z"
       transform="translate(0.028,0.12)"
       stroke-miterlimit="10"
       id="path1635"
       inkscape:connector-curvature="0"
       style="fill:#ffffff;stroke:#ffffff;stroke-width:0.5;stroke-miterlimit:10" />
    <path
       d="m 76.742,18.455 h 0.82 V 19.6 a 3.431,3.431 0 0 1 1.09,-0.982 2.677,2.677 0 0 1 1.3,-0.325 2.264,2.264 0 0 1 1.269,0.363 2.174,2.174 0 0 1 0.817,0.98 5.194,5.194 0 0 1 0.262,1.914 v 3.281 H 81.479 V 21.79 a 7.513,7.513 0 0 0 -0.091,-1.472 1.623,1.623 0 0 0 -0.547,-0.952 1.652,1.652 0 0 0 -1.055,-0.319 2.022,2.022 0 0 0 -1.333,0.492 2.3,2.3 0 0 0 -0.777,1.219 8.535,8.535 0 0 0 -0.118,1.734 v 2.338 h -0.82 z"
       transform="translate(0.028,0.12)"
       stroke-miterlimit="10"
       id="path1637"
       inkscape:connector-curvature="0"
       style="fill:#ffffff;stroke:#ffffff;stroke-width:0.5;stroke-miterlimit:10" />
    <path
       d="m 13.211,37.808 h 0.821 v 2.976 a 6.366,6.366 0 0 0 0.117,1.5 1.678,1.678 0 0 0 0.672,0.927 2.036,2.036 0 0 0 1.182,0.34 2,2 0 0 0 1.166,-0.331 1.7,1.7 0 0 0 0.66,-0.87 6.16,6.16 0 0 0 0.123,-1.565 v -2.976 h 0.837 v 3.129 a 4.949,4.949 0 0 1 -0.308,1.986 2.352,2.352 0 0 1 -0.926,1.046 2.925,2.925 0 0 1 -1.55,0.378 2.954,2.954 0 0 1 -1.555,-0.378 2.346,2.346 0 0 1 -0.932,-1.056 5.155,5.155 0 0 1 -0.307,-2.036 z"
       transform="translate(0.028,0.12)"
       stroke-miterlimit="10"
       id="path1639"
       inkscape:connector-curvature="0"
       style="fill:#ffffff;stroke:#ffffff;stroke-width:0.5;stroke-miterlimit:10" />
    <path
       d="m 20.612,37.81 h 0.82 v 1.142 a 3.429,3.429 0 0 1 1.09,-0.981 2.674,2.674 0 0 1 1.3,-0.325 2.261,2.261 0 0 1 1.268,0.363 2.166,2.166 0 0 1 0.818,0.978 5.194,5.194 0 0 1 0.263,1.916 v 3.282 h -0.82 v -3.041 a 7.486,7.486 0 0 0 -0.091,-1.471 1.623,1.623 0 0 0 -0.547,-0.952 1.652,1.652 0 0 0 -1.055,-0.32 2.018,2.018 0 0 0 -1.333,0.493 2.3,2.3 0 0 0 -0.777,1.218 8.5,8.5 0 0 0 -0.117,1.735 v 2.338 h -0.82 z"
       transform="translate(0.028,0.12)"
       stroke-miterlimit="10"
       id="path1641"
       inkscape:connector-curvature="0"
       style="fill:#ffffff;stroke:#ffffff;stroke-width:0.5;stroke-miterlimit:10" />
    <path
       d="m 34.294,35.351 v 8.836 h -0.808 v -1.1 a 3.5,3.5 0 0 1 -1.157,0.942 3.23,3.23 0 0 1 -3.715,-0.665 3.293,3.293 0 0 1 -0.958,-2.388 3.234,3.234 0 0 1 0.968,-2.355 3.152,3.152 0 0 1 2.326,-0.979 3.018,3.018 0 0 1 1.421,0.334 3.267,3.267 0 0 1 1.116,1 v -3.625 z m -3.279,3.087 a 2.471,2.471 0 0 0 -2.186,1.282 2.581,2.581 0 0 0 0,2.575 2.516,2.516 0 0 0 0.928,0.956 2.424,2.424 0 0 0 1.249,0.343 2.569,2.569 0 0 0 1.277,-0.34 2.363,2.363 0 0 0 0.927,-0.917 2.623,2.623 0 0 0 0.325,-1.306 2.532,2.532 0 0 0 -0.728,-1.849 2.413,2.413 0 0 0 -1.792,-0.744 z"
       transform="translate(0.028,0.12)"
       stroke-miterlimit="10"
       id="path1643"
       inkscape:connector-curvature="0"
       style="fill:#ffffff;stroke:#ffffff;stroke-width:0.5;stroke-miterlimit:10" />
    <path
       d="m 38.753,36.412 v -0.844 h 4.723 v 0.844 h -1.922 v 7.776 h -0.879 v -7.776 z"
       transform="translate(0.028,0.12)"
       stroke-miterlimit="10"
       id="path1645"
       inkscape:connector-curvature="0"
       style="fill:#ffffff;stroke:#ffffff;stroke-width:0.5;stroke-miterlimit:10" />
    <path
       d="m 44.867,35.188 a 0.653,0.653 0 0 1 0.479,0.2 0.675,0.675 0 0 1 0,0.955 0.675,0.675 0 1 1 -0.479,-1.155 z m -0.408,2.625 h 0.821 v 6.375 h -0.821 z"
       transform="translate(0.028,0.12)"
       stroke-miterlimit="10"
       id="path1647"
       inkscape:connector-curvature="0"
       style="fill:#ffffff;stroke:#ffffff;stroke-width:0.5;stroke-miterlimit:10" />
    <path
       d="m 47,37.813 h 0.82 v 1.172 a 3.3,3.3 0 0 1 1.118,-1 2.98,2.98 0 0 1 1.411,-0.334 3.153,3.153 0 0 1 2.323,0.98 3.23,3.23 0 0 1 0.966,2.355 3.292,3.292 0 0 1 -0.957,2.388 3.223,3.223 0 0 1 -3.709,0.664 3.522,3.522 0 0 1 -1.153,-0.943 v 3.428 H 47 Z m 3.281,0.627 a 2.407,2.407 0 0 0 -1.792,0.744 2.54,2.54 0 0 0 -0.728,1.849 2.633,2.633 0 0 0 0.324,1.306 2.36,2.36 0 0 0 0.93,0.918 2.571,2.571 0 0 0 1.277,0.34 2.412,2.412 0 0 0 1.242,-0.342 2.513,2.513 0 0 0 0.927,-0.956 2.585,2.585 0 0 0 0,-2.575 2.475,2.475 0 0 0 -2.183,-1.284 z"
       transform="translate(0.028,0.12)"
       stroke-miterlimit="10"
       id="path1649"
       inkscape:connector-curvature="0"
       style="fill:#ffffff;stroke:#ffffff;stroke-width:0.5;stroke-miterlimit:10" />
    <path
       d="M 55.182,37.814 H 56 v 1.172 a 3.284,3.284 0 0 1 1.119,-1 2.976,2.976 0 0 1 1.41,-0.334 3.15,3.15 0 0 1 2.324,0.979 3.225,3.225 0 0 1 0.965,2.355 3.292,3.292 0 0 1 -0.957,2.388 3.224,3.224 0 0 1 -3.708,0.665 A 3.528,3.528 0 0 1 56,43.094 v 3.427 h -0.82 z m 3.281,0.628 a 2.413,2.413 0 0 0 -1.792,0.743 2.544,2.544 0 0 0 -0.728,1.849 2.623,2.623 0 0 0 0.325,1.306 2.373,2.373 0 0 0 0.929,0.919 2.577,2.577 0 0 0 1.277,0.34 2.416,2.416 0 0 0 1.243,-0.343 2.511,2.511 0 0 0 0.926,-0.956 2.588,2.588 0 0 0 0,-2.575 2.471,2.471 0 0 0 -2.184,-1.283 z"
       transform="translate(0.028,0.12)"
       stroke-miterlimit="10"
       id="path1651"
       inkscape:connector-curvature="0"
       style="fill:#ffffff;stroke:#ffffff;stroke-width:0.5;stroke-miterlimit:10" />
    <path
       d="m 66.561,38.514 -0.527,0.545 a 1.9,1.9 0 0 0 -1.287,-0.639 0.97,0.97 0 0 0 -0.684,0.264 0.808,0.808 0 0 0 -0.285,0.615 0.911,0.911 0 0 0 0.235,0.592 3.289,3.289 0 0 0 0.985,0.673 3.7,3.7 0 0 1 1.246,0.915 1.662,1.662 0 0 1 0.322,1 1.8,1.8 0 0 1 -0.552,1.331 1.883,1.883 0 0 1 -1.379,0.544 2.411,2.411 0 0 1 -1.053,-0.24 2.284,2.284 0 0 1 -0.83,-0.663 l 0.516,-0.585 a 1.788,1.788 0 0 0 1.332,0.709 1.2,1.2 0 0 0 0.84,-0.316 0.978,0.978 0 0 0 0.347,-0.744 0.95,0.95 0 0 0 -0.229,-0.627 3.669,3.669 0 0 0 -1.033,-0.68 3.3,3.3 0 0 1 -1.174,-0.879 1.655,1.655 0 0 1 -0.312,-0.991 1.606,1.606 0 0 1 0.5,-1.206 1.728,1.728 0 0 1 1.253,-0.481 2.6,2.6 0 0 1 1.769,0.863 z"
       transform="translate(0.028,0.12)"
       stroke-miterlimit="10"
       id="path1653"
       inkscape:connector-curvature="0"
       style="fill:#ffffff;stroke:#ffffff;stroke-width:0.5;stroke-miterlimit:10" />
  </g>
  <path
     d="m 71.793666,74.782667 a 20.953,20.953 0 0 0 1,-2.213 1.13,1.13 0 0 0 -0.268,-0.979 c -2.194,-1.915 -3.29,-4.23 -2.4,-7.114 0.951,-3.065 3.284,-4.629 6.333,-5.167 a 8.693,8.693 0 0 1 7.183,1.772 6.512,6.512 0 0 1 -0.016,10.5 8.76,8.76 0 0 1 -6.932,1.759 1.616,1.616 0 0 0 -1.391,0.377 4.661,4.661 0 0 1 -3.509,1.065 z"
     id="path1657"
     inkscape:connector-curvature="0"
     style="isolation:isolate;fill:#ffffff" />
  <path
     d="m 61.576666,70.850667 a 17.094,17.094 0 0 0 0.809,-1.784 0.908,0.908 0 0 0 -0.216,-0.789 c -1.769,-1.544 -2.653,-3.41 -1.931,-5.735 a 5.961,5.961 0 0 1 5.1,-4.165 7.008,7.008 0 0 1 5.791,1.428 5.25,5.25 0 0 1 -0.014,8.462 7.06,7.06 0 0 1 -5.582,1.421 1.3,1.3 0 0 0 -1.121,0.3 3.758,3.758 0 0 1 -2.836,0.862 z"
     id="path1659"
     inkscape:connector-curvature="0"
     style="isolation:isolate;fill:#ffffff" />
</svg>
