<?xml version="1.0" encoding="UTF-8" standalone="no"?>
<svg
   xmlns:dc="http://purl.org/dc/elements/1.1/"
   xmlns:cc="http://creativecommons.org/ns#"
   xmlns:rdf="http://www.w3.org/1999/02/22-rdf-syntax-ns#"
   xmlns:svg="http://www.w3.org/2000/svg"
   xmlns="http://www.w3.org/2000/svg"
   xmlns:xlink="http://www.w3.org/1999/xlink"
   xmlns:sodipodi="http://sodipodi.sourceforge.net/DTD/sodipodi-0.dtd"
   xmlns:inkscape="http://www.inkscape.org/namespaces/inkscape"
   viewBox="0 0 99.6 89"
   version="1.1"
   id="svg1361"
   sodipodi:docname="C7_ausland_hover.svg"
   inkscape:version="0.92.4 (5da689c313, 2019-01-14)">
  <metadata
     id="metadata1365">
    <rdf:RDF>
      <cc:Work
         rdf:about="">
        <dc:format>image/svg+xml</dc:format>
        <dc:type
           rdf:resource="http://purl.org/dc/dcmitype/StillImage" />
        <dc:title>C1_faq</dc:title>
      </cc:Work>
    </rdf:RDF>
  </metadata>
  <sodipodi:namedview
     pagecolor="#ffffff"
     bordercolor="#666666"
     borderopacity="1"
     objecttolerance="10"
     gridtolerance="10"
     guidetolerance="10"
     inkscape:pageopacity="0"
     inkscape:pageshadow="2"
     inkscape:window-width="1920"
     inkscape:window-height="1018"
     id="namedview1363"
     showgrid="false"
     inkscape:zoom="3"
     inkscape:cx="-133.63334"
     inkscape:cy="97.833333"
     inkscape:window-x="1912"
     inkscape:window-y="-8"
     inkscape:window-maximized="1"
     inkscape:current-layer="svg1361" />
  <defs
     id="defs1103">
    <clipPath
       id="clip-path"
       transform="translate(0.05)">
      <rect
         x="3.193"
         y="3.073"
         width="92.076"
         height="79.376"
         rx="7.091"
         fill="none"
         id="rect1091" />
    </clipPath>
    <clipPath
       id="clip-path-2"
       transform="translate(0.05)">
      <rect
         x="0.307"
         y="0.186"
         width="97.848"
         height="85.146"
         fill="none"
         id="rect1094" />
    </clipPath>
    <clipPath
       id="clip-path-4"
       transform="translate(0.05)">
      <rect
         x="2.893"
         y="3.07"
         width="92.076"
         height="79.376"
         rx="7.091"
         fill="none"
         id="rect1097" />
    </clipPath>
    <clipPath
       id="clip-path-5"
       transform="translate(0.05)">
      <rect
         x="0.007"
         y="0.183"
         width="97.848"
         height="85.146"
         fill="none"
         id="rect1100" />
    </clipPath>
    <linearGradient
       gradientTransform="matrix(0.80065364,0,0,0.80941636,0.26060764,-0.46404563)"
       inkscape:collect="always"
       xlink:href="#linearGradient1175"
       id="linearGradient1177"
       x1="103.59147"
       y1="88.713524"
       x2="13.732"
       y2="13.404"
       gradientUnits="userSpaceOnUse" />
    <linearGradient
       inkscape:collect="always"
       id="linearGradient1175">
      <stop
         style="stop-color:#2d528b;stop-opacity:1"
         offset="0"
         id="stop1171-0" />
      <stop
         style="stop-color:#385f9c;stop-opacity:1"
         offset="1"
         id="stop1173-3" />
    </linearGradient>
  </defs>
  <title
     id="title1105">C1_faq</title>
  <rect
     x="0.60000002"
     width="99"
     height="89"
     id="rect1107"
     y="0"
     style="isolation:isolate;fill:#ffffff" />
  <g
     id="g1213"
     style="opacity:0.3;isolation:isolate;mix-blend-mode:multiply"
     transform="matrix(0.98414881,0,0,0.98215347,1.5453956,1.5520417)">
    <path
       style="fill:#ffffff"
       inkscape:connector-curvature="0"
       id="path1109"
       transform="translate(0.05)"
       d="m 97.444,78.891 c 0,4.44 -3.984,8.044 -8.9,8.046 l -74.888,0.029 c -4.917,0 -8.9,-3.6 -8.9,-8.039 L 4.729,11.248 c 0,-4.444 3.98,-8.047 8.9,-8.048 L 88.517,3.17 c 4.913,0 8.9,3.6 8.9,8.042 z" />
    <path
       style="fill:#fefeff"
       inkscape:connector-curvature="0"
       id="path1111"
       transform="translate(0.05)"
       d="m 97.379,78.829 c 0,4.437 -3.982,8.038 -8.894,8.04 L 13.621,86.9 c -4.916,0 -8.9,-3.6 -8.9,-8.033 L 4.694,11.241 c 0,-4.438 3.94,-8.036 8.859,-8.045 l 74.9,-0.026 c 4.912,0 8.9,3.6 8.9,8.035 z" />
    <path
       style="fill:#fdfdff"
       inkscape:connector-curvature="0"
       id="path1113"
       transform="translate(0.05)"
       d="m 97.315,78.768 c 0,4.433 -3.981,8.031 -8.891,8.033 l -74.841,0.03 c -4.914,0 -8.9,-3.594 -8.9,-8.027 L 4.659,11.235 c 0,-4.432 3.9,-8.027 8.821,-8.042 L 88.391,3.17 c 4.91,0 8.9,3.592 8.9,8.029 z" />
    <path
       style="fill:#fcfcff"
       inkscape:connector-curvature="0"
       id="path1115"
       transform="translate(0.05)"
       d="m 97.251,78.707 c 0,4.429 -3.98,8.025 -8.889,8.026 l -74.817,0.03 c -4.913,0 -8.893,-3.591 -8.895,-8.02 L 4.623,11.228 c 0,-4.426 3.862,-8.016 8.784,-8.039 L 88.329,3.17 c 4.909,0 8.893,3.589 8.9,8.022 z" />
    <path
       style="fill:#fcfcff"
       inkscape:connector-curvature="0"
       id="path1117"
       transform="translate(0.05)"
       d="m 97.186,78.645 c 0,4.426 -3.979,8.019 -8.886,8.021 L 13.507,86.7 C 8.596,86.7 4.616,83.112 4.615,78.686 L 4.588,11.222 C 4.6,6.8 8.411,3.215 13.334,3.186 L 88.267,3.171 c 4.908,0 8.891,3.586 8.893,8.015 z" />
    <path
       style="fill:#fbfbff"
       inkscape:connector-curvature="0"
       id="path1119"
       transform="translate(0.05)"
       d="m 97.122,78.584 c 0,4.422 -3.978,8.012 -8.883,8.014 L 13.468,86.627 C 8.56,86.627 4.581,83.042 4.579,78.62 L 4.553,11.22 c 0.009,-4.415 3.783,-8 8.708,-8.033 L 88.206,3.176 c 4.906,0 8.888,3.583 8.889,8.008 z" />
    <path
       style="fill:#fafaff"
       inkscape:connector-curvature="0"
       id="path1121"
       transform="translate(0.05)"
       d="m 97.057,78.522 c 0,4.419 -3.976,8.006 -8.88,8.008 L 13.43,86.559 c -4.907,0 -8.884,-3.582 -8.886,-8 L 4.518,11.209 c 0.01,-4.41 3.744,-7.987 8.67,-8.03 L 88.144,3.171 c 4.9,0 8.885,3.58 8.887,8 z" />
    <path
       style="fill:#f9f9ff"
       inkscape:connector-curvature="0"
       id="path1123"
       transform="translate(0.05)"
       d="m 96.993,78.461 c 0,4.415 -3.975,8 -8.878,8 L 13.392,86.49 c -4.9,0 -8.881,-3.579 -8.883,-7.994 L 4.482,11.2 c 0.013,-4.4 3.7,-7.976 8.633,-8.027 h 74.968 c 4.9,0 8.882,3.577 8.883,8 z" />
    <path
       style="fill:#f8f8ff"
       inkscape:connector-curvature="0"
       id="path1125"
       transform="translate(0.05)"
       d="m 96.929,78.4 c 0,4.412 -3.974,7.993 -8.875,8 l -74.7,0.029 c -4.9,0 -8.879,-3.576 -8.88,-7.988 L 4.447,11.2 C 4.462,6.8 8.113,3.233 13.042,3.176 h 74.979 c 4.9,0 8.879,3.574 8.881,7.989 z" />
    <path
       style="fill:#f7f7fe"
       inkscape:connector-curvature="0"
       id="path1127"
       transform="translate(0.05)"
       d="m 96.864,78.338 c 0,4.408 -3.972,7.986 -8.872,7.988 l -74.676,0.029 c -4.9,0 -8.876,-3.573 -8.878,-7.981 L 4.412,11.189 C 4.429,6.8 8.038,3.232 12.969,3.168 h 74.99 c 4.9,0 8.877,3.571 8.879,7.982 z" />
    <path
       style="fill:#f7f7fe"
       inkscape:connector-curvature="0"
       id="path1129"
       transform="translate(0.05)"
       d="m 96.8,78.276 c 0,4.405 -3.971,7.98 -8.87,7.982 l -74.652,0.029 c -4.9,0 -8.873,-3.57 -8.875,-7.975 L 4.377,11.183 C 4.4,6.8 7.964,3.236 12.9,3.165 l 75,0.006 c 4.9,0 8.874,3.568 8.875,7.976 z" />
    <path
       style="fill:#f6f6fe"
       inkscape:connector-curvature="0"
       id="path1131"
       transform="translate(0.05)"
       d="m 96.735,78.215 c 0,4.4 -3.969,7.973 -8.866,7.975 L 13.24,86.219 c -4.9,0 -8.87,-3.567 -8.872,-7.968 L 4.342,11.176 C 4.363,6.796 7.889,3.239 12.823,3.161 l 75.013,0.01 c 4.9,0 8.871,3.565 8.873,7.969 z" />
    <path
       style="fill:#f5f5fe"
       inkscape:connector-curvature="0"
       id="path1133"
       transform="translate(0.05)"
       d="m 96.671,78.153 c 0,4.4 -3.969,7.967 -8.864,7.969 l -74.6,0.029 c -4.9,0 -8.868,-3.564 -8.869,-7.962 L 4.306,11.17 C 4.33,6.8 7.815,3.243 12.75,3.158 l 75.024,0.013 c 4.9,0 8.869,3.562 8.87,7.963 z" />
    <path
       style="fill:#f4f4fe"
       inkscape:connector-curvature="0"
       id="path1135"
       transform="translate(0.05)"
       d="m 96.606,78.092 c 0,4.394 -3.967,7.96 -8.861,7.962 l -74.581,0.029 c -4.9,0 -8.865,-3.561 -8.867,-7.955 L 4.271,11.163 C 4.3,6.794 7.74,3.246 12.677,3.154 l 75.036,0.017 c 4.894,0 8.865,3.56 8.867,7.957 z" />
    <path
       style="fill:#f3f3fe"
       inkscape:connector-curvature="0"
       id="path1137"
       transform="translate(0.05)"
       d="m 96.542,78.031 c 0,4.39 -3.966,7.953 -8.858,7.955 l -74.558,0.029 c -4.895,0 -8.862,-3.558 -8.864,-7.949 L 4.236,11.157 C 4.263,6.793 7.666,3.25 12.6,3.151 l 75.047,0.02 c 4.893,0 8.863,3.557 8.865,7.95 z" />
    <path
       style="fill:#f2f2fe"
       inkscape:connector-curvature="0"
       id="path1139"
       transform="translate(0.05)"
       d="m 96.478,77.969 c 0,4.387 -3.965,7.948 -8.856,7.949 l -74.535,0.029 c -4.892,0 -8.858,-3.555 -8.86,-7.942 L 4.2,11.15 c 0.029,-4.358 3.39,-7.9 8.33,-8 l 75.058,0.024 c 4.891,0 8.861,3.554 8.862,7.944 z" />
    <path
       style="fill:#f2f2fe"
       inkscape:connector-curvature="0"
       id="path1141"
       transform="translate(0.05)"
       d="m 96.413,77.908 c 0,4.383 -3.963,7.941 -8.853,7.942 l -74.511,0.029 c -4.89,0 -8.856,-3.552 -8.857,-7.936 l -0.027,-66.8 c 0.032,-4.352 3.352,-7.887 8.293,-8 l 75.07,0.027 c 4.889,0 8.857,3.551 8.859,7.937 z" />
    <path
       style="fill:#f1f1fe"
       inkscape:connector-curvature="0"
       id="path1143"
       transform="translate(0.05)"
       d="m 96.349,77.846 c 0,4.38 -3.962,7.935 -8.85,7.937 l -74.488,0.029 c -4.889,0 -8.853,-3.55 -8.855,-7.93 L 4.13,11.137 c 0.034,-4.346 3.312,-7.877 8.254,-8 l 75.082,0.031 c 4.888,0 8.855,3.548 8.857,7.931 z" />
    <path
       style="fill:#f0f0fe"
       inkscape:connector-curvature="0"
       id="path1145"
       transform="translate(0.05)"
       d="m 96.284,77.785 c 0,4.376 -3.96,7.928 -8.847,7.93 l -74.464,0.029 c -4.887,0 -8.85,-3.547 -8.852,-7.923 L 4.1,11.131 C 4.136,6.79 7.373,3.263 12.316,3.137 L 87.41,3.171 c 4.886,0 8.851,3.545 8.853,7.924 z" />
    <path
       style="fill:#efeffe"
       inkscape:connector-curvature="0"
       id="path1147"
       transform="translate(0.05)"
       d="m 96.22,77.723 c 0,4.373 -3.959,7.922 -8.845,7.924 l -74.44,0.029 c -4.886,0 -8.847,-3.544 -8.849,-7.917 L 4.06,11.124 C 4.1,6.789 7.293,3.267 12.238,3.133 l 75.105,0.038 c 4.885,0 8.849,3.542 8.851,7.918 z" />
    <path
       style="fill:#eeeefe"
       inkscape:connector-curvature="0"
       id="path1149"
       transform="translate(0.05)"
       d="m 96.156,77.662 c 0,4.369 -3.959,7.915 -8.842,7.917 L 12.9,85.608 c -4.884,0 -8.845,-3.541 -8.846,-7.91 L 4.028,11.118 a 7.945,7.945 0 0 1 8.14,-7.988 l 75.116,0.041 c 4.884,0 8.847,3.539 8.848,7.911 z" />
    <path
       style="fill:#ededfe"
       inkscape:connector-curvature="0"
       id="path1151"
       transform="translate(0.05)"
       d="m 96.091,77.6 c 0,4.366 -3.957,7.909 -8.839,7.911 L 12.859,85.54 c -4.883,0 -8.842,-3.538 -8.844,-7.9 L 3.989,11.111 a 7.919,7.919 0 0 1 8.1,-7.985 l 75.128,0.045 c 4.882,0 8.843,3.536 8.845,7.905 z" />
    <path
       style="fill:#ececfe"
       inkscape:connector-curvature="0"
       id="path1153"
       transform="translate(0.05)"
       d="m 96.027,77.539 c 0,4.362 -3.956,7.9 -8.837,7.9 l -74.369,0.029 c -4.881,0 -8.839,-3.535 -8.841,-7.9 L 3.954,11.098 a 7.891,7.891 0 0 1 8.065,-7.982 l 75.139,0.048 c 4.881,0 8.841,3.534 8.843,7.9 z" />
    <path
       style="fill:#ececfe"
       inkscape:connector-curvature="0"
       id="path1155"
       transform="translate(0.05)"
       d="m 95.962,77.478 c 0,4.358 -3.954,7.9 -8.833,7.9 L 12.783,85.4 c -4.88,0 -8.836,-3.532 -8.838,-7.891 L 3.919,11.1 a 7.864,7.864 0 0 1 8.027,-7.979 l 75.15,0.052 c 4.88,0 8.838,3.531 8.84,7.892 z" />
    <path
       style="fill:#ebebfe"
       inkscape:connector-curvature="0"
       id="path1157"
       transform="translate(0.05)"
       d="m 95.9,77.416 c 0,4.355 -3.953,7.889 -8.831,7.891 l -74.322,0.029 c -4.878,0 -8.834,-3.529 -8.835,-7.884 L 3.886,11.092 a 7.837,7.837 0 0 1 7.989,-7.976 l 75.162,0.055 c 4.877,0 8.835,3.528 8.837,7.885 z" />
    <path
       style="fill:#eaeafe"
       inkscape:connector-curvature="0"
       id="path1159"
       transform="translate(0.05)"
       d="m 95.834,77.355 c 0,4.351 -3.952,7.882 -8.829,7.884 l -74.3,0.029 c -4.876,0 -8.83,-3.526 -8.831,-7.878 L 3.848,11.085 A 7.812,7.812 0 0 1 11.8,3.112 l 75.173,0.059 c 4.876,0 8.833,3.525 8.834,7.879 z" />
    <path
       style="fill:#e9e9fd"
       inkscape:connector-curvature="0"
       id="path1161"
       transform="translate(0.05)"
       d="m 95.769,77.293 c 0,4.348 -3.95,7.876 -8.825,7.878 L 12.668,85.2 C 7.794,85.2 3.841,81.677 3.839,77.329 L 3.813,11.079 a 7.784,7.784 0 0 1 7.914,-7.97 l 75.184,0.062 c 4.875,0 8.83,3.522 8.832,7.872 z" />
    <path
       style="fill:#e8e8fd"
       inkscape:connector-curvature="0"
       id="path1163"
       transform="translate(0.05)"
       d="m 95.705,77.232 c 0,4.344 -3.95,7.869 -8.823,7.871 L 12.63,85.132 c -4.872,0 -8.824,-3.52 -8.826,-7.865 L 3.778,11.072 a 7.758,7.758 0 0 1 7.876,-7.967 l 75.2,0.066 c 4.873,0 8.827,3.519 8.829,7.866 z" />
    <path
       style="fill:#e7e7fd"
       inkscape:connector-curvature="0"
       id="path1165"
       transform="translate(0.05)"
       d="m 95.64,77.17 c 0,4.341 -3.948,7.864 -8.82,7.865 l -74.228,0.029 c -4.871,0 -8.822,-3.517 -8.823,-7.858 L 3.743,11.066 A 7.73,7.73 0 0 1 11.581,3.1 l 75.207,0.069 c 4.872,0 8.824,3.516 8.826,7.859 z" />
    <path
       style="fill:#e7e7fd"
       inkscape:connector-curvature="0"
       id="path1167"
       transform="translate(0.05)"
       d="m 95.576,77.109 c 0,4.337 -3.947,7.857 -8.817,7.859 L 12.554,85 C 7.685,85 3.735,81.486 3.734,77.148 L 3.707,11.059 a 7.7,7.7 0 0 1 7.8,-7.961 l 75.219,0.073 c 4.87,0 8.821,3.513 8.823,7.853 z" />
    <path
       style="fill:#e6e6fd"
       inkscape:connector-curvature="0"
       id="path1169"
       transform="translate(0.05)"
       d="m 95.511,77.047 c 0,4.334 -3.945,7.851 -8.814,7.853 L 12.516,84.928 C 7.648,84.928 3.7,81.417 3.698,77.083 L 3.672,11.053 A 7.678,7.678 0 0 1 11.435,3.1 l 75.23,0.076 c 4.869,0 8.819,3.51 8.82,7.846 z" />
    <path
       style="fill:#e5e5fd"
       inkscape:connector-curvature="0"
       id="path1171"
       transform="translate(0.05)"
       d="m 95.447,76.986 c 0,4.331 -3.944,7.844 -8.812,7.846 L 12.478,84.86 c -4.866,0 -8.813,-3.508 -8.815,-7.838 L 3.637,11.046 a 7.652,7.652 0 0 1 7.725,-7.955 l 75.241,0.08 c 4.868,0 8.816,3.508 8.818,7.84 z" />
    <path
       style="fill:#e4e4fd"
       inkscape:connector-curvature="0"
       id="path1173"
       transform="translate(0.05)"
       d="m 95.383,76.924 c 0,4.328 -3.943,7.838 -8.809,7.84 L 12.44,84.793 c -4.865,0 -8.811,-3.506 -8.812,-7.833 L 3.6,11.04 C 3.665,6.779 6.323,3.312 11.287,3.088 L 86.54,3.171 c 4.866,0 8.813,3.505 8.815,7.833 z" />
    <path
       style="fill:#e3e3fd"
       inkscape:connector-curvature="0"
       id="path1175"
       transform="translate(0.05)"
       d="m 95.318,76.863 c 0,4.324 -3.941,7.831 -8.806,7.833 l -74.11,0.029 c -4.863,0 -8.808,-3.5 -8.809,-7.826 L 3.567,11.033 C 3.634,6.778 6.251,3.315 11.216,3.084 L 86.48,3.171 c 4.865,0 8.811,3.5 8.812,7.827 z" />
    <path
       style="fill:#e2e2fd"
       inkscape:connector-curvature="0"
       id="path1177"
       transform="translate(0.05)"
       d="m 95.254,76.8 c 0,4.32 -3.94,7.824 -8.8,7.826 l -74.086,0.029 c -4.862,0 -8.8,-3.5 -8.807,-7.82 L 3.535,11.025 C 3.605,6.775 6.18,3.317 11.147,3.079 l 75.275,0.09 c 4.863,0 8.808,3.5 8.81,7.82 z" />
    <path
       style="fill:#e1e1fd"
       inkscape:connector-curvature="0"
       id="path1179"
       transform="translate(0.05)"
       d="m 95.189,76.74 c 0,4.317 -3.939,7.818 -8.8,7.82 l -74.063,0.029 c -4.86,0 -8.8,-3.5 -8.8,-7.813 L 3.5,11.02 C 3.571,6.777 6.106,3.32 11.074,3.077 l 75.287,0.094 c 4.861,0 8.805,3.5 8.806,7.814 z" />
    <path
       style="fill:#e1e1fd"
       inkscape:connector-curvature="0"
       id="path1181"
       transform="translate(0.05)"
       d="m 95.125,76.679 c 0,4.313 -3.938,7.811 -8.8,7.813 l -74.04,0.029 c -4.858,0 -8.8,-3.494 -8.8,-7.807 L 3.459,11.014 C 3.534,6.776 6.027,3.325 11,3.074 l 75.3,0.1 c 4.86,0 8.8,3.493 8.8,7.807 z" />
    <path
       style="fill:#e0e0fd"
       inkscape:connector-curvature="0"
       id="path1183"
       transform="translate(0.05)"
       d="m 95.061,76.617 c 0,4.31 -3.937,7.8 -8.8,7.807 l -74.017,0.029 c -4.856,0 -8.8,-3.491 -8.8,-7.8 L 3.426,11.007 C 3.501,6.775 5.953,3.329 10.926,3.07 l 75.309,0.1 c 4.859,0 8.8,3.49 8.8,7.8 z" />
    <path
       style="fill:#dfdffd"
       inkscape:connector-curvature="0"
       id="path1185"
       transform="translate(0.05)"
       d="m 95,76.556 c 0,4.306 -3.935,7.8 -8.792,7.8 l -73.993,0.029 c -4.854,0 -8.793,-3.488 -8.795,-7.794 L 3.39,11 C 3.468,6.773 5.878,3.331 10.851,3.066 l 75.321,0.1 c 4.857,0 8.8,3.487 8.8,7.794 z" />
    <path
       style="fill:#dedefd"
       inkscape:connector-curvature="0"
       id="path1187"
       transform="translate(0.05)"
       d="m 94.932,76.494 c 0,4.3 -3.934,7.792 -8.79,7.794 l -73.969,0.029 c -4.853,0 -8.79,-3.485 -8.792,-7.787 L 3.355,10.994 C 3.435,6.773 5.804,3.336 10.778,3.063 L 86.11,3.171 c 4.856,0 8.794,3.484 8.8,7.788 z" />
    <path
       style="fill:#ddddfd"
       inkscape:connector-curvature="0"
       id="path1189"
       transform="translate(0.05)"
       d="m 94.867,76.433 c 0,4.3 -3.932,7.786 -8.786,7.787 l -73.946,0.029 c -4.851,0 -8.787,-3.482 -8.789,-7.781 L 3.32,10.988 C 3.4,6.773 5.729,3.339 10.705,3.06 l 75.344,0.111 c 4.854,0 8.791,3.481 8.792,7.781 z" />
    <path
       style="fill:#dcdcfd"
       inkscape:connector-curvature="0"
       id="path1191"
       transform="translate(0.05)"
       d="m 94.8,76.371 c 0,4.3 -3.931,7.78 -8.784,7.781 L 12.1,84.181 c -4.85,0 -8.785,-3.479 -8.786,-7.774 L 3.285,10.981 C 3.369,6.772 5.655,3.343 10.632,3.056 l 75.355,0.115 c 4.853,0 8.788,3.479 8.79,7.775 z" />
    <path
       style="fill:#dcdcfd"
       inkscape:connector-curvature="0"
       id="path1193"
       transform="translate(0.05)"
       d="m 94.739,76.31 c 0,4.292 -3.93,7.773 -8.782,7.775 l -73.9,0.028 c -4.848,0 -8.782,-3.476 -8.784,-7.768 L 3.247,10.975 c 0.086,-4.2 2.331,-7.629 7.31,-7.922 l 75.366,0.118 c 4.852,0 8.786,3.476 8.788,7.768 z" />
    <path
       style="fill:#dbdbfc"
       inkscape:connector-curvature="0"
       id="path1195"
       transform="translate(0.05)"
       d="m 94.674,76.248 c 0,4.289 -3.929,7.767 -8.778,7.769 l -73.875,0.028 c -4.847,0 -8.779,-3.473 -8.781,-7.761 L 3.214,10.968 C 3.3,6.77 5.506,3.35 10.486,3.049 l 75.378,0.122 c 4.849,0 8.783,3.473 8.784,7.762 z" />
    <path
       style="fill:#dadafc"
       inkscape:connector-curvature="0"
       id="path1197"
       transform="translate(0.05)"
       d="m 94.61,76.187 c 0,4.285 -3.928,7.76 -8.776,7.762 l -73.851,0.028 c -4.845,0 -8.776,-3.47 -8.778,-7.755 L 3.179,10.962 C 3.269,6.77 5.431,3.353 10.413,3.046 L 85.8,3.171 c 4.848,0 8.78,3.47 8.782,7.755 z" />
    <path
       style="fill:#d9d9fc"
       inkscape:connector-curvature="0"
       id="path1199"
       transform="translate(0.05)"
       d="m 94.545,76.126 c 0,4.281 -3.926,7.753 -8.773,7.755 l -73.827,0.028 c -4.844,0 -8.774,-3.467 -8.775,-7.748 L 3.144,10.955 c 0.092,-4.186 2.213,-7.6 7.2,-7.913 l 75.4,0.129 c 4.847,0 8.778,3.467 8.78,7.749 z" />
    <path
       style="fill:#d8d8fc"
       inkscape:connector-curvature="0"
       id="path1201"
       transform="translate(0.05)"
       d="m 94.481,76.064 c 0,4.278 -3.925,7.747 -8.77,7.749 l -73.8,0.028 C 7.07,83.841 3.141,80.377 3.139,76.1 L 3.109,10.949 C 3.2,6.768 5.282,3.36 10.267,3.039 l 75.412,0.132 c 4.845,0 8.774,3.464 8.776,7.742 z" />
    <path
       style="fill:#d7d7fc"
       inkscape:connector-curvature="0"
       id="path1203"
       transform="translate(0.05)"
       d="m 94.416,76 c 0,4.274 -3.923,7.74 -8.767,7.742 l -73.781,0.029 c -4.84,0 -8.767,-3.462 -8.769,-7.736 L 3.073,10.935 C 3.173,6.76 5.208,3.356 10.194,3.028 l 75.423,0.136 c 4.844,0 8.772,3.461 8.774,7.736 z" />
    <path
       style="fill:#d7d7fc"
       inkscape:connector-curvature="0"
       id="path1205"
       transform="translate(0.05)"
       d="m 94.352,75.941 c 0,4.271 -3.922,7.734 -8.765,7.736 L 11.83,83.706 c -4.838,0 -8.764,-3.459 -8.766,-7.729 L 3.038,10.936 c 0.1,-4.17 2.1,-7.569 7.083,-7.9 l 75.434,0.139 c 4.843,0 8.77,3.458 8.771,7.729 z" />
    <path
       style="fill:#d6d6fc"
       inkscape:connector-curvature="0"
       id="path1207"
       transform="translate(0.05)"
       d="m 94.288,75.88 c 0,4.267 -3.921,7.727 -8.762,7.729 l -73.734,0.029 c -4.836,0 -8.762,-3.456 -8.763,-7.723 L 3,10.929 C 3.1,6.766 5.056,3.37 10.045,3.029 l 75.446,0.143 c 4.841,0 8.766,3.455 8.768,7.723 z" />
    <path
       style="fill:#d5d5fc"
       inkscape:connector-curvature="0"
       id="path1209"
       transform="translate(0.05)"
       d="m 94.223,75.818 c 0,4.264 -3.92,7.721 -8.759,7.723 l -73.71,0.029 c -4.835,0 -8.759,-3.453 -8.761,-7.716 L 2.968,10.923 c 0.1,-4.158 2.016,-7.549 7.007,-7.9 l 75.457,0.146 c 4.84,0 8.764,3.453 8.766,7.716 z" />
    <path
       style="opacity:0.3;fill:#d4d4fc"
       inkscape:connector-curvature="0"
       id="path1211"
       transform="translate(0.05)"
       d="m 94.159,75.757 c 0,4.26 -3.919,7.714 -8.757,7.716 L 11.716,83.5 C 6.883,83.5 2.96,80.05 2.958,75.79 L 2.932,10.916 C 3.037,6.764 4.91,3.377 9.9,3.021 l 75.47,0.15 c 4.838,0 8.76,3.45 8.762,7.71 z" />
  </g>
  <rect
     x="3.4360104"
     y="2.7266736"
     width="91.373001"
     height="79.632004"
     rx="7.0361447"
     id="rect9337"
     style="opacity:1;isolation:isolate;fill:url(#linearGradient1177);fill-opacity:1.0;stroke-width:0.80502313" />
  <g
     transform="translate(-2.715,2.5673334)"
     style="isolation:isolate"
     id="g1633">
    <path
       d="m 20.449,44.767 a 0.99,0.99 0 0 1 -0.679,-0.255 0.9,0.9 0 0 1 -0.286,-0.711 0.919,0.919 0 0 1 0.273,-0.666 0.9,0.9 0 0 1 0.673,-0.279 0.936,0.936 0 0 1 0.682,0.277 0.9,0.9 0 0 1 0.283,0.669 0.906,0.906 0 0 1 -0.283,0.708 0.949,0.949 0 0 1 -0.663,0.257 z"
       transform="translate(0.028)"
       stroke-miterlimit="10"
       id="path1607"
       inkscape:connector-curvature="0"
       style="fill:#ffffff;stroke:#ffffff;stroke-width:0.5;stroke-miterlimit:10" />
    <path
       d="m 24.518,44.767 a 0.984,0.984 0 0 1 -0.679,-0.254 0.9,0.9 0 0 1 -0.286,-0.711 0.919,0.919 0 0 1 0.273,-0.666 0.9,0.9 0 0 1 0.673,-0.28 0.936,0.936 0 0 1 0.682,0.277 0.9,0.9 0 0 1 0.283,0.669 0.906,0.906 0 0 1 -0.283,0.708 0.949,0.949 0 0 1 -0.663,0.257 z"
       transform="translate(0.028)"
       stroke-miterlimit="10"
       id="path1609"
       inkscape:connector-curvature="0"
       style="fill:#ffffff;stroke:#ffffff;stroke-width:0.5;stroke-miterlimit:10" />
    <path
       d="m 28.587,44.768 a 0.984,0.984 0 0 1 -0.679,-0.254 0.9,0.9 0 0 1 -0.286,-0.711 0.919,0.919 0 0 1 0.273,-0.666 0.9,0.9 0 0 1 0.673,-0.28 0.937,0.937 0 0 1 0.682,0.277 0.979,0.979 0 0 1 0,1.377 0.949,0.949 0 0 1 -0.663,0.257 z"
       transform="translate(0.028)"
       stroke-miterlimit="10"
       id="path1611"
       inkscape:connector-curvature="0"
       style="fill:#ffffff;stroke:#ffffff;stroke-width:0.5;stroke-miterlimit:10" />
    <path
       d="m 33.241,38.707 v 5.009 a 1.119,1.119 0 0 1 -0.248,0.787 0.813,0.813 0 0 1 -0.628,0.265 0.783,0.783 0 0 1 -0.619,-0.273 1.15,1.15 0 0 1 -0.238,-0.78 v -4.958 a 1.113,1.113 0 0 1 0.238,-0.775 0.8,0.8 0 0 1 0.619,-0.259 0.834,0.834 0 0 1 0.628,0.26 1.01,1.01 0 0 1 0.248,0.724 z m -0.857,-1.791 a 0.911,0.911 0 0 1 -0.619,-0.223 0.862,0.862 0 0 1 0.006,-1.234 0.89,0.89 0 0 1 0.613,-0.238 0.914,0.914 0 0 1 0.6,0.217 0.77,0.77 0 0 1 0.26,0.628 0.792,0.792 0 0 1 -0.254,0.625 0.871,0.871 0 0 1 -0.606,0.225 z"
       transform="translate(0.028)"
       stroke-miterlimit="10"
       id="path1613"
       inkscape:connector-curvature="0"
       style="fill:#ffffff;stroke:#ffffff;stroke-width:0.5;stroke-miterlimit:10" />
    <path
       d="m 36.6,38.682 v 0.21 a 3.029,3.029 0 0 1 1,-0.886 2.647,2.647 0 0 1 1.248,-0.281 2.488,2.488 0 0 1 1.225,0.3 1.9,1.9 0 0 1 0.806,0.845 2.011,2.011 0 0 1 0.222,0.686 7.059,7.059 0 0 1 0.051,0.939 v 3.225 a 1.148,1.148 0 0 1 -0.238,0.787 0.789,0.789 0 0 1 -0.619,0.266 0.8,0.8 0 0 1 -0.628,-0.273 1.14,1.14 0 0 1 -0.241,-0.78 v -2.892 a 2.878,2.878 0 0 0 -0.238,-1.31 0.969,0.969 0 0 0 -0.949,-0.455 1.4,1.4 0 0 0 -0.844,0.276 1.582,1.582 0 0 0 -0.559,0.758 5.457,5.457 0 0 0 -0.127,1.447 v 2.172 a 1.132,1.132 0 0 1 -0.244,0.79 0.822,0.822 0 0 1 -0.632,0.263 0.785,0.785 0 0 1 -0.616,-0.273 1.145,1.145 0 0 1 -0.241,-0.78 v -5.009 a 1.089,1.089 0 0 1 0.216,-0.739 0.747,0.747 0 0 1 0.59,-0.244 0.8,0.8 0 0 1 0.413,0.107 0.777,0.777 0 0 1 0.3,0.324 1.144,1.144 0 0 1 0.105,0.527 z"
       transform="translate(0.028)"
       stroke-miterlimit="10"
       id="path1615"
       inkscape:connector-curvature="0"
       style="fill:#ffffff;stroke:#ffffff;stroke-width:0.5;stroke-miterlimit:10" />
    <path
       d="m 48.461,42.505 a 2.011,2.011 0 0 1 -1.38,2 4.614,4.614 0 0 1 -1.66,0.263 4.042,4.042 0 0 1 -1.6,-0.287 2.335,2.335 0 0 1 -0.984,-0.713 1.447,1.447 0 0 1 -0.317,-0.861 0.666,0.666 0 0 1 0.2,-0.488 0.694,0.694 0 0 1 0.514,-0.2 0.6,0.6 0 0 1 0.419,0.133 1.416,1.416 0 0 1 0.279,0.375 1.669,1.669 0 0 0 1.651,0.92 1.469,1.469 0 0 0 0.854,-0.231 0.651,0.651 0 0 0 0.333,-0.53 0.718,0.718 0 0 0 -0.346,-0.666 4.228,4.228 0 0 0 -1.139,-0.4 9.429,9.429 0 0 1 -1.457,-0.467 2.4,2.4 0 0 1 -0.9,-0.645 1.475,1.475 0 0 1 -0.336,-0.983 1.731,1.731 0 0 1 0.311,-0.984 2.141,2.141 0 0 1 0.918,-0.74 3.509,3.509 0 0 1 1.463,-0.274 4.8,4.8 0 0 1 1.208,0.138 3.055,3.055 0 0 1 0.9,0.375 1.851,1.851 0 0 1 0.546,0.521 1.023,1.023 0 0 1 0.186,0.558 0.647,0.647 0 0 1 -0.2,0.49 0.793,0.793 0 0 1 -0.569,0.189 0.7,0.7 0 0 1 -0.454,-0.152 3.073,3.073 0 0 1 -0.428,-0.457 1.585,1.585 0 0 0 -0.463,-0.407 1.466,1.466 0 0 0 -0.723,-0.152 1.434,1.434 0 0 0 -0.782,0.2 0.586,0.586 0 0 0 -0.311,0.5 0.54,0.54 0 0 0 0.229,0.448 1.915,1.915 0 0 0 0.615,0.29 q 0.389,0.114 1.067,0.279 a 5.7,5.7 0 0 1 1.317,0.469 2.185,2.185 0 0 1 0.774,0.644 1.429,1.429 0 0 1 0.265,0.845 z"
       transform="translate(0.028)"
       stroke-miterlimit="10"
       id="path1617-3"
       inkscape:connector-curvature="0"
       style="fill:#ffffff;stroke:#ffffff;stroke-width:0.5;stroke-miterlimit:10" />
    <path
       d="M 25.372,62.918 24.928,61.75 H 21.144 L 20.7,62.943 a 4.141,4.141 0 0 1 -0.445,0.942 0.7,0.7 0 0 1 -0.6,0.244 0.881,0.881 0 0 1 -0.628,-0.26 0.8,0.8 0 0 1 -0.273,-0.59 1.3,1.3 0 0 1 0.064,-0.394 q 0.063,-0.2 0.209,-0.565 l 2.382,-6.042 0.244,-0.625 a 3.156,3.156 0 0 1 0.3,-0.606 1.239,1.239 0 0 1 0.425,-0.391 1.508,1.508 0 0 1 1.307,0 1.274,1.274 0 0 1 0.426,0.384 2.7,2.7 0 0 1 0.273,0.505 q 0.111,0.27 0.282,0.721 l 2.434,6.005 a 3.034,3.034 0 0 1 0.285,1 0.822,0.822 0 0 1 -0.27,0.593 0.887,0.887 0 0 1 -0.651,0.27 0.857,0.857 0 0 1 -0.381,-0.08 0.787,0.787 0 0 1 -0.266,-0.216 1.968,1.968 0 0 1 -0.232,-0.419 Q 25.461,63.134 25.372,62.918 Z M 21.64,60.335 h 2.78 l -1.4,-3.841 z"
       transform="translate(0.028)"
       stroke-miterlimit="10"
       id="path1619-2"
       inkscape:connector-curvature="0"
       style="fill:#ffffff;stroke:#ffffff;stroke-width:0.5;stroke-miterlimit:10" />
    <path
       d="m 33.148,63.155 v -0.222 a 3.933,3.933 0 0 1 -0.654,0.66 2.428,2.428 0 0 1 -0.749,0.395 3.029,3.029 0 0 1 -0.927,0.131 2.392,2.392 0 0 1 -1.127,-0.261 1.9,1.9 0 0 1 -0.771,-0.717 3.181,3.181 0 0 1 -0.323,-1.586 V 58.12 a 1.116,1.116 0 0 1 0.235,-0.777 0.8,0.8 0 0 1 0.623,-0.257 0.821,0.821 0 0 1 0.634,0.26 1.106,1.106 0 0 1 0.241,0.774 v 2.78 a 4.256,4.256 0 0 0 0.1,1.011 1.219,1.219 0 0 0 0.365,0.642 1.046,1.046 0 0 0 0.714,0.231 1.462,1.462 0 0 0 0.825,-0.259 1.509,1.509 0 0 0 0.565,-0.679 5.494,5.494 0 0 0 0.147,-1.612 v -2.113 a 1.1,1.1 0 0 1 0.241,-0.774 0.817,0.817 0 0 1 0.629,-0.26 0.8,0.8 0 0 1 0.622,0.257 1.121,1.121 0 0 1 0.234,0.777 v 5.021 a 1.079,1.079 0 0 1 -0.226,0.743 0.8,0.8 0 0 1 -1.168,-0.01 1.033,1.033 0 0 1 -0.23,-0.72 z"
       transform="translate(0.028)"
       stroke-miterlimit="10"
       id="path1621-0"
       inkscape:connector-curvature="0"
       style="fill:#ffffff;stroke:#ffffff;stroke-width:0.5;stroke-miterlimit:10" />
    <path
       d="m 42.079,61.867 a 2.008,2.008 0 0 1 -1.381,2 4.614,4.614 0 0 1 -1.66,0.263 4.078,4.078 0 0 1 -1.6,-0.286 2.335,2.335 0 0 1 -0.983,-0.714 1.443,1.443 0 0 1 -0.317,-0.861 0.666,0.666 0 0 1 0.2,-0.488 0.692,0.692 0 0 1 0.514,-0.2 0.6,0.6 0 0 1 0.419,0.133 1.473,1.473 0 0 1 0.279,0.375 1.669,1.669 0 0 0 1.651,0.921 1.462,1.462 0 0 0 0.854,-0.232 0.653,0.653 0 0 0 0.333,-0.53 0.721,0.721 0 0 0 -0.346,-0.666 4.243,4.243 0 0 0 -1.14,-0.4 9.678,9.678 0 0 1 -1.457,-0.468 2.375,2.375 0 0 1 -0.9,-0.645 1.472,1.472 0 0 1 -0.337,-0.983 1.733,1.733 0 0 1 0.311,-0.983 2.142,2.142 0 0 1 0.918,-0.741 3.515,3.515 0 0 1 1.463,-0.274 4.805,4.805 0 0 1 1.209,0.139 3,3 0 0 1 0.895,0.375 1.849,1.849 0 0 1 0.546,0.52 1.019,1.019 0 0 1 0.187,0.559 0.647,0.647 0 0 1 -0.2,0.489 0.789,0.789 0 0 1 -0.568,0.189 0.694,0.694 0 0 1 -0.454,-0.152 2.972,2.972 0 0 1 -0.428,-0.457 1.57,1.57 0 0 0 -0.464,-0.406 1.452,1.452 0 0 0 -0.723,-0.153 1.42,1.42 0 0 0 -0.781,0.2 0.581,0.581 0 0 0 -0.311,0.5 0.54,0.54 0 0 0 0.228,0.447 1.932,1.932 0 0 0 0.616,0.29 q 0.387,0.114 1.067,0.279 a 5.674,5.674 0 0 1 1.316,0.469 2.187,2.187 0 0 1 0.774,0.645 1.427,1.427 0 0 1 0.27,0.846 z"
       transform="translate(0.028)"
       stroke-miterlimit="10"
       id="path1623-9"
       inkscape:connector-curvature="0"
       style="fill:#ffffff;stroke:#ffffff;stroke-width:0.5;stroke-miterlimit:10" />
    <path
       d="m 43.545,63.08 v -7.516 a 1.167,1.167 0 0 1 0.232,-0.787 0.79,0.79 0 0 1 0.625,-0.267 0.824,0.824 0 0 1 0.635,0.264 1.138,1.138 0 0 1 0.241,0.791 v 7.516 a 1.131,1.131 0 0 1 -0.244,0.79 0.821,0.821 0 0 1 -0.632,0.262 0.783,0.783 0 0 1 -0.619,-0.273 1.148,1.148 0 0 1 -0.238,-0.78 z"
       transform="translate(0.028)"
       stroke-miterlimit="10"
       id="path1625-2"
       inkscape:connector-curvature="0"
       style="fill:#ffffff;stroke:#ffffff;stroke-width:0.5;stroke-miterlimit:10" />
    <path
       d="m 51.448,63.158 a 5.406,5.406 0 0 1 -1.216,0.732 3.393,3.393 0 0 1 -1.317,0.244 2.49,2.49 0 0 1 -1.171,-0.263 1.922,1.922 0 0 1 -0.777,-0.714 1.856,1.856 0 0 1 -0.273,-0.978 1.75,1.75 0 0 1 0.45,-1.212 2.256,2.256 0 0 1 1.238,-0.673 q 0.167,-0.037 0.82,-0.172 0.653,-0.135 1.12,-0.244 0.466,-0.111 1.012,-0.269 a 1.808,1.808 0 0 0 -0.275,-1.005 1.236,1.236 0 0 0 -1.013,-0.322 2.1,2.1 0 0 0 -0.993,0.184 1.6,1.6 0 0 0 -0.572,0.553 5.79,5.79 0 0 1 -0.337,0.485 0.551,0.551 0 0 1 -0.421,0.117 0.738,0.738 0 0 1 -0.5,-0.187 0.611,0.611 0 0 1 -0.213,-0.48 1.468,1.468 0 0 1 0.324,-0.889 2.328,2.328 0 0 1 1.009,-0.711 4.579,4.579 0 0 1 1.708,-0.279 4.838,4.838 0 0 1 1.8,0.272 1.668,1.668 0 0 1 0.924,0.853 3.731,3.731 0 0 1 0.27,1.549 c 0,0.406 0,0.751 0,1.034 0,0.283 0,0.6 -0.01,0.946 a 3.509,3.509 0 0 0 0.162,1.019 3.219,3.219 0 0 1 0.162,0.683 0.638,0.638 0 0 1 -0.251,0.485 0.836,0.836 0 0 1 -0.568,0.219 0.765,0.765 0 0 1 -0.527,-0.25 3.764,3.764 0 0 1 -0.565,-0.727 z M 51.334,60.65 a 8.652,8.652 0 0 1 -1.108,0.294 Q 49.5,61.1 49.22,61.173 a 1.371,1.371 0 0 0 -0.533,0.286 0.732,0.732 0 0 0 -0.254,0.593 0.883,0.883 0 0 0 0.3,0.67 1.1,1.1 0 0 0 0.781,0.276 2.023,2.023 0 0 0 0.949,-0.226 1.5,1.5 0 0 0 0.638,-0.579 2.647,2.647 0 0 0 0.235,-1.295 z"
       transform="translate(0.028)"
       stroke-miterlimit="10"
       id="path1627-9"
       inkscape:connector-curvature="0"
       style="fill:#ffffff;stroke:#ffffff;stroke-width:0.5;stroke-miterlimit:10" />
    <path
       d="m 56.368,58.048 v 0.21 a 3.03,3.03 0 0 1 1,-0.885 2.669,2.669 0 0 1 1.248,-0.282 2.471,2.471 0 0 1 1.224,0.3 1.889,1.889 0 0 1 0.806,0.844 1.991,1.991 0 0 1 0.223,0.686 7.269,7.269 0 0 1 0.05,0.939 v 3.225 a 1.152,1.152 0 0 1 -0.239,0.787 0.789,0.789 0 0 1 -0.619,0.266 0.8,0.8 0 0 1 -0.628,-0.273 1.138,1.138 0 0 1 -0.241,-0.78 v -2.891 a 2.881,2.881 0 0 0 -0.238,-1.31 0.969,0.969 0 0 0 -0.949,-0.454 1.4,1.4 0 0 0 -0.844,0.276 1.588,1.588 0 0 0 -0.559,0.757 5.418,5.418 0 0 0 -0.127,1.447 v 2.172 a 1.136,1.136 0 0 1 -0.245,0.79 0.822,0.822 0 0 1 -0.632,0.263 0.787,0.787 0 0 1 -0.616,-0.273 1.138,1.138 0 0 1 -0.24,-0.78 v -5.009 a 1.089,1.089 0 0 1 0.216,-0.739 0.748,0.748 0 0 1 0.591,-0.244 0.8,0.8 0 0 1 0.412,0.107 0.783,0.783 0 0 1 0.295,0.324 1.144,1.144 0 0 1 0.112,0.527 z"
       transform="translate(0.028)"
       stroke-miterlimit="10"
       id="path1629-1"
       inkscape:connector-curvature="0"
       style="fill:#ffffff;stroke:#ffffff;stroke-width:0.5;stroke-miterlimit:10" />
    <path
       d="m 67.393,63.146 v -0.17 a 4.36,4.36 0 0 1 -0.689,0.65 2.6,2.6 0 0 1 -0.736,0.381 2.759,2.759 0 0 1 -0.866,0.13 2.552,2.552 0 0 1 -1.153,-0.263 2.683,2.683 0 0 1 -0.916,-0.753 3.411,3.411 0 0 1 -0.587,-1.149 4.885,4.885 0 0 1 -0.2,-1.428 3.722,3.722 0 0 1 0.793,-2.532 2.639,2.639 0 0 1 2.089,-0.908 2.792,2.792 0 0 1 1.263,0.257 3.521,3.521 0 0 1 1,0.79 v -2.557 a 1.3,1.3 0 0 1 0.213,-0.807 0.724,0.724 0 0 1 0.606,-0.273 0.753,0.753 0 0 1 0.607,0.251 1.121,1.121 0 0 1 0.212,0.739 v 7.642 A 1.061,1.061 0 0 1 68.8,63.89 0.766,0.766 0 0 1 68.21,64.137 0.753,0.753 0 0 1 67.623,63.88 1.055,1.055 0 0 1 67.393,63.146 Z M 63.985,60.6 a 2.955,2.955 0 0 0 0.219,1.2 1.671,1.671 0 0 0 0.6,0.746 1.483,1.483 0 0 0 0.831,0.251 1.532,1.532 0 0 0 0.835,-0.238 1.635,1.635 0 0 0 0.6,-0.73 2.951,2.951 0 0 0 0.23,-1.229 2.848,2.848 0 0 0 -0.225,-1.191 1.791,1.791 0 0 0 -0.609,-0.762 1.458,1.458 0 0 0 -0.841,-0.262 1.427,1.427 0 0 0 -0.851,0.269 1.74,1.74 0 0 0 -0.581,0.775 3.084,3.084 0 0 0 -0.208,1.171 z"
       transform="translate(0.028)"
       stroke-miterlimit="10"
       id="path1631-6"
       inkscape:connector-curvature="0"
       style="fill:#ffffff;stroke:#ffffff;stroke-width:0.5;stroke-miterlimit:10" />
  </g>
  <g
     transform="translate(-3.0483334,4.9006667)"
     style="isolation:isolate"
     id="g1639">
    <path
       d="m 59.933334,34.827667 a 1.771,1.771 0 0 1 2.888,-0.113 c 1.538,1.644 3,1.407 4.875,0.495 4.267,-2.08 8.649,-3.927 13,-5.845 a 6.1,6.1 0 0 1 5.352,-0.142 c 0.815,0.4 1.542,0.9 1.363,2 a 29.133,29.133 0 0 1 -6.806,3.915 3.046,3.046 0 0 0 -1.573,1.616 c -1.1,2.487 -2.271,4.942 -3.413,7.41 a 4.16,4.16 0 0 1 -1.932,2.264 c -0.484,0.222 -1.006,0.623 -1.539,0.164 -0.452,-0.391 -0.284,-0.94 -0.192,-1.434 0.33,-1.767 0.679,-3.531 1.011,-5.3 0.065,-0.348 0.088,-0.7 0.149,-1.206 a 50.909,50.909 0 0 1 -6.88,2.371 c -2.92,0.579 -3.728,0.2 -4.936,-2.5 -0.43,-0.963 -0.907,-1.906 -1.362,-2.857 z"
       id="path1635-8"
       inkscape:connector-curvature="0"
       style="fill:#ffffff" />
    <path
       d="m 73.529334,31.315667 c -1.676,0.763 -3.088,1.4 -4.494,2.05 a 0.988,0.988 0 0 1 -1.031,-0.129 c -0.5,-0.323 -1.032,-0.6 -1.526,-0.934 -0.546,-0.368 -1.462,-0.58 -1.245,-1.433 0.217,-0.853 1.147,-1.011 1.908,-1.063 2.176,-0.146 4.061,0.96 6.388,1.509 z"
       id="path1637-9"
       inkscape:connector-curvature="0"
       style="fill:#ffffff" />
  </g>
</svg>
