<svg xmlns="http://www.w3.org/2000/svg" viewBox="0 0 196.4 43.999">
  <title>D0_praxis</title>
  <g id="Ebene_2" data-name="Ebene 2">
    <g id="Ebene_1-2" data-name="Ebene 1">
      <g>
        <g>
          <path d="M2.5,6.786l2.938-.281V10.9H8.453v2.625H5.438v6.958a19.953,19.953,0,0,0,.093,2.442,1.534,1.534,0,0,0,.563.983,2.49,2.49,0,0,0,1.562.382,9.008,9.008,0,0,0,1.313-.109v2.607a11.6,11.6,0,0,1-2.438.283,4.68,4.68,0,0,1-2.8-.711A3.133,3.133,0,0,1,2.5,24.427a18.925,18.925,0,0,1-.266-3.719V13.521H.188V10.9h2.14Z" transform="translate(-0.188 -2.828)"/>
          <path d="M22.266,19.271H13.344q0,3.193.865,4.26A2.684,2.684,0,0,0,16.383,24.6q2.181,0,2.758-2.938l2.984.391q-1.171,5.016-5.844,5.015a5.631,5.631,0,0,1-4.562-2.046,9.175,9.175,0,0,1-1.7-6,10.063,10.063,0,0,1,1.718-6.282,5.516,5.516,0,0,1,4.594-2.218,5.231,5.231,0,0,1,3.391,1.109,5.9,5.9,0,0,1,1.937,2.914A17.262,17.262,0,0,1,22.266,19.271Zm-3.328-2.2q0-4.172-2.719-4.171-2.547,0-2.8,4.171Z" transform="translate(-0.188 -2.828)"/>
          <path d="M27.906,15.364l-3.14-.39a4.711,4.711,0,0,1,1.942-3.282,6.679,6.679,0,0,1,4-1.171,6.016,6.016,0,0,1,3.393.851A3.641,3.641,0,0,1,35.7,13.4a14.148,14.148,0,0,1,.328,3.546v5.375a21.322,21.322,0,0,0,.282,4.36H33.234a12.427,12.427,0,0,1-.2-2.625A4.734,4.734,0,0,1,28.6,27.067,4.3,4.3,0,0,1,25.4,25.841a4.545,4.545,0,0,1-1.208-3.336,5.062,5.062,0,0,1,1.77-4.078q1.77-1.5,6.137-1.5.218,0,.686.015V16.3a5.119,5.119,0,0,0-.506-2.547,1.927,1.927,0,0,0-1.814-.859Q28.327,12.9,27.906,15.364Zm4.875,3.625c-.416-.041-.732-.062-.95-.062q-4.238,0-4.237,3.328,0,2.423,2.1,2.422a2.637,2.637,0,0,0,2.157-1.313,6.156,6.156,0,0,0,.927-3.609Z" transform="translate(-0.188 -2.828)"/>
          <path d="M50.625,16.208l-3.141.344a5.758,5.758,0,0,0-.8-2.758,1.935,1.935,0,0,0-1.594-.7,2.2,2.2,0,0,0-2.11,1.336,11.726,11.726,0,0,0-.656,4.695q0,5.25,2.766,5.25,2.124,0,2.39-3.422l3.141.281q-.642,5.829-5.766,5.828a5.026,5.026,0,0,1-4.492-2.187,10.792,10.792,0,0,1-1.461-6.047,10.274,10.274,0,0,1,1.578-6.187,5.366,5.366,0,0,1,4.594-2.125Q49.936,10.521,50.625,16.208Z" transform="translate(-0.188 -2.828)"/>
          <path d="M53.047,5.349H56.3v7.64a3.853,3.853,0,0,1,3.773-2.468,4.018,4.018,0,0,1,2.293.625,3.275,3.275,0,0,1,1.3,1.664,13.774,13.774,0,0,1,.368,3.929v9.938h-3.25V16.751q0-2.466-.564-3.036a1.888,1.888,0,0,0-1.4-.569q-2.523,0-2.524,4.51v9.021h-3.25Z" transform="translate(-0.188 -2.828)"/>
        </g>
        <g>
          <path d="M84,3.359V20.265a29.357,29.357,0,0,1-.187,4.039A5.489,5.489,0,0,1,82.7,26.7a5.769,5.769,0,0,1-2.429,1.859,9.152,9.152,0,0,1-3.555.633,9.994,9.994,0,0,1-4-.75,6.017,6.017,0,0,1-2.594-1.953,5.4,5.4,0,0,1-1.016-2.539q-.158-1.337-.156-5.617V3.359h6.578V22.328a7.429,7.429,0,0,0,.18,2.117.7.7,0,0,0,.727.461.761.761,0,0,0,.8-.508,9.484,9.484,0,0,0,.18-2.4V3.359Z" transform="translate(-0.188 -2.828)" fill="#2b4392"/>
          <path d="M101.574,18.171q0,3.813-.179,5.4a6.046,6.046,0,0,1-3.68,4.914,9.3,9.3,0,0,1-3.75.7,9.542,9.542,0,0,1-3.649-.664,6.082,6.082,0,0,1-3.773-4.883,53.358,53.358,0,0,1-.188-5.469V13.843q0-3.812.18-5.4a6.043,6.043,0,0,1,3.68-4.914,9.289,9.289,0,0,1,3.75-.7,9.525,9.525,0,0,1,3.648.664,6.08,6.08,0,0,1,3.774,4.883,53.445,53.445,0,0,1,.187,5.468ZM95,9.859A7.89,7.89,0,0,0,94.8,7.6.779.779,0,0,0,94,7.109a.9.9,0,0,0-.789.4,5.623,5.623,0,0,0-.273,2.352V21.671a11.563,11.563,0,0,0,.179,2.719.783.783,0,0,0,.836.516.811.811,0,0,0,.86-.594A12.517,12.517,0,0,0,95,21.484Z" transform="translate(-0.188 -2.828)" fill="#2b4392"/>
          <path d="M117.965,11.015h-6.11V9.14a3.685,3.685,0,0,0-.234-1.672.864.864,0,0,0-.781-.359,1,1,0,0,0-.9.485,2.812,2.812,0,0,0-.3,1.469,4.162,4.162,0,0,0,.342,1.908,4.968,4.968,0,0,0,1.859,1.547q4.392,2.605,5.533,4.278t1.141,5.391a9.452,9.452,0,0,1-.633,3.984,4.959,4.959,0,0,1-2.445,2.149,9.681,9.681,0,0,1-4.219.867,9.423,9.423,0,0,1-4.508-1,4.892,4.892,0,0,1-2.445-2.547,13.011,13.011,0,0,1-.578-4.39V19.593h6.109v3.078a4.052,4.052,0,0,0,.258,1.829,1,1,0,0,0,.914.406,1.071,1.071,0,0,0,.976-.516,2.947,2.947,0,0,0,.321-1.531,4.741,4.741,0,0,0-.61-2.922,19.535,19.535,0,0,0-3.078-2.3,30.1,30.1,0,0,1-3.25-2.359A5.51,5.51,0,0,1,104,13.25a8.92,8.92,0,0,1-.524-3.313,9.175,9.175,0,0,1,.743-4.25,5,5,0,0,1,2.4-2.1,9.587,9.587,0,0,1,4-.757,10.426,10.426,0,0,1,4.367.828,4.573,4.573,0,0,1,2.391,2.086,11.036,11.036,0,0,1,.586,4.273Z" transform="translate(-0.188 -2.828)" fill="#2b4392"/>
        </g>
        <g>
          <path d="M37.42,44.892h1.559v1.764H37.42Z" transform="translate(-0.188 -2.828)" fill="#4b7dcf"/>
          <path d="M40.763,44.892h1.558v1.764H40.763Z" transform="translate(-0.188 -2.828)" fill="#4b7dcf"/>
          <path d="M44.105,44.892h1.559v1.764H44.105Z" transform="translate(-0.188 -2.828)" fill="#4b7dcf"/>
          <path d="M46.505,37.325h1.624l1.777,7.444,1.783-7.444h1.365l-2.466,9.351-1.673-.02Z" transform="translate(-0.188 -2.828)" fill="#4b7dcf"/>
          <path d="M60.184,41.987a6.32,6.32,0,0,1-.855,3.616,2.837,2.837,0,0,1-2.481,1.224,2.88,2.88,0,0,1-2.5-1.221,6.239,6.239,0,0,1-.868-3.619,6.266,6.266,0,0,1,.861-3.606,3.149,3.149,0,0,1,4.983-.007A6.262,6.262,0,0,1,60.184,41.987Zm-1.621,0a7.177,7.177,0,0,0-.385-2.617,1.43,1.43,0,0,0-2.7,0A7.236,7.236,0,0,0,55.1,41.99a7.355,7.355,0,0,0,.376,2.6,1.372,1.372,0,0,0,1.374.972,1.353,1.353,0,0,0,1.326-.941A7.083,7.083,0,0,0,58.563,41.99Z" transform="translate(-0.188 -2.828)" fill="#4b7dcf"/>
          <path d="M61.626,37.325h2.292l1.861,6.726,1.909-6.726h2.2v9.331H68.435V38.692l-2.218,7.964H65.094l-2.176-7.971v7.971H61.626Z" transform="translate(-0.188 -2.828)" fill="#4b7dcf"/>
          <path d="M79.844,39.41l-1.32.458a2.482,2.482,0,0,0-.612-1.1,1.46,1.46,0,0,0-1.035-.354,1.213,1.213,0,0,0-.939.36,1.184,1.184,0,0,0-.333.826,1,1,0,0,0,.374.82,6,6,0,0,0,1.486.729,8.4,8.4,0,0,1,1.463.69A2.49,2.49,0,0,1,80.076,44a2.727,2.727,0,0,1-.83,2,3.159,3.159,0,0,1-2.328.827,3.017,3.017,0,0,1-3.2-2.612l1.381-.389a1.841,1.841,0,0,0,1.886,1.722,1.535,1.535,0,0,0,1.131-.386,1.293,1.293,0,0,0,.387-.954,1.26,1.26,0,0,0-.267-.772,3.18,3.18,0,0,0-1.326-.759,11.149,11.149,0,0,1-1.616-.718A2.533,2.533,0,0,1,74.1,39.786a2.515,2.515,0,0,1,.775-1.873,2.823,2.823,0,0,1,2.061-.759A2.773,2.773,0,0,1,79.844,39.41Z" transform="translate(-0.188 -2.828)" fill="#4b7dcf"/>
          <path d="M80.507,37.325h5.7v1.312H84.123v8.019H82.578V38.637H80.507Z" transform="translate(-0.188 -2.828)" fill="#4b7dcf"/>
          <path d="M86.81,37.325h1.51v5.79a7.172,7.172,0,0,0,.1,1.432,1.2,1.2,0,0,0,.468.731,1.97,1.97,0,0,0,1.9.048,1.2,1.2,0,0,0,.465-.629,6.031,6.031,0,0,0,.136-1.61V37.325h1.388v5.687a8.782,8.782,0,0,1-.194,2.106,2.131,2.131,0,0,1-.9,1.223,3.3,3.3,0,0,1-1.9.486,3.89,3.89,0,0,1-1.6-.3,2.078,2.078,0,0,1-1.03-.984,5.861,5.861,0,0,1-.348-2.423Z" transform="translate(-0.188 -2.828)" fill="#4b7dcf"/>
          <path d="M94.507,37.325h2.1a4.773,4.773,0,0,1,2.44.54,3.386,3.386,0,0,1,1.383,1.606,5.825,5.825,0,0,1,.468,2.365,6.626,6.626,0,0,1-.42,2.437A3.919,3.919,0,0,1,99.191,46a4.023,4.023,0,0,1-2.466.656H94.507Zm1.545,1.237v6.856H96.7a2.165,2.165,0,0,0,1.959-.933,4.483,4.483,0,0,0,.611-2.491q0-3.432-2.57-3.432Z" transform="translate(-0.188 -2.828)" fill="#4b7dcf"/>
          <path d="M102.375,37.325h1.545v9.331h-1.545Z" transform="translate(-0.188 -2.828)" fill="#4b7dcf"/>
          <path d="M105.643,37.325h1.51v5.79a7.249,7.249,0,0,0,.1,1.432,1.2,1.2,0,0,0,.469.731,1.968,1.968,0,0,0,1.9.048,1.191,1.191,0,0,0,.465-.629,6.075,6.075,0,0,0,.136-1.61V37.325h1.388v5.687a8.67,8.67,0,0,1-.2,2.106,2.114,2.114,0,0,1-.9,1.223,3.3,3.3,0,0,1-1.9.486,3.9,3.9,0,0,1-1.6-.3,2.08,2.08,0,0,1-1.029-.984,5.861,5.861,0,0,1-.348-2.423Z" transform="translate(-0.188 -2.828)" fill="#4b7dcf"/>
          <path d="M113.306,37.325H115.6l1.861,6.726,1.909-6.726h2.2v9.331h-1.449V38.692L117.9,46.656h-1.123L114.6,38.685v7.971h-1.292Z" transform="translate(-0.188 -2.828)" fill="#4b7dcf"/>
          <path d="M125.966,37.325h1.545v9.331h-1.545Z" transform="translate(-0.188 -2.828)" fill="#4b7dcf"/>
          <path d="M129.254,37.325h1.82l3.068,6.726V37.325h1.292v9.331h-1.443l-3.445-7.472v7.472h-1.292Z" transform="translate(-0.188 -2.828)" fill="#4b7dcf"/>
          <path d="M139.781,37.325h2.1a4.774,4.774,0,0,1,2.439.54,3.379,3.379,0,0,1,1.382,1.606,5.809,5.809,0,0,1,.469,2.365,6.605,6.605,0,0,1-.421,2.437A3.911,3.911,0,0,1,144.465,46a4.018,4.018,0,0,1-2.467.656h-2.217Zm1.545,1.237v6.856h.645a2.169,2.169,0,0,0,1.959-.933,4.5,4.5,0,0,0,.609-2.491q0-3.432-2.568-3.432Z" transform="translate(-0.188 -2.828)" fill="#4b7dcf"/>
          <path d="M147.649,37.325h1.545v9.331h-1.545Z" transform="translate(-0.188 -2.828)" fill="#4b7dcf"/>
          <path d="M150.985,37.325h5.346v1.237h-3.8v2.666h2.981v1.244H152.53v2.919h3.863v1.265h-5.408Z" transform="translate(-0.188 -2.828)" fill="#4b7dcf"/>
          <path d="M160.036,37.325h2.311a6.385,6.385,0,0,1,1.8.208,2.135,2.135,0,0,1,1.162.923,3.051,3.051,0,0,1,.471,1.719,3.13,3.13,0,0,1-.382,1.586,2.254,2.254,0,0,1-1.029.957,5.06,5.06,0,0,1-1.986.294h-.8v3.644h-1.545Zm1.545,1.2v3.254h.766a2.035,2.035,0,0,0,1.419-.383,1.684,1.684,0,0,0,.392-1.244,1.881,1.881,0,0,0-.26-1.043,1.091,1.091,0,0,0-.57-.492,3.8,3.8,0,0,0-.981-.092Z" transform="translate(-0.188 -2.828)" fill="#4b7dcf"/>
          <path d="M166.954,37.325h2.81a3.169,3.169,0,0,1,2.249.69A2.61,2.61,0,0,1,172.737,40a2.512,2.512,0,0,1-1.428,2.44l1.77,4.218H171.4l-1.45-3.9H168.5v3.9h-1.545Zm1.545,1.2v3.042h1.183a1.449,1.449,0,0,0,1.166-.438,1.7,1.7,0,0,0,.372-1.141q0-1.462-1.525-1.463Z" transform="translate(-0.188 -2.828)" fill="#4b7dcf"/>
          <path d="M176.1,37.325h1.73l2.506,9.331h-1.564l-.585-2.338h-2.736l-.58,2.338h-1.473Zm1.782,5.776-1.069-4.272L175.748,43.1Z" transform="translate(-0.188 -2.828)" fill="#4b7dcf"/>
          <path d="M180.476,37.325h1.712l1.345,2.98,1.5-2.98h1.433L184.3,41.563l2.459,5.093h-1.736l-1.587-3.572-1.8,3.572h-1.456l2.5-4.838Z" transform="translate(-0.188 -2.828)" fill="#4b7dcf"/>
          <path d="M187.462,37.325h1.545v9.331h-1.545Z" transform="translate(-0.188 -2.828)" fill="#4b7dcf"/>
          <path d="M196.355,39.41l-1.319.458a2.482,2.482,0,0,0-.612-1.1,1.46,1.46,0,0,0-1.035-.354,1.215,1.215,0,0,0-.94.36,1.188,1.188,0,0,0-.332.826,1,1,0,0,0,.373.82,5.994,5.994,0,0,0,1.487.729,8.383,8.383,0,0,1,1.462.69A2.487,2.487,0,0,1,196.588,44a2.727,2.727,0,0,1-.83,2,3.159,3.159,0,0,1-2.328.827,3.019,3.019,0,0,1-3.2-2.612l1.381-.389a1.842,1.842,0,0,0,1.887,1.722,1.535,1.535,0,0,0,1.131-.386,1.293,1.293,0,0,0,.387-.954,1.26,1.26,0,0,0-.267-.772,3.187,3.187,0,0,0-1.326-.759,11.149,11.149,0,0,1-1.616-.718,2.537,2.537,0,0,1-1.194-2.173,2.516,2.516,0,0,1,.776-1.873,2.821,2.821,0,0,1,2.061-.759A2.771,2.771,0,0,1,196.355,39.41Z" transform="translate(-0.188 -2.828)" fill="#4b7dcf"/>
        </g>
      </g>
    </g>
  </g>
</svg>
