<?xml version="1.0" encoding="UTF-8" standalone="no"?>
<svg
   xmlns:dc="http://purl.org/dc/elements/1.1/"
   xmlns:cc="http://creativecommons.org/ns#"
   xmlns:rdf="http://www.w3.org/1999/02/22-rdf-syntax-ns#"
   xmlns:svg="http://www.w3.org/2000/svg"
   xmlns="http://www.w3.org/2000/svg"
   xmlns:sodipodi="http://sodipodi.sourceforge.net/DTD/sodipodi-0.dtd"
   xmlns:inkscape="http://www.inkscape.org/namespaces/inkscape"
   viewBox="0 0 260 44.999999"
   version="1.1"
   id="svg975"
   sodipodi:docname="D0_praxis.svg"
   width="260"
   height="45"
   inkscape:version="0.92.4 (5da689c313, 2019-01-14)">
  <metadata
     id="metadata981">
    <rdf:RDF>
      <cc:Work
         rdf:about="">
        <dc:format>image/svg+xml</dc:format>
        <dc:type
           rdf:resource="http://purl.org/dc/dcmitype/StillImage" />
        <dc:title>C0_studium</dc:title>
      </cc:Work>
    </rdf:RDF>
  </metadata>
  <defs
     id="defs979" />
  <sodipodi:namedview
     pagecolor="#ffffff"
     bordercolor="#666666"
     borderopacity="1"
     objecttolerance="10"
     gridtolerance="10"
     guidetolerance="10"
     inkscape:pageopacity="0"
     inkscape:pageshadow="2"
     inkscape:window-width="1920"
     inkscape:window-height="1018"
     id="namedview977"
     showgrid="false"
     inkscape:zoom="1"
     inkscape:cx="-74.211959"
     inkscape:cy="21.9995"
     inkscape:window-x="1912"
     inkscape:window-y="-8"
     inkscape:window-maximized="1"
     inkscape:current-layer="svg975" />
  <title
     id="title899">C0_studium</title>
  <g
     transform="translate(4.38664,3.0885925)"
     id="teach"
     style="isolation:isolate">
    <g
       style="isolation:isolate"
       id="g940">
      <path
         inkscape:connector-curvature="0"
         d="M 5.2,25.691 A 2.547,2.547 0 0 1 3.317,25.018 2.823,2.823 0 0 1 2.645,22.942 v -8.16 H 0.924 A 0.32,0.32 0 0 1 0.708,14.71 0.251,0.251 0 0 1 0.624,14.51 V 14.067 L 2.664,13.922 2.949,9.65 A 0.329,0.329 0 0 1 3.038,9.458 0.266,0.266 0 0 1 3.245,9.374 h 0.534 v 4.56 h 3.757 v 0.852 H 3.779 v 8.1 a 2.54,2.54 0 0 0 0.126,0.847 1.584,1.584 0 0 0 0.349,0.581 1.363,1.363 0 0 0 0.521,0.337 1.929,1.929 0 0 0 0.649,0.107 1.983,1.983 0 0 0 0.744,-0.126 3.017,3.017 0 0 0 0.54,-0.276 3.677,3.677 0 0 0 0.372,-0.276 0.409,0.409 0 0 1 0.228,-0.126 0.26,0.26 0 0 1 0.192,0.12 l 0.312,0.5 A 3.32,3.32 0 0 1 6.653,25.383 3.606,3.606 0 0 1 5.2,25.691 Z"
         transform="translate(-0.624,-4.088)"
         id="path930" />
      <path
         inkscape:connector-curvature="0"
         d="m 15.239,13.366 a 4.914,4.914 0 0 1 1.866,0.348 4.178,4.178 0 0 1 1.489,1.015 4.663,4.663 0 0 1 0.984,1.637 6.526,6.526 0 0 1 0.354,2.232 0.6,0.6 0 0 1 -0.078,0.36 0.3,0.3 0 0 1 -0.246,0.1 h -8.617 v 0.228 a 8.1,8.1 0 0 0 0.313,2.364 4.858,4.858 0 0 0 0.887,1.71 3.67,3.67 0 0 0 1.393,1.04 4.618,4.618 0 0 0 1.823,0.348 5.464,5.464 0 0 0 1.561,-0.2 5.8,5.8 0 0 0 1.11,-0.444 6.037,6.037 0 0 0 0.714,-0.444 0.81,0.81 0 0 1 0.384,-0.2 0.278,0.278 0 0 1 0.24,0.12 l 0.312,0.384 a 3.277,3.277 0 0 1 -0.762,0.672 5.392,5.392 0 0 1 -1.057,0.534 7.611,7.611 0 0 1 -1.247,0.355 6.876,6.876 0 0 1 -1.339,0.132 5.694,5.694 0 0 1 -2.231,-0.426 4.75,4.75 0 0 1 -1.731,-1.243 5.71,5.71 0 0 1 -1.115,-2 8.508,8.508 0 0 1 -0.394,-2.706 7.379,7.379 0 0 1 0.366,-2.37 5.425,5.425 0 0 1 1.055,-1.872 4.828,4.828 0 0 1 1.693,-1.23 5.574,5.574 0 0 1 2.273,-0.444 z m 0.018,0.852 a 4.481,4.481 0 0 0 -1.653,0.288 3.606,3.606 0 0 0 -1.264,0.828 4.2,4.2 0 0 0 -0.863,1.3 5.867,5.867 0 0 0 -0.437,1.692 h 7.86 a 5.242,5.242 0 0 0 -0.263,-1.722 3.693,3.693 0 0 0 -0.742,-1.29 3.234,3.234 0 0 0 -1.151,-0.81 3.817,3.817 0 0 0 -1.487,-0.286 z"
         transform="translate(-0.624,-4.088)"
         id="path932" />
      <path
         inkscape:connector-curvature="0"
         d="m 30.863,25.5 a 0.412,0.412 0 0 1 -0.444,-0.336 l -0.168,-1.525 a 12.323,12.323 0 0 1 -0.978,0.864 5.873,5.873 0 0 1 -1.014,0.649 4.994,4.994 0 0 1 -1.14,0.4 6.111,6.111 0 0 1 -1.344,0.139 3.961,3.961 0 0 1 -1.188,-0.181 2.915,2.915 0 0 1 -1.02,-0.552 2.686,2.686 0 0 1 -0.713,-0.958 3.286,3.286 0 0 1 -0.271,-1.4 2.49,2.49 0 0 1 0.432,-1.4 3.566,3.566 0 0 1 1.35,-1.128 8.92,8.92 0 0 1 2.364,-0.768 20.559,20.559 0 0 1 3.471,-0.334 v -1.248 a 4,4 0 0 0 -0.714,-2.55 2.548,2.548 0 0 0 -2.118,-0.894 4,4 0 0 0 -1.47,0.24 5.206,5.206 0 0 0 -1.026,0.528 6.468,6.468 0 0 0 -0.684,0.528 0.741,0.741 0 0 1 -0.444,0.24 0.388,0.388 0 0 1 -0.36,-0.216 l -0.2,-0.348 a 6.939,6.939 0 0 1 1.968,-1.416 5.5,5.5 0 0 1 2.34,-0.48 4.269,4.269 0 0 1 1.68,0.306 3.1,3.1 0 0 1 1.194,0.876 3.83,3.83 0 0 1 0.714,1.38 6.351,6.351 0 0 1 0.24,1.806 V 25.5 Z m -4.8,-0.636 a 5.068,5.068 0 0 0 1.278,-0.151 4.69,4.69 0 0 0 1.08,-0.42 5.273,5.273 0 0 0 0.93,-0.642 q 0.432,-0.372 0.852,-0.8 V 19.738 A 21.4,21.4 0 0 0 27.27,20 a 8.453,8.453 0 0 0 -2.029,0.57 2.974,2.974 0 0 0 -1.176,0.858 1.825,1.825 0 0 0 -0.377,1.134 2.5,2.5 0 0 0 0.2,1.038 1.993,1.993 0 0 0 1.278,1.135 3.063,3.063 0 0 0 0.897,0.128 z"
         transform="translate(-0.624,-4.088)"
         id="path934" />
      <path
         inkscape:connector-curvature="0"
         d="m 43.02,15.154 a 1.226,1.226 0 0 1 -0.115,0.1 0.239,0.239 0 0 1 -0.15,0.042 0.626,0.626 0 0 1 -0.33,-0.162 4.454,4.454 0 0 0 -0.558,-0.354 4.706,4.706 0 0 0 -0.87,-0.354 4.863,4.863 0 0 0 -3.1,0.2 3.635,3.635 0 0 0 -1.344,1.05 4.813,4.813 0 0 0 -0.834,1.656 7.682,7.682 0 0 0 -0.287,2.184 7.72,7.72 0 0 0 0.293,2.232 4.754,4.754 0 0 0 0.834,1.638 3.564,3.564 0 0 0 1.308,1.015 4.1,4.1 0 0 0 1.7,0.347 4.389,4.389 0 0 0 1.446,-0.2 4.608,4.608 0 0 0 0.96,-0.444 4.328,4.328 0 0 0 0.6,-0.444 0.62,0.62 0 0 1 0.355,-0.2 0.275,0.275 0 0 1 0.239,0.12 l 0.312,0.384 a 3.49,3.49 0 0 1 -0.7,0.672 4.672,4.672 0 0 1 -0.948,0.54 5.747,5.747 0 0 1 -1.146,0.355 6.444,6.444 0 0 1 -1.29,0.126 5.132,5.132 0 0 1 -2.082,-0.414 4.516,4.516 0 0 1 -1.62,-1.2 5.605,5.605 0 0 1 -1.056,-1.926 8.22,8.22 0 0 1 -0.378,-2.592 8.179,8.179 0 0 1 0.36,-2.5 5.616,5.616 0 0 1 1.05,-1.944 4.712,4.712 0 0 1 1.692,-1.266 5.556,5.556 0 0 1 2.3,-0.45 5.412,5.412 0 0 1 2.07,0.372 5.074,5.074 0 0 1 1.578,1.008 z"
         transform="translate(-0.624,-4.088)"
         id="path936" />
      <path
         inkscape:connector-curvature="0"
         d="M 46.318,25.5 V 8.038 h 1.141 V 15.6 a 6.719,6.719 0 0 1 1.89,-1.626 4.719,4.719 0 0 1 2.381,-0.606 4.488,4.488 0 0 1 1.735,0.312 3.194,3.194 0 0 1 1.242,0.9 3.984,3.984 0 0 1 0.744,1.416 6.424,6.424 0 0 1 0.252,1.872 V 25.5 h -1.14 v -7.634 a 4.09,4.09 0 0 0 -0.768,-2.634 2.841,2.841 0 0 0 -2.353,-0.954 4.16,4.16 0 0 0 -2.183,0.606 6.331,6.331 0 0 0 -1.8,1.662 V 25.5 Z"
         transform="translate(-0.624,-4.088)"
         id="path938" />
    </g>
  </g>
  <g
     transform="translate(4.38664,3.0885925)"
     id="UOS"
     style="fill:#3965a8;fill-opacity:1">
    <g
       style="isolation:isolate;fill:#3965a8;fill-opacity:1"
       id="g949">
      <path
         style="fill:#3965a8;fill-opacity:1"
         inkscape:connector-curvature="0"
         d="m 70.616,23.384 a 4.958,4.958 0 0 0 1.944,-0.36 3.94,3.94 0 0 0 1.448,-1.032 4.57,4.57 0 0 0 0.9,-1.639 7.168,7.168 0 0 0 0.312,-2.2 V 4.345 h 5.408 v 13.807 a 10.8,10.8 0 0 1 -0.7,3.936 8.8,8.8 0 0 1 -1.993,3.087 8.981,8.981 0 0 1 -3.151,2.017 12.517,12.517 0 0 1 -8.368,0 9.007,9.007 0 0 1 -3.153,-2.017 8.723,8.723 0 0 1 -1.983,-3.087 10.883,10.883 0 0 1 -0.688,-3.936 V 4.345 H 66 v 13.792 a 7.156,7.156 0 0 0 0.311,2.2 4.641,4.641 0 0 0 0.905,1.648 3.875,3.875 0 0 0 1.448,1.04 4.955,4.955 0 0 0 1.952,0.359 z"
         transform="translate(-0.624,-4.088)"
         id="path943-3" />
      <path
         style="fill:#3965a8;fill-opacity:1"
         inkscape:connector-curvature="0"
         d="m 105.88,15.992 a 12.53,12.53 0 0 1 -0.872,4.7 A 11.117,11.117 0 0 1 98.736,27 13.922,13.922 0 0 1 88.824,27 11.127,11.127 0 0 1 82.524,20.7 12.511,12.511 0 0 1 81.652,16 12.518,12.518 0 0 1 82.524,11.3 11.185,11.185 0 0 1 84.988,7.525 11.365,11.365 0 0 1 88.824,5 a 13.057,13.057 0 0 1 4.96,-0.912 12.885,12.885 0 0 1 4.952,0.92 11.442,11.442 0 0 1 3.816,2.52 11.264,11.264 0 0 1 2.456,3.777 12.483,12.483 0 0 1 0.872,4.687 z m -5.536,0 A 10.1,10.1 0 0 0 99.9,12.88 6.588,6.588 0 0 0 98.611,10.536 5.545,5.545 0 0 0 96.556,9.064 7.086,7.086 0 0 0 93.788,8.553 a 7.184,7.184 0 0 0 -2.792,0.511 5.537,5.537 0 0 0 -2.064,1.472 6.586,6.586 0 0 0 -1.292,2.344 10.071,10.071 0 0 0 -0.448,3.112 10.126,10.126 0 0 0 0.448,3.128 6.578,6.578 0 0 0 1.288,2.344 5.476,5.476 0 0 0 2.064,1.465 7.278,7.278 0 0 0 2.792,0.5 7.178,7.178 0 0 0 2.768,-0.5 5.483,5.483 0 0 0 2.055,-1.465 6.579,6.579 0 0 0 1.293,-2.344 10.156,10.156 0 0 0 0.444,-3.128 z"
         transform="translate(-0.624,-4.088)"
         id="path945-9" />
      <path
         style="fill:#3965a8;fill-opacity:1"
         inkscape:connector-curvature="0"
         d="m 120.184,9.08 a 2.062,2.062 0 0 1 -0.5,0.576 1.134,1.134 0 0 1 -0.681,0.193 1.661,1.661 0 0 1 -0.792,-0.233 c -0.282,-0.154 -0.6,-0.328 -0.96,-0.519 a 7.914,7.914 0 0 0 -1.224,-0.521 4.917,4.917 0 0 0 -1.568,-0.231 3.38,3.38 0 0 0 -2.264,0.647 2.2,2.2 0 0 0 -0.744,1.752 1.612,1.612 0 0 0 0.449,1.168 3.829,3.829 0 0 0 1.175,0.8 12.408,12.408 0 0 0 1.664,0.616 q 0.936,0.281 1.912,0.624 a 17.276,17.276 0 0 1 1.913,0.808 6.4,6.4 0 0 1 1.664,1.184 5.535,5.535 0 0 1 1.172,1.756 6.244,6.244 0 0 1 0.449,2.489 8.108,8.108 0 0 1 -0.561,3.023 7.08,7.08 0 0 1 -1.624,2.456 7.53,7.53 0 0 1 -2.624,1.648 9.841,9.841 0 0 1 -3.544,0.6 11.388,11.388 0 0 1 -2.216,-0.224 13.089,13.089 0 0 1 -2.183,-0.632 12.593,12.593 0 0 1 -1.985,-0.969 8.4,8.4 0 0 1 -1.616,-1.248 l 1.6,-2.526 a 1.289,1.289 0 0 1 0.495,-0.464 1.4,1.4 0 0 1 0.688,-0.177 1.808,1.808 0 0 1 0.968,0.3 q 0.487,0.3 1.105,0.671 a 8.773,8.773 0 0 0 1.416,0.672 5.3,5.3 0 0 0 1.887,0.3 3.6,3.6 0 0 0 2.288,-0.647 2.47,2.47 0 0 0 0.816,-2.057 1.952,1.952 0 0 0 -0.447,-1.328 3.476,3.476 0 0 0 -1.177,-0.848 10.993,10.993 0 0 0 -1.656,-0.592 q -0.928,-0.256 -1.9,-0.568 a 13.981,13.981 0 0 1 -1.9,-0.768 5.989,5.989 0 0 1 -1.655,-1.2 5.589,5.589 0 0 1 -1.177,-1.856 7.361,7.361 0 0 1 -0.447,-2.743 6.513,6.513 0 0 1 0.527,-2.561 6.6,6.6 0 0 1 1.553,-2.224 7.631,7.631 0 0 1 2.511,-1.56 9.29,9.29 0 0 1 3.409,-0.584 12.891,12.891 0 0 1 2.087,0.168 11.043,11.043 0 0 1 1.928,0.5 10.577,10.577 0 0 1 1.7,0.784 7.87,7.87 0 0 1 1.416,1.032 z"
         transform="translate(-0.624,-4.088)"
         id="path947-5" />
    </g>
  </g>
  <g
     aria-label="IN DIE PRAXIS"
     style="font-style:normal;font-weight:normal;font-size:40px;line-height:1.25;font-family:sans-serif;letter-spacing:0px;word-spacing:0px;fill:#3965a8;fill-opacity:1;stroke:none"
     id="text1121">
    <path
       d="m 64.666665,42.666664 h -0.686666 v -9.433333 h 0.686666 z"
       style="font-style:normal;font-variant:normal;font-weight:300;font-stretch:normal;font-size:13.33333302px;font-family:Lato;-inkscape-font-specification:'Lato Light';fill:#3965a8;fill-opacity:1"
       id="path10746" />
    <path
       d="m 68.05104,33.233331 q 0.09333,0 0.146667,0.02667 0.05333,0.02 0.113333,0.1 l 6.106667,8.173333 q -0.02,-0.2 -0.02,-0.386667 v -7.913333 h 0.6 v 9.433333 H 74.67104 q -0.153333,0 -0.246666,-0.133333 L 68.29104,34.346664 q 0.02,0.2 0.02,0.38 v 7.94 h -0.593333 v -9.433333 h 0.333333 z"
       style="font-style:normal;font-variant:normal;font-weight:300;font-stretch:normal;font-size:13.33333302px;font-family:Lato;-inkscape-font-specification:'Lato Light';fill:#3965a8;fill-opacity:1"
       id="path10748" />
    <path
       d="m 88.313957,37.946664 q 0,1.093334 -0.326667,1.966667 -0.326666,0.873333 -0.92,1.486666 -0.593333,0.613334 -1.42,0.94 -0.826666,0.326667 -1.833333,0.326667 h -3.44 v -9.433333 h 3.44 q 1.006667,0 1.833333,0.326667 0.826667,0.326666 1.42,0.94 0.593334,0.613333 0.92,1.486666 0.326667,0.873334 0.326667,1.96 z m -0.706667,0 q 0,-0.986666 -0.273333,-1.76 -0.273333,-0.773333 -0.773333,-1.306666 -0.493334,-0.533334 -1.193334,-0.813334 -0.7,-0.28 -1.553333,-0.28 h -2.753333 v 8.326667 h 2.753333 q 0.853333,0 1.553333,-0.28 0.7,-0.28 1.193334,-0.813334 0.5,-0.533333 0.773333,-1.306666 0.273333,-0.773333 0.273333,-1.766667 z"
       style="font-style:normal;font-variant:normal;font-weight:300;font-stretch:normal;font-size:13.33333302px;font-family:Lato;-inkscape-font-specification:'Lato Light';fill:#3965a8;fill-opacity:1"
       id="path10750" />
    <path
       d="m 91.437497,42.666664 h -0.686666 v -9.433333 h 0.686666 z"
       style="font-style:normal;font-variant:normal;font-weight:300;font-stretch:normal;font-size:13.33333302px;font-family:Lato;-inkscape-font-specification:'Lato Light';fill:#3965a8;fill-opacity:1"
       id="path10752" />
    <path
       d="m 100.14187,33.233331 v 0.566667 h -4.966664 v 3.813333 h 4.133333 v 0.553333 h -4.133333 v 3.933333 h 4.966664 v 0.566667 h -5.653331 v -9.433333 z"
       style="font-style:normal;font-variant:normal;font-weight:300;font-stretch:normal;font-size:13.33333302px;font-family:Lato;-inkscape-font-specification:'Lato Light';fill:#3965a8;fill-opacity:1"
       id="path10754" />
    <path
       d="m 105.83729,38.866664 v 3.8 h -0.68 v -9.433333 h 2.43333 q 1.66,0 2.5,0.726667 0.84667,0.726666 0.84667,2.073333 0,0.62 -0.23333,1.14 -0.22667,0.52 -0.66,0.9 -0.43334,0.373333 -1.05334,0.586667 -0.62,0.206666 -1.4,0.206666 z m 0,-0.546666 h 1.75333 q 0.62667,0 1.12,-0.173334 0.49334,-0.173333 0.83334,-0.48 0.34666,-0.306666 0.52666,-0.72 0.18667,-0.42 0.18667,-0.913333 0,-1.086667 -0.67333,-1.673333 -0.66667,-0.586667 -1.99334,-0.586667 h -1.75333 z"
       style="font-style:normal;font-variant:normal;font-weight:300;font-stretch:normal;font-size:13.33333302px;font-family:Lato;-inkscape-font-specification:'Lato Light';fill:#3965a8;fill-opacity:1"
       id="path10756" />
    <path
       d="m 113.75396,38.399998 v 4.266666 h -0.68 v -9.433333 h 2.40666 q 1.63334,0 2.44,0.633333 0.80667,0.626667 0.80667,1.846667 0,0.54 -0.18667,0.986667 -0.18666,0.446666 -0.54,0.786666 -0.34666,0.333334 -0.84,0.553334 -0.49333,0.213333 -1.11333,0.28 0.16,0.1 0.28667,0.266666 l 3.24666,4.08 h -0.59333 q -0.10667,0 -0.18667,-0.04 -0.0733,-0.04 -0.14666,-0.133333 l -3.02,-3.826667 q -0.11334,-0.146666 -0.24667,-0.206666 -0.12667,-0.06 -0.4,-0.06 z m 0,-0.506667 h 1.64 q 0.62666,0 1.12,-0.146667 0.5,-0.153333 0.84,-0.433333 0.34666,-0.28 0.52666,-0.673333 0.18,-0.393334 0.18,-0.886667 0,-1.006667 -0.66,-1.493333 -0.66,-0.486667 -1.92,-0.486667 h -1.72666 z"
       style="font-style:normal;font-variant:normal;font-weight:300;font-stretch:normal;font-size:13.33333302px;font-family:Lato;-inkscape-font-specification:'Lato Light';fill:#3965a8;fill-opacity:1"
       id="path10758" />
    <path
       d="m 128.38541,42.666664 h -0.52666 q -0.0933,0 -0.15334,-0.04667 -0.06,-0.05333 -0.0933,-0.133333 l -1.11333,-2.74 h -4.63334 l -1.10666,2.74 q -0.0267,0.07333 -0.0933,0.126667 -0.0667,0.05333 -0.16,0.05333 h -0.52 l 3.86,-9.433333 h 0.68 z m -6.31333,-3.426666 h 4.22667 l -1.92667,-4.766667 q -0.0467,-0.113333 -0.0933,-0.253333 -0.0467,-0.146667 -0.0933,-0.306667 -0.0467,0.16 -0.0933,0.306667 -0.0467,0.14 -0.0933,0.26 z"
       style="font-style:normal;font-variant:normal;font-weight:300;font-stretch:normal;font-size:13.33333302px;font-family:Lato;-inkscape-font-specification:'Lato Light';fill:#3965a8;fill-opacity:1"
       id="path10760" />
    <path
       d="m 131.99917,37.826664 -3.25334,-4.593333 h 0.67334 q 0.0933,0 0.13333,0.04 0.0467,0.04 0.08,0.09333 l 2.86667,4.133334 q 0.02,-0.05333 0.04,-0.1 0.0267,-0.05333 0.06,-0.106667 l 2.76666,-3.92 q 0.04,-0.05333 0.0867,-0.09333 0.0467,-0.04667 0.11333,-0.04667 h 0.65334 l -3.26,4.56 3.39333,4.873333 h -0.67333 q -0.0933,0 -0.14667,-0.05333 -0.0533,-0.06 -0.0867,-0.113334 l -2.97333,-4.346666 q -0.0267,0.1 -0.0933,0.193333 l -2.92,4.153333 q -0.0467,0.06 -0.10667,0.113334 -0.06,0.05333 -0.14,0.05333 h -0.62 z"
       style="font-style:normal;font-variant:normal;font-weight:300;font-stretch:normal;font-size:13.33333302px;font-family:Lato;-inkscape-font-specification:'Lato Light';fill:#3965a8;fill-opacity:1"
       id="path10762" />
    <path
       d="m 138.80729,42.666664 h -0.68667 v -9.433333 h 0.68667 z"
       style="font-style:normal;font-variant:normal;font-weight:300;font-stretch:normal;font-size:13.33333302px;font-family:Lato;-inkscape-font-specification:'Lato Light';fill:#3965a8;fill-opacity:1"
       id="path10764" />
    <path
       d="m 146.41833,34.379998 q -0.06,0.113333 -0.17333,0.113333 -0.0867,0 -0.22667,-0.12 -0.13333,-0.126667 -0.36666,-0.273333 -0.23334,-0.153334 -0.58667,-0.28 -0.34667,-0.126667 -0.86,-0.126667 -0.51333,0 -0.90667,0.146667 -0.38666,0.146666 -0.65333,0.4 -0.26,0.253333 -0.4,0.586666 -0.13333,0.333334 -0.13333,0.7 0,0.48 0.2,0.793334 0.20666,0.313333 0.54,0.533333 0.33333,0.22 0.75333,0.373333 0.42667,0.146667 0.87333,0.293334 0.44667,0.146666 0.86667,0.326666 0.42667,0.173334 0.76,0.44 0.33333,0.266667 0.53333,0.66 0.20667,0.386667 0.20667,0.966667 0,0.593333 -0.20667,1.12 -0.2,0.52 -0.58666,0.906666 -0.38667,0.386667 -0.94667,0.613334 -0.56,0.22 -1.28,0.22 -0.93333,0 -1.60667,-0.326667 -0.67333,-0.333333 -1.18,-0.906667 l 0.18667,-0.293333 q 0.08,-0.1 0.18667,-0.1 0.06,0 0.15333,0.08 0.0933,0.08 0.22667,0.2 0.13333,0.113333 0.32,0.253333 0.18666,0.133334 0.43333,0.253334 0.24667,0.113333 0.56667,0.193333 0.32,0.08 0.72666,0.08 0.56,0 1,-0.166667 0.44,-0.173333 0.74,-0.466666 0.30667,-0.293334 0.46667,-0.693334 0.16,-0.406666 0.16,-0.866666 0,-0.5 -0.20667,-0.82 -0.2,-0.326667 -0.53333,-0.54 -0.33333,-0.22 -0.76,-0.366667 -0.42,-0.146666 -0.86667,-0.286666 -0.44666,-0.14 -0.87333,-0.313334 -0.42,-0.173333 -0.75333,-0.44 -0.33334,-0.273333 -0.54,-0.673333 -0.2,-0.406667 -0.2,-1.013333 0,-0.473334 0.18,-0.913334 0.18,-0.44 0.52666,-0.773333 0.34667,-0.34 0.85334,-0.54 0.51333,-0.206667 1.16666,-0.206667 0.73334,0 1.31334,0.233334 0.58666,0.233333 1.06666,0.713333 z"
       style="font-style:normal;font-variant:normal;font-weight:300;font-stretch:normal;font-size:13.33333302px;font-family:Lato;-inkscape-font-specification:'Lato Light';fill:#3965a8;fill-opacity:1"
       id="path10766" />
  </g>
</svg>
