<?xml version="1.0" encoding="UTF-8" standalone="no"?>
<svg
   xmlns:dc="http://purl.org/dc/elements/1.1/"
   xmlns:cc="http://creativecommons.org/ns#"
   xmlns:rdf="http://www.w3.org/1999/02/22-rdf-syntax-ns#"
   xmlns:svg="http://www.w3.org/2000/svg"
   xmlns="http://www.w3.org/2000/svg"
   xmlns:xlink="http://www.w3.org/1999/xlink"
   xmlns:sodipodi="http://sodipodi.sourceforge.net/DTD/sodipodi-0.dtd"
   xmlns:inkscape="http://www.inkscape.org/namespaces/inkscape"
   viewBox="0 0 99.6 89"
   version="1.1"
   id="svg1361"
   sodipodi:docname="D7_prof.svg"
   inkscape:version="0.92.4 (5da689c313, 2019-01-14)">
  <metadata
     id="metadata1365">
    <rdf:RDF>
      <cc:Work
         rdf:about="">
        <dc:format>image/svg+xml</dc:format>
        <dc:type
           rdf:resource="http://purl.org/dc/dcmitype/StillImage" />
        <dc:title>C1_faq</dc:title>
      </cc:Work>
    </rdf:RDF>
  </metadata>
  <sodipodi:namedview
     pagecolor="#ffffff"
     bordercolor="#666666"
     borderopacity="1"
     objecttolerance="10"
     gridtolerance="10"
     guidetolerance="10"
     inkscape:pageopacity="0"
     inkscape:pageshadow="2"
     inkscape:window-width="1920"
     inkscape:window-height="1018"
     id="namedview1363"
     showgrid="false"
     inkscape:zoom="1"
     inkscape:cx="-20.300003"
     inkscape:cy="44.5"
     inkscape:window-x="1912"
     inkscape:window-y="-8"
     inkscape:window-maximized="1"
     inkscape:current-layer="svg1361" />
  <defs
     id="defs1103">
    <clipPath
       id="clip-path"
       transform="translate(0.05)">
      <rect
         x="3.193"
         y="3.073"
         width="92.076"
         height="79.376"
         rx="7.091"
         fill="none"
         id="rect1091" />
    </clipPath>
    <clipPath
       id="clip-path-2"
       transform="translate(0.05)">
      <rect
         x="0.307"
         y="0.186"
         width="97.848"
         height="85.146"
         fill="none"
         id="rect1094" />
    </clipPath>
    <clipPath
       id="clip-path-4"
       transform="translate(0.05)">
      <rect
         x="2.893"
         y="3.07"
         width="92.076"
         height="79.376"
         rx="7.091"
         fill="none"
         id="rect1097" />
    </clipPath>
    <clipPath
       id="clip-path-5"
       transform="translate(0.05)">
      <rect
         x="0.007"
         y="0.183"
         width="97.848"
         height="85.146"
         fill="none"
         id="rect1100" />
    </clipPath>
    <linearGradient
       gradientTransform="matrix(0.80065364,0,0,0.80941636,0.26060764,-0.46404563)"
       inkscape:collect="always"
       xlink:href="#linearGradient1175-7"
       id="linearGradient1177"
       x1="103.59147"
       y1="88.713524"
       x2="13.732"
       y2="13.404"
       gradientUnits="userSpaceOnUse" />
    <clipPath
       id="clip-path-9"
       transform="translate(0.33)">
      <rect
         style="fill:none"
         x="3.1930001"
         y="3.073"
         width="92.075996"
         height="79.375999"
         rx="7.0910001"
         id="rect11685" />
    </clipPath>
    <clipPath
       id="clip-path-2-6"
       transform="translate(0.33)">
      <rect
         style="fill:none"
         x="0.30700001"
         y="0.186"
         width="97.848"
         height="85.146004"
         id="rect11688" />
    </clipPath>
    <clipPath
       id="clipPath2315"
       transform="translate(0.33)">
      <rect
         style="fill:none"
         x="0.30700001"
         y="0.186"
         width="97.848"
         height="85.146004"
         id="rect2313" />
    </clipPath>
    <clipPath
       id="clip-path-4-5"
       transform="translate(0.33)">
      <rect
         style="fill:none"
         x="2.8929999"
         y="3.0699999"
         width="92.075996"
         height="79.375999"
         rx="7.0910001"
         id="rect11691" />
    </clipPath>
    <clipPath
       id="clip-path-5-5"
       transform="translate(0.33)">
      <rect
         style="fill:none"
         x="0.0070000002"
         y="0.183"
         width="97.848"
         height="85.146004"
         id="rect11694" />
    </clipPath>
    <clipPath
       id="clipPath2323"
       transform="translate(0.33)">
      <rect
         style="fill:none"
         x="0.0070000002"
         y="0.183"
         width="97.848"
         height="85.146004"
         id="rect2321" />
    </clipPath>
    <linearGradient
       id="Unbenannter_Verlauf_7"
       data-name="Unbenannter Verlauf 7"
       x1="12.97"
       y1="17.229"
       x2="88.521004"
       y2="70.970001"
       gradientTransform="rotate(0.009,1548.077,743380.79)"
       gradientUnits="userSpaceOnUse">
      <stop
         offset="0.002"
         stop-color="#5c6cba"
         id="stop13422" />
      <stop
         offset="0.081"
         stop-color="#5767b6"
         id="stop13424" />
      <stop
         offset="0.389"
         stop-color="#4859aa"
         id="stop13426" />
      <stop
         offset="0.983"
         stop-color="#4253a2"
         id="stop13428" />
    </linearGradient>
    <clipPath
       id="clip-path-4-1"
       transform="translate(0.077)">
      <rect
         style="fill:none"
         x="3.217"
         y="3.0769999"
         width="92.768997"
         height="79.848999"
         rx="7.1440001"
         id="rect13416" />
    </clipPath>
    <clipPath
       id="clip-path-5-1"
       transform="translate(0.077)">
      <rect
         style="fill:none"
         x="0.30899999"
         y="0.17299999"
         width="98.584999"
         height="85.653"
         id="rect13419" />
    </clipPath>
    <clipPath
       id="clipPath3536"
       transform="translate(0.077)">
      <rect
         style="fill:none"
         x="0.30899999"
         y="0.17299999"
         width="98.584999"
         height="85.653"
         id="rect3534" />
    </clipPath>
    <clipPath
       id="clip-path-8"
       transform="translate(0.077)">
      <rect
         style="fill:none"
         x="2.915"
         y="3.0739999"
         width="92.768997"
         height="79.848999"
         rx="7.1440001"
         id="rect13410" />
    </clipPath>
    <clipPath
       id="clip-path-2-8"
       transform="translate(0.077)">
      <rect
         style="fill:none"
         x="0.0070000002"
         y="0.17"
         width="98.584999"
         height="85.653"
         id="rect13413" />
    </clipPath>
    <clipPath
       id="clipPath3544"
       transform="translate(0.077)">
      <rect
         style="fill:none"
         x="0.0070000002"
         y="0.17"
         width="98.584999"
         height="85.653"
         id="rect3542" />
    </clipPath>
    <linearGradient
       inkscape:collect="always"
       id="linearGradient1175-7">
      <stop
         style="stop-color:#4273be;stop-opacity:1"
         offset="0"
         id="stop1171" />
      <stop
         style="stop-color:#5e88c9;stop-opacity:1"
         offset="1"
         id="stop1173" />
    </linearGradient>
  </defs>
  <title
     id="title1105">C1_faq</title>
  <rect
     x="0.60000002"
     width="99"
     height="89"
     id="rect1107"
     y="0"
     style="isolation:isolate;fill:#ffffff" />
  <g
     id="g1213"
     style="opacity:0.3;isolation:isolate;mix-blend-mode:multiply"
     transform="matrix(0.98414881,0,0,0.98215347,1.5453956,1.5520417)">
    <path
       style="fill:#ffffff"
       inkscape:connector-curvature="0"
       id="path1109"
       transform="translate(0.05)"
       d="m 97.444,78.891 c 0,4.44 -3.984,8.044 -8.9,8.046 l -74.888,0.029 c -4.917,0 -8.9,-3.6 -8.9,-8.039 L 4.729,11.248 c 0,-4.444 3.98,-8.047 8.9,-8.048 L 88.517,3.17 c 4.913,0 8.9,3.6 8.9,8.042 z" />
    <path
       style="fill:#fefeff"
       inkscape:connector-curvature="0"
       id="path1111"
       transform="translate(0.05)"
       d="m 97.379,78.829 c 0,4.437 -3.982,8.038 -8.894,8.04 L 13.621,86.9 c -4.916,0 -8.9,-3.6 -8.9,-8.033 L 4.694,11.241 c 0,-4.438 3.94,-8.036 8.859,-8.045 l 74.9,-0.026 c 4.912,0 8.9,3.6 8.9,8.035 z" />
    <path
       style="fill:#fdfdff"
       inkscape:connector-curvature="0"
       id="path1113"
       transform="translate(0.05)"
       d="m 97.315,78.768 c 0,4.433 -3.981,8.031 -8.891,8.033 l -74.841,0.03 c -4.914,0 -8.9,-3.594 -8.9,-8.027 L 4.659,11.235 c 0,-4.432 3.9,-8.027 8.821,-8.042 L 88.391,3.17 c 4.91,0 8.9,3.592 8.9,8.029 z" />
    <path
       style="fill:#fcfcff"
       inkscape:connector-curvature="0"
       id="path1115"
       transform="translate(0.05)"
       d="m 97.251,78.707 c 0,4.429 -3.98,8.025 -8.889,8.026 l -74.817,0.03 c -4.913,0 -8.893,-3.591 -8.895,-8.02 L 4.623,11.228 c 0,-4.426 3.862,-8.016 8.784,-8.039 L 88.329,3.17 c 4.909,0 8.893,3.589 8.9,8.022 z" />
    <path
       style="fill:#fcfcff"
       inkscape:connector-curvature="0"
       id="path1117"
       transform="translate(0.05)"
       d="m 97.186,78.645 c 0,4.426 -3.979,8.019 -8.886,8.021 L 13.507,86.7 C 8.596,86.7 4.616,83.112 4.615,78.686 L 4.588,11.222 C 4.6,6.8 8.411,3.215 13.334,3.186 L 88.267,3.171 c 4.908,0 8.891,3.586 8.893,8.015 z" />
    <path
       style="fill:#fbfbff"
       inkscape:connector-curvature="0"
       id="path1119"
       transform="translate(0.05)"
       d="m 97.122,78.584 c 0,4.422 -3.978,8.012 -8.883,8.014 L 13.468,86.627 C 8.56,86.627 4.581,83.042 4.579,78.62 L 4.553,11.22 c 0.009,-4.415 3.783,-8 8.708,-8.033 L 88.206,3.176 c 4.906,0 8.888,3.583 8.889,8.008 z" />
    <path
       style="fill:#fafaff"
       inkscape:connector-curvature="0"
       id="path1121"
       transform="translate(0.05)"
       d="m 97.057,78.522 c 0,4.419 -3.976,8.006 -8.88,8.008 L 13.43,86.559 c -4.907,0 -8.884,-3.582 -8.886,-8 L 4.518,11.209 c 0.01,-4.41 3.744,-7.987 8.67,-8.03 L 88.144,3.171 c 4.9,0 8.885,3.58 8.887,8 z" />
    <path
       style="fill:#f9f9ff"
       inkscape:connector-curvature="0"
       id="path1123"
       transform="translate(0.05)"
       d="m 96.993,78.461 c 0,4.415 -3.975,8 -8.878,8 L 13.392,86.49 c -4.9,0 -8.881,-3.579 -8.883,-7.994 L 4.482,11.2 c 0.013,-4.4 3.7,-7.976 8.633,-8.027 h 74.968 c 4.9,0 8.882,3.577 8.883,8 z" />
    <path
       style="fill:#f8f8ff"
       inkscape:connector-curvature="0"
       id="path1125"
       transform="translate(0.05)"
       d="m 96.929,78.4 c 0,4.412 -3.974,7.993 -8.875,8 l -74.7,0.029 c -4.9,0 -8.879,-3.576 -8.88,-7.988 L 4.447,11.2 C 4.462,6.8 8.113,3.233 13.042,3.176 h 74.979 c 4.9,0 8.879,3.574 8.881,7.989 z" />
    <path
       style="fill:#f7f7fe"
       inkscape:connector-curvature="0"
       id="path1127"
       transform="translate(0.05)"
       d="m 96.864,78.338 c 0,4.408 -3.972,7.986 -8.872,7.988 l -74.676,0.029 c -4.9,0 -8.876,-3.573 -8.878,-7.981 L 4.412,11.189 C 4.429,6.8 8.038,3.232 12.969,3.168 h 74.99 c 4.9,0 8.877,3.571 8.879,7.982 z" />
    <path
       style="fill:#f7f7fe"
       inkscape:connector-curvature="0"
       id="path1129"
       transform="translate(0.05)"
       d="m 96.8,78.276 c 0,4.405 -3.971,7.98 -8.87,7.982 l -74.652,0.029 c -4.9,0 -8.873,-3.57 -8.875,-7.975 L 4.377,11.183 C 4.4,6.8 7.964,3.236 12.9,3.165 l 75,0.006 c 4.9,0 8.874,3.568 8.875,7.976 z" />
    <path
       style="fill:#f6f6fe"
       inkscape:connector-curvature="0"
       id="path1131"
       transform="translate(0.05)"
       d="m 96.735,78.215 c 0,4.4 -3.969,7.973 -8.866,7.975 L 13.24,86.219 c -4.9,0 -8.87,-3.567 -8.872,-7.968 L 4.342,11.176 C 4.363,6.796 7.889,3.239 12.823,3.161 l 75.013,0.01 c 4.9,0 8.871,3.565 8.873,7.969 z" />
    <path
       style="fill:#f5f5fe"
       inkscape:connector-curvature="0"
       id="path1133"
       transform="translate(0.05)"
       d="m 96.671,78.153 c 0,4.4 -3.969,7.967 -8.864,7.969 l -74.6,0.029 c -4.9,0 -8.868,-3.564 -8.869,-7.962 L 4.306,11.17 C 4.33,6.8 7.815,3.243 12.75,3.158 l 75.024,0.013 c 4.9,0 8.869,3.562 8.87,7.963 z" />
    <path
       style="fill:#f4f4fe"
       inkscape:connector-curvature="0"
       id="path1135"
       transform="translate(0.05)"
       d="m 96.606,78.092 c 0,4.394 -3.967,7.96 -8.861,7.962 l -74.581,0.029 c -4.9,0 -8.865,-3.561 -8.867,-7.955 L 4.271,11.163 C 4.3,6.794 7.74,3.246 12.677,3.154 l 75.036,0.017 c 4.894,0 8.865,3.56 8.867,7.957 z" />
    <path
       style="fill:#f3f3fe"
       inkscape:connector-curvature="0"
       id="path1137"
       transform="translate(0.05)"
       d="m 96.542,78.031 c 0,4.39 -3.966,7.953 -8.858,7.955 l -74.558,0.029 c -4.895,0 -8.862,-3.558 -8.864,-7.949 L 4.236,11.157 C 4.263,6.793 7.666,3.25 12.6,3.151 l 75.047,0.02 c 4.893,0 8.863,3.557 8.865,7.95 z" />
    <path
       style="fill:#f2f2fe"
       inkscape:connector-curvature="0"
       id="path1139"
       transform="translate(0.05)"
       d="m 96.478,77.969 c 0,4.387 -3.965,7.948 -8.856,7.949 l -74.535,0.029 c -4.892,0 -8.858,-3.555 -8.86,-7.942 L 4.2,11.15 c 0.029,-4.358 3.39,-7.9 8.33,-8 l 75.058,0.024 c 4.891,0 8.861,3.554 8.862,7.944 z" />
    <path
       style="fill:#f2f2fe"
       inkscape:connector-curvature="0"
       id="path1141"
       transform="translate(0.05)"
       d="m 96.413,77.908 c 0,4.383 -3.963,7.941 -8.853,7.942 l -74.511,0.029 c -4.89,0 -8.856,-3.552 -8.857,-7.936 l -0.027,-66.8 c 0.032,-4.352 3.352,-7.887 8.293,-8 l 75.07,0.027 c 4.889,0 8.857,3.551 8.859,7.937 z" />
    <path
       style="fill:#f1f1fe"
       inkscape:connector-curvature="0"
       id="path1143"
       transform="translate(0.05)"
       d="m 96.349,77.846 c 0,4.38 -3.962,7.935 -8.85,7.937 l -74.488,0.029 c -4.889,0 -8.853,-3.55 -8.855,-7.93 L 4.13,11.137 c 0.034,-4.346 3.312,-7.877 8.254,-8 l 75.082,0.031 c 4.888,0 8.855,3.548 8.857,7.931 z" />
    <path
       style="fill:#f0f0fe"
       inkscape:connector-curvature="0"
       id="path1145"
       transform="translate(0.05)"
       d="m 96.284,77.785 c 0,4.376 -3.96,7.928 -8.847,7.93 l -74.464,0.029 c -4.887,0 -8.85,-3.547 -8.852,-7.923 L 4.1,11.131 C 4.136,6.79 7.373,3.263 12.316,3.137 L 87.41,3.171 c 4.886,0 8.851,3.545 8.853,7.924 z" />
    <path
       style="fill:#efeffe"
       inkscape:connector-curvature="0"
       id="path1147"
       transform="translate(0.05)"
       d="m 96.22,77.723 c 0,4.373 -3.959,7.922 -8.845,7.924 l -74.44,0.029 c -4.886,0 -8.847,-3.544 -8.849,-7.917 L 4.06,11.124 C 4.1,6.789 7.293,3.267 12.238,3.133 l 75.105,0.038 c 4.885,0 8.849,3.542 8.851,7.918 z" />
    <path
       style="fill:#eeeefe"
       inkscape:connector-curvature="0"
       id="path1149"
       transform="translate(0.05)"
       d="m 96.156,77.662 c 0,4.369 -3.959,7.915 -8.842,7.917 L 12.9,85.608 c -4.884,0 -8.845,-3.541 -8.846,-7.91 L 4.028,11.118 a 7.945,7.945 0 0 1 8.14,-7.988 l 75.116,0.041 c 4.884,0 8.847,3.539 8.848,7.911 z" />
    <path
       style="fill:#ededfe"
       inkscape:connector-curvature="0"
       id="path1151"
       transform="translate(0.05)"
       d="m 96.091,77.6 c 0,4.366 -3.957,7.909 -8.839,7.911 L 12.859,85.54 c -4.883,0 -8.842,-3.538 -8.844,-7.9 L 3.989,11.111 a 7.919,7.919 0 0 1 8.1,-7.985 l 75.128,0.045 c 4.882,0 8.843,3.536 8.845,7.905 z" />
    <path
       style="fill:#ececfe"
       inkscape:connector-curvature="0"
       id="path1153"
       transform="translate(0.05)"
       d="m 96.027,77.539 c 0,4.362 -3.956,7.9 -8.837,7.9 l -74.369,0.029 c -4.881,0 -8.839,-3.535 -8.841,-7.9 L 3.954,11.098 a 7.891,7.891 0 0 1 8.065,-7.982 l 75.139,0.048 c 4.881,0 8.841,3.534 8.843,7.9 z" />
    <path
       style="fill:#ececfe"
       inkscape:connector-curvature="0"
       id="path1155"
       transform="translate(0.05)"
       d="m 95.962,77.478 c 0,4.358 -3.954,7.9 -8.833,7.9 L 12.783,85.4 c -4.88,0 -8.836,-3.532 -8.838,-7.891 L 3.919,11.1 a 7.864,7.864 0 0 1 8.027,-7.979 l 75.15,0.052 c 4.88,0 8.838,3.531 8.84,7.892 z" />
    <path
       style="fill:#ebebfe"
       inkscape:connector-curvature="0"
       id="path1157"
       transform="translate(0.05)"
       d="m 95.9,77.416 c 0,4.355 -3.953,7.889 -8.831,7.891 l -74.322,0.029 c -4.878,0 -8.834,-3.529 -8.835,-7.884 L 3.886,11.092 a 7.837,7.837 0 0 1 7.989,-7.976 l 75.162,0.055 c 4.877,0 8.835,3.528 8.837,7.885 z" />
    <path
       style="fill:#eaeafe"
       inkscape:connector-curvature="0"
       id="path1159"
       transform="translate(0.05)"
       d="m 95.834,77.355 c 0,4.351 -3.952,7.882 -8.829,7.884 l -74.3,0.029 c -4.876,0 -8.83,-3.526 -8.831,-7.878 L 3.848,11.085 A 7.812,7.812 0 0 1 11.8,3.112 l 75.173,0.059 c 4.876,0 8.833,3.525 8.834,7.879 z" />
    <path
       style="fill:#e9e9fd"
       inkscape:connector-curvature="0"
       id="path1161"
       transform="translate(0.05)"
       d="m 95.769,77.293 c 0,4.348 -3.95,7.876 -8.825,7.878 L 12.668,85.2 C 7.794,85.2 3.841,81.677 3.839,77.329 L 3.813,11.079 a 7.784,7.784 0 0 1 7.914,-7.97 l 75.184,0.062 c 4.875,0 8.83,3.522 8.832,7.872 z" />
    <path
       style="fill:#e8e8fd"
       inkscape:connector-curvature="0"
       id="path1163"
       transform="translate(0.05)"
       d="m 95.705,77.232 c 0,4.344 -3.95,7.869 -8.823,7.871 L 12.63,85.132 c -4.872,0 -8.824,-3.52 -8.826,-7.865 L 3.778,11.072 a 7.758,7.758 0 0 1 7.876,-7.967 l 75.2,0.066 c 4.873,0 8.827,3.519 8.829,7.866 z" />
    <path
       style="fill:#e7e7fd"
       inkscape:connector-curvature="0"
       id="path1165"
       transform="translate(0.05)"
       d="m 95.64,77.17 c 0,4.341 -3.948,7.864 -8.82,7.865 l -74.228,0.029 c -4.871,0 -8.822,-3.517 -8.823,-7.858 L 3.743,11.066 A 7.73,7.73 0 0 1 11.581,3.1 l 75.207,0.069 c 4.872,0 8.824,3.516 8.826,7.859 z" />
    <path
       style="fill:#e7e7fd"
       inkscape:connector-curvature="0"
       id="path1167"
       transform="translate(0.05)"
       d="m 95.576,77.109 c 0,4.337 -3.947,7.857 -8.817,7.859 L 12.554,85 C 7.685,85 3.735,81.486 3.734,77.148 L 3.707,11.059 a 7.7,7.7 0 0 1 7.8,-7.961 l 75.219,0.073 c 4.87,0 8.821,3.513 8.823,7.853 z" />
    <path
       style="fill:#e6e6fd"
       inkscape:connector-curvature="0"
       id="path1169"
       transform="translate(0.05)"
       d="m 95.511,77.047 c 0,4.334 -3.945,7.851 -8.814,7.853 L 12.516,84.928 C 7.648,84.928 3.7,81.417 3.698,77.083 L 3.672,11.053 A 7.678,7.678 0 0 1 11.435,3.1 l 75.23,0.076 c 4.869,0 8.819,3.51 8.82,7.846 z" />
    <path
       style="fill:#e5e5fd"
       inkscape:connector-curvature="0"
       id="path1171"
       transform="translate(0.05)"
       d="m 95.447,76.986 c 0,4.331 -3.944,7.844 -8.812,7.846 L 12.478,84.86 c -4.866,0 -8.813,-3.508 -8.815,-7.838 L 3.637,11.046 a 7.652,7.652 0 0 1 7.725,-7.955 l 75.241,0.08 c 4.868,0 8.816,3.508 8.818,7.84 z" />
    <path
       style="fill:#e4e4fd"
       inkscape:connector-curvature="0"
       id="path1173"
       transform="translate(0.05)"
       d="m 95.383,76.924 c 0,4.328 -3.943,7.838 -8.809,7.84 L 12.44,84.793 c -4.865,0 -8.811,-3.506 -8.812,-7.833 L 3.6,11.04 C 3.665,6.779 6.323,3.312 11.287,3.088 L 86.54,3.171 c 4.866,0 8.813,3.505 8.815,7.833 z" />
    <path
       style="fill:#e3e3fd"
       inkscape:connector-curvature="0"
       id="path1175"
       transform="translate(0.05)"
       d="m 95.318,76.863 c 0,4.324 -3.941,7.831 -8.806,7.833 l -74.11,0.029 c -4.863,0 -8.808,-3.5 -8.809,-7.826 L 3.567,11.033 C 3.634,6.778 6.251,3.315 11.216,3.084 L 86.48,3.171 c 4.865,0 8.811,3.5 8.812,7.827 z" />
    <path
       style="fill:#e2e2fd"
       inkscape:connector-curvature="0"
       id="path1177"
       transform="translate(0.05)"
       d="m 95.254,76.8 c 0,4.32 -3.94,7.824 -8.8,7.826 l -74.086,0.029 c -4.862,0 -8.8,-3.5 -8.807,-7.82 L 3.535,11.025 C 3.605,6.775 6.18,3.317 11.147,3.079 l 75.275,0.09 c 4.863,0 8.808,3.5 8.81,7.82 z" />
    <path
       style="fill:#e1e1fd"
       inkscape:connector-curvature="0"
       id="path1179"
       transform="translate(0.05)"
       d="m 95.189,76.74 c 0,4.317 -3.939,7.818 -8.8,7.82 l -74.063,0.029 c -4.86,0 -8.8,-3.5 -8.8,-7.813 L 3.5,11.02 C 3.571,6.777 6.106,3.32 11.074,3.077 l 75.287,0.094 c 4.861,0 8.805,3.5 8.806,7.814 z" />
    <path
       style="fill:#e1e1fd"
       inkscape:connector-curvature="0"
       id="path1181"
       transform="translate(0.05)"
       d="m 95.125,76.679 c 0,4.313 -3.938,7.811 -8.8,7.813 l -74.04,0.029 c -4.858,0 -8.8,-3.494 -8.8,-7.807 L 3.459,11.014 C 3.534,6.776 6.027,3.325 11,3.074 l 75.3,0.1 c 4.86,0 8.8,3.493 8.8,7.807 z" />
    <path
       style="fill:#e0e0fd"
       inkscape:connector-curvature="0"
       id="path1183"
       transform="translate(0.05)"
       d="m 95.061,76.617 c 0,4.31 -3.937,7.8 -8.8,7.807 l -74.017,0.029 c -4.856,0 -8.8,-3.491 -8.8,-7.8 L 3.426,11.007 C 3.501,6.775 5.953,3.329 10.926,3.07 l 75.309,0.1 c 4.859,0 8.8,3.49 8.8,7.8 z" />
    <path
       style="fill:#dfdffd"
       inkscape:connector-curvature="0"
       id="path1185"
       transform="translate(0.05)"
       d="m 95,76.556 c 0,4.306 -3.935,7.8 -8.792,7.8 l -73.993,0.029 c -4.854,0 -8.793,-3.488 -8.795,-7.794 L 3.39,11 C 3.468,6.773 5.878,3.331 10.851,3.066 l 75.321,0.1 c 4.857,0 8.8,3.487 8.8,7.794 z" />
    <path
       style="fill:#dedefd"
       inkscape:connector-curvature="0"
       id="path1187"
       transform="translate(0.05)"
       d="m 94.932,76.494 c 0,4.3 -3.934,7.792 -8.79,7.794 l -73.969,0.029 c -4.853,0 -8.79,-3.485 -8.792,-7.787 L 3.355,10.994 C 3.435,6.773 5.804,3.336 10.778,3.063 L 86.11,3.171 c 4.856,0 8.794,3.484 8.8,7.788 z" />
    <path
       style="fill:#ddddfd"
       inkscape:connector-curvature="0"
       id="path1189"
       transform="translate(0.05)"
       d="m 94.867,76.433 c 0,4.3 -3.932,7.786 -8.786,7.787 l -73.946,0.029 c -4.851,0 -8.787,-3.482 -8.789,-7.781 L 3.32,10.988 C 3.4,6.773 5.729,3.339 10.705,3.06 l 75.344,0.111 c 4.854,0 8.791,3.481 8.792,7.781 z" />
    <path
       style="fill:#dcdcfd"
       inkscape:connector-curvature="0"
       id="path1191"
       transform="translate(0.05)"
       d="m 94.8,76.371 c 0,4.3 -3.931,7.78 -8.784,7.781 L 12.1,84.181 c -4.85,0 -8.785,-3.479 -8.786,-7.774 L 3.285,10.981 C 3.369,6.772 5.655,3.343 10.632,3.056 l 75.355,0.115 c 4.853,0 8.788,3.479 8.79,7.775 z" />
    <path
       style="fill:#dcdcfd"
       inkscape:connector-curvature="0"
       id="path1193"
       transform="translate(0.05)"
       d="m 94.739,76.31 c 0,4.292 -3.93,7.773 -8.782,7.775 l -73.9,0.028 c -4.848,0 -8.782,-3.476 -8.784,-7.768 L 3.247,10.975 c 0.086,-4.2 2.331,-7.629 7.31,-7.922 l 75.366,0.118 c 4.852,0 8.786,3.476 8.788,7.768 z" />
    <path
       style="fill:#dbdbfc"
       inkscape:connector-curvature="0"
       id="path1195"
       transform="translate(0.05)"
       d="m 94.674,76.248 c 0,4.289 -3.929,7.767 -8.778,7.769 l -73.875,0.028 c -4.847,0 -8.779,-3.473 -8.781,-7.761 L 3.214,10.968 C 3.3,6.77 5.506,3.35 10.486,3.049 l 75.378,0.122 c 4.849,0 8.783,3.473 8.784,7.762 z" />
    <path
       style="fill:#dadafc"
       inkscape:connector-curvature="0"
       id="path1197"
       transform="translate(0.05)"
       d="m 94.61,76.187 c 0,4.285 -3.928,7.76 -8.776,7.762 l -73.851,0.028 c -4.845,0 -8.776,-3.47 -8.778,-7.755 L 3.179,10.962 C 3.269,6.77 5.431,3.353 10.413,3.046 L 85.8,3.171 c 4.848,0 8.78,3.47 8.782,7.755 z" />
    <path
       style="fill:#d9d9fc"
       inkscape:connector-curvature="0"
       id="path1199"
       transform="translate(0.05)"
       d="m 94.545,76.126 c 0,4.281 -3.926,7.753 -8.773,7.755 l -73.827,0.028 c -4.844,0 -8.774,-3.467 -8.775,-7.748 L 3.144,10.955 c 0.092,-4.186 2.213,-7.6 7.2,-7.913 l 75.4,0.129 c 4.847,0 8.778,3.467 8.78,7.749 z" />
    <path
       style="fill:#d8d8fc"
       inkscape:connector-curvature="0"
       id="path1201"
       transform="translate(0.05)"
       d="m 94.481,76.064 c 0,4.278 -3.925,7.747 -8.77,7.749 l -73.8,0.028 C 7.07,83.841 3.141,80.377 3.139,76.1 L 3.109,10.949 C 3.2,6.768 5.282,3.36 10.267,3.039 l 75.412,0.132 c 4.845,0 8.774,3.464 8.776,7.742 z" />
    <path
       style="fill:#d7d7fc"
       inkscape:connector-curvature="0"
       id="path1203"
       transform="translate(0.05)"
       d="m 94.416,76 c 0,4.274 -3.923,7.74 -8.767,7.742 l -73.781,0.029 c -4.84,0 -8.767,-3.462 -8.769,-7.736 L 3.073,10.935 C 3.173,6.76 5.208,3.356 10.194,3.028 l 75.423,0.136 c 4.844,0 8.772,3.461 8.774,7.736 z" />
    <path
       style="fill:#d7d7fc"
       inkscape:connector-curvature="0"
       id="path1205"
       transform="translate(0.05)"
       d="m 94.352,75.941 c 0,4.271 -3.922,7.734 -8.765,7.736 L 11.83,83.706 c -4.838,0 -8.764,-3.459 -8.766,-7.729 L 3.038,10.936 c 0.1,-4.17 2.1,-7.569 7.083,-7.9 l 75.434,0.139 c 4.843,0 8.77,3.458 8.771,7.729 z" />
    <path
       style="fill:#d6d6fc"
       inkscape:connector-curvature="0"
       id="path1207"
       transform="translate(0.05)"
       d="m 94.288,75.88 c 0,4.267 -3.921,7.727 -8.762,7.729 l -73.734,0.029 c -4.836,0 -8.762,-3.456 -8.763,-7.723 L 3,10.929 C 3.1,6.766 5.056,3.37 10.045,3.029 l 75.446,0.143 c 4.841,0 8.766,3.455 8.768,7.723 z" />
    <path
       style="fill:#d5d5fc"
       inkscape:connector-curvature="0"
       id="path1209"
       transform="translate(0.05)"
       d="m 94.223,75.818 c 0,4.264 -3.92,7.721 -8.759,7.723 l -73.71,0.029 c -4.835,0 -8.759,-3.453 -8.761,-7.716 L 2.968,10.923 c 0.1,-4.158 2.016,-7.549 7.007,-7.9 l 75.457,0.146 c 4.84,0 8.764,3.453 8.766,7.716 z" />
    <path
       style="opacity:0.3;fill:#d4d4fc"
       inkscape:connector-curvature="0"
       id="path1211"
       transform="translate(0.05)"
       d="m 94.159,75.757 c 0,4.26 -3.919,7.714 -8.757,7.716 L 11.716,83.5 C 6.883,83.5 2.96,80.05 2.958,75.79 L 2.932,10.916 C 3.037,6.764 4.91,3.377 9.9,3.021 l 75.47,0.15 c 4.838,0 8.76,3.45 8.762,7.71 z" />
  </g>
  <rect
     x="3.4360104"
     y="2.7266736"
     width="91.373001"
     height="79.632004"
     rx="7.0361447"
     id="rect9337"
     style="opacity:1;isolation:isolate;fill:url(#linearGradient1177);fill-opacity:1.0;stroke-width:0.80502313" />
  <g
     transform="translate(0.006114,0.69443)"
     style="isolation:isolate"
     id="g20591">
    <path
       d="m 28.5,24.987 h 0.129 a 0.459,0.459 0 0 1 0.252,0.1 0.321,0.321 0 0 1 0.147,0.278 0.866,0.866 0 0 1 -0.123,0.516 1.917,1.917 0 0 1 -0.4,0.363 0.848,0.848 0 0 1 -0.383,0.2 0.512,0.512 0 0 1 -0.363,-0.112 q -0.117,-0.111 -0.117,-0.609 a 1.555,1.555 0 0 1 0.053,-0.551 0.389,0.389 0 0 1 0.254,-0.137 2.4,2.4 0 0 1 0.551,-0.048 z"
       transform="translate(0.228)"
       stroke-miterlimit="10"
       id="path20543"
       inkscape:connector-curvature="0"
       style="fill:#ffffff;stroke:#ffffff;stroke-width:0.5;stroke-miterlimit:10" />
    <path
       d="m 31.509,24.987 h 0.129 a 0.465,0.465 0 0 1 0.252,0.1 0.321,0.321 0 0 1 0.147,0.278 0.866,0.866 0 0 1 -0.123,0.516 1.944,1.944 0 0 1 -0.4,0.363 0.857,0.857 0 0 1 -0.383,0.2 0.512,0.512 0 0 1 -0.363,-0.111 q -0.117,-0.111 -0.117,-0.609 a 1.566,1.566 0 0 1 0.052,-0.551 0.4,0.4 0 0 1 0.254,-0.138 2.412,2.412 0 0 1 0.552,-0.048 z"
       transform="translate(0.228)"
       stroke-miterlimit="10"
       id="path20545"
       inkscape:connector-curvature="0"
       style="fill:#ffffff;stroke:#ffffff;stroke-width:0.5;stroke-miterlimit:10" />
    <path
       d="m 38.1,21.971 q -0.544,0.012 -2.332,3.228 a 11.043,11.043 0 0 1 -0.7,1.181 0.919,0.919 0 0 1 -0.367,0.173 1.665,1.665 0 0 1 -0.442,0.076 q -0.391,0 -0.392,-1.53 a 23.083,23.083 0 0 1 0.369,-3.117 9.188,9.188 0 0 0 0.152,-1.306 q 0,-0.387 0.346,-0.387 0.65,0 0.65,0.938 a 12.815,12.815 0 0 1 -0.217,1.722 q -0.252,1.465 -0.257,1.781 a 8.444,8.444 0 0 0 1.066,-1.541 11.452,11.452 0 0 1 1.468,-2.065 1.432,1.432 0 0 1 0.975,-0.436 c 0.254,0 0.457,0.169 0.607,0.509 a 8.291,8.291 0 0 1 0.272,2.432 2.7,2.7 0 0 0 0.088,0.715 c 0.051,0.156 0.088,0.234 0.112,0.234 q 0.274,0 1.2,-1.874 a 6.778,6.778 0 0 1 0.958,-1.506 1.374,1.374 0 0 1 1.034,-0.515 0.721,0.721 0 0 1 0.691,0.489 4.933,4.933 0 0 1 0.311,1.45 13.715,13.715 0 0 0 0.271,1.781 1.39,1.39 0 0 0 0.678,1.037 q 0.334,0.159 0.334,0.37 A 0.58,0.58 0 0 1 44.694,26.231 0.871,0.871 0 0 1 44.178,26.448 1.029,1.029 0 0 1 43.34,25.874 6.553,6.553 0 0 1 42.784,23.39 10.313,10.313 0 0 0 42.626,22.3 c -0.051,-0.215 -0.131,-0.322 -0.241,-0.322 q -0.246,0 -0.583,0.468 a 19.057,19.057 0 0 0 -1.087,1.9 10.293,10.293 0 0 1 -0.888,1.49 0.81,0.81 0 0 1 -0.582,0.372 0.615,0.615 0 0 1 -0.451,-0.2 0.913,0.913 0 0 1 -0.252,-0.487 q -0.054,-0.284 -0.112,-1.4 a 5.655,5.655 0 0 0 -0.33,-2.15 z"
       transform="translate(0.228)"
       stroke-miterlimit="10"
       id="path20547"
       inkscape:connector-curvature="0"
       style="fill:#ffffff;stroke:#ffffff;stroke-width:0.5;stroke-miterlimit:10" />
    <path
       d="m 51.027,24.621 q 0,0.6 -1.059,1.442 a 3.465,3.465 0 0 1 -2.181,0.843 1.881,1.881 0 0 1 -1.457,-0.556 2.21,2.21 0 0 1 -0.512,-1.554 5.238,5.238 0 0 1 1.131,-3.187 3.147,3.147 0 0 1 2.472,-1.509 0.964,0.964 0 0 1 1,0.978 2.382,2.382 0 0 1 -0.884,1.729 11.393,11.393 0 0 1 -2.368,1.623 0.467,0.467 0 0 0 -0.3,0.41 1.079,1.079 0 0 0 0.281,0.779 1.1,1.1 0 0 0 0.832,0.293 3.667,3.667 0 0 0 2.572,-1.394 c 0.129,-0.129 0.227,-0.194 0.293,-0.194 0.117,-0.002 0.18,0.098 0.18,0.297 z m -4.072,-0.914 q 2.484,-1.476 2.484,-2.373 c 0,-0.234 -0.106,-0.352 -0.317,-0.352 a 1.8,1.8 0 0 0 -1.215,0.791 4.565,4.565 0 0 0 -0.952,1.934 z"
       transform="translate(0.228)"
       stroke-miterlimit="10"
       id="path20549"
       inkscape:connector-curvature="0"
       style="fill:#ffffff;stroke:#ffffff;stroke-width:0.5;stroke-miterlimit:10" />
    <path
       d="m 53.371,25.308 a 4.7,4.7 0 0 0 0.123,1 0.867,0.867 0 0 1 0.023,0.175 c 0,0.071 -0.064,0.161 -0.193,0.273 a 0.621,0.621 0 0 1 -0.41,0.167 q -0.569,0 -0.569,-1.043 a 20.534,20.534 0 0 1 0.445,-3.41 8.171,8.171 0 0 0 0.153,-1 1.357,1.357 0 0 1 0.135,-0.63 0.415,0.415 0 0 1 0.38,-0.261 0.716,0.716 0 0 1 0.473,0.144 0.411,0.411 0 0 1 0.172,0.319 1.77,1.77 0 0 1 -0.082,0.463 21.665,21.665 0 0 0 -0.545,2.215 10.376,10.376 0 0 0 -0.105,1.588 z m 0.767,-6.545 c -0.082,0 -0.144,-0.088 -0.187,-0.264 a 1.709,1.709 0 0 0 -0.065,-0.182 1.775,1.775 0 0 1 -0.157,-0.662 0.667,0.667 0 0 1 0.278,-0.477 0.919,0.919 0 0 1 0.618,-0.243 0.74,0.74 0 0 1 0.381,0.131 c 0.141,0.088 0.211,0.173 0.211,0.255 a 2.642,2.642 0 0 1 -0.143,0.657 0.984,0.984 0 0 1 -0.457,0.624 1.193,1.193 0 0 1 -0.479,0.161 z"
       transform="translate(0.228)"
       stroke-miterlimit="10"
       id="path20551"
       inkscape:connector-curvature="0"
       style="fill:#ffffff;stroke:#ffffff;stroke-width:0.5;stroke-miterlimit:10" />
    <path
       d="m 59.71,22.1 a 0.975,0.975 0 0 0 -0.665,0.4 10.567,10.567 0 0 0 -1.1,1.786 11.866,11.866 0 0 1 -1.258,2.121 0.8,0.8 0 0 1 -0.471,0.258 0.6,0.6 0 0 1 -0.689,-0.665 4.755,4.755 0 0 1 0.094,-0.8 20.893,20.893 0 0 0 0.322,-3.732 0.886,0.886 0 0 1 0.19,-0.495 C 56.261,20.791 56.38,20.7 56.494,20.7 a 0.487,0.487 0 0 1 0.433,0.188 1.482,1.482 0 0 1 0.129,0.756 16.761,16.761 0 0 1 -0.351,2.437 5.606,5.606 0 0 0 -0.118,0.773 c 0,0.063 0.016,0.094 0.047,0.094 a 6.741,6.741 0 0 0 0.815,-1.4 9.117,9.117 0 0 1 1.283,-2 1.647,1.647 0 0 1 1.213,-0.58 1,1 0 0 1 0.858,0.48 4.208,4.208 0 0 1 0.484,1.752 10.612,10.612 0 0 0 0.294,1.8 c 0.088,0.236 0.229,0.354 0.42,0.354 a 1.129,1.129 0 0 0 0.457,-0.128 0.181,0.181 0 0 1 0.071,-0.024 c 0.168,0 0.252,0.1 0.252,0.293 a 0.78,0.78 0 0 1 -0.346,0.548 1.253,1.253 0 0 1 -0.832,0.29 0.884,0.884 0 0 1 -0.772,-0.4 5.707,5.707 0 0 1 -0.429,-2.112 Q 60.237,22.1 59.71,22.1 Z"
       transform="translate(0.228)"
       stroke-miterlimit="10"
       id="path20553"
       inkscape:connector-curvature="0"
       style="fill:#ffffff;stroke:#ffffff;stroke-width:0.5;stroke-miterlimit:10" />
    <path
       d="m 68.693,24.624 q 0,0.6 -1.059,1.441 A 3.461,3.461 0 0 1 65.453,26.909 1.882,1.882 0 0 1 64,26.352 a 2.207,2.207 0 0 1 -0.512,-1.553 5.236,5.236 0 0 1 1.131,-3.187 3.144,3.144 0 0 1 2.468,-1.512 0.964,0.964 0 0 1 1,0.978 2.379,2.379 0 0 1 -0.884,1.729 11.393,11.393 0 0 1 -2.368,1.623 0.467,0.467 0 0 0 -0.3,0.41 1.079,1.079 0 0 0 0.281,0.779 1.1,1.1 0 0 0 0.832,0.293 3.667,3.667 0 0 0 2.572,-1.394 c 0.129,-0.129 0.227,-0.194 0.293,-0.194 0.117,10e-4 0.18,0.101 0.18,0.3 z M 64.621,23.71 q 2.484,-1.476 2.484,-2.373 c 0,-0.234 -0.106,-0.352 -0.316,-0.352 a 1.8,1.8 0 0 0 -1.216,0.791 4.565,4.565 0 0 0 -0.952,1.934 z"
       transform="translate(0.228)"
       stroke-miterlimit="10"
       id="path20555"
       inkscape:connector-curvature="0"
       style="fill:#ffffff;stroke:#ffffff;stroke-width:0.5;stroke-miterlimit:10" />
    <path
       d="m 26.078,37.688 a 17.465,17.465 0 0 1 2.513,-0.281 3.092,3.092 0 0 1 1.975,0.586 1.805,1.805 0 0 1 0.738,1.471 2.343,2.343 0 0 1 -0.782,1.667 5.444,5.444 0 0 1 -1.966,1.227 c -0.1,0.039 -0.146,0.08 -0.146,0.123 a 6.532,6.532 0 0 0 1.209,1.035 26.348,26.348 0 0 0 2.224,1.561 0.487,0.487 0 0 1 0.09,0.835 0.562,0.562 0 0 1 -0.366,0.185 2.32,2.32 0 0 1 -1.105,-0.575 Q 29.703,44.949 28.89,44.257 a 10.883,10.883 0 0 0 -1.969,-1.495 1.214,1.214 0 0 1 -0.562,-0.112 0.381,0.381 0 0 1 -0.164,-0.357 0.489,0.489 0 0 1 0.211,-0.39 0.778,0.778 0 0 1 0.5,-0.167 2.586,2.586 0 0 1 0.316,0.03 2.3,2.3 0 0 0 0.322,0.035 3.854,3.854 0 0 0 1.6,-0.7 1.966,1.966 0 0 0 1.134,-1.64 1.034,1.034 0 0 0 -0.506,-0.856 2.2,2.2 0 0 0 -1.293,-0.357 8.4,8.4 0 0 0 -1.172,0.081 4.8,4.8 0 0 0 -0.746,0.141 0.492,0.492 0 0 0 -0.262,0.3 12.167,12.167 0 0 0 -0.334,1.55 q -0.234,1.306 -0.367,2.467 a 16.74,16.74 0 0 0 -0.131,1.705 4.018,4.018 0 0 0 0.059,0.733 3.254,3.254 0 0 1 0.052,0.5 0.536,0.536 0 0 1 -0.185,0.363 0.555,0.555 0 0 1 -0.4,0.187 q -0.616,0 -0.615,-1 a 31.832,31.832 0 0 1 0.827,-6.252 2.231,2.231 0 0 0 0.041,-0.24 0.245,0.245 0 0 0 -0.041,-0.105 1.291,1.291 0 0 1 -0.235,-0.493 0.475,0.475 0 0 1 0.217,-0.386 0.669,0.669 0 0 1 0.393,-0.164 z"
       transform="translate(0.228)"
       stroke-miterlimit="10"
       id="path20557"
       inkscape:connector-curvature="0"
       style="fill:#ffffff;stroke:#ffffff;stroke-width:0.5;stroke-miterlimit:10" />
    <path
       d="m 34.737,46.262 a 1.665,1.665 0 0 1 -1.324,-0.611 2.237,2.237 0 0 1 -0.521,-1.505 5.188,5.188 0 0 1 1.017,-2.98 2.929,2.929 0 0 1 2.434,-1.466 1.863,1.863 0 0 1 1.521,0.721 2.648,2.648 0 0 1 0.583,1.717 4.091,4.091 0 0 1 -1.205,2.824 3.449,3.449 0 0 1 -2.505,1.3 z m -0.814,-2.269 a 1.719,1.719 0 0 0 0.248,0.968 0.76,0.76 0 0 0 0.66,0.375 2.454,2.454 0 0 0 1.752,-0.958 3.079,3.079 0 0 0 0.879,-2.13 1.894,1.894 0 0 0 -0.337,-1.169 1.073,1.073 0 0 0 -0.905,-0.448 1.924,1.924 0 0 0 -1.62,1.157 4.377,4.377 0 0 0 -0.677,2.205 z"
       transform="translate(0.228)"
       stroke-miterlimit="10"
       id="path20559"
       inkscape:connector-curvature="0"
       style="fill:#ffffff;stroke:#ffffff;stroke-width:0.5;stroke-miterlimit:10" />
    <path
       d="m 41.864,36.05 c 0.281,0 0.421,0.179 0.421,0.539 a 11.953,11.953 0 0 1 -0.51,2.285 17.224,17.224 0 0 0 -0.5,2.508 18.038,18.038 0 0 0 -0.176,2.15 15.214,15.214 0 0 0 0.122,1.922 2.269,2.269 0 0 1 0.024,0.264 0.71,0.71 0 0 1 -0.2,0.5 0.582,0.582 0 0 1 -0.422,0.211 q -0.311,0 -0.43,-0.387 a 4.6,4.6 0 0 1 -0.119,-1.248 31.26,31.26 0 0 1 0.471,-4.863 16.239,16.239 0 0 1 0.751,-3.393 c 0.188,-0.324 0.376,-0.488 0.568,-0.488 z"
       transform="translate(0.228)"
       stroke-miterlimit="10"
       id="path20561"
       inkscape:connector-curvature="0"
       style="fill:#ffffff;stroke:#ffffff;stroke-width:0.5;stroke-miterlimit:10" />
    <path
       d="m 45.3,36.05 c 0.282,0 0.421,0.179 0.421,0.539 a 11.953,11.953 0 0 1 -0.51,2.285 17.5,17.5 0 0 0 -0.5,2.508 18,18 0 0 0 -0.175,2.15 15.214,15.214 0 0 0 0.122,1.922 2.451,2.451 0 0 1 0.023,0.264 0.709,0.709 0 0 1 -0.2,0.5 0.584,0.584 0 0 1 -0.422,0.211 q -0.311,0 -0.431,-0.387 a 4.6,4.6 0 0 1 -0.119,-1.248 31.155,31.155 0 0 1 0.472,-4.863 16.1,16.1 0 0 1 0.751,-3.393 C 44.917,36.214 45.106,36.05 45.3,36.05 Z"
       transform="translate(0.228)"
       stroke-miterlimit="10"
       id="path20563"
       inkscape:connector-curvature="0"
       style="fill:#ffffff;stroke:#ffffff;stroke-width:0.5;stroke-miterlimit:10" />
    <path
       d="m 51.7,43.984 q 0,0.6 -1.059,1.442 A 3.469,3.469 0 0 1 48.459,46.27 1.883,1.883 0 0 1 47,45.713 2.21,2.21 0 0 1 46.489,44.16 a 5.236,5.236 0 0 1 1.131,-3.187 3.146,3.146 0 0 1 2.472,-1.512 0.965,0.965 0 0 1 1,0.978 2.382,2.382 0 0 1 -0.884,1.729 11.317,11.317 0 0 1 -2.368,1.623 0.467,0.467 0 0 0 -0.3,0.41 1.075,1.075 0 0 0 0.281,0.779 1.1,1.1 0 0 0 0.832,0.293 3.664,3.664 0 0 0 2.572,-1.394 c 0.129,-0.129 0.227,-0.193 0.293,-0.193 0.114,0 0.182,0.099 0.182,0.298 z M 47.627,43.07 q 2.486,-1.476 2.485,-2.373 0,-0.351 -0.317,-0.351 a 1.8,1.8 0 0 0 -1.215,0.791 4.563,4.563 0 0 0 -0.958,1.933 z"
       transform="translate(0.228)"
       stroke-miterlimit="10"
       id="path20565"
       inkscape:connector-curvature="0"
       style="fill:#ffffff;stroke:#ffffff;stroke-width:0.5;stroke-miterlimit:10" />
    <path
       d="m 61.667,43.84 a 7.125,7.125 0 0 1 -1.624,1.652 2.665,2.665 0 0 1 -1.47,0.551 1,1 0 0 1 -0.78,-0.382 1.449,1.449 0 0 1 -0.327,-0.978 5.556,5.556 0 0 1 1.377,-3.319 3.707,3.707 0 0 1 2.737,-1.778 0.782,0.782 0 0 1 0.732,0.562 0.255,0.255 0 0 0 0.24,0.188 q 0.47,0 0.469,0.363 a 2.926,2.926 0 0 1 -0.059,0.5 15.8,15.8 0 0 0 -0.316,2.438 q 0,1.417 0.538,1.7 a 0.406,0.406 0 0 1 0.258,0.346 0.494,0.494 0 0 1 -0.252,0.366 0.829,0.829 0 0 1 -0.486,0.184 q -0.452,0 -0.745,-0.621 A 4.284,4.284 0 0 1 61.667,43.84 Z m -0.357,-3.3 q -0.774,0 -1.8,1.45 a 4.545,4.545 0 0 0 -1.024,2.41 c 0,0.45 0.148,0.674 0.445,0.674 q 0.645,0 1.787,-1.3 a 3.8,3.8 0 0 0 1.143,-2.391 q 0,-0.842 -0.551,-0.842 z"
       transform="translate(0.228)"
       stroke-miterlimit="10"
       id="path20567"
       inkscape:connector-curvature="0"
       style="fill:#ffffff;stroke:#ffffff;stroke-width:0.5;stroke-miterlimit:10" />
    <path
       d="m 66.813,36.054 c 0.281,0 0.421,0.179 0.421,0.539 a 11.953,11.953 0 0 1 -0.51,2.285 17.224,17.224 0 0 0 -0.5,2.508 18.038,18.038 0 0 0 -0.176,2.15 15.214,15.214 0 0 0 0.122,1.922 2.269,2.269 0 0 1 0.024,0.264 0.713,0.713 0 0 1 -0.2,0.5 0.584,0.584 0 0 1 -0.422,0.211 q -0.311,0 -0.431,-0.387 a 4.6,4.6 0 0 1 -0.119,-1.248 31.177,31.177 0 0 1 0.472,-4.864 16.2,16.2 0 0 1 0.75,-3.392 q 0.282,-0.488 0.569,-0.488 z"
       transform="translate(0.228)"
       stroke-miterlimit="10"
       id="path20569"
       inkscape:connector-curvature="0"
       style="fill:#ffffff;stroke:#ffffff;stroke-width:0.5;stroke-miterlimit:10" />
    <path
       d="m 71.142,44.633 q 0,-0.381 -0.937,-0.868 a 8.919,8.919 0 0 1 -1.61,-0.976 1.073,1.073 0 0 1 -0.418,-0.817 2.261,2.261 0 0 1 1.169,-1.934 3.794,3.794 0 0 1 1.907,-0.767 1.137,1.137 0 0 1 0.689,0.165 0.674,0.674 0 0 1 0.214,0.568 A 0.388,0.388 0 0 1 72,40.314 0.446,0.446 0 0 1 71.757,40.443 0.773,0.773 0 0 1 71.505,40.355 0.862,0.862 0 0 0 71.259,40.273 3.756,3.756 0 0 0 70.07,40.7 q -0.9,0.427 -0.9,0.967 a 0.773,0.773 0 0 0 0.317,0.595 5.766,5.766 0 0 0 1.136,0.654 4.356,4.356 0 0 1 1.057,0.677 1.111,1.111 0 0 1 0.4,0.846 q 0,0.9 -1.238,1.4 a 6.236,6.236 0 0 1 -2.361,0.506 q -0.95,0 -0.949,-0.645 a 0.345,0.345 0 0 1 0.214,-0.328 0.97,0.97 0 0 1 0.431,-0.1 1.765,1.765 0 0 1 0.334,0.058 1.734,1.734 0 0 0 0.316,0.059 5.025,5.025 0 0 0 1.395,-0.217 1.487,1.487 0 0 0 0.92,-0.539 z"
       transform="translate(0.228)"
       stroke-miterlimit="10"
       id="path20571"
       inkscape:connector-curvature="0"
       style="fill:#ffffff;stroke:#ffffff;stroke-width:0.5;stroke-miterlimit:10" />
    <path
       d="m 22.684,63.678 q 0,-0.117 0.177,-1.433 0.177,-1.316 0.334,-3.058 c 0.105,-1.163 0.174,-1.812 0.2,-1.949 a 0.611,0.611 0 0 1 0.187,-0.334 0.657,0.657 0 0 1 0.448,-0.129 0.46,0.46 0 0 1 0.345,0.164 0.517,0.517 0 0 1 0.153,0.358 5.058,5.058 0 0 1 -0.106,0.82 q -0.151,0.78 -0.443,3.164 -0.292,2.384 -0.29,2.7 a 0.455,0.455 0 0 0 0.061,0.279 0.294,0.294 0 0 0 0.232,0.073 11.144,11.144 0 0 0 1.3,-0.17 q 0.631,-0.1 2.39,-0.193 a 3.614,3.614 0 0 0 0.78,-0.134 0.546,0.546 0 0 1 0.128,-0.024 0.444,0.444 0 0 1 0.352,0.147 0.515,0.515 0 0 1 0.129,0.352 0.632,0.632 0 0 1 -0.258,0.53 0.923,0.923 0 0 1 -0.574,0.2 q -0.123,0 -0.486,-0.036 c -0.247,-0.02 -0.43,-0.029 -0.551,-0.029 a 11.488,11.488 0 0 0 -3.686,0.6 1.708,1.708 0 0 1 -0.539,0.1 A 0.454,0.454 0 0 1 22.56,65.447 0.832,0.832 0 0 1 22.42,65 a 2.986,2.986 0 0 1 0.112,-0.562 7.357,7.357 0 0 0 0.152,-0.76 z"
       transform="translate(0.228)"
       stroke-miterlimit="10"
       id="path20573"
       inkscape:connector-curvature="0"
       style="fill:#ffffff;stroke:#ffffff;stroke-width:0.5;stroke-miterlimit:10" />
    <path
       d="m 35.154,63.346 q 0,0.6 -1.059,1.441 a 3.468,3.468 0 0 1 -2.182,0.843 1.883,1.883 0 0 1 -1.457,-0.557 2.2,2.2 0 0 1 -0.511,-1.552 5.238,5.238 0 0 1 1.131,-3.188 3.146,3.146 0 0 1 2.472,-1.512 0.967,0.967 0 0 1 1,0.98 2.377,2.377 0 0 1 -0.884,1.727 11.317,11.317 0 0 1 -2.368,1.623 0.469,0.469 0 0 0 -0.3,0.411 1.074,1.074 0 0 0 0.28,0.779 1.1,1.1 0 0 0 0.832,0.293 3.671,3.671 0 0 0 2.573,-1.394 c 0.129,-0.129 0.227,-0.193 0.293,-0.193 0.117,0 0.18,0.099 0.18,0.299 z m -4.073,-0.915 q 2.485,-1.477 2.485,-2.373 0,-0.352 -0.317,-0.352 a 1.8,1.8 0 0 0 -1.215,0.791 4.549,4.549 0 0 0 -0.953,1.934 z"
       transform="translate(0.228)"
       stroke-miterlimit="10"
       id="path20575"
       inkscape:connector-curvature="0"
       style="fill:#ffffff;stroke:#ffffff;stroke-width:0.5;stroke-miterlimit:10" />
    <path
       d="m 37.339,63.574 q 2.18,-4.025 3.592,-4.024 a 0.691,0.691 0 0 1 0.609,0.428 6,6 0 0 1 0.381,1.9 4.626,4.626 0 0 0 0.661,2.262 1.1,1.1 0 0 1 0.264,0.527 0.354,0.354 0 0 1 -0.176,0.281 0.622,0.622 0 0 1 -0.375,0.129 0.99,0.99 0 0 1 -0.808,-0.512 3.9,3.9 0 0 1 -0.45,-1.8 9.96,9.96 0 0 0 -0.211,-1.594 q -0.113,-0.375 -0.37,-0.375 -0.615,0 -2.479,3.216 a 9.172,9.172 0 0 1 -0.82,1.257 0.711,0.711 0 0 1 -0.481,0.3 0.635,0.635 0 0 1 -0.433,-0.153 0.473,0.473 0 0 1 -0.176,-0.375 3.968,3.968 0 0 1 0.094,-0.633 q 0.722,-3.72 1.137,-7.359 a 2.574,2.574 0 0 1 0.3,-1.131 c 0.139,-0.187 0.254,-0.281 0.348,-0.281 a 0.632,0.632 0 0 1 0.457,0.205 0.771,0.771 0 0 1 0.2,0.568 11.717,11.717 0 0 1 -0.528,2.959 q -0.257,0.932 -0.544,2.368 a 13.4,13.4 0 0 0 -0.288,1.775 c 0,0.047 0.022,0.07 0.065,0.07 z"
       transform="translate(0.228)"
       stroke-miterlimit="10"
       id="path20577"
       inkscape:connector-curvature="0"
       style="fill:#ffffff;stroke:#ffffff;stroke-width:0.5;stroke-miterlimit:10" />
    <path
       d="m 45.074,63.007 c 0.039,-0.07 0.086,-0.168 0.14,-0.293 a 10.407,10.407 0 0 1 0.733,-1.433 9.484,9.484 0 0 1 0.735,-0.992 4.681,4.681 0 0 1 0.732,-0.721 2.384,2.384 0 0 1 0.6,-0.342 1.532,1.532 0 0 1 0.522,-0.1 1.153,1.153 0 0 1 0.832,0.308 0.964,0.964 0 0 1 0.322,0.717 0.519,0.519 0 0 1 -0.114,0.328 0.416,0.416 0 0 1 -0.349,0.147 0.611,0.611 0 0 1 -0.451,-0.217 0.618,0.618 0 0 0 -0.44,-0.217 q -0.609,0 -1.687,1.477 a 6.984,6.984 0 0 0 -1.314,3.251 0.989,0.989 0 0 1 -0.222,0.6 0.672,0.672 0 0 1 -0.463,0.147 c -0.192,0 -0.33,-0.143 -0.416,-0.428 a 5.592,5.592 0 0 1 -0.129,-1.441 q 0,-0.276 0.03,-1.213 a 15.262,15.262 0 0 1 0.141,-1.787 c 0.012,-0.075 0.031,-0.248 0.058,-0.522 a 3.022,3.022 0 0 1 0.1,-0.627 0.748,0.748 0 0 1 0.252,-0.328 0.651,0.651 0 0 1 0.413,-0.152 0.388,0.388 0 0 1 0.325,0.138 0.469,0.469 0 0 1 0.109,0.295 2.581,2.581 0 0 1 -0.118,0.645 5.469,5.469 0 0 0 -0.158,0.639 3.515,3.515 0 0 1 -0.064,0.416 11.085,11.085 0 0 0 -0.117,1.324 l -0.006,0.217 z"
       transform="translate(0.228)"
       stroke-miterlimit="10"
       id="path20579"
       inkscape:connector-curvature="0"
       style="fill:#ffffff;stroke:#ffffff;stroke-width:0.5;stroke-miterlimit:10" />
    <path
       d="m 55.076,63.349 q 0,0.6 -1.059,1.441 a 3.459,3.459 0 0 1 -2.183,0.843 1.883,1.883 0 0 1 -1.456,-0.557 2.2,2.2 0 0 1 -0.511,-1.553 5.243,5.243 0 0 1 1.133,-3.187 3.146,3.146 0 0 1 2.473,-1.511 0.965,0.965 0 0 1 1,0.979 2.38,2.38 0 0 1 -0.885,1.728 11.28,11.28 0 0 1 -2.367,1.622 0.468,0.468 0 0 0 -0.3,0.41 1.073,1.073 0 0 0 0.28,0.78 1.1,1.1 0 0 0 0.832,0.293 3.664,3.664 0 0 0 2.567,-1.394 c 0.129,-0.129 0.227,-0.193 0.293,-0.193 0.12,0 0.183,0.099 0.183,0.299 z M 51,62.434 q 2.485,-1.476 2.485,-2.372 0,-0.352 -0.317,-0.352 A 1.806,1.806 0 0 0 51.953,60.5 4.549,4.549 0 0 0 51,62.434 Z"
       transform="translate(0.228)"
       stroke-miterlimit="10"
       id="path20581"
       inkscape:connector-curvature="0"
       style="fill:#ffffff;stroke:#ffffff;stroke-width:0.5;stroke-miterlimit:10" />
    <path
       d="m 57.484,63.009 c 0.039,-0.071 0.086,-0.168 0.14,-0.293 a 10.407,10.407 0 0 1 0.733,-1.433 9.521,9.521 0 0 1 0.735,-0.992 4.639,4.639 0 0 1 0.733,-0.721 2.38,2.38 0 0 1 0.6,-0.342 1.532,1.532 0 0 1 0.522,-0.1 1.155,1.155 0 0 1 0.832,0.307 0.964,0.964 0 0 1 0.322,0.718 0.519,0.519 0 0 1 -0.114,0.328 0.415,0.415 0 0 1 -0.349,0.147 0.611,0.611 0 0 1 -0.451,-0.217 0.618,0.618 0 0 0 -0.44,-0.217 q -0.609,0 -1.687,1.477 a 6.972,6.972 0 0 0 -1.313,3.251 1,1 0 0 1 -0.223,0.6 0.672,0.672 0 0 1 -0.463,0.147 q -0.287,0 -0.416,-0.428 A 5.592,5.592 0 0 1 56.516,63.8 q 0,-0.276 0.03,-1.213 A 15.465,15.465 0 0 1 56.687,60.8 c 0.012,-0.075 0.031,-0.248 0.059,-0.522 a 2.972,2.972 0 0 1 0.1,-0.627 0.748,0.748 0 0 1 0.252,-0.328 0.651,0.651 0 0 1 0.413,-0.152 0.389,0.389 0 0 1 0.325,0.137 0.468,0.468 0 0 1 0.109,0.3 2.57,2.57 0 0 1 -0.117,0.645 5.283,5.283 0 0 0 -0.159,0.639 3.32,3.32 0 0 1 -0.064,0.416 11.085,11.085 0 0 0 -0.117,1.324 l -0.006,0.217 z"
       transform="translate(0.228)"
       stroke-miterlimit="10"
       id="path20583"
       inkscape:connector-curvature="0"
       style="fill:#ffffff;stroke:#ffffff;stroke-width:0.5;stroke-miterlimit:10" />
    <path
       d="m 65.218,59.085 q 0.042,0.077 0.475,0.592 a 3.513,3.513 0 0 1 0.8,1.1 0.416,0.416 0 0 1 -0.106,0.285 0.313,0.313 0 0 1 -0.24,0.12 q -0.153,0 -0.381,-0.287 -0.1,-0.129 -0.123,-0.153 -0.083,-0.093 -0.346,-0.428 a 8.622,8.622 0 0 0 -0.767,-0.931 2.267,2.267 0 0 0 -0.457,0.755 q -0.651,1.335 -0.891,1.336 a 1.248,1.248 0 0 1 -0.228,-0.118 0.379,0.379 0 0 1 -0.2,-0.351 6.879,6.879 0 0 1 0.806,-1.205 c 0.2,-0.278 0.316,-0.447 0.352,-0.51 a 3.484,3.484 0 0 0 -0.481,-0.012 2.546,2.546 0 0 0 -0.457,0.03 l -0.656,0.181 a 1.475,1.475 0 0 1 -0.34,0.065 c -0.027,0 -0.056,-0.041 -0.085,-0.123 a 0.628,0.628 0 0 1 -0.044,-0.176 0.38,0.38 0 0 1 0.073,-0.191 0.772,0.772 0 0 1 0.44,-0.2 2.692,2.692 0 0 1 0.495,-0.088 3.593,3.593 0 0 0 1.2,-0.123 3.759,3.759 0 0 0 -0.428,-0.556 0.788,0.788 0 0 1 -0.064,-0.076 1.864,1.864 0 0 1 -0.445,-0.8 0.262,0.262 0 0 1 0.064,-0.155 0.173,0.173 0 0 1 0.129,-0.085 q 0.339,0 1.225,1.249 0.251,-0.252 0.955,-1.1 0.357,-0.538 0.568,-0.539 a 0.427,0.427 0 0 1 0.256,0.082 0.254,0.254 0 0 1 0.113,0.217 c 0.02,0.062 -0.057,0.16 -0.228,0.293 a 0.441,0.441 0 0 0 -0.106,0.105 3.431,3.431 0 0 1 -0.68,0.879 c -0.1,0.094 -0.179,0.168 -0.234,0.223 a 0.526,0.526 0 0 0 0.193,0.035 6.508,6.508 0 0 0 1.178,-0.152 4.528,4.528 0 0 1 0.756,-0.1 c 0.074,0 0.139,0.057 0.193,0.17 a 0.672,0.672 0 0 1 0.082,0.275 0.209,0.209 0 0 1 -0.155,0.2 4.184,4.184 0 0 1 -0.9,0.1 3.562,3.562 0 0 0 -1.311,0.167 z"
       transform="translate(0.228)"
       stroke-miterlimit="10"
       id="path20585"
       inkscape:connector-curvature="0"
       style="fill:#ffffff;stroke:#ffffff;stroke-width:0.5;stroke-miterlimit:10" />
    <path
       d="m 69.7,64.036 a 4.69,4.69 0 0 0 0.123,1 0.876,0.876 0 0 1 0.023,0.176 c 0,0.07 -0.064,0.161 -0.193,0.272 a 0.616,0.616 0 0 1 -0.41,0.167 q -0.568,0 -0.569,-1.043 a 20.508,20.508 0 0 1 0.447,-3.41 8.3,8.3 0 0 0 0.152,-1 1.357,1.357 0 0 1 0.135,-0.63 0.416,0.416 0 0 1 0.381,-0.26 0.712,0.712 0 0 1 0.471,0.143 0.414,0.414 0 0 1 0.173,0.32 1.757,1.757 0 0 1 -0.082,0.462 21.794,21.794 0 0 0 -0.545,2.215 10.512,10.512 0 0 0 -0.106,1.588 z m 0.768,-6.545 c -0.082,0 -0.144,-0.088 -0.187,-0.263 a 1.634,1.634 0 0 0 -0.065,-0.182 1.783,1.783 0 0 1 -0.158,-0.662 0.67,0.67 0 0 1 0.279,-0.478 0.916,0.916 0 0 1 0.618,-0.242 0.733,0.733 0 0 1 0.38,0.132 c 0.141,0.088 0.211,0.173 0.211,0.255 a 2.622,2.622 0 0 1 -0.142,0.656 0.979,0.979 0 0 1 -0.457,0.624 1.167,1.167 0 0 1 -0.479,0.16 z"
       transform="translate(0.228)"
       stroke-miterlimit="10"
       id="path20587"
       inkscape:connector-curvature="0"
       style="fill:#ffffff;stroke:#ffffff;stroke-width:0.5;stroke-miterlimit:10" />
    <path
       d="m 76.04,60.832 a 0.98,0.98 0 0 0 -0.666,0.4 10.586,10.586 0 0 0 -1.1,1.788 11.933,11.933 0 0 1 -1.258,2.121 0.794,0.794 0 0 1 -0.472,0.257 q -0.691,0 -0.691,-0.667 a 4.733,4.733 0 0 1 0.094,-0.8 20.8,20.8 0 0 0 0.323,-3.733 0.891,0.891 0 0 1 0.19,-0.495 c 0.127,-0.182 0.247,-0.272 0.361,-0.272 a 0.487,0.487 0 0 1 0.433,0.187 1.482,1.482 0 0 1 0.129,0.756 16.768,16.768 0 0 1 -0.351,2.438 5.606,5.606 0 0 0 -0.118,0.773 c 0,0.062 0.015,0.094 0.046,0.094 a 6.7,6.7 0 0 0 0.816,-1.4 9.154,9.154 0 0 1 1.283,-2 1.65,1.65 0 0 1 1.213,-0.58 1,1 0 0 1 0.858,0.482 4.2,4.2 0 0 1 0.484,1.752 10.445,10.445 0 0 0 0.3,1.8 q 0.13,0.355 0.419,0.355 a 1.137,1.137 0 0 0 0.457,-0.129 0.168,0.168 0 0 1 0.07,-0.023 c 0.168,0 0.252,0.1 0.252,0.293 a 0.777,0.777 0 0 1 -0.346,0.547 1.248,1.248 0 0 1 -0.832,0.29 0.879,0.879 0 0 1 -0.77,-0.395 5.668,5.668 0 0 1 -0.43,-2.112 Q 76.567,60.831 76.04,60.832 Z"
       transform="translate(0.228)"
       stroke-miterlimit="10"
       id="path20589"
       inkscape:connector-curvature="0"
       style="fill:#ffffff;stroke:#ffffff;stroke-width:0.5;stroke-miterlimit:10" />
  </g>
</svg>
