<?xml version="1.0" encoding="UTF-8" standalone="no"?>
<svg
   xmlns:dc="http://purl.org/dc/elements/1.1/"
   xmlns:cc="http://creativecommons.org/ns#"
   xmlns:rdf="http://www.w3.org/1999/02/22-rdf-syntax-ns#"
   xmlns:svg="http://www.w3.org/2000/svg"
   xmlns="http://www.w3.org/2000/svg"
   xmlns:xlink="http://www.w3.org/1999/xlink"
   xmlns:sodipodi="http://sodipodi.sourceforge.net/DTD/sodipodi-0.dtd"
   xmlns:inkscape="http://www.inkscape.org/namespaces/inkscape"
   viewBox="0 0 99.6 89"
   version="1.1"
   id="svg1361"
   sodipodi:docname="D8_planung.svg"
   inkscape:version="0.92.4 (5da689c313, 2019-01-14)">
  <metadata
     id="metadata1365">
    <rdf:RDF>
      <cc:Work
         rdf:about="">
        <dc:format>image/svg+xml</dc:format>
        <dc:type
           rdf:resource="http://purl.org/dc/dcmitype/StillImage" />
        <dc:title>C1_faq</dc:title>
      </cc:Work>
    </rdf:RDF>
  </metadata>
  <sodipodi:namedview
     pagecolor="#ffffff"
     bordercolor="#666666"
     borderopacity="1"
     objecttolerance="10"
     gridtolerance="10"
     guidetolerance="10"
     inkscape:pageopacity="0"
     inkscape:pageshadow="2"
     inkscape:window-width="1920"
     inkscape:window-height="1018"
     id="namedview1363"
     showgrid="false"
     inkscape:zoom="1"
     inkscape:cx="-20.300003"
     inkscape:cy="44.5"
     inkscape:window-x="1912"
     inkscape:window-y="-8"
     inkscape:window-maximized="1"
     inkscape:current-layer="svg1361" />
  <defs
     id="defs1103">
    <clipPath
       id="clip-path"
       transform="translate(0.05)">
      <rect
         x="3.193"
         y="3.073"
         width="92.076"
         height="79.376"
         rx="7.091"
         fill="none"
         id="rect1091" />
    </clipPath>
    <clipPath
       id="clip-path-2"
       transform="translate(0.05)">
      <rect
         x="0.307"
         y="0.186"
         width="97.848"
         height="85.146"
         fill="none"
         id="rect1094" />
    </clipPath>
    <clipPath
       id="clip-path-4"
       transform="translate(0.05)">
      <rect
         x="2.893"
         y="3.07"
         width="92.076"
         height="79.376"
         rx="7.091"
         fill="none"
         id="rect1097" />
    </clipPath>
    <clipPath
       id="clip-path-5"
       transform="translate(0.05)">
      <rect
         x="0.007"
         y="0.183"
         width="97.848"
         height="85.146"
         fill="none"
         id="rect1100" />
    </clipPath>
    <linearGradient
       gradientTransform="matrix(0.80065364,0,0,0.80941636,0.26060764,-0.46404563)"
       inkscape:collect="always"
       xlink:href="#linearGradient1175-7"
       id="linearGradient1177"
       x1="103.59147"
       y1="88.713524"
       x2="13.732"
       y2="13.404"
       gradientUnits="userSpaceOnUse" />
    <linearGradient
       inkscape:collect="always"
       id="linearGradient1175-7">
      <stop
         style="stop-color:#4273be;stop-opacity:1"
         offset="0"
         id="stop1171" />
      <stop
         style="stop-color:#5e88c9;stop-opacity:1"
         offset="1"
         id="stop1173" />
    </linearGradient>
    <clipPath
       id="clip-path-9"
       transform="translate(0.33)">
      <rect
         style="fill:none"
         x="3.1930001"
         y="3.073"
         width="92.075996"
         height="79.375999"
         rx="7.0910001"
         id="rect11685" />
    </clipPath>
    <clipPath
       id="clip-path-2-6"
       transform="translate(0.33)">
      <rect
         style="fill:none"
         x="0.30700001"
         y="0.186"
         width="97.848"
         height="85.146004"
         id="rect11688" />
    </clipPath>
    <clipPath
       id="clipPath2315"
       transform="translate(0.33)">
      <rect
         style="fill:none"
         x="0.30700001"
         y="0.186"
         width="97.848"
         height="85.146004"
         id="rect2313" />
    </clipPath>
    <clipPath
       id="clip-path-4-5"
       transform="translate(0.33)">
      <rect
         style="fill:none"
         x="2.8929999"
         y="3.0699999"
         width="92.075996"
         height="79.375999"
         rx="7.0910001"
         id="rect11691" />
    </clipPath>
    <clipPath
       id="clip-path-5-5"
       transform="translate(0.33)">
      <rect
         style="fill:none"
         x="0.0070000002"
         y="0.183"
         width="97.848"
         height="85.146004"
         id="rect11694" />
    </clipPath>
    <clipPath
       id="clipPath2323"
       transform="translate(0.33)">
      <rect
         style="fill:none"
         x="0.0070000002"
         y="0.183"
         width="97.848"
         height="85.146004"
         id="rect2321" />
    </clipPath>
    <linearGradient
       id="Unbenannter_Verlauf_7"
       data-name="Unbenannter Verlauf 7"
       x1="12.97"
       y1="17.229"
       x2="88.521004"
       y2="70.970001"
       gradientTransform="rotate(0.009,1548.077,743380.79)"
       gradientUnits="userSpaceOnUse">
      <stop
         offset="0.002"
         stop-color="#5c6cba"
         id="stop13422" />
      <stop
         offset="0.081"
         stop-color="#5767b6"
         id="stop13424" />
      <stop
         offset="0.389"
         stop-color="#4859aa"
         id="stop13426" />
      <stop
         offset="0.983"
         stop-color="#4253a2"
         id="stop13428" />
    </linearGradient>
    <clipPath
       id="clip-path-4-1"
       transform="translate(0.077)">
      <rect
         style="fill:none"
         x="3.217"
         y="3.0769999"
         width="92.768997"
         height="79.848999"
         rx="7.1440001"
         id="rect13416" />
    </clipPath>
    <clipPath
       id="clip-path-5-1"
       transform="translate(0.077)">
      <rect
         style="fill:none"
         x="0.30899999"
         y="0.17299999"
         width="98.584999"
         height="85.653"
         id="rect13419" />
    </clipPath>
    <clipPath
       id="clipPath3536"
       transform="translate(0.077)">
      <rect
         style="fill:none"
         x="0.30899999"
         y="0.17299999"
         width="98.584999"
         height="85.653"
         id="rect3534" />
    </clipPath>
    <clipPath
       id="clip-path-8"
       transform="translate(0.077)">
      <rect
         style="fill:none"
         x="2.915"
         y="3.0739999"
         width="92.768997"
         height="79.848999"
         rx="7.1440001"
         id="rect13410" />
    </clipPath>
    <clipPath
       id="clip-path-2-8"
       transform="translate(0.077)">
      <rect
         style="fill:none"
         x="0.0070000002"
         y="0.17"
         width="98.584999"
         height="85.653"
         id="rect13413" />
    </clipPath>
    <clipPath
       id="clipPath3544"
       transform="translate(0.077)">
      <rect
         style="fill:none"
         x="0.0070000002"
         y="0.17"
         width="98.584999"
         height="85.653"
         id="rect3542" />
    </clipPath>
  </defs>
  <title
     id="title1105">C1_faq</title>
  <rect
     x="0.60000002"
     width="99"
     height="89"
     id="rect1107"
     y="0"
     style="isolation:isolate;fill:#ffffff" />
  <g
     id="g1213"
     style="opacity:0.3;isolation:isolate;mix-blend-mode:multiply"
     transform="matrix(0.98414881,0,0,0.98215347,1.5453956,1.5520417)">
    <path
       style="fill:#ffffff"
       inkscape:connector-curvature="0"
       id="path1109"
       transform="translate(0.05)"
       d="m 97.444,78.891 c 0,4.44 -3.984,8.044 -8.9,8.046 l -74.888,0.029 c -4.917,0 -8.9,-3.6 -8.9,-8.039 L 4.729,11.248 c 0,-4.444 3.98,-8.047 8.9,-8.048 L 88.517,3.17 c 4.913,0 8.9,3.6 8.9,8.042 z" />
    <path
       style="fill:#fefeff"
       inkscape:connector-curvature="0"
       id="path1111"
       transform="translate(0.05)"
       d="m 97.379,78.829 c 0,4.437 -3.982,8.038 -8.894,8.04 L 13.621,86.9 c -4.916,0 -8.9,-3.6 -8.9,-8.033 L 4.694,11.241 c 0,-4.438 3.94,-8.036 8.859,-8.045 l 74.9,-0.026 c 4.912,0 8.9,3.6 8.9,8.035 z" />
    <path
       style="fill:#fdfdff"
       inkscape:connector-curvature="0"
       id="path1113"
       transform="translate(0.05)"
       d="m 97.315,78.768 c 0,4.433 -3.981,8.031 -8.891,8.033 l -74.841,0.03 c -4.914,0 -8.9,-3.594 -8.9,-8.027 L 4.659,11.235 c 0,-4.432 3.9,-8.027 8.821,-8.042 L 88.391,3.17 c 4.91,0 8.9,3.592 8.9,8.029 z" />
    <path
       style="fill:#fcfcff"
       inkscape:connector-curvature="0"
       id="path1115"
       transform="translate(0.05)"
       d="m 97.251,78.707 c 0,4.429 -3.98,8.025 -8.889,8.026 l -74.817,0.03 c -4.913,0 -8.893,-3.591 -8.895,-8.02 L 4.623,11.228 c 0,-4.426 3.862,-8.016 8.784,-8.039 L 88.329,3.17 c 4.909,0 8.893,3.589 8.9,8.022 z" />
    <path
       style="fill:#fcfcff"
       inkscape:connector-curvature="0"
       id="path1117"
       transform="translate(0.05)"
       d="m 97.186,78.645 c 0,4.426 -3.979,8.019 -8.886,8.021 L 13.507,86.7 C 8.596,86.7 4.616,83.112 4.615,78.686 L 4.588,11.222 C 4.6,6.8 8.411,3.215 13.334,3.186 L 88.267,3.171 c 4.908,0 8.891,3.586 8.893,8.015 z" />
    <path
       style="fill:#fbfbff"
       inkscape:connector-curvature="0"
       id="path1119"
       transform="translate(0.05)"
       d="m 97.122,78.584 c 0,4.422 -3.978,8.012 -8.883,8.014 L 13.468,86.627 C 8.56,86.627 4.581,83.042 4.579,78.62 L 4.553,11.22 c 0.009,-4.415 3.783,-8 8.708,-8.033 L 88.206,3.176 c 4.906,0 8.888,3.583 8.889,8.008 z" />
    <path
       style="fill:#fafaff"
       inkscape:connector-curvature="0"
       id="path1121"
       transform="translate(0.05)"
       d="m 97.057,78.522 c 0,4.419 -3.976,8.006 -8.88,8.008 L 13.43,86.559 c -4.907,0 -8.884,-3.582 -8.886,-8 L 4.518,11.209 c 0.01,-4.41 3.744,-7.987 8.67,-8.03 L 88.144,3.171 c 4.9,0 8.885,3.58 8.887,8 z" />
    <path
       style="fill:#f9f9ff"
       inkscape:connector-curvature="0"
       id="path1123"
       transform="translate(0.05)"
       d="m 96.993,78.461 c 0,4.415 -3.975,8 -8.878,8 L 13.392,86.49 c -4.9,0 -8.881,-3.579 -8.883,-7.994 L 4.482,11.2 c 0.013,-4.4 3.7,-7.976 8.633,-8.027 h 74.968 c 4.9,0 8.882,3.577 8.883,8 z" />
    <path
       style="fill:#f8f8ff"
       inkscape:connector-curvature="0"
       id="path1125"
       transform="translate(0.05)"
       d="m 96.929,78.4 c 0,4.412 -3.974,7.993 -8.875,8 l -74.7,0.029 c -4.9,0 -8.879,-3.576 -8.88,-7.988 L 4.447,11.2 C 4.462,6.8 8.113,3.233 13.042,3.176 h 74.979 c 4.9,0 8.879,3.574 8.881,7.989 z" />
    <path
       style="fill:#f7f7fe"
       inkscape:connector-curvature="0"
       id="path1127"
       transform="translate(0.05)"
       d="m 96.864,78.338 c 0,4.408 -3.972,7.986 -8.872,7.988 l -74.676,0.029 c -4.9,0 -8.876,-3.573 -8.878,-7.981 L 4.412,11.189 C 4.429,6.8 8.038,3.232 12.969,3.168 h 74.99 c 4.9,0 8.877,3.571 8.879,7.982 z" />
    <path
       style="fill:#f7f7fe"
       inkscape:connector-curvature="0"
       id="path1129"
       transform="translate(0.05)"
       d="m 96.8,78.276 c 0,4.405 -3.971,7.98 -8.87,7.982 l -74.652,0.029 c -4.9,0 -8.873,-3.57 -8.875,-7.975 L 4.377,11.183 C 4.4,6.8 7.964,3.236 12.9,3.165 l 75,0.006 c 4.9,0 8.874,3.568 8.875,7.976 z" />
    <path
       style="fill:#f6f6fe"
       inkscape:connector-curvature="0"
       id="path1131"
       transform="translate(0.05)"
       d="m 96.735,78.215 c 0,4.4 -3.969,7.973 -8.866,7.975 L 13.24,86.219 c -4.9,0 -8.87,-3.567 -8.872,-7.968 L 4.342,11.176 C 4.363,6.796 7.889,3.239 12.823,3.161 l 75.013,0.01 c 4.9,0 8.871,3.565 8.873,7.969 z" />
    <path
       style="fill:#f5f5fe"
       inkscape:connector-curvature="0"
       id="path1133"
       transform="translate(0.05)"
       d="m 96.671,78.153 c 0,4.4 -3.969,7.967 -8.864,7.969 l -74.6,0.029 c -4.9,0 -8.868,-3.564 -8.869,-7.962 L 4.306,11.17 C 4.33,6.8 7.815,3.243 12.75,3.158 l 75.024,0.013 c 4.9,0 8.869,3.562 8.87,7.963 z" />
    <path
       style="fill:#f4f4fe"
       inkscape:connector-curvature="0"
       id="path1135"
       transform="translate(0.05)"
       d="m 96.606,78.092 c 0,4.394 -3.967,7.96 -8.861,7.962 l -74.581,0.029 c -4.9,0 -8.865,-3.561 -8.867,-7.955 L 4.271,11.163 C 4.3,6.794 7.74,3.246 12.677,3.154 l 75.036,0.017 c 4.894,0 8.865,3.56 8.867,7.957 z" />
    <path
       style="fill:#f3f3fe"
       inkscape:connector-curvature="0"
       id="path1137"
       transform="translate(0.05)"
       d="m 96.542,78.031 c 0,4.39 -3.966,7.953 -8.858,7.955 l -74.558,0.029 c -4.895,0 -8.862,-3.558 -8.864,-7.949 L 4.236,11.157 C 4.263,6.793 7.666,3.25 12.6,3.151 l 75.047,0.02 c 4.893,0 8.863,3.557 8.865,7.95 z" />
    <path
       style="fill:#f2f2fe"
       inkscape:connector-curvature="0"
       id="path1139"
       transform="translate(0.05)"
       d="m 96.478,77.969 c 0,4.387 -3.965,7.948 -8.856,7.949 l -74.535,0.029 c -4.892,0 -8.858,-3.555 -8.86,-7.942 L 4.2,11.15 c 0.029,-4.358 3.39,-7.9 8.33,-8 l 75.058,0.024 c 4.891,0 8.861,3.554 8.862,7.944 z" />
    <path
       style="fill:#f2f2fe"
       inkscape:connector-curvature="0"
       id="path1141"
       transform="translate(0.05)"
       d="m 96.413,77.908 c 0,4.383 -3.963,7.941 -8.853,7.942 l -74.511,0.029 c -4.89,0 -8.856,-3.552 -8.857,-7.936 l -0.027,-66.8 c 0.032,-4.352 3.352,-7.887 8.293,-8 l 75.07,0.027 c 4.889,0 8.857,3.551 8.859,7.937 z" />
    <path
       style="fill:#f1f1fe"
       inkscape:connector-curvature="0"
       id="path1143"
       transform="translate(0.05)"
       d="m 96.349,77.846 c 0,4.38 -3.962,7.935 -8.85,7.937 l -74.488,0.029 c -4.889,0 -8.853,-3.55 -8.855,-7.93 L 4.13,11.137 c 0.034,-4.346 3.312,-7.877 8.254,-8 l 75.082,0.031 c 4.888,0 8.855,3.548 8.857,7.931 z" />
    <path
       style="fill:#f0f0fe"
       inkscape:connector-curvature="0"
       id="path1145"
       transform="translate(0.05)"
       d="m 96.284,77.785 c 0,4.376 -3.96,7.928 -8.847,7.93 l -74.464,0.029 c -4.887,0 -8.85,-3.547 -8.852,-7.923 L 4.1,11.131 C 4.136,6.79 7.373,3.263 12.316,3.137 L 87.41,3.171 c 4.886,0 8.851,3.545 8.853,7.924 z" />
    <path
       style="fill:#efeffe"
       inkscape:connector-curvature="0"
       id="path1147"
       transform="translate(0.05)"
       d="m 96.22,77.723 c 0,4.373 -3.959,7.922 -8.845,7.924 l -74.44,0.029 c -4.886,0 -8.847,-3.544 -8.849,-7.917 L 4.06,11.124 C 4.1,6.789 7.293,3.267 12.238,3.133 l 75.105,0.038 c 4.885,0 8.849,3.542 8.851,7.918 z" />
    <path
       style="fill:#eeeefe"
       inkscape:connector-curvature="0"
       id="path1149"
       transform="translate(0.05)"
       d="m 96.156,77.662 c 0,4.369 -3.959,7.915 -8.842,7.917 L 12.9,85.608 c -4.884,0 -8.845,-3.541 -8.846,-7.91 L 4.028,11.118 a 7.945,7.945 0 0 1 8.14,-7.988 l 75.116,0.041 c 4.884,0 8.847,3.539 8.848,7.911 z" />
    <path
       style="fill:#ededfe"
       inkscape:connector-curvature="0"
       id="path1151"
       transform="translate(0.05)"
       d="m 96.091,77.6 c 0,4.366 -3.957,7.909 -8.839,7.911 L 12.859,85.54 c -4.883,0 -8.842,-3.538 -8.844,-7.9 L 3.989,11.111 a 7.919,7.919 0 0 1 8.1,-7.985 l 75.128,0.045 c 4.882,0 8.843,3.536 8.845,7.905 z" />
    <path
       style="fill:#ececfe"
       inkscape:connector-curvature="0"
       id="path1153"
       transform="translate(0.05)"
       d="m 96.027,77.539 c 0,4.362 -3.956,7.9 -8.837,7.9 l -74.369,0.029 c -4.881,0 -8.839,-3.535 -8.841,-7.9 L 3.954,11.098 a 7.891,7.891 0 0 1 8.065,-7.982 l 75.139,0.048 c 4.881,0 8.841,3.534 8.843,7.9 z" />
    <path
       style="fill:#ececfe"
       inkscape:connector-curvature="0"
       id="path1155"
       transform="translate(0.05)"
       d="m 95.962,77.478 c 0,4.358 -3.954,7.9 -8.833,7.9 L 12.783,85.4 c -4.88,0 -8.836,-3.532 -8.838,-7.891 L 3.919,11.1 a 7.864,7.864 0 0 1 8.027,-7.979 l 75.15,0.052 c 4.88,0 8.838,3.531 8.84,7.892 z" />
    <path
       style="fill:#ebebfe"
       inkscape:connector-curvature="0"
       id="path1157"
       transform="translate(0.05)"
       d="m 95.9,77.416 c 0,4.355 -3.953,7.889 -8.831,7.891 l -74.322,0.029 c -4.878,0 -8.834,-3.529 -8.835,-7.884 L 3.886,11.092 a 7.837,7.837 0 0 1 7.989,-7.976 l 75.162,0.055 c 4.877,0 8.835,3.528 8.837,7.885 z" />
    <path
       style="fill:#eaeafe"
       inkscape:connector-curvature="0"
       id="path1159"
       transform="translate(0.05)"
       d="m 95.834,77.355 c 0,4.351 -3.952,7.882 -8.829,7.884 l -74.3,0.029 c -4.876,0 -8.83,-3.526 -8.831,-7.878 L 3.848,11.085 A 7.812,7.812 0 0 1 11.8,3.112 l 75.173,0.059 c 4.876,0 8.833,3.525 8.834,7.879 z" />
    <path
       style="fill:#e9e9fd"
       inkscape:connector-curvature="0"
       id="path1161"
       transform="translate(0.05)"
       d="m 95.769,77.293 c 0,4.348 -3.95,7.876 -8.825,7.878 L 12.668,85.2 C 7.794,85.2 3.841,81.677 3.839,77.329 L 3.813,11.079 a 7.784,7.784 0 0 1 7.914,-7.97 l 75.184,0.062 c 4.875,0 8.83,3.522 8.832,7.872 z" />
    <path
       style="fill:#e8e8fd"
       inkscape:connector-curvature="0"
       id="path1163"
       transform="translate(0.05)"
       d="m 95.705,77.232 c 0,4.344 -3.95,7.869 -8.823,7.871 L 12.63,85.132 c -4.872,0 -8.824,-3.52 -8.826,-7.865 L 3.778,11.072 a 7.758,7.758 0 0 1 7.876,-7.967 l 75.2,0.066 c 4.873,0 8.827,3.519 8.829,7.866 z" />
    <path
       style="fill:#e7e7fd"
       inkscape:connector-curvature="0"
       id="path1165"
       transform="translate(0.05)"
       d="m 95.64,77.17 c 0,4.341 -3.948,7.864 -8.82,7.865 l -74.228,0.029 c -4.871,0 -8.822,-3.517 -8.823,-7.858 L 3.743,11.066 A 7.73,7.73 0 0 1 11.581,3.1 l 75.207,0.069 c 4.872,0 8.824,3.516 8.826,7.859 z" />
    <path
       style="fill:#e7e7fd"
       inkscape:connector-curvature="0"
       id="path1167"
       transform="translate(0.05)"
       d="m 95.576,77.109 c 0,4.337 -3.947,7.857 -8.817,7.859 L 12.554,85 C 7.685,85 3.735,81.486 3.734,77.148 L 3.707,11.059 a 7.7,7.7 0 0 1 7.8,-7.961 l 75.219,0.073 c 4.87,0 8.821,3.513 8.823,7.853 z" />
    <path
       style="fill:#e6e6fd"
       inkscape:connector-curvature="0"
       id="path1169"
       transform="translate(0.05)"
       d="m 95.511,77.047 c 0,4.334 -3.945,7.851 -8.814,7.853 L 12.516,84.928 C 7.648,84.928 3.7,81.417 3.698,77.083 L 3.672,11.053 A 7.678,7.678 0 0 1 11.435,3.1 l 75.23,0.076 c 4.869,0 8.819,3.51 8.82,7.846 z" />
    <path
       style="fill:#e5e5fd"
       inkscape:connector-curvature="0"
       id="path1171"
       transform="translate(0.05)"
       d="m 95.447,76.986 c 0,4.331 -3.944,7.844 -8.812,7.846 L 12.478,84.86 c -4.866,0 -8.813,-3.508 -8.815,-7.838 L 3.637,11.046 a 7.652,7.652 0 0 1 7.725,-7.955 l 75.241,0.08 c 4.868,0 8.816,3.508 8.818,7.84 z" />
    <path
       style="fill:#e4e4fd"
       inkscape:connector-curvature="0"
       id="path1173"
       transform="translate(0.05)"
       d="m 95.383,76.924 c 0,4.328 -3.943,7.838 -8.809,7.84 L 12.44,84.793 c -4.865,0 -8.811,-3.506 -8.812,-7.833 L 3.6,11.04 C 3.665,6.779 6.323,3.312 11.287,3.088 L 86.54,3.171 c 4.866,0 8.813,3.505 8.815,7.833 z" />
    <path
       style="fill:#e3e3fd"
       inkscape:connector-curvature="0"
       id="path1175"
       transform="translate(0.05)"
       d="m 95.318,76.863 c 0,4.324 -3.941,7.831 -8.806,7.833 l -74.11,0.029 c -4.863,0 -8.808,-3.5 -8.809,-7.826 L 3.567,11.033 C 3.634,6.778 6.251,3.315 11.216,3.084 L 86.48,3.171 c 4.865,0 8.811,3.5 8.812,7.827 z" />
    <path
       style="fill:#e2e2fd"
       inkscape:connector-curvature="0"
       id="path1177"
       transform="translate(0.05)"
       d="m 95.254,76.8 c 0,4.32 -3.94,7.824 -8.8,7.826 l -74.086,0.029 c -4.862,0 -8.8,-3.5 -8.807,-7.82 L 3.535,11.025 C 3.605,6.775 6.18,3.317 11.147,3.079 l 75.275,0.09 c 4.863,0 8.808,3.5 8.81,7.82 z" />
    <path
       style="fill:#e1e1fd"
       inkscape:connector-curvature="0"
       id="path1179"
       transform="translate(0.05)"
       d="m 95.189,76.74 c 0,4.317 -3.939,7.818 -8.8,7.82 l -74.063,0.029 c -4.86,0 -8.8,-3.5 -8.8,-7.813 L 3.5,11.02 C 3.571,6.777 6.106,3.32 11.074,3.077 l 75.287,0.094 c 4.861,0 8.805,3.5 8.806,7.814 z" />
    <path
       style="fill:#e1e1fd"
       inkscape:connector-curvature="0"
       id="path1181"
       transform="translate(0.05)"
       d="m 95.125,76.679 c 0,4.313 -3.938,7.811 -8.8,7.813 l -74.04,0.029 c -4.858,0 -8.8,-3.494 -8.8,-7.807 L 3.459,11.014 C 3.534,6.776 6.027,3.325 11,3.074 l 75.3,0.1 c 4.86,0 8.8,3.493 8.8,7.807 z" />
    <path
       style="fill:#e0e0fd"
       inkscape:connector-curvature="0"
       id="path1183"
       transform="translate(0.05)"
       d="m 95.061,76.617 c 0,4.31 -3.937,7.8 -8.8,7.807 l -74.017,0.029 c -4.856,0 -8.8,-3.491 -8.8,-7.8 L 3.426,11.007 C 3.501,6.775 5.953,3.329 10.926,3.07 l 75.309,0.1 c 4.859,0 8.8,3.49 8.8,7.8 z" />
    <path
       style="fill:#dfdffd"
       inkscape:connector-curvature="0"
       id="path1185"
       transform="translate(0.05)"
       d="m 95,76.556 c 0,4.306 -3.935,7.8 -8.792,7.8 l -73.993,0.029 c -4.854,0 -8.793,-3.488 -8.795,-7.794 L 3.39,11 C 3.468,6.773 5.878,3.331 10.851,3.066 l 75.321,0.1 c 4.857,0 8.8,3.487 8.8,7.794 z" />
    <path
       style="fill:#dedefd"
       inkscape:connector-curvature="0"
       id="path1187"
       transform="translate(0.05)"
       d="m 94.932,76.494 c 0,4.3 -3.934,7.792 -8.79,7.794 l -73.969,0.029 c -4.853,0 -8.79,-3.485 -8.792,-7.787 L 3.355,10.994 C 3.435,6.773 5.804,3.336 10.778,3.063 L 86.11,3.171 c 4.856,0 8.794,3.484 8.8,7.788 z" />
    <path
       style="fill:#ddddfd"
       inkscape:connector-curvature="0"
       id="path1189"
       transform="translate(0.05)"
       d="m 94.867,76.433 c 0,4.3 -3.932,7.786 -8.786,7.787 l -73.946,0.029 c -4.851,0 -8.787,-3.482 -8.789,-7.781 L 3.32,10.988 C 3.4,6.773 5.729,3.339 10.705,3.06 l 75.344,0.111 c 4.854,0 8.791,3.481 8.792,7.781 z" />
    <path
       style="fill:#dcdcfd"
       inkscape:connector-curvature="0"
       id="path1191"
       transform="translate(0.05)"
       d="m 94.8,76.371 c 0,4.3 -3.931,7.78 -8.784,7.781 L 12.1,84.181 c -4.85,0 -8.785,-3.479 -8.786,-7.774 L 3.285,10.981 C 3.369,6.772 5.655,3.343 10.632,3.056 l 75.355,0.115 c 4.853,0 8.788,3.479 8.79,7.775 z" />
    <path
       style="fill:#dcdcfd"
       inkscape:connector-curvature="0"
       id="path1193"
       transform="translate(0.05)"
       d="m 94.739,76.31 c 0,4.292 -3.93,7.773 -8.782,7.775 l -73.9,0.028 c -4.848,0 -8.782,-3.476 -8.784,-7.768 L 3.247,10.975 c 0.086,-4.2 2.331,-7.629 7.31,-7.922 l 75.366,0.118 c 4.852,0 8.786,3.476 8.788,7.768 z" />
    <path
       style="fill:#dbdbfc"
       inkscape:connector-curvature="0"
       id="path1195"
       transform="translate(0.05)"
       d="m 94.674,76.248 c 0,4.289 -3.929,7.767 -8.778,7.769 l -73.875,0.028 c -4.847,0 -8.779,-3.473 -8.781,-7.761 L 3.214,10.968 C 3.3,6.77 5.506,3.35 10.486,3.049 l 75.378,0.122 c 4.849,0 8.783,3.473 8.784,7.762 z" />
    <path
       style="fill:#dadafc"
       inkscape:connector-curvature="0"
       id="path1197"
       transform="translate(0.05)"
       d="m 94.61,76.187 c 0,4.285 -3.928,7.76 -8.776,7.762 l -73.851,0.028 c -4.845,0 -8.776,-3.47 -8.778,-7.755 L 3.179,10.962 C 3.269,6.77 5.431,3.353 10.413,3.046 L 85.8,3.171 c 4.848,0 8.78,3.47 8.782,7.755 z" />
    <path
       style="fill:#d9d9fc"
       inkscape:connector-curvature="0"
       id="path1199"
       transform="translate(0.05)"
       d="m 94.545,76.126 c 0,4.281 -3.926,7.753 -8.773,7.755 l -73.827,0.028 c -4.844,0 -8.774,-3.467 -8.775,-7.748 L 3.144,10.955 c 0.092,-4.186 2.213,-7.6 7.2,-7.913 l 75.4,0.129 c 4.847,0 8.778,3.467 8.78,7.749 z" />
    <path
       style="fill:#d8d8fc"
       inkscape:connector-curvature="0"
       id="path1201"
       transform="translate(0.05)"
       d="m 94.481,76.064 c 0,4.278 -3.925,7.747 -8.77,7.749 l -73.8,0.028 C 7.07,83.841 3.141,80.377 3.139,76.1 L 3.109,10.949 C 3.2,6.768 5.282,3.36 10.267,3.039 l 75.412,0.132 c 4.845,0 8.774,3.464 8.776,7.742 z" />
    <path
       style="fill:#d7d7fc"
       inkscape:connector-curvature="0"
       id="path1203"
       transform="translate(0.05)"
       d="m 94.416,76 c 0,4.274 -3.923,7.74 -8.767,7.742 l -73.781,0.029 c -4.84,0 -8.767,-3.462 -8.769,-7.736 L 3.073,10.935 C 3.173,6.76 5.208,3.356 10.194,3.028 l 75.423,0.136 c 4.844,0 8.772,3.461 8.774,7.736 z" />
    <path
       style="fill:#d7d7fc"
       inkscape:connector-curvature="0"
       id="path1205"
       transform="translate(0.05)"
       d="m 94.352,75.941 c 0,4.271 -3.922,7.734 -8.765,7.736 L 11.83,83.706 c -4.838,0 -8.764,-3.459 -8.766,-7.729 L 3.038,10.936 c 0.1,-4.17 2.1,-7.569 7.083,-7.9 l 75.434,0.139 c 4.843,0 8.77,3.458 8.771,7.729 z" />
    <path
       style="fill:#d6d6fc"
       inkscape:connector-curvature="0"
       id="path1207"
       transform="translate(0.05)"
       d="m 94.288,75.88 c 0,4.267 -3.921,7.727 -8.762,7.729 l -73.734,0.029 c -4.836,0 -8.762,-3.456 -8.763,-7.723 L 3,10.929 C 3.1,6.766 5.056,3.37 10.045,3.029 l 75.446,0.143 c 4.841,0 8.766,3.455 8.768,7.723 z" />
    <path
       style="fill:#d5d5fc"
       inkscape:connector-curvature="0"
       id="path1209"
       transform="translate(0.05)"
       d="m 94.223,75.818 c 0,4.264 -3.92,7.721 -8.759,7.723 l -73.71,0.029 c -4.835,0 -8.759,-3.453 -8.761,-7.716 L 2.968,10.923 c 0.1,-4.158 2.016,-7.549 7.007,-7.9 l 75.457,0.146 c 4.84,0 8.764,3.453 8.766,7.716 z" />
    <path
       style="opacity:0.3;fill:#d4d4fc"
       inkscape:connector-curvature="0"
       id="path1211"
       transform="translate(0.05)"
       d="m 94.159,75.757 c 0,4.26 -3.919,7.714 -8.757,7.716 L 11.716,83.5 C 6.883,83.5 2.96,80.05 2.958,75.79 L 2.932,10.916 C 3.037,6.764 4.91,3.377 9.9,3.021 l 75.47,0.15 c 4.838,0 8.76,3.45 8.762,7.71 z" />
  </g>
  <rect
     x="3.4360104"
     y="2.7266736"
     width="91.373001"
     height="79.632004"
     rx="7.0361447"
     id="rect9337"
     style="opacity:1;isolation:isolate;fill:url(#linearGradient1177);fill-opacity:1;stroke-width:0.80502313" />
  <g
     transform="translate(0.357638,-0.9495803)"
     style="isolation:isolate"
     id="g1651">
    <path
       d="m 12.905,33.761 v -4.476 a 1.244,1.244 0 0 1 0.257,-0.856 0.864,0.864 0 0 1 0.677,-0.285 0.885,0.885 0 0 1 0.694,0.286 1.239,1.239 0 0 1 0.257,0.856 v 4.577 a 4.193,4.193 0 0 0 0.174,1.3 1.5,1.5 0 0 0 0.619,0.812 2.269,2.269 0 0 0 1.244,0.289 1.864,1.864 0 0 0 1.561,-0.587 2.876,2.876 0 0 0 0.458,-1.781 v -4.61 a 1.247,1.247 0 0 1 0.254,-0.859 0.866,0.866 0 0 1 0.679,-0.283 0.9,0.9 0 0 1 0.689,0.284 1.223,1.223 0 0 1 0.263,0.859 v 4.476 a 6.683,6.683 0 0 1 -0.213,1.821 2.818,2.818 0 0 1 -0.8,1.282 3.131,3.131 0 0 1 -1.181,0.686 5.191,5.191 0 0 1 -1.574,0.215 6.516,6.516 0 0 1 -1.848,-0.232 2.946,2.946 0 0 1 -1.262,-0.717 2.907,2.907 0 0 1 -0.718,-1.245 6.343,6.343 0 0 1 -0.23,-1.812 z"
       transform="translate(0.077)"
       stroke-miterlimit="10"
       id="path1613"
       inkscape:connector-curvature="0"
       style="fill:#ffffff;stroke:#ffffff;stroke-width:0.5;stroke-miterlimit:10" />
    <path
       d="m 24.224,31.681 v 0.21 a 3.029,3.029 0 0 1 1,-0.886 2.659,2.659 0 0 1 1.248,-0.281 2.488,2.488 0 0 1 1.225,0.3 1.9,1.9 0 0 1 0.806,0.845 2.032,2.032 0 0 1 0.222,0.686 7.059,7.059 0 0 1 0.051,0.939 v 3.225 a 1.137,1.137 0 0 1 -0.239,0.787 0.787,0.787 0 0 1 -0.618,0.266 0.8,0.8 0 0 1 -0.628,-0.273 1.14,1.14 0 0 1 -0.242,-0.78 v -2.892 a 2.878,2.878 0 0 0 -0.238,-1.31 0.97,0.97 0 0 0 -0.948,-0.455 1.4,1.4 0 0 0 -0.845,0.276 1.575,1.575 0 0 0 -0.559,0.758 5.413,5.413 0 0 0 -0.127,1.447 v 2.172 a 1.127,1.127 0 0 1 -0.244,0.79 0.818,0.818 0 0 1 -0.631,0.263 0.785,0.785 0 0 1 -0.616,-0.273 1.14,1.14 0 0 1 -0.241,-0.78 v -5.009 a 1.084,1.084 0 0 1 0.216,-0.739 0.746,0.746 0 0 1 0.59,-0.244 0.8,0.8 0 0 1 0.413,0.107 0.777,0.777 0 0 1 0.295,0.324 1.144,1.144 0 0 1 0.11,0.527 z"
       transform="translate(0.077)"
       stroke-miterlimit="10"
       id="path1615"
       inkscape:connector-curvature="0"
       style="fill:#ffffff;stroke:#ffffff;stroke-width:0.5;stroke-miterlimit:10" />
    <path
       d="m 30.6,30.876 h 0.19 v -1.041 c 0,-0.279 0.008,-0.5 0.023,-0.657 a 0.933,0.933 0 0 1 0.124,-0.409 0.782,0.782 0 0 1 0.292,-0.29 0.827,0.827 0 0 1 0.425,-0.111 0.853,0.853 0 0 1 0.6,0.249 0.73,0.73 0 0 1 0.225,0.4 3.736,3.736 0 0 1 0.047,0.675 v 1.182 h 0.635 a 0.813,0.813 0 0 1 0.562,0.174 0.573,0.573 0 0 1 0.193,0.447 0.5,0.5 0 0 1 -0.277,0.489 1.789,1.789 0 0 1 -0.789,0.14 h -0.33 v 3.186 a 5.185,5.185 0 0 0 0.028,0.625 0.631,0.631 0 0 0 0.152,0.356 0.521,0.521 0 0 0 0.4,0.137 2.159,2.159 0 0 0 0.412,-0.054 2.154,2.154 0 0 1 0.406,-0.055 0.523,0.523 0 0 1 0.378,0.169 0.566,0.566 0 0 1 0.168,0.415 0.7,0.7 0 0 1 -0.457,0.642 3.093,3.093 0 0 1 -1.314,0.222 2.27,2.27 0 0 1 -1.232,-0.274 1.267,1.267 0 0 1 -0.549,-0.755 5.169,5.169 0 0 1 -0.13,-1.289 V 32.126 H 30.554 A 0.829,0.829 0 0 1 29.982,31.948 0.579,0.579 0 0 1 29.782,31.497 0.56,0.56 0 0 1 30,31.05 0.908,0.908 0 0 1 30.6,30.876 Z"
       transform="translate(0.077)"
       stroke-miterlimit="10"
       id="path1617"
       inkscape:connector-curvature="0"
       style="fill:#ffffff;stroke:#ffffff;stroke-width:0.5;stroke-miterlimit:10" />
    <path
       d="m 39.94,34.673 h -3.389 a 2.3,2.3 0 0 0 0.236,1.041 1.6,1.6 0 0 0 1.464,0.909 2.052,2.052 0 0 0 0.568,-0.073 1.879,1.879 0 0 0 0.5,-0.229 3.724,3.724 0 0 0 0.444,-0.333 c 0.135,-0.118 0.31,-0.279 0.527,-0.482 a 0.567,0.567 0 0 1 0.381,-0.114 0.631,0.631 0 0 1 0.432,0.145 0.526,0.526 0 0 1 0.164,0.413 1.124,1.124 0 0 1 -0.184,0.549 2.2,2.2 0 0 1 -0.554,0.6 3.182,3.182 0 0 1 -0.934,0.479 4.02,4.02 0 0 1 -1.292,0.19 3.463,3.463 0 0 1 -2.6,-0.953 3.547,3.547 0 0 1 -0.925,-2.584 4.313,4.313 0 0 1 0.228,-1.424 3.129,3.129 0 0 1 0.667,-1.127 2.874,2.874 0 0 1 1.079,-0.721 3.857,3.857 0 0 1 1.422,-0.25 3.363,3.363 0 0 1 1.742,0.429 2.807,2.807 0 0 1 1.088,1.108 2.9,2.9 0 0 1 0.362,1.383 q 0,0.654 -0.374,0.847 a 2.336,2.336 0 0 1 -1.052,0.197 z m -3.389,-0.985 h 3.142 a 2.107,2.107 0 0 0 -0.48,-1.33 1.438,1.438 0 0 0 -1.095,-0.441 1.384,1.384 0 0 0 -1.063,0.447 2.223,2.223 0 0 0 -0.504,1.324 z"
       transform="translate(0.077)"
       stroke-miterlimit="10"
       id="path1619"
       inkscape:connector-curvature="0"
       style="fill:#ffffff;stroke:#ffffff;stroke-width:0.5;stroke-miterlimit:10" />
    <path
       d="m 44.548,35.271 v 1.448 a 1.123,1.123 0 0 1 -0.247,0.79 0.829,0.829 0 0 1 -0.629,0.262 0.789,0.789 0 0 1 -0.615,-0.266 1.139,1.139 0 0 1 -0.242,-0.787 v -4.824 c 0,-0.78 0.281,-1.168 0.843,-1.168 a 0.7,0.7 0 0 1 0.622,0.273 1.506,1.506 0 0 1 0.21,0.806 A 3.016,3.016 0 0 1 45.13,31 1.317,1.317 0 0 1 46,30.727 2.237,2.237 0 0 1 47.063,31 a 0.815,0.815 0 0 1 0.513,0.724 0.727,0.727 0 0 1 -0.691,0.73 2.22,2.22 0 0 1 -0.461,-0.118 2.145,2.145 0 0 0 -0.644,-0.117 0.939,0.939 0 0 0 -0.622,0.2 1.28,1.28 0 0 0 -0.375,0.594 4.129,4.129 0 0 0 -0.183,0.935 c -0.034,0.362 -0.051,0.802 -0.052,1.323 z"
       transform="translate(0.077)"
       stroke-miterlimit="10"
       id="path1621"
       inkscape:connector-curvature="0"
       style="fill:#ffffff;stroke:#ffffff;stroke-width:0.5;stroke-miterlimit:10" />
    <path
       d="m 50.071,35.271 v 1.448 a 1.114,1.114 0 0 1 -0.249,0.79 0.819,0.819 0 0 1 -0.627,0.262 0.8,0.8 0 0 1 -0.617,-0.265 1.143,1.143 0 0 1 -0.24,-0.787 V 31.9 c 0,-0.78 0.281,-1.168 0.845,-1.168 a 0.7,0.7 0 0 1 0.622,0.272 1.5,1.5 0 0 1 0.209,0.806 3.01,3.01 0 0 1 0.639,-0.8 1.314,1.314 0 0 1 0.873,-0.272 2.232,2.232 0 0 1 1.059,0.262 0.816,0.816 0 0 1 0.515,0.724 0.689,0.689 0 0 1 -0.221,0.523 0.674,0.674 0 0 1 -0.473,0.207 2.23,2.23 0 0 1 -0.459,-0.118 2.155,2.155 0 0 0 -0.644,-0.117 0.941,0.941 0 0 0 -0.623,0.2 1.288,1.288 0 0 0 -0.374,0.593 4.122,4.122 0 0 0 -0.185,0.935 c -0.033,0.363 -0.05,0.803 -0.05,1.324 z"
       transform="translate(0.077)"
       stroke-miterlimit="10"
       id="path1623"
       inkscape:connector-curvature="0"
       style="fill:#ffffff;stroke:#ffffff;stroke-width:0.5;stroke-miterlimit:10" />
    <path
       d="m 55.778,31.711 v 5.009 a 1.121,1.121 0 0 1 -0.248,0.787 0.821,0.821 0 0 1 -0.629,0.265 0.787,0.787 0 0 1 -0.62,-0.272 1.154,1.154 0 0 1 -0.237,-0.78 v -4.958 a 1.118,1.118 0 0 1 0.238,-0.775 0.8,0.8 0 0 1 0.62,-0.259 0.825,0.825 0 0 1 0.627,0.259 1,1 0 0 1 0.249,0.724 z m -0.857,-1.79 A 0.907,0.907 0 0 1 54.3,29.7 a 0.86,0.86 0 0 1 0.006,-1.234 0.89,0.89 0 0 1 0.613,-0.238 0.906,0.906 0 0 1 0.6,0.216 0.764,0.764 0 0 1 0.26,0.628 0.789,0.789 0 0 1 -0.254,0.625 0.873,0.873 0 0 1 -0.604,0.224 z"
       transform="translate(0.077)"
       stroke-miterlimit="10"
       id="path1625"
       inkscape:connector-curvature="0"
       style="fill:#ffffff;stroke:#ffffff;stroke-width:0.5;stroke-miterlimit:10" />
    <path
       d="m 63.781,35.63 a 1.492,1.492 0 0 1 -0.193,0.691 2.361,2.361 0 0 1 -0.591,0.7 3.039,3.039 0 0 1 -1,0.537 4.283,4.283 0 0 1 -1.359,0.2 3.318,3.318 0 0 1 -2.507,-0.937 3.467,3.467 0 0 1 -0.9,-2.511 4.13,4.13 0 0 1 0.413,-1.884 2.954,2.954 0 0 1 1.194,-1.267 3.684,3.684 0 0 1 1.865,-0.448 3.722,3.722 0 0 1 1.236,0.2 3.245,3.245 0 0 1 0.952,0.509 2.433,2.433 0 0 1 0.6,0.663 1.322,1.322 0 0 1 0.207,0.657 0.7,0.7 0 0 1 -0.233,0.528 0.8,0.8 0 0 1 -0.561,0.214 0.563,0.563 0 0 1 -0.359,-0.111 1.773,1.773 0 0 1 -0.32,-0.358 2.632,2.632 0 0 0 -0.664,-0.725 1.633,1.633 0 0 0 -2.117,0.359 2.6,2.6 0 0 0 -0.469,1.641 3.2,3.2 0 0 0 0.119,0.9 2.053,2.053 0 0 0 0.35,0.7 1.488,1.488 0 0 0 0.552,0.437 1.668,1.668 0 0 0 0.711,0.15 1.594,1.594 0 0 0 0.892,-0.242 2.122,2.122 0 0 0 0.657,-0.736 1.7,1.7 0 0 1 0.342,-0.456 0.652,0.652 0 0 1 0.451,-0.165 0.666,0.666 0 0 1 0.527,0.241 0.776,0.776 0 0 1 0.205,0.513 z"
       transform="translate(0.077)"
       stroke-miterlimit="10"
       id="path1627"
       inkscape:connector-curvature="0"
       style="fill:#ffffff;stroke:#ffffff;stroke-width:0.5;stroke-miterlimit:10" />
    <path
       d="m 66.664,29.206 v 2.57 a 3.713,3.713 0 0 1 0.645,-0.6 2.313,2.313 0 0 1 0.7,-0.333 2.873,2.873 0 0 1 0.818,-0.11 2.392,2.392 0 0 1 1.171,0.28 1.99,1.99 0 0 1 0.8,0.812 2.011,2.011 0 0 1 0.246,0.7 5.38,5.38 0 0 1 0.065,0.885 v 3.321 a 1.143,1.143 0 0 1 -0.239,0.787 0.8,0.8 0 0 1 -0.631,0.265 q -0.856,0 -0.857,-1.052 V 33.8 a 2.68,2.68 0 0 0 -0.248,-1.279 0.977,0.977 0 0 0 -0.939,-0.449 1.4,1.4 0 0 0 -0.834,0.264 1.586,1.586 0 0 0 -0.557,0.72 4.628,4.628 0 0 0 -0.139,1.378 v 2.292 a 1.175,1.175 0 0 1 -0.231,0.783 0.8,0.8 0 0 1 -0.645,0.269 q -0.857,0 -0.857,-1.052 V 29.21 a 1.2,1.2 0 0 1 0.224,-0.791 0.789,0.789 0 0 1 0.633,-0.264 0.811,0.811 0 0 1 0.645,0.268 1.17,1.17 0 0 1 0.23,0.783 z"
       transform="translate(0.077)"
       stroke-miterlimit="10"
       id="path1629"
       inkscape:connector-curvature="0"
       style="fill:#ffffff;stroke:#ffffff;stroke-width:0.5;stroke-miterlimit:10" />
    <path
       d="m 72.916,30.883 h 0.192 v -1.041 c 0,-0.279 0.006,-0.5 0.021,-0.657 a 0.979,0.979 0 0 1 0.125,-0.41 0.776,0.776 0 0 1 0.291,-0.289 0.833,0.833 0 0 1 0.426,-0.111 0.852,0.852 0 0 1 0.6,0.248 0.733,0.733 0 0 1 0.225,0.4 3.756,3.756 0 0 1 0.047,0.676 v 1.182 h 0.635 a 0.81,0.81 0 0 1 0.562,0.174 0.574,0.574 0 0 1 0.194,0.447 0.5,0.5 0 0 1 -0.278,0.489 1.788,1.788 0 0 1 -0.79,0.14 H 74.84 v 3.189 a 5.185,5.185 0 0 0 0.028,0.625 0.646,0.646 0 0 0 0.153,0.356 0.52,0.52 0 0 0 0.4,0.137 2.158,2.158 0 0 0 0.413,-0.054 2.154,2.154 0 0 1 0.406,-0.055 0.521,0.521 0 0 1 0.377,0.169 0.561,0.561 0 0 1 0.168,0.415 0.7,0.7 0 0 1 -0.457,0.642 3.087,3.087 0 0 1 -1.313,0.221 2.282,2.282 0 0 1 -1.232,-0.273 1.26,1.26 0 0 1 -0.548,-0.755 5.115,5.115 0 0 1 -0.131,-1.289 v -3.326 h -0.229 a 0.828,0.828 0 0 1 -0.571,-0.178 0.579,0.579 0 0 1 -0.2,-0.451 0.56,0.56 0 0 1 0.206,-0.447 0.9,0.9 0 0 1 0.606,-0.174 z"
       transform="translate(0.077)"
       stroke-miterlimit="10"
       id="path1631"
       inkscape:connector-curvature="0"
       style="fill:#ffffff;stroke:#ffffff;stroke-width:0.5;stroke-miterlimit:10" />
    <path
       d="m 83,35.512 a 2.011,2.011 0 0 1 -1.381,2 4.639,4.639 0 0 1 -1.66,0.261 4.041,4.041 0 0 1 -1.6,-0.285 2.328,2.328 0 0 1 -0.984,-0.714 1.436,1.436 0 0 1 -0.317,-0.86 0.665,0.665 0 0 1 0.2,-0.488 0.694,0.694 0 0 1 0.514,-0.2 0.6,0.6 0 0 1 0.419,0.132 1.5,1.5 0 0 1 0.28,0.375 1.9,1.9 0 0 0 0.637,0.692 1.929,1.929 0 0 0 1.013,0.228 1.476,1.476 0 0 0 0.854,-0.23 0.653,0.653 0 0 0 0.333,-0.53 0.72,0.72 0 0 0 -0.346,-0.666 4.184,4.184 0 0 0 -1.14,-0.4 9.5,9.5 0 0 1 -1.457,-0.467 2.392,2.392 0 0 1 -0.9,-0.644 1.476,1.476 0 0 1 -0.337,-0.984 1.724,1.724 0 0 1 0.312,-0.983 2.131,2.131 0 0 1 0.917,-0.74 3.514,3.514 0 0 1 1.463,-0.276 4.757,4.757 0 0 1 1.209,0.14 3.044,3.044 0 0 1 0.9,0.375 1.851,1.851 0 0 1 0.546,0.521 1.023,1.023 0 0 1 0.186,0.558 0.644,0.644 0 0 1 -0.2,0.489 A 0.794,0.794 0 0 1 81.9,33 0.7,0.7 0 0 1 81.445,32.848 3.022,3.022 0 0 1 81.017,32.391 1.576,1.576 0 0 0 80.554,31.983 1.468,1.468 0 0 0 79.83,31.831 a 1.422,1.422 0 0 0 -0.781,0.2 0.584,0.584 0 0 0 -0.311,0.5 0.538,0.538 0 0 0 0.228,0.447 1.891,1.891 0 0 0 0.616,0.29 c 0.259,0.076 0.615,0.168 1.067,0.279 a 5.727,5.727 0 0 1 1.317,0.47 2.181,2.181 0 0 1 0.773,0.644 1.427,1.427 0 0 1 0.261,0.851 z"
       transform="translate(0.077)"
       stroke-miterlimit="10"
       id="path1633"
       inkscape:connector-curvature="0"
       style="fill:#ffffff;stroke:#ffffff;stroke-width:0.5;stroke-miterlimit:10" />
    <path
       d="m 86.747,35 h -2.006 a 1.008,1.008 0 0 1 -0.694,-0.213 0.7,0.7 0 0 1 -0.238,-0.549 0.716,0.716 0 0 1 0.232,-0.555 1.007,1.007 0 0 1 0.7,-0.212 h 2.006 a 1.01,1.01 0 0 1 0.7,0.213 0.776,0.776 0 0 1 0,1.1 1,1 0 0 1 -0.7,0.216 z"
       transform="translate(0.077)"
       stroke-miterlimit="10"
       id="path1635"
       inkscape:connector-curvature="0"
       style="fill:#ffffff;stroke:#ffffff;stroke-width:0.5;stroke-miterlimit:10" />
    <path
       d="m 14.369,51.056 v 0.209 a 3.41,3.41 0 0 1 1.016,-0.885 2.479,2.479 0 0 1 1.193,-0.283 2.756,2.756 0 0 1 1.473,0.413 2.835,2.835 0 0 1 1.062,1.206 4.2,4.2 0 0 1 0.387,1.884 4.586,4.586 0 0 1 -0.226,1.469 3.284,3.284 0 0 1 -0.619,1.124 2.711,2.711 0 0 1 -0.93,0.7 2.745,2.745 0 0 1 -1.153,0.244 2.416,2.416 0 0 1 -1.247,-0.3 3.562,3.562 0 0 1 -0.961,-0.876 v 2.6 q 0,1.142 -0.832,1.141 a 0.664,0.664 0 0 1 -0.646,-0.3 1.856,1.856 0 0 1 -0.158,-0.86 v -7.475 a 1.089,1.089 0 0 1 0.216,-0.739 0.748,0.748 0 0 1 0.59,-0.244 0.782,0.782 0 0 1 0.6,0.251 1.026,1.026 0 0 1 0.235,0.721 z m 3.395,2.519 a 2.956,2.956 0 0 0 -0.209,-1.177 1.72,1.72 0 0 0 -0.58,-0.755 1.388,1.388 0 0 0 -0.822,-0.263 1.539,1.539 0 0 0 -1.209,0.564 2.461,2.461 0 0 0 -0.493,1.663 2.4,2.4 0 0 0 0.489,1.61 1.53,1.53 0 0 0 1.213,0.574 1.389,1.389 0 0 0 0.8,-0.251 1.713,1.713 0 0 0 0.591,-0.752 2.983,2.983 0 0 0 0.22,-1.213 z"
       transform="translate(0.077)"
       stroke-miterlimit="10"
       id="path1637"
       inkscape:connector-curvature="0"
       style="fill:#ffffff;stroke:#ffffff;stroke-width:0.5;stroke-miterlimit:10" />
    <path
       d="m 20.894,56.078 v -7.515 a 1.168,1.168 0 0 1 0.232,-0.788 0.787,0.787 0 0 1 0.625,-0.267 0.823,0.823 0 0 1 0.635,0.263 1.144,1.144 0 0 1 0.24,0.792 v 7.515 a 1.131,1.131 0 0 1 -0.245,0.79 0.822,0.822 0 0 1 -0.632,0.263 0.783,0.783 0 0 1 -0.619,-0.273 1.148,1.148 0 0 1 -0.236,-0.78 z"
       transform="translate(0.077)"
       stroke-miterlimit="10"
       id="path1639"
       inkscape:connector-curvature="0"
       style="fill:#ffffff;stroke:#ffffff;stroke-width:0.5;stroke-miterlimit:10" />
    <path
       d="m 28.8,56.155 a 5.418,5.418 0 0 1 -1.217,0.733 3.388,3.388 0 0 1 -1.316,0.244 2.5,2.5 0 0 1 -1.172,-0.264 1.928,1.928 0 0 1 -0.777,-0.714 1.854,1.854 0 0 1 -0.273,-0.978 1.755,1.755 0 0 1 0.45,-1.212 2.255,2.255 0 0 1 1.239,-0.673 c 0.11,-0.025 0.382,-0.081 0.819,-0.171 0.437,-0.09 0.81,-0.17 1.12,-0.244 0.31,-0.074 0.649,-0.164 1.013,-0.27 A 1.791,1.791 0 0 0 28.409,51.601 1.23,1.23 0 0 0 27.4,51.28 a 2.106,2.106 0 0 0 -0.994,0.184 1.605,1.605 0 0 0 -0.571,0.552 5.723,5.723 0 0 1 -0.338,0.485 0.548,0.548 0 0 1 -0.421,0.117 0.734,0.734 0 0 1 -0.5,-0.187 0.608,0.608 0 0 1 -0.213,-0.48 1.457,1.457 0 0 1 0.324,-0.888 2.306,2.306 0 0 1 1.009,-0.711 4.575,4.575 0 0 1 1.708,-0.279 4.828,4.828 0 0 1 1.8,0.271 1.661,1.661 0 0 1 0.922,0.853 3.717,3.717 0 0 1 0.271,1.549 q 0,0.609 0,1.034 0,0.425 -0.009,0.947 a 3.505,3.505 0 0 0 0.161,1.018 3.091,3.091 0 0 1 0.162,0.683 0.637,0.637 0 0 1 -0.25,0.485 0.84,0.84 0 0 1 -0.569,0.219 0.767,0.767 0 0 1 -0.527,-0.25 3.686,3.686 0 0 1 -0.565,-0.727 z m -0.115,-2.508 a 8.623,8.623 0 0 1 -1.108,0.3 c -0.484,0.1 -0.82,0.18 -1.005,0.229 a 1.381,1.381 0 0 0 -0.534,0.286 0.725,0.725 0 0 0 -0.254,0.592 0.882,0.882 0 0 0 0.3,0.671 1.1,1.1 0 0 0 0.781,0.276 2.037,2.037 0 0 0 0.949,-0.225 1.5,1.5 0 0 0 0.637,-0.581 2.645,2.645 0 0 0 0.235,-1.294 z"
       transform="translate(0.077)"
       stroke-miterlimit="10"
       id="path1641"
       inkscape:connector-curvature="0"
       style="fill:#ffffff;stroke:#ffffff;stroke-width:0.5;stroke-miterlimit:10" />
    <path
       d="m 33.717,51.046 v 0.21 a 3.052,3.052 0 0 1 1,-0.886 2.669,2.669 0 0 1 1.248,-0.282 2.488,2.488 0 0 1 1.225,0.3 1.887,1.887 0 0 1 0.8,0.844 1.954,1.954 0 0 1 0.223,0.687 7.245,7.245 0 0 1 0.051,0.939 v 3.225 a 1.147,1.147 0 0 1 -0.239,0.786 0.79,0.79 0 0 1 -0.619,0.266 0.8,0.8 0 0 1 -0.629,-0.273 1.138,1.138 0 0 1 -0.24,-0.78 v -2.891 a 2.881,2.881 0 0 0 -0.238,-1.31 0.968,0.968 0 0 0 -0.949,-0.454 1.405,1.405 0 0 0 -0.844,0.276 1.6,1.6 0 0 0 -0.559,0.758 5.462,5.462 0 0 0 -0.127,1.447 v 2.172 a 1.131,1.131 0 0 1 -0.245,0.79 0.822,0.822 0 0 1 -0.632,0.263 0.782,0.782 0 0 1 -0.615,-0.273 1.133,1.133 0 0 1 -0.241,-0.78 v -5.009 a 1.089,1.089 0 0 1 0.215,-0.739 0.75,0.75 0 0 1 0.592,-0.244 0.8,0.8 0 0 1 0.412,0.107 0.786,0.786 0 0 1 0.3,0.325 1.136,1.136 0 0 1 0.111,0.526 z"
       transform="translate(0.077)"
       stroke-miterlimit="10"
       id="path1643"
       inkscape:connector-curvature="0"
       style="fill:#ffffff;stroke:#ffffff;stroke-width:0.5;stroke-miterlimit:10" />
    <path
       d="m 44.322,56.158 v -0.222 a 3.888,3.888 0 0 1 -0.654,0.659 2.415,2.415 0 0 1 -0.748,0.4 3.032,3.032 0 0 1 -0.928,0.131 2.391,2.391 0 0 1 -1.126,-0.261 1.893,1.893 0 0 1 -0.77,-0.717 3.159,3.159 0 0 1 -0.324,-1.586 v -3.439 a 1.116,1.116 0 0 1 0.235,-0.777 0.8,0.8 0 0 1 0.622,-0.257 0.821,0.821 0 0 1 0.635,0.26 1.1,1.1 0 0 1 0.241,0.774 V 53.9 a 4.254,4.254 0 0 0 0.1,1.012 1.216,1.216 0 0 0 0.365,0.642 1.047,1.047 0 0 0 0.715,0.231 1.455,1.455 0 0 0 0.824,-0.26 1.509,1.509 0 0 0 0.565,-0.679 5.5,5.5 0 0 0 0.147,-1.613 v -2.11 a 1.1,1.1 0 0 1 0.241,-0.773 0.817,0.817 0 0 1 0.629,-0.26 0.8,0.8 0 0 1 0.621,0.257 1.116,1.116 0 0 1 0.235,0.777 v 5.021 a 1.074,1.074 0 0 1 -0.225,0.743 0.8,0.8 0 0 1 -1.168,-0.01 1.039,1.039 0 0 1 -0.232,-0.72 z"
       transform="translate(0.077)"
       stroke-miterlimit="10"
       id="path1645"
       inkscape:connector-curvature="0"
       style="fill:#ffffff;stroke:#ffffff;stroke-width:0.5;stroke-miterlimit:10" />
    <path
       d="m 49.249,51.048 v 0.21 a 3.041,3.041 0 0 1 1,-0.886 2.693,2.693 0 0 1 1.248,-0.281 2.475,2.475 0 0 1 1.225,0.3 1.9,1.9 0 0 1 0.807,0.844 2.011,2.011 0 0 1 0.222,0.686 7.245,7.245 0 0 1 0.051,0.939 v 3.225 a 1.147,1.147 0 0 1 -0.239,0.787 0.855,0.855 0 0 1 -1.246,-0.007 1.133,1.133 0 0 1 -0.242,-0.78 v -2.891 a 2.894,2.894 0 0 0 -0.238,-1.31 0.967,0.967 0 0 0 -0.949,-0.454 1.4,1.4 0 0 0 -0.844,0.275 1.583,1.583 0 0 0 -0.558,0.758 5.449,5.449 0 0 0 -0.128,1.447 v 2.172 a 1.131,1.131 0 0 1 -0.245,0.79 0.821,0.821 0 0 1 -0.631,0.263 0.789,0.789 0 0 1 -0.617,-0.273 1.138,1.138 0 0 1 -0.241,-0.78 v -5.009 a 1.089,1.089 0 0 1 0.216,-0.739 0.751,0.751 0 0 1 0.591,-0.244 0.8,0.8 0 0 1 0.413,0.107 0.79,0.79 0 0 1 0.3,0.324 1.157,1.157 0 0 1 0.105,0.527 z"
       transform="translate(0.077)"
       stroke-miterlimit="10"
       id="path1647"
       inkscape:connector-curvature="0"
       style="fill:#ffffff;stroke:#ffffff;stroke-width:0.5;stroke-miterlimit:10" />
    <path
       d="m 61.9,51.361 v 5.034 a 5.265,5.265 0 0 1 -0.184,1.485 2.37,2.37 0 0 1 -0.59,1.028 2.487,2.487 0 0 1 -1.064,0.6 5.794,5.794 0 0 1 -1.635,0.2 4.768,4.768 0 0 1 -1.6,-0.251 2.785,2.785 0 0 1 -1.084,-0.648 1.181,1.181 0 0 1 -0.38,-0.816 0.673,0.673 0 0 1 0.214,-0.517 0.746,0.746 0 0 1 0.522,-0.2 0.855,0.855 0 0 1 0.666,0.337 c 0.094,0.115 0.189,0.23 0.289,0.346 a 1.721,1.721 0 0 0 0.33,0.3 1.294,1.294 0 0 0 0.435,0.183 2.549,2.549 0 0 0 0.584,0.061 2.362,2.362 0 0 0 1.044,-0.188 1.061,1.061 0 0 0 0.52,-0.523 2.125,2.125 0 0 0 0.175,-0.721 c 0.017,-0.256 0.029,-0.667 0.039,-1.234 a 2.866,2.866 0 0 1 -0.925,0.851 2.529,2.529 0 0 1 -1.247,0.292 2.631,2.631 0 0 1 -1.52,-0.445 2.854,2.854 0 0 1 -1,-1.245 4.593,4.593 0 0 1 -0.349,-1.847 4.408,4.408 0 0 1 0.214,-1.41 2.94,2.94 0 0 1 0.606,-1.059 2.592,2.592 0 0 1 0.907,-0.65 A 2.857,2.857 0 0 1 58,50.1 a 2.705,2.705 0 0 1 1.276,0.283 3.118,3.118 0 0 1 1,0.884 v -0.234 a 1.013,1.013 0 0 1 0.221,-0.7 0.735,0.735 0 0 1 0.572,-0.247 0.671,0.671 0 0 1 0.666,0.326 2.144,2.144 0 0 1 0.165,0.949 z m -5.022,2.2 a 2.394,2.394 0 0 0 0.459,1.593 1.494,1.494 0 0 0 1.192,0.539 1.553,1.553 0 0 0 0.814,-0.231 1.692,1.692 0 0 0 0.626,-0.7 2.441,2.441 0 0 0 0.241,-1.133 2.6,2.6 0 0 0 -0.466,-1.65 1.487,1.487 0 0 0 -1.228,-0.59 1.443,1.443 0 0 0 -1.191,0.564 2.541,2.541 0 0 0 -0.446,1.604 z"
       transform="translate(0.077)"
       stroke-miterlimit="10"
       id="path1649"
       inkscape:connector-curvature="0"
       style="fill:#ffffff;stroke:#ffffff;stroke-width:0.5;stroke-miterlimit:10" />
  </g>
</svg>
