<?xml version="1.0" encoding="UTF-8" standalone="no"?>
<svg
   xmlns:dc="http://purl.org/dc/elements/1.1/"
   xmlns:cc="http://creativecommons.org/ns#"
   xmlns:rdf="http://www.w3.org/1999/02/22-rdf-syntax-ns#"
   xmlns:svg="http://www.w3.org/2000/svg"
   xmlns="http://www.w3.org/2000/svg"
   xmlns:xlink="http://www.w3.org/1999/xlink"
   xmlns:sodipodi="http://sodipodi.sourceforge.net/DTD/sodipodi-0.dtd"
   xmlns:inkscape="http://www.inkscape.org/namespaces/inkscape"
   viewBox="0 0 99.6 89"
   version="1.1"
   id="svg1361"
   sodipodi:docname="D9_job_hover.svg"
   inkscape:version="0.92.4 (5da689c313, 2019-01-14)">
  <metadata
     id="metadata1365">
    <rdf:RDF>
      <cc:Work
         rdf:about="">
        <dc:format>image/svg+xml</dc:format>
        <dc:type
           rdf:resource="http://purl.org/dc/dcmitype/StillImage" />
        <dc:title>C1_faq</dc:title>
      </cc:Work>
    </rdf:RDF>
  </metadata>
  <sodipodi:namedview
     pagecolor="#ffffff"
     bordercolor="#666666"
     borderopacity="1"
     objecttolerance="10"
     gridtolerance="10"
     guidetolerance="10"
     inkscape:pageopacity="0"
     inkscape:pageshadow="2"
     inkscape:window-width="1920"
     inkscape:window-height="1018"
     id="namedview1363"
     showgrid="false"
     inkscape:zoom="3"
     inkscape:cx="-20.300003"
     inkscape:cy="44.5"
     inkscape:window-x="1912"
     inkscape:window-y="-8"
     inkscape:window-maximized="1"
     inkscape:current-layer="svg1361" />
  <defs
     id="defs1103">
    <clipPath
       id="clip-path"
       transform="translate(0.05)">
      <rect
         x="3.193"
         y="3.073"
         width="92.076"
         height="79.376"
         rx="7.091"
         fill="none"
         id="rect1091" />
    </clipPath>
    <clipPath
       id="clip-path-2"
       transform="translate(0.05)">
      <rect
         x="0.307"
         y="0.186"
         width="97.848"
         height="85.146"
         fill="none"
         id="rect1094" />
    </clipPath>
    <clipPath
       id="clip-path-4"
       transform="translate(0.05)">
      <rect
         x="2.893"
         y="3.07"
         width="92.076"
         height="79.376"
         rx="7.091"
         fill="none"
         id="rect1097" />
    </clipPath>
    <clipPath
       id="clip-path-5"
       transform="translate(0.05)">
      <rect
         x="0.007"
         y="0.183"
         width="97.848"
         height="85.146"
         fill="none"
         id="rect1100" />
    </clipPath>
    <linearGradient
       gradientTransform="matrix(0.80065364,0,0,0.80941636,0.26060764,-0.46404563)"
       inkscape:collect="always"
       xlink:href="#linearGradient1175"
       id="linearGradient1177"
       x1="103.59147"
       y1="88.713524"
       x2="13.732"
       y2="13.404"
       gradientUnits="userSpaceOnUse" />
    <clipPath
       id="clip-path-9"
       transform="translate(0.33)">
      <rect
         style="fill:none"
         x="3.1930001"
         y="3.073"
         width="92.075996"
         height="79.375999"
         rx="7.0910001"
         id="rect11685" />
    </clipPath>
    <clipPath
       id="clip-path-2-6"
       transform="translate(0.33)">
      <rect
         style="fill:none"
         x="0.30700001"
         y="0.186"
         width="97.848"
         height="85.146004"
         id="rect11688" />
    </clipPath>
    <clipPath
       id="clipPath2315"
       transform="translate(0.33)">
      <rect
         style="fill:none"
         x="0.30700001"
         y="0.186"
         width="97.848"
         height="85.146004"
         id="rect2313" />
    </clipPath>
    <clipPath
       id="clip-path-4-5"
       transform="translate(0.33)">
      <rect
         style="fill:none"
         x="2.8929999"
         y="3.0699999"
         width="92.075996"
         height="79.375999"
         rx="7.0910001"
         id="rect11691" />
    </clipPath>
    <clipPath
       id="clip-path-5-5"
       transform="translate(0.33)">
      <rect
         style="fill:none"
         x="0.0070000002"
         y="0.183"
         width="97.848"
         height="85.146004"
         id="rect11694" />
    </clipPath>
    <clipPath
       id="clipPath2323"
       transform="translate(0.33)">
      <rect
         style="fill:none"
         x="0.0070000002"
         y="0.183"
         width="97.848"
         height="85.146004"
         id="rect2321" />
    </clipPath>
    <linearGradient
       id="Unbenannter_Verlauf_7"
       data-name="Unbenannter Verlauf 7"
       x1="12.97"
       y1="17.229"
       x2="88.521004"
       y2="70.970001"
       gradientTransform="rotate(0.009,1548.077,743380.79)"
       gradientUnits="userSpaceOnUse">
      <stop
         offset="0.002"
         stop-color="#5c6cba"
         id="stop13422" />
      <stop
         offset="0.081"
         stop-color="#5767b6"
         id="stop13424" />
      <stop
         offset="0.389"
         stop-color="#4859aa"
         id="stop13426" />
      <stop
         offset="0.983"
         stop-color="#4253a2"
         id="stop13428" />
    </linearGradient>
    <clipPath
       id="clip-path-4-1"
       transform="translate(0.077)">
      <rect
         style="fill:none"
         x="3.217"
         y="3.0769999"
         width="92.768997"
         height="79.848999"
         rx="7.1440001"
         id="rect13416" />
    </clipPath>
    <clipPath
       id="clip-path-5-1"
       transform="translate(0.077)">
      <rect
         style="fill:none"
         x="0.30899999"
         y="0.17299999"
         width="98.584999"
         height="85.653"
         id="rect13419" />
    </clipPath>
    <clipPath
       id="clipPath3536"
       transform="translate(0.077)">
      <rect
         style="fill:none"
         x="0.30899999"
         y="0.17299999"
         width="98.584999"
         height="85.653"
         id="rect3534" />
    </clipPath>
    <clipPath
       id="clip-path-8"
       transform="translate(0.077)">
      <rect
         style="fill:none"
         x="2.915"
         y="3.0739999"
         width="92.768997"
         height="79.848999"
         rx="7.1440001"
         id="rect13410" />
    </clipPath>
    <clipPath
       id="clip-path-2-8"
       transform="translate(0.077)">
      <rect
         style="fill:none"
         x="0.0070000002"
         y="0.17"
         width="98.584999"
         height="85.653"
         id="rect13413" />
    </clipPath>
    <clipPath
       id="clipPath3544"
       transform="translate(0.077)">
      <rect
         style="fill:none"
         x="0.0070000002"
         y="0.17"
         width="98.584999"
         height="85.653"
         id="rect3542" />
    </clipPath>
    <linearGradient
       inkscape:collect="always"
       id="linearGradient1175">
      <stop
         style="stop-color:#2d528b;stop-opacity:1"
         offset="0"
         id="stop1171-0" />
      <stop
         style="stop-color:#385f9c;stop-opacity:1"
         offset="1"
         id="stop1173-3" />
    </linearGradient>
  </defs>
  <title
     id="title1105">C1_faq</title>
  <rect
     x="0.60000002"
     width="99"
     height="89"
     id="rect1107"
     y="0"
     style="isolation:isolate;fill:#ffffff" />
  <g
     id="g1213"
     style="opacity:0.3;isolation:isolate;mix-blend-mode:multiply"
     transform="matrix(0.98414881,0,0,0.98215347,1.5453956,1.5520417)">
    <path
       style="fill:#ffffff"
       inkscape:connector-curvature="0"
       id="path1109"
       transform="translate(0.05)"
       d="m 97.444,78.891 c 0,4.44 -3.984,8.044 -8.9,8.046 l -74.888,0.029 c -4.917,0 -8.9,-3.6 -8.9,-8.039 L 4.729,11.248 c 0,-4.444 3.98,-8.047 8.9,-8.048 L 88.517,3.17 c 4.913,0 8.9,3.6 8.9,8.042 z" />
    <path
       style="fill:#fefeff"
       inkscape:connector-curvature="0"
       id="path1111"
       transform="translate(0.05)"
       d="m 97.379,78.829 c 0,4.437 -3.982,8.038 -8.894,8.04 L 13.621,86.9 c -4.916,0 -8.9,-3.6 -8.9,-8.033 L 4.694,11.241 c 0,-4.438 3.94,-8.036 8.859,-8.045 l 74.9,-0.026 c 4.912,0 8.9,3.6 8.9,8.035 z" />
    <path
       style="fill:#fdfdff"
       inkscape:connector-curvature="0"
       id="path1113"
       transform="translate(0.05)"
       d="m 97.315,78.768 c 0,4.433 -3.981,8.031 -8.891,8.033 l -74.841,0.03 c -4.914,0 -8.9,-3.594 -8.9,-8.027 L 4.659,11.235 c 0,-4.432 3.9,-8.027 8.821,-8.042 L 88.391,3.17 c 4.91,0 8.9,3.592 8.9,8.029 z" />
    <path
       style="fill:#fcfcff"
       inkscape:connector-curvature="0"
       id="path1115"
       transform="translate(0.05)"
       d="m 97.251,78.707 c 0,4.429 -3.98,8.025 -8.889,8.026 l -74.817,0.03 c -4.913,0 -8.893,-3.591 -8.895,-8.02 L 4.623,11.228 c 0,-4.426 3.862,-8.016 8.784,-8.039 L 88.329,3.17 c 4.909,0 8.893,3.589 8.9,8.022 z" />
    <path
       style="fill:#fcfcff"
       inkscape:connector-curvature="0"
       id="path1117"
       transform="translate(0.05)"
       d="m 97.186,78.645 c 0,4.426 -3.979,8.019 -8.886,8.021 L 13.507,86.7 C 8.596,86.7 4.616,83.112 4.615,78.686 L 4.588,11.222 C 4.6,6.8 8.411,3.215 13.334,3.186 L 88.267,3.171 c 4.908,0 8.891,3.586 8.893,8.015 z" />
    <path
       style="fill:#fbfbff"
       inkscape:connector-curvature="0"
       id="path1119"
       transform="translate(0.05)"
       d="m 97.122,78.584 c 0,4.422 -3.978,8.012 -8.883,8.014 L 13.468,86.627 C 8.56,86.627 4.581,83.042 4.579,78.62 L 4.553,11.22 c 0.009,-4.415 3.783,-8 8.708,-8.033 L 88.206,3.176 c 4.906,0 8.888,3.583 8.889,8.008 z" />
    <path
       style="fill:#fafaff"
       inkscape:connector-curvature="0"
       id="path1121"
       transform="translate(0.05)"
       d="m 97.057,78.522 c 0,4.419 -3.976,8.006 -8.88,8.008 L 13.43,86.559 c -4.907,0 -8.884,-3.582 -8.886,-8 L 4.518,11.209 c 0.01,-4.41 3.744,-7.987 8.67,-8.03 L 88.144,3.171 c 4.9,0 8.885,3.58 8.887,8 z" />
    <path
       style="fill:#f9f9ff"
       inkscape:connector-curvature="0"
       id="path1123"
       transform="translate(0.05)"
       d="m 96.993,78.461 c 0,4.415 -3.975,8 -8.878,8 L 13.392,86.49 c -4.9,0 -8.881,-3.579 -8.883,-7.994 L 4.482,11.2 c 0.013,-4.4 3.7,-7.976 8.633,-8.027 h 74.968 c 4.9,0 8.882,3.577 8.883,8 z" />
    <path
       style="fill:#f8f8ff"
       inkscape:connector-curvature="0"
       id="path1125"
       transform="translate(0.05)"
       d="m 96.929,78.4 c 0,4.412 -3.974,7.993 -8.875,8 l -74.7,0.029 c -4.9,0 -8.879,-3.576 -8.88,-7.988 L 4.447,11.2 C 4.462,6.8 8.113,3.233 13.042,3.176 h 74.979 c 4.9,0 8.879,3.574 8.881,7.989 z" />
    <path
       style="fill:#f7f7fe"
       inkscape:connector-curvature="0"
       id="path1127"
       transform="translate(0.05)"
       d="m 96.864,78.338 c 0,4.408 -3.972,7.986 -8.872,7.988 l -74.676,0.029 c -4.9,0 -8.876,-3.573 -8.878,-7.981 L 4.412,11.189 C 4.429,6.8 8.038,3.232 12.969,3.168 h 74.99 c 4.9,0 8.877,3.571 8.879,7.982 z" />
    <path
       style="fill:#f7f7fe"
       inkscape:connector-curvature="0"
       id="path1129"
       transform="translate(0.05)"
       d="m 96.8,78.276 c 0,4.405 -3.971,7.98 -8.87,7.982 l -74.652,0.029 c -4.9,0 -8.873,-3.57 -8.875,-7.975 L 4.377,11.183 C 4.4,6.8 7.964,3.236 12.9,3.165 l 75,0.006 c 4.9,0 8.874,3.568 8.875,7.976 z" />
    <path
       style="fill:#f6f6fe"
       inkscape:connector-curvature="0"
       id="path1131"
       transform="translate(0.05)"
       d="m 96.735,78.215 c 0,4.4 -3.969,7.973 -8.866,7.975 L 13.24,86.219 c -4.9,0 -8.87,-3.567 -8.872,-7.968 L 4.342,11.176 C 4.363,6.796 7.889,3.239 12.823,3.161 l 75.013,0.01 c 4.9,0 8.871,3.565 8.873,7.969 z" />
    <path
       style="fill:#f5f5fe"
       inkscape:connector-curvature="0"
       id="path1133"
       transform="translate(0.05)"
       d="m 96.671,78.153 c 0,4.4 -3.969,7.967 -8.864,7.969 l -74.6,0.029 c -4.9,0 -8.868,-3.564 -8.869,-7.962 L 4.306,11.17 C 4.33,6.8 7.815,3.243 12.75,3.158 l 75.024,0.013 c 4.9,0 8.869,3.562 8.87,7.963 z" />
    <path
       style="fill:#f4f4fe"
       inkscape:connector-curvature="0"
       id="path1135"
       transform="translate(0.05)"
       d="m 96.606,78.092 c 0,4.394 -3.967,7.96 -8.861,7.962 l -74.581,0.029 c -4.9,0 -8.865,-3.561 -8.867,-7.955 L 4.271,11.163 C 4.3,6.794 7.74,3.246 12.677,3.154 l 75.036,0.017 c 4.894,0 8.865,3.56 8.867,7.957 z" />
    <path
       style="fill:#f3f3fe"
       inkscape:connector-curvature="0"
       id="path1137"
       transform="translate(0.05)"
       d="m 96.542,78.031 c 0,4.39 -3.966,7.953 -8.858,7.955 l -74.558,0.029 c -4.895,0 -8.862,-3.558 -8.864,-7.949 L 4.236,11.157 C 4.263,6.793 7.666,3.25 12.6,3.151 l 75.047,0.02 c 4.893,0 8.863,3.557 8.865,7.95 z" />
    <path
       style="fill:#f2f2fe"
       inkscape:connector-curvature="0"
       id="path1139"
       transform="translate(0.05)"
       d="m 96.478,77.969 c 0,4.387 -3.965,7.948 -8.856,7.949 l -74.535,0.029 c -4.892,0 -8.858,-3.555 -8.86,-7.942 L 4.2,11.15 c 0.029,-4.358 3.39,-7.9 8.33,-8 l 75.058,0.024 c 4.891,0 8.861,3.554 8.862,7.944 z" />
    <path
       style="fill:#f2f2fe"
       inkscape:connector-curvature="0"
       id="path1141"
       transform="translate(0.05)"
       d="m 96.413,77.908 c 0,4.383 -3.963,7.941 -8.853,7.942 l -74.511,0.029 c -4.89,0 -8.856,-3.552 -8.857,-7.936 l -0.027,-66.8 c 0.032,-4.352 3.352,-7.887 8.293,-8 l 75.07,0.027 c 4.889,0 8.857,3.551 8.859,7.937 z" />
    <path
       style="fill:#f1f1fe"
       inkscape:connector-curvature="0"
       id="path1143"
       transform="translate(0.05)"
       d="m 96.349,77.846 c 0,4.38 -3.962,7.935 -8.85,7.937 l -74.488,0.029 c -4.889,0 -8.853,-3.55 -8.855,-7.93 L 4.13,11.137 c 0.034,-4.346 3.312,-7.877 8.254,-8 l 75.082,0.031 c 4.888,0 8.855,3.548 8.857,7.931 z" />
    <path
       style="fill:#f0f0fe"
       inkscape:connector-curvature="0"
       id="path1145"
       transform="translate(0.05)"
       d="m 96.284,77.785 c 0,4.376 -3.96,7.928 -8.847,7.93 l -74.464,0.029 c -4.887,0 -8.85,-3.547 -8.852,-7.923 L 4.1,11.131 C 4.136,6.79 7.373,3.263 12.316,3.137 L 87.41,3.171 c 4.886,0 8.851,3.545 8.853,7.924 z" />
    <path
       style="fill:#efeffe"
       inkscape:connector-curvature="0"
       id="path1147"
       transform="translate(0.05)"
       d="m 96.22,77.723 c 0,4.373 -3.959,7.922 -8.845,7.924 l -74.44,0.029 c -4.886,0 -8.847,-3.544 -8.849,-7.917 L 4.06,11.124 C 4.1,6.789 7.293,3.267 12.238,3.133 l 75.105,0.038 c 4.885,0 8.849,3.542 8.851,7.918 z" />
    <path
       style="fill:#eeeefe"
       inkscape:connector-curvature="0"
       id="path1149"
       transform="translate(0.05)"
       d="m 96.156,77.662 c 0,4.369 -3.959,7.915 -8.842,7.917 L 12.9,85.608 c -4.884,0 -8.845,-3.541 -8.846,-7.91 L 4.028,11.118 a 7.945,7.945 0 0 1 8.14,-7.988 l 75.116,0.041 c 4.884,0 8.847,3.539 8.848,7.911 z" />
    <path
       style="fill:#ededfe"
       inkscape:connector-curvature="0"
       id="path1151"
       transform="translate(0.05)"
       d="m 96.091,77.6 c 0,4.366 -3.957,7.909 -8.839,7.911 L 12.859,85.54 c -4.883,0 -8.842,-3.538 -8.844,-7.9 L 3.989,11.111 a 7.919,7.919 0 0 1 8.1,-7.985 l 75.128,0.045 c 4.882,0 8.843,3.536 8.845,7.905 z" />
    <path
       style="fill:#ececfe"
       inkscape:connector-curvature="0"
       id="path1153"
       transform="translate(0.05)"
       d="m 96.027,77.539 c 0,4.362 -3.956,7.9 -8.837,7.9 l -74.369,0.029 c -4.881,0 -8.839,-3.535 -8.841,-7.9 L 3.954,11.098 a 7.891,7.891 0 0 1 8.065,-7.982 l 75.139,0.048 c 4.881,0 8.841,3.534 8.843,7.9 z" />
    <path
       style="fill:#ececfe"
       inkscape:connector-curvature="0"
       id="path1155"
       transform="translate(0.05)"
       d="m 95.962,77.478 c 0,4.358 -3.954,7.9 -8.833,7.9 L 12.783,85.4 c -4.88,0 -8.836,-3.532 -8.838,-7.891 L 3.919,11.1 a 7.864,7.864 0 0 1 8.027,-7.979 l 75.15,0.052 c 4.88,0 8.838,3.531 8.84,7.892 z" />
    <path
       style="fill:#ebebfe"
       inkscape:connector-curvature="0"
       id="path1157"
       transform="translate(0.05)"
       d="m 95.9,77.416 c 0,4.355 -3.953,7.889 -8.831,7.891 l -74.322,0.029 c -4.878,0 -8.834,-3.529 -8.835,-7.884 L 3.886,11.092 a 7.837,7.837 0 0 1 7.989,-7.976 l 75.162,0.055 c 4.877,0 8.835,3.528 8.837,7.885 z" />
    <path
       style="fill:#eaeafe"
       inkscape:connector-curvature="0"
       id="path1159"
       transform="translate(0.05)"
       d="m 95.834,77.355 c 0,4.351 -3.952,7.882 -8.829,7.884 l -74.3,0.029 c -4.876,0 -8.83,-3.526 -8.831,-7.878 L 3.848,11.085 A 7.812,7.812 0 0 1 11.8,3.112 l 75.173,0.059 c 4.876,0 8.833,3.525 8.834,7.879 z" />
    <path
       style="fill:#e9e9fd"
       inkscape:connector-curvature="0"
       id="path1161"
       transform="translate(0.05)"
       d="m 95.769,77.293 c 0,4.348 -3.95,7.876 -8.825,7.878 L 12.668,85.2 C 7.794,85.2 3.841,81.677 3.839,77.329 L 3.813,11.079 a 7.784,7.784 0 0 1 7.914,-7.97 l 75.184,0.062 c 4.875,0 8.83,3.522 8.832,7.872 z" />
    <path
       style="fill:#e8e8fd"
       inkscape:connector-curvature="0"
       id="path1163"
       transform="translate(0.05)"
       d="m 95.705,77.232 c 0,4.344 -3.95,7.869 -8.823,7.871 L 12.63,85.132 c -4.872,0 -8.824,-3.52 -8.826,-7.865 L 3.778,11.072 a 7.758,7.758 0 0 1 7.876,-7.967 l 75.2,0.066 c 4.873,0 8.827,3.519 8.829,7.866 z" />
    <path
       style="fill:#e7e7fd"
       inkscape:connector-curvature="0"
       id="path1165"
       transform="translate(0.05)"
       d="m 95.64,77.17 c 0,4.341 -3.948,7.864 -8.82,7.865 l -74.228,0.029 c -4.871,0 -8.822,-3.517 -8.823,-7.858 L 3.743,11.066 A 7.73,7.73 0 0 1 11.581,3.1 l 75.207,0.069 c 4.872,0 8.824,3.516 8.826,7.859 z" />
    <path
       style="fill:#e7e7fd"
       inkscape:connector-curvature="0"
       id="path1167"
       transform="translate(0.05)"
       d="m 95.576,77.109 c 0,4.337 -3.947,7.857 -8.817,7.859 L 12.554,85 C 7.685,85 3.735,81.486 3.734,77.148 L 3.707,11.059 a 7.7,7.7 0 0 1 7.8,-7.961 l 75.219,0.073 c 4.87,0 8.821,3.513 8.823,7.853 z" />
    <path
       style="fill:#e6e6fd"
       inkscape:connector-curvature="0"
       id="path1169"
       transform="translate(0.05)"
       d="m 95.511,77.047 c 0,4.334 -3.945,7.851 -8.814,7.853 L 12.516,84.928 C 7.648,84.928 3.7,81.417 3.698,77.083 L 3.672,11.053 A 7.678,7.678 0 0 1 11.435,3.1 l 75.23,0.076 c 4.869,0 8.819,3.51 8.82,7.846 z" />
    <path
       style="fill:#e5e5fd"
       inkscape:connector-curvature="0"
       id="path1171"
       transform="translate(0.05)"
       d="m 95.447,76.986 c 0,4.331 -3.944,7.844 -8.812,7.846 L 12.478,84.86 c -4.866,0 -8.813,-3.508 -8.815,-7.838 L 3.637,11.046 a 7.652,7.652 0 0 1 7.725,-7.955 l 75.241,0.08 c 4.868,0 8.816,3.508 8.818,7.84 z" />
    <path
       style="fill:#e4e4fd"
       inkscape:connector-curvature="0"
       id="path1173"
       transform="translate(0.05)"
       d="m 95.383,76.924 c 0,4.328 -3.943,7.838 -8.809,7.84 L 12.44,84.793 c -4.865,0 -8.811,-3.506 -8.812,-7.833 L 3.6,11.04 C 3.665,6.779 6.323,3.312 11.287,3.088 L 86.54,3.171 c 4.866,0 8.813,3.505 8.815,7.833 z" />
    <path
       style="fill:#e3e3fd"
       inkscape:connector-curvature="0"
       id="path1175"
       transform="translate(0.05)"
       d="m 95.318,76.863 c 0,4.324 -3.941,7.831 -8.806,7.833 l -74.11,0.029 c -4.863,0 -8.808,-3.5 -8.809,-7.826 L 3.567,11.033 C 3.634,6.778 6.251,3.315 11.216,3.084 L 86.48,3.171 c 4.865,0 8.811,3.5 8.812,7.827 z" />
    <path
       style="fill:#e2e2fd"
       inkscape:connector-curvature="0"
       id="path1177"
       transform="translate(0.05)"
       d="m 95.254,76.8 c 0,4.32 -3.94,7.824 -8.8,7.826 l -74.086,0.029 c -4.862,0 -8.8,-3.5 -8.807,-7.82 L 3.535,11.025 C 3.605,6.775 6.18,3.317 11.147,3.079 l 75.275,0.09 c 4.863,0 8.808,3.5 8.81,7.82 z" />
    <path
       style="fill:#e1e1fd"
       inkscape:connector-curvature="0"
       id="path1179"
       transform="translate(0.05)"
       d="m 95.189,76.74 c 0,4.317 -3.939,7.818 -8.8,7.82 l -74.063,0.029 c -4.86,0 -8.8,-3.5 -8.8,-7.813 L 3.5,11.02 C 3.571,6.777 6.106,3.32 11.074,3.077 l 75.287,0.094 c 4.861,0 8.805,3.5 8.806,7.814 z" />
    <path
       style="fill:#e1e1fd"
       inkscape:connector-curvature="0"
       id="path1181"
       transform="translate(0.05)"
       d="m 95.125,76.679 c 0,4.313 -3.938,7.811 -8.8,7.813 l -74.04,0.029 c -4.858,0 -8.8,-3.494 -8.8,-7.807 L 3.459,11.014 C 3.534,6.776 6.027,3.325 11,3.074 l 75.3,0.1 c 4.86,0 8.8,3.493 8.8,7.807 z" />
    <path
       style="fill:#e0e0fd"
       inkscape:connector-curvature="0"
       id="path1183"
       transform="translate(0.05)"
       d="m 95.061,76.617 c 0,4.31 -3.937,7.8 -8.8,7.807 l -74.017,0.029 c -4.856,0 -8.8,-3.491 -8.8,-7.8 L 3.426,11.007 C 3.501,6.775 5.953,3.329 10.926,3.07 l 75.309,0.1 c 4.859,0 8.8,3.49 8.8,7.8 z" />
    <path
       style="fill:#dfdffd"
       inkscape:connector-curvature="0"
       id="path1185"
       transform="translate(0.05)"
       d="m 95,76.556 c 0,4.306 -3.935,7.8 -8.792,7.8 l -73.993,0.029 c -4.854,0 -8.793,-3.488 -8.795,-7.794 L 3.39,11 C 3.468,6.773 5.878,3.331 10.851,3.066 l 75.321,0.1 c 4.857,0 8.8,3.487 8.8,7.794 z" />
    <path
       style="fill:#dedefd"
       inkscape:connector-curvature="0"
       id="path1187"
       transform="translate(0.05)"
       d="m 94.932,76.494 c 0,4.3 -3.934,7.792 -8.79,7.794 l -73.969,0.029 c -4.853,0 -8.79,-3.485 -8.792,-7.787 L 3.355,10.994 C 3.435,6.773 5.804,3.336 10.778,3.063 L 86.11,3.171 c 4.856,0 8.794,3.484 8.8,7.788 z" />
    <path
       style="fill:#ddddfd"
       inkscape:connector-curvature="0"
       id="path1189"
       transform="translate(0.05)"
       d="m 94.867,76.433 c 0,4.3 -3.932,7.786 -8.786,7.787 l -73.946,0.029 c -4.851,0 -8.787,-3.482 -8.789,-7.781 L 3.32,10.988 C 3.4,6.773 5.729,3.339 10.705,3.06 l 75.344,0.111 c 4.854,0 8.791,3.481 8.792,7.781 z" />
    <path
       style="fill:#dcdcfd"
       inkscape:connector-curvature="0"
       id="path1191"
       transform="translate(0.05)"
       d="m 94.8,76.371 c 0,4.3 -3.931,7.78 -8.784,7.781 L 12.1,84.181 c -4.85,0 -8.785,-3.479 -8.786,-7.774 L 3.285,10.981 C 3.369,6.772 5.655,3.343 10.632,3.056 l 75.355,0.115 c 4.853,0 8.788,3.479 8.79,7.775 z" />
    <path
       style="fill:#dcdcfd"
       inkscape:connector-curvature="0"
       id="path1193"
       transform="translate(0.05)"
       d="m 94.739,76.31 c 0,4.292 -3.93,7.773 -8.782,7.775 l -73.9,0.028 c -4.848,0 -8.782,-3.476 -8.784,-7.768 L 3.247,10.975 c 0.086,-4.2 2.331,-7.629 7.31,-7.922 l 75.366,0.118 c 4.852,0 8.786,3.476 8.788,7.768 z" />
    <path
       style="fill:#dbdbfc"
       inkscape:connector-curvature="0"
       id="path1195"
       transform="translate(0.05)"
       d="m 94.674,76.248 c 0,4.289 -3.929,7.767 -8.778,7.769 l -73.875,0.028 c -4.847,0 -8.779,-3.473 -8.781,-7.761 L 3.214,10.968 C 3.3,6.77 5.506,3.35 10.486,3.049 l 75.378,0.122 c 4.849,0 8.783,3.473 8.784,7.762 z" />
    <path
       style="fill:#dadafc"
       inkscape:connector-curvature="0"
       id="path1197"
       transform="translate(0.05)"
       d="m 94.61,76.187 c 0,4.285 -3.928,7.76 -8.776,7.762 l -73.851,0.028 c -4.845,0 -8.776,-3.47 -8.778,-7.755 L 3.179,10.962 C 3.269,6.77 5.431,3.353 10.413,3.046 L 85.8,3.171 c 4.848,0 8.78,3.47 8.782,7.755 z" />
    <path
       style="fill:#d9d9fc"
       inkscape:connector-curvature="0"
       id="path1199"
       transform="translate(0.05)"
       d="m 94.545,76.126 c 0,4.281 -3.926,7.753 -8.773,7.755 l -73.827,0.028 c -4.844,0 -8.774,-3.467 -8.775,-7.748 L 3.144,10.955 c 0.092,-4.186 2.213,-7.6 7.2,-7.913 l 75.4,0.129 c 4.847,0 8.778,3.467 8.78,7.749 z" />
    <path
       style="fill:#d8d8fc"
       inkscape:connector-curvature="0"
       id="path1201"
       transform="translate(0.05)"
       d="m 94.481,76.064 c 0,4.278 -3.925,7.747 -8.77,7.749 l -73.8,0.028 C 7.07,83.841 3.141,80.377 3.139,76.1 L 3.109,10.949 C 3.2,6.768 5.282,3.36 10.267,3.039 l 75.412,0.132 c 4.845,0 8.774,3.464 8.776,7.742 z" />
    <path
       style="fill:#d7d7fc"
       inkscape:connector-curvature="0"
       id="path1203"
       transform="translate(0.05)"
       d="m 94.416,76 c 0,4.274 -3.923,7.74 -8.767,7.742 l -73.781,0.029 c -4.84,0 -8.767,-3.462 -8.769,-7.736 L 3.073,10.935 C 3.173,6.76 5.208,3.356 10.194,3.028 l 75.423,0.136 c 4.844,0 8.772,3.461 8.774,7.736 z" />
    <path
       style="fill:#d7d7fc"
       inkscape:connector-curvature="0"
       id="path1205"
       transform="translate(0.05)"
       d="m 94.352,75.941 c 0,4.271 -3.922,7.734 -8.765,7.736 L 11.83,83.706 c -4.838,0 -8.764,-3.459 -8.766,-7.729 L 3.038,10.936 c 0.1,-4.17 2.1,-7.569 7.083,-7.9 l 75.434,0.139 c 4.843,0 8.77,3.458 8.771,7.729 z" />
    <path
       style="fill:#d6d6fc"
       inkscape:connector-curvature="0"
       id="path1207"
       transform="translate(0.05)"
       d="m 94.288,75.88 c 0,4.267 -3.921,7.727 -8.762,7.729 l -73.734,0.029 c -4.836,0 -8.762,-3.456 -8.763,-7.723 L 3,10.929 C 3.1,6.766 5.056,3.37 10.045,3.029 l 75.446,0.143 c 4.841,0 8.766,3.455 8.768,7.723 z" />
    <path
       style="fill:#d5d5fc"
       inkscape:connector-curvature="0"
       id="path1209"
       transform="translate(0.05)"
       d="m 94.223,75.818 c 0,4.264 -3.92,7.721 -8.759,7.723 l -73.71,0.029 c -4.835,0 -8.759,-3.453 -8.761,-7.716 L 2.968,10.923 c 0.1,-4.158 2.016,-7.549 7.007,-7.9 l 75.457,0.146 c 4.84,0 8.764,3.453 8.766,7.716 z" />
    <path
       style="opacity:0.3;fill:#d4d4fc"
       inkscape:connector-curvature="0"
       id="path1211"
       transform="translate(0.05)"
       d="m 94.159,75.757 c 0,4.26 -3.919,7.714 -8.757,7.716 L 11.716,83.5 C 6.883,83.5 2.96,80.05 2.958,75.79 L 2.932,10.916 C 3.037,6.764 4.91,3.377 9.9,3.021 l 75.47,0.15 c 4.838,0 8.76,3.45 8.762,7.71 z" />
  </g>
  <rect
     x="3.4360104"
     y="2.7266736"
     width="91.373001"
     height="79.632004"
     rx="7.0361447"
     id="rect9337"
     style="opacity:1;isolation:isolate;fill:url(#linearGradient1177);fill-opacity:1.0;stroke-width:0.80502313" />
  <g
     transform="translate(-1.74235,-0.323888)"
     style="isolation:isolate"
     id="g3579">
    <path
       style="fill:#ffffff;stroke:#ffffff;stroke-width:0.5;stroke-miterlimit:10"
       inkscape:connector-curvature="0"
       id="path3539"
       stroke-miterlimit="10"
       transform="translate(0.3)"
       d="m 26.774,31.175 -0.623,0.476 a 3.393,3.393 0 0 0 -1.238,-1.017 3.617,3.617 0 0 0 -1.587,-0.346 3.5,3.5 0 0 0 -1.751,0.453 3.263,3.263 0 0 0 -1.249,1.22 3.36,3.36 0 0 0 -0.443,1.721 3.23,3.23 0 0 0 0.991,2.412 3.434,3.434 0 0 0 2.5,0.967 3.517,3.517 0 0 0 2.776,-1.3 l 0.623,0.473 A 3.99,3.99 0 0 1 25.3,37.4 a 4.632,4.632 0 0 1 -1.975,0.412 4.1,4.1 0 0 1 -3.271,-1.382 4.17,4.17 0 0 1 -1,-2.815 3.914,3.914 0 0 1 1.217,-2.919 4.2,4.2 0 0 1 3.048,-1.183 4.469,4.469 0 0 1 2,0.437 3.865,3.865 0 0 1 1.455,1.225 z" />
    <path
       style="fill:#ffffff;stroke:#ffffff;stroke-width:0.5;stroke-miterlimit:10"
       inkscape:connector-curvature="0"
       id="path3541"
       stroke-miterlimit="10"
       transform="translate(0.3)"
       d="m 28.235,29.51 h 0.752 v 3.3 a 3.2,3.2 0 0 1 1,-0.9 2.458,2.458 0 0 1 1.188,-0.3 2.076,2.076 0 0 1 1.162,0.333 2.006,2.006 0 0 1 0.75,0.9 4.764,4.764 0 0 1 0.241,1.759 v 3.008 h -0.752 v -2.787 a 7.012,7.012 0 0 0 -0.081,-1.349 1.523,1.523 0 0 0 -0.508,-0.873 1.493,1.493 0 0 0 -0.963,-0.292 1.851,1.851 0 0 0 -1.222,0.451 2.109,2.109 0 0 0 -0.711,1.117 7.728,7.728 0 0 0 -0.109,1.59 v 2.142 H 28.23 Z" />
    <path
       style="fill:#ffffff;stroke:#ffffff;stroke-width:0.5;stroke-miterlimit:10"
       inkscape:connector-curvature="0"
       id="path3543"
       stroke-miterlimit="10"
       transform="translate(0.3)"
       d="m 40.767,31.768 v 5.843 h -0.741 v -1 a 3.241,3.241 0 0 1 -1.06,0.865 2.893,2.893 0 0 1 -1.287,0.289 2.854,2.854 0 0 1 -2.119,-0.9 3.007,3.007 0 0 1 -0.877,-2.188 2.964,2.964 0 0 1 0.885,-2.16 2.891,2.891 0 0 1 2.133,-0.9 2.732,2.732 0 0 1 1.3,0.308 2.935,2.935 0 0 1 1.023,0.918 v -1.075 z m -3.006,0.573 a 2.263,2.263 0 0 0 -2,1.176 2.361,2.361 0 0 0 0,2.36 2.3,2.3 0 0 0 0.85,0.877 2.225,2.225 0 0 0 1.146,0.313 2.365,2.365 0 0 0 1.17,-0.309 2.178,2.178 0 0 0 0.849,-0.843 2.4,2.4 0 0 0 0.3,-1.2 2.326,2.326 0 0 0 -0.668,-1.7 2.214,2.214 0 0 0 -1.647,-0.674 z" />
    <path
       style="fill:#ffffff;stroke:#ffffff;stroke-width:0.5;stroke-miterlimit:10"
       inkscape:connector-curvature="0"
       id="path3545"
       stroke-miterlimit="10"
       transform="translate(0.3)"
       d="m 42.458,31.768 h 0.752 v 1.046 a 3.15,3.15 0 0 1 1,-0.9 2.462,2.462 0 0 1 1.192,-0.3 2.069,2.069 0 0 1 1.163,0.333 2,2 0 0 1 0.75,0.9 4.762,4.762 0 0 1 0.241,1.755 V 37.61 H 46.8 v -2.785 a 7.023,7.023 0 0 0 -0.083,-1.348 1.485,1.485 0 0 0 -0.5,-0.873 1.51,1.51 0 0 0 -0.967,-0.292 1.856,1.856 0 0 0 -1.223,0.45 2.121,2.121 0 0 0 -0.711,1.117 7.79,7.79 0 0 0 -0.108,1.59 v 2.142 h -0.752 z" />
    <path
       style="fill:#ffffff;stroke:#ffffff;stroke-width:0.5;stroke-miterlimit:10"
       inkscape:connector-curvature="0"
       id="path3547"
       stroke-miterlimit="10"
       transform="translate(0.3)"
       d="m 54.838,32.983 -0.6,0.371 a 2.494,2.494 0 0 0 -2.107,-1.026 2.443,2.443 0 0 0 -1.774,0.686 2.243,2.243 0 0 0 -0.7,1.669 2.351,2.351 0 0 0 0.325,1.2 2.271,2.271 0 0 0 0.89,0.876 2.7,2.7 0 0 0 3.371,-0.715 l 0.6,0.393 a 2.823,2.823 0 0 1 -1.125,0.978 3.605,3.605 0 0 1 -1.608,0.348 3.179,3.179 0 0 1 -2.3,-0.882 2.865,2.865 0 0 1 -0.913,-2.143 3.059,3.059 0 0 1 0.427,-1.577 3.017,3.017 0 0 1 1.174,-1.136 3.437,3.437 0 0 1 1.67,-0.407 3.554,3.554 0 0 1 1.121,0.178 3.06,3.06 0 0 1 0.914,0.461 2.5,2.5 0 0 1 0.635,0.726 z" />
    <path
       style="fill:#ffffff;stroke:#ffffff;stroke-width:0.5;stroke-miterlimit:10"
       inkscape:connector-curvature="0"
       id="path3549"
       stroke-miterlimit="10"
       transform="translate(0.3)"
       d="m 61.2,35.675 0.634,0.334 a 3.472,3.472 0 0 1 -0.72,0.988 2.872,2.872 0 0 1 -0.92,0.571 3.2,3.2 0 0 1 -1.156,0.2 A 2.791,2.791 0 0 1 56.802,36.829 3.16,3.16 0 0 1 56,34.707 3.125,3.125 0 0 1 56.683,32.726 2.792,2.792 0 0 1 59,31.62 a 2.883,2.883 0 0 1 2.387,1.133 3.164,3.164 0 0 1 0.645,2 h -5.26 a 2.379,2.379 0 0 0 0.65,1.671 2.077,2.077 0 0 0 1.554,0.65 2.488,2.488 0 0 0 0.869,-0.154 2.308,2.308 0 0 0 0.717,-0.412 3.516,3.516 0 0 0 0.638,-0.833 z m 0,-1.573 A 2.482,2.482 0 0 0 60.763,33.14 2.084,2.084 0 0 0 60,32.56 a 2.318,2.318 0 0 0 -0.994,-0.22 2.137,2.137 0 0 0 -1.479,0.554 2.488,2.488 0 0 0 -0.683,1.207 z" />
    <path
       style="fill:#ffffff;stroke:#ffffff;stroke-width:0.5;stroke-miterlimit:10"
       inkscape:connector-curvature="0"
       id="path3551"
       stroke-miterlimit="10"
       transform="translate(0.3)"
       d="m 63.433,31.771 h 0.752 v 1.047 a 3.14,3.14 0 0 1 1,-0.9 2.464,2.464 0 0 1 1.193,-0.3 2.068,2.068 0 0 1 1.162,0.333 1.982,1.982 0 0 1 0.749,0.9 4.74,4.74 0 0 1 0.241,1.755 v 3.008 h -0.752 v -2.786 a 6.875,6.875 0 0 0 -0.083,-1.349 1.48,1.48 0 0 0 -0.5,-0.873 1.517,1.517 0 0 0 -0.966,-0.292 1.855,1.855 0 0 0 -1.229,0.452 2.1,2.1 0 0 0 -0.712,1.117 7.866,7.866 0 0 0 -0.108,1.59 v 2.142 h -0.752 z" />
    <path
       style="fill:#ffffff;stroke:#ffffff;stroke-width:0.5;stroke-miterlimit:10"
       inkscape:connector-curvature="0"
       id="path3553"
       stroke-miterlimit="10"
       transform="translate(0.3)"
       d="m 79.287,34.7 0.534,0.567 a 12.559,12.559 0 0 1 -0.978,0.789 q 0.323,0.3 0.842,0.814 0.406,0.408 0.7,0.752 h -1.1 l -1.048,-1.08 a 6.776,6.776 0 0 1 -1.6,1.037 3.559,3.559 0 0 1 -1.306,0.242 2.047,2.047 0 0 1 -1.466,-0.525 1.728,1.728 0 0 1 -0.553,-1.309 2.2,2.2 0 0 1 0.374,-1.184 6.91,6.91 0 0 1 1.514,-1.503 7.163,7.163 0 0 1 -0.834,-1.156 1.613,1.613 0 0 1 -0.185,-0.712 1.224,1.224 0 0 1 0.457,-0.977 1.94,1.94 0 0 1 1.31,-0.45 2.041,2.041 0 0 1 0.9,0.2 1.509,1.509 0 0 1 0.623,0.535 1.308,1.308 0 0 1 0.214,0.711 1.609,1.609 0 0 1 -0.28,0.847 5.629,5.629 0 0 1 -1.1,1.146 l 1.2,1.257 0.785,0.8 A 12.048,12.048 0 0 0 79.287,34.7 Z m -3.562,-0.8 a 6.387,6.387 0 0 0 -1.32,1.2 1.478,1.478 0 0 0 -0.312,0.83 1.051,1.051 0 0 0 0.383,0.8 1.348,1.348 0 0 0 0.935,0.346 2.056,2.056 0 0 0 0.823,-0.172 6.6,6.6 0 0 0 1.456,-0.929 L 76.444,34.69 C 76.23,34.463 75.989,34.2 75.725,33.894 Z m 0.1,-1.046 a 3.985,3.985 0 0 0 0.866,-0.875 1.025,1.025 0 0 0 0.2,-0.543 0.578,0.578 0 0 0 -0.266,-0.473 1.155,1.155 0 0 0 -0.709,-0.2 1.089,1.089 0 0 0 -0.684,0.2 0.6,0.6 0 0 0 -0.263,0.482 0.8,0.8 0 0 0 0.107,0.4 6.329,6.329 0 0 0 0.745,1.003 z" />
    <path
       style="fill:#ffffff;stroke:#ffffff;stroke-width:0.5;stroke-miterlimit:10"
       inkscape:connector-curvature="0"
       id="path3555"
       stroke-miterlimit="10"
       transform="translate(0.3)"
       d="m 22.642,49.071 3.682,7.9 h -0.852 l -1.242,-2.6 h -3.405 l -1.23,2.6 h -0.881 l 3.734,-7.9 z m -0.1,1.678 -1.354,2.86 h 2.7 z" />
    <path
       style="fill:#ffffff;stroke:#ffffff;stroke-width:0.5;stroke-miterlimit:10"
       inkscape:connector-curvature="0"
       id="path3557"
       stroke-miterlimit="10"
       transform="translate(0.3)"
       d="m 27.314,48.873 h 0.751 v 8.1 h -0.752 z" />
    <path
       style="fill:#ffffff;stroke:#ffffff;stroke-width:0.5;stroke-miterlimit:10"
       inkscape:connector-curvature="0"
       id="path3559"
       stroke-miterlimit="10"
       transform="translate(0.3)"
       d="m 30.284,48.959 h 0.752 v 2.17 h 1.192 v 0.65 h -1.192 v 5.194 h -0.752 v -5.194 h -1.026 v -0.65 h 1.026 z" />
    <path
       style="fill:#ffffff;stroke:#ffffff;stroke-width:0.5;stroke-miterlimit:10"
       inkscape:connector-curvature="0"
       id="path3561"
       stroke-miterlimit="10"
       transform="translate(0.3)"
       d="m 38.275,55.034 0.634,0.335 a 3.447,3.447 0 0 1 -0.72,0.987 2.893,2.893 0 0 1 -0.92,0.572 3.2,3.2 0 0 1 -1.156,0.2 2.788,2.788 0 0 1 -2.235,-0.937 3.163,3.163 0 0 1 -0.807,-2.12 3.125,3.125 0 0 1 0.683,-1.981 2.794,2.794 0 0 1 2.317,-1.107 2.886,2.886 0 0 1 2.387,1.133 3.175,3.175 0 0 1 0.645,2 h -5.258 a 2.37,2.37 0 0 0 0.65,1.67 2.076,2.076 0 0 0 1.553,0.651 2.481,2.481 0 0 0 0.869,-0.155 2.288,2.288 0 0 0 0.719,-0.412 3.516,3.516 0 0 0 0.639,-0.836 z m 0,-1.573 a 2.489,2.489 0 0 0 -0.438,-0.962 2.079,2.079 0 0 0 -0.76,-0.58 2.33,2.33 0 0 0 -1,-0.22 2.143,2.143 0 0 0 -1.478,0.554 2.5,2.5 0 0 0 -0.684,1.208 z" />
    <path
       style="fill:#ffffff;stroke:#ffffff;stroke-width:0.5;stroke-miterlimit:10"
       inkscape:connector-curvature="0"
       id="path3563"
       stroke-miterlimit="10"
       transform="translate(0.3)"
       d="m 40.22,51.131 h 0.768 v 0.853 a 2.7,2.7 0 0 1 0.726,-0.754 1.423,1.423 0 0 1 0.8,-0.25 1.37,1.37 0 0 1 0.666,0.2 l -0.393,0.633 a 1.048,1.048 0 0 0 -0.4,-0.1 1.086,1.086 0 0 0 -0.726,0.309 A 1.95,1.95 0 0 0 41.13,52.981 9.1,9.1 0 0 0 40.987,55 v 1.977 H 40.22 Z" />
    <path
       style="fill:#ffffff;stroke:#ffffff;stroke-width:0.5;stroke-miterlimit:10"
       inkscape:connector-curvature="0"
       id="path3565"
       stroke-miterlimit="10"
       transform="translate(0.3)"
       d="m 43.814,51.131 h 0.751 v 1.047 a 3.165,3.165 0 0 1 1,-0.9 2.46,2.46 0 0 1 1.192,-0.3 2.081,2.081 0 0 1 1.163,0.333 1.982,1.982 0 0 1 0.749,0.9 4.722,4.722 0 0 1 0.241,1.756 v 3.008 h -0.752 v -2.787 a 6.863,6.863 0 0 0 -0.083,-1.348 1.48,1.48 0 0 0 -0.5,-0.873 1.5,1.5 0 0 0 -0.966,-0.292 1.851,1.851 0 0 0 -1.222,0.451 2.112,2.112 0 0 0 -0.712,1.116 7.723,7.723 0 0 0 -0.108,1.59 v 2.143 h -0.752 z" />
    <path
       style="fill:#ffffff;stroke:#ffffff;stroke-width:0.5;stroke-miterlimit:10"
       inkscape:connector-curvature="0"
       id="path3567"
       stroke-miterlimit="10"
       transform="translate(0.3)"
       d="m 56.345,51.133 v 5.844 H 55.6 v -1 a 3.251,3.251 0 0 1 -1.061,0.864 2.964,2.964 0 0 1 -3.405,-0.609 3.02,3.02 0 0 1 -0.878,-2.19 2.956,2.956 0 0 1 0.887,-2.159 2.883,2.883 0 0 1 2.131,-0.9 2.743,2.743 0 0 1 1.3,0.307 2.946,2.946 0 0 1 1.024,0.918 v -1.075 z m -3.006,0.574 a 2.271,2.271 0 0 0 -2,1.176 2.368,2.368 0 0 0 0,2.36 2.3,2.3 0 0 0 0.852,0.877 2.217,2.217 0 0 0 1.144,0.314 2.356,2.356 0 0 0 1.17,-0.311 2.174,2.174 0 0 0 0.85,-0.843 2.4,2.4 0 0 0 0.3,-1.2 2.322,2.322 0 0 0 -0.668,-1.7 2.213,2.213 0 0 0 -1.648,-0.673 z" />
    <path
       style="fill:#ffffff;stroke:#ffffff;stroke-width:0.5;stroke-miterlimit:10"
       inkscape:connector-curvature="0"
       id="path3569"
       stroke-miterlimit="10"
       transform="translate(0.3)"
       d="m 58.692,48.964 h 0.752 v 2.17 h 1.193 v 0.65 h -1.194 v 5.194 H 58.69 v -5.194 h -1.025 v -0.65 h 1.026 z" />
    <path
       style="fill:#ffffff;stroke:#ffffff;stroke-width:0.5;stroke-miterlimit:10"
       inkscape:connector-curvature="0"
       id="path3571"
       stroke-miterlimit="10"
       transform="translate(0.3)"
       d="m 62.024,48.728 a 0.6,0.6 0 0 1 0.44,0.182 0.6,0.6 0 0 1 0.182,0.441 0.619,0.619 0 0 1 -1.237,0 0.6,0.6 0 0 1 0.182,-0.441 0.589,0.589 0 0 1 0.433,-0.182 z m -0.373,2.406 H 62.4 v 5.844 h -0.752 z" />
    <path
       style="fill:#ffffff;stroke:#ffffff;stroke-width:0.5;stroke-miterlimit:10"
       inkscape:connector-curvature="0"
       id="path3573"
       stroke-miterlimit="10"
       transform="translate(0.3)"
       d="m 63.413,51.135 h 0.8 l 1.961,4.26 1.938,-4.26 h 0.806 l -2.676,5.844 H 66.1 Z" />
    <path
       style="fill:#ffffff;stroke:#ffffff;stroke-width:0.5;stroke-miterlimit:10"
       inkscape:connector-curvature="0"
       id="path3575"
       stroke-miterlimit="10"
       transform="translate(0.3)"
       d="m 74.982,55.04 0.633,0.335 a 3.466,3.466 0 0 1 -0.72,0.987 2.9,2.9 0 0 1 -0.919,0.572 3.234,3.234 0 0 1 -1.157,0.2 2.792,2.792 0 0 1 -2.236,-0.938 3.166,3.166 0 0 1 -0.807,-2.119 3.126,3.126 0 0 1 0.684,-1.981 2.791,2.791 0 0 1 2.316,-1.107 2.885,2.885 0 0 1 2.388,1.133 3.169,3.169 0 0 1 0.645,2 H 70.55 a 2.384,2.384 0 0 0 0.651,1.67 2.074,2.074 0 0 0 1.554,0.651 2.493,2.493 0 0 0 0.869,-0.155 2.277,2.277 0 0 0 0.717,-0.412 3.542,3.542 0 0 0 0.641,-0.836 z m 0,-1.573 a 2.5,2.5 0 0 0 -0.438,-0.962 2.078,2.078 0 0 0 -0.762,-0.58 2.318,2.318 0 0 0 -0.994,-0.22 2.139,2.139 0 0 0 -1.478,0.554 2.485,2.485 0 0 0 -0.684,1.208 z" />
    <path
       style="fill:#ffffff;stroke:#ffffff;stroke-width:0.5;stroke-miterlimit:10"
       inkscape:connector-curvature="0"
       id="path3577"
       stroke-miterlimit="10"
       transform="translate(0.3)"
       d="m 77.211,51.137 h 0.752 v 1.047 a 3.153,3.153 0 0 1 1,-0.9 2.463,2.463 0 0 1 1.192,-0.3 2.079,2.079 0 0 1 1.163,0.333 1.99,1.99 0 0 1 0.749,0.9 4.718,4.718 0 0 1 0.242,1.756 v 3.007 h -0.752 v -2.786 a 6.946,6.946 0 0 0 -0.083,-1.348 1.487,1.487 0 0 0 -0.5,-0.874 1.514,1.514 0 0 0 -0.967,-0.292 1.855,1.855 0 0 0 -1.223,0.451 2.116,2.116 0 0 0 -0.712,1.117 7.717,7.717 0 0 0 -0.108,1.59 V 56.98 H 77.21 Z" />
  </g>
</svg>
