<svg xmlns="http://www.w3.org/2000/svg" viewBox="0 0 34.363 45.515">
  <title>E_Comic_digi</title>
  <g id="Ebene_2" data-name="Ebene 2">
    <g id="Ebene_1-2" data-name="Ebene 1">
      <g>
        <rect x="20.896" y="37.716" width="1.086" height="7.081" transform="translate(42.879 82.514) rotate(-180)" fill="#2e3192"/>
        <ellipse cx="22.554" cy="44.824" rx="1.658" ry="0.599" fill="#2e3192"/>
        <ellipse cx="25.314" cy="30.7" rx="3.316" ry="10.693" transform="translate(-14.476 30.9) rotate(-50.78)" fill="#2e3192"/>
        <ellipse cx="23.229" cy="31.169" rx="3.431" ry="9.495" transform="translate(-14.312 21.082) rotate(-38.266)" fill="#2e3192"/>
        <ellipse cx="19.555" cy="25.048" rx="17.761" ry="8.997" transform="translate(-9.448 38.034) rotate(-76.142)" fill="#8a94ff"/>
        <ellipse cx="21.572" cy="17.164" rx="8.655" ry="11.8" transform="translate(-1.275 1.738) rotate(-4.481)" fill="#8a94ff"/>
        <ellipse cx="18.233" cy="3.453" rx="1.879" ry="5.803" transform="translate(5.68 17.121) rotate(-58.158)" fill="#2e3192"/>
        <ellipse cx="18.102" cy="4.514" rx="1.837" ry="5.454" transform="translate(7.9 20.134) rotate(-70.852)" fill="#2e3192"/>
        <ellipse cx="26.877" cy="10.51" rx="2.388" ry="4.424" transform="translate(-1.939 8.934) rotate(-18.227)" fill="#2e3192"/>
        <ellipse cx="26.877" cy="10.51" rx="2.289" ry="4.242" transform="matrix(0.95, -0.313, 0.313, 0.95, -1.939, 8.934)" fill="#f4f4ff"/>
        <ellipse cx="29.066" cy="12.011" rx="0.747" ry="1.384" transform="translate(-2.298 9.694) rotate(-18.227)" fill="#2e3192"/>
        <ellipse cx="23.843" cy="12.138" rx="3.798" ry="5.555" transform="translate(-0.672 1.421) rotate(-3.367)" fill="#2e3192"/>
        <ellipse cx="23.843" cy="12.138" rx="3.642" ry="5.326" transform="translate(-0.672 1.421) rotate(-3.367)" fill="#fff"/>
        <ellipse cx="26.009" cy="12.349" rx="1.188" ry="1.737" transform="translate(-0.68 1.549) rotate(-3.367)" fill="#2e3192"/>
        <path d="M25.4,7.175a4.125,4.125,0,0,0-4.378-1.082,4.127,4.127,0,0,0-2.379,3.832Z" fill="#2e3192"/>
        <g>
          <path d="M25.86,18.938c-.03-.7-.2-5.668,1.67-6.185,1.576-.436,4.347,2.352,6.833,6.957" fill="#2e3192"/>
          <path d="M26.082,18.18c-.2.3-1.6,2.419-.714,3.139.746.606,2.991.121,5.558-1.231" fill="#2e3192"/>
        </g>
        <path d="M29.584,7.507c-.308-1.474-1.072-2.527-2.058-2.621s-1.935.8-2.515,2.185Z" fill="#2e3192"/>
        <ellipse cx="21.356" cy="32.495" rx="7.406" ry="4.037" transform="translate(-16.967 39.082) rotate(-66.44)" fill="#aab1ff"/>
        <ellipse cx="7.714" cy="29.089" rx="10.532" ry="3.366" transform="translate(-18.556 14.407) rotate(-45.947)" fill="#2e3192"/>
        <ellipse cx="9.849" cy="29.339" rx="9.36" ry="3.48" transform="translate(-20.367 22.647) rotate(-58.955)" fill="#2e3192"/>
        <rect x="13.942" y="38.71" width="0.968" height="6.05" transform="translate(28.852 83.471) rotate(-180)" fill="#2e3192"/>
        <ellipse cx="13.252" cy="44.916" rx="1.658" ry="0.599" fill="#2e3192"/>
      </g>
    </g>
  </g>
</svg>
