<svg xmlns="http://www.w3.org/2000/svg" viewBox="0 0 34.584 45.515">
  <title>Vogel2</title>
  <g id="Ebene_2" data-name="Ebene 2">
    <g id="Ebene_1-2" data-name="Ebene 1">
      <g>
        <path d="M27.919,28.558c.129-.447.258-.895.371-1.356.28-1.135.494-2.256.653-3.356A14.652,14.652,0,0,0,30.2,16.488c-.416-5.316-3.356-9.6-7.021-10.781l-.014-.033c-.009-.025-.024-.052-.034-.078-.025-.047-.041-.092-.072-.14a10.672,10.672,0,0,0-3.835-3.6C16.5.166,13.851-.49,13.3.392c-.243.39-.013,1.02.532,1.743-.459.11-.785.3-.886.59-.333.958,1.7,2.536,4.55,3.524.095.033.187.057.282.088-3,1.779-4.976,5.867-4.876,10.579a33.251,33.251,0,0,0-1.89,5.26A25.888,25.888,0,0,0,5.3,26.748c-4.044,4.181-6.24,8.618-4.9,9.91.67.648,2.1.383,3.866-.568a1.813,1.813,0,0,0,.765,1.268c1.134.683,3.146-.427,5.159-2.63.542,3.1,1.721,5.526,3.438,6.772v2.832c-.118-.009-.24-.015-.366-.015-.916,0-1.658.268-1.658.6s.742.6,1.658.6,1.658-.268,1.658-.6c0-.126-.109-.242-.292-.339V42.049a4.529,4.529,0,0,0,.682.242,6.317,6.317,0,0,0,5.318-1.525V44.33c-.436.107-.722.288-.722.494,0,.331.742.6,1.658.6s1.658-.268,1.658-.6-.709-.584-1.594-.6V39.914a18.124,18.124,0,0,0,2.478-2.97c2.122,1.708,4.055,2.434,5.013,1.679a1.761,1.761,0,0,0,.577-1.327c1.88.76,3.332.875,3.912.165C34.713,36.1,32.186,32.179,27.919,28.558Z" fill="#3965a8"/>
        <ellipse cx="26.877" cy="10.51" rx="2.388" ry="4.424" transform="translate(-1.939 8.934) rotate(-18.227)" fill="#3965a8" stroke="#3965a8" stroke-miterlimit="10" stroke-width="0.5"/>
        <ellipse cx="26.884" cy="10.506" rx="2.29" ry="4.243" transform="translate(-1.937 8.94) rotate(-18.236)" fill="#fff"/>
        <ellipse cx="29.067" cy="12.011" rx="0.747" ry="1.384" transform="translate(-2.298 9.694) rotate(-18.227)" fill="#3965a8"/>
        <ellipse cx="23.843" cy="12.137" rx="3.798" ry="5.555" transform="translate(-0.672 1.421) rotate(-3.367)" fill="#3965a8" stroke="#3965a8" stroke-miterlimit="10" stroke-width="0.5"/>
        <ellipse cx="23.843" cy="12.137" rx="3.642" ry="5.326" transform="translate(-0.672 1.421) rotate(-3.367)" fill="#fff"/>
        <ellipse cx="26.01" cy="12.349" rx="1.188" ry="1.737" transform="translate(-0.68 1.549) rotate(-3.367)" fill="#3965a8"/>
        <g>
          <path d="M25.861,18.938c-.03-.7-.2-5.668,1.67-6.185,1.576-.436,4.347,2.352,6.833,6.957" fill="#fff" stroke="#3965a8" stroke-miterlimit="10" stroke-width="0.5"/>
          <path d="M26.083,18.18c-.2.3-1.6,2.419-.714,3.139.746.606,2.991.121,5.558-1.231" fill="#fff" stroke="#3965a8" stroke-miterlimit="10" stroke-width="0.5"/>
        </g>
      </g>
    </g>
  </g>
</svg>
