<svg xmlns="http://www.w3.org/2000/svg" viewBox="0 0 210.407 43.999">
  <title>E_teachuos</title>
  <g id="Ebene_2" data-name="Ebene 2">
    <g id="Ebene_1-2" data-name="Ebene 1">
      <g>
        <g>
          <path d="M2.5,6.786l2.938-.281V10.9H8.453v2.625H5.438v6.958a19.953,19.953,0,0,0,.093,2.442,1.534,1.534,0,0,0,.563.983,2.49,2.49,0,0,0,1.562.382,9.008,9.008,0,0,0,1.313-.109v2.607a11.6,11.6,0,0,1-2.438.283,4.68,4.68,0,0,1-2.8-.711A3.133,3.133,0,0,1,2.5,24.427a18.925,18.925,0,0,1-.266-3.719V13.521H.188V10.9h2.14Z" transform="translate(-0.188 -2.828)"/>
          <path d="M22.266,19.271H13.344q0,3.193.865,4.26A2.684,2.684,0,0,0,16.383,24.6q2.181,0,2.758-2.938l2.984.391q-1.171,5.016-5.844,5.015a5.631,5.631,0,0,1-4.562-2.046,9.175,9.175,0,0,1-1.7-6,10.063,10.063,0,0,1,1.718-6.282,5.516,5.516,0,0,1,4.594-2.218,5.231,5.231,0,0,1,3.391,1.109,5.9,5.9,0,0,1,1.937,2.914A17.262,17.262,0,0,1,22.266,19.271Zm-3.328-2.2q0-4.172-2.719-4.171-2.547,0-2.8,4.171Z" transform="translate(-0.188 -2.828)"/>
          <path d="M27.906,15.364l-3.14-.39a4.711,4.711,0,0,1,1.942-3.282,6.679,6.679,0,0,1,4-1.171,6.016,6.016,0,0,1,3.393.851A3.641,3.641,0,0,1,35.7,13.4a14.148,14.148,0,0,1,.328,3.546v5.375a21.322,21.322,0,0,0,.282,4.36H33.234a12.427,12.427,0,0,1-.2-2.625A4.734,4.734,0,0,1,28.6,27.067,4.3,4.3,0,0,1,25.4,25.841a4.545,4.545,0,0,1-1.208-3.336,5.062,5.062,0,0,1,1.77-4.078q1.77-1.5,6.137-1.5.218,0,.686.015V16.3a5.119,5.119,0,0,0-.506-2.547,1.927,1.927,0,0,0-1.814-.859Q28.327,12.9,27.906,15.364Zm4.875,3.625c-.416-.041-.732-.062-.95-.062q-4.238,0-4.237,3.328,0,2.423,2.1,2.422a2.637,2.637,0,0,0,2.157-1.313,6.156,6.156,0,0,0,.927-3.609Z" transform="translate(-0.188 -2.828)"/>
          <path d="M50.625,16.208l-3.141.344a5.758,5.758,0,0,0-.8-2.758,1.935,1.935,0,0,0-1.594-.7,2.2,2.2,0,0,0-2.11,1.336,11.726,11.726,0,0,0-.656,4.695q0,5.25,2.766,5.25,2.124,0,2.39-3.422l3.141.281q-.642,5.829-5.766,5.828a5.026,5.026,0,0,1-4.492-2.187,10.792,10.792,0,0,1-1.461-6.047,10.274,10.274,0,0,1,1.578-6.187,5.366,5.366,0,0,1,4.594-2.125Q49.936,10.521,50.625,16.208Z" transform="translate(-0.188 -2.828)"/>
          <path d="M53.047,5.349H56.3v7.64a3.853,3.853,0,0,1,3.773-2.468,4.018,4.018,0,0,1,2.293.625,3.275,3.275,0,0,1,1.3,1.664,13.774,13.774,0,0,1,.368,3.929v9.938h-3.25V16.751q0-2.466-.564-3.036a1.888,1.888,0,0,0-1.4-.569q-2.523,0-2.524,4.51v9.021h-3.25Z" transform="translate(-0.188 -2.828)"/>
        </g>
        <g>
          <path d="M84,3.359V20.265a29.357,29.357,0,0,1-.187,4.039A5.489,5.489,0,0,1,82.7,26.7a5.769,5.769,0,0,1-2.429,1.859,9.152,9.152,0,0,1-3.555.633,9.994,9.994,0,0,1-4-.75,6.017,6.017,0,0,1-2.594-1.953,5.4,5.4,0,0,1-1.016-2.539q-.158-1.337-.156-5.617V3.359h6.578V22.328a7.429,7.429,0,0,0,.18,2.117.7.7,0,0,0,.727.461.761.761,0,0,0,.8-.508,9.484,9.484,0,0,0,.18-2.4V3.359Z" transform="translate(-0.188 -2.828)" fill="#2b4392"/>
          <path d="M101.574,18.171q0,3.813-.179,5.4a6.046,6.046,0,0,1-3.68,4.914,9.3,9.3,0,0,1-3.75.7,9.542,9.542,0,0,1-3.649-.664,6.082,6.082,0,0,1-3.773-4.883,53.358,53.358,0,0,1-.188-5.469V13.843q0-3.812.18-5.4a6.043,6.043,0,0,1,3.68-4.914,9.289,9.289,0,0,1,3.75-.7,9.525,9.525,0,0,1,3.648.664,6.08,6.08,0,0,1,3.774,4.883,53.445,53.445,0,0,1,.187,5.468ZM95,9.859A7.89,7.89,0,0,0,94.8,7.6.779.779,0,0,0,94,7.109a.9.9,0,0,0-.789.4,5.623,5.623,0,0,0-.273,2.352V21.671a11.563,11.563,0,0,0,.179,2.719.783.783,0,0,0,.836.516.811.811,0,0,0,.86-.594A12.517,12.517,0,0,0,95,21.484Z" transform="translate(-0.188 -2.828)" fill="#2b4392"/>
          <path d="M117.965,11.015h-6.11V9.14a3.685,3.685,0,0,0-.234-1.672.864.864,0,0,0-.781-.359,1,1,0,0,0-.9.485,2.812,2.812,0,0,0-.3,1.469,4.162,4.162,0,0,0,.342,1.908,4.968,4.968,0,0,0,1.859,1.547q4.392,2.605,5.533,4.278t1.141,5.391a9.452,9.452,0,0,1-.633,3.984,4.959,4.959,0,0,1-2.445,2.149,9.681,9.681,0,0,1-4.219.867,9.423,9.423,0,0,1-4.508-1,4.892,4.892,0,0,1-2.445-2.547,13.011,13.011,0,0,1-.578-4.39V19.593h6.109v3.078a4.052,4.052,0,0,0,.258,1.829,1,1,0,0,0,.914.406,1.071,1.071,0,0,0,.976-.516,2.947,2.947,0,0,0,.321-1.531,4.741,4.741,0,0,0-.61-2.922,19.535,19.535,0,0,0-3.078-2.3,30.1,30.1,0,0,1-3.25-2.359A5.51,5.51,0,0,1,104,13.25a8.92,8.92,0,0,1-.524-3.313,9.175,9.175,0,0,1,.743-4.25,5,5,0,0,1,2.4-2.1,9.587,9.587,0,0,1,4-.757,10.426,10.426,0,0,1,4.367.828,4.573,4.573,0,0,1,2.391,2.086,11.036,11.036,0,0,1,.586,4.273Z" transform="translate(-0.188 -2.828)" fill="#2b4392"/>
        </g>
        <g>
          <path d="M37.42,44.892h1.559v1.764H37.42Z" transform="translate(-0.188 -2.828)" fill="#4b7dcf"/>
          <path d="M40.763,44.892h1.558v1.764H40.763Z" transform="translate(-0.188 -2.828)" fill="#4b7dcf"/>
          <path d="M44.105,44.892h1.559v1.764H44.105Z" transform="translate(-0.188 -2.828)" fill="#4b7dcf"/>
          <path d="M47.455,37.325h2.81a3.165,3.165,0,0,1,2.249.69A2.614,2.614,0,0,1,53.238,40a2.514,2.514,0,0,1-1.428,2.44l1.77,4.218H51.9l-1.45-3.9H49v3.9H47.455ZM49,38.521v3.042h1.183a1.447,1.447,0,0,0,1.165-.438,1.7,1.7,0,0,0,.373-1.141q0-1.462-1.525-1.463Z" transform="translate(-0.188 -2.828)" fill="#4b7dcf"/>
          <path d="M54.694,37.325h1.511v5.79a7.172,7.172,0,0,0,.1,1.432,1.2,1.2,0,0,0,.467.731,1.972,1.972,0,0,0,1.905.048,1.2,1.2,0,0,0,.465-.629,6.075,6.075,0,0,0,.136-1.61V37.325h1.388v5.687a8.782,8.782,0,0,1-.194,2.106,2.128,2.128,0,0,1-.9,1.223,3.3,3.3,0,0,1-1.9.486,3.9,3.9,0,0,1-1.6-.3,2.076,2.076,0,0,1-1.029-.984,5.857,5.857,0,0,1-.349-2.423Z" transform="translate(-0.188 -2.828)" fill="#4b7dcf"/>
          <path d="M62.344,37.325h1.82l3.067,6.726V37.325h1.292v9.331H67.081l-3.445-7.472v7.472H62.344Z" transform="translate(-0.188 -2.828)" fill="#4b7dcf"/>
          <path d="M70.26,37.325h2.1a4.778,4.778,0,0,1,2.44.54,3.389,3.389,0,0,1,1.382,1.606,5.825,5.825,0,0,1,.468,2.365,6.585,6.585,0,0,1-.421,2.437A3.911,3.911,0,0,1,74.943,46a4.015,4.015,0,0,1-2.466.656H70.26Zm1.545,1.237v6.856h.644a2.167,2.167,0,0,0,1.959-.933,4.5,4.5,0,0,0,.61-2.491q0-3.432-2.569-3.432Z" transform="translate(-0.188 -2.828)" fill="#4b7dcf"/>
          <path d="M80.671,37.325h1.511v5.79a7.266,7.266,0,0,0,.1,1.432,1.208,1.208,0,0,0,.468.731,1.97,1.97,0,0,0,1.9.048,1.2,1.2,0,0,0,.465-.629,6.018,6.018,0,0,0,.137-1.61V37.325h1.388v5.687a8.773,8.773,0,0,1-.2,2.106,2.127,2.127,0,0,1-.9,1.223,3.3,3.3,0,0,1-1.9.486,3.89,3.89,0,0,1-1.6-.3,2.076,2.076,0,0,1-1.029-.984,5.84,5.84,0,0,1-.349-2.423Z" transform="translate(-0.188 -2.828)" fill="#4b7dcf"/>
          <path d="M88.334,37.325h2.291l1.861,6.726,1.91-6.726h2.2v9.331H95.143V38.692l-2.218,7.964H91.8l-2.177-7.971v7.971H88.334Z" transform="translate(-0.188 -2.828)" fill="#4b7dcf"/>
          <path d="M100.994,37.325h2.1a4.774,4.774,0,0,1,2.439.54,3.384,3.384,0,0,1,1.382,1.606,5.826,5.826,0,0,1,.469,2.365,6.605,6.605,0,0,1-.421,2.437A3.911,3.911,0,0,1,105.678,46a4.018,4.018,0,0,1-2.467.656h-2.217Zm1.545,1.237v6.856h.645a2.169,2.169,0,0,0,1.959-.933,4.5,4.5,0,0,0,.609-2.491q0-3.432-2.568-3.432Z" transform="translate(-0.188 -2.828)" fill="#4b7dcf"/>
          <path d="M108.862,37.325h1.545v9.331h-1.545Z" transform="translate(-0.188 -2.828)" fill="#4b7dcf"/>
          <path d="M112.2,37.325h5.346v1.237h-3.8v2.666h2.981v1.244h-2.981v2.919h3.862v1.265H112.2Z" transform="translate(-0.188 -2.828)" fill="#4b7dcf"/>
          <path d="M121.249,37.325h2.1a4.769,4.769,0,0,1,2.439.54,3.386,3.386,0,0,1,1.383,1.606,5.826,5.826,0,0,1,.469,2.365,6.626,6.626,0,0,1-.421,2.437A3.924,3.924,0,0,1,125.934,46a4.028,4.028,0,0,1-2.467.656h-2.218Zm1.545,1.237v6.856h.644a2.164,2.164,0,0,0,1.958-.933,4.483,4.483,0,0,0,.611-2.491q0-3.432-2.569-3.432Z" transform="translate(-0.188 -2.828)" fill="#4b7dcf"/>
          <path d="M129.117,37.325h1.545v9.331h-1.545Z" transform="translate(-0.188 -2.828)" fill="#4b7dcf"/>
          <path d="M135.625,41.871h3.117v4.853h-.824l-.206-1.182a2.385,2.385,0,0,1-2.244,1.285,2.812,2.812,0,0,1-2.443-1.268,5.953,5.953,0,0,1-.879-3.442,6.585,6.585,0,0,1,.87-3.627,2.969,2.969,0,0,1,2.673-1.336q2.514,0,3,2.844l-1.394.348a2.872,2.872,0,0,0-.661-1.558,1.47,1.47,0,0,0-.983-.356q-1.878,0-1.877,3.548,0,3.569,1.92,3.568,1.594,0,1.594-2.44h-1.668Z" transform="translate(-0.188 -2.828)" fill="#4b7dcf"/>
          <path d="M140.328,37.325h1.545v9.331h-1.545Z" transform="translate(-0.188 -2.828)" fill="#4b7dcf"/>
          <path d="M142.543,37.325h5.7v1.312h-2.085v8.019h-1.545V38.637h-2.071Z" transform="translate(-0.188 -2.828)" fill="#4b7dcf"/>
          <path d="M150.344,37.325h1.732l2.5,9.331h-1.563l-.586-2.338H149.7l-.58,2.338h-1.472Zm1.783,5.776-1.07-4.272L150,43.1Z" transform="translate(-0.188 -2.828)" fill="#4b7dcf"/>
          <path d="M155.511,37.325h1.545V45.35h3.3v1.306h-4.846Z" transform="translate(-0.188 -2.828)" fill="#4b7dcf"/>
          <path d="M161.232,37.325h1.545v9.331h-1.545Z" transform="translate(-0.188 -2.828)" fill="#4b7dcf"/>
          <path d="M170.126,39.41l-1.319.458a2.5,2.5,0,0,0-.612-1.1,1.464,1.464,0,0,0-1.036-.354,1.218,1.218,0,0,0-.94.36,1.187,1.187,0,0,0-.331.826,1.006,1.006,0,0,0,.372.82,6.013,6.013,0,0,0,1.487.729,8.362,8.362,0,0,1,1.463.69A2.484,2.484,0,0,1,170.358,44a2.72,2.72,0,0,1-.831,2,3.152,3.152,0,0,1-2.327.827,3.018,3.018,0,0,1-3.2-2.612l1.381-.389a1.84,1.84,0,0,0,1.887,1.722,1.533,1.533,0,0,0,1.131-.386,1.3,1.3,0,0,0,.386-.954,1.266,1.266,0,0,0-.266-.772,3.186,3.186,0,0,0-1.327-.759,11.173,11.173,0,0,1-1.617-.718,2.535,2.535,0,0,1-1.192-2.173,2.516,2.516,0,0,1,.776-1.873,2.818,2.818,0,0,1,2.061-.759A2.772,2.772,0,0,1,170.126,39.41Z" transform="translate(-0.188 -2.828)" fill="#4b7dcf"/>
          <path d="M171.726,37.325h1.545v9.331h-1.545Z" transform="translate(-0.188 -2.828)" fill="#4b7dcf"/>
          <path d="M175.062,37.325h5.345v1.237h-3.8v2.666h2.981v1.244h-2.981v2.919h3.863v1.265h-5.407Z" transform="translate(-0.188 -2.828)" fill="#4b7dcf"/>
          <path d="M181.5,37.325h2.81a3.169,3.169,0,0,1,2.249.69A2.61,2.61,0,0,1,187.284,40a2.512,2.512,0,0,1-1.429,2.44l1.771,4.218H185.95l-1.45-3.9h-1.454v3.9H181.5Zm1.545,1.2v3.042h1.183a1.449,1.449,0,0,0,1.166-.438,1.7,1.7,0,0,0,.372-1.141q0-1.462-1.525-1.463Z" transform="translate(-0.188 -2.828)" fill="#4b7dcf"/>
          <path d="M188.74,37.325h1.511v5.79a7.172,7.172,0,0,0,.1,1.432,1.2,1.2,0,0,0,.468.731,1.97,1.97,0,0,0,1.9.048,1.189,1.189,0,0,0,.464-.629,6.061,6.061,0,0,0,.137-1.61V37.325h1.388v5.687a8.721,8.721,0,0,1-.195,2.106,2.111,2.111,0,0,1-.9,1.223,3.292,3.292,0,0,1-1.9.486,3.9,3.9,0,0,1-1.6-.3,2.078,2.078,0,0,1-1.028-.984,5.84,5.84,0,0,1-.349-2.423Z" transform="translate(-0.188 -2.828)" fill="#4b7dcf"/>
          <path d="M196.39,37.325h1.819l3.068,6.726V37.325h1.292v9.331h-1.442l-3.445-7.472v7.472H196.39Z" transform="translate(-0.188 -2.828)" fill="#4b7dcf"/>
          <path d="M207.478,41.871H210.6v4.853h-.824l-.207-1.182a2.382,2.382,0,0,1-2.244,1.285,2.811,2.811,0,0,1-2.442-1.268,5.946,5.946,0,0,1-.88-3.442,6.576,6.576,0,0,1,.871-3.627,2.967,2.967,0,0,1,2.673-1.336q2.513,0,3,2.844l-1.4.348a2.864,2.864,0,0,0-.662-1.558,1.462,1.462,0,0,0-.982-.356q-1.875,0-1.876,3.548,0,3.569,1.921,3.568,1.591,0,1.593-2.44h-1.668Z" transform="translate(-0.188 -2.828)" fill="#4b7dcf"/>
        </g>
      </g>
    </g>
  </g>
</svg>
