<?xml version="1.0" encoding="UTF-8" standalone="no"?>
<svg
   xmlns:dc="http://purl.org/dc/elements/1.1/"
   xmlns:cc="http://creativecommons.org/ns#"
   xmlns:rdf="http://www.w3.org/1999/02/22-rdf-syntax-ns#"
   xmlns:svg="http://www.w3.org/2000/svg"
   xmlns="http://www.w3.org/2000/svg"
   xmlns:sodipodi="http://sodipodi.sourceforge.net/DTD/sodipodi-0.dtd"
   xmlns:inkscape="http://www.inkscape.org/namespaces/inkscape"
   viewBox="0 0 43.379 41.322"
   version="1.1"
   id="svg939"
   sodipodi:docname="teachUOS_Comic.svg"
   inkscape:version="0.92.4 (5da689c313, 2019-01-14)">
  <metadata
     id="metadata945">
    <rdf:RDF>
      <cc:Work
         rdf:about="">
        <dc:format>image/svg+xml</dc:format>
        <dc:type
           rdf:resource="http://purl.org/dc/dcmitype/StillImage" />
      </cc:Work>
    </rdf:RDF>
  </metadata>
  <defs
     id="defs943" />
  <sodipodi:namedview
     pagecolor="#ffffff"
     bordercolor="#666666"
     borderopacity="1"
     objecttolerance="10"
     gridtolerance="10"
     guidetolerance="10"
     inkscape:pageopacity="0"
     inkscape:pageshadow="2"
     inkscape:window-width="1096"
     inkscape:window-height="585"
     id="namedview941"
     showgrid="false"
     inkscape:zoom="12"
     inkscape:cx="31.780751"
     inkscape:cy="15.185999"
     inkscape:window-x="2411"
     inkscape:window-y="139"
     inkscape:window-maximized="1"
     inkscape:current-layer="svg939" />
  <title
     id="title881">teachUOS_Comic</title>
  <polygon
     style="fill:#2e408d;fill-opacity:1"
     id="polygon883"
     points="15.958,36.136 10.968,40.014 10.432,39.305 15.422,35.427 "
     transform="translate(0.16666667,-0.25)" />
  <ellipse
     style="fill:#2e408d;fill-opacity:1;stroke-width:0.99980098"
     id="ellipse885"
     transform="rotate(-36.950128)"
     ry="1.3557301"
     rx="0.5338937"
     cy="38.945377"
     cx="-14.906579" />
  <ellipse
     style="fill:#2e3192"
     id="ellipse887"
     transform="rotate(-63.621)"
     ry="12.098"
     rx="3.8080001"
     cy="26.369989"
     cx="-3.2716169" />
  <ellipse
     style="fill:#2e3192"
     id="ellipse889"
     transform="rotate(-76.267)"
     ry="10.932"
     rx="3.872"
     cy="25.882278"
     cx="-11.152027" />
  <ellipse
     style="fill:#8a94ff"
     id="ellipse891"
     transform="rotate(-67.192)"
     ry="7.5619998"
     rx="13.817"
     cy="38.133324"
     cx="-7.4055729" />
  <ellipse
     style="fill:#8a94ff"
     id="ellipse893"
     transform="rotate(-25.98)"
     ry="8.1540003"
     rx="13.462"
     cy="36.80571"
     cx="9.0300226" />
  <ellipse
     style="fill:#aab1ff"
     id="ellipse895"
     transform="rotate(-28.501)"
     ry="2.779"
     rx="9.8780003"
     cy="42.529644"
     cx="8.2283707" />
  <ellipse
     style="fill:#2e3192"
     id="ellipse897"
     transform="rotate(-80.306)"
     ry="1.9220001"
     rx="3.947"
     cy="41.810535"
     cx="-11.427163" />
  <ellipse
     style="fill:#f4f4ff"
     id="ellipse899"
     transform="rotate(-75.732)"
     ry="1.9809999"
     rx="3.8180001"
     cy="42.708248"
     cx="-8.0892" />
  <ellipse
     style="fill:#2e3192"
     id="ellipse901"
     transform="rotate(-81.816)"
     ry="0.81099999"
     rx="1.359"
     cy="41.956699"
     cx="-11.780281" />
  <ellipse
     style="fill:#2e3192"
     id="ellipse903"
     transform="rotate(-23.621)"
     ry="6.0739999"
     rx="1.475"
     cy="19.382153"
     cx="30.350885" />
  <ellipse
     style="fill:#2e3192"
     id="ellipse905"
     transform="rotate(-14.327)"
     ry="5.414"
     rx="1.52"
     cy="15.092444"
     cx="34.0383" />
  <path
     style="fill:#2e3192"
     inkscape:connector-curvature="0"
     id="path907"
     d="M 43.379,16.367 C 43.311,14.638 42.634,13.294 41.516,12.99 40.398,12.686 39.131,13.5 38.191,14.955 Z" />
  <ellipse
     style="fill:#2e3192"
     id="ellipse909"
     transform="rotate(-89.703)"
     ry="14.288"
     rx="4.5339999"
     cy="14.411226"
     cx="-23.784479" />
  <ellipse
     style="fill:#2e3192"
     id="ellipse911"
     transform="rotate(-12.475)"
     ry="4.6059999"
     rx="12.925"
     cy="28.983679"
     cx="9.8024435" />
  <ellipse
     style="fill:#2e3192"
     id="ellipse913"
     transform="rotate(-74.092)"
     ry="4.4310002"
     rx="5.3429999"
     cy="36.024307"
     cx="-7.2904854" />
  <ellipse
     style="fill:#ffffff"
     id="ellipse915"
     transform="rotate(-74.092)"
     ry="4.2490001"
     rx="5.1230001"
     cy="36.024307"
     cx="-7.2904854" />
  <ellipse
     style="fill:#2e3192;stroke-width:1.00026"
     id="ellipse917"
     transform="rotate(-74.101813)"
     ry="1.4573787"
     rx="1.7574568"
     cy="34.957195"
     cx="-5.8891673" />
  <path
     style="fill:#2e3192"
     inkscape:connector-curvature="0"
     id="path919"
     d="M 36.737,13.9 C 36.443,11.539 35.171,9.662 33.274,9.169 31.377,8.676 29.347,9.698 27.933,11.615 Z" />
  <ellipse
     style="fill:#2e408d;fill-opacity:1"
     id="ellipse923"
     transform="rotate(-10.386)"
     ry="1.492"
     rx="0.583"
     cy="36.65696"
     cx="1.0980729" />
  <g
     id="g929">
    <path
       style="fill:#2e3192"
       inkscape:connector-curvature="0"
       id="path925"
       d="m 35.918,23.164 c -0.021,-0.562 -0.142,-4.529 1.184,-4.942 1.117,-0.349 3.08,1.88 4.842,5.56" />
    <path
       style="fill:#2e3192"
       inkscape:connector-curvature="0"
       id="path927"
       d="m 36.075,22.559 c -0.142,0.239 -1.133,1.934 -0.505,2.509 0.528,0.484 2.119,0.1 3.938,-0.984" />
  </g>
  <ellipse
     style="fill:#ffffff"
     id="ellipse931"
     transform="rotate(-73.841)"
     ry="0.58700001"
     rx="0.64899999"
     cy="34.107224"
     cx="-5.0393453" />
  <ellipse
     style="fill:#ffffff"
     id="ellipse933"
     transform="rotate(-73.841)"
     ry="0.252"
     rx="0.27900001"
     cy="42.60379"
     cx="-4.8717952" />
  <polygon
     transform="translate(0.07333333,0.02683193)"
     style="fill:#2e408d;fill-opacity:1"
     id="polygon921-7"
     points="7.605,35.336 7.429,34.375 14.214,33.121 14.391,34.083 " />
  <ellipse
     style="opacity:1;fill:#2e408d;fill-opacity:1;stroke-width:1.01314116"
     id="path1047"
     cx="14.366582"
     cy="33.632828"
     rx="0.51674998"
     ry="0.48499998" />
</svg>
