<svg xmlns="http://www.w3.org/2000/svg" viewBox="0 0 106.375 31">
  <title>A0_quali</title>
  <g id="Ebene_2" data-name="Ebene 2">
    <g id="Ebene_1-2" data-name="Ebene 1">
      <g>
        <path d="M8.685,9.383v12.2h-1.6V17.15a4.766,4.766,0,0,1-1.31,1.071,3.413,3.413,0,0,1-1.678.405,3.291,3.291,0,0,1-1.422-.3,2.938,2.938,0,0,1-1.089-.886A4.214,4.214,0,0,1,.891,15.98a7.506,7.506,0,0,1-.243-2.007A6.287,6.287,0,0,1,.918,12.1,4.575,4.575,0,0,1,1.7,10.589,3.577,3.577,0,0,1,4.59,9.221a3.266,3.266,0,0,1,1.5.315,3.569,3.569,0,0,1,1.1.891L7.3,9.716a.408.408,0,0,1,.432-.333ZM4.626,17.33A2.579,2.579,0,0,0,6,16.97a3.944,3.944,0,0,0,1.085-1.017v-4.41a2.587,2.587,0,0,0-.963-.823,2.736,2.736,0,0,0-1.17-.248,2.308,2.308,0,0,0-1.962.909A4.248,4.248,0,0,0,2.3,13.973,6.532,6.532,0,0,0,2.457,15.5a2.933,2.933,0,0,0,.45,1.045,1.775,1.775,0,0,0,.729.6A2.449,2.449,0,0,0,4.626,17.33Z" transform="translate(-0.648)" fill="#fff"/>
        <path d="M12.762,9.383V15.2a2.425,2.425,0,0,0,.476,1.6,1.778,1.778,0,0,0,1.441.567A2.761,2.761,0,0,0,16,17.033a4.111,4.111,0,0,0,1.143-.927V9.383h1.6V18.5h-.953a.409.409,0,0,1-.433-.333l-.126-.981A4.962,4.962,0,0,1,15.9,18.243a3.476,3.476,0,0,1-1.691.4,3.277,3.277,0,0,1-1.319-.248,2.6,2.6,0,0,1-.958-.7,2.963,2.963,0,0,1-.581-1.089,4.861,4.861,0,0,1-.194-1.413V9.383Z" transform="translate(-0.648)" fill="#fff"/>
        <path d="M28.08,18.5h-.711a.835.835,0,0,1-.378-.072.4.4,0,0,1-.188-.306l-.181-.846q-.36.324-.7.58a3.96,3.96,0,0,1-.72.432,3.728,3.728,0,0,1-.8.266,4.632,4.632,0,0,1-.95.09,3.238,3.238,0,0,1-.994-.149,2.244,2.244,0,0,1-.8-.447,2.1,2.1,0,0,1-.545-.754,2.643,2.643,0,0,1-.2-1.079,2.018,2.018,0,0,1,.3-1.043,2.626,2.626,0,0,1,.959-.89,6.2,6.2,0,0,1,1.733-.636,11.7,11.7,0,0,1,2.618-.249v-.715a2.482,2.482,0,0,0-.454-1.617,1.647,1.647,0,0,0-1.346-.548,2.846,2.846,0,0,0-.985.148,3.906,3.906,0,0,0-.694.333q-.291.185-.5.333a.717.717,0,0,1-.418.149.483.483,0,0,1-.283-.085.645.645,0,0,1-.194-.212l-.288-.513a5.222,5.222,0,0,1,1.63-1.089,5.021,5.021,0,0,1,1.934-.36,3.461,3.461,0,0,1,1.36.252,2.8,2.8,0,0,1,1,.7,2.986,2.986,0,0,1,.611,1.089,4.506,4.506,0,0,1,.207,1.4Zm-4.158-.981a3.324,3.324,0,0,0,.774-.085,2.983,2.983,0,0,0,.661-.244,3.45,3.45,0,0,0,.6-.382,5.143,5.143,0,0,0,.553-.513V14.414a10.708,10.708,0,0,0-1.881.141,5.271,5.271,0,0,0-1.26.366,1.757,1.757,0,0,0-.706.534,1.154,1.154,0,0,0-.22.688,1.526,1.526,0,0,0,.117.625,1.169,1.169,0,0,0,.314.429,1.219,1.219,0,0,0,.468.245A2.144,2.144,0,0,0,23.922,17.519Z" transform="translate(-0.648)" fill="#fff"/>
        <path d="M32.291,5.243V18.5h-1.6V5.243Z" transform="translate(-0.648)" fill="#fff"/>
        <path d="M37.26,6.521a1,1,0,0,1-.095.436,1.193,1.193,0,0,1-.252.36,1.142,1.142,0,0,1-.364.248,1.1,1.1,0,0,1-.442.09,1.064,1.064,0,0,1-.436-.09,1.155,1.155,0,0,1-.359-.248,1.167,1.167,0,0,1-.249-.36,1.076,1.076,0,0,1-.089-.436,1.149,1.149,0,0,1,.089-.446,1.183,1.183,0,0,1,.249-.369,1.2,1.2,0,0,1,.359-.247,1.064,1.064,0,0,1,.436-.09,1.1,1.1,0,0,1,.442.09,1.19,1.19,0,0,1,.364.247,1.209,1.209,0,0,1,.252.369A1.07,1.07,0,0,1,37.26,6.521ZM36.9,9.383V18.5H35.3V9.383Z" transform="translate(-0.648)" fill="#fff"/>
        <path d="M42.488,18.644a2.2,2.2,0,0,1-1.661-.6,2.406,2.406,0,0,1-.58-1.737v-5.58h-1.1a.363.363,0,0,1-.243-.085.333.333,0,0,1-.1-.266V9.734L40.3,9.545l.369-2.817a.337.337,0,0,1,.117-.22.371.371,0,0,1,.252-.086h.811V9.563h2.609v1.161H41.85V16.2a1.164,1.164,0,0,0,.278.855.974.974,0,0,0,.72.279,1.269,1.269,0,0,0,.436-.067,1.879,1.879,0,0,0,.32-.149c.09-.054.167-.1.23-.148A.3.3,0,0,1,44,16.9a.279.279,0,0,1,.226.153l.467.765a3,3,0,0,1-1,.608A3.414,3.414,0,0,1,42.488,18.644Z" transform="translate(-0.648)" fill="#fff"/>
        <path d="M53.135,18.5h-.711a.835.835,0,0,1-.378-.072.4.4,0,0,1-.189-.306l-.18-.846q-.36.324-.7.58a3.96,3.96,0,0,1-.72.432,3.736,3.736,0,0,1-.806.266,4.615,4.615,0,0,1-.949.09,3.233,3.233,0,0,1-.994-.149,2.249,2.249,0,0,1-.806-.447,2.123,2.123,0,0,1-.545-.754,2.66,2.66,0,0,1-.2-1.079,2.018,2.018,0,0,1,.3-1.043,2.618,2.618,0,0,1,.959-.89,6.2,6.2,0,0,1,1.732-.636A11.7,11.7,0,0,1,51.56,13.4v-.715a2.482,2.482,0,0,0-.455-1.617,1.643,1.643,0,0,0-1.345-.548,2.856,2.856,0,0,0-.986.148,3.894,3.894,0,0,0-.693.333q-.291.185-.5.333a.717.717,0,0,1-.418.149.483.483,0,0,1-.283-.085.634.634,0,0,1-.194-.212l-.288-.513a5.206,5.206,0,0,1,1.629-1.089,5.026,5.026,0,0,1,1.935-.36,3.453,3.453,0,0,1,1.359.252,2.787,2.787,0,0,1,1,.7,2.973,2.973,0,0,1,.612,1.089,4.535,4.535,0,0,1,.207,1.4ZM49.265,6.9a.932.932,0,0,1-.081.387.977.977,0,0,1-.225.315,1.167,1.167,0,0,1-.328.216.966.966,0,0,1-.392.081.908.908,0,0,1-.378-.081,1.128,1.128,0,0,1-.32-.216,1.01,1.01,0,0,1-.22-.315A.932.932,0,0,1,47.24,6.9a1,1,0,0,1,.081-.4,1.033,1.033,0,0,1,.22-.328,1.084,1.084,0,0,1,.32-.221.908.908,0,0,1,.378-.081.966.966,0,0,1,.392.081,1.121,1.121,0,0,1,.328.221,1.01,1.01,0,0,1,.306.724Zm-.288,10.62a3.324,3.324,0,0,0,.774-.085,3,3,0,0,0,.661-.244,3.488,3.488,0,0,0,.595-.382,5.239,5.239,0,0,0,.553-.513V14.414a10.692,10.692,0,0,0-1.881.141,5.271,5.271,0,0,0-1.26.366,1.75,1.75,0,0,0-.706.534,1.148,1.148,0,0,0-.221.688,1.526,1.526,0,0,0,.117.625,1.183,1.183,0,0,0,.315.429,1.219,1.219,0,0,0,.468.245A2.139,2.139,0,0,0,48.977,17.519ZM52.5,6.9a.932.932,0,0,1-.081.387,1.013,1.013,0,0,1-.221.315,1.081,1.081,0,0,1-.324.216.984.984,0,0,1-.782,0,1.038,1.038,0,0,1-.32-.216,1.051,1.051,0,0,1-.216-.315.932.932,0,0,1-.081-.387,1,1,0,0,1,.081-.4,1.075,1.075,0,0,1,.216-.328,1,1,0,0,1,.32-.221.984.984,0,0,1,.782,0,1.045,1.045,0,0,1,.545.549A1,1,0,0,1,52.5,6.9Z" transform="translate(-0.648)" fill="#fff"/>
        <path d="M58.328,18.644a2.2,2.2,0,0,1-1.661-.6,2.406,2.406,0,0,1-.58-1.737v-5.58h-1.1a.363.363,0,0,1-.243-.085.333.333,0,0,1-.1-.266V9.734l1.494-.189.369-2.817a.333.333,0,0,1,.117-.22.367.367,0,0,1,.252-.086h.81V9.563H60.3v1.161h-2.61V16.2a1.164,1.164,0,0,0,.279.855.974.974,0,0,0,.72.279,1.273,1.273,0,0,0,.436-.067,1.879,1.879,0,0,0,.32-.149c.09-.054.166-.1.23-.148a.3.3,0,0,1,.166-.068.276.276,0,0,1,.225.153l.468.765a3,3,0,0,1-1,.608A3.414,3.414,0,0,1,58.328,18.644Z" transform="translate(-0.648)" fill="#fff"/>
      </g>
      <g>
        <path d="M72.392,21.428V25.5H70.24V13.932h3.768a6.586,6.586,0,0,1,2.008.272,3.883,3.883,0,0,1,1.4.76,2.976,2.976,0,0,1,.816,1.168A4.075,4.075,0,0,1,78.5,17.62a4.125,4.125,0,0,1-.28,1.54,3.2,3.2,0,0,1-.84,1.2,3.912,3.912,0,0,1-1.4.784,6.224,6.224,0,0,1-1.968.28Zm0-1.68h1.616A3.234,3.234,0,0,0,75.04,19.6a1.924,1.924,0,0,0,.728-.424A1.738,1.738,0,0,0,76.2,18.5a2.573,2.573,0,0,0,.144-.884,2.331,2.331,0,0,0-.144-.84,1.658,1.658,0,0,0-.432-.64,1.92,1.92,0,0,0-.728-.4,3.426,3.426,0,0,0-1.032-.14H72.392Z" transform="translate(-0.648)" fill="#c6d1ec"/>
        <path d="M82.32,23.724h4.632V25.5H80.168V13.932H82.32Z" transform="translate(-0.648)" fill="#c6d1ec"/>
        <path d="M93.1,23.764a2.854,2.854,0,0,0,1.116-.208,2.346,2.346,0,0,0,.832-.584,2.541,2.541,0,0,0,.519-.912,3.725,3.725,0,0,0,.18-1.2V13.932H97.9V20.86a5.327,5.327,0,0,1-.333,1.908,4.307,4.307,0,0,1-.956,1.512,4.352,4.352,0,0,1-1.511.992,5.8,5.8,0,0,1-4,0,4.238,4.238,0,0,1-2.46-2.5A5.327,5.327,0,0,1,88.3,20.86V13.932h2.151v6.92a3.756,3.756,0,0,0,.181,1.2,2.639,2.639,0,0,0,.515.916,2.261,2.261,0,0,0,.828.588A2.863,2.863,0,0,0,93.1,23.764Z" transform="translate(-0.648)" fill="#c6d1ec"/>
        <path d="M106.288,16.036a.6.6,0,0,1-.2.248.514.514,0,0,1-.276.072.706.706,0,0,1-.36-.124c-.134-.083-.291-.174-.472-.276a3.8,3.8,0,0,0-.636-.276,2.689,2.689,0,0,0-.861-.124,2.527,2.527,0,0,0-.779.108,1.654,1.654,0,0,0-.56.3,1.2,1.2,0,0,0-.34.46,1.525,1.525,0,0,0-.112.588,1.022,1.022,0,0,0,.228.68,1.916,1.916,0,0,0,.6.464,5.689,5.689,0,0,0,.856.344c.32.1.646.209.979.324a9.251,9.251,0,0,1,.981.4,3.4,3.4,0,0,1,.856.576,2.62,2.62,0,0,1,.6.852,2.959,2.959,0,0,1,.227,1.224,3.983,3.983,0,0,1-.267,1.468,3.394,3.394,0,0,1-.784,1.192,3.678,3.678,0,0,1-1.26.8,4.656,4.656,0,0,1-1.7.292,5.492,5.492,0,0,1-1.088-.108,5.682,5.682,0,0,1-1.028-.308,5.273,5.273,0,0,1-.92-.48,4.573,4.573,0,0,1-.764-.624l.624-1.032a.779.779,0,0,1,.212-.188.516.516,0,0,1,.276-.076.765.765,0,0,1,.432.164c.154.109.337.231.548.364a4.159,4.159,0,0,0,.744.364,2.882,2.882,0,0,0,1.028.164,2.107,2.107,0,0,0,1.424-.436,1.565,1.565,0,0,0,.5-1.252,1.157,1.157,0,0,0-.229-.744,1.827,1.827,0,0,0-.6-.484,4.518,4.518,0,0,0-.856-.332q-.48-.137-.976-.3a8.162,8.162,0,0,1-.976-.384,3.159,3.159,0,0,1-.856-.584,2.652,2.652,0,0,1-.6-.9,3.43,3.43,0,0,1-.228-1.332,3.184,3.184,0,0,1,.988-2.3,3.641,3.641,0,0,1,1.188-.744,4.319,4.319,0,0,1,1.608-.28,5.4,5.4,0,0,1,1.888.32,4.263,4.263,0,0,1,1.472.9Z" transform="translate(-0.648)" fill="#c6d1ec"/>
      </g>
      <line x1="64.352" x2="64.352" y2="31" fill="#fff" stroke="#fff" stroke-miterlimit="10"/>
    </g>
  </g>
</svg>
