<svg xmlns="http://www.w3.org/2000/svg" viewBox="0 0 114.01 33.294">
  <title>A0_switch</title>
  <g id="Ebene_2" data-name="Ebene 2">
    <g id="Ebene_1-2" data-name="Ebene 1">
      <g id="FÜR_ALLE_ANGEHENDEN_LEHRERINNEN_UND_LEHRER" data-name="FÜR ALLE ANGEHENDEN LEHRERINNEN UND LEHRER">
        <g style="isolation: isolate">
          <path d="M56.4,8.493a4.821,4.821,0,0,1-.307,1.758,3.9,3.9,0,0,1-.863,1.356,3.847,3.847,0,0,1-1.339.873,4.625,4.625,0,0,1-1.727.309H48.947v-8.6h3.216A4.645,4.645,0,0,1,53.89,4.5a3.826,3.826,0,0,1,1.339.876,3.928,3.928,0,0,1,.863,1.359A4.821,4.821,0,0,1,56.4,8.493Zm-1.194,0a4.315,4.315,0,0,0-.216-1.416,3.015,3.015,0,0,0-.612-1.056,2.61,2.61,0,0,0-.96-.66,3.318,3.318,0,0,0-1.254-.228H50.117v6.714h2.046a3.318,3.318,0,0,0,1.254-.228,2.627,2.627,0,0,0,.96-.657,2.983,2.983,0,0,0,.612-1.053A4.315,4.315,0,0,0,55.205,8.493Z" fill="#fff"/>
          <path d="M63.581,4.191v.948H59.453V8H62.8v.912H59.453v2.934h4.128v.948h-5.3v-8.6Z" fill="#fff"/>
          <path d="M69.959,5.535a.467.467,0,0,1-.115.135.25.25,0,0,1-.155.045.415.415,0,0,1-.237-.1,3.778,3.778,0,0,0-.342-.225,2.841,2.841,0,0,0-.5-.225,2.149,2.149,0,0,0-.7-.1,2.081,2.081,0,0,0-.69.1,1.448,1.448,0,0,0-.5.285,1.158,1.158,0,0,0-.3.423,1.325,1.325,0,0,0-.1.525.971.971,0,0,0,.178.6,1.5,1.5,0,0,0,.468.4,3.585,3.585,0,0,0,.66.291l.756.255q.387.132.756.3a2.678,2.678,0,0,1,.66.417,1.915,1.915,0,0,1,.468.618,2.057,2.057,0,0,1,.176.9,2.9,2.9,0,0,1-.191,1.059,2.444,2.444,0,0,1-.562.861,2.62,2.62,0,0,1-.905.576,3.334,3.334,0,0,1-1.222.21,3.727,3.727,0,0,1-1.52-.3,3.557,3.557,0,0,1-1.173-.819l.336-.552a.423.423,0,0,1,.116-.111.28.28,0,0,1,.154-.045.48.48,0,0,1,.288.135,4.8,4.8,0,0,0,.405.3,3.064,3.064,0,0,0,.588.3,2.317,2.317,0,0,0,.843.135,2.217,2.217,0,0,0,.738-.114,1.576,1.576,0,0,0,.549-.321,1.388,1.388,0,0,0,.344-.495,1.654,1.654,0,0,0,.121-.642,1.077,1.077,0,0,0-.177-.639,1.478,1.478,0,0,0-.465-.417,3.25,3.25,0,0,0-.657-.285l-.756-.24a7.382,7.382,0,0,1-.756-.285,2.479,2.479,0,0,1-.657-.419,1.93,1.93,0,0,1-.465-.646,2.3,2.3,0,0,1-.177-.957,2.292,2.292,0,0,1,.69-1.638,2.492,2.492,0,0,1,.831-.528,3.042,3.042,0,0,1,1.136-.2,3.645,3.645,0,0,1,1.315.228,3.05,3.05,0,0,1,1.038.66Z" fill="#fff"/>
          <path d="M73.594,12.789H72.43v-8.6h1.164Z" fill="#fff"/>
          <path d="M80.032,11.943a5.728,5.728,0,0,0,.64-.033,4.211,4.211,0,0,0,.548-.1,3.74,3.74,0,0,0,.486-.16,4.907,4.907,0,0,0,.456-.213v-1.9H80.83a.259.259,0,0,1-.183-.065.219.219,0,0,1-.069-.163v-.66h2.64v3.3a4.76,4.76,0,0,1-.674.408,4.669,4.669,0,0,1-.75.291,5.467,5.467,0,0,1-.856.174,8.005,8.005,0,0,1-.99.057,4.471,4.471,0,0,1-1.716-.321,3.947,3.947,0,0,1-1.344-.9,4.086,4.086,0,0,1-.879-1.389,4.9,4.9,0,0,1-.315-1.782A5,5,0,0,1,76,6.7a3.859,3.859,0,0,1,2.267-2.286A4.967,4.967,0,0,1,80.092,4.1a5.645,5.645,0,0,1,.949.075,4.442,4.442,0,0,1,.812.216,3.737,3.737,0,0,1,.694.343,4.144,4.144,0,0,1,.593.452l-.33.528a.3.3,0,0,1-.263.162.41.41,0,0,1-.21-.066q-.151-.084-.336-.2a2.922,2.922,0,0,0-.453-.231,3.7,3.7,0,0,0-.63-.189,4.17,4.17,0,0,0-.862-.077,3.487,3.487,0,0,0-1.314.236,2.779,2.779,0,0,0-1,.678A3.039,3.039,0,0,0,77.1,7.086a4.2,4.2,0,0,0-.221,1.407,4.289,4.289,0,0,0,.23,1.455,3.072,3.072,0,0,0,.651,1.083,2.827,2.827,0,0,0,1,.678A3.35,3.35,0,0,0,80.032,11.943Z" fill="#fff"/>
          <path d="M86.137,4.23a.613.613,0,0,1,.171.159l4.98,6.48q-.018-.156-.024-.3c0-.1,0-.193,0-.285V4.191h1.019v8.6H91.69a.5.5,0,0,1-.231-.048.594.594,0,0,1-.183-.162L86.3,6.105q.012.15.018.294t.006.264v6.126h-1.02v-8.6h.6A.522.522,0,0,1,86.137,4.23Z" fill="#fff"/>
          <path d="M47.987,18.592h.966a.41.41,0,0,1,.258.078.372.372,0,0,1,.137.2l1.777,5.977c.032.107.06.223.087.347s.05.254.075.39c.028-.136.055-.267.084-.393a2.914,2.914,0,0,1,.1-.344l2.022-5.977a.421.421,0,0,1,.141-.188.38.38,0,0,1,.254-.087h.336a.4.4,0,0,1,.256.078.423.423,0,0,1,.141.2l2.01,5.977a6,6,0,0,1,.192.714c.023-.132.046-.258.065-.378a2.551,2.551,0,0,1,.079-.336l1.782-5.977a.361.361,0,0,1,.135-.191.389.389,0,0,1,.254-.084h.907l-2.682,8.6H56.315l-2.179-6.557a3.649,3.649,0,0,1-.12-.433c-.019.08-.038.157-.056.232s-.037.14-.057.2l-2.19,6.557H50.669Z" fill="#fff"/>
          <path d="M66.772,18.592v.947H62.644V22.4h3.343v.912H62.644v2.933h4.128v.948h-5.3v-8.6Z" fill="#fff"/>
          <path d="M74.806,25.413a.239.239,0,0,1,.174.078l.456.5a3.653,3.653,0,0,1-1.28.954,4.352,4.352,0,0,1-1.815.342,4.269,4.269,0,0,1-1.686-.32,3.688,3.688,0,0,1-1.29-.9,4.039,4.039,0,0,1-.828-1.388,5.193,5.193,0,0,1-.294-1.782,4.879,4.879,0,0,1,.314-1.783,4.045,4.045,0,0,1,.886-1.391,3.944,3.944,0,0,1,1.364-.9,4.673,4.673,0,0,1,1.755-.321,3.912,3.912,0,0,1,2.857,1.093l-.378.533a.483.483,0,0,1-.1.1.274.274,0,0,1-.156.039.3.3,0,0,1-.165-.058c-.059-.038-.127-.085-.207-.14s-.174-.117-.283-.18a2.455,2.455,0,0,0-.383-.181,3.344,3.344,0,0,0-.516-.14,3.521,3.521,0,0,0-.679-.057,3.265,3.265,0,0,0-1.262.236,2.841,2.841,0,0,0-.988.675,3.069,3.069,0,0,0-.644,1.068,4.074,4.074,0,0,0-.232,1.411,4.142,4.142,0,0,0,.232,1.433,3.139,3.139,0,0,0,.63,1.066,2.66,2.66,0,0,0,.945.663,3.035,3.035,0,0,0,1.176.227,4.623,4.623,0,0,0,.689-.045,2.914,2.914,0,0,0,.568-.14,2.483,2.483,0,0,0,.486-.244,3.68,3.68,0,0,0,.452-.35A.3.3,0,0,1,74.806,25.413Z" fill="#fff"/>
          <path d="M84.239,27.189h-1.17V23.277H78.436v3.912h-1.17v-8.6h1.17v3.834h4.633V18.592h1.17Z" fill="#fff"/>
          <path d="M91.043,19.936a.475.475,0,0,1-.115.134.244.244,0,0,1-.155.045.42.42,0,0,1-.237-.1,3.563,3.563,0,0,0-.342-.226,2.917,2.917,0,0,0-.5-.225,2.149,2.149,0,0,0-.7-.1,2.092,2.092,0,0,0-.691.1,1.454,1.454,0,0,0-.5.286,1.155,1.155,0,0,0-.3.422,1.33,1.33,0,0,0-.1.526.97.97,0,0,0,.178.6,1.5,1.5,0,0,0,.468.406,3.654,3.654,0,0,0,.66.291l.756.255c.258.088.51.186.756.3a2.678,2.678,0,0,1,.66.417,1.9,1.9,0,0,1,.468.618,2.056,2.056,0,0,1,.176.9,2.907,2.907,0,0,1-.191,1.06,2.431,2.431,0,0,1-.562.86,2.605,2.605,0,0,1-.905.576,3.317,3.317,0,0,1-1.222.21,3.711,3.711,0,0,1-1.52-.3,3.543,3.543,0,0,1-1.173-.819l.336-.552A.423.423,0,0,1,86.4,25.5a.288.288,0,0,1,.154-.045.476.476,0,0,1,.288.136c.108.09.243.188.405.3a3.122,3.122,0,0,0,.588.3,2.34,2.34,0,0,0,.843.134,2.217,2.217,0,0,0,.738-.114,1.575,1.575,0,0,0,.549-.32,1.406,1.406,0,0,0,.344-.5,1.663,1.663,0,0,0,.121-.643,1.077,1.077,0,0,0-.177-.639,1.49,1.49,0,0,0-.465-.417,3.25,3.25,0,0,0-.657-.285l-.756-.24a7.617,7.617,0,0,1-.756-.284,2.482,2.482,0,0,1-.657-.42,1.93,1.93,0,0,1-.465-.646,2.47,2.47,0,0,1,0-1.838,2.253,2.253,0,0,1,.513-.756,2.478,2.478,0,0,1,.831-.529,3.062,3.062,0,0,1,1.136-.2,3.624,3.624,0,0,1,1.315.229,3.035,3.035,0,0,1,1.038.66Z" fill="#fff"/>
          <path d="M98.6,18.592v.947H94.468V22.4H97.81v.912H94.468v2.933H98.6v.948H93.3v-8.6Z" fill="#fff"/>
          <path d="M101.734,26.212h3.721v.977H100.57v-8.6h1.164Z" fill="#fff"/>
          <path d="M107.87,18.631a.6.6,0,0,1,.171.158l4.979,6.481c-.011-.105-.019-.206-.023-.3s-.006-.194-.006-.285v-6.09h1.019v8.6h-.587a.508.508,0,0,1-.232-.047.6.6,0,0,1-.182-.163l-4.974-6.473c.008.1.014.2.017.294s.006.183.006.263v6.126h-1.019v-8.6h.6A.513.513,0,0,1,107.87,18.631Z" fill="#fff"/>
        </g>
      </g>
      <g>
        <path d="M4.867,9.762,9.925,17.3c-3.711,1.513-3.979,2.523-1.8,6.268a13.845,13.845,0,0,0,19.156,4.91c.3-.18.577-.4.879-.574.939-.546,1.974-1.851,2.9-.229.82,1.435-.631,2.038-1.532,2.658a15.922,15.922,0,0,1-13.679,2.35A15.855,15.855,0,0,1,4.093,20.894c-.435-1.571-.594-3.131-2.985-2.9-1.684.162-1.09-1-.541-1.825C1.9,14.162,3.252,12.166,4.867,9.762Z" fill="#fff"/>
        <path d="M35.327,23.563,30.22,15.839c3.964-.948,4.128-1.327,2.406-5.041C29.092,3.177,19.882.613,12.419,5.138c-.961.582-2.057,2.314-3.163.571-.952-1.5.693-2.21,1.715-2.9A16.4,16.4,0,0,1,35.95,12.119c.675,2.381,1.492,3.743,4.518,3.141C39.14,18.421,37.163,20.651,35.327,23.563Z" fill="#a1bfed"/>
      </g>
    </g>
  </g>
</svg>
