<svg xmlns="http://www.w3.org/2000/svg" viewBox="0 0 68.23 21.529">
  <title>A0_switch</title>
  <g id="Ebene_2" data-name="Ebene 2">
    <g id="Ebene_1-2" data-name="Ebene 1">
      <g>
        <path id="path7145" d="M3.225,6.149l3.194,4.925c-2.415.94-2.6,1.591-1.227,4.034a8.953,8.953,0,0,0,12.18,3.457l.156-.089c.2-.113.377-.253.574-.362.612-.344,1.295-1.177,1.877-.119.516.936-.428,1.311-1.017,1.7a10.3,10.3,0,0,1-8.868,1.381,10.251,10.251,0,0,1-7.482-7.74c-.266-1.021-.353-2.031-1.9-1.906-1.09.088-.695-.657-.331-1.185C1.262,8.964,2.156,7.687,3.225,6.149Z" fill="#fff"/>
        <path id="path7147" d="M22.779,15.379l-3.224-5.045c2.573-.573,2.683-.817,1.607-3.235C18.954,2.136,13.025.385,8.154,3.235,7.527,3.6,6.8,4.711,6.1,3.573c-.6-.98.471-1.422,1.138-1.858A10.605,10.605,0,0,1,23.3,7.986c.412,1.547.927,2.436,2.889,2.077A36.495,36.495,0,0,1,22.779,15.379Z" fill="#8da6e8"/>
        <g>
          <path d="M40.565,10.689a4.692,4.692,0,0,1-.318,1.752,3.934,3.934,0,0,1-2.28,2.268,4.87,4.87,0,0,1-1.794.318H32.861V6.352h3.312a4.83,4.83,0,0,1,1.794.32,4.073,4.073,0,0,1,1.386.894,3.993,3.993,0,0,1,.894,1.371A4.692,4.692,0,0,1,40.565,10.689Zm-1.65,0a3.982,3.982,0,0,0-.192-1.281,2.714,2.714,0,0,0-.546-.96,2.354,2.354,0,0,0-.861-.6,2.981,2.981,0,0,0-1.143-.21H34.487v6.108h1.686a2.962,2.962,0,0,0,1.143-.21,2.342,2.342,0,0,0,.861-.6,2.714,2.714,0,0,0,.546-.96A3.982,3.982,0,0,0,38.915,10.689Z" fill="#fff"/>
          <path d="M44.29,8.775a2.991,2.991,0,0,1,1.072.186,2.367,2.367,0,0,1,.843.543,2.493,2.493,0,0,1,.551.876,3.294,3.294,0,0,1,.2,1.185,1.961,1.961,0,0,1-.016.279.436.436,0,0,1-.053.175.227.227,0,0,1-.105.089.451.451,0,0,1-.168.027h-3.8a2.112,2.112,0,0,0,.509,1.392,1.592,1.592,0,0,0,1.177.444,2.046,2.046,0,0,0,.621-.084,2.994,2.994,0,0,0,.456-.186c.13-.068.243-.13.342-.186a.571.571,0,0,1,.285-.084.317.317,0,0,1,.155.036.358.358,0,0,1,.115.1l.431.54a2.465,2.465,0,0,1-.551.483,3.1,3.1,0,0,1-.64.312,3.465,3.465,0,0,1-.677.165,4.855,4.855,0,0,1-.669.048,3.3,3.3,0,0,1-1.2-.213,2.673,2.673,0,0,1-.96-.63,2.961,2.961,0,0,1-.642-1.032,4.016,4.016,0,0,1-.234-1.425,3.385,3.385,0,0,1,.2-1.185,2.834,2.834,0,0,1,.585-.966,2.748,2.748,0,0,1,.93-.651A3.058,3.058,0,0,1,44.29,8.775Zm.031,1.062a1.369,1.369,0,0,0-1.014.366,1.806,1.806,0,0,0-.469,1.038h2.784a1.814,1.814,0,0,0-.078-.543,1.235,1.235,0,0,0-.239-.447,1.14,1.14,0,0,0-.409-.3A1.388,1.388,0,0,0,44.321,9.837Z" fill="#fff"/>
          <path d="M51.814,10.071a.4.4,0,0,1-.126.135.326.326,0,0,1-.168.039.522.522,0,0,1-.231-.06c-.082-.04-.176-.084-.284-.135a2.845,2.845,0,0,0-.369-.135,1.78,1.78,0,0,0-.49-.06,1.139,1.139,0,0,0-.69.186.579.579,0,0,0-.251.486.463.463,0,0,0,.128.333,1.166,1.166,0,0,0,.343.237,3.152,3.152,0,0,0,.483.183c.18.054.363.114.551.177s.372.137.553.219a1.943,1.943,0,0,1,.483.312,1.465,1.465,0,0,1,.342.453,1.44,1.44,0,0,1,.129.636,2.043,2.043,0,0,1-.162.819,1.8,1.8,0,0,1-.474.648,2.214,2.214,0,0,1-.771.426,3.588,3.588,0,0,1-1.674.1,3.562,3.562,0,0,1-.582-.159,3.221,3.221,0,0,1-.516-.24,2.409,2.409,0,0,1-.417-.3l.342-.564a.484.484,0,0,1,.156-.156.435.435,0,0,1,.228-.054.487.487,0,0,1,.26.078c.082.052.178.108.286.168a2.394,2.394,0,0,0,.38.168,1.653,1.653,0,0,0,.556.078,1.444,1.444,0,0,0,.453-.063.959.959,0,0,0,.312-.165.617.617,0,0,0,.179-.237.712.712,0,0,0,.058-.279.5.5,0,0,0-.129-.354,1.122,1.122,0,0,0-.342-.239,3.166,3.166,0,0,0-.487-.184q-.273-.081-.558-.177a5.065,5.065,0,0,1-.557-.225,1.925,1.925,0,0,1-.487-.327,1.478,1.478,0,0,1-.341-.486,1.7,1.7,0,0,1-.129-.7,1.773,1.773,0,0,1,.15-.72,1.7,1.7,0,0,1,.441-.6,2.18,2.18,0,0,1,.726-.408,3.022,3.022,0,0,1,1-.153,3.082,3.082,0,0,1,1.159.21,2.652,2.652,0,0,1,.87.552Z" fill="#fff"/>
          <path d="M55.205,7.077a.841.841,0,0,1-.078.36.989.989,0,0,1-.207.294,1,1,0,0,1-.3.2.933.933,0,0,1-.372.075.894.894,0,0,1-.363-.075.962.962,0,0,1-.3-.2.972.972,0,0,1-.2-.294.854.854,0,0,1-.075-.36.9.9,0,0,1,.075-.371.945.945,0,0,1,.2-.3.962.962,0,0,1,.3-.2.894.894,0,0,1,.363-.075.933.933,0,0,1,.372.075,1,1,0,0,1,.3.2.961.961,0,0,1,.207.3A.891.891,0,0,1,55.205,7.077Zm-.222,1.8v6.155H53.5V8.872Z" fill="#fff"/>
          <path d="M58.787,8.763a3.276,3.276,0,0,1,.744.081,2.513,2.513,0,0,1,.635.237h1.77v.552a.3.3,0,0,1-.071.216.428.428,0,0,1-.246.108l-.552.1a1.989,1.989,0,0,1,.093.329,1.962,1.962,0,0,1,.033.366,1.81,1.81,0,0,1-.687,1.452,2.35,2.35,0,0,1-.762.4,3.127,3.127,0,0,1-.957.142,3.375,3.375,0,0,1-.678-.067c-.193.117-.288.248-.288.393a.289.289,0,0,0,.171.275,1.371,1.371,0,0,0,.45.124,4.988,4.988,0,0,0,.633.036c.235,0,.478.01.726.03a5.93,5.93,0,0,1,.726.106,2.131,2.131,0,0,1,.633.237,1.281,1.281,0,0,1,.45.443,1.362,1.362,0,0,1,.171.719,1.7,1.7,0,0,1-.2.8,2.115,2.115,0,0,1-.583.686,3.025,3.025,0,0,1-.932.485,4,4,0,0,1-1.26.183,4.851,4.851,0,0,1-1.218-.135,2.832,2.832,0,0,1-.855-.36,1.561,1.561,0,0,1-.507-.519,1.217,1.217,0,0,1-.168-.612,1.042,1.042,0,0,1,.264-.726,1.809,1.809,0,0,1,.732-.468,1.032,1.032,0,0,1-.367-.336.986.986,0,0,1-.137-.546.888.888,0,0,1,.048-.285,1.139,1.139,0,0,1,.147-.291,1.4,1.4,0,0,1,.249-.272,1.681,1.681,0,0,1,.354-.232,1.935,1.935,0,0,1-.735-.672,1.8,1.8,0,0,1-.267-.984,1.831,1.831,0,0,1,.183-.825,1.858,1.858,0,0,1,.51-.63,2.331,2.331,0,0,1,.773-.4A3.336,3.336,0,0,1,58.787,8.763Zm1.626,6.523a.422.422,0,0,0-.108-.3.7.7,0,0,0-.294-.181,2.1,2.1,0,0,0-.435-.095,4.214,4.214,0,0,0-.528-.031h-.576a2.449,2.449,0,0,1-.573-.066,1.355,1.355,0,0,0-.405.327.672.672,0,0,0-.153.435.6.6,0,0,0,.081.3.669.669,0,0,0,.258.243,1.56,1.56,0,0,0,.459.16,3.638,3.638,0,0,0,.69.056,3.443,3.443,0,0,0,.714-.064,1.685,1.685,0,0,0,.495-.178.758.758,0,0,0,.285-.269A.673.673,0,0,0,60.413,15.286ZM58.787,11.8a1.39,1.39,0,0,0,.48-.075.954.954,0,0,0,.339-.206.865.865,0,0,0,.2-.319,1.188,1.188,0,0,0,.069-.408.966.966,0,0,0-.273-.723,1.39,1.39,0,0,0-1.638,0,.966.966,0,0,0-.273.723,1.147,1.147,0,0,0,.069.4.881.881,0,0,0,.2.321.917.917,0,0,0,.342.21A1.4,1.4,0,0,0,58.787,11.8Z" fill="#fff"/>
          <path d="M62.866,15.027V8.872h.906a.363.363,0,0,1,.378.269l.1.486a3.376,3.376,0,0,1,.393-.348,2.744,2.744,0,0,1,.438-.27,2.283,2.283,0,0,1,.5-.174,2.6,2.6,0,0,1,.576-.06,2.207,2.207,0,0,1,.894.171,1.766,1.766,0,0,1,.651.48,2.11,2.11,0,0,1,.4.738,3.136,3.136,0,0,1,.135.945v3.918H66.748V11.109a1.315,1.315,0,0,0-.261-.873.967.967,0,0,0-.783-.309,1.532,1.532,0,0,0-.72.175,2.551,2.551,0,0,0-.636.473v4.452Z" fill="#fff"/>
        </g>
      </g>
    </g>
  </g>
</svg>
