<svg xmlns="http://www.w3.org/2000/svg" viewBox="0 0 410.994 39.842">
  <title>A0_teachUOS</title>
  <g id="Ebene_2" data-name="Ebene 2">
    <g id="Ebene_1-2" data-name="Ebene 1">
      <g>
        <g id="teach" style="isolation: isolate">
          <g style="isolation: isolate">
            <path d="M55.184,25.6a2.548,2.548,0,0,1-1.884-.673,2.829,2.829,0,0,1-.672-2.076V14.7H50.912a.32.32,0,0,1-.216-.072.254.254,0,0,1-.084-.2v-.443l2.04-.145.286-4.271a.327.327,0,0,1,.088-.193.271.271,0,0,1,.207-.084h.535v4.56h3.756V14.7H53.768v8.1a2.54,2.54,0,0,0,.126.847,1.6,1.6,0,0,0,.348.581,1.378,1.378,0,0,0,.522.337,1.924,1.924,0,0,0,.648.107,1.983,1.983,0,0,0,.744-.126,3.084,3.084,0,0,0,.54-.276,3.463,3.463,0,0,0,.372-.276.409.409,0,0,1,.228-.126.26.26,0,0,1,.192.12l.312.5a3.328,3.328,0,0,1-1.158.81A3.609,3.609,0,0,1,55.184,25.6Z" transform="translate(0 -4.177)"/>
            <path d="M65.228,13.279a4.937,4.937,0,0,1,1.866.348,4.183,4.183,0,0,1,1.488,1.015,4.663,4.663,0,0,1,.984,1.637,6.5,6.5,0,0,1,.354,2.232.593.593,0,0,1-.078.36.3.3,0,0,1-.245.1H60.98V19.2a8.111,8.111,0,0,0,.312,2.365,4.852,4.852,0,0,0,.888,1.71,3.675,3.675,0,0,0,1.392,1.038,4.623,4.623,0,0,0,1.824.347,5.459,5.459,0,0,0,1.56-.2,5.814,5.814,0,0,0,1.11-.444,5.955,5.955,0,0,0,.714-.444.82.82,0,0,1,.384-.2.275.275,0,0,1,.24.12l.312.384a3.256,3.256,0,0,1-.762.672,5.364,5.364,0,0,1-1.057.534,7.653,7.653,0,0,1-1.247.355,6.943,6.943,0,0,1-1.338.131,5.7,5.7,0,0,1-2.232-.425A4.761,4.761,0,0,1,61.35,23.9a5.7,5.7,0,0,1-1.116-2A8.537,8.537,0,0,1,59.84,19.2a7.379,7.379,0,0,1,.366-2.37,5.446,5.446,0,0,1,1.056-1.872,4.837,4.837,0,0,1,1.692-1.23A5.575,5.575,0,0,1,65.228,13.279Zm.017.852a4.5,4.5,0,0,0-1.653.288,3.624,3.624,0,0,0-1.264.828,4.239,4.239,0,0,0-.863,1.3,5.9,5.9,0,0,0-.437,1.692h7.86a5.242,5.242,0,0,0-.264-1.722,3.693,3.693,0,0,0-.742-1.29,3.229,3.229,0,0,0-1.151-.81A3.817,3.817,0,0,0,65.245,14.131Z" transform="translate(0 -4.177)"/>
            <path d="M80.852,25.411a.411.411,0,0,1-.445-.336l-.168-1.524a12.7,12.7,0,0,1-.977.864,5.778,5.778,0,0,1-1.015.648,4.962,4.962,0,0,1-1.14.4,6.108,6.108,0,0,1-1.343.139,3.962,3.962,0,0,1-1.189-.181,2.927,2.927,0,0,1-1.019-.552,2.7,2.7,0,0,1-.714-.954,3.284,3.284,0,0,1-.271-1.4A2.49,2.49,0,0,1,73,21.115a3.562,3.562,0,0,1,1.351-1.128,8.9,8.9,0,0,1,2.364-.768,20.546,20.546,0,0,1,3.473-.336V17.635a4.007,4.007,0,0,0-.713-2.55,2.551,2.551,0,0,0-2.119-.894,3.989,3.989,0,0,0-1.469.24,5.27,5.27,0,0,0-1.027.528,6.342,6.342,0,0,0-.683.528.748.748,0,0,1-.445.241.389.389,0,0,1-.36-.217l-.2-.348a6.929,6.929,0,0,1,1.969-1.416,5.494,5.494,0,0,1,2.34-.479,4.264,4.264,0,0,1,1.679.3,3.107,3.107,0,0,1,1.195.876,3.844,3.844,0,0,1,.713,1.38,6.315,6.315,0,0,1,.241,1.806v7.776Zm-4.8-.636a5.061,5.061,0,0,0,1.277-.15,4.717,4.717,0,0,0,1.08-.42,5.185,5.185,0,0,0,.93-.642q.432-.372.852-.8V19.651a21.575,21.575,0,0,0-2.933.258,8.458,8.458,0,0,0-2.028.57,2.966,2.966,0,0,0-1.176.858,1.826,1.826,0,0,0-.378,1.134,2.5,2.5,0,0,0,.2,1.038,2.067,2.067,0,0,0,.523.72,2.037,2.037,0,0,0,.755.415A3.1,3.1,0,0,0,76.052,24.775Z" transform="translate(0 -4.177)"/>
            <path d="M93.008,15.067a1.224,1.224,0,0,1-.114.1.242.242,0,0,1-.151.042.629.629,0,0,1-.33-.162,4.454,4.454,0,0,0-.558-.354,4.706,4.706,0,0,0-.87-.354,4.86,4.86,0,0,0-3.095.2,3.631,3.631,0,0,0-1.345,1.05,4.84,4.84,0,0,0-.834,1.656,7.72,7.72,0,0,0-.287,2.185,7.711,7.711,0,0,0,.294,2.231,4.719,4.719,0,0,0,.834,1.638,3.548,3.548,0,0,0,1.307,1.014,4.083,4.083,0,0,0,1.7.348,4.393,4.393,0,0,0,1.446-.2,4.74,4.74,0,0,0,.96-.443,4.389,4.389,0,0,0,.6-.445.622.622,0,0,1,.355-.2.275.275,0,0,1,.239.12l.313.384a3.5,3.5,0,0,1-.7.672,4.645,4.645,0,0,1-.948.54,5.782,5.782,0,0,1-1.145.354,6.451,6.451,0,0,1-1.29.126,5.112,5.112,0,0,1-2.082-.414,4.513,4.513,0,0,1-1.621-1.2,5.6,5.6,0,0,1-1.055-1.926,8.213,8.213,0,0,1-.378-2.591,8.182,8.182,0,0,1,.359-2.5A5.625,5.625,0,0,1,85.669,15a4.712,4.712,0,0,1,1.692-1.266,5.556,5.556,0,0,1,2.3-.45,5.417,5.417,0,0,1,2.071.372,5.1,5.1,0,0,1,1.578,1.008Z" transform="translate(0 -4.177)"/>
            <path d="M96.307,25.411V7.951h1.14v7.56a6.719,6.719,0,0,1,1.89-1.626,4.72,4.72,0,0,1,2.382-.606,4.486,4.486,0,0,1,1.734.312,3.194,3.194,0,0,1,1.242.9,3.968,3.968,0,0,1,.744,1.416,6.424,6.424,0,0,1,.252,1.872v7.632h-1.14V17.779a4.086,4.086,0,0,0-.768-2.633,2.837,2.837,0,0,0-2.352-.955,4.172,4.172,0,0,0-2.184.606,6.344,6.344,0,0,0-1.8,1.662v8.952Z" transform="translate(0 -4.177)"/>
          </g>
        </g>
        <g id="UOS">
          <g style="isolation: isolate">
            <path d="M120.636,24.1a5.69,5.69,0,0,0,2.232-.416,4.669,4.669,0,0,0,1.664-1.168,5.113,5.113,0,0,0,1.04-1.825,7.477,7.477,0,0,0,.36-2.4V4.433h4.3V18.288a10.671,10.671,0,0,1-.664,3.816,8.5,8.5,0,0,1-4.936,5.008,11.592,11.592,0,0,1-8,0,8.476,8.476,0,0,1-4.92-5.008,10.671,10.671,0,0,1-.664-3.816V4.433h4.3V18.272a7.505,7.505,0,0,0,.36,2.4,5.242,5.242,0,0,0,1.032,1.832,4.536,4.536,0,0,0,1.656,1.177A5.69,5.69,0,0,0,120.636,24.1Z" transform="translate(0 -4.177)" fill="#28497c"/>
            <path d="M155.212,16a12.826,12.826,0,0,1-.848,4.712,11.181,11.181,0,0,1-2.384,3.753,10.8,10.8,0,0,1-3.7,2.472,13.366,13.366,0,0,1-9.576,0A10.862,10.862,0,0,1,135,24.465a11.108,11.108,0,0,1-2.392-3.753A12.8,12.8,0,0,1,131.756,16a12.813,12.813,0,0,1,.848-4.712A11.113,11.113,0,0,1,135,7.536a10.862,10.862,0,0,1,3.712-2.472,12.544,12.544,0,0,1,4.792-.887,12.4,12.4,0,0,1,4.784.9,10.969,10.969,0,0,1,3.7,2.472,11.092,11.092,0,0,1,2.384,3.744A12.833,12.833,0,0,1,155.212,16ZM150.8,16a10.779,10.779,0,0,0-.5-3.416,7.226,7.226,0,0,0-1.448-2.567,6.241,6.241,0,0,0-2.3-1.617,8.614,8.614,0,0,0-6.1,0,6.3,6.3,0,0,0-2.311,1.617,7.24,7.24,0,0,0-1.464,2.567A10.606,10.606,0,0,0,136.156,16a10.6,10.6,0,0,0,.512,3.416,7.16,7.16,0,0,0,1.464,2.561,6.344,6.344,0,0,0,2.311,1.607,8.585,8.585,0,0,0,6.1,0,6.287,6.287,0,0,0,2.3-1.607,7.147,7.147,0,0,0,1.448-2.561A10.77,10.77,0,0,0,150.8,16Z" transform="translate(0 -4.177)" fill="#28497c"/>
            <path d="M169.4,8.641a1.2,1.2,0,0,1-.407.5,1.037,1.037,0,0,1-.553.143,1.393,1.393,0,0,1-.719-.248c-.267-.165-.581-.348-.945-.552a7.713,7.713,0,0,0-1.271-.551,5.332,5.332,0,0,0-1.72-.248,5.052,5.052,0,0,0-1.56.215,3.314,3.314,0,0,0-1.121.6,2.412,2.412,0,0,0-.679.92,3.011,3.011,0,0,0-.224,1.177,2.036,2.036,0,0,0,.456,1.359,3.8,3.8,0,0,0,1.208.928,10.989,10.989,0,0,0,1.712.688q.96.3,1.96.649a18.732,18.732,0,0,1,1.96.8,6.775,6.775,0,0,1,1.712,1.151,5.237,5.237,0,0,1,1.208,1.7,5.917,5.917,0,0,1,.456,2.448,7.986,7.986,0,0,1-.536,2.937,6.8,6.8,0,0,1-1.568,2.384,7.383,7.383,0,0,1-2.52,1.6,9.264,9.264,0,0,1-3.408.584,10.977,10.977,0,0,1-2.176-.216,11.373,11.373,0,0,1-2.057-.616,10.645,10.645,0,0,1-1.839-.96,8.97,8.97,0,0,1-1.528-1.248l1.248-2.063a1.561,1.561,0,0,1,.424-.376,1.029,1.029,0,0,1,.552-.153,1.529,1.529,0,0,1,.864.329q.464.327,1.1.727a8.387,8.387,0,0,0,1.488.729,5.765,5.765,0,0,0,2.056.328,4.22,4.22,0,0,0,2.847-.872,3.128,3.128,0,0,0,1.009-2.5,2.326,2.326,0,0,0-.456-1.489,3.689,3.689,0,0,0-1.208-.967,8.97,8.97,0,0,0-1.712-.664q-.96-.273-1.952-.592a16.852,16.852,0,0,1-1.952-.769,6.3,6.3,0,0,1-1.712-1.168,5.3,5.3,0,0,1-1.208-1.8,6.838,6.838,0,0,1-.456-2.664,6.372,6.372,0,0,1,1.975-4.591,7.255,7.255,0,0,1,2.376-1.489,8.659,8.659,0,0,1,3.216-.559,10.815,10.815,0,0,1,3.777.639,8.548,8.548,0,0,1,2.944,1.792Z" transform="translate(0 -4.177)" fill="#28497c"/>
          </g>
        </g>
        <g id="FÜR_ALLE_ANGEHENDEN_LEHRERINNEN_UND_LEHRER" data-name="FÜR ALLE ANGEHENDEN LEHRERINNEN UND LEHRER" style="isolation: isolate">
          <g style="isolation: isolate">
            <path d="M118.336,35.427v.51h-4.47v3.57h3.87v.51h-3.87v3.9h-.618v-8.49Z" transform="translate(0 -4.177)" fill="#28497c"/>
            <path d="M123.25,43.479a2.691,2.691,0,0,0,1.095-.213,2.357,2.357,0,0,0,.819-.591,2.6,2.6,0,0,0,.513-.891,3.372,3.372,0,0,0,.177-1.107v-5.25h.612v5.25a3.8,3.8,0,0,1-.222,1.311,3.134,3.134,0,0,1-.639,1.062,2.935,2.935,0,0,1-1.014.711,3.614,3.614,0,0,1-2.682,0,2.935,2.935,0,0,1-1.014-.711,3.118,3.118,0,0,1-.639-1.062,3.775,3.775,0,0,1-.222-1.311v-5.25h.617v5.244a3.372,3.372,0,0,0,.178,1.107,2.611,2.611,0,0,0,.51.891,2.35,2.35,0,0,0,.816.594A2.655,2.655,0,0,0,123.25,43.479Zm-.762-9.552a.416.416,0,0,1-.042.183.514.514,0,0,1-.108.15.527.527,0,0,1-.156.1A.463.463,0,0,1,122,34.4a.442.442,0,0,1-.183-.039.539.539,0,0,1-.153-.1.472.472,0,0,1-.1-.15.427.427,0,0,1-.039-.183.447.447,0,0,1,.039-.186.537.537,0,0,1,.1-.159.483.483,0,0,1,.153-.108.442.442,0,0,1,.183-.039.463.463,0,0,1,.186.039.474.474,0,0,1,.156.108.587.587,0,0,1,.108.159A.435.435,0,0,1,122.488,33.927Zm2.5,0a.427.427,0,0,1-.039.183.434.434,0,0,1-.107.15.6.6,0,0,1-.156.1.442.442,0,0,1-.183.039.457.457,0,0,1-.189-.039.539.539,0,0,1-.153-.1.456.456,0,0,1-.105-.15.427.427,0,0,1-.039-.183.477.477,0,0,1,.144-.345.463.463,0,0,1,.342-.147.442.442,0,0,1,.183.039.533.533,0,0,1,.156.108.49.49,0,0,1,.107.159A.447.447,0,0,1,124.983,33.927Z" transform="translate(0 -4.177)" fill="#28497c"/>
            <path d="M129.706,40.077v3.84h-.612v-8.49h2.166a3.537,3.537,0,0,1,2.2.567,1.984,1.984,0,0,1,.726,1.665,2.281,2.281,0,0,1-.168.888,2.083,2.083,0,0,1-.483.705,2.577,2.577,0,0,1-.759.5,3.379,3.379,0,0,1-1,.255,1,1,0,0,1,.257.24l2.922,3.672h-.534a.353.353,0,0,1-.165-.036.433.433,0,0,1-.135-.12L131.4,40.317a.6.6,0,0,0-.219-.186.915.915,0,0,0-.363-.054Zm0-.456h1.476a3.49,3.49,0,0,0,1.011-.135,2.177,2.177,0,0,0,.756-.387,1.66,1.66,0,0,0,.471-.606,1.9,1.9,0,0,0,.162-.8,1.56,1.56,0,0,0-.594-1.344,2.884,2.884,0,0,0-1.728-.438h-1.554Z" transform="translate(0 -4.177)" fill="#28497c"/>
            <path d="M145.191,43.917h-.473a.208.208,0,0,1-.138-.045.3.3,0,0,1-.084-.117l-1-2.466h-4.17l-1,2.466a.265.265,0,0,1-.084.114.225.225,0,0,1-.144.048h-.468l3.473-8.49h.613Zm-5.681-3.084h3.8l-1.734-4.29c-.028-.068-.057-.145-.084-.231s-.057-.177-.084-.273c-.028.1-.057.187-.084.273s-.056.165-.084.237Z" transform="translate(0 -4.177)" fill="#28497c"/>
            <path d="M147.147,43.4h4.027v.522h-4.639v-8.49h.612Z" transform="translate(0 -4.177)" fill="#28497c"/>
            <path d="M153.285,43.4h4.027v.522h-4.639v-8.49h.612Z" transform="translate(0 -4.177)" fill="#28497c"/>
            <path d="M163.9,35.427v.51H159.43v3.432h3.719v.5H159.43v3.54H163.9v.51h-5.087v-8.49Z" transform="translate(0 -4.177)" fill="#28497c"/>
            <path d="M174.609,43.917h-.474a.208.208,0,0,1-.138-.045.309.309,0,0,1-.084-.117l-1-2.466h-4.17l-1,2.466a.25.25,0,0,1-.084.114.223.223,0,0,1-.143.048h-.469l3.474-8.49h.612Zm-5.682-3.084h3.8L171,36.543q-.042-.1-.084-.231t-.084-.273q-.042.144-.084.273t-.084.237Z" transform="translate(0 -4.177)" fill="#28497c"/>
            <path d="M176.385,35.448a.282.282,0,0,1,.1.093l5.5,7.356q-.018-.18-.018-.348V35.427h.54v8.49h-.294a.259.259,0,0,1-.222-.12l-5.52-7.368q.018.18.018.342v7.146h-.534v-8.49h.3A.33.33,0,0,1,176.385,35.448Z" transform="translate(0 -4.177)" fill="#28497c"/>
            <path d="M188.673,43.515a6.48,6.48,0,0,0,.8-.045,4.3,4.3,0,0,0,.669-.135,4.192,4.192,0,0,0,.588-.219q.279-.129.561-.291V40.539h-1.632a.157.157,0,0,1-.111-.042.128.128,0,0,1-.045-.1v-.336h2.346v3.018a5.542,5.542,0,0,1-.66.4,4.4,4.4,0,0,1-.732.291,5.648,5.648,0,0,1-.84.18,7.131,7.131,0,0,1-.984.063,4.408,4.408,0,0,1-1.677-.309,3.721,3.721,0,0,1-1.3-.876,3.951,3.951,0,0,1-.843-1.371,5.469,5.469,0,0,1,0-3.573,3.887,3.887,0,0,1,.852-1.368A3.754,3.754,0,0,1,187,35.64a4.807,4.807,0,0,1,1.767-.309,5.671,5.671,0,0,1,.9.066,4.175,4.175,0,0,1,.765.2,3.592,3.592,0,0,1,.66.318,4.458,4.458,0,0,1,.588.435l-.162.264a.168.168,0,0,1-.15.09.225.225,0,0,1-.1-.024,1.262,1.262,0,0,1-.261-.168,2.8,2.8,0,0,0-.462-.276,3.85,3.85,0,0,0-.729-.258,4.271,4.271,0,0,0-1.062-.114,4.024,4.024,0,0,0-1.494.264,3.167,3.167,0,0,0-1.137.756,3.351,3.351,0,0,0-.726,1.2,4.669,4.669,0,0,0-.255,1.59,4.728,4.728,0,0,0,.258,1.614,3.439,3.439,0,0,0,.723,1.209,3.118,3.118,0,0,0,1.116.759A3.786,3.786,0,0,0,188.673,43.515Z" transform="translate(0 -4.177)" fill="#28497c"/>
            <path d="M199.1,35.427v.51h-4.47v3.432h3.72v.5h-3.72v3.54h4.47v.51h-5.088v-8.49Z" transform="translate(0 -4.177)" fill="#28497c"/>
            <path d="M207.65,43.917h-.618V39.849h-5.315v4.068H201.1v-8.49h.618v3.96h5.315v-3.96h.618Z" transform="translate(0 -4.177)" fill="#28497c"/>
            <path d="M215.259,35.427v.51h-4.471v3.432h3.721v.5h-3.721v3.54h4.471v.51H210.17v-8.49Z" transform="translate(0 -4.177)" fill="#28497c"/>
            <path d="M217.694,35.448a.274.274,0,0,1,.1.093l5.5,7.356q-.018-.18-.018-.348V35.427h.54v8.49h-.293a.261.261,0,0,1-.223-.12l-5.52-7.368q.018.18.018.342v7.146h-.534v-8.49h.3A.335.335,0,0,1,217.694,35.448Z" transform="translate(0 -4.177)" fill="#28497c"/>
            <path d="M233.48,39.669a5.024,5.024,0,0,1-.293,1.77,3.824,3.824,0,0,1-.829,1.338,3.576,3.576,0,0,1-1.278.846,4.452,4.452,0,0,1-1.649.294h-3.1v-8.49h3.1a4.452,4.452,0,0,1,1.649.294,3.589,3.589,0,0,1,1.278.846,3.824,3.824,0,0,1,.829,1.338A5.006,5.006,0,0,1,233.48,39.669Zm-.635,0a4.738,4.738,0,0,0-.246-1.584,3.328,3.328,0,0,0-.694-1.176,2.946,2.946,0,0,0-1.077-.732,3.732,3.732,0,0,0-1.4-.252h-2.479v7.494h2.479a3.732,3.732,0,0,0,1.4-.252,2.946,2.946,0,0,0,1.077-.732,3.328,3.328,0,0,0,.694-1.176A4.757,4.757,0,0,0,232.845,39.669Z" transform="translate(0 -4.177)" fill="#28497c"/>
            <path d="M240.542,35.427v.51h-4.47v3.432h3.72v.5h-3.72v3.54h4.47v.51h-5.088v-8.49Z" transform="translate(0 -4.177)" fill="#28497c"/>
            <path d="M242.978,35.448a.282.282,0,0,1,.1.093l5.5,7.356q-.018-.18-.018-.348V35.427h.54v8.49H248.8a.259.259,0,0,1-.222-.12l-5.52-7.368q.018.18.018.342v7.146h-.534v-8.49h.3A.337.337,0,0,1,242.978,35.448Z" transform="translate(0 -4.177)" fill="#28497c"/>
            <path d="M254.546,43.4h4.026v.522h-4.638v-8.49h.612Z" transform="translate(0 -4.177)" fill="#28497c"/>
            <path d="M265.16,35.427v.51h-4.471v3.432h3.721v.5h-3.721v3.54h4.471v.51h-5.089v-8.49Z" transform="translate(0 -4.177)" fill="#28497c"/>
            <path d="M273.716,43.917H273.1V39.849h-5.317v4.068h-.618v-8.49h.618v3.96H273.1v-3.96h.618Z" transform="translate(0 -4.177)" fill="#28497c"/>
            <path d="M277.027,40.077v3.84h-.611v-8.49h2.166a3.532,3.532,0,0,1,2.195.567,1.982,1.982,0,0,1,.727,1.665,2.281,2.281,0,0,1-.168.888,2.083,2.083,0,0,1-.483.705,2.577,2.577,0,0,1-.759.5,3.378,3.378,0,0,1-1,.255,1,1,0,0,1,.258.24l2.922,3.672h-.534a.353.353,0,0,1-.165-.036.412.412,0,0,1-.135-.12l-2.718-3.444a.611.611,0,0,0-.219-.186.915.915,0,0,0-.363-.054Zm0-.456H278.5a3.5,3.5,0,0,0,1.011-.135,2.185,2.185,0,0,0,.756-.387,1.671,1.671,0,0,0,.471-.606,1.9,1.9,0,0,0,.162-.8,1.56,1.56,0,0,0-.594-1.344,2.884,2.884,0,0,0-1.728-.438h-1.555Z" transform="translate(0 -4.177)" fill="#28497c"/>
            <path d="M288.9,35.427v.51h-4.47v3.432h3.72v.5h-3.72v3.54h4.47v.51h-5.088v-8.49Z" transform="translate(0 -4.177)" fill="#28497c"/>
            <path d="M291.691,40.077v3.84h-.612v-8.49h2.166a3.535,3.535,0,0,1,2.2.567,1.982,1.982,0,0,1,.726,1.665,2.281,2.281,0,0,1-.168.888,2.066,2.066,0,0,1-.482.705,2.577,2.577,0,0,1-.759.5,3.394,3.394,0,0,1-1,.255.989.989,0,0,1,.258.24l2.922,3.672H296.4a.353.353,0,0,1-.165-.036.43.43,0,0,1-.134-.12l-2.718-3.444a.613.613,0,0,0-.22-.186.909.909,0,0,0-.362-.054Zm0-.456h1.476a3.5,3.5,0,0,0,1.012-.135,2.177,2.177,0,0,0,.756-.387,1.657,1.657,0,0,0,.47-.606,1.881,1.881,0,0,0,.162-.8,1.562,1.562,0,0,0-.593-1.344,2.89,2.89,0,0,0-1.729-.438h-1.554Z" transform="translate(0 -4.177)" fill="#28497c"/>
            <path d="M299.312,43.917h-.619v-8.49h.619Z" transform="translate(0 -4.177)" fill="#28497c"/>
            <path d="M302.491,35.448a.283.283,0,0,1,.1.093l5.5,7.356a3.229,3.229,0,0,1-.019-.348V35.427h.54v8.49h-.294a.257.257,0,0,1-.221-.12l-5.521-7.368a3.176,3.176,0,0,1,.019.342v7.146h-.534v-8.49h.3A.33.33,0,0,1,302.491,35.448Z" transform="translate(0 -4.177)" fill="#28497c"/>
            <path d="M311.564,35.448a.28.28,0,0,1,.1.093l5.5,7.356c-.012-.12-.017-.236-.017-.348V35.427h.54v8.49h-.294a.261.261,0,0,1-.223-.12l-5.52-7.368q.018.18.018.342v7.146h-.534v-8.49h.3A.344.344,0,0,1,311.564,35.448Z" transform="translate(0 -4.177)" fill="#28497c"/>
            <path d="M325.291,35.427v.51h-4.47v3.432h3.72v.5h-3.72v3.54h4.47v.51H320.2v-8.49Z" transform="translate(0 -4.177)" fill="#28497c"/>
            <path d="M327.728,35.448a.28.28,0,0,1,.1.093l5.5,7.356c-.011-.12-.017-.236-.017-.348V35.427h.54v8.49h-.294a.261.261,0,0,1-.223-.12l-5.519-7.368c.011.12.017.234.017.342v7.146H327.3v-8.49h.3A.344.344,0,0,1,327.728,35.448Z" transform="translate(0 -4.177)" fill="#28497c"/>
            <path d="M341.821,43.479a2.684,2.684,0,0,0,1.095-.213,2.347,2.347,0,0,0,.819-.591,2.6,2.6,0,0,0,.513-.891,3.372,3.372,0,0,0,.177-1.107v-5.25h.612v5.25a3.8,3.8,0,0,1-.222,1.311,3.134,3.134,0,0,1-.639,1.062,2.925,2.925,0,0,1-1.014.711,3.614,3.614,0,0,1-2.682,0,2.935,2.935,0,0,1-1.014-.711,3.15,3.15,0,0,1-.639-1.062,3.8,3.8,0,0,1-.222-1.311v-5.25h.618v5.244a3.372,3.372,0,0,0,.177,1.107,2.644,2.644,0,0,0,.51.891,2.345,2.345,0,0,0,.817.594A2.647,2.647,0,0,0,341.821,43.479Z" transform="translate(0 -4.177)" fill="#28497c"/>
            <path d="M347.917,35.448a.29.29,0,0,1,.1.093l5.5,7.356q-.018-.18-.018-.348V35.427h.54v8.49h-.294a.258.258,0,0,1-.222-.12L348,36.429q.018.18.018.342v7.146h-.535v-8.49h.3A.337.337,0,0,1,347.917,35.448Z" transform="translate(0 -4.177)" fill="#28497c"/>
            <path d="M363.7,39.669a5.024,5.024,0,0,1-.294,1.77,3.808,3.808,0,0,1-.828,1.338,3.576,3.576,0,0,1-1.278.846,4.454,4.454,0,0,1-1.65.294h-3.1v-8.49h3.1a4.454,4.454,0,0,1,1.65.294,3.589,3.589,0,0,1,1.278.846,3.808,3.808,0,0,1,.828,1.338A5.005,5.005,0,0,1,363.7,39.669Zm-.636,0a4.738,4.738,0,0,0-.246-1.584,3.326,3.326,0,0,0-.693-1.176,2.946,2.946,0,0,0-1.077-.732,3.733,3.733,0,0,0-1.4-.252h-2.478v7.494h2.478a3.733,3.733,0,0,0,1.4-.252,2.946,2.946,0,0,0,1.077-.732,3.326,3.326,0,0,0,.693-1.176A4.757,4.757,0,0,0,363.067,39.669Z" transform="translate(0 -4.177)" fill="#28497c"/>
            <path d="M368.605,43.4h4.026v.522h-4.639v-8.49h.613Z" transform="translate(0 -4.177)" fill="#28497c"/>
            <path d="M379.219,35.427v.51h-4.47v3.432h3.72v.5h-3.72v3.54h4.47v.51h-5.088v-8.49Z" transform="translate(0 -4.177)" fill="#28497c"/>
            <path d="M387.774,43.917h-.618V39.849h-5.315v4.068h-.618v-8.49h.618v3.96h5.315v-3.96h.618Z" transform="translate(0 -4.177)" fill="#28497c"/>
            <path d="M391.086,40.077v3.84h-.611v-8.49h2.166a3.534,3.534,0,0,1,2.195.567,1.985,1.985,0,0,1,.727,1.665,2.281,2.281,0,0,1-.168.888,2.1,2.1,0,0,1-.484.705,2.577,2.577,0,0,1-.759.5,3.378,3.378,0,0,1-1,.255.989.989,0,0,1,.258.24l2.922,3.672H395.8a.35.35,0,0,1-.165-.036.424.424,0,0,1-.136-.12l-2.718-3.444a.6.6,0,0,0-.218-.186.924.924,0,0,0-.364-.054Zm0-.456h1.477a3.488,3.488,0,0,0,1.01-.135,2.177,2.177,0,0,0,.756-.387,1.684,1.684,0,0,0,.472-.606,1.912,1.912,0,0,0,.162-.8,1.558,1.558,0,0,0-.6-1.344,2.879,2.879,0,0,0-1.727-.438h-1.555Z" transform="translate(0 -4.177)" fill="#28497c"/>
            <path d="M402.954,35.427v.51h-4.47v3.432h3.72v.5h-3.72v3.54h4.47v.51h-5.088v-8.49Z" transform="translate(0 -4.177)" fill="#28497c"/>
            <path d="M405.75,40.077v3.84h-.611v-8.49h2.166a3.534,3.534,0,0,1,2.195.567,1.985,1.985,0,0,1,.727,1.665,2.281,2.281,0,0,1-.168.888,2.1,2.1,0,0,1-.484.705,2.577,2.577,0,0,1-.759.5,3.362,3.362,0,0,1-1,.255.989.989,0,0,1,.258.24l2.922,3.672h-.533a.353.353,0,0,1-.165-.036.424.424,0,0,1-.136-.12l-2.718-3.444a.6.6,0,0,0-.218-.186.921.921,0,0,0-.364-.054Zm0-.456h1.477a3.488,3.488,0,0,0,1.01-.135,2.177,2.177,0,0,0,.756-.387,1.684,1.684,0,0,0,.472-.606,1.912,1.912,0,0,0,.162-.8,1.558,1.558,0,0,0-.6-1.344,2.879,2.879,0,0,0-1.727-.438H405.75Z" transform="translate(0 -4.177)" fill="#28497c"/>
          </g>
        </g>
        <g id="Gruppe_13" data-name="Gruppe 13">
          <path id="Pfad_7" data-name="Pfad 7" d="M23.052,7.217,0,14.209l9.956,4.6L22.59,14.241l2.094.82L12.062,19.785l10.989,5.069L46.109,14.211ZM9.476,20.222l-5.344,1.63L8.7,23.959l.774.36Z" transform="translate(0 -4.177)" fill="#28497c"/>
          <path id="Pfad_8" data-name="Pfad 8" d="M37,20.735l-14.471,6.8-9.315-4.381v4.1l9.315,4.375,14.564-6.843,5.168-2.421Zm-26.891,12.8,3.1,1.22V20.33l-3.1-.993Z" transform="translate(0 -4.177)" fill="#325386"/>
        </g>
      </g>
    </g>
  </g>
</svg>
