<svg xmlns="http://www.w3.org/2000/svg" xmlns:xlink="http://www.w3.org/1999/xlink" viewBox="0 0 301.004 217.104">
  <defs>
    <clipPath id="clip-path" transform="translate(-19.609 -27.726)">
      <path d="M342,70.831a171,171,0,0,1-342,0C0-23.61,342-23.61,342,70.831Z" fill="none"/>
    </clipPath>
  </defs>
  <title>A_praxis</title>
  <g id="Ebene_2" data-name="Ebene 2">
    <g id="Ebene_1-2" data-name="Ebene 1">
      <g clip-path="url(#clip-path)">
        <g>
          <path d="M200.759,65.486l-.007-3.466L173.2,56.064,56.651,31.076V178.109L200.95,156.7Zm-3.571,86.263L63.758,167.123V40.726l133.43,24.125Z" transform="translate(-19.609 -27.726)" fill="#e2e7f5"/>
          <g>
            <path d="M115.4,64.62a32.608,32.608,0,0,1-4.995.8,1.568,1.568,0,0,0-.055-.405,1.284,1.284,0,0,0-1.153-1.007,13.446,13.446,0,0,0-1.976.372,5.059,5.059,0,0,1-1.851-.264,20.219,20.219,0,0,0-3.761-1.1,12.993,12.993,0,0,0-3.744.364,12.04,12.04,0,0,1-3.59.343,1.853,1.853,0,0,0-.571-1.572c-.862-.756-2-.124-2.909.19a5.219,5.219,0,0,1-3.179.151c-.546-.161-1.071-.4-1.616-.567a8.526,8.526,0,0,0-1.743-.325,21.75,21.75,0,0,0-4.015.14c-.571.056-.468,1.065.1,1.009a13.243,13.243,0,0,1,6.1.389,5.91,5.91,0,0,0,4.326.257c.451-.136.883-.339,1.332-.476.354-.109.853-.221,1.13.12.15.184.276.524.083.682a.537.537,0,0,0,.2.91c2.274.513,4.522-.432,6.788-.609a7.966,7.966,0,0,1,3.373.568,9.446,9.446,0,0,0,3.466.814,3.837,3.837,0,0,0,.947-.158,3.586,3.586,0,0,1,.957-.227.409.409,0,0,1,.431.225,1.437,1.437,0,0,1,.054.228c.014.044,0,.015-.005.035l-.014,0a.519.519,0,0,0,.215.976,32.592,32.592,0,0,0,5.783-.855C116.061,65.5,115.964,64.485,115.4,64.62Z" transform="translate(-19.609 -27.726)" fill="#28497c"/>
            <path d="M115.4,71.019a11.179,11.179,0,0,1-4.075.47,11.38,11.38,0,0,1-2.011-.335q-.474-.123-.936-.292a1.505,1.505,0,0,1-.4-.173.514.514,0,0,1-.066-.066.571.571,0,0,0,0-.485.425.425,0,0,0-.55-.22c-3.331,1.024-6.772-.362-10.024-1.029a13.294,13.294,0,0,0-5.053-.237,10.974,10.974,0,0,0-1.272.334,1.421,1.421,0,0,1-.579.1c-.175-.025-.245-.154-.326-.319a1.544,1.544,0,0,0-.928-.954,4.881,4.881,0,0,0-1.408-.058l-7.138.092c-.241,0-.416.323-.391.572a.465.465,0,0,0,.494.438l6.369-.082c.511-.007,1.027-.038,1.536-.017a.656.656,0,0,1,.507.163,3.134,3.134,0,0,1,.279.537c.567,1.02,1.572.535,2.4.323,3.39-.864,6.793.563,10.1,1.19a12.438,12.438,0,0,0,5.144.051c.008.018.014.036.023.053a1.442,1.442,0,0,0,.827.685,11.882,11.882,0,0,0,2.479.648,11.762,11.762,0,0,0,3.9-.087.372.372,0,0,0,.423.066l.89-.394C116.076,71.792,115.9,70.869,115.4,71.019Z" transform="translate(-19.609 -27.726)" fill="#28497c"/>
            <path d="M109.624,76.118c-1.695-1.019-3.661-.84-5.522-.718a13.01,13.01,0,0,1-2.811-.028,23.1,23.1,0,0,1-2.966-.8,7.653,7.653,0,0,0-3.027-.354c-.944.109-1.859.424-2.8.571a7.636,7.636,0,0,1-3-.308,15.552,15.552,0,0,0-3.072-.395,38.3,38.3,0,0,0-7.075.638c-.568.088-.467,1.1.1,1.01a42.583,42.583,0,0,1,6.155-.648,16.01,16.01,0,0,1,3.066.258,16.114,16.114,0,0,0,3.055.531,14.1,14.1,0,0,0,2.8-.5,6.453,6.453,0,0,1,2.844-.011c1,.224,1.962.6,2.955.848a10.255,10.255,0,0,0,2.842.253c2.031-.067,4.22-.534,6.089.589C109.765,77.357,110.125,76.419,109.624,76.118Z" transform="translate(-19.609 -27.726)" fill="#28497c"/>
            <path d="M103.476,81.286a50.188,50.188,0,0,0-12-1.334c.046-.355-.22-.753-.584-.556q-.588.315-1.174.632A.518.518,0,0,0,89.93,81,49.4,49.4,0,0,1,103.34,82.3C103.9,82.426,104.033,81.417,103.476,81.286Z" transform="translate(-19.609 -27.726)" fill="#28497c"/>
          </g>
          <polygon points="37.043 3.146 34.675 3.146 34.675 148.911 37.191 150.61 37.043 3.146" fill="#647bb8" opacity="0.6"/>
          <path d="M148.109,180.014s-6.511-.962-13.078-2.623c-.206-.051-.412-.108-.618-.16-1.558-.406-3.1-.847-4.558-1.322-.206-.075-.412-.144-.612-.212a26.737,26.737,0,0,1-5.2-2.291c-.212-.126-.413-.257-.6-.389a5.283,5.283,0,0,1-1.569-1.569c-2.948-5.13-4.889-51.909-1.053-57.514a21.5,21.5,0,0,1,1.809-2.279c.223-.252.452-.492.681-.733a36.545,36.545,0,0,1,4.255-3.716c.211-.154.412-.3.607-.446a40.449,40.449,0,0,1,3.715-2.411l16.055,3.327Z" transform="translate(-19.609 -27.726)" fill="#637795"/>
          <path d="M152.1,148.757c-.259-4.725-1.528-9.468-2.733-14.1-.458-1.746-.9-3.468-1.275-5.172-.083-.382-.159-.77-.224-1.152a46.007,46.007,0,0,1-.335-11c.065-1.046.141-2.092.212-3.144.059-.911.123-1.816.182-2.727q.379-5.739.758-11.472c.03-.482.065-.964.094-1.446.094-1.422.259-2.88.371-4.332a28.708,28.708,0,0,0,.088-3.62c-.071-1.458-.465-2.939-1.887-3.579a.3.3,0,0,0-.188-.018c-.047-.012-.94-1.922-1-1.922-.858.206-1.71.394-2.551.588-5.2,1.181-11.706,2.5-13.575,8.34-.041.117-.077.235-.112.358-.98,3.428-2.266,6.691-2.6,10.271-.291,3.078-.19,6.193-.678,9.253-.5,3.153-1.52,6.2-1.967,9.366-.5,3.509-.106,7.03-.741,10.545-.695,3.849-1.968,7.57-2.05,11.515a9.031,9.031,0,0,0,1.522,5.49c1.534,2.221,4.073,3.561,6.876,4.443a62.563,62.563,0,0,0,8.851,1.557c1,.147,2.016.265,3.027.365a74.283,74.283,0,0,0,8.786.335.3.3,0,0,0,.282-.218,22.278,22.278,0,0,0,.6-2.65A26.908,26.908,0,0,0,152.1,148.757Z" transform="translate(-19.609 -27.726)" fill="#253448"/>
          <path d="M202.854,195.12c-.472-12.333-.479-20.881-2.792-33.06.327-.083.577-.4.325-.733a2.564,2.564,0,0,0-.581-.554c-.062-.308-.119-.618-.183-.926-.138-.659-1.2-.38-1.058.279.013.061.024.123.036.185a19.063,19.063,0,0,0-3.573.154,91.645,91.645,0,0,1-10.84-.319c-7.023-.539-14.079-1.444-21.131-.831-3.042.264-6.011.894-9,1.457a42.056,42.056,0,0,1-6.144.807c-1.858.071-3.659-.524-5.466-.49a2.008,2.008,0,0,0-2.2,1.745,17.072,17.072,0,0,0-.631,5.076c-2,5.184-2.434,12.913-2.4,18.476.064,9.83.476,19.667.728,29.5.132,5.147,1.926,20.344,2.3,22.647.01.065.032.185.032.185h28.061a22.715,22.715,0,0,1,.567-5.057c.486-2.154,2.608-19.163,2.608-19.163s1.1,23.645,1.024,24.22h28.136S203.358,208.306,202.854,195.12Z" transform="translate(-19.609 -27.726)" fill="#a5b2c7"/>
          <path d="M171.372,218.7h-.029a.286.286,0,0,1-.256-.314c.069-.691,1.7-16.948,2.453-18.825s6.631-10.7,6.881-11.075a.287.287,0,0,1,.477.318c-.061.091-6.1,9.157-6.827,10.969-.576,1.443-1.831,12.843-2.415,18.67A.285.285,0,0,1,171.372,218.7Z" transform="translate(-19.609 -27.726)" fill="#382823"/>
          <path d="M167.261,169.331c-14.3,0-25.906-1.045-26.042-1.058a.286.286,0,1,1,.053-.57,319.661,319.661,0,0,0,33.521.953c16.287-.457,24.52-2.265,24.6-2.283a.286.286,0,1,1,.125.558c-.082.019-8.359,1.839-24.711,2.3C172.244,169.3,169.712,169.331,167.261,169.331Z" transform="translate(-19.609 -27.726)" fill="#253448"/>
          <path d="M146.4,168.657h-.029a.286.286,0,0,1-.256-.313l.286-2.862a.289.289,0,0,1,.313-.257.286.286,0,0,1,.256.314l-.286,2.862A.285.285,0,0,1,146.4,168.657Z" transform="translate(-19.609 -27.726)" fill="#253448"/>
          <path d="M147.878,168.657h-.023a.287.287,0,0,1-.263-.309l.229-2.862a.288.288,0,0,1,.308-.262.285.285,0,0,1,.262.308l-.228,2.862A.286.286,0,0,1,147.878,168.657Z" transform="translate(-19.609 -27.726)" fill="#253448"/>
          <path d="M198.263,166.938a.286.286,0,0,1-.285-.263l-.238-3.006a.285.285,0,0,1,.263-.308.3.3,0,0,1,.307.262l.238,3.006a.285.285,0,0,1-.262.308Z" transform="translate(-19.609 -27.726)" fill="#253448"/>
          <path d="M196.974,167.367a.285.285,0,0,1-.284-.26l-.286-3.149a.287.287,0,0,1,.259-.311.292.292,0,0,1,.311.259l.286,3.149a.286.286,0,0,1-.259.311Z" transform="translate(-19.609 -27.726)" fill="#253448"/>
          <path d="M174.729,168.352a1.733,1.733,0,1,1,1.395-1.7A1.573,1.573,0,0,1,174.729,168.352Zm0-2.827c-.454,0-.823.506-.823,1.127s.369,1.127.823,1.127.823-.506.823-1.127S175.183,165.525,174.729,165.525Z" transform="translate(-19.609 -27.726)" fill="#253448"/>
          <path d="M173.619,200.635a.283.283,0,0,1-.2-.083.287.287,0,0,1,0-.405l5.225-5.259a.286.286,0,0,1,.406.4l-5.225,5.26A.285.285,0,0,1,173.619,200.635Z" transform="translate(-19.609 -27.726)" fill="#382823"/>
          <path d="M219.3,83.034s3.957,29.543-.958,33.492-10.219,2.276-9.555-8.229,1.5-24.333,1.5-24.333Z" transform="translate(-19.609 -27.726)" fill="#deafa5"/>
          <path d="M182.817,35.231a12.458,12.458,0,0,0-10.5-6.428,21.435,21.435,0,0,0-14.375.338,19.4,19.4,0,0,0-9.464,8.128,11.721,11.721,0,0,0-1.293,3.515,11.542,11.542,0,0,0-.7,2.76,25.459,25.459,0,0,1-.65,4.935,15.522,15.522,0,0,1-2.09,3.9c-1.441,2.092-3.169,4.124-3.877,6.613-.968,3.4,1.006,6.925-1.1,10.079-1.539,2.3-3.889,4.252-4.132,7.216-.107,1.3,1.153,1.858,1,3.1-.134,1.065-1.1,1.726-.616,2.892,1.117,2.708,5.206,1.122,7.278,1.659a31.208,31.208,0,0,0,4.022,1.212,11.784,11.784,0,0,0,4.346-.568,15.546,15.546,0,0,1,3.233-.592,19.852,19.852,0,0,0,2.947-.027,5.94,5.94,0,0,0,1.76-.711c.249-.135.485-.292.742-.413a11.391,11.391,0,0,1,1.529-.369c1.087-.378.7-1.488.571-2.4-.053-.378-.113-.756-.172-1.133.507.094,1.013.195,1.516.312a11.006,11.006,0,0,0,3.907.594,5.291,5.291,0,0,0,3.24-2.026A10.6,10.6,0,0,0,172.2,77.8c1.154-.118,3,3.639,3.779,2.994,1.34-1.109,2.648-2,2.219-6.584-.158-1.678,4.437-4.509,6.22-16.165a67.03,67.03,0,0,0,.792-7.92C185.383,45.082,185.358,39.754,182.817,35.231Z" transform="translate(-19.609 -27.726)" fill="#3f577c"/>
          <path d="M197.292,88.89c-1.025-2.531-4.271-3.762-6.642-4.162a30.508,30.508,0,0,1-6.287-1.81c-.406-.166-.8-.332-1.179-.509-3.71-1.672-6.384-3.711-7.106-4.793-1.145-1.717-1.225-11.451-.286-16.02a.285.285,0,0,0-.321-.321q-7.188.816-14.423,1.037c-.011-.848-.022-1.7-.034-2.548,0-.367-.567-.292-.567.068.006.836.018,1.667.029,2.5-.195.005-.389.011-.578.022-.144-.183-.842-1.775-.854-1.488-.171,3.069.264,7.747,0,10.81a13.991,13.991,0,0,1-.87,4.741A9.953,9.953,0,0,1,154.4,80.3c-1.236.813-8.445,3.744-8.445,3.744s7.575,7.095,8.909,7.358c3.951.784,7.982,1.328,11.972,1.866a44.662,44.662,0,0,0,10.885-.08,7.3,7.3,0,0,0,2.685,2.863,18.528,18.528,0,0,0,6.55,1.964c2.9.492,5.8.968,8.7,1.454a.291.291,0,0,0,.355-.194,26.881,26.881,0,0,0,1.087-5.153C197.235,92.789,197.807,90.178,197.292,88.89Z" transform="translate(-19.609 -27.726)" fill="#e3cbc1"/>
          <path d="M181.134,48.967c-.122-3.364.047-6.708-1-9.615s-4.485-6.5-7.539-7.3c-4.043-1.062-8.641-.966-11.887,1.666-3.638,2.949-5.16,5.249-5.718,9.628a33.407,33.407,0,0,0,.9,13.426,23.815,23.815,0,0,0,2.965,7.3,13.563,13.563,0,0,0,6.084,5.244c3.373,1.384,7.489,1.316,10.423-.648,2.736-1.831,3.663-4.356,4.537-7.348A42.59,42.59,0,0,0,181.134,48.967Z" transform="translate(-19.609 -27.726)" fill="#e3cbc1"/>
          <path d="M155.727,48.848s-2.259-1.337-2.775,2.312.666,6.161,2.568,6.328,2.426-2.668,2.426-2.668Z" transform="translate(-19.609 -27.726)" fill="#ffa18a"/>
          <path d="M176.492,48.983c1.416-.276,1.166,3.132.125,3.156a.858.858,0,0,1-.653-.329C175.407,51.147,175.416,49.193,176.492,48.983Z" transform="translate(-19.609 -27.726)" fill="#17253d"/>
          <path d="M163.27,48.983c1.416-.276,1.167,3.132.126,3.156a.858.858,0,0,1-.653-.329C162.186,51.147,162.2,49.193,163.27,48.983Z" transform="translate(-19.609 -27.726)" fill="#17253d"/>
          <path d="M166.212,60.109a13.006,13.006,0,0,0,4.008.71,14.383,14.383,0,0,0,4.627-.191,4.683,4.683,0,0,1-8.635-.519Z" transform="translate(-19.609 -27.726)" fill="#fff"/>
          <path d="M155.386,54.954a.272.272,0,0,1-.151-.045,1.936,1.936,0,0,1-.721-1.364,3.668,3.668,0,0,1,.463-2.073.287.287,0,0,1,.5.284,3.13,3.13,0,0,0-.4,1.7,1.464,1.464,0,0,0,.468.977.287.287,0,0,1-.161.524Z" transform="translate(-19.609 -27.726)" fill="#f2795c"/>
          <path d="M166.692,45.09a10.751,10.751,0,0,0-3.492-.166,19.574,19.574,0,0,0-2.118.289,3.75,3.75,0,0,0-1.839.615c-.421.428.816.293,1.1.3.956.031,1.915-.054,3.114-.067.928-.011,1.862.1,2.789.092.387,0,.827.041,1.085-.243C167.744,45.461,167.187,45.214,166.692,45.09Z" transform="translate(-19.609 -27.726)" fill="#253448"/>
          <path d="M174.513,45.911c.208.284.565.239.878.243.751.009,1.507-.1,2.259-.092.97.013,1.747.1,2.521.067.233-.01,1.234.125.893-.3-.484-.607-1.687-.726-2.529-.827a8.494,8.494,0,0,0-3.5.089C174.632,45.212,174.181,45.459,174.513,45.911Z" transform="translate(-19.609 -27.726)" fill="#253448"/>
          <path d="M156.786,49.948s-2.126-1.588-2.981,2.2.087,6.517,1.968,6.849,2.667-2.6,2.667-2.6Z" transform="translate(-19.609 -27.726)" fill="#e3cbc1"/>
          <path d="M160.293,51.7a.386.386,0,0,1-.082-.008l-3.691-.712a.431.431,0,0,1-.34-.5.426.426,0,0,1,.5-.34l3.691.712a.429.429,0,0,1-.081.851Z" transform="translate(-19.609 -27.726)" fill="#17253d"/>
          <path d="M181.613,41.4c-.068-.034-.133-.069-.2-.1-1.245-7.875-10.488-11.653-17.618-9.85a14.306,14.306,0,0,0-9.307,7.527,14.857,14.857,0,0,0-1.458,5.26c-.085,1.007.195,2.094.072,3.069-.12.959-1.252,1.615-1.6,2.523-1.009,2.6.288,5.74,2,8.247.129-.1.26-.205.389-.3a4.223,4.223,0,0,0,1.627-2.4c.354-1.332.246-2.842,1.006-4.046.679-1.075,1.907-1.361,2.779-2.2,1.039-1,1.015-2.628,1.932-3.736a10.124,10.124,0,0,1,3.621-2.282c1.66-.784,3.746-1.142,5.138-2.351A17.055,17.055,0,0,0,171.9,38.9a5.217,5.217,0,0,0,.752-1.12,5,5,0,0,0,.431-1.442,33.682,33.682,0,0,0,7.818,5.343.236.236,0,0,0,.361.174l.061.031C181.653,42.053,181.943,41.559,181.613,41.4Z" transform="translate(-19.609 -27.726)" fill="#3f577c"/>
          <path d="M184.031,94.1c-.1.721-1.242.727-1.145,0a54.283,54.283,0,0,0,.3-11.686c.383.177.773.343,1.179.509A54.109,54.109,0,0,1,184.031,94.1Z" transform="translate(-19.609 -27.726)" fill="#17253d"/>
          <path d="M201.746,137.833c.058,2.891.45,12.042.473,12.116.647,2.222.913,10.694.249,12.148-1.094,2.4-60.447,5.088-63.946,2.074s2.9-26.951,2.246-29.888c-.166-.75-.315-1.546-.452-2.382-.3-1.832-.538-3.83-.71-5.886-.258-3.1-.372-6.315-.349-9.247.011-2.113.1-4.076.246-5.748.034-.413.074-.8.12-1.174.281-2.388.928-6.7,1.632-11.022.309-1.895.63-3.8.933-5.537.75-4.288,1.4-7.626,1.586-7.626a.13.13,0,0,0,.057-.017c.51-.35,2.119-4.638,2.119-4.638s9.436,7.163,24.58,6.945c6.917-.1,19.7-3.367,19.7-3.367a17.616,17.616,0,0,1,3.522.756,12.343,12.343,0,0,1,1.649.647c.177.086.355.172.532.269.218.121.441.247.659.39a5.474,5.474,0,0,1,2.3,2.736,12.89,12.89,0,0,1,.5,2.651c.171,1.695.234,3.819.263,6.07.069,5.239-.029,11.182.7,14.085.035.137.069.269.109.389a16.64,16.64,0,0,1,.378,5.3C200.578,123.152,201.729,136.854,201.746,137.833Z" transform="translate(-19.609 -27.726)" fill="#253448"/>
          <path d="M224.643,116.619c-.074-.274-.149-.549-.217-.824-.046-.178-.08-.355-.121-.533a21.01,21.01,0,0,1-.211-5.7c.154-2.1.463-4.214.572-6.286a21.794,21.794,0,0,0-.475-5.674c-.057-.264-.115-.533-.178-.8a21.915,21.915,0,0,1-.887-4.764,6.139,6.139,0,0,1,.051-.8,6.334,6.334,0,0,0-.538-3.592c-.917-1.866-1.415-1.805-3.228-1.184a61.162,61.162,0,0,1-10.828,2.64.2.2,0,0,0-.086.034.224.224,0,0,0-.269.2,13.222,13.222,0,0,0-.172,3.263,15.667,15.667,0,0,0,.286,1.6,3.468,3.468,0,0,1-.137,2.279,7.784,7.784,0,0,0-1.094,2.467,7.26,7.26,0,0,0-.08.773,11.641,11.641,0,0,0,.08,1.827c.046.406.149.813.178,1.214.074,1.242-.063,1.528-.51,2.026a27.09,27.09,0,0,0-3.739-5.777c-.143-.177-.292-.349-.446-.521a8.966,8.966,0,0,1-2.159-4.741,14.424,14.424,0,0,0-.406-1.551c-.292-.956-.664-1.895-1.037-2.834a5.843,5.843,0,0,0-2.4-2.714c-.218-.143-.441-.269-.659-.39-.177-.1-.355-.183-.532-.269a12.343,12.343,0,0,0-1.649-.647c-.075-.023-.143-.046-.212-.063-.475-.143-.773-.206-.773-.206a58.478,58.478,0,0,1,.836,6.075,13.44,13.44,0,0,1-.115,3.693c-.166.7-.326,1.4-.475,2.107a38.839,38.839,0,0,0-.79,5.382A60.087,60.087,0,0,0,192.58,110a22.649,22.649,0,0,1-.006,2.708,23.277,23.277,0,0,1-1.054,5.531c-.022.08-.051.16-.074.241-.658,2.078-1.374,4.236-.613,6.4.745,2.13-1.872,5.434-1.088,7.581a7.756,7.756,0,0,0,.35.8c1.082,2.107,3.195,3.774,5.416,5.314,1.191.824,2.416,1.62,3.521,2.427.3.218.59.436.871.659a21.746,21.746,0,0,0,11.125,4.162,8.922,8.922,0,0,0,6.63-1.637c2.473-2.1,3.155-5.222,3.579-8.108a18.929,18.929,0,0,1,.458-2.164,40.559,40.559,0,0,1,2.233-5.708c.131-.287.263-.579.389-.876A16.326,16.326,0,0,0,224.643,116.619Z" transform="translate(-19.609 -27.726)" fill="#253448"/>
          <path d="M147.878,96.162s4.479,15.81,2.008,29.075-17.909,41.03-17.993,41.415,0,8.591,0,8.591,17.464-26.245,21-38.937,3.6-22.235,2.848-28.246a128.362,128.362,0,0,0-2.658-13.422Z" transform="translate(-19.609 -27.726)" fill="#e3e3e3"/>
          <path d="M165.91,93.53a26.827,26.827,0,0,0-2.118-2.775,7.318,7.318,0,0,1-1.656-4.484,12.378,12.378,0,0,0-1.936-6.279,17.391,17.391,0,0,1-1.45-5.508c-.189-3.032-.2-4.584-.33-6.075a.278.278,0,0,0-.082-.5c-4.825-1.041-9.425,4.655-13.543,6.9-2.149,1.175-4.484,1.907-6.637,3.049-1.455.772-3.091,2.081-3.135,3.893-.04,1.666,1.651,3.126,2.911,3.957.472.311,1.014.491,1.479.807a3.46,3.46,0,0,1,.326.256,14.533,14.533,0,0,1,1.962,2.9c1.24,2.5,1.18,5.211,2.938,7.484.7.908,1.5,1.745,2.126,2.713a24.02,24.02,0,0,1,1.29,3.273,11.133,11.133,0,0,0,5.26,4.826.29.29,0,0,0,.43-.247c.017-1.273-.871-2.385-1.274-3.564a13.721,13.721,0,0,1-.408-1.505,14.358,14.358,0,0,0,.943,1.4,4.691,4.691,0,0,0,1.877,1.529,9.824,9.824,0,0,1,1.246.491c.664.388.892.93,1.358,1.5.619.76,1.736,1.442,2.556.533a2.238,2.238,0,0,0,.453-1.3,13.02,13.02,0,0,1,.719-3.309,14.729,14.729,0,0,0,1.006-6.021,13.64,13.64,0,0,0-.587-3.222,4.4,4.4,0,0,0,1.254,1.278c1.686,1.077,2.35,2.988,3.239,4.724a.289.289,0,0,0,.523-.068A8.375,8.375,0,0,0,165.91,93.53Z" transform="translate(-19.609 -27.726)" fill="#3f577c"/>
          <path d="M184.5,110.534a5.062,5.062,0,0,0-1.567,1.539l-.013-.025a2.473,2.473,0,0,0-.4-1.765,1,1,0,0,0-.862-.444.628.628,0,0,0-.779.381,4.1,4.1,0,0,0,1.42,4.7c1.7,1,2.769-2.667,3.043-3.736A.579.579,0,0,0,184.5,110.534Z" transform="translate(-19.609 -27.726)" fill="#637795"/>
          <path d="M191.619,93.085c-.065-.508-.773-.848-1.067-.289-.071.136-.135.274-.2.411a1.359,1.359,0,0,0-1.068-.549c-1.383.065-.922,1.664-.589,2.441.279.652.973,2.807,2.049,1.918a3.358,3.358,0,0,0,.768-1.71A6.2,6.2,0,0,0,191.619,93.085Z" transform="translate(-19.609 -27.726)" fill="#637795"/>
          <path d="M167.825,104.352a1.039,1.039,0,0,0-.909.661,3.146,3.146,0,0,0-.193.43,1.7,1.7,0,0,0-.714-.7.648.648,0,0,0-.535.021,1.012,1.012,0,0,0-.7.489,1.465,1.465,0,0,0,.064,1.288,8.708,8.708,0,0,0,.629,1.4,1.545,1.545,0,0,0,1.965.769C168.376,108.24,169.238,104.447,167.825,104.352Z" transform="translate(-19.609 -27.726)" fill="#637795"/>
          <path d="M140.306,100.225a.579.579,0,0,0-.861-.494,2.521,2.521,0,0,0-.653.461,1.633,1.633,0,0,0-1.123-1.431.582.582,0,0,0-.7.4c-.5,1.374-.225,3.53,1.2,4.3C140.1,104.49,140.347,101.348,140.306,100.225Z" transform="translate(-19.609 -27.726)" fill="#637795"/>
          <path d="M197.5,152.727a.581.581,0,0,0-.862-.5,2.565,2.565,0,0,0-.653.462,1.633,1.633,0,0,0-1.123-1.431.582.582,0,0,0-.7.4c-.5,1.374-.225,3.531,1.2,4.3C197.29,156.992,197.54,153.85,197.5,152.727Z" transform="translate(-19.609 -27.726)" fill="#637795"/>
          <path d="M149.8,118.211a.582.582,0,0,0-.7-.4,1.585,1.585,0,0,0-1.147.92.4.4,0,0,0-.056.046.553.553,0,0,0-.277-.448c-.94-.445-1.682.366-1.6,1.3a3.581,3.581,0,0,0,1.479,2.606,1.115,1.115,0,0,0,1.149.117.5.5,0,0,0,.488-.269A5.754,5.754,0,0,0,149.8,118.211Z" transform="translate(-19.609 -27.726)" fill="#637595"/>
          <path d="M134.92,135.216a.576.576,0,0,0-.957-.253,4.184,4.184,0,0,0-.791,1.254c-.036-.129-.066-.374-.1-.468a1.344,1.344,0,0,0-.367-.576.936.936,0,0,0-1.233-.1c-.445.373-.3,1.065-.239,1.569a3.172,3.172,0,0,0,.591,1.6,1.821,1.821,0,0,0,2.509.429C135.27,137.91,135.113,136.261,134.92,135.216Z" transform="translate(-19.609 -27.726)" fill="#637795"/>
          <path d="M165.994,128.244a1.1,1.1,0,0,0-.85.592,2.53,2.53,0,0,0-.882-.8.581.581,0,0,0-.862.494,3.5,3.5,0,0,0,.359,1.856,3.04,3.04,0,0,0,.915,1.381,1.546,1.546,0,0,0,2.24-1.069C167.108,129.988,167.137,128.158,165.994,128.244Z" transform="translate(-19.609 -27.726)" fill="#a18bbc"/>
          <path d="M187.764,133.494a.579.579,0,0,0-.841-.343,4.314,4.314,0,0,0-1.175,1.181,1.94,1.94,0,0,0-.886-1.648.583.583,0,0,0-.783.205,2.366,2.366,0,0,0-.167,2.3c.25.624.723,1.648,1.466,1.788.78.147,1.424-.618,1.845-1.163A2.424,2.424,0,0,0,187.764,133.494Z" transform="translate(-19.609 -27.726)" fill="#637795"/>
          <path d="M217.577,99.147a.944.944,0,0,0-1.452-.414c-.011.008-.017.016-.027.023a1.319,1.319,0,0,0-.928-.8,1.064,1.064,0,0,0-1.289.948,3.392,3.392,0,0,0,.63,2.087c.336.558.738,1.277,1.465,1.322a1.316,1.316,0,0,0,1.238-1.037A3.646,3.646,0,0,0,217.577,99.147Z" transform="translate(-19.609 -27.726)" fill="#637795"/>
          <g>
            <path d="M138.339,159.454l1.445,2.99s32.607,2.835,32.864,2.586,7.413-42.537,7.413-42.537l-3.364-.262Z" transform="translate(-19.609 -27.726)" fill="#81a9e3"/>
            <polygon points="159.497 95.029 152.022 136.063 121.115 133.509 119.628 130.458 157.392 92.484 159.497 95.029" fill="#fff"/>
            <polygon points="158.371 91.709 150.682 134.455 118.73 131.728 125.537 91.462 158.371 91.709" fill="#4d72ab"/>
          </g>
          <path d="M204.2,116.187a2.732,2.732,0,0,0-.727.309.99.99,0,0,0-.223-.507.968.968,0,0,0-1.134-.318c-.9.412-.657,2.222-.541,2.995a1.585,1.585,0,0,0,.563,1.2,1.122,1.122,0,0,0,1.268-.161,4.4,4.4,0,0,0,1.5-2.815A.58.58,0,0,0,204.2,116.187Z" transform="translate(-19.609 -27.726)" fill="#637795"/>
          <path d="M215.176,129.854c-.591-.16-1.031.353-1.349.992a2.9,2.9,0,0,0-1.151-1.259.576.576,0,0,0-.841.342c-.165,1.1-.21,2.684.668,3.529.913.88,2.172.156,2.742-.731C215.656,132.086,216.3,130.16,215.176,129.854Z" transform="translate(-19.609 -27.726)" fill="#637795"/>
          <path d="M173.3,152.043a.578.578,0,0,0-.957-.253,3.12,3.12,0,0,0-.719,1.028c-.247-.766-.873-1.515-1.765-1.083-1.284.624.052,2.291.526,3,.512.772,1.521,1.519,2.355.678C173.546,154.61,173.5,153.065,173.3,152.043Z" transform="translate(-19.609 -27.726)" fill="#a18bbc"/>
          <g>
            <path d="M173,35.63a.286.286,0,0,1-.262-.171,9.2,9.2,0,0,0-2.225-3.072,5.087,5.087,0,0,1-1.265-1.34,3.112,3.112,0,0,0-1.008-1.009,14.826,14.826,0,0,0-4.11-1.21.286.286,0,1,1,.087-.566,15,15,0,0,1,4.334,1.295,3.62,3.62,0,0,1,1.169,1.166,4.537,4.537,0,0,0,1.139,1.208,9.62,9.62,0,0,1,2.4,3.3.287.287,0,0,1-.263.4Z" transform="translate(-19.609 -27.726)" fill="#253448"/>
            <path d="M182.6,43.61a.288.288,0,0,1-.287-.275,3.978,3.978,0,0,0-.788-1.954,12.174,12.174,0,0,0-3.909-3.108,16.288,16.288,0,0,1-3.433-2.738.286.286,0,0,1,.426-.383,16.016,16.016,0,0,0,3.3,2.631,12.964,12.964,0,0,1,4.076,3.261,4.48,4.48,0,0,1,.9,2.27.288.288,0,0,1-.275.3Z" transform="translate(-19.609 -27.726)" fill="#253448"/>
            <path d="M179.487,36.922a.286.286,0,0,1-.22-.1,8.778,8.778,0,0,0-2.52-1.935c-1.593-.8-3.835-1.736-3.857-1.745a.286.286,0,1,1,.219-.529c.023.01,2.285.95,3.9,1.763a9.2,9.2,0,0,1,2.7,2.08.286.286,0,0,1-.22.469Z" transform="translate(-19.609 -27.726)" fill="#253448"/>
            <path d="M159.025,46.841a.271.271,0,0,1-.083-.013.286.286,0,0,1-.191-.357,8.61,8.61,0,0,1,1.959-3.358c1.14-1.041,2.566-1.583,4.93-2.48l.935-.356c2.7-1.036,3.972-4.425,3.984-4.459a.286.286,0,0,1,.538.2c-.054.149-1.367,3.666-4.318,4.8l-.936.356c-2.3.873-3.688,1.4-4.747,2.367a8.159,8.159,0,0,0-1.8,3.1A.286.286,0,0,1,159.025,46.841Z" transform="translate(-19.609 -27.726)" fill="#253448"/>
            <path d="M164.927,39a.286.286,0,0,1-.169-.517,17.032,17.032,0,0,0,2.794-2.749,7.586,7.586,0,0,0,1.611-2.915.286.286,0,0,1,.563.106A7.961,7.961,0,0,1,168,36.1a17.269,17.269,0,0,1-2.9,2.85A.286.286,0,0,1,164.927,39Z" transform="translate(-19.609 -27.726)" fill="#253448"/>
            <path d="M140.577,69.077a.286.286,0,0,1-.233-.452A10.676,10.676,0,0,0,141.4,65.9a10.409,10.409,0,0,0,.277-3.4,25.208,25.208,0,0,1,.095-3.513c.248-2.367.96-2.8,2.038-3.445a9.741,9.741,0,0,0,1.541-1.091c1.925-1.7,3.766-6.843,3.783-6.9a.287.287,0,0,1,.541.192c-.078.217-1.91,5.339-3.946,7.133a10.316,10.316,0,0,1-1.623,1.151c-1,.6-1.547.931-1.765,3.015a24.811,24.811,0,0,0-.091,3.439,11.013,11.013,0,0,1-.3,3.568,10.7,10.7,0,0,1-1.14,2.9A.285.285,0,0,1,140.577,69.077Z" transform="translate(-19.609 -27.726)" fill="#253448"/>
            <path d="M149.977,50.231a.276.276,0,0,1-.151-.044.285.285,0,0,1-.094-.39c.186-.363,1.411-4.972,2.14-7.8a.286.286,0,1,1,.554.143c-.456,1.767-1.963,7.564-2.206,7.953A.286.286,0,0,1,149.977,50.231Z" transform="translate(-19.609 -27.726)" fill="#253448"/>
            <path d="M161.285,93.364A.286.286,0,0,1,161,93.1c0-.038-.243-3.838-.618-6.563a11.573,11.573,0,0,0-.936-3.6c-.22-.551-.494-1.237-.864-2.262a19.222,19.222,0,0,1-1.257-5.966.287.287,0,0,1,.286-.287h0a.287.287,0,0,1,.286.286,19.038,19.038,0,0,0,1.224,5.772c.367,1.017.639,1.7.857,2.246a12.1,12.1,0,0,1,.971,3.729c.378,2.746.62,6.567.622,6.606a.286.286,0,0,1-.268.3Z" transform="translate(-19.609 -27.726)" fill="#253448"/>
            <path d="M156.8,80.242a.283.283,0,0,1-.26-.168,15.645,15.645,0,0,1-1.076-5.354,29.8,29.8,0,0,1,.868-7.3.286.286,0,0,1,.554.14,29.907,29.907,0,0,0-.849,7.132,15.433,15.433,0,0,0,1.024,5.144.285.285,0,0,1-.261.4Z" transform="translate(-19.609 -27.726)" fill="#253448"/>
            <path d="M155.081,103.336a.285.285,0,0,1-.206-.087,12.183,12.183,0,0,1-2.717-4.445c-.55-2.085-2.948-4.916-2.972-4.944a.287.287,0,0,1,.437-.372c.1.12,2.506,2.96,3.088,5.17a11.837,11.837,0,0,0,2.576,4.193.286.286,0,0,1-.206.485Z" transform="translate(-19.609 -27.726)" fill="#253448"/>
            <path d="M146.494,90.024a.286.286,0,0,1-.286-.286,11.105,11.105,0,0,0-1.47-4.534,23.672,23.672,0,0,0-1.34-2.154c-1.281-1.9-2.6-3.863-2.534-7.156a16.949,16.949,0,0,1,1.61-7.239.286.286,0,0,1,.5.273,16.736,16.736,0,0,0-1.541,6.979c-.068,3.11,1.149,4.914,2.436,6.823a23.76,23.76,0,0,1,1.372,2.208,11.365,11.365,0,0,1,1.536,4.8.286.286,0,0,1-.285.286Z" transform="translate(-19.609 -27.726)" fill="#253448"/>
            <path d="M148.879,85.357a.286.286,0,0,1-.28-.229,9.208,9.208,0,0,0-1.192-2.953c-.854-1.186-1.69-2.513-1.7-2.527a.286.286,0,1,1,.484-.3c.008.013.835,1.325,1.679,2.5a9.614,9.614,0,0,1,1.288,3.173.287.287,0,0,1-.281.343Z" transform="translate(-19.609 -27.726)" fill="#253448"/>
          </g>
          <path d="M225.947,68.757c-1.13-1.354-1.961.306-2.594,1.414-.493.71-.9,1.5-1.4,2.195.626-1.981,1.233-3.968,1.807-5.965.228-.793.84-2.087.223-2.863a2.239,2.239,0,0,0-.877-.6c.346-.977.692-1.758.079-2.394-1.115-1.155-2.3.27-2.813,1.228-.689,1.284-1.306,2.611-1.974,3.906-.382.741-2.389,4.592-2.389,4.592q.325-1.662.717-3.311c.2-.836.413-1.666.66-2.487.3-1,1.653-3.329-.027-3.879-1.15-.376-2.417,2.449-2.785,3.279a80.826,80.826,0,0,0-2.928,7.63,15.617,15.617,0,0,1-1.357,3.769c-1.074-1.766-1.2-3.581-1.412-5.6-.071-.677-.228-1.5-.991-1.717a.982.982,0,0,0-1.239.583,4.228,4.228,0,0,0-.052,1.734l.117,2.695c.076,1.735.1,3.482.25,5.212a9.369,9.369,0,0,0,3.623,6.837.329.329,0,0,0,.189.443c1.847.665,7.243.584,7.243.584S219.067,84.6,220,83.034a80.17,80.17,0,0,0,3.937-8.648C224.516,72.941,226.581,69.519,225.947,68.757Z" transform="translate(-19.609 -27.726)" fill="#e3cbc1"/>
          <path d="M177.687,147.285c-.624-1.3-2.488-1.148-3.67-1.263-.412-.041-.823-.094-1.234-.145a1.639,1.639,0,0,0,.764-.359c1.65-1.593-2.383-1.864-3-1.913a33.953,33.953,0,0,1-5.345-.655,7.042,7.042,0,0,0-3.512.52,24.871,24.871,0,0,0-2.883,1.852l-3.552-.807a83.948,83.948,0,0,1-1.134,8.853c-.073.338-.153.674-.233,1.01,2.72.285,4.517.465,4.517.465s6.232,2.371,9.557,2.751c1.912.218,6.959,1.11,7.64-1.153a1.413,1.413,0,0,0,1.312-1.5,1.818,1.818,0,0,0-.8-1.455,2.261,2.261,0,0,0,1.248-1.264,2.474,2.474,0,0,0-1.073-2.381C177.152,149.184,178.3,148.572,177.687,147.285Z" transform="translate(-19.609 -27.726)" fill="#e3cbc1"/>
          <path d="M170.97,70.634a11.771,11.771,0,0,1-2.2-.215c-3.9-.736-9.215-5.367-9.44-5.564a.286.286,0,1,1,.378-.43c.054.047,5.424,4.724,9.168,5.432,3.794.717,5.779-.709,5.8-.723a.287.287,0,0,1,.343.459A7.039,7.039,0,0,1,170.97,70.634Z" transform="translate(-19.609 -27.726)" fill="#ccad9f"/>
          <path d="M214.768,82.676a.287.287,0,0,1-.286-.273,8.916,8.916,0,0,0-.869-3.311,12.871,12.871,0,0,0-3.063-3.054.286.286,0,0,1,.333-.466,13.189,13.189,0,0,1,3.233,3.244,9.355,9.355,0,0,1,.938,3.56.287.287,0,0,1-.273.3Z" transform="translate(-19.609 -27.726)" fill="#ccad9f"/>
          <path d="M218.971,71.988a.282.282,0,0,1-.113-.023.287.287,0,0,1-.15-.376l3.483-8.112a.286.286,0,1,1,.526.226l-3.483,8.112A.286.286,0,0,1,218.971,71.988Z" transform="translate(-19.609 -27.726)" fill="#ccad9f"/>
          <path d="M175.339,149.968h-.008l-3.067-.092a.286.286,0,0,1-.278-.3.29.29,0,0,1,.294-.277l3.068.092a.286.286,0,0,1-.009.572Z" transform="translate(-19.609 -27.726)" fill="#ccad9f"/>
          <path d="M171.631,146.023h-.008l-5.028-.153a.287.287,0,0,1-.278-.294.3.3,0,0,1,.295-.278l5.028.152a.287.287,0,0,1-.009.573Z" transform="translate(-19.609 -27.726)" fill="#ccad9f"/>
          <path d="M175.39,153.525h-.016l-3.169-.179a.286.286,0,0,1-.27-.3.281.281,0,0,1,.3-.27l3.169.179a.286.286,0,0,1-.016.572Z" transform="translate(-19.609 -27.726)" fill="#ccad9f"/>
          <path d="M174.755,156.356h-.019l-4.213-.282a.286.286,0,0,1-.267-.3.291.291,0,0,1,.305-.267l4.213.281a.286.286,0,0,1-.019.572Z" transform="translate(-19.609 -27.726)" fill="#ccad9f"/>
          <path d="M140.8,135.323a20.18,20.18,0,0,1,6.614,3.178c2.514,2.1,2.56,1.241,4.828,1.813s4.748.954,4.557,2.195-1.484,14.088-2.055,14.629-1.153-.437-4.058-.426-3.955.778-6.28.589-7.886-.855-7.886-.855Z" transform="translate(-19.609 -27.726)" fill="#253448"/>
          <path d="M151.651,145.935a.58.58,0,0,0-.977-.4,3.422,3.422,0,0,0-.39.4c-.153-.628-.509-1.147-1.23-1.039-1.2.18-1.033,1.664-.722,2.492.294.785,1.072,2.232,2.111,1.691C151.446,148.553,151.739,146.945,151.651,145.935Z" transform="translate(-19.609 -27.726)" fill="#637795"/>
          <polygon points="133.825 98.339 132.861 105.63 145.69 105.987 146.839 98.5 133.825 98.339" fill="#fff"/>
          <path d="M143.727,135.609a.355.355,0,0,1-.046,0,.288.288,0,0,1-.238-.328l2.482-15.431a.287.287,0,0,1,.566.091l-2.482,15.431A.286.286,0,0,1,143.727,135.609Z" transform="translate(-19.609 -27.726)" fill="#253448"/>
          <path d="M139.688,159.4a.268.268,0,0,1-.062-.007.286.286,0,0,1-.217-.342l.4-1.778a.286.286,0,0,1,.559.124l-.4,1.779A.287.287,0,0,1,139.688,159.4Z" transform="translate(-19.609 -27.726)" fill="#253448"/>
          <path d="M162.645,127.5h-.007l-6.107-.143a.288.288,0,0,1-.28-.293.3.3,0,0,1,.293-.28l6.108.143a.287.287,0,0,1-.007.573Z" transform="translate(-19.609 -27.726)" fill="#c6d1ec"/>
          <path d="M165.02,130.3h-.006l-11.2-.238a.287.287,0,0,1,.006-.573h.006l11.2.239a.286.286,0,0,1-.006.572Z" transform="translate(-19.609 -27.726)" fill="#c6d1ec"/>
          <path d="M164.663,131.956h-.006l-11.084-.235a.287.287,0,0,1,.007-.573h.006l11.083.236a.286.286,0,0,1-.006.572Z" transform="translate(-19.609 -27.726)" fill="#c6d1ec"/>
          <path d="M131.856,166.032a.287.287,0,0,1-.286-.276l-.32-9.161a.285.285,0,0,1,.276-.3.278.278,0,0,1,.3.276l.321,9.161a.288.288,0,0,1-.277.3Z" transform="translate(-19.609 -27.726)" fill="#253448"/>
          <path d="M130.654,159.878a28.267,28.267,0,0,1-5.26-.488,30.7,30.7,0,0,1-5.642-1.8.286.286,0,0,1,.235-.522,30.193,30.193,0,0,0,5.524,1.76,28.758,28.758,0,0,0,5.328.474h0a.287.287,0,0,1,0,.573Z" transform="translate(-19.609 -27.726)" fill="#253448"/>
          <path d="M201.842,140.123a.286.286,0,0,1-.286-.271c-.012-.211-1.148-21.192-1.384-27.264s-.82-15.249-.826-15.341a.287.287,0,0,1,.268-.3.279.279,0,0,1,.3.267c0,.092.59,9.283.827,15.356s1.371,27.044,1.382,27.256a.286.286,0,0,1-.27.3Z" transform="translate(-19.609 -27.726)" fill="#53647d"/>
          <path d="M206.022,133.181a.249.249,0,0,1-.047,0,.286.286,0,0,1-.236-.329c.008-.048.783-4.783.778-5.773,0-.145,0-.373,0-.67.008-1.861.026-6.22-.273-10.452a37.409,37.409,0,0,1,.625-9.413.289.289,0,0,1,.341-.218.285.285,0,0,1,.218.341,36.81,36.81,0,0,0-.612,9.249c.3,4.254.281,8.628.274,10.495,0,.3,0,.521,0,.665,0,1.038-.754,5.672-.786,5.869A.287.287,0,0,1,206.022,133.181Z" transform="translate(-19.609 -27.726)" fill="#53647d"/>
          <path d="M140.8,135.609a.282.282,0,0,1-.09-.014l-7.4-2.428a.286.286,0,0,1,.179-.544l7.4,2.428a.286.286,0,0,1-.089.558Z" transform="translate(-19.609 -27.726)" fill="#53647d"/>
          <path d="M164.172,55.574a4.309,4.309,0,1,1,4.308-4.308A4.314,4.314,0,0,1,164.172,55.574Zm0-7.758a3.45,3.45,0,1,0,3.45,3.45A3.454,3.454,0,0,0,164.172,47.816Z" transform="translate(-19.609 -27.726)" fill="#17253d"/>
          <path d="M176.879,55.574a4.309,4.309,0,1,1,4.308-4.308A4.314,4.314,0,0,1,176.879,55.574Zm0-7.758a3.45,3.45,0,1,0,3.449,3.45A3.453,3.453,0,0,0,176.879,47.816Z" transform="translate(-19.609 -27.726)" fill="#17253d"/>
          <path d="M168.05,51.7a.429.429,0,0,1-.089-.849,14.085,14.085,0,0,1,2.567-.281,13.768,13.768,0,0,1,2.565.282.429.429,0,0,1-.187.838,12.423,12.423,0,0,0-2.342-.261h-.033a13.44,13.44,0,0,0-2.391.262A.45.45,0,0,1,168.05,51.7Z" transform="translate(-19.609 -27.726)" fill="#17253d"/>
          <path d="M35.465,165.8c-.775.247-.634,3.346,0,3.557.3.1,9.837-.032,19.536-.047,10.532-.015,21.294.079,21.532-.06.65-.377,1.057-3.133-.141-3.45-.613-.162-11.173-.095-21.391-.082C45.264,165.734,35.843,165.684,35.465,165.8Z" transform="translate(-19.609 -27.726)" fill="#28497c"/>
          <g>
            <path d="M54.446,141.045h8.619a.538.538,0,0,1,.538.538v6.06a.538.538,0,0,1-.538.538H54.446a0,0,0,0,1,0,0v-7.137A0,0,0,0,1,54.446,141.045Z" fill="#637795"/>
            <rect x="17.862" y="142.148" width="38.697" height="4.884" fill="#fff"/>
            <rect x="17.299" y="147.032" width="39.8" height="1.149" rx="0.222" fill="#637795"/>
            <rect x="17.299" y="141.045" width="39.8" height="1.256" rx="0.222" fill="#637795"/>
          </g>
          <g>
            <path d="M81.074,182.761a44.8,44.8,0,0,1-6.035.152c-.778,0-1.606,0-2.486-.006-.338,0-.687,0-1.036-.005-.474,0-.958,0-1.454-.006-3.241-.011-6.9-.023-10.522-.011-9.7.028-19.228.293-19.532.09-.637-.423-.778-6.622,0-7.112.377-.242,9.8-.141,19.532-.163,3.618-.012,7.281-.023,10.522-.029h2.49c.88,0,1.714.006,2.486.006a52.985,52.985,0,0,1,5.894.186C81.7,176.167,81.728,182.006,81.074,182.761Z" transform="translate(-19.609 -27.726)" fill="#24324f"/>
            <path d="M75.039,175.677v7.236c-.778,0-1.606,0-2.486-.006v-7.236C73.433,175.671,74.267,175.677,75.039,175.677Z" transform="translate(-19.609 -27.726)" fill="#fff"/>
            <path d="M71.517,175.671V182.9c-.474,0-.958,0-1.454-.006v-7.225Z" transform="translate(-19.609 -27.726)" fill="#fff"/>
          </g>
          <g>
            <path d="M40.852,160.05h8.619a.538.538,0,0,1,.538.538v4.866a.538.538,0,0,1-.538.538h-8.62a0,0,0,0,1,0,0V160.05A0,0,0,0,1,40.852,160.05Z" transform="translate(71.252 298.316) rotate(180)" fill="#637795"/>
            <rect x="47.896" y="160.203" width="38.697" height="4.64" transform="translate(114.88 297.32) rotate(180)" fill="#fff"/>
            <rect x="47.356" y="164.843" width="39.8" height="1.149" rx="0.222" transform="translate(114.903 303.109) rotate(180)" fill="#637795"/>
            <rect x="47.373" y="160.044" width="39.8" height="1.256" rx="0.222" transform="translate(114.939 293.618) rotate(180)" fill="#637795"/>
          </g>
          <path d="M40.007,154.228c-.775.409-.634,5.553,0,5.9.3.168,9.837-.054,19.536-.078,10.533-.026,21.294.13,21.532-.1.65-.626,1.057-5.2-.141-5.726-.613-.27-11.173-.157-21.391-.137C49.806,154.111,40.385,154.028,40.007,154.228Z" transform="translate(-19.609 -27.726)" fill="#8db0e3"/>
          <path d="M75.531,159.294H45.164a1.444,1.444,0,0,1-1.442-1.442v-1.521a1.444,1.444,0,0,1,1.442-1.442H75.531a1.444,1.444,0,0,1,1.442,1.442v1.521A1.444,1.444,0,0,1,75.531,159.294Zm-30.367-3.875a.913.913,0,0,0-.911.912v1.521a.912.912,0,0,0,.911.911H75.531a.912.912,0,0,0,.911-.911v-1.521a.913.913,0,0,0-.911-.912Z" transform="translate(-19.609 -27.726)" fill="#e2e7f5"/>
          <rect x="12.612" y="165.09" width="275.417" height="52.014" fill="#ececec"/>
          <path d="M3.4,155.1H297.6a3.4,3.4,0,0,1,3.4,3.4v3.81a3.4,3.4,0,0,1-3.4,3.4H3.4a3.4,3.4,0,0,1-3.4-3.4V158.5a3.4,3.4,0,0,1,3.4-3.4Z" fill="#f5f5f5"/>
          <path d="M32.22,193.569v45.15H72.856V207.866H73.5c-2-3.791,13.688-13.575,234.138-11.351v-2.946Z" transform="translate(-19.609 -27.726)" fill="#494949" opacity="0.15"/>
          <g>
            <path d="M271.223,176.5a30.652,30.652,0,1,1,30.651-30.652A30.686,30.686,0,0,1,271.223,176.5Zm0-60.274a29.622,29.622,0,1,0,29.622,29.622A29.657,29.657,0,0,0,271.223,116.227Z" transform="translate(-19.609 -27.726)" fill="#28497c"/>
            <path d="M271.3,181.868a.712.712,0,0,1-.243-.043c-7.616-2.719-17.369-6.7-17.467-6.739a.722.722,0,0,1-.39-.951l26.5-61.785a.721.721,0,0,1,1.325.569l-26.209,61.109c2.346.949,10.3,4.146,16.727,6.44a.721.721,0,0,1-.242,1.4Z" transform="translate(-19.609 -27.726)" fill="#28497c"/>
            <circle cx="251.248" cy="118.032" r="26.224" fill="#c6d5ec"/>
            <path d="M286.286,151.466a2.509,2.509,0,0,0-.919-.393,6.948,6.948,0,0,0-2.626-.051,18.717,18.717,0,0,1-19.954,7.366c.029.023.06.046.093.068q2.377,1.629,4.761,3.244a4.51,4.51,0,0,0,2.047.865,2.457,2.457,0,0,1,1.257.593,4.4,4.4,0,0,1,1.585,3.421,1.565,1.565,0,0,0,.664,1.172c.2.169.463.395.792.14.085-.066.2.1.293.132.305.117.5.5.914.362.192-.068.268.052.272.235,0,.076-.121.158.041.259.165-.453.519-.414.876-.337a.992.992,0,0,0,.628-.068c.257-.112.525-.2.784-.315.332-.14.666-.274.991-.435a5.492,5.492,0,0,0,.935-.414,2.6,2.6,0,0,1,.608-.373,2.773,2.773,0,0,0,1.466-1.316,4.525,4.525,0,0,0,.554-2.508.748.748,0,0,1,.218-.651c.361-.3.659-.647.983-.972a9.879,9.879,0,0,0,1.625-1.989c.205-.361.558-.651.549-1.129a11,11,0,0,0-.072-1.2,3.714,3.714,0,0,1,.26-2.35,6.587,6.587,0,0,0,.842-1.73A1.421,1.421,0,0,0,286.286,151.466Zm-17.564-21.2,0,.006.011-.008Zm-.084-1.855v0l.01-.008Zm-1.207.681c0-.02.008-.039.01-.059a.292.292,0,0,0-.049-.05.52.52,0,0,0,0,.113A.259.259,0,0,1,267.431,129.094Zm-.5-.033a.1.1,0,0,1-.009.025l.023-.012Zm-.223,2.093,0,.008.006-.008Zm-.084.084v0l.008-.006Zm-.478.319-.008.009.012-.009Zm-1.213,1.533-.006.008.01-.008Zm-2.006,2.189a.23.23,0,0,0,.037,0c-.006-.051-.01-.105-.014-.161C262.865,135.236,262.9,135.275,262.927,135.279Zm-3.481-1.773.007-.008-.013,0Zm-7.531-5.27a8.369,8.369,0,0,1-1.709,1.248,1.977,1.977,0,0,0-.39.341c-.171.2.093.322.083.505,0,.1.222.008.3-.058.507-.442,1.207-.494,1.741-.879.133-.1.168-.084.284.039A18.7,18.7,0,0,1,255,126.341a5.265,5.265,0,0,0-1.25.467A6.6,6.6,0,0,0,251.915,128.236Zm-2.251,6.267c-.208.261-.416.525-.628.784a6.044,6.044,0,0,0-1.271,1.967c-.239.778-.471,1.561-.774,2.315a.868.868,0,0,0,.068.805,3.507,3.507,0,0,1,.08,2.836c-.111.292-.1.443.109.6s.338.326.26.579c-.147.478.193.777.4,1.118a.272.272,0,0,0,.35.106c.145-.073.056-.186.066-.283a3.123,3.123,0,0,0-.272-1.145,5.293,5.293,0,0,1-.294-1.775c.014-.163,0-.356.2-.435.109.3-.116.645.074.911a9.7,9.7,0,0,1,1.03,2.2,3,3,0,0,1,.414,1.325,1.387,1.387,0,0,0,.78,1.5c.052.029.1.054.155.08a18.751,18.751,0,0,1-.752-13.5Z" transform="translate(-19.609 -27.726)" fill="#728eb8"/>
            <path d="M282.527,151.057c-.307.053-.6.1-.787-.254-.043-.082-.181-.183-.255-.169a3.56,3.56,0,0,0-1.72.41c.033-.391-.224-.4-.49-.368a1.635,1.635,0,0,0-.916.383,3.811,3.811,0,0,1,.16-.478c.192-.379.289-.725-.193-.972-.072-.039-.1-.157-.163-.227a2.83,2.83,0,0,0-1.491-1.134,3.521,3.521,0,0,0-2.335.337.857.857,0,0,1-1.057-.152c-.389-.336-.721-.826-1.359-.713-.05.009-.165-.051-.165-.082-.008-.358-.3-.274-.5-.328-.157-.043-.4-.018-.458-.113-.195-.331-.444-.154-.657-.1a10.314,10.314,0,0,1-1.419.525c-.508.054-.976.419-1.54.073-.435-.268-.966-.449-1.263.255-.026.066-.111.109-.175.158-.084.068-.166.229-.29.093s0-.278.1-.331c.171-.095.235-.18.086-.328-.133-.134-.257-.07-.374.045a20.364,20.364,0,0,0-2.07,2.408.583.583,0,0,1-.637.278,1.9,1.9,0,0,0-1.1.136,3.183,3.183,0,0,1-1.024.325,1.54,1.54,0,0,1-1.277-1.077,2.133,2.133,0,0,1,.14-1.483c.219-.4.029-.7-.438-.716a2.914,2.914,0,0,0-.322.02,11.194,11.194,0,0,0-1.478.192c-.118.027-.328.119-.354-.105a1.785,1.785,0,0,1,.133-1.1,4.609,4.609,0,0,0,.455-1.186c.182-.624-.006-.828-.667-.744a1.361,1.361,0,0,0-.756.318,7.226,7.226,0,0,0-.815.933c-.315.389-.513.873-.974,1.151a.57.57,0,0,1-.637-.008c-.212-.114-.187-.332-.189-.522a1.231,1.231,0,0,0,0-.226,7.353,7.353,0,0,1,.239-3.831,1.923,1.923,0,0,1,1.938-1.439,2.353,2.353,0,0,0,1.787-.635,1.607,1.607,0,0,1,.373-.234,1.4,1.4,0,0,1,1.631.488c.192.352.346.725.536,1.077a.685.685,0,0,0,.609.375c.155-.007.293-.266.282-.443a3.818,3.818,0,0,0-.348-1.7.483.483,0,0,1,.037-.622l-.006,0a3.876,3.876,0,0,1,1.607-2.163c.051-.193.311-.134.376-.309a1.965,1.965,0,0,0,.676-.609,2.82,2.82,0,0,0-.031-.859.23.23,0,0,1-.037,0c-.031,0-.062-.043.023-.159,0,.056.008.11.014.161a1.57,1.57,0,0,0,.194,0q.058-.087.117-.177c.1-.214-.021-.538.323-.624a5.407,5.407,0,0,0,.935-1.1c.112-.128.19-.3.4-.29.1-.144.329-.1.406-.276a.921.921,0,0,1,.725-1.131c0-.06-.009-.128.082-.126a.956.956,0,0,1,.478-.319c0-.059.035-.078.084-.084.025-.083.06-.132.149-.045a1.19,1.19,0,0,0,1.264-.589c.122-.186.237-.272.449-.206.051-.017.1-.029.152-.046.05-.084.1-.169.153-.253-.1-.243-.142-.591-.48-.138a.691.691,0,0,1-.649.224c-.268-.037-.418-.162-.395-.44.016-.19.051-.379.08-.567a.259.259,0,0,0-.041,0,.52.52,0,0,1,0-.113c-.161-.13-.307.076-.459.072l0,0,.014.013-.023.012a.1.1,0,0,0,.009-.025l-.007,0a6.076,6.076,0,0,1,1.158-.407l.556-.237c0-.062.058-.066.1-.079a1.391,1.391,0,0,0,.591-.972c0-.4-.535-.788-1.061-.8a.673.673,0,0,1-.607-.286.512.512,0,0,0-.262-.29c-.206-.14-.377-.39-.628-.4s-.305.3-.443.466-.529.123-.535-.052c-.019-.434-.305-.338-.556-.338s-.509-.014-.76.007c-.134.01-.346-.068-.358.189-.075.229.065.5-.155.7a.436.436,0,0,0-.049.346,1.507,1.507,0,0,1-.48,1.18c-.058.431.024.9-.361,1.238a.346.346,0,0,1-.4.091c-.155-.077-.132-.223-.124-.379a5.138,5.138,0,0,0-.047-.709,2.29,2.29,0,0,1-1.168-.16c-.119-.009-.241-.019-.36-.025-.142-.008-.326.049-.377-.138a.434.434,0,0,1,.113-.4,9.844,9.844,0,0,1,1.467-1.339c.185-.1.339-.377.591-.072.076.09.2.027.28-.058a.855.855,0,0,1,.609-.206c.2-.228-.057-.177-.142-.218-.191-.093-.313-.22-.109-.389a.406.406,0,0,0,.163-.464.211.211,0,0,1,.049-.224,1.361,1.361,0,0,1,1.162-.064c.057.039.132.1.072.152-.179.163-.113.554-.5.528-.111-.007-.189.094-.232.2a.092.092,0,0,0,.055.13.3.3,0,0,0,.332-.07.492.492,0,0,1,.587-.072,1.252,1.252,0,0,0,.408.156c.269,0,.587.075.784-.142a.342.342,0,0,0,0-.533c-.21-.163.25-.28.12-.515a.257.257,0,0,0-.214-.132c-.221-.053-.528,0-.651-.1-.354-.292-.733-.212-1.121-.245-.778-.064-.811-.109-.745-.873.018-.206-.029-.249-.2-.222a2.335,2.335,0,0,0-1.149.589c.183.154.364.094.538.113-.171.309-.359.167-.507.062a2.831,2.831,0,0,1-.762.949c-.134.107-.245.117-.1.321a.258.258,0,0,1-.173.4c-.165.021-.249-.235-.235-.257.215-.334-.15-.283-.286-.394.152-.163.358-.107.488-.183.2-.12.039-.305-.006-.527-.161.208-.249.424-.54.274-.082-.044-.341.09-.407.263-.054.138.144.087.2.169a.224.224,0,0,1,.046.218c-.037.107-.116.093-.2.074a1.25,1.25,0,0,0-1.45.627c.076.144.319-.091.317.105-.008.574.353.276.538.216.334-.109.632-.323.935-.264-.527.19-1.046.633-1.788.363a1.835,1.835,0,0,0-1.408.2c-.612.323-1.281.072-1.893.286-.025.008-.113.043-.1-.058.027-.265-.159-.152-.255-.125s-.2.051-.3.078a18.7,18.7,0,0,0-2.776,3.091l.012.012c.214.231.054.349-.078.454a1.688,1.688,0,0,0-.587.972c-.138.593-.688.976-.737,1.6,0,.014-.039.035-.062.041-.449.1-.4.455-.363.764a.557.557,0,0,1-.125.472c-.21.251-.414.5-.618.76a18.751,18.751,0,0,0,.752,13.5,8.777,8.777,0,0,0,2.539.692.566.566,0,0,0,.3-.084,2.225,2.225,0,0,1,1.563-.01,5.486,5.486,0,0,0,1.615.568,2.5,2.5,0,0,1,1.427.719.637.637,0,0,1,.309.484c.022.214.175.453.418.381a.625.625,0,0,1,.642.21c.507.513,1.2.383,1.792.57.138.044.4-.024.276-.319a.726.726,0,0,1,.422-.764.39.39,0,0,1,.5.375c.006.082.088.163.15.231a2.8,2.8,0,0,1,.744,1.439c.076.433.243.935-.13,1.318-.3.307-.2.826-.624,1.055-.1.053-.06.2-.074.3a5.933,5.933,0,0,1-.1.594.793.793,0,0,0,.548,1.05c.092.035.084.095.061.154a3.456,3.456,0,0,1-.177.4.707.707,0,0,0,.165,1.017,18.717,18.717,0,0,0,19.954-7.366C282.669,151.032,282.6,151.044,282.527,151.057Zm-19.989-18.373c.136-.037.3-.257.432.01a.56.56,0,0,1-.665.258l-.113.018C262.221,132.771,262.394,132.725,262.538,132.684Zm-.064-8.322c.049-.06.385-.1.058-.268-.05-.025.028-.07.086-.058.12.029.223-.105.4,0-.338.2-.464.445-.1.808a2.609,2.609,0,0,0-.32-.091C262.266,124.708,262.3,124.568,262.474,124.362Zm-2.368,8.592a.763.763,0,0,0-.268.521,1.055,1.055,0,0,1-.608.958c-.249-.388,0-.653.216-.927l-.006-.006.015,0,0,0a.045.045,0,0,0,.039-.025c.092-.113.23-.214.265-.342a.844.844,0,0,1,.68-.638A1.164,1.164,0,0,1,260.106,132.954Zm1.254.8c-.12.4-.328.474-.7.251.35-.076.523-.476.943-.461C261.522,133.615,261.44,133.685,261.36,133.755Zm.23-1.433a.071.071,0,0,1,.066.033c.056.238-.1.428-.177.63-.049.121-.185.265-.348.212-.136-.048-.171-.183-.1-.336.08-.2.033-.344-.231-.373C261.053,132.173,261.341,132.381,261.59,132.322Zm-2.662-.089c.039-.008.078-.014.117-.023.088-.09.156-.22.319-.166-.016-.073.025-.087.085-.081-.009-.119.1-.121.168-.162l-.01.014a1.647,1.647,0,0,1,.523-.36c.284-.064.554-.1.731.218a.211.211,0,0,1-.024.288c-.14.126-.35.087-.513.2a.3.3,0,0,1-.482-.058c-.1-.146-.229.029-.328.1-.156.116-.269.3-.5.287C258.734,132.48,258.812,132.365,258.928,132.233Zm-.552-2.031a1.009,1.009,0,0,1-.169.709C258,130.571,258.027,130.437,258.376,130.2Zm-.631-2.271c-.278.057-.447.23-.681.241C257.305,128.139,257.356,127.673,257.745,127.931Zm8.045,21.3a.329.329,0,0,1-.3-.317c-.01-.132-.01-.268.144-.34a.464.464,0,0,1,.307.385C265.967,149.086,265.936,149.246,265.79,149.234Z" transform="translate(-19.609 -27.726)" fill="#7d9bc7"/>
            <g>
              <rect x="239.807" y="152.567" width="22.192" height="2.811" fill="#3c5d91"/>
              <path d="M281.608,182.525v.579H259.416v-2.811h3.326C262.581,181.038,263.845,182.962,281.608,182.525Z" transform="translate(-19.609 -27.726)" fill="#28497c"/>
            </g>
          </g>
          <g>
            <path d="M289.313,161.176c-1.271-14.616-.777-38.7-.772-38.938l.95.021c0,.241-.5,24.271.768,38.835Z" transform="translate(-19.609 -27.726)" fill="#001b44"/>
            <path d="M293.162,159.748c-.006-.124-.642-12.383-.642-16.709,0-4.342,1.02-12.553,1.03-12.636l.943.118c-.011.082-1.023,8.235-1.023,12.518,0,4.3.634,16.536.641,16.659Z" transform="translate(-19.609 -27.726)" fill="#002944"/>
            <path d="M305.97,124.836a5.278,5.278,0,0,0-2.353-.659c.09-.485.175-1.025.222-1.525a12.405,12.405,0,0,1,1.914-.713c2.8-.771,4.386,1.919,4.484,2.091-.1-.179-1.96-3.386-4.846-3.1a11.489,11.489,0,0,0-1.653.27c-.39-.81-1.551-1-2.308-1.81,1.385-2.425,2.408-5.3,2.223-7.149-.29-2.9-1.738-1.52-1.738-1.52l-3.33,3.548a11.752,11.752,0,0,1,8.109-7.892,7.5,7.5,0,0,0-5.4,1.2,3.711,3.711,0,0,0-1.844-4.608,4.522,4.522,0,0,0-4.318.2l-.373-1.864a4.574,4.574,0,0,0,2.374-1.089c2.389-2.028,1.882-3.765,1.882-3.765l-.917.419c1.078-1.411,3.364-5,3.307-7.08-.073-2.607,3.475-4.2,3.475-4.2-1.6.161-2.652,1.209-3.845,2.542a7.586,7.586,0,0,0,.225-1.238s-3.693-1.014-5.213,1.158c-.212.3-.411.581-.6.842a9.088,9.088,0,0,0-.919-4.245,14.227,14.227,0,0,1-1.882,3.548,15,15,0,0,0-1.832,5.562c-.3.038-.6.1-.84.151.177-1.67.258-3.009.5-4.12.362-1.665,2.968-2.9,3.113-4.634a6.236,6.236,0,0,1,1.3-3.113,10.48,10.48,0,0,0-3.62,2.1,12.946,12.946,0,0,0-1.764,4.122,13.368,13.368,0,0,0-.842-3.325,4.524,4.524,0,0,0-.831,2.128,41.963,41.963,0,0,0-2.789-5.386s-.208,2.622-.167,5.209l-2-3.037.579,2.823-1.883-1.23a27.264,27.264,0,0,0,2.617,9.038c-.86-1.139-1.751-2.259-2.472-3.029-2.1-2.245-4.054-4.924-6.154-5.43a11.485,11.485,0,0,1-3.548-1.521s-.579,1.3,1.666,2.39c.123.06.249.126.375.194a5.484,5.484,0,0,0-2.62.674s2.245.218,4.779,3.114c1.851,2.116,2.891,2.531,3.853,2.714.043.085.088.168.129.254a4.993,4.993,0,0,0,.293.524,14.659,14.659,0,0,1-4.13.055c-1.594-.362-4.055,1.883-4.055,1.883a5.76,5.76,0,0,1,2.751-.724c1.376.072,1.3-.941,2.824-.579a15.624,15.624,0,0,1,4.653,2.019c.541.723,1.164,1.464,1.8,2.173-1.078-.536-4.21-2.31-4.21-2.31s-2.9.217-3.4.29-5.212,6.3-5.212,6.3,1.737-1.376,3.257-2.317.87-3.113,2.173-3.4a8.259,8.259,0,0,1,4.127.652,8.872,8.872,0,0,1,1.983,1.214.512.512,0,0,0-.232.083,5.043,5.043,0,0,0-4.792,3.191c-1.3,3.621-.29,5.213-.29,5.213s-1.158-2.9,2.534-4.706a7.594,7.594,0,0,0,2.935-2.237,25.707,25.707,0,0,0,2.775,2.983,2.694,2.694,0,0,1-.859-.239s0,.079,0,.22l-3.618-.292s-.217.724,1.665,1.231l-.289.941-3.91.217a5.861,5.861,0,0,0,2.968,1.231s-2.606,2.462-2.534,3.982l4.272-3.113s1.294.31,2.088.405c.028.084.059.165.09.246-.6.54-1.812,2.124.067,5.141a14.719,14.719,0,0,1,.825-3.724c.038.036.076.071.116.1l.085-.385a.653.653,0,0,1,.059-.05c.725-.507-.072,3.693.507,5l-2.389-1.086s0,3.186,1.81,4.706c.964.809,2.255,2.029,3.252,2.992a2.694,2.694,0,0,1-2.238-1.254s-5.5-1.81-7.385,1.81a12.407,12.407,0,0,0-1.3,7.1s1.52-5.719,5.574-6.443c.779-.14,1.378-.257,1.849-.354a3.008,3.008,0,0,0,.323.788,12.488,12.488,0,0,0,2.015,2.365c-1.542.2-3.623.575-4.4,1.183-1.3,1.013-4.344,4.561-4.2,6.444a8.786,8.786,0,0,1,3.258-4.2c2.245-1.3.869-2.534,3.258-2.172,1.424.216,3.053.457,4.137.617l.139.12a5.49,5.49,0,0,0,.72,2.449c1.593,2.823,1.448,6.95,1.448,6.95a12.773,12.773,0,0,0,2.462-6.443c.048-1.15.072-2.252.082-3.212,1.785-.968,5.617-2.887,7.416-2.6a1.242,1.242,0,0,1,.09.318c.02-.089.041-.186.063-.29,2.242.513.691,1.657,2.775,2.161a7.3,7.3,0,0,1,4.189,3.552,10.411,10.411,0,0,0-4.479-5.724m-5.358-3.259a3.928,3.928,0,0,0,.594.778c-.313.195-.641.4-1.028.6a18.185,18.185,0,0,1-2.371,1,12,12,0,0,1,1.068-1.15,11.992,11.992,0,0,0,1.481-1.739c.075.155.158.322.256.508m-2.461-10.788a4.47,4.47,0,0,1-1.014-2.172l1.794,1.114a13.078,13.078,0,0,0-.78,1.058m.434-5.213a7.833,7.833,0,0,1,2.265,2.312,10.041,10.041,0,0,0-1.463,1.313c-.083.09-.165.184-.247.279-.24-.778-1.061-2.349-3.813-2.673-.088-.01-.17-.022-.248-.034-.2-.386-.331-.617-.331-.617a1.906,1.906,0,0,0-.475.392c-1.309-.686,2.687-2.1,4.312-.972m-6.154-.362.869-2.317,1.3.576a10.867,10.867,0,0,0-2.164,1.741m5.792-15.349a8.381,8.381,0,0,0,1.476-.248,17.03,17.03,0,0,1-2.2,1.986,10.9,10.9,0,0,0-3.361,3.486,2.953,2.953,0,0,0-.429-.7,3.129,3.129,0,0,0,1.69-2.5c.217-2.1.869-1.81,2.824-2.027m-2.166,36.74c.221-.411.488-.87.8-1.345a20.461,20.461,0,0,0,2.09-.28,12.7,12.7,0,0,0,3.337-1.531,8.918,8.918,0,0,1,.648.723,15.763,15.763,0,0,0-6.875,2.433" transform="translate(-19.609 -27.726)" fill="#3e5e91"/>
            <path d="M293.353,148.515s.23-.307,2.915-4.756,1.918-10.126,1.918-10.126a14.385,14.385,0,0,1-2.608,5.14c-2.225,3.068-2.455,5.063-2.455,5.293a6.7,6.7,0,0,1-.46-4.756c.767-2.532-1.534-6.137-1.534-6.137a36.034,36.034,0,0,1-2.378,6.443,6.073,6.073,0,0,0-.58,2.508A12.928,12.928,0,0,0,287.063,140c-1.381-2.071-2.3-3.835-2.3-3.835-1.355,5.29.708,8.626,1.4,9.553a4.584,4.584,0,0,0-4.7-1.806c2.838.691,4.372,2.992,2.685,2.148s-4.066.537-4.066.537a25.12,25.12,0,0,1-2.454,1.3c-2.148,1.074-1.458,0-2.762,1.611a2.967,2.967,0,0,0-.153,3.375,26.212,26.212,0,0,1,5.83-5.293c3.605-2.377,7.134,2.455,7.364,2.839s1.994.307,2.761,1.074.154,4.756.154,4.756a7.467,7.467,0,0,0,1.227-4.526,1.445,1.445,0,0,1,2.455-.767c1.918,1.3,1.38,5.753,1.38,5.753s1.458-3.682.691-6.367c-.45-1.574-.9-1.882-1.195-1.868.76-.4,2.572-1.377,3.113-1.737.69-.461,2.454.383,2.454.383a17,17,0,0,0-2.531-1c-.767-.153-5.063,2.378-5.063,2.378" transform="translate(-19.609 -27.726)" fill="#3e5e91"/>
            <path d="M279.9,158.953l3.932,21.515a4.593,4.593,0,0,0,4.518,3.767h7.337a4.593,4.593,0,0,0,4.522-3.789l3.819-21.493Z" transform="translate(-19.609 -27.726)" fill="#354761"/>
          </g>
          <path d="M83.236,136.833c.775.246.634,3.346,0,3.557-.3.1-9.838-.033-19.536-.047-10.533-.016-21.294.078-21.532-.06-.651-.378-1.057-3.133.14-3.45.614-.163,11.174-.095,21.392-.083C73.436,136.762,82.858,136.712,83.236,136.833Z" transform="translate(-19.609 -27.726)" fill="#496287"/>
          <g>
            <path d="M35.489,139.8h8.619a.538.538,0,0,1,.538.538v6.06a.538.538,0,0,1-.538.538H35.489a0,0,0,0,1,0,0V139.8A0,0,0,0,1,35.489,139.8Z" transform="translate(60.526 259.009) rotate(-180)" fill="#7d9bc7"/>
            <rect x="42.533" y="140.903" width="38.697" height="4.884" transform="translate(104.154 258.964) rotate(-180)" fill="#fff"/>
            <rect x="41.993" y="145.787" width="39.8" height="1.149" rx="0.222" transform="translate(104.177 264.997) rotate(-180)" fill="#7d9bc7"/>
            <rect x="41.993" y="139.799" width="39.8" height="1.256" rx="0.222" transform="translate(104.177 253.129) rotate(-180)" fill="#7d9bc7"/>
          </g>
          <g>
            <path d="M37.626,153.789a44.708,44.708,0,0,0,6.036.153c.777,0,1.606,0,2.485-.006.338,0,.688,0,1.037-.006.473,0,.958,0,1.454,0,3.24-.012,6.9-.023,10.521-.012,9.7.029,19.228.293,19.533.091.637-.423.777-6.622,0-7.112-.378-.243-9.8-.141-19.533-.164-3.618-.011-7.281-.022-10.521-.028H46.147c-.879,0-1.713.006-2.485.006a52.729,52.729,0,0,0-5.895.186C37,147.2,36.973,153.034,37.626,153.789Z" transform="translate(-19.609 -27.726)" fill="#24324f"/>
            <path d="M43.662,146.706v7.236c.777,0,1.606,0,2.485-.006V146.7C45.268,146.7,44.434,146.706,43.662,146.706Z" transform="translate(-19.609 -27.726)" fill="#fff"/>
            <path d="M47.184,146.7v7.23c.473,0,.958,0,1.454,0V146.7Z" transform="translate(-19.609 -27.726)" fill="#fff"/>
          </g>
          <g>
            <path d="M49.082,103.353H57.7a.538.538,0,0,1,.538.538v4.866a.538.538,0,0,1-.538.538H49.082a0,0,0,0,1,0,0v-5.942A0,0,0,0,1,49.082,103.353Z" fill="#c6d1ec"/>
            <rect x="12.499" y="103.505" width="38.697" height="4.64" fill="#fff"/>
            <rect x="11.935" y="108.146" width="39.8" height="1.149" rx="0.222" fill="#c6d1ec"/>
            <rect x="11.918" y="103.347" width="39.8" height="1.256" rx="0.222" fill="#c6d1ec"/>
          </g>
          <path d="M78.694,125.256c.774.41.634,5.554,0,5.905-.3.168-9.838-.054-19.537-.078-10.532-.026-21.293.13-21.532-.1-.65-.626-1.056-5.2.141-5.727.613-.269,11.174-.157,21.391-.136C68.894,125.14,78.315,125.057,78.694,125.256Z" transform="translate(-19.609 -27.726)" fill="#28497c"/>
          <path d="M41.728,128.881V127.36a1.443,1.443,0,0,1,1.442-1.442H73.536a1.443,1.443,0,0,1,1.442,1.442v1.521a1.443,1.443,0,0,1-1.442,1.441H43.17A1.442,1.442,0,0,1,41.728,128.881Zm1.442-2.433a.913.913,0,0,0-.912.912v1.521a.913.913,0,0,0,.912.911H73.536a.913.913,0,0,0,.912-.911V127.36a.913.913,0,0,0-.912-.912Z" transform="translate(-19.609 -27.726)" fill="#496287"/>
          <path d="M172.468,56.4a1.254,1.254,0,0,1-1.051.457c-.777.019-1.258-.469-1.66-.179s-.349.767.44,1.106,1.711.377,2.058-.054A1.081,1.081,0,0,0,172.468,56.4Z" transform="translate(-19.609 -27.726)" fill="#ccad9f" fill-rule="evenodd"/>
        </g>
      </g>
    </g>
  </g>
</svg>
