<svg xmlns="http://www.w3.org/2000/svg" xmlns:xlink="http://www.w3.org/1999/xlink" viewBox="0 0 301.004 182">
  <defs>
    <clipPath id="clip-path" transform="translate(-21.73 -61.831)">
      <path d="M342,70.831a171,171,0,0,1-342,0C0-23.61,342-23.61,342,70.831Z" fill="none"/>
    </clipPath>
  </defs>
  <title>digital</title>
  <g id="Ebene_2" data-name="Ebene 2">
    <g id="Ebene_1-2" data-name="Ebene 1">
      <g clip-path="url(#clip-path)">
        <g>
          <g>
            <path d="M202.43,108.945c.474,6.837,5.659,19.076,5.659,19.076l-.607.087c-2.086-1.653-6.093-18.034-6.093-18.034-.767,11,4.625,17.117,4.625,17.117l-29.349-6.741-1.245-14.831c2.882-2.3,20.875-3.3,21.89-7.691a3.005,3.005,0,0,0,.649.329c1.3.495,3.468-.735,3.944-2.653s-.238-3.745-1.594-4.081a1.756,1.756,0,0,0-.357-.051,2.661,2.661,0,0,0-.315-.01,1.934,1.934,0,0,0-1.281.446l0,0c-.1.061-.205.131-.3.2.009-.312.014-.623.014-.935s-.007-.647-.016-.967l.086-.046c-.03-.012-.061-.024-.091-.038-.273-6.636-3.125-11.942-7.2-14.584l.756-5.29c12.86,4.772,5.531,5.764,7.964,12.974s9.122,6.084,9.036,13.294S202.071,103.732,202.43,108.945Z" transform="translate(-21.73 -61.831)" fill="#09111a"/>
            <path d="M211.349,129.935c-.884-2.324-3.606-2.889-5.662-3.257-6.373-1.14-10.622-3.6-12.879-10.342-1.39-4.149-.649-8.118.171-12.318a.258.258,0,0,0-.277-.3q-6.242.757-12.52.97c-.01-.782-.02-1.563-.026-2.345,0-.337-.5-.269-.493.067,0,.766.013,1.532.02,2.3-.167.005-.334.013-.5.019a.236.236,0,0,0-.438.106c-.152,2.82-.08,5.65-.31,8.467a13.559,13.559,0,0,1-.76,4.358,8.95,8.95,0,0,1-3.285,3.565c-1.072.75-7.334,3.451-7.334,3.451s6.567,6.518,7.728,6.76c3.428.715,6.927,1.21,10.389,1.7a36.533,36.533,0,0,0,9.446-.085,6.567,6.567,0,0,0,2.329,2.631,15.421,15.421,0,0,0,5.682,1.8c2.516.448,5.034.886,7.551,1.329a.253.253,0,0,0,.309-.178,26.277,26.277,0,0,0,.948-4.739A9.214,9.214,0,0,0,211.349,129.935Z" transform="translate(-21.73 -61.831)" fill="#c4a19e"/>
            <path d="M211.349,129.935c-.884-2.324-3.606-2.889-5.662-3.257-6.373-1.14-10.622-3.6-12.879-10.342a15.241,15.241,0,0,1-.769-4.546A8.892,8.892,0,0,1,186.3,114.4c-3.349,0-6.186-2.223-7.731-3.741-.029.881-.067,1.762-.139,2.641a13.559,13.559,0,0,1-.76,4.358,8.957,8.957,0,0,1-3.285,3.565c-1.072.75-7.334,3.451-7.334,3.451s6.567,6.518,7.728,6.76c3.428.715,6.927,1.21,10.389,1.7a36.533,36.533,0,0,0,9.446-.085,6.567,6.567,0,0,0,2.329,2.631,15.421,15.421,0,0,0,5.682,1.8c2.516.448,5.034.886,7.551,1.329a.253.253,0,0,0,.309-.178,26.277,26.277,0,0,0,.948-4.739A9.214,9.214,0,0,0,211.349,129.935Z" transform="translate(-21.73 -61.831)" fill="#fff0e2"/>
            <path d="M206.088,127.057a20.861,20.861,0,0,1-6.667-1.516L167.7,128.473l-.267.146s7.139,5.885,8.317,6.02c3.479.4,7.009.567,10.5.738a36.46,36.46,0,0,0,9.4-.954,6.568,6.568,0,0,0,2.561,2.406,15.415,15.415,0,0,0,5.823,1.267c2.547.215,5.095.419,7.642.628a.254.254,0,0,0,.291-.2,26.354,26.354,0,0,0,.508-4.807,9.208,9.208,0,0,0-.452-3.932C210.932,127.546,208.17,127.234,206.088,127.057Z" transform="translate(-21.73 -61.831)" fill="#fff0e2"/>
            <path d="M215.14,134.683a6.551,6.551,0,0,0-.016-.815,2.373,2.373,0,0,0-.1-.527c-.189-.558-.621-.884-1.5-1.305a15.805,15.805,0,0,0-6.769-1.237h-.063c-.89-.011-1.779.016-2.653.031a25.242,25.242,0,0,1-7.811-.61c-2.769-.827-14.649-2.079-17.844-2.653-3.438-.616-9.249-1.932-12.133-2.427a7.6,7.6,0,0,0-2.89,0,5.06,5.06,0,0,0-2.779,1.69,8.121,8.121,0,0,0-1.558,5.18c-.011.178-.011.357-.011.536-.016.948.021,1.88.032,2.727a52.826,52.826,0,0,0-.442,11.354l.031.521c.205,3.595.6,7.195.879,10.78a17.7,17.7,0,0,1,.037,2.848c-.01.126-.021.252-.037.379a1.322,1.322,0,0,1-.021.152c-.437,3.285-1.921,5.7-.689,8.985a5.148,5.148,0,0,0,.2.479,1.036,1.036,0,0,0,.068.164c.316-.316.358,3.179.111,5.369a12.27,12.27,0,0,0,.258,4.332,5.077,5.077,0,0,0,.163.568,6.306,6.306,0,0,0,1.152,2.153c.5,2,2.195,2.458,3.948,2.626.442.048.89.074,1.321.1.021,0,.043.006.064.006,2.258.147,4.063.974,6.327.442q2.194-.522,4.4-1.069h0c.637-.152,1.279-.31,1.916-.468,1.242-.3,4.343-1.484,5.49-1.027,1.658.658,3.716.527,5.464.98a44.925,44.925,0,0,0,4.411,1.347,13.086,13.086,0,0,0,3.9-.163h0c.369-.058.732-.116,1.095-.169a46.842,46.842,0,0,1,5.943-.421c1.416-.021,4.743-.421,6.722-.3a5.1,5.1,0,0,1,.926.127c.532.131,1.137-.706,1.611-1.964a14.025,14.025,0,0,0,.847-4.869c0-.094,0-.184,0-.273s0-.158,0-.232c-.021-.5-.032-.979-.027-1.469.011-1.9-1.2-4.289-1.447-6.263-.095-.769-.169-1.464-.221-2.1-.016-.184-.027-.368-.037-.542-.263-4.042.374-5.616.979-9.653.026-.169.047-.348.079-.532.084-.611.168-1.279.247-2.016a86.294,86.294,0,0,0,.29-10.627c0-.179,0-.353,0-.532-.011-1.311-.021-2.621,0-3.932C215.019,138.468,215.077,136.578,215.14,134.683Z" transform="translate(-21.73 -61.831)" fill="#56739e"/>
            <path d="M167.077,164.081c-.01-1.153-.036-2.3-.089-3.442,0-.174-.016-.348-.026-.521a102.8,102.8,0,0,0-1.39-12.565c-.026-.173-.058-.352-.095-.526-.131-.763-.273-1.532-.426-2.3-.7-3.548-1.458-7.1-1.863-10.7-.027-.237-.053-.479-.074-.716-.016-.179-.032-.353-.048-.532-.121-1.437-.168-2.868-.178-4.316A4.768,4.768,0,0,0,162.4,126c.3-.127.6-.248.921-.353a.282.282,0,0,0,.037-.511.267.267,0,0,0-.168,0,11.759,11.759,0,0,0-6.5,5.664c-.132.248-.258.5-.379.748-.079.163-.153.326-.226.494q-.206.459-.379.932c-1.622,4.379-3.832,9.027-4.043,13.617-.01.174-.016.342-.016.511v.01a37.08,37.08,0,0,1-1.079,8.712,34.526,34.526,0,0,0-.731,3.969c-.027.173-.048.347-.069.526-.126.958-.237,1.926-.358,2.906a47.445,47.445,0,0,0-.258,6.584c0,.153,0,.311.006.464,0,.394,0,.784.01,1.179.016,1.3.037,2.595-.026,3.9-.084,1.6.458,2.847-.279,4.253a7.167,7.167,0,0,0-.763,2.5c-.027.169-.043.337-.058.511-.216,2.679.494,5.564-.19,8.153-.016,0-.031,0-.052-.01a3.114,3.114,0,0,0-1.643-.079,1.477,1.477,0,0,0-.589.405,1.44,1.44,0,0,0-.295.49,5.151,5.151,0,0,0,.042,2.579,6.375,6.375,0,0,1-.053,3.542c-1,3.127,4.485,3.817,6.206,3.917,1.211.073,2.427.142,3.643.215q3.767.222,7.543.448a.268.268,0,0,0,.268-.258c.253-1.874.437-3.753.563-5.637.016-.174.027-.348.032-.527.026-.347.047-.7.063-1.047.163-.469.326-.943.484-1.416a.221.221,0,0,0,.053-.148c.042-.131.089-.263.137-.394a51.162,51.162,0,0,0,1.768-6.77q.214-1.12.348-2.258c.163-1.352.505-3.274.858-5.29.031-.184.063-.373.095-.558.379-2.168.747-4.4.9-6.106.015-.168.031-.336.037-.494.015-.19.026-.369.031-.537C168.4,167.524,167.109,167.4,167.077,164.081Z" transform="translate(-21.73 -61.831)" fill="#5576a6"/>
            <path d="M197.118,185.549s17.032,11.3,17.951,11.786,5.932-1.729,4.656-5.111c-1.2-3.188.823-8.113.823-8.113l-13.679-1.548Z" transform="translate(-21.73 -61.831)" fill="#56739e"/>
            <path d="M226.578,171.156c-.079-.29-.158-.585-.237-.874-.047-.184-.1-.374-.152-.563-.527-1.89-1.079-3.79-1.469-5.711-.5-2.459-.305-4.748-.61-7.085-.016-.164-.043-.321-.069-.485a12.111,12.111,0,0,0-.816-2.889c-1.173-2.753-2.742-5.148-3.521-7.964-.053-.185-.1-.369-.142-.558-.053-.216-.095-.437-.137-.658a49.785,49.785,0,0,0-2.09-7.885,12.161,12.161,0,0,0-1.3-2.79,3.6,3.6,0,0,0-.368-.474,3.2,3.2,0,0,0-.785-.674,15.177,15.177,0,0,0-8.132-1.747h-.063c-.337.01-.49,1.737-.153,1.726a34.013,34.013,0,0,1,3.937.079,8.268,8.268,0,0,1-.868,1.706c-.132.2-.274.4-.416.589-1.679,2.243-4.058,3.969-4.595,6.985a18.621,18.621,0,0,0-.253,2.3c-.01.174-.016.348-.021.527-.037,1.184-.005,2.368.011,3.542.042,2.49.084,4.974.142,7.464.01.547.026,1.09.042,1.637,0,.174,0,.347.016.526.084,3.195.21,6.39.405,9.58.01.179.026.358.037.537.058.963.131,1.927.2,2.89.179,2.19.379,4.379.658,6.564.016.142.032.279.053.421a.494.494,0,0,0,.015.084c.285,1.911,1.79,2.353,3.422,3.195a3.6,3.6,0,0,1,1.495,1.863c.326.727.595,1.532.937,2.232a3.031,3.031,0,0,0,1.5,1.643,33.1,33.1,0,0,0,6.148,1.731,5.707,5.707,0,0,0,2.864-.068c1.552-.695,3.489-3.853,4.595-5.111a3.729,3.729,0,0,0,.658-2.095c.016-.184.026-.369.031-.558.053-1.253-.047-2.606.085-3.49C227.936,175.246,227.089,173.108,226.578,171.156Z" transform="translate(-21.73 -61.831)" fill="#4f6a91"/>
            <path d="M176.808,185.465l-12.559,7.387s-1.891-2.645-1.231-3.07,1.805-5.589,3.35-5.959S176.808,185.465,176.808,185.465Z" transform="translate(-21.73 -61.831)" fill="#56739e"/>
            <g>
              <path d="M163.993,185.674a.274.274,0,0,1-.1-.019,5.076,5.076,0,0,1-2.539-2.926c-.825-2.227-.369-5.2,1.683-10.963,1.609-4.521.3-8.355-.479-10.645a13.957,13.957,0,0,1-.461-1.515c-.213-1.048.175-4.687.55-8.2a44.707,44.707,0,0,0,.454-5.877,81.026,81.026,0,0,0-8.3-5.058.263.263,0,1,1,.258-.458c1.348.758,8.091,4.576,8.5,5.262.209.352.059,1.976-.39,6.187-.354,3.316-.755,7.076-.558,8.044a13.673,13.673,0,0,0,.443,1.45c.8,2.355,2.147,6.3.477,10.991-1.979,5.561-2.452,8.534-1.685,10.6a4.6,4.6,0,0,0,2.246,2.622.263.263,0,0,1-.1.506Z" transform="translate(-21.73 -61.831)" fill="#17253d"/>
              <path d="M181.077,182.719a.269.269,0,0,1-.073-.011,81.235,81.235,0,0,1-9.6-3.332,11.168,11.168,0,0,1-3.342-2.246.263.263,0,1,1,.407-.333,11.159,11.159,0,0,0,3.175,2.11,82.883,82.883,0,0,0,9.5,3.3.263.263,0,0,1-.073.516Z" transform="translate(-21.73 -61.831)" fill="#17253d"/>
              <path d="M182.831,182.726a.257.257,0,0,1-.155-.051l-6.647-4.852a.263.263,0,0,1,.31-.425l6.648,4.852a.263.263,0,0,1-.156.476Z" transform="translate(-21.73 -61.831)" fill="#17253d"/>
              <path d="M193.353,184.261a.263.263,0,0,1-.078-.515c.056-.017,5.643-1.738,8.5-2.937,2.8-1.176,5.5-4.769,5.525-4.805a.264.264,0,1,1,.423.315c-.114.152-2.812,3.745-5.745,4.975-2.879,1.209-8.49,2.938-8.546,2.956A.261.261,0,0,1,193.353,184.261Z" transform="translate(-21.73 -61.831)" fill="#17253d"/>
              <path d="M212.7,153.022a.263.263,0,0,1-.159-.473l5.9-4.45a.263.263,0,0,1,.317.42l-5.9,4.45A.259.259,0,0,1,212.7,153.022Z" transform="translate(-21.73 -61.831)" fill="#17253d"/>
              <path d="M162.171,193.39a.24.24,0,0,1-.046,0c-1.276-.225-12.477-2.21-12.917-2.343a.263.263,0,0,1,.153-.5c.337.1,7.873,1.447,12.856,2.329a.264.264,0,0,1-.046.523Z" transform="translate(-21.73 -61.831)" fill="#17253d"/>
              <path d="M152.6,196.462h-.017l-5.877-.375a.263.263,0,0,1-.245-.28.266.266,0,0,1,.279-.246l5.876.376a.263.263,0,0,1-.016.526Z" transform="translate(-21.73 -61.831)" fill="#17253d"/>
              <path d="M161.45,197.99h0l-10.787-.045a.263.263,0,1,1,0-.526h0l10.788.045a.263.263,0,0,1,0,.526Z" transform="translate(-21.73 -61.831)" fill="#17253d"/>
              <path d="M211.627,177.757a.263.263,0,0,1-.182-.453,11.328,11.328,0,0,1,7.428-2.762h.048a14.358,14.358,0,0,1,7.418,1.916.263.263,0,0,1-.291.439,14.1,14.1,0,0,0-7.129-1.829,11.08,11.08,0,0,0-7.11,2.616A.261.261,0,0,1,211.627,177.757Z" transform="translate(-21.73 -61.831)" fill="#17253d"/>
              <path d="M211.638,175.038a.3.3,0,0,1-.076-.011.262.262,0,0,1-.175-.328c.041-.138.519-1.394,4.468-3.044,3.871-1.619,4.669-1.668,4.751-1.668h0a.263.263,0,0,1,0,.526h0a21.8,21.8,0,0,0-4.546,1.628c-3.729,1.558-4.164,2.7-4.168,2.71A.262.262,0,0,1,211.638,175.038Z" transform="translate(-21.73 -61.831)" fill="#17253d"/>
              <path d="M211.312,183.352a.265.265,0,0,1-.232-.138c-.059-.11-1.448-2.714-1.236-3.956a49.12,49.12,0,0,0,.1-8.641c-.278-4.622.451-7.408,1.111-8.932.761-1.755.026-9.007.018-9.08l-.01-.1,5.75-7.953a.263.263,0,0,1,.426.308l-5.632,7.791c.092.928.7,7.46-.069,9.243-.638,1.471-1.341,4.173-1.068,8.692a49.69,49.69,0,0,1-.108,8.76c-.151.884.8,2.912,1.181,3.619a.263.263,0,0,1-.107.356A.269.269,0,0,1,211.312,183.352Z" transform="translate(-21.73 -61.831)" fill="#17253d"/>
              <path d="M162.187,189.151a.263.263,0,0,1-.241-.364c.036-.082.414-.843,2.856-2.33s10.277-3.678,10.609-3.77a.263.263,0,1,1,.142.507c-.081.022-8.095,2.263-10.477,3.713C162.8,188.3,162.43,189,162.427,189A.269.269,0,0,1,162.187,189.151Z" transform="translate(-21.73 -61.831)" fill="#17253d"/>
              <path d="M209.293,185.205a.27.27,0,0,1-.062-.008s-1.642-.4-3.808-.892a26.946,26.946,0,0,0-6.362-.022.263.263,0,1,1-.057-.523,26.731,26.731,0,0,1,6.535.032c2.172.492,3.817.894,3.817.894a.263.263,0,0,1-.063.519Z" transform="translate(-21.73 -61.831)" fill="#17253d"/>
            </g>
            <path d="M190.007,74.887c-19.116-6.518-26.877,25.442-26.877,25.442A52.483,52.483,0,0,1,158,93.951c-1.3-2.072-2.063-5.717.551-11.506a39.423,39.423,0,0,1,3.962-6.695c.143-.2.29-.4.434-.6,5.1-6.852,12.622-12.634,19.616-13.264a13.326,13.326,0,0,1,1.607-.054,11.633,11.633,0,0,1,6.189,1.93C199.043,69.5,190.252,74.971,190.007,74.887Z" transform="translate(-21.73 -61.831)" fill="#17253d"/>
            <path d="M184.166,61.835c-2.58,8.175-15.452,19.282-25.619,20.61a39.423,39.423,0,0,1,3.962-6.695c.143-.2.29-.4.434-.6,7.843-2.409,15.982-7.946,19.616-13.264A13.326,13.326,0,0,1,184.166,61.835Z" transform="translate(-21.73 -61.831)" fill="#28497c"/>
            <path d="M198.064,91.178c0,.312,0,.623-.014.935v.024a29.7,29.7,0,0,1-.735,5.773l0,.018c-1.015,4.39-3.036,8.184-5.917,10.482a10.4,10.4,0,0,1-6.607,2.343c-6.741,0-10.986-5.619-12.568-12.848a30.693,30.693,0,0,1-.691-5.729c-.011-.331-.016-.665-.016-1,0-10.144,5.944-17.462,13.275-17.462a11.048,11.048,0,0,1,6.058,1.827c3.491,2.264,6.086,6.485,6.928,11.824a24.388,24.388,0,0,1,.271,2.76.789.789,0,0,0,0,.084C198.057,90.531,198.064,90.853,198.064,91.178Z" transform="translate(-21.73 -61.831)" fill="#fff0e2"/>
            <path d="M194.919,88.058l-6.884.612c-.313.027-.4-.154-.141-.286a10.131,10.131,0,0,1,7.344-.685C195.5,87.775,195.276,88.027,194.919,88.058Z" transform="translate(-21.73 -61.831)" fill="#17253d"/>
            <ellipse cx="157.732" cy="31.293" rx="1.65" ry="0.963" fill="#17253d"/>
            <path d="M184.376,103.865a8.771,8.771,0,0,1-3.975-1.617.175.175,0,0,1-.02-.26.21.21,0,0,1,.281-.012,8.084,8.084,0,0,0,7.646,1.058.209.209,0,0,1,.263.1.175.175,0,0,1-.1.24A8.07,8.07,0,0,1,184.376,103.865Z" transform="translate(-21.73 -61.831)" fill="#c4a19e"/>
            <path d="M174.865,87.948l5.873.444c.267.02.348-.15.126-.269a7.919,7.919,0,0,0-6.266-.5C174.374,87.7,174.56,87.925,174.865,87.948Z" transform="translate(-21.73 -61.831)" fill="#17253d"/>
            <g>
              <path d="M172.185,97.905a3.079,3.079,0,0,1-.686.352c-1.306.495-3.467-.735-3.943-2.653s.238-3.745,1.591-4.081a2.851,2.851,0,0,1,2.348.653A30.777,30.777,0,0,0,172.185,97.905Z" transform="translate(-21.73 -61.831)" fill="none" stroke="#1a1a1a" stroke-miterlimit="10" stroke-width="0.233"/>
              <path d="M168.45,93.5s1.7-1,2.39.619c0,0-1.953,1.185-1.264,2.536" transform="translate(-21.73 -61.831)" fill="none" stroke="#1a1a1a" stroke-miterlimit="10" stroke-width="0.233"/>
            </g>
            <g>
              <path d="M201.9,95.6c-.476,1.918-2.64,3.148-3.944,2.653a3.086,3.086,0,0,1-.677-.347.44.44,0,0,0,.01-.047c.186-.8.338-1.631.45-2.471.033-.208.058-.418.082-.63.093-.791.156-1.6.184-2.406,0-.072.007-.147.009-.219a3.962,3.962,0,0,1,.336-.227l0,0a2.844,2.844,0,0,1,1.6-.436,1.756,1.756,0,0,1,.357.051C201.665,91.859,202.376,93.686,201.9,95.6Z" transform="translate(-21.73 -61.831)" fill="#c4a19e" stroke="#325386" stroke-miterlimit="10" stroke-width="0.221"/>
              <path d="M199.882,96.77a.112.112,0,0,1-.053-.013.117.117,0,0,1-.051-.157c.632-1.238-1.2-2.372-1.221-2.383l-.086-.053.04-.093a1.528,1.528,0,0,1,.919-.923,2.243,2.243,0,0,1,1.637.25.116.116,0,0,1,.041.159.117.117,0,0,1-.16.042,2.041,2.041,0,0,0-1.446-.229,1.266,1.266,0,0,0-.737.7c.382.26,1.863,1.374,1.221,2.632A.119.119,0,0,1,199.882,96.77Z" transform="translate(-21.73 -61.831)" fill="#c4a19e" stroke="#212741" stroke-miterlimit="10" stroke-width="0.221"/>
            </g>
            <path d="M159.065,97.442a33.044,33.044,0,0,1,1.227-6.242c7.638-4.137,15-14.463,15.859-21.389q.48-.192.966-.357l.014.073C178.634,78.081,168.838,96.051,159.065,97.442Z" transform="translate(-21.73 -61.831)" fill="#2c3149"/>
            <path d="M190.44,80.014s-7.975-3.855-16.271,6.308c2.644-5.4,7.516-7.752,10.883-9,4.32-1.6,5.253,2.03,5.374,2.616Z" transform="translate(-21.73 -61.831)" fill="#c4a19e"/>
            <path d="M198.064,91.178c0,.312,0,.623-.014.935v.024a29.7,29.7,0,0,1-.735,5.773l0,.018c-1.015,4.39-3.036,8.184-5.917,10.482a21.659,21.659,0,0,0,5.262-16.871c-1.711-1.4-4.434-7-4.434-7l5.551,2.828a24.388,24.388,0,0,1,.271,2.76.789.789,0,0,0,0,.084C198.057,90.531,198.064,90.853,198.064,91.178Z" transform="translate(-21.73 -61.831)" fill="#c4a19e"/>
            <path d="M190.355,79.367l1.089-4.045c4.074,2.642,7.453,9.452,7.726,16.088C192.648,88.844,190.355,79.367,190.355,79.367Z" transform="translate(-21.73 -61.831)" fill="#17253d"/>
            <path d="M186.957,98.183a3.222,3.222,0,0,1-1.358,1.306c-.757.333-1.481.035-1.882-.938l.772-.339c.188.455.393.539.743.385a2.463,2.463,0,0,0,.992-.967Z" transform="translate(-21.73 -61.831)" fill="#c4a19e"/>
            <ellipse cx="169.062" cy="31.293" rx="1.65" ry="0.963" fill="#17253d"/>
            <ellipse cx="157.217" cy="30.768" rx="2.165" ry="0.601" fill="#17253d"/>
            <ellipse cx="169.577" cy="30.768" rx="2.165" ry="0.601" fill="#17253d"/>
            <g>
              <path d="M200.158,124.675s-2.489,7-13.379,8.089" transform="translate(-21.73 -61.831)" fill="none" stroke="#1a1a1a" stroke-linecap="round" stroke-miterlimit="10" stroke-width="0.233"/>
              <path d="M185.729,134.241c-4.354,0-10.444-11.942-10.7-12.453a.18.18,0,0,1,.1-.247.216.216,0,0,1,.272.092c.062.123,6.237,12.236,10.325,12.236h.061c3.991-.119,10.464-11.608,10.529-11.724a.214.214,0,0,1,.275-.082.177.177,0,0,1,.09.25c-.269.482-6.649,11.8-10.88,11.928Z" transform="translate(-21.73 -61.831)" fill="#17253d"/>
              <path d="M185.405,131.033a4.51,4.51,0,0,1-1.032-.115c-4.274-1-8.656-7.879-8.84-8.171a.178.178,0,0,1,.076-.254.217.217,0,0,1,.28.069c.044.07,4.48,7.035,8.587,8,4.067.952,9.736-5.014,9.793-5.074a.221.221,0,0,1,.289-.021.174.174,0,0,1,.023.262C194.361,125.959,189.537,131.033,185.405,131.033Z" transform="translate(-21.73 -61.831)" fill="#122133"/>
              <path d="M186.356,134.055a1.077,1.077,0,1,1-1.043-.808A.949.949,0,0,1,186.356,134.055Z" transform="translate(-21.73 -61.831)" fill="#fff"/>
              <path d="M189.233,132.847a.681.681,0,1,1-.68-.7A.688.688,0,0,1,189.233,132.847Z" transform="translate(-21.73 -61.831)" fill="#fff"/>
              <path d="M189.914,129.546a.681.681,0,1,1-.681-.7A.69.69,0,0,1,189.914,129.546Z" transform="translate(-21.73 -61.831)" fill="#fff"/>
              <path d="M182.515,131.452a.681.681,0,1,1-.681-.7A.69.69,0,0,1,182.515,131.452Z" transform="translate(-21.73 -61.831)" fill="#fff"/>
            </g>
            <g>
              <path d="M190.44,80.014l-.014-.079c-.121-.586-1.054-4.215-5.374-2.616-3.367,1.251-8.239,3.6-10.883,9a19.478,19.478,0,0,0-1.86,7.889c-.415,10.475,6.326,7.26,4.576,18.731-1.2,7.883,3.419,10.03,6.221,10.424a.525.525,0,0,1,.115,1.013l-2.859,1.075a14.908,14.908,0,0,1,3.127.9,2.543,2.543,0,0,1,.954,3.277c-1.3,3.388-10.251,1.649-10.251,1.649l1.015-1.178a.892.892,0,0,0-.534-1.465,10.209,10.209,0,0,1-6.128-3.351c-2.086-2.607,1.216-8.863.782-11.294s-3.218-4.868-7.908-8.256a6.538,6.538,0,0,1-2.285-3.8,19.949,19.949,0,0,1-.07-4.49c.759-8.545,6.014-18.278,8.958-21.86a20.789,20.789,0,0,1,9.094-6.128c3.743-1.276,7.738-1.386,10.891.478C194.176,73.585,190.44,80.014,190.44,80.014Z" transform="translate(-21.73 -61.831)" fill="#28497c"/>
              <path d="M159.18,97.6a33.044,33.044,0,0,1,1.227-6.242c7.638-4.137,15-14.463,15.859-21.389q.48-.192.966-.357l.014.072C178.749,78.239,168.953,96.209,159.18,97.6Z" transform="translate(-21.73 -61.831)" fill="#647bb8"/>
              <path d="M188.788,133.1c-.086,6.428-15.377,4.082-15.377,4.082l.989,1.282a.951.951,0,0,1-.938,1.514c-3.293-.673-9.024-3.152-9.607-12.266-.7-10.861,6.6-10.947-1.654-19.2a11.224,11.224,0,0,1-3.065-6.58,6.526,6.526,0,0,0,2.283,3.8c4.692,3.386,7.476,5.822,7.91,8.254s-2.87,8.687-.782,11.3a10.207,10.207,0,0,0,6.127,3.351.893.893,0,0,1,.535,1.466l-1.016,1.177s8.949,1.74,10.251-1.65a2.544,2.544,0,0,0-.954-3.276C185.911,127.334,188.843,129.312,188.788,133.1Z" transform="translate(-21.73 -61.831)" fill="#17253d"/>
            </g>
          </g>
          <rect x="17.612" y="130.986" width="275.417" height="51.014" fill="#ececec"/>
          <g>
            <g>
              <path d="M100.16,176.923l.008.031a.433.433,0,0,1-.152.071l-.767.193.238.946-.2.051a.836.836,0,0,1-1.013-.607l-.05-.2Z" transform="translate(-21.73 -61.831)" fill="#efcec5"/>
              <g>
                <path d="M93.238,153.312l5.593,22.212-1.106.278-5.653-22.451A2.838,2.838,0,0,0,93.238,153.312Z" transform="translate(-21.73 -61.831)" fill="#5978a6"/>
                <path d="M92.472,150.267l.766,3.045a2.838,2.838,0,0,1-1.166.039l-.109-.432.057-2.554.249-.051Z" transform="translate(-21.73 -61.831)" fill="#fff0e2"/>
                <path d="M92.058,148.624l.414,1.643-.2.047-.249.051Z" transform="translate(-21.73 -61.831)" fill="#2c3149"/>
                <path d="M94.219,152.863l5.641,22.4-1.029.259-5.593-22.212.021-.005A2.849,2.849,0,0,0,94.219,152.863Z" transform="translate(-21.73 -61.831)" fill="#213759"/>
                <path d="M94.1,152.381l.121.482a2.849,2.849,0,0,1-.96.444l-.021.005-.766-3.045.119-.029c.115-.029.228-.06.34-.093Z" transform="translate(-21.73 -61.831)" fill="#c4a19e"/>
                <path d="M92.931,150.145c-.112.033-.225.064-.34.093l-.119.029-.414-1.643,0-.145Z" transform="translate(-21.73 -61.831)" fill="#030205"/>
              </g>
              <path d="M100.16,176.923l.008.031a.433.433,0,0,1-.152.071l-1.595.4a.441.441,0,0,1-.194.006.457.457,0,0,1-.359-.337l-.266-1.055a.456.456,0,0,1,.331-.553l.828-.209.473,1.878Z" transform="translate(-21.73 -61.831)" fill="#2c3149"/>
              <path d="M100.168,176.954l.042.166a.836.836,0,0,1-.607,1.014l-.116.03-.238-.946.767-.193A.433.433,0,0,0,100.168,176.954Z" transform="translate(-21.73 -61.831)" fill="#e2beb5"/>
              <path d="M99.528,175.086l-.767.193.473,1.878.015.061.767-.193a.433.433,0,0,0,.152-.071.451.451,0,0,0,.178-.481l-.266-1.056A.456.456,0,0,0,99.528,175.086Z" transform="translate(-21.73 -61.831)" fill="#191e30"/>
            </g>
            <g>
              <path d="M99.257,178.836l.01.03a.43.43,0,0,1-.146.083l-.749.253.312.924-.2.067a.836.836,0,0,1-1.058-.525l-.065-.192Z" transform="translate(-21.73 -61.831)" fill="#efcec5"/>
              <g>
                <path d="M90.489,155.846l7.332,21.7-1.081.365-7.412-21.933A2.871,2.871,0,0,0,90.489,155.846Z" transform="translate(-21.73 -61.831)" fill="#5978a6"/>
                <path d="M89.483,152.871l1.006,2.975a2.871,2.871,0,0,1-1.161.132l-.142-.423-.146-2.55.245-.07Z" transform="translate(-21.73 -61.831)" fill="#fdefe7"/>
                <path d="M88.941,151.266l.542,1.605-.2.064-.245.07Z" transform="translate(-21.73 -61.831)" fill="#2c3149"/>
                <path d="M91.431,155.322l7.395,21.884-1,.34-7.332-21.7.02-.007A2.849,2.849,0,0,0,91.431,155.322Z" transform="translate(-21.73 -61.831)" fill="#213759"/>
                <path d="M91.272,154.851l.159.471a2.849,2.849,0,0,1-.922.517l-.02.007-1.006-2.975.117-.038c.112-.038.223-.077.332-.119Z" transform="translate(-21.73 -61.831)" fill="#c4a19e"/>
                <path d="M89.932,152.714c-.109.042-.22.081-.332.119l-.117.038-.542-1.605-.008-.144Z" transform="translate(-21.73 -61.831)" fill="#030205"/>
              </g>
              <path d="M99.257,178.836l.01.03a.43.43,0,0,1-.146.083l-1.558.527a.449.449,0,0,1-.194.021.455.455,0,0,1-.384-.307l-.348-1.031a.457.457,0,0,1,.286-.578l.809-.273.619,1.834Z" transform="translate(-21.73 -61.831)" fill="#2c3149"/>
              <path d="M99.267,178.866l.054.162a.835.835,0,0,1-.524,1.059l-.113.039-.312-.924.749-.253A.43.43,0,0,0,99.267,178.866Z" transform="translate(-21.73 -61.831)" fill="#e2beb5"/>
              <path d="M98.48,177.055l-.748.253.619,1.834.021.06.749-.253a.43.43,0,0,0,.146-.083.453.453,0,0,0,.139-.494l-.348-1.031A.456.456,0,0,0,98.48,177.055Z" transform="translate(-21.73 -61.831)" fill="#191e30"/>
            </g>
            <g>
              <path d="M93.664,180.251l-.016.028a.452.452,0,0,1-.159-.053l-.688-.389-.48.848-.182-.1a.835.835,0,0,1-.315-1.138l.1-.177Z" transform="translate(-21.73 -61.831)" fill="#efcec5"/>
              <g>
                <path d="M104.937,158.38l-11.27,19.941-.993-.561L104.065,157.6A2.835,2.835,0,0,0,104.937,158.38Z" transform="translate(-21.73 -61.831)" fill="#5978a6"/>
                <path d="M106.482,155.647l-1.545,2.733a2.835,2.835,0,0,1-.872-.776l.219-.388,1.8-1.811c.071.046.143.091.215.136Z" transform="translate(-21.73 -61.831)" fill="#fdefe7"/>
                <path d="M107.315,154.171l-.833,1.476-.18-.106c-.072-.045-.144-.09-.215-.136Z" transform="translate(-21.73 -61.831)" fill="#2c3149"/>
                <path d="M105.956,158.732,94.59,178.843l-.923-.522,11.27-19.941.018.011A2.86,2.86,0,0,0,105.956,158.732Z" transform="translate(-21.73 -61.831)" fill="#213759"/>
                <path d="M106.2,158.3l-.245.433a2.86,2.86,0,0,1-1-.341l-.018-.011,1.545-2.733.106.061c.1.058.206.114.31.168Z" transform="translate(-21.73 -61.831)" fill="#c4a19e"/>
                <path d="M106.9,155.876c-.1-.054-.207-.11-.31-.168l-.106-.061.833-1.476.1-.1Z" transform="translate(-21.73 -61.831)" fill="#030205"/>
              </g>
              <path d="M93.664,180.251l-.016.028a.452.452,0,0,1-.159-.053l-1.432-.809a.444.444,0,0,1-.144-.131.453.453,0,0,1-.028-.49l.536-.948a.455.455,0,0,1,.62-.172l.744.42-.953,1.685Z" transform="translate(-21.73 -61.831)" fill="#2c3149"/>
              <path d="M93.648,180.279l-.084.149a.835.835,0,0,1-1.138.316l-.105-.059.48-.848.688.389A.452.452,0,0,0,93.648,180.279Z" transform="translate(-21.73 -61.831)" fill="#e2beb5"/>
              <path d="M94.473,178.485l-.688-.389-.953,1.685-.031.056.688.389a.46.46,0,0,0,.621-.173l.535-.948A.455.455,0,0,0,94.473,178.485Z" transform="translate(-21.73 -61.831)" fill="#191e30"/>
            </g>
            <g>
              <path d="M98.331,152.694l0-.031a.428.428,0,0,1,.168-.013l.785.091.112-.968.208.024a.836.836,0,0,1,.733.927l-.024.2Z" transform="translate(-21.73 -61.831)" fill="#efcec5"/>
              <g>
                <path d="M96.435,177.226l2.643-22.752,1.133.132-2.671,23A2.846,2.846,0,0,0,96.435,177.226Z" transform="translate(-21.73 -61.831)" fill="#5978a6"/>
                <path d="M96.072,180.345l.363-3.119a2.846,2.846,0,0,1,1.105.377l-.052.443-.958,2.368-.251-.041Z" transform="translate(-21.73 -61.831)" fill="#fdefe7"/>
                <path d="M95.877,182.028l.2-1.683.207.028.251.041Z" transform="translate(-21.73 -61.831)" fill="#2c3149"/>
                <path d="M95.359,177.3l2.665-22.946,1.054.122-2.643,22.752-.021,0A2.863,2.863,0,0,0,95.359,177.3Z" transform="translate(-21.73 -61.831)" fill="#405a85"/>
                <path d="M95.3,177.792l.058-.494a2.863,2.863,0,0,1,1.055-.074l.021,0-.363,3.119-.122-.015c-.117-.014-.234-.025-.35-.034Z" transform="translate(-21.73 -61.831)" fill="#f7ad83"/>
                <path d="M95.6,180.3c.116.009.233.02.35.034l.122.015-.2,1.683-.055.134Z" transform="translate(-21.73 -61.831)" fill="#030205"/>
              </g>
              <path d="M98.331,152.694l0-.031a.428.428,0,0,1,.168-.013l1.633.19a.434.434,0,0,1,.184.064.453.453,0,0,1,.216.441l-.126,1.081a.456.456,0,0,1-.5.4l-.848-.1.223-1.923Z" transform="translate(-21.73 -61.831)" fill="#2c3149"/>
              <path d="M98.335,152.663l.02-.17a.836.836,0,0,1,.926-.734l.119.014-.112.968-.785-.091A.428.428,0,0,0,98.335,152.663Z" transform="translate(-21.73 -61.831)" fill="#fff0e2"/>
              <path d="M98.272,154.636l.785.091.223-1.923.008-.063-.785-.091a.428.428,0,0,0-.168.013.451.451,0,0,0-.337.387l-.126,1.081A.456.456,0,0,0,98.272,154.636Z" transform="translate(-21.73 -61.831)" fill="#191e30"/>
            </g>
            <polygon points="82.739 100.044 80.883 116.925 80.486 120.546 69.676 120.546 67.424 100.044 82.739 100.044" fill="#e2e7f5"/>
            <path d="M102.614,178.755l-.4,3.621H91.406l-2.252-20.5h3.439C92.78,167.066,94.087,180.221,102.614,178.755Z" transform="translate(-21.73 -61.831)" fill="#2c3149" opacity="0.2"/>
          </g>
          <path d="M3.4,121H297.6a3.4,3.4,0,0,1,3.4,3.4v3.81a3.4,3.4,0,0,1-3.4,3.4H3.4a3.4,3.4,0,0,1-3.4-3.4V124.4A3.4,3.4,0,0,1,3.4,121Z" fill="#f5f5f5"/>
          <g>
            <g>
              <path d="M284.285,156.548l-.014.255h-2.235l.013-.255a2.934,2.934,0,0,0-2.929-3.1h2.236A2.935,2.935,0,0,1,284.285,156.548Z" transform="translate(-21.73 -61.831)" fill="#2d425e"/>
              <path d="M282.049,156.548l-.013.255H265.879l-.014-.255a2.935,2.935,0,0,1,2.929-3.1H279.12A2.934,2.934,0,0,1,282.049,156.548Z" transform="translate(-21.73 -61.831)" fill="#325386"/>
              <path d="M284.271,156.8l-.127,2.235-.218,3.8-.875,15.417-.211,3.707a1.046,1.046,0,0,1-1.045.985h-13.44a1.046,1.046,0,0,1-1.045-.985l-.047-.8h12.3a1.044,1.044,0,0,0,1.042-.989l.211-3.7.875-15.417.218-3.8.026-.449Z" transform="translate(-21.73 -61.831)" fill="#2c3149" opacity="0.3"/>
              <path d="M281.935,156.8l-.026.449-.218,3.8-.875,15.417-.211,3.7a1.044,1.044,0,0,1-1.042.989h-12.3l-.164-2.906-.875-15.417-.218-3.8-.127-2.235Z" transform="translate(-21.73 -61.831)" fill="#fffcf7"/>
              <polygon points="262.196 101.005 261.321 116.421 258.985 116.421 259.086 114.635 259.86 101.005 262.196 101.005" fill="#476594"/>
              <polygon points="259.86 101.005 259.086 114.635 258.985 116.421 245.368 116.421 244.494 101.005 259.86 101.005" fill="#bac4df"/>
              <path d="M286.47,157.587a1.122,1.122,0,0,1-1.116,1.116H265.245a1.118,1.118,0,0,1,0-2.236h20.109A1.119,1.119,0,0,1,286.47,157.587Z" transform="translate(-21.73 -61.831)" fill="#3b629e"/>
              <circle cx="253.233" cy="108.156" r="4.022" fill="#fefffd"/>
            </g>
            <path d="M276.183,151.76a6.785,6.785,0,0,1-5.084-6.831c0-5.719,7.944-2.86,6.832-12.233,0,0,3.018,5.561-1.748,10.009S276.183,151.76,276.183,151.76Z" transform="translate(-21.73 -61.831)" fill="#f2f2f2"/>
            <path d="M278.511,152.65a3.708,3.708,0,0,0,3.21-3.3c.641-3.177-3.5-2.359-1.914-7.458a5.358,5.358,0,0,0-.281,5.73C281.319,150.553,278.511,152.65,278.511,152.65Z" transform="translate(-21.73 -61.831)" fill="#f2f2f2"/>
          </g>
          <g>
            <path d="M53.218,136.631a8.47,8.47,0,0,0-6.031-4.7c-4.167-.854-1.974-6.724-4.934-9.072s-3.29.747-6.8-3.629-3.728-7.471-6.469-9.5c0,0,6.908.534,9.759,5.55a13.973,13.973,0,0,1,7.9,3.095c3.509,2.988,5.154,1.921,6.8,2.775.646.335,1.275.72,1.8,1.063a.668.668,0,0,1-.228,1.214c-1.274.3-2.951.941-3.656,2.312a34.172,34.172,0,0,1,4.409-.871,1.968,1.968,0,0,1,1.847.881l1.091,1.7,3.509,7.685L57.5,138.979Z" transform="translate(-21.73 -61.831)" fill="#28497c"/>
            <path d="M56.836,177.25a.254.254,0,0,1-.253-.219c-.08-.652-.177-3.308-.3-6.67-.258-7.057-.648-17.721-1.256-20.034a42.129,42.129,0,0,1-.7-5.074c-.532-5.055-1.335-12.695-3.97-17.769-3.05-5.873-9.254-9.126-12.587-10.874-.8-.42-1.433-.751-1.882-1.037a20.9,20.9,0,0,1-3.8-3.028.245.245,0,0,1,.018-.351.261.261,0,0,1,.361.018,20.806,20.806,0,0,0,3.7,2.945c.43.274,1.085.618,1.844,1.016,3.382,1.773,9.678,5.075,12.8,11.087,2.678,5.156,3.487,12.851,4.023,17.943a42.059,42.059,0,0,0,.684,5c.622,2.365,1.013,13.061,1.272,20.139.122,3.351.219,6,.3,6.629a.249.249,0,0,1-.223.276Z" transform="translate(-21.73 -61.831)" fill="#647bb8"/>
            <path d="M50.918,152.154s-1.684-1.751,1.292-5.348,1.673-4.55,1.673-4.55l-8.96-8.461a1.865,1.865,0,0,0-2.706.158,5.949,5.949,0,0,0-1.567,4.032,18.051,18.051,0,0,1,.071-4.874,1.122,1.122,0,0,0-1.069-1.3,5.349,5.349,0,0,1-2.856-.93,6.8,6.8,0,0,0-1.833-.95,1.181,1.181,0,0,0-1.548.946l-.294,2.319-.8-3.219a.85.85,0,0,0-1.159-.567,2.563,2.563,0,0,1-.712.2,1.169,1.169,0,0,0-1,1.384l.135.69s-2.777-2.2-3.086-3.771a18.439,18.439,0,0,0,1.512,4.282c.786,1.158-.47,2.152.9,2.875s3.242.591,3.7,2.353a7.082,7.082,0,0,0,.905,2.331s6.881,2.629,9.115,5.473,8.476,7.331,8.476,7.331" transform="translate(-21.73 -61.831)" fill="#28497c"/>
            <path d="M58.188,176.449a.255.255,0,0,1-.25-.2,175.519,175.519,0,0,0-7.575-24.058c-4.241-10.691-7.16-11.959-12.458-14.261-1.078-.468-2.3-1-3.638-1.656a27.13,27.13,0,0,1-5.39-3.762.243.243,0,0,1-.012-.351.258.258,0,0,1,.36-.012,27.263,27.263,0,0,0,5.272,3.682c1.327.651,2.543,1.179,3.616,1.645,5.422,2.356,8.409,3.654,12.726,14.536a176.311,176.311,0,0,1,7.6,24.134.248.248,0,0,1-.2.294A.239.239,0,0,1,58.188,176.449Z" transform="translate(-21.73 -61.831)" fill="#647bb8"/>
            <path d="M47.626,160.512a12.174,12.174,0,0,0,4.852,2.641s1.11-2.241-1.727-4C50.751,159.151,49.271,158.07,47.626,160.512Z" transform="translate(-21.73 -61.831)" fill="#28497c"/>
            <path d="M58.043,145.169a14.125,14.125,0,0,1-6.056-7.04,2.085,2.085,0,0,1,.3-1.9l2.472-3.4a1.1,1.1,0,0,1,1.545-.225l3.932,2.958-2.953-4.583a2.8,2.8,0,0,1,.192-3.3L62.21,121.9l8.333,4.376s-.329,7.151-2.96,9.926a16.843,16.843,0,0,0-3.29,4.376S58.7,142.608,58.043,145.169Z" transform="translate(-21.73 -61.831)" fill="#647bb8"/>
            <path d="M67.8,154.775s1.316-3.415.109-5.55.658-4.056,3.29-5.23,2.083-2.348,4.5-2.455,3.947-1.174,7.237-2.134,15.022.747,15.022.747-7.237.534-9.54,2.988-3.618,3.416-5.811,2.455-2.961.107-3.838,1.174-2.741,3.2-4.5,3.629A10.6,10.6,0,0,0,67.8,154.775Z" transform="translate(-21.73 -61.831)" fill="#e2e7f5"/>
            <path d="M51.327,159.551s-1.755-1.174-3.18,1.067-2.742,2.348-4.386,2.135c0,0-.549,2.135-3.509,2.135s-4.715,4.055-4.715,4.055a3.922,3.922,0,0,1-.22-3.842c1.1-1.814-2.412-1.6-1.206-3.2s4.935-6.937,8.882-5.763,2.741,2.241,2.741,2.241S49.682,157.2,51.327,159.551Z" transform="translate(-21.73 -61.831)" fill="#e2e7f5"/>
            <path d="M36.537,165.7h-.024a.251.251,0,0,1-.23-.271c.63-6.373,9.338-7.292,9.426-7.3a.253.253,0,0,1,.279.222.25.25,0,0,1-.228.272c-.084.009-8.38.887-8.969,6.853A.253.253,0,0,1,36.537,165.7Z" transform="translate(-21.73 -61.831)" fill="#28497c"/>
            <path d="M53.629,178.371a.255.255,0,0,1-.25-.2C51.622,169.7,54.7,152.725,57.5,145.218a106.476,106.476,0,0,1,7.092-14.529.261.261,0,0,1,.349-.09.245.245,0,0,1,.092.34,105.844,105.844,0,0,0-7.053,14.449c-2.785,7.455-5.842,24.293-4.1,32.685a.25.25,0,0,1-.2.293A.294.294,0,0,1,53.629,178.371Z" transform="translate(-21.73 -61.831)" fill="#28497c"/>
            <path d="M62.018,175.569a.289.289,0,0,1-.065-.008.248.248,0,0,1-.182-.3l4.687-17.451a24.257,24.257,0,0,1,9.556-13.427,25.2,25.2,0,0,1,16.107-4.427.249.249,0,0,1,.218.279.255.255,0,0,1-.286.214,24.647,24.647,0,0,0-15.742,4.338,23.717,23.717,0,0,0-9.356,13.136l-4.69,17.463A.255.255,0,0,1,62.018,175.569Z" transform="translate(-21.73 -61.831)" fill="#28497c"/>
            <path d="M65.938,136.417s.219-5.443-2.851-8.965c-.613-.7-1.113-1.313-1.519-1.838a3.737,3.737,0,0,1,.258-4.883,21.222,21.222,0,0,0,4-5.339,18.419,18.419,0,0,1,.779-1.736,1.883,1.883,0,0,1,2.576-.749l3.334,1.844-2.252-3.7a2.34,2.34,0,0,1,.394-2.929,12.064,12.064,0,0,1,4.6-2.866,19.322,19.322,0,0,0,6.47-3.949s6.688-1.6,10.526,0c0,0-4.934,3.2-4.934,5.977s-2.522,4.59-1.754,6.617-3.729,1.388-3.509,3.1h0a1.5,1.5,0,0,1-1.478,1.667,23.069,23.069,0,0,0-6.966,1.321s6.36-.427,8.773.854c0,0-3.4-.854-3.29,1.921s-.768,2.988-5.044,4.056S65.938,136.417,65.938,136.417Z" transform="translate(-21.73 -61.831)" fill="#e2e7f5"/>
            <path d="M58.646,176.69l-.026,0a.249.249,0,0,1-.228-.272c0-.024.253-2.369.741-6.249.468-3.724,5.24-29.392,6.56-33.819,1.979-6.641,6.1-19.047,11.486-27.518,5.269-8.291,12.895-7.8,12.971-7.8a.249.249,0,1,1-.04.5c-.073-.006-7.4-.462-12.5,7.561-5.352,8.42-9.459,20.778-11.431,27.395-1.316,4.414-6.076,30.024-6.544,33.74-.487,3.875-.737,6.217-.739,6.24A.254.254,0,0,1,58.646,176.69Z" transform="translate(-21.73 -61.831)" fill="#28497c"/>
          </g>
          <g>
            <rect x="25.196" y="107.017" width="22.192" height="13.911" fill="#bbc8e9"/>
            <path d="M69.118,179.892v2.866H46.926v-13.91h3.326C50.091,172.537,51.355,182.055,69.118,179.892Z" transform="translate(-21.73 -61.831)" fill="#2c3149" opacity="0.3"/>
          </g>
          <path d="M33.342,193.569v45.15H73.977V207.866h.643c-2-3.791,13.688-13.575,234.139-11.351v-2.946Z" transform="translate(-21.73 -61.831)" fill="#494949" opacity="0.15"/>
          <g>
            <g>
              <path d="M178.044,139.547l-.023-.017a.409.409,0,0,1,.068-.137l.438-.572-.7-.539.115-.152a.762.762,0,0,1,1.067-.141l.146.112Z" transform="translate(-21.73 -61.831)" fill="#171a30"/>
              <g>
                <path d="M196.351,152.463l-16.566-12.67.631-.826,16.745,12.807A2.585,2.585,0,0,0,196.351,152.463Z" transform="translate(-21.73 -61.831)" fill="#171a30"/>
                <path d="M198.622,154.2l-2.271-1.736a2.585,2.585,0,0,1,.81-.689l.322.246,1.406,1.854c-.05.058-.1.117-.149.177S198.661,154.15,198.622,154.2Z" transform="translate(-21.73 -61.831)" fill="#2c3149"/>
                <path d="M199.847,155.137l-1.225-.938c.039-.049.078-.1.118-.148s.1-.119.149-.177Z" transform="translate(-21.73 -61.831)" fill="#171a30"/>
                <path d="M195.906,153.338,179.2,140.56l.587-.767,16.566,12.67-.012.015A2.592,2.592,0,0,0,195.906,153.338Z" transform="translate(-21.73 -61.831)" fill="#03051a"/>
                <path d="M196.265,153.613l-.359-.275a2.592,2.592,0,0,1,.433-.86l.012-.015,2.271,1.736-.069.089c-.065.085-.129.171-.19.258Z" transform="translate(-21.73 -61.831)" fill="#2c3149"/>
                <path d="M198.363,154.546c.061-.087.125-.173.19-.258l.069-.089,1.225.938.08.1Z" transform="translate(-21.73 -61.831)" fill="#03051a"/>
              </g>
              <path d="M178.044,139.547l-.023-.017a.409.409,0,0,1,.068-.137l.91-1.19a.4.4,0,0,1,.136-.114.413.413,0,0,1,.445.037l.788.6a.415.415,0,0,1,.077.582l-.472.617-1.4-1.071Z" transform="translate(-21.73 -61.831)" fill="#373b4c"/>
              <path d="M178.021,139.53l-.123-.095a.761.761,0,0,1-.143-1.067l.067-.086.7.539-.438.572A.409.409,0,0,0,178.021,139.53Z" transform="translate(-21.73 -61.831)" fill="#03051a"/>
              <path d="M179.536,140.5l.437-.572-1.4-1.071-.046-.035-.438.572a.417.417,0,0,0,.078.581l.787.6A.415.415,0,0,0,179.536,140.5Z" transform="translate(-21.73 -61.831)" fill="#2c3149"/>
            </g>
            <path d="M196.223,151.533a.84.84,0,0,1-.217-.065l-.392-.181-.53-1.772a2.017,2.017,0,0,0-1.332-1.424l-4.205-1.367s-.595.128-1.27-1.218l5.185.621L196,148.539Z" transform="translate(-21.73 -61.831)" fill="#c4a19e"/>
            <path d="M194.7,152.245a2.372,2.372,0,0,1-.2.961l-.686,1.564h0c-.161,0-.381-.1-.553-.527l-.056.06-.1-.217.18-.41a1.352,1.352,0,0,0-.656-1.76l-3.491-1.666s-.518-.131-.8-.959l4.933,1.034a1.771,1.771,0,0,1,1.32,1.187A2.386,2.386,0,0,1,194.7,152.245Z" transform="translate(-21.73 -61.831)" fill="#c4a19e"/>
            <path d="M191.749,155.281a1.746,1.746,0,0,1-.361.026l-.056.065-.075-.222s.1-.415-1.269-.959a21.861,21.861,0,0,1-2.049-.908s-.285-.051-.7-.674l4.2,1.615A.7.7,0,0,1,191.749,155.281Z" transform="translate(-21.73 -61.831)" fill="#c4a19e"/>
            <path d="M190.643,155.93a1.29,1.29,0,0,1-.448.154,27.336,27.336,0,0,1-3.785-.623l-2.569.8a10.023,10.023,0,0,1-5.484.151l-.337-.085a3.417,3.417,0,0,0-2.761.485L155.141,170.5l-1.194-1.867,20.887-12.857a4.506,4.506,0,0,1,3.453-.532,13.145,13.145,0,0,0,8.07-.665Z" transform="translate(-21.73 -61.831)" fill="#c4a19e"/>
            <path d="M196.678,148.248v3.194a.662.662,0,0,1-.455.091l-.22-2.994-2.541-2.412-5.185-.621c.675,1.346,1.27,1.218,1.27,1.218l4.205,1.367a2.017,2.017,0,0,1,1.332,1.424l.322,1.279.6.674a1.394,1.394,0,0,1-.5-.415v.569a1.963,1.963,0,0,1-.259.971l-1.22,2.116a.432.432,0,0,1-.222.061l.686-1.564a2.367,2.367,0,0,0,.086-1.694,1.771,1.771,0,0,0-1.32-1.187l-4.933-1.034c.284.828.8.959.8.959l3.491,1.666a1.352,1.352,0,0,1,.656,1.76l-.18.41.1.217-.374.4a1.86,1.86,0,0,1-1.076.576.7.7,0,0,0-.312-1.057l-4.2-1.615c.415.623.7.674.7.674a21.861,21.861,0,0,0,2.049.908c1.374.544,1.269.959,1.269.959l.075.222a2.908,2.908,0,0,1-.306.294,2.265,2.265,0,0,1-.383.264,1.29,1.29,0,0,1-.448.154,27.336,27.336,0,0,1-3.785-.623l-2.569.8a10.023,10.023,0,0,1-5.484.151l-1.827-.464L155.141,170.5l-1.194-1.867-4.873-7.623,21.469-8.634,5.91-2.644,6.891-4.83a7.291,7.291,0,0,1,4.9-1.284l4.781.474a2.624,2.624,0,0,1,1.858,1.064l1.435,1.976A1.9,1.9,0,0,1,196.678,148.248Z" transform="translate(-21.73 -61.831)" fill="#fff0e2"/>
          </g>
          <g>
            <rect x="127.268" y="113.849" width="64.639" height="3.508" fill="#112133"/>
            <path d="M125.111,117.357h68.953a2.352,2.352,0,0,1,2.352,2.352v1.155a0,0,0,0,1,0,0H122.758a0,0,0,0,1,0,0v-1.155a2.352,2.352,0,0,1,2.352-2.352Z" fill="#213759"/>
            <path d="M228.858,173.676h-95.3a5.911,5.911,0,0,1-4.89-2.614L118.557,158c-.819-1.21.785-3.611,2.231-3.611H241.625c1.446,0,3.05,2.4,2.23,3.611l-10.107,13.067A5.909,5.909,0,0,1,228.858,173.676Z" transform="translate(-21.73 -61.831)" fill="#112133"/>
            <path d="M244.239,159.246l-.453.662-6.792,9.866-2.265,3.292a6.032,6.032,0,0,1-4.971,2.613h-96.88a6.04,6.04,0,0,1-4.971-2.613l-9.51-13.82a1.826,1.826,0,0,1,1.5-2.858H242.736a1.8,1.8,0,0,1,1.325.566A1.819,1.819,0,0,1,244.239,159.246Z" transform="translate(-21.73 -61.831)" fill="#213759"/>
            <polygon points="177.106 94.558 139.112 113.849 119.191 113.849 157.183 94.558 177.106 94.558" fill="#fff" opacity="0.07"/>
            <polygon points="190.7 94.558 152.708 113.849 146.315 113.849 184.309 94.558 190.7 94.558" fill="#fff" opacity="0.07"/>
          </g>
          <g>
            <path d="M234.16,154.3s.431-1.87,3.788-1.726l-.432,1.774Z" transform="translate(-21.73 -61.831)" fill="#c4a19e"/>
            <path d="M243.327,160.641l-7.8,11.329-2.273-.4-2.919-.518-.012,0-.014,0c0-.006.008-.015.014-.021.811-1.116,2.742-1.309,4.321-1.254.316.009.616.029.892.055l-.817-.15-4.059-.739.011-.017.006,0a.084.084,0,0,1,.02-.029c1.079-1.484,3.843-1.531,5.693-1.372a18,18,0,0,1,1.79.244l.063-.092-1.726-.316-5.857-1.068c.037-.054.077-.109.12-.161l.006,0c1.513-1.87,5.44-1.652,7.445-1.4l-5.08-.929a2.859,2.859,0,0,1,.636-.659l0,0c1.689-1.278,4.862-1.142,6.712-.93.863.1,1.438.219,1.438.219l.711-1.047.618-.915Z" transform="translate(-21.73 -61.831)" fill="#09111a"/>
            <path d="M237.63,171.664l-6.72-1.188-.011,0-.015,0c.006-.006.009-.014.015-.02,1.481-2.034,6.688-1,6.688-1l.469-.67.544-.78.555,1.844A1.349,1.349,0,0,1,237.63,171.664Z" transform="translate(-21.73 -61.831)" fill="#fff0e2"/>
            <path d="M238.163,169.337a.775.775,0,0,1-.944.9c-5.052-1.2-6.191.082-6.309.24a.078.078,0,0,0-.014.017l0-.02v-.023c1.481-2.034,6.688-1,6.688-1l.469-.67Z" transform="translate(-21.73 -61.831)" fill="#c4a19e"/>
            <path d="M238.805,169.743l-7.569-1.381.011-.017.006,0a.1.1,0,0,1,.02-.028c1.683-2.316,7.483-1.128,7.483-1.128l.454-.673.682-1,.622,2.131A1.545,1.545,0,0,1,238.805,169.743Z" transform="translate(-21.73 -61.831)" fill="#fff0e2"/>
            <path d="M239.343,167.2a.772.772,0,0,1-.943.9c-5.555-1.347-6.927-.023-7.127.217,1.683-2.316,7.483-1.128,7.483-1.128l.454-.673Z" transform="translate(-21.73 -61.831)" fill="#c4a19e"/>
            <path d="M240.082,167.324l-8.846-1.614c.037-.055.078-.109.121-.161l.006-.006c2.071-2.557,8.662-1.208,8.662-1.208l.56-.826.769-1.133.725,2.491A1.806,1.806,0,0,1,240.082,167.324Z" transform="translate(-21.73 -61.831)" fill="#fff0e2"/>
            <path d="M239.763,165.175c-6.286-1.136-8.038.029-8.4.368,2.071-2.557,8.662-1.208,8.662-1.208l.56-.826.162.607A.856.856,0,0,1,239.763,165.175Z" transform="translate(-21.73 -61.831)" fill="#c4a19e"/>
            <path d="M231.247,168.345l.006,0-.006.009Z" transform="translate(-21.73 -61.831)" fill="#ec685a"/>
            <path d="M242.573,164.833l-8.846-1.617a2.9,2.9,0,0,1,.636-.659l.006,0c2.477-1.873,8.15-.71,8.15-.71l.71-1.047.619-.915.725,2.491A1.809,1.809,0,0,1,242.573,164.833Z" transform="translate(-21.73 -61.831)" fill="#fff0e2"/>
            <path d="M242.084,162.387c-4.884-.843-6.927-.261-7.715.167,2.477-1.873,8.15-.71,8.15-.71l.71-1.047.069.264A1.068,1.068,0,0,1,242.084,162.387Z" transform="translate(-21.73 -61.831)" fill="#c4a19e"/>
          </g>
        </g>
      </g>
    </g>
  </g>
</svg>
