<svg xmlns="http://www.w3.org/2000/svg" xmlns:xlink="http://www.w3.org/1999/xlink" viewBox="0 0 342.023 218.361">
  <defs>
    <clipPath id="clip-path">
      <path d="M337.2,4.926a144.357,144.357,0,0,1,4.809,40.435,171,171,0,0,1-342,0A147.276,147.276,0,0,1,6.1,0" fill="#fff"/>
    </clipPath>
  </defs>
  <title>A3_digital</title>
  <g id="Ebene_2" data-name="Ebene 2">
    <g id="Ebene_1-2" data-name="Ebene 1">
      <g>
        <path d="M337.2,4.926a144.357,144.357,0,0,1,4.809,40.435,171,171,0,0,1-342,0A147.276,147.276,0,0,1,6.1,0" fill="#fff"/>
        <g clip-path="url(#clip-path)">
          <g>
            <g>
              <path d="M202.776,83.476c.474,6.837,5.659,19.076,5.659,19.076l-.607.086c-2.086-1.652-6.092-18.033-6.092-18.033-.768,11,4.625,17.116,4.625,17.116l-29.35-6.741-1.244-14.831c2.882-2.3,20.875-3.3,21.89-7.69a3,3,0,0,0,.648.329c1.305.5,3.468-.735,3.944-2.653s-.238-3.745-1.594-4.081A1.819,1.819,0,0,0,200.3,66a2.9,2.9,0,0,0-.315-.009,1.933,1.933,0,0,0-1.281.446l0,0c-.1.061-.206.131-.3.2.01-.313.014-.623.014-.936s-.007-.646-.016-.966l.086-.047c-.03-.011-.06-.023-.091-.037-.273-6.636-3.124-11.943-7.2-14.584l.756-5.29c12.86,4.772,5.53,5.763,7.964,12.974s9.122,6.083,9.035,13.294S202.417,78.262,202.776,83.476Z" fill="#09111a"/>
              <path d="M211.7,104.466c-.884-2.325-3.6-2.889-5.662-3.257-6.372-1.14-10.621-3.6-12.879-10.342-1.39-4.15-.649-8.118.172-12.318a.259.259,0,0,0-.277-.3q-6.242.759-12.521.971c-.01-.782-.02-1.564-.025-2.345,0-.338-.5-.269-.494.066q.009,1.149.02,2.3l-.5.02a.235.235,0,0,0-.437.1c-.152,2.821-.08,5.651-.311,8.468a13.535,13.535,0,0,1-.759,4.358,8.964,8.964,0,0,1-3.285,3.565c-1.073.75-7.334,3.451-7.334,3.451s6.567,6.517,7.727,6.759c3.428.715,6.927,1.21,10.39,1.7a36.49,36.49,0,0,0,9.446-.085,6.567,6.567,0,0,0,2.328,2.632,15.426,15.426,0,0,0,5.683,1.8c2.516.448,5.034.886,7.55,1.329a.256.256,0,0,0,.31-.178,26.292,26.292,0,0,0,.947-4.739A9.182,9.182,0,0,0,211.7,104.466Z" fill="#c4a19e"/>
              <path d="M211.7,104.466c-.883-2.325-3.6-2.889-5.662-3.257-6.372-1.14-10.621-3.6-12.879-10.342a15.272,15.272,0,0,1-.768-4.547,8.888,8.888,0,0,1-5.735,2.613c-3.35,0-6.187-2.223-7.732-3.741-.028.881-.067,1.761-.139,2.641a13.535,13.535,0,0,1-.759,4.358,8.964,8.964,0,0,1-3.285,3.565c-1.073.75-7.334,3.451-7.334,3.451s6.567,6.517,7.727,6.759c3.428.715,6.927,1.21,10.39,1.7a36.49,36.49,0,0,0,9.446-.085,6.567,6.567,0,0,0,2.328,2.632,15.426,15.426,0,0,0,5.683,1.8c2.516.448,5.034.886,7.55,1.329a.256.256,0,0,0,.31-.178,26.292,26.292,0,0,0,.947-4.739A9.182,9.182,0,0,0,211.7,104.466Z" fill="#fff0e2"/>
              <path d="M206.435,101.588a20.848,20.848,0,0,1-6.667-1.516L168.05,103l-.267.147s7.138,5.885,8.316,6.019c3.48.4,7.009.568,10.5.739a36.551,36.551,0,0,0,9.4-.954,6.566,6.566,0,0,0,2.56,2.406,15.42,15.42,0,0,0,5.824,1.267c2.547.214,5.094.418,7.641.628a.255.255,0,0,0,.292-.206,26.245,26.245,0,0,0,.507-4.806,9.181,9.181,0,0,0-.452-3.933C211.278,102.077,208.516,101.765,206.435,101.588Z" fill="#fff0e2"/>
              <path d="M215.487,109.214a6.769,6.769,0,0,0-.016-.816,2.422,2.422,0,0,0-.1-.526c-.19-.558-.622-.884-1.5-1.305a15.787,15.787,0,0,0-6.769-1.237h-.063c-.889-.011-1.779.015-2.653.031a25.272,25.272,0,0,1-7.811-.61c-2.769-.827-14.649-2.08-17.844-2.653-3.437-.616-9.248-1.932-12.133-2.427a7.55,7.55,0,0,0-2.889,0,5.066,5.066,0,0,0-2.78,1.69,8.123,8.123,0,0,0-1.558,5.179c-.01.179-.01.358-.01.537-.016.948.021,1.879.031,2.727a52.819,52.819,0,0,0-.442,11.353l.032.522c.205,3.595.6,7.195.879,10.78a17.918,17.918,0,0,1,.037,2.847c-.011.127-.022.253-.037.379-.006.053-.011.1-.021.153-.437,3.284-1.922,5.7-.69,8.985a5.148,5.148,0,0,0,.2.479,1,1,0,0,0,.069.163c.315-.316.357,3.179.11,5.369a12.294,12.294,0,0,0,.258,4.332,5.094,5.094,0,0,0,.163.569,6.291,6.291,0,0,0,1.153,2.153c.5,2,2.195,2.458,3.948,2.626.442.047.889.074,1.321.1.021,0,.042,0,.063,0,2.258.148,4.064.974,6.327.443,1.463-.348,2.932-.706,4.4-1.069h.006c.636-.153,1.279-.311,1.915-.468,1.243-.3,4.343-1.485,5.491-1.027,1.658.658,3.716.526,5.463.979a44.743,44.743,0,0,0,4.411,1.348,13.125,13.125,0,0,0,3.9-.164h0c.368-.057.731-.115,1.095-.168a46.826,46.826,0,0,1,5.942-.421c1.416-.021,4.743-.421,6.722-.3a5.21,5.21,0,0,1,.927.126c.531.132,1.137-.7,1.61-1.963a14.025,14.025,0,0,0,.848-4.869c0-.095,0-.184-.006-.274s0-.158,0-.231c-.021-.5-.031-.979-.026-1.469.01-1.9-1.2-4.29-1.448-6.264-.094-.768-.168-1.463-.221-2.1-.016-.184-.026-.368-.037-.542-.263-4.043.374-5.616.979-9.654.027-.168.048-.347.079-.531.085-.611.169-1.279.248-2.016a86.31,86.31,0,0,0,.289-10.628c0-.179,0-.352,0-.531-.01-1.311-.021-2.622,0-3.932C215.366,113,215.424,111.109,215.487,109.214Z" fill="#56739e"/>
              <path d="M167.424,138.612c-.011-1.153-.037-2.3-.09-3.443,0-.173-.015-.347-.026-.521a102.8,102.8,0,0,0-1.39-12.564c-.026-.174-.057-.353-.094-.527q-.2-1.145-.427-2.3c-.7-3.547-1.458-7.095-1.863-10.7-.026-.236-.053-.479-.074-.715-.015-.179-.031-.353-.047-.532-.121-1.437-.168-2.869-.179-4.316a4.771,4.771,0,0,0-.489-2.464c.294-.126.6-.247.921-.352a.283.283,0,0,0,.037-.511.263.263,0,0,0-.169,0,11.762,11.762,0,0,0-6.5,5.664c-.131.247-.258.5-.379.747-.079.163-.152.327-.226.5q-.206.458-.379.932c-1.621,4.379-3.832,9.027-4.042,13.617-.011.174-.016.342-.016.51v.011a37.13,37.13,0,0,1-1.079,8.711,34.61,34.61,0,0,0-.732,3.969c-.026.174-.047.348-.068.527-.127.958-.237,1.926-.358,2.9a47.311,47.311,0,0,0-.258,6.585c0,.153,0,.311,0,.463,0,.4,0,.785.011,1.179.015,1.3.036,2.595-.027,3.9-.084,1.6.458,2.848-.279,4.254a7.209,7.209,0,0,0-.763,2.5c-.026.168-.042.337-.058.511-.216,2.679.5,5.563-.189,8.153-.016,0-.032,0-.053-.01a3.1,3.1,0,0,0-1.642-.079,1.521,1.521,0,0,0-.885.894,5.167,5.167,0,0,0,.042,2.58,6.384,6.384,0,0,1-.052,3.542c-1,3.127,4.485,3.816,6.206,3.916,1.21.074,2.426.142,3.642.216q3.767.22,7.543.448a.269.269,0,0,0,.269-.258q.378-2.811.563-5.638c.016-.174.026-.347.031-.526.027-.348.048-.7.064-1.048.163-.468.326-.942.484-1.416a.217.217,0,0,0,.052-.147c.043-.132.09-.263.137-.395a51.111,51.111,0,0,0,1.769-6.769q.213-1.121.347-2.258c.163-1.353.506-3.274.858-5.29.032-.184.063-.374.095-.558.379-2.169.747-4.4.9-6.106.016-.168.032-.337.037-.495.016-.189.026-.368.032-.537C168.75,142.054,167.456,141.928,167.424,138.612Z" fill="#5576a6"/>
              <path d="M197.465,160.08s17.031,11.3,17.95,11.786,5.933-1.73,4.656-5.111c-1.2-3.188.823-8.113.823-8.113l-13.679-1.549Z" fill="#56739e"/>
              <path d="M226.925,145.686c-.079-.289-.158-.584-.237-.873-.048-.185-.1-.374-.153-.564-.526-1.889-1.079-3.79-1.468-5.711-.5-2.458-.306-4.748-.611-7.085-.016-.163-.042-.321-.068-.484a12.178,12.178,0,0,0-.816-2.89c-1.174-2.753-2.743-5.148-3.522-7.964-.052-.184-.1-.368-.142-.558-.052-.216-.095-.437-.137-.658a49.839,49.839,0,0,0-2.089-7.885,12.24,12.24,0,0,0-1.3-2.789,3.541,3.541,0,0,0-.369-.474,3.171,3.171,0,0,0-.784-.674,15.181,15.181,0,0,0-8.133-1.747h-.063c-.337.01-.489,1.737-.152,1.726a33.8,33.8,0,0,1,3.937.079,8.238,8.238,0,0,1-.869,1.7c-.131.2-.273.395-.416.59-1.679,2.242-4.058,3.969-4.595,6.985a18.6,18.6,0,0,0-.252,2.295c-.011.174-.016.347-.021.526-.037,1.185-.006,2.369.01,3.543.042,2.489.084,4.974.142,7.464.011.547.026,1.089.042,1.637.006.173.006.347.016.526.084,3.195.211,6.39.405,9.58.011.179.027.358.037.537.058.963.132,1.926.2,2.89.179,2.189.379,4.379.658,6.563.016.143.032.279.053.421a.424.424,0,0,0,.016.085c.284,1.91,1.79,2.353,3.421,3.195a3.6,3.6,0,0,1,1.5,1.863c.327.727.595,1.532.937,2.232a3.027,3.027,0,0,0,1.506,1.642,33.148,33.148,0,0,0,6.148,1.732,5.714,5.714,0,0,0,2.863-.068c1.553-.695,3.49-3.853,4.595-5.112a3.715,3.715,0,0,0,.658-2.094c.016-.185.026-.369.032-.558.052-1.253-.048-2.606.084-3.49C228.283,149.776,227.435,147.639,226.925,145.686Z" fill="#4f6a91"/>
              <path d="M177.155,160,164.6,167.383s-1.891-2.645-1.231-3.07,1.8-5.589,3.349-5.959S177.155,160,177.155,160Z" fill="#56739e"/>
              <g>
                <path d="M164.339,160.205a.252.252,0,0,1-.1-.02,5.069,5.069,0,0,1-2.539-2.925c-.825-2.228-.369-5.2,1.682-10.963,1.609-4.521.3-8.355-.478-10.646a13.451,13.451,0,0,1-.461-1.514c-.214-1.049.174-4.687.55-8.206a44.685,44.685,0,0,0,.454-5.876,80.833,80.833,0,0,0-8.3-5.058.263.263,0,0,1,.258-.459c1.347.759,8.091,4.577,8.5,5.262.209.352.059,1.977-.39,6.187-.354,3.317-.756,7.076-.559,8.045a13.638,13.638,0,0,0,.444,1.449c.8,2.356,2.146,6.3.476,10.992-1.979,5.561-2.451,8.534-1.685,10.6a4.607,4.607,0,0,0,2.246,2.622.263.263,0,0,1-.1.506Z" fill="#17253d"/>
                <path d="M181.423,157.249a.255.255,0,0,1-.072-.01,81.3,81.3,0,0,1-9.6-3.332,11.177,11.177,0,0,1-3.343-2.247.263.263,0,0,1,.408-.333,11.123,11.123,0,0,0,3.174,2.111,82.891,82.891,0,0,0,9.5,3.3.263.263,0,0,1-.073.516Z" fill="#17253d"/>
                <path d="M183.177,157.257a.261.261,0,0,1-.154-.051l-6.648-4.853a.263.263,0,0,1,.311-.425l6.647,4.853a.263.263,0,0,1-.156.476Z" fill="#17253d"/>
                <path d="M193.7,158.792a.263.263,0,0,1-.077-.515c.056-.017,5.642-1.739,8.5-2.937,2.8-1.176,5.5-4.769,5.526-4.805a.263.263,0,0,1,.422.314c-.113.152-2.812,3.745-5.744,4.976-2.879,1.209-8.49,2.938-8.547,2.955A.258.258,0,0,1,193.7,158.792Z" fill="#17253d"/>
                <path d="M213.042,127.553a.263.263,0,0,1-.159-.473l5.9-4.45a.263.263,0,1,1,.317.42l-5.9,4.45A.261.261,0,0,1,213.042,127.553Z" fill="#17253d"/>
                <path d="M162.517,167.92a.245.245,0,0,1-.046,0c-1.275-.226-12.476-2.21-12.917-2.344a.263.263,0,0,1,.153-.5c.337.1,7.873,1.448,12.856,2.33a.263.263,0,0,1-.046.522Z" fill="#17253d"/>
                <path d="M152.942,170.992h-.017l-5.876-.376a.263.263,0,0,1-.246-.279.266.266,0,0,1,.279-.246l5.877.376a.263.263,0,0,1-.017.525Z" fill="#17253d"/>
                <path d="M161.8,172.521h0l-10.787-.045a.264.264,0,0,1,0-.527h0l10.787.045a.264.264,0,0,1,0,.527Z" fill="#17253d"/>
                <path d="M211.974,152.288a.26.26,0,0,1-.19-.081.263.263,0,0,1,.007-.372,11.326,11.326,0,0,1,7.428-2.763h.048a14.353,14.353,0,0,1,7.418,1.917.262.262,0,0,1,.075.364.265.265,0,0,1-.365.075,14.11,14.11,0,0,0-7.13-1.829,11.072,11.072,0,0,0-7.109,2.616A.262.262,0,0,1,211.974,152.288Z" fill="#17253d"/>
                <path d="M211.985,149.569a.251.251,0,0,1-.076-.012.263.263,0,0,1-.176-.328c.041-.137.52-1.393,4.468-3.044,3.872-1.618,4.669-1.668,4.751-1.668h0a.264.264,0,0,1,0,.527h0a21.632,21.632,0,0,0-4.547,1.627c-3.729,1.559-4.164,2.7-4.167,2.71A.264.264,0,0,1,211.985,149.569Z" fill="#17253d"/>
                <path d="M211.659,157.883a.261.261,0,0,1-.232-.139c-.059-.11-1.449-2.713-1.236-3.956a49.211,49.211,0,0,0,.1-8.64c-.279-4.622.45-7.409,1.111-8.933.76-1.755.025-9.006.018-9.079l-.011-.1,5.75-7.953a.263.263,0,1,1,.427.308l-5.633,7.791c.092.928.7,7.459-.068,9.243-.638,1.471-1.341,4.173-1.069,8.691a49.6,49.6,0,0,1-.108,8.761c-.151.884.8,2.912,1.181,3.618a.263.263,0,0,1-.231.388Z" fill="#17253d"/>
                <path d="M162.534,163.681a.243.243,0,0,1-.108-.024.259.259,0,0,1-.133-.339c.035-.082.414-.843,2.856-2.33s10.277-3.678,10.609-3.77a.263.263,0,1,1,.141.506c-.08.023-8.095,2.263-10.476,3.714-2.28,1.388-2.646,2.088-2.65,2.094A.268.268,0,0,1,162.534,163.681Z" fill="#17253d"/>
                <path d="M209.64,159.735a.27.27,0,0,1-.063-.007s-1.642-.4-3.808-.892a26.881,26.881,0,0,0-6.361-.022.263.263,0,0,1-.057-.523,26.757,26.757,0,0,1,6.534.031c2.172.492,3.817.894,3.817.894a.263.263,0,0,1-.062.519Z" fill="#17253d"/>
              </g>
              <path d="M190.354,49.417c-19.116-6.517-26.878,25.442-26.878,25.442a52.456,52.456,0,0,1-5.133-6.377c-1.295-2.072-2.063-5.717.55-11.507a39.432,39.432,0,0,1,3.963-6.694c.142-.2.289-.4.434-.6,5.1-6.851,12.622-12.633,19.615-13.263a13.14,13.14,0,0,1,1.608-.054A11.615,11.615,0,0,1,190.7,38.3C199.389,44.029,190.6,49.5,190.354,49.417Z" fill="#17253d"/>
              <path d="M184.513,36.366c-2.581,8.174-15.453,19.282-25.62,20.609a39.432,39.432,0,0,1,3.963-6.694c.142-.2.289-.4.434-.6,7.843-2.408,15.982-7.945,19.615-13.263A13.14,13.14,0,0,1,184.513,36.366Z" fill="#28497c"/>
              <path d="M198.41,65.708c0,.313,0,.623-.014.936v.023a29.611,29.611,0,0,1-.735,5.773l0,.019c-1.015,4.389-3.036,8.184-5.918,10.482a10.392,10.392,0,0,1-6.606,2.343c-6.742,0-10.986-5.619-12.568-12.848a30.713,30.713,0,0,1-.691-5.729c-.012-.331-.016-.665-.016-1,0-10.144,5.943-17.461,13.275-17.461a11.042,11.042,0,0,1,6.058,1.827c3.491,2.263,6.085,6.485,6.928,11.824a24.139,24.139,0,0,1,.27,2.76c0,.028,0,.056,0,.084C198.4,65.062,198.41,65.384,198.41,65.708Z" fill="#fff0e2"/>
              <path d="M195.266,62.589l-6.885.611c-.312.028-.4-.153-.141-.285a10.135,10.135,0,0,1,7.345-.685C195.845,62.306,195.622,62.557,195.266,62.589Z" fill="#17253d"/>
              <ellipse cx="179.808" cy="67.654" rx="1.65" ry="0.963" fill="#17253d"/>
              <path d="M184.723,78.4a8.745,8.745,0,0,1-3.975-1.617.174.174,0,0,1-.02-.259.211.211,0,0,1,.281-.013,8.082,8.082,0,0,0,7.646,1.059.211.211,0,0,1,.263.1.175.175,0,0,1-.1.241A8.076,8.076,0,0,1,184.723,78.4Z" fill="#c4a19e"/>
              <path d="M175.211,62.479l5.874.444c.266.02.347-.151.125-.269a7.915,7.915,0,0,0-6.265-.5C174.721,62.225,174.907,62.456,175.211,62.479Z" fill="#17253d"/>
              <g>
                <path d="M172.532,72.436a3.1,3.1,0,0,1-.686.352c-1.307.5-3.468-.735-3.944-2.653s.238-3.745,1.592-4.081a2.849,2.849,0,0,1,2.347.653A30.713,30.713,0,0,0,172.532,72.436Z" fill="none" stroke="#1a1a1a" stroke-miterlimit="10" stroke-width="0.233"/>
                <path d="M168.8,68.029s1.7-1,2.389.619c0,0-1.953,1.185-1.264,2.536" fill="none" stroke="#1a1a1a" stroke-miterlimit="10" stroke-width="0.233"/>
              </g>
              <g>
                <path d="M202.249,70.135c-.476,1.918-2.639,3.148-3.944,2.653a3.057,3.057,0,0,1-.676-.348.373.373,0,0,0,.009-.046c.187-.805.338-1.631.45-2.471.033-.208.059-.418.082-.631.093-.791.156-1.6.184-2.405,0-.073.007-.147.01-.22a3.869,3.869,0,0,1,.336-.226l0,0A2.849,2.849,0,0,1,200.3,66a1.819,1.819,0,0,1,.357.052C202.011,66.39,202.723,68.217,202.249,70.135Z" fill="#c4a19e" stroke="#325386" stroke-miterlimit="10" stroke-width="0.221"/>
                <path d="M200.228,71.3a.124.124,0,0,1-.053-.012.116.116,0,0,1-.05-.157c.631-1.239-1.2-2.372-1.221-2.384l-.087-.052.04-.093a1.534,1.534,0,0,1,.92-.924,2.249,2.249,0,0,1,1.636.25.117.117,0,0,1-.118.2,2.056,2.056,0,0,0-1.447-.229,1.269,1.269,0,0,0-.736.7c.382.26,1.862,1.374,1.22,2.632A.115.115,0,0,1,200.228,71.3Z" fill="#c4a19e" stroke="#212741" stroke-miterlimit="10" stroke-width="0.221"/>
              </g>
              <path d="M159.411,71.973a32.938,32.938,0,0,1,1.228-6.242c7.637-4.138,15-14.463,15.858-21.389q.48-.192.966-.357l.014.072C178.98,52.612,169.184,70.582,159.411,71.973Z" fill="#2c3149"/>
              <path d="M190.787,54.545s-7.976-3.855-16.272,6.307c2.644-5.4,7.517-7.752,10.884-9,4.319-1.6,5.253,2.03,5.374,2.615Z" fill="#c4a19e"/>
              <path d="M198.41,65.708c0,.313,0,.623-.014.936v.023a29.611,29.611,0,0,1-.735,5.773l0,.019c-1.015,4.389-3.036,8.184-5.918,10.482A21.66,21.66,0,0,0,197,66.07c-1.71-1.4-4.434-7-4.434-7l5.552,2.829a24.139,24.139,0,0,1,.27,2.76c0,.028,0,.056,0,.084C198.4,65.062,198.41,65.384,198.41,65.708Z" fill="#c4a19e"/>
              <path d="M190.7,53.9l1.089-4.045c4.075,2.641,7.454,9.452,7.727,16.088C193,63.374,190.7,53.9,190.7,53.9Z" fill="#17253d"/>
              <path d="M187.3,72.714a3.225,3.225,0,0,1-1.358,1.305c-.758.333-1.482.035-1.882-.937l.772-.34c.187.455.393.54.742.386a2.463,2.463,0,0,0,.992-.967Z" fill="#c4a19e"/>
              <ellipse cx="191.138" cy="67.654" rx="1.65" ry="0.963" fill="#17253d"/>
              <ellipse cx="179.293" cy="67.129" rx="2.165" ry="0.601" fill="#17253d"/>
              <ellipse cx="191.653" cy="67.129" rx="2.165" ry="0.601" fill="#17253d"/>
              <g>
                <path d="M200.5,99.205s-2.489,7-13.379,8.09" fill="none" stroke="#1a1a1a" stroke-linecap="round" stroke-miterlimit="10" stroke-width="0.233"/>
                <path d="M186.075,108.772c-4.353,0-10.444-11.942-10.7-12.454a.179.179,0,0,1,.1-.246.214.214,0,0,1,.272.091c.062.123,6.238,12.237,10.326,12.237h.06c3.992-.119,10.464-11.609,10.529-11.725a.215.215,0,0,1,.276-.081.177.177,0,0,1,.09.249c-.27.482-6.649,11.8-10.881,11.929Z" fill="#17253d"/>
                <path d="M185.751,105.564a4.558,4.558,0,0,1-1.031-.115c-4.275-1-8.656-7.879-8.841-8.171a.177.177,0,0,1,.077-.254.216.216,0,0,1,.28.069c.044.07,4.479,7.034,8.586,7.995,4.068.953,9.737-5.013,9.793-5.073a.22.22,0,0,1,.29-.021.175.175,0,0,1,.023.262C194.708,100.49,189.884,105.564,185.751,105.564Z" fill="#122133"/>
                <path d="M186.7,108.586a1.076,1.076,0,1,1-1.042-.809A.947.947,0,0,1,186.7,108.586Z" fill="#fff"/>
                <path d="M189.58,107.378a.681.681,0,1,1-.681-.7A.689.689,0,0,1,189.58,107.378Z" fill="#fff"/>
                <path d="M190.26,104.077a.681.681,0,1,1-.68-.7A.688.688,0,0,1,190.26,104.077Z" fill="#fff"/>
                <path d="M182.861,105.983a.681.681,0,1,1-.68-.7A.688.688,0,0,1,182.861,105.983Z" fill="#fff"/>
              </g>
              <g>
                <path d="M190.787,54.545l-.014-.08c-.121-.585-1.055-4.214-5.374-2.615-3.367,1.25-8.24,3.6-10.884,9a19.484,19.484,0,0,0-1.859,7.89c-.416,10.475,6.326,7.259,4.576,18.731-1.2,7.882,3.418,10.029,6.221,10.424a.525.525,0,0,1,.114,1.012l-2.858,1.076a14.892,14.892,0,0,1,3.126.9,2.543,2.543,0,0,1,.955,3.276c-1.3,3.389-10.251,1.65-10.251,1.65l1.015-1.178a.893.893,0,0,0-.535-1.466,10.2,10.2,0,0,1-6.127-3.351c-2.086-2.606,1.215-8.862.781-11.294s-3.218-4.867-7.908-8.256a6.531,6.531,0,0,1-2.284-3.8,19.882,19.882,0,0,1-.07-4.489c.758-8.546,6.013-18.279,8.958-21.861a20.773,20.773,0,0,1,9.094-6.127c3.743-1.277,7.738-1.386,10.89.478C194.523,48.116,190.787,54.545,190.787,54.545Z" fill="#28497c"/>
                <path d="M159.527,72.131a32.935,32.935,0,0,1,1.227-6.242c7.638-4.138,15-14.463,15.858-21.389q.48-.194.967-.357l.014.072C179.1,52.77,169.3,70.74,159.527,72.131Z" fill="#647bb8"/>
                <path d="M189.135,107.632c-.086,6.428-15.378,4.082-15.378,4.082l.989,1.282a.95.95,0,0,1-.938,1.513c-3.292-.672-9.024-3.151-9.607-12.265-.7-10.862,6.6-10.948-1.653-19.2a11.222,11.222,0,0,1-3.066-6.581,6.527,6.527,0,0,0,2.284,3.8c4.691,3.386,7.475,5.821,7.909,8.253s-2.87,8.688-.782,11.3a10.215,10.215,0,0,0,6.127,3.351.894.894,0,0,1,.536,1.466l-1.017,1.177s8.95,1.74,10.252-1.65a2.547,2.547,0,0,0-.954-3.277C186.257,101.865,189.189,103.843,189.135,107.632Z" fill="#17253d"/>
              </g>
            </g>
            <rect x="39.688" y="167.347" width="275.417" height="51.014" fill="#ececec"/>
            <g>
              <g>
                <path d="M100.507,151.454l.008.031a.447.447,0,0,1-.153.071l-.766.193.238.945-.2.052a.837.837,0,0,1-1.014-.607l-.049-.2Z" fill="#efcec5"/>
                <g>
                  <path d="M93.585,127.842l5.593,22.212-1.107.279-5.653-22.451A2.843,2.843,0,0,0,93.585,127.842Z" fill="#5978a6"/>
                  <path d="M92.818,124.8l.767,3.044a2.843,2.843,0,0,1-1.167.04l-.109-.432.057-2.555.249-.05Z" fill="#fff0e2"/>
                  <path d="M92.405,123.154l.413,1.644-.2.047-.249.05Z" fill="#2c3149"/>
                  <path d="M94.566,127.394l5.64,22.4-1.028.259-5.593-22.212.02,0A2.863,2.863,0,0,0,94.566,127.394Z" fill="#213759"/>
                  <path d="M94.444,126.912l.122.482a2.863,2.863,0,0,1-.961.443l-.02,0-.767-3.044c.04-.009.08-.02.12-.03.114-.029.228-.059.34-.092Z" fill="#c4a19e"/>
                  <path d="M93.278,124.676c-.112.033-.226.063-.34.092-.04.01-.08.021-.12.03l-.413-1.644,0-.144Z" fill="#030205"/>
                </g>
                <path d="M100.507,151.454l.008.031a.447.447,0,0,1-.153.071l-1.594.4a.445.445,0,0,1-.2,0,.453.453,0,0,1-.358-.336l-.266-1.056a.456.456,0,0,1,.33-.553l.829-.208.472,1.877Z" fill="#2c3149"/>
                <path d="M100.515,151.485l.041.166a.835.835,0,0,1-.606,1.014l-.116.029-.238-.945.766-.193A.447.447,0,0,0,100.515,151.485Z" fill="#e2beb5"/>
                <path d="M99.874,149.617l-.766.193.472,1.877.016.062.766-.193a.447.447,0,0,0,.153-.071.455.455,0,0,0,.178-.482l-.266-1.056A.457.457,0,0,0,99.874,149.617Z" fill="#191e30"/>
              </g>
              <g>
                <path d="M99.6,153.367l.01.03a.447.447,0,0,1-.146.083l-.749.253.312.923-.2.067a.836.836,0,0,1-1.059-.524l-.064-.192Z" fill="#efcec5"/>
                <g>
                  <path d="M90.835,130.377l7.332,21.7-1.081.366-7.411-21.934A2.846,2.846,0,0,0,90.835,130.377Z" fill="#5978a6"/>
                  <path d="M89.83,127.4l1,2.975a2.846,2.846,0,0,1-1.16.131l-.143-.422-.145-2.551c.081-.022.162-.046.244-.07Z" fill="#fdefe7"/>
                  <path d="M89.288,125.8l.542,1.605-.2.063c-.082.024-.163.048-.244.07Z" fill="#2c3149"/>
                  <path d="M91.777,129.852l7.395,21.885-1,.339-7.332-21.7.02-.007A2.87,2.87,0,0,0,91.777,129.852Z" fill="#213759"/>
                  <path d="M91.618,129.381l.159.471a2.87,2.87,0,0,1-.922.518l-.02.007-1-2.975.117-.039c.112-.037.222-.077.331-.118Z" fill="#c4a19e"/>
                  <path d="M90.278,127.245c-.109.041-.219.081-.331.118l-.117.039-.542-1.605-.009-.145Z" fill="#030205"/>
                </g>
                <path d="M99.6,153.367l.01.03a.447.447,0,0,1-.146.083l-1.558.526a.431.431,0,0,1-.193.021.452.452,0,0,1-.384-.306l-.349-1.032a.456.456,0,0,1,.286-.577l.809-.273.62,1.834Z" fill="#2c3149"/>
                <path d="M99.613,153.4l.055.162a.835.835,0,0,1-.524,1.059l-.114.038-.312-.923.749-.253A.447.447,0,0,0,99.613,153.4Z" fill="#e2beb5"/>
                <path d="M98.827,151.586l-.749.253.62,1.834.02.06.749-.253a.447.447,0,0,0,.146-.083.453.453,0,0,0,.14-.494l-.349-1.032A.455.455,0,0,0,98.827,151.586Z" fill="#191e30"/>
              </g>
              <g>
                <path d="M94.011,154.782,94,154.81a.441.441,0,0,1-.159-.054l-.689-.389-.479.849-.183-.1a.835.835,0,0,1-.315-1.138l.1-.177Z" fill="#efcec5"/>
                <g>
                  <path d="M105.283,132.911,94.014,152.852l-.994-.562,11.391-20.155A2.859,2.859,0,0,0,105.283,132.911Z" fill="#5978a6"/>
                  <path d="M106.828,130.177l-1.545,2.734a2.859,2.859,0,0,1-.872-.776l.219-.389,1.8-1.81c.071.046.143.09.216.136Z" fill="#fdefe7"/>
                  <path d="M107.662,128.7l-.834,1.475-.179-.1c-.073-.046-.145-.09-.216-.136Z" fill="#2c3149"/>
                  <path d="M106.3,133.263l-11.365,20.11-.923-.521,11.269-19.941.019.01A2.884,2.884,0,0,0,106.3,133.263Z" fill="#213759"/>
                  <path d="M106.547,132.83l-.245.433a2.884,2.884,0,0,1-1-.342l-.019-.01,1.545-2.734c.035.021.071.041.107.061q.154.089.309.168Z" fill="#c4a19e"/>
                  <path d="M107.244,130.406q-.154-.079-.309-.168c-.036-.02-.072-.04-.107-.061l.834-1.475.1-.1Z" fill="#030205"/>
                </g>
                <path d="M94.011,154.782,94,154.81a.441.441,0,0,1-.159-.054l-1.432-.809a.425.425,0,0,1-.145-.13.455.455,0,0,1-.028-.49l.536-.948a.457.457,0,0,1,.621-.173l.743.421-.952,1.685Z" fill="#2c3149"/>
                <path d="M94,154.81l-.084.148a.836.836,0,0,1-1.139.317l-.1-.059.479-.849.689.389A.441.441,0,0,0,94,154.81Z" fill="#e2beb5"/>
                <path d="M94.819,153.015l-.688-.388-.952,1.685-.032.055.689.389a.441.441,0,0,0,.159.054.453.453,0,0,0,.461-.226l.536-.948A.457.457,0,0,0,94.819,153.015Z" fill="#191e30"/>
              </g>
              <g>
                <path d="M98.678,127.225l0-.032a.449.449,0,0,1,.168-.012l.785.091.113-.968.208.024a.834.834,0,0,1,.732.926l-.023.2Z" fill="#efcec5"/>
                <g>
                  <path d="M96.781,151.757l2.643-22.752,1.134.132-2.672,23A2.84,2.84,0,0,0,96.781,151.757Z" fill="#5978a6"/>
                  <path d="M96.419,154.876l.362-3.119a2.84,2.84,0,0,1,1.1.377l-.051.442-.959,2.369c-.083-.015-.167-.028-.251-.041Z" fill="#fdefe7"/>
                  <path d="M96.223,156.559l.2-1.683.206.028c.084.013.168.026.251.041Z" fill="#2c3149"/>
                  <path d="M95.705,151.829l2.666-22.946,1.053.122-2.643,22.752-.021,0A2.841,2.841,0,0,0,95.705,151.829Z" fill="#405a85"/>
                  <path d="M95.648,152.322l.057-.493a2.841,2.841,0,0,1,1.055-.075l.021,0-.362,3.119c-.04-.006-.081-.01-.122-.015-.118-.014-.235-.026-.351-.035Z" fill="#f7ad83"/>
                  <path d="M95.946,154.826c.116.009.233.021.351.035.041.005.082.009.122.015l-.2,1.683-.054.134Z" fill="#030205"/>
                </g>
                <path d="M98.678,127.225l0-.032a.449.449,0,0,1,.168-.012l1.633.189a.434.434,0,0,1,.184.064.454.454,0,0,1,.216.441l-.125,1.082a.456.456,0,0,1-.505.4l-.849-.1.224-1.923Z" fill="#2c3149"/>
                <path d="M98.681,127.193l.02-.169a.836.836,0,0,1,.927-.734l.119.014-.113.968-.785-.091A.449.449,0,0,0,98.681,127.193Z" fill="#fff0e2"/>
                <path d="M98.618,129.167l.785.091.224-1.923.007-.063-.785-.091a.456.456,0,0,0-.505.4l-.126,1.082A.456.456,0,0,0,98.618,129.167Z" fill="#191e30"/>
              </g>
              <polygon points="104.815 136.405 102.96 153.286 102.563 156.907 91.753 156.907 89.5 136.405 104.815 136.405" fill="#e2e7f5"/>
              <path d="M102.96,153.286l-.4,3.621H91.753l-2.253-20.5h3.44C93.127,141.6,94.434,154.752,102.96,153.286Z" fill="#2c3149" opacity="0.2"/>
            </g>
            <path d="M25.479,157.356h294.2a3.4,3.4,0,0,1,3.4,3.4v3.81a3.4,3.4,0,0,1-3.4,3.4H25.476a3.4,3.4,0,0,1-3.4-3.4v-3.81a3.4,3.4,0,0,1,3.4-3.4Z" fill="#f5f5f5"/>
            <g>
              <g>
                <path d="M284.631,131.079l-.013.254h-2.236l.014-.254a2.934,2.934,0,0,0-2.929-3.1H281.7A2.934,2.934,0,0,1,284.631,131.079Z" fill="#2d425e"/>
                <path d="M282.4,131.079l-.014.254H266.225l-.013-.254a2.934,2.934,0,0,1,2.929-3.1h10.326A2.934,2.934,0,0,1,282.4,131.079Z" fill="#325386"/>
                <path d="M284.618,131.333l-.127,2.236-.218,3.8-.875,15.417-.211,3.706a1.048,1.048,0,0,1-1.046.986H268.7a1.048,1.048,0,0,1-1.046-.986l-.047-.8h12.3a1.044,1.044,0,0,0,1.042-.988l.212-3.7.874-15.416.218-3.8.027-.449Z" fill="#2c3149" opacity="0.3"/>
                <path d="M282.282,131.333l-.027.449-.218,3.8L281.163,151l-.212,3.7a1.044,1.044,0,0,1-1.042.988h-12.3l-.164-2.905-.875-15.417-.218-3.8-.127-2.236Z" fill="#fffcf7"/>
                <polygon points="284.273 137.366 283.398 152.783 281.062 152.783 281.163 150.996 281.937 137.366 284.273 137.366" fill="#476594"/>
                <polygon points="281.937 137.366 281.163 150.996 281.062 152.783 267.445 152.783 266.57 137.366 281.937 137.366" fill="#bac4df"/>
                <path d="M286.816,132.117a1.122,1.122,0,0,1-1.116,1.117H265.592a1.119,1.119,0,0,1-1.12-1.117,1.123,1.123,0,0,1,1.12-1.119H285.7A1.118,1.118,0,0,1,286.816,132.117Z" fill="#3b629e"/>
                <circle cx="275.31" cy="144.517" r="4.022" fill="#fefffd"/>
              </g>
              <path d="M276.529,126.291a6.784,6.784,0,0,1-5.083-6.831c0-5.72,7.943-2.86,6.831-12.233,0,0,3.018,5.56-1.748,10.008S276.529,126.291,276.529,126.291Z" fill="#f2f2f2"/>
              <path d="M278.857,127.18a3.706,3.706,0,0,0,3.21-3.3c.641-3.177-3.5-2.359-1.913-7.458a5.355,5.355,0,0,0-.282,5.729C281.665,125.083,278.857,127.18,278.857,127.18Z" fill="#f2f2f2"/>
            </g>
            <g>
              <path d="M53.565,111.162a8.47,8.47,0,0,0-6.031-4.7c-4.167-.853-1.974-6.724-4.935-9.072s-3.289.747-6.8-3.628-3.728-7.472-6.47-9.5c0,0,6.908.533,9.759,5.55a13.962,13.962,0,0,1,7.895,3.095c3.509,2.988,5.154,1.921,6.8,2.775.646.335,1.275.72,1.8,1.063a.667.667,0,0,1-.228,1.213c-1.273.3-2.951.941-3.656,2.313a34.172,34.172,0,0,1,4.409-.871,1.967,1.967,0,0,1,1.848.881l1.09,1.7,3.509,7.684-4.715,3.843Z" fill="#28497c"/>
              <path d="M57.183,151.781a.252.252,0,0,1-.253-.219c-.081-.652-.178-3.308-.3-6.67-.258-7.057-.648-17.722-1.256-20.034a42.129,42.129,0,0,1-.7-5.074c-.531-5.055-1.335-12.7-3.97-17.769-3.05-5.873-9.254-9.126-12.587-10.874-.8-.42-1.433-.752-1.881-1.038a20.859,20.859,0,0,1-3.8-3.028.242.242,0,0,1,.018-.35.259.259,0,0,1,.36.017,20.828,20.828,0,0,0,3.7,2.946c.43.274,1.086.618,1.844,1.016,3.383,1.773,9.678,5.074,12.8,11.087,2.677,5.156,3.487,12.851,4.022,17.943a42.011,42.011,0,0,0,.685,5c.621,2.364,1.012,13.061,1.271,20.139.123,3.351.22,6,.3,6.629a.25.25,0,0,1-.223.276Z" fill="#647bb8"/>
              <path d="M51.264,126.685s-1.684-1.751,1.293-5.349,1.673-4.549,1.673-4.549l-8.96-8.461a1.864,1.864,0,0,0-2.706.158A5.949,5.949,0,0,0,41,112.515a18.069,18.069,0,0,1,.07-4.873,1.123,1.123,0,0,0-1.069-1.3,5.337,5.337,0,0,1-2.855-.93,6.793,6.793,0,0,0-1.834-.949,1.18,1.18,0,0,0-1.547.946l-.3,2.318-.8-3.218a.851.851,0,0,0-1.16-.567,2.59,2.59,0,0,1-.711.2,1.169,1.169,0,0,0-1,1.383l.136.691s-2.777-2.2-3.087-3.772a18.459,18.459,0,0,0,1.513,4.283c.786,1.157-.47,2.152.9,2.875s3.242.591,3.7,2.353a7.036,7.036,0,0,0,.9,2.33s6.881,2.63,9.115,5.474,8.476,7.331,8.476,7.331" fill="#28497c"/>
              <path d="M58.534,150.98a.254.254,0,0,1-.249-.2,175.686,175.686,0,0,0-7.575-24.058c-4.242-10.692-7.16-11.96-12.459-14.261-1.078-.468-2.3-1-3.638-1.656a27.15,27.15,0,0,1-5.39-3.763.244.244,0,0,1-.012-.351.261.261,0,0,1,.361-.012,27.14,27.14,0,0,0,5.271,3.683c1.328.651,2.544,1.179,3.617,1.645,5.422,2.356,8.408,3.653,12.726,14.536a176.062,176.062,0,0,1,7.6,24.133.255.255,0,0,1-.25.3Z" fill="#647bb8"/>
              <path d="M47.972,135.042a12.178,12.178,0,0,0,4.852,2.642s1.111-2.241-1.727-4C51.1,133.682,49.617,132.6,47.972,135.042Z" fill="#28497c"/>
              <path d="M58.389,119.7a14.124,14.124,0,0,1-6.056-7.041,2.083,2.083,0,0,1,.3-1.9l2.472-3.4a1.1,1.1,0,0,1,1.544-.224l3.932,2.957-2.952-4.582a2.794,2.794,0,0,1,.191-3.3l4.735-5.782,8.334,4.376s-.329,7.151-2.961,9.926a16.843,16.843,0,0,0-3.29,4.376S59.047,117.138,58.389,119.7Z" fill="#647bb8"/>
              <path d="M68.148,129.306s1.316-3.416.11-5.55.658-4.056,3.29-5.23,2.083-2.348,4.5-2.455,3.948-1.174,7.237-2.135,15.023.748,15.023.748-7.237.533-9.54,2.988-3.619,3.415-5.812,2.455-2.96.107-3.837,1.174-2.742,3.2-4.5,3.629A10.6,10.6,0,0,0,68.148,129.306Z" fill="#e2e7f5"/>
              <path d="M51.673,134.082s-1.754-1.174-3.18,1.067-2.741,2.348-4.386,2.135c0,0-.548,2.134-3.509,2.134s-4.715,4.056-4.715,4.056a3.92,3.92,0,0,1-.219-3.842c1.1-1.815-2.413-1.6-1.206-3.2s4.934-6.938,8.881-5.764,2.742,2.242,2.742,2.242S50.028,131.734,51.673,134.082Z" fill="#e2e7f5"/>
              <path d="M36.884,140.233h-.025a.252.252,0,0,1-.23-.271c.63-6.374,9.338-7.292,9.426-7.3a.254.254,0,0,1,.28.222.251.251,0,0,1-.229.272c-.084.008-8.379.887-8.968,6.853A.253.253,0,0,1,36.884,140.233Z" fill="#28497c"/>
              <path d="M53.976,152.9a.253.253,0,0,1-.25-.2c-1.758-8.474,1.317-25.446,4.122-32.954A106.175,106.175,0,0,1,64.94,105.22a.259.259,0,0,1,.348-.09.244.244,0,0,1,.093.339,105.782,105.782,0,0,0-7.053,14.449c-2.786,7.455-5.842,24.294-4.1,32.686a.248.248,0,0,1-.2.292A.218.218,0,0,1,53.976,152.9Z" fill="#28497c"/>
              <path d="M62.364,150.1a.234.234,0,0,1-.064-.008.247.247,0,0,1-.183-.3l4.688-17.45a24.251,24.251,0,0,1,9.556-13.427,25.2,25.2,0,0,1,16.106-4.427.249.249,0,0,1,.219.279.254.254,0,0,1-.287.213,24.656,24.656,0,0,0-15.741,4.339A23.708,23.708,0,0,0,67.3,132.45l-4.691,17.464A.254.254,0,0,1,62.364,150.1Z" fill="#28497c"/>
              <path d="M66.284,110.948s.22-5.443-2.851-8.965c-.613-.7-1.112-1.313-1.519-1.839a3.737,3.737,0,0,1,.258-4.882,21.231,21.231,0,0,0,4-5.34,18.8,18.8,0,0,1,.778-1.735,1.882,1.882,0,0,1,2.576-.749l3.334,1.844-2.252-3.7a2.341,2.341,0,0,1,.394-2.929,12.048,12.048,0,0,1,4.6-2.866,19.342,19.342,0,0,0,6.469-3.949s6.689-1.6,10.527,0c0,0-4.935,3.2-4.935,5.977s-2.522,4.589-1.754,6.617-3.728,1.388-3.509,3.095h0a1.5,1.5,0,0,1-1.477,1.668,23.058,23.058,0,0,0-6.966,1.321s6.36-.427,8.772.853c0,0-3.4-.853-3.29,1.922s-.767,2.988-5.044,4.055S66.284,110.948,66.284,110.948Z" fill="#e2e7f5"/>
              <path d="M58.993,151.22h-.027a.249.249,0,0,1-.227-.273c0-.023.252-2.368.74-6.248.469-3.724,5.241-29.393,6.56-33.819,1.98-6.641,6.1-19.047,11.487-27.518,5.268-8.291,12.894-7.8,12.971-7.8a.248.248,0,1,1-.04.5c-.073-.005-7.4-.461-12.5,7.561C72.609,92.043,68.5,104.4,66.529,111.017c-1.315,4.414-6.076,30.024-6.543,33.741-.488,3.875-.737,6.216-.74,6.239A.252.252,0,0,1,58.993,151.22Z" fill="#28497c"/>
            </g>
            <g>
              <rect x="47.273" y="143.378" width="22.192" height="13.911" fill="#bbc8e9"/>
              <path d="M69.465,154.422v2.867H47.273V143.378H50.6C50.437,147.067,51.7,156.586,69.465,154.422Z" fill="#2c3149" opacity="0.3"/>
            </g>
            <path d="M33.688,168.1V213.25H74.323V182.4h.644c-2-3.792,13.687-13.575,234.138-11.351V168.1Z" fill="#494949" opacity="0.15"/>
            <g>
              <g>
                <path d="M178.391,114.078l-.023-.018a.4.4,0,0,1,.068-.137l.437-.571-.7-.539.116-.152a.761.761,0,0,1,1.066-.141l.147.112Z" fill="#171a30"/>
                <g>
                  <path d="M196.7,126.993l-16.566-12.67.631-.825L197.507,126.3A2.6,2.6,0,0,0,196.7,126.993Z" fill="#171a30"/>
                  <path d="M198.968,128.73l-2.271-1.737a2.6,2.6,0,0,1,.81-.689l.322.247,1.406,1.853-.149.178Z" fill="#2c3149"/>
                  <path d="M200.194,129.667l-1.226-.937.118-.148.149-.178Z" fill="#171a30"/>
                  <path d="M196.252,127.868,179.544,115.09l.587-.767,16.566,12.67-.011.015A2.614,2.614,0,0,0,196.252,127.868Z" fill="#03051a"/>
                  <path d="M196.612,128.143l-.36-.275a2.614,2.614,0,0,1,.434-.86l.011-.015,2.271,1.737c-.023.029-.045.059-.068.089-.066.085-.129.171-.19.258Z" fill="#2c3149"/>
                  <path d="M198.71,129.077c.061-.087.124-.173.19-.258.023-.03.045-.06.068-.089l1.226.937.079.1Z" fill="#03051a"/>
                </g>
                <path d="M178.391,114.078l-.023-.018a.4.4,0,0,1,.068-.137l.909-1.189a.417.417,0,0,1,.582-.077l.787.6a.415.415,0,0,1,.078.581l-.473.618-1.4-1.071Z" fill="#373b4c"/>
                <path d="M178.368,114.06l-.124-.094a.762.762,0,0,1-.142-1.067l.066-.086.7.539-.437.571A.4.4,0,0,0,178.368,114.06Z" fill="#03051a"/>
                <path d="M179.882,115.029l.437-.571-1.4-1.071-.046-.035-.437.571a.4.4,0,0,0-.068.137.413.413,0,0,0,.145.445l.788.6A.414.414,0,0,0,179.882,115.029Z" fill="#2c3149"/>
              </g>
              <path d="M196.569,126.064a.894.894,0,0,1-.217-.065l-.392-.182-.53-1.771a2.014,2.014,0,0,0-1.332-1.424l-4.205-1.367s-.595.128-1.269-1.218l5.185.62,2.541,2.413Z" fill="#c4a19e"/>
              <path d="M195.045,126.776a2.359,2.359,0,0,1-.2.961l-.686,1.564h0c-.161,0-.38-.1-.553-.528l-.056.061-.1-.217.179-.411a1.352,1.352,0,0,0-.655-1.759l-3.491-1.666s-.518-.131-.8-.959l4.933,1.033a1.774,1.774,0,0,1,1.321,1.188A2.38,2.38,0,0,1,195.045,126.776Z" fill="#c4a19e"/>
              <path d="M192.1,129.812a1.684,1.684,0,0,1-.362.025s-.021.026-.056.066l-.074-.222s.1-.415-1.27-.959a22.023,22.023,0,0,1-2.049-.908s-.284-.051-.7-.674l4.2,1.615A.7.7,0,0,1,192.1,129.812Z" fill="#c4a19e"/>
              <path d="M190.99,130.46a1.3,1.3,0,0,1-.448.154,27.336,27.336,0,0,1-3.785-.623l-2.569.8a10.023,10.023,0,0,1-5.484.152l-.337-.086a3.416,3.416,0,0,0-2.761.486l-20.118,13.683-1.195-1.867,20.887-12.858a4.512,4.512,0,0,1,3.454-.532,13.141,13.141,0,0,0,8.069-.665Z" fill="#c4a19e"/>
              <path d="M197.024,122.778v3.195a.662.662,0,0,1-.455.091l-.219-2.994-2.541-2.413-5.185-.62c.674,1.346,1.269,1.218,1.269,1.218l4.205,1.367a2.014,2.014,0,0,1,1.332,1.424l.322,1.278.6.675a1.405,1.405,0,0,1-.5-.416v.57a1.962,1.962,0,0,1-.259.97l-1.22,2.117a.432.432,0,0,1-.222.061l.686-1.564a2.375,2.375,0,0,0,.087-1.694,1.774,1.774,0,0,0-1.321-1.188l-4.933-1.033c.285.828.8.959.8.959l3.491,1.666a1.352,1.352,0,0,1,.655,1.759l-.179.411.1.217-.373.4a1.862,1.862,0,0,1-1.076.577.7.7,0,0,0-.313-1.057l-4.2-1.615c.416.623.7.674.7.674a22.023,22.023,0,0,0,2.049.908c1.375.544,1.27.959,1.27.959l.074.222a3.094,3.094,0,0,1-.305.294,2.3,2.3,0,0,1-.383.263,1.3,1.3,0,0,1-.448.154,27.336,27.336,0,0,1-3.785-.623l-2.569.8a10.023,10.023,0,0,1-5.484.152l-1.827-.464-21.389,14.547-1.195-1.867-4.872-7.624,21.468-8.634,5.911-2.643,6.891-4.831a7.282,7.282,0,0,1,4.9-1.283l4.782.473a2.623,2.623,0,0,1,1.857,1.065l1.435,1.976A1.894,1.894,0,0,1,197.024,122.778Z" fill="#fff0e2"/>
            </g>
            <g>
              <rect x="149.345" y="150.211" width="64.639" height="3.508" fill="#112133"/>
              <path d="M147.187,153.718h68.953a2.352,2.352,0,0,1,2.352,2.352v1.155a0,0,0,0,1,0,0H144.835a0,0,0,0,1,0,0V156.07A2.352,2.352,0,0,1,147.187,153.718Z" fill="#213759"/>
              <path d="M229.205,148.206H133.9a5.908,5.908,0,0,1-4.89-2.613L118.9,132.526c-.82-1.211.784-3.611,2.23-3.611H241.971c1.446,0,3.05,2.4,2.231,3.611L234.1,145.593A5.91,5.91,0,0,1,229.205,148.206Z" fill="#112133"/>
              <path d="M244.586,133.777l-.454.661-6.792,9.867-2.265,3.292a6.031,6.031,0,0,1-4.97,2.613H133.224a6.037,6.037,0,0,1-4.97-2.613l-9.511-13.82a1.826,1.826,0,0,1,1.5-2.859H243.082a1.8,1.8,0,0,1,1.326.567A1.82,1.82,0,0,1,244.586,133.777Z" fill="#213759"/>
              <polygon points="199.182 130.919 161.188 150.211 141.268 150.211 179.259 130.919 199.182 130.919" fill="#fff" opacity="0.07"/>
              <polygon points="212.776 130.919 174.785 150.211 168.391 150.211 206.385 130.919 212.776 130.919" fill="#fff" opacity="0.07"/>
            </g>
            <g>
              <path d="M234.506,128.83s.432-1.87,3.788-1.727l-.432,1.774Z" fill="#c4a19e"/>
              <path d="M243.674,135.172l-7.8,11.329-2.273-.4-2.92-.518-.012,0-.014,0a.243.243,0,0,0,.014-.02c.812-1.116,2.742-1.309,4.321-1.254.317.008.616.029.892.054l-.817-.149-4.059-.74.012-.017,0,0a.1.1,0,0,1,.02-.028c1.079-1.485,3.844-1.531,5.694-1.373a17.8,17.8,0,0,1,1.789.245l.063-.092-1.726-.317-5.857-1.067c.037-.055.078-.109.121-.161l.006-.006c1.513-1.87,5.44-1.651,7.445-1.4l-5.081-.929a2.9,2.9,0,0,1,.636-.659l.006,0c1.689-1.277,4.862-1.142,6.711-.929.863.1,1.439.219,1.439.219L243,135.9l.619-.915Z" fill="#09111a"/>
              <path d="M237.977,146.2l-6.72-1.188-.012,0-.014,0c.006-.006.008-.015.014-.02,1.482-2.034,6.689-1,6.689-1l.469-.67.543-.779.556,1.844A1.35,1.35,0,0,1,237.977,146.2Z" fill="#fff0e2"/>
              <path d="M238.51,143.868a.776.776,0,0,1-.945.9c-5.051-1.2-6.19.081-6.308.24a.072.072,0,0,0-.015.017l0-.02v-.023c1.482-2.034,6.689-1,6.689-1l.469-.67Z" fill="#c4a19e"/>
              <path d="M239.151,144.274l-7.569-1.381.012-.017.006,0a.084.084,0,0,1,.02-.029c1.683-2.316,7.482-1.127,7.482-1.127l.455-.674.682-1,.621,2.132A1.545,1.545,0,0,1,239.151,144.274Z" fill="#fff0e2"/>
              <path d="M239.69,141.732a.773.773,0,0,1-.943.9c-5.556-1.348-6.928-.024-7.127.216,1.683-2.316,7.482-1.127,7.482-1.127l.455-.674Z" fill="#c4a19e"/>
              <path d="M240.429,141.855l-8.847-1.614c.038-.055.078-.11.121-.161l.006-.006c2.071-2.558,8.662-1.208,8.662-1.208l.561-.826.768-1.133.725,2.491A1.805,1.805,0,0,1,240.429,141.855Z" fill="#fff0e2"/>
              <path d="M240.109,139.706c-6.286-1.137-8.038.028-8.4.368,2.071-2.558,8.662-1.208,8.662-1.208l.561-.826.161.607A.856.856,0,0,1,240.109,139.706Z" fill="#c4a19e"/>
              <path d="M231.594,142.876l.006,0-.006.009Z" fill="#ec685a"/>
              <path d="M242.92,139.363l-8.846-1.616a2.839,2.839,0,0,1,.636-.659l0,0c2.477-1.873,8.15-.711,8.15-.711l.711-1.047.618-.915.725,2.492A1.808,1.808,0,0,1,242.92,139.363Z" fill="#fff0e2"/>
              <path d="M242.431,136.918c-4.885-.843-6.927-.262-7.716.167,2.477-1.873,8.15-.711,8.15-.711l.711-1.047.069.265A1.069,1.069,0,0,1,242.431,136.918Z" fill="#c4a19e"/>
            </g>
          </g>
        </g>
      </g>
    </g>
  </g>
</svg>
