<svg xmlns="http://www.w3.org/2000/svg" viewBox="0 0 80.726 14.89">
  <title>B0_teachUOS</title>
  <g id="Ebene_2" data-name="Ebene 2">
    <g id="Ebene_1-2" data-name="Ebene 1">
      <g id="teach">
        <g style="isolation: isolate">
          <path d="M3.465,16.283a1.7,1.7,0,0,1-1.256-.448,1.884,1.884,0,0,1-.449-1.384V9.011H.617a.212.212,0,0,1-.144-.048.171.171,0,0,1-.057-.136v-.3l1.36-.1.191-2.848a.228.228,0,0,1,.058-.128A.184.184,0,0,1,2.164,5.4h.357v3.04h2.5v.568h-2.5v5.4a1.711,1.711,0,0,0,.083.564,1.053,1.053,0,0,0,.232.388.91.91,0,0,0,.349.224,1.263,1.263,0,0,0,.432.072,1.314,1.314,0,0,0,.5-.084,2.057,2.057,0,0,0,.361-.184,2.354,2.354,0,0,0,.248-.184.271.271,0,0,1,.152-.084A.175.175,0,0,1,5,15.2l.209.336a2.231,2.231,0,0,1-.772.54A2.408,2.408,0,0,1,3.465,16.283Z" transform="translate(-0.416 -2.555)" fill="#c6d1ec"/>
          <path d="M10.16,8.067A3.29,3.29,0,0,1,11.4,8.3a2.8,2.8,0,0,1,.992.676,3.129,3.129,0,0,1,.657,1.092,4.372,4.372,0,0,1,.235,1.488.4.4,0,0,1-.052.24.2.2,0,0,1-.164.064H7.328v.152a5.384,5.384,0,0,0,.208,1.576,3.217,3.217,0,0,0,.593,1.14,2.421,2.421,0,0,0,.928.692,3.057,3.057,0,0,0,1.215.232,3.645,3.645,0,0,0,1.041-.132,3.9,3.9,0,0,0,.74-.3,4.131,4.131,0,0,0,.475-.3.54.54,0,0,1,.256-.132.184.184,0,0,1,.16.08l.208.256a2.163,2.163,0,0,1-.507.448,3.635,3.635,0,0,1-.7.356,5.012,5.012,0,0,1-.832.236,4.539,4.539,0,0,1-.891.088,3.766,3.766,0,0,1-1.488-.284,3.154,3.154,0,0,1-1.154-.828,3.775,3.775,0,0,1-.744-1.332,5.7,5.7,0,0,1-.263-1.8,4.883,4.883,0,0,1,.245-1.58,3.612,3.612,0,0,1,.7-1.248,3.212,3.212,0,0,1,1.129-.82A3.706,3.706,0,0,1,10.16,8.067Zm.012.568a2.986,2.986,0,0,0-1.1.192,2.4,2.4,0,0,0-.843.552,2.825,2.825,0,0,0-.575.864,3.955,3.955,0,0,0-.292,1.128H12.6a3.507,3.507,0,0,0-.176-1.148,2.46,2.46,0,0,0-.494-.86,2.145,2.145,0,0,0-.768-.54A2.535,2.535,0,0,0,10.172,8.635Z" transform="translate(-0.416 -2.555)" fill="#c6d1ec"/>
          <path d="M20.576,16.155a.273.273,0,0,1-.3-.224l-.112-1.016a8.343,8.343,0,0,1-.652.576,3.859,3.859,0,0,1-.676.432,3.289,3.289,0,0,1-.76.268,4.085,4.085,0,0,1-.9.092,2.629,2.629,0,0,1-.791-.12,1.957,1.957,0,0,1-.68-.368,1.783,1.783,0,0,1-.477-.636,2.2,2.2,0,0,1-.179-.932,1.648,1.648,0,0,1,.287-.935,2.356,2.356,0,0,1,.9-.753,5.959,5.959,0,0,1,1.576-.512,13.774,13.774,0,0,1,2.317-.224v-.832a2.661,2.661,0,0,0-.477-1.7,1.7,1.7,0,0,0-1.412-.6,2.678,2.678,0,0,0-.98.16,3.453,3.453,0,0,0-.684.353,4.184,4.184,0,0,0-.455.351.5.5,0,0,1-.3.16.26.26,0,0,1-.24-.144l-.136-.232a4.648,4.648,0,0,1,1.312-.944,3.661,3.661,0,0,1,1.56-.32,2.841,2.841,0,0,1,1.12.2,2.075,2.075,0,0,1,.8.584,2.576,2.576,0,0,1,.477.92,4.294,4.294,0,0,1,.16,1.2v5.184Zm-3.2-.424a3.407,3.407,0,0,0,.853-.1,3.189,3.189,0,0,0,.719-.28,3.457,3.457,0,0,0,.62-.428c.192-.165.381-.344.569-.536V12.315a14.194,14.194,0,0,0-1.957.172,5.669,5.669,0,0,0-1.352.38,1.986,1.986,0,0,0-.783.572,1.215,1.215,0,0,0-.253.756,1.666,1.666,0,0,0,.132.692,1.394,1.394,0,0,0,.347.48,1.372,1.372,0,0,0,.5.276A2.036,2.036,0,0,0,17.376,15.731Z" transform="translate(-0.416 -2.555)" fill="#c6d1ec"/>
          <path d="M28.68,9.259a.735.735,0,0,1-.076.068.157.157,0,0,1-.1.028.417.417,0,0,1-.22-.108,2.986,2.986,0,0,0-.952-.472,2.877,2.877,0,0,0-.844-.108,2.907,2.907,0,0,0-1.22.244,2.427,2.427,0,0,0-.9.7,3.186,3.186,0,0,0-.556,1.1,5.124,5.124,0,0,0-.192,1.456,5.134,5.134,0,0,0,.2,1.488,3.192,3.192,0,0,0,.556,1.092,2.366,2.366,0,0,0,.872.676,2.723,2.723,0,0,0,1.137.232,2.93,2.93,0,0,0,.963-.136,3.105,3.105,0,0,0,.64-.3,2.9,2.9,0,0,0,.4-.3.41.41,0,0,1,.235-.136.186.186,0,0,1,.16.08l.208.256a2.289,2.289,0,0,1-.465.448,3.053,3.053,0,0,1-.631.36,3.851,3.851,0,0,1-.764.236,4.306,4.306,0,0,1-.861.084,3.406,3.406,0,0,1-1.386-.276,2.978,2.978,0,0,1-1.08-.8,3.711,3.711,0,0,1-.7-1.284,5.478,5.478,0,0,1-.252-1.728,5.456,5.456,0,0,1,.24-1.664,3.744,3.744,0,0,1,.7-1.3,3.155,3.155,0,0,1,1.128-.844,3.7,3.7,0,0,1,1.532-.3,3.613,3.613,0,0,1,1.38.248,3.4,3.4,0,0,1,1.052.672Z" transform="translate(-0.416 -2.555)" fill="#c6d1ec"/>
          <path d="M30.88,16.155V4.515h.761v5.04A4.478,4.478,0,0,1,32.9,8.471a3.149,3.149,0,0,1,1.588-.4,3.008,3.008,0,0,1,1.157.208,2.142,2.142,0,0,1,.828.6,2.7,2.7,0,0,1,.5.944,4.293,4.293,0,0,1,.168,1.248v5.088h-.76V11.067a2.724,2.724,0,0,0-.513-1.756A1.89,1.89,0,0,0,34.3,8.675a2.778,2.778,0,0,0-1.456.4,4.23,4.23,0,0,0-1.2,1.109v5.967Z" transform="translate(-0.416 -2.555)" fill="#c6d1ec"/>
        </g>
      </g>
      <g id="UOS">
        <g style="isolation: isolate">
          <path d="M48.377,14.615a2.806,2.806,0,0,0,1.15-.225,2.332,2.332,0,0,0,.856-.645,2.894,2.894,0,0,0,.535-1.025,4.717,4.717,0,0,0,.185-1.375V2.715h3.2v8.63a7.094,7.094,0,0,1-.411,2.46,5.563,5.563,0,0,1-1.179,1.93A5.3,5.3,0,0,1,50.848,17,7.034,7.034,0,0,1,45.9,17a5.29,5.29,0,0,1-1.864-1.26,5.507,5.507,0,0,1-1.174-1.93,7.165,7.165,0,0,1-.407-2.46V2.715h3.2v8.619a4.707,4.707,0,0,0,.185,1.375,2.941,2.941,0,0,0,.535,1.031,2.3,2.3,0,0,0,.856.65A2.8,2.8,0,0,0,48.377,14.615Z" transform="translate(-0.416 -2.555)" fill="#fff"/>
          <path d="M70.467,9.995a8.223,8.223,0,0,1-.516,2.94A7.159,7.159,0,0,1,68.5,15.3a6.645,6.645,0,0,1-2.258,1.575,7.823,7.823,0,0,1-5.863,0A6.678,6.678,0,0,1,58.111,15.3a7.089,7.089,0,0,1-1.458-2.365,8.244,8.244,0,0,1-.515-2.94,8.236,8.236,0,0,1,.515-2.94A7.017,7.017,0,0,1,58.111,4.7a6.707,6.707,0,0,1,2.266-1.57,7.352,7.352,0,0,1,2.935-.57,7.258,7.258,0,0,1,2.928.575A6.729,6.729,0,0,1,68.5,4.705a7.1,7.1,0,0,1,1.453,2.359A8.2,8.2,0,0,1,70.467,9.995Zm-3.276,0a6.617,6.617,0,0,0-.264-1.945,4.212,4.212,0,0,0-.762-1.466,3.3,3.3,0,0,0-1.216-.919,3.979,3.979,0,0,0-1.637-.32,4.038,4.038,0,0,0-1.652.32,3.3,3.3,0,0,0-1.221.919,4.178,4.178,0,0,0-.761,1.466,6.582,6.582,0,0,0-.266,1.945,6.627,6.627,0,0,0,.266,1.955,4.173,4.173,0,0,0,.761,1.465,3.263,3.263,0,0,0,1.221.915,4.1,4.1,0,0,0,1.652.315,4.044,4.044,0,0,0,1.637-.315,3.261,3.261,0,0,0,1.216-.915,4.207,4.207,0,0,0,.762-1.465A6.663,6.663,0,0,0,67.191,9.995Z" transform="translate(-0.416 -2.555)" fill="#fff"/>
          <path d="M80.158,5.675a1.273,1.273,0,0,1-.3.36.639.639,0,0,1-.4.12.959.959,0,0,1-.469-.145c-.167-.1-.355-.205-.567-.325A4.519,4.519,0,0,0,77.7,5.36a2.746,2.746,0,0,0-.927-.145,1.924,1.924,0,0,0-1.34.405,1.417,1.417,0,0,0-.44,1.095,1.041,1.041,0,0,0,.265.73,2.3,2.3,0,0,0,.7.5,7.344,7.344,0,0,0,.985.385q.553.174,1.13.39a9.642,9.642,0,0,1,1.131.5,3.779,3.779,0,0,1,.985.74,3.477,3.477,0,0,1,.695,1.1,4.1,4.1,0,0,1,.265,1.555,5.342,5.342,0,0,1-.331,1.89A4.349,4.349,0,0,1,78.3,17.07a5.529,5.529,0,0,1-2.1.375,6.389,6.389,0,0,1-1.31-.14A7.512,7.512,0,0,1,73.6,16.91a7.33,7.33,0,0,1-1.173-.605,5.01,5.01,0,0,1-.957-.78l.947-1.58a.784.784,0,0,1,.293-.29.8.8,0,0,1,.407-.111,1.037,1.037,0,0,1,.573.191q.288.189.653.42a5.152,5.152,0,0,0,.838.42,2.994,2.994,0,0,0,1.117.19,2.041,2.041,0,0,0,1.352-.405,1.585,1.585,0,0,0,.484-1.285,1.256,1.256,0,0,0-.266-.83,2.037,2.037,0,0,0-.7-.53,6.066,6.066,0,0,0-.981-.37q-.548-.161-1.125-.355a8,8,0,0,1-1.127-.48,3.58,3.58,0,0,1-.979-.75,3.533,3.533,0,0,1-.695-1.16A4.84,4.84,0,0,1,72,6.885a4.271,4.271,0,0,1,.312-1.6A4.128,4.128,0,0,1,73.23,3.9a4.482,4.482,0,0,1,1.486-.976,5.232,5.232,0,0,1,2.015-.364,7.175,7.175,0,0,1,1.236.1,6.191,6.191,0,0,1,2.148.8,4.738,4.738,0,0,1,.838.645Z" transform="translate(-0.416 -2.555)" fill="#fff"/>
        </g>
      </g>
    </g>
  </g>
</svg>
