<svg xmlns="http://www.w3.org/2000/svg" viewBox="0 0 170.876 29.577">
  <title>B0_teachUOS</title>
  <g id="Ebene_2" data-name="Ebene 2">
    <g id="Ebene_1-2" data-name="Ebene 1">
      <g id="Gruppe_1031" data-name="Gruppe 1031">
        <g id="teach" style="isolation: isolate">
          <g style="isolation: isolate">
            <path d="M55.021,25.6a2.546,2.546,0,0,1-1.884-.673,2.829,2.829,0,0,1-.672-2.076v-8.16H50.749a.318.318,0,0,1-.216-.072.254.254,0,0,1-.084-.2v-.443l2.04-.145.285-4.271a.329.329,0,0,1,.089-.193.273.273,0,0,1,.208-.084h.534v4.56h3.756v.852H53.605v8.1a2.54,2.54,0,0,0,.126.847,1.583,1.583,0,0,0,.348.581,1.378,1.378,0,0,0,.522.337,1.924,1.924,0,0,0,.648.107,1.983,1.983,0,0,0,.744-.126,3.084,3.084,0,0,0,.54-.276,3.463,3.463,0,0,0,.372-.276.409.409,0,0,1,.228-.126.26.26,0,0,1,.192.12l.312.5a3.328,3.328,0,0,1-1.158.81A3.613,3.613,0,0,1,55.021,25.6Z" transform="translate(0 -4.177)" fill="#fff"/>
            <path d="M65.065,13.278a4.937,4.937,0,0,1,1.866.348,4.183,4.183,0,0,1,1.488,1.015,4.678,4.678,0,0,1,.984,1.637,6.5,6.5,0,0,1,.354,2.232.593.593,0,0,1-.078.36.3.3,0,0,1-.246.1H60.817v.228a8.078,8.078,0,0,0,.312,2.365,4.852,4.852,0,0,0,.888,1.71,3.672,3.672,0,0,0,1.392,1.038,4.623,4.623,0,0,0,1.824.347,5.459,5.459,0,0,0,1.56-.2,5.814,5.814,0,0,0,1.11-.444,5.955,5.955,0,0,0,.714-.444.815.815,0,0,1,.384-.2.275.275,0,0,1,.24.12l.312.384a3.256,3.256,0,0,1-.762.672,5.383,5.383,0,0,1-1.056.534,7.594,7.594,0,0,1-1.248.355,6.943,6.943,0,0,1-1.338.131,5.692,5.692,0,0,1-2.232-.425,4.77,4.77,0,0,1-1.73-1.243,5.7,5.7,0,0,1-1.116-2,8.537,8.537,0,0,1-.394-2.706,7.352,7.352,0,0,1,.366-2.37A5.446,5.446,0,0,1,61.1,14.952a4.837,4.837,0,0,1,1.692-1.23A5.572,5.572,0,0,1,65.065,13.278Zm.018.852a4.5,4.5,0,0,0-1.654.288,3.615,3.615,0,0,0-1.264.828,4.221,4.221,0,0,0-.863,1.3,5.932,5.932,0,0,0-.437,1.692h7.86a5.273,5.273,0,0,0-.263-1.722,3.682,3.682,0,0,0-.744-1.29,3.225,3.225,0,0,0-1.15-.81A3.812,3.812,0,0,0,65.083,14.13Z" transform="translate(0 -4.177)" fill="#fff"/>
            <path d="M80.688,25.41a.41.41,0,0,1-.443-.336l-.168-1.524a12.535,12.535,0,0,1-.979.864,5.9,5.9,0,0,1-1.013.649,5.067,5.067,0,0,1-1.141.4A6.1,6.1,0,0,1,75.6,25.6a3.949,3.949,0,0,1-1.187-.181,2.927,2.927,0,0,1-1.021-.552,2.7,2.7,0,0,1-.714-.954,3.312,3.312,0,0,1-.269-1.4,2.482,2.482,0,0,1,.431-1.4,3.582,3.582,0,0,1,1.35-1.128,8.908,8.908,0,0,1,2.364-.768,20.559,20.559,0,0,1,3.474-.336V17.634a4,4,0,0,0-.714-2.55A2.548,2.548,0,0,0,77.2,14.19a4.023,4.023,0,0,0-1.47.24,5.221,5.221,0,0,0-1.025.528,6.39,6.39,0,0,0-.685.528.744.744,0,0,1-.443.241.391.391,0,0,1-.361-.217l-.2-.348a6.953,6.953,0,0,1,1.968-1.416,5.5,5.5,0,0,1,2.34-.479,4.275,4.275,0,0,1,1.681.3,3.1,3.1,0,0,1,1.193.876,3.814,3.814,0,0,1,.714,1.38,6.351,6.351,0,0,1,.24,1.806V25.41Zm-4.8-.636a5.083,5.083,0,0,0,1.279-.15,4.754,4.754,0,0,0,1.08-.42,5.26,5.26,0,0,0,.929-.641c.288-.249.573-.517.852-.8V19.65a21.606,21.606,0,0,0-2.934.258,8.408,8.408,0,0,0-2.028.571,2.963,2.963,0,0,0-1.176.857,1.826,1.826,0,0,0-.378,1.134,2.5,2.5,0,0,0,.2,1.038,1.988,1.988,0,0,0,1.277,1.135A3.1,3.1,0,0,0,75.888,24.774Z" transform="translate(0 -4.177)" fill="#fff"/>
            <path d="M92.844,15.066a1.109,1.109,0,0,1-.114.1.238.238,0,0,1-.149.042.623.623,0,0,1-.33-.162,4.551,4.551,0,0,0-.559-.354,4.694,4.694,0,0,0-.869-.354,4.866,4.866,0,0,0-3.1.2,3.643,3.643,0,0,0-1.344,1.05,4.84,4.84,0,0,0-.834,1.656,7.683,7.683,0,0,0-.288,2.185,7.711,7.711,0,0,0,.294,2.231,4.771,4.771,0,0,0,.834,1.638A3.559,3.559,0,0,0,87.7,24.318a4.085,4.085,0,0,0,1.7.348,4.385,4.385,0,0,0,1.446-.2,4.714,4.714,0,0,0,.96-.443,4.489,4.489,0,0,0,.6-.445.616.616,0,0,1,.353-.2.278.278,0,0,1,.241.12l.311.384a3.484,3.484,0,0,1-.695.672,4.7,4.7,0,0,1-.948.54,5.843,5.843,0,0,1-1.147.354,6.444,6.444,0,0,1-1.29.126,5.119,5.119,0,0,1-2.082-.414,4.489,4.489,0,0,1-1.619-1.2,5.607,5.607,0,0,1-1.057-1.926,8.213,8.213,0,0,1-.378-2.591,8.15,8.15,0,0,1,.361-2.5,5.606,5.606,0,0,1,1.049-1.944A4.693,4.693,0,0,1,87.2,13.729a5.534,5.534,0,0,1,2.3-.451,5.41,5.41,0,0,1,2.069.372,5.074,5.074,0,0,1,1.578,1.008Z" transform="translate(0 -4.177)" fill="#fff"/>
            <path d="M96.144,25.41V7.95h1.14v7.56a6.733,6.733,0,0,1,1.89-1.626,4.72,4.72,0,0,1,2.382-.606,4.486,4.486,0,0,1,1.734.312,3.194,3.194,0,0,1,1.242.9,3.984,3.984,0,0,1,.744,1.416,6.424,6.424,0,0,1,.252,1.872V25.41h-1.14V17.778a4.091,4.091,0,0,0-.768-2.633,2.837,2.837,0,0,0-2.352-.955,4.172,4.172,0,0,0-2.184.606,6.344,6.344,0,0,0-1.8,1.662V25.41Z" transform="translate(0 -4.177)" fill="#fff"/>
          </g>
        </g>
        <g id="UOS" style="isolation: isolate">
          <g style="isolation: isolate">
            <path d="M120.636,24.1a5.69,5.69,0,0,0,2.232-.416,4.669,4.669,0,0,0,1.664-1.168,5.113,5.113,0,0,0,1.04-1.825,7.505,7.505,0,0,0,.36-2.4V4.433h4.3V18.288a10.693,10.693,0,0,1-.664,3.816,8.5,8.5,0,0,1-4.936,5.008,11.592,11.592,0,0,1-8,0,8.476,8.476,0,0,1-4.92-5.008,10.671,10.671,0,0,1-.664-3.816V4.433h4.3V18.272a7.505,7.505,0,0,0,.36,2.4,5.242,5.242,0,0,0,1.032,1.832,4.536,4.536,0,0,0,1.656,1.177A5.69,5.69,0,0,0,120.636,24.1Z" transform="translate(0 -4.177)" fill="#fff"/>
            <path d="M155.212,16a12.826,12.826,0,0,1-.848,4.712,11.181,11.181,0,0,1-2.384,3.753,10.8,10.8,0,0,1-3.7,2.472,13.366,13.366,0,0,1-9.576,0A10.853,10.853,0,0,1,135,24.465a11.093,11.093,0,0,1-2.392-3.753A12.805,12.805,0,0,1,131.755,16a12.813,12.813,0,0,1,.849-4.712A11.1,11.1,0,0,1,135,7.536a10.853,10.853,0,0,1,3.712-2.472,12.544,12.544,0,0,1,4.792-.887,12.4,12.4,0,0,1,4.784.9,10.969,10.969,0,0,1,3.7,2.472,11.092,11.092,0,0,1,2.384,3.744A12.833,12.833,0,0,1,155.212,16Zm-4.417,0a10.78,10.78,0,0,0-.5-3.416,7.226,7.226,0,0,0-1.448-2.567,6.236,6.236,0,0,0-2.3-1.617,8.611,8.611,0,0,0-6.1,0,6.288,6.288,0,0,0-2.311,1.617,7.24,7.24,0,0,0-1.464,2.567A10.606,10.606,0,0,0,136.156,16a10.6,10.6,0,0,0,.512,3.416,7.16,7.16,0,0,0,1.464,2.561,6.335,6.335,0,0,0,2.311,1.607,8.582,8.582,0,0,0,6.1,0,6.283,6.283,0,0,0,2.3-1.607,7.147,7.147,0,0,0,1.448-2.561A10.771,10.771,0,0,0,150.795,16Z" transform="translate(0 -4.177)" fill="#fff"/>
            <path d="M169.4,8.641a1.2,1.2,0,0,1-.407.5,1.037,1.037,0,0,1-.553.143,1.393,1.393,0,0,1-.719-.248c-.267-.165-.582-.348-.945-.552a7.689,7.689,0,0,0-1.272-.551,5.321,5.321,0,0,0-1.719-.248,5.052,5.052,0,0,0-1.56.215,3.3,3.3,0,0,0-1.12.6,2.417,2.417,0,0,0-.681.92,3.028,3.028,0,0,0-.223,1.177,2.041,2.041,0,0,0,.456,1.359,3.784,3.784,0,0,0,1.208.928,11.03,11.03,0,0,0,1.712.688q.958.3,1.96.649a18.732,18.732,0,0,1,1.96.8,6.775,6.775,0,0,1,1.712,1.151,5.237,5.237,0,0,1,1.208,1.7,5.917,5.917,0,0,1,.456,2.448,7.966,7.966,0,0,1-.537,2.937,6.781,6.781,0,0,1-1.567,2.384,7.383,7.383,0,0,1-2.52,1.6,9.269,9.269,0,0,1-3.409.584,10.981,10.981,0,0,1-2.175-.216,11.373,11.373,0,0,1-2.057-.616,10.645,10.645,0,0,1-1.839-.96,8.97,8.97,0,0,1-1.528-1.248l1.248-2.063a1.561,1.561,0,0,1,.424-.376,1.028,1.028,0,0,1,.551-.153,1.53,1.53,0,0,1,.865.329q.464.327,1.095.727a8.433,8.433,0,0,0,1.489.729,5.761,5.761,0,0,0,2.056.328,4.218,4.218,0,0,0,2.847-.872,3.128,3.128,0,0,0,1.009-2.5,2.332,2.332,0,0,0-.456-1.489,3.689,3.689,0,0,0-1.208-.967,9,9,0,0,0-1.712-.664q-.96-.273-1.952-.592a16.938,16.938,0,0,1-1.953-.769,6.314,6.314,0,0,1-1.711-1.168,5.3,5.3,0,0,1-1.208-1.8,6.837,6.837,0,0,1-.457-2.664,6.363,6.363,0,0,1,1.977-4.591,7.234,7.234,0,0,1,2.376-1.489,8.65,8.65,0,0,1,3.215-.559,10.815,10.815,0,0,1,3.777.639,8.548,8.548,0,0,1,2.944,1.792Z" transform="translate(0 -4.177)" fill="#fff"/>
          </g>
        </g>
        <g id="Gruppe_13" data-name="Gruppe 13">
          <path id="Pfad_7" data-name="Pfad 7" d="M23.052,6.216,0,13.208l9.956,4.6L22.59,13.24l2.094.82L12.062,18.784l10.989,5.069L46.109,13.21ZM9.476,19.221l-5.344,1.63L8.7,22.958l.774.36Z" transform="translate(0 -4.177)" fill="#fff"/>
          <path id="Pfad_8" data-name="Pfad 8" d="M37,19.734l-14.471,6.8-9.315-4.381v4.1l9.315,4.375,14.564-6.843,5.168-2.421Zm-26.891,12.8,3.1,1.22V19.329l-3.1-.993Z" transform="translate(0 -4.177)" fill="#fff"/>
        </g>
      </g>
    </g>
  </g>
</svg>
