<svg xmlns="http://www.w3.org/2000/svg" viewBox="0 0 76 67">
  <title>B1_faq_hover</title>
  <g id="Ebene_2" data-name="Ebene 2">
    <g id="Ebene_1-2" data-name="Ebene 1">
      <g>
        <path id="Rechteck_57" data-name="Rechteck 57" d="M15.5.5h45a14.926,14.926,0,0,1,15,14.85v36.3a14.926,14.926,0,0,1-15,14.85h-45A14.926,14.926,0,0,1,.5,51.65V15.35A14.926,14.926,0,0,1,15.5.5Z" fill="#28497c" stroke="#c6d1ec" stroke-miterlimit="10"/>
        <g>
          <path d="M29.772,28.264V30.3H23.683v4.065h5.139V36.4H23.683V42H21.108V28.264Z" fill="#c6d1ec"/>
          <path d="M42.455,42H40.479a.86.86,0,0,1-.546-.166.935.935,0,0,1-.309-.414l-1.026-2.8H32.907l-1.026,2.8a.9.9,0,0,1-.3.4.843.843,0,0,1-.546.181H29.05l5.4-13.736h2.613Zm-8.892-5.187h4.379L36.27,32.244q-.114-.3-.251-.718c-.092-.275-.183-.575-.271-.9q-.133.483-.262.9t-.251.732Z" fill="#c6d1ec"/>
          <path d="M56.562,35.131a7.959,7.959,0,0,1-.19,1.763,7.242,7.242,0,0,1-.546,1.572,6.658,6.658,0,0,1-.869,1.345,6.236,6.236,0,0,1-1.169,1.078l3.486,3.8H55.166a2.535,2.535,0,0,1-.822-.124,1.6,1.6,0,0,1-.67-.455L51.66,41.887a7.554,7.554,0,0,1-.993.2,8.214,8.214,0,0,1-1.059.066,7.426,7.426,0,0,1-2.845-.527,6.448,6.448,0,0,1-2.2-1.468,6.6,6.6,0,0,1-1.42-2.227,8.019,8.019,0,0,1,0-5.6,6.59,6.59,0,0,1,1.42-2.229,6.443,6.443,0,0,1,2.2-1.466,7.89,7.89,0,0,1,5.686,0,6.487,6.487,0,0,1,2.194,1.468,6.576,6.576,0,0,1,1.416,2.223A7.623,7.623,0,0,1,56.562,35.131Zm-2.622,0a6.4,6.4,0,0,0-.3-2.027,4.3,4.3,0,0,0-.86-1.526,3.707,3.707,0,0,0-1.363-.959,5.114,5.114,0,0,0-3.625,0,3.732,3.732,0,0,0-1.372.959,4.3,4.3,0,0,0-.869,1.526,6.916,6.916,0,0,0,0,4.056,4.242,4.242,0,0,0,.869,1.52,3.758,3.758,0,0,0,1.372.955,5.114,5.114,0,0,0,3.625,0,3.733,3.733,0,0,0,1.363-.955,4.241,4.241,0,0,0,.86-1.52A6.417,6.417,0,0,0,53.94,35.131Z" fill="#c6d1ec"/>
        </g>
      </g>
    </g>
  </g>
</svg>
