<svg xmlns="http://www.w3.org/2000/svg" viewBox="0 0 76 67">
  <title>B2_fachschaften</title>
  <g id="Ebene_2" data-name="Ebene 2">
    <g id="Ebene_1-2" data-name="Ebene 1">
      <g>
        <path id="Rechteck_57" data-name="Rechteck 57" d="M15.5.5h45a14.926,14.926,0,0,1,15,14.85v36.3a14.926,14.926,0,0,1-15,14.85h-45A14.926,14.926,0,0,1,.5,51.65V15.35A14.926,14.926,0,0,1,15.5.5Z" fill="#28497c" stroke="#fff" stroke-miterlimit="10"/>
        <g>
          <path d="M28.791,22.962V24.3H24.785v2.675h3.381v1.343H24.785V32H23.091V22.962Z" fill="#fff"/>
          <path d="M35.359,32h-.693a.744.744,0,0,1-.344-.065.421.421,0,0,1-.188-.266L34,31.213a5.663,5.663,0,0,1-.478.384,2.954,2.954,0,0,1-.485.278,2.494,2.494,0,0,1-.531.169,3.241,3.241,0,0,1-.625.056,2.458,2.458,0,0,1-.75-.11,1.6,1.6,0,0,1-.59-.329,1.489,1.489,0,0,1-.385-.546,1.95,1.95,0,0,1-.137-.758,1.5,1.5,0,0,1,.19-.718A1.787,1.787,0,0,1,30.84,29a4.046,4.046,0,0,1,1.182-.474,7.567,7.567,0,0,1,1.831-.187v-.379a1.434,1.434,0,0,0-.272-.96.994.994,0,0,0-.79-.311,1.921,1.921,0,0,0-.625.087,2.388,2.388,0,0,0-.435.2c-.123.073-.236.138-.34.2a.7.7,0,0,1-.344.087.447.447,0,0,1-.269-.081.641.641,0,0,1-.181-.2l-.282-.494a3.814,3.814,0,0,1,2.669-1.012,2.574,2.574,0,0,1,1,.184,2.128,2.128,0,0,1,.747.513,2.186,2.186,0,0,1,.466.784,3.018,3.018,0,0,1,.159,1Zm-3-.963a2.059,2.059,0,0,0,.438-.043,1.622,1.622,0,0,0,.378-.129,1.99,1.99,0,0,0,.344-.213,3.064,3.064,0,0,0,.334-.3V29.281a6.325,6.325,0,0,0-1.128.085,2.952,2.952,0,0,0-.728.218.922.922,0,0,0-.391.309.775.775,0,0,0,.125.968A1.036,1.036,0,0,0,32.359,31.037Z" fill="#fff"/>
          <path d="M41.7,26.944a.761.761,0,0,1-.134.137.3.3,0,0,1-.19.05.431.431,0,0,1-.232-.071c-.075-.048-.164-.1-.268-.163a1.994,1.994,0,0,0-.372-.163,1.742,1.742,0,0,0-.535-.071,1.612,1.612,0,0,0-.712.147,1.343,1.343,0,0,0-.51.421,1.925,1.925,0,0,0-.3.666,3.6,3.6,0,0,0-.1.884,3.407,3.407,0,0,0,.11.912,1.921,1.921,0,0,0,.315.672,1.348,1.348,0,0,0,.5.413,1.514,1.514,0,0,0,.663.141,1.623,1.623,0,0,0,.6-.091,1.837,1.837,0,0,0,.385-.2c.1-.073.2-.14.272-.2a.4.4,0,0,1,.259-.09.314.314,0,0,1,.282.143l.443.563a2.781,2.781,0,0,1-.556.5,3.005,3.005,0,0,1-.622.325,3.211,3.211,0,0,1-.666.172,4.771,4.771,0,0,1-.681.05,2.847,2.847,0,0,1-1.119-.222,2.6,2.6,0,0,1-.915-.647,3.115,3.115,0,0,1-.619-1.04,4.03,4.03,0,0,1-.228-1.4,4.091,4.091,0,0,1,.2-1.309,2.972,2.972,0,0,1,.6-1.044,2.73,2.73,0,0,1,.975-.691,3.368,3.368,0,0,1,1.338-.25,3.164,3.164,0,0,1,1.259.232,3.092,3.092,0,0,1,.972.662Z" fill="#fff"/>
          <path d="M43.465,32V22.712h1.544v3.569a3.284,3.284,0,0,1,.825-.575,2.4,2.4,0,0,1,1.056-.219,2.294,2.294,0,0,1,.931.179,1.835,1.835,0,0,1,.679.5,2.2,2.2,0,0,1,.412.769,3.254,3.254,0,0,1,.141.984V32H47.509V27.919a1.373,1.373,0,0,0-.272-.91,1.009,1.009,0,0,0-.816-.321,1.609,1.609,0,0,0-.75.181,2.7,2.7,0,0,0-.662.493V32Z" fill="#fff"/>
          <path d="M50.684,27.581h3.237v1.288H50.684Z" fill="#fff"/>
          <path d="M19.222,40.838a.43.43,0,0,1-.131.141.341.341,0,0,1-.175.04.551.551,0,0,1-.241-.063q-.128-.063-.3-.141a2.865,2.865,0,0,0-.384-.14,1.832,1.832,0,0,0-.51-.063,1.186,1.186,0,0,0-.718.2.6.6,0,0,0-.263.506.481.481,0,0,0,.135.346,1.179,1.179,0,0,0,.356.247,3.461,3.461,0,0,0,.5.191c.188.056.379.118.575.184s.387.143.575.229a2.007,2.007,0,0,1,.5.324,1.5,1.5,0,0,1,.356.473,1.489,1.489,0,0,1,.135.662,2.136,2.136,0,0,1-.169.853,1.894,1.894,0,0,1-.493.675,2.307,2.307,0,0,1-.8.443,3.443,3.443,0,0,1-1.1.16,3.528,3.528,0,0,1-.646-.059,3.955,3.955,0,0,1-.607-.166,3.233,3.233,0,0,1-.537-.25,2.625,2.625,0,0,1-.434-.312l.355-.588a.5.5,0,0,1,.163-.162.452.452,0,0,1,.237-.057.49.49,0,0,1,.272.082c.086.054.185.112.3.175a2.83,2.83,0,0,0,.4.175,1.752,1.752,0,0,0,.578.081,1.493,1.493,0,0,0,.472-.066,1,1,0,0,0,.325-.172.637.637,0,0,0,.188-.247.748.748,0,0,0,.059-.29.522.522,0,0,0-.134-.369,1.174,1.174,0,0,0-.356-.25,3.393,3.393,0,0,0-.507-.19q-.284-.086-.581-.185a5.3,5.3,0,0,1-.581-.234,1.979,1.979,0,0,1-.507-.341,1.55,1.55,0,0,1-.356-.506,1.763,1.763,0,0,1-.134-.726,1.86,1.86,0,0,1,.156-.75,1.758,1.758,0,0,1,.459-.621,2.291,2.291,0,0,1,.757-.426,3.177,3.177,0,0,1,1.046-.159,3.226,3.226,0,0,1,1.207.219,2.732,2.732,0,0,1,.906.575Z" fill="#fff"/>
          <path d="M25.7,40.943a.771.771,0,0,1-.134.138.308.308,0,0,1-.191.05.431.431,0,0,1-.231-.071c-.075-.048-.165-.1-.269-.164a2.033,2.033,0,0,0-.372-.162,1.737,1.737,0,0,0-.534-.072,1.619,1.619,0,0,0-.713.148,1.34,1.34,0,0,0-.509.421,1.884,1.884,0,0,0-.3.665,3.568,3.568,0,0,0-.1.885,3.45,3.45,0,0,0,.109.912,1.922,1.922,0,0,0,.316.672,1.34,1.34,0,0,0,.5.413,1.507,1.507,0,0,0,.662.141,1.629,1.629,0,0,0,.6-.091,1.889,1.889,0,0,0,.385-.2c.1-.073.194-.14.271-.2a.407.407,0,0,1,.26-.09.312.312,0,0,1,.281.143l.444.563a2.759,2.759,0,0,1-.557.5,3,3,0,0,1-.621.325,3.227,3.227,0,0,1-.666.172,4.771,4.771,0,0,1-.681.05,2.843,2.843,0,0,1-1.119-.222,2.611,2.611,0,0,1-.916-.647,3.129,3.129,0,0,1-.618-1.04,4.006,4.006,0,0,1-.229-1.4,4.091,4.091,0,0,1,.2-1.309,2.974,2.974,0,0,1,.6-1.044,2.742,2.742,0,0,1,.975-.691,3.349,3.349,0,0,1,1.337-.25,3.164,3.164,0,0,1,1.259.232,3.07,3.07,0,0,1,.972.662Z" fill="#fff"/>
          <path d="M27.466,46V36.713h1.543v3.568a3.284,3.284,0,0,1,.825-.575,2.4,2.4,0,0,1,1.057-.219,2.294,2.294,0,0,1,.931.179,1.824,1.824,0,0,1,.678.5,2.211,2.211,0,0,1,.413.769,3.286,3.286,0,0,1,.14.984V46H31.509V41.919a1.365,1.365,0,0,0-.272-.909,1.006,1.006,0,0,0-.815-.322,1.6,1.6,0,0,0-.75.181,2.7,2.7,0,0,0-.663.493V46Z" fill="#fff"/>
          <path d="M39.91,46h-.694a.747.747,0,0,1-.344-.065.42.42,0,0,1-.187-.266l-.138-.456a5.507,5.507,0,0,1-.478.384,2.913,2.913,0,0,1-.485.278,2.476,2.476,0,0,1-.531.169,3.234,3.234,0,0,1-.625.056,2.458,2.458,0,0,1-.75-.11,1.6,1.6,0,0,1-.59-.329,1.489,1.489,0,0,1-.385-.546,1.95,1.95,0,0,1-.137-.758,1.5,1.5,0,0,1,.19-.718,1.79,1.79,0,0,1,.635-.64,4.051,4.051,0,0,1,1.181-.474,7.567,7.567,0,0,1,1.831-.187v-.379a1.429,1.429,0,0,0-.272-.96.99.99,0,0,0-.79-.311,1.921,1.921,0,0,0-.625.087,2.388,2.388,0,0,0-.435.2c-.122.073-.236.138-.34.2a.7.7,0,0,1-.344.087.449.449,0,0,1-.269-.081.63.63,0,0,1-.181-.2l-.281-.494a3.818,3.818,0,0,1,2.669-1.012,2.577,2.577,0,0,1,1,.184,2.115,2.115,0,0,1,.747.513,2.193,2.193,0,0,1,.465.784,3.022,3.022,0,0,1,.16,1Zm-3-.963a2.056,2.056,0,0,0,.437-.043,1.622,1.622,0,0,0,.378-.129,1.952,1.952,0,0,0,.344-.213,3.064,3.064,0,0,0,.334-.3V43.281a6.325,6.325,0,0,0-1.128.085,2.952,2.952,0,0,0-.728.218.928.928,0,0,0-.391.309.775.775,0,0,0,.125.968A1.037,1.037,0,0,0,36.91,45.037Z" fill="#fff"/>
          <path d="M42.016,46V40.75l-.557-.088a.585.585,0,0,1-.291-.125.327.327,0,0,1-.109-.262v-.631h.957v-.475a2.78,2.78,0,0,1,.165-.987,2,2,0,0,1,1.228-1.213,2.882,2.882,0,0,1,1-.162,2.765,2.765,0,0,1,.825.118L45.2,37.7a.225.225,0,0,1-.169.225,1.354,1.354,0,0,1-.362.044,1.836,1.836,0,0,0-.491.059.85.85,0,0,0-.366.206.943.943,0,0,0-.228.388,1.956,1.956,0,0,0-.078.6v.425h1.669v1.1H43.559V46Z" fill="#fff"/>
          <path d="M48.541,46.1a1.687,1.687,0,0,1-1.282-.472,1.811,1.811,0,0,1-.449-1.3V40.744h-.651a.3.3,0,0,1-.306-.325v-.612l1.031-.169.325-1.75a.32.32,0,0,1,.116-.2.37.37,0,0,1,.228-.068h.8v2.019h1.688v1.1H48.353v3.475a.683.683,0,0,0,.15.469.509.509,0,0,0,.4.168.728.728,0,0,0,.241-.034,1.384,1.384,0,0,0,.169-.072c.047-.025.09-.049.127-.072a.217.217,0,0,1,.113-.034.179.179,0,0,1,.113.034.512.512,0,0,1,.093.1l.463.75a2.338,2.338,0,0,1-.775.425A2.854,2.854,0,0,1,48.541,46.1Z" fill="#fff"/>
          <path d="M54.234,39.487a3.122,3.122,0,0,1,1.116.2,2.444,2.444,0,0,1,.878.565,2.568,2.568,0,0,1,.575.912,3.465,3.465,0,0,1,.206,1.235,2.35,2.35,0,0,1-.015.291.484.484,0,0,1-.056.18.233.233,0,0,1-.11.094.443.443,0,0,1-.175.028H52.69a2.214,2.214,0,0,0,.532,1.451,1.655,1.655,0,0,0,1.225.462,2.133,2.133,0,0,0,.647-.087,3.222,3.222,0,0,0,.475-.194c.135-.071.254-.136.356-.194a.6.6,0,0,1,.3-.087.334.334,0,0,1,.162.037.363.363,0,0,1,.119.106l.45.563a2.576,2.576,0,0,1-.575.5,3.205,3.205,0,0,1-.666.325,3.691,3.691,0,0,1-.706.172,5.1,5.1,0,0,1-.7.05,3.427,3.427,0,0,1-1.244-.222,2.775,2.775,0,0,1-1-.656,3.08,3.08,0,0,1-.668-1.075,4.154,4.154,0,0,1-.244-1.485,3.54,3.54,0,0,1,.213-1.234,2.949,2.949,0,0,1,.609-1.006,2.879,2.879,0,0,1,.969-.679A3.182,3.182,0,0,1,54.234,39.487Zm.032,1.107a1.428,1.428,0,0,0-1.057.381,1.877,1.877,0,0,0-.487,1.082h2.9a1.938,1.938,0,0,0-.081-.567,1.321,1.321,0,0,0-.25-.465,1.211,1.211,0,0,0-.425-.316A1.466,1.466,0,0,0,54.266,40.594Z" fill="#fff"/>
          <path d="M58.578,46V39.588h.943a.381.381,0,0,1,.395.281l.105.506a3.565,3.565,0,0,1,.41-.362,2.9,2.9,0,0,1,.456-.282,2.37,2.37,0,0,1,.516-.181,2.682,2.682,0,0,1,.6-.063,2.294,2.294,0,0,1,.931.179,1.824,1.824,0,0,1,.678.5,2.211,2.211,0,0,1,.413.769,3.254,3.254,0,0,1,.141.984V46H62.622V41.919a1.37,1.37,0,0,0-.272-.909,1.009,1.009,0,0,0-.816-.322,1.609,1.609,0,0,0-.75.181,2.7,2.7,0,0,0-.662.493V46Z" fill="#fff"/>
        </g>
      </g>
    </g>
  </g>
</svg>
