<svg xmlns="http://www.w3.org/2000/svg" viewBox="0 0 76 67">
  <title>B3_praktika_hover</title>
  <g id="Ebene_2" data-name="Ebene 2">
    <g id="Ebene_1-2" data-name="Ebene 1">
      <g>
        <path id="Rechteck_57" data-name="Rechteck 57" d="M15.5.5h45a14.926,14.926,0,0,1,15,14.85v36.3a14.926,14.926,0,0,1-15,14.85h-45A14.926,14.926,0,0,1,.5,51.65V15.35A14.926,14.926,0,0,1,15.5.5Z" fill="#28497c" stroke="#c6d1ec" stroke-miterlimit="10"/>
        <g>
          <path d="M14.954,35.691V39H13.206V29.6h3.061a5.378,5.378,0,0,1,1.632.221,3.155,3.155,0,0,1,1.137.617,2.429,2.429,0,0,1,.663.95,3.527,3.527,0,0,1-.013,2.46,2.592,2.592,0,0,1-.682.978,3.174,3.174,0,0,1-1.138.637,5.056,5.056,0,0,1-1.6.227Zm0-1.365h1.313a2.644,2.644,0,0,0,.839-.12,1.538,1.538,0,0,0,.591-.345,1.405,1.405,0,0,0,.351-.546,2.078,2.078,0,0,0,.117-.717,1.9,1.9,0,0,0-.117-.683,1.347,1.347,0,0,0-.351-.52,1.579,1.579,0,0,0-.591-.329,2.806,2.806,0,0,0-.839-.113H14.954Z" fill="#c6d1ec"/>
          <path d="M21.506,39V32.331h.943a.5.5,0,0,1,.344.091.518.518,0,0,1,.13.312l.1.806a3.176,3.176,0,0,1,.838-.975,1.769,1.769,0,0,1,1.079-.358,1.389,1.389,0,0,1,.819.228l-.208,1.2a.247.247,0,0,1-.084.166.29.29,0,0,1-.175.048,1.112,1.112,0,0,1-.267-.045,1.752,1.752,0,0,0-.449-.046,1.371,1.371,0,0,0-.858.276,2.127,2.127,0,0,0-.6.81V39Z" fill="#c6d1ec"/>
          <path d="M32.179,39h-.721a.773.773,0,0,1-.358-.068.44.44,0,0,1-.2-.277l-.143-.474a5.551,5.551,0,0,1-.5.4,3.031,3.031,0,0,1-.5.289,2.551,2.551,0,0,1-.553.176,3.31,3.31,0,0,1-.649.058,2.583,2.583,0,0,1-.78-.114,1.66,1.66,0,0,1-.614-.343,1.531,1.531,0,0,1-.4-.567,2.006,2.006,0,0,1-.143-.789,1.565,1.565,0,0,1,.2-.747,1.877,1.877,0,0,1,.659-.665,4.262,4.262,0,0,1,1.229-.492,7.816,7.816,0,0,1,1.905-.2V34.8a1.491,1.491,0,0,0-.283-1,1.032,1.032,0,0,0-.822-.324,1.98,1.98,0,0,0-.65.091,2.545,2.545,0,0,0-.452.2c-.128.076-.246.144-.354.2a.729.729,0,0,1-.358.09.466.466,0,0,1-.279-.084.671.671,0,0,1-.189-.208l-.292-.513a3.966,3.966,0,0,1,2.775-1.054,2.675,2.675,0,0,1,1.043.192,2.209,2.209,0,0,1,.777.534,2.276,2.276,0,0,1,.485.815,3.146,3.146,0,0,1,.165,1.04Zm-3.12-1a2.153,2.153,0,0,0,.455-.045,1.672,1.672,0,0,0,.393-.134,2.128,2.128,0,0,0,.358-.22,3.333,3.333,0,0,0,.348-.311V36.173a6.522,6.522,0,0,0-1.174.088,3.142,3.142,0,0,0-.757.225.983.983,0,0,0-.406.322.713.713,0,0,0-.12.4.7.7,0,0,0,.25.608A1.075,1.075,0,0,0,29.059,38Z" fill="#c6d1ec"/>
          <path d="M35.708,29.341v5.531h.3a.582.582,0,0,0,.253-.045.649.649,0,0,0,.2-.169l1.658-2.048a.963.963,0,0,1,.234-.2.627.627,0,0,1,.324-.074h1.47l-2.074,2.477a3.269,3.269,0,0,1-.227.25,1.459,1.459,0,0,1-.254.2,1.207,1.207,0,0,1,.241.227c.069.087.138.18.208.28L40.259,39h-1.45a.7.7,0,0,1-.318-.065.626.626,0,0,1-.235-.221l-1.7-2.528a.524.524,0,0,0-.2-.2.727.727,0,0,0-.292-.045h-.365V39H34.1V29.341Z" fill="#c6d1ec"/>
          <path d="M43.769,39.1a1.755,1.755,0,0,1-1.333-.491,1.883,1.883,0,0,1-.468-1.355V33.533h-.676a.327.327,0,0,1-.224-.084.321.321,0,0,1-.094-.254v-.636l1.072-.176.338-1.82a.323.323,0,0,1,.12-.2.38.38,0,0,1,.238-.071h.832v2.1h1.755v1.143H43.574v3.614a.709.709,0,0,0,.155.488.531.531,0,0,0,.417.176.724.724,0,0,0,.25-.037,1.28,1.28,0,0,0,.175-.074c.05-.026.095-.051.134-.075a.229.229,0,0,1,.117-.035.186.186,0,0,1,.116.035.554.554,0,0,1,.1.107l.481.781a2.446,2.446,0,0,1-.806.441A2.986,2.986,0,0,1,43.769,39.1Z" fill="#c6d1ec"/>
          <path d="M48.884,30.388a.916.916,0,0,1-.084.389,1.1,1.1,0,0,1-.225.319,1.042,1.042,0,0,1-.328.217.991.991,0,0,1-.4.082.955.955,0,0,1-.393-.082,1.024,1.024,0,0,1-.539-.536.93.93,0,0,1-.082-.389,1,1,0,0,1,.082-.4,1.018,1.018,0,0,1,.217-.325,1.064,1.064,0,0,1,.322-.218.987.987,0,0,1,.393-.081,1.025,1.025,0,0,1,.4.081,1.048,1.048,0,0,1,.553.543A.981.981,0,0,1,48.884,30.388Zm-.24,1.943V39H47.038V32.331Z" fill="#c6d1ec"/>
          <path d="M52.407,29.341v5.531h.3a.582.582,0,0,0,.253-.045.649.649,0,0,0,.2-.169l1.658-2.048a.963.963,0,0,1,.234-.2.628.628,0,0,1,.325-.074H56.84l-2.074,2.477a3.074,3.074,0,0,1-.227.25,1.459,1.459,0,0,1-.254.2,1.181,1.181,0,0,1,.241.227c.069.087.139.18.208.28L56.957,39h-1.45a.7.7,0,0,1-.318-.065.617.617,0,0,1-.234-.221l-1.7-2.528a.524.524,0,0,0-.2-.2.723.723,0,0,0-.292-.045h-.364V39H50.8V29.341Z" fill="#c6d1ec"/>
          <path d="M63.5,39h-.721a.773.773,0,0,1-.358-.068.435.435,0,0,1-.194-.277l-.144-.474a5.412,5.412,0,0,1-.5.4,3.031,3.031,0,0,1-.5.289,2.56,2.56,0,0,1-.552.176,3.328,3.328,0,0,1-.65.058,2.583,2.583,0,0,1-.78-.114,1.668,1.668,0,0,1-.614-.343,1.531,1.531,0,0,1-.4-.567,2.024,2.024,0,0,1-.143-.789,1.565,1.565,0,0,1,.2-.747,1.872,1.872,0,0,1,.66-.665,4.243,4.243,0,0,1,1.228-.492,7.822,7.822,0,0,1,1.905-.2V34.8a1.491,1.491,0,0,0-.283-1,1.032,1.032,0,0,0-.822-.324,1.98,1.98,0,0,0-.65.091,2.545,2.545,0,0,0-.452.2c-.127.076-.246.144-.354.2a.725.725,0,0,1-.357.09.467.467,0,0,1-.28-.084.671.671,0,0,1-.189-.208l-.292-.513a3.966,3.966,0,0,1,2.775-1.054,2.684,2.684,0,0,1,1.044.192,2.227,2.227,0,0,1,.777.534,2.288,2.288,0,0,1,.484.815,3.146,3.146,0,0,1,.165,1.04Zm-3.12-1a2.146,2.146,0,0,0,.455-.045,1.672,1.672,0,0,0,.393-.134,2.128,2.128,0,0,0,.358-.22,3.333,3.333,0,0,0,.348-.311V36.173a6.51,6.51,0,0,0-1.173.088,3.138,3.138,0,0,0-.758.225.983.983,0,0,0-.406.322.713.713,0,0,0-.12.4.705.705,0,0,0,.25.608A1.075,1.075,0,0,0,60.382,38Z" fill="#c6d1ec"/>
        </g>
      </g>
    </g>
  </g>
</svg>
