<svg xmlns="http://www.w3.org/2000/svg" viewBox="0 0 76 67">
  <title>B4_kcl_hover</title>
  <g id="Ebene_2" data-name="Ebene 2">
    <g id="Ebene_1-2" data-name="Ebene 1">
      <g>
        <path id="Rechteck_57" data-name="Rechteck 57" d="M15.5.5h45a14.926,14.926,0,0,1,15,14.85v36.3a14.926,14.926,0,0,1-15,14.85h-45A14.926,14.926,0,0,1,.5,51.65V15.35A14.926,14.926,0,0,1,15.5.5Z" fill="#28497c" stroke="#c6d1ec" stroke-miterlimit="10"/>
        <g>
          <path d="M25.749,34.02h.6a1.562,1.562,0,0,0,.6-.1,1,1,0,0,0,.408-.318l3.791-4.8a1.371,1.371,0,0,1,.5-.423,1.6,1.6,0,0,1,.66-.118h2.2l-4.626,5.709a4.212,4.212,0,0,1-.418.446,1.887,1.887,0,0,1-.428.294,1.882,1.882,0,0,1,.566.324,3.066,3.066,0,0,1,.489.531L34.86,42H32.6a1.4,1.4,0,0,1-.68-.129,1.068,1.068,0,0,1-.375-.375l-3.885-5.072a1.16,1.16,0,0,0-.428-.357,1.655,1.655,0,0,0-.674-.109h-.808V42H23.194V28.254h2.555Z" fill="#c6d1ec"/>
          <path d="M45.528,38.761a.478.478,0,0,1,.361.161L46.9,40.015A5.539,5.539,0,0,1,44.839,41.6a7.09,7.09,0,0,1-2.93.55,6.891,6.891,0,0,1-2.75-.523,6.05,6.05,0,0,1-2.086-1.453,6.371,6.371,0,0,1-1.325-2.223,8.349,8.349,0,0,1-.461-2.822A7.6,7.6,0,0,1,35.8,32.3a6.405,6.405,0,0,1,3.672-3.667,7.639,7.639,0,0,1,2.864-.518,6.745,6.745,0,0,1,2.674.489,6.292,6.292,0,0,1,1.962,1.3l-.855,1.188a.787.787,0,0,1-.2.2.55.55,0,0,1-.327.085.746.746,0,0,1-.447-.17,5.385,5.385,0,0,0-.579-.371,4.762,4.762,0,0,0-.888-.371,5.155,5.155,0,0,0-3.145.166,3.974,3.974,0,0,0-1.4.965,4.417,4.417,0,0,0-.912,1.525,5.843,5.843,0,0,0-.328,2.018,6,6,0,0,0,.328,2.062,4.518,4.518,0,0,0,.888,1.52,3.792,3.792,0,0,0,1.32.945,4.073,4.073,0,0,0,1.634.328,7.331,7.331,0,0,0,.946-.056,4.031,4.031,0,0,0,.778-.182,3.36,3.36,0,0,0,.675-.318,4.162,4.162,0,0,0,.632-.479.89.89,0,0,1,.2-.138A.49.49,0,0,1,45.528,38.761Z" fill="#c6d1ec"/>
          <path d="M51.38,39.891h5.5V42H48.825V28.264H51.38Z" fill="#c6d1ec"/>
        </g>
      </g>
    </g>
  </g>
</svg>
