<svg xmlns="http://www.w3.org/2000/svg" viewBox="0 0 76 67">
  <title>B5_beratung</title>
  <g id="Ebene_2" data-name="Ebene 2">
    <g id="Ebene_1-2" data-name="Ebene 1">
      <g>
        <path id="Rechteck_57" data-name="Rechteck 57" d="M15.5.5h45a14.926,14.926,0,0,1,15,14.85v36.3a14.926,14.926,0,0,1-15,14.85h-45A14.926,14.926,0,0,1,.5,51.65V15.35A14.926,14.926,0,0,1,15.5.5Z" fill="#28497c" stroke="#fff" stroke-miterlimit="10"/>
        <g>
          <path d="M11.641,38V28.6h3.243a6.138,6.138,0,0,1,1.576.175,3.037,3.037,0,0,1,1.073.5,1.934,1.934,0,0,1,.614.786,2.654,2.654,0,0,1,.2,1.041,2.049,2.049,0,0,1-.1.633,1.857,1.857,0,0,1-.3.566,2.242,2.242,0,0,1-.52.477,3.143,3.143,0,0,1-.751.365q1.936.435,1.937,2.092a2.663,2.663,0,0,1-.228,1.106,2.434,2.434,0,0,1-.663.874,3.171,3.171,0,0,1-1.072.575A4.678,4.678,0,0,1,15.19,38Zm1.748-5.33h1.4a2.341,2.341,0,0,0,1.352-.325,1.178,1.178,0,0,0,.462-1.033,1.229,1.229,0,0,0-.416-1.047,2.179,2.179,0,0,0-1.3-.312h-1.5Zm0,1.209v2.756h1.775a2.445,2.445,0,0,0,.815-.117,1.416,1.416,0,0,0,.527-.312,1.135,1.135,0,0,0,.286-.455,1.7,1.7,0,0,0,.088-.553,1.471,1.471,0,0,0-.1-.549,1.024,1.024,0,0,0-.3-.416,1.416,1.416,0,0,0-.533-.263,2.94,2.94,0,0,0-.787-.091Z" fill="#fff"/>
          <path d="M23.1,31.227a3.229,3.229,0,0,1,1.161.2,2.537,2.537,0,0,1,.913.588,2.674,2.674,0,0,1,.6.949,3.584,3.584,0,0,1,.214,1.283,2.3,2.3,0,0,1-.016.3.491.491,0,0,1-.058.188.241.241,0,0,1-.114.1.5.5,0,0,1-.182.029H21.5a2.294,2.294,0,0,0,.552,1.508,1.725,1.725,0,0,0,1.274.481,2.191,2.191,0,0,0,.673-.091,3.047,3.047,0,0,0,.494-.2c.141-.073.264-.14.37-.2a.631.631,0,0,1,.309-.091.346.346,0,0,1,.169.039.373.373,0,0,1,.124.111l.468.585a2.656,2.656,0,0,1-.6.522,3.335,3.335,0,0,1-.692.339,3.863,3.863,0,0,1-.735.179,5.367,5.367,0,0,1-.725.052,3.556,3.556,0,0,1-1.293-.231,2.912,2.912,0,0,1-1.04-.682,3.2,3.2,0,0,1-.7-1.119,4.328,4.328,0,0,1-.253-1.544,3.682,3.682,0,0,1,.221-1.284,3.106,3.106,0,0,1,.633-1.046,3.005,3.005,0,0,1,1.008-.705A3.309,3.309,0,0,1,23.1,31.227Zm.033,1.151a1.488,1.488,0,0,0-1.1.4,1.959,1.959,0,0,0-.507,1.124h3.016a2,2,0,0,0-.084-.587,1.366,1.366,0,0,0-.26-.485,1.233,1.233,0,0,0-.442-.328A1.51,1.51,0,0,0,23.133,32.378Z" fill="#fff"/>
          <path d="M27.618,38V31.331h.942a.5.5,0,0,1,.345.091.524.524,0,0,1,.13.312l.1.806a3.178,3.178,0,0,1,.839-.975,1.767,1.767,0,0,1,1.079-.358,1.394,1.394,0,0,1,.819.228l-.208,1.2a.248.248,0,0,1-.085.166.286.286,0,0,1-.175.048,1.112,1.112,0,0,1-.267-.045,1.749,1.749,0,0,0-.448-.046,1.367,1.367,0,0,0-.858.276,2.129,2.129,0,0,0-.605.81V38Z" fill="#fff"/>
          <path d="M38.291,38h-.722a.773.773,0,0,1-.358-.068.439.439,0,0,1-.194-.277l-.143-.474a5.42,5.42,0,0,1-.5.4,3.064,3.064,0,0,1-.5.289,2.587,2.587,0,0,1-.553.176,3.328,3.328,0,0,1-.65.058,2.583,2.583,0,0,1-.78-.114,1.668,1.668,0,0,1-.614-.343,1.531,1.531,0,0,1-.4-.567,2.024,2.024,0,0,1-.143-.789,1.565,1.565,0,0,1,.2-.747,1.872,1.872,0,0,1,.66-.665,4.243,4.243,0,0,1,1.228-.492,7.827,7.827,0,0,1,1.9-.2V33.8a1.491,1.491,0,0,0-.283-1,1.031,1.031,0,0,0-.822-.324,1.98,1.98,0,0,0-.65.091,2.545,2.545,0,0,0-.452.2c-.127.076-.246.144-.354.2a.723.723,0,0,1-.357.09.467.467,0,0,1-.28-.084.671.671,0,0,1-.189-.208l-.292-.513a3.966,3.966,0,0,1,2.775-1.054,2.684,2.684,0,0,1,1.044.192,2.227,2.227,0,0,1,.777.534,2.288,2.288,0,0,1,.484.815,3.146,3.146,0,0,1,.166,1.04ZM35.17,37a2.146,2.146,0,0,0,.455-.045,1.68,1.68,0,0,0,.394-.134,2.161,2.161,0,0,0,.357-.22,3.333,3.333,0,0,0,.348-.311V35.173a6.51,6.51,0,0,0-1.173.088,3.138,3.138,0,0,0-.758.225.983.983,0,0,0-.406.322.713.713,0,0,0-.12.4.705.705,0,0,0,.25.608A1.075,1.075,0,0,0,35.17,37Z" fill="#fff"/>
          <path d="M42.385,38.1a1.754,1.754,0,0,1-1.332-.491,1.883,1.883,0,0,1-.468-1.355V32.533h-.676a.308.308,0,0,1-.319-.338v-.636l1.073-.176L41,29.563a.323.323,0,0,1,.12-.2.379.379,0,0,1,.237-.071h.832v2.1h1.755v1.143H42.19v3.614a.71.71,0,0,0,.156.488.53.53,0,0,0,.416.176.73.73,0,0,0,.251-.037,1.28,1.28,0,0,0,.175-.074c.05-.026.094-.051.133-.075a.229.229,0,0,1,.117-.035.187.187,0,0,1,.117.035.588.588,0,0,1,.1.107l.481.781a2.456,2.456,0,0,1-.806.441A3,3,0,0,1,42.385,38.1Z" fill="#fff"/>
          <path d="M47.02,31.331v4.238a1.421,1.421,0,0,0,.283.946,1.047,1.047,0,0,0,.848.335,1.692,1.692,0,0,0,.78-.186,2.723,2.723,0,0,0,.689-.51V31.331h1.606V38h-.982a.4.4,0,0,1-.41-.293l-.11-.532a4.865,4.865,0,0,1-.429.38,2.622,2.622,0,0,1-.471.293,2.687,2.687,0,0,1-.54.188,2.727,2.727,0,0,1-.62.068,2.378,2.378,0,0,1-.966-.185,1.94,1.94,0,0,1-.7-.523,2.291,2.291,0,0,1-.432-.8,3.388,3.388,0,0,1-.146-1.024V31.331Z" fill="#fff"/>
          <path d="M53.266,38V31.331h.982a.4.4,0,0,1,.409.292l.111.527a3.76,3.76,0,0,1,.425-.377,3.02,3.02,0,0,1,.475-.293,2.429,2.429,0,0,1,.536-.188,2.839,2.839,0,0,1,.624-.065,2.4,2.4,0,0,1,.969.185,1.921,1.921,0,0,1,.705.521,2.292,2.292,0,0,1,.429.8,3.426,3.426,0,0,1,.146,1.025V38h-1.6V33.756a1.428,1.428,0,0,0-.283-.946,1.049,1.049,0,0,0-.848-.335,1.676,1.676,0,0,0-.78.188,2.779,2.779,0,0,0-.689.514V38Z" fill="#fff"/>
          <path d="M63.29,31.214a3.524,3.524,0,0,1,.806.088,2.719,2.719,0,0,1,.689.257H66.7v.6a.335.335,0,0,1-.078.235.468.468,0,0,1-.267.117l-.6.11a2.12,2.12,0,0,1,.136.754,1.99,1.99,0,0,1-.2.894,2.024,2.024,0,0,1-.546.679,2.524,2.524,0,0,1-.826.432,3.378,3.378,0,0,1-1.036.153,3.785,3.785,0,0,1-.735-.071.525.525,0,0,0-.312.425.314.314,0,0,0,.185.3,1.512,1.512,0,0,0,.488.134,5.22,5.22,0,0,0,.686.039q.383,0,.786.033a6.249,6.249,0,0,1,.786.114,2.326,2.326,0,0,1,.686.258,1.373,1.373,0,0,1,.488.479,1.481,1.481,0,0,1,.185.78,1.84,1.84,0,0,1-.218.86,2.32,2.32,0,0,1-.63.744,3.279,3.279,0,0,1-1.011.524,4.309,4.309,0,0,1-1.365.2A5.222,5.222,0,0,1,61.99,40.2a3.083,3.083,0,0,1-.927-.389,1.7,1.7,0,0,1-.549-.563,1.325,1.325,0,0,1-.182-.663,1.131,1.131,0,0,1,.286-.786,1.96,1.96,0,0,1,.793-.508,1.1,1.1,0,0,1-.4-.363,1.061,1.061,0,0,1-.15-.592.987.987,0,0,1,.052-.309,1.261,1.261,0,0,1,.159-.315,1.61,1.61,0,0,1,.27-.3,1.837,1.837,0,0,1,.383-.25,2.114,2.114,0,0,1-.8-.728,1.943,1.943,0,0,1-.289-1.066,1.982,1.982,0,0,1,.2-.893A2.008,2.008,0,0,1,61.4,31.8a2.522,2.522,0,0,1,.838-.433A3.591,3.591,0,0,1,63.29,31.214Zm1.761,7.066a.458.458,0,0,0-.117-.325.773.773,0,0,0-.318-.2,2.423,2.423,0,0,0-.472-.1,4.711,4.711,0,0,0-.572-.033h-.624a2.637,2.637,0,0,1-.62-.071,1.469,1.469,0,0,0-.439.353.727.727,0,0,0-.166.472.64.64,0,0,0,.088.328.729.729,0,0,0,.279.264,1.681,1.681,0,0,0,.5.172,3.877,3.877,0,0,0,.748.061,3.694,3.694,0,0,0,.773-.069,1.851,1.851,0,0,0,.537-.193.817.817,0,0,0,.309-.292A.723.723,0,0,0,65.051,38.28ZM63.29,34.5a1.514,1.514,0,0,0,.52-.081,1.03,1.03,0,0,0,.367-.225.922.922,0,0,0,.221-.344,1.258,1.258,0,0,0,.075-.442,1.045,1.045,0,0,0-.3-.783,1.507,1.507,0,0,0-1.775,0,1.045,1.045,0,0,0-.3.783,1.244,1.244,0,0,0,.075.436.967.967,0,0,0,.221.347,1,1,0,0,0,.371.228A1.517,1.517,0,0,0,63.29,34.5Z" fill="#fff"/>
        </g>
      </g>
    </g>
  </g>
</svg>
