<svg xmlns="http://www.w3.org/2000/svg" viewBox="0 0 76 67">
  <title>B6_po_hover</title>
  <g id="Ebene_2" data-name="Ebene 2">
    <g id="Ebene_1-2" data-name="Ebene 1">
      <g>
        <path id="Rechteck_57" data-name="Rechteck 57" d="M15.5.5h45a14.926,14.926,0,0,1,15,14.85v36.3a14.926,14.926,0,0,1-15,14.85h-45A14.926,14.926,0,0,1,.5,51.65V15.35A14.926,14.926,0,0,1,15.5.5Z" fill="#28497c" stroke="#c6d1ec" stroke-miterlimit="10"/>
        <g>
          <path d="M14.455,29.946V33H12.841V24.324h2.826a4.951,4.951,0,0,1,1.506.2,2.9,2.9,0,0,1,1.05.57,2.22,2.22,0,0,1,.611.876,3.038,3.038,0,0,1,.2,1.116,3.1,3.1,0,0,1-.21,1.155,2.4,2.4,0,0,1-.63.9,2.932,2.932,0,0,1-1.05.588,4.68,4.68,0,0,1-1.476.21Zm0-1.26h1.212a2.425,2.425,0,0,0,.773-.111,1.435,1.435,0,0,0,.547-.318,1.3,1.3,0,0,0,.324-.5,1.929,1.929,0,0,0,.107-.663,1.75,1.75,0,0,0-.107-.63,1.245,1.245,0,0,0-.324-.48,1.438,1.438,0,0,0-.547-.3,2.553,2.553,0,0,0-.773-.105H14.455Z" fill="#c6d1ec"/>
          <path d="M20.5,33V26.844h.871a.465.465,0,0,1,.317.084.483.483,0,0,1,.121.288l.089.744a2.938,2.938,0,0,1,.774-.9,1.629,1.629,0,0,1,1-.33,1.283,1.283,0,0,1,.756.21l-.192,1.11a.225.225,0,0,1-.078.153.261.261,0,0,1-.161.045,1.01,1.01,0,0,1-.246-.042,1.655,1.655,0,0,0-.415-.042,1.257,1.257,0,0,0-.792.255,1.963,1.963,0,0,0-.558.747V33Z" fill="#c6d1ec"/>
          <path d="M27.061,26.844v3.912a1.309,1.309,0,0,0,.261.873.967.967,0,0,0,.782.309,1.569,1.569,0,0,0,.721-.171,2.512,2.512,0,0,0,.635-.471V26.844h1.482V33h-.905a.364.364,0,0,1-.378-.27l-.1-.492a4.425,4.425,0,0,1-.4.351,2.374,2.374,0,0,1-.933.444,2.5,2.5,0,0,1-.573.063,2.179,2.179,0,0,1-.891-.171,1.776,1.776,0,0,1-.651-.483,2.133,2.133,0,0,1-.4-.741,3.169,3.169,0,0,1-.134-.945V26.844Zm.954-1.6a.76.76,0,0,1-.066.315.79.79,0,0,1-.183.255.9.9,0,0,1-.27.171.835.835,0,0,1-.321.063.769.769,0,0,1-.309-.063.9.9,0,0,1-.262-.171.81.81,0,0,1-.179-.255.745.745,0,0,1-.067-.315.8.8,0,0,1,.067-.327.864.864,0,0,1,.179-.267.887.887,0,0,1,.262-.18.739.739,0,0,1,.309-.066.8.8,0,0,1,.321.066.886.886,0,0,1,.27.18.841.841,0,0,1,.183.267A.817.817,0,0,1,28.015,25.248Zm2.244,0a.761.761,0,0,1-.067.315.81.81,0,0,1-.179.255.86.86,0,0,1-.267.171.835.835,0,0,1-.321.063.828.828,0,0,1-.579-.234.807.807,0,0,1-.178-.255.776.776,0,0,1-.065-.315.833.833,0,0,1,.065-.327.861.861,0,0,1,.178-.267.808.808,0,0,1,.26-.18.789.789,0,0,1,.319-.066.8.8,0,0,1,.321.066.849.849,0,0,1,.267.18.864.864,0,0,1,.179.267A.817.817,0,0,1,30.259,25.248Z" fill="#c6d1ec"/>
          <path d="M33.091,33V27.96l-.534-.084a.564.564,0,0,1-.279-.12.314.314,0,0,1-.1-.252V26.9h.918v-.456a2.662,2.662,0,0,1,.159-.948,1.958,1.958,0,0,1,.456-.714,1.979,1.979,0,0,1,.723-.45,2.774,2.774,0,0,1,.96-.156,2.651,2.651,0,0,1,.792.114l-.03.744a.217.217,0,0,1-.162.216,1.3,1.3,0,0,1-.348.042,1.79,1.79,0,0,0-.472.057.8.8,0,0,0-.35.2.887.887,0,0,0-.219.372,1.878,1.878,0,0,0-.075.573V26.9h1.6v1.056H34.573V33Z" fill="#c6d1ec"/>
          <path d="M38.688,26.844v3.912a1.31,1.31,0,0,0,.262.873.967.967,0,0,0,.782.309,1.569,1.569,0,0,0,.721-.171,2.512,2.512,0,0,0,.635-.471V26.844H42.57V33h-.905a.364.364,0,0,1-.378-.27l-.1-.492a4.425,4.425,0,0,1-.4.351,2.459,2.459,0,0,1-.435.27,2.428,2.428,0,0,1-.5.174,2.482,2.482,0,0,1-.572.063,2.179,2.179,0,0,1-.891-.171,1.776,1.776,0,0,1-.651-.483,2.117,2.117,0,0,1-.4-.741,3.137,3.137,0,0,1-.134-.945V26.844Z" fill="#c6d1ec"/>
          <path d="M44.455,33V26.844h.906a.364.364,0,0,1,.378.27l.1.486a3.367,3.367,0,0,1,.392-.348,2.836,2.836,0,0,1,.438-.27,2.258,2.258,0,0,1,.5-.174,2.6,2.6,0,0,1,.576-.06,2.21,2.21,0,0,1,.894.171,1.775,1.775,0,0,1,.651.48,2.126,2.126,0,0,1,.4.738,3.169,3.169,0,0,1,.134.945V33H48.336V29.082a1.315,1.315,0,0,0-.26-.873.97.97,0,0,0-.784-.309,1.539,1.539,0,0,0-.719.174,2.58,2.58,0,0,0-.636.474V33Z" fill="#c6d1ec"/>
          <path d="M53.706,26.736a3.276,3.276,0,0,1,.744.081,2.535,2.535,0,0,1,.636.237h1.77v.552a.3.3,0,0,1-.072.216.428.428,0,0,1-.246.108l-.552.1a1.907,1.907,0,0,1,.093.33,1.969,1.969,0,0,1,.033.366,1.814,1.814,0,0,1-.687,1.452,2.34,2.34,0,0,1-.762.4,3.127,3.127,0,0,1-.957.141,3.449,3.449,0,0,1-.678-.066q-.288.176-.288.393a.289.289,0,0,0,.171.275,1.373,1.373,0,0,0,.45.123,4.8,4.8,0,0,0,.633.037q.354,0,.726.03a5.716,5.716,0,0,1,.726.105,2.16,2.16,0,0,1,.633.238,1.273,1.273,0,0,1,.45.443,1.359,1.359,0,0,1,.171.719,1.7,1.7,0,0,1-.2.795,2.145,2.145,0,0,1-.582.686,3.041,3.041,0,0,1-.933.484,4,4,0,0,1-1.26.184,4.851,4.851,0,0,1-1.218-.135,2.843,2.843,0,0,1-.855-.36,1.561,1.561,0,0,1-.507-.519,1.217,1.217,0,0,1-.168-.612,1.047,1.047,0,0,1,.264-.726,1.809,1.809,0,0,1,.732-.468,1.021,1.021,0,0,1-.366-.336.978.978,0,0,1-.138-.546.916.916,0,0,1,.048-.285,1.139,1.139,0,0,1,.147-.291,1.433,1.433,0,0,1,.249-.273,1.718,1.718,0,0,1,.354-.231,1.942,1.942,0,0,1-.735-.672,1.8,1.8,0,0,1-.267-.984,1.807,1.807,0,0,1,.693-1.455,2.326,2.326,0,0,1,.774-.4A3.292,3.292,0,0,1,53.706,26.736Zm1.626,6.523a.426.426,0,0,0-.108-.3.715.715,0,0,0-.294-.181,2.1,2.1,0,0,0-.435-.094,4.214,4.214,0,0,0-.528-.031h-.576a2.455,2.455,0,0,1-.573-.066,1.34,1.34,0,0,0-.405.327.672.672,0,0,0-.153.435.6.6,0,0,0,.081.3.676.676,0,0,0,.258.243,1.533,1.533,0,0,0,.459.159,3.549,3.549,0,0,0,.69.057,3.443,3.443,0,0,0,.714-.064,1.714,1.714,0,0,0,.495-.178.766.766,0,0,0,.285-.269A.673.673,0,0,0,55.332,33.259Zm-1.626-3.487a1.39,1.39,0,0,0,.48-.075.942.942,0,0,0,.339-.207.853.853,0,0,0,.2-.318,1.165,1.165,0,0,0,.069-.408.965.965,0,0,0-.273-.723,1.39,1.39,0,0,0-1.638,0,.965.965,0,0,0-.273.723,1.147,1.147,0,0,0,.069.4.881.881,0,0,0,.2.321.917.917,0,0,0,.342.21A1.4,1.4,0,0,0,53.706,29.772Z" fill="#c6d1ec"/>
          <path d="M61.74,28.044a.4.4,0,0,1-.126.135.326.326,0,0,1-.168.039.533.533,0,0,1-.231-.06c-.082-.04-.176-.085-.284-.135a2.705,2.705,0,0,0-.369-.135,1.78,1.78,0,0,0-.49-.06,1.139,1.139,0,0,0-.69.186.577.577,0,0,0-.252.486.464.464,0,0,0,.129.333,1.152,1.152,0,0,0,.343.237,3.288,3.288,0,0,0,.482.183c.181.054.364.113.552.177s.372.137.552.219a1.907,1.907,0,0,1,.483.312,1.467,1.467,0,0,1,.343.453,1.437,1.437,0,0,1,.129.636,2.044,2.044,0,0,1-.163.819,1.789,1.789,0,0,1-.474.648,2.212,2.212,0,0,1-.771.426,3.584,3.584,0,0,1-1.673.1,3.677,3.677,0,0,1-.583-.159,3.175,3.175,0,0,1-.516-.24,2.547,2.547,0,0,1-.417-.3l.343-.564a.481.481,0,0,1,.155-.156.437.437,0,0,1,.228-.054.479.479,0,0,1,.261.078q.123.078.285.168a2.548,2.548,0,0,0,.381.168,1.676,1.676,0,0,0,.555.078A1.446,1.446,0,0,0,60.208,32a.969.969,0,0,0,.312-.165.617.617,0,0,0,.179-.237.711.711,0,0,0,.057-.279.5.5,0,0,0-.129-.354,1.124,1.124,0,0,0-.341-.24,3.318,3.318,0,0,0-.487-.183q-.273-.081-.558-.177a5.065,5.065,0,0,1-.557-.225,1.89,1.89,0,0,1-.487-.327,1.48,1.48,0,0,1-.342-.486,1.713,1.713,0,0,1-.128-.7,1.772,1.772,0,0,1,.149-.72,1.713,1.713,0,0,1,.441-.6,2.19,2.19,0,0,1,.726-.408,3.024,3.024,0,0,1,1.005-.153,3.085,3.085,0,0,1,1.159.21,2.636,2.636,0,0,1,.87.552Z" fill="#c6d1ec"/>
          <path d="M63.438,28.758h3.108v1.236H63.438Z" fill="#c6d1ec"/>
          <path d="M15.247,38.826a3.125,3.125,0,0,1,1.2.222,2.537,2.537,0,0,1,.912.63,2.789,2.789,0,0,1,.576.987,4.269,4.269,0,0,1,0,2.589,2.793,2.793,0,0,1-.576.984,2.5,2.5,0,0,1-.912.627,3.416,3.416,0,0,1-2.407,0,2.551,2.551,0,0,1-.915-.627,2.8,2.8,0,0,1-.581-.984,4.209,4.209,0,0,1,0-2.589,2.8,2.8,0,0,1,.581-.987,2.583,2.583,0,0,1,.915-.63A3.127,3.127,0,0,1,15.247,38.826Zm0,5.424a1.562,1.562,0,0,0,1.344-.6,3.429,3.429,0,0,0,0-3.375,1.558,1.558,0,0,0-1.344-.606,1.862,1.862,0,0,0-.792.156,1.467,1.467,0,0,0-.561.45,2,2,0,0,0-.336.723,4.272,4.272,0,0,0,0,1.935,1.969,1.969,0,0,0,.336.717,1.479,1.479,0,0,0,.561.447A1.862,1.862,0,0,0,15.247,44.25Z" fill="#c6d1ec"/>
          <path d="M20.418,45V38.922h.612a.341.341,0,0,1,.241.066.412.412,0,0,1,.089.228l.073.948a2.769,2.769,0,0,1,.771-.993,1.814,1.814,0,0,1,1.532-.3,1.556,1.556,0,0,1,.378.159l-.137.8a.181.181,0,0,1-.186.15.919.919,0,0,1-.258-.057,1.635,1.635,0,0,0-.487-.057,1.377,1.377,0,0,0-.933.324,2.432,2.432,0,0,0-.627.942V45Z" fill="#c6d1ec"/>
          <path d="M30.493,45a.272.272,0,0,1-.288-.222l-.1-.738a3.2,3.2,0,0,1-.891.759,2.283,2.283,0,0,1-1.149.285,2.194,2.194,0,0,1-.948-.2,1.966,1.966,0,0,1-.726-.591,2.815,2.815,0,0,1-.462-.972,5,5,0,0,1-.162-1.338,4.194,4.194,0,0,1,.18-1.251,3.049,3.049,0,0,1,.519-1.005,2.381,2.381,0,0,1,1.929-.912,2.2,2.2,0,0,1,.954.189,2.287,2.287,0,0,1,.708.531V36.162h1.068V45Zm-2.07-.78a1.72,1.72,0,0,0,.915-.24,2.638,2.638,0,0,0,.723-.678v-2.94a1.69,1.69,0,0,0-.645-.555,1.861,1.861,0,0,0-.777-.159,1.538,1.538,0,0,0-1.308.606,2.83,2.83,0,0,0-.456,1.728,4.394,4.394,0,0,0,.1,1.017,1.957,1.957,0,0,0,.3.7,1.179,1.179,0,0,0,.486.4A1.632,1.632,0,0,0,28.423,44.22Z" fill="#c6d1ec"/>
          <path d="M33.882,45V38.922h.637a.272.272,0,0,1,.287.222l.084.66a3.416,3.416,0,0,1,.885-.708,2.3,2.3,0,0,1,1.131-.27,2.195,2.195,0,0,1,.879.165,1.693,1.693,0,0,1,.636.468,2.067,2.067,0,0,1,.387.729,3.172,3.172,0,0,1,.132.942V45H37.873V41.13a1.63,1.63,0,0,0-.316-1.071,1.178,1.178,0,0,0-.963-.381,1.8,1.8,0,0,0-.885.228,2.931,2.931,0,0,0-.759.618V45Z" fill="#c6d1ec"/>
          <path d="M42.438,38.922V42.8a1.608,1.608,0,0,0,.319,1.068,1.184,1.184,0,0,0,.96.378,1.839,1.839,0,0,0,.882-.222,2.758,2.758,0,0,0,.762-.618V38.922h1.068V45h-.637a.271.271,0,0,1-.287-.222l-.084-.654a3.343,3.343,0,0,1-.888.7,2.327,2.327,0,0,1-1.128.267,2.195,2.195,0,0,1-.879-.165,1.734,1.734,0,0,1-.639-.465,1.96,1.96,0,0,1-.387-.726,3.241,3.241,0,0,1-.129-.942V38.922Z" fill="#c6d1ec"/>
          <path d="M49.146,45V38.922h.637a.271.271,0,0,1,.287.222l.084.66a3.4,3.4,0,0,1,.886-.708,2.3,2.3,0,0,1,1.13-.27,2.195,2.195,0,0,1,.879.165,1.7,1.7,0,0,1,.637.468,2.081,2.081,0,0,1,.386.729,3.14,3.14,0,0,1,.133.942V45H53.137V41.13a1.63,1.63,0,0,0-.316-1.071,1.176,1.176,0,0,0-.963-.381,1.792,1.792,0,0,0-.884.228,2.919,2.919,0,0,0-.76.618V45Z" fill="#c6d1ec"/>
          <path d="M58.824,38.82a3.023,3.023,0,0,1,.741.087,2.331,2.331,0,0,1,.627.255h1.65v.4q0,.2-.252.252l-.69.1a1.848,1.848,0,0,1,.2.87,1.87,1.87,0,0,1-.171.807,1.831,1.831,0,0,1-.474.621,2.128,2.128,0,0,1-.72.4,2.9,2.9,0,0,1-.915.138,3.062,3.062,0,0,1-.8-.1,1.033,1.033,0,0,0-.292.266.5.5,0,0,0-.1.28.379.379,0,0,0,.174.338,1.218,1.218,0,0,0,.462.165,3.891,3.891,0,0,0,.654.049h.747a4.129,4.129,0,0,1,.748.067,2.261,2.261,0,0,1,.653.219,1.225,1.225,0,0,1,.462.418,1.254,1.254,0,0,1,.174.693,1.62,1.62,0,0,1-.2.765,2.063,2.063,0,0,1-.561.66,2.9,2.9,0,0,1-.894.461,3.836,3.836,0,0,1-1.194.173,4.612,4.612,0,0,1-1.167-.132,2.716,2.716,0,0,1-.831-.355,1.543,1.543,0,0,1-.5-.513,1.218,1.218,0,0,1-.165-.61,1.1,1.1,0,0,1,.285-.766,1.962,1.962,0,0,1,.784-.5,1.07,1.07,0,0,1-.412-.321.861.861,0,0,1-.152-.536.833.833,0,0,1,.047-.272,1.074,1.074,0,0,1,.147-.279,1.527,1.527,0,0,1,.244-.263,1.548,1.548,0,0,1,.335-.222,1.891,1.891,0,0,1-.7-.669,1.831,1.831,0,0,1-.254-.975,1.87,1.87,0,0,1,.17-.807,1.784,1.784,0,0,1,.477-.618,2.191,2.191,0,0,1,.729-.393A2.975,2.975,0,0,1,58.824,38.82Zm1.9,6.489a.535.535,0,0,0-.126-.373.811.811,0,0,0-.342-.218,2.474,2.474,0,0,0-.5-.114,4.693,4.693,0,0,0-.594-.036h-.636a2.317,2.317,0,0,1-.618-.081,1.739,1.739,0,0,0-.554.4.8.8,0,0,0-.214.558.735.735,0,0,0,.105.382.905.905,0,0,0,.321.307,1.879,1.879,0,0,0,.543.2,3.49,3.49,0,0,0,.771.075,3.366,3.366,0,0,0,.774-.08,1.917,1.917,0,0,0,.579-.226,1.1,1.1,0,0,0,.363-.349A.826.826,0,0,0,60.72,45.309Zm-1.9-3.279a1.677,1.677,0,0,0,.573-.09,1.158,1.158,0,0,0,.417-.252,1.031,1.031,0,0,0,.252-.387,1.405,1.405,0,0,0,.084-.5,1.185,1.185,0,0,0-.338-.888,1.634,1.634,0,0,0-1.969,0,1.182,1.182,0,0,0-.339.888,1.362,1.362,0,0,0,.087.5,1.063,1.063,0,0,0,.255.387,1.163,1.163,0,0,0,.414.252A1.636,1.636,0,0,0,58.824,42.03Z" fill="#c6d1ec"/>
        </g>
      </g>
    </g>
  </g>
</svg>
