<svg xmlns="http://www.w3.org/2000/svg" viewBox="0 0 76 67">
  <title>B7_tipps_hover</title>
  <g id="Ebene_2" data-name="Ebene 2">
    <g id="Ebene_1-2" data-name="Ebene 1">
      <g>
        <path id="Rechteck_57" data-name="Rechteck 57" d="M15.5.5h45a14.926,14.926,0,0,1,15,14.85v36.3a14.926,14.926,0,0,1-15,14.85h-45A14.926,14.926,0,0,1,.5,51.65V15.35A14.926,14.926,0,0,1,15.5.5Z" fill="#28497c" stroke="#c6d1ec" stroke-miterlimit="10"/>
        <g>
          <path d="M15.549,23.477v.83H11.937v2.5h2.924v.8H11.937v2.567h3.612V31H10.914V23.477Z" fill="#c6d1ec"/>
          <path d="M16.867,31V25.682H17.4a.3.3,0,0,1,.211.057.363.363,0,0,1,.078.2l.063.83a2.435,2.435,0,0,1,.675-.87,1.591,1.591,0,0,1,1.342-.262,1.447,1.447,0,0,1,.33.139l-.121.7a.156.156,0,0,1-.163.13.816.816,0,0,1-.225-.049,1.4,1.4,0,0,0-.425-.05,1.21,1.21,0,0,0-.817.283,2.135,2.135,0,0,0-.548.824V31Z" fill="#c6d1ec"/>
          <path d="M21.309,31V26.479l-.588-.068a.445.445,0,0,1-.181-.081.189.189,0,0,1-.071-.16v-.383h.84v-.515a2.388,2.388,0,0,1,.128-.811,1.658,1.658,0,0,1,.368-.6,1.561,1.561,0,0,1,.574-.37,2.146,2.146,0,0,1,.757-.126,1.988,1.988,0,0,1,.661.106l-.021.466c0,.071-.033.113-.089.126a.965.965,0,0,1-.236.022h-.163a1.426,1.426,0,0,0-.438.062.819.819,0,0,0-.339.206.926.926,0,0,0-.218.373,1.834,1.834,0,0,0-.076.572v.488h1.538v.677H22.248V31Z" fill="#c6d1ec"/>
          <path d="M28.542,31h-.414a.5.5,0,0,1-.221-.042.234.234,0,0,1-.11-.179l-.105-.493c-.14.126-.276.238-.409.339a2.349,2.349,0,0,1-.42.252,2.194,2.194,0,0,1-.47.154,2.693,2.693,0,0,1-.554.053,1.879,1.879,0,0,1-.58-.087,1.308,1.308,0,0,1-.47-.261,1.246,1.246,0,0,1-.318-.439,1.56,1.56,0,0,1-.118-.63,1.177,1.177,0,0,1,.173-.608,1.513,1.513,0,0,1,.559-.519,3.666,3.666,0,0,1,1.011-.372,6.857,6.857,0,0,1,1.528-.145v-.418a1.443,1.443,0,0,0-.265-.942.963.963,0,0,0-.785-.32A1.657,1.657,0,0,0,26,26.43a2.143,2.143,0,0,0-.4.194c-.114.072-.212.137-.294.194a.426.426,0,0,1-.244.087.276.276,0,0,1-.166-.05.373.373,0,0,1-.113-.124l-.168-.3a3.046,3.046,0,0,1,.951-.636,2.928,2.928,0,0,1,1.128-.21,2.031,2.031,0,0,1,.793.147,1.632,1.632,0,0,1,.583.41,1.735,1.735,0,0,1,.357.635,2.661,2.661,0,0,1,.12.819Zm-2.425-.572a1.925,1.925,0,0,0,.452-.05,1.747,1.747,0,0,0,.386-.142,2.014,2.014,0,0,0,.346-.223,2.973,2.973,0,0,0,.323-.3v-1.1a6.314,6.314,0,0,0-1.1.082,3.07,3.07,0,0,0-.735.214,1.027,1.027,0,0,0-.413.312.672.672,0,0,0-.128.4.876.876,0,0,0,.068.364.688.688,0,0,0,.184.251.714.714,0,0,0,.273.143A1.239,1.239,0,0,0,26.117,30.428Z" fill="#c6d1ec"/>
          <path d="M29.96,31V23.267H30.9V26.4a2.9,2.9,0,0,1,.756-.581,2.037,2.037,0,0,1,.955-.217,1.922,1.922,0,0,1,.769.144,1.5,1.5,0,0,1,.557.409,1.828,1.828,0,0,1,.339.638,2.782,2.782,0,0,1,.115.824V31h-.934V27.613a1.427,1.427,0,0,0-.276-.936,1.03,1.03,0,0,0-.843-.334,1.572,1.572,0,0,0-.774.2,2.537,2.537,0,0,0-.664.541V31Z" fill="#c6d1ec"/>
          <path d="M35.8,31V25.682h.535a.3.3,0,0,1,.211.057.37.37,0,0,1,.079.2l.063.83a2.422,2.422,0,0,1,.674-.87,1.591,1.591,0,0,1,1.342-.262,1.447,1.447,0,0,1,.33.139l-.12.7a.157.157,0,0,1-.163.13.821.821,0,0,1-.226-.049,1.4,1.4,0,0,0-.425-.05,1.21,1.21,0,0,0-.817.283,2.146,2.146,0,0,0-.548.824V31Z" fill="#c6d1ec"/>
          <path d="M40.838,25.682v3.391a1.415,1.415,0,0,0,.278.935,1.037,1.037,0,0,0,.841.331,1.625,1.625,0,0,0,.771-.194A2.4,2.4,0,0,0,43.4,29.6V25.682h.935V31h-.557a.238.238,0,0,1-.252-.194l-.074-.573a2.929,2.929,0,0,1-.777.618,2.043,2.043,0,0,1-.986.233,1.9,1.9,0,0,1-.769-.145,1.51,1.51,0,0,1-.56-.406,1.738,1.738,0,0,1-.338-.636,2.807,2.807,0,0,1-.113-.824V25.682Z" fill="#c6d1ec"/>
          <path d="M45.868,31V25.682h.556a.238.238,0,0,1,.252.194l.074.577a2.973,2.973,0,0,1,.774-.619,2.019,2.019,0,0,1,.99-.236,1.925,1.925,0,0,1,.769.144,1.505,1.505,0,0,1,.556.409,1.812,1.812,0,0,1,.339.638,2.782,2.782,0,0,1,.115.824V31h-.934V27.613a1.427,1.427,0,0,0-.276-.936,1.027,1.027,0,0,0-.842-.334,1.573,1.573,0,0,0-.775.2,2.553,2.553,0,0,0-.664.541V31Z" fill="#c6d1ec"/>
          <path d="M53.5,25.593a2.629,2.629,0,0,1,.648.076,2.06,2.06,0,0,1,.549.223h1.443v.346c0,.116-.073.19-.22.221l-.6.084a1.646,1.646,0,0,1-.386,2.011,1.864,1.864,0,0,1-.63.346,2.547,2.547,0,0,1-.8.121,2.716,2.716,0,0,1-.7-.089.879.879,0,0,0-.254.233.428.428,0,0,0-.087.244.331.331,0,0,0,.152.3,1.078,1.078,0,0,0,.4.144,3.389,3.389,0,0,0,.573.044h.653a3.632,3.632,0,0,1,.654.058,1.965,1.965,0,0,1,.572.191,1.059,1.059,0,0,1,.4.367,1.086,1.086,0,0,1,.153.605,1.417,1.417,0,0,1-.171.67,1.813,1.813,0,0,1-.491.577,2.518,2.518,0,0,1-.782.4,3.375,3.375,0,0,1-1.045.151,4.033,4.033,0,0,1-1.021-.115,2.373,2.373,0,0,1-.727-.311,1.335,1.335,0,0,1-.433-.449,1.07,1.07,0,0,1-.144-.533.962.962,0,0,1,.249-.67,1.72,1.72,0,0,1,.685-.44.934.934,0,0,1-.36-.28.755.755,0,0,1-.133-.469.708.708,0,0,1,.042-.238.9.9,0,0,1,.128-.244,1.378,1.378,0,0,1,.213-.23,1.4,1.4,0,0,1,.294-.2,1.647,1.647,0,0,1-.617-.585,1.6,1.6,0,0,1-.224-.853,1.648,1.648,0,0,1,.15-.706,1.561,1.561,0,0,1,.418-.541,1.907,1.907,0,0,1,.638-.344A2.614,2.614,0,0,1,53.5,25.593Zm1.659,5.677a.47.47,0,0,0-.111-.327.711.711,0,0,0-.3-.19,2.219,2.219,0,0,0-.435-.1,4.114,4.114,0,0,0-.52-.032h-.557a2,2,0,0,1-.541-.071,1.551,1.551,0,0,0-.485.347.7.7,0,0,0-.186.489.648.648,0,0,0,.091.334.782.782,0,0,0,.281.268,1.666,1.666,0,0,0,.475.179,3.041,3.041,0,0,0,.675.065,2.963,2.963,0,0,0,.677-.069,1.693,1.693,0,0,0,.507-.2.968.968,0,0,0,.317-.3A.72.72,0,0,0,55.155,31.27ZM53.5,28.4a1.456,1.456,0,0,0,.5-.079,1.015,1.015,0,0,0,.365-.22.911.911,0,0,0,.221-.338,1.263,1.263,0,0,0,.073-.434,1.031,1.031,0,0,0-.3-.776,1.427,1.427,0,0,0-1.722,0,1.031,1.031,0,0,0-.3.776,1.2,1.2,0,0,0,.076.434.928.928,0,0,0,.223.338,1.02,1.02,0,0,0,.362.22A1.422,1.422,0,0,0,53.5,28.4Z" fill="#c6d1ec"/>
          <path d="M59.176,25.6a2.374,2.374,0,0,1,.883.16,1.977,1.977,0,0,1,.7.462,2.1,2.1,0,0,1,.459.746,2.88,2.88,0,0,1,.165,1.01.6.6,0,0,1-.047.294.2.2,0,0,1-.178.074H57.617a2.94,2.94,0,0,0,.137.877,1.8,1.8,0,0,0,.346.622,1.386,1.386,0,0,0,.525.372,1.791,1.791,0,0,0,.683.124,1.979,1.979,0,0,0,.606-.082,2.779,2.779,0,0,0,.439-.176,3.116,3.116,0,0,0,.307-.176.416.416,0,0,1,.212-.081.207.207,0,0,1,.179.089l.262.342a1.716,1.716,0,0,1-.415.364,2.511,2.511,0,0,1-.517.255,3.281,3.281,0,0,1-.569.149,3.409,3.409,0,0,1-.583.05,2.689,2.689,0,0,1-1.016-.186,2.222,2.222,0,0,1-.8-.546,2.491,2.491,0,0,1-.528-.89,3.619,3.619,0,0,1-.189-1.218,3.1,3.1,0,0,1,.171-1.04,2.475,2.475,0,0,1,.49-.837,2.273,2.273,0,0,1,.783-.556A2.565,2.565,0,0,1,59.176,25.6Zm.021.687a1.433,1.433,0,0,0-1.065.392,1.841,1.841,0,0,0-.483,1.084h2.893a1.877,1.877,0,0,0-.09-.6,1.317,1.317,0,0,0-.263-.468,1.161,1.161,0,0,0-.422-.3A1.4,1.4,0,0,0,59.2,26.285Z" fill="#c6d1ec"/>
          <path d="M62.573,31V25.682h.557a.238.238,0,0,1,.252.194l.073.577a2.989,2.989,0,0,1,.774-.619,2.024,2.024,0,0,1,.99-.236,1.922,1.922,0,0,1,.769.144,1.509,1.509,0,0,1,.557.409,1.827,1.827,0,0,1,.338.638,2.781,2.781,0,0,1,.116.824V31h-.935V27.613a1.427,1.427,0,0,0-.275-.936,1.03,1.03,0,0,0-.843-.334,1.569,1.569,0,0,0-.774.2,2.521,2.521,0,0,0-.664.541V31Z" fill="#c6d1ec"/>
          <path d="M11.575,39.682v3.391a1.41,1.41,0,0,0,.278.935,1.036,1.036,0,0,0,.84.331,1.626,1.626,0,0,0,.772-.194,2.4,2.4,0,0,0,.667-.541V39.682h.934V45H14.51a.236.236,0,0,1-.252-.194l-.074-.573a2.945,2.945,0,0,1-.777.618,2.044,2.044,0,0,1-.987.233,1.911,1.911,0,0,1-.769-.145,1.514,1.514,0,0,1-.559-.406,1.74,1.74,0,0,1-.339-.636,2.841,2.841,0,0,1-.112-.824V39.682Z" fill="#c6d1ec"/>
          <path d="M16.6,45V39.682h.557a.238.238,0,0,1,.252.194l.073.577a2.994,2.994,0,0,1,.775-.619,2.018,2.018,0,0,1,.989-.236,1.93,1.93,0,0,1,.77.144,1.505,1.505,0,0,1,.556.409,1.828,1.828,0,0,1,.339.638,2.782,2.782,0,0,1,.115.824V45H20.1V41.613a1.427,1.427,0,0,0-.276-.936,1.029,1.029,0,0,0-.842-.334,1.573,1.573,0,0,0-.775.2,2.537,2.537,0,0,0-.664.541V45Z" fill="#c6d1ec"/>
          <path d="M26.186,45a.236.236,0,0,1-.252-.194l-.084-.646a2.8,2.8,0,0,1-.78.664,2,2,0,0,1-1.006.249,1.907,1.907,0,0,1-.829-.176,1.715,1.715,0,0,1-.635-.516,2.484,2.484,0,0,1-.405-.851,4.405,4.405,0,0,1-.141-1.171,3.671,3.671,0,0,1,.157-1.094,2.67,2.67,0,0,1,.455-.88,2.083,2.083,0,0,1,1.688-.8,1.926,1.926,0,0,1,.834.166,2.017,2.017,0,0,1,.62.464v-2.95h.934V45Zm-1.811-.683a1.5,1.5,0,0,0,.8-.21,2.306,2.306,0,0,0,.633-.592V40.941a1.491,1.491,0,0,0-.565-.485,1.621,1.621,0,0,0-.68-.139,1.344,1.344,0,0,0-1.144.531,2.473,2.473,0,0,0-.4,1.511,3.818,3.818,0,0,0,.089.89,1.691,1.691,0,0,0,.263.609,1.018,1.018,0,0,0,.425.349A1.436,1.436,0,0,0,24.375,44.317Z" fill="#c6d1ec"/>
          <path d="M36.562,36.324V37.65h-2.61V45H32.338V37.65H29.716V36.324Z" fill="#c6d1ec"/>
          <path d="M39.3,37.05a.859.859,0,0,1-.077.36,1.027,1.027,0,0,1-.207.294.994.994,0,0,1-.3.2.926.926,0,0,1-.372.075.894.894,0,0,1-.363-.075.957.957,0,0,1-.3-.2.975.975,0,0,1-.2-.294.873.873,0,0,1-.075-.36.93.93,0,0,1,.075-.372.948.948,0,0,1,.5-.5.894.894,0,0,1,.363-.075.926.926,0,0,1,.372.075.958.958,0,0,1,.511.5A.914.914,0,0,1,39.3,37.05Zm-.221,1.794V45H37.6V38.844Z" fill="#c6d1ec"/>
          <path d="M40.755,47.01V38.844h.907a.442.442,0,0,1,.245.066.306.306,0,0,1,.133.2l.119.57a3.107,3.107,0,0,1,.855-.69,2.323,2.323,0,0,1,1.132-.264,2.017,2.017,0,0,1,.92.21,2.079,2.079,0,0,1,.721.609,2.92,2.92,0,0,1,.467.984,4.951,4.951,0,0,1,.165,1.341,4.217,4.217,0,0,1-.186,1.278,3.127,3.127,0,0,1-.531,1.02,2.453,2.453,0,0,1-.834.675,2.427,2.427,0,0,1-1.095.243,2.2,2.2,0,0,1-.885-.159,2.166,2.166,0,0,1-.651-.441v2.52Zm2.88-7.11a1.514,1.514,0,0,0-.789.2,2.282,2.282,0,0,0-.609.549V43.4a1.406,1.406,0,0,0,.55.435,1.645,1.645,0,0,0,.638.123,1.433,1.433,0,0,0,.609-.126,1.185,1.185,0,0,0,.463-.384,1.919,1.919,0,0,0,.291-.651,3.771,3.771,0,0,0,.1-.927,4.115,4.115,0,0,0-.087-.915,1.748,1.748,0,0,0-.249-.609.984.984,0,0,0-.393-.342A1.222,1.222,0,0,0,43.635,39.9Z" fill="#c6d1ec"/>
          <path d="M47.542,47.01V38.844h.906a.442.442,0,0,1,.245.066.306.306,0,0,1,.133.2l.119.57a3.122,3.122,0,0,1,.855-.69,2.329,2.329,0,0,1,1.132-.264,2.021,2.021,0,0,1,.921.21,2.076,2.076,0,0,1,.72.609,2.94,2.94,0,0,1,.468.984,4.991,4.991,0,0,1,.165,1.341,4.217,4.217,0,0,1-.186,1.278,3.129,3.129,0,0,1-.532,1.02,2.453,2.453,0,0,1-.834.675,2.422,2.422,0,0,1-1.094.243,2.207,2.207,0,0,1-.886-.159,2.179,2.179,0,0,1-.651-.441v2.52Zm2.879-7.11a1.516,1.516,0,0,0-.789.2,2.3,2.3,0,0,0-.609.549V43.4a1.413,1.413,0,0,0,.55.435,1.648,1.648,0,0,0,.638.123,1.43,1.43,0,0,0,.609-.126,1.185,1.185,0,0,0,.463-.384,1.919,1.919,0,0,0,.291-.651,3.723,3.723,0,0,0,.1-.927,4.115,4.115,0,0,0-.087-.915,1.748,1.748,0,0,0-.249-.609.977.977,0,0,0-.393-.342A1.222,1.222,0,0,0,50.421,39.9Z" fill="#c6d1ec"/>
          <path d="M57.981,40.044a.4.4,0,0,1-.126.135.326.326,0,0,1-.168.039.529.529,0,0,1-.231-.06q-.123-.06-.285-.135a2.61,2.61,0,0,0-.369-.135,1.767,1.767,0,0,0-.489-.06,1.139,1.139,0,0,0-.69.186.577.577,0,0,0-.252.486.464.464,0,0,0,.129.333,1.16,1.16,0,0,0,.342.237,3.347,3.347,0,0,0,.483.183q.27.081.552.177t.552.219a1.925,1.925,0,0,1,.483.312,1.374,1.374,0,0,1,.471,1.089,2.043,2.043,0,0,1-.162.819,1.8,1.8,0,0,1-.474.648,2.221,2.221,0,0,1-.771.426,3.588,3.588,0,0,1-1.674.1,3.665,3.665,0,0,1-.582-.159,3.136,3.136,0,0,1-.516-.24,2.5,2.5,0,0,1-.417-.3l.342-.564a.484.484,0,0,1,.156-.156.437.437,0,0,1,.228-.054.479.479,0,0,1,.261.078q.123.078.285.168a2.548,2.548,0,0,0,.381.168,1.676,1.676,0,0,0,.555.078A1.44,1.44,0,0,0,56.448,44a.959.959,0,0,0,.312-.165.619.619,0,0,0,.18-.237A.711.711,0,0,0,57,43.314a.5.5,0,0,0-.129-.354,1.129,1.129,0,0,0-.342-.24,3.3,3.3,0,0,0-.486-.183q-.273-.081-.558-.177a5.162,5.162,0,0,1-.558-.225,1.9,1.9,0,0,1-.486-.327,1.48,1.48,0,0,1-.342-.486,1.7,1.7,0,0,1-.129-.7,1.773,1.773,0,0,1,.15-.72,1.689,1.689,0,0,1,.441-.6,2.19,2.19,0,0,1,.726-.408,3.024,3.024,0,0,1,1.005-.153,3.077,3.077,0,0,1,1.158.21,2.615,2.615,0,0,1,.87.552Z" fill="#c6d1ec"/>
        </g>
      </g>
    </g>
  </g>
</svg>
