<svg xmlns="http://www.w3.org/2000/svg" viewBox="0 0 76 67">
  <title>B8_ausland</title>
  <g id="Ebene_2" data-name="Ebene 2">
    <g id="Ebene_1-2" data-name="Ebene 1">
      <g>
        <path id="Rechteck_57" data-name="Rechteck 57" d="M15.5.5h45a14.926,14.926,0,0,1,15,14.85v36.3a14.926,14.926,0,0,1-15,14.85h-45A14.926,14.926,0,0,1,.5,51.65V15.35A14.926,14.926,0,0,1,15.5.5Z" fill="#28497c" stroke="#fff" stroke-miterlimit="10"/>
        <g>
          <path d="M14.365,30.34a.762.762,0,0,1,.057-.294.754.754,0,0,1,.156-.24.747.747,0,0,1,.825-.162.77.77,0,0,1,.24.162.729.729,0,0,1,.159.24.794.794,0,0,1,0,.591.737.737,0,0,1-.159.237.729.729,0,0,1-.24.159.787.787,0,0,1-.588,0,.7.7,0,0,1-.237-.159.751.751,0,0,1-.213-.534Z" fill="#fff"/>
          <path d="M17.208,30.34a.763.763,0,0,1,.058-.294.737.737,0,0,1,.156-.24.747.747,0,0,1,.825-.162.781.781,0,0,1,.24.162.745.745,0,0,1,.159.24.794.794,0,0,1,0,.591.754.754,0,0,1-.159.237.74.74,0,0,1-.24.159.787.787,0,0,1-.588,0,.687.687,0,0,1-.237-.159.746.746,0,0,1-.156-.237A.756.756,0,0,1,17.208,30.34Z" fill="#fff"/>
          <path d="M20.053,30.34a.762.762,0,0,1,.057-.294.754.754,0,0,1,.156-.24.747.747,0,0,1,.825-.162.77.77,0,0,1,.24.162.729.729,0,0,1,.159.24.794.794,0,0,1,0,.591.737.737,0,0,1-.159.237.729.729,0,0,1-.24.159.787.787,0,0,1-.588,0,.7.7,0,0,1-.237-.159.751.751,0,0,1-.213-.534Z" fill="#fff"/>
          <path d="M24.673,23.014a.68.68,0,0,1-.063.291.838.838,0,0,1-.168.24.78.78,0,0,1-.243.165.733.733,0,0,1-.294.06.708.708,0,0,1-.291-.06.767.767,0,0,1-.24-.165.812.812,0,0,1-.166-.24.708.708,0,0,1-.06-.291.751.751,0,0,1,.06-.3.791.791,0,0,1,.166-.246.767.767,0,0,1,.24-.165.708.708,0,0,1,.291-.06.733.733,0,0,1,.294.06.78.78,0,0,1,.243.165.814.814,0,0,1,.168.246A.72.72,0,0,1,24.673,23.014Zm-.24,1.908V31H23.365V24.922Z" fill="#fff"/>
          <path d="M26.617,31V24.922h.636a.273.273,0,0,1,.288.222l.084.66a3.416,3.416,0,0,1,.885-.708,2.3,2.3,0,0,1,1.131-.27,2.195,2.195,0,0,1,.879.165,1.7,1.7,0,0,1,.636.468,2.049,2.049,0,0,1,.386.729,3.14,3.14,0,0,1,.133.942V31H30.607V27.13a1.636,1.636,0,0,0-.315-1.071,1.178,1.178,0,0,0-.963-.381,1.8,1.8,0,0,0-.885.228,2.915,2.915,0,0,0-.759.618V31Z" fill="#fff"/>
          <path d="M37.068,25.924a.236.236,0,0,1-.222.132.414.414,0,0,1-.2-.066c-.077-.044-.17-.093-.28-.147a2.579,2.579,0,0,0-.393-.15,1.875,1.875,0,0,0-.54-.069,1.594,1.594,0,0,0-.486.069,1.167,1.167,0,0,0-.369.189.86.86,0,0,0-.234.279.762.762,0,0,0-.081.345.571.571,0,0,0,.136.39,1.156,1.156,0,0,0,.356.27,3.112,3.112,0,0,0,.5.2q.282.087.579.186c.2.066.392.139.58.219a2.107,2.107,0,0,1,.5.3,1.307,1.307,0,0,1,.493,1.068,1.986,1.986,0,0,1-.151.777,1.7,1.7,0,0,1-.444.618,2.131,2.131,0,0,1-.72.411,2.954,2.954,0,0,1-.984.15,3.069,3.069,0,0,1-1.152-.207,2.919,2.919,0,0,1-.876-.531l.252-.408a.366.366,0,0,1,.114-.12.321.321,0,0,1,.175-.042.407.407,0,0,1,.228.084q.119.084.291.186a2.209,2.209,0,0,0,.414.186,1.878,1.878,0,0,0,.609.084,1.659,1.659,0,0,0,.545-.081,1.152,1.152,0,0,0,.391-.219.864.864,0,0,0,.23-.318.988.988,0,0,0,.075-.384.639.639,0,0,0-.135-.417,1.135,1.135,0,0,0-.356-.282,2.921,2.921,0,0,0-.508-.2q-.285-.087-.581-.183a6.156,6.156,0,0,1-.582-.219,2.034,2.034,0,0,1-.508-.309,1.39,1.39,0,0,1-.357-.459,1.5,1.5,0,0,1-.134-.663,1.633,1.633,0,0,1,.564-1.233,2.053,2.053,0,0,1,.677-.387,2.717,2.717,0,0,1,.918-.144,2.9,2.9,0,0,1,1.077.189,2.564,2.564,0,0,1,.826.519Z" fill="#fff"/>
          <path d="M22.693,45h-1.3a.565.565,0,0,1-.359-.109.617.617,0,0,1-.2-.272l-.675-1.844H16.412l-.675,1.844a.586.586,0,0,1-.2.262.549.549,0,0,1-.359.119H13.875l3.549-9.037h1.719Zm-5.85-3.412h2.882l-1.1-3.007q-.076-.2-.166-.472t-.178-.59c-.059.212-.116.411-.172.593s-.112.344-.166.482Z" fill="#fff"/>
          <path d="M25.574,38.588v4.074a1.371,1.371,0,0,0,.272.91,1.009,1.009,0,0,0,.816.322,1.638,1.638,0,0,0,.75-.178,2.611,2.611,0,0,0,.662-.491V38.588h1.544V45h-.944a.379.379,0,0,1-.393-.281l-.107-.513a4.357,4.357,0,0,1-.412.366,2.433,2.433,0,0,1-.972.462,2.582,2.582,0,0,1-.6.066,2.273,2.273,0,0,1-.928-.178,1.852,1.852,0,0,1-.678-.5,2.2,2.2,0,0,1-.416-.773,3.281,3.281,0,0,1-.14-.984V38.588Z" fill="#fff"/>
          <path d="M35.7,39.838a.43.43,0,0,1-.131.141.351.351,0,0,1-.175.04.551.551,0,0,1-.241-.063l-.3-.141a2.865,2.865,0,0,0-.384-.14,1.87,1.87,0,0,0-.51-.063,1.179,1.179,0,0,0-.718.2.6.6,0,0,0-.263.506.481.481,0,0,0,.135.346,1.179,1.179,0,0,0,.356.247,3.35,3.35,0,0,0,.5.191c.188.056.379.118.575.184a6.09,6.09,0,0,1,.575.229,1.989,1.989,0,0,1,.5.324,1.5,1.5,0,0,1,.356.473,1.486,1.486,0,0,1,.135.662,2.119,2.119,0,0,1-.169.853,1.886,1.886,0,0,1-.493.675,2.307,2.307,0,0,1-.8.443,3.443,3.443,0,0,1-1.1.16,3.528,3.528,0,0,1-.646-.059,3.845,3.845,0,0,1-.607-.166,3.233,3.233,0,0,1-.537-.25,2.625,2.625,0,0,1-.434-.312l.356-.588a.491.491,0,0,1,.162-.162.452.452,0,0,1,.237-.057.49.49,0,0,1,.272.082c.086.054.185.112.3.175a2.718,2.718,0,0,0,.4.175,1.752,1.752,0,0,0,.578.081,1.493,1.493,0,0,0,.472-.066.98.98,0,0,0,.325-.172.637.637,0,0,0,.188-.247.748.748,0,0,0,.059-.29.522.522,0,0,0-.134-.369,1.179,1.179,0,0,0-.356-.25,3.393,3.393,0,0,0-.507-.19q-.283-.086-.581-.185a5.3,5.3,0,0,1-.581-.234,1.979,1.979,0,0,1-.507-.341,1.55,1.55,0,0,1-.356-.506,1.776,1.776,0,0,1-.134-.726,1.86,1.86,0,0,1,.156-.75,1.758,1.758,0,0,1,.459-.621,2.291,2.291,0,0,1,.757-.426,3.183,3.183,0,0,1,1.047-.159,3.224,3.224,0,0,1,1.206.219,2.748,2.748,0,0,1,.906.575Z" fill="#fff"/>
          <path d="M39.624,35.713V45H38.08V35.713Z" fill="#fff"/>
          <path d="M47.018,45h-.694a.747.747,0,0,1-.344-.065.423.423,0,0,1-.187-.266l-.138-.456a5.507,5.507,0,0,1-.478.384,2.946,2.946,0,0,1-.484.278,2.512,2.512,0,0,1-.531.169,3.241,3.241,0,0,1-.625.056,2.458,2.458,0,0,1-.75-.11,1.609,1.609,0,0,1-.591-.329,1.475,1.475,0,0,1-.384-.546,1.929,1.929,0,0,1-.138-.759,1.5,1.5,0,0,1,.191-.717A1.787,1.787,0,0,1,42.5,42a4.074,4.074,0,0,1,1.182-.474,7.567,7.567,0,0,1,1.831-.187V40.96A1.436,1.436,0,0,0,45.24,40a.992.992,0,0,0-.791-.311,1.925,1.925,0,0,0-.625.087,2.409,2.409,0,0,0-.434.2c-.123.073-.237.138-.341.2a.681.681,0,0,1-.343.087.447.447,0,0,1-.269-.081.633.633,0,0,1-.182-.2l-.281-.494a3.818,3.818,0,0,1,2.669-1.012,2.574,2.574,0,0,1,1,.184,2.128,2.128,0,0,1,.747.513,2.193,2.193,0,0,1,.465.784,3,3,0,0,1,.16,1Zm-3-.963a2.072,2.072,0,0,0,.438-.043,1.6,1.6,0,0,0,.377-.129,1.969,1.969,0,0,0,.344-.212,2.981,2.981,0,0,0,.335-.3V42.281a6.325,6.325,0,0,0-1.128.085,3.023,3.023,0,0,0-.729.217.94.94,0,0,0-.39.309.689.689,0,0,0-.116.383.675.675,0,0,0,.241.586A1.034,1.034,0,0,0,44.018,44.037Z" fill="#fff"/>
          <path d="M49.162,45V38.588h.943a.38.38,0,0,1,.394.281l.106.506a3.483,3.483,0,0,1,.41-.362,2.858,2.858,0,0,1,.456-.282,2.343,2.343,0,0,1,.515-.181,2.755,2.755,0,0,1,.6-.063,2.3,2.3,0,0,1,.932.179,1.824,1.824,0,0,1,.678.5,2.184,2.184,0,0,1,.412.769,3.254,3.254,0,0,1,.141.984V45H53.205V40.919a1.363,1.363,0,0,0-.272-.909,1.006,1.006,0,0,0-.815-.322,1.6,1.6,0,0,0-.75.181,2.674,2.674,0,0,0-.663.493V45Z" fill="#fff"/>
          <path d="M61.405,45a.379.379,0,0,1-.393-.281l-.125-.619a3.8,3.8,0,0,1-.419.406,2.607,2.607,0,0,1-.472.312,2.392,2.392,0,0,1-.544.2,2.607,2.607,0,0,1-.628.073,2.116,2.116,0,0,1-.962-.219,2.143,2.143,0,0,1-.754-.635,3.024,3.024,0,0,1-.487-1.027,5.174,5.174,0,0,1-.172-1.4,4.386,4.386,0,0,1,.194-1.326,3.234,3.234,0,0,1,.556-1.062,2.6,2.6,0,0,1,.869-.7,2.505,2.505,0,0,1,1.138-.253,2.219,2.219,0,0,1,.918.172,2.388,2.388,0,0,1,.681.459V35.713h1.544V45Zm-2.056-1.131a1.583,1.583,0,0,0,.819-.2,2.44,2.44,0,0,0,.637-.569V40.225a1.514,1.514,0,0,0-.572-.45,1.693,1.693,0,0,0-.665-.131,1.5,1.5,0,0,0-.634.131,1.235,1.235,0,0,0-.482.4,1.95,1.95,0,0,0-.3.675,3.865,3.865,0,0,0-.106.966,4.318,4.318,0,0,0,.09.953,1.883,1.883,0,0,0,.26.637.994.994,0,0,0,.412.357A1.331,1.331,0,0,0,59.349,43.869Z" fill="#fff"/>
        </g>
      </g>
    </g>
  </g>
</svg>
