<svg xmlns="http://www.w3.org/2000/svg" viewBox="0 0 76 67">
  <title>C1_faq</title>
  <g id="Ebene_2" data-name="Ebene 2">
    <g id="Ebene_1-2" data-name="Ebene 1">
      <g>
        <path id="Rechteck_57" data-name="Rechteck 57" d="M15.5.5h45a14.926,14.926,0,0,1,15,14.85v36.3a14.926,14.926,0,0,1-15,14.85h-45A14.926,14.926,0,0,1,.5,51.65V15.35A14.926,14.926,0,0,1,15.5.5Z" fill="#28497c" stroke="#fff" stroke-miterlimit="10"/>
        <g>
          <path d="M29.771,28.264V30.3H23.683v4.065h5.139V36.4H23.683V42H21.108V28.264Z" fill="#fff"/>
          <path d="M42.454,42H40.479a.858.858,0,0,1-.546-.166.945.945,0,0,1-.31-.414l-1.025-2.8H32.907l-1.026,2.8a.9.9,0,0,1-.3.4.844.844,0,0,1-.547.181H29.05l5.4-13.736h2.613Zm-8.891-5.187h4.379L36.27,32.244q-.114-.3-.251-.718c-.092-.275-.183-.575-.272-.9q-.133.483-.261.9t-.252.732Z" fill="#fff"/>
          <path d="M56.562,35.131a8.019,8.019,0,0,1-.19,1.763,7.191,7.191,0,0,1-.547,1.572,6.573,6.573,0,0,1-.869,1.345,6.23,6.23,0,0,1-1.168,1.078l3.486,3.8H55.165a2.533,2.533,0,0,1-.821-.124,1.6,1.6,0,0,1-.67-.455L51.66,41.887a7.554,7.554,0,0,1-.993.2,8.23,8.23,0,0,1-1.06.066,7.425,7.425,0,0,1-2.844-.527,6.448,6.448,0,0,1-2.2-1.468,6.585,6.585,0,0,1-1.42-2.227,8.019,8.019,0,0,1,0-5.6,6.574,6.574,0,0,1,1.42-2.229,6.443,6.443,0,0,1,2.2-1.466,7.887,7.887,0,0,1,5.685,0,6.482,6.482,0,0,1,2.2,1.468,6.576,6.576,0,0,1,1.416,2.223A7.623,7.623,0,0,1,56.562,35.131Zm-2.623,0a6.4,6.4,0,0,0-.3-2.027,4.31,4.31,0,0,0-.86-1.526,3.707,3.707,0,0,0-1.363-.959,5.114,5.114,0,0,0-3.625,0,3.732,3.732,0,0,0-1.372.959,4.3,4.3,0,0,0-.869,1.526,6.895,6.895,0,0,0,0,4.056,4.242,4.242,0,0,0,.869,1.52,3.758,3.758,0,0,0,1.372.955,5.114,5.114,0,0,0,3.625,0,3.733,3.733,0,0,0,1.363-.955,4.256,4.256,0,0,0,.86-1.52A6.417,6.417,0,0,0,53.939,35.131Z" fill="#fff"/>
        </g>
      </g>
    </g>
  </g>
</svg>
