<svg xmlns="http://www.w3.org/2000/svg" viewBox="0 0 76 67">
  <title>C2_ref_hover</title>
  <g id="Ebene_2" data-name="Ebene 2">
    <g id="Ebene_1-2" data-name="Ebene 1">
      <g>
        <path id="Rechteck_57" data-name="Rechteck 57" d="M15.5.5h45a14.926,14.926,0,0,1,15,14.85v36.3a14.926,14.926,0,0,1-15,14.85h-45A14.926,14.926,0,0,1,.5,51.65V15.35A14.926,14.926,0,0,1,15.5.5Z" fill="#28497c" stroke="#c6d1ec" stroke-miterlimit="10"/>
        <g>
          <path d="M15.9,29.469V33H14.219V23.962h2.757a5.762,5.762,0,0,1,1.584.191,3,3,0,0,1,1.081.535,2.067,2.067,0,0,1,.619.821,2.748,2.748,0,0,1,.2,1.054,2.716,2.716,0,0,1-.135.862,2.461,2.461,0,0,1-.387.737,2.621,2.621,0,0,1-.625.582,3.3,3.3,0,0,1-.847.4,1.678,1.678,0,0,1,.55.518L21.275,33H19.763a.732.732,0,0,1-.372-.088.752.752,0,0,1-.259-.25l-1.9-2.893A.678.678,0,0,0,17,29.537a.838.838,0,0,0-.379-.068Zm0-1.206h1.051a2.611,2.611,0,0,0,.828-.119,1.61,1.61,0,0,0,.581-.329,1.329,1.329,0,0,0,.341-.5,1.739,1.739,0,0,0,.112-.631,1.285,1.285,0,0,0-.453-1.057,2.167,2.167,0,0,0-1.384-.368H15.9Z" fill="#c6d1ec"/>
          <path d="M25.226,26.487a3.12,3.12,0,0,1,1.115.194,2.451,2.451,0,0,1,.878.566,2.577,2.577,0,0,1,.575.912A3.443,3.443,0,0,1,28,29.394a2.35,2.35,0,0,1-.015.291.45.45,0,0,1-.056.18.233.233,0,0,1-.11.094.443.443,0,0,1-.175.028H23.682a2.214,2.214,0,0,0,.531,1.451,1.657,1.657,0,0,0,1.225.462,2.133,2.133,0,0,0,.647-.087,3.222,3.222,0,0,0,.475-.194c.135-.071.254-.136.356-.194a.6.6,0,0,1,.3-.087.331.331,0,0,1,.162.037.363.363,0,0,1,.119.106l.45.563a2.555,2.555,0,0,1-.575.5,3.222,3.222,0,0,1-.665.325,3.728,3.728,0,0,1-.706.172,5.13,5.13,0,0,1-.7.05,3.418,3.418,0,0,1-1.243-.222,2.758,2.758,0,0,1-1-.656,3.067,3.067,0,0,1-.669-1.075,4.176,4.176,0,0,1-.244-1.485,3.54,3.54,0,0,1,.213-1.234,2.981,2.981,0,0,1,.609-1.006,2.865,2.865,0,0,1,.969-.679A3.2,3.2,0,0,1,25.226,26.487Zm.031,1.107a1.427,1.427,0,0,0-1.056.381,1.878,1.878,0,0,0-.488,1.082h2.9a1.938,1.938,0,0,0-.081-.567,1.3,1.3,0,0,0-.25-.465,1.211,1.211,0,0,0-.425-.316A1.45,1.45,0,0,0,25.257,27.594Z" fill="#c6d1ec"/>
          <path d="M29.844,33V27.75l-.556-.087A.6.6,0,0,1,29,27.538a.328.328,0,0,1-.109-.263v-.631h.956v-.475a2.763,2.763,0,0,1,.166-.988,2,2,0,0,1,1.228-1.212,2.878,2.878,0,0,1,1-.163,2.765,2.765,0,0,1,.825.119l-.031.775a.225.225,0,0,1-.169.225,1.356,1.356,0,0,1-.363.044,1.869,1.869,0,0,0-.49.059.838.838,0,0,0-.366.206.939.939,0,0,0-.228.388,1.956,1.956,0,0,0-.078.6v.425h1.669v1.1H31.388V33Z" fill="#c6d1ec"/>
          <path d="M36.913,26.487a3.12,3.12,0,0,1,1.115.194,2.451,2.451,0,0,1,.878.566,2.577,2.577,0,0,1,.575.912,3.442,3.442,0,0,1,.207,1.235,2.326,2.326,0,0,1-.016.291.45.45,0,0,1-.056.18.233.233,0,0,1-.11.094.443.443,0,0,1-.175.028H35.369a2.214,2.214,0,0,0,.531,1.451,1.657,1.657,0,0,0,1.225.462,2.133,2.133,0,0,0,.647-.087,3.222,3.222,0,0,0,.475-.194c.135-.071.254-.136.356-.194a.6.6,0,0,1,.3-.087.338.338,0,0,1,.163.037.37.37,0,0,1,.118.106l.45.563a2.555,2.555,0,0,1-.575.5,3.222,3.222,0,0,1-.665.325,3.728,3.728,0,0,1-.706.172,5.13,5.13,0,0,1-.7.05,3.422,3.422,0,0,1-1.243-.222,2.758,2.758,0,0,1-1-.656,3.067,3.067,0,0,1-.669-1.075,4.176,4.176,0,0,1-.244-1.485,3.54,3.54,0,0,1,.213-1.234,2.981,2.981,0,0,1,.609-1.006,2.865,2.865,0,0,1,.969-.679A3.2,3.2,0,0,1,36.913,26.487Zm.031,1.107a1.427,1.427,0,0,0-1.056.381,1.878,1.878,0,0,0-.488,1.082h2.9a1.938,1.938,0,0,0-.081-.567,1.3,1.3,0,0,0-.25-.465,1.211,1.211,0,0,0-.425-.316A1.45,1.45,0,0,0,36.944,27.594Z" fill="#c6d1ec"/>
          <path d="M41.256,33V26.587h.907a.488.488,0,0,1,.331.088.505.505,0,0,1,.125.3l.093.775a3.031,3.031,0,0,1,.807-.937,1.69,1.69,0,0,1,1.037-.344,1.342,1.342,0,0,1,.788.219l-.2,1.156a.242.242,0,0,1-.081.159.28.28,0,0,1-.169.047,1.07,1.07,0,0,1-.257-.044,1.718,1.718,0,0,0-.431-.044,1.3,1.3,0,0,0-.825.267,2.028,2.028,0,0,0-.581.777V33Z" fill="#c6d1ec"/>
          <path d="M49.325,26.487a3.122,3.122,0,0,1,1.116.194,2.46,2.46,0,0,1,.878.566,2.605,2.605,0,0,1,.575.912,3.465,3.465,0,0,1,.206,1.235,2.149,2.149,0,0,1-.016.291.45.45,0,0,1-.056.18.226.226,0,0,1-.109.094.446.446,0,0,1-.175.028H47.781a2.209,2.209,0,0,0,.532,1.451,1.655,1.655,0,0,0,1.225.462,2.137,2.137,0,0,0,.647-.087,3.222,3.222,0,0,0,.475-.194c.135-.071.254-.136.356-.194a.6.6,0,0,1,.3-.087.334.334,0,0,1,.162.037.363.363,0,0,1,.119.106l.45.563a2.576,2.576,0,0,1-.575.5,3.23,3.23,0,0,1-.666.325,3.71,3.71,0,0,1-.706.172,5.116,5.116,0,0,1-.7.05,3.427,3.427,0,0,1-1.244-.222,2.766,2.766,0,0,1-1-.656,3.08,3.08,0,0,1-.668-1.075,4.154,4.154,0,0,1-.244-1.485,3.517,3.517,0,0,1,.213-1.234,2.949,2.949,0,0,1,.609-1.006,2.855,2.855,0,0,1,.969-.679A3.2,3.2,0,0,1,49.325,26.487Zm.031,1.107a1.427,1.427,0,0,0-1.056.381,1.877,1.877,0,0,0-.487,1.082h2.9a1.905,1.905,0,0,0-.081-.567,1.29,1.29,0,0,0-.25-.465,1.2,1.2,0,0,0-.424-.316A1.455,1.455,0,0,0,49.356,27.594Z" fill="#c6d1ec"/>
          <path d="M53.668,33V26.587h.944a.38.38,0,0,1,.394.282l.106.506a3.475,3.475,0,0,1,.409-.362,2.867,2.867,0,0,1,.457-.282,2.343,2.343,0,0,1,.515-.181,2.688,2.688,0,0,1,.6-.063,2.294,2.294,0,0,1,.931.179,1.835,1.835,0,0,1,.679.5,2.2,2.2,0,0,1,.412.769,3.254,3.254,0,0,1,.141.984V33H57.712V28.919a1.365,1.365,0,0,0-.272-.909,1.006,1.006,0,0,0-.815-.322,1.6,1.6,0,0,0-.75.181,2.681,2.681,0,0,0-.663.493V33Z" fill="#c6d1ec"/>
          <path d="M60.887,28.581h3.238v1.288H60.887Z" fill="#c6d1ec"/>
          <path d="M29.509,47a.379.379,0,0,1-.393-.281l-.125-.619a3.893,3.893,0,0,1-.419.406,2.607,2.607,0,0,1-.472.312,2.346,2.346,0,0,1-.544.2,2.557,2.557,0,0,1-.628.073,2.116,2.116,0,0,1-.962-.219,2.143,2.143,0,0,1-.754-.635,3.033,3.033,0,0,1-.487-1.027,5.174,5.174,0,0,1-.172-1.4,4.386,4.386,0,0,1,.194-1.326,3.234,3.234,0,0,1,.556-1.062,2.6,2.6,0,0,1,.869-.7,2.505,2.505,0,0,1,1.138-.253,2.2,2.2,0,0,1,.918.172,2.408,2.408,0,0,1,.681.459V37.713h1.544V47Zm-2.056-1.131a1.573,1.573,0,0,0,.819-.2,2.44,2.44,0,0,0,.637-.569V42.225a1.514,1.514,0,0,0-.572-.45,1.693,1.693,0,0,0-.665-.131,1.5,1.5,0,0,0-.634.131,1.233,1.233,0,0,0-.482.4,1.959,1.959,0,0,0-.3.675,3.859,3.859,0,0,0-.106.966,4.312,4.312,0,0,0,.09.953,1.892,1.892,0,0,0,.26.637.987.987,0,0,0,.412.357A1.331,1.331,0,0,0,27.453,45.869Z" fill="#c6d1ec"/>
          <path d="M37.459,47h-.693a.744.744,0,0,1-.344-.065.421.421,0,0,1-.188-.266l-.137-.456a5.507,5.507,0,0,1-.478.384,2.954,2.954,0,0,1-.485.278,2.476,2.476,0,0,1-.531.169,3.234,3.234,0,0,1-.625.056,2.458,2.458,0,0,1-.75-.11,1.6,1.6,0,0,1-.59-.329,1.489,1.489,0,0,1-.385-.546,1.95,1.95,0,0,1-.137-.758,1.5,1.5,0,0,1,.19-.718A1.8,1.8,0,0,1,32.94,44a4.046,4.046,0,0,1,1.182-.474,7.567,7.567,0,0,1,1.831-.187v-.379a1.434,1.434,0,0,0-.272-.96.991.991,0,0,0-.79-.311,1.921,1.921,0,0,0-.625.087,2.388,2.388,0,0,0-.435.2c-.123.073-.236.138-.34.2a.7.7,0,0,1-.344.087.447.447,0,0,1-.269-.081.63.63,0,0,1-.181-.2l-.281-.494a3.814,3.814,0,0,1,2.668-1.012,2.574,2.574,0,0,1,1,.184,2.115,2.115,0,0,1,.747.513,2.181,2.181,0,0,1,.466.784,3.022,3.022,0,0,1,.159,1Zm-3-.963a2.059,2.059,0,0,0,.438-.043,1.622,1.622,0,0,0,.378-.129,1.952,1.952,0,0,0,.344-.213,3.064,3.064,0,0,0,.334-.3V44.281a6.325,6.325,0,0,0-1.128.085,2.952,2.952,0,0,0-.728.218.928.928,0,0,0-.391.309.775.775,0,0,0,.125.968A1.036,1.036,0,0,0,34.459,46.037Z" fill="#c6d1ec"/>
          <path d="M39.291,47V40.588H40.2a.487.487,0,0,1,.331.087.5.5,0,0,1,.125.3l.094.775a3.031,3.031,0,0,1,.806-.937,1.7,1.7,0,0,1,1.038-.344,1.332,1.332,0,0,1,.787.219l-.2,1.156A.234.234,0,0,1,43.1,42a.278.278,0,0,1-.169.047,1.063,1.063,0,0,1-.256-.044,1.73,1.73,0,0,0-.431-.043,1.3,1.3,0,0,0-.825.266,2.039,2.039,0,0,0-.582.777V47Z" fill="#c6d1ec"/>
          <path d="M46.584,38.719a.884.884,0,0,1-.081.375,1.025,1.025,0,0,1-.215.306,1.042,1.042,0,0,1-.316.209.955.955,0,0,1-.388.079.918.918,0,0,1-.378-.079A1,1,0,0,1,44.9,39.4a.973.973,0,0,1-.209-.306.9.9,0,0,1-.079-.375.955.955,0,0,1,.079-.388.966.966,0,0,1,.209-.312.98.98,0,0,1,.309-.209.935.935,0,0,1,.378-.079.972.972,0,0,1,.388.079,1,1,0,0,1,.531.521A.94.94,0,0,1,46.584,38.719Zm-.231,1.869V47H44.809V40.588Z" fill="#c6d1ec"/>
          <path d="M53.434,47H52.74a.747.747,0,0,1-.344-.065.42.42,0,0,1-.187-.266l-.138-.456a5.36,5.36,0,0,1-.478.384,2.946,2.946,0,0,1-.484.278,2.512,2.512,0,0,1-.531.169,3.241,3.241,0,0,1-.625.056,2.458,2.458,0,0,1-.75-.11,1.609,1.609,0,0,1-.591-.329,1.475,1.475,0,0,1-.384-.546,1.931,1.931,0,0,1-.138-.758,1.5,1.5,0,0,1,.191-.718,1.787,1.787,0,0,1,.634-.64,4.046,4.046,0,0,1,1.182-.474,7.567,7.567,0,0,1,1.831-.187v-.379a1.434,1.434,0,0,0-.272-.96.992.992,0,0,0-.791-.311,1.925,1.925,0,0,0-.625.087,2.409,2.409,0,0,0-.434.2c-.123.073-.237.138-.341.2a.691.691,0,0,1-.343.087.447.447,0,0,1-.269-.081.633.633,0,0,1-.182-.2l-.281-.494a3.818,3.818,0,0,1,2.669-1.012,2.574,2.574,0,0,1,1,.184,2.115,2.115,0,0,1,.747.513,2.193,2.193,0,0,1,.465.784,3,3,0,0,1,.16,1Zm-3-.963a2.072,2.072,0,0,0,.438-.043,1.622,1.622,0,0,0,.378-.129,1.945,1.945,0,0,0,.343-.213,3.069,3.069,0,0,0,.335-.3V44.281a6.325,6.325,0,0,0-1.128.085,2.975,2.975,0,0,0-.729.218.924.924,0,0,0-.39.309.771.771,0,0,0,.125.968A1.034,1.034,0,0,0,50.434,46.037Z" fill="#c6d1ec"/>
          <path d="M57.372,47.1a1.687,1.687,0,0,1-1.282-.472,1.816,1.816,0,0,1-.449-1.3V41.744H54.99a.3.3,0,0,1-.306-.325v-.612l1.031-.169.326-1.75a.314.314,0,0,1,.115-.2.37.37,0,0,1,.228-.068h.8v2.019h1.688v1.1H57.184v3.475a.683.683,0,0,0,.15.469.509.509,0,0,0,.4.168.728.728,0,0,0,.241-.034,1.32,1.32,0,0,0,.169-.072c.047-.025.09-.049.127-.072a.217.217,0,0,1,.113-.034.179.179,0,0,1,.113.034.512.512,0,0,1,.093.1l.463.75a2.338,2.338,0,0,1-.775.425A2.854,2.854,0,0,1,57.372,47.1Z" fill="#c6d1ec"/>
        </g>
      </g>
    </g>
  </g>
</svg>
