<svg xmlns="http://www.w3.org/2000/svg" viewBox="0 0 76 67">
  <title>C2_ref</title>
  <g id="Ebene_2" data-name="Ebene 2">
    <g id="Ebene_1-2" data-name="Ebene 1">
      <g>
        <path id="Rechteck_57" data-name="Rechteck 57" d="M15.5.5h45a14.926,14.926,0,0,1,15,14.85v36.3a14.926,14.926,0,0,1-15,14.85h-45A14.926,14.926,0,0,1,.5,51.65V15.35A14.926,14.926,0,0,1,15.5.5Z" fill="#28497c" stroke="#fff" stroke-miterlimit="10"/>
        <g>
          <path d="M15.9,29.469V33H14.219V23.962h2.757a5.774,5.774,0,0,1,1.585.191,3.009,3.009,0,0,1,1.08.535,2.058,2.058,0,0,1,.619.821,2.748,2.748,0,0,1,.2,1.054,2.716,2.716,0,0,1-.135.862,2.5,2.5,0,0,1-.386.737,2.659,2.659,0,0,1-.625.582,3.318,3.318,0,0,1-.848.4,1.681,1.681,0,0,1,.551.518L21.275,33H19.764a.733.733,0,0,1-.373-.088.752.752,0,0,1-.259-.25l-1.9-2.893A.7.7,0,0,0,17,29.537a.841.841,0,0,0-.379-.068Zm0-1.206h1.051a2.607,2.607,0,0,0,.828-.119,1.605,1.605,0,0,0,.58-.329,1.32,1.32,0,0,0,.342-.5,1.739,1.739,0,0,0,.112-.631,1.282,1.282,0,0,0-.454-1.057,2.162,2.162,0,0,0-1.383-.368H15.9Z" fill="#fff"/>
          <path d="M25.226,26.487a3.126,3.126,0,0,1,1.116.194,2.456,2.456,0,0,1,.877.566,2.607,2.607,0,0,1,.576.912,3.465,3.465,0,0,1,.2,1.235,2.149,2.149,0,0,1-.016.291.45.45,0,0,1-.055.18.233.233,0,0,1-.11.094.441.441,0,0,1-.174.028H23.682a2.208,2.208,0,0,0,.531,1.451,1.657,1.657,0,0,0,1.225.462,2.133,2.133,0,0,0,.647-.087,3.283,3.283,0,0,0,.476-.194c.134-.071.253-.136.355-.194a.6.6,0,0,1,.3-.087.331.331,0,0,1,.162.037.354.354,0,0,1,.119.106l.45.563a2.555,2.555,0,0,1-.575.5,3.205,3.205,0,0,1-.666.325,3.7,3.7,0,0,1-.7.172,5.127,5.127,0,0,1-.7.05,3.416,3.416,0,0,1-1.244-.222,2.766,2.766,0,0,1-1-.656,3.065,3.065,0,0,1-.668-1.075,4.154,4.154,0,0,1-.244-1.485,3.54,3.54,0,0,1,.212-1.234,2.936,2.936,0,0,1,.61-1.006,2.846,2.846,0,0,1,.969-.679A3.192,3.192,0,0,1,25.226,26.487Zm.031,1.107a1.427,1.427,0,0,0-1.056.381,1.871,1.871,0,0,0-.488,1.082h2.9a1.905,1.905,0,0,0-.082-.567,1.26,1.26,0,0,0-.25-.465,1.189,1.189,0,0,0-.424-.316A1.45,1.45,0,0,0,25.257,27.594Z" fill="#fff"/>
          <path d="M29.844,33V27.75l-.556-.087A.6.6,0,0,1,29,27.538a.328.328,0,0,1-.109-.263v-.631h.956v-.475a2.763,2.763,0,0,1,.166-.988,2,2,0,0,1,1.228-1.212,2.874,2.874,0,0,1,1-.163,2.77,2.77,0,0,1,.825.119l-.032.775a.224.224,0,0,1-.168.225,1.356,1.356,0,0,1-.363.044,1.864,1.864,0,0,0-.49.059.829.829,0,0,0-.365.206.94.94,0,0,0-.229.388,1.925,1.925,0,0,0-.078.6v.425h1.669v1.1H31.388V33Z" fill="#fff"/>
          <path d="M36.912,26.487a3.122,3.122,0,0,1,1.116.194,2.46,2.46,0,0,1,.878.566,2.577,2.577,0,0,1,.575.912,3.442,3.442,0,0,1,.207,1.235,2.326,2.326,0,0,1-.016.291.434.434,0,0,1-.057.18.222.222,0,0,1-.109.094.439.439,0,0,1-.175.028H35.369a2.208,2.208,0,0,0,.531,1.451,1.658,1.658,0,0,0,1.225.462,2.121,2.121,0,0,0,.646-.087,3.192,3.192,0,0,0,.476-.194c.136-.071.254-.136.357-.194a.6.6,0,0,1,.3-.087.335.335,0,0,1,.163.037.384.384,0,0,1,.119.106l.449.563a2.55,2.55,0,0,1-.574.5,3.255,3.255,0,0,1-.666.325,3.728,3.728,0,0,1-.706.172,5.119,5.119,0,0,1-.7.05,3.418,3.418,0,0,1-1.243-.222,2.758,2.758,0,0,1-1-.656,3.082,3.082,0,0,1-.669-1.075,4.154,4.154,0,0,1-.244-1.485,3.54,3.54,0,0,1,.213-1.234,2.981,2.981,0,0,1,.609-1.006,2.865,2.865,0,0,1,.969-.679A3.2,3.2,0,0,1,36.912,26.487Zm.031,1.107a1.426,1.426,0,0,0-1.055.381,1.878,1.878,0,0,0-.488,1.082h2.9a1.938,1.938,0,0,0-.081-.567,1.321,1.321,0,0,0-.25-.465,1.2,1.2,0,0,0-.425-.316A1.452,1.452,0,0,0,36.943,27.594Z" fill="#fff"/>
          <path d="M41.256,33V26.587h.906a.489.489,0,0,1,.332.088.5.5,0,0,1,.125.3l.094.775a3.029,3.029,0,0,1,.806-.937,1.691,1.691,0,0,1,1.038-.344,1.341,1.341,0,0,1,.787.219l-.2,1.156a.242.242,0,0,1-.081.159.278.278,0,0,1-.169.047,1.07,1.07,0,0,1-.257-.044,1.718,1.718,0,0,0-.431-.044,1.3,1.3,0,0,0-.825.267,2.028,2.028,0,0,0-.581.777V33Z" fill="#fff"/>
          <path d="M49.325,26.487a3.118,3.118,0,0,1,1.116.194,2.456,2.456,0,0,1,.877.566,2.609,2.609,0,0,1,.577.912,3.487,3.487,0,0,1,.2,1.235,2.149,2.149,0,0,1-.016.291.45.45,0,0,1-.056.18.226.226,0,0,1-.109.094.446.446,0,0,1-.175.028H47.781a2.209,2.209,0,0,0,.532,1.451,1.655,1.655,0,0,0,1.224.462,2.14,2.14,0,0,0,.648-.087,3.315,3.315,0,0,0,.475-.194c.135-.071.254-.136.356-.194a.6.6,0,0,1,.3-.087.331.331,0,0,1,.162.037.363.363,0,0,1,.119.106l.45.563a2.555,2.555,0,0,1-.575.5,3.23,3.23,0,0,1-.666.325,3.718,3.718,0,0,1-.7.172,5.142,5.142,0,0,1-.7.05,3.423,3.423,0,0,1-1.244-.222,2.766,2.766,0,0,1-1-.656,3.08,3.08,0,0,1-.668-1.075,4.154,4.154,0,0,1-.244-1.485,3.517,3.517,0,0,1,.213-1.234,2.949,2.949,0,0,1,.609-1.006,2.855,2.855,0,0,1,.969-.679A3.2,3.2,0,0,1,49.325,26.487Zm.031,1.107a1.425,1.425,0,0,0-1.055.381,1.871,1.871,0,0,0-.488,1.082h2.9a1.905,1.905,0,0,0-.082-.567,1.29,1.29,0,0,0-.25-.465,1.189,1.189,0,0,0-.424-.316A1.455,1.455,0,0,0,49.356,27.594Z" fill="#fff"/>
          <path d="M53.668,33V26.587h.943a.38.38,0,0,1,.4.282l.1.506a3.565,3.565,0,0,1,.41-.362,2.867,2.867,0,0,1,.457-.282,2.38,2.38,0,0,1,.515-.181,2.7,2.7,0,0,1,.6-.063,2.289,2.289,0,0,1,.93.179,1.835,1.835,0,0,1,.679.5,2.2,2.2,0,0,1,.412.769,3.254,3.254,0,0,1,.141.984V33H57.712V28.919a1.365,1.365,0,0,0-.273-.909,1,1,0,0,0-.814-.322,1.6,1.6,0,0,0-.75.181,2.681,2.681,0,0,0-.663.493V33Z" fill="#fff"/>
          <path d="M60.887,28.581h3.238v1.288H60.887Z" fill="#fff"/>
          <path d="M29.51,47a.381.381,0,0,1-.4-.281L28.99,46.1a3.8,3.8,0,0,1-.418.406,2.607,2.607,0,0,1-.472.312,2.338,2.338,0,0,1-.543.2,2.572,2.572,0,0,1-.629.073,2.087,2.087,0,0,1-1.715-.854,3.034,3.034,0,0,1-.488-1.027,5.174,5.174,0,0,1-.172-1.4,4.355,4.355,0,0,1,.194-1.326,3.234,3.234,0,0,1,.556-1.062,2.6,2.6,0,0,1,.869-.7,2.508,2.508,0,0,1,1.138-.253,2.2,2.2,0,0,1,.919.172,2.418,2.418,0,0,1,.68.459V37.713h1.544V47Zm-2.057-1.131a1.569,1.569,0,0,0,.818-.2,2.428,2.428,0,0,0,.638-.569V42.225a1.519,1.519,0,0,0-.571-.45,1.7,1.7,0,0,0-.666-.131,1.506,1.506,0,0,0-.635.131,1.228,1.228,0,0,0-.48.4,1.941,1.941,0,0,0-.3.675,3.856,3.856,0,0,0-.107.966,4.367,4.367,0,0,0,.091.953,1.912,1.912,0,0,0,.26.637.987.987,0,0,0,.412.357A1.331,1.331,0,0,0,27.453,45.869Z" fill="#fff"/>
          <path d="M37.459,47h-.693a.744.744,0,0,1-.344-.065.418.418,0,0,1-.188-.266l-.137-.456a5.507,5.507,0,0,1-.478.384,2.946,2.946,0,0,1-.484.278,2.512,2.512,0,0,1-.531.169,3.248,3.248,0,0,1-.625.056,2.449,2.449,0,0,1-.75-.11,1.6,1.6,0,0,1-.591-.329,1.489,1.489,0,0,1-.385-.546,1.949,1.949,0,0,1-.138-.758,1.5,1.5,0,0,1,.192-.718A1.791,1.791,0,0,1,32.94,44a4.058,4.058,0,0,1,1.182-.474,7.573,7.573,0,0,1,1.831-.187v-.379a1.44,1.44,0,0,0-.271-.96,1,1,0,0,0-.791-.311,1.921,1.921,0,0,0-.625.087,2.42,2.42,0,0,0-.435.2c-.122.073-.236.138-.341.2a.692.692,0,0,1-.344.087.448.448,0,0,1-.268-.081.619.619,0,0,1-.181-.2l-.281-.494a3.816,3.816,0,0,1,2.668-1.012,2.582,2.582,0,0,1,1,.184,2.111,2.111,0,0,1,.746.513,2.195,2.195,0,0,1,.466.784,3.022,3.022,0,0,1,.159,1Zm-3-.963a2.049,2.049,0,0,0,.437-.043,1.614,1.614,0,0,0,.379-.129,1.952,1.952,0,0,0,.344-.213,3.064,3.064,0,0,0,.334-.3V44.281a6.325,6.325,0,0,0-1.128.085,2.952,2.952,0,0,0-.728.218.928.928,0,0,0-.391.309.775.775,0,0,0,.125.968A1.036,1.036,0,0,0,34.459,46.037Z" fill="#fff"/>
          <path d="M39.291,47V40.588H40.2a.487.487,0,0,1,.331.087.5.5,0,0,1,.125.3l.094.775a3.044,3.044,0,0,1,.806-.937,1.7,1.7,0,0,1,1.038-.344,1.337,1.337,0,0,1,.788.219l-.2,1.156A.237.237,0,0,1,43.1,42a.283.283,0,0,1-.17.047,1.055,1.055,0,0,1-.256-.044,1.733,1.733,0,0,0-.432-.043,1.3,1.3,0,0,0-.824.266,2.029,2.029,0,0,0-.582.777V47Z" fill="#fff"/>
          <path d="M46.584,38.719a.884.884,0,0,1-.081.375,1.01,1.01,0,0,1-.216.306,1.037,1.037,0,0,1-.315.209.951.951,0,0,1-.388.079.915.915,0,0,1-.378-.079,1.026,1.026,0,0,1-.31-.209.987.987,0,0,1-.208-.306.9.9,0,0,1-.079-.375.955.955,0,0,1,.079-.388.98.98,0,0,1,.208-.312,1.008,1.008,0,0,1,.31-.209.931.931,0,0,1,.378-.079.968.968,0,0,1,.388.079,1.019,1.019,0,0,1,.315.209,1,1,0,0,1,.216.312A.94.94,0,0,1,46.584,38.719Zm-.23,1.869V47H44.809V40.588Z" fill="#fff"/>
          <path d="M53.434,47H52.74a.747.747,0,0,1-.344-.065.42.42,0,0,1-.187-.266l-.138-.456a5.5,5.5,0,0,1-.477.384,2.954,2.954,0,0,1-.485.278,2.494,2.494,0,0,1-.531.169,3.234,3.234,0,0,1-.625.056,2.458,2.458,0,0,1-.75-.11,1.609,1.609,0,0,1-.591-.329,1.475,1.475,0,0,1-.384-.546,1.949,1.949,0,0,1-.138-.758,1.5,1.5,0,0,1,.191-.718,1.787,1.787,0,0,1,.634-.64,4.046,4.046,0,0,1,1.182-.474,7.567,7.567,0,0,1,1.831-.187v-.379a1.434,1.434,0,0,0-.272-.96.992.992,0,0,0-.791-.311,1.921,1.921,0,0,0-.625.087,2.409,2.409,0,0,0-.434.2c-.122.073-.237.138-.341.2a.7.7,0,0,1-.344.087.448.448,0,0,1-.268-.081.607.607,0,0,1-.181-.2l-.281-.494a3.816,3.816,0,0,1,2.668-1.012,2.582,2.582,0,0,1,1,.184,2.129,2.129,0,0,1,.746.513,2.179,2.179,0,0,1,.465.784,3,3,0,0,1,.16,1Zm-3-.963a2.056,2.056,0,0,0,.437-.043,1.614,1.614,0,0,0,.379-.129,2.028,2.028,0,0,0,.344-.213,3.262,3.262,0,0,0,.334-.3V44.281a6.325,6.325,0,0,0-1.128.085,2.975,2.975,0,0,0-.729.218.931.931,0,0,0-.39.309.771.771,0,0,0,.125.968A1.036,1.036,0,0,0,50.434,46.037Z" fill="#fff"/>
          <path d="M57.371,47.1a1.686,1.686,0,0,1-1.281-.472,1.816,1.816,0,0,1-.449-1.3V41.744H54.99a.307.307,0,0,1-.215-.082.311.311,0,0,1-.091-.243v-.612l1.031-.169.326-1.75a.314.314,0,0,1,.115-.2.375.375,0,0,1,.229-.068h.8v2.019h1.687v1.1H57.184v3.475a.683.683,0,0,0,.15.469.509.509,0,0,0,.4.168.728.728,0,0,0,.241-.034,1.384,1.384,0,0,0,.169-.072c.047-.025.09-.049.127-.072a.218.218,0,0,1,.114-.034.173.173,0,0,1,.111.034.513.513,0,0,1,.094.1l.463.75a2.333,2.333,0,0,1-.776.425A2.845,2.845,0,0,1,57.371,47.1Z" fill="#fff"/>
        </g>
      </g>
    </g>
  </g>
</svg>
