<svg xmlns="http://www.w3.org/2000/svg" viewBox="0 0 76 67">
  <title>C3_methoden_hover</title>
  <g id="Ebene_2" data-name="Ebene 2">
    <g id="Ebene_1-2" data-name="Ebene 1">
      <g>
        <path id="Rechteck_57" data-name="Rechteck 57" d="M15.5.5h45a14.926,14.926,0,0,1,15,14.85v36.3a14.926,14.926,0,0,1-15,14.85h-45A14.926,14.926,0,0,1,.5,51.65V15.35A14.926,14.926,0,0,1,15.5.5Z" fill="#28497c" stroke="#c6d1ec" stroke-miterlimit="10"/>
        <g>
          <path d="M14.071,35.532c.063.15.124.3.185.452q.091-.234.189-.462t.208-.435l2.782-5.206a.671.671,0,0,1,.107-.156.328.328,0,0,1,.124-.085.575.575,0,0,1,.152-.033c.057,0,.124-.006.2-.006h1.319V39H17.8V32.929c0-.113,0-.237.01-.37s.016-.271.029-.41L15,37.479a.75.75,0,0,1-.253.283.656.656,0,0,1-.364.1h-.241a.656.656,0,0,1-.364-.1.75.75,0,0,1-.253-.283l-2.88-5.349c.018.142.029.282.036.419s.01.263.01.38V39H9.147V29.6h1.32c.078,0,.145,0,.2.006a.583.583,0,0,1,.153.033.355.355,0,0,1,.127.085.645.645,0,0,1,.11.156L13.866,35.1C13.94,35.238,14.008,35.383,14.071,35.532Z" fill="#c6d1ec"/>
          <path d="M23.9,32.227a3.232,3.232,0,0,1,1.161.2,2.537,2.537,0,0,1,.913.588,2.688,2.688,0,0,1,.6.949,3.584,3.584,0,0,1,.214,1.283,2.3,2.3,0,0,1-.016.3.473.473,0,0,1-.059.188.238.238,0,0,1-.113.1.5.5,0,0,1-.183.029H22.3a2.294,2.294,0,0,0,.553,1.508,1.725,1.725,0,0,0,1.274.481,2.2,2.2,0,0,0,.673-.091,3.085,3.085,0,0,0,.494-.2c.141-.073.264-.14.37-.2a.631.631,0,0,1,.309-.091.349.349,0,0,1,.169.039.373.373,0,0,1,.124.111l.467.585a2.614,2.614,0,0,1-.6.522,3.287,3.287,0,0,1-.692.339,3.835,3.835,0,0,1-.734.179,5.367,5.367,0,0,1-.725.052,3.553,3.553,0,0,1-1.293-.231,2.916,2.916,0,0,1-1.041-.682,3.215,3.215,0,0,1-.7-1.119,4.328,4.328,0,0,1-.253-1.544,3.705,3.705,0,0,1,.22-1.284,3.108,3.108,0,0,1,.634-1.046,3.005,3.005,0,0,1,1.008-.7A3.309,3.309,0,0,1,23.9,32.227Zm.033,1.151a1.488,1.488,0,0,0-1.1.4,1.959,1.959,0,0,0-.507,1.124h3.016a2,2,0,0,0-.084-.587A1.353,1.353,0,0,0,25,33.826a1.229,1.229,0,0,0-.441-.328A1.51,1.51,0,0,0,23.935,33.378Z" fill="#c6d1ec"/>
          <path d="M30.285,39.1a1.755,1.755,0,0,1-1.333-.491,1.883,1.883,0,0,1-.468-1.355V33.533h-.676a.327.327,0,0,1-.224-.084.321.321,0,0,1-.094-.254v-.636l1.073-.176.337-1.82a.324.324,0,0,1,.121-.2.377.377,0,0,1,.237-.071h.832v2.1h1.755v1.143H30.09v3.614a.71.71,0,0,0,.156.488.529.529,0,0,0,.416.176.724.724,0,0,0,.25-.037,1.229,1.229,0,0,0,.175-.074c.05-.026.095-.051.134-.075a.229.229,0,0,1,.117-.035.191.191,0,0,1,.117.035.553.553,0,0,1,.1.107l.481.781a2.451,2.451,0,0,1-.8.441A3,3,0,0,1,30.285,39.1Z" fill="#c6d1ec"/>
          <path d="M33.125,39V29.341h1.606v3.712a3.41,3.41,0,0,1,.858-.6,2.5,2.5,0,0,1,1.1-.227,2.4,2.4,0,0,1,.968.185,1.9,1.9,0,0,1,.7.521,2.278,2.278,0,0,1,.43.8,3.426,3.426,0,0,1,.146,1.025V39H37.331V34.756a1.423,1.423,0,0,0-.283-.946,1.047,1.047,0,0,0-.848-.335,1.681,1.681,0,0,0-.78.188,2.8,2.8,0,0,0-.689.514V39Z" fill="#c6d1ec"/>
          <path d="M43.363,32.227a3.661,3.661,0,0,1,1.355.241,2.915,2.915,0,0,1,1.037.682,3.005,3.005,0,0,1,.662,1.079,4.447,4.447,0,0,1,0,2.853,3.071,3.071,0,0,1-.662,1.086,2.891,2.891,0,0,1-1.037.689,3.941,3.941,0,0,1-2.714,0,2.915,2.915,0,0,1-1.043-.689,3.1,3.1,0,0,1-.669-1.086,4.394,4.394,0,0,1,0-2.853,3.033,3.033,0,0,1,.669-1.079A2.939,2.939,0,0,1,42,32.468,3.69,3.69,0,0,1,43.363,32.227Zm0,5.635a1.412,1.412,0,0,0,1.231-.558,2.8,2.8,0,0,0,.4-1.639,2.83,2.83,0,0,0-.4-1.644,1.4,1.4,0,0,0-1.231-.566,1.427,1.427,0,0,0-1.248.569,2.816,2.816,0,0,0-.4,1.641,2.782,2.782,0,0,0,.4,1.635A1.429,1.429,0,0,0,43.363,37.862Z" fill="#c6d1ec"/>
          <path d="M52.6,39a.394.394,0,0,1-.409-.293l-.13-.643a4.005,4.005,0,0,1-.435.422,2.773,2.773,0,0,1-.491.326,2.567,2.567,0,0,1-.566.21,2.7,2.7,0,0,1-.653.076,2.176,2.176,0,0,1-1.785-.888,3.177,3.177,0,0,1-.506-1.069,5.363,5.363,0,0,1-.179-1.456,4.553,4.553,0,0,1,.2-1.378,3.379,3.379,0,0,1,.579-1.105,2.688,2.688,0,0,1,.9-.731,2.606,2.606,0,0,1,1.184-.264,2.318,2.318,0,0,1,.955.18,2.492,2.492,0,0,1,.708.477V29.341h1.606V39Zm-2.138-1.177a1.645,1.645,0,0,0,.852-.208,2.523,2.523,0,0,0,.662-.591v-2.99a1.577,1.577,0,0,0-.595-.468,1.747,1.747,0,0,0-.692-.136,1.554,1.554,0,0,0-.659.136,1.3,1.3,0,0,0-.5.413,2.034,2.034,0,0,0-.315.7,4.018,4.018,0,0,0-.11,1,4.448,4.448,0,0,0,.094.991,1.933,1.933,0,0,0,.269.663,1.027,1.027,0,0,0,.43.371A1.374,1.374,0,0,0,50.461,37.823Z" fill="#c6d1ec"/>
          <path d="M58.072,32.227a3.223,3.223,0,0,1,1.16.2,2.541,2.541,0,0,1,.914.588,2.688,2.688,0,0,1,.6.949,3.584,3.584,0,0,1,.214,1.283,2.3,2.3,0,0,1-.016.3.473.473,0,0,1-.059.188.238.238,0,0,1-.113.1.5.5,0,0,1-.183.029H56.466a2.294,2.294,0,0,0,.553,1.508,1.725,1.725,0,0,0,1.274.481,2.2,2.2,0,0,0,.673-.091,3.085,3.085,0,0,0,.494-.2c.141-.073.264-.14.37-.2a.631.631,0,0,1,.309-.091.349.349,0,0,1,.169.039.383.383,0,0,1,.124.111l.467.585a2.635,2.635,0,0,1-.6.522,3.287,3.287,0,0,1-.692.339,3.835,3.835,0,0,1-.734.179,5.379,5.379,0,0,1-.725.052,3.562,3.562,0,0,1-1.294-.231,2.921,2.921,0,0,1-1.04-.682,3.215,3.215,0,0,1-.7-1.119,4.328,4.328,0,0,1-.253-1.544,3.705,3.705,0,0,1,.22-1.284,3.108,3.108,0,0,1,.634-1.046,3,3,0,0,1,1.008-.7A3.306,3.306,0,0,1,58.072,32.227Zm.032,1.151a1.487,1.487,0,0,0-1.1.4A1.959,1.959,0,0,0,56.5,34.9h3.016a2,2,0,0,0-.084-.587,1.353,1.353,0,0,0-.261-.485,1.229,1.229,0,0,0-.441-.328A1.512,1.512,0,0,0,58.1,33.378Z" fill="#c6d1ec"/>
          <path d="M62.264,39V32.331h.982a.4.4,0,0,1,.409.292l.111.527a3.76,3.76,0,0,1,.425-.377,3.02,3.02,0,0,1,.475-.293,2.429,2.429,0,0,1,.536-.188,2.839,2.839,0,0,1,.624-.065,2.4,2.4,0,0,1,.969.185,1.913,1.913,0,0,1,.7.521,2.276,2.276,0,0,1,.429.8,3.426,3.426,0,0,1,.146,1.025V39H66.47V34.756a1.428,1.428,0,0,0-.283-.946,1.047,1.047,0,0,0-.848-.335,1.678,1.678,0,0,0-.78.188,2.779,2.779,0,0,0-.689.514V39Z" fill="#c6d1ec"/>
        </g>
      </g>
    </g>
  </g>
</svg>
