<svg xmlns="http://www.w3.org/2000/svg" viewBox="0 0 76 67">
  <title>C3_methoden</title>
  <g id="Ebene_2" data-name="Ebene 2">
    <g id="Ebene_1-2" data-name="Ebene 1">
      <g>
        <path id="Rechteck_57" data-name="Rechteck 57" d="M15.5.5h45a14.926,14.926,0,0,1,15,14.85v36.3a14.926,14.926,0,0,1-15,14.85h-45A14.926,14.926,0,0,1,.5,51.65V15.35A14.926,14.926,0,0,1,15.5.5Z" fill="#28497c" stroke="#fff" stroke-miterlimit="10"/>
        <g>
          <path d="M14.071,35.532c.063.15.124.3.186.452q.09-.234.188-.462t.208-.435l2.782-5.206a.7.7,0,0,1,.107-.156.328.328,0,0,1,.124-.085.575.575,0,0,1,.152-.033c.057,0,.124-.006.2-.006h1.32V39H17.8V32.929c0-.113,0-.237.01-.37s.016-.271.029-.41L15,37.479a.742.742,0,0,1-.253.283.656.656,0,0,1-.364.1h-.24a.662.662,0,0,1-.365-.1.758.758,0,0,1-.253-.283L10.643,32.13c.017.142.029.282.036.419s.009.263.009.38V39H9.147V29.6h1.32c.078,0,.145,0,.2.006a.584.584,0,0,1,.152.033.355.355,0,0,1,.127.085.674.674,0,0,1,.111.156L13.866,35.1C13.94,35.238,14.009,35.383,14.071,35.532Z" fill="#fff"/>
          <path d="M23.9,32.227a3.232,3.232,0,0,1,1.161.2,2.537,2.537,0,0,1,.913.588,2.688,2.688,0,0,1,.6.949,3.584,3.584,0,0,1,.214,1.283,2.3,2.3,0,0,1-.016.3.491.491,0,0,1-.058.188.241.241,0,0,1-.114.1.5.5,0,0,1-.182.029H22.3a2.289,2.289,0,0,0,.553,1.508,1.722,1.722,0,0,0,1.273.481,2.2,2.2,0,0,0,.673-.091,3.085,3.085,0,0,0,.494-.2c.141-.073.265-.14.37-.2a.631.631,0,0,1,.31-.091.351.351,0,0,1,.169.039.37.37,0,0,1,.123.111l.467.585a2.63,2.63,0,0,1-.6.522,3.318,3.318,0,0,1-.693.339,3.835,3.835,0,0,1-.734.179,5.367,5.367,0,0,1-.725.052,3.56,3.56,0,0,1-1.293-.231,2.916,2.916,0,0,1-1.041-.682,3.23,3.23,0,0,1-.7-1.119,4.328,4.328,0,0,1-.253-1.544,3.682,3.682,0,0,1,.221-1.284,3.076,3.076,0,0,1,.634-1.046,2.985,2.985,0,0,1,1.008-.7A3.3,3.3,0,0,1,23.9,32.227Zm.033,1.151a1.488,1.488,0,0,0-1.1.4,1.959,1.959,0,0,0-.507,1.124h3.017a2,2,0,0,0-.085-.587,1.366,1.366,0,0,0-.26-.485,1.242,1.242,0,0,0-.442-.328A1.51,1.51,0,0,0,23.935,33.378Z" fill="#fff"/>
          <path d="M30.285,39.1a1.758,1.758,0,0,1-1.333-.491,1.888,1.888,0,0,1-.468-1.355V33.533h-.675a.327.327,0,0,1-.225-.084.321.321,0,0,1-.094-.254v-.636l1.073-.176.337-1.82a.329.329,0,0,1,.121-.2.379.379,0,0,1,.237-.071h.832v2.1h1.755v1.143H30.09v3.614a.71.71,0,0,0,.156.488.529.529,0,0,0,.416.176.72.72,0,0,0,.25-.037,1.3,1.3,0,0,0,.176-.074c.05-.026.094-.051.133-.075a.229.229,0,0,1,.117-.035.187.187,0,0,1,.117.035.588.588,0,0,1,.1.107l.48.781a2.441,2.441,0,0,1-.8.441A3,3,0,0,1,30.285,39.1Z" fill="#fff"/>
          <path d="M33.126,39V29.341h1.605v3.712a3.41,3.41,0,0,1,.858-.6,2.5,2.5,0,0,1,1.1-.227,2.4,2.4,0,0,1,.968.185,1.9,1.9,0,0,1,.7.521,2.278,2.278,0,0,1,.43.8,3.426,3.426,0,0,1,.146,1.025V39H37.331V34.756a1.428,1.428,0,0,0-.282-.946,1.051,1.051,0,0,0-.849-.335,1.681,1.681,0,0,0-.78.188,2.816,2.816,0,0,0-.689.514V39Z" fill="#fff"/>
          <path d="M43.363,32.227a3.661,3.661,0,0,1,1.355.241,2.915,2.915,0,0,1,1.037.682,3.021,3.021,0,0,1,.663,1.079,4.465,4.465,0,0,1,0,2.853,3.087,3.087,0,0,1-.663,1.086,2.891,2.891,0,0,1-1.037.689,3.938,3.938,0,0,1-2.713,0,2.911,2.911,0,0,1-1.044-.689,3.1,3.1,0,0,1-.669-1.086,4.412,4.412,0,0,1,0-2.853,3.033,3.033,0,0,1,.669-1.079,2.934,2.934,0,0,1,1.044-.682A3.681,3.681,0,0,1,43.363,32.227Zm0,5.635A1.414,1.414,0,0,0,44.6,37.3a2.81,2.81,0,0,0,.4-1.639,2.838,2.838,0,0,0-.4-1.644,1.407,1.407,0,0,0-1.232-.566,1.429,1.429,0,0,0-1.248.569,2.824,2.824,0,0,0-.4,1.641,2.79,2.79,0,0,0,.4,1.635A1.432,1.432,0,0,0,43.363,37.862Z" fill="#fff"/>
          <path d="M52.6,39a.4.4,0,0,1-.41-.293l-.129-.643a4.106,4.106,0,0,1-.436.422,2.737,2.737,0,0,1-.491.326,2.567,2.567,0,0,1-.566.21,2.7,2.7,0,0,1-.653.076,2.173,2.173,0,0,1-1.784-.888,3.159,3.159,0,0,1-.507-1.069,5.4,5.4,0,0,1-.179-1.456,4.585,4.585,0,0,1,.2-1.378,3.379,3.379,0,0,1,.579-1.105,2.691,2.691,0,0,1,.9-.731,2.6,2.6,0,0,1,1.183-.264,2.312,2.312,0,0,1,.955.18,2.511,2.511,0,0,1,.709.477V29.341h1.605V39Zm-2.139-1.177a1.643,1.643,0,0,0,.852-.208,2.527,2.527,0,0,0,.663-.591v-2.99a1.577,1.577,0,0,0-.595-.468,1.756,1.756,0,0,0-.693-.136,1.554,1.554,0,0,0-.659.136,1.3,1.3,0,0,0-.5.413,2.034,2.034,0,0,0-.315.7,4.066,4.066,0,0,0-.11,1,4.448,4.448,0,0,0,.094.991,1.953,1.953,0,0,0,.27.663,1.025,1.025,0,0,0,.429.371A1.374,1.374,0,0,0,50.461,37.823Z" fill="#fff"/>
          <path d="M58.072,32.227a3.223,3.223,0,0,1,1.16.2,2.532,2.532,0,0,1,.914.588,2.688,2.688,0,0,1,.6.949,3.584,3.584,0,0,1,.214,1.283,2.3,2.3,0,0,1-.016.3.491.491,0,0,1-.058.188.245.245,0,0,1-.114.1.5.5,0,0,1-.182.029H56.467a2.289,2.289,0,0,0,.553,1.508,1.722,1.722,0,0,0,1.273.481,2.2,2.2,0,0,0,.673-.091,3.085,3.085,0,0,0,.494-.2c.141-.073.265-.14.37-.2a.631.631,0,0,1,.31-.091.351.351,0,0,1,.169.039.39.39,0,0,1,.123.111l.467.585a2.652,2.652,0,0,1-.6.522,3.318,3.318,0,0,1-.693.339,3.835,3.835,0,0,1-.734.179,5.367,5.367,0,0,1-.725.052,3.57,3.57,0,0,1-1.294-.231,2.921,2.921,0,0,1-1.04-.682,3.215,3.215,0,0,1-.7-1.119,4.328,4.328,0,0,1-.253-1.544,3.682,3.682,0,0,1,.221-1.284,3.076,3.076,0,0,1,.634-1.046,2.991,2.991,0,0,1,1.007-.7A3.309,3.309,0,0,1,58.072,32.227Zm.032,1.151a1.487,1.487,0,0,0-1.1.4A1.959,1.959,0,0,0,56.5,34.9h3.017a2,2,0,0,0-.085-.587,1.366,1.366,0,0,0-.26-.485,1.242,1.242,0,0,0-.442-.328A1.512,1.512,0,0,0,58.1,33.378Z" fill="#fff"/>
          <path d="M62.265,39V32.331h.981a.394.394,0,0,1,.409.292l.111.527a3.76,3.76,0,0,1,.425-.377,3.02,3.02,0,0,1,.475-.293,2.429,2.429,0,0,1,.536-.188,2.853,2.853,0,0,1,.624-.065,2.4,2.4,0,0,1,.969.185,1.913,1.913,0,0,1,.7.521,2.294,2.294,0,0,1,.43.8,3.459,3.459,0,0,1,.145,1.025V39H66.47V34.756a1.428,1.428,0,0,0-.282-.946,1.051,1.051,0,0,0-.849-.335,1.681,1.681,0,0,0-.78.188,2.8,2.8,0,0,0-.689.514V39Z" fill="#fff"/>
        </g>
      </g>
    </g>
  </g>
</svg>
