<svg xmlns="http://www.w3.org/2000/svg" viewBox="0 0 76 67">
  <title>C4_yuoshi_hover</title>
  <g id="Ebene_2" data-name="Ebene 2">
    <g id="Ebene_1-2" data-name="Ebene 1">
      <g>
        <path id="Rechteck_57" data-name="Rechteck 57" d="M15.5.5h45a14.926,14.926,0,0,1,15,14.85v36.3a14.926,14.926,0,0,1-15,14.85h-45A14.926,14.926,0,0,1,.5,51.65V15.35A14.926,14.926,0,0,1,15.5.5Z" fill="#28497c" stroke="#c6d1ec" stroke-miterlimit="10"/>
        <g>
          <path d="M15.22,42.256a.766.766,0,0,1-.227.316.7.7,0,0,1-.429.108H13.092l1.536-3.287-3.319-7.6h1.728a.544.544,0,0,1,.367.112.738.738,0,0,1,.193.256l1.752,4.256a3.8,3.8,0,0,1,.151.432c.043.15.081.3.112.448.043-.154.09-.3.14-.448s.106-.29.165-.44l1.647-4.248a.586.586,0,0,1,.212-.264.561.561,0,0,1,.332-.1h1.584Z" fill="#c6d1ec"/>
          <path d="M25.613,38.264a2.858,2.858,0,0,0,1.116-.207,2.341,2.341,0,0,0,.832-.584,2.59,2.59,0,0,0,.52-.912,3.765,3.765,0,0,0,.18-1.2V28.432h2.152v6.927a5.35,5.35,0,0,1-.332,1.909,4.253,4.253,0,0,1-2.468,2.5,5.781,5.781,0,0,1-4,0,4.3,4.3,0,0,1-1.509-.992,4.352,4.352,0,0,1-.952-1.511,5.35,5.35,0,0,1-.331-1.909V28.432h2.152v6.92a3.781,3.781,0,0,0,.179,1.2,2.625,2.625,0,0,0,.516.916,2.279,2.279,0,0,0,.829.589A2.854,2.854,0,0,0,25.613,38.264Z" fill="#c6d1ec"/>
          <path d="M43.7,34.216a6.4,6.4,0,0,1-.424,2.356,5.583,5.583,0,0,1-1.192,1.876,5.369,5.369,0,0,1-1.848,1.236,6.676,6.676,0,0,1-4.788,0,5.393,5.393,0,0,1-1.856-1.236,5.547,5.547,0,0,1-1.2-1.876,6.76,6.76,0,0,1,0-4.713,5.552,5.552,0,0,1,1.2-1.875,5.422,5.422,0,0,1,1.856-1.236,6.264,6.264,0,0,1,2.4-.443,6.178,6.178,0,0,1,2.392.447,5.484,5.484,0,0,1,1.848,1.236,5.552,5.552,0,0,1,1.192,1.871A6.412,6.412,0,0,1,43.7,34.216Zm-2.208,0a5.39,5.39,0,0,0-.252-1.708,3.6,3.6,0,0,0-.724-1.283,3.112,3.112,0,0,0-1.148-.809,4.313,4.313,0,0,0-3.052,0,3.141,3.141,0,0,0-1.156.809,3.624,3.624,0,0,0-.732,1.283,5.826,5.826,0,0,0,0,3.416,3.593,3.593,0,0,0,.732,1.28,3.177,3.177,0,0,0,1.156.8,4.3,4.3,0,0,0,3.052,0,3.147,3.147,0,0,0,1.148-.8,3.564,3.564,0,0,0,.724-1.28A5.385,5.385,0,0,0,41.492,34.216Z" fill="#c6d1ec"/>
          <path d="M51.6,30.536a.6.6,0,0,1-.2.248.513.513,0,0,1-.276.071.7.7,0,0,1-.36-.123c-.133-.083-.291-.174-.472-.276a3.886,3.886,0,0,0-.636-.276,2.693,2.693,0,0,0-.86-.123,2.527,2.527,0,0,0-.78.107,1.654,1.654,0,0,0-.56.3,1.207,1.207,0,0,0-.34.46,1.506,1.506,0,0,0-.112.588,1.017,1.017,0,0,0,.228.679,1.907,1.907,0,0,0,.6.465,5.689,5.689,0,0,0,.856.344c.32.1.647.209.98.324a9.329,9.329,0,0,1,.98.4,3.355,3.355,0,0,1,.856.575,2.62,2.62,0,0,1,.6.852,2.959,2.959,0,0,1,.228,1.224,3.98,3.98,0,0,1-.268,1.468,3.394,3.394,0,0,1-.784,1.192,3.678,3.678,0,0,1-1.26.8,4.632,4.632,0,0,1-1.7.292,5.492,5.492,0,0,1-1.088-.108,5.682,5.682,0,0,1-1.028-.308,5.379,5.379,0,0,1-.92-.48,4.481,4.481,0,0,1-.764-.625l.624-1.031a.793.793,0,0,1,.212-.187.516.516,0,0,1,.276-.076.76.76,0,0,1,.432.164c.155.109.337.23.548.363a4.228,4.228,0,0,0,.744.364,2.882,2.882,0,0,0,1.028.164,2.109,2.109,0,0,0,1.424-.436,1.563,1.563,0,0,0,.5-1.252,1.163,1.163,0,0,0-.228-.744,1.829,1.829,0,0,0-.6-.484,4.518,4.518,0,0,0-.856-.332q-.48-.136-.976-.3a8.168,8.168,0,0,1-.976-.385,3.115,3.115,0,0,1-.856-.584,2.638,2.638,0,0,1-.6-.9,3.43,3.43,0,0,1-.228-1.332,3.188,3.188,0,0,1,.988-2.3,3.651,3.651,0,0,1,1.188-.744,4.316,4.316,0,0,1,1.608-.279,5.379,5.379,0,0,1,1.888.319,4.285,4.285,0,0,1,1.472.9Z" fill="#c6d1ec"/>
          <path d="M53.868,40V28.111h1.976V32.68a4.22,4.22,0,0,1,1.056-.737,3.085,3.085,0,0,1,1.352-.279,2.927,2.927,0,0,1,1.192.229,2.347,2.347,0,0,1,.868.639,2.819,2.819,0,0,1,.528.984,4.177,4.177,0,0,1,.18,1.259V40H59.044V34.775a1.758,1.758,0,0,0-.348-1.164,1.3,1.3,0,0,0-1.044-.411,2.056,2.056,0,0,0-.96.232,3.44,3.44,0,0,0-.848.632V40Z" fill="#c6d1ec"/>
          <path d="M65.364,29.4a1.12,1.12,0,0,1-.1.48,1.315,1.315,0,0,1-.68.66,1.236,1.236,0,0,1-.5.1,1.189,1.189,0,0,1-.484-.1,1.273,1.273,0,0,1-.4-.269,1.289,1.289,0,0,1-.268-.391,1.179,1.179,0,0,1-.1-.48,1.256,1.256,0,0,1,.1-.5,1.283,1.283,0,0,1,.268-.4,1.306,1.306,0,0,1,.4-.268,1.2,1.2,0,0,1,.484-.1,1.252,1.252,0,0,1,.5.1,1.331,1.331,0,0,1,.4.268,1.287,1.287,0,0,1,.276.4A1.193,1.193,0,0,1,65.364,29.4Zm-.3,2.392V40H63.092V31.792Z" fill="#c6d1ec"/>
        </g>
      </g>
    </g>
  </g>
</svg>
