<svg xmlns="http://www.w3.org/2000/svg" viewBox="0 0 76 67">
  <title>C4_yuoshi</title>
  <g id="Ebene_2" data-name="Ebene 2">
    <g id="Ebene_1-2" data-name="Ebene 1">
      <g>
        <path id="Rechteck_57" data-name="Rechteck 57" d="M15.5.5h45a14.926,14.926,0,0,1,15,14.85v36.3a14.926,14.926,0,0,1-15,14.85h-45A14.926,14.926,0,0,1,.5,51.65V15.35A14.926,14.926,0,0,1,15.5.5Z" fill="#28497c" stroke="#fff" stroke-miterlimit="10"/>
        <g>
          <path d="M15.22,42.256a.767.767,0,0,1-.228.316.692.692,0,0,1-.428.108H13.092l1.536-3.287-3.319-7.6h1.727a.547.547,0,0,1,.368.112.75.75,0,0,1,.193.256l1.752,4.256a4,4,0,0,1,.151.432c.043.15.08.3.112.448.043-.154.089-.3.14-.448s.1-.29.164-.44l1.648-4.248a.579.579,0,0,1,.212-.264.559.559,0,0,1,.332-.1h1.584Z" fill="#fff"/>
          <path d="M25.612,38.264a2.863,2.863,0,0,0,1.117-.207,2.341,2.341,0,0,0,.832-.584,2.573,2.573,0,0,0,.519-.912,3.765,3.765,0,0,0,.181-1.2V28.432h2.151v6.927a5.328,5.328,0,0,1-.332,1.909,4.253,4.253,0,0,1-2.468,2.5,5.781,5.781,0,0,1-4,0,4.3,4.3,0,0,1-1.508-.992,4.352,4.352,0,0,1-.952-1.511,5.35,5.35,0,0,1-.332-1.909V28.432h2.153v6.92a3.753,3.753,0,0,0,.179,1.2,2.625,2.625,0,0,0,.516.916,2.284,2.284,0,0,0,.828.589A2.854,2.854,0,0,0,25.612,38.264Z" fill="#fff"/>
          <path d="M43.7,34.216a6.382,6.382,0,0,1-.425,2.356,5.566,5.566,0,0,1-1.191,1.876,5.364,5.364,0,0,1-1.849,1.236,6.673,6.673,0,0,1-4.787,0,5.393,5.393,0,0,1-1.856-1.236,5.547,5.547,0,0,1-1.2-1.876,6.76,6.76,0,0,1,0-4.713,5.552,5.552,0,0,1,1.2-1.875,5.422,5.422,0,0,1,1.856-1.236,6.264,6.264,0,0,1,2.4-.443,6.169,6.169,0,0,1,2.391.447,5.479,5.479,0,0,1,1.849,1.236,5.534,5.534,0,0,1,1.191,1.871A6.391,6.391,0,0,1,43.7,34.216Zm-2.208,0a5.39,5.39,0,0,0-.252-1.708,3.61,3.61,0,0,0-.724-1.283,3.12,3.12,0,0,0-1.148-.809,4.315,4.315,0,0,0-3.053,0,3.137,3.137,0,0,0-1.155.809,3.624,3.624,0,0,0-.732,1.283,5.826,5.826,0,0,0,0,3.416,3.593,3.593,0,0,0,.732,1.28,3.173,3.173,0,0,0,1.155.8,4.3,4.3,0,0,0,3.053,0,3.155,3.155,0,0,0,1.148-.8,3.579,3.579,0,0,0,.724-1.28A5.385,5.385,0,0,0,41.492,34.216Z" fill="#fff"/>
          <path d="M51.6,30.536a.6.6,0,0,1-.2.248.513.513,0,0,1-.276.071.7.7,0,0,1-.36-.123c-.134-.083-.291-.174-.472-.276a3.861,3.861,0,0,0-.637-.276,2.687,2.687,0,0,0-.859-.123,2.527,2.527,0,0,0-.78.107,1.645,1.645,0,0,0-.56.3,1.22,1.22,0,0,0-.341.46,1.524,1.524,0,0,0-.111.588,1.017,1.017,0,0,0,.228.679,1.907,1.907,0,0,0,.6.465,5.646,5.646,0,0,0,.856.344c.32.1.646.209.98.324a9.329,9.329,0,0,1,.98.4,3.373,3.373,0,0,1,.856.575,2.62,2.62,0,0,1,.6.852,2.959,2.959,0,0,1,.228,1.224,3.98,3.98,0,0,1-.269,1.468,3.367,3.367,0,0,1-.784,1.192,3.664,3.664,0,0,1-1.259.8,4.637,4.637,0,0,1-1.705.292,5.489,5.489,0,0,1-1.087-.108,5.634,5.634,0,0,1-1.028-.308,5.426,5.426,0,0,1-.921-.48,4.473,4.473,0,0,1-.763-.625l.624-1.031a.778.778,0,0,1,.212-.187.514.514,0,0,1,.276-.076.76.76,0,0,1,.432.164q.233.164.547.363a4.205,4.205,0,0,0,.745.364,2.879,2.879,0,0,0,1.028.164,2.109,2.109,0,0,0,1.424-.436,1.563,1.563,0,0,0,.5-1.252,1.168,1.168,0,0,0-.228-.744,1.829,1.829,0,0,0-.6-.484,4.545,4.545,0,0,0-.856-.332q-.48-.136-.976-.3a8.1,8.1,0,0,1-.976-.385,3.115,3.115,0,0,1-.856-.584,2.624,2.624,0,0,1-.6-.9,3.429,3.429,0,0,1-.229-1.332,3.184,3.184,0,0,1,.989-2.3,3.641,3.641,0,0,1,1.188-.744,4.316,4.316,0,0,1,1.608-.279,5.374,5.374,0,0,1,1.887.319,4.28,4.28,0,0,1,1.473.9Z" fill="#fff"/>
          <path d="M53.868,40V28.111h1.976V32.68a4.233,4.233,0,0,1,1.055-.737,3.089,3.089,0,0,1,1.353-.279,2.919,2.919,0,0,1,1.191.229,2.35,2.35,0,0,1,.869.639,2.819,2.819,0,0,1,.528.984,4.177,4.177,0,0,1,.18,1.259V40H59.044V34.775a1.753,1.753,0,0,0-.349-1.164,1.292,1.292,0,0,0-1.044-.411,2.058,2.058,0,0,0-.96.232,3.436,3.436,0,0,0-.847.632V40Z" fill="#fff"/>
          <path d="M65.364,29.4a1.135,1.135,0,0,1-.1.48,1.315,1.315,0,0,1-.68.66,1.236,1.236,0,0,1-.5.1,1.186,1.186,0,0,1-.484-.1,1.273,1.273,0,0,1-.4-.269,1.289,1.289,0,0,1-.268-.391,1.163,1.163,0,0,1-.1-.48,1.239,1.239,0,0,1,.1-.5,1.283,1.283,0,0,1,.268-.4,1.306,1.306,0,0,1,.4-.268,1.2,1.2,0,0,1,.484-.1,1.252,1.252,0,0,1,.5.1,1.356,1.356,0,0,1,.4.268,1.3,1.3,0,0,1,.276.4A1.208,1.208,0,0,1,65.364,29.4Zm-.3,2.392V40H63.092V31.792Z" fill="#fff"/>
        </g>
      </g>
    </g>
  </g>
</svg>
