<svg xmlns="http://www.w3.org/2000/svg" viewBox="0 0 76 67">
  <title>C5_zertifikate</title>
  <g id="Ebene_2" data-name="Ebene 2">
    <g id="Ebene_1-2" data-name="Ebene 1">
      <g>
        <path id="Rechteck_57" data-name="Rechteck 57" d="M15.5.5h45a14.926,14.926,0,0,1,15,14.85v36.3a14.926,14.926,0,0,1-15,14.85h-45A14.926,14.926,0,0,1,.5,51.65V15.35A14.926,14.926,0,0,1,15.5.5Z" fill="#28497c" stroke="#fff" stroke-miterlimit="10"/>
        <g>
          <path d="M16.767,29.324v.594a.872.872,0,0,1-.157.5L12.158,36.71h4.5V38H10.064v-.636a.647.647,0,0,1,.042-.231.969.969,0,0,1,.108-.207l4.464-6.318H10.346V29.324Z" fill="#fff"/>
          <path d="M20.258,31.748a3.011,3.011,0,0,1,1.071.186,2.337,2.337,0,0,1,.843.543,2.481,2.481,0,0,1,.552.876,3.308,3.308,0,0,1,.2,1.185,2.144,2.144,0,0,1-.015.279.465.465,0,0,1-.053.174.225.225,0,0,1-.106.09.448.448,0,0,1-.168.027h-3.8a2.12,2.12,0,0,0,.51,1.392,1.59,1.59,0,0,0,1.176.444,2.037,2.037,0,0,0,.621-.084,2.912,2.912,0,0,0,.456-.186q.2-.1.342-.186a.574.574,0,0,1,.285-.084.318.318,0,0,1,.156.036.358.358,0,0,1,.115.1l.431.54a2.424,2.424,0,0,1-.552.483,3.1,3.1,0,0,1-.639.312,3.493,3.493,0,0,1-.678.165,4.844,4.844,0,0,1-.669.048,3.288,3.288,0,0,1-1.194-.213,2.673,2.673,0,0,1-.96-.63,2.956,2.956,0,0,1-.642-1.032A3.994,3.994,0,0,1,17.3,34.79a3.408,3.408,0,0,1,.2-1.185,2.849,2.849,0,0,1,.585-.966,2.748,2.748,0,0,1,.931-.651A3.055,3.055,0,0,1,20.258,31.748Zm.03,1.062a1.37,1.37,0,0,0-1.014.366,1.805,1.805,0,0,0-.468,1.038H21.59a1.847,1.847,0,0,0-.078-.543,1.261,1.261,0,0,0-.24-.447,1.136,1.136,0,0,0-.408-.3A1.39,1.39,0,0,0,20.288,32.81Z" fill="#fff"/>
          <path d="M24.128,38V31.844H25a.463.463,0,0,1,.317.084.477.477,0,0,1,.121.288l.089.744a2.941,2.941,0,0,1,.775-.9,1.629,1.629,0,0,1,1-.33,1.287,1.287,0,0,1,.756.21l-.193,1.11a.225.225,0,0,1-.078.153.261.261,0,0,1-.161.045,1.01,1.01,0,0,1-.246-.042,1.646,1.646,0,0,0-.414-.042,1.255,1.255,0,0,0-.792.255,1.965,1.965,0,0,0-.559.747V38Z" fill="#fff"/>
          <path d="M31.052,38.1a1.619,1.619,0,0,1-1.23-.453,1.739,1.739,0,0,1-.432-1.251V32.954h-.624a.284.284,0,0,1-.294-.312v-.588l.99-.162.312-1.68a.3.3,0,0,1,.111-.186.352.352,0,0,1,.219-.066h.768V31.9h1.62v1.056h-1.62V36.29a.654.654,0,0,0,.144.45.488.488,0,0,0,.384.162.7.7,0,0,0,.231-.033,1.271,1.271,0,0,0,.162-.069q.069-.036.123-.069a.206.206,0,0,1,.108-.033.17.17,0,0,1,.108.033.5.5,0,0,1,.09.1l.444.72a2.244,2.244,0,0,1-.744.408A2.769,2.769,0,0,1,31.052,38.1Z" fill="#fff"/>
          <path d="M35.474,30.05a.86.86,0,0,1-.078.36.992.992,0,0,1-.208.294.973.973,0,0,1-.3.2.93.93,0,0,1-.372.075.9.9,0,0,1-.364-.075.957.957,0,0,1-.3-.2.975.975,0,0,1-.2-.294.889.889,0,0,1-.075-.36.947.947,0,0,1,.075-.372.948.948,0,0,1,.5-.5.9.9,0,0,1,.364-.075.93.93,0,0,1,.372.075.97.97,0,0,1,.51.5A.915.915,0,0,1,35.474,30.05Zm-.222,1.794V38H33.77V31.844Z" fill="#fff"/>
          <path d="M37.189,38V32.96l-.534-.084a.56.56,0,0,1-.278-.12.315.315,0,0,1-.106-.252V31.9h.918v-.2a2.889,2.889,0,0,1,.187-1.047,2.228,2.228,0,0,1,.563-.837,2.671,2.671,0,0,1,.955-.555,4.133,4.133,0,0,1,1.362-.2,5.037,5.037,0,0,1,.515.027,2.353,2.353,0,0,1,.457.087l-.048.768a.17.17,0,0,1-.151.165,1.809,1.809,0,0,1-.341.027,3.95,3.95,0,0,0-.975.1,1.623,1.623,0,0,0-.637.3,1.113,1.113,0,0,0-.347.5,2.126,2.126,0,0,0-.1.705v.15h3.815V38H40.958V32.954H38.672V38Z" fill="#fff"/>
          <path d="M45.638,29.084V34.19h.275a.526.526,0,0,0,.234-.042.6.6,0,0,0,.18-.156l1.53-1.89a.913.913,0,0,1,.216-.189.574.574,0,0,1,.3-.069h1.356L47.815,34.13a2.478,2.478,0,0,1-.21.231,1.368,1.368,0,0,1-.234.183,1.139,1.139,0,0,1,.223.21c.063.08.128.166.191.258L49.838,38H48.5a.656.656,0,0,1-.294-.06.584.584,0,0,1-.216-.2L46.424,35.4a.479.479,0,0,0-.181-.18.658.658,0,0,0-.269-.042h-.336V38H44.155V29.084Z" fill="#fff"/>
          <path d="M55.58,38h-.666a.715.715,0,0,1-.33-.063.4.4,0,0,1-.181-.255l-.132-.438a5.076,5.076,0,0,1-.458.369,2.787,2.787,0,0,1-.465.267,2.372,2.372,0,0,1-.51.162,3.079,3.079,0,0,1-.6.054,2.327,2.327,0,0,1-.719-.106,1.542,1.542,0,0,1-.568-.315,1.456,1.456,0,0,1-.368-.524,1.847,1.847,0,0,1-.133-.728,1.442,1.442,0,0,1,.184-.69,1.739,1.739,0,0,1,.608-.614,3.889,3.889,0,0,1,1.135-.454,7.212,7.212,0,0,1,1.758-.181v-.363a1.375,1.375,0,0,0-.261-.922.958.958,0,0,0-.76-.3,1.834,1.834,0,0,0-.6.084,2.393,2.393,0,0,0-.417.189c-.118.07-.228.133-.327.189a.665.665,0,0,1-.331.084.428.428,0,0,1-.257-.078.6.6,0,0,1-.174-.192l-.271-.474A3.663,3.663,0,0,1,53.3,31.73a2.482,2.482,0,0,1,.963.177,2.043,2.043,0,0,1,.716.492,2.108,2.108,0,0,1,.448.753,2.919,2.919,0,0,1,.153.96ZM52.7,37.076a1.9,1.9,0,0,0,.42-.042,1.525,1.525,0,0,0,.363-.124,1.875,1.875,0,0,0,.331-.2,3.149,3.149,0,0,0,.321-.287V35.39a5.948,5.948,0,0,0-1.083.082,2.861,2.861,0,0,0-.7.208.894.894,0,0,0-.375.3.739.739,0,0,0,.12.93A.991.991,0,0,0,52.7,37.076Z" fill="#fff"/>
          <path d="M59.06,38.1a1.618,1.618,0,0,1-1.23-.453,1.739,1.739,0,0,1-.433-1.251V32.954h-.624a.284.284,0,0,1-.294-.312v-.588l.991-.162.312-1.68a.3.3,0,0,1,.111-.186.35.35,0,0,1,.219-.066h.768V31.9H60.5v1.056H58.88V36.29a.659.659,0,0,0,.143.45.492.492,0,0,0,.385.162.7.7,0,0,0,.231-.033A1.271,1.271,0,0,0,59.8,36.8q.069-.036.123-.069a.206.206,0,0,1,.108-.033.17.17,0,0,1,.108.033.471.471,0,0,1,.089.1l.445.72a2.244,2.244,0,0,1-.744.408A2.778,2.778,0,0,1,59.06,38.1Z" fill="#fff"/>
          <path d="M64.226,31.748a3.015,3.015,0,0,1,1.071.186,2.362,2.362,0,0,1,.843.543,2.479,2.479,0,0,1,.551.876,3.308,3.308,0,0,1,.2,1.185,1.961,1.961,0,0,1-.016.279.43.43,0,0,1-.054.174.216.216,0,0,1-.1.09.455.455,0,0,1-.168.027h-3.8a2.12,2.12,0,0,0,.51,1.392,1.592,1.592,0,0,0,1.177.444,2.046,2.046,0,0,0,.621-.084,2.952,2.952,0,0,0,.456-.186c.13-.068.243-.13.342-.186a.568.568,0,0,1,.285-.084.32.32,0,0,1,.155.036.345.345,0,0,1,.114.1l.432.54a2.445,2.445,0,0,1-.552.483,3.113,3.113,0,0,1-.638.312,3.51,3.51,0,0,1-.678.165,4.866,4.866,0,0,1-.669.048,3.285,3.285,0,0,1-1.194-.213,2.656,2.656,0,0,1-.96-.63,2.943,2.943,0,0,1-.643-1.032,4.017,4.017,0,0,1-.233-1.425,3.385,3.385,0,0,1,.2-1.185,2.834,2.834,0,0,1,.585-.966,2.75,2.75,0,0,1,.929-.651A3.072,3.072,0,0,1,64.226,31.748Zm.03,1.062a1.371,1.371,0,0,0-1.015.366,1.812,1.812,0,0,0-.468,1.038h2.785a1.847,1.847,0,0,0-.079-.543,1.23,1.23,0,0,0-.24-.447,1.127,1.127,0,0,0-.408-.3A1.385,1.385,0,0,0,64.256,32.81Z" fill="#fff"/>
        </g>
      </g>
    </g>
  </g>
</svg>
