<svg xmlns="http://www.w3.org/2000/svg" viewBox="0 0 76 67">
  <title>C5_zertifikate_hover</title>
  <g id="Ebene_2" data-name="Ebene 2">
    <g id="Ebene_1-2" data-name="Ebene 1">
      <g>
        <path id="Rechteck_57" data-name="Rechteck 57" d="M15.5.5h45a14.926,14.926,0,0,1,15,14.85v36.3a14.926,14.926,0,0,1-15,14.85h-45A14.926,14.926,0,0,1,.5,51.65V15.35A14.926,14.926,0,0,1,15.5.5Z" fill="#28497c" stroke="#c6d1ec" stroke-miterlimit="10"/>
        <g>
          <path d="M16.766,29.324v.594a.871.871,0,0,1-.156.5L12.158,36.71h4.5V38H10.064v-.636a.647.647,0,0,1,.042-.231.969.969,0,0,1,.108-.207l4.464-6.318H10.346V29.324Z" fill="#c6d1ec"/>
          <path d="M20.258,31.748a3.011,3.011,0,0,1,1.071.186,2.345,2.345,0,0,1,.843.543,2.481,2.481,0,0,1,.552.876,3.308,3.308,0,0,1,.2,1.185,2.144,2.144,0,0,1-.015.279.446.446,0,0,1-.054.174.219.219,0,0,1-.105.09.448.448,0,0,1-.168.027h-3.8a2.12,2.12,0,0,0,.51,1.392,1.59,1.59,0,0,0,1.176.444,2.037,2.037,0,0,0,.621-.084,2.912,2.912,0,0,0,.456-.186q.2-.1.342-.186a.574.574,0,0,1,.285-.084.321.321,0,0,1,.156.036.345.345,0,0,1,.114.1l.432.54a2.445,2.445,0,0,1-.552.483,3.1,3.1,0,0,1-.639.312,3.493,3.493,0,0,1-.678.165,4.855,4.855,0,0,1-.669.048,3.288,3.288,0,0,1-1.194-.213,2.673,2.673,0,0,1-.96-.63,2.956,2.956,0,0,1-.642-1.032A3.994,3.994,0,0,1,17.3,34.79a3.408,3.408,0,0,1,.2-1.185,2.849,2.849,0,0,1,.585-.966,2.754,2.754,0,0,1,.93-.651A3.063,3.063,0,0,1,20.258,31.748Zm.03,1.062a1.37,1.37,0,0,0-1.014.366,1.805,1.805,0,0,0-.468,1.038H21.59a1.847,1.847,0,0,0-.078-.543,1.261,1.261,0,0,0-.24-.447,1.136,1.136,0,0,0-.408-.3A1.39,1.39,0,0,0,20.288,32.81Z" fill="#c6d1ec"/>
          <path d="M24.127,38V31.844H25a.465.465,0,0,1,.317.084.483.483,0,0,1,.121.288l.089.744a2.938,2.938,0,0,1,.774-.9,1.629,1.629,0,0,1,1-.33,1.283,1.283,0,0,1,.756.21l-.192,1.11a.225.225,0,0,1-.078.153.261.261,0,0,1-.161.045,1.01,1.01,0,0,1-.246-.042,1.655,1.655,0,0,0-.415-.042,1.257,1.257,0,0,0-.792.255,1.963,1.963,0,0,0-.558.747V38Z" fill="#c6d1ec"/>
          <path d="M31.052,38.1a1.619,1.619,0,0,1-1.23-.453,1.739,1.739,0,0,1-.432-1.251V32.954h-.624a.284.284,0,0,1-.294-.312v-.588l.99-.162.312-1.68a.3.3,0,0,1,.111-.186.352.352,0,0,1,.219-.066h.768V31.9h1.62v1.056h-1.62V36.29a.654.654,0,0,0,.144.45.488.488,0,0,0,.384.162.7.7,0,0,0,.231-.033,1.271,1.271,0,0,0,.162-.069q.069-.036.123-.069a.206.206,0,0,1,.108-.033.17.17,0,0,1,.108.033.5.5,0,0,1,.09.1l.444.72a2.244,2.244,0,0,1-.744.408A2.769,2.769,0,0,1,31.052,38.1Z" fill="#c6d1ec"/>
          <path d="M35.473,30.05a.859.859,0,0,1-.077.36,1.011,1.011,0,0,1-.208.294.989.989,0,0,1-.3.2.926.926,0,0,1-.372.075.894.894,0,0,1-.363-.075.957.957,0,0,1-.3-.2.975.975,0,0,1-.2-.294.873.873,0,0,1-.075-.36.93.93,0,0,1,.075-.372.948.948,0,0,1,.5-.5.894.894,0,0,1,.363-.075.926.926,0,0,1,.372.075.967.967,0,0,1,.511.5A.914.914,0,0,1,35.473,30.05Zm-.222,1.794V38H33.77V31.844Z" fill="#c6d1ec"/>
          <path d="M37.189,38V32.96l-.534-.084a.568.568,0,0,1-.279-.12.314.314,0,0,1-.1-.252V31.9h.918v-.2a2.889,2.889,0,0,1,.186-1.047,2.243,2.243,0,0,1,.564-.837,2.666,2.666,0,0,1,.954-.555,4.141,4.141,0,0,1,1.362-.2,5.071,5.071,0,0,1,.516.027,2.368,2.368,0,0,1,.457.087l-.049.768a.169.169,0,0,1-.15.165,1.817,1.817,0,0,1-.341.027,3.954,3.954,0,0,0-.976.1,1.625,1.625,0,0,0-.636.3,1.105,1.105,0,0,0-.347.5,2.126,2.126,0,0,0-.1.705v.15h3.815V38H40.958V32.954H38.671V38Z" fill="#c6d1ec"/>
          <path d="M45.637,29.084V34.19h.276a.532.532,0,0,0,.234-.042.607.607,0,0,0,.18-.156l1.53-1.89a.894.894,0,0,1,.216-.189.574.574,0,0,1,.3-.069h1.356L47.815,34.13a2.626,2.626,0,0,1-.21.231,1.368,1.368,0,0,1-.234.183,1.106,1.106,0,0,1,.222.21q.1.12.192.258L49.837,38H48.5a.653.653,0,0,1-.294-.06.576.576,0,0,1-.216-.2L46.423,35.4a.478.478,0,0,0-.18-.18.667.667,0,0,0-.27-.042h-.336V38H44.155V29.084Z" fill="#c6d1ec"/>
          <path d="M55.58,38h-.666a.722.722,0,0,1-.331-.063.4.4,0,0,1-.18-.255l-.132-.438a5.219,5.219,0,0,1-.458.369,2.8,2.8,0,0,1-.466.267,2.337,2.337,0,0,1-.51.162,3.061,3.061,0,0,1-.6.054,2.327,2.327,0,0,1-.719-.106,1.534,1.534,0,0,1-.568-.315,1.432,1.432,0,0,1-.368-.524,1.847,1.847,0,0,1-.133-.728,1.44,1.44,0,0,1,.183-.69,1.743,1.743,0,0,1,.609-.614,3.893,3.893,0,0,1,1.134-.454,7.212,7.212,0,0,1,1.758-.181v-.363a1.381,1.381,0,0,0-.26-.922.958.958,0,0,0-.76-.3,1.841,1.841,0,0,0-.6.084,2.428,2.428,0,0,0-.417.189c-.117.07-.227.133-.326.189a.668.668,0,0,1-.331.084.429.429,0,0,1-.258-.078.614.614,0,0,1-.174-.192l-.27-.474A3.661,3.661,0,0,1,53.3,31.73a2.475,2.475,0,0,1,.963.177,2.047,2.047,0,0,1,.717.492,2.106,2.106,0,0,1,.447.753,2.893,2.893,0,0,1,.154.96ZM52.7,37.076a1.9,1.9,0,0,0,.42-.042,1.525,1.525,0,0,0,.363-.124,1.912,1.912,0,0,0,.331-.2,3.144,3.144,0,0,0,.32-.287V35.39a5.956,5.956,0,0,0-1.083.082,2.851,2.851,0,0,0-.7.208.882.882,0,0,0-.375.3.741.741,0,0,0,.119.93A1,1,0,0,0,52.7,37.076Z" fill="#c6d1ec"/>
          <path d="M59.06,38.1a1.618,1.618,0,0,1-1.23-.453,1.739,1.739,0,0,1-.433-1.251V32.954h-.624a.284.284,0,0,1-.294-.312v-.588l.991-.162.312-1.68a.288.288,0,0,1,.111-.186.35.35,0,0,1,.219-.066h.767V31.9H60.5v1.056H58.879V36.29a.659.659,0,0,0,.144.45.492.492,0,0,0,.385.162.7.7,0,0,0,.231-.033A1.336,1.336,0,0,0,59.8,36.8q.069-.036.123-.069a.2.2,0,0,1,.108-.033.17.17,0,0,1,.108.033.5.5,0,0,1,.089.1l.445.72a2.253,2.253,0,0,1-.744.408A2.778,2.778,0,0,1,59.06,38.1Z" fill="#c6d1ec"/>
          <path d="M64.225,31.748a3.011,3.011,0,0,1,1.071.186,2.345,2.345,0,0,1,.843.543,2.481,2.481,0,0,1,.552.876,3.308,3.308,0,0,1,.2,1.185,2.144,2.144,0,0,1-.015.279.446.446,0,0,1-.054.174.219.219,0,0,1-.1.09.448.448,0,0,1-.168.027h-3.8a2.12,2.12,0,0,0,.51,1.392,1.59,1.59,0,0,0,1.176.444,2.037,2.037,0,0,0,.621-.084,2.912,2.912,0,0,0,.456-.186q.195-.1.342-.186a.574.574,0,0,1,.285-.084.321.321,0,0,1,.156.036.345.345,0,0,1,.114.1l.432.54a2.445,2.445,0,0,1-.552.483,3.1,3.1,0,0,1-.639.312,3.493,3.493,0,0,1-.678.165,4.855,4.855,0,0,1-.669.048,3.288,3.288,0,0,1-1.194-.213,2.673,2.673,0,0,1-.96-.63,2.956,2.956,0,0,1-.642-1.032,3.994,3.994,0,0,1-.234-1.425,3.408,3.408,0,0,1,.2-1.185,2.849,2.849,0,0,1,.585-.966,2.754,2.754,0,0,1,.93-.651A3.063,3.063,0,0,1,64.225,31.748Zm.03,1.062a1.37,1.37,0,0,0-1.014.366,1.805,1.805,0,0,0-.468,1.038h2.784a1.847,1.847,0,0,0-.078-.543,1.261,1.261,0,0,0-.24-.447,1.136,1.136,0,0,0-.408-.3A1.39,1.39,0,0,0,64.255,32.81Z" fill="#c6d1ec"/>
        </g>
      </g>
    </g>
  </g>
</svg>
