<svg xmlns="http://www.w3.org/2000/svg" viewBox="0 0 76 67">
  <title>C6_lehrer_hover</title>
  <g id="Ebene_2" data-name="Ebene 2">
    <g id="Ebene_1-2" data-name="Ebene 1">
      <g>
        <path id="Rechteck_57" data-name="Rechteck 57" d="M15.5.5h45a14.926,14.926,0,0,1,15,14.85v36.3a14.926,14.926,0,0,1-15,14.85h-45A14.926,14.926,0,0,1,.5,51.65V15.35A14.926,14.926,0,0,1,15.5.5Z" fill="#28497c" stroke="#c6d1ec" stroke-miterlimit="10"/>
        <g>
          <path d="M11.4,36.668h3.474V38H9.787V29.324H11.4Z" fill="#c6d1ec"/>
          <path d="M18.223,31.748a3.011,3.011,0,0,1,1.071.186,2.345,2.345,0,0,1,.843.543,2.465,2.465,0,0,1,.551.876,3.286,3.286,0,0,1,.2,1.185,2.144,2.144,0,0,1-.015.279.446.446,0,0,1-.054.174.219.219,0,0,1-.105.09.451.451,0,0,1-.168.027h-3.8A2.125,2.125,0,0,0,17.25,36.5a1.592,1.592,0,0,0,1.177.444,2.037,2.037,0,0,0,.621-.084,2.912,2.912,0,0,0,.456-.186q.195-.1.342-.186a.574.574,0,0,1,.285-.084.321.321,0,0,1,.156.036.345.345,0,0,1,.114.1l.432.54a2.467,2.467,0,0,1-.552.483,3.1,3.1,0,0,1-.639.312,3.493,3.493,0,0,1-.678.165,4.855,4.855,0,0,1-.669.048,3.288,3.288,0,0,1-1.194-.213,2.664,2.664,0,0,1-.96-.63,2.956,2.956,0,0,1-.642-1.032,3.994,3.994,0,0,1-.234-1.425,3.408,3.408,0,0,1,.2-1.185,2.834,2.834,0,0,1,.585-.966,2.754,2.754,0,0,1,.93-.651A3.063,3.063,0,0,1,18.223,31.748Zm.03,1.062a1.369,1.369,0,0,0-1.014.366,1.805,1.805,0,0,0-.468,1.038h2.784a1.847,1.847,0,0,0-.078-.543,1.261,1.261,0,0,0-.24-.447,1.136,1.136,0,0,0-.408-.3A1.39,1.39,0,0,0,18.253,32.81Z" fill="#c6d1ec"/>
          <path d="M22.092,38V29.084h1.482V32.51a3.136,3.136,0,0,1,.792-.552,2.3,2.3,0,0,1,1.014-.21,2.207,2.207,0,0,1,.894.171,1.766,1.766,0,0,1,.651.48,2.11,2.11,0,0,1,.4.738,3.136,3.136,0,0,1,.135.945V38H25.974V34.082a1.315,1.315,0,0,0-.261-.873.967.967,0,0,0-.783-.309,1.543,1.543,0,0,0-.72.174,2.58,2.58,0,0,0-.636.474V38Z" fill="#c6d1ec"/>
          <path d="M28.915,38V31.844h.87a.468.468,0,0,1,.318.084.483.483,0,0,1,.12.288l.09.744a2.936,2.936,0,0,1,.773-.9,1.63,1.63,0,0,1,1-.33,1.282,1.282,0,0,1,.755.21l-.192,1.11a.225.225,0,0,1-.078.153.261.261,0,0,1-.161.045,1.01,1.01,0,0,1-.246-.042,1.652,1.652,0,0,0-.414-.042,1.253,1.253,0,0,0-.792.255,1.955,1.955,0,0,0-.559.747V38Z" fill="#c6d1ec"/>
          <path d="M36.36,31.748a3.017,3.017,0,0,1,1.072.186,2.341,2.341,0,0,1,.842.543,2.481,2.481,0,0,1,.552.876,3.308,3.308,0,0,1,.2,1.185,1.98,1.98,0,0,1-.015.279.447.447,0,0,1-.053.174.223.223,0,0,1-.105.09.455.455,0,0,1-.168.027h-3.8a2.12,2.12,0,0,0,.51,1.392,1.591,1.591,0,0,0,1.176.444,2.048,2.048,0,0,0,.622-.084,2.994,2.994,0,0,0,.456-.186c.129-.068.243-.13.341-.186a.577.577,0,0,1,.286-.084.317.317,0,0,1,.155.036.358.358,0,0,1,.115.1l.431.54a2.424,2.424,0,0,1-.552.483,3.1,3.1,0,0,1-.639.312,3.465,3.465,0,0,1-.677.165,4.866,4.866,0,0,1-.669.048,3.29,3.29,0,0,1-1.2-.213,2.673,2.673,0,0,1-.96-.63,2.956,2.956,0,0,1-.642-1.032A3.994,3.994,0,0,1,33.4,34.79a3.408,3.408,0,0,1,.2-1.185,2.865,2.865,0,0,1,.585-.966,2.748,2.748,0,0,1,.931-.651A3.055,3.055,0,0,1,36.36,31.748Zm.031,1.062a1.371,1.371,0,0,0-1.015.366,1.812,1.812,0,0,0-.468,1.038h2.784a1.814,1.814,0,0,0-.078-.543,1.259,1.259,0,0,0-.239-.447,1.14,1.14,0,0,0-.409-.3A1.388,1.388,0,0,0,36.391,32.81Z" fill="#c6d1ec"/>
          <path d="M40.23,38V31.844h.87a.466.466,0,0,1,.318.084.483.483,0,0,1,.12.288l.09.744a2.925,2.925,0,0,1,.774-.9,1.629,1.629,0,0,1,1-.33,1.287,1.287,0,0,1,.756.21l-.192,1.11a.229.229,0,0,1-.078.153.264.264,0,0,1-.162.045,1.01,1.01,0,0,1-.246-.042,1.646,1.646,0,0,0-.414-.042,1.257,1.257,0,0,0-.792.255,1.963,1.963,0,0,0-.558.747V38Z" fill="#c6d1ec"/>
          <path d="M46.38,32.978v-1.1a1.632,1.632,0,0,1,.016-.234,1,1,0,0,1,.05-.216.817.817,0,0,1-.155.15c-.061.044-.124.088-.193.132l-.948.552-.354-.6.954-.552A1.424,1.424,0,0,1,45.963,31a1.013,1.013,0,0,1,.219-.06.7.7,0,0,1-.219-.06,2.02,2.02,0,0,1-.213-.114l-.954-.558.349-.6.953.564c.069.044.133.089.2.135a.828.828,0,0,1,.159.153.817.817,0,0,1-.056-.216,1.632,1.632,0,0,1-.016-.234V28.9h.708V30a1.91,1.91,0,0,1-.015.243.86.86,0,0,1-.057.219.871.871,0,0,1,.156-.153,2.275,2.275,0,0,1,.2-.135l.948-.552.354.6-.954.546a1.675,1.675,0,0,1-.213.111.917.917,0,0,1-.219.063,1.335,1.335,0,0,1,.432.168l.954.558-.348.6-.954-.558q-.108-.066-.2-.132a.961.961,0,0,1-.162-.15,1.154,1.154,0,0,1,.078.444v1.1Z" fill="#c6d1ec"/>
          <path d="M51.732,30.05a.844.844,0,0,1-.078.36.979.979,0,0,1-.51.5.93.93,0,0,1-.372.075.894.894,0,0,1-.363-.075.962.962,0,0,1-.3-.2.972.972,0,0,1-.2-.294.873.873,0,0,1-.075-.36.93.93,0,0,1,.075-.372.964.964,0,0,1,.2-.3.979.979,0,0,1,.3-.2.894.894,0,0,1,.363-.075.93.93,0,0,1,.372.075,1.008,1.008,0,0,1,.3.2.98.98,0,0,1,.207.3A.9.9,0,0,1,51.732,30.05Zm-.222,1.794V38H50.028V31.844Z" fill="#c6d1ec"/>
          <path d="M53.184,38V31.844h.906a.364.364,0,0,1,.378.27l.1.486a3.376,3.376,0,0,1,.393-.348,2.744,2.744,0,0,1,.438-.27,2.232,2.232,0,0,1,.495-.174,2.6,2.6,0,0,1,.576-.06,2.207,2.207,0,0,1,.894.171,1.766,1.766,0,0,1,.651.48,2.11,2.11,0,0,1,.4.738,3.136,3.136,0,0,1,.135.945V38H57.066V34.082a1.315,1.315,0,0,0-.261-.873.967.967,0,0,0-.783-.309,1.543,1.543,0,0,0-.72.174,2.58,2.58,0,0,0-.636.474V38Z" fill="#c6d1ec"/>
          <path d="M59.436,30.11a4.172,4.172,0,0,1,.447-.342,3.209,3.209,0,0,1,.525-.282,3.268,3.268,0,0,1,.612-.189,3.488,3.488,0,0,1,.714-.069,2.975,2.975,0,0,1,.951.144,2.138,2.138,0,0,1,.735.411,1.833,1.833,0,0,1,.474.645,2.061,2.061,0,0,1,.168.846,2.072,2.072,0,0,1-.465,1.368,2.647,2.647,0,0,1-.435.426l-.444.339a3.509,3.509,0,0,0-.363.312.616.616,0,0,0-.183.345l-.138.876H61.02l-.1-.978a.267.267,0,0,1-.006-.051V33.86a.8.8,0,0,1,.132-.459,1.872,1.872,0,0,1,.33-.366q.2-.171.426-.333a3.821,3.821,0,0,0,.426-.351,1.766,1.766,0,0,0,.33-.429,1.152,1.152,0,0,0,.132-.564.893.893,0,0,0-.081-.387.875.875,0,0,0-.225-.294,1.009,1.009,0,0,0-.345-.189,1.387,1.387,0,0,0-.435-.066,1.938,1.938,0,0,0-.579.075,2.2,2.2,0,0,0-.4.168c-.11.063-.2.118-.279.168a.384.384,0,0,1-.2.075.327.327,0,0,1-.312-.18Zm1.134,7.074a.926.926,0,0,1,.069-.354.846.846,0,0,1,.192-.288.945.945,0,0,1,.291-.192.9.9,0,0,1,.36-.072.889.889,0,0,1,.354.072.882.882,0,0,1,.48.48.893.893,0,0,1,.072.354.879.879,0,0,1-.072.357.917.917,0,0,1-.192.285.869.869,0,0,1-.288.189.923.923,0,0,1-.354.069.938.938,0,0,1-.36-.069.9.9,0,0,1-.291-.189.853.853,0,0,1-.192-.285A.912.912,0,0,1,60.57,37.184Z" fill="#c6d1ec"/>
          <path d="M65.514,37.184a.926.926,0,0,1,.069-.354.846.846,0,0,1,.192-.288.945.945,0,0,1,.291-.192.9.9,0,0,1,.36-.072.889.889,0,0,1,.354.072.882.882,0,0,1,.48.48.893.893,0,0,1,.072.354.879.879,0,0,1-.072.357.917.917,0,0,1-.192.285.869.869,0,0,1-.288.189.923.923,0,0,1-.354.069.938.938,0,0,1-.36-.069.9.9,0,0,1-.291-.189.853.853,0,0,1-.192-.285A.912.912,0,0,1,65.514,37.184Zm1.626-7.86v3.432a10.462,10.462,0,0,1-.054,1.071q-.054.525-.144,1.113h-1q-.09-.588-.144-1.113a10.462,10.462,0,0,1-.054-1.071V29.324Z" fill="#c6d1ec"/>
        </g>
      </g>
    </g>
  </g>
</svg>
