<svg xmlns="http://www.w3.org/2000/svg" viewBox="0 0 76 67">
  <title>C7_tipps</title>
  <g id="Ebene_2" data-name="Ebene 2">
    <g id="Ebene_1-2" data-name="Ebene 1">
      <g>
        <path id="Rechteck_57" data-name="Rechteck 57" d="M15.5.5h45a14.926,14.926,0,0,1,15,14.85v36.3a14.926,14.926,0,0,1-15,14.85h-45A14.926,14.926,0,0,1,.5,51.65V15.35A14.926,14.926,0,0,1,15.5.5Z" fill="#28497c" stroke="#fff" stroke-miterlimit="10"/>
        <g>
          <path d="M15.549,23.477v.83H11.938v2.5h2.923v.8H11.938v2.567h3.611V31H10.914V23.477Z" fill="#fff"/>
          <path d="M16.867,31V25.682H17.4a.3.3,0,0,1,.211.057.363.363,0,0,1,.078.2l.063.83a2.426,2.426,0,0,1,.676-.87,1.506,1.506,0,0,1,1.672-.123l-.122.7a.157.157,0,0,1-.163.13.816.816,0,0,1-.225-.049,1.4,1.4,0,0,0-.426-.05,1.21,1.21,0,0,0-.816.283,2.135,2.135,0,0,0-.548.824V31Z" fill="#fff"/>
          <path d="M21.309,31V26.479l-.588-.068a.45.45,0,0,1-.182-.081.191.191,0,0,1-.07-.16v-.383h.84v-.515a2.363,2.363,0,0,1,.129-.811,1.643,1.643,0,0,1,.367-.6,1.561,1.561,0,0,1,.574-.37,2.146,2.146,0,0,1,.757-.126,1.992,1.992,0,0,1,.661.106l-.022.466a.118.118,0,0,1-.087.126.974.974,0,0,1-.237.022h-.164a1.424,1.424,0,0,0-.437.062.825.825,0,0,0-.339.206.915.915,0,0,0-.218.373,1.834,1.834,0,0,0-.076.572v.488h1.538v.677H22.248V31Z" fill="#fff"/>
          <path d="M28.543,31h-.415a.5.5,0,0,1-.221-.042.234.234,0,0,1-.11-.179l-.106-.493c-.138.126-.275.238-.408.339a2.349,2.349,0,0,1-.42.252,2.194,2.194,0,0,1-.47.154,2.693,2.693,0,0,1-.554.053,1.884,1.884,0,0,1-.58-.087,1.3,1.3,0,0,1-.47-.261,1.246,1.246,0,0,1-.318-.439,1.56,1.56,0,0,1-.117-.63,1.166,1.166,0,0,1,.172-.608,1.517,1.517,0,0,1,.56-.519,3.646,3.646,0,0,1,1.01-.372,6.851,6.851,0,0,1,1.528-.145v-.418a1.449,1.449,0,0,0-.265-.942.963.963,0,0,0-.785-.32A1.653,1.653,0,0,0,26,26.43a2.2,2.2,0,0,0-.4.194c-.115.072-.212.137-.294.194a.423.423,0,0,1-.244.087.276.276,0,0,1-.166-.05.384.384,0,0,1-.113-.124l-.168-.3a3.046,3.046,0,0,1,.951-.636,2.928,2.928,0,0,1,1.128-.21,2.035,2.035,0,0,1,.793.147,1.62,1.62,0,0,1,.582.41,1.7,1.7,0,0,1,.358.635,2.661,2.661,0,0,1,.121.819Zm-2.426-.572a1.916,1.916,0,0,0,.451-.05,1.736,1.736,0,0,0,.387-.142,2.014,2.014,0,0,0,.346-.223,2.883,2.883,0,0,0,.323-.3v-1.1a6.314,6.314,0,0,0-1.1.082,3.094,3.094,0,0,0-.736.214,1.031,1.031,0,0,0-.412.312.672.672,0,0,0-.128.4.876.876,0,0,0,.068.364.688.688,0,0,0,.184.251.717.717,0,0,0,.272.143A1.246,1.246,0,0,0,26.117,30.428Z" fill="#fff"/>
          <path d="M29.961,31V23.267H30.9V26.4a2.907,2.907,0,0,1,.755-.581,2.047,2.047,0,0,1,.956-.217,1.925,1.925,0,0,1,.769.144,1.5,1.5,0,0,1,.557.409,1.845,1.845,0,0,1,.339.638,2.781,2.781,0,0,1,.116.824V31h-.936V27.613a1.433,1.433,0,0,0-.275-.936,1.029,1.029,0,0,0-.842-.334,1.573,1.573,0,0,0-.775.2,2.537,2.537,0,0,0-.664.541V31Z" fill="#fff"/>
          <path d="M35.8,31V25.682h.535a.3.3,0,0,1,.21.057.37.37,0,0,1,.079.2l.063.83a2.411,2.411,0,0,1,.674-.87,1.589,1.589,0,0,1,1.341-.262,1.436,1.436,0,0,1,.331.139l-.12.7a.158.158,0,0,1-.164.13.816.816,0,0,1-.225-.049,1.4,1.4,0,0,0-.425-.05,1.21,1.21,0,0,0-.817.283,2.159,2.159,0,0,0-.549.824V31Z" fill="#fff"/>
          <path d="M40.838,25.682v3.391a1.415,1.415,0,0,0,.278.935,1.037,1.037,0,0,0,.841.331,1.634,1.634,0,0,0,.772-.194A2.429,2.429,0,0,0,43.4,29.6V25.682h.935V31h-.557a.238.238,0,0,1-.252-.194l-.074-.573a2.929,2.929,0,0,1-.777.618,2.04,2.04,0,0,1-.986.233,1.913,1.913,0,0,1-.77-.145,1.506,1.506,0,0,1-.559-.406,1.738,1.738,0,0,1-.338-.636,2.807,2.807,0,0,1-.113-.824V25.682Z" fill="#fff"/>
          <path d="M45.867,31V25.682h.557a.238.238,0,0,1,.252.194l.074.577a2.969,2.969,0,0,1,.773-.619,2.025,2.025,0,0,1,.991-.236,1.922,1.922,0,0,1,.769.144,1.517,1.517,0,0,1,.557.409,1.827,1.827,0,0,1,.338.638,2.782,2.782,0,0,1,.115.824V31h-.934V27.613a1.422,1.422,0,0,0-.276-.936,1.028,1.028,0,0,0-.843-.334,1.565,1.565,0,0,0-.773.2,2.521,2.521,0,0,0-.664.541V31Z" fill="#fff"/>
          <path d="M53.5,25.593a2.643,2.643,0,0,1,.649.076,2.053,2.053,0,0,1,.548.223h1.444v.346c0,.116-.074.19-.221.221l-.6.084a1.617,1.617,0,0,1,.177.761,1.644,1.644,0,0,1-.148.706,1.61,1.61,0,0,1-.416.544,1.878,1.878,0,0,1-.629.346,2.558,2.558,0,0,1-.8.121,2.716,2.716,0,0,1-.7-.089.911.911,0,0,0-.255.233.434.434,0,0,0-.086.244.332.332,0,0,0,.153.3,1.072,1.072,0,0,0,.4.144,3.377,3.377,0,0,0,.572.044h.653a3.632,3.632,0,0,1,.654.058,1.965,1.965,0,0,1,.572.191,1.059,1.059,0,0,1,.4.367,1.086,1.086,0,0,1,.153.605,1.428,1.428,0,0,1-.17.67,1.83,1.83,0,0,1-.492.577,2.518,2.518,0,0,1-.782.4,3.375,3.375,0,0,1-1.045.151,4.038,4.038,0,0,1-1.021-.115,2.373,2.373,0,0,1-.727-.311,1.326,1.326,0,0,1-.433-.449,1.071,1.071,0,0,1-.145-.533.963.963,0,0,1,.25-.67,1.727,1.727,0,0,1,.685-.44.926.926,0,0,1-.36-.28.761.761,0,0,1-.133-.469.708.708,0,0,1,.042-.238.955.955,0,0,1,.128-.244,1.37,1.37,0,0,1,.212-.23,1.386,1.386,0,0,1,.3-.2,1.647,1.647,0,0,1-.617-.585,1.607,1.607,0,0,1-.224-.853,1.633,1.633,0,0,1,.15-.706,1.561,1.561,0,0,1,.418-.541,1.907,1.907,0,0,1,.638-.344A2.614,2.614,0,0,1,53.5,25.593Zm1.658,5.677a.473.473,0,0,0-.109-.327.721.721,0,0,0-.3-.19,2.2,2.2,0,0,0-.435-.1,4.118,4.118,0,0,0-.521-.032h-.556a2,2,0,0,1-.541-.071,1.551,1.551,0,0,0-.485.347.7.7,0,0,0-.186.489.648.648,0,0,0,.091.334.8.8,0,0,0,.281.268,1.678,1.678,0,0,0,.475.179,3.035,3.035,0,0,0,.675.065,2.978,2.978,0,0,0,.678-.069,1.7,1.7,0,0,0,.506-.2.981.981,0,0,0,.318-.3A.727.727,0,0,0,55.154,31.27ZM53.5,28.4a1.456,1.456,0,0,0,.5-.079.994.994,0,0,0,.364-.22.887.887,0,0,0,.221-.338,1.239,1.239,0,0,0,.074-.434,1.031,1.031,0,0,0-.3-.776,1.427,1.427,0,0,0-1.722,0,1.031,1.031,0,0,0-.3.776,1.2,1.2,0,0,0,.076.434.918.918,0,0,0,.224.338,1.006,1.006,0,0,0,.361.22A1.426,1.426,0,0,0,53.5,28.4Z" fill="#fff"/>
          <path d="M59.176,25.6a2.374,2.374,0,0,1,.883.16,1.977,1.977,0,0,1,.7.462,2.114,2.114,0,0,1,.459.746,2.88,2.88,0,0,1,.165,1.01.616.616,0,0,1-.047.294.2.2,0,0,1-.178.074H57.617a2.94,2.94,0,0,0,.137.877,1.8,1.8,0,0,0,.346.622,1.386,1.386,0,0,0,.525.372,1.791,1.791,0,0,0,.683.124,1.979,1.979,0,0,0,.606-.082,2.779,2.779,0,0,0,.439-.176,3.116,3.116,0,0,0,.307-.176.416.416,0,0,1,.212-.081.207.207,0,0,1,.179.089l.262.342a1.735,1.735,0,0,1-.415.364,2.537,2.537,0,0,1-.517.255,3.3,3.3,0,0,1-.569.149,3.409,3.409,0,0,1-.583.05,2.689,2.689,0,0,1-1.016-.186,2.222,2.222,0,0,1-.8-.546,2.475,2.475,0,0,1-.527-.89,3.593,3.593,0,0,1-.19-1.218,3.125,3.125,0,0,1,.17-1.04,2.494,2.494,0,0,1,.491-.837,2.273,2.273,0,0,1,.783-.556A2.561,2.561,0,0,1,59.176,25.6Zm.021.687a1.433,1.433,0,0,0-1.065.392,1.848,1.848,0,0,0-.484,1.084h2.893a1.878,1.878,0,0,0-.089-.6,1.317,1.317,0,0,0-.263-.468,1.157,1.157,0,0,0-.421-.3A1.415,1.415,0,0,0,59.2,26.285Z" fill="#fff"/>
          <path d="M62.573,31V25.682h.557a.238.238,0,0,1,.252.194l.073.577a2.989,2.989,0,0,1,.774-.619,2.024,2.024,0,0,1,.99-.236,1.922,1.922,0,0,1,.769.144,1.5,1.5,0,0,1,.557.409,1.81,1.81,0,0,1,.338.638,2.749,2.749,0,0,1,.116.824V31h-.935V27.613a1.427,1.427,0,0,0-.275-.936,1.03,1.03,0,0,0-.843-.334,1.572,1.572,0,0,0-.774.2,2.537,2.537,0,0,0-.664.541V31Z" fill="#fff"/>
          <path d="M11.575,39.682v3.391a1.41,1.41,0,0,0,.279.935,1.031,1.031,0,0,0,.839.331,1.623,1.623,0,0,0,.772-.194,2.4,2.4,0,0,0,.667-.541V39.682h.934V45H14.51a.238.238,0,0,1-.252-.194l-.074-.573a2.945,2.945,0,0,1-.777.618,2.044,2.044,0,0,1-.987.233,1.908,1.908,0,0,1-.769-.145,1.506,1.506,0,0,1-.559-.406,1.709,1.709,0,0,1-.338-.636,2.807,2.807,0,0,1-.113-.824V39.682Z" fill="#fff"/>
          <path d="M16.6,45V39.682h.557a.238.238,0,0,1,.252.194l.073.577a2.994,2.994,0,0,1,.775-.619,2.018,2.018,0,0,1,.989-.236,1.93,1.93,0,0,1,.77.144,1.5,1.5,0,0,1,.556.409,1.8,1.8,0,0,1,.338.638,2.749,2.749,0,0,1,.116.824V45H20.1V41.613a1.427,1.427,0,0,0-.276-.936,1.027,1.027,0,0,0-.842-.334,1.573,1.573,0,0,0-.775.2,2.537,2.537,0,0,0-.664.541V45Z" fill="#fff"/>
          <path d="M26.186,45a.238.238,0,0,1-.252-.194l-.084-.646a2.8,2.8,0,0,1-.78.664,2,2,0,0,1-1.006.249,1.914,1.914,0,0,1-.83-.176,1.72,1.72,0,0,1-.634-.516,2.484,2.484,0,0,1-.405-.851,4.447,4.447,0,0,1-.141-1.171,3.671,3.671,0,0,1,.157-1.094,2.67,2.67,0,0,1,.455-.88,2.083,2.083,0,0,1,1.688-.8,1.926,1.926,0,0,1,.834.166,2.017,2.017,0,0,1,.62.464v-2.95h.934V45Zm-1.811-.683a1.506,1.506,0,0,0,.8-.21,2.306,2.306,0,0,0,.633-.592V40.941a1.491,1.491,0,0,0-.565-.485,1.621,1.621,0,0,0-.68-.139,1.344,1.344,0,0,0-1.144.531,2.467,2.467,0,0,0-.4,1.511,3.818,3.818,0,0,0,.089.89,1.708,1.708,0,0,0,.262.609,1.021,1.021,0,0,0,.426.349A1.436,1.436,0,0,0,24.375,44.317Z" fill="#fff"/>
          <path d="M36.563,36.324V37.65H33.951V45H32.338V37.65H29.716V36.324Z" fill="#fff"/>
          <path d="M39.3,37.05a.859.859,0,0,1-.077.36,1.008,1.008,0,0,1-.207.294.994.994,0,0,1-.3.2.921.921,0,0,1-.371.075.9.9,0,0,1-.364-.075.957.957,0,0,1-.3-.2.975.975,0,0,1-.2-.294.873.873,0,0,1-.075-.36.93.93,0,0,1,.075-.372.948.948,0,0,1,.5-.5.9.9,0,0,1,.364-.075.921.921,0,0,1,.371.075,1.013,1.013,0,0,1,.3.2,1,1,0,0,1,.207.3A.914.914,0,0,1,39.3,37.05Zm-.221,1.794V45H37.6V38.844Z" fill="#fff"/>
          <path d="M40.756,47.01V38.844h.906a.437.437,0,0,1,.245.066.3.3,0,0,1,.132.2l.12.57a3.107,3.107,0,0,1,.855-.69,2.323,2.323,0,0,1,1.132-.264,2.017,2.017,0,0,1,.92.21,2.079,2.079,0,0,1,.721.609,2.92,2.92,0,0,1,.467.984,4.949,4.949,0,0,1,.166,1.341,4.217,4.217,0,0,1-.187,1.278,3.127,3.127,0,0,1-.531,1.02,2.4,2.4,0,0,1-1.929.918,2.2,2.2,0,0,1-.884-.159,2.171,2.171,0,0,1-.652-.441v2.52Zm2.879-7.11a1.514,1.514,0,0,0-.789.2,2.312,2.312,0,0,0-.609.549V43.4a1.406,1.406,0,0,0,.55.435,1.646,1.646,0,0,0,.639.123,1.432,1.432,0,0,0,.608-.126,1.168,1.168,0,0,0,.462-.384,1.881,1.881,0,0,0,.291-.651,3.72,3.72,0,0,0,.1-.927,4.182,4.182,0,0,0-.086-.915,1.768,1.768,0,0,0-.25-.609.984.984,0,0,0-.393-.342A1.222,1.222,0,0,0,43.635,39.9Z" fill="#fff"/>
          <path d="M47.541,47.01V38.844h.906a.443.443,0,0,1,.246.066.306.306,0,0,1,.133.2l.119.57a3.111,3.111,0,0,1,.856-.69,2.322,2.322,0,0,1,1.131-.264,2.021,2.021,0,0,1,.921.21,2.055,2.055,0,0,1,.719.609,2.922,2.922,0,0,1,.469.984,4.993,4.993,0,0,1,.164,1.341,4.218,4.218,0,0,1-.185,1.278,3.11,3.11,0,0,1-.532,1.02,2.453,2.453,0,0,1-.834.675,2.425,2.425,0,0,1-1.094.243,2.2,2.2,0,0,1-.886-.159,2.179,2.179,0,0,1-.651-.441v2.52Zm2.881-7.11a1.511,1.511,0,0,0-.789.2,2.27,2.27,0,0,0-.61.549V43.4a1.418,1.418,0,0,0,.549.435,1.657,1.657,0,0,0,.639.123,1.43,1.43,0,0,0,.609-.126,1.192,1.192,0,0,0,.463-.384,1.919,1.919,0,0,0,.291-.651,3.72,3.72,0,0,0,.1-.927,4.109,4.109,0,0,0-.088-.915,1.787,1.787,0,0,0-.248-.609.986.986,0,0,0-.394-.342A1.221,1.221,0,0,0,50.422,39.9Z" fill="#fff"/>
          <path d="M57.98,40.044a.394.394,0,0,1-.125.135.325.325,0,0,1-.167.039.53.53,0,0,1-.232-.06c-.082-.04-.177-.085-.284-.135a2.755,2.755,0,0,0-.369-.135,1.78,1.78,0,0,0-.49-.06,1.139,1.139,0,0,0-.69.186.577.577,0,0,0-.252.486.464.464,0,0,0,.129.333,1.16,1.16,0,0,0,.342.237,3.347,3.347,0,0,0,.483.183c.181.054.364.113.552.177s.372.137.553.219a1.937,1.937,0,0,1,.482.312,1.374,1.374,0,0,1,.471,1.089,2.043,2.043,0,0,1-.162.819,1.8,1.8,0,0,1-.474.648,2.226,2.226,0,0,1-.77.426,3.588,3.588,0,0,1-1.674.1,3.608,3.608,0,0,1-.582-.159,3.109,3.109,0,0,1-.517-.24,2.5,2.5,0,0,1-.417-.3l.342-.564a.494.494,0,0,1,.156-.156.441.441,0,0,1,.229-.054.475.475,0,0,1,.259.078c.082.052.178.108.286.168a2.579,2.579,0,0,0,.38.168,1.687,1.687,0,0,0,.556.078A1.44,1.44,0,0,0,56.448,44a.959.959,0,0,0,.312-.165.607.607,0,0,0,.179-.237A.678.678,0,0,0,57,43.314a.5.5,0,0,0-.129-.354,1.129,1.129,0,0,0-.342-.24,3.219,3.219,0,0,0-.486-.183c-.183-.054-.368-.113-.558-.177a5.081,5.081,0,0,1-.558-.225,1.9,1.9,0,0,1-.486-.327,1.48,1.48,0,0,1-.342-.486,1.7,1.7,0,0,1-.129-.7,1.79,1.79,0,0,1,.15-.72,1.68,1.68,0,0,1,.442-.6,2.175,2.175,0,0,1,.725-.408,3.024,3.024,0,0,1,1.005-.153,3.073,3.073,0,0,1,1.158.21,2.615,2.615,0,0,1,.87.552Z" fill="#fff"/>
        </g>
      </g>
    </g>
  </g>
</svg>
