<svg xmlns="http://www.w3.org/2000/svg" viewBox="0 0 76 67">
  <title>C8_chancen</title>
  <g id="Ebene_2" data-name="Ebene 2">
    <g id="Ebene_1-2" data-name="Ebene 1">
      <g>
        <path id="Rechteck_57" data-name="Rechteck 57" d="M15.5.5h45a14.926,14.926,0,0,1,15,14.85v36.3a14.926,14.926,0,0,1-15,14.85h-45A14.926,14.926,0,0,1,.5,51.65V15.35A14.926,14.926,0,0,1,15.5.5Z" fill="#28497c" stroke="#fff" stroke-miterlimit="10"/>
        <g>
          <path d="M16.677,29.954a.3.3,0,0,1,.227.1l.637.69a3.5,3.5,0,0,1-1.3,1,4.472,4.472,0,0,1-1.85.348,4.382,4.382,0,0,1-1.738-.33,3.825,3.825,0,0,1-1.316-.918,4,4,0,0,1-.837-1.4,5.27,5.27,0,0,1-.291-1.782,4.8,4.8,0,0,1,.323-1.791,4.043,4.043,0,0,1,2.32-2.316,4.834,4.834,0,0,1,1.809-.327,4.275,4.275,0,0,1,1.689.309,3.959,3.959,0,0,1,1.239.819l-.54.75a.49.49,0,0,1-.123.126.349.349,0,0,1-.207.054.47.47,0,0,1-.282-.108,3.413,3.413,0,0,0-.367-.234,2.971,2.971,0,0,0-.56-.234,3.243,3.243,0,0,0-1.987.105,2.506,2.506,0,0,0-.881.609,2.82,2.82,0,0,0-.577.963,3.722,3.722,0,0,0-.207,1.275,3.825,3.825,0,0,0,.207,1.3,2.881,2.881,0,0,0,.562.96,2.386,2.386,0,0,0,.834.6,2.573,2.573,0,0,0,1.031.207,4.5,4.5,0,0,0,.6-.036,2.534,2.534,0,0,0,.492-.114,2.212,2.212,0,0,0,.426-.2,2.655,2.655,0,0,0,.4-.3.569.569,0,0,1,.126-.087A.322.322,0,0,1,16.677,29.954Z" fill="#fff"/>
          <path d="M18.675,32V23.084h1.481V26.51a3.136,3.136,0,0,1,.792-.552,2.3,2.3,0,0,1,1.015-.21,2.2,2.2,0,0,1,.893.171,1.77,1.77,0,0,1,.652.48,2.108,2.108,0,0,1,.395.738,3.136,3.136,0,0,1,.135.945V32H22.557V28.082a1.315,1.315,0,0,0-.261-.873.97.97,0,0,0-.783-.309,1.543,1.543,0,0,0-.72.174,2.566,2.566,0,0,0-.637.474V32Z" fill="#fff"/>
          <path d="M30.32,32h-.666a.72.72,0,0,1-.33-.063.4.4,0,0,1-.179-.255l-.132-.438a5.378,5.378,0,0,1-.459.369,2.836,2.836,0,0,1-.466.267,2.337,2.337,0,0,1-.51.162,3.065,3.065,0,0,1-.6.054,2.333,2.333,0,0,1-.72-.106,1.542,1.542,0,0,1-.568-.315,1.447,1.447,0,0,1-.369-.524,1.865,1.865,0,0,1-.132-.728,1.44,1.44,0,0,1,.183-.69,1.734,1.734,0,0,1,.609-.614,3.917,3.917,0,0,1,1.134-.454,7.212,7.212,0,0,1,1.758-.181v-.363a1.375,1.375,0,0,0-.261-.922.953.953,0,0,0-.759-.3,1.837,1.837,0,0,0-.6.084,2.428,2.428,0,0,0-.417.189c-.117.07-.227.133-.326.189a.667.667,0,0,1-.33.084.43.43,0,0,1-.259-.078.626.626,0,0,1-.174-.192l-.269-.474a3.658,3.658,0,0,1,2.561-.972,2.472,2.472,0,0,1,.963.177,2.06,2.06,0,0,1,.718.492,2.118,2.118,0,0,1,.446.753,2.868,2.868,0,0,1,.153.96Zm-2.88-.924a1.9,1.9,0,0,0,.42-.042,1.564,1.564,0,0,0,.364-.124,1.983,1.983,0,0,0,.33-.2,3.041,3.041,0,0,0,.32-.287V29.39a5.956,5.956,0,0,0-1.083.082,2.865,2.865,0,0,0-.7.208.882.882,0,0,0-.375.3.741.741,0,0,0,.119.93A1,1,0,0,0,27.44,31.076Z" fill="#fff"/>
          <path d="M31.778,32V25.844h.907a.364.364,0,0,1,.378.27l.1.486a3.3,3.3,0,0,1,.393-.348,2.735,2.735,0,0,1,.437-.27,2.232,2.232,0,0,1,.5-.174,2.6,2.6,0,0,1,.576-.06,2.215,2.215,0,0,1,.895.171,1.755,1.755,0,0,1,.65.48,2.112,2.112,0,0,1,.4.738,3.136,3.136,0,0,1,.135.945V32H35.66V28.082a1.315,1.315,0,0,0-.261-.873.965.965,0,0,0-.783-.309,1.543,1.543,0,0,0-.72.174,2.6,2.6,0,0,0-.635.474V32Z" fill="#fff"/>
          <path d="M42.927,27.146a.776.776,0,0,1-.13.132.291.291,0,0,1-.183.048.4.4,0,0,1-.221-.069q-.109-.069-.258-.156a1.97,1.97,0,0,0-.358-.156,1.629,1.629,0,0,0-.512-.069,1.566,1.566,0,0,0-.685.141,1.3,1.3,0,0,0-.488.405,1.8,1.8,0,0,0-.291.639,3.382,3.382,0,0,0-.1.849,3.285,3.285,0,0,0,.106.876,1.854,1.854,0,0,0,.3.645,1.3,1.3,0,0,0,.481.4,1.448,1.448,0,0,0,.636.135,1.584,1.584,0,0,0,.573-.087,1.825,1.825,0,0,0,.368-.192c.1-.07.187-.134.262-.192a.389.389,0,0,1,.249-.087.3.3,0,0,1,.269.138l.426.54a2.672,2.672,0,0,1-.533.483,2.919,2.919,0,0,1-.6.312,3.031,3.031,0,0,1-.639.165,4.528,4.528,0,0,1-.654.048,2.73,2.73,0,0,1-1.074-.213A2.507,2.507,0,0,1,39,31.256a3.009,3.009,0,0,1-.594-1,4.211,4.211,0,0,1-.023-2.6,2.846,2.846,0,0,1,.572-1,2.631,2.631,0,0,1,.937-.663,3.221,3.221,0,0,1,1.284-.24,3.058,3.058,0,0,1,1.209.222,2.961,2.961,0,0,1,.932.636Z" fill="#fff"/>
          <path d="M46.868,25.748a3.007,3.007,0,0,1,1.071.186,2.328,2.328,0,0,1,.843.543,2.467,2.467,0,0,1,.552.876,3.286,3.286,0,0,1,.2,1.185,2.366,2.366,0,0,1-.014.279.464.464,0,0,1-.054.174.221.221,0,0,1-.106.09.444.444,0,0,1-.168.027h-3.8A2.125,2.125,0,0,0,45.9,30.5a1.59,1.59,0,0,0,1.176.444,2.028,2.028,0,0,0,.621-.084,2.872,2.872,0,0,0,.456-.186c.13-.068.245-.13.342-.186a.58.58,0,0,1,.285-.084.322.322,0,0,1,.157.036.345.345,0,0,1,.114.1l.432.54a2.467,2.467,0,0,1-.552.483,3.079,3.079,0,0,1-.64.312,3.475,3.475,0,0,1-.678.165,4.844,4.844,0,0,1-.669.048,3.292,3.292,0,0,1-1.194-.213,2.681,2.681,0,0,1-.96-.63,2.968,2.968,0,0,1-.641-1.032,3.971,3.971,0,0,1-.235-1.425,3.431,3.431,0,0,1,.2-1.185,2.849,2.849,0,0,1,.585-.966,2.758,2.758,0,0,1,.931-.651A3.055,3.055,0,0,1,46.868,25.748Zm.03,1.062a1.368,1.368,0,0,0-1.013.366,1.806,1.806,0,0,0-.469,1.038H48.2a1.814,1.814,0,0,0-.078-.543,1.275,1.275,0,0,0-.239-.447,1.145,1.145,0,0,0-.408-.3A1.394,1.394,0,0,0,46.9,26.81Z" fill="#fff"/>
          <path d="M50.738,32V25.844h.907a.364.364,0,0,1,.377.27l.1.486a3.376,3.376,0,0,1,.393-.348,2.744,2.744,0,0,1,.438-.27,2.232,2.232,0,0,1,.5-.174,2.6,2.6,0,0,1,.576-.06,2.207,2.207,0,0,1,.894.171,1.766,1.766,0,0,1,.651.48,2.11,2.11,0,0,1,.4.738,3.136,3.136,0,0,1,.135.945V32H54.62V28.082a1.315,1.315,0,0,0-.261-.873.967.967,0,0,0-.783-.309,1.543,1.543,0,0,0-.72.174,2.58,2.58,0,0,0-.636.474V32Z" fill="#fff"/>
          <path d="M62.935,24.393a2.08,2.08,0,0,1,.756.133,1.982,1.982,0,0,1,.59.355,1.661,1.661,0,0,1,.395.512,1.612,1.612,0,0,1,.165.606l-.583.116a.29.29,0,0,1-.047.005.247.247,0,0,1-.129-.037A.212.212,0,0,1,64,25.952a1.212,1.212,0,0,0-.118-.283,1.057,1.057,0,0,0-.52-.468,1.039,1.039,0,0,0-.422-.079,1.26,1.26,0,0,0-.472.084,1.068,1.068,0,0,0-.36.234,1.036,1.036,0,0,0-.231.352,1.146,1.146,0,0,0-.082.438,1.4,1.4,0,0,0,.045.352,1.634,1.634,0,0,0,.134.339,2.292,2.292,0,0,0,.231.351,4.021,4.021,0,0,0,.341.381l2.163,2.2a3.642,3.642,0,0,0,.317-.738,4.085,4.085,0,0,0,.161-.774.259.259,0,0,1,.063-.157.187.187,0,0,1,.147-.058h.578a4.2,4.2,0,0,1-.725,2.278L66.82,32h-.9a.7.7,0,0,1-.247-.037.657.657,0,0,1-.21-.152L64.7,31.05a3.791,3.791,0,0,1-1.137.756,3.53,3.53,0,0,1-1.415.278,2.467,2.467,0,0,1-.824-.142,2.257,2.257,0,0,1-.722-.412,2.083,2.083,0,0,1-.511-.659,1.927,1.927,0,0,1-.2-.877,1.967,1.967,0,0,1,.123-.7,2.318,2.318,0,0,1,.342-.607,2.725,2.725,0,0,1,.517-.5,3.606,3.606,0,0,1,.656-.378,3.148,3.148,0,0,1-.472-.787,2.138,2.138,0,0,1-.152-.793,1.849,1.849,0,0,1,.139-.718,1.683,1.683,0,0,1,.4-.586,1.932,1.932,0,0,1,.639-.394A2.31,2.31,0,0,1,62.935,24.393Zm-2.084,5.528a1.335,1.335,0,0,0,.457,1.04,1.407,1.407,0,0,0,.466.269,1.6,1.6,0,0,0,.537.092,2.482,2.482,0,0,0,1.054-.215,2.8,2.8,0,0,0,.824-.572l-2.22-2.241a2.26,2.26,0,0,0-.837.716A1.593,1.593,0,0,0,60.851,29.921Z" fill="#fff"/>
          <path d="M16.939,45h-.787a.336.336,0,0,1-.22-.068.422.422,0,0,1-.126-.173l-.7-1.817H11.727l-.7,1.817a.408.408,0,0,1-.126.168.334.334,0,0,1-.22.073H9.89L12.9,37.477h1.035ZM12.01,42.207h2.809l-1.181-3.061a5.644,5.644,0,0,1-.226-.708c-.039.143-.076.275-.113.4s-.072.227-.108.317Z" fill="#fff"/>
          <path d="M18.783,37.267V45h-.934V37.267Z" fill="#fff"/>
          <path d="M22.043,45.084a1.282,1.282,0,0,1-.969-.352,1.406,1.406,0,0,1-.339-1.013V40.464H20.1a.213.213,0,0,1-.143-.05.2.2,0,0,1-.057-.155v-.372l.872-.111.214-1.643A.2.2,0,0,1,21.051,38a.218.218,0,0,1,.147-.05h.472v1.833h1.522v.677H21.67v3.192a.678.678,0,0,0,.163.5.561.561,0,0,0,.42.163.727.727,0,0,0,.255-.039,1.042,1.042,0,0,0,.186-.087c.052-.031.1-.06.134-.087a.182.182,0,0,1,.1-.039.166.166,0,0,1,.132.089l.272.447a1.717,1.717,0,0,1-.583.354A1.971,1.971,0,0,1,22.043,45.084Z" fill="#fff"/>
          <path d="M26.452,39.6a2.374,2.374,0,0,1,.883.16,1.977,1.977,0,0,1,.7.462,2.1,2.1,0,0,1,.459.746,2.857,2.857,0,0,1,.165,1.01.6.6,0,0,1-.047.294.194.194,0,0,1-.178.074H24.894a2.91,2.91,0,0,0,.136.877,1.8,1.8,0,0,0,.346.622,1.386,1.386,0,0,0,.525.372,1.791,1.791,0,0,0,.683.124,1.974,1.974,0,0,0,.606-.082,2.779,2.779,0,0,0,.439-.176,3,3,0,0,0,.307-.176.416.416,0,0,1,.212-.081.206.206,0,0,1,.179.089l.262.342a1.73,1.73,0,0,1-.414.364,2.519,2.519,0,0,1-.518.255,3.281,3.281,0,0,1-.569.149,3.409,3.409,0,0,1-.583.05,2.693,2.693,0,0,1-1.016-.186,2.231,2.231,0,0,1-.8-.546,2.491,2.491,0,0,1-.528-.89,3.619,3.619,0,0,1-.188-1.218,3.1,3.1,0,0,1,.17-1.04,2.461,2.461,0,0,1,.491-.837,2.269,2.269,0,0,1,.782-.556A2.561,2.561,0,0,1,26.452,39.6Zm.022.687a1.434,1.434,0,0,0-1.066.392,1.835,1.835,0,0,0-.483,1.084h2.892a1.907,1.907,0,0,0-.088-.6,1.348,1.348,0,0,0-.263-.468,1.165,1.165,0,0,0-.423-.3A1.4,1.4,0,0,0,26.474,40.285Z" fill="#fff"/>
          <path d="M29.85,45V39.682h.535a.3.3,0,0,1,.21.057.37.37,0,0,1,.079.2l.062.83a2.446,2.446,0,0,1,.675-.87,1.591,1.591,0,0,1,1.342-.262,1.467,1.467,0,0,1,.33.139l-.12.7a.157.157,0,0,1-.163.13.821.821,0,0,1-.226-.049,1.4,1.4,0,0,0-.426-.05,1.21,1.21,0,0,0-.816.283,2.135,2.135,0,0,0-.548.824V45Z" fill="#fff"/>
          <path d="M34.081,45V39.682h.557a.238.238,0,0,1,.252.194l.073.577a2.973,2.973,0,0,1,.774-.619,2.021,2.021,0,0,1,.99-.236,1.925,1.925,0,0,1,.769.144,1.517,1.517,0,0,1,.557.409,1.843,1.843,0,0,1,.338.638,2.781,2.781,0,0,1,.116.824V45h-.935V41.613a1.427,1.427,0,0,0-.276-.936,1.027,1.027,0,0,0-.842-.334,1.566,1.566,0,0,0-.774.2,2.5,2.5,0,0,0-.664.541V45Z" fill="#fff"/>
          <path d="M43.824,45H43.41a.494.494,0,0,1-.221-.042.237.237,0,0,1-.11-.179l-.105-.493c-.14.126-.277.238-.41.339a2.273,2.273,0,0,1-.419.252,2.194,2.194,0,0,1-.47.154,2.693,2.693,0,0,1-.554.053,1.879,1.879,0,0,1-.58-.087,1.3,1.3,0,0,1-.47-.261,1.246,1.246,0,0,1-.318-.439,1.56,1.56,0,0,1-.118-.63,1.159,1.159,0,0,1,.174-.608,1.5,1.5,0,0,1,.558-.519,3.666,3.666,0,0,1,1.011-.372,6.857,6.857,0,0,1,1.528-.145v-.418a1.449,1.449,0,0,0-.265-.942.964.964,0,0,0-.786-.32,1.655,1.655,0,0,0-.574.087,2.143,2.143,0,0,0-.4.194c-.114.072-.212.137-.294.194a.426.426,0,0,1-.244.087.276.276,0,0,1-.166-.05.36.36,0,0,1-.112-.124l-.168-.3a3.042,3.042,0,0,1,.95-.636,2.933,2.933,0,0,1,1.129-.21,2.03,2.03,0,0,1,.792.147,1.632,1.632,0,0,1,.583.41,1.735,1.735,0,0,1,.357.635,2.661,2.661,0,0,1,.12.819ZM41.4,44.428a1.931,1.931,0,0,0,.452-.05,1.72,1.72,0,0,0,.385-.142,1.984,1.984,0,0,0,.347-.223,2.973,2.973,0,0,0,.323-.3v-1.1a6.314,6.314,0,0,0-1.1.082,3.108,3.108,0,0,0-.736.214,1.031,1.031,0,0,0-.412.312.672.672,0,0,0-.128.4.876.876,0,0,0,.069.364.664.664,0,0,0,.183.251.706.706,0,0,0,.273.143A1.234,1.234,0,0,0,41.4,44.428Z" fill="#fff"/>
          <path d="M46.854,45.084a1.278,1.278,0,0,1-.968-.352,1.4,1.4,0,0,1-.339-1.013V40.464h-.641a.21.21,0,0,1-.141-.05.192.192,0,0,1-.058-.155v-.372l.871-.111.216-1.643A.2.2,0,0,1,45.862,38a.216.216,0,0,1,.147-.05h.472v1.833H48v.677H46.481v3.192a.67.67,0,0,0,.164.5.56.56,0,0,0,.419.163.718.718,0,0,0,.254-.039,1.021,1.021,0,0,0,.187-.087,1.434,1.434,0,0,0,.134-.087.185.185,0,0,1,.1-.039.163.163,0,0,1,.131.089l.274.447a1.736,1.736,0,0,1-.583.354A1.976,1.976,0,0,1,46.854,45.084Z" fill="#fff"/>
          <path d="M50.408,38.013a.589.589,0,0,1-.055.254.736.736,0,0,1-.147.21.691.691,0,0,1-.213.144.639.639,0,0,1-.257.053.623.623,0,0,1-.255-.053.695.695,0,0,1-.354-.354.618.618,0,0,1-.053-.254.662.662,0,0,1,.053-.261.68.68,0,0,1,.354-.359.607.607,0,0,1,.255-.053.623.623,0,0,1,.257.053.691.691,0,0,1,.213.144.733.733,0,0,1,.147.215A.63.63,0,0,1,50.408,38.013Zm-.21,1.669V45h-.934V39.682Z" fill="#fff"/>
          <path d="M51.175,39.682h.765a.294.294,0,0,1,.185.057.318.318,0,0,1,.1.137l1.35,3.423a2.593,2.593,0,0,1,.115.378c.029.126.055.251.079.373.028-.122.058-.247.089-.373a3.246,3.246,0,0,1,.121-.378l1.365-3.423a.308.308,0,0,1,.1-.139.28.28,0,0,1,.176-.055h.73L54.188,45h-.845Z" fill="#fff"/>
          <path d="M59.191,39.6a2.365,2.365,0,0,1,.882.16,1.968,1.968,0,0,1,.7.462,2.072,2.072,0,0,1,.459.746,2.856,2.856,0,0,1,.166,1.01.6.6,0,0,1-.047.294.2.2,0,0,1-.178.074H57.632a2.94,2.94,0,0,0,.137.877,1.8,1.8,0,0,0,.346.622,1.394,1.394,0,0,0,.525.372,1.786,1.786,0,0,0,.682.124,1.981,1.981,0,0,0,.607-.082,2.727,2.727,0,0,0,.438-.176,3.029,3.029,0,0,0,.308-.176.413.413,0,0,1,.212-.081.206.206,0,0,1,.178.089l.263.342a1.735,1.735,0,0,1-.415.364,2.511,2.511,0,0,1-.517.255,3.292,3.292,0,0,1-.57.149,3.381,3.381,0,0,1-.582.05,2.689,2.689,0,0,1-1.016-.186,2.214,2.214,0,0,1-.8-.546,2.491,2.491,0,0,1-.528-.89,3.619,3.619,0,0,1-.189-1.218,3.1,3.1,0,0,1,.171-1.04,2.459,2.459,0,0,1,.49-.837,2.278,2.278,0,0,1,.782-.556A2.573,2.573,0,0,1,59.191,39.6Zm.021.687a1.436,1.436,0,0,0-1.066.392,1.847,1.847,0,0,0-.482,1.084h2.893a1.906,1.906,0,0,0-.09-.6A1.332,1.332,0,0,0,60.2,40.7a1.161,1.161,0,0,0-.422-.3A1.407,1.407,0,0,0,59.212,40.285Z" fill="#fff"/>
          <path d="M62.588,45V39.682h.557a.237.237,0,0,1,.251.194l.074.577a2.989,2.989,0,0,1,.774-.619,2.019,2.019,0,0,1,.99-.236,1.925,1.925,0,0,1,.769.144,1.5,1.5,0,0,1,.557.409,1.827,1.827,0,0,1,.338.638,2.749,2.749,0,0,1,.116.824V45h-.935V41.613a1.433,1.433,0,0,0-.275-.936,1.03,1.03,0,0,0-.843-.334,1.572,1.572,0,0,0-.774.2,2.557,2.557,0,0,0-.665.541V45Z" fill="#fff"/>
        </g>
      </g>
    </g>
  </g>
</svg>
