<svg xmlns="http://www.w3.org/2000/svg" viewBox="0 0 76 67">
  <title>C8_chancen_hover</title>
  <g id="Ebene_2" data-name="Ebene 2">
    <g id="Ebene_1-2" data-name="Ebene 1">
      <g>
        <path id="Rechteck_57" data-name="Rechteck 57" d="M15.5.5h45a14.926,14.926,0,0,1,15,14.85v36.3a14.926,14.926,0,0,1-15,14.85h-45A14.926,14.926,0,0,1,.5,51.65V15.35A14.926,14.926,0,0,1,15.5.5Z" fill="#28497c" stroke="#c6d1ec" stroke-miterlimit="10"/>
        <g>
          <path d="M16.677,29.954a.3.3,0,0,1,.228.1l.636.69a3.493,3.493,0,0,1-1.3,1,4.476,4.476,0,0,1-1.851.348,4.374,4.374,0,0,1-1.737-.33,3.829,3.829,0,0,1-1.317-.918,4.019,4.019,0,0,1-.837-1.4,5.27,5.27,0,0,1-.291-1.782,4.8,4.8,0,0,1,.324-1.791,4.045,4.045,0,0,1,2.319-2.316,4.837,4.837,0,0,1,1.809-.327,4.271,4.271,0,0,1,1.689.309,3.947,3.947,0,0,1,1.239.819l-.54.75a.49.49,0,0,1-.123.126.349.349,0,0,1-.207.054.472.472,0,0,1-.282-.108,3.491,3.491,0,0,0-.366-.234,2.983,2.983,0,0,0-.561-.234,3.24,3.24,0,0,0-1.986.105,2.5,2.5,0,0,0-.882.609,2.8,2.8,0,0,0-.576.963,3.7,3.7,0,0,0-.207,1.275,3.8,3.8,0,0,0,.207,1.3,2.863,2.863,0,0,0,.561.96,2.4,2.4,0,0,0,.834.6,2.578,2.578,0,0,0,1.032.207,4.5,4.5,0,0,0,.6-.036,2.534,2.534,0,0,0,.492-.114,2.184,2.184,0,0,0,.426-.2,2.662,2.662,0,0,0,.4-.3.569.569,0,0,1,.126-.087A.317.317,0,0,1,16.677,29.954Z" fill="#c6d1ec"/>
          <path d="M18.675,32V23.084h1.482V26.51a3.136,3.136,0,0,1,.792-.552,2.3,2.3,0,0,1,1.014-.21,2.207,2.207,0,0,1,.894.171,1.766,1.766,0,0,1,.651.48,2.11,2.11,0,0,1,.4.738,3.136,3.136,0,0,1,.135.945V32H22.557V28.082a1.315,1.315,0,0,0-.261-.873.967.967,0,0,0-.783-.309,1.543,1.543,0,0,0-.72.174,2.58,2.58,0,0,0-.636.474V32Z" fill="#c6d1ec"/>
          <path d="M30.321,32h-.666a.717.717,0,0,1-.33-.063.4.4,0,0,1-.18-.255l-.132-.438a5.226,5.226,0,0,1-.459.369,2.756,2.756,0,0,1-.466.267,2.346,2.346,0,0,1-.509.162,3.076,3.076,0,0,1-.6.054,2.333,2.333,0,0,1-.72-.106,1.55,1.55,0,0,1-.568-.315,1.456,1.456,0,0,1-.368-.524,1.847,1.847,0,0,1-.133-.728,1.431,1.431,0,0,1,.184-.69,1.739,1.739,0,0,1,.608-.614,3.912,3.912,0,0,1,1.135-.454,7.2,7.2,0,0,1,1.758-.181v-.363a1.375,1.375,0,0,0-.261-.922.957.957,0,0,0-.76-.3,1.845,1.845,0,0,0-.6.084,2.463,2.463,0,0,0-.417.189c-.117.07-.227.133-.326.189a.664.664,0,0,1-.33.084.434.434,0,0,1-.259-.078.611.611,0,0,1-.173-.192l-.27-.474a3.661,3.661,0,0,1,2.562-.972,2.47,2.47,0,0,1,.962.177,2.051,2.051,0,0,1,.718.492,2.1,2.1,0,0,1,.446.753,2.868,2.868,0,0,1,.154.96Zm-2.881-.924a1.9,1.9,0,0,0,.42-.042,1.548,1.548,0,0,0,.364-.124,1.943,1.943,0,0,0,.33-.2,3.046,3.046,0,0,0,.321-.287V29.39a5.948,5.948,0,0,0-1.083.082,2.861,2.861,0,0,0-.7.208.894.894,0,0,0-.375.3.741.741,0,0,0,.119.93A1,1,0,0,0,27.44,31.076Z" fill="#c6d1ec"/>
          <path d="M31.779,32V25.844h.906a.364.364,0,0,1,.378.27l.1.486a3.376,3.376,0,0,1,.393-.348,2.744,2.744,0,0,1,.438-.27,2.232,2.232,0,0,1,.495-.174,2.6,2.6,0,0,1,.576-.06,2.207,2.207,0,0,1,.894.171,1.766,1.766,0,0,1,.651.48,2.11,2.11,0,0,1,.4.738,3.136,3.136,0,0,1,.135.945V32H35.661V28.082a1.315,1.315,0,0,0-.261-.873.967.967,0,0,0-.783-.309,1.543,1.543,0,0,0-.72.174,2.58,2.58,0,0,0-.636.474V32Z" fill="#c6d1ec"/>
          <path d="M42.927,27.146a.776.776,0,0,1-.13.132.29.29,0,0,1-.182.048.4.4,0,0,1-.222-.069c-.072-.046-.159-.1-.258-.156a1.929,1.929,0,0,0-.357-.156,1.64,1.64,0,0,0-.513-.069,1.559,1.559,0,0,0-.684.141,1.3,1.3,0,0,0-.489.405,1.815,1.815,0,0,0-.291.639,3.384,3.384,0,0,0-.1.849,3.329,3.329,0,0,0,.105.876,1.837,1.837,0,0,0,.3.645,1.3,1.3,0,0,0,.48.4,1.455,1.455,0,0,0,.636.135,1.58,1.58,0,0,0,.573-.087,1.772,1.772,0,0,0,.368-.192c.1-.07.187-.134.262-.192a.389.389,0,0,1,.249-.087.3.3,0,0,1,.27.138l.425.54a2.645,2.645,0,0,1-.533.483,2.912,2.912,0,0,1-.6.312,3.024,3.024,0,0,1-.64.165,4.525,4.525,0,0,1-.653.048,2.735,2.735,0,0,1-1.075-.213A2.5,2.5,0,0,1,39,31.256a2.993,2.993,0,0,1-.594-1,4.2,4.2,0,0,1-.024-2.6,2.848,2.848,0,0,1,.573-1,2.627,2.627,0,0,1,.936-.663,3.221,3.221,0,0,1,1.284-.24,3.054,3.054,0,0,1,1.209.222,2.95,2.95,0,0,1,.932.636Z" fill="#c6d1ec"/>
          <path d="M46.869,25.748a3.011,3.011,0,0,1,1.071.186,2.345,2.345,0,0,1,.843.543,2.465,2.465,0,0,1,.551.876,3.286,3.286,0,0,1,.2,1.185,2.144,2.144,0,0,1-.015.279.446.446,0,0,1-.054.174.219.219,0,0,1-.1.09.451.451,0,0,1-.168.027h-3.8A2.125,2.125,0,0,0,45.9,30.5a1.592,1.592,0,0,0,1.177.444,2.037,2.037,0,0,0,.621-.084,2.912,2.912,0,0,0,.456-.186q.2-.1.342-.186a.574.574,0,0,1,.285-.084.321.321,0,0,1,.156.036.345.345,0,0,1,.114.1l.432.54a2.467,2.467,0,0,1-.552.483,3.1,3.1,0,0,1-.639.312,3.493,3.493,0,0,1-.678.165,4.855,4.855,0,0,1-.669.048,3.288,3.288,0,0,1-1.194-.213,2.664,2.664,0,0,1-.96-.63,2.956,2.956,0,0,1-.642-1.032,3.994,3.994,0,0,1-.234-1.425,3.408,3.408,0,0,1,.2-1.185,2.834,2.834,0,0,1,.585-.966,2.754,2.754,0,0,1,.93-.651A3.063,3.063,0,0,1,46.869,25.748Zm.03,1.062a1.369,1.369,0,0,0-1.014.366,1.805,1.805,0,0,0-.468,1.038H48.2a1.847,1.847,0,0,0-.078-.543,1.261,1.261,0,0,0-.24-.447,1.136,1.136,0,0,0-.408-.3A1.39,1.39,0,0,0,46.9,26.81Z" fill="#c6d1ec"/>
          <path d="M50.738,32V25.844h.907a.364.364,0,0,1,.377.27l.1.486a3.287,3.287,0,0,1,.392-.348,2.744,2.744,0,0,1,.438-.27,2.232,2.232,0,0,1,.5-.174,2.6,2.6,0,0,1,.576-.06,2.207,2.207,0,0,1,.894.171,1.766,1.766,0,0,1,.651.48,2.11,2.11,0,0,1,.4.738,3.136,3.136,0,0,1,.135.945V32H54.62V28.082a1.315,1.315,0,0,0-.261-.873.967.967,0,0,0-.783-.309,1.543,1.543,0,0,0-.72.174,2.58,2.58,0,0,0-.636.474V32Z" fill="#c6d1ec"/>
          <path d="M62.935,24.393a2.08,2.08,0,0,1,.756.133,1.988,1.988,0,0,1,.591.355,1.673,1.673,0,0,1,.394.512,1.594,1.594,0,0,1,.165.606l-.583.116a.279.279,0,0,1-.047.005.247.247,0,0,1-.128-.037A.2.2,0,0,1,64,25.952a1.262,1.262,0,0,0-.119-.283,1.06,1.06,0,0,0-.519-.468,1.047,1.047,0,0,0-.423-.079,1.26,1.26,0,0,0-.472.084,1.088,1.088,0,0,0-.36.234,1.036,1.036,0,0,0-.231.352,1.165,1.165,0,0,0-.081.438,1.4,1.4,0,0,0,.044.352,1.692,1.692,0,0,0,.134.339,2.451,2.451,0,0,0,.231.351,3.905,3.905,0,0,0,.342.381l2.163,2.2a3.758,3.758,0,0,0,.317-.738,4.161,4.161,0,0,0,.16-.774.265.265,0,0,1,.063-.157.187.187,0,0,1,.147-.058h.578a4.2,4.2,0,0,1-.725,2.278L66.82,32h-.9a.7.7,0,0,1-.247-.037.668.668,0,0,1-.21-.152l-.755-.761a3.8,3.8,0,0,1-1.137.756,3.537,3.537,0,0,1-1.415.278,2.458,2.458,0,0,1-.824-.142,2.236,2.236,0,0,1-.722-.412,2.071,2.071,0,0,1-.512-.659,1.927,1.927,0,0,1-.194-.877,1.967,1.967,0,0,1,.123-.7,2.286,2.286,0,0,1,.341-.607,2.725,2.725,0,0,1,.517-.5,3.581,3.581,0,0,1,.657-.378,3.124,3.124,0,0,1-.473-.787,2.138,2.138,0,0,1-.152-.793,1.849,1.849,0,0,1,.139-.718,1.686,1.686,0,0,1,.4-.586,1.917,1.917,0,0,1,.638-.394A2.313,2.313,0,0,1,62.935,24.393Zm-2.084,5.528a1.335,1.335,0,0,0,.457,1.04,1.4,1.4,0,0,0,.467.269,1.59,1.59,0,0,0,.536.092,2.487,2.487,0,0,0,1.055-.215,2.825,2.825,0,0,0,.824-.572l-2.221-2.241a2.268,2.268,0,0,0-.837.716A1.593,1.593,0,0,0,60.851,29.921Z" fill="#c6d1ec"/>
          <path d="M16.94,45h-.787a.337.337,0,0,1-.221-.068.422.422,0,0,1-.126-.173l-.7-1.817H11.727l-.7,1.817a.408.408,0,0,1-.126.168.334.334,0,0,1-.22.073H9.89L12.9,37.477h1.035Zm-4.93-2.793h2.809l-1.181-3.061a5.815,5.815,0,0,1-.226-.708c-.038.143-.076.275-.113.4s-.072.227-.107.317Z" fill="#c6d1ec"/>
          <path d="M18.783,37.267V45h-.934V37.267Z" fill="#c6d1ec"/>
          <path d="M22.043,45.084a1.278,1.278,0,0,1-.968-.352,1.4,1.4,0,0,1-.339-1.013V40.464H20.1a.21.21,0,0,1-.142-.05.192.192,0,0,1-.058-.155v-.372l.872-.111.215-1.643A.2.2,0,0,1,21.051,38a.218.218,0,0,1,.147-.05h.472v1.833h1.523v.677H21.67v3.192a.678.678,0,0,0,.163.5.564.564,0,0,0,.42.163.727.727,0,0,0,.255-.039,1.01,1.01,0,0,0,.186-.087,1.434,1.434,0,0,0,.134-.087.185.185,0,0,1,.1-.039.166.166,0,0,1,.132.089l.273.447a1.736,1.736,0,0,1-.583.354A1.976,1.976,0,0,1,22.043,45.084Z" fill="#c6d1ec"/>
          <path d="M26.453,39.6a2.373,2.373,0,0,1,.882.16,1.977,1.977,0,0,1,.7.462,2.1,2.1,0,0,1,.459.746,2.856,2.856,0,0,1,.166,1.01.6.6,0,0,1-.048.294.194.194,0,0,1-.178.074H24.894a2.91,2.91,0,0,0,.136.877,1.8,1.8,0,0,0,.346.622,1.394,1.394,0,0,0,.525.372,1.791,1.791,0,0,0,.683.124,1.974,1.974,0,0,0,.606-.082,2.779,2.779,0,0,0,.439-.176,3,3,0,0,0,.307-.176.416.416,0,0,1,.212-.081.206.206,0,0,1,.179.089l.262.342a1.73,1.73,0,0,1-.414.364,2.537,2.537,0,0,1-.517.255,3.316,3.316,0,0,1-.57.149,3.4,3.4,0,0,1-.583.05,2.693,2.693,0,0,1-1.016-.186,2.231,2.231,0,0,1-.8-.546,2.49,2.49,0,0,1-.527-.89,3.619,3.619,0,0,1-.189-1.218,3.1,3.1,0,0,1,.17-1.04,2.461,2.461,0,0,1,.491-.837,2.269,2.269,0,0,1,.782-.556A2.566,2.566,0,0,1,26.453,39.6Zm.021.687a1.434,1.434,0,0,0-1.066.392,1.841,1.841,0,0,0-.483,1.084h2.893a1.906,1.906,0,0,0-.089-.6,1.332,1.332,0,0,0-.263-.468,1.165,1.165,0,0,0-.423-.3A1.4,1.4,0,0,0,26.474,40.285Z" fill="#c6d1ec"/>
          <path d="M29.85,45V39.682h.535a.3.3,0,0,1,.21.057.363.363,0,0,1,.079.2l.063.83a2.424,2.424,0,0,1,.675-.87,1.589,1.589,0,0,1,1.341-.262,1.429,1.429,0,0,1,.33.139l-.12.7a.157.157,0,0,1-.163.13.821.821,0,0,1-.226-.049,1.4,1.4,0,0,0-.425-.05,1.208,1.208,0,0,0-.816.283,2.136,2.136,0,0,0-.549.824V45Z" fill="#c6d1ec"/>
          <path d="M34.081,45V39.682h.557a.238.238,0,0,1,.252.194l.073.577a2.989,2.989,0,0,1,.774-.619,2.021,2.021,0,0,1,.99-.236,1.922,1.922,0,0,1,.769.144,1.509,1.509,0,0,1,.557.409,1.827,1.827,0,0,1,.338.638,2.781,2.781,0,0,1,.116.824V45h-.935V41.613a1.427,1.427,0,0,0-.276-.936,1.026,1.026,0,0,0-.842-.334,1.566,1.566,0,0,0-.774.2,2.521,2.521,0,0,0-.664.541V45Z" fill="#c6d1ec"/>
          <path d="M43.825,45H43.41a.5.5,0,0,1-.221-.042.237.237,0,0,1-.11-.179l-.105-.493c-.14.126-.276.238-.409.339a2.315,2.315,0,0,1-.42.252,2.194,2.194,0,0,1-.47.154,2.693,2.693,0,0,1-.554.053,1.884,1.884,0,0,1-.58-.087,1.308,1.308,0,0,1-.47-.261,1.246,1.246,0,0,1-.318-.439,1.56,1.56,0,0,1-.118-.63,1.169,1.169,0,0,1,.174-.608,1.5,1.5,0,0,1,.559-.519,3.646,3.646,0,0,1,1.01-.372,6.857,6.857,0,0,1,1.528-.145v-.418a1.443,1.443,0,0,0-.265-.942.962.962,0,0,0-.785-.32,1.657,1.657,0,0,0-.575.087,2.173,2.173,0,0,0-.4.194c-.114.072-.212.137-.294.194a.426.426,0,0,1-.244.087.278.278,0,0,1-.166-.05.36.36,0,0,1-.112-.124l-.168-.3a3.042,3.042,0,0,1,.95-.636,2.933,2.933,0,0,1,1.129-.21,2.03,2.03,0,0,1,.792.147,1.632,1.632,0,0,1,.583.41,1.721,1.721,0,0,1,.357.635,2.631,2.631,0,0,1,.121.819ZM41.4,44.428a1.925,1.925,0,0,0,.452-.05,1.747,1.747,0,0,0,.386-.142,2.014,2.014,0,0,0,.346-.223,2.973,2.973,0,0,0,.323-.3v-1.1a6.322,6.322,0,0,0-1.1.082,3.084,3.084,0,0,0-.735.214,1.024,1.024,0,0,0-.412.312.673.673,0,0,0-.129.4.876.876,0,0,0,.069.364.675.675,0,0,0,.183.251.714.714,0,0,0,.273.143A1.239,1.239,0,0,0,41.4,44.428Z" fill="#c6d1ec"/>
          <path d="M46.854,45.084a1.278,1.278,0,0,1-.968-.352,1.4,1.4,0,0,1-.339-1.013V40.464h-.64a.21.21,0,0,1-.142-.05.192.192,0,0,1-.058-.155v-.372l.872-.111.215-1.643A.2.2,0,0,1,45.862,38a.218.218,0,0,1,.147-.05h.472v1.833H48v.677H46.481v3.192a.674.674,0,0,0,.164.5.56.56,0,0,0,.419.163.727.727,0,0,0,.255-.039,1.01,1.01,0,0,0,.186-.087,1.434,1.434,0,0,0,.134-.087.185.185,0,0,1,.1-.039.166.166,0,0,1,.132.089l.273.447a1.736,1.736,0,0,1-.583.354A1.976,1.976,0,0,1,46.854,45.084Z" fill="#c6d1ec"/>
          <path d="M50.408,38.013a.589.589,0,0,1-.055.254.736.736,0,0,1-.147.21.679.679,0,0,1-.213.144.636.636,0,0,1-.257.053.623.623,0,0,1-.255-.053.714.714,0,0,1-.21-.144.689.689,0,0,1-.144-.21.617.617,0,0,1-.052-.254.661.661,0,0,1,.052-.261.688.688,0,0,1,.144-.215.714.714,0,0,1,.21-.144.607.607,0,0,1,.255-.053.619.619,0,0,1,.257.053.679.679,0,0,1,.213.144.733.733,0,0,1,.147.215A.63.63,0,0,1,50.408,38.013Zm-.21,1.669V45h-.934V39.682Z" fill="#c6d1ec"/>
          <path d="M51.175,39.682h.766a.291.291,0,0,1,.184.057.329.329,0,0,1,.1.137L53.579,43.3a2.476,2.476,0,0,1,.115.378c.029.126.055.251.079.373.028-.122.058-.247.09-.373a3.059,3.059,0,0,1,.12-.378l1.365-3.423a.3.3,0,0,1,.1-.139.275.275,0,0,1,.175-.055h.73L54.188,45h-.845Z" fill="#c6d1ec"/>
          <path d="M59.191,39.6a2.374,2.374,0,0,1,.883.16,1.977,1.977,0,0,1,.7.462,2.1,2.1,0,0,1,.459.746,2.88,2.88,0,0,1,.165,1.01.6.6,0,0,1-.047.294.2.2,0,0,1-.178.074H57.632a2.94,2.94,0,0,0,.137.877,1.8,1.8,0,0,0,.346.622,1.394,1.394,0,0,0,.525.372,1.791,1.791,0,0,0,.683.124,1.979,1.979,0,0,0,.606-.082,2.779,2.779,0,0,0,.439-.176,3.116,3.116,0,0,0,.307-.176.416.416,0,0,1,.212-.081.207.207,0,0,1,.179.089l.262.342a1.73,1.73,0,0,1-.414.364,2.545,2.545,0,0,1-.518.255,3.281,3.281,0,0,1-.569.149,3.4,3.4,0,0,1-.583.05,2.689,2.689,0,0,1-1.016-.186,2.222,2.222,0,0,1-.8-.546,2.491,2.491,0,0,1-.528-.89,3.619,3.619,0,0,1-.189-1.218,3.1,3.1,0,0,1,.171-1.04,2.461,2.461,0,0,1,.491-.837,2.259,2.259,0,0,1,.782-.556A2.565,2.565,0,0,1,59.191,39.6Zm.021.687a1.433,1.433,0,0,0-1.065.392,1.841,1.841,0,0,0-.483,1.084h2.893a1.877,1.877,0,0,0-.09-.6,1.33,1.33,0,0,0-.262-.468,1.173,1.173,0,0,0-.423-.3A1.4,1.4,0,0,0,59.212,40.285Z" fill="#c6d1ec"/>
          <path d="M62.588,45V39.682h.557a.238.238,0,0,1,.252.194l.073.577a2.977,2.977,0,0,1,.775-.619,2.018,2.018,0,0,1,.989-.236,1.922,1.922,0,0,1,.769.144,1.5,1.5,0,0,1,.557.409,1.827,1.827,0,0,1,.338.638,2.749,2.749,0,0,1,.116.824V45H66.08V41.613a1.427,1.427,0,0,0-.276-.936,1.03,1.03,0,0,0-.843-.334,1.572,1.572,0,0,0-.774.2,2.537,2.537,0,0,0-.664.541V45Z" fill="#c6d1ec"/>
        </g>
      </g>
    </g>
  </g>
</svg>
