<svg xmlns="http://www.w3.org/2000/svg" viewBox="0 0 76 67">
  <title>D2_glossar_hover</title>
  <g id="Ebene_2" data-name="Ebene 2">
    <g id="Ebene_1-2" data-name="Ebene 1">
      <g>
        <path id="Rechteck_57" data-name="Rechteck 57" d="M15.5.5h45a14.926,14.926,0,0,1,15,14.85v36.3a14.926,14.926,0,0,1-15,14.85h-45A14.926,14.926,0,0,1,.5,51.65V15.35A14.926,14.926,0,0,1,15.5.5Z" fill="#28497c" stroke="#c6d1ec" stroke-miterlimit="10"/>
        <g>
          <path d="M22.072,37.763a3.935,3.935,0,0,0,1.794-.388V35.731H22.734a.353.353,0,0,1-.255-.09.3.3,0,0,1-.094-.222v-.95h3.006v3.656a5.018,5.018,0,0,1-.715.435,4.642,4.642,0,0,1-.794.3,6.167,6.167,0,0,1-.9.179,8.611,8.611,0,0,1-1.038.059,4.719,4.719,0,0,1-1.819-.344,4.306,4.306,0,0,1-1.437-.956,4.357,4.357,0,0,1-.947-1.462,4.952,4.952,0,0,1-.341-1.857,5.112,5.112,0,0,1,.332-1.869A4.113,4.113,0,0,1,20.147,30.2a5.356,5.356,0,0,1,1.951-.338,5.1,5.1,0,0,1,1.915.328,4.4,4.4,0,0,1,1.372.854l-.488.763a.433.433,0,0,1-.381.23.57.57,0,0,1-.306-.1c-.134-.08-.271-.159-.409-.238a2.89,2.89,0,0,0-.463-.206,3.916,3.916,0,0,0-.568-.144,4.255,4.255,0,0,0-.729-.056,3.116,3.116,0,0,0-1.209.225,2.553,2.553,0,0,0-.922.643,2.912,2.912,0,0,0-.588,1.007,3.956,3.956,0,0,0-.206,1.312,4.1,4.1,0,0,0,.219,1.391,2.911,2.911,0,0,0,.612,1.028,2.632,2.632,0,0,0,.938.641A3.127,3.127,0,0,0,22.072,37.763Z" fill="#c6d1ec"/>
          <path d="M28.828,29.713V39H27.285V29.713Z" fill="#c6d1ec"/>
          <path d="M33.622,32.487a3.5,3.5,0,0,1,1.3.232,2.831,2.831,0,0,1,1,.656,2.9,2.9,0,0,1,.638,1.037,4.3,4.3,0,0,1,0,2.744,2.979,2.979,0,0,1-.638,1.044,2.779,2.779,0,0,1-1,.662,3.786,3.786,0,0,1-2.61,0,2.78,2.78,0,0,1-1-.662,2.962,2.962,0,0,1-.644-1.044,4.242,4.242,0,0,1,0-2.744,2.888,2.888,0,0,1,.644-1.037,2.833,2.833,0,0,1,1-.656A3.519,3.519,0,0,1,33.622,32.487Zm0,5.419a1.36,1.36,0,0,0,1.185-.537,3.434,3.434,0,0,0,0-3.156,1.352,1.352,0,0,0-1.185-.544,1.371,1.371,0,0,0-1.2.547,2.711,2.711,0,0,0-.387,1.578,2.678,2.678,0,0,0,.387,1.571A1.372,1.372,0,0,0,33.622,37.906Z" fill="#c6d1ec"/>
          <path d="M42.109,33.838a.429.429,0,0,1-.13.141.341.341,0,0,1-.175.04.548.548,0,0,1-.241-.063q-.127-.063-.3-.141a2.97,2.97,0,0,0-.384-.14,1.832,1.832,0,0,0-.51-.063,1.189,1.189,0,0,0-.719.2.6.6,0,0,0-.262.506.484.484,0,0,0,.134.346,1.2,1.2,0,0,0,.357.247,3.375,3.375,0,0,0,.5.191c.187.056.379.118.575.184a6.09,6.09,0,0,1,.575.229,1.971,1.971,0,0,1,.5.324,1.523,1.523,0,0,1,.357.473,1.5,1.5,0,0,1,.133.662,2.1,2.1,0,0,1-.169.853,1.883,1.883,0,0,1-.493.675,2.3,2.3,0,0,1-.8.443,3.443,3.443,0,0,1-1.1.16,3.539,3.539,0,0,1-.647-.059,3.943,3.943,0,0,1-.606-.166,3.271,3.271,0,0,1-.537-.25,2.634,2.634,0,0,1-.435-.312l.357-.588a.482.482,0,0,1,.162-.162.447.447,0,0,1,.237-.057.5.5,0,0,1,.273.082c.084.054.183.112.3.175a2.83,2.83,0,0,0,.4.175,1.752,1.752,0,0,0,.578.081,1.489,1.489,0,0,0,.472-.066,1,1,0,0,0,.325-.172.625.625,0,0,0,.187-.247.749.749,0,0,0,.06-.29.518.518,0,0,0-.135-.369,1.15,1.15,0,0,0-.356-.25,3.42,3.42,0,0,0-.506-.19c-.19-.057-.383-.119-.581-.185a5.3,5.3,0,0,1-.581-.234,1.961,1.961,0,0,1-.507-.341,1.535,1.535,0,0,1-.356-.506,1.763,1.763,0,0,1-.134-.726,1.843,1.843,0,0,1,.156-.75,1.758,1.758,0,0,1,.459-.621,2.291,2.291,0,0,1,.757-.426,3.179,3.179,0,0,1,1.047-.159,3.224,3.224,0,0,1,1.206.219,2.732,2.732,0,0,1,.906.575Z" fill="#c6d1ec"/>
          <path d="M47.885,33.838a.441.441,0,0,1-.131.141.347.347,0,0,1-.176.04.551.551,0,0,1-.24-.063q-.129-.063-.3-.141a2.881,2.881,0,0,0-.385-.14,1.822,1.822,0,0,0-.51-.063,1.19,1.19,0,0,0-.718.2.6.6,0,0,0-.262.506.481.481,0,0,0,.135.346,1.186,1.186,0,0,0,.355.247,3.521,3.521,0,0,0,.5.191c.188.056.379.118.574.184a6.108,6.108,0,0,1,.576.229,2.007,2.007,0,0,1,.5.324,1.5,1.5,0,0,1,.356.473,1.489,1.489,0,0,1,.134.662,2.136,2.136,0,0,1-.168.853,1.909,1.909,0,0,1-.494.675,2.311,2.311,0,0,1-.8.443,3.445,3.445,0,0,1-1.1.16,3.544,3.544,0,0,1-.646-.059,3.974,3.974,0,0,1-.606-.166,3.282,3.282,0,0,1-.538-.25,2.625,2.625,0,0,1-.434-.312l.356-.588a.5.5,0,0,1,.163-.162.448.448,0,0,1,.236-.057.493.493,0,0,1,.273.082c.085.054.185.112.3.175a2.779,2.779,0,0,0,.4.175,1.747,1.747,0,0,0,.578.081,1.487,1.487,0,0,0,.471-.066,1,1,0,0,0,.326-.172.647.647,0,0,0,.188-.247.747.747,0,0,0,.058-.29.522.522,0,0,0-.134-.369,1.138,1.138,0,0,0-.356-.25,3.378,3.378,0,0,0-.506-.19c-.189-.057-.384-.119-.582-.185a5.465,5.465,0,0,1-.581-.234,2.014,2.014,0,0,1-.507-.341,1.563,1.563,0,0,1-.355-.506,1.762,1.762,0,0,1-.135-.726,1.877,1.877,0,0,1,.156-.75,1.782,1.782,0,0,1,.459-.621,2.312,2.312,0,0,1,.757-.426,3.474,3.474,0,0,1,2.253.06,2.722,2.722,0,0,1,.906.575Z" fill="#c6d1ec"/>
          <path d="M54.879,39h-.694a.744.744,0,0,1-.344-.065.425.425,0,0,1-.188-.266l-.137-.456a5.515,5.515,0,0,1-.479.384,2.9,2.9,0,0,1-.484.278,2.485,2.485,0,0,1-.532.169,3.226,3.226,0,0,1-.625.056,2.467,2.467,0,0,1-.75-.11,1.6,1.6,0,0,1-.589-.329,1.489,1.489,0,0,1-.385-.546,1.931,1.931,0,0,1-.137-.758,1.5,1.5,0,0,1,.19-.718,1.787,1.787,0,0,1,.634-.64,4.046,4.046,0,0,1,1.182-.474,7.567,7.567,0,0,1,1.831-.187v-.379A1.434,1.434,0,0,0,53.1,34a.991.991,0,0,0-.79-.311,1.925,1.925,0,0,0-.625.087,2.388,2.388,0,0,0-.435.2c-.123.073-.236.138-.34.2a.7.7,0,0,1-.344.087.447.447,0,0,1-.269-.081.658.658,0,0,1-.182-.2l-.281-.494a3.819,3.819,0,0,1,2.67-1.012,2.569,2.569,0,0,1,1,.184,2.119,2.119,0,0,1,.748.513,2.207,2.207,0,0,1,.465.784,3.022,3.022,0,0,1,.16,1Zm-3-.963a2.056,2.056,0,0,0,.437-.043,1.6,1.6,0,0,0,.377-.129,1.849,1.849,0,0,0,.344-.213,2.979,2.979,0,0,0,.335-.3V36.281a6.325,6.325,0,0,0-1.128.085,2.938,2.938,0,0,0-.728.218.922.922,0,0,0-.391.309.775.775,0,0,0,.125.968A1.035,1.035,0,0,0,51.879,38.037Z" fill="#c6d1ec"/>
          <path d="M56.709,39V32.588h.906a.49.49,0,0,1,.332.087.5.5,0,0,1,.125.3l.094.775a3.031,3.031,0,0,1,.806-.937,1.7,1.7,0,0,1,1.038-.344,1.334,1.334,0,0,1,.787.219l-.2,1.156a.242.242,0,0,1-.081.159.278.278,0,0,1-.169.047,1.07,1.07,0,0,1-.257-.044,1.725,1.725,0,0,0-.431-.043,1.3,1.3,0,0,0-.825.266,2.028,2.028,0,0,0-.581.777V39Z" fill="#c6d1ec"/>
        </g>
      </g>
    </g>
  </g>
</svg>
