<svg xmlns="http://www.w3.org/2000/svg" viewBox="0 0 76 67">
  <title>D3_medienp</title>
  <g id="Ebene_2" data-name="Ebene 2">
    <g id="Ebene_1-2" data-name="Ebene 1">
      <g>
        <path id="Rechteck_57" data-name="Rechteck 57" d="M15.5.5h45a14.926,14.926,0,0,1,15,14.85v36.3a14.926,14.926,0,0,1-15,14.85h-45A14.926,14.926,0,0,1,.5,51.65V15.35A14.926,14.926,0,0,1,15.5.5Z" fill="#28497c" stroke="#fff" stroke-miterlimit="10"/>
        <g>
          <path d="M18.071,28.532c.063.15.124.3.186.452q.09-.234.188-.462t.208-.435l2.782-5.206a.7.7,0,0,1,.107-.156.328.328,0,0,1,.124-.085.575.575,0,0,1,.152-.033c.057,0,.124-.006.2-.006h1.32V32H21.8V25.929c0-.113,0-.237.01-.37s.016-.271.029-.41L19,30.479a.742.742,0,0,1-.253.283.656.656,0,0,1-.364.1h-.24a.662.662,0,0,1-.365-.1.758.758,0,0,1-.253-.283L14.643,25.13c.017.142.029.282.036.419s.009.263.009.38V32H13.147V22.6h1.32c.078,0,.145,0,.2.006a.584.584,0,0,1,.152.033.355.355,0,0,1,.127.085.674.674,0,0,1,.111.156L17.866,28.1C17.94,28.238,18.009,28.383,18.071,28.532Z" fill="#fff"/>
          <path d="M28.552,25.227a3.229,3.229,0,0,1,1.161.2,2.545,2.545,0,0,1,.913.588,2.674,2.674,0,0,1,.6.949,3.584,3.584,0,0,1,.214,1.283,2.3,2.3,0,0,1-.016.3.473.473,0,0,1-.059.188.234.234,0,0,1-.113.1.5.5,0,0,1-.183.029H26.946a2.3,2.3,0,0,0,.553,1.508,1.725,1.725,0,0,0,1.274.481,2.2,2.2,0,0,0,.673-.091,3.047,3.047,0,0,0,.494-.2c.141-.073.264-.14.371-.2a.627.627,0,0,1,.308-.091.346.346,0,0,1,.169.039.373.373,0,0,1,.124.111l.468.585a2.639,2.639,0,0,1-.6.522,3.3,3.3,0,0,1-.691.339,3.863,3.863,0,0,1-.735.179,5.379,5.379,0,0,1-.725.052,3.553,3.553,0,0,1-1.293-.231,2.912,2.912,0,0,1-1.04-.682,3.2,3.2,0,0,1-.7-1.119,4.327,4.327,0,0,1-.254-1.544,3.705,3.705,0,0,1,.22-1.284,3.124,3.124,0,0,1,.634-1.046,3,3,0,0,1,1.008-.705A3.306,3.306,0,0,1,28.552,25.227Zm.033,1.151a1.488,1.488,0,0,0-1.1.4,1.959,1.959,0,0,0-.507,1.124H30a2,2,0,0,0-.084-.587,1.353,1.353,0,0,0-.261-.485,1.22,1.22,0,0,0-.441-.328A1.51,1.51,0,0,0,28.585,26.378Z" fill="#fff"/>
          <path d="M38.088,32a.394.394,0,0,1-.409-.293l-.13-.643a4.013,4.013,0,0,1-.436.422,2.737,2.737,0,0,1-.491.326,2.578,2.578,0,0,1-.565.21,2.71,2.71,0,0,1-.654.076,2.173,2.173,0,0,1-1.784-.888,3.159,3.159,0,0,1-.507-1.069,5.4,5.4,0,0,1-.178-1.456,4.553,4.553,0,0,1,.2-1.378,3.377,3.377,0,0,1,.578-1.1,2.7,2.7,0,0,1,.9-.731,2.6,2.6,0,0,1,1.183-.264,2.312,2.312,0,0,1,.955.18,2.5,2.5,0,0,1,.709.477V22.341h1.605V32Zm-2.139-1.177a1.643,1.643,0,0,0,.852-.208,2.527,2.527,0,0,0,.663-.591v-2.99a1.577,1.577,0,0,0-.595-.468,1.754,1.754,0,0,0-.692-.136,1.551,1.551,0,0,0-.659.136,1.284,1.284,0,0,0-.5.413,2.016,2.016,0,0,0-.316.7,4.066,4.066,0,0,0-.11,1,4.384,4.384,0,0,0,.095.991,1.933,1.933,0,0,0,.269.663,1.025,1.025,0,0,0,.429.371A1.377,1.377,0,0,0,35.949,30.823Z" fill="#fff"/>
          <path d="M43.4,23.388a.916.916,0,0,1-.084.389,1.093,1.093,0,0,1-.224.319,1.042,1.042,0,0,1-.328.217,1,1,0,0,1-.4.082.958.958,0,0,1-.393-.082,1.027,1.027,0,0,1-.322-.217,1.054,1.054,0,0,1-.217-.319.945.945,0,0,1-.081-.389,1.012,1.012,0,0,1,.081-.4,1.034,1.034,0,0,1,.217-.325,1.064,1.064,0,0,1,.322-.218.991.991,0,0,1,.393-.081,1.03,1.03,0,0,1,.4.081,1.042,1.042,0,0,1,.552.543A.981.981,0,0,1,43.4,23.388Zm-.24,1.943V32H41.559V25.331Z" fill="#fff"/>
          <path d="M48.384,25.227a3.227,3.227,0,0,1,1.16.2,2.537,2.537,0,0,1,.913.588,2.69,2.69,0,0,1,.6.949,3.606,3.606,0,0,1,.214,1.283,2.3,2.3,0,0,1-.016.3.49.49,0,0,1-.059.188.236.236,0,0,1-.114.1.5.5,0,0,1-.182.029H46.778a2.294,2.294,0,0,0,.553,1.508,1.722,1.722,0,0,0,1.273.481,2.191,2.191,0,0,0,.673-.091,3.01,3.01,0,0,0,.494-.2c.141-.073.265-.14.371-.2a.628.628,0,0,1,.309-.091.349.349,0,0,1,.169.039.37.37,0,0,1,.123.111l.468.585a2.656,2.656,0,0,1-.6.522,3.311,3.311,0,0,1-.692.339,3.835,3.835,0,0,1-.734.179,5.379,5.379,0,0,1-.725.052,3.562,3.562,0,0,1-1.294-.231,2.921,2.921,0,0,1-1.04-.682,3.215,3.215,0,0,1-.7-1.119,4.328,4.328,0,0,1-.253-1.544,3.705,3.705,0,0,1,.22-1.284,3.108,3.108,0,0,1,.634-1.046,3.005,3.005,0,0,1,1.008-.705A3.306,3.306,0,0,1,48.384,25.227Zm.032,1.151a1.488,1.488,0,0,0-1.1.4,1.964,1.964,0,0,0-.506,1.124h3.016a1.965,1.965,0,0,0-.085-.587,1.336,1.336,0,0,0-.26-.485,1.233,1.233,0,0,0-.442-.328A1.51,1.51,0,0,0,48.416,26.378Z" fill="#fff"/>
          <path d="M53.226,32V25.331h.981a.4.4,0,0,1,.41.292l.111.527a3.675,3.675,0,0,1,.425-.377,3.02,3.02,0,0,1,.475-.293,2.429,2.429,0,0,1,.536-.188,2.833,2.833,0,0,1,.624-.065,2.4,2.4,0,0,1,.969.185,1.921,1.921,0,0,1,.705.521,2.292,2.292,0,0,1,.429.8,3.426,3.426,0,0,1,.146,1.025V32h-1.6V27.756a1.423,1.423,0,0,0-.284-.946,1.045,1.045,0,0,0-.847-.335,1.676,1.676,0,0,0-.78.188,2.784,2.784,0,0,0-.69.514V32Z" fill="#fff"/>
          <path d="M61.059,27.4h3.367v1.339H61.059Z" fill="#fff"/>
        </g>
        <g>
          <path d="M12.965,45.8V38.682h.556a.238.238,0,0,1,.252.194l.079.63a2.844,2.844,0,0,1,.78-.667,1.991,1.991,0,0,1,1.011-.252,1.924,1.924,0,0,1,.829.176,1.716,1.716,0,0,1,.635.52,2.542,2.542,0,0,1,.405.853,4.449,4.449,0,0,1,.14,1.171A3.667,3.667,0,0,1,17.5,42.4a2.668,2.668,0,0,1-.452.877,2.087,2.087,0,0,1-1.685.8,1.975,1.975,0,0,1-.843-.162,1.9,1.9,0,0,1-.617-.462V45.8Zm2.367-6.458a1.5,1.5,0,0,0-.8.211,2.317,2.317,0,0,0-.632.592v2.573a1.507,1.507,0,0,0,.564.488,1.608,1.608,0,0,0,.685.142,1.341,1.341,0,0,0,1.14-.531,2.473,2.473,0,0,0,.4-1.511,3.843,3.843,0,0,0-.092-.893,1.786,1.786,0,0,0-.266-.611,1.038,1.038,0,0,0-.426-.35A1.42,1.42,0,0,0,15.332,39.343Z" fill="#fff"/>
          <path d="M23.191,44h-.414a.49.49,0,0,1-.22-.042.233.233,0,0,1-.112-.179l-.1-.493c-.14.126-.277.238-.409.339a2.349,2.349,0,0,1-.42.252,2.185,2.185,0,0,1-.471.154,2.683,2.683,0,0,1-.553.053,1.879,1.879,0,0,1-.58-.087,1.3,1.3,0,0,1-.47-.261,1.246,1.246,0,0,1-.318-.439,1.543,1.543,0,0,1-.118-.63,1.169,1.169,0,0,1,.174-.608,1.5,1.5,0,0,1,.558-.519,3.654,3.654,0,0,1,1.011-.372,6.857,6.857,0,0,1,1.528-.145V40.6a1.443,1.443,0,0,0-.265-.942.963.963,0,0,0-.785-.32,1.657,1.657,0,0,0-.575.087,2.143,2.143,0,0,0-.4.194c-.114.072-.213.137-.295.194a.421.421,0,0,1-.244.087.278.278,0,0,1-.165-.05.35.35,0,0,1-.112-.124l-.168-.3a3.038,3.038,0,0,1,.949-.636,2.941,2.941,0,0,1,1.129-.21,2.031,2.031,0,0,1,.793.147,1.632,1.632,0,0,1,.583.41,1.719,1.719,0,0,1,.356.635,2.631,2.631,0,0,1,.121.819Zm-2.257-6.768a.556.556,0,0,1-.047.227.6.6,0,0,1-.131.184.76.76,0,0,1-.192.126.57.57,0,0,1-.228.046.541.541,0,0,1-.221-.046.693.693,0,0,1-.186-.126.624.624,0,0,1-.129-.184.556.556,0,0,1-.047-.227A.584.584,0,0,1,19.8,37a.607.607,0,0,1,.129-.191.586.586,0,0,1,.186-.129.527.527,0,0,1,.221-.048.555.555,0,0,1,.228.048.636.636,0,0,1,.192.129.587.587,0,0,1,.178.421Zm-.168,6.2a1.925,1.925,0,0,0,.452-.05,1.765,1.765,0,0,0,.386-.142,1.932,1.932,0,0,0,.345-.223,2.806,2.806,0,0,0,.324-.3v-1.1a6.314,6.314,0,0,0-1.1.082,3.094,3.094,0,0,0-.736.214,1.031,1.031,0,0,0-.412.312.672.672,0,0,0-.128.4.86.86,0,0,0,.069.364.664.664,0,0,0,.183.251.714.714,0,0,0,.273.143A1.234,1.234,0,0,0,20.766,43.428Zm2.052-6.2a.54.54,0,0,1-.047.227.6.6,0,0,1-.128.184.725.725,0,0,1-.189.126.591.591,0,0,1-.457,0,.663.663,0,0,1-.186-.126.634.634,0,0,1-.126-.184.54.54,0,0,1-.047-.227.567.567,0,0,1,.047-.23.617.617,0,0,1,.126-.191A.565.565,0,0,1,22,36.682a.568.568,0,0,1,.457,0,.611.611,0,0,1,.189.129.588.588,0,0,1,.128.191A.567.567,0,0,1,22.818,37.232Z" fill="#fff"/>
          <path d="M28.877,44a.238.238,0,0,1-.252-.194l-.084-.646a2.767,2.767,0,0,1-.779.664,2,2,0,0,1-1.006.249,1.91,1.91,0,0,1-.829-.176,1.726,1.726,0,0,1-.636-.516,2.5,2.5,0,0,1-.4-.851,4.405,4.405,0,0,1-.141-1.171,3.7,3.7,0,0,1,.157-1.094,2.688,2.688,0,0,1,.454-.88,2.086,2.086,0,0,1,1.688-.8,1.931,1.931,0,0,1,.835.166,2.017,2.017,0,0,1,.62.464v-2.95h.934V44Zm-1.811-.683a1.5,1.5,0,0,0,.8-.21,2.306,2.306,0,0,0,.633-.592V39.941a1.5,1.5,0,0,0-.564-.485,1.631,1.631,0,0,0-.68-.139,1.345,1.345,0,0,0-1.145.531,2.473,2.473,0,0,0-.4,1.511,3.818,3.818,0,0,0,.089.89,1.691,1.691,0,0,0,.262.609,1.024,1.024,0,0,0,.425.349A1.443,1.443,0,0,0,27.066,43.317Z" fill="#fff"/>
          <path d="M35.434,44H35.02a.494.494,0,0,1-.221-.042.235.235,0,0,1-.111-.179l-.1-.493c-.141.126-.277.238-.41.339a2.315,2.315,0,0,1-.42.252,2.176,2.176,0,0,1-.47.154,2.686,2.686,0,0,1-.554.053A1.879,1.879,0,0,1,32.15,44a1.3,1.3,0,0,1-.469-.261,1.222,1.222,0,0,1-.318-.439,1.543,1.543,0,0,1-.119-.63,1.178,1.178,0,0,1,.174-.608,1.505,1.505,0,0,1,.559-.519,3.641,3.641,0,0,1,1.011-.372,6.851,6.851,0,0,1,1.528-.145V40.6a1.438,1.438,0,0,0-.266-.942.959.959,0,0,0-.785-.32,1.655,1.655,0,0,0-.574.087,2.154,2.154,0,0,0-.405.194c-.113.072-.212.137-.294.194a.423.423,0,0,1-.244.087.273.273,0,0,1-.165-.05.353.353,0,0,1-.113-.124l-.168-.3a3.053,3.053,0,0,1,.95-.636,2.933,2.933,0,0,1,1.129-.21,2.023,2.023,0,0,1,.792.147,1.636,1.636,0,0,1,.584.41,1.748,1.748,0,0,1,.356.635,2.6,2.6,0,0,1,.121.819Zm-2.425-.572a1.925,1.925,0,0,0,.452-.05,1.72,1.72,0,0,0,.385-.142,1.976,1.976,0,0,0,.346-.223,2.98,2.98,0,0,0,.324-.3v-1.1a6.326,6.326,0,0,0-1.1.082,3.061,3.061,0,0,0-.734.214,1.02,1.02,0,0,0-.413.312.679.679,0,0,0-.128.4.876.876,0,0,0,.068.364.667.667,0,0,0,.184.251.706.706,0,0,0,.273.143A1.234,1.234,0,0,0,33.009,43.428Z" fill="#fff"/>
          <path d="M39.167,38.593a2.629,2.629,0,0,1,.648.076,2.047,2.047,0,0,1,.549.223h1.444v.346c0,.116-.074.19-.22.221l-.605.084a1.606,1.606,0,0,1,.179.761,1.6,1.6,0,0,1-.564,1.25,1.883,1.883,0,0,1-.63.346,2.554,2.554,0,0,1-.8.121,2.716,2.716,0,0,1-.7-.089.905.905,0,0,0-.254.233.426.426,0,0,0-.086.244.332.332,0,0,0,.151.3,1.084,1.084,0,0,0,.405.144,3.377,3.377,0,0,0,.572.044H39.9a3.643,3.643,0,0,1,.655.058,1.985,1.985,0,0,1,.572.191,1.059,1.059,0,0,1,.4.367,1.086,1.086,0,0,1,.153.6,1.417,1.417,0,0,1-.171.67,1.83,1.83,0,0,1-.492.577,2.507,2.507,0,0,1-.782.4,3.368,3.368,0,0,1-1.044.151,4.033,4.033,0,0,1-1.021-.115,2.379,2.379,0,0,1-.728-.311,1.332,1.332,0,0,1-.432-.449,1.061,1.061,0,0,1-.145-.533.962.962,0,0,1,.249-.67,1.735,1.735,0,0,1,.685-.44.934.934,0,0,1-.36-.28.825.825,0,0,1-.092-.707.992.992,0,0,1,.129-.244,1.378,1.378,0,0,1,.213-.23,1.4,1.4,0,0,1,.294-.2,1.654,1.654,0,0,1-.617-.585,1.607,1.607,0,0,1-.224-.853A1.634,1.634,0,0,1,37.3,39.6a1.538,1.538,0,0,1,.418-.541,1.9,1.9,0,0,1,.636-.344A2.629,2.629,0,0,1,39.167,38.593Zm1.659,5.677a.474.474,0,0,0-.11-.327.708.708,0,0,0-.3-.19,2.181,2.181,0,0,0-.436-.1,4.086,4.086,0,0,0-.519-.032H38.9a2.007,2.007,0,0,1-.541-.071,1.535,1.535,0,0,0-.484.347.7.7,0,0,0-.188.489.659.659,0,0,0,.092.334.79.79,0,0,0,.281.268,1.678,1.678,0,0,0,.475.179,3.044,3.044,0,0,0,.676.065,2.975,2.975,0,0,0,.677-.069,1.676,1.676,0,0,0,.506-.2.962.962,0,0,0,.318-.3A.728.728,0,0,0,40.826,44.27ZM39.167,41.4a1.46,1.46,0,0,0,.5-.079,1.007,1.007,0,0,0,.365-.22.9.9,0,0,0,.221-.338,1.239,1.239,0,0,0,.073-.434,1.031,1.031,0,0,0-.3-.776,1.427,1.427,0,0,0-1.722,0,1.031,1.031,0,0,0-.3.776,1.2,1.2,0,0,0,.076.434.918.918,0,0,0,.224.338,1,1,0,0,0,.362.22A1.409,1.409,0,0,0,39.167,41.4Z" fill="#fff"/>
          <path d="M45.42,38.6a2.729,2.729,0,0,1,1.053.194,2.234,2.234,0,0,1,.8.551,2.445,2.445,0,0,1,.5.864,3.715,3.715,0,0,1,0,2.266,2.436,2.436,0,0,1-.5.86,2.2,2.2,0,0,1-.8.549,3,3,0,0,1-2.106,0,2.229,2.229,0,0,1-.8-.549,2.448,2.448,0,0,1-.509-.86,3.695,3.695,0,0,1,0-2.266,2.457,2.457,0,0,1,.509-.864,2.259,2.259,0,0,1,.8-.551A2.722,2.722,0,0,1,45.42,38.6Zm0,4.746a1.367,1.367,0,0,0,1.176-.528,2.446,2.446,0,0,0,.388-1.472,2.474,2.474,0,0,0-.388-1.481,1.366,1.366,0,0,0-1.176-.53,1.611,1.611,0,0,0-.693.137,1.281,1.281,0,0,0-.491.393,1.734,1.734,0,0,0-.295.633,3.776,3.776,0,0,0,0,1.692,1.709,1.709,0,0,0,.295.628,1.3,1.3,0,0,0,.491.391A1.626,1.626,0,0,0,45.42,43.344Z" fill="#fff"/>
          <path d="M51.42,38.593a2.629,2.629,0,0,1,.648.076,2.033,2.033,0,0,1,.549.223h1.444v.346c0,.116-.073.19-.22.221l-.605.084a1.619,1.619,0,0,1,.18.761,1.606,1.606,0,0,1-.564,1.25,1.888,1.888,0,0,1-.631.346,2.545,2.545,0,0,1-.8.121,2.713,2.713,0,0,1-.7-.089.879.879,0,0,0-.254.233.421.421,0,0,0-.087.244.332.332,0,0,0,.151.3,1.084,1.084,0,0,0,.405.144,3.385,3.385,0,0,0,.572.044h.654a3.651,3.651,0,0,1,.655.058,1.978,1.978,0,0,1,.571.191,1.052,1.052,0,0,1,.4.367,1.086,1.086,0,0,1,.152.6,1.416,1.416,0,0,1-.17.67,1.826,1.826,0,0,1-.491.577,2.524,2.524,0,0,1-.783.4,3.368,3.368,0,0,1-1.044.151,4.027,4.027,0,0,1-1.021-.115,2.39,2.39,0,0,1-.728-.311,1.351,1.351,0,0,1-.432-.449,1.06,1.06,0,0,1-.144-.533.962.962,0,0,1,.248-.67,1.732,1.732,0,0,1,.686-.44.934.934,0,0,1-.36-.28.749.749,0,0,1-.134-.469.733.733,0,0,1,.042-.238.929.929,0,0,1,.129-.244,1.337,1.337,0,0,1,.213-.23,1.423,1.423,0,0,1,.293-.2,1.654,1.654,0,0,1-.617-.585A1.607,1.607,0,0,1,49.4,40.3a1.634,1.634,0,0,1,.151-.706,1.546,1.546,0,0,1,.417-.541,1.912,1.912,0,0,1,.637-.344A2.618,2.618,0,0,1,51.42,38.593Zm1.66,5.677a.47.47,0,0,0-.111-.327.711.711,0,0,0-.3-.19,2.23,2.23,0,0,0-.436-.1,4.1,4.1,0,0,0-.519-.032h-.557a2,2,0,0,1-.541-.071,1.551,1.551,0,0,0-.485.347.7.7,0,0,0-.187.489.659.659,0,0,0,.092.334.774.774,0,0,0,.281.268,1.655,1.655,0,0,0,.475.179,3.041,3.041,0,0,0,.675.065,2.969,2.969,0,0,0,.677-.069,1.682,1.682,0,0,0,.507-.2.968.968,0,0,0,.317-.3A.72.72,0,0,0,53.08,44.27ZM51.42,41.4a1.461,1.461,0,0,0,.5-.079,1.024,1.024,0,0,0,.365-.22.911.911,0,0,0,.221-.338,1.239,1.239,0,0,0,.072-.434,1.031,1.031,0,0,0-.3-.776,1.426,1.426,0,0,0-1.721,0,1.028,1.028,0,0,0-.3.776,1.2,1.2,0,0,0,.076.434.939.939,0,0,0,.222.338,1.011,1.011,0,0,0,.364.22A1.4,1.4,0,0,0,51.42,41.4Z" fill="#fff"/>
          <path d="M56.77,37.013a.589.589,0,0,1-.055.254.736.736,0,0,1-.147.21.691.691,0,0,1-.213.144.639.639,0,0,1-.257.053.615.615,0,0,1-.254-.053.7.7,0,0,1-.356-.354.633.633,0,0,1-.051-.254.678.678,0,0,1,.051-.261.684.684,0,0,1,.356-.359.6.6,0,0,1,.254-.053.623.623,0,0,1,.257.053.691.691,0,0,1,.213.144.733.733,0,0,1,.147.215A.63.63,0,0,1,56.77,37.013Zm-.209,1.669V44h-.936V38.682Z" fill="#fff"/>
          <path d="M59.705,36.267v4.551h.241a.45.45,0,0,0,.173-.028.493.493,0,0,0,.152-.118l1.68-1.8a.959.959,0,0,1,.158-.137.372.372,0,0,1,.209-.052h.852l-1.959,2.084a1.9,1.9,0,0,1-.145.158.752.752,0,0,1-.16.12,1,1,0,0,1,.172.144,1.508,1.508,0,0,1,.144.187L63.3,44h-.84a.4.4,0,0,1-.2-.045.5.5,0,0,1-.155-.139l-1.748-2.178a.4.4,0,0,0-.158-.145.64.64,0,0,0-.236-.034h-.262V44h-.94V36.267Z" fill="#fff"/>
        </g>
      </g>
    </g>
  </g>
</svg>
