<svg xmlns="http://www.w3.org/2000/svg" viewBox="0 0 76 67">
  <title>D4_virtuos</title>
  <g id="Ebene_2" data-name="Ebene 2">
    <g id="Ebene_1-2" data-name="Ebene 1">
      <g>
        <path id="Rechteck_57" data-name="Rechteck 57" d="M15.5.5h45a14.926,14.926,0,0,1,15,14.85v36.3a14.926,14.926,0,0,1-15,14.85h-45A14.926,14.926,0,0,1,.5,51.65V15.35A14.926,14.926,0,0,1,15.5.5Z" fill="#28497c" stroke="#fff" stroke-miterlimit="10"/>
        <g>
          <path d="M16.1,40H14.417l-3.06-7.695H12.9a.586.586,0,0,1,.341.1.5.5,0,0,1,.191.248l1.485,4.11c.085.24.156.474.214.705s.108.461.153.689c.045-.228.1-.459.155-.689a6.311,6.311,0,0,1,.22-.705l1.523-4.11a.511.511,0,0,1,.187-.248.549.549,0,0,1,.324-.1h1.461Z" fill="#fff"/>
          <path d="M22.5,30.063a1.056,1.056,0,0,1-.1.45,1.254,1.254,0,0,1-.258.367,1.284,1.284,0,0,1-.379.251,1.174,1.174,0,0,1-.465.094,1.125,1.125,0,0,1-.454-.094,1.194,1.194,0,0,1-.622-.618,1.083,1.083,0,0,1-.094-.45,1.147,1.147,0,0,1,.094-.465,1.178,1.178,0,0,1,.622-.627,1.109,1.109,0,0,1,.454-.094,1.157,1.157,0,0,1,.465.094,1.231,1.231,0,0,1,.379.252,1.216,1.216,0,0,1,.258.375A1.117,1.117,0,0,1,22.5,30.063Zm-.278,2.242V40H20.364V32.305Z" fill="#fff"/>
          <path d="M24.31,40V32.305H25.4a.585.585,0,0,1,.4.1.6.6,0,0,1,.149.36l.113.93a3.655,3.655,0,0,1,.967-1.125,2.048,2.048,0,0,1,1.246-.413,1.611,1.611,0,0,1,.945.263l-.24,1.388a.287.287,0,0,1-.1.191.332.332,0,0,1-.2.057,1.272,1.272,0,0,1-.308-.053,2.056,2.056,0,0,0-.517-.053,1.584,1.584,0,0,0-.991.318,2.469,2.469,0,0,0-.7.934V40Z" fill="#fff"/>
          <path d="M32.965,40.12a2.023,2.023,0,0,1-1.538-.566,2.175,2.175,0,0,1-.54-1.564v-4.3h-.78a.375.375,0,0,1-.258-.1.371.371,0,0,1-.11-.293v-.736l1.238-.2.39-2.1a.372.372,0,0,1,.139-.233.439.439,0,0,1,.273-.083h.96v2.423h2.026v1.319H32.739v4.17a.817.817,0,0,0,.181.563.6.6,0,0,0,.479.2.885.885,0,0,0,.289-.041,1.676,1.676,0,0,0,.2-.086c.057-.029.109-.059.154-.086a.261.261,0,0,1,.135-.041.214.214,0,0,1,.134.041.578.578,0,0,1,.113.123l.555.9a2.82,2.82,0,0,1-.93.509A3.43,3.43,0,0,1,32.965,40.12Z" fill="#fff"/>
          <path d="M40.712,38.373a2.665,2.665,0,0,0,1.046-.2,2.2,2.2,0,0,0,.78-.548,2.4,2.4,0,0,0,.487-.855,3.515,3.515,0,0,0,.169-1.125v-6.5h2.018v6.5a5.022,5.022,0,0,1-.312,1.789,4.019,4.019,0,0,1-.9,1.417,4.072,4.072,0,0,1-1.417.93,5.43,5.43,0,0,1-3.75,0,3.976,3.976,0,0,1-2.307-2.347,5.022,5.022,0,0,1-.311-1.789v-6.5h2.017v6.489a3.535,3.535,0,0,0,.169,1.125,2.477,2.477,0,0,0,.485.859,2.152,2.152,0,0,0,.775.551A2.666,2.666,0,0,0,40.712,38.373Z" fill="#fff"/>
          <path d="M57.669,34.578a6.005,6.005,0,0,1-.4,2.208,5.212,5.212,0,0,1-1.117,1.759A5.049,5.049,0,0,1,54.422,39.7a6.249,6.249,0,0,1-4.489,0,5.083,5.083,0,0,1-1.74-1.158,5.209,5.209,0,0,1-1.122-1.759,6.341,6.341,0,0,1,0-4.417,5.223,5.223,0,0,1,1.122-1.76,5.112,5.112,0,0,1,1.74-1.158,5.879,5.879,0,0,1,2.246-.416,5.8,5.8,0,0,1,2.243.42,5.121,5.121,0,0,1,1.732,1.158,5.18,5.18,0,0,1,1.117,1.756A6.015,6.015,0,0,1,57.669,34.578Zm-2.069,0a5.027,5.027,0,0,0-.237-1.6,3.419,3.419,0,0,0-.678-1.2,2.906,2.906,0,0,0-1.078-.756,4,4,0,0,0-2.86,0,2.912,2.912,0,0,0-1.084.756,3.4,3.4,0,0,0-.686,1.2,5.438,5.438,0,0,0,0,3.2,3.362,3.362,0,0,0,.686,1.2,2.978,2.978,0,0,0,1.084.754,4.033,4.033,0,0,0,2.86,0,2.972,2.972,0,0,0,1.078-.754,3.378,3.378,0,0,0,.678-1.2A5.04,5.04,0,0,0,55.6,34.578Z" fill="#fff"/>
          <path d="M65.072,31.127a.558.558,0,0,1-.191.232.484.484,0,0,1-.259.069.654.654,0,0,1-.338-.117c-.125-.077-.272-.164-.442-.258a3.482,3.482,0,0,0-.6-.259,2.516,2.516,0,0,0-.806-.116,2.352,2.352,0,0,0-.731.1,1.507,1.507,0,0,0-.525.282,1.132,1.132,0,0,0-.319.43,1.417,1.417,0,0,0-.1.552.956.956,0,0,0,.213.637,1.789,1.789,0,0,0,.566.435,5.366,5.366,0,0,0,.8.323q.45.142.919.3a9.222,9.222,0,0,1,.919.375,3.2,3.2,0,0,1,.8.54,2.448,2.448,0,0,1,.567.8,2.781,2.781,0,0,1,.214,1.148,3.749,3.749,0,0,1-.251,1.376,3.176,3.176,0,0,1-.736,1.117,3.437,3.437,0,0,1-1.18.75,4.345,4.345,0,0,1-1.6.274,5.181,5.181,0,0,1-1.02-.1,5.4,5.4,0,0,1-.964-.289,4.971,4.971,0,0,1-.863-.451,4.2,4.2,0,0,1-.715-.584l.585-.967a.747.747,0,0,1,.2-.177.492.492,0,0,1,.259-.071.715.715,0,0,1,.405.154c.144.1.316.216.514.341a3.869,3.869,0,0,0,.7.341,2.684,2.684,0,0,0,.964.155,1.976,1.976,0,0,0,1.335-.41,1.467,1.467,0,0,0,.472-1.173,1.093,1.093,0,0,0-.214-.7,1.737,1.737,0,0,0-.566-.453,4.164,4.164,0,0,0-.8-.311c-.3-.085-.6-.177-.915-.278a7.715,7.715,0,0,1-.915-.36,2.95,2.95,0,0,1-.8-.547,2.484,2.484,0,0,1-.566-.844,3.2,3.2,0,0,1-.214-1.249A2.977,2.977,0,0,1,59.8,30a3.425,3.425,0,0,1,1.113-.7,4.081,4.081,0,0,1,1.508-.262,5.063,5.063,0,0,1,1.77.3,3.967,3.967,0,0,1,1.379.84Z" fill="#fff"/>
        </g>
      </g>
    </g>
  </g>
</svg>
