<svg xmlns="http://www.w3.org/2000/svg" viewBox="0 0 76 67">
  <title>D5_tools_hover</title>
  <g id="Ebene_2" data-name="Ebene 2">
    <g id="Ebene_1-2" data-name="Ebene 1">
      <g>
        <path id="Rechteck_57" data-name="Rechteck 57" d="M15.5.5h45a14.926,14.926,0,0,1,15,14.85v36.3a14.926,14.926,0,0,1-15,14.85h-45A14.926,14.926,0,0,1,.5,51.65V15.35A14.926,14.926,0,0,1,15.5.5Z" fill="#28497c" stroke="#c6d1ec" stroke-miterlimit="10"/>
        <g>
          <path d="M24.265,21.6v1.436H21.438V31h-1.75V23.037h-2.84V21.6Z" fill="#c6d1ec"/>
          <path d="M27.456,24.227a3.67,3.67,0,0,1,1.356.241,2.915,2.915,0,0,1,1.037.682,3.033,3.033,0,0,1,.662,1.079,4.465,4.465,0,0,1,0,2.853,3.1,3.1,0,0,1-.662,1.086,2.891,2.891,0,0,1-1.037.689,3.941,3.941,0,0,1-2.714,0,2.907,2.907,0,0,1-1.043-.689,3.1,3.1,0,0,1-.67-1.086,4.394,4.394,0,0,1,0-2.853,3.035,3.035,0,0,1,.67-1.079,2.93,2.93,0,0,1,1.043-.682A3.684,3.684,0,0,1,27.456,24.227Zm0,5.635a1.413,1.413,0,0,0,1.232-.558,2.809,2.809,0,0,0,.4-1.639,2.838,2.838,0,0,0-.4-1.644,1.406,1.406,0,0,0-1.232-.566,1.429,1.429,0,0,0-1.248.569,2.816,2.816,0,0,0-.4,1.641,2.783,2.783,0,0,0,.4,1.635A1.432,1.432,0,0,0,27.456,29.862Z" fill="#c6d1ec"/>
          <path d="M35.5,24.227a3.665,3.665,0,0,1,1.355.241,2.915,2.915,0,0,1,1.037.682,3.021,3.021,0,0,1,.663,1.079,4.465,4.465,0,0,1,0,2.853,3.087,3.087,0,0,1-.663,1.086,2.891,2.891,0,0,1-1.037.689,3.938,3.938,0,0,1-2.713,0,2.9,2.9,0,0,1-1.044-.689,3.1,3.1,0,0,1-.669-1.086,4.394,4.394,0,0,1,0-2.853A3.033,3.033,0,0,1,33.1,25.15a2.925,2.925,0,0,1,1.044-.682A3.681,3.681,0,0,1,35.5,24.227Zm0,5.635a1.414,1.414,0,0,0,1.232-.558,2.81,2.81,0,0,0,.4-1.639,2.838,2.838,0,0,0-.4-1.644,1.407,1.407,0,0,0-1.232-.566,1.429,1.429,0,0,0-1.248.569,2.816,2.816,0,0,0-.4,1.641,2.782,2.782,0,0,0,.4,1.635A1.432,1.432,0,0,0,35.5,29.862Z" fill="#c6d1ec"/>
          <path d="M42.4,21.341V31H40.794V21.341Z" fill="#c6d1ec"/>
          <path d="M48.821,25.631a.44.44,0,0,1-.135.146.349.349,0,0,1-.183.042.575.575,0,0,1-.25-.064c-.089-.044-.191-.093-.309-.147a2.79,2.79,0,0,0-.4-.146,1.922,1.922,0,0,0-.529-.065,1.225,1.225,0,0,0-.747.2.621.621,0,0,0-.274.526.5.5,0,0,0,.14.36,1.241,1.241,0,0,0,.37.257,3.578,3.578,0,0,0,.523.2c.2.059.395.123.6.193s.4.148.6.237a2.077,2.077,0,0,1,.523.338,1.589,1.589,0,0,1,.37.49,1.553,1.553,0,0,1,.14.69,2.224,2.224,0,0,1-.175.886,1.956,1.956,0,0,1-.514.7,2.4,2.4,0,0,1-.836.461,3.582,3.582,0,0,1-1.14.166,3.647,3.647,0,0,1-.673-.062,4,4,0,0,1-.63-.172,3.514,3.514,0,0,1-.56-.26,2.716,2.716,0,0,1-.451-.325l.37-.611a.544.544,0,0,1,.169-.169.478.478,0,0,1,.247-.059.526.526,0,0,1,.284.085c.089.056.191.117.308.182a2.693,2.693,0,0,0,.413.182,1.827,1.827,0,0,0,.6.084,1.553,1.553,0,0,0,.491-.068,1,1,0,0,0,.338-.179.674.674,0,0,0,.2-.256.777.777,0,0,0,.062-.3.542.542,0,0,0-.14-.384,1.234,1.234,0,0,0-.371-.26,3.562,3.562,0,0,0-.526-.2c-.2-.059-.4-.123-.605-.192a5.732,5.732,0,0,1-.6-.244,2.064,2.064,0,0,1-.527-.354,1.6,1.6,0,0,1-.37-.526,1.839,1.839,0,0,1-.14-.754,1.915,1.915,0,0,1,.163-.781,1.821,1.821,0,0,1,.477-.646,2.357,2.357,0,0,1,.786-.442,3.271,3.271,0,0,1,1.089-.166,3.346,3.346,0,0,1,1.255.227,2.84,2.84,0,0,1,.943.6Z" fill="#c6d1ec"/>
          <path d="M51.753,31.02a.96.96,0,0,1-.149.259.891.891,0,0,1-.208.186.97.97,0,0,1-.248.113.875.875,0,0,1-.253.039h-.676l3.8-9.711a.916.916,0,0,1,.318-.419.854.854,0,0,1,.5-.146h.683Z" fill="#c6d1ec"/>
          <path d="M56.336,31.02a.96.96,0,0,1-.149.259.891.891,0,0,1-.208.186.97.97,0,0,1-.248.113.875.875,0,0,1-.253.039H54.8l3.8-9.711a.916.916,0,0,1,.318-.419.854.854,0,0,1,.5-.146H60.1Z" fill="#c6d1ec"/>
          <path d="M25.9,45H24.551a.593.593,0,0,1-.374-.113.645.645,0,0,1-.211-.283l-.7-1.918H19.37l-.7,1.918a.622.622,0,0,1-.2.273A.58.58,0,0,1,18.09,45H16.731l3.692-9.4h1.788Zm-6.084-3.549h3l-1.144-3.127c-.052-.138-.109-.3-.172-.49s-.125-.394-.186-.614c-.06.22-.12.426-.178.617s-.116.357-.172.5Z" fill="#c6d1ec"/>
          <path d="M27.43,47.178V38.331h.981a.477.477,0,0,1,.267.071.334.334,0,0,1,.143.221l.13.618a3.406,3.406,0,0,1,.926-.748,2.526,2.526,0,0,1,1.226-.286,2.186,2.186,0,0,1,1,.228,2.254,2.254,0,0,1,.779.66,3.172,3.172,0,0,1,.508,1.066,5.364,5.364,0,0,1,.178,1.452,4.55,4.55,0,0,1-.2,1.385,3.381,3.381,0,0,1-.575,1.105,2.6,2.6,0,0,1-2.09.995,2.378,2.378,0,0,1-.958-.173,2.332,2.332,0,0,1-.706-.478v2.731Zm3.12-7.7a1.641,1.641,0,0,0-.855.212,2.457,2.457,0,0,0-.66.594v2.99a1.543,1.543,0,0,0,.595.471,1.789,1.789,0,0,0,.692.134,1.556,1.556,0,0,0,.66-.137,1.257,1.257,0,0,0,.5-.416,2.04,2.04,0,0,0,.316-.7,4.021,4.021,0,0,0,.11-1.005,4.461,4.461,0,0,0-.094-.991,1.941,1.941,0,0,0-.269-.659,1.073,1.073,0,0,0-.426-.371A1.327,1.327,0,0,0,30.55,39.475Z" fill="#c6d1ec"/>
          <path d="M35.432,47.178V38.331h.981a.482.482,0,0,1,.267.071.333.333,0,0,1,.142.221l.13.618a3.411,3.411,0,0,1,.927-.748,2.522,2.522,0,0,1,1.225-.286,2.183,2.183,0,0,1,1,.228,2.248,2.248,0,0,1,.78.66,3.152,3.152,0,0,1,.507,1.066,5.364,5.364,0,0,1,.178,1.452,4.581,4.581,0,0,1-.2,1.385,3.4,3.4,0,0,1-.575,1.105,2.668,2.668,0,0,1-.9.731A2.627,2.627,0,0,1,38.7,45.1a2.383,2.383,0,0,1-.959-.173,2.327,2.327,0,0,1-.7-.478v2.731Zm3.12-7.7a1.644,1.644,0,0,0-.856.212,2.454,2.454,0,0,0-.659.594v2.99a1.529,1.529,0,0,0,.595.471,1.789,1.789,0,0,0,.692.134,1.554,1.554,0,0,0,.659-.137,1.267,1.267,0,0,0,.5-.416,2.058,2.058,0,0,0,.316-.7,4.069,4.069,0,0,0,.11-1.005,4.4,4.4,0,0,0-.095-.991,1.9,1.9,0,0,0-.269-.659,1.067,1.067,0,0,0-.426-.371A1.326,1.326,0,0,0,38.552,39.475Z" fill="#c6d1ec"/>
          <path d="M47.392,39.631a.433.433,0,0,1-.137.146.348.348,0,0,1-.182.042.579.579,0,0,1-.251-.064c-.089-.044-.191-.093-.308-.147a2.835,2.835,0,0,0-.4-.146,1.925,1.925,0,0,0-.53-.065,1.231,1.231,0,0,0-.747.2.623.623,0,0,0-.274.526.5.5,0,0,0,.141.36,1.229,1.229,0,0,0,.37.257,3.507,3.507,0,0,0,.524.2c.194.059.394.123.6.193a6.2,6.2,0,0,1,.6.237,2.06,2.06,0,0,1,.523.338,1.476,1.476,0,0,1,.511,1.18,2.19,2.19,0,0,1-.176.886,1.954,1.954,0,0,1-.513.7,2.41,2.41,0,0,1-.835.461,3.589,3.589,0,0,1-1.141.166,3.655,3.655,0,0,1-.673-.062,4.1,4.1,0,0,1-.631-.172,3.491,3.491,0,0,1-.558-.26,2.685,2.685,0,0,1-.452-.325l.371-.611a.515.515,0,0,1,.169-.169.47.47,0,0,1,.247-.059.522.522,0,0,1,.282.085c.089.056.192.117.309.182a2.693,2.693,0,0,0,.413.182,1.822,1.822,0,0,0,.6.084,1.537,1.537,0,0,0,.49-.068,1,1,0,0,0,.338-.179.667.667,0,0,0,.2-.256.776.776,0,0,0,.061-.3.541.541,0,0,0-.139-.384,1.222,1.222,0,0,0-.371-.26,3.65,3.65,0,0,0-.526-.2c-.2-.059-.4-.123-.6-.192a5.663,5.663,0,0,1-.605-.244,2.064,2.064,0,0,1-.527-.354,1.581,1.581,0,0,1-.37-.526,1.839,1.839,0,0,1-.14-.754,1.931,1.931,0,0,1,.162-.781,1.815,1.815,0,0,1,.479-.646,2.337,2.337,0,0,1,.786-.442,3.259,3.259,0,0,1,1.089-.166,3.345,3.345,0,0,1,1.254.227,2.85,2.85,0,0,1,.943.6Z" fill="#c6d1ec"/>
          <path d="M50.322,45.02a.96.96,0,0,1-.149.259.872.872,0,0,1-.208.186.934.934,0,0,1-.247.113.88.88,0,0,1-.253.039h-.677l3.8-9.711a.922.922,0,0,1,.318-.419.853.853,0,0,1,.5-.146h.683Z" fill="#c6d1ec"/>
          <path d="M54.905,45.02a.96.96,0,0,1-.149.259.872.872,0,0,1-.208.186.934.934,0,0,1-.247.113.88.88,0,0,1-.253.039h-.677l3.8-9.711a.922.922,0,0,1,.318-.419.853.853,0,0,1,.5-.146h.683Z" fill="#c6d1ec"/>
        </g>
      </g>
    </g>
  </g>
</svg>
