<svg xmlns="http://www.w3.org/2000/svg" viewBox="0 0 76 67">
  <title>D6_safety</title>
  <g id="Ebene_2" data-name="Ebene 2">
    <g id="Ebene_1-2" data-name="Ebene 1">
      <g>
        <path id="Rechteck_57" data-name="Rechteck 57" d="M15.5.5h45a14.926,14.926,0,0,1,15,14.85v36.3a14.926,14.926,0,0,1-15,14.85h-45A14.926,14.926,0,0,1,.5,51.65V15.35A14.926,14.926,0,0,1,15.5.5Z" fill="#28497c" stroke="#fff" stroke-miterlimit="10"/>
        <g>
          <path d="M15.494,25.2a.424.424,0,0,1-.146.179.376.376,0,0,1-.2.052.5.5,0,0,1-.258-.089c-.1-.06-.209-.126-.34-.2a2.685,2.685,0,0,0-.457-.2,1.959,1.959,0,0,0-.618-.088,1.814,1.814,0,0,0-.561.078,1.169,1.169,0,0,0-.4.215.851.851,0,0,0-.244.331,1.076,1.076,0,0,0-.081.422.73.73,0,0,0,.164.489,1.347,1.347,0,0,0,.434.334,4.141,4.141,0,0,0,.615.247q.345.11.7.232a6.947,6.947,0,0,1,.705.288,2.45,2.45,0,0,1,.615.414,1.875,1.875,0,0,1,.434.613,2.111,2.111,0,0,1,.164.88,2.868,2.868,0,0,1-.192,1.054,2.448,2.448,0,0,1-.563.857,2.655,2.655,0,0,1-.907.575,3.326,3.326,0,0,1-1.224.21,4.013,4.013,0,0,1-.783-.077,4.142,4.142,0,0,1-.738-.222,3.83,3.83,0,0,1-.661-.345,3.259,3.259,0,0,1-.55-.449l.449-.741a.551.551,0,0,1,.153-.135.362.362,0,0,1,.2-.055.549.549,0,0,1,.311.118c.11.079.242.166.393.261a2.963,2.963,0,0,0,.535.262,2.057,2.057,0,0,0,.739.118,1.515,1.515,0,0,0,1.023-.313,1.128,1.128,0,0,0,.362-.9.832.832,0,0,0-.164-.534,1.329,1.329,0,0,0-.433-.348,3.4,3.4,0,0,0-.616-.239c-.23-.064-.463-.136-.7-.213a6.093,6.093,0,0,1-.7-.275,2.3,2.3,0,0,1-.615-.42,1.917,1.917,0,0,1-.434-.646,2.478,2.478,0,0,1-.164-.959,2.293,2.293,0,0,1,.71-1.65A2.617,2.617,0,0,1,12.3,23.8a3.092,3.092,0,0,1,1.156-.2,3.883,3.883,0,0,1,1.356.229,3.071,3.071,0,0,1,1.059.645Z" fill="#fff"/>
          <path d="M21.865,32h-.638a.687.687,0,0,1-.316-.061.384.384,0,0,1-.173-.244l-.127-.42a4.834,4.834,0,0,1-.439.354,2.732,2.732,0,0,1-.445.256,2.259,2.259,0,0,1-.49.155,2.9,2.9,0,0,1-.575.052,2.232,2.232,0,0,1-.689-.1,1.475,1.475,0,0,1-.544-.3,1.369,1.369,0,0,1-.354-.5,1.8,1.8,0,0,1-.126-.7,1.383,1.383,0,0,1,.175-.661,1.658,1.658,0,0,1,.584-.588A3.719,3.719,0,0,1,18.8,28.8a6.908,6.908,0,0,1,1.684-.173v-.348a1.32,1.32,0,0,0-.25-.884.912.912,0,0,0-.727-.287,1.771,1.771,0,0,0-.575.081,2.267,2.267,0,0,0-.4.181c-.113.067-.217.128-.313.182a.643.643,0,0,1-.317.08.413.413,0,0,1-.247-.075.587.587,0,0,1-.167-.184l-.258-.454a3.508,3.508,0,0,1,2.455-.932,2.382,2.382,0,0,1,.924.17,1.951,1.951,0,0,1,.686.472,2.014,2.014,0,0,1,.429.721,2.791,2.791,0,0,1,.146.92Zm-2.76-.886a1.881,1.881,0,0,0,.4-.039,1.513,1.513,0,0,0,.347-.119,1.879,1.879,0,0,0,.317-.2,2.794,2.794,0,0,0,.307-.275V29.5a5.7,5.7,0,0,0-1.038.078,2.749,2.749,0,0,0-.67.2.859.859,0,0,0-.359.285.713.713,0,0,0,.115.891A.949.949,0,0,0,19.105,31.114Z" fill="#fff"/>
          <path d="M23.631,32V27.17l-.512-.08a.551.551,0,0,1-.267-.115.3.3,0,0,1-.1-.242v-.581h.88v-.437a2.562,2.562,0,0,1,.152-.908,1.839,1.839,0,0,1,1.13-1.116,2.674,2.674,0,0,1,.92-.149,2.546,2.546,0,0,1,.759.109l-.029.713a.2.2,0,0,1-.156.207,1.23,1.23,0,0,1-.333.04,1.714,1.714,0,0,0-.451.055.763.763,0,0,0-.337.189.86.86,0,0,0-.21.357,1.8,1.8,0,0,0-.071.55v.39H26.54v1.012H25.051V32Z" fill="#fff"/>
          <path d="M29.961,26.009a2.857,2.857,0,0,1,1.026.178,2.244,2.244,0,0,1,.808.52,2.393,2.393,0,0,1,.529.84,3.179,3.179,0,0,1,.19,1.136,2.143,2.143,0,0,1-.014.266.427.427,0,0,1-.052.167.2.2,0,0,1-.1.086.411.411,0,0,1-.16.027H28.541a2.036,2.036,0,0,0,.488,1.334,1.522,1.522,0,0,0,1.127.425,1.943,1.943,0,0,0,.6-.081,2.683,2.683,0,0,0,.436-.178c.125-.065.234-.125.329-.178a.54.54,0,0,1,.272-.08.3.3,0,0,1,.149.034.321.321,0,0,1,.11.1l.414.517a2.331,2.331,0,0,1-.528.463,2.951,2.951,0,0,1-.614.3,3.252,3.252,0,0,1-.649.158,4.605,4.605,0,0,1-.641.046,3.129,3.129,0,0,1-1.144-.2,2.553,2.553,0,0,1-.92-.6,2.807,2.807,0,0,1-.615-.989,3.814,3.814,0,0,1-.225-1.365,3.275,3.275,0,0,1,.2-1.136,2.76,2.76,0,0,1,.561-.926,2.67,2.67,0,0,1,.891-.624A2.948,2.948,0,0,1,29.961,26.009Zm.028,1.017a1.315,1.315,0,0,0-.971.351,1.734,1.734,0,0,0-.449,1h2.668a1.762,1.762,0,0,0-.074-.52,1.207,1.207,0,0,0-.23-.429,1.091,1.091,0,0,0-.391-.29A1.334,1.334,0,0,0,29.989,27.026Z" fill="#fff"/>
          <path d="M35.723,32.092a1.552,1.552,0,0,1-1.179-.434,1.667,1.667,0,0,1-.414-1.2V27.164h-.6a.271.271,0,0,1-.281-.3V26.3l.948-.156.3-1.61a.286.286,0,0,1,.106-.178.335.335,0,0,1,.209-.063h.737v1.857H37.1v1.012H35.55v3.2a.63.63,0,0,0,.138.432.468.468,0,0,0,.368.154.643.643,0,0,0,.221-.031,1.061,1.061,0,0,0,.156-.066c.044-.023.083-.045.118-.066a.194.194,0,0,1,.1-.032.167.167,0,0,1,.1.032.523.523,0,0,1,.086.1l.426.689a2.148,2.148,0,0,1-.714.392A2.655,2.655,0,0,1,35.723,32.092Z" fill="#fff"/>
          <path d="M40.443,33.621a.551.551,0,0,1-.164.228.506.506,0,0,1-.307.077H38.913l1.105-2.363L37.631,26.1h1.242a.39.39,0,0,1,.265.08.516.516,0,0,1,.137.184l1.26,3.059a2.983,2.983,0,0,1,.11.31c.03.108.057.215.08.323.031-.112.064-.219.1-.323s.076-.209.118-.316l1.185-3.053a.418.418,0,0,1,.152-.19.407.407,0,0,1,.239-.074h1.138Z" fill="#fff"/>
          <path d="M47.188,32V27.17l-.512-.08a.559.559,0,0,1-.268-.115.3.3,0,0,1-.1-.242v-.581h.88v-.189a2.771,2.771,0,0,1,.178-1,2.128,2.128,0,0,1,.54-.8,2.547,2.547,0,0,1,.914-.532,3.986,3.986,0,0,1,1.306-.192,4.923,4.923,0,0,1,.494.025,2.336,2.336,0,0,1,.438.084l-.046.735a.163.163,0,0,1-.145.159,1.758,1.758,0,0,1-.327.026,3.749,3.749,0,0,0-.935.1,1.557,1.557,0,0,0-.609.29,1.077,1.077,0,0,0-.334.483,2.092,2.092,0,0,0-.1.676v.143h3.657V32H50.8V27.164H48.607V32Z" fill="#fff"/>
          <path d="M53.961,32V26.1H54.8a.448.448,0,0,1,.3.08.47.47,0,0,1,.115.276l.086.713a2.8,2.8,0,0,1,.742-.862A1.559,1.559,0,0,1,57,25.991a1.243,1.243,0,0,1,.725.2l-.184,1.064a.225.225,0,0,1-.075.147.25.25,0,0,1-.155.043.922.922,0,0,1-.236-.041,1.614,1.614,0,0,0-.4-.04,1.206,1.206,0,0,0-.76.245,1.868,1.868,0,0,0-.534.716V32Z" fill="#fff"/>
          <path d="M62.275,27.251a.378.378,0,0,1-.12.129.314.314,0,0,1-.161.037.5.5,0,0,1-.222-.058q-.117-.057-.273-.129a2.692,2.692,0,0,0-.353-.129,1.71,1.71,0,0,0-.469-.057,1.09,1.09,0,0,0-.661.178.551.551,0,0,0-.242.466.444.444,0,0,0,.124.319,1.09,1.09,0,0,0,.328.226,3.145,3.145,0,0,0,.462.176c.173.052.349.109.53.17s.356.131.529.21a1.848,1.848,0,0,1,.463.3,1.316,1.316,0,0,1,.451,1.043,1.964,1.964,0,0,1-.155.785,1.745,1.745,0,0,1-.454.621,2.125,2.125,0,0,1-.739.408,3.428,3.428,0,0,1-1.605.092,3.527,3.527,0,0,1-.558-.152,3.157,3.157,0,0,1-.494-.23,2.391,2.391,0,0,1-.4-.288l.327-.54a.46.46,0,0,1,.149-.149.418.418,0,0,1,.219-.052.456.456,0,0,1,.25.074c.079.05.17.1.274.161a2.247,2.247,0,0,0,.365.161,1.589,1.589,0,0,0,.531.076,1.391,1.391,0,0,0,.435-.061.9.9,0,0,0,.3-.158.6.6,0,0,0,.173-.228.682.682,0,0,0,.055-.267.478.478,0,0,0-.124-.339,1.067,1.067,0,0,0-.328-.23,3.078,3.078,0,0,0-.466-.175q-.261-.078-.534-.17a4.747,4.747,0,0,1-.535-.216,1.848,1.848,0,0,1-.466-.313,1.424,1.424,0,0,1-.327-.465,1.621,1.621,0,0,1-.124-.667,1.714,1.714,0,0,1,.143-.691A1.628,1.628,0,0,1,59,26.546a2.113,2.113,0,0,1,.7-.391,3.2,3.2,0,0,1,2.073.055,2.529,2.529,0,0,1,.834.528Z" fill="#fff"/>
          <path d="M65.853,32.092a1.552,1.552,0,0,1-1.179-.434,1.663,1.663,0,0,1-.414-1.2V27.164h-.6a.271.271,0,0,1-.281-.3V26.3l.948-.156.3-1.61a.286.286,0,0,1,.106-.178.335.335,0,0,1,.209-.063h.737v1.857h1.552v1.012H65.68v3.2a.634.634,0,0,0,.137.432.471.471,0,0,0,.369.154.647.647,0,0,0,.221-.031,1.061,1.061,0,0,0,.156-.066c.043-.023.083-.045.118-.066a.194.194,0,0,1,.1-.032.167.167,0,0,1,.1.032.562.562,0,0,1,.086.1l.425.689a2.144,2.144,0,0,1-.713.392A2.655,2.655,0,0,1,65.853,32.092Z" fill="#fff"/>
        </g>
        <g>
          <path d="M17.278,39.42a4.033,4.033,0,0,1-.255,1.465,3.161,3.161,0,0,1-1.835,1.857,3.869,3.869,0,0,1-1.44.258h-2.68V35.835h2.68a3.869,3.869,0,0,1,1.44.258,3.212,3.212,0,0,1,1.115.729,3.272,3.272,0,0,1,.72,1.133A4.037,4.037,0,0,1,17.278,39.42Zm-.995,0a3.625,3.625,0,0,0-.179-1.18,2.523,2.523,0,0,0-.51-.88,2.194,2.194,0,0,0-.8-.55,2.778,2.778,0,0,0-1.045-.19h-1.7v5.6h1.705a2.778,2.778,0,0,0,1.045-.19,2.211,2.211,0,0,0,.8-.547,2.505,2.505,0,0,0,.51-.878A3.625,3.625,0,0,0,16.283,39.42Z" fill="#fff"/>
          <path d="M22.278,43h-.395a.477.477,0,0,1-.209-.04.217.217,0,0,1-.106-.17l-.1-.47q-.2.18-.391.323a2.368,2.368,0,0,1-.4.24,2.1,2.1,0,0,1-.448.147,2.585,2.585,0,0,1-.527.05A1.774,1.774,0,0,1,19.15,43a1.267,1.267,0,0,1-.447-.248,1.188,1.188,0,0,1-.3-.419,1.487,1.487,0,0,1-.112-.6,1.129,1.129,0,0,1,.165-.579,1.454,1.454,0,0,1,.533-.5,3.469,3.469,0,0,1,.962-.353,6.553,6.553,0,0,1,1.455-.138v-.4a1.382,1.382,0,0,0-.253-.9.915.915,0,0,0-.747-.3,1.618,1.618,0,0,0-.548.082,2.149,2.149,0,0,0-.384.185c-.109.068-.2.131-.281.186a.407.407,0,0,1-.232.082.27.27,0,0,1-.157-.047.379.379,0,0,1-.108-.118l-.16-.285a2.908,2.908,0,0,1,.9-.6,2.8,2.8,0,0,1,1.076-.2,1.917,1.917,0,0,1,.754.14,1.532,1.532,0,0,1,.555.39,1.656,1.656,0,0,1,.34.6,2.513,2.513,0,0,1,.115.78Zm-2.309-.545a1.794,1.794,0,0,0,.429-.048,1.652,1.652,0,0,0,.368-.135,1.923,1.923,0,0,0,.33-.212,2.789,2.789,0,0,0,.307-.285V40.73a5.988,5.988,0,0,0-1.046.078,2.91,2.91,0,0,0-.7.2.976.976,0,0,0-.392.3.637.637,0,0,0-.123.381.836.836,0,0,0,.065.347.654.654,0,0,0,.175.239.674.674,0,0,0,.26.136A1.207,1.207,0,0,0,19.969,42.455Z" fill="#fff"/>
          <path d="M25.264,43.08a1.222,1.222,0,0,1-.924-.335,1.338,1.338,0,0,1-.322-.965v-3.1h-.61a.2.2,0,0,1-.135-.047.184.184,0,0,1-.054-.148V38.13l.829-.105.205-1.565a.186.186,0,0,1,.065-.122.2.2,0,0,1,.14-.048h.45v1.745h1.449v.645H24.908v3.04a.642.642,0,0,0,.155.475.539.539,0,0,0,.4.155.7.7,0,0,0,.242-.037,1.143,1.143,0,0,0,.178-.083,1.443,1.443,0,0,0,.128-.083.161.161,0,0,1,.093-.037.157.157,0,0,1,.125.085l.259.425a1.644,1.644,0,0,1-.554.337A1.883,1.883,0,0,1,25.264,43.08Z" fill="#fff"/>
          <path d="M29.563,37.855a2.257,2.257,0,0,1,.84.153,1.883,1.883,0,0,1,.665.439,2.035,2.035,0,0,1,.438.71,2.747,2.747,0,0,1,.157.963.579.579,0,0,1-.045.28.189.189,0,0,1-.17.07h-3.37a2.809,2.809,0,0,0,.13.835,1.7,1.7,0,0,0,.33.592,1.327,1.327,0,0,0,.5.356,1.722,1.722,0,0,0,.65.117,1.931,1.931,0,0,0,.578-.077,2.832,2.832,0,0,0,.418-.168,3.266,3.266,0,0,0,.292-.168.389.389,0,0,1,.2-.077.193.193,0,0,1,.17.085l.25.325a1.7,1.7,0,0,1-.395.348,2.5,2.5,0,0,1-.492.242,3.118,3.118,0,0,1-.543.142,3.277,3.277,0,0,1-.555.048,2.579,2.579,0,0,1-.967-.177,2.126,2.126,0,0,1-.765-.521,2.378,2.378,0,0,1-.5-.847,3.446,3.446,0,0,1-.18-1.16,2.938,2.938,0,0,1,.163-.99,2.341,2.341,0,0,1,.467-.8,2.149,2.149,0,0,1,.745-.529A2.432,2.432,0,0,1,29.563,37.855Zm.02.655a1.363,1.363,0,0,0-1.015.373,1.756,1.756,0,0,0-.461,1.032h2.756a1.789,1.789,0,0,0-.085-.567,1.256,1.256,0,0,0-.25-.446,1.132,1.132,0,0,0-.4-.29A1.357,1.357,0,0,0,29.583,38.51Z" fill="#fff"/>
          <path d="M32.9,43V37.935h.53a.227.227,0,0,1,.24.185l.07.55a2.834,2.834,0,0,1,.738-.59,1.913,1.913,0,0,1,.942-.225,1.817,1.817,0,0,1,.732.137,1.42,1.42,0,0,1,.531.391A1.719,1.719,0,0,1,37,38.99a2.655,2.655,0,0,1,.11.785V43h-.89V39.775a1.367,1.367,0,0,0-.262-.892.983.983,0,0,0-.8-.318,1.494,1.494,0,0,0-.738.19,2.431,2.431,0,0,0-.632.515V43Z" fill="#fff"/>
          <path d="M41.457,38.77a.2.2,0,0,1-.185.11.354.354,0,0,1-.169-.055c-.064-.037-.141-.078-.233-.123a2.251,2.251,0,0,0-.327-.125,1.578,1.578,0,0,0-.45-.057,1.339,1.339,0,0,0-.405.057.967.967,0,0,0-.307.158.672.672,0,0,0-.2.233.62.62,0,0,0-.069.287.48.48,0,0,0,.113.325.969.969,0,0,0,.3.225,2.7,2.7,0,0,0,.42.168c.157.048.319.1.483.155s.326.115.482.182a1.749,1.749,0,0,1,.42.25,1.076,1.076,0,0,1,.41.89,1.645,1.645,0,0,1-.125.648,1.4,1.4,0,0,1-.369.514,1.761,1.761,0,0,1-.6.343,2.465,2.465,0,0,1-.819.125,2.566,2.566,0,0,1-.961-.173,2.414,2.414,0,0,1-.729-.442l.21-.34a.315.315,0,0,1,.095-.1.266.266,0,0,1,.145-.035.338.338,0,0,1,.189.07c.067.046.149.1.243.155a1.935,1.935,0,0,0,.345.155,1.568,1.568,0,0,0,.508.07,1.37,1.37,0,0,0,.455-.068.948.948,0,0,0,.324-.182.741.741,0,0,0,.194-.265.833.833,0,0,0,.062-.32.53.53,0,0,0-.113-.347.951.951,0,0,0-.3-.236,2.33,2.33,0,0,0-.423-.169c-.158-.048-.319-.1-.485-.153s-.326-.114-.485-.182a1.753,1.753,0,0,1-.422-.258,1.171,1.171,0,0,1-.3-.382,1.253,1.253,0,0,1-.113-.553,1.346,1.346,0,0,1,.121-.557,1.375,1.375,0,0,1,.349-.47,1.712,1.712,0,0,1,.566-.323,2.256,2.256,0,0,1,.764-.12,2.409,2.409,0,0,1,.9.158,2.116,2.116,0,0,1,.687.432Z" fill="#fff"/>
          <path d="M46.453,38.835a.415.415,0,0,1-.08.085.19.19,0,0,1-.115.03.275.275,0,0,1-.162-.062,2.394,2.394,0,0,0-.223-.138,1.871,1.871,0,0,0-.328-.138,1.568,1.568,0,0,0-.473-.062,1.522,1.522,0,0,0-.654.133,1.272,1.272,0,0,0-.479.382,1.753,1.753,0,0,0-.289.605,3,3,0,0,0-.1.8,2.9,2.9,0,0,0,.105.817,1.768,1.768,0,0,0,.3.6,1.256,1.256,0,0,0,.462.37,1.429,1.429,0,0,0,.612.127,1.592,1.592,0,0,0,.536-.077,1.643,1.643,0,0,0,.349-.173,2.709,2.709,0,0,0,.231-.173.279.279,0,0,1,.179-.077.186.186,0,0,1,.17.085l.25.325a1.922,1.922,0,0,1-.824.593,2.927,2.927,0,0,1-1.045.187,2.209,2.209,0,0,1-.883-.175,2.019,2.019,0,0,1-.707-.507,2.39,2.39,0,0,1-.472-.818,3.261,3.261,0,0,1-.173-1.1A3.3,3.3,0,0,1,42.8,39.42a2.354,2.354,0,0,1,.46-.827A2.089,2.089,0,0,1,44,38.05a2.522,2.522,0,0,1,1.02-.2,2.411,2.411,0,0,1,.941.172,2.271,2.271,0,0,1,.725.488Z" fill="#fff"/>
          <path d="M47.768,43V35.635h.89v2.98a2.714,2.714,0,0,1,.719-.552,1.923,1.923,0,0,1,.91-.208,1.822,1.822,0,0,1,.733.137,1.428,1.428,0,0,1,.531.391,1.751,1.751,0,0,1,.322.607,2.689,2.689,0,0,1,.109.785V43h-.889V39.775a1.361,1.361,0,0,0-.263-.892.98.98,0,0,0-.8-.318,1.493,1.493,0,0,0-.737.19,2.464,2.464,0,0,0-.632.515V43Z" fill="#fff"/>
          <path d="M54.2,37.935v3.23a1.341,1.341,0,0,0,.266.89.985.985,0,0,0,.8.315A1.525,1.525,0,0,0,56,42.185a2.29,2.29,0,0,0,.635-.515V37.935h.89V43h-.531a.226.226,0,0,1-.239-.185l-.07-.545a2.77,2.77,0,0,1-.74.587,1.935,1.935,0,0,1-.94.223,1.829,1.829,0,0,1-.733-.138,1.441,1.441,0,0,1-.532-.387,1.619,1.619,0,0,1-.323-.6,2.724,2.724,0,0,1-.107-.785v-3.23Z" fill="#fff"/>
          <path d="M60.623,43.08a1.224,1.224,0,0,1-.924-.335,1.338,1.338,0,0,1-.322-.965v-3.1h-.609a.2.2,0,0,1-.135-.047.185.185,0,0,1-.055-.148V38.13l.829-.105.205-1.565a.188.188,0,0,1,.066-.122.2.2,0,0,1,.139-.048h.451v1.745h1.449v.645H60.268v3.04a.642.642,0,0,0,.154.475.539.539,0,0,0,.4.155.7.7,0,0,0,.242-.037,1.1,1.1,0,0,0,.178-.083,1.443,1.443,0,0,0,.128-.083.164.164,0,0,1,.093-.037.155.155,0,0,1,.125.085l.26.425a1.649,1.649,0,0,1-.555.337A1.879,1.879,0,0,1,60.623,43.08Z" fill="#fff"/>
          <path d="M66.453,38.315a.491.491,0,0,1-.035.182.643.643,0,0,1-.09.158l-2.74,3.65h2.765V43H62.537v-.37a.464.464,0,0,1,.033-.152.691.691,0,0,1,.092-.168l2.756-3.675H62.692v-.7h3.761Z" fill="#fff"/>
        </g>
      </g>
    </g>
  </g>
</svg>
