<svg xmlns="http://www.w3.org/2000/svg" xmlns:xlink="http://www.w3.org/1999/xlink" viewBox="0 0 130 202.531">
  <defs>
    <clipPath id="clip-path" transform="translate(0 -0.045)">
      <path d="M65.946,2.008A26.083,26.083,0,0,0,61.192.146,8.107,8.107,0,0,0,54.484,1.8a10,10,0,0,0-2.7,4.038,17.094,17.094,0,0,0-.074,8.148c1.079,4.226.8,6.075-1.125,9.3-1.858,3.12-3.176,2.936-4.082,4.871-1.633,3.484.4,8.657,2.518,9.074a7.118,7.118,0,0,0,3.212-.761,14,14,0,0,1,1.918-.715,6.759,6.759,0,0,1,2.588-.091,67.442,67.442,0,0,0,6.816-16.2A67.4,67.4,0,0,0,65.946,2.008Z" fill="none"/>
    </clipPath>
    <clipPath id="clip-path-2" transform="translate(0 -0.045)">
      <path d="M65.458,2.043S70.55-.37,73.419,7.6c2.8,7.79,1.429,11.952,9.115,14.224s6.952,6.189,6.974,10.27,1.806,6.565,7.689,9.746,4.235,8.544,3.649,11.277c0,0,1.048-7.995-6.37-10.551,0,0,6.464,7.523-5.37,18.169a10.386,10.386,0,0,1-2.346-.219c-5.831-1.229-8.857-7.265-18.448-27.2-3.223-6.7-3.538-7.386-3.972-8.95C61.82,15.287,63.747,7.037,65.458,2.043Z" fill="none"/>
    </clipPath>
    <clipPath id="clip-path-3" transform="translate(0 -0.045)">
      <path d="M69.494,19.125s-3.136,5.23-.806,10.332a6.408,6.408,0,0,1-.3,7.014c-2.526,3.7-7.3,7.7-8.827,6.841s-5.243-13.1-4.255-13.495,3.614-.806,3.443-3.832C58.747,25.985,65.882,24.631,69.494,19.125Z" fill="none"/>
    </clipPath>
    <clipPath id="clip-path-4" transform="translate(0 -0.045)">
      <path d="M60.793,3.525c5.35.348,9.353,5.743,9.117,12.1s-3.633,9.008-9.006,10.9c-5.254,1.849-9.477-3.7-8.812-10.644.117-1.231.764-1.147.237-3.241C51.173,8.04,56.028,3.215,60.793,3.525Z" fill="none"/>
    </clipPath>
    <clipPath id="clip-path-5" transform="translate(0 -0.045)">
      <path d="M72.512,12.936c1.582.586,1.9,2.314,1.229,4.117s-2.605,2.993-4.186,2.407-1.282-1.58-.614-3.383S70.93,12.35,72.512,12.936Z" fill="none"/>
    </clipPath>
    <clipPath id="clip-path-6" transform="translate(0 -0.045)">
      <path d="M57.016,6.949a2.214,2.214,0,0,1,2.548-.623c2.7,1.08.851,7.328,10.806,7.3a3.036,3.036,0,0,0,1.047-2.955c-.472-1.738-3.174-6.044-6.3-7.236a12.223,12.223,0,0,0-6.8-.54A3.058,3.058,0,0,0,57.016,6.949Z" fill="none"/>
    </clipPath>
    <clipPath id="clip-path-7" transform="translate(0 -0.045)">
      <path d="M57.075,6.936s-.952-1.577-2.059-.64a6.113,6.113,0,0,0-1.751,3.253,8.422,8.422,0,0,1-1.232,2.56,5.055,5.055,0,0,1,.3-4.592c1.424-2.258,2.8-3.679,4.149-4.072s2.132-.227,1.905.2S57.075,6.936,57.075,6.936Z" fill="none"/>
    </clipPath>
    <clipPath id="clip-path-8" transform="translate(0 -0.045)">
      <path d="M57.6,13.393s.076-.662.319,2.246.857,4.849-.323,4.815-2.373-.367-2.16-1.253,1.115-1.835,1.44-3.148S57.19,13.064,57.6,13.393Z" fill="none"/>
    </clipPath>
  </defs>
  <title>I_germanistik</title>
  <g id="Ebene_2" data-name="Ebene 2">
    <g id="Ebene_1-2" data-name="Ebene 1">
      <g>
        <ellipse cx="65" cy="193.882" rx="65" ry="8.649" fill="#f4f4f4"/>
        <ellipse cx="90" cy="194.976" rx="38" ry="5.743" fill="#ebebeb"/>
        <ellipse cx="102.507" cy="194.476" rx="17.507" ry="2.243" fill="#494949" opacity="0.15"/>
        <polygon points="52.818 190.898 59.407 186.124 66.359 186.915 61.118 192.211 54.186 193.134 52.818 190.898" fill="#ffefe1"/>
        <g>
          <path d="M59.337,186.192l-1.18,1.895,2.159,1.384,2.156-1.436,1.129-.75.272-.474a7.42,7.42,0,0,0,.965-4.288L61.3,138.172l-.063-.767h.571l-.327-2.279-8.414.676L60,182.988A4.732,4.732,0,0,1,59.337,186.192Z" transform="translate(0 -0.045)" fill="#ffefe1"/>
          <path d="M53.538,137.543c.077.419.816,3.525,5.514,3.221,0,0,7.446,47.624,2.253,47.586,0,0,.016.013.05.035a10.455,10.455,0,0,0,3.133-1.808,7.684,7.684,0,0,0,.385-3.077l-3.534-44.869c-.9-.061-1.829-.144-2.757-.251A47.741,47.741,0,0,1,53.538,137.543Z" transform="translate(0 -0.045)" fill="#c3a09d"/>
        </g>
        <polygon points="55.565 192.572 63.964 186.192 67.463 184.065 68.669 183.136 68.291 186.192 66.064 188.318 55.565 192.572" fill="#c3a09d"/>
        <path d="M67.394,188.145a22.524,22.524,0,0,0-1.062-2.5c-.2-.409-.349-.6-.561-.645a2.966,2.966,0,0,1-.069.42l0,0,0,.012a2.487,2.487,0,0,1-1.036,1.518,5.774,5.774,0,0,1-1.048.911c-2.024,1.294-4.057,2.589-6.175,3.717a3.75,3.75,0,0,1-3.9-.02c-.045-.028-.09-.064-.134-.1a2.28,2.28,0,0,1-.333-.256l-.014-.011h0a2.375,2.375,0,0,1-.236-.266,19.672,19.672,0,0,1-2.918.446,3.129,3.129,0,0,0-1.522.6,1.464,1.464,0,0,0,.18,2.543,12.769,12.769,0,0,0,2.079.943,8.657,8.657,0,0,0,7.75-.933,15.858,15.858,0,0,1,3.384-1.62,20.215,20.215,0,0,1,3.08-.589A2.977,2.977,0,0,0,67.394,188.145Z" transform="translate(0 -0.045)" fill="#212741"/>
        <path d="M61.913,190.226l2,1.39,2.136-1.087,3.229-1.646,4.359-32.631a30,30,0,0,0-1.84-15.009l-1.517-3.832-5.89,0-2.574,0h-.571l3.6,45.118a7.42,7.42,0,0,1-.965,4.288l-.272.474Z" transform="translate(0 -0.045)" fill="#ffefe1"/>
        <polygon points="56.613 194.144 62.722 188.771 69.718 188.902 65 194.668 58.185 196.241 56.613 194.144" fill="#ffefe1"/>
        <path d="M33.714,161.861c-.336.013-.662.013-.982.005Z" transform="translate(0 -0.045)" fill="#eb685a"/>
        <path d="M13.718,43.2,27.9,63.021l1.61-2.754a.072.072,0,0,0,.012-.023l2.152-3.684L16.166,41.023,14,42.952Z" transform="translate(0 -0.045)" fill="#ffefe1"/>
        <polyline points="12.423 41.183 5.737 40.734 1.116 37.507" fill="none" stroke="#2c3149" stroke-miterlimit="10" stroke-width="0.324"/>
        <path d="M.236,37.151l4.144,4.5a3.873,3.873,0,0,0,2.061,1.166l1.6.33a15.6,15.6,0,0,0,5.716.111h0l.145-.025L16.1,41.1l-.325-3.056-2.963-2.2L9.674,34.8S8.921,35.978,12,37.314l.264,1.325-3.155-.467s-3.963-4.079-6-3.43l4.735,4.412L6.76,39.121S2.754,34.933.882,35.035l1.281,1.749c-.091-.12-.919-1.136-1.861-.9l1.061,1.585.11.168C1.4,37.567.739,36.893.236,37.151Z" transform="translate(0 -0.045)" fill="#ffefe1"/>
        <path d="M13.718,43.2,27.9,63.021l1.61-2.754a.072.072,0,0,0,.012-.023c.637-1.275,1.116-2.239,1.164-2.342-.177.221-3.33,3.941-9.757-5.4-5.195-7.55-6.574-9.193-6.93-9.55Z" transform="translate(0 -0.045)" fill="#c3a09d"/>
        <path d="M12,37.314l.264,1.325c.728.49-.078-1.945-.078-1.945C9.528,35.814,9.674,34.8,9.674,34.8S8.921,35.978,12,37.314Z" transform="translate(0 -0.045)" fill="#c3a09d"/>
        <polygon points="3.188 34.667 8.26 38.923 9.676 39.198 7.842 39.11 3.001 34.727 3.188 34.667" fill="#c3a09d"/>
        <path d="M2.038,36.591l3.226,3.294,2.412.158-2.289-.487S2.021,35.7.882,35.035Z" transform="translate(0 -0.045)" fill="#c3a09d"/>
        <path d="M1.473,37.639l-.11-.168L.3,35.886a29.243,29.243,0,0,1,2.241,2.579l2.348,1.977a2.535,2.535,0,0,0,1.767.593l2.7.229a5.233,5.233,0,0,1,4.05,1.107l.478.481s.019,0,.114.1l-.284.25.038.054h0a15.6,15.6,0,0,1-5.716-.111l-1.6-.33A3.873,3.873,0,0,1,4.38,41.649l-4.144-4.5C.739,36.893,1.4,37.567,1.473,37.639Z" transform="translate(0 -0.045)" fill="#c3a09d"/>
        <g>
          <path d="M76.36,64.583c-.089.145.5,11.856,2.166,17.616S84,93.848,84.375,93.748a4.824,4.824,0,0,0,1.152-.8,37.293,37.293,0,0,1-5.522-10.619c-1.6-5.655-2.237-17.662-2.382-17.81A1.852,1.852,0,0,0,76.36,64.583Z" transform="translate(0 -0.045)" fill="#17253d"/>
          <path d="M84.453,93.935l-.029-.01c-.37-.148-.886-1.011-.944-1.109a.063.063,0,0,1,.027-.091.079.079,0,0,1,.1.031,3.322,3.322,0,0,0,.869,1.045.958.958,0,0,0,.659-.023.567.567,0,0,0,.344-.317c.088-.251-.626-1.277-1.1-1.865a.064.064,0,0,1,.013-.094.077.077,0,0,1,.1.017c.13.162,1.262,1.59,1.122,1.99a.694.694,0,0,1-.419.393A1.107,1.107,0,0,1,84.453,93.935Z" transform="translate(0 -0.045)" fill="#17253d"/>
        </g>
        <path d="M68.211,140.8s4.72,5.009.488,42.531c0,0-.211,4.429-2.726,6.257a24.1,24.1,0,0,0,3.53-2.6l4.127-30.787a29.811,29.811,0,0,0-1.837-14.959l-1.029-2.594a79.888,79.888,0,0,1-8.974-.007C62.1,139.653,63.42,142.514,68.211,140.8Z" transform="translate(0 -0.045)" fill="#c3a09d"/>
        <g>
          <path d="M46.947,35.155c.038.03.063.052.075.06L47.01,35.2A.587.587,0,0,0,46.947,35.155Z" transform="translate(0 -0.045)" fill="#03051a"/>
          <path d="M65.939,2.027A23.681,23.681,0,0,0,61.188.156a8.129,8.129,0,0,0-6.846,2.028,11.955,11.955,0,0,0-2.874,4.494,20.224,20.224,0,0,0-.348,8.89c.95,4.573.6,6.6-1.451,10.181s-5.18,3.811-4.982,9.557,14.648-1.719,14.648-1.719S66.714,10.932,65.939,2.027Z" transform="translate(0 -0.045)" fill="#28497c" fill-rule="evenodd"/>
          <g clip-path="url(#clip-path)">
            <g id="Слой9">
              <path d="M52.6,20.022s.127,7.116,2.039,9.945-5.3,1.954-6,8.8,11.336.033,12.6-2.179,1.694-6.347,1.007-7.07S52.6,20.022,52.6,20.022Z" transform="translate(0 -0.045)" fill="#17253d" fill-rule="evenodd"/>
            </g>
          </g>
          <path d="M65.444,2.08S70.58-.452,73.379,7.71c2.735,7.976,1.313,12.265,9,14.521s6.916,6.289,6.9,10.482,1.745,6.725,7.619,9.935,4.164,8.735,3.548,11.549c0,0,1.133-8.225-6.287-10.776,0,0,6.412,7.663-5.575,18.722,0,0-.942.5-1.977-3.325S77.939,36.286,71.826,34.785s-6.974-7.96-7.73-9.762S65.444,2.08,65.444,2.08Z" transform="translate(0 -0.045)" fill="#28497c" fill-rule="evenodd"/>
          <g clip-path="url(#clip-path-2)">
            <g id="Слой8">
              <path d="M73.814,14.132s1.457,1.508-.976,5.05-2.943,5.157.125,6.915,5.479.308,8.6,3.687,1,4.7,2.7,7.554,7.095,5.569,8.329,11.546-2.166,9.284-3.72,11.7S68.542,34.26,66.709,31.593s-13.381-.882-13.381-.882a3.9,3.9,0,0,1,.14-3.548c1.069-1.621-1.423-4.348-1.162-6.756s5.783-.859,8.893-1.147S73.814,14.132,73.814,14.132Z" transform="translate(0 -0.045)" fill="#17253d" fill-rule="evenodd"/>
            </g>
          </g>
          <path d="M69.188,19.912c-.434,1-.864,2.088-1.27,3.256-.455,1.307-.825,2.553-1.127,3.721A8.848,8.848,0,0,0,67.6,31.4a5.2,5.2,0,0,0,1.362,1.895c1.267,1.053,2.33.707,2.634,1.2.973,1.586-5.971,11.591-12.253,9.639-3.671-1.14-6.313-6.019-5.193-8.377.757-1.592,2.869-1.281,4.415-3.4a7.471,7.471,0,0,0,1.112-5.221,22.016,22.016,0,0,0,3.206-1.576A22.5,22.5,0,0,0,69.188,19.912Z" transform="translate(0 -0.045)" fill="#ffefe1" fill-rule="evenodd"/>
          <g clip-path="url(#clip-path-3)">
            <path d="M59.671,29.189a16.905,16.905,0,0,0,8.277-6.228q.288-1-.045-1.294-.951-.84-6.942,4.021l-1.31.8Z" transform="translate(0 -0.045)" fill="#c3a09d" fill-rule="evenodd"/>
          </g>
          <g>
            <path d="M60.909,26.524c-4.227,1.489-7.778-1.8-8.671-6.764a13.47,13.47,0,0,1-.211-2.861c.012-.339.035-.674.062-1.019.114-1.225.766-1.149.243-3.238-1.165-4.6,3.7-9.43,8.464-9.12,5.347.347,9.349,5.749,9.11,12.1S66.276,24.641,60.909,26.524Z" transform="translate(0 -0.045)" fill="#ffefe1" fill-rule="evenodd"/>
            <g clip-path="url(#clip-path-4)">
              <g id="Слой7">
                <path d="M57.026,6.9s2.362-.415,3.438,1.058,1.948,6.4,9.519,5.855c0,0,.49-.958.329-1.068S61.361,4.4,59.278,5.032,57.026,6.9,57.026,6.9Z" transform="translate(0 -0.045)" fill="#c3a09d" fill-rule="evenodd"/>
                <path d="M57.008,6.945S54.974,5.63,53.667,8.573s-1.025,2.151-1.382,2.332,1.1-4.034,1.428-4.381S54.9,5.275,55.694,5.262a1.516,1.516,0,0,1,1.391.871A2.1,2.1,0,0,1,57.008,6.945Z" transform="translate(0 -0.045)" fill="#c3a09d" fill-rule="evenodd"/>
              </g>
            </g>
          </g>
          <g>
            <path d="M72.512,12.936c1.582.586,1.9,2.314,1.229,4.117s-2.605,2.993-4.186,2.407-1.282-1.58-.614-3.383S70.93,12.35,72.512,12.936Z" transform="translate(0 -0.045)" fill="#ffefe1" fill-rule="evenodd"/>
            <g clip-path="url(#clip-path-5)">
              <g id="Слой6">
                <path d="M70.057,16.224s-.667-3.38,1.831-3.608c1.777-.161,2.2,1.515,2.148,2.711,0,0-.193-2-1.686-1.636A4.5,4.5,0,0,0,70.057,16.224Z" transform="translate(0 -0.045)" fill="#c3a09d" fill-rule="evenodd"/>
              </g>
            </g>
          </g>
          <g id="Слой25">
            <ellipse cx="69.957" cy="19.719" rx="1.011" ry="1.109" transform="translate(27.163 78.423) rotate(-69.671)" fill="#fffcfc"/>
          </g>
          <g id="Слой4">
            <path d="M57.016,6.949a2.214,2.214,0,0,1,2.548-.623c2.7,1.08.851,7.328,10.806,7.3a3.036,3.036,0,0,0,1.047-2.955c-.472-1.738-3.174-6.044-6.3-7.236a12.223,12.223,0,0,0-6.8-.54A3.058,3.058,0,0,0,57.016,6.949Z" transform="translate(0 -0.045)" fill="#28497c" fill-rule="evenodd"/>
            <g clip-path="url(#clip-path-6)">
              <g id="Слой10">
                <path d="M70.626,13.627s-.319-1.13-2.066-.97-4.836-.384-6.066-2.647S59.987,5.426,58.33,6.4s4.086,6.9,7.143,7.589A8.228,8.228,0,0,0,70.626,13.627Z" transform="translate(0 -0.045)" fill="#17253d" fill-rule="evenodd"/>
              </g>
            </g>
            <path d="M57.075,6.936s-.952-1.577-2.059-.64a6.113,6.113,0,0,0-1.751,3.253,8.422,8.422,0,0,1-1.232,2.56,5.055,5.055,0,0,1,.3-4.592c1.424-2.258,2.8-3.679,4.149-4.072s2.132-.227,1.905.2S57.075,6.936,57.075,6.936Z" transform="translate(0 -0.045)" fill="#28497c" fill-rule="evenodd"/>
            <g clip-path="url(#clip-path-7)">
              <g id="Слой11">
                <path d="M57.009,6.829s-1.069-2.472-2.59-1.051-.894,3.645-2,5.658C52.423,11.436,54.923,5.014,57.009,6.829Z" transform="translate(0 -0.045)" fill="#17253d" fill-rule="evenodd"/>
              </g>
            </g>
          </g>
          <g clip-path="url(#clip-path-8)">
            <path d="M55.66,19.331a1.251,1.251,0,0,0,1.051.457c.777.019,1.257-.469,1.66-.178s.349.767-.44,1.105-1.711.377-2.059-.053A1.082,1.082,0,0,1,55.66,19.331Z" transform="translate(0 -0.045)" fill="#c3a09d" fill-rule="evenodd"/>
          </g>
          <path d="M59.129,12.246a.417.417,0,0,1-.279-.431c.05-.418.495-1.2,1.823-1.178a6.824,6.824,0,0,1,2.322.57.4.4,0,1,1-.3.742,5.817,5.817,0,0,0-2-.5c-.885-.015-.992.449-1,.5a.408.408,0,0,1-.477.321A.471.471,0,0,1,59.129,12.246Z" transform="translate(0 -0.045)" fill="#17253d"/>
          <path d="M53.4,11.232a.432.432,0,0,1-.266-.274.386.386,0,0,1,.281-.493,3.054,3.054,0,0,1,2.289.15,1.737,1.737,0,0,1,.822.977.384.384,0,0,1-.3.482.442.442,0,0,1-.517-.3.9.9,0,0,0-.343-.423,2.139,2.139,0,0,0-1.705-.1A.432.432,0,0,1,53.4,11.232Z" transform="translate(0 -0.045)" fill="#17253d"/>
          <ellipse cx="60.709" cy="14.848" rx="1.149" ry="0.754" transform="translate(40.232 73.852) rotate(-84.618)" fill="#17253d"/>
          <ellipse cx="54.25" cy="14.752" rx="1.178" ry="0.559" transform="translate(38.82 68.769) rotate(-89.283)" fill="#17253d"/>
          <path d="M55.458,22.25l5.351.315a3.073,3.073,0,0,1-1.392,1.457,3.265,3.265,0,0,1-2.038.3S56.377,24.163,55.458,22.25Z" transform="translate(0 -0.045)" fill="#fffcfc" fill-rule="evenodd"/>
          <path d="M55.458,22.25a5.086,5.086,0,0,0,1.34.65,5.676,5.676,0,0,0,4.011-.335,3.073,3.073,0,0,1-1.392,1.457,3.265,3.265,0,0,1-2.038.3S56.377,24.163,55.458,22.25Z" transform="translate(0 -0.045)" fill="#17253d" fill-rule="evenodd"/>
        </g>
        <path d="M22.946,125.016a36.274,36.274,0,0,1,11.969,3.068,37.444,37.444,0,0,1,8.4,5.052.188.188,0,0,0,.027.025l.009.006a24.7,24.7,0,0,0,10.185,4.376,48.693,48.693,0,0,0,5.043.816c.928.1,1.853.184,2.757.243a78.8,78.8,0,0,0,13.134-.254c7.421-47.317-2.724-62-2.724-62a42.6,42.6,0,0,0-17.365-1.66,20.323,20.323,0,0,0-3.529,2.279C35.909,88.727,22.946,125.016,22.946,125.016Z" transform="translate(0 -0.045)" fill="#3e5e90"/>
        <path d="M58.678,138.362c-.032,0-.065,0-.1,0,1.085.12,2.162.209,3.209.273a79.681,79.681,0,0,0,8.974.008c2.283-.119,3.708-.292,3.708-.292,7.421-47.317-2.724-62-2.724-62a42.6,42.6,0,0,0-17.365-1.66,20.323,20.323,0,0,0-3.529,2.279c2.281-.58,11.865-2.57,16.817,3.419C73.321,87.221,76.875,139.019,58.678,138.362Z" transform="translate(0 -0.045)" fill="#2c3149" opacity="0.3"/>
        <path d="M27.52,62.927a.026.026,0,0,1,.007.013l.223.349a.077.077,0,0,0,.014.019l2.047,3.215a5.083,5.083,0,0,0,7.7.758l8.458-7.619,4.247-3.826L47.289,77s6.978-3.007,17.894-.825h0a47.447,47.447,0,0,1,9.731,3.1l-.19-7.888-.143-6L74.306,53.7V53.69l4.046,11.219a.492.492,0,0,1-.515.657l-2.183-.241.04.125,2.049,6.564.021.068,2.8.631,6.964,1.569c3.508.068,3.855-2.044,2.838-5.4l-4.9-14.645c-1.875-6.172-4.853-13.5-9.978-17.413l-1.408-1.077-.29-.22-1.073-.819-.281-.214-1-.763c-2.3,1.635-7.053,4.743-10.99,5.556a8.717,8.717,0,0,1-1.681.2c-3.081.05-4.106-2.253-4.409-4.29a3.729,3.729,0,0,0-1,.645c-.094.078-.189.159-.29.247-.245.223-.509.475-.778.751-.085.081-.166.168-.251.255-2.075,2.157-4.616,5.475-5.463,6.5L34.614,56.846l-.028.03a1.182,1.182,0,0,1-1.726.1l-.991-.945-.073.116-.059.093Z" transform="translate(0 -0.045)" fill="#c5d4eb"/>
        <polygon points="36.94 43.132 40.044 55.903 40.902 59.436 43.927 61.461 47.034 63.546 52.944 63.084 55.449 62.889 57.787 62.288 57.787 62.284 62.238 61.138 61.904 59.215 61.496 56.858 59.247 43.862 57.814 44.341 47.415 47.812 46.509 48.636 44.322 47.993 44.427 46.908 37.925 43.629 36.94 43.132" fill="#17253d"/>
        <rect x="48.264" y="47.758" width="0.325" height="10.439" transform="translate(-9.343 10.336) rotate(-11.166)" fill="#2c3149"/>
        <rect x="45.269" y="47.935" width="0.324" height="12.027" transform="translate(-9.159 9.246) rotate(-10.613)" fill="#2c3149"/>
        <path d="M44.427,46.953l-.1,1.084,2.187.644.906-.824,10.4-3.472L56.99,43.3s-8.979.388-10.466,3.676c.041-.216.678-3.87-5.724-4.764l-2.875,1.461Z" transform="translate(0 -0.045)" fill="#fffcfc"/>
        <path d="M54.154,66.179c2.859,2.187,13.495,4.364,16.485,4.94-.087,4.459-4.718,5-5.453,5.053a47.447,47.447,0,0,1,9.731,3.1l-.19-7.888-.143-6L74.306,53.7l-1.3-4C70.765,59.848,64.831,58.167,61.5,56.9L61.9,59.26c.743.188,2.108.505,3.173.667,5.527.842,5.871,2.9,5.752,5.438-2.333.024-11.59.048-12.7-.984a1.83,1.83,0,0,1-.344-2.049l-2.338.6-2.5.2C52.57,63.953,52.647,65.025,54.154,66.179Z" transform="translate(0 -0.045)" fill="#2c3149" opacity="0.3"/>
        <path d="M46.4,60.891l-.477-3.174a1.151,1.151,0,0,1,.594.491l-.2-.649c1.311.386,3.151,4.5,3.151,4.5l1.978.868-1.759-1.813-1.624-4.125c1.716-.421,2.828,3.506,2.828,3.506L55.9,63.387l1.157.1-.393-.924,1.825-.388a2.358,2.358,0,0,1,.938,2.293l15.161.913,1.109.065,2.049,6.564-3.015-.633-16.8-3.521-1.6-.485L54.3,67.158l-4.013-.382a2.719,2.719,0,0,1-2.073-.984L46.233,63.4l-.86-3.936C46.048,59.443,46.312,60.407,46.4,60.891Z" transform="translate(0 -0.045)" fill="#ffefe1"/>
        <path d="M27.764,63.308l2.047,3.215a5.083,5.083,0,0,0,7.7.758l6.411-5.775L40.9,59.48l-.858-3.533c.358,3.168.105,7.409-3.107,9.732C32.2,69.1,28.692,64.681,27.764,63.308Z" transform="translate(0 -0.045)" fill="#2c3149" opacity="0.3"/>
        <path d="M60.454,40.391a.572.572,0,0,0,.892.473c2.307-1.556,8.548-5.378,11.8-3.577,4.045,2.236,8.982,7.255,13.225,21.313s-1.22,14.468-5.7,14.119c-.039,0-.075-.007-.111-.006l6.964,1.569c3.508.068,3.855-2.044,2.838-5.4l-4.9-14.645c-1.875-6.172-4.853-13.5-9.978-17.413l-3.612-2.758-.207.117L61.28,40.158l-.124-1.04c-.238.063-.476.12-.708.167Z" transform="translate(0 -0.045)" fill="#2c3149" opacity="0.3"/>
        <path d="M53.072,36.089a5.9,5.9,0,0,0,4.961,5.134,5.211,5.211,0,0,0,1.22.087c2.707-.095,6.211-1.864,8.845-3.456a53.344,53.344,0,0,0,4.618-3.148l-.281-.214C69.3,36.861,62.051,41.7,58.1,40.9a5.54,5.54,0,0,1-4.738-5.061C53.268,35.92,53.173,36,53.072,36.089Z" transform="translate(0 -0.045)" fill="#fffcfc"/>
        <path d="M27.808,62.528c.3-.452,2.752-4.066,4.971-4.349a2.078,2.078,0,0,0,1.835-1.333l-.028.03a1.182,1.182,0,0,1-1.726.1l-.991-.945-.073.116-.059.093Z" transform="translate(0 -0.045)" fill="#2c3149" opacity="0.3"/>
        <path d="M45.925,57.717l.787,4.966L48.9,64.932l-1.844-2.45S46.624,58.891,45.925,57.717Z" transform="translate(0 -0.045)" fill="#c3a09d"/>
        <path d="M46.316,57.559l1.326,4.632,2.2,1.815L48.266,62.25S47.269,58.526,46.316,57.559Z" transform="translate(0 -0.045)" fill="#c3a09d"/>
        <path d="M48.062,56.993l1.624,4.125,1.759,1.813L50.033,61S48.891,57.216,48.062,56.993Z" transform="translate(0 -0.045)" fill="#c3a09d"/>
        <path d="M43.317,133.136c-.333-.336-2.485-3.927,6.865-36.445L34.915,128.084A37.444,37.444,0,0,1,43.317,133.136Z" transform="translate(0 -0.045)" fill="#2c3149" opacity="0.3"/>
        <path d="M9.716,29.738c-.152-.042-.213-.126-.132-.278Z" transform="translate(0 -0.045)" fill="#e7e7e8"/>
        <path d="M59.5,146.346l-.439-.123Z" transform="translate(0 -0.045)" fill="#d3d3d5"/>
        <path d="M63.583,64.572a3.194,3.194,0,0,0-1.294.046,2.894,2.894,0,0,0-1.9,1.362,2.416,2.416,0,0,0,.091,2.588,2.351,2.351,0,0,0,2.611.556c.038-.185-1.619-.246-1.987-1.226-.321-.856.487-2.029,1.2-2.633A3.682,3.682,0,0,1,63.583,64.572Z" transform="translate(0 -0.045)" fill="#17253d"/>
        <path d="M62.5,68.268a1.959,1.959,0,1,1-.525-2.448A1.786,1.786,0,0,1,62.5,68.268Z" transform="translate(0 -0.045)" fill="#fff"/>
        <g>
          <path d="M82.921,135.919a8.339,8.339,0,0,1-.951.113l-6.459.362-7.073-27.749,1.8-2.207,12.988,23.175a7.187,7.187,0,0,1-.308,6.306" transform="translate(0 -0.045)" fill="#17253d"/>
          <path d="M98.518,119.239,87.547,133.134a7.659,7.659,0,0,1-4.626,2.785,7.187,7.187,0,0,0,.308-6.306L70.241,106.438l.662-.809,8.332,13.278,14.024-15.146,5.688,10.565a4.5,4.5,0,0,1-.429,4.913" transform="translate(0 -0.045)" fill="#bbc8e9"/>
          <polygon points="86.859 91.835 81.911 92.111 70.903 105.584 79.235 118.862 93.259 103.716 94.365 102.522 86.859 91.835" fill="#7d9ac6"/>
          <polygon points="84.944 110.809 87.942 107.913 89.138 109.628 89.211 111.691 87.408 113.305 84.944 110.809" fill="#fffcfc"/>
          <path d="M77.786,101.962a.233.233,0,0,1-.178-.391l5.824-6.249a.232.232,0,1,1,.34.317l-5.824,6.249a.237.237,0,0,1-.162.074" transform="translate(0 -0.045)" fill="#fff"/>
        </g>
        <g>
          <path d="M77.5,64.737c.16.191,1.392,17.436-.082,26.241s-6.164,18.3-6.746,18.24a7.1,7.1,0,0,1-1.886-.9s5.085-8.544,6.42-16.8c1.4-8.635.18-26.324.373-26.575A2.928,2.928,0,0,1,77.5,64.737Z" transform="translate(0 -0.045)" fill="#213759"/>
          <path d="M70.588,109.51l.042-.023a5.333,5.333,0,0,0,1.226-1.841.088.088,0,0,0-.058-.125.124.124,0,0,0-.143.067,5.169,5.169,0,0,1-1.124,1.73,1.521,1.521,0,0,1-1,.121.818.818,0,0,1-.577-.382c-.178-.346.716-2.013,1.321-2.982a.089.089,0,0,0-.036-.134.123.123,0,0,0-.15.049c-.166.266-1.618,2.618-1.334,3.17a1,1,0,0,0,.7.475A1.756,1.756,0,0,0,70.588,109.51Z" transform="translate(0 -0.045)" fill="#213759"/>
        </g>
        <polygon points="59.758 195.717 66.048 189.426 68.669 187.33 69.572 186.413 69.289 189.426 67.621 191.523 59.758 195.717" fill="#c3a09d"/>
        <path d="M71.064,191.29A22.625,22.625,0,0,0,70,188.8c-.2-.41-.348-.6-.561-.645a2.815,2.815,0,0,1-.068.419l0,0,0,.012a2.487,2.487,0,0,1-1.035,1.519,5.779,5.779,0,0,1-1.049.91c-2.024,1.295-4.057,2.589-6.175,3.717a3.75,3.75,0,0,1-3.9-.02c-.045-.028-.089-.064-.134-.1a2.212,2.212,0,0,1-.333-.256l-.014-.011h0a2.281,2.281,0,0,1-.235-.266,19.713,19.713,0,0,1-2.918.446,3.136,3.136,0,0,0-1.522.6,1.462,1.462,0,0,0,.18,2.542,12.721,12.721,0,0,0,2.078.943,8.657,8.657,0,0,0,7.75-.933,15.929,15.929,0,0,1,3.384-1.62,20.361,20.361,0,0,1,3.08-.589A2.978,2.978,0,0,0,71.064,191.29Z" transform="translate(0 -0.045)" fill="#272f4e"/>
        <g>
          <g>
            <path d="M114.945,166.939c.409.242.335,3.286,0,3.494-.161.1-5.2-.032-10.32-.046-5.564-.016-11.249.077-11.375-.059-.343-.371-.558-3.078.075-3.389.324-.16,5.9-.093,11.3-.081C109.768,166.869,114.745,166.82,114.945,166.939Z" transform="translate(0 -0.045)" fill="#8cafe2"/>
            <path d="M95.417,169.083v-.9a.813.813,0,0,1,.762-.853h16.042a.812.812,0,0,1,.761.853v.9a.812.812,0,0,1-.761.854H96.179A.813.813,0,0,1,95.417,169.083Zm.762-1.439a.513.513,0,0,0-.481.539v.9a.514.514,0,0,0,.481.54h16.042a.514.514,0,0,0,.481-.54v-.9a.513.513,0,0,0-.481-.539Z" transform="translate(0 -0.045)" fill="#e2e7f5"/>
            <path d="M92.109,156.643c-.409.146-.335,1.981,0,2.106.161.06,5.2-.02,10.32-.028,5.564-.009,11.249.046,11.375-.036.343-.223.558-1.854-.075-2.042-.324-.1-5.9-.056-11.3-.048C97.286,156.6,92.309,156.572,92.109,156.643Z" transform="translate(0 -0.045)" fill="#496286"/>
            <g>
              <path d="M112.494,158.355h4.537a.3.3,0,0,1,.3.3v3.622a.3.3,0,0,1-.3.3h-4.537a0,0,0,0,1,0,0v-4.224A0,0,0,0,1,112.494,158.355Z" fill="#7d9ac6"/>
              <rect x="93.169" y="159.008" width="20.442" height="2.891" fill="#fff"/>
              <rect x="92.871" y="161.898" width="21.025" height="0.68" rx="0.124" fill="#7d9ac6"/>
              <rect x="92.871" y="158.355" width="21.025" height="0.743" rx="0.124" fill="#7d9ac6"/>
            </g>
            <g>
              <path d="M116.2,166.679a21.138,21.138,0,0,1-3.189.09c-.411,0-.848,0-1.313,0-.178,0-.363,0-.547,0-.25,0-.506,0-.768,0-1.712-.007-3.644-.013-5.558-.007-5.124.017-10.158.174-10.319.054-.336-.25-.41-3.919,0-4.209.2-.144,5.177-.084,10.319-.1,1.911-.007,3.846-.013,5.558-.017H111.7c.465,0,.905,0,1.313,0a24.853,24.853,0,0,1,3.114.11C116.533,162.777,116.548,166.232,116.2,166.679Z" transform="translate(0 -0.045)" fill="#24324f"/>
              <path d="M113.014,162.487v4.282c-.411,0-.848,0-1.313,0v-4.283C112.166,162.483,112.606,162.487,113.014,162.487Z" transform="translate(0 -0.045)" fill="#fff"/>
              <path d="M111.154,162.483v4.279c-.25,0-.506,0-.768,0v-4.276Z" transform="translate(0 -0.045)" fill="#fff"/>
            </g>
            <g>
              <path d="M94.955,153.238h4.537a.3.3,0,0,1,.3.3v2.915a.3.3,0,0,1-.3.3H94.955a0,0,0,0,1,0,0v-3.517A0,0,0,0,1,94.955,153.238Z" transform="translate(194.747 309.948) rotate(180)" fill="#c6d1ec"/>
              <rect x="98.676" y="153.328" width="20.442" height="2.746" transform="translate(217.794 309.358) rotate(180)" fill="#fff"/>
              <rect x="98.391" y="156.075" width="21.025" height="0.68" rx="0.124" transform="translate(217.806 312.785) rotate(180)" fill="#c6d1ec"/>
              <rect x="98.4" y="153.234" width="21.025" height="0.743" rx="0.124" transform="translate(217.825 307.168) rotate(180)" fill="#c6d1ec"/>
            </g>
            <path d="M94.508,149.792c-.409.242-.334,3.287,0,3.494.161.1,5.2-.032,10.321-.046,5.563-.015,11.248.077,11.374-.059.344-.371.558-3.078-.074-3.389-.324-.159-5.9-.093-11.3-.081C99.685,149.723,94.708,149.674,94.508,149.792Z" transform="translate(0 -0.045)" fill="#28497c"/>
            <path d="M113.274,152.79H97.233a.813.813,0,0,1-.762-.853v-.9a.813.813,0,0,1,.762-.854h16.041a.813.813,0,0,1,.762.854v.9A.813.813,0,0,1,113.274,152.79ZM97.233,150.5a.514.514,0,0,0-.482.54v.9a.513.513,0,0,0,.482.539h16.041a.513.513,0,0,0,.482-.539v-.9a.514.514,0,0,0-.482-.54Z" transform="translate(0 -0.045)" fill="#496286"/>
          </g>
          <path d="M117.773,161.619c.41.146.335,1.98,0,2.1-.16.06-5.2-.019-10.32-.027-5.564-.01-11.248.046-11.374-.036-.344-.223-.559-1.854.074-2.042.324-.1,5.9-.056,11.3-.049C112.6,161.577,117.574,161.548,117.773,161.619Z" transform="translate(0 -0.045)" fill="#28497c"/>
          <g>
            <path d="M92.55,163.375h4.537a.3.3,0,0,1,.3.3V167.3a.3.3,0,0,1-.3.3H92.55a0,0,0,0,1,0,0v-4.224A0,0,0,0,1,92.55,163.375Z" transform="translate(189.938 330.929) rotate(-180)" fill="#637794"/>
            <rect x="96.272" y="164.028" width="20.442" height="2.891" transform="translate(212.985 330.902) rotate(-180)" fill="#fff"/>
            <rect x="95.986" y="166.919" width="21.025" height="0.68" rx="0.124" transform="translate(212.997 334.473) rotate(-180)" fill="#637794"/>
            <rect x="95.986" y="163.375" width="21.025" height="0.743" rx="0.124" transform="translate(212.997 327.449) rotate(-180)" fill="#637794"/>
          </g>
          <g>
            <path d="M113.235,191.717h4.537a.3.3,0,0,1,.3.3v2.915a.3.3,0,0,1-.3.3h-4.537a0,0,0,0,1,0,0v-3.517A0,0,0,0,1,113.235,191.717Z" fill="#28497c"/>
            <rect x="93.91" y="191.808" width="20.442" height="2.746" fill="#fff"/>
            <rect x="93.612" y="194.554" width="21.025" height="0.68" rx="0.124" fill="#28497c"/>
            <rect x="93.603" y="191.714" width="21.025" height="0.743" rx="0.124" fill="#28497c"/>
          </g>
          <path d="M118.519,185.923c.409.242.335,3.287,0,3.494-.161.1-5.2-.032-10.32-.046-5.564-.015-11.249.077-11.375-.059-.343-.37-.558-3.078.075-3.389.324-.159,5.9-.093,11.3-.081C113.342,185.854,118.319,185.805,118.519,185.923Z" transform="translate(0 -0.045)" fill="#8cafe2"/>
          <path d="M98.991,188.068v-.9a.813.813,0,0,1,.762-.854H115.8a.812.812,0,0,1,.761.854v.9a.811.811,0,0,1-.761.853H99.753A.812.812,0,0,1,98.991,188.068Zm.762-1.44a.514.514,0,0,0-.481.54v.9a.513.513,0,0,0,.481.539H115.8a.513.513,0,0,0,.481-.539v-.9a.514.514,0,0,0-.481-.54Z" transform="translate(0 -0.045)" fill="#e2e7f5"/>
          <path d="M95.683,175.628c-.409.146-.335,1.98,0,2.105.161.06,5.2-.019,10.32-.028,5.564-.009,11.249.047,11.375-.035.343-.223.558-1.855-.075-2.042-.324-.1-5.9-.056-11.3-.049C100.86,175.586,95.883,175.557,95.683,175.628Z" transform="translate(0 -0.045)" fill="#496286"/>
          <g>
            <path d="M116.068,177.339H120.6a.3.3,0,0,1,.3.3v3.622a.3.3,0,0,1-.3.3h-4.537a0,0,0,0,1,0,0v-4.224A0,0,0,0,1,116.068,177.339Z" fill="#7d9ac6"/>
            <rect x="96.743" y="177.992" width="20.442" height="2.891" fill="#fff"/>
            <rect x="96.445" y="180.883" width="21.025" height="0.68" rx="0.124" fill="#7d9ac6"/>
            <rect x="96.445" y="177.339" width="21.025" height="0.743" rx="0.124" fill="#7d9ac6"/>
          </g>
          <g>
            <path d="M119.777,185.664a21.3,21.3,0,0,1-3.189.09c-.411,0-.848,0-1.313,0-.178,0-.363,0-.547,0-.25,0-.506,0-.768,0-1.712-.007-3.644-.014-5.558-.007-5.124.017-10.158.173-10.319.053-.336-.25-.41-3.919,0-4.209.2-.143,5.177-.083,10.319-.1,1.911-.006,3.846-.013,5.558-.016h1.315c.465,0,.905,0,1.313,0a25.078,25.078,0,0,1,3.114.11C120.107,181.761,120.122,185.217,119.777,185.664Z" transform="translate(0 -0.045)" fill="#24324f"/>
            <path d="M116.588,181.471v4.283c-.411,0-.848,0-1.313,0v-4.282C115.74,181.468,116.18,181.471,116.588,181.471Z" transform="translate(0 -0.045)" fill="#fff"/>
            <path d="M114.728,181.468v4.279c-.25,0-.506,0-.768,0v-4.276Z" transform="translate(0 -0.045)" fill="#fff"/>
          </g>
          <g>
            <path d="M98.529,172.222h4.537a.3.3,0,0,1,.3.3v2.915a.3.3,0,0,1-.3.3H98.529a0,0,0,0,1,0,0v-3.517A0,0,0,0,1,98.529,172.222Z" transform="translate(201.895 347.917) rotate(180)" fill="#c6d1ec"/>
            <rect x="102.25" y="172.313" width="20.442" height="2.746" transform="translate(224.942 347.327) rotate(180)" fill="#fff"/>
            <rect x="101.965" y="175.059" width="21.025" height="0.68" rx="0.124" transform="translate(224.954 350.754) rotate(180)" fill="#c6d1ec"/>
            <rect x="101.974" y="172.219" width="21.025" height="0.743" rx="0.124" transform="translate(224.973 345.137) rotate(180)" fill="#c6d1ec"/>
          </g>
          <path d="M98.082,168.777c-.409.242-.334,3.286,0,3.494.161.1,5.2-.032,10.321-.046,5.563-.016,11.248.077,11.374-.059.343-.371.558-3.078-.074-3.389-.324-.16-5.9-.093-11.3-.081C103.259,168.708,98.282,168.658,98.082,168.777Z" transform="translate(0 -0.045)" fill="#28497c"/>
          <path d="M116.848,171.775H100.807a.813.813,0,0,1-.762-.853v-.9a.813.813,0,0,1,.762-.853h16.041a.813.813,0,0,1,.762.853v.9A.813.813,0,0,1,116.848,171.775Zm-16.041-2.293a.513.513,0,0,0-.482.539v.9a.513.513,0,0,0,.482.539h16.041a.513.513,0,0,0,.482-.539v-.9a.513.513,0,0,0-.482-.539Z" transform="translate(0 -0.045)" fill="#496286"/>
          <path d="M118.782,189.583c.41.146.335,1.981,0,2.106-.16.06-5.2-.019-10.32-.028-5.564-.009-11.248.046-11.374-.035-.344-.224-.558-1.855.074-2.043.324-.1,5.9-.056,11.3-.048C113.606,189.542,118.583,189.512,118.782,189.583Z" transform="translate(0 -0.045)" fill="#28497c"/>
          <path d="M102.485,163.958c.336.013.662.013.982,0Z" transform="translate(0 -0.045)" fill="#eb685a"/>
          <path d="M78.3,192.014c6.149-1.281,12.163-2.579,18.2-3.729a2.859,2.859,0,0,1,2.325.886c1.271,1.63,2.278,3.465,3.385,5.214C94.54,199.423,81.586,200.467,78.3,192.014Z" transform="translate(0 -0.045)" fill="#fff"/>
          <path d="M95.542,193.472a1.5,1.5,0,0,0,0-3,1.5,1.5,0,0,0,0,3Z" transform="translate(0 -0.045)" fill="#fff"/>
          <path d="M83.97,193.325a2.237,2.237,0,0,1,1.5-.915c.448,0,.914.273,1.319.082a3.067,3.067,0,0,0,.472-.369,1.922,1.922,0,0,1,1.344-.234,3.677,3.677,0,0,0,1.387,0,2.456,2.456,0,0,0,.861-.509.929.929,0,0,1,.556-.291,1.356,1.356,0,0,1,.517.192,1.794,1.794,0,0,0,1.187.036c.389-.1.755-.284,1.133-.425a6.032,6.032,0,0,1,1.84-.372" transform="translate(0 -0.045)" fill="#c3a09d"/>
          <path d="M87.043,194.6l1.066-.591a1.654,1.654,0,0,1,1.078-.3c.193.038.365.144.555.195a1.021,1.021,0,0,0,.678-.049c.2-.085.362-.231.561-.31a1.83,1.83,0,0,1,.344-.089l1.862-.356" transform="translate(0 -0.045)" fill="#c3a09d"/>
          <path d="M94.859,192.721a2.328,2.328,0,0,1,1.078-.415,2.887,2.887,0,0,0,1.383-.252" transform="translate(0 -0.045)" fill="#c3a09d"/>
        </g>
      </g>
    </g>
  </g>
</svg>
